<?xml version="1.0" standalone="no"?>
<!DOCTYPE svg PUBLIC "-//W3C//DTD SVG 1.1//EN" "http://www.w3.org/Graphics/SVG/1.1/DTD/svg11.dtd" >
<svg>
    <metadata>
        Created by FontForge 20120731 at Mon Mar 31 14:10:06 2014
        By tam,,,
        Copyright (c) 2010 by Ralph du Carrois, Erik Spiekermann &#38; Botio Nikoltchev. All rights reserved.
    </metadata>
    <defs>
        <font id="CiscoSansBold" horiz-adv-x="600" >
            <font-face
                font-family="CiscoSansBold"
                font-weight="700"
                font-stretch="normal"
                units-per-em="1000"
                panose-1="2 11 8 3 2 2 1 2 3 3"
                ascent="790"
                descent="-210"
                x-height="520"
                cap-height="720"
                bbox="-152 -362 1195 1000"
                underline-thickness="85"
                underline-position="-6"
                unicode-range="U+0020-FEFF"
            />
            <missing-glyph horiz-adv-x="601"
               d="M55 720h491v-720h-491v720zM423 123v474h-245v-474h245z" />
            <glyph glyph-name="f_f" unicode="ff" horiz-adv-x="697"
           d="M572 412v-412h-156v412h-166v-412h-156v412h-79v108h79v28q0 48 14.5 81.5t39.5 55t59.5 31t75.5 9.5q45 0 87 -6.5t93 -24.5q22 21 53 31t69 10t68.5 -5.5t53.5 -11.5v-110q-24 6 -45.5 9.5t-35.5 3.5q-29 0 -41.5 -12.5t-12.5 -44.5v-44h109v-108h-109zM416 558
q0 11 0.5 20.5t1.5 19.5q-24 5 -49 9t-45 4q-42 0 -58 -12.5t-16 -44.5v-34h166v38z" />
            <glyph glyph-name="f_f_i" unicode="ffi" horiz-adv-x="948"
           d="M622 735q51 0 94 -6t66 -12v-110q-24 6 -59 10t-60 4q-29 0 -46.5 -4.5t-27.5 -13t-13.5 -21t-3.5 -28.5v-34h321v-520h-156v412h-165v-412h-156v412h-166v-412h-156v412h-79v108h79v28q0 89 48.5 133t137.5 44q48 0 93.5 -7t99.5 -27q53 44 149 44zM250 520h166v28
q0 29 4 49q-24 6 -51.5 10t-47.5 4q-42 0 -56.5 -12.5t-14.5 -44.5v-34z" />
            <glyph glyph-name="f_f_j" unicode="ffj" horiz-adv-x="949"
           d="M632 735q48 0 88 -6t63 -12v-110q-12 3 -27.5 5.5t-32 4.5t-31.5 3t-25 1q-51 0 -73 -13t-22 -45v-43h322v-549q0 -75 -44 -120.5t-129 -45.5q-23 0 -50 4t-47 11v109q17 -5 34 -7t28 -2q27 0 39.5 12.5t12.5 41.5v438h-166v-412h-156v412h-166v-412h-156v412h-79v108h79
v28q0 48 14.5 81.5t39.5 55t59.5 31t75.5 9.5q45 0 87 -6.5t93 -24.5q42 41 169 41zM416 558q0 11 0.5 20.5t1.5 19.5q-24 5 -49 9t-45 4q-42 0 -58 -12.5t-16 -44.5v-34h166v38z" />
            <glyph glyph-name="f_f_l" unicode="ffl" horiz-adv-x="958"
           d="M615 735q41 0 76 -3.5t59 -8.5l153 6v-729h-156v613q-22 4 -47.5 6t-43.5 2q-40 0 -62 -14t-22 -46v-41h109v-108h-109v-412h-156v412h-166v-412h-156v412h-79v108h79v28q0 48 14.5 81.5t39.5 55t59.5 31t75.5 9.5q45 0 87 -6.5t93 -24.5q22 21 57 31t95 10zM416 558
q0 11 0.5 20.5t1.5 19.5q-24 5 -49 9t-45 4q-42 0 -58 -12.5t-16 -44.5v-34h166v38z" />
            <glyph glyph-name="f_i" unicode="fi" horiz-adv-x="626"
           d="M460 607q-24 6 -59 10t-60 4q-54 0 -72.5 -16t-18.5 -51v-34h321v-520h-156v412h-165v-412h-156v412h-79v108h79v28q0 96 55.5 141.5t150.5 45.5q51 0 94 -6t66 -12v-110z" />
            <glyph glyph-name="f_j" unicode="fj" horiz-adv-x="626"
           d="M415 412h-165v-412h-156v412h-79v108h79v28q0 96 57 141.5t152 45.5q48 0 91 -6t66 -12v-110q-12 3 -27.5 5.5t-32 4.5t-31.5 3t-25 1q-28 0 -46 -4t-28.5 -12.5t-15 -21t-4.5 -29.5v-34h321v-549q0 -75 -44 -120.5t-129 -45.5q-23 0 -50 4t-47 11v109q17 -5 34 -7t28 -2
q27 0 39.5 12.5t12.5 41.5v438z" />
            <glyph glyph-name="f_l" unicode="fl" horiz-adv-x="636"
           d="M425 0v613q-22 4 -47.5 6t-43.5 2q-50 0 -67 -17.5t-17 -49.5v-35h99v-108h-99v-411h-156v411h-79v108h79v29q0 48 14.5 83t40.5 58.5t63 34.5t81 11q41 0 76 -3.5t59 -8.5l153 6v-729h-156z" />
            <glyph glyph-name=".notdef" horiz-adv-x="601"
           d="M55 720h491v-720h-491v720zM423 123v474h-245v-474h245z" />
            <glyph glyph-name=".null" horiz-adv-x="0"
            />
            <glyph glyph-name="nonmarkingreturn" horiz-adv-x="260"
            />
            <glyph glyph-name="space" unicode=" " horiz-adv-x="260"
            />
            <glyph glyph-name="exclam" unicode="!" horiz-adv-x="310"
           d="M81 240l-25 495h198l-25 -495h-148zM66 0v157h177v-157h-177z" />
            <glyph glyph-name="quotedbl" unicode="&#x22;"
           d="M190 490h-100l-15 153v92h130v-92zM370 490h-100l-15 153v92h130v-92z" />
            <glyph glyph-name="numbersign" unicode="#"
           d="M60 540h70l14 160h129l-14 -160h115l14 160h129l-14 -160h57v-110h-67l-14 -160h61v-110h-70l-14 -160h-129l14 160h-115l-14 -160h-129l14 160h-57v110h66l14 160h-60v110zM235 270h115l14 160h-115z" />
            <glyph glyph-name="dollar" unicode="$"
           d="M600 204q0 -39 -12.5 -75t-40.5 -65.5t-73 -50t-111 -26.5v-122h-129v124q-66 9 -109 33t-69 55.5t-39 66.5t-17 67h159q8 -47 42 -78.5t105 -31.5q54 0 89.5 17.5t35.5 61.5q0 26 -10 43.5t-31 29.5t-53 21t-77 19t-87 23.5t-75 37t-52.5 60t-19.5 93.5q0 86 51.5 138
t156.5 65v120h129v-118q59 -7 99 -27t64.5 -47t37 -59.5t17.5 -63.5h-157q-8 47 -43 66t-80 19q-22 0 -41.5 -3t-33.5 -11.5t-22.5 -22.5t-8.5 -36q0 -21 7 -34.5t23.5 -23t42 -16.5t63.5 -15q52 -11 100.5 -27t86 -42t60 -66t22.5 -99z" />
            <glyph glyph-name="percent" unicode="%" horiz-adv-x="799"
           d="M291 0h-124l342 700h124zM370 546q0 -78 -45 -123.5t-130 -45.5t-130 45.5t-45 123.5t45 123.5t130 45.5t130 -45.5t45 -123.5zM264 546q0 46 -18 68.5t-51 22.5t-51 -22.5t-18 -68.5t18 -68.5t51 -22.5t51 22.5t18 68.5zM779 153q0 -78 -45 -123.5t-130 -45.5t-130 45.5
t-45 123.5t45 123.5t130 45.5t130 -45.5t45 -123.5zM673 153q0 46 -18 68.5t-51 22.5t-51 -22.5t-18 -68.5t18 -68.5t51 -22.5t51 22.5t18 68.5z" />
            <glyph glyph-name="ampersand" unicode="&#x26;" horiz-adv-x="685"
           d="M645 335q-5 -44 -18.5 -89.5t-36.5 -87.5l85 -80l-101 -93l-69 65q-36 -30 -87.5 -47.5t-108.5 -17.5q-71 0 -121.5 14.5t-83.5 40t-48.5 60t-15.5 75.5q0 33 8.5 59t25 48t40.5 41.5t54 39.5q-49 42 -73.5 83.5t-24.5 97.5q0 30 12 60.5t38 55t68 40t102 15.5t101 -14.5
t66.5 -37.5t37 -52t11.5 -57q0 -34 -10 -61.5t-28 -51t-43 -44.5t-55 -41l110 -94q7 23 11.5 46t7.5 46zM316 98q27 0 54 10t45 28l-152 135q-30 -25 -41.5 -43.5t-11.5 -41.5q0 -45 30.5 -66.5t75.5 -21.5zM220 544q0 -26 12.5 -48t46.5 -51q48 34 64 57t16 49q0 32 -18 49
t-50 17q-37 0 -54 -19.5t-17 -53.5z" />
            <glyph glyph-name="quotesingle" unicode="'" horiz-adv-x="270"
           d="M185 490h-100l-15 153v92h130v-92z" />
            <glyph glyph-name="parenleft" unicode="(" horiz-adv-x="340"
           d="M182 320q0 -58 8 -116t25.5 -118t44.5 -123.5t65 -132.5h-132q-27 39 -55 92t-51 116t-37.5 134t-14.5 148q0 76 14.5 147.5t37.5 134.5t51 116t55 92h132q-76 -137 -109.5 -256t-33.5 -234z" />
            <glyph glyph-name="parenright" unicode=")" horiz-adv-x="340"
           d="M158 320q0 115 -33.5 234t-109.5 256h132q27 -39 55 -92t51 -116t37.5 -134.5t14.5 -147.5q0 -77 -14.5 -148t-37.5 -134t-51 -116t-55 -92h-132q38 69 65 132.5t44.5 123.5t25.5 118t8 116z" />
            <glyph glyph-name="asterisk" unicode="*" horiz-adv-x="470"
           d="M234 475l-50 -119l-112 82l92 88l-130 10l44 132l112 -60l-30 127h138l-23 -129l115 62l44 -132l-131 -10l93 -88l-112 -82z" />
            <glyph glyph-name="plus" unicode="+"
           d="M364 542v-158h156v-123h-156v-159h-129v159h-155v123h155v158h129z" />
            <glyph glyph-name="comma" unicode="," horiz-adv-x="270"
           d="M233 30q0 -58 -18.5 -97t-47.5 -64t-64 -37t-67 -15v78q38 8 60.5 34t22.5 71h-63v157h177v-127z" />
            <glyph glyph-name="hyphen" unicode="-" horiz-adv-x="540"
           d="M460 261h-380v123h380v-123z" />
            <glyph glyph-name="period" unicode="." horiz-adv-x="289"
           d="M56 0v157h177v-157h-177z" />
            <glyph glyph-name="slash" unicode="/" horiz-adv-x="340"
           d="M138 -90h-138l202 825h138z" />
            <glyph glyph-name="zero" unicode="0"
           d="M300 91q25 0 44.5 11.5t33 41t20.5 79t7 125.5t-7 126.5t-20.5 80.5t-33 42.5t-44.5 12.5t-44.5 -12.5t-33 -42.5t-20.5 -80.5t-7 -126.5t7 -125.5t20.5 -79t33 -41t44.5 -11.5zM300 -15q-61 0 -110 21t-83.5 65.5t-53.5 113t-19 163.5q0 97 18.5 167t53 114t83.5 65
t111 21q61 0 110.5 -21t84 -65t53 -114t18.5 -167q0 -95 -19 -163.5t-53.5 -113t-83.5 -65.5t-110 -21z" />
            <glyph glyph-name="one" unicode="1"
           d="M259 556l-160 -82v141l161 85h155v-700h-156v556z" />
            <glyph glyph-name="two" unicode="2"
           d="M44 508q7 51 32 89.5t61.5 64.5t82 39.5t93.5 13.5q52 0 96 -14.5t76.5 -41t50.5 -63t18 -81.5q0 -41 -10 -73.5t-32.5 -64.5t-58 -69t-87.5 -87l-97 -94h280v-127h-485v127l169 166q46 45 77 76.5t50 56t27 45t8 44.5q0 40 -23.5 62t-63.5 22q-35 0 -62.5 -22t-38.5 -69
h-163z" />
            <glyph glyph-name="three" unicode="3"
           d="M288 98q44 0 72 25.5t28 76.5q0 60 -32 87.5t-89 27.5h-61v107h69q19 0 37.5 6.5t32 18.5t22 30t8.5 41q0 41 -24 63t-59 22q-74 0 -89 -69h-152q13 83 79.5 132t170.5 49q46 0 88.5 -11t74 -33.5t50.5 -57t19 -82.5q0 -29 -11.5 -55t-31 -46.5t-46 -34.5t-55.5 -19
q32 -5 61 -19q30 -15 51.5 -38t34.5 -53t13 -63q0 -49 -18.5 -89.5t-52.5 -69t-82 -44t-106 -15.5q-55 0 -100.5 15t-78.5 41t-52.5 61.5t-23.5 76.5h155q5 -36 29.5 -58.5t68.5 -22.5z" />
            <glyph glyph-name="four" unicode="4"
           d="M492 700v-453h79v-115h-79v-132h-148v132h-303v132l294 436h157zM344 247v244l-158 -244h158z" />
            <glyph glyph-name="five" unicode="5"
           d="M197 180q9 -42 33.5 -62t62.5 -20q44 0 74.5 33t30.5 101q0 69 -28 100.5t-79 31.5q-23 0 -49 -11.5t-46 -31.5h-123l18 379h418v-110h-278l-9 -157q53 33 118 33q48 0 88 -15t69 -44.5t45.5 -72t16.5 -96.5q0 -59 -21 -106t-57.5 -79.5t-85.5 -50t-105 -17.5
q-99 0 -165 50.5t-80 144.5h152z" />
            <glyph glyph-name="six" unicode="6"
           d="M348 478q49 0 89 -15.5t68.5 -45.5t44 -73.5t15.5 -99.5t-18 -103t-52 -82t-81.5 -54.5t-107.5 -19.5q-63 0 -113 22t-85 65t-53.5 107t-18.5 148q0 118 24.5 193t64.5 118.5t90 60t101 16.5q94 0 155.5 -40t84.5 -113h-169q-17 48 -72 48q-21 0 -40.5 -9.5t-35.5 -33.5
t-28 -64.5t-17 -102.5q23 32 63 55t91 23zM201 231q0 -19 4.5 -42.5t16 -44.5t31 -35t49.5 -14q48 0 77 39t29 100q0 68 -25.5 101t-73.5 33q-26 0 -46.5 -11t-34 -29.5t-20.5 -43.5t-7 -53z" />
            <glyph glyph-name="seven" unicode="7"
           d="M286 0h-164l270 582h-332v118h485v-122z" />
            <glyph glyph-name="eight" unicode="8"
           d="M547 537q0 -31 -9.5 -56t-25.5 -45.5t-36.5 -35.5t-42.5 -27q24 -13 48 -30t42.5 -39t30 -49.5t11.5 -62.5q0 -46 -17.5 -84t-51 -65.5t-82.5 -42.5t-112 -15t-113 14.5t-84 41t-52 63.5t-18 82q0 70 33 110.5t95 67.5q-24 13 -44.5 28t-35 34t-23 43.5t-8.5 57.5
q0 52 21 87.5t55.5 58t80 32.5t93.5 10q40 0 83.5 -8.5t79.5 -29t59 -55t23 -85.5zM400 192q0 30 -11 51t-28.5 34.5t-39 22.5t-41.5 15q-31 -15 -55.5 -43t-24.5 -80q0 -27 9.5 -45.5t24 -30.5t32 -17t33.5 -5t34 5t33 17t24.5 30.5t9.5 45.5zM205 532q0 -26 10 -45
t26 -31.5t35 -21t36 -13.5q33 17 57.5 43.5t24.5 67.5q0 25 -9.5 41t-24 26t-30.5 14t-28 4t-29 -3t-32 -12.5t-25.5 -26t-10.5 -43.5z" />
            <glyph glyph-name="nine" unicode="9"
           d="M261 222q-58 0 -100.5 18t-70.5 50.5t-42 77.5t-14 100q0 60 22 106.5t58.5 77.5t83.5 47t97 16q61 0 110.5 -19.5t84.5 -61t54.5 -106t19.5 -155.5q0 -114 -23 -189t-61 -119t-87.5 -62t-102.5 -18q-98 0 -162 45t-85 123h169q7 -32 27 -47.5t52 -15.5q21 0 39 9
t33 32.5t26 63t16 100.5q-22 -31 -58.5 -52t-85.5 -21zM399 469q0 24 -4.5 48t-16 43.5t-31 32t-49.5 12.5q-29 0 -49 -11t-33 -29t-19 -42t-6 -50q0 -69 26 -105t77 -36q27 0 47 10.5t32.5 29t19 43.5t6.5 54z" />
            <glyph glyph-name="colon" unicode=":" horiz-adv-x="289"
           d="M56 0v157h177v-157h-177zM56 363v157h177v-157h-177z" />
            <glyph glyph-name="semicolon" unicode=";" horiz-adv-x="289"
           d="M56 363v157h177v-157h-177zM233 30q0 -58 -18.5 -97t-47.5 -64t-64 -37t-67 -15v78q38 8 60.5 34t22.5 71h-63v157h177v-127z" />
            <glyph glyph-name="less" unicode="&#x3c;"
           d="M80 382l440 210v-148l-282 -117v-7l282 -117v-148l-440 210v117z" />
            <glyph glyph-name="equal" unicode="="
           d="M520 363h-440v123h440v-123zM520 158h-440v123h440v-123z" />
            <glyph glyph-name="greater" unicode="&#x3e;"
           d="M520 265l-440 -210v148l282 117v7l-282 117v148l440 -210v-117z" />
            <glyph glyph-name="question" unicode="?" horiz-adv-x="548"
           d="M46 535q2 41 21.5 77.5t52 63.5t76 43t94.5 16q108 0 166 -47.5t58 -122.5q0 -30 -6 -54t-19.5 -49t-36 -54.5t-56.5 -70.5q-20 -24 -24.5 -50.5t-4.5 -56.5h-157q0 33 1.5 57t7.5 45t18 41.5t33 47.5q25 31 40 51.5t23 34.5t10.5 25t2.5 24q0 62 -58 62q-27 0 -46 -20
t-27 -63h-169zM201 0v157h177v-157h-177z" />
            <glyph glyph-name="at" unicode="@" horiz-adv-x="915"
           d="M658 95q-49 0 -78.5 26.5t-33.5 60.5q-6 -12 -18.5 -26t-30.5 -25t-41 -18.5t-49 -7.5q-41 0 -71 15t-49.5 40.5t-29 60.5t-9.5 74q0 60 17.5 108t47 81.5t68 51t79.5 17.5q28 0 50.5 -12t30.5 -31l18 36h102l-34 -264q-2 -16 -3.5 -29.5t-1.5 -19.5q0 -29 9.5 -37
t24.5 -8q43 0 62.5 56.5t19.5 150.5q0 116 -62.5 177.5t-197.5 61.5q-50 0 -103 -15.5t-97 -53t-72.5 -99t-28.5 -152.5q0 -84 25 -142t67 -93.5t96.5 -51t113.5 -15.5q53 0 89.5 8.5t68.5 18.5l27 -98q-31 -11 -78.5 -21.5t-114.5 -10.5q-81 0 -158.5 25t-138 76t-97.5 127
t-37 178q0 78 18.5 139t50.5 108t74.5 79.5t91.5 53.5t101 30.5t102 9.5q84 0 157 -22.5t126 -65.5t83.5 -106t30.5 -145q0 -71 -17 -127t-46 -94.5t-69 -59t-85 -20.5zM433 199q23 0 42.5 22t26.5 73l9 70q2 10 2 17v17q0 11 -2 22.5t-7 20.5t-13.5 14.5t-22.5 5.5
q-39 0 -63.5 -44t-24.5 -138q0 -14 2 -28.5t8 -26t16 -18.5t27 -7z" />
            <glyph glyph-name="A" unicode="A" horiz-adv-x="701"
           d="M524 0l-51 165h-256l-51 -165h-166l256 720h187l258 -720h-177zM251 275h189l-94 307z" />
            <glyph glyph-name="B" unicode="B" horiz-adv-x="647"
           d="M300 720q153 0 221 -47t68 -144q0 -29 -11 -53t-29 -43t-41.5 -32t-49.5 -20q72 -14 115.5 -57.5t43.5 -115.5q0 -52 -16.5 -91t-52.5 -65t-93 -39t-137 -13h-258v720h240zM228 324v-214h97q66 0 93.5 24.5t27.5 78.5t-30 82.5t-86 28.5h-102zM228 610v-182h87
q50 0 78 24t28 72q0 43 -30 64.5t-79 21.5h-84z" />
            <glyph glyph-name="C" unicode="C" horiz-adv-x="741"
           d="M378 103q71 0 111 38.5t46 123.5h171q-17 -139 -101 -209.5t-230 -70.5q-72 0 -133.5 23.5t-106 71t-70 118t-25.5 164.5q0 91 24 161t68.5 117t108 71t142.5 24q63 0 116.5 -16.5t95 -48t69 -78t37.5 -107.5h-168q-14 68 -53 100.5t-97 32.5q-38 0 -68.5 -14.5
t-53 -45.5t-34.5 -79.5t-12 -116.5q0 -71 13 -120.5t35 -80.5t52 -44.5t63 -13.5z" />
            <glyph glyph-name="D" unicode="D" horiz-adv-x="729"
           d="M330 720q175 0 267 -88t92 -272q0 -95 -24 -163t-70 -111.5t-112.5 -64.5t-150.5 -21h-272v720h270zM228 604v-487h104q43 0 78 14t59.5 43.5t37.5 75.5t13 110q0 127 -51.5 185.5t-138.5 58.5h-102z" />
            <glyph glyph-name="E" unicode="E" horiz-adv-x="581"
           d="M517 305h-289v-184h318v-121h-486v720h486v-123h-318v-176h289v-116z" />
            <glyph glyph-name="F" unicode="F" horiz-adv-x="547"
           d="M486 291h-258v-291h-168v720h457v-121h-289v-192h258v-116z" />
            <glyph glyph-name="G" unicode="G" horiz-adv-x="749"
           d="M699 0h-108l-24 67q-32 -36 -83.5 -59t-123.5 -23q-65 0 -123.5 23t-102 69.5t-69 117.5t-25.5 168q0 92 25 161.5t71 116.5t110.5 70.5t144.5 23.5q61 0 112.5 -15t91.5 -43.5t66.5 -69.5t37.5 -93h-167q-14 54 -50.5 79t-90.5 25q-38 0 -70 -14t-55.5 -44.5t-37 -79
t-13.5 -117.5t13.5 -118.5t37.5 -81t56 -46t70 -14.5q35 0 64.5 10t51.5 28.5t34 44t12 55.5v51h-170v109h315v-401z" />
            <glyph glyph-name="H" unicode="H" horiz-adv-x="723"
           d="M663 720v-720h-167v304h-268v-304h-168v720h168v-296h268v296h167z" />
            <glyph glyph-name="I" unicode="I" horiz-adv-x="288"
           d="M228 720v-720h-168v720h168z" />
            <glyph glyph-name="J" unicode="J" horiz-adv-x="565"
           d="M180 213q1 -31 9.5 -52t21 -33.5t27 -18t29.5 -5.5q16 0 31 5t26 18t18 35t7 55v503h161v-492q0 -112 -59 -177.5t-180 -65.5q-45 0 -87.5 12t-77 39t-57.5 70.5t-29 106.5h160z" />
            <glyph glyph-name="K" unicode="K" horiz-adv-x="716"
           d="M496 0l-268 314v-314h-168v720h168v-302l254 302h196l-301 -337l339 -383h-220z" />
            <glyph glyph-name="L" unicode="L" horiz-adv-x="598"
           d="M228 720v-594h350v-126h-518v720h168z" />
            <glyph glyph-name="M" unicode="M" horiz-adv-x="893"
           d="M375 0l-173 495v-495h-142v720h192l195 -562l189 562h197v-720h-152v496l-169 -496h-137z" />
            <glyph glyph-name="N" unicode="N" horiz-adv-x="721"
           d="M661 720v-720h-173l-284 511v-511h-144v720h186l272 -492v492h143z" />
            <glyph glyph-name="O" unicode="O" horiz-adv-x="784"
           d="M392 104q34 0 67 12.5t58.5 42.5t41 79t15.5 122t-16 122.5t-41.5 79.5t-58 42.5t-66.5 12.5q-35 0 -67.5 -13t-58 -43t-41 -79.5t-15.5 -122.5t16 -122t41.5 -78.5t58.5 -42t66 -12.5zM392 -15q-66 0 -129.5 19t-113 63t-79.5 115.5t-30 176.5q0 103 30 174.5
t79.5 116.5t113 65t129.5 20t129.5 -19.5t113 -63.5t79.5 -115.5t30 -176.5q0 -103 -30.5 -174.5t-80 -116t-112.5 -64.5t-129 -20z" />
            <glyph glyph-name="P" unicode="P" horiz-adv-x="666"
           d="M320 720q164 0 237.5 -59.5t73.5 -180.5q0 -124 -76 -181.5t-229 -57.5h-98v-241h-168v720h260zM228 605v-249h100q63 0 96.5 31t33.5 93q0 67 -35 96t-101 29h-94z" />
            <glyph glyph-name="Q" unicode="Q" horiz-adv-x="791"
           d="M392 -15q-66 0 -129.5 19t-113 63t-79.5 115.5t-30 176.5q0 103 30 174.5t79.5 116.5t113 65t129.5 20t129.5 -19.5t113 -63.5t79.5 -115.5t30 -176.5q0 -104 -30 -175t-81 -116l118 -132l-135 -95l-97 162q-30 -10 -62.5 -14.5t-64.5 -4.5zM392 104q34 0 67 12.5
t58.5 42.5t41 79t15.5 122t-16 122.5t-41.5 79.5t-58 42.5t-66.5 12.5q-35 0 -67.5 -13t-58 -43t-41 -79.5t-15.5 -122.5t16 -122t41.5 -78.5t58.5 -42t66 -12.5z" />
            <glyph glyph-name="R" unicode="R" horiz-adv-x="663"
           d="M459 0l-159 263h-92v-263h-168v720h265q152 0 228.5 -58t76.5 -170q0 -75 -35 -124t-108 -76l191 -292h-199zM208 604v-225h105q54 0 88.5 29t34.5 84q0 59 -32.5 85.5t-96.5 26.5h-99z" />
            <glyph glyph-name="S" unicode="S" horiz-adv-x="674"
           d="M344 -15q-139 0 -219 61.5t-95 165.5h159q8 -48 46.5 -79t110.5 -31q73 0 103.5 22.5t30.5 60.5q0 28 -13.5 46.5t-37.5 31.5t-57 22t-72 18q-45 10 -89 25t-78.5 40.5t-55.5 63.5t-21 95q0 96 72.5 152t216.5 56q127 0 199.5 -53t86.5 -147h-157q-6 41 -42.5 63
t-90.5 22q-64 0 -90 -20t-26 -53q0 -44 35.5 -63.5t110.5 -35.5q52 -11 102 -28.5t89 -45.5t63 -69.5t24 -100.5q0 -44 -17.5 -83.5t-54.5 -69.5t-95 -48t-138 -18z" />
            <glyph glyph-name="T" unicode="T" horiz-adv-x="603"
           d="M598 594h-214v-594h-168v594h-211v126h593v-126z" />
            <glyph glyph-name="U" unicode="U" horiz-adv-x="716"
           d="M223 720v-490q0 -61 35 -93.5t101 -32.5t103.5 32.5t37.5 93.5v490h161v-479q0 -121 -78.5 -188.5t-224.5 -67.5t-224.5 67.5t-78.5 188.5v479h168z" />
            <glyph glyph-name="V" unicode="V" horiz-adv-x="661"
           d="M661 720l-230 -720h-201l-230 720h173l162 -589l164 589h162z" />
            <glyph glyph-name="W" unicode="W" horiz-adv-x="985"
           d="M985 720l-161 -720h-198l-134 556l-128 -556h-191l-173 720h174l109 -532l121 532h187l131 -535l104 535h159z" />
            <glyph glyph-name="X" unicode="X" horiz-adv-x="701"
           d="M441 384l255 -384h-203l-155 244l-154 -244h-179l255 373l-239 347h199l142 -215l142 215h172z" />
            <glyph glyph-name="Y" unicode="Y" horiz-adv-x="668"
           d="M255 0v287l-255 433h180l158 -293l170 293h160l-255 -433v-287h-158z" />
            <glyph glyph-name="Z" unicode="Z" horiz-adv-x="620"
           d="M215 119h374v-119h-564v121l379 480h-360v119h551v-118z" />
            <glyph glyph-name="bracketleft" unicode="[" horiz-adv-x="340"
           d="M310 -170h-250v980h250v-103h-114v-774h114v-103z" />
            <glyph glyph-name="backslash" unicode="\" horiz-adv-x="340"
           d="M0 735h138l202 -825h-138z" />
            <glyph glyph-name="bracketright" unicode="]" horiz-adv-x="340"
           d="M30 -67h114v774h-114v103h250v-980h-250v103z" />
            <glyph glyph-name="asciicircum" unicode="^" horiz-adv-x="520"
           d="M175 400h-149l159 320h150l159 -320h-149l-85 199z" />
            <glyph glyph-name="underscore" unicode="_" horiz-adv-x="544"
           d="M544 -149h-544v123h544v-123z" />
            <glyph glyph-name="grave" unicode="`" horiz-adv-x="330"
           d="M300 583h-121l-149 137h169z" />
            <glyph glyph-name="a" unicode="a" horiz-adv-x="580"
           d="M45 370q19 78 82.5 121.5t168.5 43.5q109 0 171.5 -50.5t62.5 -140.5v-344h-122l-19 54q-26 -29 -68 -49t-104 -20q-40 0 -73.5 11t-57.5 32t-37.5 51.5t-13.5 70.5q0 30 10.5 55.5t35.5 46t65 36t99 25.5l129 21v23q0 38 -21.5 57.5t-61.5 19.5q-38 0 -59 -17.5
t-27 -46.5h-160zM262 92q53 0 82.5 29.5t29.5 70.5v57l-89 -18q-55 -11 -74.5 -29t-19.5 -45q0 -65 71 -65z" />
            <glyph glyph-name="b" unicode="b" horiz-adv-x="635"
           d="M55 0v720h156v-249q28 29 67.5 46.5t89.5 17.5q52 0 95 -16t73.5 -48t47 -80.5t16.5 -112.5q0 -71 -18.5 -126t-51.5 -92t-78 -56t-98 -19q-46 0 -85.5 18.5t-66.5 50.5l-25 -54h-122zM443 264q0 84 -31.5 120.5t-84.5 36.5t-87 -38t-34 -117q0 -47 9 -79t24.5 -51.5
t36.5 -28t46 -8.5q53 0 87 40t34 125z" />
            <glyph glyph-name="c" unicode="c" horiz-adv-x="590"
           d="M560 173q-9 -40 -29.5 -74.5t-52.5 -59.5t-76.5 -39.5t-102.5 -14.5q-130 0 -197 69.5t-67 200.5q0 66 18.5 118t53.5 88t84 55t111 19q52 0 95.5 -12.5t77 -36t55 -55.5t29.5 -71h-164q-9 32 -33.5 50.5t-54.5 18.5q-50 0 -80 -40.5t-30 -136.5q0 -84 30.5 -122.5
t73.5 -38.5q35 0 58.5 19.5t36.5 62.5h164z" />
            <glyph glyph-name="d" unicode="d" horiz-adv-x="635"
           d="M458 0l-26 57q-28 -32 -68.5 -52t-90.5 -20q-53 0 -96.5 18.5t-75 53t-49 85t-17.5 113.5q0 66 17.5 118t49 88t75 55t94.5 19t89 -17t64 -47v249h156v-720h-122zM192 256q0 -83 33 -120t87 -37q26 0 47.5 8.5t37 27.5t24 49.5t8.5 74.5q0 49 -10.5 80.5t-27 49.5
t-37.5 25t-42 7q-55 0 -87.5 -41.5t-32.5 -123.5z" />
            <glyph glyph-name="e" unicode="e" horiz-adv-x="602"
           d="M566 151q-9 -36 -28 -66.5t-50.5 -52.5t-76 -34.5t-102.5 -12.5q-61 0 -111.5 18.5t-86.5 54t-56 86.5t-20 116q0 66 19 117.5t54.5 86.5t85 53t110.5 18q62 0 112 -19t84.5 -58t53 -98t18.5 -138h-379q8 -69 40.5 -98.5t83.5 -29.5q37 0 60 15.5t30 41.5h159zM301 437
q-45 0 -73 -28.5t-35 -95.5h219q-3 66 -32 95t-79 29z" />
            <glyph glyph-name="f" unicode="f" horiz-adv-x="380"
           d="M390 608q-24 6 -44 9.5t-34 3.5q-62 0 -62 -57v-44h114v-108h-114v-412h-156v412h-79v108h79v38q0 87 45.5 132t131.5 45q38 0 67 -5.5t52 -11.5v-110z" />
            <glyph glyph-name="g" unicode="g" horiz-adv-x="625"
           d="M207 -32q14 -31 37 -42.5t69 -11.5q50 0 75.5 25t25.5 79v46q-28 -23 -63.5 -36t-77.5 -13q-50 0 -93 17t-75.5 49.5t-51 80t-18.5 108.5q0 63 18 112.5t50 83.5t75.5 51.5t95.5 17.5q45 0 83.5 -16t67.5 -47l27 48h118v-492q0 -51 -17.5 -92.5t-51 -70.5t-82 -44.5
t-109.5 -15.5q-124 0 -187 43.5t-75 119.5h159zM192 271q0 -74 33.5 -108t86.5 -34q56 0 86.5 35.5t30.5 106.5q0 78 -31.5 114t-85.5 36q-53 0 -86.5 -37.5t-33.5 -112.5z" />
            <glyph glyph-name="h" unicode="h" horiz-adv-x="601"
           d="M55 720h156v-247q25 28 61 45t87 17q91 0 141.5 -51t50.5 -148v-336h-156v330q0 51 -21 73t-59 22q-45 0 -74.5 -30t-29.5 -82v-313h-156v720z" />
            <glyph glyph-name="i" unicode="i" horiz-adv-x="266"
           d="M49 587v133h168v-133h-168zM55 0v520h156v-520h-156z" />
            <glyph glyph-name="j" unicode="j" horiz-adv-x="277"
           d="M-54 -71q17 -5 34 -7t28 -2q27 0 39.5 12.5t12.5 41.5v546h156v-549q0 -75 -44 -120.5t-129 -45.5q-23 0 -50 4t-47 11v109zM54 587v133h168v-133h-168z" />
            <glyph glyph-name="k" unicode="k" horiz-adv-x="585"
           d="M55 0v720h156v-387l176 187h182l-212 -217l238 -303h-200l-184 239v-239h-156z" />
            <glyph glyph-name="l" unicode="l" horiz-adv-x="266"
           d="M211 0h-156v720h156v-720z" />
            <glyph glyph-name="m" unicode="m" horiz-adv-x="920"
           d="M55 0v520h110l26 -57q27 32 66 52t93 20q51 0 91.5 -17t66.5 -55q29 32 72 52t100 20q42 0 76.5 -11t60 -34.5t39.5 -61t14 -90.5v-338h-156v342q0 42 -22.5 62.5t-60.5 20.5q-23 0 -40.5 -8.5t-28.5 -23t-16.5 -34t-5.5 -41.5v-318h-156v342q0 42 -22.5 62.5t-60.5 20.5
q-42 0 -66 -30t-24 -70v-325h-156z" />
            <glyph glyph-name="n" unicode="n" horiz-adv-x="601"
           d="M55 0v520h129l15 -57q25 32 64 52t95 20q91 0 142 -52t51 -147v-336h-156v330q0 52 -21.5 73.5t-58.5 21.5q-45 0 -74.5 -31.5t-29.5 -85.5v-308h-156z" />
            <glyph glyph-name="o" unicode="o" horiz-adv-x="620"
           d="M35 262q0 135 71.5 204t203.5 69q131 0 203 -69t72 -204q0 -136 -71.5 -206.5t-203.5 -70.5q-128 0 -201.5 70.5t-73.5 206.5zM196 262q0 -94 30 -133t85 -39q57 0 85.5 38.5t28.5 133.5q0 48 -7.5 80t-22 51.5t-36 28t-49.5 8.5q-58 0 -86 -37t-28 -131z" />
            <glyph glyph-name="p" unicode="p" horiz-adv-x="635"
           d="M354 -15q-43 0 -79.5 16t-63.5 44v-225h-156v700h118l30 -58q28 32 69.5 52.5t95.5 20.5q52 0 95 -17.5t73.5 -51.5t47 -84t16.5 -114q0 -67 -19 -119.5t-52 -89t-78 -55.5t-97 -19zM443 264q0 84 -31.5 120.5t-84.5 36.5t-87 -38t-34 -117q0 -47 9 -79t24.5 -51.5
t36.5 -28t46 -8.5q53 0 87 40t34 125z" />
            <glyph glyph-name="q" unicode="q" horiz-adv-x="635"
           d="M580 520v-700h-156v228q-28 -29 -66.5 -46t-84.5 -17q-53 0 -96.5 18.5t-75 53t-49 85t-17.5 113.5q0 66 17.5 118t49 88t75 55t94.5 19q54 0 94 -19.5t67 -54.5l30 59h118zM192 256q0 -83 33 -120t87 -37q26 0 47.5 8.5t37 27.5t24 49.5t8.5 74.5q0 49 -10.5 80.5
t-27 49.5t-37.5 25t-42 7q-55 0 -87.5 -41.5t-32.5 -123.5z" />
            <glyph glyph-name="r" unicode="r" horiz-adv-x="397"
           d="M55 0v520h130l17 -79q43 94 136 94q17 0 32.5 -2t26.5 -5v-145q-14 5 -30.5 7.5t-36.5 2.5q-23 0 -44.5 -11.5t-38 -33.5t-26.5 -55.5t-10 -76.5v-216h-156z" />
            <glyph glyph-name="s" unicode="s" horiz-adv-x="553"
           d="M273 91q47 0 67 13t20 36q0 13 -6 22t-20.5 15.5t-38 12.5t-59.5 15q-38 9 -72 21t-60 31t-41.5 47t-15.5 69q0 73 57.5 117.5t172.5 44.5q101 0 163 -42t76 -117h-157q-5 24 -26.5 38.5t-59.5 14.5t-54 -11.5t-16 -31.5q0 -11 4.5 -18.5t16.5 -14.5t33 -13.5t54 -14.5
q36 -9 72.5 -19.5t66.5 -28.5t49 -45.5t19 -70.5q0 -39 -15 -71t-45 -55.5t-76 -36.5t-108 -13q-107 0 -171.5 45t-77.5 117h157q5 -25 29.5 -40.5t61.5 -15.5z" />
            <glyph glyph-name="t" unicode="t" horiz-adv-x="368"
           d="M353 -1q-21 -6 -46 -10t-49 -4q-79 0 -124 41t-45 119v267h-79v108h79l10 125h146v-125h107v-108h-107v-272q0 -22 14 -33t37 -11q9 0 25 2.5t32 6.5v-106z" />
            <glyph glyph-name="u" unicode="u" horiz-adv-x="596"
           d="M206 520v-344q0 -39 21.5 -60t61.5 -21q41 0 68.5 29.5t27.5 83.5v312h156v-520h-129l-15 55q-27 -33 -66.5 -51.5t-90.5 -18.5q-90 0 -140 50.5t-50 146.5v338h156z" />
            <glyph glyph-name="v" unicode="v" horiz-adv-x="566"
           d="M561 520l-180 -520h-197l-179 520h169l114 -405l112 405h161z" />
            <glyph glyph-name="w" unicode="w" horiz-adv-x="860"
           d="M850 520l-143 -520h-193l-82 380l-93 -380h-189l-140 520h161l81 -391l92 391h188l81 -393l89 393h148z" />
            <glyph glyph-name="x" unicode="x" horiz-adv-x="574"
           d="M370 276l199 -276h-188l-102 161l-108 -161h-166l194 274l-184 246h182l91 -136l91 136h163z" />
            <glyph glyph-name="y" unicode="y" horiz-adv-x="571"
           d="M566 520l-186 -531q-18 -51 -37 -86t-42.5 -56.5t-51.5 -31.5t-64 -10q-40 0 -84 11v109q24 -6 39 -7.5t25 -1.5q27 0 44 19.5t27 64.5h-44l-187 520h166l115 -406l124 406h156z" />
            <glyph glyph-name="z" unicode="z" horiz-adv-x="507"
           d="M217 115h260v-115h-457v121l273 284h-255v115h449v-121z" />
            <glyph glyph-name="braceleft" unicode="{" horiz-adv-x="340"
           d="M15 378q44 0 64 23t20 65v157q0 62 15 99t43.5 56.5t69.5 25.5t93 6v-103q-22 0 -37.5 -2.5t-25.5 -11t-14.5 -24t-4.5 -41.5v-160q0 -35 -7 -60t-19 -42t-29.5 -28t-38.5 -18q21 -7 38.5 -18t29.5 -28.5t19 -42t7 -59.5v-160q0 -26 4.5 -41.5t14.5 -24t25.5 -11
t37.5 -2.5v-103q-52 0 -93 6t-69.5 25.5t-43.5 56.5t-15 99v157q0 42 -20 65t-64 23v116z" />
            <glyph glyph-name="bar" unicode="|" horiz-adv-x="340"
           d="M238 785v-925h-136v925h136z" />
            <glyph glyph-name="braceright" unicode="}" horiz-adv-x="340"
           d="M325 262q-44 0 -64 -23t-20 -65v-157q0 -62 -15 -99t-43.5 -56.5t-69.5 -25.5t-93 -6v103q22 0 37.5 2.5t25.5 11t14.5 24t4.5 41.5v160q0 35 7 59.5t19 42t29.5 28.5t38.5 18q-21 7 -38.5 18t-29.5 28t-19 42t-7 60v160q0 26 -4.5 41.5t-14.5 24t-25.5 11t-37.5 2.5v103
q52 0 93 -6t69.5 -25.5t43.5 -56.5t15 -99v-157q0 -42 20 -65t64 -23v-116z" />
            <glyph glyph-name="asciitilde" unicode="~"
           d="M390 237q-31 0 -55 8.5t-45.5 19t-42 19t-44.5 8.5q-38 0 -69.5 -15.5t-53.5 -34.5v127q19 15 53.5 27.5t76.5 12.5q31 0 55 -8.5t45.5 -19t42 -19t44.5 -8.5q38 0 69.5 15.5t53.5 34.5v-127q-19 -15 -53.5 -27.5t-76.5 -12.5z" />
            <glyph glyph-name="uni00A0" unicode="&#xa0;" horiz-adv-x="260"
            />
            <glyph glyph-name="exclamdown" unicode="&#xa1;" horiz-adv-x="310"
           d="M229 315l25 -495h-198l25 495h148zM243 555v-157h-177v157h177z" />
            <glyph glyph-name="cent" unicode="&#xa2;"
           d="M240 -10q-100 16 -151 83.5t-51 181.5t53.5 184.5t148.5 89.5v131h129v-131q78 -14 128.5 -58.5t64.5 -110.5h-164q-9 32 -33.5 50.5t-54.5 18.5q-50 0 -80 -40.5t-30 -136.5q0 -84 30.5 -122.5t73.5 -38.5q35 0 58.5 19.5t36.5 62.5h164q-16 -68 -63.5 -118t-130.5 -64
v-126h-129v125z" />
            <glyph glyph-name="sterling" unicode="&#xa3;"
           d="M255 395h202v-93h-203v-72q0 -36 -13 -61.5t-33 -42.5h337v-126h-499v126q32 10 39.5 33.5t7.5 64.5v78h-55v93h55v95q0 111 58 168t171 57q52 0 93.5 -14t72.5 -38t49.5 -57t24.5 -71h-150q-8 32 -27.5 47.5t-52.5 15.5q-38 0 -57.5 -26t-19.5 -84v-93z" />
            <glyph glyph-name="currency" unicode="&#xa4;"
           d="M85 216q-28 53 -28 124q0 35 7 65t20 56l-58 58l88 88l55 -56q29 17 63.5 26t66.5 9t67 -9t64 -26l56 56l88 -88l-58 -58q13 -26 20 -56t7 -65q0 -37 -7.5 -67.5t-21.5 -56.5l60 -59l-88 -88l-58 58q-29 -17 -63 -25t-66 -8q-31 0 -64.5 8t-62.5 25l-58 -58l-88 88z
M420 340q0 57 -33 91.5t-87 34.5t-87 -34.5t-33 -91.5t33 -91.5t87 -34.5t87 34.5t33 91.5z" />
            <glyph glyph-name="yen" unicode="&#xa5;"
           d="M221 0v130h-125v93h125v47h-125v93h80l-200 337h180l148 -283l160 283h160l-200 -337h80v-93h-125v-47h125v-93h-125v-130h-158z" />
            <glyph glyph-name="brokenbar" unicode="&#xa6;" horiz-adv-x="340"
           d="M238 785v-385h-136v385h136zM238 245v-385h-136v385h136z" />
            <glyph glyph-name="section" unicode="&#xa7;"
           d="M71 305q0 43 23.5 73.5t77.5 55.5q-36 23 -56 55t-20 74q0 40 16 68.5t43.5 47t64.5 27t79 8.5q52 0 90.5 -16t64.5 -40.5t39.5 -53.5t15.5 -56h-139q-5 25 -22 43.5t-46 18.5q-23 0 -38.5 -11t-15.5 -32q0 -13 5.5 -21t17 -14.5t28.5 -12.5t40 -15q34 -14 68 -29.5
t61 -36.5t44 -50.5t17 -69.5q0 -43 -23.5 -74t-76.5 -55q35 -21 54 -49.5t19 -66.5q0 -41 -16.5 -72t-45 -51.5t-66.5 -30.5t-80 -10q-51 0 -90 13t-66 35t-42 52t-17 64h139q5 -25 23.5 -42.5t50.5 -17.5q23 0 40.5 11.5t17.5 31.5q0 13 -6 21t-17.5 14.5t-28.5 12.5
t-40 15q-34 13 -67.5 29t-60 37t-43 50t-16.5 70zM224 322q0 -17 4 -29t16 -22.5t33 -20t55 -20.5q14 12 29 29t15 42q0 17 -4.5 29.5t-16.5 22.5t-33.5 19.5t-54.5 20.5q-14 -12 -28.5 -29.5t-14.5 -41.5z" />
            <glyph glyph-name="dieresis" unicode="&#xa8;" horiz-adv-x="438"
           d="M30 592v128h148v-128h-148zM260 592v128h148v-128h-148z" />
            <glyph glyph-name="copyright" unicode="&#xa9;" horiz-adv-x="843"
           d="M141 360q0 -75 24 -130t63.5 -91t90 -54t102.5 -18t102.5 18t90 54t63.5 91t24 130t-24 130t-63.5 91t-90 54t-102.5 18t-102.5 -18t-90 -54t-63.5 -91t-24 -130zM803 360q0 -99 -34 -169.5t-88.5 -116.5t-122.5 -67.5t-137 -21.5t-137 21.5t-122.5 67.5t-88.5 116.5
t-34 169.5t34 169.5t88.5 116.5t122.5 67.5t137 21.5t137 -21.5t122.5 -67.5t88.5 -116.5t34 -169.5zM629 293q-8 -31 -23.5 -57.5t-40.5 -46t-59.5 -30.5t-80.5 -11q-96 0 -151 51.5t-55 158.5q0 103 55.5 160.5t152.5 57.5q81 0 134.5 -37.5t66.5 -98.5h-128q-6 24 -25 39
t-44 15q-39 0 -62 -31.5t-23 -106.5q0 -66 23 -96t58 -30q53 0 74 63h128z" />
            <glyph glyph-name="ordfeminine" unicode="&#xaa;" horiz-adv-x="525"
           d="M83 603q9 62 60.5 97t128.5 35q82 0 132.5 -40.5t50.5 -112.5v-275h-97l-21 43q-19 -23 -48.5 -39t-69.5 -16q-24 0 -50.5 6.5t-48.5 22t-36 41t-14 62.5q0 33 15 57t39.5 40.5t56 26t65.5 13.5l69 8v21q0 29 -14 40t-30 11q-19 0 -33 -10t-19 -31h-136zM459 0h-384v123
h384v-123zM261 391q26 0 40 16.5t14 37.5v48l-41 -6q-38 -5 -51 -20.5t-13 -35.5q0 -19 14 -29.5t37 -10.5z" />
            <glyph glyph-name="guillemotleft" unicode="&#xab;" horiz-adv-x="545"
           d="M45 315l129 205h117l-93 -208l83 -222h-117zM254 315l129 205h117l-93 -208l83 -222h-117z" />
            <glyph glyph-name="logicalnot" unicode="&#xac;"
           d="M520 384v-282h-129v159h-311v123h440z" />
            <glyph glyph-name="uni00AD" unicode="&#xad;" horiz-adv-x="540"
           d="M460 261h-380v123h380v-123z" />
            <glyph glyph-name="registered" unicode="&#xae;" horiz-adv-x="624"
           d="M574 476q0 -69 -23.5 -118t-61.5 -80.5t-85 -46t-93 -14.5q-47 0 -93.5 14.5t-83.5 46t-60.5 80.5t-23.5 118t23.5 118t60.5 80.5t83.5 46t93.5 14.5q46 0 93 -14.5t85 -46t61.5 -80.5t23.5 -118zM127 476q0 -54 16 -91.5t41.5 -61.5t58.5 -34.5t68 -10.5q34 0 67.5 10.5
t60 34.5t42.5 61.5t16 91.5t-16 91.5t-42.5 61.5t-60 34.5t-67.5 10.5q-35 0 -68 -10.5t-58.5 -34.5t-41.5 -61.5t-16 -91.5zM367 351l-58 97h-34v-97h-62v264h98q46 0 79 -18.5t33 -64.5q0 -32 -15 -49t-38 -25l71 -107h-74zM275 572v-82h39q14 0 29.5 8.5t15.5 33.5
q0 13 -4.5 20.5t-11 12t-15 6t-16.5 1.5h-37z" />
            <glyph glyph-name="macron" unicode="&#xaf;" horiz-adv-x="330"
           d="M30 608v112h270v-112h-270z" />
            <glyph glyph-name="degree" unicode="&#xb0;"
           d="M169 552q0 -38 15.5 -54.5t40.5 -16.5t40.5 16.5t15.5 54.5t-15.5 54.5t-40.5 16.5t-40.5 -16.5t-15.5 -54.5zM400 552q0 -40 -14 -71.5t-38 -53t-56 -32.5t-67 -11t-67 11t-56 32.5t-38 53t-14 71.5t14 71.5t38 53t56 32.5t67 11t67 -11t56 -32.5t38 -53t14 -71.5z" />
            <glyph glyph-name="plusminus" unicode="&#xb1;"
           d="M364 542v-158h156v-123h-156v-99h-129v99h-155v123h155v158h129zM520 0h-440v123h440v-123z" />
            <glyph glyph-name="twosuperior" unicode="&#xb2;" horiz-adv-x="420"
           d="M37 605q9 64 57.5 102t123.5 38q77 0 120.5 -35t43.5 -92q0 -22 -6 -41.5t-20.5 -40t-38 -43.5t-59.5 -51l-69 -52h191v-96h-331v94l115 94q30 27 49 47t30 36t15 28.5t4 24.5q0 37 -47 37q-23 0 -37 -11t-19 -39h-122z" />
            <glyph glyph-name="threesuperior" unicode="&#xb3;" horiz-adv-x="427"
           d="M220 745q71 0 114.5 -29.5t43.5 -86.5q0 -34 -22.5 -62t-69.5 -39q50 -11 76.5 -39.5t26.5 -71.5q0 -63 -46 -97.5t-127 -34.5q-82 0 -128 37t-51 97h119q5 -22 17.5 -34.5t40.5 -12.5q26 0 39.5 13.5t13.5 36.5q0 35 -19.5 48t-45.5 13h-33v80h34q20 0 36.5 11.5
t16.5 42.5q0 23 -12.5 32.5t-30.5 9.5q-23 0 -34 -10.5t-13 -29.5h-118q9 58 54 92t118 34z" />
            <glyph glyph-name="acute" unicode="&#xb4;" horiz-adv-x="330"
           d="M131 720h169l-149 -137h-121z" />
            <glyph glyph-name="mu" unicode="&#xb5;" horiz-adv-x="601"
           d="M211 520v-344q0 -39 21.5 -60t61.5 -21q39 0 67.5 28t28.5 79v318h156v-520h-129l-15 55q-27 -33 -66.5 -51.5t-90.5 -18.5q-16 0 -34 5v-169h-156v699h156z" />
            <glyph glyph-name="paragraph" unicode="&#xb6;" horiz-adv-x="675"
           d="M357 720v-900h-146v495q-19 0 -49.5 7t-60 28.5t-50.5 61.5t-21 105t21 105t50.5 61.5t60 29t49.5 7.5h146zM620 720v-900h-146v900h146z" />
            <glyph glyph-name="periodcentered" unicode="&#xb7;" horiz-adv-x="270"
           d="M56 248v142h158v-142h-158z" />
            <glyph glyph-name="cedilla" unicode="&#xb8;" horiz-adv-x="358"
           d="M328 -139q0 -24 -10 -46t-29 -38t-45.5 -25.5t-59.5 -9.5q-70 0 -108.5 33.5t-45.5 87.5h100q2 -14 12 -27.5t39 -13.5q23 0 34 11t11 25q0 43 -82 43l12 124h86v-65q41 -9 63.5 -34.5t22.5 -64.5z" />
            <glyph glyph-name="onesuperior" unicode="&#xb9;" horiz-adv-x="283"
           d="M245 283h-121v327l-105 -46v106l119 54h107v-441z" />
            <glyph glyph-name="ordmasculine" unicode="&#xba;" horiz-adv-x="524"
           d="M50 517q0 66 19 108.5t49 66.5t68 33.5t76 9.5t76 -9t68 -33t49 -66.5t19 -109.5t-19 -110t-49 -68t-68 -34.5t-76 -9.5q-39 0 -77 10t-68 35t-48.5 68t-18.5 109zM194 517q0 -67 16 -97.5t53 -30.5q35 0 51.5 30.5t16.5 97.5t-17 95.5t-52 28.5t-51.5 -28.5t-16.5 -95.5
zM462 0h-399v123h399v-123z" />
            <glyph glyph-name="guillemotright" unicode="&#xbb;" horiz-adv-x="545"
           d="M381 90h-117l83 222l-93 208h117l129 -205zM172 90h-117l83 222l-93 208h117l129 -205z" />
            <glyph glyph-name="onequarter" unicode="&#xbc;" horiz-adv-x="895"
           d="M154 -90l422 880h120l-422 -880h-120zM276 283h-121v327l-105 -46v106l119 54h107v-441zM790 168h55v-86h-55v-81h-109v81h-198v93l170 267h137v-274zM587 168h94l7 161z" />
            <glyph glyph-name="onehalf" unicode="&#xbd;" horiz-adv-x="938"
           d="M154 -90l422 880h120l-422 -880h-120zM276 283h-121v327l-105 -46v106l119 54h107v-441zM543 312q9 64 57.5 102t123.5 38q77 0 120.5 -35t43.5 -92q0 -22 -6 -41.5t-20.5 -40t-38 -43.5t-59.5 -51l-69 -52h191v-96h-331v94l115 94q30 27 49 47t30 36t15 28.5t4 24.5
q0 37 -47 37q-23 0 -37 -11t-19 -39h-122z" />
            <glyph glyph-name="threequarters" unicode="&#xbe;" horiz-adv-x="977"
           d="M236 -90l422 880h120l-422 -880h-120zM233 745q71 0 114.5 -29.5t43.5 -86.5q0 -34 -22.5 -62t-69.5 -39q50 -11 76.5 -39.5t26.5 -71.5q0 -63 -46 -97.5t-127 -34.5q-82 0 -128 37t-51 97h119q5 -22 17.5 -34.5t40.5 -12.5q26 0 39.5 13.5t13.5 36.5q0 35 -19.5 48
t-45.5 13h-33v80h34q20 0 36.5 11.5t16.5 42.5q0 23 -12.5 32.5t-30.5 9.5q-23 0 -34 -10.5t-13 -29.5h-118q9 58 54 92t118 34zM872 168h55v-86h-55v-81h-109v81h-198v93l170 267h137v-274zM669 168h94l7 161z" />
            <glyph glyph-name="questiondown" unicode="&#xbf;" horiz-adv-x="548"
           d="M503 5q-2 -41 -21.5 -77.5t-52 -63.5t-76 -43t-94.5 -16q-108 0 -166 47.5t-58 122.5q0 30 6 54t19.5 49t36 54.5t56.5 70.5q20 24 24.5 50.5t4.5 56.5h157q0 -33 -1.5 -57t-7.5 -45t-18 -41.5t-33 -47.5q-25 -31 -40 -51.5t-23 -34.5t-10.5 -25t-2.5 -24q0 -62 58 -62
q27 0 46 20t27 63h169zM348 540v-157h-177v157h177z" />
            <glyph glyph-name="Agrave" unicode="&#xc0;" horiz-adv-x="701"
           d="M524 0l-51 165h-256l-51 -165h-166l256 720h187l258 -720h-177zM251 275h189l-94 307zM471 773h-121l-149 137h169z" />
            <glyph glyph-name="Aacute" unicode="&#xc1;" horiz-adv-x="701"
           d="M524 0l-51 165h-256l-51 -165h-166l256 720h187l258 -720h-177zM251 275h189l-94 307zM332 910h169l-149 -137h-121z" />
            <glyph glyph-name="Acircumflex" unicode="&#xc2;" horiz-adv-x="701"
           d="M524 0l-51 165h-256l-51 -165h-166l256 720h187l258 -720h-177zM251 275h189l-94 307zM301 788h-160l135 137h140l135 -137h-159l-46 59z" />
            <glyph glyph-name="Atilde" unicode="&#xc3;" horiz-adv-x="701"
           d="M524 0l-51 165h-256l-51 -165h-166l256 720h187l258 -720h-177zM251 275h189l-94 307zM411 782q-22 0 -38.5 6t-31 13t-29 13t-31.5 6t-40 -10.5t-45 -27.5v110q22 16 45 24.5t44 8.5q22 0 38.5 -6t31 -13t29 -13t31.5 -6t38 10.5t43 27.5v-110q-22 -16 -43 -24.5
t-42 -8.5z" />
            <glyph glyph-name="Adieresis" unicode="&#xc4;" horiz-adv-x="701"
           d="M524 0l-51 165h-256l-51 -165h-166l256 720h187l258 -720h-177zM251 275h189l-94 307zM157 782v128h148v-128h-148zM387 782v128h148v-128h-148z" />
            <glyph glyph-name="Aring" unicode="&#xc5;" horiz-adv-x="701"
           d="M485 779q0 -51 -33 -84l249 -695h-177l-51 165h-256l-51 -165h-166l245 690q-19 17 -28.5 40t-9.5 49q0 25 9 47.5t27 39t44 26.5t59 10t59 -10t44 -26.5t27 -39t9 -47.5zM251 275h189l-94 307zM305 779q0 -26 12 -38.5t29 -12.5t29 12.5t12 38.5t-11.5 38.5t-29.5 12.5
t-29.5 -12.5t-11.5 -38.5z" />
            <glyph glyph-name="AE" unicode="&#xc6;" horiz-adv-x="961"
           d="M926 0h-456v165h-221l-79 -165h-170l353 720h573v-123h-288v-176h259v-116h-259v-184h288v-121zM470 275v346l-168 -346h168z" />
            <glyph glyph-name="Ccedilla" unicode="&#xc7;" horiz-adv-x="741"
           d="M408 -142q0 43 -82 43l8 86q-64 6 -118 32.5t-93 73.5t-61 114.5t-22 154.5q0 91 24 161t68.5 117t108 71t142.5 24q63 0 116.5 -16.5t95 -48t69 -78t37.5 -107.5h-168q-14 68 -53 100.5t-97 32.5q-38 0 -68.5 -14.5t-53 -45.5t-34.5 -79.5t-12 -116.5q0 -71 13 -120.5
t35 -80.5t52 -44.5t63 -13.5q71 0 111 38.5t46 123.5h171q-15 -127 -86.5 -197t-195.5 -81v-27q41 -9 63.5 -34.5t22.5 -64.5q0 -24 -10 -46t-29 -38t-45.5 -25.5t-59.5 -9.5q-70 0 -108.5 33.5t-45.5 87.5h100q2 -14 11.5 -27.5t39.5 -13.5q23 0 34 11t11 25z" />
            <glyph glyph-name="Egrave" unicode="&#xc8;" horiz-adv-x="581"
           d="M517 305h-289v-184h318v-121h-486v720h486v-123h-318v-176h289v-116zM406 773h-121l-149 137h169z" />
            <glyph glyph-name="Eacute" unicode="&#xc9;" horiz-adv-x="581"
           d="M517 305h-289v-184h318v-121h-486v720h486v-123h-318v-176h289v-116zM315 910h169l-149 -137h-121z" />
            <glyph glyph-name="Ecircumflex" unicode="&#xca;" horiz-adv-x="581"
           d="M517 305h-289v-184h318v-121h-486v720h486v-123h-318v-176h289v-116zM257 788h-160l135 137h140l135 -137h-159l-46 59z" />
            <glyph glyph-name="Edieresis" unicode="&#xcb;" horiz-adv-x="581"
           d="M517 305h-289v-184h318v-121h-486v720h486v-123h-318v-176h289v-116zM112 782v128h148v-128h-148zM342 782v128h148v-128h-148z" />
            <glyph glyph-name="Igrave" unicode="&#xcc;" horiz-adv-x="288"
           d="M228 720v-720h-168v720h168zM264 773h-121l-149 137h169z" />
            <glyph glyph-name="Iacute" unicode="&#xcd;" horiz-adv-x="288"
           d="M228 720v-720h-168v720h168zM127 910h169l-149 -137h-121z" />
            <glyph glyph-name="Icircumflex" unicode="&#xce;" horiz-adv-x="288"
           d="M228 720v-720h-168v720h168zM100 788h-160l135 137h140l135 -137h-159l-46 59z" />
            <glyph glyph-name="Idieresis" unicode="&#xcf;" horiz-adv-x="288"
           d="M228 720v-720h-168v720h168zM-44 782v128h148v-128h-148zM186 782v128h148v-128h-148z" />
            <glyph glyph-name="Eth" unicode="&#xd0;" horiz-adv-x="729"
           d="M60 315h-50v126h50v279h270q175 0 267 -88t92 -272q0 -95 -24 -163t-70 -111.5t-112.5 -64.5t-150.5 -21h-272v315zM228 315v-198h104q43 0 78 14t59.5 43.5t37.5 75.5t13 110q0 127 -51.5 185.5t-138.5 58.5h-102v-163h129v-126h-129z" />
            <glyph glyph-name="Ntilde" unicode="&#xd1;" horiz-adv-x="721"
           d="M661 720v-720h-173l-284 511v-511h-144v720h186l272 -492v492h143zM425 782q-22 0 -38.5 6t-31 13t-29 13t-31.5 6t-40 -10.5t-45 -27.5v110q22 16 45 24.5t44 8.5q22 0 38.5 -6t31 -13t29 -13t31.5 -6t38 10.5t43 27.5v-110q-22 -16 -43 -24.5t-42 -8.5z" />
            <glyph glyph-name="Ograve" unicode="&#xd2;" horiz-adv-x="784"
           d="M392 104q34 0 67 12.5t58.5 42.5t41 79t15.5 122t-16 122.5t-41.5 79.5t-58 42.5t-66.5 12.5q-35 0 -67.5 -13t-58 -43t-41 -79.5t-15.5 -122.5t16 -122t41.5 -78.5t58.5 -42t66 -12.5zM392 -15q-66 0 -129.5 19t-113 63t-79.5 115.5t-30 176.5q0 103 30 174.5
t79.5 116.5t113 65t129.5 20t129.5 -19.5t113 -63.5t79.5 -115.5t30 -176.5q0 -103 -30.5 -174.5t-80 -116t-112.5 -64.5t-129 -20zM490 773h-121l-149 137h169z" />
            <glyph glyph-name="Oacute" unicode="&#xd3;" horiz-adv-x="784"
           d="M392 104q34 0 67 12.5t58.5 42.5t41 79t15.5 122t-16 122.5t-41.5 79.5t-58 42.5t-66.5 12.5q-35 0 -67.5 -13t-58 -43t-41 -79.5t-15.5 -122.5t16 -122t41.5 -78.5t58.5 -42t66 -12.5zM392 -15q-66 0 -129.5 19t-113 63t-79.5 115.5t-30 176.5q0 103 30 174.5
t79.5 116.5t113 65t129.5 20t129.5 -19.5t113 -63.5t79.5 -115.5t30 -176.5q0 -103 -30.5 -174.5t-80 -116t-112.5 -64.5t-129 -20zM401 910h169l-149 -137h-121z" />
            <glyph glyph-name="Ocircumflex" unicode="&#xd4;" horiz-adv-x="784"
           d="M392 104q34 0 67 12.5t58.5 42.5t41 79t15.5 122t-16 122.5t-41.5 79.5t-58 42.5t-66.5 12.5q-35 0 -67.5 -13t-58 -43t-41 -79.5t-15.5 -122.5t16 -122t41.5 -78.5t58.5 -42t66 -12.5zM392 -15q-66 0 -129.5 19t-113 63t-79.5 115.5t-30 176.5q0 103 30 174.5
t79.5 116.5t113 65t129.5 20t129.5 -19.5t113 -63.5t79.5 -115.5t30 -176.5q0 -103 -30.5 -174.5t-80 -116t-112.5 -64.5t-129 -20zM347 788h-160l135 137h140l135 -137h-159l-46 59z" />
            <glyph glyph-name="Otilde" unicode="&#xd5;" horiz-adv-x="784"
           d="M392 104q34 0 67 12.5t58.5 42.5t41 79t15.5 122t-16 122.5t-41.5 79.5t-58 42.5t-66.5 12.5q-35 0 -67.5 -13t-58 -43t-41 -79.5t-15.5 -122.5t16 -122t41.5 -78.5t58.5 -42t66 -12.5zM392 -15q-66 0 -129.5 19t-113 63t-79.5 115.5t-30 176.5q0 103 30 174.5
t79.5 116.5t113 65t129.5 20t129.5 -19.5t113 -63.5t79.5 -115.5t30 -176.5q0 -103 -30.5 -174.5t-80 -116t-112.5 -64.5t-129 -20zM457 782q-22 0 -38.5 6t-31 13t-29 13t-31.5 6t-40 -10.5t-45 -27.5v110q22 16 45 24.5t44 8.5q22 0 38.5 -6t31 -13t29 -13t31.5 -6
t38 10.5t43 27.5v-110q-22 -16 -43 -24.5t-42 -8.5z" />
            <glyph glyph-name="Odieresis" unicode="&#xd6;" horiz-adv-x="784"
           d="M392 104q34 0 67 12.5t58.5 42.5t41 79t15.5 122t-16 122.5t-41.5 79.5t-58 42.5t-66.5 12.5q-35 0 -67.5 -13t-58 -43t-41 -79.5t-15.5 -122.5t16 -122t41.5 -78.5t58.5 -42t66 -12.5zM392 -15q-66 0 -129.5 19t-113 63t-79.5 115.5t-30 176.5q0 103 30 174.5
t79.5 116.5t113 65t129.5 20t129.5 -19.5t113 -63.5t79.5 -115.5t30 -176.5q0 -103 -30.5 -174.5t-80 -116t-112.5 -64.5t-129 -20zM203 782v128h148v-128h-148zM433 782v128h148v-128h-148z" />
            <glyph glyph-name="multiply" unicode="&#xd7;"
           d="M188 521l112 -112l112 112l87 -87l-112 -112l112 -112l-87 -87l-112 112l-112 -112l-87 87l112 112l-112 112z" />
            <glyph glyph-name="Oslash" unicode="&#xd8;" horiz-adv-x="784"
           d="M392 -15q-43 0 -81 7l-35 -102h-119l48 139q-36 19 -66.5 48.5t-52 70t-34 93t-12.5 118.5q0 103 30 174.5t79.5 116.5t113 65t129.5 20q20 0 40.5 -2t40.5 -6l35 93h119l-48 -129q36 -20 66 -49.5t52 -70t34.5 -93t12.5 -118.5q0 -103 -30.5 -174.5t-80 -116
t-112.5 -64.5t-129 -20zM210 359q0 -77 17 -127t45 -79l165 458q-23 6 -45 6q-35 0 -67.5 -13t-58 -43t-41 -79.5t-15.5 -122.5zM392 104q34 0 67 12.5t58.5 42.5t41 79t15.5 122q0 77 -17 127t-45 80l-165 -458q11 -3 22.5 -4t22.5 -1z" />
            <glyph glyph-name="Ugrave" unicode="&#xd9;" horiz-adv-x="716"
           d="M223 720v-490q0 -61 35 -93.5t101 -32.5t103.5 32.5t37.5 93.5v490h161v-479q0 -121 -78.5 -188.5t-224.5 -67.5t-224.5 67.5t-78.5 188.5v479h168zM435 773h-121l-149 137h169z" />
            <glyph glyph-name="Uacute" unicode="&#xda;" horiz-adv-x="716"
           d="M223 720v-490q0 -61 35 -93.5t101 -32.5t103.5 32.5t37.5 93.5v490h161v-479q0 -121 -78.5 -188.5t-224.5 -67.5t-224.5 67.5t-78.5 188.5v479h168zM397 910h169l-149 -137h-121z" />
            <glyph glyph-name="Ucircumflex" unicode="&#xdb;" horiz-adv-x="716"
           d="M223 720v-490q0 -61 35 -93.5t101 -32.5t103.5 32.5t37.5 93.5v490h161v-479q0 -121 -78.5 -188.5t-224.5 -67.5t-224.5 67.5t-78.5 188.5v479h168zM313 788h-160l135 137h140l135 -137h-159l-46 59z" />
            <glyph glyph-name="Udieresis" unicode="&#xdc;" horiz-adv-x="716"
           d="M223 720v-490q0 -61 35 -93.5t101 -32.5t103.5 32.5t37.5 93.5v490h161v-479q0 -121 -78.5 -188.5t-224.5 -67.5t-224.5 67.5t-78.5 188.5v479h168zM169 782v128h148v-128h-148zM399 782v128h148v-128h-148z" />
            <glyph glyph-name="Yacute" unicode="&#xdd;" horiz-adv-x="668"
           d="M255 0v287l-255 433h180l158 -293l170 293h160l-255 -433v-287h-158zM365 910h169l-149 -137h-121z" />
            <glyph glyph-name="Thorn" unicode="&#xde;" horiz-adv-x="666"
           d="M228 720v-115h92q61 0 117 -9.5t99 -35.5t69 -73t26 -122t-26 -121.5t-69 -72.5t-98 -35.5t-112 -9.5h-98v-126h-168v720h168zM228 490v-249h100q21 0 44 4.5t42 18t31.5 38t12.5 63.5q0 40 -12 64.5t-31.5 38t-43.5 18t-49 4.5h-94z" />
            <glyph glyph-name="germandbls" unicode="&#xdf;" horiz-adv-x="647"
           d="M432 -15q-50 0 -86.5 12t-62 33t-40.5 51t-21 66h157q3 -25 13 -40t31 -15q20 0 33 16.5t13 47.5t-14.5 50.5t-46.5 39.5q-30 18 -49.5 35t-30.5 34t-15 34.5t-4 37.5q0 32 12 52.5t26.5 38t26.5 36.5t12 49q0 26 -22.5 44t-60.5 18q-92 0 -92 -111v-171l-20 -343h-136
v512q0 45 15.5 85.5t47 71t78.5 48.5t110 18q52 0 95.5 -11.5t75 -32.5t49 -51t17.5 -67t-16 -61.5t-35.5 -42.5t-35.5 -33.5t-16 -35.5q0 -15 10.5 -31t42.5 -35q35 -20 61 -39t43.5 -39t26 -42.5t8.5 -49.5q0 -84 -52 -131.5t-148 -47.5z" />
            <glyph glyph-name="agrave" unicode="&#xe0;" horiz-adv-x="580"
           d="M45 370q19 78 82.5 121.5t168.5 43.5q109 0 171.5 -50.5t62.5 -140.5v-344h-122l-19 54q-26 -29 -68 -49t-104 -20q-40 0 -73.5 11t-57.5 32t-37.5 51.5t-13.5 70.5q0 30 10.5 55.5t35.5 46t65 36t99 25.5l129 21v23q0 38 -21.5 57.5t-61.5 19.5q-38 0 -59 -17.5
t-27 -46.5h-160zM262 92q53 0 82.5 29.5t29.5 70.5v57l-89 -18q-55 -11 -74.5 -29t-19.5 -45q0 -65 71 -65zM372 583h-121l-149 137h169z" />
            <glyph glyph-name="aacute" unicode="&#xe1;" horiz-adv-x="580"
           d="M45 370q19 78 82.5 121.5t168.5 43.5q109 0 171.5 -50.5t62.5 -140.5v-344h-122l-19 54q-26 -29 -68 -49t-104 -20q-40 0 -73.5 11t-57.5 32t-37.5 51.5t-13.5 70.5q0 30 10.5 55.5t35.5 46t65 36t99 25.5l129 21v23q0 38 -21.5 57.5t-61.5 19.5q-38 0 -59 -17.5
t-27 -46.5h-160zM262 92q53 0 82.5 29.5t29.5 70.5v57l-89 -18q-55 -11 -74.5 -29t-19.5 -45q0 -65 71 -65zM328 720h169l-149 -137h-121z" />
            <glyph glyph-name="acircumflex" unicode="&#xe2;" horiz-adv-x="580"
           d="M45 370q19 78 82.5 121.5t168.5 43.5q109 0 171.5 -50.5t62.5 -140.5v-344h-122l-19 54q-26 -29 -68 -49t-104 -20q-40 0 -73.5 11t-57.5 32t-37.5 51.5t-13.5 70.5q0 30 10.5 55.5t35.5 46t65 36t99 25.5l129 21v23q0 38 -21.5 57.5t-61.5 19.5q-38 0 -59 -17.5
t-27 -46.5h-160zM262 92q53 0 82.5 29.5t29.5 70.5v57l-89 -18q-55 -11 -74.5 -29t-19.5 -45q0 -65 71 -65zM249 598h-160l135 137h140l135 -137h-159l-46 59z" />
            <glyph glyph-name="atilde" unicode="&#xe3;" horiz-adv-x="580"
           d="M45 370q19 78 82.5 121.5t168.5 43.5q109 0 171.5 -50.5t62.5 -140.5v-344h-122l-19 54q-26 -29 -68 -49t-104 -20q-40 0 -73.5 11t-57.5 32t-37.5 51.5t-13.5 70.5q0 30 10.5 55.5t35.5 46t65 36t99 25.5l129 21v23q0 38 -21.5 57.5t-61.5 19.5q-38 0 -59 -17.5
t-27 -46.5h-160zM262 92q53 0 82.5 29.5t29.5 70.5v57l-89 -18q-55 -11 -74.5 -29t-19.5 -45q0 -65 71 -65zM348 592q-22 0 -38.5 6t-31 13t-29 13t-31.5 6t-40 -10.5t-45 -27.5v110q22 16 45 24.5t44 8.5q22 0 38.5 -6t31 -13t29 -13t31.5 -6t38 10.5t43 27.5v-110
q-22 -16 -43 -24.5t-42 -8.5z" />
            <glyph glyph-name="adieresis" unicode="&#xe4;" horiz-adv-x="580"
           d="M45 370q19 78 82.5 121.5t168.5 43.5q109 0 171.5 -50.5t62.5 -140.5v-344h-122l-19 54q-26 -29 -68 -49t-104 -20q-40 0 -73.5 11t-57.5 32t-37.5 51.5t-13.5 70.5q0 30 10.5 55.5t35.5 46t65 36t99 25.5l129 21v23q0 38 -21.5 57.5t-61.5 19.5q-38 0 -59 -17.5
t-27 -46.5h-160zM262 92q53 0 82.5 29.5t29.5 70.5v57l-89 -18q-55 -11 -74.5 -29t-19.5 -45q0 -65 71 -65zM96 592v128h148v-128h-148zM326 592v128h148v-128h-148z" />
            <glyph glyph-name="aring" unicode="&#xe5;" horiz-adv-x="580"
           d="M45 370q19 78 82.5 121.5t168.5 43.5q109 0 171.5 -50.5t62.5 -140.5v-344h-122l-19 54q-26 -29 -68 -49t-104 -20q-40 0 -73.5 11t-57.5 32t-37.5 51.5t-13.5 70.5q0 30 10.5 55.5t35.5 46t65 36t99 25.5l129 21v23q0 38 -21.5 57.5t-61.5 19.5q-38 0 -59 -17.5
t-27 -46.5h-160zM262 92q53 0 82.5 29.5t29.5 70.5v57l-89 -18q-55 -11 -74.5 -29t-19.5 -45q0 -65 71 -65zM249 700q0 -26 12 -38.5t29 -12.5t29 12.5t12 38.5t-11.5 38.5t-29.5 12.5t-29.5 -12.5t-11.5 -38.5zM429 700q0 -25 -9 -47.5t-26.5 -39t-43.5 -26.5t-60 -10
t-60 10t-43.5 26.5t-26.5 39t-9 47.5t9 47.5t27 39t44 26.5t59 10t59 -10t44 -26.5t27 -39t9 -47.5z" />
            <glyph glyph-name="ae" unicode="&#xe6;" horiz-adv-x="941"
           d="M905 151q-9 -36 -28 -66.5t-50.5 -52.5t-76 -34.5t-102.5 -12.5q-72 0 -129 29t-93 80q-12 -21 -29.5 -41t-42 -35t-56 -24t-71.5 -9q-43 0 -78 10.5t-60.5 31t-39.5 51.5t-14 72q0 30 10.5 55.5t35.5 46t65 36t99 25.5l129 21v23q0 38 -21.5 57.5t-61.5 19.5
q-38 0 -59 -17.5t-27 -46.5h-160q19 78 82.5 121.5t168.5 43.5q54 0 97.5 -16.5t74.5 -43.5q34 29 77.5 44.5t97.5 15.5q62 0 112 -19t84.5 -58t53 -98t18.5 -138h-379q8 -69 40.5 -98.5t83.5 -29.5q37 0 60 15.5t30 41.5h159zM640 437q-45 0 -73 -28.5t-35 -95.5h219
q-3 66 -32 95t-79 29zM374 249l-89 -18q-55 -11 -74.5 -29t-19.5 -45q0 -33 19 -49t52 -16q27 0 48 8.5t35 23t21.5 33t7.5 39.5v53z" />
            <glyph glyph-name="ccedilla" unicode="&#xe7;" horiz-adv-x="590"
           d="M329 -142q0 43 -82 43l8 87q-109 11 -164.5 79.5t-55.5 187.5q0 66 18.5 118t53.5 88t84 55t111 19q52 0 95.5 -12.5t77 -36t55 -55.5t29.5 -71h-164q-9 32 -33.5 50.5t-54.5 18.5q-50 0 -80 -40.5t-30 -136.5q0 -84 30.5 -122.5t73.5 -38.5q35 0 58.5 19.5t36.5 62.5
h164q-17 -72 -69 -123t-146 -62v-28q41 -9 63.5 -34.5t22.5 -64.5q0 -24 -10 -46t-29 -38t-45.5 -25.5t-59.5 -9.5q-70 0 -108.5 33.5t-45.5 87.5h100q2 -14 11.5 -27.5t39.5 -13.5q23 0 34 11t11 25z" />
            <glyph glyph-name="egrave" unicode="&#xe8;" horiz-adv-x="602"
           d="M566 151q-9 -36 -28 -66.5t-50.5 -52.5t-76 -34.5t-102.5 -12.5q-61 0 -111.5 18.5t-86.5 54t-56 86.5t-20 116q0 66 19 117.5t54.5 86.5t85 53t110.5 18q62 0 112 -19t84.5 -58t53 -98t18.5 -138h-379q8 -69 40.5 -98.5t83.5 -29.5q37 0 60 15.5t30 41.5h159zM301 437
q-45 0 -73 -28.5t-35 -95.5h219q-3 66 -32 95t-79 29zM377 583h-121l-149 137h169z" />
            <glyph glyph-name="eacute" unicode="&#xe9;" horiz-adv-x="602"
           d="M566 151q-9 -36 -28 -66.5t-50.5 -52.5t-76 -34.5t-102.5 -12.5q-61 0 -111.5 18.5t-86.5 54t-56 86.5t-20 116q0 66 19 117.5t54.5 86.5t85 53t110.5 18q62 0 112 -19t84.5 -58t53 -98t18.5 -138h-379q8 -69 40.5 -98.5t83.5 -29.5q37 0 60 15.5t30 41.5h159zM301 437
q-45 0 -73 -28.5t-35 -95.5h219q-3 66 -32 95t-79 29zM335 720h169l-149 -137h-121z" />
            <glyph glyph-name="ecircumflex" unicode="&#xea;" horiz-adv-x="602"
           d="M566 151q-9 -36 -28 -66.5t-50.5 -52.5t-76 -34.5t-102.5 -12.5q-61 0 -111.5 18.5t-86.5 54t-56 86.5t-20 116q0 66 19 117.5t54.5 86.5t85 53t110.5 18q62 0 112 -19t84.5 -58t53 -98t18.5 -138h-379q8 -69 40.5 -98.5t83.5 -29.5q37 0 60 15.5t30 41.5h159zM301 437
q-45 0 -73 -28.5t-35 -95.5h219q-3 66 -32 95t-79 29zM251 598h-160l135 137h140l135 -137h-159l-46 59z" />
            <glyph glyph-name="edieresis" unicode="&#xeb;" horiz-adv-x="602"
           d="M566 151q-9 -36 -28 -66.5t-50.5 -52.5t-76 -34.5t-102.5 -12.5q-61 0 -111.5 18.5t-86.5 54t-56 86.5t-20 116q0 66 19 117.5t54.5 86.5t85 53t110.5 18q62 0 112 -19t84.5 -58t53 -98t18.5 -138h-379q8 -69 40.5 -98.5t83.5 -29.5q37 0 60 15.5t30 41.5h159zM301 437
q-45 0 -73 -28.5t-35 -95.5h219q-3 66 -32 95t-79 29zM106 592v128h148v-128h-148zM336 592v128h148v-128h-148z" />
            <glyph glyph-name="igrave" unicode="&#xec;" horiz-adv-x="266"
           d="M55 0v520h156v-520h-156zM238 583h-121l-149 137h169z" />
            <glyph glyph-name="iacute" unicode="&#xed;" horiz-adv-x="266"
           d="M55 0v520h156v-520h-156zM132 720h169l-149 -137h-121z" />
            <glyph glyph-name="icircumflex" unicode="&#xee;" horiz-adv-x="266"
           d="M55 0v520h156v-520h-156zM89 598h-160l135 137h140l135 -137h-159l-46 59z" />
            <glyph glyph-name="idieresis" unicode="&#xef;" horiz-adv-x="266"
           d="M55 0v520h156v-520h-156zM-55 592v128h148v-128h-148zM175 592v128h148v-128h-148z" />
            <glyph glyph-name="eth" unicode="&#xf0;" horiz-adv-x="590"
           d="M100 753q54 -7 109.5 -22t106.5 -40l29 29h143l-83 -83q66 -51 108 -127.5t42 -182.5q0 -166 -59 -254t-195 -88q-47 0 -94.5 12.5t-85.5 41.5t-62 78t-24 121q0 56 15 101t43.5 77t69.5 49.5t93 17.5q18 0 37 -4t36 -11t31 -17t22 -22q-8 40 -23 70.5t-37 53.5l-18 -18
h-143l75 75q-32 14 -66.5 23t-69.5 17v103zM293 370q-52 0 -75.5 -38t-23.5 -99q0 -66 26.5 -100.5t78.5 -34.5q47 0 72 41t25 116q0 55 -27.5 85t-75.5 30z" />
            <glyph glyph-name="ntilde" unicode="&#xf1;" horiz-adv-x="601"
           d="M55 0v520h129l15 -57q25 32 64 52t95 20q91 0 142 -52t51 -147v-336h-156v330q0 52 -21.5 73.5t-58.5 21.5q-45 0 -74.5 -31.5t-29.5 -85.5v-308h-156zM371 592q-22 0 -38.5 6t-31 13t-29 13t-31.5 6t-40 -10.5t-45 -27.5v110q22 16 45 24.5t44 8.5q22 0 38.5 -6t31 -13
t29 -13t31.5 -6t38 10.5t43 27.5v-110q-22 -16 -43 -24.5t-42 -8.5z" />
            <glyph glyph-name="ograve" unicode="&#xf2;" horiz-adv-x="620"
           d="M35 262q0 135 71.5 204t203.5 69q131 0 203 -69t72 -204q0 -136 -71.5 -206.5t-203.5 -70.5q-128 0 -201.5 70.5t-73.5 206.5zM196 262q0 -94 30 -133t85 -39q57 0 85.5 38.5t28.5 133.5q0 48 -7.5 80t-22 51.5t-36 28t-49.5 8.5q-58 0 -86 -37t-28 -131zM393 583h-121
l-149 137h169z" />
            <glyph glyph-name="oacute" unicode="&#xf3;" horiz-adv-x="620"
           d="M35 262q0 135 71.5 204t203.5 69q131 0 203 -69t72 -204q0 -136 -71.5 -206.5t-203.5 -70.5q-128 0 -201.5 70.5t-73.5 206.5zM196 262q0 -94 30 -133t85 -39q57 0 85.5 38.5t28.5 133.5q0 48 -7.5 80t-22 51.5t-36 28t-49.5 8.5q-58 0 -86 -37t-28 -131zM322 720h169
l-149 -137h-121z" />
            <glyph glyph-name="ocircumflex" unicode="&#xf4;" horiz-adv-x="620"
           d="M35 262q0 135 71.5 204t203.5 69q131 0 203 -69t72 -204q0 -136 -71.5 -206.5t-203.5 -70.5q-128 0 -201.5 70.5t-73.5 206.5zM196 262q0 -94 30 -133t85 -39q57 0 85.5 38.5t28.5 133.5q0 48 -7.5 80t-22 51.5t-36 28t-49.5 8.5q-58 0 -86 -37t-28 -131zM265 598h-160
l135 137h140l135 -137h-159l-46 59z" />
            <glyph glyph-name="otilde" unicode="&#xf5;" horiz-adv-x="620"
           d="M35 262q0 135 71.5 204t203.5 69q131 0 203 -69t72 -204q0 -136 -71.5 -206.5t-203.5 -70.5q-128 0 -201.5 70.5t-73.5 206.5zM196 262q0 -94 30 -133t85 -39q57 0 85.5 38.5t28.5 133.5q0 48 -7.5 80t-22 51.5t-36 28t-49.5 8.5q-58 0 -86 -37t-28 -131zM375 592
q-22 0 -38.5 6t-31 13t-29 13t-31.5 6t-40 -10.5t-45 -27.5v110q22 16 45 24.5t44 8.5q22 0 38.5 -6t31 -13t29 -13t31.5 -6t38 10.5t43 27.5v-110q-22 -16 -43 -24.5t-42 -8.5z" />
            <glyph glyph-name="odieresis" unicode="&#xf6;" horiz-adv-x="620"
           d="M35 262q0 135 71.5 204t203.5 69q131 0 203 -69t72 -204q0 -136 -71.5 -206.5t-203.5 -70.5q-128 0 -201.5 70.5t-73.5 206.5zM196 262q0 -94 30 -133t85 -39q57 0 85.5 38.5t28.5 133.5q0 48 -7.5 80t-22 51.5t-36 28t-49.5 8.5q-58 0 -86 -37t-28 -131zM121 592v128
h148v-128h-148zM351 592v128h148v-128h-148z" />
            <glyph glyph-name="divide" unicode="&#xf7;"
           d="M221 62v142h158v-142h-158zM221 441v142h158v-142h-158zM520 261h-440v123h440v-123z" />
            <glyph glyph-name="oslash" unicode="&#xf8;" horiz-adv-x="620"
           d="M35 262q0 135 71.5 204t203.5 69q18 0 35.5 -2t33.5 -5l47 102h119l-65 -139q51 -33 78 -90.5t27 -138.5q0 -136 -71.5 -206.5t-203.5 -70.5q-37 0 -68 6l-46 -101h-121l65 140q-51 34 -78 92t-27 140zM196 262q0 -77 21 -119l128 283q-8 2 -17 3t-18 1q-58 0 -86 -37
t-28 -131zM425 262q0 74 -20 114l-127 -282q13 -4 33 -4q57 0 85.5 38.5t28.5 133.5z" />
            <glyph glyph-name="ugrave" unicode="&#xf9;" horiz-adv-x="596"
           d="M206 520v-344q0 -39 21.5 -60t61.5 -21q41 0 68.5 29.5t27.5 83.5v312h156v-520h-129l-15 55q-27 -33 -66.5 -51.5t-90.5 -18.5q-90 0 -140 50.5t-50 146.5v338h156zM364 583h-121l-149 137h169z" />
            <glyph glyph-name="uacute" unicode="&#xfa;" horiz-adv-x="596"
           d="M206 520v-344q0 -39 21.5 -60t61.5 -21q41 0 68.5 29.5t27.5 83.5v312h156v-520h-129l-15 55q-27 -33 -66.5 -51.5t-90.5 -18.5q-90 0 -140 50.5t-50 146.5v338h156zM329 720h169l-149 -137h-121z" />
            <glyph glyph-name="ucircumflex" unicode="&#xfb;" horiz-adv-x="596"
           d="M206 520v-344q0 -39 21.5 -60t61.5 -21q41 0 68.5 29.5t27.5 83.5v312h156v-520h-129l-15 55q-27 -33 -66.5 -51.5t-90.5 -18.5q-90 0 -140 50.5t-50 146.5v338h156zM250 598h-160l135 137h140l135 -137h-159l-46 59z" />
            <glyph glyph-name="udieresis" unicode="&#xfc;" horiz-adv-x="596"
           d="M206 520v-344q0 -39 21.5 -60t61.5 -21q41 0 68.5 29.5t27.5 83.5v312h156v-520h-129l-15 55q-27 -33 -66.5 -51.5t-90.5 -18.5q-90 0 -140 50.5t-50 146.5v338h156zM107 592v128h148v-128h-148zM337 592v128h148v-128h-148z" />
            <glyph glyph-name="yacute" unicode="&#xfd;" horiz-adv-x="571"
           d="M566 520l-186 -531q-18 -51 -37 -86t-42.5 -56.5t-51.5 -31.5t-64 -10q-40 0 -84 11v109q24 -6 39 -7.5t25 -1.5q27 0 44 19.5t27 64.5h-44l-187 520h166l115 -406l124 406h156zM312 720h169l-149 -137h-121z" />
            <glyph glyph-name="thorn" unicode="&#xfe;" horiz-adv-x="635"
           d="M55 -180v900h156v-249q28 29 67.5 46.5t89.5 17.5q52 0 95 -17.5t73.5 -51.5t47 -84t16.5 -114q0 -77 -22.5 -131t-57.5 -87.5t-79 -49t-86 -15.5q-43 0 -80 16t-64 44v-225h-156zM443 264q0 84 -31.5 120.5t-84.5 36.5t-87 -38t-34 -117q0 -47 9 -79t24.5 -51.5
t36.5 -28t46 -8.5q53 0 87 40t34 125z" />
            <glyph glyph-name="ydieresis" unicode="&#xff;" horiz-adv-x="571"
           d="M566 520l-186 -531q-18 -51 -37 -86t-42.5 -56.5t-51.5 -31.5t-64 -10q-40 0 -84 11v109q24 -6 39 -7.5t25 -1.5q27 0 44 19.5t27 64.5h-44l-187 520h166l115 -406l124 406h156zM97 592v128h148v-128h-148zM327 592v128h148v-128h-148z" />
            <glyph glyph-name="Amacron" unicode="&#x100;" horiz-adv-x="701"
           d="M524 0l-51 165h-256l-51 -165h-166l256 720h187l258 -720h-177zM251 275h189l-94 307zM210 798v112h270v-112h-270z" />
            <glyph glyph-name="amacron" unicode="&#x101;" horiz-adv-x="580"
           d="M45 370q19 78 82.5 121.5t168.5 43.5q109 0 171.5 -50.5t62.5 -140.5v-344h-122l-19 54q-26 -29 -68 -49t-104 -20q-40 0 -73.5 11t-57.5 32t-37.5 51.5t-13.5 70.5q0 30 10.5 55.5t35.5 46t65 36t99 25.5l129 21v23q0 38 -21.5 57.5t-61.5 19.5q-38 0 -59 -17.5
t-27 -46.5h-160zM262 92q53 0 82.5 29.5t29.5 70.5v57l-89 -18q-55 -11 -74.5 -29t-19.5 -45q0 -65 71 -65zM160 608v112h270v-112h-270z" />
            <glyph glyph-name="Abreve" unicode="&#x102;" horiz-adv-x="701"
           d="M524 0l-51 165h-256l-51 -165h-166l256 720h187l258 -720h-177zM251 275h189l-94 307zM315 925q1 -26 9 -37.5t22 -11.5t22 11.5t9 37.5h124q-4 -36 -17.5 -61.5t-34 -41t-47 -23t-56.5 -7.5q-68 0 -107.5 35t-47.5 98h124z" />
            <glyph glyph-name="abreve" unicode="&#x103;" horiz-adv-x="580"
           d="M45 370q19 78 82.5 121.5t168.5 43.5q109 0 171.5 -50.5t62.5 -140.5v-344h-122l-19 54q-26 -29 -68 -49t-104 -20q-40 0 -73.5 11t-57.5 32t-37.5 51.5t-13.5 70.5q0 30 10.5 55.5t35.5 46t65 36t99 25.5l129 21v23q0 38 -21.5 57.5t-61.5 19.5q-38 0 -59 -17.5
t-27 -46.5h-160zM262 92q53 0 82.5 29.5t29.5 70.5v57l-89 -18q-55 -11 -74.5 -29t-19.5 -45q0 -65 71 -65zM262 735q1 -26 9 -37.5t22 -11.5t22 11.5t9 37.5h124q-4 -36 -17.5 -61.5t-34 -41t-47 -23t-56.5 -7.5q-68 0 -107.5 35t-47.5 98h124z" />
            <glyph glyph-name="Aogonek" unicode="&#x104;" horiz-adv-x="701"
           d="M704 -137q-15 -48 -53.5 -79t-107.5 -31q-60 0 -97 30t-37 84q0 45 31 80.5t82 58.5l-49 159h-256l-51 -165h-166l256 720h187l258 -720h-89q-18 -9 -35 -20.5t-30.5 -25t-21.5 -30t-8 -35.5q0 -23 13.5 -35.5t30.5 -12.5q28 0 36 22h107zM251 275h189l-94 307z" />
            <glyph glyph-name="aogonek" unicode="&#x105;" horiz-adv-x="580"
           d="M580 -137q-15 -48 -53.5 -79t-107.5 -31q-60 0 -97 30t-37 84q0 47 33 83t87 59l-16 45q-26 -29 -68 -49t-104 -20q-40 0 -73.5 11t-57.5 32t-37.5 51.5t-13.5 70.5q0 30 10.5 55.5t35.5 46t65 36t99 25.5l129 21v23q0 38 -21.5 57.5t-61.5 19.5q-38 0 -59 -17.5
t-27 -46.5h-160q19 78 82.5 121.5t168.5 43.5q109 0 171.5 -50.5t62.5 -140.5v-344h-42q-18 -9 -35 -20.5t-30.5 -25t-21.5 -30t-8 -35.5q0 -23 13.5 -35.5t30.5 -12.5q28 0 36 22h107zM374 249l-89 -18q-55 -11 -74.5 -29t-19.5 -45q0 -65 71 -65q27 0 48 8.5t35 23
t21.5 33t7.5 39.5v53z" />
            <glyph glyph-name="Cacute" unicode="&#x106;" horiz-adv-x="741"
           d="M378 103q71 0 111 38.5t46 123.5h171q-17 -139 -101 -209.5t-230 -70.5q-72 0 -133.5 23.5t-106 71t-70 118t-25.5 164.5q0 91 24 161t68.5 117t108 71t142.5 24q63 0 116.5 -16.5t95 -48t69 -78t37.5 -107.5h-168q-14 68 -53 100.5t-97 32.5q-38 0 -68.5 -14.5
t-53 -45.5t-34.5 -79.5t-12 -116.5q0 -71 13 -120.5t35 -80.5t52 -44.5t63 -13.5zM415 910h169l-149 -137h-121z" />
            <glyph glyph-name="cacute" unicode="&#x107;" horiz-adv-x="590"
           d="M560 173q-9 -40 -29.5 -74.5t-52.5 -59.5t-76.5 -39.5t-102.5 -14.5q-130 0 -197 69.5t-67 200.5q0 66 18.5 118t53.5 88t84 55t111 19q52 0 95.5 -12.5t77 -36t55 -55.5t29.5 -71h-164q-9 32 -33.5 50.5t-54.5 18.5q-50 0 -80 -40.5t-30 -136.5q0 -84 30.5 -122.5
t73.5 -38.5q35 0 58.5 19.5t36.5 62.5h164zM336 720h169l-149 -137h-121z" />
            <glyph glyph-name="Ccircumflex" unicode="&#x108;" horiz-adv-x="741"
           d="M378 103q71 0 111 38.5t46 123.5h171q-17 -139 -101 -209.5t-230 -70.5q-72 0 -133.5 23.5t-106 71t-70 118t-25.5 164.5q0 91 24 161t68.5 117t108 71t142.5 24q63 0 116.5 -16.5t95 -48t69 -78t37.5 -107.5h-168q-14 68 -53 100.5t-97 32.5q-38 0 -68.5 -14.5
t-53 -45.5t-34.5 -79.5t-12 -116.5q0 -71 13 -120.5t35 -80.5t52 -44.5t63 -13.5zM339 788h-160l135 137h140l135 -137h-159l-46 59z" />
            <glyph glyph-name="ccircumflex" unicode="&#x109;" horiz-adv-x="590"
           d="M560 173q-9 -40 -29.5 -74.5t-52.5 -59.5t-76.5 -39.5t-102.5 -14.5q-130 0 -197 69.5t-67 200.5q0 66 18.5 118t53.5 88t84 55t111 19q52 0 95.5 -12.5t77 -36t55 -55.5t29.5 -71h-164q-9 32 -33.5 50.5t-54.5 18.5q-50 0 -80 -40.5t-30 -136.5q0 -84 30.5 -122.5
t73.5 -38.5q35 0 58.5 19.5t36.5 62.5h164zM247 598h-160l135 137h140l135 -137h-159l-46 59z" />
            <glyph glyph-name="Cdotaccent" unicode="&#x10a;" horiz-adv-x="741"
           d="M378 103q71 0 111 38.5t46 123.5h171q-17 -139 -101 -209.5t-230 -70.5q-72 0 -133.5 23.5t-106 71t-70 118t-25.5 164.5q0 91 24 161t68.5 117t108 71t142.5 24q63 0 116.5 -16.5t95 -48t69 -78t37.5 -107.5h-168q-14 68 -53 100.5t-97 32.5q-38 0 -68.5 -14.5
t-53 -45.5t-34.5 -79.5t-12 -116.5q0 -71 13 -120.5t35 -80.5t52 -44.5t63 -13.5zM295 777v133h168v-133h-168z" />
            <glyph glyph-name="cdotaccent" unicode="&#x10b;" horiz-adv-x="590"
           d="M560 173q-9 -40 -29.5 -74.5t-52.5 -59.5t-76.5 -39.5t-102.5 -14.5q-130 0 -197 69.5t-67 200.5q0 66 18.5 118t53.5 88t84 55t111 19q52 0 95.5 -12.5t77 -36t55 -55.5t29.5 -71h-164q-9 32 -33.5 50.5t-54.5 18.5q-50 0 -80 -40.5t-30 -136.5q0 -84 30.5 -122.5
t73.5 -38.5q35 0 58.5 19.5t36.5 62.5h164zM214 587v133h168v-133h-168z" />
            <glyph glyph-name="Ccaron" unicode="&#x10c;" horiz-adv-x="741"
           d="M378 103q71 0 111 38.5t46 123.5h171q-17 -139 -101 -209.5t-230 -70.5q-72 0 -133.5 23.5t-106 71t-70 118t-25.5 164.5q0 91 24 161t68.5 117t108 71t142.5 24q63 0 116.5 -16.5t95 -48t69 -78t37.5 -107.5h-168q-14 68 -53 100.5t-97 32.5q-38 0 -68.5 -14.5
t-53 -45.5t-34.5 -79.5t-12 -116.5q0 -71 13 -120.5t35 -80.5t52 -44.5t63 -13.5zM371 866l46 59h159l-135 -137h-140l-135 137h160z" />
            <glyph glyph-name="ccaron" unicode="&#x10d;" horiz-adv-x="590"
           d="M560 173q-9 -40 -29.5 -74.5t-52.5 -59.5t-76.5 -39.5t-102.5 -14.5q-130 0 -197 69.5t-67 200.5q0 66 18.5 118t53.5 88t84 55t111 19q52 0 95.5 -12.5t77 -36t55 -55.5t29.5 -71h-164q-9 32 -33.5 50.5t-54.5 18.5q-50 0 -80 -40.5t-30 -136.5q0 -84 30.5 -122.5
t73.5 -38.5q35 0 58.5 19.5t36.5 62.5h164zM295 676l46 59h159l-135 -137h-140l-135 137h160z" />
            <glyph glyph-name="Dcaron" unicode="&#x10e;" horiz-adv-x="729"
           d="M330 720q175 0 267 -88t92 -272q0 -95 -24 -163t-70 -111.5t-112.5 -64.5t-150.5 -21h-272v720h270zM228 604v-487h104q43 0 78 14t59.5 43.5t37.5 75.5t13 110q0 127 -51.5 185.5t-138.5 58.5h-102zM333 866l46 59h159l-135 -137h-140l-135 137h160z" />
            <glyph glyph-name="dcaron" unicode="&#x10f;" horiz-adv-x="786"
           d="M458 0l-26 57q-28 -32 -68.5 -52t-90.5 -20q-53 0 -96.5 18.5t-75 53t-49 85t-17.5 113.5q0 66 17.5 118t49 88t75 55t94.5 19t89 -17t64 -47v249h156v-720h-122zM192 256q0 -83 33 -120t87 -37q26 0 47.5 8.5t37 27.5t24 49.5t8.5 74.5q0 49 -10.5 80.5t-27 49.5
t-37.5 25t-42 7q-55 0 -87.5 -41.5t-32.5 -123.5zM794 616q0 -49 -15 -83.5t-39 -57.5t-55 -36t-62 -19v68q36 12 54 34.5t18 60.5h-48v137h147v-104z" />
            <glyph glyph-name="Dcroat" unicode="&#x110;" horiz-adv-x="729"
           d="M60 315h-50v126h50v279h270q175 0 267 -88t92 -272q0 -95 -24 -163t-70 -111.5t-112.5 -64.5t-150.5 -21h-272v315zM228 315v-198h104q43 0 78 14t59.5 43.5t37.5 75.5t13 110q0 127 -51.5 185.5t-138.5 58.5h-102v-163h129v-126h-129z" />
            <glyph glyph-name="dcroat" unicode="&#x111;" horiz-adv-x="635"
           d="M458 0l-26 57q-28 -32 -68.5 -52t-90.5 -20q-53 0 -96.5 18.5t-75 53t-49 85t-17.5 113.5q0 66 17.5 118t49 88t75 55t94.5 19t89 -17t64 -47v99h-122v106h122v44h156v-44h40v-106h-40v-570h-122zM192 256q0 -83 33 -120t87 -37q26 0 47.5 8.5t37 27.5t24 49.5t8.5 74.5
q0 49 -10.5 80.5t-27 49.5t-37.5 25t-42 7q-55 0 -87.5 -41.5t-32.5 -123.5z" />
            <glyph glyph-name="Emacron" unicode="&#x112;" horiz-adv-x="581"
           d="M517 305h-289v-184h318v-121h-486v720h486v-123h-318v-176h289v-116zM168 798v112h270v-112h-270z" />
            <glyph glyph-name="emacron" unicode="&#x113;" horiz-adv-x="602"
           d="M566 151q-9 -36 -28 -66.5t-50.5 -52.5t-76 -34.5t-102.5 -12.5q-61 0 -111.5 18.5t-86.5 54t-56 86.5t-20 116q0 66 19 117.5t54.5 86.5t85 53t110.5 18q62 0 112 -19t84.5 -58t53 -98t18.5 -138h-379q8 -69 40.5 -98.5t83.5 -29.5q37 0 60 15.5t30 41.5h159zM301 437
q-45 0 -73 -28.5t-35 -95.5h219q-3 66 -32 95t-79 29zM168 608v112h270v-112h-270z" />
            <glyph glyph-name="Ebreve" unicode="&#x114;" horiz-adv-x="581"
           d="M517 305h-289v-184h318v-121h-486v720h486v-123h-318v-176h289v-116zM288 925q1 -26 9 -37.5t22 -11.5t22 11.5t9 37.5h124q-4 -36 -17.5 -61.5t-34 -41t-47 -23t-56.5 -7.5q-68 0 -107.5 35t-47.5 98h124z" />
            <glyph glyph-name="ebreve" unicode="&#x115;" horiz-adv-x="602"
           d="M566 151q-9 -36 -28 -66.5t-50.5 -52.5t-76 -34.5t-102.5 -12.5q-61 0 -111.5 18.5t-86.5 54t-56 86.5t-20 116q0 66 19 117.5t54.5 86.5t85 53t110.5 18q62 0 112 -19t84.5 -58t53 -98t18.5 -138h-379q8 -69 40.5 -98.5t83.5 -29.5q37 0 60 15.5t30 41.5h159zM301 437
q-45 0 -73 -28.5t-35 -95.5h219q-3 66 -32 95t-79 29zM270 735q1 -26 9 -37.5t22 -11.5t22 11.5t9 37.5h124q-4 -36 -17.5 -61.5t-34 -41t-47 -23t-56.5 -7.5q-68 0 -107.5 35t-47.5 98h124z" />
            <glyph glyph-name="Edotaccent" unicode="&#x116;" horiz-adv-x="581"
           d="M517 305h-289v-184h318v-121h-486v720h486v-123h-318v-176h289v-116zM224 777v133h168v-133h-168z" />
            <glyph glyph-name="edotaccent" unicode="&#x117;" horiz-adv-x="602"
           d="M566 151q-9 -36 -28 -66.5t-50.5 -52.5t-76 -34.5t-102.5 -12.5q-61 0 -111.5 18.5t-86.5 54t-56 86.5t-20 116q0 66 19 117.5t54.5 86.5t85 53t110.5 18q62 0 112 -19t84.5 -58t53 -98t18.5 -138h-379q8 -69 40.5 -98.5t83.5 -29.5q37 0 60 15.5t30 41.5h159zM301 437
q-45 0 -73 -28.5t-35 -95.5h219q-3 66 -32 95t-79 29zM218 587v133h168v-133h-168z" />
            <glyph glyph-name="Eogonek" unicode="&#x118;" horiz-adv-x="581"
           d="M517 305h-289v-184h318v-121h-123q-18 -9 -35 -20.5t-30.5 -25t-21.5 -30t-8 -35.5q0 -23 13.5 -35.5t30.5 -12.5q28 0 36 22h107q-15 -48 -53.5 -79t-107.5 -31q-60 0 -97 30t-37 84q0 43 28 76.5t73 56.5h-261v720h486v-123h-318v-176h289v-116z" />
            <glyph glyph-name="eogonek" unicode="&#x119;" horiz-adv-x="602"
           d="M520 -137q-15 -48 -53.5 -79t-107.5 -31q-60 0 -97 30t-37 84q0 36 20 65.5t55 52.5q-59 1 -107.5 20.5t-83.5 54.5t-54.5 85.5t-19.5 114.5q0 66 19 117.5t54.5 86.5t85 53t110.5 18q62 0 112 -19t84.5 -58t53 -98t18.5 -138h-379q8 -69 40.5 -98.5t83.5 -29.5
q37 0 60 15.5t30 41.5h159q-11 -48 -42 -84.5t-82 -59.5q-20 -9 -39 -20.5t-35 -26.5t-25.5 -32.5t-9.5 -38.5q0 -23 13.5 -35.5t30.5 -12.5q28 0 36 22h107zM301 437q-45 0 -73 -28.5t-35 -95.5h219q-3 66 -32 95t-79 29z" />
            <glyph glyph-name="Ecaron" unicode="&#x11a;" horiz-adv-x="581"
           d="M517 305h-289v-184h318v-121h-486v720h486v-123h-318v-176h289v-116zM310 866l46 59h159l-135 -137h-140l-135 137h160z" />
            <glyph glyph-name="ecaron" unicode="&#x11b;" horiz-adv-x="602"
           d="M566 151q-9 -36 -28 -66.5t-50.5 -52.5t-76 -34.5t-102.5 -12.5q-61 0 -111.5 18.5t-86.5 54t-56 86.5t-20 116q0 66 19 117.5t54.5 86.5t85 53t110.5 18q62 0 112 -19t84.5 -58t53 -98t18.5 -138h-379q8 -69 40.5 -98.5t83.5 -29.5q37 0 60 15.5t30 41.5h159zM301 437
q-45 0 -73 -28.5t-35 -95.5h219q-3 66 -32 95t-79 29zM304 676l46 59h159l-135 -137h-140l-135 137h160z" />
            <glyph glyph-name="Gcircumflex" unicode="&#x11c;" horiz-adv-x="749"
           d="M699 0h-108l-24 67q-32 -36 -83.5 -59t-123.5 -23q-65 0 -123.5 23t-102 69.5t-69 117.5t-25.5 168q0 92 25 161.5t71 116.5t110.5 70.5t144.5 23.5q61 0 112.5 -15t91.5 -43.5t66.5 -69.5t37.5 -93h-167q-14 54 -50.5 79t-90.5 25q-38 0 -70 -14t-55.5 -44.5t-37 -79
t-13.5 -117.5t13.5 -118.5t37.5 -81t56 -46t70 -14.5q35 0 64.5 10t51.5 28.5t34 44t12 55.5v51h-170v109h315v-401zM323 788h-160l135 137h140l135 -137h-159l-46 59z" />
            <glyph glyph-name="gcircumflex" unicode="&#x11d;" horiz-adv-x="625"
           d="M207 -32q14 -31 37 -42.5t69 -11.5q50 0 75.5 25t25.5 79v46q-28 -23 -63.5 -36t-77.5 -13q-50 0 -93 17t-75.5 49.5t-51 80t-18.5 108.5q0 63 18 112.5t50 83.5t75.5 51.5t95.5 17.5q45 0 83.5 -16t67.5 -47l27 48h118v-492q0 -51 -17.5 -92.5t-51 -70.5t-82 -44.5
t-109.5 -15.5q-124 0 -187 43.5t-75 119.5h159zM192 271q0 -74 33.5 -108t86.5 -34q56 0 86.5 35.5t30.5 106.5q0 78 -31.5 114t-85.5 36q-53 0 -86.5 -37.5t-33.5 -112.5zM266 598h-160l135 137h140l135 -137h-159l-46 59z" />
            <glyph glyph-name="Gbreve" unicode="&#x11e;" horiz-adv-x="749"
           d="M699 0h-108l-24 67q-32 -36 -83.5 -59t-123.5 -23q-65 0 -123.5 23t-102 69.5t-69 117.5t-25.5 168q0 92 25 161.5t71 116.5t110.5 70.5t144.5 23.5q61 0 112.5 -15t91.5 -43.5t66.5 -69.5t37.5 -93h-167q-14 54 -50.5 79t-90.5 25q-38 0 -70 -14t-55.5 -44.5t-37 -79
t-13.5 -117.5t13.5 -118.5t37.5 -81t56 -46t70 -14.5q35 0 64.5 10t51.5 28.5t34 44t12 55.5v51h-170v109h315v-401zM344 925q1 -26 9 -37.5t22 -11.5t22 11.5t9 37.5h124q-4 -36 -17.5 -61.5t-34 -41t-47 -23t-56.5 -7.5q-68 0 -107.5 35t-47.5 98h124z" />
            <glyph glyph-name="gbreve" unicode="&#x11f;" horiz-adv-x="625"
           d="M207 -32q14 -31 37 -42.5t69 -11.5q50 0 75.5 25t25.5 79v46q-28 -23 -63.5 -36t-77.5 -13q-50 0 -93 17t-75.5 49.5t-51 80t-18.5 108.5q0 63 18 112.5t50 83.5t75.5 51.5t95.5 17.5q45 0 83.5 -16t67.5 -47l27 48h118v-492q0 -51 -17.5 -92.5t-51 -70.5t-82 -44.5
t-109.5 -15.5q-124 0 -187 43.5t-75 119.5h159zM192 271q0 -74 33.5 -108t86.5 -34q56 0 86.5 35.5t30.5 106.5q0 78 -31.5 114t-85.5 36q-53 0 -86.5 -37.5t-33.5 -112.5zM284 735q1 -26 9 -37.5t22 -11.5t22 11.5t9 37.5h124q-4 -36 -17.5 -61.5t-34 -41t-47 -23
t-56.5 -7.5q-68 0 -107.5 35t-47.5 98h124z" />
            <glyph glyph-name="Gdotaccent" unicode="&#x120;" horiz-adv-x="749"
           d="M699 0h-108l-24 67q-32 -36 -83.5 -59t-123.5 -23q-65 0 -123.5 23t-102 69.5t-69 117.5t-25.5 168q0 92 25 161.5t71 116.5t110.5 70.5t144.5 23.5q61 0 112.5 -15t91.5 -43.5t66.5 -69.5t37.5 -93h-167q-14 54 -50.5 79t-90.5 25q-38 0 -70 -14t-55.5 -44.5t-37 -79
t-13.5 -117.5t13.5 -118.5t37.5 -81t56 -46t70 -14.5q35 0 64.5 10t51.5 28.5t34 44t12 55.5v51h-170v109h315v-401zM304 777v133h168v-133h-168z" />
            <glyph glyph-name="gdotaccent" unicode="&#x121;" horiz-adv-x="625"
           d="M207 -32q14 -31 37 -42.5t69 -11.5q50 0 75.5 25t25.5 79v46q-28 -23 -63.5 -36t-77.5 -13q-50 0 -93 17t-75.5 49.5t-51 80t-18.5 108.5q0 63 18 112.5t50 83.5t75.5 51.5t95.5 17.5q45 0 83.5 -16t67.5 -47l27 48h118v-492q0 -51 -17.5 -92.5t-51 -70.5t-82 -44.5
t-109.5 -15.5q-124 0 -187 43.5t-75 119.5h159zM192 271q0 -74 33.5 -108t86.5 -34q56 0 86.5 35.5t30.5 106.5q0 78 -31.5 114t-85.5 36q-53 0 -86.5 -37.5t-33.5 -112.5zM225 587v133h168v-133h-168z" />
            <glyph glyph-name="Gcommaaccent" unicode="&#x122;" horiz-adv-x="749"
           d="M699 0h-108l-24 67q-32 -36 -83.5 -59t-123.5 -23q-65 0 -123.5 23t-102 69.5t-69 117.5t-25.5 168q0 92 25 161.5t71 116.5t110.5 70.5t144.5 23.5q61 0 112.5 -15t91.5 -43.5t66.5 -69.5t37.5 -93h-167q-14 54 -50.5 79t-90.5 25q-38 0 -70 -14t-55.5 -44.5t-37 -79
t-13.5 -117.5t13.5 -118.5t37.5 -81t56 -46t70 -14.5q35 0 64.5 10t51.5 28.5t34 44t12 55.5v51h-170v109h315v-401zM445 -165q0 -49 -15 -83.5t-39 -57.5t-55 -36t-62 -19v68q36 12 54 34.5t18 60.5h-48v137h147v-104z" />
            <glyph glyph-name="gcommaaccent" unicode="&#x123;" horiz-adv-x="625"
           d="M207 -32q14 -31 37 -42.5t69 -11.5q50 0 75.5 25t25.5 79v46q-28 -23 -63.5 -36t-77.5 -13q-50 0 -93 17t-75.5 49.5t-51 80t-18.5 108.5q0 63 18 112.5t50 83.5t75.5 51.5t95.5 17.5q45 0 83.5 -16t67.5 -47l27 48h118v-492q0 -51 -17.5 -92.5t-51 -70.5t-82 -44.5
t-109.5 -15.5q-124 0 -187 43.5t-75 119.5h159zM192 271q0 -74 33.5 -108t86.5 -34q56 0 86.5 35.5t30.5 106.5q0 78 -31.5 114t-85.5 36q-53 0 -86.5 -37.5t-33.5 -112.5zM240 673q0 49 15 83.5t39 57.5t54.5 36t62.5 19v-68q-36 -12 -54 -34.5t-18 -60.5h48v-137h-147v104
z" />
            <glyph glyph-name="Hcircumflex" unicode="&#x124;" horiz-adv-x="723"
           d="M663 720v-720h-167v304h-268v-304h-168v720h168v-296h268v296h167zM316 788h-160l135 137h140l135 -137h-159l-46 59z" />
            <glyph glyph-name="hcircumflex" unicode="&#x125;" horiz-adv-x="601"
           d="M55 720h156v-247q25 28 61 45t87 17q91 0 141.5 -51t50.5 -148v-336h-156v330q0 51 -21 73t-59 22q-45 0 -74.5 -30t-29.5 -82v-313h-156v720zM221 788h-160l135 137h140l135 -137h-159l-46 59z" />
            <glyph glyph-name="Hbar" unicode="&#x126;" horiz-adv-x="723"
           d="M663 720v-84h45v-111h-45v-525h-167v304h-268v-304h-168v525h-45v111h45v84h168v-84h268v84h167zM228 424h268v101h-268v-101z" />
            <glyph glyph-name="hbar" unicode="&#x127;" horiz-adv-x="601"
           d="M55 570h-40v106h40v44h156v-44h132v-106h-132v-97q25 28 61 45t87 17q91 0 141.5 -51t50.5 -148v-336h-156v330q0 51 -21 73t-59 22q-45 0 -74.5 -30t-29.5 -82v-313h-156v570z" />
            <glyph glyph-name="Itilde" unicode="&#x128;" horiz-adv-x="288"
           d="M228 720v-720h-168v720h168zM210 782q-22 0 -38.5 6t-31 13t-29 13t-31.5 6t-40 -10.5t-45 -27.5v110q22 16 45 24.5t44 8.5q22 0 38.5 -6t31 -13t29 -13t31.5 -6t38 10.5t43 27.5v-110q-22 -16 -43 -24.5t-42 -8.5z" />
            <glyph glyph-name="itilde" unicode="&#x129;" horiz-adv-x="266"
           d="M55 0v520h156v-520h-156zM199 592q-22 0 -38.5 6t-31 13t-29 13t-31.5 6t-40 -10.5t-45 -27.5v110q22 16 45 24.5t44 8.5q22 0 38.5 -6t31 -13t29 -13t31.5 -6t38 10.5t43 27.5v-110q-22 -16 -43 -24.5t-42 -8.5z" />
            <glyph glyph-name="Imacron" unicode="&#x12a;" horiz-adv-x="288"
           d="M228 720v-720h-168v720h168zM11 798v112h270v-112h-270z" />
            <glyph glyph-name="imacron" unicode="&#x12b;" horiz-adv-x="266"
           d="M55 0v520h156v-520h-156zM-1 608v112h270v-112h-270z" />
            <glyph glyph-name="Ibreve" unicode="&#x12c;" horiz-adv-x="288"
           d="M228 720v-720h-168v720h168zM114 925q1 -26 9 -37.5t22 -11.5t22 11.5t9 37.5h124q-4 -36 -17.5 -61.5t-34 -41t-47 -23t-56.5 -7.5q-68 0 -107.5 35t-47.5 98h124z" />
            <glyph glyph-name="ibreve" unicode="&#x12d;" horiz-adv-x="266"
           d="M55 0v520h156v-520h-156zM103 735q1 -26 9 -37.5t22 -11.5t22 11.5t9 37.5h124q-4 -36 -17.5 -61.5t-34 -41t-47 -23t-56.5 -7.5q-68 0 -107.5 35t-47.5 98h124z" />
            <glyph glyph-name="Iogonek" unicode="&#x12e;" horiz-adv-x="288"
           d="M247 -137q-15 -48 -53.5 -79t-107.5 -31q-60 0 -97 30t-37 84q0 45 30 79t78 57v717h168v-720h-73q-18 -9 -35 -20.5t-30.5 -25t-21.5 -30t-8 -35.5q0 -23 13.5 -35.5t30.5 -12.5q28 0 36 22h107z" />
            <glyph glyph-name="iogonek" unicode="&#x12f;" horiz-adv-x="266"
           d="M233 -137q-15 -48 -53.5 -79t-107.5 -31q-60 0 -97 30t-37 84q0 46 32.5 82t84.5 59v512h156v-520h-70q-18 -9 -35 -20.5t-30.5 -25t-21.5 -30t-8 -35.5q0 -23 13.5 -35.5t30.5 -12.5q28 0 36 22h107zM49 587v133h168v-133h-168z" />
            <glyph glyph-name="Idotaccent" unicode="&#x130;" horiz-adv-x="288"
           d="M228 720v-720h-168v720h168zM60 777v133h168v-133h-168z" />
            <glyph glyph-name="dotlessi" unicode="&#x131;" horiz-adv-x="266"
           d="M55 0v520h156v-520h-156z" />
            <glyph glyph-name="IJ" unicode="&#x132;" horiz-adv-x="853"
           d="M228 720v-720h-168v720h168zM468 213q1 -31 9.5 -52t21 -33.5t27 -18t29.5 -5.5q16 0 31 5t26 18t18 35t7 55v503h161v-492q0 -112 -59 -177.5t-180 -65.5q-45 0 -87.5 12t-77 39t-57.5 70.5t-29 106.5h160z" />
            <glyph glyph-name="ij" unicode="&#x133;" horiz-adv-x="543"
           d="M49 587v133h168v-133h-168zM55 0v520h156v-520h-156zM212 -71q17 -5 34 -7t28 -2q27 0 39.5 12.5t12.5 41.5v546h156v-549q0 -75 -44 -120.5t-129 -45.5q-23 0 -50 4t-47 11v109zM320 587v133h168v-133h-168z" />
            <glyph glyph-name="Jcircumflex" unicode="&#x134;" horiz-adv-x="565"
           d="M180 213q1 -31 9.5 -52t21 -33.5t27 -18t29.5 -5.5q16 0 31 5t26 18t18 35t7 55v503h161v-492q0 -112 -59 -177.5t-180 -65.5q-45 0 -87.5 12t-77 39t-57.5 70.5t-29 106.5h160zM380 788h-160l135 137h140l135 -137h-159l-46 59z" />
            <glyph glyph-name="jcircumflex" unicode="&#x135;" horiz-adv-x="277"
           d="M-54 -71q17 -5 34 -7t28 -2q27 0 39.5 12.5t12.5 41.5v546h156v-549q0 -75 -44 -120.5t-129 -45.5q-23 0 -50 4t-47 11v109zM83 598h-160l135 137h140l135 -137h-159l-46 59z" />
            <glyph glyph-name="Kcommaaccent" unicode="&#x136;" horiz-adv-x="716"
           d="M496 0l-268 314v-314h-168v720h168v-302l254 302h196l-301 -337l339 -383h-220zM399 -165q0 -49 -15 -83.5t-39 -57.5t-55 -36t-62 -19v68q36 12 54 34.5t18 60.5h-48v137h147v-104z" />
            <glyph glyph-name="kcommaaccent" unicode="&#x137;" horiz-adv-x="585"
           d="M55 0v720h156v-387l176 187h182l-212 -217l238 -303h-200l-184 239v-239h-156zM357 -165q0 -49 -15 -83.5t-39 -57.5t-55 -36t-62 -19v68q36 12 54 34.5t18 60.5h-48v137h147v-104z" />
            <glyph glyph-name="kgreenlandic" unicode="&#x138;" horiz-adv-x="585"
           d="M55 0v520h156v-195l176 195h182l-212 -227l238 -293h-200l-184 231v-231h-156z" />
            <glyph glyph-name="Lacute" unicode="&#x139;" horiz-adv-x="598"
           d="M228 720v-594h350v-126h-518v720h168zM164 910h169l-149 -137h-121z" />
            <glyph glyph-name="lacute" unicode="&#x13a;" horiz-adv-x="266"
           d="M211 0h-156v720h156v-720zM124 910h169l-149 -137h-121z" />
            <glyph glyph-name="Lcommaaccent" unicode="&#x13b;" horiz-adv-x="598"
           d="M228 720v-594h350v-126h-518v720h168zM378 -165q0 -49 -15 -83.5t-39 -57.5t-55 -36t-62 -19v68q36 12 54 34.5t18 60.5h-48v137h147v-104z" />
            <glyph glyph-name="lcommaaccent" unicode="&#x13c;" horiz-adv-x="266"
           d="M211 0h-156v720h156v-720zM206 -165q0 -49 -15 -83.5t-39 -57.5t-55 -36t-62 -19v68q36 12 54 34.5t18 60.5h-48v137h147v-104z" />
            <glyph glyph-name="Lcaron" unicode="&#x13d;" horiz-adv-x="598"
           d="M228 720v-594h350v-126h-518v720h168zM447 616q0 -49 -15 -83.5t-39 -57.5t-55 -36t-62 -19v68q36 12 54 34.5t18 60.5h-48v137h147v-104z" />
            <glyph glyph-name="lcaron" unicode="&#x13e;" horiz-adv-x="388"
           d="M211 0h-156v720h156v-720zM403 616q0 -49 -15 -83.5t-39 -57.5t-55 -36t-62 -19v68q36 12 54 34.5t18 60.5h-48v137h147v-104z" />
            <glyph glyph-name="Ldot" unicode="&#x13f;" horiz-adv-x="598"
           d="M228 720v-594h350v-126h-518v720h168zM355 312v133h168v-133h-168z" />
            <glyph glyph-name="ldot" unicode="&#x140;" horiz-adv-x="435"
           d="M211 0h-156v720h156v-720zM267 312v133h168v-133h-168z" />
            <glyph glyph-name="Lslash" unicode="&#x141;" horiz-adv-x="609"
           d="M239 720v-214l111 66v-142l-111 -66v-238h350v-126h-518v264l-61 -36v142l61 36v314h168z" />
            <glyph glyph-name="lslash" unicode="&#x142;" horiz-adv-x="277"
           d="M212 511l50 31v-144l-50 -31v-367h-156v269l-41 -25v144l41 25v307h156v-209z" />
            <glyph glyph-name="Nacute" unicode="&#x143;" horiz-adv-x="721"
           d="M661 720v-720h-173l-284 511v-511h-144v720h186l272 -492v492h143zM397 910h169l-149 -137h-121z" />
            <glyph glyph-name="nacute" unicode="&#x144;" horiz-adv-x="601"
           d="M55 0v520h129l15 -57q25 32 64 52t95 20q91 0 142 -52t51 -147v-336h-156v330q0 52 -21.5 73.5t-58.5 21.5q-45 0 -74.5 -31.5t-29.5 -85.5v-308h-156zM351 720h169l-149 -137h-121z" />
            <glyph glyph-name="Ncommaaccent" unicode="&#x145;" horiz-adv-x="721"
           d="M661 720v-720h-173l-284 511v-511h-144v720h186l272 -492v492h143zM435 -165q0 -49 -15 -83.5t-39 -57.5t-55 -36t-62 -19v68q36 12 54 34.5t18 60.5h-48v137h147v-104z" />
            <glyph glyph-name="ncommaaccent" unicode="&#x146;" horiz-adv-x="601"
           d="M55 0v520h129l15 -57q25 32 64 52t95 20q91 0 142 -52t51 -147v-336h-156v330q0 52 -21.5 73.5t-58.5 21.5q-45 0 -74.5 -31.5t-29.5 -85.5v-308h-156zM377 -165q0 -49 -15 -83.5t-39 -57.5t-55 -36t-62 -19v68q36 12 54 34.5t18 60.5h-48v137h147v-104z" />
            <glyph glyph-name="Ncaron" unicode="&#x147;" horiz-adv-x="721"
           d="M661 720v-720h-173l-284 511v-511h-144v720h186l272 -492v492h143zM375 866l46 59h159l-135 -137h-140l-135 137h160z" />
            <glyph glyph-name="ncaron" unicode="&#x148;" horiz-adv-x="601"
           d="M55 0v520h129l15 -57q25 32 64 52t95 20q91 0 142 -52t51 -147v-336h-156v330q0 52 -21.5 73.5t-58.5 21.5q-45 0 -74.5 -31.5t-29.5 -85.5v-308h-156zM317 676l46 59h159l-135 -137h-140l-135 137h160z" />
            <glyph glyph-name="napostrophe" unicode="&#x149;" horiz-adv-x="701"
           d="M155 0v520h129l15 -57q25 32 64 52t95 20q91 0 142 -52t51 -147v-336h-156v330q0 52 -21.5 73.5t-58.5 21.5q-45 0 -74.5 -31.5t-29.5 -85.5v-308h-156zM163.952 621.207q0 -46.5498 -14.25 -79.3252t-37.0508 -54.626q-22.7998 -21.8506 -52.25 -34.2002
q-29.4502 -12.3506 -58.9014 -18.0508v64.6006q34.2012 11.4004 51.3008 32.7754q17.1006 21.376 17.1006 57.4766h-45.6006v130.151h139.651v-98.8018z" />
            <glyph glyph-name="Eng" unicode="&#x14a;" horiz-adv-x="721"
           d="M391 -71q17 -5 34 -7t28 -2q35 0 50 12.5t15 41.5v26h-30l-284 511v-511h-144v720h186l272 -492v492h143v-749q0 -75 -44 -120.5t-129 -45.5q-23 0 -50 4t-47 11v109z" />
            <glyph glyph-name="eng" unicode="&#x14b;" horiz-adv-x="601"
           d="M55 0v520h129l15 -57q25 32 64 52t95 20q91 0 142 -52t51 -147v-365q0 -75 -44 -120.5t-129 -45.5q-23 0 -50 4t-47 11v109q17 -5 34 -7t28 -2q27 0 39.5 12.5t12.5 41.5v356q0 51 -21 73t-59 22q-45 0 -74.5 -31.5t-29.5 -83.5v-310h-156z" />
            <glyph glyph-name="Omacron" unicode="&#x14c;" horiz-adv-x="784"
           d="M392 104q34 0 67 12.5t58.5 42.5t41 79t15.5 122t-16 122.5t-41.5 79.5t-58 42.5t-66.5 12.5q-35 0 -67.5 -13t-58 -43t-41 -79.5t-15.5 -122.5t16 -122t41.5 -78.5t58.5 -42t66 -12.5zM392 -15q-66 0 -129.5 19t-113 63t-79.5 115.5t-30 176.5q0 103 30 174.5
t79.5 116.5t113 65t129.5 20t129.5 -19.5t113 -63.5t79.5 -115.5t30 -176.5q0 -103 -30.5 -174.5t-80 -116t-112.5 -64.5t-129 -20zM257 798v112h270v-112h-270z" />
            <glyph glyph-name="omacron" unicode="&#x14d;" horiz-adv-x="620"
           d="M35 262q0 135 71.5 204t203.5 69q131 0 203 -69t72 -204q0 -136 -71.5 -206.5t-203.5 -70.5q-128 0 -201.5 70.5t-73.5 206.5zM196 262q0 -94 30 -133t85 -39q57 0 85.5 38.5t28.5 133.5q0 48 -7.5 80t-22 51.5t-36 28t-49.5 8.5q-58 0 -86 -37t-28 -131zM175 608v112
h270v-112h-270z" />
            <glyph glyph-name="Obreve" unicode="&#x14e;" horiz-adv-x="784"
           d="M392 104q34 0 67 12.5t58.5 42.5t41 79t15.5 122t-16 122.5t-41.5 79.5t-58 42.5t-66.5 12.5q-35 0 -67.5 -13t-58 -43t-41 -79.5t-15.5 -122.5t16 -122t41.5 -78.5t58.5 -42t66 -12.5zM392 -15q-66 0 -129.5 19t-113 63t-79.5 115.5t-30 176.5q0 103 30 174.5
t79.5 116.5t113 65t129.5 20t129.5 -19.5t113 -63.5t79.5 -115.5t30 -176.5q0 -103 -30.5 -174.5t-80 -116t-112.5 -64.5t-129 -20zM361 925q1 -26 9 -37.5t22 -11.5t22 11.5t9 37.5h124q-4 -36 -17.5 -61.5t-34 -41t-47 -23t-56.5 -7.5q-68 0 -107.5 35t-47.5 98h124z" />
            <glyph glyph-name="obreve" unicode="&#x14f;" horiz-adv-x="620"
           d="M35 262q0 135 71.5 204t203.5 69q131 0 203 -69t72 -204q0 -136 -71.5 -206.5t-203.5 -70.5q-128 0 -201.5 70.5t-73.5 206.5zM196 262q0 -94 30 -133t85 -39q57 0 85.5 38.5t28.5 133.5q0 48 -7.5 80t-22 51.5t-36 28t-49.5 8.5q-58 0 -86 -37t-28 -131zM279 735
q1 -26 9 -37.5t22 -11.5t22 11.5t9 37.5h124q-4 -36 -17.5 -61.5t-34 -41t-47 -23t-56.5 -7.5q-68 0 -107.5 35t-47.5 98h124z" />
            <glyph glyph-name="Ohungarumlaut" unicode="&#x150;" horiz-adv-x="784"
           d="M392 104q34 0 67 12.5t58.5 42.5t41 79t15.5 122t-16 122.5t-41.5 79.5t-58 42.5t-66.5 12.5q-35 0 -67.5 -13t-58 -43t-41 -79.5t-15.5 -122.5t16 -122t41.5 -78.5t58.5 -42t66 -12.5zM392 -15q-66 0 -129.5 19t-113 63t-79.5 115.5t-30 176.5q0 103 30 174.5
t79.5 116.5t113 65t129.5 20t129.5 -19.5t113 -63.5t79.5 -115.5t30 -176.5q0 -103 -30.5 -174.5t-80 -116t-112.5 -64.5t-129 -20zM324 925h169l-149 -137h-121zM544 925h169l-149 -137h-121z" />
            <glyph glyph-name="ohungarumlaut" unicode="&#x151;" horiz-adv-x="620"
           d="M35 262q0 135 71.5 204t203.5 69q131 0 203 -69t72 -204q0 -136 -71.5 -206.5t-203.5 -70.5q-128 0 -201.5 70.5t-73.5 206.5zM196 262q0 -94 30 -133t85 -39q57 0 85.5 38.5t28.5 133.5q0 48 -7.5 80t-22 51.5t-36 28t-49.5 8.5q-58 0 -86 -37t-28 -131zM239 735h169
l-149 -137h-121zM459 735h169l-149 -137h-121z" />
            <glyph glyph-name="OE" unicode="&#x152;" horiz-adv-x="945"
           d="M881 305h-269v-184h298v-121h-427q-20 -7 -44 -11t-53 -4q-67 0 -129.5 19t-110.5 63t-77 115.5t-29 176.5q0 103 30.5 174.5t79.5 116.5t111 65t126 20q28 0 53.5 -4t48.5 -11h421v-123h-298v-176h269v-116zM389 104q14 0 27.5 1.5t27.5 6.5v497q-11 3 -24 5.5t-26 2.5
q-35 0 -68 -13t-59 -43t-41.5 -79.5t-15.5 -122.5t15.5 -122t41 -78.5t57.5 -42t65 -12.5z" />
            <glyph glyph-name="oe" unicode="&#x153;" horiz-adv-x="987"
           d="M951 151q-9 -36 -28 -66.5t-50.5 -52.5t-76 -34.5t-102.5 -12.5q-59 0 -106.5 19.5t-82.5 54.5q-35 -35 -83.5 -54.5t-111.5 -19.5q-128 0 -201.5 70.5t-73.5 206.5q0 135 71.5 204t203.5 69q63 0 111 -19t82 -52q34 33 81 52t105 19q62 0 112 -19t84.5 -58t53 -98
t18.5 -138h-379q8 -69 40.5 -98.5t83.5 -29.5q37 0 60 15.5t30 41.5h159zM196 262q0 -94 30 -133t85 -39q28 0 49 8.5t35.5 28.5t22 53t7.5 82q0 48 -7.5 80t-22 51.5t-36 28t-49.5 8.5q-58 0 -86 -37t-28 -131zM686 437q-45 0 -73 -28.5t-35 -95.5h219q-3 66 -32 95t-79 29
z" />
            <glyph glyph-name="Racute" unicode="&#x154;" horiz-adv-x="663"
           d="M459 0l-159 263h-92v-263h-168v720h265q152 0 228.5 -58t76.5 -170q0 -75 -35 -124t-108 -76l191 -292h-199zM208 604v-225h105q54 0 88.5 29t34.5 84q0 59 -32.5 85.5t-96.5 26.5h-99zM317 910h169l-149 -137h-121z" />
            <glyph glyph-name="racute" unicode="&#x155;" horiz-adv-x="397"
           d="M55 0v520h130l17 -79q43 94 136 94q17 0 32.5 -2t26.5 -5v-145q-14 5 -30.5 7.5t-36.5 2.5q-23 0 -44.5 -11.5t-38 -33.5t-26.5 -55.5t-10 -76.5v-216h-156zM255 720h169l-149 -137h-121z" />
            <glyph glyph-name="Rcommaaccent" unicode="&#x156;" horiz-adv-x="663"
           d="M459 0l-159 263h-92v-263h-168v720h265q152 0 228.5 -58t76.5 -170q0 -75 -35 -124t-108 -76l191 -292h-199zM208 604v-225h105q54 0 88.5 29t34.5 84q0 59 -32.5 85.5t-96.5 26.5h-99zM386 -165q0 -49 -15 -83.5t-39 -57.5t-55 -36t-62 -19v68q36 12 54 34.5t18 60.5
h-48v137h147v-104z" />
            <glyph glyph-name="rcommaaccent" unicode="&#x157;" horiz-adv-x="397"
           d="M55 0v520h130l17 -79q43 94 136 94q17 0 32.5 -2t26.5 -5v-145q-14 5 -30.5 7.5t-36.5 2.5q-23 0 -44.5 -11.5t-38 -33.5t-26.5 -55.5t-10 -76.5v-216h-156zM205 -165q0 -49 -15 -83.5t-39 -57.5t-55 -36t-62 -19v68q36 12 54 34.5t18 60.5h-48v137h147v-104z" />
            <glyph glyph-name="Rcaron" unicode="&#x158;" horiz-adv-x="663"
           d="M459 0l-159 263h-92v-263h-168v720h265q152 0 228.5 -58t76.5 -170q0 -75 -35 -124t-108 -76l191 -292h-199zM208 604v-225h105q54 0 88.5 29t34.5 84q0 59 -32.5 85.5t-96.5 26.5h-99zM286 866l46 59h159l-135 -137h-140l-135 137h160z" />
            <glyph glyph-name="rcaron" unicode="&#x159;" horiz-adv-x="397"
           d="M55 0v520h130l17 -79q43 94 136 94q17 0 32.5 -2t26.5 -5v-145q-14 5 -30.5 7.5t-36.5 2.5q-23 0 -44.5 -11.5t-38 -33.5t-26.5 -55.5t-10 -76.5v-216h-156zM221 676l46 59h159l-135 -137h-140l-135 137h160z" />
            <glyph glyph-name="Sacute" unicode="&#x15a;" horiz-adv-x="674"
           d="M344 -15q-139 0 -219 61.5t-95 165.5h159q8 -48 46.5 -79t110.5 -31q73 0 103.5 22.5t30.5 60.5q0 28 -13.5 46.5t-37.5 31.5t-57 22t-72 18q-45 10 -89 25t-78.5 40.5t-55.5 63.5t-21 95q0 96 72.5 152t216.5 56q127 0 199.5 -53t86.5 -147h-157q-6 41 -42.5 63
t-90.5 22q-64 0 -90 -20t-26 -53q0 -44 35.5 -63.5t110.5 -35.5q52 -11 102 -28.5t89 -45.5t63 -69.5t24 -100.5q0 -44 -17.5 -83.5t-54.5 -69.5t-95 -48t-138 -18zM365 910h169l-149 -137h-121z" />
            <glyph glyph-name="sacute" unicode="&#x15b;" horiz-adv-x="553"
           d="M273 91q47 0 67 13t20 36q0 13 -6 22t-20.5 15.5t-38 12.5t-59.5 15q-38 9 -72 21t-60 31t-41.5 47t-15.5 69q0 73 57.5 117.5t172.5 44.5q101 0 163 -42t76 -117h-157q-5 24 -26.5 38.5t-59.5 14.5t-54 -11.5t-16 -31.5q0 -11 4.5 -18.5t16.5 -14.5t33 -13.5t54 -14.5
q36 -9 72.5 -19.5t66.5 -28.5t49 -45.5t19 -70.5q0 -39 -15 -71t-45 -55.5t-76 -36.5t-108 -13q-107 0 -171.5 45t-77.5 117h157q5 -25 29.5 -40.5t61.5 -15.5zM293 720h169l-149 -137h-121z" />
            <glyph glyph-name="Scircumflex" unicode="&#x15c;" horiz-adv-x="674"
           d="M344 -15q-139 0 -219 61.5t-95 165.5h159q8 -48 46.5 -79t110.5 -31q73 0 103.5 22.5t30.5 60.5q0 28 -13.5 46.5t-37.5 31.5t-57 22t-72 18q-45 10 -89 25t-78.5 40.5t-55.5 63.5t-21 95q0 96 72.5 152t216.5 56q127 0 199.5 -53t86.5 -147h-157q-6 41 -42.5 63
t-90.5 22q-64 0 -90 -20t-26 -53q0 -44 35.5 -63.5t110.5 -35.5q52 -11 102 -28.5t89 -45.5t63 -69.5t24 -100.5q0 -44 -17.5 -83.5t-54.5 -69.5t-95 -48t-138 -18zM291 788h-160l135 137h140l135 -137h-159l-46 59z" />
            <glyph glyph-name="scircumflex" unicode="&#x15d;" horiz-adv-x="553"
           d="M273 91q47 0 67 13t20 36q0 13 -6 22t-20.5 15.5t-38 12.5t-59.5 15q-38 9 -72 21t-60 31t-41.5 47t-15.5 69q0 73 57.5 117.5t172.5 44.5q101 0 163 -42t76 -117h-157q-5 24 -26.5 38.5t-59.5 14.5t-54 -11.5t-16 -31.5q0 -11 4.5 -18.5t16.5 -14.5t33 -13.5t54 -14.5
q36 -9 72.5 -19.5t66.5 -28.5t49 -45.5t19 -70.5q0 -39 -15 -71t-45 -55.5t-76 -36.5t-108 -13q-107 0 -171.5 45t-77.5 117h157q5 -25 29.5 -40.5t61.5 -15.5zM231 598h-160l135 137h140l135 -137h-159l-46 59z" />
            <glyph glyph-name="Scedilla" unicode="&#x15e;" horiz-adv-x="674"
           d="M377 -142q0 43 -82 43l8 86q-121 9 -190 68.5t-83 156.5h159q8 -48 46.5 -79t110.5 -31q69 0 101.5 21.5t32.5 56.5q0 30 -13.5 49.5t-37.5 33t-57 22.5t-72 18q-45 10 -89 25t-78.5 40.5t-55.5 63.5t-21 95q0 96 72.5 152t216.5 56q127 0 199.5 -53t86.5 -147h-157
q-6 41 -42.5 63t-90.5 22q-64 0 -90 -20t-26 -53q0 -44 35.5 -63.5t110.5 -35.5q52 -11 102 -28.5t89 -45.5t63 -69.5t24 -100.5q0 -40 -15 -77t-46 -66.5t-79.5 -49t-115.5 -24.5v-27q41 -9 63.5 -34.5t22.5 -64.5q0 -24 -10 -46t-29 -38t-45.5 -25.5t-59.5 -9.5
q-70 0 -108.5 33.5t-45.5 87.5h100q2 -14 11.5 -27.5t39.5 -13.5q23 0 34 11t11 25z" />
            <glyph glyph-name="scedilla" unicode="&#x15f;" horiz-adv-x="553"
           d="M316 -142q0 43 -82 43l8 85q-94 7 -150 50.5t-67 110.5h157q5 -25 29.5 -40.5t61.5 -15.5q47 0 67 13t20 36q0 13 -6 22t-20.5 15.5t-38 12.5t-59.5 15q-38 9 -72 21t-60 31t-41.5 47t-15.5 69q0 73 57.5 117.5t172.5 44.5q101 0 163 -42t76 -117h-157q-5 24 -26.5 38.5
t-59.5 14.5t-54 -11.5t-16 -31.5q0 -11 4.5 -18.5t16.5 -14.5t33 -13.5t54 -14.5q36 -9 72.5 -19.5t66.5 -28.5t49 -45.5t19 -70.5q0 -68 -45.5 -114.5t-140.5 -57.5v-29q41 -9 63.5 -34.5t22.5 -64.5q0 -24 -10 -46t-29 -38t-45.5 -25.5t-59.5 -9.5q-70 0 -108.5 33.5
t-45.5 87.5h100q2 -14 11.5 -27.5t39.5 -13.5q23 0 34 11t11 25z" />
            <glyph glyph-name="Scaron" unicode="&#x160;" horiz-adv-x="674"
           d="M344 -15q-139 0 -219 61.5t-95 165.5h159q8 -48 46.5 -79t110.5 -31q73 0 103.5 22.5t30.5 60.5q0 28 -13.5 46.5t-37.5 31.5t-57 22t-72 18q-45 10 -89 25t-78.5 40.5t-55.5 63.5t-21 95q0 96 72.5 152t216.5 56q127 0 199.5 -53t86.5 -147h-157q-6 41 -42.5 63
t-90.5 22q-64 0 -90 -20t-26 -53q0 -44 35.5 -63.5t110.5 -35.5q52 -11 102 -28.5t89 -45.5t63 -69.5t24 -100.5q0 -44 -17.5 -83.5t-54.5 -69.5t-95 -48t-138 -18zM342 866l46 59h159l-135 -137h-140l-135 137h160z" />
            <glyph glyph-name="scaron" unicode="&#x161;" horiz-adv-x="553"
           d="M273 91q47 0 67 13t20 36q0 13 -6 22t-20.5 15.5t-38 12.5t-59.5 15q-38 9 -72 21t-60 31t-41.5 47t-15.5 69q0 73 57.5 117.5t172.5 44.5q101 0 163 -42t76 -117h-157q-5 24 -26.5 38.5t-59.5 14.5t-54 -11.5t-16 -31.5q0 -11 4.5 -18.5t16.5 -14.5t33 -13.5t54 -14.5
q36 -9 72.5 -19.5t66.5 -28.5t49 -45.5t19 -70.5q0 -39 -15 -71t-45 -55.5t-76 -36.5t-108 -13q-107 0 -171.5 45t-77.5 117h157q5 -25 29.5 -40.5t61.5 -15.5zM267 676l46 59h159l-135 -137h-140l-135 137h160z" />
            <glyph glyph-name="Tcommaaccent" unicode="&#x162;" horiz-adv-x="603"
           d="M598 594h-214v-594h-168v594h-211v126h593v-126zM373 -165q0 -49 -15 -83.5t-39 -57.5t-55 -36t-62 -19v68q36 12 54 34.5t18 60.5h-48v137h147v-104z" />
            <glyph glyph-name="tcommaaccent" unicode="&#x163;" horiz-adv-x="368"
           d="M353 -1q-21 -6 -46 -10t-49 -4q-79 0 -124 41t-45 119v267h-79v108h79l10 125h146v-125h107v-108h-107v-272q0 -22 14 -33t37 -11q9 0 25 2.5t32 6.5v-106zM261 -165q0 -49 -15 -83.5t-39 -57.5t-55 -36t-62 -19v68q36 12 54 34.5t18 60.5h-48v137h147v-104z" />
            <glyph glyph-name="Tcaron" unicode="&#x164;" horiz-adv-x="603"
           d="M598 594h-214v-594h-168v594h-211v126h593v-126zM301 866l46 59h159l-135 -137h-140l-135 137h160z" />
            <glyph glyph-name="tcaron" unicode="&#x165;" horiz-adv-x="428"
           d="M428 665q0 -49 -34 -83t-100 -39v55q16 3 27 11.5t11 22.5h-29v97h125v-64zM353 -1q-21 -6 -46 -10t-49 -4q-79 0 -124 41t-45 119v267h-79v108h79l10 125h146v-125h107v-108h-107v-272q0 -22 14 -33t37 -11q9 0 25 2.5t32 6.5v-106z" />
            <glyph glyph-name="Tbar" unicode="&#x166;" horiz-adv-x="603"
           d="M384 354v-354h-168v354h-112v111h112v129h-211v126h593v-126h-214v-129h112v-111h-112z" />
            <glyph glyph-name="tbar" unicode="&#x167;" horiz-adv-x="368"
           d="M353 -1q-21 -6 -46 -10t-49 -4q-79 0 -124 41t-45 119v130h-67v105h67v32h-79v108h79l10 125h146v-125h107v-108h-107v-32h87v-105h-87v-135q0 -22 14 -33t37 -11q9 0 25 2.5t32 6.5v-106z" />
            <glyph glyph-name="Utilde" unicode="&#x168;" horiz-adv-x="716"
           d="M223 720v-490q0 -61 35 -93.5t101 -32.5t103.5 32.5t37.5 93.5v490h161v-479q0 -121 -78.5 -188.5t-224.5 -67.5t-224.5 67.5t-78.5 188.5v479h168zM423 782q-22 0 -38.5 6t-31 13t-29 13t-31.5 6t-40 -10.5t-45 -27.5v110q22 16 45 24.5t44 8.5q22 0 38.5 -6t31 -13
t29 -13t31.5 -6t38 10.5t43 27.5v-110q-22 -16 -43 -24.5t-42 -8.5z" />
            <glyph glyph-name="utilde" unicode="&#x169;" horiz-adv-x="596"
           d="M206 520v-344q0 -39 21.5 -60t61.5 -21q41 0 68.5 29.5t27.5 83.5v312h156v-520h-129l-15 55q-27 -33 -66.5 -51.5t-90.5 -18.5q-90 0 -140 50.5t-50 146.5v338h156zM364 592q-22 0 -38.5 6t-31 13t-29 13t-31.5 6t-40 -10.5t-45 -27.5v110q22 16 45 24.5t44 8.5
q22 0 38.5 -6t31 -13t29 -13t31.5 -6t38 10.5t43 27.5v-110q-22 -16 -43 -24.5t-42 -8.5z" />
            <glyph glyph-name="Umacron" unicode="&#x16a;" horiz-adv-x="716"
           d="M223 720v-490q0 -61 35 -93.5t101 -32.5t103.5 32.5t37.5 93.5v490h161v-479q0 -121 -78.5 -188.5t-224.5 -67.5t-224.5 67.5t-78.5 188.5v479h168zM223 798v112h270v-112h-270z" />
            <glyph glyph-name="umacron" unicode="&#x16b;" horiz-adv-x="596"
           d="M206 520v-344q0 -39 21.5 -60t61.5 -21q41 0 68.5 29.5t27.5 83.5v312h156v-520h-129l-15 55q-27 -33 -66.5 -51.5t-90.5 -18.5q-90 0 -140 50.5t-50 146.5v338h156zM162 608v112h270v-112h-270z" />
            <glyph glyph-name="Ubreve" unicode="&#x16c;" horiz-adv-x="716"
           d="M223 720v-490q0 -61 35 -93.5t101 -32.5t103.5 32.5t37.5 93.5v490h161v-479q0 -121 -78.5 -188.5t-224.5 -67.5t-224.5 67.5t-78.5 188.5v479h168zM327 925q1 -26 9 -37.5t22 -11.5t22 11.5t9 37.5h124q-4 -36 -17.5 -61.5t-34 -41t-47 -23t-56.5 -7.5q-68 0 -107.5 35
t-47.5 98h124z" />
            <glyph glyph-name="ubreve" unicode="&#x16d;" horiz-adv-x="596"
           d="M206 520v-344q0 -39 21.5 -60t61.5 -21q41 0 68.5 29.5t27.5 83.5v312h156v-520h-129l-15 55q-27 -33 -66.5 -51.5t-90.5 -18.5q-90 0 -140 50.5t-50 146.5v338h156zM259 735q1 -26 9 -37.5t22 -11.5t22 11.5t9 37.5h124q-4 -36 -17.5 -61.5t-34 -41t-47 -23t-56.5 -7.5
q-68 0 -107.5 35t-47.5 98h124z" />
            <glyph glyph-name="Uring" unicode="&#x16e;" horiz-adv-x="716"
           d="M223 720v-490q0 -61 35 -93.5t101 -32.5t103.5 32.5t37.5 93.5v490h161v-479q0 -121 -78.5 -188.5t-224.5 -67.5t-224.5 67.5t-78.5 188.5v479h168zM317 860q0 -26 12 -38.5t29 -12.5t29 12.5t12 38.5t-11.5 38.5t-29.5 12.5t-29.5 -12.5t-11.5 -38.5zM497 860
q0 -25 -9 -47.5t-26.5 -39t-43.5 -26.5t-60 -10t-60 10t-43.5 26.5t-26.5 39t-9 47.5t9 47.5t27 39t44 26.5t59 10t59 -10t44 -26.5t27 -39t9 -47.5z" />
            <glyph glyph-name="uring" unicode="&#x16f;" horiz-adv-x="596"
           d="M206 520v-344q0 -39 21.5 -60t61.5 -21q41 0 68.5 29.5t27.5 83.5v312h156v-520h-129l-15 55q-27 -33 -66.5 -51.5t-90.5 -18.5q-90 0 -140 50.5t-50 146.5v338h156zM251 700q0 -26 12 -38.5t29 -12.5t29 12.5t12 38.5t-11.5 38.5t-29.5 12.5t-29.5 -12.5t-11.5 -38.5z
M431 700q0 -25 -9 -47.5t-26.5 -39t-43.5 -26.5t-60 -10t-60 10t-43.5 26.5t-26.5 39t-9 47.5t9 47.5t27 39t44 26.5t59 10t59 -10t44 -26.5t27 -39t9 -47.5z" />
            <glyph glyph-name="Uhungarumlaut" unicode="&#x170;" horiz-adv-x="716"
           d="M223 720v-490q0 -61 35 -93.5t101 -32.5t103.5 32.5t37.5 93.5v490h161v-479q0 -121 -78.5 -188.5t-224.5 -67.5t-224.5 67.5t-78.5 188.5v479h168zM275 925h169l-149 -137h-121zM495 925h169l-149 -137h-121z" />
            <glyph glyph-name="uhungarumlaut" unicode="&#x171;" horiz-adv-x="596"
           d="M206 520v-344q0 -39 21.5 -60t61.5 -21q41 0 68.5 29.5t27.5 83.5v312h156v-520h-129l-15 55q-27 -33 -66.5 -51.5t-90.5 -18.5q-90 0 -140 50.5t-50 146.5v338h156zM213 735h169l-149 -137h-121zM433 735h169l-149 -137h-121z" />
            <glyph glyph-name="Uogonek" unicode="&#x172;" horiz-adv-x="716"
           d="M584 -137q-15 -48 -53.5 -79t-107.5 -31q-60 0 -97 30t-37 84q0 36 20 65.5t55 52.5h-6q-146 0 -224.5 67.5t-78.5 188.5v479h168v-490q0 -61 35 -93.5t101 -32.5t103.5 32.5t37.5 93.5v490h161v-479q0 -163 -142 -227q-56 -25 -89 -56t-33 -69q0 -23 13.5 -35.5
t30.5 -12.5q28 0 36 22h107z" />
            <glyph glyph-name="uogonek" unicode="&#x173;" horiz-adv-x="596"
           d="M206 520v-344q0 -39 21.5 -60t61.5 -21q39 0 67.5 28t28.5 79v318h156v-520h-39q-18 -9 -35 -20.5t-30.5 -25t-21.5 -30t-8 -35.5q0 -23 13.5 -35.5t30.5 -12.5q28 0 36 22h107q-15 -48 -53.5 -79t-107.5 -31q-60 0 -97 30t-37 84q0 45 30.5 80t80.5 58l-13 50
q-27 -33 -66.5 -51.5t-90.5 -18.5q-90 0 -140 50.5t-50 146.5v338h156z" />
            <glyph glyph-name="Wcircumflex" unicode="&#x174;" horiz-adv-x="985"
           d="M985 720l-161 -720h-198l-134 556l-128 -556h-191l-173 720h174l109 -532l121 532h187l131 -535l104 535h159zM447 788h-160l135 137h140l135 -137h-159l-46 59z" />
            <glyph glyph-name="wcircumflex" unicode="&#x175;" horiz-adv-x="860"
           d="M850 520l-143 -520h-193l-82 380l-93 -380h-189l-140 520h161l81 -391l92 391h188l81 -393l89 393h148zM387 598h-160l135 137h140l135 -137h-159l-46 59z" />
            <glyph glyph-name="Ycircumflex" unicode="&#x176;" horiz-adv-x="668"
           d="M255 0v287l-255 433h180l158 -293l170 293h160l-255 -433v-287h-158zM289 788h-160l135 137h140l135 -137h-159l-46 59z" />
            <glyph glyph-name="ycircumflex" unicode="&#x177;" horiz-adv-x="571"
           d="M566 520l-186 -531q-18 -51 -37 -86t-42.5 -56.5t-51.5 -31.5t-64 -10q-40 0 -84 11v109q24 -6 39 -7.5t25 -1.5q27 0 44 19.5t27 64.5h-44l-187 520h166l115 -406l124 406h156zM240 598h-160l135 137h140l135 -137h-159l-46 59z" />
            <glyph glyph-name="Ydieresis" unicode="&#x178;" horiz-adv-x="668"
           d="M255 0v287l-255 433h180l158 -293l170 293h160l-255 -433v-287h-158zM149 782v128h148v-128h-148zM379 782v128h148v-128h-148z" />
            <glyph glyph-name="Zacute" unicode="&#x179;" horiz-adv-x="620"
           d="M215 119h374v-119h-564v121l379 480h-360v119h551v-118zM344 910h169l-149 -137h-121z" />
            <glyph glyph-name="zacute" unicode="&#x17a;" horiz-adv-x="507"
           d="M217 115h260v-115h-457v121l273 284h-255v115h449v-121zM299 720h169l-149 -137h-121z" />
            <glyph glyph-name="Zdotaccent" unicode="&#x17b;" horiz-adv-x="620"
           d="M215 119h374v-119h-564v121l379 480h-360v119h551v-118zM230 777v133h168v-133h-168z" />
            <glyph glyph-name="zdotaccent" unicode="&#x17c;" horiz-adv-x="507"
           d="M217 115h260v-115h-457v121l273 284h-255v115h449v-121zM176 587v133h168v-133h-168z" />
            <glyph glyph-name="Zcaron" unicode="&#x17d;" horiz-adv-x="620"
           d="M215 119h374v-119h-564v121l379 480h-360v119h551v-118zM316 866l46 59h159l-135 -137h-140l-135 137h160z" />
            <glyph glyph-name="zcaron" unicode="&#x17e;" horiz-adv-x="507"
           d="M217 115h260v-115h-457v121l273 284h-255v115h449v-121zM270 676l46 59h159l-135 -137h-140l-135 137h160z" />
            <glyph glyph-name="longs" unicode="&#x17f;" horiz-adv-x="380"
           d="M94 0v412h-79v108h79v38q0 87 45.5 132t131.5 45q38 0 67 -5.5t52 -11.5v-110q-24 6 -44 9.5t-34 3.5q-62 0 -62 -57v-564h-156z" />
            <glyph glyph-name="florin" unicode="&#x192;" horiz-adv-x="380"
           d="M390 588q-24 6 -44 9.5t-34 3.5q-62 0 -62 -57v-44h114v-108h-114v-572h-156v572h-79v108h79v38q0 87 45.5 132t131.5 45q38 0 67 -5.5t52 -11.5v-110z" />
            <glyph glyph-name="Aringacute" unicode="&#x1fa;" horiz-adv-x="727"
           d="M421 828h-108l89 132h160zM363 811q71 0 106 -34.5t35 -82.5q0 -24 -10 -45t-33 -36l268 -613h-179l-61 167h-259l-62 -167h-170l267 614q-23 15 -33 35.5t-10 44.5q0 48 35 82.5t106 34.5zM363 739q-20 0 -31 -11t-11 -34q0 -45 43 -45q41 0 41 45q0 23 -11 34t-31 11z
M271 283h178l-88 240z" />
            <glyph glyph-name="aringacute" unicode="&#x1fb;" horiz-adv-x="580"
           d="M45 370q19 78 82.5 121.5t168.5 43.5q109 0 171.5 -50.5t62.5 -140.5v-344h-122l-19 54q-26 -29 -68 -49t-104 -20q-40 0 -73.5 11t-57.5 32t-37.5 51.5t-13.5 70.5q0 30 10.5 55.5t35.5 46t65 36t99 25.5l129 21v23q0 38 -21.5 57.5t-61.5 19.5q-38 0 -59 -17.5
t-27 -46.5h-160zM262 92q53 0 82.5 29.5t29.5 70.5v57l-89 -18q-55 -11 -74.5 -29t-19.5 -45q0 -65 71 -65zM249 660.018q0 -23.4014 12 -34.6514t29 -11.25t29 11.25t12 34.6514q0 23.4004 -11.5 34.6504t-29.5 11.25t-29.5 -11.25t-11.5 -34.6504zM429 660.018
q0 -22.501 -9 -42.752q-9 -20.25 -26.5 -35.1006t-43.5 -23.8506t-60 -9t-60 9t-43.5 23.8506t-26.5 35.1006q-9 20.251 -9 42.752q0 22.5 9 42.751q9 20.25 27 35.1006t44 23.8506t59 9t59 -9t44 -23.8506t27 -35.1006q9 -20.251 9 -42.751zM327 908.018h169l-149 -123.304
h-121z" />
            <glyph glyph-name="AEacute" unicode="&#x1fc;" horiz-adv-x="961"
           d="M926 0h-456v165h-221l-79 -165h-170l353 720h573v-123h-288v-176h259v-116h-259v-184h288v-121zM470 275v346l-168 -346h168zM626 910h169l-149 -137h-121z" />
            <glyph glyph-name="aeacute" unicode="&#x1fd;" horiz-adv-x="941"
           d="M905 151q-9 -36 -28 -66.5t-50.5 -52.5t-76 -34.5t-102.5 -12.5q-72 0 -129 29t-93 80q-12 -21 -29.5 -41t-42 -35t-56 -24t-71.5 -9q-43 0 -78 10.5t-60.5 31t-39.5 51.5t-14 72q0 30 10.5 55.5t35.5 46t65 36t99 25.5l129 21v23q0 38 -21.5 57.5t-61.5 19.5
q-38 0 -59 -17.5t-27 -46.5h-160q19 78 82.5 121.5t168.5 43.5q54 0 97.5 -16.5t74.5 -43.5q34 29 77.5 44.5t97.5 15.5q62 0 112 -19t84.5 -58t53 -98t18.5 -138h-379q8 -69 40.5 -98.5t83.5 -29.5q37 0 60 15.5t30 41.5h159zM640 437q-45 0 -73 -28.5t-35 -95.5h219
q-3 66 -32 95t-79 29zM374 249l-89 -18q-55 -11 -74.5 -29t-19.5 -45q0 -33 19 -49t52 -16q27 0 48 8.5t35 23t21.5 33t7.5 39.5v53zM506 720h169l-149 -137h-121z" />
            <glyph glyph-name="Oslashacute" unicode="&#x1fe;" horiz-adv-x="784"
           d="M392 -15q-43 0 -81 7l-35 -102h-119l48 139q-36 19 -66.5 48.5t-52 70t-34 93t-12.5 118.5q0 103 30 174.5t79.5 116.5t113 65t129.5 20q20 0 40.5 -2t40.5 -6l35 93h119l-48 -129q36 -20 66 -49.5t52 -70t34.5 -93t12.5 -118.5q0 -103 -30.5 -174.5t-80 -116
t-112.5 -64.5t-129 -20zM210 359q0 -77 17 -127t45 -79l165 458q-23 6 -45 6q-35 0 -67.5 -13t-58 -43t-41 -79.5t-15.5 -122.5zM392 104q34 0 67 12.5t58.5 42.5t41 79t15.5 122q0 77 -17 127t-45 80l-165 -458q11 -3 22.5 -4t22.5 -1zM398 910h169l-149 -137h-121z" />
            <glyph glyph-name="oslashacute" unicode="&#x1ff;" horiz-adv-x="620"
           d="M35 262q0 135 71.5 204t203.5 69q18 0 35.5 -2t33.5 -5l47 102h119l-65 -139q51 -33 78 -90.5t27 -138.5q0 -136 -71.5 -206.5t-203.5 -70.5q-37 0 -68 6l-46 -101h-121l65 140q-51 34 -78 92t-27 140zM196 262q0 -77 21 -119l128 283q-8 2 -17 3t-18 1q-58 0 -86 -37
t-28 -131zM425 262q0 74 -20 114l-127 -282q13 -4 33 -4q57 0 85.5 38.5t28.5 133.5zM316 720h169l-149 -137h-121z" />
            <glyph glyph-name="Scommaaccent" unicode="&#x218;" horiz-adv-x="674"
           d="M344 -15q-139 0 -219 61.5t-95 165.5h159q8 -48 46.5 -79t110.5 -31q73 0 103.5 22.5t30.5 60.5q0 28 -13.5 46.5t-37.5 31.5t-57 22t-72 18q-45 10 -89 25t-78.5 40.5t-55.5 63.5t-21 95q0 96 72.5 152t216.5 56q127 0 199.5 -53t86.5 -147h-157q-6 41 -42.5 63
t-90.5 22q-64 0 -90 -20t-26 -53q0 -44 35.5 -63.5t110.5 -35.5q52 -11 102 -28.5t89 -45.5t63 -69.5t24 -100.5q0 -44 -17.5 -83.5t-54.5 -69.5t-95 -48t-138 -18zM424 -165q0 -49 -15 -83.5t-39 -57.5t-55 -36t-62 -19v68q36 12 54 34.5t18 60.5h-48v137h147v-104z" />
            <glyph glyph-name="scommaaccent" unicode="&#x219;" horiz-adv-x="553"
           d="M273 91q47 0 67 13t20 36q0 13 -6 22t-20.5 15.5t-38 12.5t-59.5 15q-38 9 -72 21t-60 31t-41.5 47t-15.5 69q0 73 57.5 117.5t172.5 44.5q101 0 163 -42t76 -117h-157q-5 24 -26.5 38.5t-59.5 14.5t-54 -11.5t-16 -31.5q0 -11 4.5 -18.5t16.5 -14.5t33 -13.5t54 -14.5
q36 -9 72.5 -19.5t66.5 -28.5t49 -45.5t19 -70.5q0 -39 -15 -71t-45 -55.5t-76 -36.5t-108 -13q-107 0 -171.5 45t-77.5 117h157q5 -25 29.5 -40.5t61.5 -15.5zM341 -165q0 -49 -15 -83.5t-39 -57.5t-55 -36t-62 -19v68q36 12 54 34.5t18 60.5h-48v137h147v-104z" />
            <glyph glyph-name="uni021A" unicode="&#x21a;" horiz-adv-x="603"
           d="M598 594h-214v-594h-168v594h-211v126h593v-126zM373 -165q0 -49 -15 -83.5t-39 -57.5t-55 -36t-62 -19v68q36 12 54 34.5t18 60.5h-48v137h147v-104z" />
            <glyph glyph-name="uni021B" unicode="&#x21b;" horiz-adv-x="368"
           d="M353 -1q-21 -6 -46 -10t-49 -4q-79 0 -124 41t-45 119v267h-79v108h79l10 125h146v-125h107v-108h-107v-272q0 -22 14 -33t37 -11q9 0 25 2.5t32 6.5v-106zM261 -165q0 -49 -15 -83.5t-39 -57.5t-55 -36t-62 -19v68q36 12 54 34.5t18 60.5h-48v137h147v-104z" />
            <glyph glyph-name="dotlessj" unicode="&#x237;" horiz-adv-x="277"
           d="M-54 -71q17 -5 34 -7t28 -2q27 0 39.5 12.5t12.5 41.5v546h156v-549q0 -75 -44 -120.5t-129 -45.5q-23 0 -50 4t-47 11v109z" />
            <glyph glyph-name="circumflex" unicode="&#x2c6;" horiz-adv-x="470"
           d="M190 598h-160l135 137h140l135 -137h-159l-46 59z" />
            <glyph glyph-name="caron" unicode="&#x2c7;" horiz-adv-x="470"
           d="M235 676l46 59h159l-135 -137h-140l-135 137h160z" />
            <glyph glyph-name="uni02C9" unicode="&#x2c9;" horiz-adv-x="330"
           d="M30 619v108h270v-108h-270z" />
            <glyph glyph-name="breve" unicode="&#x2d8;" horiz-adv-x="370"
           d="M154 735q1 -26 9 -37.5t22 -11.5t22 11.5t9 37.5h124q-4 -36 -17.5 -61.5t-34 -41t-47 -23t-56.5 -7.5q-68 0 -107.5 35t-47.5 98h124z" />
            <glyph glyph-name="dotaccent" unicode="&#x2d9;" horiz-adv-x="228"
           d="M30 587v133h168v-133h-168z" />
            <glyph glyph-name="ring" unicode="&#x2da;" horiz-adv-x="320"
           d="M119 700q0 -26 12 -38.5t29 -12.5t29 12.5t12 38.5t-11.5 38.5t-29.5 12.5t-29.5 -12.5t-11.5 -38.5zM299 700q0 -25 -9 -47.5t-26.5 -39t-43.5 -26.5t-60 -10t-60 10t-43.5 26.5t-26.5 39t-9 47.5t9 47.5t27 39t44 26.5t59 10t59 -10t44 -26.5t27 -39t9 -47.5z" />
            <glyph glyph-name="ogonek" unicode="&#x2db;" horiz-adv-x="355"
           d="M325 -137q-15 -48 -53.5 -79t-107.5 -31q-60 0 -97 30t-37 84q0 53 42 92t106 61h95q-21 -10 -44.5 -22.5t-43.5 -28.5t-33.5 -36t-13.5 -44q0 -23 13.5 -35.5t30.5 -12.5q28 0 36 22h107z" />
            <glyph glyph-name="tilde" unicode="&#x2dc;" horiz-adv-x="360"
           d="M245 592q-22 0 -38.5 6t-31 13t-29 13t-31.5 6t-40 -10.5t-45 -27.5v110q22 16 45 24.5t44 8.5q22 0 38.5 -6t31 -13t29 -13t31.5 -6t38 10.5t43 27.5v-110q-22 -16 -43 -24.5t-42 -8.5z" />
            <glyph glyph-name="hungarumlaut" unicode="&#x2dd;" horiz-adv-x="550"
           d="M131 735h169l-149 -137h-121zM351 735h169l-149 -137h-121z" />
            <glyph glyph-name="uni0312" unicode="&#x312;" horiz-adv-x="231"
           d="M30 673q0 49 15 83.5t39 57.5t54.5 36t62.5 19v-68q-36 -12 -54 -34.5t-18 -60.5h48v-137h-147v104z" />
            <glyph glyph-name="dotbelowcomb" unicode="&#x323;" horiz-adv-x="228"
           d="M30 -180v133h168v-133h-168z" />
            <glyph glyph-name="uni037E" unicode="&#x37e;" horiz-adv-x="289"
           d="M56 363v157h177v-157h-177zM233 30q0 -58 -18.5 -97t-47.5 -64t-64 -37t-67 -15v78q38 8 60.5 34t22.5 71h-63v157h177v-127z" />
            <glyph glyph-name="tonos" unicode="&#x384;" horiz-adv-x="251"
           d="M52 720h169l-70 -147h-121z" />
            <glyph glyph-name="dieresistonos" unicode="&#x385;" horiz-adv-x="508"
           d="M30 592v128h148v-128h-148zM330 592v128h148v-128h-148zM217 883h169l-70 -147h-121z" />
            <glyph glyph-name="Alphatonos" unicode="&#x386;" horiz-adv-x="701"
           d="M524 0l-51 165h-256l-51 -165h-166l256 720h187l258 -720h-177zM251 275h189l-94 307zM38 720h169l-70 -147h-121z" />
            <glyph glyph-name="anoteleia" unicode="&#x387;" horiz-adv-x="270"
           d="M56 248v142h158v-142h-158z" />
            <glyph glyph-name="Epsilontonos" unicode="&#x388;" horiz-adv-x="726"
           d="M662 305h-289v-184h318v-121h-486v720h486v-123h-318v-176h289v-116zM7 720h169l-70 -147h-121z" />
            <glyph glyph-name="Etatonos" unicode="&#x389;" horiz-adv-x="869"
           d="M809 720v-720h-167v304h-268v-304h-168v720h168v-296h268v296h167zM7 720h169l-70 -147h-121z" />
            <glyph glyph-name="Iotatonos" unicode="&#x38a;" horiz-adv-x="434"
           d="M374 720v-720h-168v720h168zM7 720h169l-70 -147h-121z" />
            <glyph glyph-name="Omicrontonos" unicode="&#x38c;" horiz-adv-x="867"
           d="M24 720h169l-70 -147h-121zM475 104q34 0 67 12.5t58.5 42.5t41 79t15.5 122t-16 122.5t-41.5 79.5t-58 42.5t-66.5 12.5q-35 0 -67.5 -13t-58 -43t-41 -79.5t-15.5 -122.5t16 -122t41.5 -78.5t58.5 -42t66 -12.5zM475 -15q-66 0 -129.5 19t-113 63t-79.5 115.5
t-30 176.5q0 103 30 174.5t79.5 116.5t113 65t129.5 20t129.5 -19.5t113 -63.5t79.5 -115.5t30 -176.5q0 -103 -30.5 -174.5t-80 -116t-112.5 -64.5t-129 -20z" />
            <glyph glyph-name="Upsilontonos" unicode="&#x38e;" horiz-adv-x="843"
           d="M430 0v287l-255 433h180l158 -293l170 293h160l-255 -433v-287h-158zM-13 720h169l-70 -147h-121z" />
            <glyph glyph-name="Omegatonos" unicode="&#x38f;" horiz-adv-x="866"
           d="M539 121q19 1 39.5 12.5t38 39t28.5 72.5t11 113q0 73 -16 122.5t-41.5 80t-58 43.5t-66.5 13q-35 0 -67.5 -13t-58 -43.5t-41 -80.5t-15.5 -123q0 -69 12 -114.5t30 -72.5t39.5 -38t39.5 -11v-121h-260v121h63q-40 45 -67 106t-27 140q0 99 30 169t79.5 114t113 64.5
t129.5 20.5t129.5 -19.5t113 -63t79.5 -113.5t30 -171q0 -78 -28 -140t-69 -107h67v-121h-261v121h4zM22 720h169l-70 -147h-121z" />
            <glyph glyph-name="iotadieresistonos" unicode="&#x390;" horiz-adv-x="266"
           d="M55 0v520h156v-520h-156zM-90 592v128h148v-128h-148zM210 592v128h148v-128h-148zM97 883h169l-70 -147h-121z" />
            <glyph glyph-name="Alpha" unicode="&#x391;" horiz-adv-x="701"
           d="M524 0l-51 165h-256l-51 -165h-166l256 720h187l258 -720h-177zM251 275h189l-94 307z" />
            <glyph glyph-name="Beta" unicode="&#x392;" horiz-adv-x="647"
           d="M300 720q153 0 221 -47t68 -144q0 -29 -11 -53t-29 -43t-41.5 -32t-49.5 -20q72 -14 115.5 -57.5t43.5 -115.5q0 -52 -16.5 -91t-52.5 -65t-93 -39t-137 -13h-258v720h240zM228 324v-214h97q66 0 93.5 24.5t27.5 78.5t-30 82.5t-86 28.5h-102zM228 610v-182h87
q50 0 78 24t28 72q0 43 -30 64.5t-79 21.5h-84z" />
            <glyph glyph-name="Gamma" unicode="&#x393;" horiz-adv-x="507"
           d="M502 594h-274v-594h-168v720h442v-126z" />
            <glyph glyph-name="uni0394" unicode="&#x394;" horiz-adv-x="701"
           d="M0 0l256 720h187l258 -720h-701zM200 110h290l-144 472z" />
            <glyph glyph-name="Epsilon" unicode="&#x395;" horiz-adv-x="581"
           d="M517 305h-289v-184h318v-121h-486v720h486v-123h-318v-176h289v-116z" />
            <glyph glyph-name="Zeta" unicode="&#x396;" horiz-adv-x="620"
           d="M215 119h374v-119h-564v121l379 480h-360v119h551v-118z" />
            <glyph glyph-name="Eta" unicode="&#x397;" horiz-adv-x="723"
           d="M663 720v-720h-167v304h-268v-304h-168v720h168v-296h268v296h167z" />
            <glyph glyph-name="Theta" unicode="&#x398;" horiz-adv-x="784"
           d="M392 104q34 0 67 12.5t58.5 42.5t41 79t15.5 122t-16 122.5t-41.5 79.5t-58 42.5t-66.5 12.5q-35 0 -67.5 -13t-58 -43t-41 -79.5t-15.5 -122.5t16 -122t41.5 -78.5t58.5 -42t66 -12.5zM392 -15q-66 0 -129.5 19t-113 63t-79.5 115.5t-30 176.5q0 103 30 174.5
t79.5 116.5t113 65t129.5 20t129.5 -19.5t113 -63.5t79.5 -115.5t30 -176.5q0 -103 -30.5 -174.5t-80 -116t-112.5 -64.5t-129 -20zM512 305h-241v116h241v-116z" />
            <glyph glyph-name="Iota" unicode="&#x399;" horiz-adv-x="288"
           d="M228 720v-720h-168v720h168z" />
            <glyph glyph-name="Kappa" unicode="&#x39a;" horiz-adv-x="716"
           d="M496 0l-268 314v-314h-168v720h168v-302l254 302h196l-301 -337l339 -383h-220z" />
            <glyph glyph-name="Lambda" unicode="&#x39b;" horiz-adv-x="691"
           d="M514 0l-173 582l-175 -582h-166l251 720h187l253 -720h-177z" />
            <glyph glyph-name="Mu" unicode="&#x39c;" horiz-adv-x="893"
           d="M375 0l-173 495v-495h-142v720h192l195 -562l189 562h197v-720h-152v496l-169 -496h-137z" />
            <glyph glyph-name="Nu" unicode="&#x39d;" horiz-adv-x="721"
           d="M661 720v-720h-173l-284 511v-511h-144v720h186l272 -492v492h143z" />
            <glyph glyph-name="Xi" unicode="&#x39e;" horiz-adv-x="580"
           d="M545 0h-510v126h510v-126zM545 595h-510v125h510v-125zM470 302h-360v122h360v-122z" />
            <glyph glyph-name="Omicron" unicode="&#x39f;" horiz-adv-x="784"
           d="M392 104q34 0 67 12.5t58.5 42.5t41 79t15.5 122t-16 122.5t-41.5 79.5t-58 42.5t-66.5 12.5q-35 0 -67.5 -13t-58 -43t-41 -79.5t-15.5 -122.5t16 -122t41.5 -78.5t58.5 -42t66 -12.5zM392 -15q-66 0 -129.5 19t-113 63t-79.5 115.5t-30 176.5q0 103 30 174.5
t79.5 116.5t113 65t129.5 20t129.5 -19.5t113 -63.5t79.5 -115.5t30 -176.5q0 -103 -30.5 -174.5t-80 -116t-112.5 -64.5t-129 -20z" />
            <glyph glyph-name="Pi" unicode="&#x3a0;" horiz-adv-x="723"
           d="M663 720v-720h-167v600h-268v-600h-168v720h603z" />
            <glyph glyph-name="Rho" unicode="&#x3a1;" horiz-adv-x="666"
           d="M320 720q164 0 237.5 -59.5t73.5 -180.5q0 -124 -76 -181.5t-229 -57.5h-98v-241h-168v720h260zM228 605v-249h100q63 0 96.5 31t33.5 93q0 67 -35 96t-101 29h-94z" />
            <glyph glyph-name="Sigma" unicode="&#x3a3;" horiz-adv-x="614"
           d="M411 325l-177 -206h340v-119h-544v118l218 241l-218 246v115h531v-119h-326l177 -205z" />
            <glyph glyph-name="Tau" unicode="&#x3a4;" horiz-adv-x="603"
           d="M598 594h-214v-594h-168v594h-211v126h593v-126z" />
            <glyph glyph-name="Upsilon" unicode="&#x3a5;" horiz-adv-x="668"
           d="M255 0v287l-255 433h180l158 -293l170 293h160l-255 -433v-287h-158z" />
            <glyph glyph-name="Phi" unicode="&#x3a6;" horiz-adv-x="938"
           d="M553 735v-40q65 -1 127 -19.5t110.5 -58t78 -102t29.5 -152.5t-29.5 -153.5t-78.5 -104t-111 -60t-126 -20.5v-40h-168v40q-65 1 -127 20.5t-110.5 60t-78 104t-29.5 153.5t29.5 152.5t78 102t110.5 58t127 19.5v40h168zM728 363q0 60 -15 100t-39.5 65t-56 36t-64.5 13
v-433q34 1 65.5 13t56 38t39 67t14.5 101zM210 363q0 -60 14.5 -101t39 -67t56 -38t65.5 -13v433q-34 -2 -65.5 -13t-56 -36t-39 -65t-14.5 -100z" />
            <glyph glyph-name="Chi" unicode="&#x3a7;" horiz-adv-x="701"
           d="M441 384l255 -384h-203l-155 244l-154 -244h-179l255 373l-239 347h199l142 -215l142 215h172z" />
            <glyph glyph-name="Psi" unicode="&#x3a8;" horiz-adv-x="785"
           d="M210 720v-321q0 -47 25.5 -77.5t80.5 -41.5v440h160v-439q106 26 106 118v321h153v-310q0 -106 -65.5 -170.5t-193.5 -80.5v-159h-160v158q-131 15 -198.5 80t-67.5 172v310h160z" />
            <glyph glyph-name="uni03A9" unicode="&#x3a9;" horiz-adv-x="784"
           d="M457 121q19 1 39.5 12.5t38 39t28.5 72.5t11 113q0 73 -16 122.5t-41.5 80t-58 43.5t-66.5 13q-35 0 -67.5 -13t-58 -43.5t-41 -80.5t-15.5 -123q0 -69 12 -114.5t30 -72.5t39.5 -38t39.5 -11v-121h-260v121h63q-40 45 -67 106t-27 140q0 99 30 169t79.5 114t113 64.5
t129.5 20.5t129.5 -19.5t113 -63t79.5 -113.5t30 -171q0 -78 -28 -140t-69 -107h67v-121h-261v121h4z" />
            <glyph glyph-name="Iotadieresis" unicode="&#x3aa;" horiz-adv-x="288"
           d="M228 720v-720h-168v720h168zM-44 782v128h148v-128h-148zM186 782v128h148v-128h-148z" />
            <glyph glyph-name="Upsilondieresis" unicode="&#x3ab;" horiz-adv-x="668"
           d="M255 0v287l-255 433h180l158 -293l170 293h160l-255 -433v-287h-158zM145 782v128h148v-128h-148zM375 782v128h148v-128h-148z" />
            <glyph glyph-name="alphatonos" unicode="&#x3ac;" horiz-adv-x="630"
           d="M453 0l-26 57q-28 -32 -68.5 -52t-90.5 -20q-51 0 -94 18.5t-73.5 53t-48 85t-17.5 113.5q0 66 17.5 118t48 88t72.5 55t92 19q54 0 93.5 -18.5t66.5 -53.5l27 57h123v-520h-122zM192 256q0 -83 32 -120t83 -37q26 0 47.5 8.5t37 27.5t24 49.5t8.5 74.5q0 49 -10.5 80.5
t-27 49.5t-37.5 25t-42 7q-51 0 -83 -41.5t-32 -123.5zM269 720h169l-70 -147h-121z" />
            <glyph glyph-name="epsilontonos" unicode="&#x3ad;" horiz-adv-x="556"
           d="M263 535q52 0 96.5 -12.5t78.5 -35t56.5 -54t30.5 -70.5h-164q-9 31 -34.5 48.5t-56.5 17.5q-32 0 -49 -13.5t-17 -35.5q0 -26 19 -43t61 -17h46v-103h-38q-53 0 -77 -18t-24 -45q0 -29 19 -46t54 -17q75 0 98 79h164q-9 -40 -29.5 -74t-53 -58.5t-77.5 -38.5t-103 -14
q-57 0 -101 12.5t-73 34t-44 51.5t-15 65q0 52 34.5 86.5t93.5 41.5q-54 10 -83 41.5t-29 79.5q0 28 13.5 53t41 44t68 30t94.5 11zM232 720h169l-70 -147h-121z" />
            <glyph glyph-name="etatonos" unicode="&#x3ae;" horiz-adv-x="601"
           d="M55 0v520h129l15 -57q25 32 64 52t95 20q91 0 142 -52t51 -147v-516h-156v510q0 52 -21.5 73.5t-58.5 21.5q-45 0 -74.5 -31.5t-29.5 -85.5v-308h-156zM257 720h169l-70 -147h-121z" />
            <glyph glyph-name="iotatonos" unicode="&#x3af;" horiz-adv-x="266"
           d="M55 0v520h156v-520h-156zM96 720h169l-70 -147h-121z" />
            <glyph glyph-name="upsilondieresistonos" unicode="&#x3b0;" horiz-adv-x="590"
           d="M295 -15q-53 0 -98 11.5t-77.5 36.5t-51 63t-18.5 91v333h156v-337q0 -42 21.5 -65t67.5 -23t67.5 23t21.5 65v337h156v-333q0 -53 -18.5 -91t-51 -63t-77.5 -36.5t-98 -11.5zM71 592v128h148v-128h-148zM371 592v128h148v-128h-148zM258 883h169l-70 -147h-121z" />
            <glyph glyph-name="alpha" unicode="&#x3b1;" horiz-adv-x="630"
           d="M453 0l-26 57q-28 -32 -68.5 -52t-90.5 -20q-51 0 -94 18.5t-73.5 53t-48 85t-17.5 113.5q0 66 17.5 118t48 88t72.5 55t92 19q54 0 93.5 -18.5t66.5 -53.5l27 57h123v-520h-122zM192 256q0 -83 32 -120t83 -37q26 0 47.5 8.5t37 27.5t24 49.5t8.5 74.5q0 49 -10.5 80.5
t-27 49.5t-37.5 25t-42 7q-51 0 -83 -41.5t-32 -123.5z" />
            <glyph glyph-name="beta" unicode="&#x3b2;" horiz-adv-x="593"
           d="M356 -15q-53 0 -88.5 18t-56.5 50v-233h-156v692q0 103 62 163t178 60q121 0 180 -48t59 -130q0 -60 -37 -104.5t-99 -54.5q31 -3 59 -19.5t49.5 -41t34 -56.5t12.5 -67q0 -110 -52 -169.5t-145 -59.5zM393 218q0 62 -23.5 89t-65.5 27h-24v113h22q31 0 52.5 24.5
t21.5 69.5q0 41 -22 62.5t-60 21.5q-83 0 -83 -103v-258q0 -90 26 -127.5t70 -37.5q38 0 62 27.5t24 91.5z" />
            <glyph glyph-name="gamma" unicode="&#x3b3;" horiz-adv-x="566"
           d="M205 -180v180l-200 520h169l114 -388l112 388h161l-200 -520v-180h-156z" />
            <glyph glyph-name="delta" unicode="&#x3b4;" horiz-adv-x="590"
           d="M147 720h368v-104h-150q38 -15 72.5 -43.5t60.5 -67.5t41.5 -87t15.5 -101q0 -165 -65 -248.5t-191 -83.5q-123 0 -193.5 66t-70.5 187q0 56 15 101t43.5 77t69.5 49.5t93 17.5q18 0 37 -4t36 -11t31 -17t22 -22q-9 42 -31.5 77t-54 61.5t-70 42.5t-79.5 21v89zM293 370
q-45 0 -72 -32.5t-27 -104.5q0 -70 28 -102.5t77 -32.5q42 0 69.5 36t27.5 117q0 57 -29 88t-74 31z" />
            <glyph glyph-name="epsilon" unicode="&#x3b5;" horiz-adv-x="556"
           d="M263 535q52 0 96.5 -12.5t78.5 -35t56.5 -54t30.5 -70.5h-164q-9 31 -34.5 48.5t-56.5 17.5q-32 0 -49 -13.5t-17 -35.5q0 -26 19 -43t61 -17h46v-103h-38q-53 0 -77 -18t-24 -45q0 -29 19 -46t54 -17q75 0 98 79h164q-9 -40 -29.5 -74t-53 -58.5t-77.5 -38.5t-103 -14
q-57 0 -101 12.5t-73 34t-44 51.5t-15 65q0 52 34.5 86.5t93.5 41.5q-54 10 -83 41.5t-29 79.5q0 28 13.5 53t41 44t68 30t94.5 11z" />
            <glyph glyph-name="zeta" unicode="&#x3b6;" horiz-adv-x="516"
           d="M476 632q-80 -38 -134 -78t-86 -83.5t-45.5 -90t-13.5 -96.5q0 -70 39.5 -121t117.5 -74q82 -23 116 -56.5t34 -87.5q0 -21 -9 -43t-24 -44t-34 -43t-40 -38l-94 76q15 16 28.5 33t13.5 37q0 23 -14.5 36t-46.5 21q-249 66 -249 289q0 102 55 184.5t175 158.5h-228v108
h439v-88z" />
            <glyph glyph-name="eta" unicode="&#x3b7;" horiz-adv-x="601"
           d="M55 0v520h129l15 -57q25 32 64 52t95 20q91 0 142 -52t51 -147v-516h-156v510q0 52 -21.5 73.5t-58.5 21.5q-45 0 -74.5 -31.5t-29.5 -85.5v-308h-156z" />
            <glyph glyph-name="theta" unicode="&#x3b8;" horiz-adv-x="602"
           d="M301 -15q-61 0 -110 22.5t-83.5 69t-53.5 116.5t-19 165q0 97 18.5 168.5t53 117.5t83.5 68.5t111 22.5q61 0 110.5 -22.5t84 -68.5t53 -117.5t18.5 -168.5q0 -95 -19 -165t-53.5 -116.5t-83.5 -69t-110 -22.5zM301 91q22 0 40.5 11t32 36.5t21.5 67t10 102.5h-208
q2 -61 10 -102.5t21.5 -67t31.5 -36.5t41 -11zM301 630q-23 0 -41 -11.5t-31 -37t-21 -66.5t-11 -100h208q-3 59 -11 100t-21.5 66.5t-31.5 37t-40 11.5z" />
            <glyph glyph-name="iota" unicode="&#x3b9;" horiz-adv-x="266"
           d="M55 0v520h156v-520h-156z" />
            <glyph glyph-name="kappa" unicode="&#x3ba;" horiz-adv-x="585"
           d="M55 0v520h156v-207l181 207h177l-212 -234l238 -286h-200l-184 225v-225h-156z" />
            <glyph glyph-name="lambda" unicode="&#x3bb;" horiz-adv-x="571"
           d="M405 0l-124 406l-115 -406h-161l184 520h47q-13 59 -28.5 81.5t-42.5 22.5q-10 0 -25 -1.5t-39 -7.5v109q44 11 84 11q36 0 62.5 -8.5t48.5 -31t42 -62t42 -102.5l186 -531h-161z" />
            <glyph glyph-name="uni03BC" unicode="&#x3bc;" horiz-adv-x="601"
           d="M211 520v-344q0 -39 21.5 -60t61.5 -21q39 0 67.5 28t28.5 79v318h156v-520h-129l-15 55q-27 -33 -66.5 -51.5t-90.5 -18.5q-16 0 -34 5v-169h-156v699h156z" />
            <glyph glyph-name="nu" unicode="&#x3bd;" horiz-adv-x="566"
           d="M561 520l-180 -520h-197l-179 520h169l114 -405l112 405h161z" />
            <glyph glyph-name="xi" unicode="&#x3be;" horiz-adv-x="542"
           d="M35 192q0 32 9.5 60.5t26.5 51t40.5 37t51.5 17.5q-54 11 -83 42.5t-29 79.5t30.5 81.5t99.5 50.5h-138v108h433v-88h-30q-115 0 -176 -36.5t-61 -105.5q0 -19 6 -34t20 -26t37 -17t57 -6h78v-113h-70q-42 0 -69 -7.5t-43 -19.5t-22.5 -27.5t-6.5 -31.5q0 -26 12.5 -44.5
t33.5 -32t48 -23t55 -16.5q47 -12 78.5 -26.5t50.5 -32t27 -39.5t8 -49q0 -21 -9 -43t-24 -44t-34 -43t-40 -38l-93 76q15 16 28 35t13 37q0 21 -18 34t-71 23q-105 19 -165.5 71.5t-60.5 138.5z" />
            <glyph glyph-name="omicron" unicode="&#x3bf;" horiz-adv-x="620"
           d="M35 262q0 135 71.5 204t203.5 69q131 0 203 -69t72 -204q0 -136 -71.5 -206.5t-203.5 -70.5q-128 0 -201.5 70.5t-73.5 206.5zM196 262q0 -94 30 -133t85 -39q57 0 85.5 38.5t28.5 133.5q0 48 -7.5 80t-22 51.5t-36 28t-49.5 8.5q-58 0 -86 -37t-28 -131z" />
            <glyph glyph-name="pi" unicode="&#x3c0;" horiz-adv-x="590"
           d="M535 412v-412h-156v412h-168v-412h-156v412h-50v108h580v-108h-50z" />
            <glyph glyph-name="rho" unicode="&#x3c1;" horiz-adv-x="630"
           d="M50 279q0 120 65 188t206 68q62 0 112.5 -18.5t86.5 -54t55.5 -85.5t19.5 -113q0 -65 -19 -117t-52 -88t-78 -55t-97 -19q-43 0 -79.5 16t-63.5 44v-225h-156v459zM201 266q0 -47 9 -79t24.5 -51.5t36.5 -28t46 -8.5q53 0 87 40t34 125q0 42 -9.5 71.5t-26 48.5t-39.5 28
t-51 9q-46 0 -78.5 -38t-32.5 -117z" />
            <glyph glyph-name="sigma1" unicode="&#x3c2;" horiz-adv-x="589"
           d="M35 256q0 66 18.5 118t53.5 87.5t84 54.5t111 19q52 0 95.5 -12.5t77 -36t55 -55.5t29.5 -71h-164q-9 32 -33.5 50.5t-54.5 18.5q-50 0 -80 -40.5t-30 -137.5q0 -35 6.5 -60.5t23.5 -44t46 -31.5t73 -23q51 -12 86 -25.5t57 -31t31.5 -40t9.5 -50.5q0 -21 -8.5 -43
t-23.5 -43.5t-34.5 -42.5t-40.5 -39l-93 76q15 16 28 33t13 37q0 23 -19 35t-65 20q-70 11 -118 32.5t-78 55t-43 80.5t-13 110z" />
            <glyph glyph-name="sigma" unicode="&#x3c3;" horiz-adv-x="620"
           d="M547 411q18 -30 28 -67.5t10 -81.5q0 -136 -71.5 -206.5t-203.5 -70.5q-128 0 -201.5 70.5t-73.5 206.5q0 135 71 204t200 69q58 0 106 -15h193v-112zM196 262q0 -94 30 -133t85 -39q57 0 85.5 38.5t28.5 131.5q0 66 -16 106t-42 56q-26 8 -57 8q-56 0 -85 -38t-29 -130z
" />
            <glyph glyph-name="tau" unicode="&#x3c4;" horiz-adv-x="489"
           d="M10 520h469v-107h-157v-413h-156v413h-156v107z" />
            <glyph glyph-name="upsilon" unicode="&#x3c5;" horiz-adv-x="590"
           d="M295 -15q-53 0 -98 11.5t-77.5 36.5t-51 63t-18.5 91v333h156v-337q0 -42 21.5 -65t67.5 -23t67.5 23t21.5 65v337h156v-333q0 -53 -18.5 -91t-51 -63t-77.5 -36.5t-98 -11.5z" />
            <glyph glyph-name="phi" unicode="&#x3c6;" horiz-adv-x="785"
           d="M302 -12q-76 5 -127.5 23.5t-82.5 51t-44 79.5t-13 110q0 75 17 144t43 124h156q-27 -58 -43.5 -128.5t-16.5 -136.5q0 -61 26 -96t85 -47v178q0 122 50 183.5t168 61.5q109 0 169.5 -61.5t60.5 -198.5q0 -74 -19 -126t-56 -86t-91.5 -51.5t-125.5 -23.5v-168h-156v168z
M458 110q74 11 104.5 50t30.5 116q0 41 -5 69t-14.5 45t-23 24t-29.5 7q-15 0 -27 -6t-20 -22t-12 -44t-4 -73v-166z" />
            <glyph glyph-name="chi" unicode="&#x3c7;" horiz-adv-x="574"
           d="M370 176l199 -356h-188l-102 241l-108 -241h-166l194 354l-184 346h182l91 -236l91 236h163z" />
            <glyph glyph-name="psi" unicode="&#x3c8;" horiz-adv-x="785"
           d="M202 520v-291q0 -98 118 -120v411h152v-410q118 23 118 119v291h145v-280q0 -106 -67 -171t-196 -80v-169h-152v168q-134 14 -202 79t-68 173v280h152z" />
            <glyph glyph-name="omega" unicode="&#x3c9;" horiz-adv-x="787"
           d="M682 520q29 -55 49.5 -136.5t20.5 -182.5q0 -51 -14.5 -91.5t-39.5 -68t-59.5 -42t-74.5 -14.5q-41 0 -71.5 11t-51.5 27.5t-33 36.5q-12 19 -16 38q-5 -19 -16 -38q-12 -20 -33 -36.5t-51 -27.5t-70 -11t-74.5 14.5t-59.5 42t-39 68t-14 91.5q0 101 20.5 182.5
t49.5 136.5h156q-29 -58 -49.5 -138t-20.5 -182q0 -42 16.5 -73.5t54.5 -31.5q30 0 46 28.5t16 69.5v187h139v-187q0 -41 16 -69.5t46 -28.5q38 0 54.5 31.5t16.5 73.5q0 102 -20.5 182t-49.5 138h156z" />
            <glyph glyph-name="iotadieresis" unicode="&#x3ca;" horiz-adv-x="266"
           d="M55 0v520h156v-520h-156zM-55 592v128h148v-128h-148zM175 592v128h148v-128h-148z" />
            <glyph glyph-name="upsilondieresis" unicode="&#x3cb;" horiz-adv-x="590"
           d="M295 -15q-53 0 -98 11.5t-77.5 36.5t-51 63t-18.5 91v333h156v-337q0 -42 21.5 -65t67.5 -23t67.5 23t21.5 65v337h156v-333q0 -53 -18.5 -91t-51 -63t-77.5 -36.5t-98 -11.5zM106 592v128h148v-128h-148zM336 592v128h148v-128h-148z" />
            <glyph glyph-name="omicrontonos" unicode="&#x3cc;" horiz-adv-x="620"
           d="M35 262q0 135 71.5 204t203.5 69q131 0 203 -69t72 -204q0 -136 -71.5 -206.5t-203.5 -70.5q-128 0 -201.5 70.5t-73.5 206.5zM196 262q0 -94 30 -133t85 -39q57 0 85.5 38.5t28.5 133.5q0 48 -7.5 80t-22 51.5t-36 28t-49.5 8.5q-58 0 -86 -37t-28 -131zM268 720h169
l-70 -147h-121z" />
            <glyph glyph-name="upsilontonos" unicode="&#x3cd;" horiz-adv-x="590"
           d="M295 -15q-53 0 -98 11.5t-77.5 36.5t-51 63t-18.5 91v333h156v-337q0 -42 21.5 -65t67.5 -23t67.5 23t21.5 65v337h156v-333q0 -53 -18.5 -91t-51 -63t-77.5 -36.5t-98 -11.5zM263 720h169l-70 -147h-121z" />
            <glyph glyph-name="omegatonos" unicode="&#x3ce;" horiz-adv-x="787"
           d="M682 520q29 -55 49.5 -136.5t20.5 -182.5q0 -51 -14.5 -91.5t-39.5 -68t-59.5 -42t-74.5 -14.5q-41 0 -71.5 11t-51.5 27.5t-33 36.5q-12 19 -16 38q-5 -19 -16 -38q-12 -20 -33 -36.5t-51 -27.5t-70 -11t-74.5 14.5t-59.5 42t-39 68t-14 91.5q0 101 20.5 182.5
t49.5 136.5h156q-29 -58 -49.5 -138t-20.5 -182q0 -42 16.5 -73.5t54.5 -31.5q30 0 46 28.5t16 69.5v187h139v-187q0 -41 16 -69.5t46 -28.5q38 0 54.5 31.5t16.5 73.5q0 102 -20.5 182t-49.5 138h156zM357 720h169l-70 -147h-121z" />
            <glyph glyph-name="uni0400" unicode="&#x400;" horiz-adv-x="581"
           d="M517 305h-289v-184h318v-121h-486v720h486v-123h-318v-176h289v-116zM385 773h-121l-149 137h169z" />
            <glyph glyph-name="afii10023" unicode="&#x401;" horiz-adv-x="581"
           d="M517 305h-289v-184h318v-121h-486v720h486v-123h-318v-176h289v-116zM111 782v128h148v-128h-148zM341 782v128h148v-128h-148z" />
            <glyph glyph-name="afii10051" unicode="&#x402;" horiz-adv-x="809"
           d="M196 0v594h-191v126h553v-126h-194v-166q35 36 80 56.5t99 20.5q112 0 169 -62.5t57 -193.5v-98q0 -75 -44 -120.5t-129 -45.5q-23 0 -50 4t-47 11v109q17 -5 34 -7t28 -2q20 0 30 12.5t10 41.5v106q0 61 -23 93.5t-79 32.5q-32 0 -57.5 -12.5t-42.5 -33.5t-26 -48
t-9 -56v-236h-168z" />
            <glyph glyph-name="afii10052" unicode="&#x403;" horiz-adv-x="507"
           d="M502 594h-274v-594h-168v720h442v-126zM280 910h169l-149 -137h-121z" />
            <glyph glyph-name="afii10053" unicode="&#x404;" horiz-adv-x="741"
           d="M378 103q71 0 111 38.5t46 123.5h171q-17 -139 -101 -209.5t-230 -70.5q-72 0 -133.5 23.5t-106 71t-70 118t-25.5 164.5q0 91 24 161t68.5 117t108 71t142.5 24q63 0 116.5 -16.5t95 -48t69 -78t37.5 -107.5h-168q-14 68 -53 100.5t-97 32.5q-67 0 -111 -46.5
t-55 -150.5h232v-116h-232q5 -55 19.5 -93.5t36 -62.5t48.5 -35t57 -11z" />
            <glyph glyph-name="afii10054" unicode="&#x405;" horiz-adv-x="674"
           d="M344 -15q-139 0 -219 61.5t-95 165.5h159q8 -48 46.5 -79t110.5 -31q73 0 103.5 22.5t30.5 60.5q0 28 -13.5 46.5t-37.5 31.5t-57 22t-72 18q-45 10 -89 25t-78.5 40.5t-55.5 63.5t-21 95q0 96 72.5 152t216.5 56q127 0 199.5 -53t86.5 -147h-157q-6 41 -42.5 63
t-90.5 22q-64 0 -90 -20t-26 -53q0 -44 35.5 -63.5t110.5 -35.5q52 -11 102 -28.5t89 -45.5t63 -69.5t24 -100.5q0 -44 -17.5 -83.5t-54.5 -69.5t-95 -48t-138 -18z" />
            <glyph glyph-name="afii10055" unicode="&#x406;" horiz-adv-x="288"
           d="M228 720v-720h-168v720h168z" />
            <glyph glyph-name="afii10056" unicode="&#x407;" horiz-adv-x="288"
           d="M228 720v-720h-168v720h168zM-44 782v128h148v-128h-148zM186 782v128h148v-128h-148z" />
            <glyph glyph-name="afii10057" unicode="&#x408;" horiz-adv-x="565"
           d="M180 213q1 -31 9.5 -52t21 -33.5t27 -18t29.5 -5.5q16 0 31 5t26 18t18 35t7 55v503h161v-492q0 -112 -59 -177.5t-180 -65.5q-45 0 -87.5 12t-77 39t-57.5 70.5t-29 106.5h160z" />
            <glyph glyph-name="afii10058" unicode="&#x409;" horiz-adv-x="1075"
           d="M469 613h-205l-37 -419q-5 -50 -17 -86.5t-37 -60.5t-65.5 -35.5t-102.5 -11.5v110q17 0 29.5 2.5t21 11t13.5 23.5t7 39l46 534h515v-241h92q164 0 237.5 -59.5t73.5 -180.5q0 -124 -76 -181.5t-229 -57.5h-266v613zM637 364v-249h100q63 0 96.5 31t33.5 93q0 67 -35 96
t-101 29h-94z" />
            <glyph glyph-name="afii10059" unicode="&#x40a;" horiz-adv-x="1082"
           d="M644 720v-261h92q164 0 237.5 -53.5t73.5 -167.5q0 -117 -75.5 -177.5t-229.5 -60.5h-266v344h-248v-344h-168v720h168v-261h248v261h168zM644 344v-229h100q63 0 96.5 34.5t33.5 88.5q0 60 -35 83t-101 23h-94z" />
            <glyph glyph-name="afii10060" unicode="&#x40b;" horiz-adv-x="809"
           d="M196 0v594h-191v126h553v-126h-194v-166q35 36 80 56.5t99 20.5q112 0 169 -62.5t57 -193.5v-249h-168v260q0 61 -23 93.5t-79 32.5q-32 0 -57.5 -12.5t-42.5 -33.5t-26 -48t-9 -56v-236h-168z" />
            <glyph glyph-name="afii10061" unicode="&#x40c;" horiz-adv-x="716"
           d="M508 0l-215 305h-65v-305h-168v720h168v-299h60l206 299h184l-242 -337l280 -383h-208zM364 910h169l-149 -137h-121z" />
            <glyph glyph-name="uni040D" unicode="&#x40d;" horiz-adv-x="723"
           d="M663 720v-720h-167v443l-268 -379v-64h-168v720h168v-443l268 380v63h167zM436 773h-121l-149 137h169z" />
            <glyph glyph-name="afii10062" unicode="&#x40e;" horiz-adv-x="618"
           d="M413 178q-18 -47 -36.5 -83t-41 -60.5t-51.5 -37t-69 -12.5q-20 0 -40 3t-41 8v119q24 -6 37.5 -7.5t23.5 -1.5q23 0 39.5 16.5t26.5 55.5h-57l-204 542h167l145 -426l144 426h162zM309 764q-33 0 -61.5 6.5t-50.5 20.5t-36 35.5t-17 53.5h124q2 -18 14.5 -25t26.5 -7
t26.5 7t14.5 25h124q-5 -32 -20 -54t-37.5 -35.5t-50 -20t-57.5 -6.5z" />
            <glyph glyph-name="afii10145" unicode="&#x40f;" horiz-adv-x="722"
           d="M440 0v-140h-161v140h-219v720h168v-598h267v598h167v-720h-222z" />
            <glyph glyph-name="afii10017" unicode="&#x410;" horiz-adv-x="701"
           d="M524 0l-51 165h-256l-51 -165h-166l256 720h187l258 -720h-177zM251 275h189l-94 307z" />
            <glyph glyph-name="afii10018" unicode="&#x411;" horiz-adv-x="666"
           d="M512 599h-284v-120h92q164 0 237.5 -59.5t73.5 -180.5q0 -124 -76 -181.5t-229 -57.5h-266v720h452v-121zM228 364v-249h100q63 0 96.5 31t33.5 93q0 67 -35 96t-101 29h-94z" />
            <glyph glyph-name="afii10019" unicode="&#x412;" horiz-adv-x="647"
           d="M300 720q153 0 221 -47t68 -144q0 -29 -11 -53t-29 -43t-41.5 -32t-49.5 -20q72 -14 115.5 -57.5t43.5 -115.5q0 -52 -16.5 -91t-52.5 -65t-93 -39t-137 -13h-258v720h240zM228 324v-214h97q66 0 93.5 24.5t27.5 78.5t-30 82.5t-86 28.5h-102zM228 610v-182h87
q50 0 78 24t28 72q0 43 -30 64.5t-79 21.5h-84z" />
            <glyph glyph-name="afii10020" unicode="&#x413;" horiz-adv-x="507"
           d="M502 594h-274v-594h-168v720h442v-126z" />
            <glyph glyph-name="afii10021" unicode="&#x414;" horiz-adv-x="669"
           d="M605 720v-605h74v-255h-149v140h-396v-140h-149v255h56q23 15 34.5 45t13.5 81l20 479h496zM239 247q-2 -49 -18.5 -80.5t-39.5 -51.5h270v490h-196z" />
            <glyph glyph-name="afii10022" unicode="&#x415;" horiz-adv-x="581"
           d="M517 305h-289v-184h318v-121h-486v720h486v-123h-318v-176h289v-116z" />
            <glyph glyph-name="afii10024" unicode="&#x416;" horiz-adv-x="986"
           d="M221 720l150 -299h38v299h168v-299h38l150 299h183l-190 -337l228 -383h-204l-158 305h-47v-305h-168v305h-48l-161 -305h-200l227 383l-189 337h183z" />
            <glyph glyph-name="afii10025" unicode="&#x417;" horiz-adv-x="619"
           d="M305 101q53 0 83 29t30 80q0 60 -32.5 87.5t-89.5 27.5h-75v107h83q41 0 70.5 27t29.5 73q0 38 -27.5 63t-73.5 25q-94 0 -109 -69h-162q13 83 85 133.5t195 50.5q52 0 99 -12t83 -36t57 -59t21 -81q0 -58 -38 -103t-107 -58q36 -5 65.5 -21t51 -40t33.5 -54.5t12 -63.5
q0 -49 -20.5 -90t-57.5 -70t-89 -45.5t-115 -16.5q-62 0 -112 15.5t-86.5 42t-58 62.5t-25.5 77h165q5 -36 32 -58.5t83 -22.5z" />
            <glyph glyph-name="afii10026" unicode="&#x418;" horiz-adv-x="723"
           d="M663 720v-720h-167v443l-268 -379v-64h-168v720h168v-443l268 380v63h167z" />
            <glyph glyph-name="afii10027" unicode="&#x419;" horiz-adv-x="723"
           d="M663 720v-720h-167v443l-268 -379v-64h-168v720h168v-443l268 380v63h167zM358 764q-33 0 -61.5 6.5t-50.5 20.5t-36 35.5t-17 53.5h124q2 -18 14.5 -25t26.5 -7t26.5 7t14.5 25h124q-5 -32 -20 -54t-37.5 -35.5t-50 -20t-57.5 -6.5z" />
            <glyph glyph-name="afii10028" unicode="&#x41a;" horiz-adv-x="716"
           d="M508 0l-215 305h-65v-305h-168v720h168v-299h60l206 299h184l-242 -337l280 -383h-208z" />
            <glyph glyph-name="afii10029" unicode="&#x41b;" horiz-adv-x="683"
           d="M623 720v-720h-154v605h-207l-36 -411q-5 -50 -16.5 -86.5t-36.5 -60.5t-65.5 -35.5t-102.5 -11.5v110q17 0 29.5 2.5t21 11t13.5 23.5t7 39l46 534h501z" />
            <glyph glyph-name="afii10030" unicode="&#x41c;" horiz-adv-x="893"
           d="M375 0l-173 495v-495h-142v720h192l195 -562l189 562h197v-720h-152v496l-169 -496h-137z" />
            <glyph glyph-name="afii10031" unicode="&#x41d;" horiz-adv-x="723"
           d="M663 720v-720h-167v304h-268v-304h-168v720h168v-296h268v296h167z" />
            <glyph glyph-name="afii10032" unicode="&#x41e;" horiz-adv-x="784"
           d="M392 104q34 0 67 12.5t58.5 42.5t41 79t15.5 122t-16 122.5t-41.5 79.5t-58 42.5t-66.5 12.5q-35 0 -67.5 -13t-58 -43t-41 -79.5t-15.5 -122.5t16 -122t41.5 -78.5t58.5 -42t66 -12.5zM392 -15q-66 0 -129.5 19t-113 63t-79.5 115.5t-30 176.5q0 103 30 174.5
t79.5 116.5t113 65t129.5 20t129.5 -19.5t113 -63.5t79.5 -115.5t30 -176.5q0 -103 -30.5 -174.5t-80 -116t-112.5 -64.5t-129 -20z" />
            <glyph glyph-name="afii10033" unicode="&#x41f;" horiz-adv-x="723"
           d="M663 720v-720h-167v600h-268v-600h-168v720h603z" />
            <glyph glyph-name="afii10034" unicode="&#x420;" horiz-adv-x="666"
           d="M320 720q164 0 237.5 -59.5t73.5 -180.5q0 -124 -76 -181.5t-229 -57.5h-98v-241h-168v720h260zM228 605v-249h100q63 0 96.5 31t33.5 93q0 67 -35 96t-101 29h-94z" />
            <glyph glyph-name="afii10035" unicode="&#x421;" horiz-adv-x="741"
           d="M378 103q71 0 111 38.5t46 123.5h171q-17 -139 -101 -209.5t-230 -70.5q-72 0 -133.5 23.5t-106 71t-70 118t-25.5 164.5q0 91 24 161t68.5 117t108 71t142.5 24q63 0 116.5 -16.5t95 -48t69 -78t37.5 -107.5h-168q-14 68 -53 100.5t-97 32.5q-38 0 -68.5 -14.5
t-53 -45.5t-34.5 -79.5t-12 -116.5q0 -71 13 -120.5t35 -80.5t52 -44.5t63 -13.5z" />
            <glyph glyph-name="afii10036" unicode="&#x422;" horiz-adv-x="603"
           d="M598 594h-214v-594h-168v594h-211v126h593v-126z" />
            <glyph glyph-name="afii10037" unicode="&#x423;" horiz-adv-x="618"
           d="M413 178q-18 -47 -36.5 -83t-41 -60.5t-51.5 -37t-69 -12.5q-20 0 -40 3t-41 8v119q24 -6 37.5 -7.5t23.5 -1.5q23 0 39.5 16.5t26.5 55.5h-57l-204 542h167l145 -426l144 426h162z" />
            <glyph glyph-name="afii10038" unicode="&#x424;" horiz-adv-x="938"
           d="M553 735v-40q65 -1 127 -19.5t110.5 -58t78 -102t29.5 -152.5t-29.5 -153.5t-78.5 -104t-111 -60t-126 -20.5v-40h-168v40q-65 1 -127 20.5t-110.5 60t-78 104t-29.5 153.5t29.5 152.5t78 102t110.5 58t127 19.5v40h168zM728 363q0 60 -15 100t-39.5 65t-56 36t-64.5 13
v-433q34 1 65.5 13t56 38t39 67t14.5 101zM210 363q0 -60 14.5 -101t39 -67t56 -38t65.5 -13v433q-34 -2 -65.5 -13t-56 -36t-39 -65t-14.5 -100z" />
            <glyph glyph-name="afii10039" unicode="&#x425;" horiz-adv-x="701"
           d="M441 384l255 -384h-203l-155 244l-154 -244h-179l255 373l-239 347h199l142 -215l142 215h172z" />
            <glyph glyph-name="afii10040" unicode="&#x426;" horiz-adv-x="733"
           d="M228 122h268v598h167v-598h80v-262h-161v140h-522v720h168v-598z" />
            <glyph glyph-name="afii10041" unicode="&#x427;" horiz-adv-x="668"
           d="M608 720v-720h-168v292q-32 -35 -74.5 -56t-93.5 -21q-119 0 -178 62.5t-59 193.5v249h168v-260q0 -61 23 -93.5t79 -32.5q32 0 57 12.5t42.5 33t26.5 47.5t9 57v236h168z" />
            <glyph glyph-name="afii10042" unicode="&#x428;" horiz-adv-x="968"
           d="M60 0v720h168v-598h173v598h167v-598h173v598h167v-720h-848z" />
            <glyph glyph-name="afii10043" unicode="&#x429;" horiz-adv-x="978"
           d="M60 0v720h168v-598h173v598h167v-598h173v598h167v-598h80v-262h-161v140h-767z" />
            <glyph glyph-name="afii10044" unicode="&#x42a;" horiz-adv-x="825"
           d="M10 720h377v-241h92q164 0 237.5 -59.5t73.5 -180.5q0 -124 -76 -181.5t-229 -57.5h-266v594h-209v126zM387 364v-249h100q63 0 96.5 31t33.5 93q0 67 -35 96t-101 29h-94z" />
            <glyph glyph-name="afii10045" unicode="&#x42b;" horiz-adv-x="913"
           d="M60 720h168v-241h92q164 0 237.5 -59.5t73.5 -180.5q0 -124 -76 -181.5t-229 -57.5h-266v720zM228 364v-249h100q63 0 96.5 31t33.5 93q0 67 -35 96t-101 29h-94zM853 720v-720h-168v720h168z" />
            <glyph glyph-name="afii10046" unicode="&#x42c;" horiz-adv-x="666"
           d="M60 720h168v-241h92q164 0 237.5 -59.5t73.5 -180.5q0 -124 -76 -181.5t-229 -57.5h-266v720zM228 364v-249h100q63 0 96.5 31t33.5 93q0 67 -35 96t-101 29h-94z" />
            <glyph glyph-name="afii10047" unicode="&#x42d;" horiz-adv-x="741"
           d="M292 421h231q-11 104 -56 150.5t-111 46.5q-58 0 -96 -32.5t-52 -100.5h-168q10 61 37 107.5t68 78t94.5 48t116.5 16.5q81 0 145 -24t108.5 -71t68 -117t23.5 -161q0 -93 -25 -163.5t-69 -118t-105 -71.5t-134 -24q-146 0 -231 70.5t-102 209.5h171q6 -85 48 -123.5
t113 -38.5q30 0 56 11t46.5 35t34.5 62.5t19 93.5h-231v116z" />
            <glyph glyph-name="afii10048" unicode="&#x42e;" horiz-adv-x="1060"
           d="M678 -15q-58 0 -115.5 17t-104.5 55t-79.5 99t-40.5 148h-110v-304h-168v720h168v-296h112q10 83 42.5 142t79 96.5t103 55t113.5 17.5q63 0 124 -20t109.5 -64.5t78.5 -116t30 -174.5q0 -101 -30 -172t-78.5 -116t-110 -66t-123.5 -21zM678 104q31 0 61.5 12.5t55 42.5
t40 79t15.5 122t-15.5 122.5t-40.5 79.5t-55.5 42.5t-60.5 12.5q-31 0 -62 -13t-55.5 -43t-39.5 -79.5t-15 -122.5t16 -122t40.5 -78.5t55 -42t60.5 -12.5z" />
            <glyph glyph-name="afii10049" unicode="&#x42f;" horiz-adv-x="664"
           d="M5 0l179 294q-58 23 -94 69.5t-36 126.5q0 51 19 93.5t54.5 72.5t86.5 47t115 17h295v-720h-168v263h-121l-154 -263h-176zM228 485q0 -49 29 -77.5t82 -28.5h117v225h-105q-60 0 -91.5 -29.5t-31.5 -89.5z" />
            <glyph glyph-name="afii10065" unicode="&#x430;" horiz-adv-x="580"
           d="M45 370q19 78 82.5 121.5t168.5 43.5q109 0 171.5 -50.5t62.5 -140.5v-344h-122l-19 54q-26 -29 -68 -49t-104 -20q-40 0 -73.5 11t-57.5 32t-37.5 51.5t-13.5 70.5q0 30 10.5 55.5t35.5 46t65 36t99 25.5l129 21v23q0 38 -21.5 57.5t-61.5 19.5q-38 0 -59 -17.5
t-27 -46.5h-160zM262 92q53 0 82.5 29.5t29.5 70.5v57l-89 -18q-55 -11 -74.5 -29t-19.5 -45q0 -65 71 -65z" />
            <glyph glyph-name="afii10066" unicode="&#x431;" horiz-adv-x="609"
           d="M35 294q0 87 15.5 150.5t44 107t68 68t87.5 34.5q64 13 98 28.5t34 37.5h168q0 -56 -55 -86.5t-159 -55.5q-34 -8 -59 -20.5t-42.5 -30t-28.5 -41.5t-17 -56q25 29 64.5 46.5t82.5 17.5q49 0 92.5 -17t76 -49.5t51 -79.5t18.5 -106q0 -121 -71 -189t-201 -68
q-62 0 -111.5 18t-84 56t-53 96t-18.5 139zM195 242q0 -80 29.5 -116t80.5 -36q52 0 80.5 35t28.5 117q0 78 -30 112t-78 34q-51 0 -81 -34.5t-30 -111.5z" />
            <glyph glyph-name="afii10067" unicode="&#x432;" horiz-adv-x="575"
           d="M55 0v520h240q64 0 108.5 -8.5t72 -25t40 -42t12.5 -58.5q0 -42 -30 -72.5t-85 -40.5q30 -4 54.5 -15.5t41.5 -28.5t26.5 -37.5t9.5 -41.5q0 -71 -60 -110.5t-187 -39.5h-243zM210 217v-109h87q47 0 68.5 16t21.5 40q0 26 -18 39.5t-46 13.5h-113zM210 412v-92h102
q28 0 43 14t15 36q0 20 -15.5 31t-52.5 11h-92z" />
            <glyph glyph-name="afii10068" unicode="&#x433;" horiz-adv-x="422"
           d="M412 520v-107h-201v-413h-156v520h357z" />
            <glyph glyph-name="afii10069" unicode="&#x434;" horiz-adv-x="622"
           d="M51 108q7 6 12.5 13.5t10 18.5t7.5 27t4 40l15 313h458v-412h69v-248h-149v140h-334v-140h-149v248h56zM239 214q-2 -37 -15.5 -62.5t-36.5 -43.5h216v304h-155z" />
            <glyph glyph-name="afii10070" unicode="&#x435;" horiz-adv-x="602"
           d="M566 151q-9 -36 -28 -66.5t-50.5 -52.5t-76 -34.5t-102.5 -12.5q-61 0 -111.5 18.5t-86.5 54t-56 86.5t-20 116q0 66 19 117.5t54.5 86.5t85 53t110.5 18q62 0 112 -19t84.5 -58t53 -98t18.5 -138h-379q8 -69 40.5 -98.5t83.5 -29.5q37 0 60 15.5t30 41.5h159zM301 437
q-45 0 -73 -28.5t-35 -95.5h219q-3 66 -32 95t-79 29z" />
            <glyph glyph-name="afii10072" unicode="&#x436;" horiz-adv-x="816"
           d="M185 520l111 -196h34v196h156v-196h34l111 196h162l-139 -230l162 -290h-178l-110 217h-42v-217h-156v217h-43l-111 -217h-176l161 290l-138 230h162z" />
            <glyph glyph-name="afii10073" unicode="&#x437;" horiz-adv-x="556"
           d="M288 535q54 0 95.5 -11t69.5 -30t42.5 -44t14.5 -53q0 -47 -28.5 -79t-83.5 -42q60 -7 94 -42t34 -86q0 -34 -15 -64t-45 -52t-74.5 -34.5t-103.5 -12.5q-55 0 -98.5 14t-76 38.5t-53.5 58.5t-30 74h164q13 -43 36.5 -61t58.5 -18q36 0 56 18t20 46q0 27 -24 44.5
t-77 17.5h-28v103h36q40 0 60 16.5t20 41.5q0 22 -18 36.5t-50 14.5t-56 -17.5t-33 -48.5h-164q7 37 28 68.5t54 54.5t77 36t98 13z" />
            <glyph glyph-name="afii10074" unicode="&#x438;"
           d="M55 0v520h156v-288l179 254v34h155v-520h-155v287l-179 -256v-31h-156z" />
            <glyph glyph-name="afii10075" unicode="&#x439;"
           d="M55 0v520h156v-288l179 254v34h155v-520h-155v287l-179 -256v-31h-156zM298 574q-33 0 -61.5 6.5t-50.5 20.5t-36 35.5t-17 53.5h124q2 -18 14.5 -25t26.5 -7t26.5 7t14.5 25h124q-5 -32 -20 -54t-37.5 -35.5t-50 -20t-57.5 -6.5z" />
            <glyph glyph-name="afii10076" unicode="&#x43a;" horiz-adv-x="585"
           d="M55 0v520h156v-196h33l159 196h166l-193 -238l219 -282h-189l-164 217h-31v-217h-156z" />
            <glyph glyph-name="afii10077" unicode="&#x43b;" horiz-adv-x="615"
           d="M560 520v-520h-155v413h-155l-18 -219q-8 -102 -60 -148t-162 -46v112q35 0 51.5 15.5t20.5 60.5l29 332h449z" />
            <glyph glyph-name="afii10078" unicode="&#x43c;" horiz-adv-x="714"
           d="M295 30l-98 300v-330h-142v520h197l106 -325l99 325h202v-520h-152v331l-94 -301h-118z" />
            <glyph glyph-name="afii10079" unicode="&#x43d;" horiz-adv-x="601"
           d="M211 520v-187h179v187h156v-520h-156v226h-179v-226h-156v520h156z" />
            <glyph glyph-name="afii10080" unicode="&#x43e;" horiz-adv-x="620"
           d="M35 262q0 135 71.5 204t203.5 69q131 0 203 -69t72 -204q0 -136 -71.5 -206.5t-203.5 -70.5q-128 0 -201.5 70.5t-73.5 206.5zM196 262q0 -94 30 -133t85 -39q57 0 85.5 38.5t28.5 133.5q0 48 -7.5 80t-22 51.5t-36 28t-49.5 8.5q-58 0 -86 -37t-28 -131z" />
            <glyph glyph-name="afii10081" unicode="&#x43f;" horiz-adv-x="601"
           d="M546 520v-520h-156v413h-179v-413h-156v520h491z" />
            <glyph glyph-name="afii10082" unicode="&#x440;" horiz-adv-x="635"
           d="M354 -15q-43 0 -79.5 16t-63.5 44v-225h-156v700h118l30 -58q28 32 69.5 52.5t95.5 20.5q52 0 95 -17.5t73.5 -51.5t47 -84t16.5 -114q0 -67 -19 -119.5t-52 -89t-78 -55.5t-97 -19zM443 264q0 84 -31.5 120.5t-84.5 36.5t-87 -38t-34 -117q0 -47 9 -79t24.5 -51.5
t36.5 -28t46 -8.5q53 0 87 40t34 125z" />
            <glyph glyph-name="afii10083" unicode="&#x441;" horiz-adv-x="590"
           d="M560 173q-9 -40 -29.5 -74.5t-52.5 -59.5t-76.5 -39.5t-102.5 -14.5q-130 0 -197 69.5t-67 200.5q0 66 18.5 118t53.5 88t84 55t111 19q52 0 95.5 -12.5t77 -36t55 -55.5t29.5 -71h-164q-9 32 -33.5 50.5t-54.5 18.5q-50 0 -80 -40.5t-30 -136.5q0 -84 30.5 -122.5
t73.5 -38.5q35 0 58.5 19.5t36.5 62.5h164z" />
            <glyph glyph-name="afii10084" unicode="&#x442;" horiz-adv-x="489"
           d="M10 520h469v-107h-157v-413h-156v413h-156v107z" />
            <glyph glyph-name="afii10085" unicode="&#x443;" horiz-adv-x="571"
           d="M566 520l-186 -531q-18 -51 -37 -86t-42.5 -56.5t-51.5 -31.5t-64 -10q-40 0 -84 11v109q24 -6 39 -7.5t25 -1.5q27 0 44 19.5t27 64.5h-44l-187 520h166l115 -406l124 406h156z" />
            <glyph glyph-name="afii10086" unicode="&#x444;" horiz-adv-x="934"
           d="M671 -15q-36 0 -68.5 14t-57.5 38v-217h-156v217q-26 -24 -58 -38t-68 -14q-48 0 -90 19t-72.5 55.5t-48 89t-17.5 119.5q0 64 16.5 114t46 84t70.5 51.5t89 17.5q41 0 74 -14t58 -38v237h156v-237q25 24 58 38t74 14q48 0 89 -17.5t70.5 -51.5t46 -84t16.5 -114
q0 -67 -17.5 -119.5t-48 -89t-72.5 -55.5t-90 -19zM192 266q0 -85 31 -126t77 -41q45 0 72 36.5t27 126.5q0 79 -29 119t-74 40t-74.5 -36.5t-29.5 -118.5zM742 266q0 82 -29.5 118.5t-74.5 36.5t-74 -40t-29 -119q0 -90 27 -126.5t72 -36.5q46 0 77 41t31 126z" />
            <glyph glyph-name="afii10087" unicode="&#x445;" horiz-adv-x="574"
           d="M370 276l199 -276h-188l-102 161l-108 -161h-166l194 274l-184 246h182l91 -136l91 136h163z" />
            <glyph glyph-name="afii10088" unicode="&#x446;" horiz-adv-x="611"
           d="M546 108h70v-248h-149v140h-412v520h156v-413h179v413h156v-412z" />
            <glyph glyph-name="afii10089" unicode="&#x447;" horiz-adv-x="591"
           d="M201 520v-218q0 -39 21.5 -60t61.5 -21q39 0 67.5 28.5t28.5 80.5v190h156v-520h-156v168q-27 -27 -63.5 -42t-81.5 -15q-90 0 -140 50.5t-50 146.5v212h156z" />
            <glyph glyph-name="afii10090" unicode="&#x448;" horiz-adv-x="809"
           d="M55 0v520h156v-412h115v412h156v-412h116v412h156v-520h-699z" />
            <glyph glyph-name="afii10091" unicode="&#x449;" horiz-adv-x="819"
           d="M55 0v520h156v-412h115v412h156v-412h116v412h156v-412h70v-248h-149v140h-620z" />
            <glyph glyph-name="afii10092" unicode="&#x44a;" horiz-adv-x="679"
           d="M324 375h107q103 0 158 -50.5t55 -137.5q0 -86 -60.5 -136.5t-174.5 -50.5h-241v413h-158v107h314v-145zM324 277v-177h56q49 0 76.5 23.5t27.5 64.5q0 89 -100 89h-60z" />
            <glyph glyph-name="afii10093" unicode="&#x44b;" horiz-adv-x="796"
           d="M211 520v-145h107q103 0 158 -50.5t55 -137.5q0 -86 -60.5 -136.5t-174.5 -50.5h-241v520h156zM211 277v-177h56q49 0 76.5 23.5t27.5 64.5q0 89 -100 89h-60zM585 0v520h156v-520h-156z" />
            <glyph glyph-name="afii10094" unicode="&#x44c;" horiz-adv-x="566"
           d="M211 520v-145h107q103 0 158 -50.5t55 -137.5q0 -86 -60.5 -136.5t-174.5 -50.5h-241v520h156zM211 277v-177h56q49 0 76.5 23.5t27.5 64.5q0 89 -100 89h-60z" />
            <glyph glyph-name="afii10095" unicode="&#x44d;" horiz-adv-x="590"
           d="M195 173q13 -43 37.5 -62.5t59.5 -19.5q40 0 67.5 31t32.5 100h-146v91h143q-8 65 -34 90.5t-67 25.5q-33 0 -59.5 -19.5t-34.5 -49.5h-163q7 36 28.5 68t54.5 56t78 37.5t100 13.5q61 0 110 -18.5t83 -54t52 -87t18 -116.5q0 -62 -17.5 -112.5t-51 -86.5t-82.5 -55.5
t-111 -19.5q-59 0 -104 14.5t-77 39.5t-52.5 59.5t-29.5 74.5h165z" />
            <glyph glyph-name="afii10096" unicode="&#x44e;" horiz-adv-x="851"
           d="M211 520v-187h81q17 100 84.5 151t174.5 51q123 0 194 -69.5t71 -203.5q0 -135 -70.5 -206t-194.5 -71q-112 0 -183 61t-81 180h-76v-226h-156v520h156zM447 262q0 -94 29 -133t76 -39q49 0 76.5 38.5t27.5 133.5q0 48 -7.5 80t-21 51.5t-33 28t-43.5 8.5t-43.5 -8.5
t-33 -28.5t-20.5 -52t-7 -79z" />
            <glyph glyph-name="afii10097" unicode="&#x44f;" horiz-adv-x="592"
           d="M10 0l153 188q-56 18 -85 57t-29 95q0 85 55 132.5t174 47.5h259v-520h-156v175h-57l-130 -175h-184zM381 274v147h-84q-47 0 -67.5 -19.5t-20.5 -54.5t20 -54t70 -19h82z" />
            <glyph glyph-name="uni0450" unicode="&#x450;" horiz-adv-x="602"
           d="M566 151q-9 -36 -28 -66.5t-50.5 -52.5t-76 -34.5t-102.5 -12.5q-61 0 -111.5 18.5t-86.5 54t-56 86.5t-20 116q0 66 19 117.5t54.5 86.5t85 53t110.5 18q62 0 112 -19t84.5 -58t53 -98t18.5 -138h-379q8 -69 40.5 -98.5t83.5 -29.5q37 0 60 15.5t30 41.5h159zM301 437
q-45 0 -73 -28.5t-35 -95.5h219q-3 66 -32 95t-79 29zM376 583h-121l-149 137h169z" />
            <glyph glyph-name="afii10071" unicode="&#x451;" horiz-adv-x="602"
           d="M566 151q-9 -36 -28 -66.5t-50.5 -52.5t-76 -34.5t-102.5 -12.5q-61 0 -111.5 18.5t-86.5 54t-56 86.5t-20 116q0 66 19 117.5t54.5 86.5t85 53t110.5 18q62 0 112 -19t84.5 -58t53 -98t18.5 -138h-379q8 -69 40.5 -98.5t83.5 -29.5q37 0 60 15.5t30 41.5h159zM301 437
q-45 0 -73 -28.5t-35 -95.5h219q-3 66 -32 95t-79 29zM112 592v128h148v-128h-148zM342 592v128h148v-128h-148z" />
            <glyph glyph-name="afii10099" unicode="&#x452;" horiz-adv-x="601"
           d="M55 570h-40v106h40v44h156v-44h132v-106h-132v-97q25 28 61 45t87 17q91 0 141.5 -51t50.5 -148v-365q0 -75 -44 -120.5t-129 -45.5q-23 0 -50 4t-47 11v109q17 -5 34 -7t28 -2q27 0 39.5 12.5t12.5 41.5v356q0 51 -21 73t-59 22q-45 0 -74.5 -30.5t-29.5 -82.5v-312
h-156v570z" />
            <glyph glyph-name="afii10100" unicode="&#x453;" horiz-adv-x="422"
           d="M412 520v-107h-201v-413h-156v520h357zM250 720h169l-149 -137h-121z" />
            <glyph glyph-name="afii10101" unicode="&#x454;" horiz-adv-x="590"
           d="M560 173q-9 -40 -29.5 -74.5t-52.5 -59.5t-76.5 -39.5t-102.5 -14.5q-130 0 -197 69.5t-67 200.5q0 66 18.5 118t53.5 88t84 55t111 19q52 0 95.5 -12.5t77 -36t55 -55.5t29.5 -71h-164q-9 32 -33.5 50.5t-54.5 18.5q-41 0 -69 -26.5t-37 -89.5h143v-91h-146
q6 -69 35 -100t68 -31q35 0 58.5 19.5t36.5 62.5h164z" />
            <glyph glyph-name="afii10102" unicode="&#x455;" horiz-adv-x="553"
           d="M273 91q47 0 67 13t20 36q0 13 -6 22t-20.5 15.5t-38 12.5t-59.5 15q-38 9 -72 21t-60 31t-41.5 47t-15.5 69q0 73 57.5 117.5t172.5 44.5q101 0 163 -42t76 -117h-157q-5 24 -26.5 38.5t-59.5 14.5t-54 -11.5t-16 -31.5q0 -11 4.5 -18.5t16.5 -14.5t33 -13.5t54 -14.5
q36 -9 72.5 -19.5t66.5 -28.5t49 -45.5t19 -70.5q0 -39 -15 -71t-45 -55.5t-76 -36.5t-108 -13q-107 0 -171.5 45t-77.5 117h157q5 -25 29.5 -40.5t61.5 -15.5z" />
            <glyph glyph-name="afii10103" unicode="&#x456;" horiz-adv-x="266"
           d="M49 587v133h168v-133h-168zM55 0v520h156v-520h-156z" />
            <glyph glyph-name="afii10104" unicode="&#x457;" horiz-adv-x="266"
           d="M55 0v520h156v-520h-156zM-55 592v128h148v-128h-148zM175 592v128h148v-128h-148z" />
            <glyph glyph-name="afii10105" unicode="&#x458;" horiz-adv-x="277"
           d="M-54 -71q17 -5 34 -7t28 -2q27 0 39.5 12.5t12.5 41.5v546h156v-549q0 -75 -44 -120.5t-129 -45.5q-23 0 -50 4t-47 11v109zM54 587v133h168v-133h-168z" />
            <glyph glyph-name="afii10106" unicode="&#x459;" horiz-adv-x="912"
           d="M557 520v-145h107q103 0 158 -50.5t55 -137.5q0 -86 -60.5 -136.5t-174.5 -50.5h-241v413h-151l-18 -219q-8 -102 -60 -148t-162 -46v112q35 0 51.5 15.5t20.5 60.5l29 332h446zM557 277v-177h56q49 0 76.5 23.5t27.5 64.5q0 89 -100 89h-60z" />
            <glyph glyph-name="afii10107" unicode="&#x45a;" horiz-adv-x="891"
           d="M536 520v-145h107q103 0 158 -50.5t55 -137.5q0 -86 -60.5 -136.5t-174.5 -50.5h-241v226h-169v-226h-156v520h156v-187h169v187h156zM536 277v-177h56q49 0 76.5 23.5t27.5 64.5q0 89 -100 89h-60z" />
            <glyph glyph-name="afii10108" unicode="&#x45b;" horiz-adv-x="601"
           d="M55 570h-40v106h40v44h156v-44h132v-106h-132v-97q25 28 61 45t87 17q91 0 141.5 -51t50.5 -148v-336h-156v330q0 51 -21 73t-59 22q-45 0 -74.5 -30t-29.5 -82v-313h-156v570z" />
            <glyph glyph-name="afii10109" unicode="&#x45c;" horiz-adv-x="585"
           d="M55 0v520h156v-196h33l159 196h166l-193 -238l219 -282h-189l-164 217h-31v-217h-156zM311 720h169l-149 -137h-121z" />
            <glyph glyph-name="uni045D" unicode="&#x45d;"
           d="M55 0v520h156v-288l179 254v34h155v-520h-155v287l-179 -256v-31h-156zM385 583h-121l-149 137h169z" />
            <glyph glyph-name="afii10110" unicode="&#x45e;" horiz-adv-x="571"
           d="M566 520l-186 -531q-18 -51 -37 -86t-42.5 -56.5t-51.5 -31.5t-64 -10q-40 0 -84 11v109q24 -6 39 -7.5t25 -1.5q27 0 44 19.5t27 64.5h-44l-187 520h166l115 -406l124 406h156zM288 574q-33 0 -61.5 6.5t-50.5 20.5t-36 35.5t-17 53.5h124q2 -18 14.5 -25t26.5 -7
t26.5 7t14.5 25h124q-5 -32 -20 -54t-37.5 -35.5t-50 -20t-57.5 -6.5z" />
            <glyph glyph-name="afii10193" unicode="&#x45f;" horiz-adv-x="601"
           d="M375 0v-140h-149v140h-171v520h156v-412h179v412h156v-520h-171z" />
            <glyph glyph-name="afii10146" unicode="&#x462;" horiz-adv-x="802"
           d="M196 594h-191v126h553v-126h-194v-115h92q164 0 237.5 -59.5t73.5 -180.5q0 -124 -76 -181.5t-229 -57.5h-266v594zM364 364v-249h100q63 0 96.5 31t33.5 93q0 67 -35 96t-101 29h-94z" />
            <glyph glyph-name="afii10194" unicode="&#x463;" horiz-adv-x="566"
           d="M211 474v-99h107q103 0 158 -50.5t55 -137.5q0 -86 -60.5 -136.5t-174.5 -50.5h-241v474h-79v108h79v83h156v-83h107v-108h-107zM211 277v-177h56q49 0 76.5 23.5t27.5 64.5q0 89 -100 89h-60z" />
            <glyph glyph-name="afii10147" unicode="&#x472;" horiz-adv-x="784"
           d="M392 -15q-66 0 -129.5 19t-113 63t-79.5 115.5t-30 176.5q0 103 30 174.5t79.5 116.5t113 65t129.5 20t129.5 -19.5t113 -63.5t79.5 -115.5t30 -176.5q0 -103 -30.5 -174.5t-80 -116t-112.5 -64.5t-129 -20zM392 104q31 0 60.5 10t54 33.5t41.5 61.5t23 95h-359
q6 -57 23.5 -95.5t42.5 -61.5t54.5 -33t59.5 -10zM392 617q-31 0 -60 -10t-53 -32.5t-41 -59.5t-24 -91h356q-7 54 -24.5 91t-41.5 59.5t-53 32.5t-59 10z" />
            <glyph glyph-name="afii10195" unicode="&#x473;" horiz-adv-x="620"
           d="M35 262q0 135 71.5 204t203.5 69q131 0 203 -69t72 -204q0 -136 -71.5 -206.5t-203.5 -70.5q-128 0 -201.5 70.5t-73.5 206.5zM311 90q51 0 78.5 29.5t33.5 101.5h-226q7 -72 36 -101.5t78 -29.5zM310 430q-50 0 -77 -26t-35 -92h224q-8 66 -36 92t-76 26z" />
            <glyph glyph-name="afii10148" unicode="&#x474;" horiz-adv-x="661"
           d="M661 720l-230 -720h-201l-230 720h173l162 -589l164 589h162z" />
            <glyph glyph-name="afii10196" unicode="&#x475;" horiz-adv-x="566"
           d="M561 520l-180 -520h-197l-179 520h169l114 -405l112 405h161z" />
            <glyph glyph-name="afii10050" unicode="&#x490;" horiz-adv-x="507"
           d="M502 856v-262h-274v-594h-168v720h281v136h161z" />
            <glyph glyph-name="afii10098" unicode="&#x491;" horiz-adv-x="422"
           d="M263 520v145h149v-252h-201v-413h-156v520h208z" />
            <glyph glyph-name="uni0492" unicode="&#x492;" horiz-adv-x="537"
           d="M532 594h-274v-173h152v-116h-152v-305h-168v305h-90v116h90v299h442v-126z" />
            <glyph glyph-name="uni0493" unicode="&#x493;" horiz-adv-x="422"
           d="M412 520v-107h-201v-93h110v-107h-110v-213h-156v213h-49v107h49v200h357z" />
            <glyph glyph-name="uni0496" unicode="&#x496;" horiz-adv-x="996"
           d="M221 720l150 -299h38v299h168v-299h38l150 299h183l-190 -337l155 -261h78v-262h-161v140h-48l-158 305h-47v-305h-168v305h-48l-161 -305h-200l227 383l-189 337h183z" />
            <glyph glyph-name="uni0497" unicode="&#x497;" horiz-adv-x="826"
           d="M185 520l111 -196h34v196h156v-196h34l111 196h162l-139 -230l102 -182h78v-248h-149v140h-47l-110 217h-42v-217h-156v217h-43l-111 -217h-176l161 290l-138 230h162z" />
            <glyph glyph-name="uni0498" unicode="&#x498;" horiz-adv-x="619"
           d="M448 -139q0 -24 -10 -46t-29 -38t-45.5 -25.5t-59.5 -9.5q-70 0 -108.5 33.5t-45.5 87.5h100q2 -14 12 -27.5t39 -13.5q23 0 34 11t11 25q0 43 -82 43l8 86q-54 4 -98 20.5t-76 42.5t-51 60t-22 72h165q5 -36 32 -58.5t83 -22.5q53 0 83 29t30 80q0 60 -32.5 87.5
t-89.5 27.5h-75v107h83q41 0 70.5 27t29.5 73q0 38 -27.5 63t-73.5 25q-94 0 -109 -69h-162q13 83 85 133.5t195 50.5q52 0 99 -12t83 -36t57 -59t21 -81q0 -58 -38 -103t-107 -58q36 -5 65.5 -21t51 -40t33.5 -54.5t12 -63.5q0 -44 -16 -81t-45.5 -65.5t-71.5 -47
t-94 -24.5v-29q41 -9 63.5 -34.5t22.5 -64.5z" />
            <glyph glyph-name="uni0499" unicode="&#x499;" horiz-adv-x="556"
           d="M431 -139q0 -24 -10 -46t-29 -38t-45.5 -25.5t-59.5 -9.5q-70 0 -108.5 33.5t-45.5 87.5h100q2 -14 12 -27.5t39 -13.5q23 0 34 11t11 25q0 43 -82 43l8 86q-95 8 -151.5 58t-73.5 125h164q13 -43 36.5 -61t58.5 -18q36 0 56 18t20 46q0 27 -24 44.5t-77 17.5h-28v103h36
q40 0 60 16.5t20 41.5q0 22 -18 36.5t-50 14.5t-56 -17.5t-33 -48.5h-164q7 37 28 68.5t54 54.5t77 36t98 13t95.5 -11t69.5 -30t42.5 -44t14.5 -53q0 -47 -28.5 -79t-83.5 -42q60 -7 94 -42t34 -86q0 -59 -46 -103.5t-135 -55.5v-29q41 -9 63.5 -34.5t22.5 -64.5z" />
            <glyph glyph-name="uni049A" unicode="&#x49a;" horiz-adv-x="726"
           d="M678 720l-242 -337l191 -261h94v-262h-161v140h-52l-215 305h-65v-305h-168v720h168v-299h60l206 299h184z" />
            <glyph glyph-name="uni049B" unicode="&#x49b;" horiz-adv-x="597"
           d="M55 0v520h156v-196h33l159 196h166l-193 -238l135 -174h99v-248h-149v140h-55l-164 217h-31v-217h-156z" />
            <glyph glyph-name="uni049C" unicode="&#x49c;" horiz-adv-x="760"
           d="M550 0l-215 305h-5v-212h-79v212h-23v-305h-168v720h168v-299h23v170h79v-170l206 299h186l-242 -337l280 -383h-210z" />
            <glyph glyph-name="uni049D" unicode="&#x49d;" horiz-adv-x="611"
           d="M55 0v520h156v-196h19v77h73v-66l128 185h164l-164 -238l190 -282h-187l-131 203v-150h-73v164h-19v-217h-156z" />
            <glyph glyph-name="uni04A0" unicode="&#x4a0;" horiz-adv-x="875"
           d="M667 0l-215 305h-65v-305h-168v594h-209v126h377v-299h60l206 299h184l-242 -337l280 -383h-208z" />
            <glyph glyph-name="uni04A1" unicode="&#x4a1;" horiz-adv-x="699"
           d="M325 324h33l159 196h166l-193 -238l219 -282h-189l-164 217h-31v-217h-156v413h-159v107h315v-196z" />
            <glyph glyph-name="uni04A2" unicode="&#x4a2;" horiz-adv-x="733"
           d="M663 720v-598h80v-262h-161v140h-86v304h-268v-304h-168v720h168v-296h268v296h167z" />
            <glyph glyph-name="uni04A3" unicode="&#x4a3;" horiz-adv-x="611"
           d="M211 520v-187h179v187h156v-412h70v-248h-149v140h-77v226h-179v-226h-156v520h156z" />
            <glyph glyph-name="uni04AA" unicode="&#x4aa;" horiz-adv-x="741"
           d="M601 -137q-15 -48 -53.5 -79t-107.5 -31q-60 0 -97 30t-37 84q0 36 20 65.5t55 52.5q-76 0 -138.5 23.5t-107.5 71t-70 118t-25 164.5q0 91 24 161t68.5 117t108 71t142.5 24q63 0 116.5 -16.5t95 -48t69 -78t37.5 -107.5h-168q-14 68 -53 100.5t-97 32.5
q-38 0 -68.5 -14.5t-53 -45.5t-34.5 -79.5t-12 -116.5q0 -71 13 -120.5t35 -80.5t52 -44.5t63 -13.5q71 0 111 38.5t46 123.5h171q-11 -95 -52 -156t-119 -96q-65 -29 -93 -60t-28 -64q0 -23 13.5 -35.5t30.5 -12.5q28 0 36 22h107z" />
            <glyph glyph-name="uni04AB" unicode="&#x4ab;" horiz-adv-x="590"
           d="M503 -137q-15 -48 -53.5 -79t-107.5 -31q-60 0 -97 30t-37 84q0 36 20 65.5t55 52.5q-122 5 -185 74t-63 196q0 66 18.5 118t53.5 88t84 55t111 19q52 0 95.5 -12.5t77 -36t55 -55.5t29.5 -71h-164q-9 32 -33.5 50.5t-54.5 18.5q-50 0 -80 -40.5t-30 -136.5
q0 -84 30.5 -122.5t73.5 -38.5q35 0 58.5 19.5t36.5 62.5h164q-11 -49 -40.5 -92t-88.5 -71q-20 -9 -40.5 -21t-37 -27t-27 -33t-10.5 -40q0 -23 13.5 -35.5t30.5 -12.5q28 0 36 22h107z" />
            <glyph glyph-name="uni04AE" unicode="&#x4ae;" horiz-adv-x="668"
           d="M255 0v287l-255 433h180l158 -293l170 293h160l-255 -433v-287h-158z" />
            <glyph glyph-name="uni04AF" unicode="&#x4af;" horiz-adv-x="566"
           d="M205 -180v180l-200 520h169l114 -388l112 388h161l-200 -520v-180h-156z" />
            <glyph glyph-name="uni04B0" unicode="&#x4b0;" horiz-adv-x="668"
           d="M255 0v256h-123v116h73l-205 348h180l158 -293l170 293h160l-205 -348h79v-116h-129v-256h-158z" />
            <glyph glyph-name="uni04B1" unicode="&#x4b1;" horiz-adv-x="566"
           d="M561 520l-159 -412h57v-108h-98v-180h-156v180h-91v108h49l-158 412h169l114 -388l112 388h161z" />
            <glyph glyph-name="uni04B2" unicode="&#x4b2;" horiz-adv-x="709"
           d="M442 383l173 -261h89v-262h-161v140h-50l-155 244l-154 -244h-179l254 374l-238 346h199l142 -215l142 215h172z" />
            <glyph glyph-name="uni04B3" unicode="&#x4b3;" horiz-adv-x="583"
           d="M370 276l121 -168h108v-248h-149v140h-69l-102 161l-108 -161h-166l194 274l-184 246h182l91 -136l91 136h163z" />
            <glyph glyph-name="uni04B8" unicode="&#x4b8;" horiz-adv-x="668"
           d="M608 720v-720h-168v292q-21 -23 -46 -39.5t-54 -26.5v-133h-79v122q-114 3 -170 65.5t-56 190.5v249h168v-260q0 -48 13 -78t45 -41v250h79v-253q48 13 74 54t26 92v236h168z" />
            <glyph glyph-name="uni04B9" unicode="&#x4b9;" horiz-adv-x="591"
           d="M326 401v-171q24 12 39 38.5t15 65.5v186h156v-520h-156v168q-25 -25 -54 -38v-77h-73v58h-18q-90 0 -140 50.5t-50 146.5v212h156v-218q0 -63 52 -77v176h73z" />
            <glyph glyph-name="uni04BA" unicode="&#x4ba;" horiz-adv-x="673"
           d="M60 0v720h168v-292q35 36 80 56.5t99 20.5q112 0 169 -62.5t57 -193.5v-249h-168v260q0 61 -23 93.5t-79 32.5q-32 0 -57.5 -12.5t-42.5 -33.5t-26 -48t-9 -56v-236h-168z" />
            <glyph glyph-name="uni04BB" unicode="&#x4bb;" horiz-adv-x="601"
           d="M55 720h156v-307q25 28 61 45t87 17q91 0 141.5 -51t50.5 -148v-276h-156v270q0 51 -21 73t-59 22q-45 0 -74.5 -31t-29.5 -83v-251h-156v720z" />
            <glyph glyph-name="uni04C0" unicode="&#x4c0;" horiz-adv-x="288"
           d="M228 720v-720h-168v720h168z" />
            <glyph glyph-name="uni04CB" unicode="&#x4cb;" horiz-adv-x="678"
           d="M608 720v-598h80v-262h-161v140h-87v292q-32 -35 -74.5 -56t-93.5 -21q-119 0 -178 62.5t-59 193.5v249h168v-260q0 -61 23 -93.5t79 -32.5q32 0 57 12.5t42.5 33t26.5 47.5t9 57v236h168z" />
            <glyph glyph-name="uni04CC" unicode="&#x4cc;" horiz-adv-x="601"
           d="M201 520v-218q0 -39 21.5 -60t61.5 -21q41 0 68.5 29.5t27.5 83.5v186h156v-412h70v-248h-149v140h-77v168q-27 -27 -63.5 -42t-81.5 -15q-90 0 -140 50.5t-50 146.5v212h156z" />
            <glyph glyph-name="uni04CF" unicode="&#x4cf;" horiz-adv-x="266"
           d="M211 0h-156v720h156v-720z" />
            <glyph glyph-name="uni04D8" unicode="&#x4d8;" horiz-adv-x="745"
           d="M380 -15q-78 0 -138.5 22.5t-103 71t-67.5 125t-31 185.5h494q-5 119 -50 174t-112 55q-60 0 -97 -29t-51 -76h-168q30 109 110.5 165.5t208.5 56.5q76 0 137.5 -25t104 -72t65.5 -115t23 -155q0 -94 -26 -165.5t-70.5 -120t-103.5 -73t-125 -24.5zM378 103
q58 0 99.5 40.5t50.5 129.5h-302q6 -89 44 -129.5t108 -40.5z" />
            <glyph glyph-name="afii10846" unicode="&#x4d9;" horiz-adv-x="607"
           d="M41 369q9 36 28 66.5t51 52.5t77.5 34.5t106.5 12.5q60 0 109.5 -19t84.5 -55t54.5 -87t19.5 -114q0 -66 -19.5 -117t-55.5 -86t-86.5 -53.5t-111.5 -18.5q-125 0 -194.5 77t-69.5 236h378q-8 68 -37.5 98t-79.5 30q-41 0 -65 -15.5t-31 -41.5h-159zM302 83q44 0 74 28
t38 96h-220q3 -66 30.5 -95t77.5 -29z" />
            <glyph glyph-name="uni04E2" unicode="&#x4e2;" horiz-adv-x="723"
           d="M663 720v-720h-167v443l-268 -379v-64h-168v720h168v-443l268 380v63h167zM227 798v112h270v-112h-270z" />
            <glyph glyph-name="uni04E3" unicode="&#x4e3;"
           d="M55 0v520h156v-288l179 254v34h155v-520h-155v287l-179 -256v-31h-156zM167 608v112h270v-112h-270z" />
            <glyph glyph-name="uni04E8" unicode="&#x4e8;" horiz-adv-x="784"
           d="M392 -15q-66 0 -129.5 19t-113 63t-79.5 115.5t-30 176.5q0 103 30 174.5t79.5 116.5t113 65t129.5 20t129.5 -19.5t113 -63.5t79.5 -115.5t30 -176.5q0 -103 -30.5 -174.5t-80 -116t-112.5 -64.5t-129 -20zM392 104q31 0 60.5 10t54 33.5t41.5 61.5t23 95h-359
q6 -57 23.5 -95.5t42.5 -61.5t54.5 -33t59.5 -10zM392 617q-31 0 -60 -10t-53 -32.5t-41 -59.5t-24 -91h356q-7 54 -24.5 91t-41.5 59.5t-53 32.5t-59 10z" />
            <glyph glyph-name="uni04E9" unicode="&#x4e9;" horiz-adv-x="620"
           d="M35 262q0 135 71.5 204t203.5 69q131 0 203 -69t72 -204q0 -136 -71.5 -206.5t-203.5 -70.5q-128 0 -201.5 70.5t-73.5 206.5zM311 90q51 0 78.5 29.5t33.5 101.5h-226q7 -72 36 -101.5t78 -29.5zM310 430q-50 0 -77 -26t-35 -92h224q-8 66 -36 92t-76 26z" />
            <glyph glyph-name="uni04EE" unicode="&#x4ee;" horiz-adv-x="618"
           d="M413 178q-18 -47 -36.5 -83t-41 -60.5t-51.5 -37t-69 -12.5q-20 0 -40 3t-41 8v119q24 -6 37.5 -7.5t23.5 -1.5q23 0 39.5 16.5t26.5 55.5h-57l-204 542h167l145 -426l144 426h162zM182 798v112h270v-112h-270z" />
            <glyph glyph-name="uni04EF" unicode="&#x4ef;" horiz-adv-x="571"
           d="M566 520l-186 -531q-18 -51 -37 -86t-42.5 -56.5t-51.5 -31.5t-64 -10q-40 0 -84 11v109q24 -6 39 -7.5t25 -1.5q27 0 44 19.5t27 64.5h-44l-187 520h166l115 -406l124 406h156zM154 608v112h270v-112h-270z" />
            <glyph glyph-name="Wgrave" unicode="&#x1e80;" horiz-adv-x="985"
           d="M985 720l-161 -720h-198l-134 556l-128 -556h-191l-173 720h174l109 -532l121 532h187l131 -535l104 535h159zM557 773h-121l-149 137h169z" />
            <glyph glyph-name="wgrave" unicode="&#x1e81;" horiz-adv-x="860"
           d="M850 520l-143 -520h-193l-82 380l-93 -380h-189l-140 520h161l81 -391l92 391h188l81 -393l89 393h148zM502 583h-121l-149 137h169z" />
            <glyph glyph-name="Wacute" unicode="&#x1e82;" horiz-adv-x="985"
           d="M985 720l-161 -720h-198l-134 556l-128 -556h-191l-173 720h174l109 -532l121 532h187l131 -535l104 535h159zM538 910h169l-149 -137h-121z" />
            <glyph glyph-name="wacute" unicode="&#x1e83;" horiz-adv-x="860"
           d="M850 520l-143 -520h-193l-82 380l-93 -380h-189l-140 520h161l81 -391l92 391h188l81 -393l89 393h148zM476 720h169l-149 -137h-121z" />
            <glyph glyph-name="Wdieresis" unicode="&#x1e84;" horiz-adv-x="985"
           d="M985 720l-161 -720h-198l-134 556l-128 -556h-191l-173 720h174l109 -532l121 532h187l131 -535l104 535h159zM303 782v128h148v-128h-148zM533 782v128h148v-128h-148z" />
            <glyph glyph-name="wdieresis" unicode="&#x1e85;" horiz-adv-x="860"
           d="M850 520l-143 -520h-193l-82 380l-93 -380h-189l-140 520h161l81 -391l92 391h188l81 -393l89 393h148zM241 592v128h148v-128h-148zM471 592v128h148v-128h-148z" />
            <glyph glyph-name="Ygrave" unicode="&#x1ef2;" horiz-adv-x="668"
           d="M255 0v287l-255 433h180l158 -293l170 293h160l-255 -433v-287h-158zM409 773h-121l-149 137h169z" />
            <glyph glyph-name="ygrave" unicode="&#x1ef3;" horiz-adv-x="571"
           d="M566 520l-186 -531q-18 -51 -37 -86t-42.5 -56.5t-51.5 -31.5t-64 -10q-40 0 -84 11v109q24 -6 39 -7.5t25 -1.5q27 0 44 19.5t27 64.5h-44l-187 520h166l115 -406l124 406h156zM350 583h-121l-149 137h169z" />
            <glyph glyph-name="uni2007" unicode="&#x2007;"
            />
            <glyph glyph-name="uni2008" unicode="&#x2008;" horiz-adv-x="289"
            />
            <glyph glyph-name="uni200B" unicode="&#x200b;" horiz-adv-x="0"
            />
            <glyph glyph-name="figuredash" unicode="&#x2012;" horiz-adv-x="540"
           d="M491 261h-440v123h440v-123z" />
            <glyph glyph-name="endash" unicode="&#x2013;" horiz-adv-x="400"
           d="M400 261h-400v123h400v-123z" />
            <glyph glyph-name="emdash" unicode="&#x2014;"
           d="M600 261h-600v123h600v-123z" />
            <glyph glyph-name="afii00208" unicode="&#x2015;" horiz-adv-x="400"
           d="M400 261h-400v123h400v-123z" />
            <glyph glyph-name="underscoredbl" unicode="&#x2017;" horiz-adv-x="544"
           d="M544 -322h-544v123h544v-123zM544 -149h-544v123h544v-123z" />
            <glyph glyph-name="quoteleft" unicode="&#x2018;" horiz-adv-x="270"
           d="M37 507q0 58 18.5 97t47.5 64t64 37t67 15v-78q-38 -8 -60.5 -34t-22.5 -71h63v-157h-177v127z" />
            <glyph glyph-name="quoteright" unicode="&#x2019;" horiz-adv-x="270"
           d="M233 593q0 -58 -18.5 -97t-47.5 -64t-64 -37t-67 -15v78q38 8 60.5 34t22.5 71h-63v157h177v-127z" />
            <glyph glyph-name="quotesinglbase" unicode="&#x201a;" horiz-adv-x="270"
           d="M233 30q0 -58 -18.5 -97t-47.5 -64t-64 -37t-67 -15v78q38 8 60.5 34t22.5 71h-63v157h177v-127z" />
            <glyph glyph-name="quotereversed" unicode="&#x201b;" horiz-adv-x="270"
           d="M36 720h177v-157h-63q0 -45 22.5 -71t60.5 -34v-78q-32 3 -67 15t-64 37t-47.5 64t-18.5 97v127z" />
            <glyph glyph-name="quotedblleft" unicode="&#x201c;" horiz-adv-x="507"
           d="M274 507q0 58 18.5 97t47.5 64t64 37t67 15v-78q-38 -8 -60.5 -34t-22.5 -71h63v-157h-177v127zM54 507q0 58 18.5 97t47.5 64t64 37t67 15v-78q-38 -8 -60.5 -34t-22.5 -71h63v-157h-177v127z" />
            <glyph glyph-name="quotedblright" unicode="&#x201d;" horiz-adv-x="507"
           d="M453 593q0 -58 -18.5 -97t-47.5 -64t-64 -37t-67 -15v78q38 8 60.5 34t22.5 71h-63v157h177v-127zM233 593q0 -58 -18.5 -97t-47.5 -64t-64 -37t-67 -15v78q38 8 60.5 34t22.5 71h-63v157h177v-127z" />
            <glyph glyph-name="quotedblbase" unicode="&#x201e;" horiz-adv-x="490"
           d="M453 30q0 -58 -18.5 -97t-47.5 -64t-64 -37t-67 -15v78q38 8 60.5 34t22.5 71h-63v157h177v-127zM233 30q0 -58 -18.5 -97t-47.5 -64t-64 -37t-67 -15v78q38 8 60.5 34t22.5 71h-63v157h177v-127z" />
            <glyph glyph-name="dagger" unicode="&#x2020;"
           d="M364 720v-180h176v-123h-176v-417h-129v417h-175v123h175v180h129z" />
            <glyph glyph-name="daggerdbl" unicode="&#x2021;"
           d="M364 720v-149h176v-123h-176v-176h176v-123h-176v-149h-129v149h-175v123h175v176h-175v123h175v149h129z" />
            <glyph glyph-name="bullet" unicode="&#x2022;" horiz-adv-x="335"
           d="M50 206v225h235v-225h-235z" />
            <glyph glyph-name="ellipsis" unicode="&#x2026;" horiz-adv-x="867"
           d="M345 0v157h177v-157h-177zM56 0v157h177v-157h-177zM634 0v157h177v-157h-177z" />
            <glyph glyph-name="perthousand" unicode="&#x2030;" horiz-adv-x="1189"
           d="M291 0h-124l342 700h124zM370 546q0 -78 -45 -123.5t-130 -45.5t-130 45.5t-45 123.5t45 123.5t130 45.5t130 -45.5t45 -123.5zM264 546q0 46 -18 68.5t-51 22.5t-51 -22.5t-18 -68.5t18 -68.5t51 -22.5t51 22.5t18 68.5zM779 153q0 -78 -45 -123.5t-130 -45.5t-130 45.5
t-45 123.5t45 123.5t130 45.5t130 -45.5t45 -123.5zM673 153q0 46 -18 68.5t-51 22.5t-51 -22.5t-18 -68.5t18 -68.5t51 -22.5t51 22.5t18 68.5zM1169 153q0 -78 -45 -123.5t-130 -45.5t-130 45.5t-45 123.5t45 123.5t130 45.5t130 -45.5t45 -123.5zM1063 153q0 46 -18 68.5
t-51 22.5t-51 -22.5t-18 -68.5t18 -68.5t51 -22.5t51 22.5t18 68.5z" />
            <glyph glyph-name="minute" unicode="&#x2032;" horiz-adv-x="270"
           d="M175 490h-100l5 153v92h130v-92z" />
            <glyph glyph-name="second" unicode="&#x2033;"
           d="M180 490h-100l5 153v92h130v-92zM360 490h-100l5 153v92h130v-92z" />
            <glyph glyph-name="guilsinglleft" unicode="&#x2039;" horiz-adv-x="336"
           d="M45 315l129 205h117l-93 -208l83 -222h-117z" />
            <glyph glyph-name="guilsinglright" unicode="&#x203a;" horiz-adv-x="336"
           d="M172 90h-117l83 222l-93 208h117l129 -205z" />
            <glyph glyph-name="exclamdbl" unicode="&#x203c;" horiz-adv-x="620"
           d="M81 240l-25 495h198l-25 -495h-148zM66 0v157h177v-157h-177zM391 240l-25 495h198l-25 -495h-148zM376 0v157h177v-157h-177z" />
            <glyph glyph-name="uni203E" unicode="&#x203e;" horiz-adv-x="544"
           d="M544 559h-544v123h544v-123z" />
            <glyph glyph-name="fraction" unicode="&#x2044;" horiz-adv-x="232"
           d="M-152 -90l422 880h120l-422 -880h-120z" />
            <glyph glyph-name="uni2070" unicode="&#x2070;" horiz-adv-x="430"
           d="M215 284q-87 0 -132.5 56.5t-45.5 174.5q0 121 47 175.5t130 54.5q84 0 131 -54.5t47 -175.5q0 -117 -45.5 -174t-131.5 -57zM214 369q16 0 27.5 6.5t19 23t11 44.5t3.5 72q0 43 -3.5 71.5t-11 45t-19 23t-27.5 6.5q-15 0 -26.5 -6.5t-19 -23t-11 -45t-3.5 -71.5
q0 -44 3.5 -72t11 -44.5t19 -23t26.5 -6.5z" />
            <glyph glyph-name="uni2074" unicode="&#x2074;" horiz-adv-x="437"
           d="M344 461h55v-86h-55v-81h-109v81h-198v93l170 267h137v-274zM141 461h94l7 161z" />
            <glyph glyph-name="uni2075" unicode="&#x2075;" horiz-adv-x="424"
           d="M359 649h-182l-5 -75q17 12 35.5 16t38.5 4q62 0 100.5 -36t38.5 -114q0 -34 -11 -63t-33 -50.5t-54 -34t-74 -12.5q-81 0 -124.5 37t-51.5 94h116q3 -19 16 -31t38 -12q26 0 41 15.5t15 54.5q0 42 -14 57t-43 15q-10 0 -24 -3t-27 -20h-98l12 244h290v-86z" />
            <glyph glyph-name="uni2076" unicode="&#x2076;" horiz-adv-x="428"
           d="M223 745q68 0 109 -28.5t54 -79.5h-122q-4 11 -13.5 17.5t-27.5 6.5q-26 0 -42.5 -22.5t-22.5 -82.5q18 20 42 28t52 8q63 0 100.5 -40t37.5 -108q0 -38 -12.5 -67.5t-35 -50t-54 -31.5t-68.5 -11q-88 0 -135.5 51t-47.5 163q0 66 14 113t39 77t59 43.5t74 13.5zM218 506
q-31 0 -43 -20t-12 -51q0 -37 16 -51t37 -14q26 0 39.5 15.5t13.5 51.5t-12.5 52.5t-38.5 16.5z" />
            <glyph glyph-name="uni2077" unicode="&#x2077;" horiz-adv-x="391"
           d="M74 294l165 352h-202v89h316v-88l-155 -353h-124z" />
            <glyph glyph-name="uni2078" unicode="&#x2078;" horiz-adv-x="434"
           d="M217 745q35 0 65 -8t52 -23t34.5 -37t12.5 -50q0 -30 -21 -56.5t-56 -43.5q41 -16 66.5 -43t25.5 -67q0 -28 -11.5 -52t-34 -42t-56 -28.5t-77.5 -10.5t-77.5 10t-56.5 27.5t-34.5 40.5t-11.5 50q0 44 22 71t65 41q-35 16 -54 38.5t-19 58.5q0 58 44 91t122 33zM217 667
q-22 0 -36.5 -11t-14.5 -34q0 -30 14.5 -44.5t44.5 -22.5q13 8 26.5 22.5t13.5 43.5q0 23 -14.5 34.5t-33.5 11.5zM205 494q-18 -11 -31.5 -27.5t-13.5 -45.5q0 -23 14 -37.5t41 -14.5q28 0 42 14.5t14 37.5q0 31 -18 46.5t-48 26.5z" />
            <glyph glyph-name="uni2079" unicode="&#x2079;" horiz-adv-x="428"
           d="M208 745q89 0 135.5 -49t46.5 -164q0 -131 -48.5 -189.5t-136.5 -58.5q-69 0 -111 29.5t-56 79.5h125q5 -25 43 -25q29 0 44 22t20 83q-18 -20 -43.5 -28t-52.5 -8q-63 0 -100 39t-37 109q0 35 12 64.5t34.5 50.5t54 33t70.5 12zM210 658q-26 0 -40 -16.5t-14 -48.5
q0 -42 14 -56t40 -14q31 0 42.5 20t11.5 50q0 38 -15 51.5t-39 13.5z" />
            <glyph glyph-name="uni207F" unicode="&#x207f;" horiz-adv-x="423"
           d="M262 726q60 0 95 -35t35 -110v-230h-125v233q0 26 -11 37.5t-35 11.5q-27 0 -43.5 -16t-16.5 -49v-217h-125v364h107l8 -39q44 50 111 50z" />
            <glyph glyph-name="franc" unicode="&#x20a3;" horiz-adv-x="597"
           d="M267 597v-184h251v-118h-251v-67h156v-108h-156v-120h-167v120h-50v108h49v492h448v-123h-280z" />
            <glyph glyph-name="lira" unicode="&#x20a4;" horiz-adv-x="607"
           d="M267 199q0 -24 -12 -41.5t-38 -30.5h329v-127h-496v124q31 9 44.5 27.5t13.5 42.5v18h-51v104h51v51h-51v98h51v36q0 108 59 161t164 53q94 0 154.5 -50.5t71.5 -139.5h-149q-6 38 -23.5 54.5t-48.5 16.5q-69 0 -69 -96v-35h172v-98h-172v-51h147v-104h-147v-13z" />
            <glyph glyph-name="peseta" unicode="&#x20a7;" horiz-adv-x="1082"
           d="M881 256q44 -12 73 -25.5t46.5 -30.5t24.5 -37t7 -45q0 -61 -42 -97t-134 -36q-30 0 -55.5 5.5t-45.5 15.5q-34 -14 -62 -17.5t-48 -3.5q-62 0 -93.5 33t-31.5 94v207h-85q-68 -63 -204 -63h-21v-256h-160v720h177q137 0 205 -55t68 -174q0 -44 -9 -78h29l7 100h118v-100
h124q34 12 84 12q72 0 118.5 -35t57.5 -94h-122q-4 20 -16.5 31t-36.5 11q-40 0 -40 -32q0 -17 12.5 -28t54.5 -22zM858 72q49 0 49 41q0 19 -13 31t-55 23q-43 11 -72 24t-46 29t-24.5 35t-7.5 43v10q0 6 1 11h-45v-205q0 -20 7 -28.5t23 -8.5q8 0 13 1q-8 21 -11 42h123
q5 -25 18.5 -36.5t39.5 -11.5zM233 374q53 0 81.5 28.5t28.5 88.5q0 62 -29.5 86t-83.5 24h-20v-227h23z" />
            <glyph glyph-name="Euro" unicode="&#x20ac;"
           d="M391 326l-19 -94h-143q7 -38 19 -63t28 -39.5t35.5 -20.5t42.5 -6q37 0 62.5 17.5t33.5 52.5h152q-6 -41 -26.5 -75.5t-53 -59.5t-75.5 -39t-95 -14q-34 0 -76.5 10.5t-83 38t-74 75.5t-49.5 123h-65l19 94h35q-1 12 -1 15v23q0 4 1 18h-54l19 94h45q25 120 97.5 179.5
t178.5 59.5q52 0 95.5 -14.5t76 -40t53.5 -60.5t27 -76h-152q-8 35 -32.5 54.5t-61.5 19.5q-44 0 -74 -28t-44 -94h190l-19 -94h-182q-1 -14 -1 -18v-23q0 -3 1 -15h170z" />
            <glyph glyph-name="afii61248" unicode="&#x2105;" horiz-adv-x="960"
           d="M172 -90l422 880h120l-422 -880h-120zM422 484q-12 -65 -56 -104.5t-127 -39.5q-189 0 -189 190q0 93 49 144.5t143 51.5q77 0 122.5 -36t56.5 -98h-126q-5 25 -19 34.5t-34 9.5q-32 0 -48 -22t-16 -85q0 -54 15.5 -76.5t46.5 -22.5q26 0 38.5 12.5t17.5 41.5h126z
M713 376q93 0 145 -47.5t52 -144.5q0 -95 -51.5 -144.5t-146.5 -49.5t-146 49.5t-51 144.5q0 97 51.5 144.5t146.5 47.5zM713 287q-37 0 -53.5 -23.5t-16.5 -79.5q0 -57 17 -81t54 -24t53 23.5t16 81.5q0 57 -16.5 80t-53.5 23z" />
            <glyph glyph-name="afii61289" unicode="&#x2113;" horiz-adv-x="519"
           d="M329 96q19 0 39.5 6t35.5 16l43 -96q-23 -15 -51.5 -26t-76.5 -11q-69 0 -118.5 37t-74.5 115q-18 -11 -37 -21l-39 -19v119q15 8 29 15.5t27 15.5q-1 13 -1.5 27t-0.5 28q0 115 12 197t37.5 134.5t66.5 77t98 24.5q40 0 69 -13t47 -35.5t26.5 -52t8.5 -62.5
q0 -42 -12 -86.5t-39.5 -91t-72 -93.5t-108.5 -93q6 -34 14.5 -56t20 -34.5t26 -17t31.5 -4.5zM228 336q35 33 57.5 64.5t35.5 62t18 59t5 54.5q0 56 -38 56q-78 0 -78 -276v-20z" />
            <glyph glyph-name="afii61352" unicode="&#x2116;" horiz-adv-x="1245"
           d="M661 720v-720h-173l-284 511v-511h-144v720h186l272 -492v492h143zM771 517q0 66 19 108.5t49 66.5t68 33.5t76 9.5t76 -9t68 -33t49 -66.5t19 -109.5t-19 -110t-49 -68t-68 -34.5t-76 -9.5q-39 0 -77 10t-68 35t-48.5 68t-18.5 109zM915 517q0 -67 16 -97.5t53 -30.5
q35 0 51.5 30.5t16.5 97.5t-17 95.5t-52 28.5t-51.5 -28.5t-16.5 -95.5zM1183 0h-399v123h399v-123z" />
            <glyph glyph-name="trademark" unicode="&#x2122;" horiz-adv-x="840"
           d="M524 324l-75 240v-240h-111v300h-96v-300h-117v300h-120v96h495l75 -250l65 250h170v-396h-113v240l-74 -240h-99z" />
            <glyph glyph-name="Omega" unicode="&#x2126;" horiz-adv-x="784"
           d="M457 121q19 1 39.5 12.5t38 39t28.5 72.5t11 113q0 73 -16 122.5t-41.5 80t-58 43.5t-66.5 13q-35 0 -67.5 -13t-58 -43.5t-41 -80.5t-15.5 -123q0 -69 12 -114.5t30 -72.5t39.5 -38t39.5 -11v-121h-260v121h63q-40 45 -67 106t-27 140q0 99 30 169t79.5 114t113 64.5
t129.5 20.5t129.5 -19.5t113 -63t79.5 -113.5t30 -171q0 -78 -28 -140t-69 -107h67v-121h-261v121h4z" />
            <glyph glyph-name="estimated" unicode="&#x212e;" horiz-adv-x="945"
           d="M218 339v-218q16 -24 44.5 -42t63.5 -30t73.5 -18.5t73.5 -6.5t72.5 6t72 18.5t64.5 31t51 42.5h58q-55 -64 -134.5 -100.5t-184.5 -36.5q-86 0 -159.5 27t-127.5 75t-84.5 114.5t-30.5 145.5t31.5 146t86.5 116.5t128 77.5t156 28q80 0 153 -27.5t128.5 -77t88.5 -118.5
t33 -153h-657zM727 574q-42 46 -104 74t-150 28t-152.5 -27t-102.5 -74v-196h509v195z" />
            <glyph glyph-name="onethird" unicode="&#x2153;" horiz-adv-x="935"
           d="M154 -90l422 880h120l-422 -880h-120zM276 283h-121v327l-105 -46v106l119 54h107v-441zM716 445q71 0 114.5 -29.5t43.5 -86.5q0 -34 -22.5 -62t-69.5 -39q50 -11 76.5 -39.5t26.5 -71.5q0 -63 -46 -97.5t-127 -34.5q-82 0 -128 37t-51 97h119q5 -22 17.5 -34.5
t40.5 -12.5q26 0 39.5 13.5t13.5 36.5q0 35 -19.5 48t-45.5 13h-33v80h34q20 0 36.5 11.5t16.5 42.5q0 23 -12.5 32.5t-30.5 9.5q-23 0 -34 -10.5t-13 -29.5h-118q9 58 54 92t118 34z" />
            <glyph glyph-name="twothirds" unicode="&#x2154;" horiz-adv-x="1032"
           d="M251 -90l422 880h120l-422 -880h-120zM50 605q9 64 57.5 102t123.5 38q77 0 120.5 -35t43.5 -92q0 -22 -6 -41.5t-20.5 -40t-38 -43.5t-59.5 -51l-69 -52h191v-96h-331v94l115 94q30 27 49 47t30 36t15 28.5t4 24.5q0 37 -47 37q-23 0 -37 -11t-19 -39h-122zM813 445
q71 0 114.5 -29.5t43.5 -86.5q0 -34 -22.5 -62t-69.5 -39q50 -11 76.5 -39.5t26.5 -71.5q0 -63 -46 -97.5t-127 -34.5q-82 0 -128 37t-51 97h119q5 -22 17.5 -34.5t40.5 -12.5q26 0 39.5 13.5t13.5 36.5q0 35 -19.5 48t-45.5 13h-33v80h34q20 0 36.5 11.5t16.5 42.5
q0 23 -12.5 32.5t-30.5 9.5q-23 0 -34 -10.5t-13 -29.5h-118q9 58 54 92t118 34z" />
            <glyph glyph-name="oneeighth" unicode="&#x215b;" horiz-adv-x="942"
           d="M154 -90l422 880h120l-422 -880h-120zM276 283h-121v327l-105 -46v106l119 54h107v-441zM713 447q35 0 65 -8t52 -23t34.5 -37t12.5 -50q0 -30 -21 -56.5t-56 -43.5q41 -16 66.5 -43t25.5 -67q0 -28 -11.5 -52t-34 -42t-56 -28.5t-77.5 -10.5t-77.5 10t-56.5 27.5
t-34.5 40.5t-11.5 50q0 44 22 71t65 41q-35 16 -54 38.5t-19 58.5q0 58 44 91t122 33zM713 369q-22 0 -36.5 -11t-14.5 -34q0 -30 14.5 -44.5t44.5 -22.5q13 8 26.5 22.5t13.5 43.5q0 23 -14.5 34.5t-33.5 11.5zM701 196q-18 -11 -31.5 -27.5t-13.5 -45.5q0 -23 14 -37.5
t41 -14.5q28 0 42 14.5t14 37.5q0 31 -18 46.5t-48 26.5z" />
            <glyph glyph-name="threeeighths" unicode="&#x215c;" horiz-adv-x="1024"
           d="M236 -90l422 880h120l-422 -880h-120zM795 447q35 0 65 -8t52 -23t34.5 -37t12.5 -50q0 -30 -21 -56.5t-56 -43.5q41 -16 66.5 -43t25.5 -67q0 -28 -11.5 -52t-34 -42t-56 -28.5t-77.5 -10.5t-77.5 10t-56.5 27.5t-34.5 40.5t-11.5 50q0 44 22 71t65 41q-35 16 -54 38.5
t-19 58.5q0 58 44 91t122 33zM795 369q-22 0 -36.5 -11t-14.5 -34q0 -30 14.5 -44.5t44.5 -22.5q13 8 26.5 22.5t13.5 43.5q0 23 -14.5 34.5t-33.5 11.5zM783 196q-18 -11 -31.5 -27.5t-13.5 -45.5q0 -23 14 -37.5t41 -14.5q28 0 42 14.5t14 37.5q0 31 -18 46.5t-48 26.5z
M233 745q71 0 114.5 -29.5t43.5 -86.5q0 -34 -22.5 -62t-69.5 -39q50 -11 76.5 -39.5t26.5 -71.5q0 -63 -46 -97.5t-127 -34.5q-82 0 -128 37t-51 97h119q5 -22 17.5 -34.5t40.5 -12.5q26 0 39.5 13.5t13.5 36.5q0 35 -19.5 48t-45.5 13h-33v80h34q20 0 36.5 11.5t16.5 42.5
q0 23 -12.5 32.5t-30.5 9.5q-23 0 -34 -10.5t-13 -29.5h-118q9 58 54 92t118 34z" />
            <glyph glyph-name="fiveeighths" unicode="&#x215d;" horiz-adv-x="1014"
           d="M226 -90l422 880h120l-422 -880h-120zM785 447q35 0 65 -8t52 -23t34.5 -37t12.5 -50q0 -30 -21 -56.5t-56 -43.5q41 -16 66.5 -43t25.5 -67q0 -28 -11.5 -52t-34 -42t-56 -28.5t-77.5 -10.5t-77.5 10t-56.5 27.5t-34.5 40.5t-11.5 50q0 44 22 71t65 41q-35 16 -54 38.5
t-19 58.5q0 58 44 91t122 33zM785 369q-22 0 -36.5 -11t-14.5 -34q0 -30 14.5 -44.5t44.5 -22.5q13 8 26.5 22.5t13.5 43.5q0 23 -14.5 34.5t-33.5 11.5zM773 196q-18 -11 -31.5 -27.5t-13.5 -45.5q0 -23 14 -37.5t41 -14.5q28 0 42 14.5t14 37.5q0 31 -18 46.5t-48 26.5z
M372 649h-182l-5 -75q17 12 35.5 16t38.5 4q62 0 100.5 -36t38.5 -114q0 -34 -11 -63t-33 -50.5t-54 -34t-74 -12.5q-81 0 -124.5 37t-51.5 94h116q3 -19 16 -31t38 -12q26 0 41 15.5t15 54.5q0 42 -14 57t-43 15q-10 0 -24 -3t-27 -20h-98l12 244h290v-86z" />
            <glyph glyph-name="seveneighths" unicode="&#x215e;" horiz-adv-x="914"
           d="M126 -90l422 880h120l-422 -880h-120zM685 447q35 0 65 -8t52 -23t34.5 -37t12.5 -50q0 -30 -21 -56.5t-56 -43.5q41 -16 66.5 -43t25.5 -67q0 -28 -11.5 -52t-34 -42t-56 -28.5t-77.5 -10.5t-77.5 10t-56.5 27.5t-34.5 40.5t-11.5 50q0 44 22 71t65 41q-35 16 -54 38.5
t-19 58.5q0 58 44 91t122 33zM685 369q-22 0 -36.5 -11t-14.5 -34q0 -30 14.5 -44.5t44.5 -22.5q13 8 26.5 22.5t13.5 43.5q0 23 -14.5 34.5t-33.5 11.5zM673 196q-18 -11 -31.5 -27.5t-13.5 -45.5q0 -23 14 -37.5t41 -14.5q28 0 42 14.5t14 37.5q0 31 -18 46.5t-48 26.5z
M87 294l165 352h-202v89h316v-88l-155 -353h-124z" />
            <glyph glyph-name="arrowleft" unicode="&#x2190;"
           d="M222 426h358v-118h-358l151 -194h-157l-196 253l196 253h157z" />
            <glyph glyph-name="arrowup" unicode="&#x2191;"
           d="M364 446v-359h-128v359l-189 -147v152l253 196l253 -196v-152z" />
            <glyph glyph-name="arrowright" unicode="&#x2192;"
           d="M378 308h-358v118h358l-151 194h157l196 -253l-196 -253h-157z" />
            <glyph glyph-name="arrowdown" unicode="&#x2193;"
           d="M236 288v359h128v-359l189 147v-152l-253 -196l-253 196v152z" />
            <glyph glyph-name="arrowboth" unicode="&#x2194;" horiz-adv-x="900"
           d="M222 426h456l-151 194h157l196 -253l-196 -253h-157l151 194h-456l151 -194h-157l-196 253l196 253h157z" />
            <glyph glyph-name="arrowupdn" unicode="&#x2195;"
           d="M364 596v-458l189 147v-152l-253 -196l-253 196v152l189 -147v458l-189 -147v152l253 196l253 -196v-152z" />
            <glyph glyph-name="uni2196" unicode="&#x2196;"
           d="M288 471l256 -256l-92 -92l-248 248l-29 -232l-113 108l40 318l318 40l107 -104z" />
            <glyph glyph-name="uni2197" unicode="&#x2197;"
           d="M402 371l-248 -248l-92 92l256 256l-239 30l107 104l318 -40l40 -318l-113 -108z" />
            <glyph glyph-name="uni2198" unicode="&#x2198;"
           d="M318 256l-256 257l92 92l248 -248l29 232l113 -108l-40 -318l-318 -40l-107 104z" />
            <glyph glyph-name="uni2199" unicode="&#x2199;"
           d="M204 357l248 248l92 -92l-256 -256l239 -30l-107 -104l-318 40l-40 318l113 108z" />
            <glyph glyph-name="arrowupdnbse" unicode="&#x21a8;"
           d="M364 596v-458l189 147v-152l-253 -196l-253 196v152l189 -147v458l-189 -147v152l253 196l253 -196v-152zM572 -232h-544v123h544v-123z" />
            <glyph glyph-name="partialdiff" unicode="&#x2202;" horiz-adv-x="590"
           d="M100 753q80 -10 161 -38.5t146.5 -79.5t106.5 -127t41 -181q0 -168 -64 -255t-190 -87q-47 0 -94.5 12.5t-85.5 41.5t-62 78t-24 121q0 56 15 101t43.5 77t69.5 49.5t93 17.5q18 0 37 -4t36 -11t31 -17t22 -22q-10 58 -37.5 96.5t-66 63t-84.5 38.5t-94 23v103zM293 370
q-52 0 -75.5 -38t-23.5 -99q0 -66 26.5 -100.5t78.5 -34.5q47 0 72 41t25 116q0 55 -27.5 85t-75.5 30z" />
            <glyph glyph-name="Delta" unicode="&#x2206;" horiz-adv-x="701"
           d="M0 0l256 720h187l258 -720h-701zM200 110h290l-144 472z" />
            <glyph glyph-name="product" unicode="&#x220f;"
           d="M585 578h-50v-578h-156v578h-157v-578h-157v578h-50v122h570v-122z" />
            <glyph glyph-name="summation" unicode="&#x2211;"
           d="M189 604l205 -329l-205 -331h386v-114h-550v114l205 331l-205 329v116h550v-116h-386z" />
            <glyph glyph-name="minus" unicode="&#x2212;"
           d="M520 261h-440v123h440v-123z" />
            <glyph glyph-name="uni2215" unicode="&#x2215;" horiz-adv-x="270"
           d="M-27 -90h-119l436 880h120z" />
            <glyph glyph-name="uni2219" unicode="&#x2219;" horiz-adv-x="270"
           d="M56 248v142h158v-142h-158z" />
            <glyph glyph-name="radical" unicode="&#x221a;" horiz-adv-x="620"
           d="M174 0l-184 460h155l109 -296l196 638h250v-112h-128l-237 -690h-161z" />
            <glyph glyph-name="infinity" unicode="&#x221e;" horiz-adv-x="720"
           d="M206 533q45 0 84 -23t68 -63q29 43 71 64.5t88 21.5q50 0 86.5 -14.5t60 -39t35 -58t11.5 -71.5t-11.5 -71.5t-35.5 -58t-61 -39t-88 -14.5q-46 0 -84.5 22.5t-67.5 62.5q-30 -42 -72 -63.5t-87 -21.5q-50 0 -86.5 14.5t-60 39t-35 58t-11.5 71.5t11.5 71.5t35.5 58
t61 39t88 14.5zM506 274q29 0 46.5 19t17.5 57t-18 57t-43 19q-26 0 -51.5 -16.5t-40.5 -60.5q4 -30 30 -52.5t59 -22.5zM214 426q-29 0 -46.5 -19t-17.5 -57t18 -57t43 -19t50.5 16.5t40.5 60.5q-4 30 -29.5 52.5t-58.5 22.5z" />
            <glyph glyph-name="orthogonal" unicode="&#x221f;" horiz-adv-x="735"
           d="M206 144h479v-144h-635v660h156v-516z" />
            <glyph glyph-name="intersection" unicode="&#x2229;"
           d="M300 579q48 0 90 -18t73.5 -49.5t49.5 -73.5t18 -90v-310h-138v310q0 51 -24 81t-69 30t-69 -30t-24 -81v-310h-138v310q0 48 18 90t49.5 73.5t73.5 49.5t90 18z" />
            <glyph glyph-name="integral" unicode="&#x222b;"
           d="M87 -52q24 -2 39.5 -3t35.5 -1q29 0 44.5 12.5t15.5 44.5v752q0 48 13.5 81.5t36.5 55t55 31t70 9.5q22 0 38 -0.5t29 -1t24.5 -1.5t24.5 -2v-113q-24 2 -39.5 3t-35.5 1q-29 0 -44.5 -12.5t-15.5 -44.5v-752q0 -48 -13.5 -81.5t-36.5 -55t-55.5 -31t-69.5 -9.5
q-44 0 -67.5 1.5t-48.5 3.5v113z" />
            <glyph glyph-name="approxequal" unicode="&#x2248;"
           d="M390 341q-31 0 -55 8.5t-45.5 19t-42 19t-44.5 8.5q-38 0 -69.5 -15.5t-53.5 -34.5v127q19 15 53.5 27.5t76.5 12.5q31 0 55 -8.5t45.5 -19t42 -19t44.5 -8.5q38 0 69.5 15.5t53.5 34.5v-127q-19 -15 -53.5 -27.5t-76.5 -12.5zM390 137q-31 0 -55 8.5t-45.5 19t-42 19
t-44.5 8.5q-38 0 -69.5 -15.5t-53.5 -34.5v127q19 15 53.5 27.5t76.5 12.5q31 0 55 -8.5t45.5 -19t42 -19t44.5 -8.5q38 0 69.5 15.5t53.5 34.5v-127q-19 -15 -53.5 -27.5t-76.5 -12.5z" />
            <glyph glyph-name="notequal" unicode="&#x2260;"
           d="M520 158h-250l-69 -118h-129l69 118h-61v123h133l48 82h-181v123h252l67 114h129l-67 -114h59v-123h-130l-48 -82h178v-123z" />
            <glyph glyph-name="equivalence" unicode="&#x2261;"
           d="M520 158h-440v123h440v-123zM520 -47h-440v123h440v-123zM520 363h-440v123h440v-123z" />
            <glyph glyph-name="lessequal" unicode="&#x2264;"
           d="M80 412l440 180v-143l-272 -89v-7l272 -65v-143l-440 150v117zM520 0h-440v123h440v-123z" />
            <glyph glyph-name="greaterequal" unicode="&#x2265;"
           d="M520 295l-440 -150v143l272 65v7l-272 89v143l440 -180v-117zM80 123h440v-123h-440v123z" />
            <glyph glyph-name="star" unicode="&#x22c6;"
           d="M300 738l131 -126l182 -25l-17 -182l94 -157l-153 -100l-64 -170l-173 56l-174 -56l-64 170l-152 100l93 157l-16 182l181 25z" />
            <glyph glyph-name="house" unicode="&#x2302;" horiz-adv-x="722"
           d="M672 370v-370h-622v370l311 277zM185 117h352v215l-176 153l-176 -153v-215z" />
            <glyph glyph-name="revlogicalnot" unicode="&#x2310;" horiz-adv-x="560"
           d="M472 380v-118h-258v-159h-126v277h384z" />
            <glyph glyph-name="integraltp" unicode="&#x2320;" horiz-adv-x="489"
           d="M341 931q35 0 59 -2.5t48 -7.5v-115q-26 5 -40.5 6t-26.5 1q-23 0 -34 -11.5t-11 -39.5v-972h-154v974q0 81 42 124t117 43z" />
            <glyph glyph-name="integralbt" unicode="&#x2321;" horiz-adv-x="489"
           d="M336 -2q0 -81 -42 -124t-117 -43q-35 0 -59 2.5t-48 7.5v115q26 -5 40 -6t27 -1q23 0 34 11.5t11 39.5v930h154v-932z" />
            <glyph glyph-name="SF100000" unicode="&#x2500;"
           d="M-5 395h610v-86h-610v86z" />
            <glyph glyph-name="SF110000" unicode="&#x2502;"
           d="M257 1000h86v-1362h-86v1362z" />
            <glyph glyph-name="SF010000" unicode="&#x250c;"
           d="M257 395h348v-86h-262v-671h-86v757z" />
            <glyph glyph-name="SF030000" unicode="&#x2510;"
           d="M-5 395h348v-757h-86v671h-262v86z" />
            <glyph glyph-name="SF020000" unicode="&#x2514;"
           d="M257 1000h86v-605h262v-86h-348v691z" />
            <glyph glyph-name="SF040000" unicode="&#x2518;"
           d="M-5 395h262v605h86v-691h-348v86z" />
            <glyph glyph-name="SF080000" unicode="&#x251c;"
           d="M257 1000h86v-605h262v-86h-262v-671h-86v1362z" />
            <glyph glyph-name="SF090000" unicode="&#x2524;"
           d="M-5 395h262v605h86v-1362h-86v671h-262v86z" />
            <glyph glyph-name="SF060000" unicode="&#x252c;"
           d="M-5 395h610v-86h-262v-671h-86v671h-262v86z" />
            <glyph glyph-name="SF070000" unicode="&#x2534;"
           d="M-5 395h262v605h86v-605h262v-86h-610v86z" />
            <glyph glyph-name="SF050000" unicode="&#x253c;"
           d="M-5 395h262v605h86v-605h262v-86h-262v-671h-86v671h-262v86z" />
            <glyph glyph-name="SF430000" unicode="&#x2550;"
           d="M-5 309h610v-86h-610v86zM605 395h-610v86h610v-86z" />
            <glyph glyph-name="SF240000" unicode="&#x2551;"
           d="M343 -362v1362h86v-1362h-86zM171 1000h86v-1362h-86v1362z" />
            <glyph glyph-name="SF510000" unicode="&#x2552;"
           d="M605 395h-262v-86h262v-86h-262v-585h-86v843h348v-86z" />
            <glyph glyph-name="SF520000" unicode="&#x2553;"
           d="M343 -362v671h-86v-671h-86v757h434v-86h-176v-671h-86z" />
            <glyph glyph-name="SF390000" unicode="&#x2554;"
           d="M171 481h434v-86h-348v-757h-86v843zM343 -362v671h262v-86h-176v-585h-86z" />
            <glyph glyph-name="SF220000" unicode="&#x2555;"
           d="M-5 309h262v86h-262v86h348v-843h-86v585h-262v86z" />
            <glyph glyph-name="SF210000" unicode="&#x2556;"
           d="M-5 395h434v-757h-86v671h-86v-671h-86v671h-176v86z" />
            <glyph glyph-name="SF250000" unicode="&#x2557;"
           d="M343 -362v757h-348v86h434v-843h-86zM-5 309h262v-671h-86v585h-176v86z" />
            <glyph glyph-name="SF500000" unicode="&#x2558;"
           d="M605 395h-262v-86h262v-86h-348v777h86v-519h262v-86z" />
            <glyph glyph-name="SF490000" unicode="&#x2559;"
           d="M171 1000h86v-605h86v605h86v-605h176v-86h-434v691z" />
            <glyph glyph-name="SF380000" unicode="&#x255a;"
           d="M605 309v-86h-434v777h86v-691h348zM605 395h-262v605h86v-519h176v-86z" />
            <glyph glyph-name="SF280000" unicode="&#x255b;"
           d="M-5 309h262v86h-262v86h262v519h86v-777h-348v86z" />
            <glyph glyph-name="SF270000" unicode="&#x255c;"
           d="M-5 395h176v605h86v-605h86v605h86v-691h-434v86z" />
            <glyph glyph-name="SF260000" unicode="&#x255d;"
           d="M-5 309h348v691h86v-777h-434v86zM171 1000h86v-605h-262v86h176v519z" />
            <glyph glyph-name="SF360000" unicode="&#x255e;"
           d="M605 395h-262v-86h262v-86h-262v-585h-86v1362h86v-519h262v-86z" />
            <glyph glyph-name="SF370000" unicode="&#x255f;"
           d="M343 -362v1362h86v-605h176v-86h-176v-671h-86zM171 1000h86v-1362h-86v1362z" />
            <glyph glyph-name="SF420000" unicode="&#x2560;"
           d="M171 1000h86v-1362h-86v1362zM343 -362v671h262v-86h-176v-585h-86zM605 395h-262v605h86v-519h176v-86z" />
            <glyph glyph-name="SF190000" unicode="&#x2561;"
           d="M-5 309h262v86h-262v86h262v519h86v-1362h-86v585h-262v86z" />
            <glyph glyph-name="SF200000" unicode="&#x2562;"
           d="M171 -362v671h-176v86h176v605h86v-1362h-86zM343 -362v1362h86v-1362h-86z" />
            <glyph glyph-name="SF230000" unicode="&#x2563;"
           d="M343 -362v1362h86v-1362h-86zM-5 309h262v-671h-86v585h-176v86zM171 1000h86v-605h-262v86h176v519z" />
            <glyph glyph-name="SF470000" unicode="&#x2564;"
           d="M-5 309h610v-86h-262v-585h-86v585h-262v86zM605 395h-610v86h610v-86z" />
            <glyph glyph-name="SF480000" unicode="&#x2565;"
           d="M-5 395h610v-86h-176v-671h-86v671h-86v-671h-86v671h-176v86z" />
            <glyph glyph-name="SF410000" unicode="&#x2566;"
           d="M-5 309h262v-671h-86v585h-176v86zM343 -362v671h262v-86h-176v-585h-86zM605 395h-610v86h610v-86z" />
            <glyph glyph-name="SF450000" unicode="&#x2567;"
           d="M605 395h-610v86h262v519h86v-519h262v-86zM-5 309h610v-86h-610v86z" />
            <glyph glyph-name="SF460000" unicode="&#x2568;"
           d="M-5 395h176v605h86v-605h86v605h86v-605h176v-86h-610v86z" />
            <glyph glyph-name="SF400000" unicode="&#x2569;"
           d="M605 395h-262v605h86v-519h176v-86zM171 1000h86v-605h-262v86h176v519zM-5 309h610v-86h-610v86z" />
            <glyph glyph-name="SF540000" unicode="&#x256a;"
           d="M605 395h-262v-86h262v-86h-262v-585h-86v585h-262v86h262v86h-262v86h262v519h86v-519h262v-86z" />
            <glyph glyph-name="SF530000" unicode="&#x256b;"
           d="M-5 395h176v605h86v-605h86v605h86v-605h176v-86h-176v-671h-86v671h-86v-671h-86v671h-176v86z" />
            <glyph glyph-name="SF440000" unicode="&#x256c;"
           d="M-5 309h262v-671h-86v585h-176v86zM343 -362v671h262v-86h-176v-585h-86zM605 395h-262v605h86v-519h176v-86zM171 1000h86v-605h-262v86h176v519z" />
            <glyph glyph-name="upblock" unicode="&#x2580;"
           d="M600 319h-600v681h600v-681z" />
            <glyph glyph-name="dnblock" unicode="&#x2584;"
           d="M0 319h600v-681h-600v681z" />
            <glyph glyph-name="block" unicode="&#x2588;"
           d="M0 1000h600v-1362h-600v1362z" />
            <glyph glyph-name="lfblock" unicode="&#x258c;"
           d="M0 1000h300v-1362h-300v1362z" />
            <glyph glyph-name="rtblock" unicode="&#x2590;"
           d="M300 -362v1362h300v-1362h-300z" />
            </font>
</defs>
</svg>
