<?xml version="1.0" standalone="no"?>
<!DOCTYPE svg PUBLIC "-//W3C//DTD SVG 1.1//EN" "http://www.w3.org/Graphics/SVG/1.1/DTD/svg11.dtd" >
<svg>
    <metadata>
        Created by FontForge 20120731 at Mon Mar 31 14:10:07 2014
        By tam,,,
        Copyright (c) 2010-2013 by Ralph du Carrois, Erik Spiekermann &#38; Botio Nikoltchev. All rights reserved.
    </metadata>
    <defs>
        <font id="CiscoSansCondensedExtraLight" horiz-adv-x="560" >
            <font-face
                font-family="CiscoSansCondensedExtraLight"
                font-weight="300"
                font-stretch="condensed"
                units-per-em="1000"
                panose-1="2 11 4 6 2 2 0 2 3 3"
                ascent="790"
                descent="-210"
                x-height="520"
                cap-height="720"
                bbox="-116 -362 1015 1000"
                underline-thickness="85"
                underline-position="-6"
                unicode-range="U+0020-FEFF"
            />
            <missing-glyph horiz-adv-x="486"
               d="M65 720h356v-720h-356v720zM372 49v622h-258v-622h258z" />
            <glyph glyph-name="f_f" unicode="ff" horiz-adv-x="542"
           d="M546 677q-17 5 -35.5 8.5t-32.5 3.5q-29 0 -45 -19.5t-16 -59.5v-90h104v-46h-104v-474h-53v474h-221v-474h-53v474h-67v46h67v46q0 35 7.5 64.5t25 51t46 33.5t70.5 12q37 0 75 -9.5t73 -24.5q30 42 85 42q19 0 38 -3.5t36 -8.5v-46zM143 520h221v87q0 14 2 25.5t4 22.5
q-25 11 -58.5 19.5t-66.5 8.5q-59 0 -80.5 -28.5t-21.5 -85.5v-49z" />
            <glyph glyph-name="f_f_i" unicode="ffi" horiz-adv-x="754"
           d="M635 0v474h-218v-474h-53v474h-221v-474h-53v474h-67v46h67v46q0 35 7.5 64.5t24.5 51t46 33.5t71 12q38 0 77.5 -10t76.5 -26q18 21 45 32.5t65 11.5q34 0 63.5 -6.5t46.5 -12.5v-45q-17 5 -46 11.5t-58 6.5q-47 0 -69.5 -20.5t-22.5 -68.5v-80h271v-520h-53zM364 597
q0 31 8 57q-26 11 -59.5 20t-67.5 9q-59 0 -80.5 -28.5t-21.5 -85.5v-49h221v77z" />
            <glyph glyph-name="f_f_j" unicode="ffj" horiz-adv-x="754"
           d="M504 735q33 0 62.5 -6.5t46.5 -11.5v-46q-17 6 -46 12.5t-57 6.5q-47 0 -70 -21t-23 -69v-80h271v-591q0 -60 -25.5 -92t-75.5 -32q-15 0 -31 2.5t-33 8.5v46q14 -5 29 -7.5t26 -2.5q28 0 42.5 17.5t14.5 63.5v541h-218v-474h-53v474h-221v-474h-53v474h-67v46h67v47
q0 35 7.5 64.5t25 51t46 33.5t70.5 12q38 0 77.5 -10.5t76.5 -25.5q35 43 111 43zM364 598q0 30 8 56q-25 12 -58.5 21t-68.5 9q-59 0 -80.5 -29t-21.5 -86v-49h221v78z" />
            <glyph glyph-name="f_f_l" unicode="ffl" horiz-adv-x="758"
           d="M515 735q31 0 66 -6t59 -14l53 6v-721h-54v669q-23 8 -57.5 14.5t-60.5 6.5q-57 0 -80 -27t-23 -84v-59h101v-46h-101v-474h-53v474h-222v-474h-53v474h-67v46h67v47q0 35 7.5 64.5t25 51t46 33.5t70.5 12q38 0 79 -11t79 -28q17 22 45.5 34t72.5 12zM365 577
q0 21 2.5 40t8.5 36q-27 14 -62.5 22.5t-68.5 8.5q-59 0 -80.5 -29t-21.5 -86v-49h222v57z" />
            <glyph glyph-name="f_i" unicode="fi" horiz-adv-x="480"
           d="M361 0v474h-218v-474h-53v474h-67v46h67v76q0 65 35 101t104 36q34 0 63.5 -6.5t47.5 -11.5v-46q-18 6 -47 12.5t-58 6.5q-47 0 -69.5 -21t-22.5 -69v-78h271v-520h-53z" />
            <glyph glyph-name="f_j" unicode="fj" horiz-adv-x="480"
           d="M248 -137q14 -5 29.5 -8t26.5 -3q28 0 42.5 18t14.5 64v540h-218v-474h-53v474h-67v46h67v77q0 66 36 102t103 36q34 0 63.5 -6.5t47.5 -12.5v-45q-18 5 -47.5 11.5t-57.5 6.5q-47 0 -69.5 -20.5t-22.5 -68.5v-80h271v-590q0 -66 -28 -95t-82 -29q-28 0 -56 11v46z" />
            <glyph glyph-name="f_l" unicode="fl" horiz-adv-x="484"
           d="M365 0v668q-24 8 -58 14t-60 6q-59 0 -81.5 -27t-22.5 -83v-58h102v-46h-102v-474h-53v474h-67v46h67v55q0 35 8 64.5t26 50.5t46.5 32.5t70.5 11.5q30 0 65.5 -6t59.5 -14l52 6v-720h-53z" />
            <glyph glyph-name=".notdef" horiz-adv-x="486"
           d="M65 720h356v-720h-356v720zM372 49v622h-258v-622h258z" />
            <glyph glyph-name=".null" horiz-adv-x="0"
            />
            <glyph glyph-name="nonmarkingreturn" horiz-adv-x="260"
            />
            <glyph glyph-name="space" unicode=" " horiz-adv-x="260"
            />
            <glyph glyph-name="exclam" unicode="!" horiz-adv-x="230"
           d="M88 226l-6 494h62l-5 -494h-51zM80 0v79h70v-79h-70z" />
            <glyph glyph-name="quotedbl" unicode="&#x22;" horiz-adv-x="446"
           d="M136 490h-36l-10 153v92h55v-92zM261 490h-38l-9 153v92h55v-92z" />
            <glyph glyph-name="numbersign" unicode="#"
           d="M74 505h78l15 195h49l-15 -195h182l15 195h48l-15 -195h72v-45h-76l-17 -220h75v-45h-78l-15 -195h-48l14 195h-181l-15 -195h-49l15 195h-71v45h75l16 220h-74v45zM180 240h182l17 220h-182z" />
            <glyph glyph-name="dollar" unicode="$"
           d="M503 183q0 -38 -12 -72t-36.5 -60t-61.5 -42.5t-86 -19.5v-124h-49v125q-84 6 -136.5 55t-66.5 140h57q12 -75 57 -111.5t116 -36.5q81 0 121 39.5t40 104.5q0 30 -7.5 54t-28 44.5t-57 38t-94.5 33.5q-97 27 -137 72t-40 117q0 70 42.5 118.5t133.5 55.5v116h49v-116
q82 -7 131.5 -52.5t63.5 -124.5h-56q-12 62 -54.5 96t-108.5 34q-37 0 -64.5 -9.5t-45.5 -26t-26.5 -39t-8.5 -48.5q0 -27 6.5 -48.5t24 -39.5t48 -32.5t78.5 -27.5q57 -16 96.5 -36.5t64.5 -47t36 -58.5t11 -71z" />
            <glyph glyph-name="percent" unicode="%" horiz-adv-x="724"
           d="M240 0h-50l291 700h51zM331 546q0 -85 -40.5 -127t-102.5 -42q-63 0 -103.5 41.5t-40.5 127.5q0 85 41 127t103 42t102.5 -42t40.5 -127zM286 546q0 68 -27 98t-71 30q-45 0 -72 -30t-27 -98t27 -98t72 -30q43 0 70.5 30t27.5 98zM680 154q0 -42 -11 -74t-30.5 -53
t-45.5 -31.5t-57 -10.5q-62 0 -102.5 41.5t-40.5 127.5q0 85 40.5 127t102.5 42t103 -42t41 -127zM635 154q0 68 -27.5 98t-71.5 30q-45 0 -71.5 -30t-26.5 -98t26.5 -98t71.5 -30q43 0 71 30t28 98z" />
            <glyph glyph-name="ampersand" unicode="&#x26;" horiz-adv-x="553"
           d="M513 330q-5 -53 -21 -106.5t-44 -101.5l92 -105l-37 -32l-85 98q-34 -45 -79.5 -71.5t-105.5 -26.5q-102 0 -152 48.5t-50 127.5q0 36 9.5 64.5t27 53t42 46t55.5 42.5q-23 27 -42 51t-33 47t-21.5 45.5t-7.5 47.5q0 29 9.5 57.5t29 50.5t50 35.5t72.5 13.5
q43 0 73.5 -13.5t50.5 -35t29.5 -49.5t9.5 -56q0 -30 -11 -57.5t-30.5 -53t-46 -49t-57.5 -43.5l173 -202q21 40 33.5 86t17.5 94zM236 30q48 0 84.5 24t64.5 62l-187 218q-51 -35 -81.5 -73.5t-30.5 -94.5q0 -64 37.5 -100t112.5 -36zM112 558q0 -19 5.5 -37t17 -37.5
t29.5 -42t43 -51.5q61 42 94.5 83t33.5 88q0 19 -5.5 38.5t-19 35.5t-35 26t-53.5 10q-31 0 -52 -9.5t-34 -25.5t-18.5 -36t-5.5 -42z" />
            <glyph glyph-name="quotesingle" unicode="'" horiz-adv-x="238"
           d="M137 490h-36l-10 153v92h55v-92z" />
            <glyph glyph-name="parenleft" unicode="(" horiz-adv-x="297"
           d="M122 320q0 -79 11 -147.5t29.5 -129t43 -113t52.5 -100.5h-47q-25 38 -50.5 89t-45.5 113t-33 134.5t-13 153.5t13 153.5t33 134.5t45.5 113t50.5 89h47q-28 -48 -52.5 -100.5t-43 -113t-29.5 -129t-11 -147.5z" />
            <glyph glyph-name="parenright" unicode=")" horiz-adv-x="297"
           d="M175 320q0 79 -10.5 147.5t-29 129t-43 113t-52.5 100.5h46q25 -38 50.5 -89t45.5 -113t33 -134.5t13 -153.5t-13 -153.5t-33 -134.5t-45.5 -113t-50.5 -89h-46q28 48 52.5 100.5t43 113t29 129t10.5 147.5z" />
            <glyph glyph-name="asterisk" unicode="*" horiz-adv-x="433"
           d="M295 384l-80 138l-79 -138l-41 31l97 127l-146 41l16 48l138 -61l-10 165h51l-11 -165l140 61l16 -48l-147 -41l97 -127z" />
            <glyph glyph-name="plus" unicode="+"
           d="M306 511v-165h153v-49h-153v-163h-51v163h-154v49h154v165h51z" />
            <glyph glyph-name="comma" unicode="," horiz-adv-x="279"
           d="M178 6q0 -66 -29.5 -100t-74.5 -45v35q29 11 43 34.5t14 69.5h-27v79h74v-73z" />
            <glyph glyph-name="hyphen" unicode="-" horiz-adv-x="472"
           d="M389 298h-305v49h305v-49z" />
            <glyph glyph-name="period" unicode="." horiz-adv-x="284"
           d="M106 0v79h72v-79h-72z" />
            <glyph glyph-name="slash" unicode="/" horiz-adv-x="311"
           d="M84 -90h-50l192 825h50z" />
            <glyph glyph-name="zero" unicode="0"
           d="M279 31q78 0 118 77.5t40 241.5t-40 241.5t-118 77.5t-117 -77.5t-39 -241.5t39 -241.5t117 -77.5zM279 -15q-48 0 -87 21t-66.5 65t-42.5 113.5t-15 165.5q0 97 15.5 166t43 113.5t66.5 65t86 20.5t86.5 -21t67.5 -65.5t43.5 -113.5t15.5 -165t-15.5 -165t-43.5 -113.5
t-67 -65.5t-87 -21z" />
            <glyph glyph-name="one" unicode="1"
           d="M323 0v644l-141 -93v55l144 94h51v-700h-54z" />
            <glyph glyph-name="two" unicode="2"
           d="M85 531q11 86 65.5 135t138.5 49t135 -50t51 -138q0 -35 -8 -65t-24 -60t-40.5 -62.5t-58.5 -71.5l-186 -218h316v-50h-382v50l224 263q26 31 45.5 57.5t33 51.5t20.5 50.5t7 54.5q0 65 -33.5 103.5t-101.5 38.5q-64 0 -102.5 -38t-45.5 -100h-54z" />
            <glyph glyph-name="three" unicode="3"
           d="M281 31q74 0 114 42t40 116q0 78 -40 117.5t-102 39.5h-62v48h60q57 0 92 38t35 101q0 66 -36.5 101t-99.5 35q-66 0 -102 -32.5t-47 -92.5h-54q13 80 65 125.5t140 45.5q41 0 75.5 -12t59 -34.5t38.5 -55.5t14 -75q0 -64 -30.5 -106.5t-86.5 -59.5q28 -5 52.5 -19
t43 -37t29 -55t10.5 -71q0 -46 -14 -84t-41 -65t-65.5 -41.5t-87.5 -14.5q-89 0 -144 46t-66 128h55q11 -63 49.5 -95.5t105.5 -32.5z" />
            <glyph glyph-name="four" unicode="4"
           d="M400 700v-522h93v-46h-93v-132h-53v132h-280v53l277 515h56zM347 178v437l-230 -437h230z" />
            <glyph glyph-name="five" unicode="5"
           d="M275 -15q-85 0 -138 48t-67 129h55q12 -65 50.5 -98t100.5 -33q72 0 115 51t43 142q0 88 -40 136t-114 48q-29 0 -52 -7.5t-40.5 -19.5t-30 -26.5t-21.5 -28.5h-44l12 374h351v-47h-302q-2 -66 -4.5 -133t-4.5 -133q23 26 58 45.5t89 19.5q45 0 81.5 -15t62.5 -44t40 -72
t14 -98q0 -53 -15.5 -96.5t-43.5 -75t-67.5 -49t-87.5 -17.5z" />
            <glyph glyph-name="six" unicode="6"
           d="M291 455q44 0 79.5 -16t61 -46.5t39.5 -73.5t14 -97q0 -57 -15.5 -101t-42.5 -74t-63.5 -46t-78.5 -16q-59 0 -99.5 25.5t-65 70t-35 105.5t-10.5 133q0 118 17.5 195t47 121.5t68.5 62t82 17.5q67 0 115.5 -37t62.5 -101h-56q-12 44 -41.5 68.5t-80.5 24.5
q-35 0 -64 -15t-50.5 -52t-34 -101t-14.5 -161q21 52 63 83t101 31zM135 232q0 -32 7 -67t24 -64.5t46 -49t74 -19.5q31 0 57.5 12.5t46 36.5t30.5 58.5t11 78.5q0 92 -38 141.5t-110 49.5q-67 0 -107.5 -47t-40.5 -130z" />
            <glyph glyph-name="seven" unicode="7"
           d="M206 0h-56l269 652h-333v48h388v-48z" />
            <glyph glyph-name="eight" unicode="8"
           d="M476 542q0 -37 -11.5 -64.5t-29.5 -48t-41 -34.5t-46 -23q27 -9 53.5 -24.5t47.5 -38.5t34.5 -54.5t13.5 -73.5t-14.5 -78t-42.5 -62t-68 -41t-92 -15t-92.5 15t-68 40.5t-42 60.5t-14.5 75q0 45 12 77t32 55t45 37.5t51 23.5q-21 8 -42.5 22t-38.5 34.5t-27.5 48
t-10.5 63.5q0 45 15.5 78.5t42.5 55.5t62.5 33t75.5 11t75.5 -10t62.5 -31t42.5 -54t15.5 -78zM441 180q0 43 -15.5 73t-40.5 49.5t-55 31t-59 17.5q-29 -8 -56.5 -20.5t-49 -32.5t-34.5 -49t-13 -69q0 -68 43 -108.5t119 -40.5q74 0 117.5 40t43.5 109zM137 540
q0 -40 14 -67t35 -44t47 -26t50 -14q27 7 52 18.5t44.5 29t31.5 43t12 60.5q0 34 -11 59t-30.5 41t-45.5 23.5t-56 7.5q-29 0 -54.5 -7.5t-45.5 -23t-31.5 -40.5t-11.5 -60z" />
            <glyph glyph-name="nine" unicode="9"
           d="M269 245q-90 0 -142 60.5t-52 172.5q0 55 15 98.5t42 74.5t63.5 47.5t80.5 16.5q60 0 100 -25t64 -70t34.5 -106t10.5 -133q0 -118 -17 -194.5t-46.5 -121.5t-68.5 -62.5t-83 -17.5q-69 0 -117 37t-62 102h56q12 -45 42 -69.5t81 -24.5q35 0 64 14.5t50 52t34 100.5
t15 161q-22 -51 -63.5 -82t-100.5 -31zM425 468q0 32 -6.5 67.5t-23.5 65t-46 48.5t-74 19q-32 0 -58.5 -12.5t-46.5 -36t-31 -58t-11 -78.5q0 -93 39.5 -142.5t108.5 -49.5q68 0 108.5 47t40.5 130z" />
            <glyph glyph-name="colon" unicode=":" horiz-adv-x="284"
           d="M106 0v79h72v-79h-72zM106 441v79h72v-79h-72z" />
            <glyph glyph-name="semicolon" unicode=";" horiz-adv-x="279"
           d="M106 440v80h72v-80h-72zM178 6q0 -66 -29.5 -100t-74.5 -45v35q29 11 43 34.5t14 69.5h-27v79h74v-73z" />
            <glyph glyph-name="less" unicode="&#x3c;"
           d="M158 323v-2l300 -166v-56l-357 199v48l357 199v-56z" />
            <glyph glyph-name="equal" unicode="="
           d="M459 193h-358v49h358v-49zM459 402h-358v49h358v-49z" />
            <glyph glyph-name="greater" unicode="&#x3e;"
           d="M402 321v2l-301 166v56l357 -199v-48l-357 -199v56z" />
            <glyph glyph-name="question" unicode="?" horiz-adv-x="455"
           d="M47 562q10 76 59.5 124.5t134.5 48.5q43 0 76.5 -12.5t56.5 -34.5t35 -51.5t12 -63.5q0 -26 -5 -48t-17.5 -45.5t-34.5 -50t-55 -61.5q-18 -19 -28.5 -35t-16.5 -34t-7.5 -40.5t-1.5 -55.5h-53q0 41 2.5 69.5t10 50.5t22 41.5t38.5 43.5t41.5 44.5t28.5 39.5t16 38t5 42
q0 50 -32 83.5t-94 33.5q-60 0 -94 -35t-42 -92h-57zM195 0v79h68v-79h-68z" />
            <glyph glyph-name="at" unicode="@" horiz-adv-x="807"
           d="M593 102q-22 0 -38.5 8.5t-28.5 23t-18.5 33.5t-7.5 40q-5 -14 -16.5 -31t-29.5 -32t-41 -25.5t-51 -10.5t-53.5 11.5t-45 34t-31 56.5t-11.5 80q0 61 14 110t39 83.5t59 53.5t73 19q31 0 62.5 -19t45.5 -57q4 17 7.5 34.5t6.5 34.5h39l-31 -284q-2 -11 -2.5 -18.5
t-0.5 -15.5q0 -42 16 -64t43 -22q49 0 82 63.5t33 186.5q0 65 -20.5 119t-58.5 93t-92 61t-122 22q-51 0 -107 -19.5t-102 -63.5t-76 -115.5t-30 -174.5q0 -88 26.5 -154t71 -110.5t102 -67t120.5 -22.5q38 0 73.5 7t61.5 17l8 -44q-27 -11 -65 -18.5t-82 -7.5
q-69 0 -135 25t-117.5 75t-83 125t-31.5 175q0 114 34.5 194t87.5 129.5t118 72t126 22.5q76 0 139.5 -25.5t109 -71t70.5 -107.5t25 -135q0 -66 -12.5 -120.5t-34.5 -93t-52 -59.5t-66 -21zM372 152q57 0 93 60t36 181q0 63 -27 92t-65 29q-28 0 -53 -15t-44 -43.5
t-30.5 -69.5t-11.5 -94q0 -72 28.5 -106t73.5 -34z" />
            <glyph glyph-name="A" unicode="A" horiz-adv-x="581"
           d="M513 0l-68 204h-312l-69 -204h-58l250 720h69l250 -720h-62zM149 251h279l-138 415z" />
            <glyph glyph-name="B" unicode="B" horiz-adv-x="558"
           d="M283 720q102 0 155 -47t53 -130q0 -27 -8 -53t-23.5 -47.5t-37.5 -37.5t-49 -23q30 -5 56 -20t45 -38.5t30 -54.5t11 -67q0 -46 -14 -83t-42.5 -63.5t-71.5 -41t-102 -14.5h-215v720h213zM126 356v-309h166q81 0 123 40t42 115q0 70 -42 112t-117 42h-172zM126 674v-272
h169q69 0 104 40t35 100q0 62 -37 97t-109 35h-162z" />
            <glyph glyph-name="C" unicode="C" horiz-adv-x="630"
           d="M331 33q89 0 141.5 53t61.5 153h55q-5 -56 -24 -102.5t-52 -80t-78.5 -52.5t-102.5 -19q-66 0 -119.5 25.5t-90.5 73.5t-57 116t-20 154q0 94 21 165t58.5 119t90 72.5t114.5 24.5q52 0 96.5 -15.5t79 -45.5t57 -73t28.5 -98h-56q-14 94 -67.5 139t-137.5 45
q-51 0 -93 -21t-71.5 -63t-46 -104.5t-16.5 -144.5q0 -77 17 -136.5t47.5 -100.5t72.5 -62.5t92 -21.5z" />
            <glyph glyph-name="D" unicode="D" horiz-adv-x="601"
           d="M248 720q70 0 127 -23t97.5 -68t62.5 -112.5t22 -155.5q0 -86 -23 -153t-64 -113.5t-98.5 -70.5t-126.5 -24h-175v720h178zM126 673v-625h123q55 0 101 20t79.5 59.5t52 98t18.5 135.5q0 79 -18.5 137.5t-52 97.5t-79.5 58t-101 19h-123z" />
            <glyph glyph-name="E" unicode="E" horiz-adv-x="494"
           d="M421 342h-295v-294h320v-48h-376v720h376v-48h-320v-282h295v-48z" />
            <glyph glyph-name="F" unicode="F" horiz-adv-x="483"
           d="M439 720v-49h-314v-301h283v-48h-283v-322h-55v720h369z" />
            <glyph glyph-name="G" unicode="G" horiz-adv-x="640"
           d="M578 0h-40l-7 119q-29 -63 -80.5 -98.5t-124.5 -35.5q-60 0 -111.5 24t-89 71t-59 117t-21.5 163q0 92 21 162t58.5 117.5t89.5 71.5t114 24q104 0 169 -56.5t83 -154.5h-56q-35 163 -195 163q-49 0 -90.5 -20t-72 -60.5t-47.5 -102t-17 -144.5q0 -81 17.5 -142
t48.5 -102.5t73 -62t90 -20.5q44 0 80.5 15.5t62.5 43t40.5 65t14.5 82.5v92h-201v47h250v-378z" />
            <glyph glyph-name="H" unicode="H" horiz-adv-x="602"
           d="M532 720v-720h-57v342h-349v-342h-56v720h56v-329h349v329h57z" />
            <glyph glyph-name="I" unicode="I" horiz-adv-x="196"
           d="M126 720v-720h-56v720h56z" />
            <glyph glyph-name="J" unicode="J" horiz-adv-x="460"
           d="M84 177q2 -69 37 -106.5t93 -37.5q59 0 92.5 41.5t33.5 126.5v519h55v-519q0 -101 -47.5 -158.5t-134.5 -57.5q-42 0 -76 14t-57.5 39t-36.5 60.5t-14 78.5h55z" />
            <glyph glyph-name="K" unicode="K" horiz-adv-x="529"
           d="M445 0l-319 355v-355h-56v720h56v-336l302 336h64l-311 -347l338 -373h-74z" />
            <glyph glyph-name="L" unicode="L" horiz-adv-x="483"
           d="M126 720v-670h321v-50h-377v720h56z" />
            <glyph glyph-name="M" unicode="M" horiz-adv-x="740"
           d="M348 0l-225 641v-641h-53v720h79l228 -654l216 654h76v-720h-53v636l-211 -636h-57z" />
            <glyph glyph-name="N" unicode="N" horiz-adv-x="624"
           d="M553 720v-720h-63l-368 643v-643h-52v720h68l366 -638v638h49z" />
            <glyph glyph-name="O" unicode="O" horiz-adv-x="661"
           d="M331 32q49 0 90.5 20t72 60.5t47.5 102t17 144.5q0 80 -16.5 141.5t-46.5 103t-72 63t-93 21.5t-93 -21.5t-72 -63t-46.5 -103t-16.5 -141.5q0 -82 17 -143t48 -102t72.5 -61.5t91.5 -20.5zM331 -15q-63 0 -115.5 24.5t-90.5 72t-59 117t-21 160.5t21 161.5t59 118
t90.5 72t114.5 24.5q61 0 113.5 -24.5t90.5 -72t60 -118t22 -161.5t-21.5 -160.5t-60 -117t-90.5 -72t-113 -24.5z" />
            <glyph glyph-name="P" unicode="P" horiz-adv-x="550"
           d="M278 720q112 0 172 -57.5t60 -163.5q0 -51 -16.5 -92t-47 -70t-74 -45t-98.5 -16h-148v-276h-56v720h208zM126 673v-349h152q84 0 129 47t45 128q0 85 -44.5 129.5t-125.5 44.5h-156z" />
            <glyph glyph-name="Q" unicode="Q" horiz-adv-x="661"
           d="M331 -15q-63 0 -115.5 24.5t-90.5 72t-59 117t-21 160.5t21 161.5t59 118t90.5 72t114.5 24.5q61 0 113.5 -24.5t90.5 -72t60 -118t22 -161.5q0 -106 -28 -181.5t-78 -122.5l101 -136l-48 -33l-93 139q-62 -40 -139 -40zM331 32q49 0 90.5 20t72 60.5t47.5 102t17 144.5
q0 80 -16.5 141.5t-46.5 103t-72 63t-93 21.5t-93 -21.5t-72 -63t-46.5 -103t-16.5 -141.5q0 -82 17 -143t48 -102t72.5 -61.5t91.5 -20.5z" />
            <glyph glyph-name="R" unicode="R" horiz-adv-x="552"
           d="M473 0q-45 74 -88 147.5t-88 148.5h-173v-296h-55v720h199q120 0 180.5 -55.5t60.5 -155.5q0 -69 -39 -124.5t-117 -77.5l185 -307h-65zM124 672v-329h157q81 0 125 45.5t44 119.5q0 78 -42.5 121t-123.5 43h-160z" />
            <glyph glyph-name="S" unicode="S" horiz-adv-x="567"
           d="M289 -15q-110 0 -174 51.5t-78 147.5h56q13 -78 63.5 -114.5t132.5 -36.5q91 0 134 38.5t43 109.5q0 32 -9 58t-32.5 48t-63.5 40t-102 34q-105 28 -150.5 75.5t-45.5 121.5q0 39 13.5 71.5t41 56t68.5 36.5t97 13q99 0 161.5 -47.5t77.5 -131.5h-57q-12 62 -57.5 96.5
t-124.5 34.5q-87 0 -125 -34.5t-38 -91.5q0 -29 7.5 -52t27 -42t53.5 -34.5t87 -29.5q63 -17 106.5 -38t70 -48t38.5 -60.5t12 -74.5q0 -89 -58 -143t-175 -54z" />
            <glyph glyph-name="T" unicode="T" horiz-adv-x="504"
           d="M490 670h-210v-670h-56v670h-210v50h476v-50z" />
            <glyph glyph-name="U" unicode="U" horiz-adv-x="615"
           d="M120 234q0 -45 13 -82t37 -63.5t58.5 -41t78.5 -14.5q43 0 78 14.5t59 41t37 63.5t13 82v486h55v-482q0 -53 -16 -99.5t-46.5 -80.5t-76 -53.5t-103.5 -19.5q-60 0 -105 19.5t-75.5 53.5t-46 80.5t-15.5 99.5v482h55v-486z" />
            <glyph glyph-name="V" unicode="V" horiz-adv-x="551"
           d="M64 720q53 -168 105 -333.5t106 -333.5l215 667h54l-232 -720h-75q-58 181 -115.5 360t-116.5 360h59z" />
            <glyph glyph-name="W" unicode="W" horiz-adv-x="837"
           d="M827 720l-172 -720h-71l-164 660l-163 -660h-74l-173 720h58l154 -657l164 657h73l161 -655l155 655h52z" />
            <glyph glyph-name="X" unicode="X" horiz-adv-x="541"
           d="M304 373l223 -373h-66l-190 329l-194 -329h-63l226 373l-209 347h66l177 -304l184 304h61z" />
            <glyph glyph-name="Y" unicode="Y" horiz-adv-x="548"
           d="M65 720l208 -385q54 97 106 192.5t105 192.5h58q-60 -110 -120.5 -219t-121.5 -219v-282h-54v283l-241 437h60z" />
            <glyph glyph-name="Z" unicode="Z" horiz-adv-x="557"
           d="M100 49h409v-49h-470v50l417 621h-397v49h459v-47z" />
            <glyph glyph-name="bracketleft" unicode="[" horiz-adv-x="234"
           d="M202 -170h-164v980h164v-46h-113v-888h113v-46z" />
            <glyph glyph-name="backslash" unicode="\" horiz-adv-x="291"
           d="M24 735h50l192 -825h-50z" />
            <glyph glyph-name="bracketright" unicode="]" horiz-adv-x="234"
           d="M32 -124h113v888h-113v46h163v-980h-163v46z" />
            <glyph glyph-name="asciicircum" unicode="^" horiz-adv-x="432"
           d="M91 400h-55l153 320h53l153 -320h-55l-125 271z" />
            <glyph glyph-name="underscore" unicode="_" horiz-adv-x="524"
           d="M500 -112h-476v49h476v-49z" />
            <glyph glyph-name="grave" unicode="`" horiz-adv-x="213"
           d="M187 598h-48l-113 137h71z" />
            <glyph glyph-name="a" unicode="a" horiz-adv-x="465"
           d="M53 386q6 67 54 108t127 41q81 0 125.5 -45t44.5 -126v-364h-44l-7 87q-20 -41 -60 -71.5t-104 -30.5q-70 0 -109.5 37.5t-39.5 103.5q0 69 39.5 113t138.5 60l132 21v50q0 58 -28.5 90t-89.5 32q-57 0 -88.5 -29t-36.5 -77h-54zM202 30q29 0 55.5 11.5t47 32t33 49
t12.5 62.5v92l-116 -19q-81 -13 -110.5 -45.5t-29.5 -83.5q0 -48 27.5 -73.5t80.5 -25.5z" />
            <glyph glyph-name="b" unicode="b" horiz-adv-x="510"
           d="M66 0v720h53v-296q23 50 61.5 80.5t98.5 30.5q88 0 139.5 -66.5t51.5 -202.5q0 -69 -14.5 -121.5t-40.5 -88t-62 -53.5t-80 -18q-60 0 -97.5 30t-58.5 79l-9 -94h-42zM415 267q0 117 -40 170t-110 53q-31 0 -58.5 -12.5t-48 -40t-32.5 -71t-12 -106.5q0 -115 39 -172.5
t111 -57.5q70 0 110.5 58t40.5 179z" />
            <glyph glyph-name="c" unicode="c" horiz-adv-x="474"
           d="M435 153q-6 -36 -21 -67t-39 -53.5t-56.5 -35t-72.5 -12.5q-46 0 -84 17t-65 51t-42 85t-15 118q0 69 15 121t42 87.5t64.5 53t82.5 17.5q77 0 127 -43.5t61 -115.5h-57q-9 54 -42 84t-88 30q-70 0 -110.5 -57.5t-40.5 -178.5q0 -57 11.5 -99.5t32 -70t48.5 -41t62 -13.5
q57 0 90 34t41 89h56z" />
            <glyph glyph-name="d" unicode="d" horiz-adv-x="510"
           d="M402 0l-10 98q-22 -51 -60.5 -82t-98.5 -31q-42 0 -77 17t-61 50.5t-40.5 84t-14.5 118.5q0 70 14.5 123t40.5 87.5t62 52t79 17.5q55 0 93.5 -28t61.5 -77v290h53v-720h-42zM95 255q0 -115 40.5 -170t109.5 -55q32 0 59.5 13t48 41t32 71.5t11.5 104.5
q0 115 -40.5 172.5t-110.5 57.5q-68 0 -109 -57t-41 -178z" />
            <glyph glyph-name="e" unicode="e" horiz-adv-x="502"
           d="M450 141q-17 -71 -65.5 -113.5t-127.5 -42.5q-48 0 -88 17.5t-68.5 52.5t-44.5 86t-16 119q0 67 15 118t43 86t66 53t85 18q46 0 84.5 -17.5t66 -52.5t43 -89.5t15.5 -127.5h-364q4 -113 48.5 -165.5t116.5 -52.5q57 0 90 29.5t45 81.5h56zM249 491q-66 0 -107 -50.5
t-47 -148.5h308q-5 100 -45.5 149.5t-108.5 49.5z" />
            <glyph glyph-name="f" unicode="f" horiz-adv-x="268"
           d="M273 678q-17 5 -35.5 8.5t-32.5 3.5q-62 0 -62 -80v-90h108v-46h-108v-474h-53v474h-67v46h67v88q0 61 28.5 94t82.5 33q37 0 72 -12v-45z" />
            <glyph glyph-name="g" unicode="g" horiz-adv-x="509"
           d="M115 -48q18 -104 136 -104q72 0 106 42t34 114v113q-23 -45 -60.5 -71.5t-94.5 -26.5q-41 0 -77 16.5t-62.5 48.5t-41.5 79.5t-15 109.5q0 63 14.5 112t40 82t61.5 50.5t80 17.5q56 0 95 -27.5t62 -76.5l8 89h43v-515q0 -44 -12 -80.5t-36 -63t-60 -41.5t-84 -15
q-88 0 -134.5 38t-58.5 109h56zM95 273q0 -103 41.5 -156t108.5 -53q33 0 60.5 11.5t47.5 36.5t31.5 65t11.5 97q0 111 -40.5 163.5t-110.5 52.5q-68 0 -109 -53t-41 -164z" />
            <glyph glyph-name="h" unicode="h" horiz-adv-x="486"
           d="M65 0v720h53v-285q47 100 149 100q75 0 116 -47.5t41 -136.5v-351h-53v349q0 71 -31.5 105.5t-85.5 34.5q-28 0 -52.5 -11.5t-43 -33.5t-29.5 -53t-11 -71v-320h-53z" />
            <glyph glyph-name="i" unicode="i" horiz-adv-x="184"
           d="M66 0v520h53v-520h-53zM61 647v73h62v-73h-62z" />
            <glyph glyph-name="j" unicode="j" horiz-adv-x="182"
           d="M-49 -138q14 -5 29.5 -8t25.5 -3q32 0 44.5 18.5t12.5 63.5v587h53v-590q0 -60 -24.5 -92.5t-76.5 -32.5q-14 0 -30.5 2.5t-33.5 8.5v46zM59 647v73h62v-73h-62z" />
            <glyph glyph-name="k" unicode="k" horiz-adv-x="433"
           d="M66 0v720h53v-414l216 214h67l-229 -226l258 -294h-69l-243 277v-277h-53z" />
            <glyph glyph-name="l" unicode="l" horiz-adv-x="184"
           d="M119 0h-53v720h53v-720z" />
            <glyph glyph-name="m" unicode="m" horiz-adv-x="750"
           d="M66 0v520h44l6 -82q23 51 59 74t80 23q50 0 85.5 -26.5t50.5 -76.5q23 54 62 78.5t87 24.5q73 0 110.5 -46t37.5 -132v-357h-53v353q0 72 -25.5 104.5t-80.5 32.5q-29 0 -52 -12.5t-39 -35t-25 -53.5t-9 -67v-322h-54v353q0 71 -24.5 104t-80.5 33q-28 0 -51.5 -12.5
t-40 -34.5t-25.5 -53t-9 -67v-323h-53z" />
            <glyph glyph-name="n" unicode="n" horiz-adv-x="486"
           d="M65 0v520h44q2 -23 3.5 -45t3.5 -45q49 105 151 105q75 0 116 -47t41 -137v-351h-53v349q0 70 -28.5 105t-88.5 35q-28 0 -52.5 -11.5t-43 -33t-29.5 -53t-11 -70.5v-321h-53z" />
            <glyph glyph-name="o" unicode="o" horiz-adv-x="503"
           d="M40 260q0 69 15.5 120.5t43 86t66.5 51.5t87 17q97 0 154 -69t57 -206q0 -136 -57 -205.5t-153 -69.5q-97 0 -155 69.5t-58 205.5zM94 260q0 -115 43 -173t115 -58q75 0 116 58t41 173q0 117 -41.5 174t-115.5 57t-116 -58t-42 -173z" />
            <glyph glyph-name="p" unicode="p" horiz-adv-x="510"
           d="M273 -15q-57 0 -94.5 28t-59.5 79v-272h-53v700h42l9 -96q23 51 62 81t99 30q89 0 140.5 -66.5t51.5 -202.5q0 -69 -14.5 -121.5t-41 -88t-62.5 -53.5t-79 -18zM415 267q0 115 -40 169t-110 54q-31 0 -58.5 -12.5t-48 -40t-32.5 -71t-12 -106.5q0 -115 39.5 -172.5
t109.5 -57.5t111 58t41 179z" />
            <glyph glyph-name="q" unicode="q" horiz-adv-x="510"
           d="M444 520v-700h-53v276q-23 -51 -61 -81t-96 -30q-42 0 -77.5 16.5t-61.5 50.5t-40.5 84.5t-14.5 118.5q0 70 14.5 123t40.5 87.5t61.5 52t78.5 17.5q58 0 96.5 -28.5t61.5 -78.5l9 92h42zM95 255q0 -115 41 -170t110 -55q31 0 58.5 13t47.5 41t32 71.5t12 104.5
q0 115 -40 172.5t-110 57.5q-68 0 -109.5 -57.5t-41.5 -177.5z" />
            <glyph glyph-name="r" unicode="r" horiz-adv-x="302"
           d="M66 0v520h43l8 -100q18 60 51 87.5t76 27.5q14 0 27 -2.5t21 -5.5v-52q-12 4 -24.5 6.5t-26.5 2.5q-25 0 -47 -13.5t-38.5 -39t-26.5 -63t-10 -84.5v-284h-53z" />
            <glyph glyph-name="s" unicode="s" horiz-adv-x="438"
           d="M220 29q64 0 94 28.5t30 72.5q0 49 -32.5 78t-113.5 46q-72 15 -111 49t-39 96q0 29 9.5 54t30 43t52 28.5t75.5 10.5q76 0 123 -39t57 -104h-54q-6 43 -39 71.5t-89 28.5q-62 0 -86.5 -25.5t-24.5 -62.5q0 -22 6 -38.5t20.5 -29t38.5 -22.5t60 -18q94 -22 132.5 -61
t38.5 -102q0 -64 -45 -106t-134 -42q-87 0 -133 42t-54 111h55q5 -51 37.5 -80t95.5 -29z" />
            <glyph glyph-name="t" unicode="t" horiz-adv-x="269"
           d="M138 474v-370q0 -74 58 -74q12 0 25 2t30 7v-44q-30 -10 -60 -10q-54 0 -80 30.5t-26 89.5v369h-67v46h67l3 125h50v-125h105v-46h-105z" />
            <glyph glyph-name="u" unicode="u" horiz-adv-x="483"
           d="M115 520v-352q0 -72 29 -105t87 -33q61 0 97 47.5t36 123.5v319h53v-520h-44l-6 82q-24 -51 -63 -74t-86 -23q-72 0 -114 44.5t-42 138.5v352h53z" />
            <glyph glyph-name="v" unicode="v" horiz-adv-x="439"
           d="M425 520l-170 -520h-70l-171 520h58l148 -471l151 471h54z" />
            <glyph glyph-name="w" unicode="w" horiz-adv-x="680"
           d="M661 520l-131 -520h-65l-124 464l-119 -464h-66l-137 520h54l118 -463l118 463h67l122 -461l110 461h53z" />
            <glyph glyph-name="x" unicode="x" horiz-adv-x="451"
           d="M254 275l183 -275h-64l-151 235l-146 -235h-62l177 273l-168 247h64l137 -207l127 207h60z" />
            <glyph glyph-name="y" unicode="y" horiz-adv-x="440"
           d="M425 520q-42 -132 -81.5 -262.5t-79.5 -261.5q-17 -53 -30.5 -89.5t-27.5 -59t-31.5 -32.5t-41.5 -10q-12 0 -25 3t-25 7v44q25 -9 46 -9q14 0 24.5 7.5t19.5 25t18.5 46.5t21.5 71h-20l-179 520h57l158 -476l142 476h54z" />
            <glyph glyph-name="z" unicode="z" horiz-adv-x="422"
           d="M87 46h303v-46h-358v52l305 423h-292v45h345v-53z" />
            <glyph glyph-name="braceleft" unicode="{" horiz-adv-x="297"
           d="M42 346q36 0 58.5 24.5t22.5 72.5v189q0 42 5.5 75t20.5 56t41.5 35t68.5 12v-45q-51 0 -67.5 -24.5t-16.5 -69.5v-187q0 -69 -16.5 -110.5t-62.5 -52.5q45 -13 62 -54t17 -110v-186q0 -45 16.5 -69.5t67.5 -24.5v-45q-42 0 -68.5 12t-41.5 35t-20.5 55.5t-5.5 74.5v189
q0 48 -22.5 72.5t-58.5 24.5v51z" />
            <glyph glyph-name="bar" unicode="|" horiz-adv-x="302"
           d="M175 785v-925h-48v925h48z" />
            <glyph glyph-name="braceright" unicode="}" horiz-adv-x="297"
           d="M255 296q-36 0 -59 -24.5t-23 -72.5v-223q0 -69 -31 -106.5t-104 -37.5v44q50 0 67 25t17 70v221q0 54 22 86.5t57 42.5q-35 10 -57 42.5t-22 86.5v221q0 45 -17 70t-67 25v44q73 0 104 -37.5t31 -106.5v-223q0 -48 23 -72.5t59 -24.5v-50z" />
            <glyph glyph-name="asciitilde" unicode="~"
           d="M362 273q-27 0 -48 9t-40 20t-37.5 20t-40.5 9q-29 0 -51 -13t-44 -35v56q18 16 42 28t55 12q27 0 48 -9t40 -20t37.5 -20t40.5 -9q29 0 51.5 13t43.5 35v-56q-17 -15 -41 -27.5t-56 -12.5z" />
            <glyph glyph-name="uni00A0" unicode="&#xa0;" horiz-adv-x="260"
            />
            <glyph glyph-name="exclamdown" unicode="&#xa1;" horiz-adv-x="230"
           d="M139 314l5 -494h-62l6 494h51zM150 540v-79h-70v79h70z" />
            <glyph glyph-name="cent" unicode="&#xa2;"
           d="M259 -13q-78 9 -127 76.5t-49 192.5q0 64 13 113t36.5 84t56 55t70.5 25v127h49v-127q68 -5 111.5 -47t54.5 -110h-56q-9 54 -43.5 84t-85.5 30q-66 0 -109 -58t-43 -178q0 -57 12 -99.5t32.5 -70t48 -41t59.5 -13.5q53 0 88.5 34t43.5 89h56q-11 -69 -55 -114.5
t-114 -51.5v-122h-49v122z" />
            <glyph glyph-name="sterling" unicode="&#xa3;"
           d="M379 327h-187v-172q0 -31 -11 -59t-37 -48h334v-48h-400v48q61 26 61 109v170h-40v46h40v151q0 94 46.5 142.5t121.5 48.5q66 0 111 -39.5t58 -105.5h-53q-10 44 -39 71.5t-76 27.5q-57 0 -86.5 -38t-29.5 -108v-150h187v-46z" />
            <glyph glyph-name="currency" unicode="&#xa4;"
           d="M77 340q0 80 37 140l-54 59l34 33l49 -54q26 26 60.5 40t76.5 14t75.5 -14.5t59.5 -39.5l50 54l34 -33l-55 -59q19 -29 28.5 -65t9.5 -75q0 -83 -40 -143l57 -60l-34 -33l-52 56q-25 -25 -58.5 -38.5t-74.5 -13.5q-42 0 -76 13.5t-59 37.5l-51 -55l-34 33l55 60
q-19 29 -28.5 65.5t-9.5 77.5zM125 340q0 -38 10 -72t30 -59.5t48.5 -40.5t66.5 -15q37 0 65.5 15t48 40.5t30 59.5t10.5 72q0 37 -10.5 71t-30 60t-48 41t-65.5 15q-38 0 -66.5 -15t-48.5 -41t-30 -60t-10 -71z" />
            <glyph glyph-name="yen" unicode="&#xa5;"
           d="M436 144h-130v-144h-54v144h-128v44h128v94h-128v44h104l-204 374h61l194 -364l200 364h56q-52 -94 -102.5 -187t-101.5 -187h105v-44h-130v-94h130v-44z" />
            <glyph glyph-name="brokenbar" unicode="&#xa6;" horiz-adv-x="302"
           d="M175 785v-385h-48v385h48zM175 245v-385h-48v385h48z" />
            <glyph glyph-name="section" unicode="&#xa7;"
           d="M100 315q0 51 27.5 87t80.5 53q-39 23 -59 52t-20 69q0 63 41 101t113 38q65 0 108 -33.5t54 -84.5h-55q-9 33 -37 53.5t-70 20.5q-49 0 -75 -26t-26 -64q0 -42 26.5 -66t83.5 -44q47 -17 79 -34.5t51.5 -37t28 -42t8.5 -48.5q0 -52 -29 -88t-81 -53q39 -23 59.5 -52
t20.5 -69q0 -63 -42.5 -100t-111.5 -37q-33 0 -60.5 9.5t-49 25.5t-36 37.5t-20.5 45.5h56q8 -31 37 -52.5t74 -21.5q46 0 73 26t27 62q0 42 -27 66.5t-83 44.5q-48 17 -80 34.5t-51 37t-27 42t-8 48.5zM289 193q2 0 3.5 -0.5t3.5 -0.5q22 0 41.5 9.5t34.5 25t24 36t9 42.5
t-6.5 38.5t-21 30t-39 25.5t-60.5 26l-22 9q-48 -11 -75.5 -39t-27.5 -77q0 -23 7 -39.5t22.5 -31t41.5 -27t65 -27.5z" />
            <glyph glyph-name="dieresis" unicode="&#xa8;" horiz-adv-x="332"
           d="M44 651v69h60v-69h-60zM223 651v69h60v-69h-60z" />
            <glyph glyph-name="copyright" unicode="&#xa9;" horiz-adv-x="746"
           d="M94 360q0 -87 24 -150t63 -104t89 -60.5t103 -19.5t103 19.5t89 60.5t62.5 104t23.5 150t-23.5 150t-62.5 104t-89 60.5t-103 19.5t-103.5 -19.5t-89.5 -60.5t-62.5 -104t-23.5 -150zM696 360q0 -98 -28.5 -169t-74 -117t-103.5 -67.5t-117 -21.5q-60 0 -117.5 21.5
t-103.5 67.5t-74 117t-28 169t28 169t74 116.5t103.5 67.5t117.5 22q59 0 117 -22t103.5 -67.5t74 -116.5t28.5 -169zM520 283q-9 -55 -46 -92t-100 -37q-32 0 -60.5 12t-51 37.5t-35.5 64.5t-13 92q0 55 12.5 95t34.5 66.5t51 39t61 12.5q60 0 98 -33t47 -90h-47
q-8 39 -32 61.5t-65 22.5q-49 0 -81.5 -42t-32.5 -132q0 -45 9.5 -76.5t25.5 -51.5t36.5 -29t43.5 -9q43 0 67 25.5t31 63.5h47z" />
            <glyph glyph-name="ordfeminine" unicode="&#xaa;" horiz-adv-x="404"
           d="M73 632q7 50 44 76.5t88 26.5q60 0 94.5 -34t34.5 -96v-299h-36l-8 62q-14 -29 -42 -49.5t-69 -20.5q-51 0 -83.5 29.5t-32.5 86.5t34.5 91t97.5 45l91 15v40q0 42 -19.5 66.5t-63.5 24.5q-35 0 -56 -17t-25 -47h-49zM347 0h-290v49h290v-49zM190 338q20 0 37.5 9.5
t30.5 25t20.5 35.5t7.5 42v74l-78 -12q-47 -8 -72 -30.5t-25 -64.5q0 -41 21.5 -60t57.5 -19z" />
            <glyph glyph-name="guillemotleft" unicode="&#xab;" horiz-adv-x="419"
           d="M54 315l106 205h41l-86 -207l77 -223h-41zM218 315l106 205h40l-86 -207l77 -223h-40z" />
            <glyph glyph-name="logicalnot" unicode="&#xac;"
           d="M459 347v-228h-51v179h-307v49h358z" />
            <glyph glyph-name="uni00AD" unicode="&#xad;" horiz-adv-x="439"
           d="M378 298h-317v49h317v-49z" />
            <glyph glyph-name="registered" unicode="&#xae;" horiz-adv-x="545"
           d="M482 493q0 -63 -19 -108t-49 -74t-67.5 -42.5t-74.5 -13.5q-36 0 -73.5 13.5t-67.5 42.5t-49 74t-19 108t19 108t49 74t67.5 42.5t73.5 13.5q37 0 74.5 -13.5t67.5 -42.5t49 -74t19 -108zM98 493q0 -52 15 -90.5t39 -64t55.5 -38t64.5 -12.5t64.5 12.5t56 38t39.5 64
t15 90.5t-15 90.5t-39.5 64t-56 38t-64.5 12.5t-64.5 -12.5t-55.5 -38t-39 -64t-15 -90.5zM329 366l-52 101h-42v-101h-30v257h67q33 0 57.5 -18t24.5 -57q0 -24 -11 -44t-36 -30l57 -108h-35zM235 595v-100h39q23 0 35.5 16.5t12.5 36.5t-12.5 33.5t-38.5 13.5h-36z" />
            <glyph glyph-name="macron" unicode="&#xaf;" horiz-adv-x="266"
           d="M26 653v46h213v-46h-213z" />
            <glyph glyph-name="degree" unicode="&#xb0;" horiz-adv-x="556"
           d="M126 552q0 -56 26 -87.5t67 -31.5t66.5 31.5t25.5 87.5t-25.5 87.5t-66.5 31.5t-67 -31.5t-26 -87.5zM359 552q0 -39 -11.5 -69t-31 -50t-45 -30.5t-52.5 -10.5q-28 0 -53 10.5t-44.5 30.5t-31 50t-11.5 69t11.5 69t31 50t44.5 30.5t53 10.5q27 0 52.5 -10.5t45 -30.5
t31 -50t11.5 -69z" />
            <glyph glyph-name="plusminus" unicode="&#xb1;"
           d="M305 510v-163h154v-49h-154v-160h-50v160h-154v49h154v163h50zM459 0h-358v49h358v-49z" />
            <glyph glyph-name="twosuperior" unicode="&#xb2;" horiz-adv-x="344"
           d="M38 624q7 56 43.5 88.5t91.5 32.5t90 -33t35 -90q0 -22 -5.5 -41.5t-17 -39.5t-29 -41.5t-42.5 -48.5l-98 -110h189v-47h-250v47l129 147q38 42 55 71t17 62q0 37 -18 58.5t-55 21.5q-35 0 -56.5 -20.5t-25.5 -56.5h-53z" />
            <glyph glyph-name="threesuperior" unicode="&#xb3;" horiz-adv-x="358"
           d="M177 745q52 0 87.5 -28.5t35.5 -86.5q0 -38 -19.5 -64.5t-56.5 -37.5q38 -7 62.5 -35.5t24.5 -78.5q0 -58 -35.5 -93.5t-99.5 -35.5q-60 0 -95.5 31t-42.5 84h51q7 -35 27.5 -53.5t58.5 -18.5q42 0 63.5 24t21.5 63q0 48 -23.5 69t-56.5 21h-35v42h35q29 0 48.5 20
t19.5 59q0 38 -20.5 56.5t-53.5 18.5q-35 0 -54 -18t-24 -50h-52q8 51 42 81.5t91 30.5z" />
            <glyph glyph-name="acute" unicode="&#xb4;" horiz-adv-x="213"
           d="M116 735h71l-113 -137h-48z" />
            <glyph glyph-name="mu" unicode="&#xb5;" horiz-adv-x="487"
           d="M119 520v-352q0 -72 29.5 -105t86.5 -33q61 0 97 47.5t36 123.5v319h53v-520h-44l-6 82q-24 -51 -63 -74t-86 -23q-66 0 -103 40v-205h-53v700h53z" />
            <glyph glyph-name="paragraph" unicode="&#xb6;" horiz-adv-x="502"
           d="M194 -180v569q-18 0 -41.5 8t-44.5 27t-36 51t-15 79q0 37 11 68t29.5 52.5t44 33.5t54.5 12h46v-900h-48zM416 720v-900h-49v900h49z" />
            <glyph glyph-name="periodcentered" unicode="&#xb7;" horiz-adv-x="284"
           d="M106 281v79h72v-79h-72z" />
            <glyph glyph-name="cedilla" unicode="&#xb8;" horiz-adv-x="257"
           d="M233 -143q0 -41 -27.5 -69.5t-78.5 -28.5q-45 0 -73 23t-33 64h45q2 -22 17.5 -35.5t43.5 -13.5q32 0 47.5 16.5t15.5 42.5q0 30 -21.5 46.5t-72.5 16.5l7 97h37v-67q45 -4 69 -29t24 -63z" />
            <glyph glyph-name="onesuperior" unicode="&#xb9;" horiz-adv-x="205"
           d="M159 294h-51v389l-91 -55v50l93 57h49v-441z" />
            <glyph glyph-name="ordmasculine" unicode="&#xba;" horiz-adv-x="372"
           d="M37 516q0 116 41.5 167.5t108.5 51.5q66 0 107 -51t41 -168q0 -59 -11 -100t-30.5 -67.5t-47 -38.5t-59.5 -12q-33 0 -60.5 12t-47.5 38t-31 67.5t-11 100.5zM86 516q0 -98 28 -138t73 -40t72 39.5t27 138.5q0 98 -27 138.5t-72 40.5t-73 -41t-28 -138zM324 0h-284v49
h284v-49z" />
            <glyph glyph-name="guillemotright" unicode="&#xbb;" horiz-adv-x="419"
           d="M267 90h-41l78 223l-86 207h40l106 -205zM103 90h-40l77 223l-86 207h40l107 -205z" />
            <glyph glyph-name="onequarter" unicode="&#xbc;" horiz-adv-x="804"
           d="M152 -90l413 880h51l-413 -880h-51zM192 294h-51v389l-91 -55v50l93 57h49v-441zM696 127h58v-43h-58v-83h-46v83h-174v49l168 309h52v-315zM520 127h130v244z" />
            <glyph glyph-name="onehalf" unicode="&#xbd;" horiz-adv-x="826"
           d="M152 -90l413 880h51l-413 -880h-51zM192 294h-51v389l-91 -55v50l93 57h49v-441zM516 331q7 56 43.5 88.5t91.5 32.5t90 -33t35 -90q0 -22 -5.5 -41.5t-17 -39.5t-29 -41.5t-42.5 -48.5l-98 -110h189v-47h-250v47l129 147q38 42 55 71t17 62q0 37 -18 58.5t-55 21.5
q-35 0 -56.5 -20.5t-25.5 -56.5h-53z" />
            <glyph glyph-name="threequarters" unicode="&#xbe;" horiz-adv-x="883"
           d="M231 -90l413 880h51l-413 -880h-51zM189 745q52 0 87.5 -28.5t35.5 -86.5q0 -38 -19.5 -64.5t-56.5 -37.5q38 -7 62.5 -35.5t24.5 -78.5q0 -58 -35.5 -93.5t-99.5 -35.5q-60 0 -95.5 31t-42.5 84h51q7 -35 27.5 -53.5t58.5 -18.5q42 0 63.5 24t21.5 63q0 48 -23.5 69
t-56.5 21h-35v42h35q29 0 48.5 20t19.5 59q0 38 -20.5 56.5t-53.5 18.5q-35 0 -54 -18t-24 -50h-52q8 51 42 81.5t91 30.5zM775 127h58v-43h-58v-83h-46v83h-174v49l168 309h52v-315zM599 127h130v244z" />
            <glyph glyph-name="questiondown" unicode="&#xbf;" horiz-adv-x="455"
           d="M408 -22q-5 -38 -20 -69.5t-40 -54.5t-58.5 -36t-75.5 -13q-43 0 -76.5 12.5t-56 34.5t-34.5 51.5t-12 63.5q0 26 5 48t17.5 45.5t34.5 50t55 61.5q18 19 28.5 35t16 34t7 40.5t1.5 55.5h53q0 -41 -2.5 -69.5t-10 -50.5t-22 -41.5t-38.5 -43.5t-41.5 -44.5t-28 -39.5
t-15.5 -38.5t-5 -41.5q0 -50 31.5 -83.5t93.5 -33.5q60 0 94 35t42 92h57zM261 540v-79h-69v79h69z" />
            <glyph glyph-name="Agrave" unicode="&#xc0;" horiz-adv-x="581"
           d="M513 0l-68 204h-312l-69 -204h-58l250 720h69l250 -720h-62zM149 251h279l-138 415zM342 768h-48l-113 137h71z" />
            <glyph glyph-name="Aacute" unicode="&#xc1;" horiz-adv-x="581"
           d="M513 0l-68 204h-312l-69 -204h-58l250 720h69l250 -720h-62zM149 251h279l-138 415zM323 905h71l-113 -137h-48z" />
            <glyph glyph-name="Acircumflex" unicode="&#xc2;" horiz-adv-x="581"
           d="M513 0l-68 204h-312l-69 -204h-58l250 720h69l250 -720h-62zM149 251h279l-138 415zM414 768h-52l-73 103l-73 -103h-52l96 137h59z" />
            <glyph glyph-name="Atilde" unicode="&#xc3;" horiz-adv-x="581"
           d="M513 0l-68 204h-312l-69 -204h-58l250 720h69l250 -720h-62zM149 251h279l-138 415zM338 798q-18 0 -30.5 5.5t-22.5 11.5t-20.5 11.5t-25.5 5.5q-29 0 -67 -34v48q18 15 34 22.5t36 7.5q18 0 30.5 -5.5t22.5 -11.5t20 -11.5t25 -5.5q29 0 66 34v-48q-18 -15 -33.5 -22.5
t-34.5 -7.5z" />
            <glyph glyph-name="Adieresis" unicode="&#xc4;" horiz-adv-x="581"
           d="M513 0l-68 204h-312l-69 -204h-58l250 720h69l250 -720h-62zM149 251h279l-138 415zM170 821v69h60v-69h-60zM349 821v69h60v-69h-60z" />
            <glyph glyph-name="Aring" unicode="&#xc5;" horiz-adv-x="581"
           d="M394 808q0 -39 -16.5 -67.5t-45.5 -40.5l243 -700h-62l-68 204h-312l-69 -204h-58l242 698q-31 11 -48.5 40t-17.5 70q0 51 28 83.5t78 32.5q51 0 78.5 -32.5t27.5 -83.5zM149 251h279l-138 415zM223 808q0 -38 17.5 -59.5t47.5 -21.5q31 0 48.5 21.5t17.5 59.5t-17 59.5
t-49 21.5q-30 0 -47.5 -21.5t-17.5 -59.5z" />
            <glyph glyph-name="AE" unicode="&#xc6;" horiz-adv-x="819"
           d="M745 342h-277v-294h302v-48h-358v204h-248l-106 -204h-58l377 720h393v-49h-302v-281h277v-48zM412 250v427l-221 -427h221z" />
            <glyph glyph-name="Ccedilla" unicode="&#xc7;" horiz-adv-x="630"
           d="M442 -143q0 -41 -27.5 -69.5t-78.5 -28.5q-45 0 -73 23t-32 64h44q2 -22 17.5 -35.5t44.5 -13.5q31 0 46.5 16.5t15.5 42.5q0 30 -21.5 46.5t-72.5 16.5l5 67q-62 4 -111 31.5t-83 75t-52.5 113.5t-18.5 148q0 94 21 165t58.5 119t90 72.5t114.5 24.5q52 0 96.5 -15.5
t79 -45.5t57 -73t28.5 -98h-56q-14 94 -67.5 139t-137.5 45q-51 0 -93 -21t-71.5 -63t-46 -104.5t-16.5 -144.5q0 -77 17 -136.5t47.5 -100.5t72.5 -62.5t92 -21.5q89 0 141.5 53t61.5 153h55q-5 -53 -23 -98.5t-48.5 -79t-73 -53t-94.5 -22.5v-37q45 -4 68.5 -29t23.5 -63z
" />
            <glyph glyph-name="Egrave" unicode="&#xc8;" horiz-adv-x="494"
           d="M421 342h-295v-294h320v-48h-376v720h376v-48h-320v-282h295v-48zM321 768h-48l-113 137h71z" />
            <glyph glyph-name="Eacute" unicode="&#xc9;" horiz-adv-x="494"
           d="M421 342h-295v-294h320v-48h-376v720h376v-48h-320v-282h295v-48zM290 905h71l-113 -137h-48z" />
            <glyph glyph-name="Ecircumflex" unicode="&#xca;" horiz-adv-x="494"
           d="M421 342h-295v-294h320v-48h-376v720h376v-48h-320v-282h295v-48zM384 768h-52l-73 103l-73 -103h-52l96 137h59z" />
            <glyph glyph-name="Edieresis" unicode="&#xcb;" horiz-adv-x="494"
           d="M421 342h-295v-294h320v-48h-376v720h376v-48h-320v-282h295v-48zM134 821v69h60v-69h-60zM313 821v69h60v-69h-60z" />
            <glyph glyph-name="Igrave" unicode="&#xcc;" horiz-adv-x="196"
           d="M126 720v-720h-56v720h56zM153 768h-48l-113 137h71z" />
            <glyph glyph-name="Iacute" unicode="&#xcd;" horiz-adv-x="196"
           d="M126 720v-720h-56v720h56zM134 905h71l-113 -137h-48z" />
            <glyph glyph-name="Icircumflex" unicode="&#xce;" horiz-adv-x="196"
           d="M126 720v-720h-56v720h56zM224 768h-52l-73 103l-73 -103h-52l96 137h59z" />
            <glyph glyph-name="Idieresis" unicode="&#xcf;" horiz-adv-x="196"
           d="M126 720v-720h-56v720h56zM-21 821v69h60v-69h-60zM158 821v69h60v-69h-60z" />
            <glyph glyph-name="Eth" unicode="&#xd0;" horiz-adv-x="602"
           d="M248 720q70 0 127 -23t97.5 -68t62.5 -112.5t22 -155.5q0 -86 -23 -153t-64 -113.5t-98 -70.5t-126 -24h-176v354h-49v49h49v317h178zM126 673v-270h195v-49h-195v-306h124q55 0 101 20t79.5 59.5t52 98t18.5 135.5q0 79 -18.5 137.5t-52 97.5t-80 58t-101.5 19h-123z
" />
            <glyph glyph-name="Ntilde" unicode="&#xd1;" horiz-adv-x="624"
           d="M553 720v-720h-63l-368 643v-643h-52v720h68l366 -638v638h49zM369 798q-18 0 -30.5 5.5t-22.5 11.5t-20.5 11.5t-25.5 5.5q-29 0 -67 -34v48q18 15 34 22.5t36 7.5q18 0 30.5 -5.5t22.5 -11.5t20 -11.5t25 -5.5q29 0 66 34v-48q-18 -15 -33.5 -22.5t-34.5 -7.5z" />
            <glyph glyph-name="Ograve" unicode="&#xd2;" horiz-adv-x="661"
           d="M331 32q49 0 90.5 20t72 60.5t47.5 102t17 144.5q0 80 -16.5 141.5t-46.5 103t-72 63t-93 21.5t-93 -21.5t-72 -63t-46.5 -103t-16.5 -141.5q0 -82 17 -143t48 -102t72.5 -61.5t91.5 -20.5zM331 -15q-63 0 -115.5 24.5t-90.5 72t-59 117t-21 160.5t21 161.5t59 118
t90.5 72t114.5 24.5q61 0 113.5 -24.5t90.5 -72t60 -118t22 -161.5t-21.5 -160.5t-60 -117t-90.5 -72t-113 -24.5zM375 768h-48l-113 137h71z" />
            <glyph glyph-name="Oacute" unicode="&#xd3;" horiz-adv-x="661"
           d="M331 32q49 0 90.5 20t72 60.5t47.5 102t17 144.5q0 80 -16.5 141.5t-46.5 103t-72 63t-93 21.5t-93 -21.5t-72 -63t-46.5 -103t-16.5 -141.5q0 -82 17 -143t48 -102t72.5 -61.5t91.5 -20.5zM331 -15q-63 0 -115.5 24.5t-90.5 72t-59 117t-21 160.5t21 161.5t59 118
t90.5 72t114.5 24.5q61 0 113.5 -24.5t90.5 -72t60 -118t22 -161.5t-21.5 -160.5t-60 -117t-90.5 -72t-113 -24.5zM370 905h71l-113 -137h-48z" />
            <glyph glyph-name="Ocircumflex" unicode="&#xd4;" horiz-adv-x="661"
           d="M331 32q49 0 90.5 20t72 60.5t47.5 102t17 144.5q0 80 -16.5 141.5t-46.5 103t-72 63t-93 21.5t-93 -21.5t-72 -63t-46.5 -103t-16.5 -141.5q0 -82 17 -143t48 -102t72.5 -61.5t91.5 -20.5zM331 -15q-63 0 -115.5 24.5t-90.5 72t-59 117t-21 160.5t21 161.5t59 118
t90.5 72t114.5 24.5q61 0 113.5 -24.5t90.5 -72t60 -118t22 -161.5t-21.5 -160.5t-60 -117t-90.5 -72t-113 -24.5zM453 768h-52l-73 103l-73 -103h-52l96 137h59z" />
            <glyph glyph-name="Otilde" unicode="&#xd5;" horiz-adv-x="661"
           d="M331 32q49 0 90.5 20t72 60.5t47.5 102t17 144.5q0 80 -16.5 141.5t-46.5 103t-72 63t-93 21.5t-93 -21.5t-72 -63t-46.5 -103t-16.5 -141.5q0 -82 17 -143t48 -102t72.5 -61.5t91.5 -20.5zM331 -15q-63 0 -115.5 24.5t-90.5 72t-59 117t-21 160.5t21 161.5t59 118
t90.5 72t114.5 24.5q61 0 113.5 -24.5t90.5 -72t60 -118t22 -161.5t-21.5 -160.5t-60 -117t-90.5 -72t-113 -24.5zM378 798q-18 0 -30.5 5.5t-22.5 11.5t-20.5 11.5t-25.5 5.5q-29 0 -67 -34v48q18 15 34 22.5t36 7.5q18 0 30.5 -5.5t22.5 -11.5t20 -11.5t25 -5.5
q29 0 66 34v-48q-18 -15 -33.5 -22.5t-34.5 -7.5z" />
            <glyph glyph-name="Odieresis" unicode="&#xd6;" horiz-adv-x="661"
           d="M331 32q49 0 90.5 20t72 60.5t47.5 102t17 144.5q0 80 -16.5 141.5t-46.5 103t-72 63t-93 21.5t-93 -21.5t-72 -63t-46.5 -103t-16.5 -141.5q0 -82 17 -143t48 -102t72.5 -61.5t91.5 -20.5zM331 -15q-63 0 -115.5 24.5t-90.5 72t-59 117t-21 160.5t21 161.5t59 118
t90.5 72t114.5 24.5q61 0 113.5 -24.5t90.5 -72t60 -118t22 -161.5t-21.5 -160.5t-60 -117t-90.5 -72t-113 -24.5zM207 821v69h60v-69h-60zM386 821v69h60v-69h-60z" />
            <glyph glyph-name="multiply" unicode="&#xd7;"
           d="M384 175l-105 111l-103 -111l-34 35l103 111l-104 111l35 36l105 -112l104 112l33 -35l-104 -111l104 -112z" />
            <glyph glyph-name="Oslash" unicode="&#xd8;" horiz-adv-x="661"
           d="M331 -15q-25 0 -47.5 4t-43.5 11l-35 -110h-49l41 129q-71 40 -111.5 125.5t-40.5 214.5q0 91 21 161.5t59 118t90.5 72t114.5 24.5q48 0 93 -17l33 102h49l-39 -122q69 -41 109.5 -126t40.5 -213q0 -91 -21.5 -160.5t-60 -117t-90.5 -72t-113 -24.5zM102 359
q0 -111 30.5 -183.5t82.5 -108.5l195 605q-19 8 -38.5 12t-41.5 4q-51 0 -93 -21.5t-72 -63t-46.5 -103t-16.5 -141.5zM331 32q49 0 90.5 20t72 60.5t47.5 102t17 144.5q0 109 -29 181.5t-81 110.5l-196 -604q37 -15 79 -15z" />
            <glyph glyph-name="Ugrave" unicode="&#xd9;" horiz-adv-x="615"
           d="M120 234q0 -45 13 -82t37 -63.5t58.5 -41t78.5 -14.5q43 0 78 14.5t59 41t37 63.5t13 82v486h55v-482q0 -53 -16 -99.5t-46.5 -80.5t-76 -53.5t-103.5 -19.5q-60 0 -105 19.5t-75.5 53.5t-46 80.5t-15.5 99.5v482h55v-486zM362 768h-48l-113 137h71z" />
            <glyph glyph-name="Uacute" unicode="&#xda;" horiz-adv-x="615"
           d="M120 234q0 -45 13 -82t37 -63.5t58.5 -41t78.5 -14.5q43 0 78 14.5t59 41t37 63.5t13 82v486h55v-482q0 -53 -16 -99.5t-46.5 -80.5t-76 -53.5t-103.5 -19.5q-60 0 -105 19.5t-75.5 53.5t-46 80.5t-15.5 99.5v482h55v-486zM343 905h71l-113 -137h-48z" />
            <glyph glyph-name="Ucircumflex" unicode="&#xdb;" horiz-adv-x="615"
           d="M120 234q0 -45 13 -82t37 -63.5t58.5 -41t78.5 -14.5q43 0 78 14.5t59 41t37 63.5t13 82v486h55v-482q0 -53 -16 -99.5t-46.5 -80.5t-76 -53.5t-103.5 -19.5q-60 0 -105 19.5t-75.5 53.5t-46 80.5t-15.5 99.5v482h55v-486zM432 768h-52l-73 103l-73 -103h-52l96 137h59z
" />
            <glyph glyph-name="Udieresis" unicode="&#xdc;" horiz-adv-x="615"
           d="M120 234q0 -45 13 -82t37 -63.5t58.5 -41t78.5 -14.5q43 0 78 14.5t59 41t37 63.5t13 82v486h55v-482q0 -53 -16 -99.5t-46.5 -80.5t-76 -53.5t-103.5 -19.5q-60 0 -105 19.5t-75.5 53.5t-46 80.5t-15.5 99.5v482h55v-486zM188 821v69h60v-69h-60zM367 821v69h60v-69h-60
z" />
            <glyph glyph-name="Yacute" unicode="&#xdd;" horiz-adv-x="548"
           d="M65 720l208 -385q54 97 106 192.5t105 192.5h58q-60 -110 -120.5 -219t-121.5 -219v-282h-54v283l-241 437h60zM316 905h71l-113 -137h-48z" />
            <glyph glyph-name="Thorn" unicode="&#xde;" horiz-adv-x="550"
           d="M126 720v-128h157q105 0 166 -58t61 -167q0 -53 -17 -94.5t-47.5 -70.5t-72.5 -44.5t-91 -15.5h-156v-142h-56v720h56zM126 544v-353h157q78 0 123.5 47t45.5 129q0 85 -44 131t-123 46h-159z" />
            <glyph glyph-name="germandbls" unicode="&#xdf;" horiz-adv-x="496"
           d="M223 98q3 -26 22 -46.5t66 -20.5q54 0 80.5 28.5t26.5 82.5q0 41 -20 73t-65 61q-27 16 -44.5 30.5t-28 29.5t-15 31.5t-4.5 36.5q0 29 14 49.5t31 39.5t31 40.5t14 53.5q0 45 -27 73.5t-78 28.5t-79.5 -33t-28.5 -114l-2 -542h-51v540q0 89 39 142t123 53
q33 0 61.5 -8.5t50 -26.5t33.5 -45.5t12 -64.5q0 -38 -14.5 -63t-32 -45t-32 -38t-14.5 -40q0 -24 14.5 -44.5t54.5 -43.5q62 -36 87.5 -77.5t25.5 -92.5q0 -34 -10.5 -63.5t-30.5 -51t-49.5 -34t-66.5 -12.5q-66 0 -103 31t-45 82h55z" />
            <glyph glyph-name="agrave" unicode="&#xe0;" horiz-adv-x="465"
           d="M53 386q6 67 54 108t127 41q81 0 125.5 -45t44.5 -126v-364h-44l-7 87q-20 -41 -60 -71.5t-104 -30.5q-70 0 -109.5 37.5t-39.5 103.5q0 69 39.5 113t138.5 60l132 21v50q0 58 -28.5 90t-89.5 32q-57 0 -88.5 -29t-36.5 -77h-54zM202 30q29 0 55.5 11.5t47 32t33 49
t12.5 62.5v92l-116 -19q-81 -13 -110.5 -45.5t-29.5 -83.5q0 -48 27.5 -73.5t80.5 -25.5zM272 598h-48l-113 137h71z" />
            <glyph glyph-name="aacute" unicode="&#xe1;" horiz-adv-x="465"
           d="M53 386q6 67 54 108t127 41q81 0 125.5 -45t44.5 -126v-364h-44l-7 87q-20 -41 -60 -71.5t-104 -30.5q-70 0 -109.5 37.5t-39.5 103.5q0 69 39.5 113t138.5 60l132 21v50q0 58 -28.5 90t-89.5 32q-57 0 -88.5 -29t-36.5 -77h-54zM202 30q29 0 55.5 11.5t47 32t33 49
t12.5 62.5v92l-116 -19q-81 -13 -110.5 -45.5t-29.5 -83.5q0 -48 27.5 -73.5t80.5 -25.5zM287 735h71l-113 -137h-48z" />
            <glyph glyph-name="acircumflex" unicode="&#xe2;" horiz-adv-x="465"
           d="M53 386q6 67 54 108t127 41q81 0 125.5 -45t44.5 -126v-364h-44l-7 87q-20 -41 -60 -71.5t-104 -30.5q-70 0 -109.5 37.5t-39.5 103.5q0 69 39.5 113t138.5 60l132 21v50q0 58 -28.5 90t-89.5 32q-57 0 -88.5 -29t-36.5 -77h-54zM202 30q29 0 55.5 11.5t47 32t33 49
t12.5 62.5v92l-116 -19q-81 -13 -110.5 -45.5t-29.5 -83.5q0 -48 27.5 -73.5t80.5 -25.5zM358 598h-52l-73 103l-73 -103h-52l96 137h59z" />
            <glyph glyph-name="atilde" unicode="&#xe3;" horiz-adv-x="465"
           d="M53 386q6 67 54 108t127 41q81 0 125.5 -45t44.5 -126v-364h-44l-7 87q-20 -41 -60 -71.5t-104 -30.5q-70 0 -109.5 37.5t-39.5 103.5q0 69 39.5 113t138.5 60l132 21v50q0 58 -28.5 90t-89.5 32q-57 0 -88.5 -29t-36.5 -77h-54zM202 30q29 0 55.5 11.5t47 32t33 49
t12.5 62.5v92l-116 -19q-81 -13 -110.5 -45.5t-29.5 -83.5q0 -48 27.5 -73.5t80.5 -25.5zM280 628q-18 0 -30.5 5.5t-22.5 11.5t-20.5 11.5t-25.5 5.5q-29 0 -67 -34v48q18 15 34 22.5t36 7.5q18 0 30.5 -5.5t22.5 -11.5t20 -11.5t25 -5.5q29 0 66 34v-48
q-18 -15 -33.5 -22.5t-34.5 -7.5z" />
            <glyph glyph-name="adieresis" unicode="&#xe4;" horiz-adv-x="465"
           d="M53 386q6 67 54 108t127 41q81 0 125.5 -45t44.5 -126v-364h-44l-7 87q-20 -41 -60 -71.5t-104 -30.5q-70 0 -109.5 37.5t-39.5 103.5q0 69 39.5 113t138.5 60l132 21v50q0 58 -28.5 90t-89.5 32q-57 0 -88.5 -29t-36.5 -77h-54zM202 30q29 0 55.5 11.5t47 32t33 49
t12.5 62.5v92l-116 -19q-81 -13 -110.5 -45.5t-29.5 -83.5q0 -48 27.5 -73.5t80.5 -25.5zM111 651v69h60v-69h-60zM290 651v69h60v-69h-60z" />
            <glyph glyph-name="aring" unicode="&#xe5;" horiz-adv-x="465"
           d="M53 386q6 67 54 108t127 41q81 0 125.5 -45t44.5 -126v-364h-44l-7 87q-20 -41 -60 -71.5t-104 -30.5q-70 0 -109.5 37.5t-39.5 103.5q0 69 39.5 113t138.5 60l132 21v50q0 58 -28.5 90t-89.5 32q-57 0 -88.5 -29t-36.5 -77h-54zM202 30q29 0 55.5 11.5t47 32t33 49
t12.5 62.5v92l-116 -19q-81 -13 -110.5 -45.5t-29.5 -83.5q0 -48 27.5 -73.5t80.5 -25.5zM165 700q0 -38 17.5 -59.5t47.5 -21.5q31 0 48.5 21.5t17.5 59.5t-17 59.5t-49 21.5q-30 0 -47.5 -21.5t-17.5 -59.5zM337 700q0 -51 -28 -83.5t-79 -32.5q-50 0 -77.5 32.5
t-27.5 83.5t27.5 83.5t77.5 32.5q51 0 79 -32.5t28 -83.5z" />
            <glyph glyph-name="ae" unicode="&#xe6;" horiz-adv-x="810"
           d="M759 145q-17 -75 -67 -117.5t-125 -42.5q-61 0 -112 32t-80 108q-8 -27 -21.5 -52.5t-35.5 -45t-52 -31t-69 -11.5q-72 0 -115 35t-43 105q0 66 42.5 108.5t134.5 54.5l133 17v65q0 56 -28 88.5t-90 32.5q-57 0 -88 -28.5t-36 -77.5h-55q6 69 55 109.5t125 40.5
q62 0 101 -29.5t55 -83.5q30 60 74.5 86.5t95.5 26.5q42 0 79.5 -15t65.5 -47.5t45 -84t18 -124.5h-362q0 -65 13 -109.5t35 -72.5t51.5 -40t64.5 -12q51 0 86 29t48 86h57zM206 30q27 0 53 10.5t46 30t32 46.5t12 60v85l-116 -15q-40 -5 -66.5 -16t-42.5 -26.5t-23 -35
t-7 -41.5q0 -51 29.5 -74.5t82.5 -23.5zM558 491q-61 0 -102 -46.5t-50 -136.5h305q-7 87 -45.5 135t-107.5 48z" />
            <glyph glyph-name="ccedilla" unicode="&#xe7;" horiz-adv-x="474"
           d="M352 -143q0 -41 -27.5 -69.5t-77.5 -28.5q-45 0 -73 23t-33 64h44q3 -22 18 -35.5t44 -13.5q32 0 47 16.5t15 42.5q0 30 -21 46.5t-72 16.5l4 67q-81 10 -130.5 77t-49.5 193q0 69 15 121t42 87.5t64.5 53t82.5 17.5q77 0 127 -43.5t61 -115.5h-57q-9 54 -42 84t-88 30
q-70 0 -110.5 -57.5t-40.5 -178.5q0 -57 11.5 -99.5t32 -70t48.5 -41t62 -13.5q57 0 90 34t41 89h56q-11 -70 -55.5 -116t-119.5 -51v-37q45 -4 68.5 -29t23.5 -63z" />
            <glyph glyph-name="egrave" unicode="&#xe8;" horiz-adv-x="502"
           d="M450 141q-17 -71 -65.5 -113.5t-127.5 -42.5q-48 0 -88 17.5t-68.5 52.5t-44.5 86t-16 119q0 67 15 118t43 86t66 53t85 18q46 0 84.5 -17.5t66 -52.5t43 -89.5t15.5 -127.5h-364q4 -113 48.5 -165.5t116.5 -52.5q57 0 90 29.5t45 81.5h56zM249 491q-66 0 -107 -50.5
t-47 -148.5h308q-5 100 -45.5 149.5t-108.5 49.5zM289 598h-48l-113 137h71z" />
            <glyph glyph-name="eacute" unicode="&#xe9;" horiz-adv-x="502"
           d="M450 141q-17 -71 -65.5 -113.5t-127.5 -42.5q-48 0 -88 17.5t-68.5 52.5t-44.5 86t-16 119q0 67 15 118t43 86t66 53t85 18q46 0 84.5 -17.5t66 -52.5t43 -89.5t15.5 -127.5h-364q4 -113 48.5 -165.5t116.5 -52.5q57 0 90 29.5t45 81.5h56zM249 491q-66 0 -107 -50.5
t-47 -148.5h308q-5 100 -45.5 149.5t-108.5 49.5zM303 735h71l-113 -137h-48z" />
            <glyph glyph-name="ecircumflex" unicode="&#xea;" horiz-adv-x="502"
           d="M450 141q-17 -71 -65.5 -113.5t-127.5 -42.5q-48 0 -88 17.5t-68.5 52.5t-44.5 86t-16 119q0 67 15 118t43 86t66 53t85 18q46 0 84.5 -17.5t66 -52.5t43 -89.5t15.5 -127.5h-364q4 -113 48.5 -165.5t116.5 -52.5q57 0 90 29.5t45 81.5h56zM249 491q-66 0 -107 -50.5
t-47 -148.5h308q-5 100 -45.5 149.5t-108.5 49.5zM372 598h-52l-73 103l-73 -103h-52l96 137h59z" />
            <glyph glyph-name="edieresis" unicode="&#xeb;" horiz-adv-x="502"
           d="M450 141q-17 -71 -65.5 -113.5t-127.5 -42.5q-48 0 -88 17.5t-68.5 52.5t-44.5 86t-16 119q0 67 15 118t43 86t66 53t85 18q46 0 84.5 -17.5t66 -52.5t43 -89.5t15.5 -127.5h-364q4 -113 48.5 -165.5t116.5 -52.5q57 0 90 29.5t45 81.5h56zM249 491q-66 0 -107 -50.5
t-47 -148.5h308q-5 100 -45.5 149.5t-108.5 49.5zM128 651v69h60v-69h-60zM307 651v69h60v-69h-60z" />
            <glyph glyph-name="igrave" unicode="&#xec;" horiz-adv-x="184"
           d="M145 598h-48l-113 137h71zM66 0v520h53v-520h-53z" />
            <glyph glyph-name="iacute" unicode="&#xed;" horiz-adv-x="184"
           d="M133 735h71l-113 -137h-48zM66 0v520h53v-520h-53z" />
            <glyph glyph-name="icircumflex" unicode="&#xee;" horiz-adv-x="184"
           d="M66 0v520h53v-520h-53zM218 598h-52l-73 103l-73 -103h-52l96 137h59z" />
            <glyph glyph-name="idieresis" unicode="&#xef;" horiz-adv-x="184"
           d="M-26 651v69h60v-69h-60zM153 651v69h60v-69h-60zM66 0v520h53v-520h-53z" />
            <glyph glyph-name="eth" unicode="&#xf0;" horiz-adv-x="482"
           d="M123 733q41 -8 81 -22.5t78 -38.5l40 48h58l-63 -74q55 -49 89.5 -129t34.5 -202q0 -73 -11 -133.5t-35 -104t-63.5 -68t-96.5 -24.5q-46 0 -82.5 18t-61.5 51t-38 79.5t-13 103.5q0 51 12 95.5t35.5 77t58 51t79.5 18.5q34 0 60.5 -10t46.5 -27t33.5 -39.5t20.5 -47.5
q-5 95 -31.5 156t-68.5 99l-45 -54h-58l69 81q-32 20 -65.5 31.5t-68.5 17.5zM234 434q-65 0 -102.5 -47.5t-37.5 -152.5q0 -93 36 -147.5t105 -54.5q147 0 147 197q0 37 -7.5 74t-25 66t-46 47t-69.5 18z" />
            <glyph glyph-name="ntilde" unicode="&#xf1;" horiz-adv-x="486"
           d="M65 0v520h44q2 -23 3.5 -45t3.5 -45q49 105 151 105q75 0 116 -47t41 -137v-351h-53v349q0 70 -28.5 105t-88.5 35q-28 0 -52.5 -11.5t-43 -33t-29.5 -53t-11 -70.5v-321h-53zM301 628q-18 0 -30.5 5.5t-22.5 11.5t-20.5 11.5t-25.5 5.5q-29 0 -67 -34v48q18 15 34 22.5
t36 7.5q18 0 30.5 -5.5t22.5 -11.5t20 -11.5t25 -5.5q29 0 66 34v-48q-18 -15 -33.5 -22.5t-34.5 -7.5z" />
            <glyph glyph-name="ograve" unicode="&#xf2;" horiz-adv-x="503"
           d="M40 260q0 69 15.5 120.5t43 86t66.5 51.5t87 17q97 0 154 -69t57 -206q0 -136 -57 -205.5t-153 -69.5q-97 0 -155 69.5t-58 205.5zM94 260q0 -115 43 -173t115 -58q75 0 116 58t41 173q0 117 -41.5 174t-115.5 57t-116 -58t-42 -173zM294 598h-48l-113 137h71z" />
            <glyph glyph-name="oacute" unicode="&#xf3;" horiz-adv-x="503"
           d="M40 260q0 69 15.5 120.5t43 86t66.5 51.5t87 17q97 0 154 -69t57 -206q0 -136 -57 -205.5t-153 -69.5q-97 0 -155 69.5t-58 205.5zM94 260q0 -115 43 -173t115 -58q75 0 116 58t41 173q0 117 -41.5 174t-115.5 57t-116 -58t-42 -173zM301 735h71l-113 -137h-48z" />
            <glyph glyph-name="ocircumflex" unicode="&#xf4;" horiz-adv-x="503"
           d="M40 260q0 69 15.5 120.5t43 86t66.5 51.5t87 17q97 0 154 -69t57 -206q0 -136 -57 -205.5t-153 -69.5q-97 0 -155 69.5t-58 205.5zM94 260q0 -115 43 -173t115 -58q75 0 116 58t41 173q0 117 -41.5 174t-115.5 57t-116 -58t-42 -173zM375 598h-52l-73 103l-73 -103h-52
l96 137h59z" />
            <glyph glyph-name="otilde" unicode="&#xf5;" horiz-adv-x="503"
           d="M40 260q0 69 15.5 120.5t43 86t66.5 51.5t87 17q97 0 154 -69t57 -206q0 -136 -57 -205.5t-153 -69.5q-97 0 -155 69.5t-58 205.5zM94 260q0 -115 43 -173t115 -58q75 0 116 58t41 173q0 117 -41.5 174t-115.5 57t-116 -58t-42 -173zM299 628q-18 0 -30.5 5.5t-22.5 11.5
t-20.5 11.5t-25.5 5.5q-29 0 -67 -34v48q18 15 34 22.5t36 7.5q18 0 30.5 -5.5t22.5 -11.5t20 -11.5t25 -5.5q29 0 66 34v-48q-18 -15 -33.5 -22.5t-34.5 -7.5z" />
            <glyph glyph-name="odieresis" unicode="&#xf6;" horiz-adv-x="503"
           d="M40 260q0 69 15.5 120.5t43 86t66.5 51.5t87 17q97 0 154 -69t57 -206q0 -136 -57 -205.5t-153 -69.5q-97 0 -155 69.5t-58 205.5zM94 260q0 -115 43 -173t115 -58q75 0 116 58t41 173q0 117 -41.5 174t-115.5 57t-116 -58t-42 -173zM132 651v69h60v-69h-60zM311 651v69
h60v-69h-60z" />
            <glyph glyph-name="divide" unicode="&#xf7;"
           d="M247 64v79h66v-79h-66zM247 501v79h66v-79h-66zM459 298h-358v49h358v-49z" />
            <glyph glyph-name="oslash" unicode="&#xf8;" horiz-adv-x="503"
           d="M39 260q0 69 15.5 120.5t43.5 86t67 51.5t87 17q42 0 78 -15l43 110h49l-51 -132q44 -32 68 -91t24 -147q0 -68 -15 -119.5t-42.5 -86t-66 -52t-86.5 -17.5q-23 0 -42.5 4t-38.5 11l-43 -110h-49l52 131q-44 32 -68.5 91.5t-24.5 147.5zM408 260q0 69 -15.5 116.5
t-43.5 75.5l-160 -410q14 -7 29.5 -10.5t33.5 -3.5q75 0 115.5 58t40.5 174zM94 260q0 -69 15.5 -117t44.5 -75l160 409q-30 14 -62 14q-75 0 -116.5 -58t-41.5 -173z" />
            <glyph glyph-name="ugrave" unicode="&#xf9;" horiz-adv-x="483"
           d="M115 520v-352q0 -72 29 -105t87 -33q61 0 97 47.5t36 123.5v319h53v-520h-44l-6 82q-24 -51 -63 -74t-86 -23q-72 0 -114 44.5t-42 138.5v352h53zM283 598h-48l-113 137h71z" />
            <glyph glyph-name="uacute" unicode="&#xfa;" horiz-adv-x="483"
           d="M115 520v-352q0 -72 29 -105t87 -33q61 0 97 47.5t36 123.5v319h53v-520h-44l-6 82q-24 -51 -63 -74t-86 -23q-72 0 -114 44.5t-42 138.5v352h53zM286 735h71l-113 -137h-48z" />
            <glyph glyph-name="ucircumflex" unicode="&#xfb;" horiz-adv-x="483"
           d="M115 520v-352q0 -72 29 -105t87 -33q61 0 97 47.5t36 123.5v319h53v-520h-44l-6 82q-24 -51 -63 -74t-86 -23q-72 0 -114 44.5t-42 138.5v352h53zM363 598h-52l-73 103l-73 -103h-52l96 137h59z" />
            <glyph glyph-name="udieresis" unicode="&#xfc;" horiz-adv-x="483"
           d="M115 520v-352q0 -72 29 -105t87 -33q61 0 97 47.5t36 123.5v319h53v-520h-44l-6 82q-24 -51 -63 -74t-86 -23q-72 0 -114 44.5t-42 138.5v352h53zM119 651v69h60v-69h-60zM298 651v69h60v-69h-60z" />
            <glyph glyph-name="yacute" unicode="&#xfd;" horiz-adv-x="440"
           d="M425 520q-42 -132 -81.5 -262.5t-79.5 -261.5q-17 -53 -30.5 -89.5t-27.5 -59t-31.5 -32.5t-41.5 -10q-12 0 -25 3t-25 7v44q25 -9 46 -9q14 0 24.5 7.5t19.5 25t18.5 46.5t21.5 71h-20l-179 520h57l158 -476l142 476h54zM264 735h71l-113 -137h-48z" />
            <glyph glyph-name="thorn" unicode="&#xfe;" horiz-adv-x="510"
           d="M66 -180v900h53v-296q23 50 61.5 80.5t98.5 30.5q88 0 139.5 -66.5t51.5 -202.5q0 -69 -14.5 -121.5t-40.5 -88t-62 -53.5t-80 -18q-59 0 -96 28.5t-58 76.5v-270h-53zM415 267q0 117 -40 170t-110 53q-31 0 -58.5 -12.5t-48 -40t-32.5 -71t-12 -106.5q0 -115 39 -172.5
t111 -57.5q70 0 110.5 58t40.5 179z" />
            <glyph glyph-name="ydieresis" unicode="&#xff;" horiz-adv-x="440"
           d="M425 520q-42 -132 -81.5 -262.5t-79.5 -261.5q-17 -53 -30.5 -89.5t-27.5 -59t-31.5 -32.5t-41.5 -10q-12 0 -25 3t-25 7v44q25 -9 46 -9q14 0 24.5 7.5t19.5 25t18.5 46.5t21.5 71h-20l-179 520h57l158 -476l142 476h54zM102 651v69h60v-69h-60zM281 651v69h60v-69h-60z
" />
            <glyph glyph-name="Amacron" unicode="&#x100;" horiz-adv-x="581"
           d="M513 0l-68 204h-312l-69 -204h-58l250 720h69l250 -720h-62zM149 251h279l-138 415zM182 823v46h213v-46h-213z" />
            <glyph glyph-name="amacron" unicode="&#x101;" horiz-adv-x="465"
           d="M53 386q6 67 54 108t127 41q81 0 125.5 -45t44.5 -126v-364h-44l-7 87q-20 -41 -60 -71.5t-104 -30.5q-70 0 -109.5 37.5t-39.5 103.5q0 69 39.5 113t138.5 60l132 21v50q0 58 -28.5 90t-89.5 32q-57 0 -88.5 -29t-36.5 -77h-54zM202 30q29 0 55.5 11.5t47 32t33 49
t12.5 62.5v92l-116 -19q-81 -13 -110.5 -45.5t-29.5 -83.5q0 -48 27.5 -73.5t80.5 -25.5zM122 653v46h213v-46h-213z" />
            <glyph glyph-name="Abreve" unicode="&#x102;" horiz-adv-x="581"
           d="M513 0l-68 204h-312l-69 -204h-58l250 720h69l250 -720h-62zM149 251h279l-138 415zM287 762q-53 0 -83 35t-35 97h46q1 -19 5 -36.5t13 -30.5t22 -21t32 -8t32 8t22 21t13.5 30.5t5.5 36.5h45q-5 -62 -35.5 -97t-82.5 -35z" />
            <glyph glyph-name="abreve" unicode="&#x103;" horiz-adv-x="465"
           d="M53 386q6 67 54 108t127 41q81 0 125.5 -45t44.5 -126v-364h-44l-7 87q-20 -41 -60 -71.5t-104 -30.5q-70 0 -109.5 37.5t-39.5 103.5q0 69 39.5 113t138.5 60l132 21v50q0 58 -28.5 90t-89.5 32q-57 0 -88.5 -29t-36.5 -77h-54zM202 30q29 0 55.5 11.5t47 32t33 49
t12.5 62.5v92l-116 -19q-81 -13 -110.5 -45.5t-29.5 -83.5q0 -48 27.5 -73.5t80.5 -25.5zM228 592q-53 0 -83 35t-35 97h46q1 -19 5 -36.5t13 -30.5t22 -21t32 -8t32 8t22 21t13.5 30.5t5.5 36.5h45q-5 -62 -35.5 -97t-82.5 -35z" />
            <glyph glyph-name="Aogonek" unicode="&#x104;" horiz-adv-x="581"
           d="M574 0q-49 -19 -81 -54.5t-32 -76.5q0 -34 16 -51t45 -17q22 0 36.5 11.5t24.5 38.5h45q-12 -42 -39 -65.5t-69 -23.5q-48 0 -75.5 26t-27.5 76q0 41 26.5 77t68.5 59l-68 204h-312l-69 -204h-58l251 720h68zM149 250h279l-139 416z" />
            <glyph glyph-name="aogonek" unicode="&#x105;" horiz-adv-x="465"
           d="M53 386q6 67 54 108t127 41q81 0 125.5 -45t44.5 -126v-364q-45 -26 -74.5 -58t-29.5 -74q0 -33 16.5 -50t45.5 -17q22 0 36.5 11.5t23.5 38.5h46q-12 -42 -39 -65.5t-69 -23.5q-48 0 -75.5 26t-27.5 75q0 42 28.5 80t73.5 61l-6 83q-20 -41 -60 -71.5t-104 -30.5
q-70 0 -109.5 37.5t-39.5 103.5q0 69 39.5 113t138.5 60l132 21v50q0 58 -28.5 90t-89.5 32q-57 0 -88.5 -29t-36.5 -77h-54zM202 30q29 0 55.5 11.5t47 32t33 49t12.5 62.5v92l-116 -19q-81 -13 -110.5 -45.5t-29.5 -83.5q0 -48 27.5 -73.5t80.5 -25.5z" />
            <glyph glyph-name="Cacute" unicode="&#x106;" horiz-adv-x="630"
           d="M331 33q89 0 141.5 53t61.5 153h55q-5 -56 -24 -102.5t-52 -80t-78.5 -52.5t-102.5 -19q-66 0 -119.5 25.5t-90.5 73.5t-57 116t-20 154q0 94 21 165t58.5 119t90 72.5t114.5 24.5q52 0 96.5 -15.5t79 -45.5t57 -73t28.5 -98h-56q-14 94 -67.5 139t-137.5 45
q-51 0 -93 -21t-71.5 -63t-46 -104.5t-16.5 -144.5q0 -77 17 -136.5t47.5 -100.5t72.5 -62.5t92 -21.5zM374 905h71l-113 -137h-48z" />
            <glyph glyph-name="cacute" unicode="&#x107;" horiz-adv-x="474"
           d="M435 153q-6 -36 -21 -67t-39 -53.5t-56.5 -35t-72.5 -12.5q-46 0 -84 17t-65 51t-42 85t-15 118q0 69 15 121t42 87.5t64.5 53t82.5 17.5q77 0 127 -43.5t61 -115.5h-57q-9 54 -42 84t-88 30q-70 0 -110.5 -57.5t-40.5 -178.5q0 -57 11.5 -99.5t32 -70t48.5 -41t62 -13.5
q57 0 90 34t41 89h56zM305 735h71l-113 -137h-48z" />
            <glyph glyph-name="Ccircumflex" unicode="&#x108;" horiz-adv-x="630"
           d="M331 33q89 0 141.5 53t61.5 153h55q-5 -56 -24 -102.5t-52 -80t-78.5 -52.5t-102.5 -19q-66 0 -119.5 25.5t-90.5 73.5t-57 116t-20 154q0 94 21 165t58.5 119t90 72.5t114.5 24.5q52 0 96.5 -15.5t79 -45.5t57 -73t28.5 -98h-56q-14 94 -67.5 139t-137.5 45
q-51 0 -93 -21t-71.5 -63t-46 -104.5t-16.5 -144.5q0 -77 17 -136.5t47.5 -100.5t72.5 -62.5t92 -21.5zM441 768h-52l-73 103l-73 -103h-52l96 137h59z" />
            <glyph glyph-name="ccircumflex" unicode="&#x109;" horiz-adv-x="474"
           d="M435 153q-6 -36 -21 -67t-39 -53.5t-56.5 -35t-72.5 -12.5q-46 0 -84 17t-65 51t-42 85t-15 118q0 69 15 121t42 87.5t64.5 53t82.5 17.5q77 0 127 -43.5t61 -115.5h-57q-9 54 -42 84t-88 30q-70 0 -110.5 -57.5t-40.5 -178.5q0 -57 11.5 -99.5t32 -70t48.5 -41t62 -13.5
q57 0 90 34t41 89h56zM362 598h-52l-73 103l-73 -103h-52l96 137h59z" />
            <glyph glyph-name="Cdotaccent" unicode="&#x10a;" horiz-adv-x="630"
           d="M331 33q89 0 141.5 53t61.5 153h55q-5 -56 -24 -102.5t-52 -80t-78.5 -52.5t-102.5 -19q-66 0 -119.5 25.5t-90.5 73.5t-57 116t-20 154q0 94 21 165t58.5 119t90 72.5t114.5 24.5q52 0 96.5 -15.5t79 -45.5t57 -73t28.5 -98h-56q-14 94 -67.5 139t-137.5 45
q-51 0 -93 -21t-71.5 -63t-46 -104.5t-16.5 -144.5q0 -77 17 -136.5t47.5 -100.5t72.5 -62.5t92 -21.5zM294 817v73h62v-73h-62z" />
            <glyph glyph-name="cdotaccent" unicode="&#x10b;" horiz-adv-x="474"
           d="M435 153q-6 -36 -21 -67t-39 -53.5t-56.5 -35t-72.5 -12.5q-46 0 -84 17t-65 51t-42 85t-15 118q0 69 15 121t42 87.5t64.5 53t82.5 17.5q77 0 127 -43.5t61 -115.5h-57q-9 54 -42 84t-88 30q-70 0 -110.5 -57.5t-40.5 -178.5q0 -57 11.5 -99.5t32 -70t48.5 -41t62 -13.5
q57 0 90 34t41 89h56zM211 647v73h62v-73h-62z" />
            <glyph glyph-name="Ccaron" unicode="&#x10c;" horiz-adv-x="630"
           d="M331 33q89 0 141.5 53t61.5 153h55q-5 -56 -24 -102.5t-52 -80t-78.5 -52.5t-102.5 -19q-66 0 -119.5 25.5t-90.5 73.5t-57 116t-20 154q0 94 21 165t58.5 119t90 72.5t114.5 24.5q52 0 96.5 -15.5t79 -45.5t57 -73t28.5 -98h-56q-14 94 -67.5 139t-137.5 45
q-51 0 -93 -21t-71.5 -63t-46 -104.5t-16.5 -144.5q0 -77 17 -136.5t47.5 -100.5t72.5 -62.5t92 -21.5zM190 905h52l73 -105l72 105h53l-96 -137h-58z" />
            <glyph glyph-name="ccaron" unicode="&#x10d;" horiz-adv-x="474"
           d="M435 153q-6 -36 -21 -67t-39 -53.5t-56.5 -35t-72.5 -12.5q-46 0 -84 17t-65 51t-42 85t-15 118q0 69 15 121t42 87.5t64.5 53t82.5 17.5q77 0 127 -43.5t61 -115.5h-57q-9 54 -42 84t-88 30q-70 0 -110.5 -57.5t-40.5 -178.5q0 -57 11.5 -99.5t32 -70t48.5 -41t62 -13.5
q57 0 90 34t41 89h56zM114 735h52l73 -105l72 105h53l-96 -137h-58z" />
            <glyph glyph-name="Dcaron" unicode="&#x10e;" horiz-adv-x="601"
           d="M248 720q70 0 127 -23t97.5 -68t62.5 -112.5t22 -155.5q0 -86 -23 -153t-64 -113.5t-98.5 -70.5t-126.5 -24h-175v720h178zM126 673v-625h123q55 0 101 20t79.5 59.5t52 98t18.5 135.5q0 79 -18.5 137.5t-52 97.5t-79.5 58t-101 19h-123zM137 905h52l73 -105l72 105h53
l-96 -137h-58z" />
            <glyph glyph-name="dcaron" unicode="&#x10f;" horiz-adv-x="570"
           d="M402 0l-10 98q-22 -51 -60.5 -82t-98.5 -31q-42 0 -77 17t-61 50.5t-40.5 84t-14.5 118.5q0 70 14.5 123t40.5 87.5t62 52t79 17.5q55 0 93.5 -28t61.5 -77v290h53v-720h-42zM95 255q0 -115 40.5 -170t109.5 -55q32 0 59.5 13t48 41t32 71.5t11.5 104.5
q0 115 -40.5 172.5t-110.5 57.5q-68 0 -109 -57t-41 -178zM572 654q0 -52 -25 -80t-67 -39v31q26 10 37 28t11 53h-20v73h64v-66z" />
            <glyph glyph-name="Dcroat" unicode="&#x110;" horiz-adv-x="602"
           d="M248 720q70 0 127 -23t97.5 -68t62.5 -112.5t22 -155.5q0 -86 -23 -153t-64 -113.5t-98 -70.5t-126 -24h-176v354h-49v49h49v317h178zM126 673v-270h195v-49h-195v-306h124q55 0 101 20t79.5 59.5t52 98t18.5 135.5q0 79 -18.5 137.5t-52 97.5t-80 58t-101.5 19h-123z
" />
            <glyph glyph-name="dcroat" unicode="&#x111;" horiz-adv-x="511"
           d="M402 0l-10 98q-22 -51 -60.5 -82t-98.5 -31q-42 0 -77 17t-61 50.5t-40.5 84t-14.5 118.5q0 70 14.5 123t40.5 87.5t62 52t79 17.5q55 0 93.5 -28t61.5 -77v184h-149v43h149v63h53v-63h45v-43h-45v-614h-42zM95 255q0 -115 40.5 -170t109.5 -55q32 0 59.5 13t48 41
t32 71.5t11.5 104.5q0 115 -40.5 172.5t-110.5 57.5q-68 0 -109 -57t-41 -178z" />
            <glyph glyph-name="Emacron" unicode="&#x112;" horiz-adv-x="494"
           d="M421 342h-295v-294h320v-48h-376v720h376v-48h-320v-282h295v-48zM150 823v46h213v-46h-213z" />
            <glyph glyph-name="emacron" unicode="&#x113;" horiz-adv-x="502"
           d="M450 141q-17 -71 -65.5 -113.5t-127.5 -42.5q-48 0 -88 17.5t-68.5 52.5t-44.5 86t-16 119q0 67 15 118t43 86t66 53t85 18q46 0 84.5 -17.5t66 -52.5t43 -89.5t15.5 -127.5h-364q4 -113 48.5 -165.5t116.5 -52.5q57 0 90 29.5t45 81.5h56zM249 491q-66 0 -107 -50.5
t-47 -148.5h308q-5 100 -45.5 149.5t-108.5 49.5zM139 653v46h213v-46h-213z" />
            <glyph glyph-name="Ebreve" unicode="&#x114;" horiz-adv-x="494"
           d="M421 342h-295v-294h320v-48h-376v720h376v-48h-320v-282h295v-48zM257 762q-53 0 -83 35t-35 97h46q1 -19 5 -36.5t13 -30.5t22 -21t32 -8t32 8t22 21t13.5 30.5t5.5 36.5h45q-5 -62 -35.5 -97t-82.5 -35z" />
            <glyph glyph-name="ebreve" unicode="&#x115;" horiz-adv-x="502"
           d="M450 141q-17 -71 -65.5 -113.5t-127.5 -42.5q-48 0 -88 17.5t-68.5 52.5t-44.5 86t-16 119q0 67 15 118t43 86t66 53t85 18q46 0 84.5 -17.5t66 -52.5t43 -89.5t15.5 -127.5h-364q4 -113 48.5 -165.5t116.5 -52.5q57 0 90 29.5t45 81.5h56zM249 491q-66 0 -107 -50.5
t-47 -148.5h308q-5 100 -45.5 149.5t-108.5 49.5zM251 592q-53 0 -83 35t-35 97h46q1 -19 5 -36.5t13 -30.5t22 -21t32 -8t32 8t22 21t13.5 30.5t5.5 36.5h45q-5 -62 -35.5 -97t-82.5 -35z" />
            <glyph glyph-name="Edotaccent" unicode="&#x116;" horiz-adv-x="494"
           d="M421 342h-295v-294h320v-48h-376v720h376v-48h-320v-282h295v-48zM225 817v73h62v-73h-62z" />
            <glyph glyph-name="edotaccent" unicode="&#x117;" horiz-adv-x="502"
           d="M450 141q-17 -71 -65.5 -113.5t-127.5 -42.5q-48 0 -88 17.5t-68.5 52.5t-44.5 86t-16 119q0 67 15 118t43 86t66 53t85 18q46 0 84.5 -17.5t66 -52.5t43 -89.5t15.5 -127.5h-364q4 -113 48.5 -165.5t116.5 -52.5q57 0 90 29.5t45 81.5h56zM249 491q-66 0 -107 -50.5
t-47 -148.5h308q-5 100 -45.5 149.5t-108.5 49.5zM216 647v73h62v-73h-62z" />
            <glyph glyph-name="Eogonek" unicode="&#x118;" horiz-adv-x="494"
           d="M421 342h-295v-294h320v-48h-94q-44 -26 -73 -58t-29 -74q0 -67 61 -67q23 0 37 11.5t24 38.5h45q-12 -42 -39 -65.5t-69 -23.5q-48 0 -75.5 26t-27.5 75q0 41 26.5 77t69.5 60h-232v720h376v-48h-320v-282h295v-48z" />
            <glyph glyph-name="eogonek" unicode="&#x119;" horiz-adv-x="502"
           d="M449 141q-11 -51 -39 -87.5t-72 -53.5q-45 -26 -74.5 -57.5t-29.5 -73.5q0 -34 16.5 -51t45.5 -17q23 0 37 11.5t23 38.5h46q-12 -42 -39 -65.5t-69 -23.5q-48 0 -75.5 26t-27.5 76q0 35 20 66.5t52 55.5q-49 0 -90 16.5t-71 50.5t-46.5 85.5t-16.5 121.5q0 67 15.5 118
t43 86t66 53t84.5 18t84.5 -17.5t66.5 -53t43 -89.5t15 -128h-364q5 -113 49 -165t116 -52q57 0 90 29t45 82h56zM249 491q-67 0 -108 -50.5t-47 -149.5h308q-5 100 -45 150t-108 50z" />
            <glyph glyph-name="Ecaron" unicode="&#x11a;" horiz-adv-x="494"
           d="M421 342h-295v-294h320v-48h-376v720h376v-48h-320v-282h295v-48zM134 905h52l73 -105l72 105h53l-96 -137h-58z" />
            <glyph glyph-name="ecaron" unicode="&#x11b;" horiz-adv-x="502"
           d="M450 141q-17 -71 -65.5 -113.5t-127.5 -42.5q-48 0 -88 17.5t-68.5 52.5t-44.5 86t-16 119q0 67 15 118t43 86t66 53t85 18q46 0 84.5 -17.5t66 -52.5t43 -89.5t15.5 -127.5h-364q4 -113 48.5 -165.5t116.5 -52.5q57 0 90 29.5t45 81.5h56zM249 491q-66 0 -107 -50.5
t-47 -148.5h308q-5 100 -45.5 149.5t-108.5 49.5zM124 735h52l73 -105l72 105h53l-96 -137h-58z" />
            <glyph glyph-name="Gcircumflex" unicode="&#x11c;" horiz-adv-x="640"
           d="M578 0h-40l-7 119q-29 -63 -80.5 -98.5t-124.5 -35.5q-60 0 -111.5 24t-89 71t-59 117t-21.5 163q0 92 21 162t58.5 117.5t89.5 71.5t114 24q104 0 169 -56.5t83 -154.5h-56q-35 163 -195 163q-49 0 -90.5 -20t-72 -60.5t-47.5 -102t-17 -144.5q0 -81 17.5 -142
t48.5 -102.5t73 -62t90 -20.5q44 0 80.5 15.5t62.5 43t40.5 65t14.5 82.5v92h-201v47h250v-378zM443 768h-52l-73 103l-73 -103h-52l96 137h59z" />
            <glyph glyph-name="gcircumflex" unicode="&#x11d;" horiz-adv-x="509"
           d="M115 -48q18 -104 136 -104q72 0 106 42t34 114v113q-23 -45 -60.5 -71.5t-94.5 -26.5q-41 0 -77 16.5t-62.5 48.5t-41.5 79.5t-15 109.5q0 63 14.5 112t40 82t61.5 50.5t80 17.5q56 0 95 -27.5t62 -76.5l8 89h43v-515q0 -44 -12 -80.5t-36 -63t-60 -41.5t-84 -15
q-88 0 -134.5 38t-58.5 109h56zM95 273q0 -103 41.5 -156t108.5 -53q33 0 60.5 11.5t47.5 36.5t31.5 65t11.5 97q0 111 -40.5 163.5t-110.5 52.5q-68 0 -109 -53t-41 -164zM374 598h-52l-73 103l-73 -103h-52l96 137h59z" />
            <glyph glyph-name="Gbreve" unicode="&#x11e;" horiz-adv-x="640"
           d="M578 0h-40l-7 119q-29 -63 -80.5 -98.5t-124.5 -35.5q-60 0 -111.5 24t-89 71t-59 117t-21.5 163q0 92 21 162t58.5 117.5t89.5 71.5t114 24q104 0 169 -56.5t83 -154.5h-56q-35 163 -195 163q-49 0 -90.5 -20t-72 -60.5t-47.5 -102t-17 -144.5q0 -81 17.5 -142
t48.5 -102.5t73 -62t90 -20.5q44 0 80.5 15.5t62.5 43t40.5 65t14.5 82.5v92h-201v47h250v-378zM320 762q-53 0 -83 35t-35 97h46q1 -19 5 -36.5t13 -30.5t22 -21t32 -8t32 8t22 21t13.5 30.5t5.5 36.5h45q-5 -62 -35.5 -97t-82.5 -35z" />
            <glyph glyph-name="gbreve" unicode="&#x11f;" horiz-adv-x="509"
           d="M115 -48q18 -104 136 -104q72 0 106 42t34 114v113q-23 -45 -60.5 -71.5t-94.5 -26.5q-41 0 -77 16.5t-62.5 48.5t-41.5 79.5t-15 109.5q0 63 14.5 112t40 82t61.5 50.5t80 17.5q56 0 95 -27.5t62 -76.5l8 89h43v-515q0 -44 -12 -80.5t-36 -63t-60 -41.5t-84 -15
q-88 0 -134.5 38t-58.5 109h56zM95 273q0 -103 41.5 -156t108.5 -53q33 0 60.5 11.5t47.5 36.5t31.5 65t11.5 97q0 111 -40.5 163.5t-110.5 52.5q-68 0 -109 -53t-41 -164zM247 592q-53 0 -83 35t-35 97h46q1 -19 5 -36.5t13 -30.5t22 -21t32 -8t32 8t22 21t13.5 30.5
t5.5 36.5h45q-5 -62 -35.5 -97t-82.5 -35z" />
            <glyph glyph-name="Gdotaccent" unicode="&#x120;" horiz-adv-x="640"
           d="M578 0h-40l-7 119q-29 -63 -80.5 -98.5t-124.5 -35.5q-60 0 -111.5 24t-89 71t-59 117t-21.5 163q0 92 21 162t58.5 117.5t89.5 71.5t114 24q104 0 169 -56.5t83 -154.5h-56q-35 163 -195 163q-49 0 -90.5 -20t-72 -60.5t-47.5 -102t-17 -144.5q0 -81 17.5 -142
t48.5 -102.5t73 -62t90 -20.5q44 0 80.5 15.5t62.5 43t40.5 65t14.5 82.5v92h-201v47h250v-378zM291 817v73h62v-73h-62z" />
            <glyph glyph-name="gdotaccent" unicode="&#x121;" horiz-adv-x="509"
           d="M115 -48q18 -104 136 -104q72 0 106 42t34 114v113q-23 -45 -60.5 -71.5t-94.5 -26.5q-41 0 -77 16.5t-62.5 48.5t-41.5 79.5t-15 109.5q0 63 14.5 112t40 82t61.5 50.5t80 17.5q56 0 95 -27.5t62 -76.5l8 89h43v-515q0 -44 -12 -80.5t-36 -63t-60 -41.5t-84 -15
q-88 0 -134.5 38t-58.5 109h56zM95 273q0 -103 41.5 -156t108.5 -53q33 0 60.5 11.5t47.5 36.5t31.5 65t11.5 97q0 111 -40.5 163.5t-110.5 52.5q-68 0 -109 -53t-41 -164zM215 647v73h62v-73h-62z" />
            <glyph glyph-name="Gcommaaccent" unicode="&#x122;" horiz-adv-x="640"
           d="M578 0h-40l-7 119q-29 -63 -80.5 -98.5t-124.5 -35.5q-60 0 -111.5 24t-89 71t-59 117t-21.5 163q0 92 21 162t58.5 117.5t89.5 71.5t114 24q104 0 169 -56.5t83 -154.5h-56q-35 163 -195 163q-49 0 -90.5 -20t-72 -60.5t-47.5 -102t-17 -144.5q0 -81 17.5 -142
t48.5 -102.5t73 -62t90 -20.5q44 0 80.5 15.5t62.5 43t40.5 65t14.5 82.5v92h-201v47h250v-378zM353 -148q0 -52 -24 -82t-62 -41v30q45 19 45 86h-18v74h59v-67z" />
            <glyph glyph-name="gcommaaccent" unicode="&#x123;" horiz-adv-x="509"
           d="M115 -48q18 -104 136 -104q72 0 106 42t34 114v113q-23 -45 -60.5 -71.5t-94.5 -26.5q-41 0 -77 16.5t-62.5 48.5t-41.5 79.5t-15 109.5q0 63 14.5 112t40 82t61.5 50.5t80 17.5q56 0 95 -27.5t62 -76.5l8 89h43v-515q0 -44 -12 -80.5t-36 -63t-60 -41.5t-84 -15
q-88 0 -134.5 38t-58.5 109h56zM95 273q0 -103 41.5 -156t108.5 -53q33 0 60.5 11.5t47.5 36.5t31.5 65t11.5 97q0 111 -40.5 163.5t-110.5 52.5q-68 0 -109 -53t-41 -164zM212 668q0 54 25 84.5t67 41.5v-32q-47 -19 -47 -87h20v-74h-65v67z" />
            <glyph glyph-name="Hcircumflex" unicode="&#x124;" horiz-adv-x="602"
           d="M532 720v-720h-57v342h-349v-342h-56v720h56v-329h349v329h57zM425 768h-52l-73 103l-73 -103h-52l96 137h59z" />
            <glyph glyph-name="hcircumflex" unicode="&#x125;" horiz-adv-x="486"
           d="M65 0v720h53v-285q47 100 149 100q75 0 116 -47.5t41 -136.5v-351h-53v349q0 71 -31.5 105.5t-85.5 34.5q-28 0 -52.5 -11.5t-43 -33.5t-29.5 -53t-11 -71v-320h-53zM325 768h-52l-73 103l-73 -103h-52l96 137h59z" />
            <glyph glyph-name="Hbar" unicode="&#x126;" horiz-adv-x="602"
           d="M126 720v-110h349v110h56v-110h55v-44h-55v-566h-56v342h-349v-342h-55v566h-56v44h56v110h55zM475 391v175h-349v-175h349z" />
            <glyph glyph-name="hbar" unicode="&#x127;" horiz-adv-x="487"
           d="M65 0v609h-49v46h49v65h54v-65h142v-46h-142v-174q23 50 60.5 75t87.5 25q44 0 74.5 -14.5t49 -43t26.5 -69.5t8 -93v-315h-53v349q0 72 -29 106t-88 34q-28 0 -52.5 -11.5t-43 -33.5t-29.5 -53t-11 -71v-320h-54z" />
            <glyph glyph-name="Itilde" unicode="&#x128;" horiz-adv-x="196"
           d="M126 720v-720h-56v720h56zM148 798q-18 0 -30.5 5.5t-22.5 11.5t-20.5 11.5t-25.5 5.5q-29 0 -67 -34v48q18 15 34 22.5t36 7.5q18 0 30.5 -5.5t22.5 -11.5t20 -11.5t25 -5.5q29 0 66 34v-48q-18 -15 -33.5 -22.5t-34.5 -7.5z" />
            <glyph glyph-name="itilde" unicode="&#x129;" horiz-adv-x="184"
           d="M143 628q-18 0 -30.5 5.5t-22.5 11.5t-20.5 11.5t-25.5 5.5q-29 0 -67 -34v48q18 15 34 22.5t36 7.5q18 0 30.5 -5.5t22.5 -11.5t20 -11.5t25 -5.5q29 0 66 34v-48q-18 -15 -33.5 -22.5t-34.5 -7.5zM66 0v520h53v-520h-53z" />
            <glyph glyph-name="Imacron" unicode="&#x12a;" horiz-adv-x="196"
           d="M126 720v-720h-56v720h56zM-8 823v46h213v-46h-213z" />
            <glyph glyph-name="imacron" unicode="&#x12b;" horiz-adv-x="184"
           d="M-13 653v46h213v-46h-213zM66 0v520h53v-520h-53z" />
            <glyph glyph-name="Ibreve" unicode="&#x12c;" horiz-adv-x="196"
           d="M126 720v-720h-56v720h56zM99 762q-53 0 -83 35t-35 97h46q1 -19 5 -36.5t13 -30.5t22 -21t32 -8t32 8t22 21t13.5 30.5t5.5 36.5h45q-5 -62 -35.5 -97t-82.5 -35z" />
            <glyph glyph-name="ibreve" unicode="&#x12d;" horiz-adv-x="184"
           d="M66 0v520h53v-520h-53zM93 592q-53 0 -83 35t-35 97h46q1 -19 5 -36.5t13 -30.5t22 -21t32 -8t32 8t22 21t13.5 30.5t5.5 36.5h45q-5 -62 -35.5 -97t-82.5 -35z" />
            <glyph glyph-name="Iogonek" unicode="&#x12e;" horiz-adv-x="196"
           d="M125 720v-720h-7q-45 -26 -74.5 -57.5t-29.5 -73.5q0 -32 17.5 -50t44.5 -18q22 0 36 11.5t24 38.5h45q-12 -42 -39 -65.5t-69 -23.5q-47 0 -74.5 26t-27.5 76q0 42 27 78.5t72 59.5v718h55z" />
            <glyph glyph-name="iogonek" unicode="&#x12f;" horiz-adv-x="184"
           d="M178 -149q-12 -42 -39 -65.5t-69 -23.5q-48 0 -75 26t-27 76q0 42 27 78.5t71 59.5v518h53v-520h-5q-45 -26 -74.5 -57.5t-29.5 -73.5q0 -32 18 -50t44 -18q23 0 37 11.5t23 38.5h46zM62 646v74h62v-74h-62z" />
            <glyph glyph-name="Idotaccent" unicode="&#x130;" horiz-adv-x="196"
           d="M126 720v-720h-56v720h56zM67 817v73h62v-73h-62z" />
            <glyph glyph-name="dotlessi" unicode="&#x131;" horiz-adv-x="184"
           d="M66 0v520h53v-520h-53z" />
            <glyph glyph-name="IJ" unicode="&#x132;" horiz-adv-x="656"
           d="M126 720v-720h-56v720h56zM280 177q2 -69 37 -106.5t93 -37.5q59 0 92.5 41.5t33.5 126.5v519h55v-519q0 -101 -47.5 -158.5t-134.5 -57.5q-42 0 -76 14t-57.5 39t-36.5 60.5t-14 78.5h55z" />
            <glyph glyph-name="ij" unicode="&#x133;" horiz-adv-x="366"
           d="M66 0v520h53v-520h-53zM61 647v73h62v-73h-62zM135 -138q14 -5 29.5 -8t25.5 -3q32 0 44.5 18.5t12.5 63.5v587h53v-590q0 -60 -24.5 -92.5t-76.5 -32.5q-14 0 -30.5 2.5t-33.5 8.5v46zM243 647v73h62v-73h-62z" />
            <glyph glyph-name="Jcircumflex" unicode="&#x134;" horiz-adv-x="460"
           d="M84 177q2 -69 37 -106.5t93 -37.5q59 0 92.5 41.5t33.5 126.5v519h55v-519q0 -101 -47.5 -158.5t-134.5 -57.5q-42 0 -76 14t-57.5 39t-36.5 60.5t-14 78.5h55zM486 768h-52l-73 103l-73 -103h-52l96 137h59z" />
            <glyph glyph-name="jcircumflex" unicode="&#x135;" horiz-adv-x="182"
           d="M-49 -138q14 -5 29.5 -8t25.5 -3q32 0 44.5 18t12.5 64v587h53v-590q0 -60 -24.5 -92.5t-76.5 -32.5q-14 0 -30.5 2.5t-33.5 8.5v46zM213 598h-52l-73 103l-73 -103h-52l96 137h59z" />
            <glyph glyph-name="Kcommaaccent" unicode="&#x136;" horiz-adv-x="529"
           d="M445 0l-319 355v-355h-56v720h56v-336l302 336h64l-311 -347l338 -373h-74zM291 -148q0 -52 -24 -82t-62 -41v30q45 19 45 86h-18v74h59v-67z" />
            <glyph glyph-name="kcommaaccent" unicode="&#x137;" horiz-adv-x="433"
           d="M66 0v720h53v-414l216 214h67l-229 -226l258 -294h-69l-243 277v-277h-53zM252 -148q0 -52 -24 -82t-62 -41v30q45 19 45 86h-18v74h59v-67z" />
            <glyph glyph-name="kgreenlandic" unicode="&#x138;" horiz-adv-x="433"
           d="M66 0v520h53v-237l220 237h63l-230 -245l259 -275h-68l-244 260v-260h-53z" />
            <glyph glyph-name="Lacute" unicode="&#x139;" horiz-adv-x="483"
           d="M126 720v-670h321v-50h-377v720h56zM138 905h71l-113 -137h-48z" />
            <glyph glyph-name="lacute" unicode="&#x13a;" horiz-adv-x="184"
           d="M119 0h-53v720h53v-720zM127 905h71l-113 -137h-48z" />
            <glyph glyph-name="Lcommaaccent" unicode="&#x13b;" horiz-adv-x="483"
           d="M126 720v-670h321v-50h-377v720h56zM282 -148q0 -52 -24 -82t-62 -41v30q45 19 45 86h-18v74h59v-67z" />
            <glyph glyph-name="lcommaaccent" unicode="&#x13c;" horiz-adv-x="184"
           d="M119 0h-53v720h53v-720zM123 -148q0 -52 -24 -82t-62 -41v30q45 19 45 86h-18v74h59v-67z" />
            <glyph glyph-name="Lcaron" unicode="&#x13d;" horiz-adv-x="483"
           d="M126 720v-670h321v-50h-377v720h56zM286 654q0 -52 -25 -80t-67 -39v31q26 10 37 28t11 53h-20v73h64v-66z" />
            <glyph glyph-name="lcaron" unicode="&#x13e;" horiz-adv-x="217"
           d="M119 0h-53v720h53v-720zM247 654q0 -52 -25 -80t-67 -39v31q26 10 37 28t11 53h-20v73h64v-66z" />
            <glyph glyph-name="Ldot" unicode="&#x13f;" horiz-adv-x="483"
           d="M126 720v-670h321v-50h-377v720h56zM293 341v73h62v-73h-62z" />
            <glyph glyph-name="ldot" unicode="&#x140;" horiz-adv-x="235"
           d="M119 0h-53v720h53v-720zM173 341v73h62v-73h-62z" />
            <glyph glyph-name="Lslash" unicode="&#x141;" horiz-adv-x="484"
           d="M125 720v-311l135 89v-58l-135 -90v-301h323v-49h-378v314l-51 -34v58l51 34v348h55z" />
            <glyph glyph-name="lslash" unicode="&#x142;" horiz-adv-x="185"
           d="M118 426l65 45v-55l-65 -46v-370h-53v332l-63 -44v56l63 44v332h53v-294z" />
            <glyph glyph-name="Nacute" unicode="&#x143;" horiz-adv-x="624"
           d="M553 720v-720h-63l-368 643v-643h-52v720h68l366 -638v638h49zM357 905h71l-113 -137h-48z" />
            <glyph glyph-name="nacute" unicode="&#x144;" horiz-adv-x="486"
           d="M65 0v520h44q2 -23 3.5 -45t3.5 -45q49 105 151 105q75 0 116 -47t41 -137v-351h-53v349q0 70 -28.5 105t-88.5 35q-28 0 -52.5 -11.5t-43 -33t-29.5 -53t-11 -70.5v-321h-53zM298 735h71l-113 -137h-48z" />
            <glyph glyph-name="Ncommaaccent" unicode="&#x145;" horiz-adv-x="624"
           d="M553 720v-720h-63l-368 643v-643h-52v720h68l366 -638v638h49zM345 -148q0 -52 -24 -82t-62 -41v30q45 19 45 86h-18v74h59v-67z" />
            <glyph glyph-name="ncommaaccent" unicode="&#x146;" horiz-adv-x="486"
           d="M65 0v520h44q2 -23 3.5 -45t3.5 -45q49 105 151 105q75 0 116 -47t41 -137v-351h-53v349q0 70 -28.5 105t-88.5 35q-28 0 -52.5 -11.5t-43 -33t-29.5 -53t-11 -70.5v-321h-53zM283 -148q0 -52 -24 -82t-62 -41v30q45 19 45 86h-18v74h59v-67z" />
            <glyph glyph-name="Ncaron" unicode="&#x147;" horiz-adv-x="624"
           d="M553 720v-720h-63l-368 643v-643h-52v720h68l366 -638v638h49zM197 905h52l73 -105l72 105h53l-96 -137h-58z" />
            <glyph glyph-name="ncaron" unicode="&#x148;" horiz-adv-x="486"
           d="M65 0v520h44q2 -23 3.5 -45t3.5 -45q49 105 151 105q75 0 116 -47t41 -137v-351h-53v349q0 70 -28.5 105t-88.5 35q-28 0 -52.5 -11.5t-43 -33t-29.5 -53t-11 -70.5v-321h-53zM126 735h52l73 -105l72 105h53l-96 -137h-58z" />
            <glyph glyph-name="napostrophe" unicode="&#x149;" horiz-adv-x="486"
           d="M65 0v520h44q2 -23 3.5 -45t3.5 -45q49 105 151 105q75 0 116 -47t41 -137v-351h-53v349q0 70 -28.5 105t-88.5 35q-28 0 -52.5 -11.5t-43 -33t-29.5 -53t-11 -70.5v-321h-53zM93 654q0 -52 -25 -80t-67 -39v31q26 10 37 28t11 53h-20v73h64v-66z" />
            <glyph glyph-name="Eng" unicode="&#x14a;" horiz-adv-x="624"
           d="M553 720v-789q0 -125 -109 -125q-25 0 -55 11v45q14 -5 29.5 -7.5t26.5 -2.5q32 0 44.5 18t12.5 64v66h-13l-367 642v-642h-52v720h68l365 -639v639h50z" />
            <glyph glyph-name="eng" unicode="&#x14b;" horiz-adv-x="486"
           d="M65 0v520h44q2 -23 3.5 -45t3.5 -45q49 105 151 105q75 0 116 -47t41 -137v-420q0 -63 -25.5 -94t-82.5 -31q-26 0 -57 11v45q14 -5 29 -7.5t26 -2.5q32 0 44.5 18t12.5 64v415q0 72 -30 106t-87 34q-28 0 -52.5 -11.5t-43 -33t-29.5 -53t-11 -70.5v-321h-53z" />
            <glyph glyph-name="Omacron" unicode="&#x14c;" horiz-adv-x="661"
           d="M331 32q49 0 90.5 20t72 60.5t47.5 102t17 144.5q0 80 -16.5 141.5t-46.5 103t-72 63t-93 21.5t-93 -21.5t-72 -63t-46.5 -103t-16.5 -141.5q0 -82 17 -143t48 -102t72.5 -61.5t91.5 -20.5zM331 -15q-63 0 -115.5 24.5t-90.5 72t-59 117t-21 160.5t21 161.5t59 118
t90.5 72t114.5 24.5q61 0 113.5 -24.5t90.5 -72t60 -118t22 -161.5t-21.5 -160.5t-60 -117t-90.5 -72t-113 -24.5zM220 823v46h213v-46h-213z" />
            <glyph glyph-name="omacron" unicode="&#x14d;" horiz-adv-x="503"
           d="M40 260q0 69 15.5 120.5t43 86t66.5 51.5t87 17q97 0 154 -69t57 -206q0 -136 -57 -205.5t-153 -69.5q-97 0 -155 69.5t-58 205.5zM94 260q0 -115 43 -173t115 -58q75 0 116 58t41 173q0 117 -41.5 174t-115.5 57t-116 -58t-42 -173zM144 653v46h213v-46h-213z" />
            <glyph glyph-name="Obreve" unicode="&#x14e;" horiz-adv-x="661"
           d="M331 32q49 0 90.5 20t72 60.5t47.5 102t17 144.5q0 80 -16.5 141.5t-46.5 103t-72 63t-93 21.5t-93 -21.5t-72 -63t-46.5 -103t-16.5 -141.5q0 -82 17 -143t48 -102t72.5 -61.5t91.5 -20.5zM331 -15q-63 0 -115.5 24.5t-90.5 72t-59 117t-21 160.5t21 161.5t59 118
t90.5 72t114.5 24.5q61 0 113.5 -24.5t90.5 -72t60 -118t22 -161.5t-21.5 -160.5t-60 -117t-90.5 -72t-113 -24.5zM330 762q-53 0 -83 35t-35 97h46q1 -19 5 -36.5t13 -30.5t22 -21t32 -8t32 8t22 21t13.5 30.5t5.5 36.5h45q-5 -62 -35.5 -97t-82.5 -35z" />
            <glyph glyph-name="obreve" unicode="&#x14f;" horiz-adv-x="503"
           d="M40 260q0 69 15.5 120.5t43 86t66.5 51.5t87 17q97 0 154 -69t57 -206q0 -136 -57 -205.5t-153 -69.5q-97 0 -155 69.5t-58 205.5zM94 260q0 -115 43 -173t115 -58q75 0 116 58t41 173q0 117 -41.5 174t-115.5 57t-116 -58t-42 -173zM251 592q-53 0 -83 35t-35 97h46
q1 -19 5 -36.5t13 -30.5t22 -21t32 -8t32 8t22 21t13.5 30.5t5.5 36.5h45q-5 -62 -35.5 -97t-82.5 -35z" />
            <glyph glyph-name="Ohungarumlaut" unicode="&#x150;" horiz-adv-x="661"
           d="M331 32q49 0 90.5 20t72 60.5t47.5 102t17 144.5q0 80 -16.5 141.5t-46.5 103t-72 63t-93 21.5t-93 -21.5t-72 -63t-46.5 -103t-16.5 -141.5q0 -82 17 -143t48 -102t72.5 -61.5t91.5 -20.5zM331 -15q-63 0 -115.5 24.5t-90.5 72t-59 117t-21 160.5t21 161.5t59 118
t90.5 72t114.5 24.5q61 0 113.5 -24.5t90.5 -72t60 -118t22 -161.5t-21.5 -160.5t-60 -117t-90.5 -72t-113 -24.5zM302 905h66l-93 -137h-45zM446 905h65l-93 -137h-44z" />
            <glyph glyph-name="ohungarumlaut" unicode="&#x151;" horiz-adv-x="503"
           d="M40 260q0 69 15.5 120.5t43 86t66.5 51.5t87 17q97 0 154 -69t57 -206q0 -136 -57 -205.5t-153 -69.5q-97 0 -155 69.5t-58 205.5zM94 260q0 -115 43 -173t115 -58q75 0 116 58t41 173q0 117 -41.5 174t-115.5 57t-116 -58t-42 -173zM228 735h66l-93 -137h-45zM372 735
h65l-93 -137h-44z" />
            <glyph glyph-name="OE" unicode="&#x152;" horiz-adv-x="827"
           d="M779 0h-357q-20 -5 -43.5 -10t-48.5 -5q-64 0 -116.5 23t-90 69.5t-58.5 117t-21 166.5q0 95 23 165t62.5 116.5t92 69.5t110.5 23q26 0 49 -4.5t43 -10.5h355v-49h-304v-281h278v-48h-278v-294h304v-48zM330 32q22 0 45.5 5.5t43.5 13.5v618q-39 18 -86 18
q-53 0 -95.5 -21.5t-73 -62.5t-47 -102t-16.5 -140q0 -83 17 -145t47.5 -103t72.5 -61t92 -20z" />
            <glyph glyph-name="oe" unicode="&#x153;" horiz-adv-x="868"
           d="M460 247q2 -59 16.5 -100t37.5 -67t52 -38t60 -12q50 0 85.5 30.5t48.5 84.5h56q-17 -73 -68.5 -116.5t-123.5 -43.5q-60 0 -111.5 37.5t-76.5 109.5q-23 -69 -70.5 -108t-112.5 -39q-45 0 -84 16t-68 50t-45.5 86t-16.5 123q0 70 17 122t46 86t67.5 50.5t82.5 16.5
q67 0 113.5 -38.5t70.5 -107.5q26 71 73 108.5t106 37.5q43 0 80.5 -15.5t66 -50t45 -89.5t17.5 -133h-364zM94 260q0 -115 43.5 -173.5t114.5 -58.5t113.5 57.5t42.5 174.5q0 116 -43.5 173.5t-112.5 57.5q-72 0 -115 -58t-43 -173zM616 491q-63 0 -105.5 -51t-49.5 -149
h308q-5 98 -45 149t-108 51z" />
            <glyph glyph-name="Racute" unicode="&#x154;" horiz-adv-x="552"
           d="M473 0q-45 74 -88 147.5t-88 148.5h-173v-296h-55v720h199q120 0 180.5 -55.5t60.5 -155.5q0 -69 -39 -124.5t-117 -77.5l185 -307h-65zM124 672v-329h157q81 0 125 45.5t44 119.5q0 78 -42.5 121t-123.5 43h-160zM304 905h71l-113 -137h-48z" />
            <glyph glyph-name="racute" unicode="&#x155;" horiz-adv-x="302"
           d="M66 0v520h43l8 -100q18 60 51 87.5t76 27.5q14 0 27 -2.5t21 -5.5v-52q-12 4 -24.5 6.5t-26.5 2.5q-25 0 -47 -13.5t-38.5 -39t-26.5 -63t-10 -84.5v-284h-53zM228 735h71l-113 -137h-48z" />
            <glyph glyph-name="Rcommaaccent" unicode="&#x156;" horiz-adv-x="552"
           d="M473 0q-45 74 -88 147.5t-88 148.5h-173v-296h-55v720h199q120 0 180.5 -55.5t60.5 -155.5q0 -69 -39 -124.5t-117 -77.5l185 -307h-65zM124 672v-329h157q81 0 125 45.5t44 119.5q0 78 -42.5 121t-123.5 43h-160zM298 -148q0 -52 -24 -82t-62 -41v30q45 19 45 86h-18v74
h59v-67z" />
            <glyph glyph-name="rcommaaccent" unicode="&#x157;" horiz-adv-x="302"
           d="M66 0v520h43l8 -100q18 60 51 87.5t76 27.5q14 0 27 -2.5t21 -5.5v-52q-12 4 -24.5 6.5t-26.5 2.5q-25 0 -47 -13.5t-38.5 -39t-26.5 -63t-10 -84.5v-284h-53zM123 -148q0 -52 -24 -82t-62 -41v30q45 19 45 86h-18v74h59v-67z" />
            <glyph glyph-name="Rcaron" unicode="&#x158;" horiz-adv-x="552"
           d="M473 0q-45 74 -88 147.5t-88 148.5h-173v-296h-55v720h199q120 0 180.5 -55.5t60.5 -155.5q0 -69 -39 -124.5t-117 -77.5l185 -307h-65zM124 672v-329h157q81 0 125 45.5t44 119.5q0 78 -42.5 121t-123.5 43h-160zM126 905h52l73 -105l72 105h53l-96 -137h-58z" />
            <glyph glyph-name="rcaron" unicode="&#x159;" horiz-adv-x="302"
           d="M66 0v520h43l8 -100q18 60 51 87.5t76 27.5q14 0 27 -2.5t21 -5.5v-52q-12 4 -24.5 6.5t-26.5 2.5q-25 0 -47 -13.5t-38.5 -39t-26.5 -63t-10 -84.5v-284h-53zM45 735h52l73 -105l72 105h53l-96 -137h-58z" />
            <glyph glyph-name="Sacute" unicode="&#x15a;" horiz-adv-x="567"
           d="M289 -15q-110 0 -174 51.5t-78 147.5h56q13 -78 63.5 -114.5t132.5 -36.5q91 0 134 38.5t43 109.5q0 32 -9 58t-32.5 48t-63.5 40t-102 34q-105 28 -150.5 75.5t-45.5 121.5q0 39 13.5 71.5t41 56t68.5 36.5t97 13q99 0 161.5 -47.5t77.5 -131.5h-57q-12 62 -57.5 96.5
t-124.5 34.5q-87 0 -125 -34.5t-38 -91.5q0 -29 7.5 -52t27 -42t53.5 -34.5t87 -29.5q63 -17 106.5 -38t70 -48t38.5 -60.5t12 -74.5q0 -89 -58 -143t-175 -54zM327 905h71l-113 -137h-48z" />
            <glyph glyph-name="sacute" unicode="&#x15b;" horiz-adv-x="438"
           d="M220 29q64 0 94 28.5t30 72.5q0 49 -32.5 78t-113.5 46q-72 15 -111 49t-39 96q0 29 9.5 54t30 43t52 28.5t75.5 10.5q76 0 123 -39t57 -104h-54q-6 43 -39 71.5t-89 28.5q-62 0 -86.5 -25.5t-24.5 -62.5q0 -22 6 -38.5t20.5 -29t38.5 -22.5t60 -18q94 -22 132.5 -61
t38.5 -102q0 -64 -45 -106t-134 -42q-87 0 -133 42t-54 111h55q5 -51 37.5 -80t95.5 -29zM269 735h71l-113 -137h-48z" />
            <glyph glyph-name="Scircumflex" unicode="&#x15c;" horiz-adv-x="567"
           d="M289 -15q-110 0 -174 51.5t-78 147.5h56q13 -78 63.5 -114.5t132.5 -36.5q91 0 134 38.5t43 109.5q0 32 -9 58t-32.5 48t-63.5 40t-102 34q-105 28 -150.5 75.5t-45.5 121.5q0 39 13.5 71.5t41 56t68.5 36.5t97 13q99 0 161.5 -47.5t77.5 -131.5h-57q-12 62 -57.5 96.5
t-124.5 34.5q-87 0 -125 -34.5t-38 -91.5q0 -29 7.5 -52t27 -42t53.5 -34.5t87 -29.5q63 -17 106.5 -38t70 -48t38.5 -60.5t12 -74.5q0 -89 -58 -143t-175 -54zM403 768h-52l-73 103l-73 -103h-52l96 137h59z" />
            <glyph glyph-name="scircumflex" unicode="&#x15d;" horiz-adv-x="438"
           d="M220 29q64 0 94 28.5t30 72.5q0 49 -32.5 78t-113.5 46q-72 15 -111 49t-39 96q0 29 9.5 54t30 43t52 28.5t75.5 10.5q76 0 123 -39t57 -104h-54q-6 43 -39 71.5t-89 28.5q-62 0 -86.5 -25.5t-24.5 -62.5q0 -22 6 -38.5t20.5 -29t38.5 -22.5t60 -18q94 -22 132.5 -61
t38.5 -102q0 -64 -45 -106t-134 -42q-87 0 -133 42t-54 111h55q5 -51 37.5 -80t95.5 -29zM338 598h-52l-73 103l-73 -103h-52l96 137h59z" />
            <glyph glyph-name="Scedilla" unicode="&#x15e;" horiz-adv-x="567"
           d="M401 -143q0 -41 -27.5 -69.5t-78.5 -28.5q-44 0 -72 23t-33 64h44q2 -22 17.5 -35.5t44.5 -13.5q32 0 47 16.5t15 42.5q0 30 -21.5 46.5t-72.5 16.5l5 67q-101 5 -159.5 56t-72.5 142h56q13 -78 63.5 -114.5t132.5 -36.5q91 0 134 38.5t43 109.5q0 32 -9 58t-32.5 48
t-63.5 40t-102 34q-105 28 -150.5 75.5t-45.5 121.5q0 39 13.5 71.5t41 56t68.5 36.5t97 13q99 0 161.5 -47.5t77.5 -131.5h-57q-12 62 -57.5 96.5t-124.5 34.5q-87 0 -125 -34.5t-38 -91.5q0 -29 7.5 -52t27 -42t53.5 -34.5t87 -29.5q63 -17 106.5 -38t70 -48t38.5 -60.5
t12 -74.5q0 -85 -52.5 -138t-160.5 -58v-37q45 -4 68.5 -29t23.5 -63z" />
            <glyph glyph-name="scedilla" unicode="&#x15f;" horiz-adv-x="438"
           d="M331 -143q0 -41 -27 -69.5t-78 -28.5q-45 0 -73 23t-33 64h44q3 -22 18 -35.5t44 -13.5q32 0 47.5 16.5t15.5 42.5q0 30 -21.5 46.5t-72.5 16.5l5 67q-78 5 -119.5 46t-48.5 106h55q5 -51 37.5 -80t95.5 -29q64 0 94 28.5t30 72.5q0 49 -32.5 78.5t-113.5 46.5
q-72 15 -111 48.5t-39 95.5q0 29 9.5 54t30 43t52 28.5t75.5 10.5q76 0 123 -39t57 -104h-54q-6 43 -39 71.5t-89 28.5q-62 0 -86.5 -25.5t-24.5 -62.5q0 -22 6 -38.5t20.5 -29t38.5 -22.5t60 -18q94 -22 132.5 -61t38.5 -102q0 -60 -39.5 -100.5t-119.5 -45.5v-38
q45 -4 68.5 -29t23.5 -63z" />
            <glyph glyph-name="Scaron" unicode="&#x160;" horiz-adv-x="567"
           d="M289 -15q-110 0 -174 51.5t-78 147.5h56q13 -78 63.5 -114.5t132.5 -36.5q91 0 134 38.5t43 109.5q0 32 -9 58t-32.5 48t-63.5 40t-102 34q-105 28 -150.5 75.5t-45.5 121.5q0 39 13.5 71.5t41 56t68.5 36.5t97 13q99 0 161.5 -47.5t77.5 -131.5h-57q-12 62 -57.5 96.5
t-124.5 34.5q-87 0 -125 -34.5t-38 -91.5q0 -29 7.5 -52t27 -42t53.5 -34.5t87 -29.5q63 -17 106.5 -38t70 -48t38.5 -60.5t12 -74.5q0 -89 -58 -143t-175 -54zM152 905h52l73 -105l72 105h53l-96 -137h-58z" />
            <glyph glyph-name="scaron" unicode="&#x161;" horiz-adv-x="438"
           d="M220 29q64 0 94 28.5t30 72.5q0 49 -32.5 78t-113.5 46q-72 15 -111 49t-39 96q0 29 9.5 54t30 43t52 28.5t75.5 10.5q76 0 123 -39t57 -104h-54q-6 43 -39 71.5t-89 28.5q-62 0 -86.5 -25.5t-24.5 -62.5q0 -22 6 -38.5t20.5 -29t38.5 -22.5t60 -18q94 -22 132.5 -61
t38.5 -102q0 -64 -45 -106t-134 -42q-87 0 -133 42t-54 111h55q5 -51 37.5 -80t95.5 -29zM90 735h52l73 -105l72 105h53l-96 -137h-58z" />
            <glyph glyph-name="Tcommaaccent" unicode="&#x162;" horiz-adv-x="504"
           d="M490 670h-210v-670h-56v670h-210v50h476v-50zM282 -148q0 -52 -24 -82t-62 -41v30q45 19 45 86h-18v74h59v-67z" />
            <glyph glyph-name="tcommaaccent" unicode="&#x163;" horiz-adv-x="269"
           d="M138 474v-370q0 -74 58 -74q12 0 25 2t30 7v-44q-30 -10 -60 -10q-54 0 -80 30.5t-26 89.5v369h-67v46h67l3 125h50v-125h105v-46h-105zM174 -148q0 -52 -24 -82t-62 -41v30q45 19 45 86h-18v74h59v-67z" />
            <glyph glyph-name="Tcaron" unicode="&#x164;" horiz-adv-x="504"
           d="M490 670h-210v-670h-56v670h-210v50h476v-50zM126 905h52l73 -105l72 105h53l-96 -137h-58z" />
            <glyph glyph-name="tcaron" unicode="&#x165;" horiz-adv-x="302"
           d="M297 659q0 -49 -21 -75t-58 -37v31q21 9 29 25.5t8 45.5h-17v71h59v-61zM138 474v-370q0 -38 15.5 -56t42.5 -18q12 0 25 2t30 7v-44q-30 -10 -60 -10q-50 0 -78 30.5t-28 89.5v369h-67v46h67l3 125h50v-125h105v-46h-105z" />
            <glyph glyph-name="Tbar" unicode="&#x166;" horiz-adv-x="504"
           d="M489 670h-210v-239h112v-46h-112v-385h-56v385h-110v46h110v239h-209v50h475v-50z" />
            <glyph glyph-name="tbar" unicode="&#x167;" horiz-adv-x="269"
           d="M138 104q0 -38 13.5 -56t44.5 -18q12 0 25 2t30 7v-44q-30 -10 -60 -10q-61 0 -83.5 36.5t-22.5 106.5v210h-60v43h60v93h-67v46h67l3 125h50v-125h105v-46h-105v-93h95v-43h-95v-234z" />
            <glyph glyph-name="Utilde" unicode="&#x168;" horiz-adv-x="615"
           d="M120 234q0 -45 13 -82t37 -63.5t58.5 -41t78.5 -14.5q43 0 78 14.5t59 41t37 63.5t13 82v486h55v-482q0 -53 -16 -99.5t-46.5 -80.5t-76 -53.5t-103.5 -19.5q-60 0 -105 19.5t-75.5 53.5t-46 80.5t-15.5 99.5v482h55v-486zM358 798q-18 0 -30.5 5.5t-22.5 11.5
t-20.5 11.5t-25.5 5.5q-29 0 -67 -34v48q18 15 34 22.5t36 7.5q18 0 30.5 -5.5t22.5 -11.5t20 -11.5t25 -5.5q29 0 66 34v-48q-18 -15 -33.5 -22.5t-34.5 -7.5z" />
            <glyph glyph-name="utilde" unicode="&#x169;" horiz-adv-x="483"
           d="M115 520v-352q0 -72 29 -105t87 -33q61 0 97 47.5t36 123.5v319h53v-520h-44l-6 82q-24 -51 -63 -74t-86 -23q-72 0 -114 44.5t-42 138.5v352h53zM284 628q-18 0 -30.5 5.5t-22.5 11.5t-20.5 11.5t-25.5 5.5q-29 0 -67 -34v48q18 15 34 22.5t36 7.5q18 0 30.5 -5.5
t22.5 -11.5t20 -11.5t25 -5.5q29 0 66 34v-48q-18 -15 -33.5 -22.5t-34.5 -7.5z" />
            <glyph glyph-name="Umacron" unicode="&#x16a;" horiz-adv-x="615"
           d="M120 234q0 -45 13 -82t37 -63.5t58.5 -41t78.5 -14.5q43 0 78 14.5t59 41t37 63.5t13 82v486h55v-482q0 -53 -16 -99.5t-46.5 -80.5t-76 -53.5t-103.5 -19.5q-60 0 -105 19.5t-75.5 53.5t-46 80.5t-15.5 99.5v482h55v-486zM201 823v46h213v-46h-213z" />
            <glyph glyph-name="umacron" unicode="&#x16b;" horiz-adv-x="483"
           d="M115 520v-352q0 -72 29 -105t87 -33q61 0 97 47.5t36 123.5v319h53v-520h-44l-6 82q-24 -51 -63 -74t-86 -23q-72 0 -114 44.5t-42 138.5v352h53zM129 653v46h213v-46h-213z" />
            <glyph glyph-name="Ubreve" unicode="&#x16c;" horiz-adv-x="615"
           d="M120 234q0 -45 13 -82t37 -63.5t58.5 -41t78.5 -14.5q43 0 78 14.5t59 41t37 63.5t13 82v486h55v-482q0 -53 -16 -99.5t-46.5 -80.5t-76 -53.5t-103.5 -19.5q-60 0 -105 19.5t-75.5 53.5t-46 80.5t-15.5 99.5v482h55v-486zM307 762q-53 0 -83 35t-35 97h46q1 -19 5 -36.5
t13 -30.5t22 -21t32 -8t32 8t22 21t13.5 30.5t5.5 36.5h45q-5 -62 -35.5 -97t-82.5 -35z" />
            <glyph glyph-name="ubreve" unicode="&#x16d;" horiz-adv-x="483"
           d="M115 520v-352q0 -72 29 -105t87 -33q61 0 97 47.5t36 123.5v319h53v-520h-44l-6 82q-24 -51 -63 -74t-86 -23q-72 0 -114 44.5t-42 138.5v352h53zM236 592q-53 0 -83 35t-35 97h46q1 -19 5 -36.5t13 -30.5t22 -21t32 -8t32 8t22 21t13.5 30.5t5.5 36.5h45
q-5 -62 -35.5 -97t-82.5 -35z" />
            <glyph glyph-name="Uring" unicode="&#x16e;" horiz-adv-x="615"
           d="M120 234q0 -45 13 -82t37 -63.5t58.5 -41t78.5 -14.5q43 0 78 14.5t59 41t37 63.5t13 82v486h55v-482q0 -53 -16 -99.5t-46.5 -80.5t-76 -53.5t-103.5 -19.5q-60 0 -105 19.5t-75.5 53.5t-46 80.5t-15.5 99.5v482h55v-486zM242 870q0 -38 17.5 -59.5t47.5 -21.5
q31 0 48.5 21.5t17.5 59.5t-17 59.5t-49 21.5q-30 0 -47.5 -21.5t-17.5 -59.5zM414 870q0 -51 -28 -83.5t-79 -32.5q-50 0 -77.5 32.5t-27.5 83.5t27.5 83.5t77.5 32.5q51 0 79 -32.5t28 -83.5z" />
            <glyph glyph-name="uring" unicode="&#x16f;" horiz-adv-x="483"
           d="M115 520v-352q0 -72 29 -105t87 -33q61 0 97 47.5t36 123.5v319h53v-520h-44l-6 82q-24 -51 -63 -74t-86 -23q-72 0 -114 44.5t-42 138.5v352h53zM173 700q0 -38 17.5 -59.5t47.5 -21.5q31 0 48.5 21.5t17.5 59.5t-17 59.5t-49 21.5q-30 0 -47.5 -21.5t-17.5 -59.5z
M345 700q0 -51 -28 -83.5t-79 -32.5q-50 0 -77.5 32.5t-27.5 83.5t27.5 83.5t77.5 32.5q51 0 79 -32.5t28 -83.5z" />
            <glyph glyph-name="Uhungarumlaut" unicode="&#x170;" horiz-adv-x="615"
           d="M120 234q0 -45 13 -82t37 -63.5t58.5 -41t78.5 -14.5q43 0 78 14.5t59 41t37 63.5t13 82v486h55v-482q0 -53 -16 -99.5t-46.5 -80.5t-76 -53.5t-103.5 -19.5q-60 0 -105 19.5t-75.5 53.5t-46 80.5t-15.5 99.5v482h55v-486zM270 905h66l-93 -137h-45zM414 905h65l-93 -137
h-44z" />
            <glyph glyph-name="uhungarumlaut" unicode="&#x171;" horiz-adv-x="483"
           d="M115 520v-352q0 -72 29 -105t87 -33q61 0 97 47.5t36 123.5v319h53v-520h-44l-6 82q-24 -51 -63 -74t-86 -23q-72 0 -114 44.5t-42 138.5v352h53zM216 735h66l-93 -137h-45zM360 735h65l-93 -137h-44z" />
            <glyph glyph-name="Uogonek" unicode="&#x172;" horiz-adv-x="615"
           d="M469 -149q-12 -42 -39 -65.5t-69 -23.5q-48 0 -75.5 26t-27.5 76q0 35 20 67t54 56q-6 -1 -12.5 -1.5t-12.5 -0.5q-60 0 -105 19.5t-75.5 53.5t-46 80.5t-15.5 99.5v482h55v-486q0 -45 13 -82.5t37 -63.5t58.5 -40.5t78.5 -14.5q43 0 78 14.5t59 41t37 63.5t13 82v486h55
v-482q0 -75 -30.5 -133.5t-80.5 -85.5q-63 -35 -99.5 -69t-36.5 -81q0 -68 61 -68q22 0 36.5 11.5t24.5 38.5h45z" />
            <glyph glyph-name="uogonek" unicode="&#x173;" horiz-adv-x="483"
           d="M115 520v-352q0 -72 29 -105t87 -33q61 0 97 47.5t36 123.5v319h53v-520q-45 -26 -74.5 -58t-29.5 -74q0 -33 16.5 -50t45.5 -17q22 0 36 11.5t24 38.5h45q-12 -42 -39 -65.5t-69 -23.5q-48 0 -75.5 26t-27.5 75q0 42 29 80t75 61l-6 78q-24 -51 -63 -74t-86 -23
q-72 0 -114 44.5t-42 138.5v352h53z" />
            <glyph glyph-name="Wcircumflex" unicode="&#x174;" horiz-adv-x="837"
           d="M827 720l-172 -720h-71l-164 660l-163 -660h-74l-173 720h58l154 -657l164 657h73l161 -655l155 655h52zM542 768h-52l-73 103l-73 -103h-52l96 137h59z" />
            <glyph glyph-name="wcircumflex" unicode="&#x175;" horiz-adv-x="680"
           d="M661 520l-131 -520h-65l-124 464l-119 -464h-66l-137 520h54l118 -463l118 463h67l122 -461l110 461h53zM464 598h-52l-73 103l-73 -103h-52l96 137h59z" />
            <glyph glyph-name="Ycircumflex" unicode="&#x176;" horiz-adv-x="548"
           d="M65 720l208 -385q54 97 106 192.5t105 192.5h58q-60 -110 -120.5 -219t-121.5 -219v-282h-54v283l-241 437h60zM399 768h-52l-73 103l-73 -103h-52l96 137h59z" />
            <glyph glyph-name="ycircumflex" unicode="&#x177;" horiz-adv-x="440"
           d="M425 520q-42 -132 -81.5 -262.5t-79.5 -261.5q-17 -53 -30.5 -89.5t-27.5 -59t-31.5 -32.5t-41.5 -10q-12 0 -25 3t-25 7v44q25 -9 46 -9q14 0 24.5 7.5t19.5 25t18.5 46.5t21.5 71h-20l-179 520h57l158 -476l142 476h54zM345 598h-52l-73 103l-73 -103h-52l96 137h59z
" />
            <glyph glyph-name="Ydieresis" unicode="&#x178;" horiz-adv-x="548"
           d="M65 720l208 -385q54 97 106 192.5t105 192.5h58q-60 -110 -120.5 -219t-121.5 -219v-282h-54v283l-241 437h60zM154 821v69h60v-69h-60zM333 821v69h60v-69h-60z" />
            <glyph glyph-name="Zacute" unicode="&#x179;" horiz-adv-x="557"
           d="M100 49h409v-49h-470v50l417 621h-397v49h459v-47zM324 905h71l-113 -137h-48z" />
            <glyph glyph-name="zacute" unicode="&#x17a;" horiz-adv-x="422"
           d="M87 46h303v-46h-358v52l305 423h-292v45h345v-53zM265 735h71l-113 -137h-48z" />
            <glyph glyph-name="Zdotaccent" unicode="&#x17b;" horiz-adv-x="557"
           d="M100 49h409v-49h-470v50l417 621h-397v49h459v-47zM249 817v73h62v-73h-62z" />
            <glyph glyph-name="zdotaccent" unicode="&#x17c;" horiz-adv-x="422"
           d="M87 46h303v-46h-358v52l305 423h-292v45h345v-53zM185 647v73h62v-73h-62z" />
            <glyph glyph-name="Zcaron" unicode="&#x17d;" horiz-adv-x="557"
           d="M100 49h409v-49h-470v50l417 621h-397v49h459v-47zM155 905h52l73 -105l72 105h53l-96 -137h-58z" />
            <glyph glyph-name="zcaron" unicode="&#x17e;" horiz-adv-x="422"
           d="M87 46h303v-46h-358v52l305 423h-292v45h345v-53zM91 735h52l73 -105l72 105h53l-96 -137h-58z" />
            <glyph glyph-name="longs" unicode="&#x17f;" horiz-adv-x="268"
           d="M143 0h-53v474h-67v46h67v88q0 61 28.5 94t82.5 33q37 0 72 -12v-45q-17 5 -35.5 8.5t-32.5 3.5q-62 0 -62 -80v-610z" />
            <glyph glyph-name="florin" unicode="&#x192;"
           d="M405 658q-18 5 -36 8.5t-32 3.5q-62 0 -62 -79v-89h108v-46h-108v-636h-53v636h-67v46h67v86q0 60 29 93.5t82 33.5q37 0 72 -12v-45z" />
            <glyph glyph-name="Aringacute" unicode="&#x1fa;" horiz-adv-x="581"
           d="M316 847h-47l90 113h70zM292 823q51 0 79 -29.5t28 -74.5q0 -35 -17.5 -61.5t-49.5 -37.5l243 -620h-62l-77 203h-296l-77 -203h-57l243 622q-30 11 -46 36.5t-16 60.5q0 45 27.5 74.5t77.5 29.5zM292 791q-30 0 -47.5 -18.5t-17.5 -53.5t17.5 -54t47.5 -19q31 0 48.5 19
t17.5 54t-17 53.5t-49 18.5zM157 250h263l-131 347z" />
            <glyph glyph-name="aringacute" unicode="&#x1fb;" horiz-adv-x="465"
           d="M53 386q6 67 54 108t127 41q81 0 125.5 -45t44.5 -126v-364h-44l-7 87q-20 -41 -60 -71.5t-104 -30.5q-70 0 -109.5 37.5t-39.5 103.5q0 69 39.5 113t138.5 60l132 21v50q0 58 -28.5 90t-89.5 32q-57 0 -88.5 -29t-36.5 -77h-54zM202 30q29 0 55.5 11.5t47 32t33 49
t12.5 62.5v92l-116 -19q-81 -13 -110.5 -45.5t-29.5 -83.5q0 -48 27.5 -73.5t80.5 -25.5zM160 652.018q0 -34.2012 17.5 -53.5518t47.5 -19.3506q31 0 48.5 19.3506t17.5 53.5518q0 34.2002 -17 53.5508t-49 19.3506q-30 0 -47.5 -19.3506t-17.5 -53.5508zM332 652.018
q0 -45.9014 -28 -75.1523t-79 -29.251q-50 0 -77.5 29.251t-27.5 75.1523q0 45.9004 27.5 75.1514t77.5 29.251q51 0 79 -29.251t28 -75.1514zM286 898.518h71l-113 -123.303h-48z" />
            <glyph glyph-name="AEacute" unicode="&#x1fc;" horiz-adv-x="819"
           d="M745 342h-277v-294h302v-48h-358v204h-248l-106 -204h-58l377 720h393v-49h-302v-281h277v-48zM412 250v427l-221 -427h221zM609 905h71l-113 -137h-48z" />
            <glyph glyph-name="aeacute" unicode="&#x1fd;" horiz-adv-x="810"
           d="M759 145q-17 -75 -67 -117.5t-125 -42.5q-61 0 -112 32t-80 108q-8 -27 -21.5 -52.5t-35.5 -45t-52 -31t-69 -11.5q-72 0 -115 35t-43 105q0 66 42.5 108.5t134.5 54.5l133 17v65q0 56 -28 88.5t-90 32.5q-57 0 -88 -28.5t-36 -77.5h-55q6 69 55 109.5t125 40.5
q62 0 101 -29.5t55 -83.5q30 60 74.5 86.5t95.5 26.5q42 0 79.5 -15t65.5 -47.5t45 -84t18 -124.5h-362q0 -65 13 -109.5t35 -72.5t51.5 -40t64.5 -12q51 0 86 29t48 86h57zM206 30q27 0 53 10.5t46 30t32 46.5t12 60v85l-116 -15q-40 -5 -66.5 -16t-42.5 -26.5t-23 -35
t-7 -41.5q0 -51 29.5 -74.5t82.5 -23.5zM558 491q-61 0 -102 -46.5t-50 -136.5h305q-7 87 -45.5 135t-107.5 48zM474 735h71l-113 -137h-48z" />
            <glyph glyph-name="Oslashacute" unicode="&#x1fe;" horiz-adv-x="661"
           d="M331 -15q-25 0 -47.5 4t-43.5 11l-35 -110h-49l41 129q-71 40 -111.5 125.5t-40.5 214.5q0 91 21 161.5t59 118t90.5 72t114.5 24.5q48 0 93 -17l33 102h49l-39 -122q69 -41 109.5 -126t40.5 -213q0 -91 -21.5 -160.5t-60 -117t-90.5 -72t-113 -24.5zM102 359
q0 -111 30.5 -183.5t82.5 -108.5l195 605q-19 8 -38.5 12t-41.5 4q-51 0 -93 -21.5t-72 -63t-46.5 -103t-16.5 -141.5zM331 32q49 0 90.5 20t72 60.5t47.5 102t17 144.5q0 109 -29 181.5t-81 110.5l-196 -604q37 -15 79 -15zM370 905h71l-113 -137h-48z" />
            <glyph glyph-name="oslashacute" unicode="&#x1ff;" horiz-adv-x="503"
           d="M39 260q0 69 15.5 120.5t43.5 86t67 51.5t87 17q42 0 78 -15l43 110h49l-51 -132q44 -32 68 -91t24 -147q0 -68 -15 -119.5t-42.5 -86t-66 -52t-86.5 -17.5q-23 0 -42.5 4t-38.5 11l-43 -110h-49l52 131q-44 32 -68.5 91.5t-24.5 147.5zM408 260q0 69 -15.5 116.5
t-43.5 75.5l-160 -410q14 -7 29.5 -10.5t33.5 -3.5q75 0 115.5 58t40.5 174zM94 260q0 -69 15.5 -117t44.5 -75l160 409q-30 14 -62 14q-75 0 -116.5 -58t-41.5 -173zM301 735h71l-113 -137h-48z" />
            <glyph glyph-name="Scommaaccent" unicode="&#x218;" horiz-adv-x="567"
           d="M289 -15q-110 0 -174 51.5t-78 147.5h56q13 -78 63.5 -114.5t132.5 -36.5q91 0 134 38.5t43 109.5q0 32 -9 58t-32.5 48t-63.5 40t-102 34q-105 28 -150.5 75.5t-45.5 121.5q0 39 13.5 71.5t41 56t68.5 36.5t97 13q99 0 161.5 -47.5t77.5 -131.5h-57q-12 62 -57.5 96.5
t-124.5 34.5q-87 0 -125 -34.5t-38 -91.5q0 -29 7.5 -52t27 -42t53.5 -34.5t87 -29.5q63 -17 106.5 -38t70 -48t38.5 -60.5t12 -74.5q0 -89 -58 -143t-175 -54zM322 -148q0 -52 -24 -82t-62 -41v30q45 19 45 86h-18v74h59v-67z" />
            <glyph glyph-name="scommaaccent" unicode="&#x219;" horiz-adv-x="438"
           d="M220 29q64 0 94 28.5t30 72.5q0 49 -32.5 78t-113.5 46q-72 15 -111 49t-39 96q0 29 9.5 54t30 43t52 28.5t75.5 10.5q76 0 123 -39t57 -104h-54q-6 43 -39 71.5t-89 28.5q-62 0 -86.5 -25.5t-24.5 -62.5q0 -22 6 -38.5t20.5 -29t38.5 -22.5t60 -18q94 -22 132.5 -61
t38.5 -102q0 -64 -45 -106t-134 -42q-87 0 -133 42t-54 111h55q5 -51 37.5 -80t95.5 -29zM251 -148q0 -52 -24 -82t-62 -41v30q45 19 45 86h-18v74h59v-67z" />
            <glyph glyph-name="uni021A" unicode="&#x21a;" horiz-adv-x="504"
           d="M490 670h-210v-670h-56v670h-210v50h476v-50zM282 -148q0 -52 -24 -82t-62 -41v30q45 19 45 86h-18v74h59v-67z" />
            <glyph glyph-name="uni021B" unicode="&#x21b;" horiz-adv-x="269"
           d="M138 474v-370q0 -74 58 -74q12 0 25 2t30 7v-44q-30 -10 -60 -10q-54 0 -80 30.5t-26 89.5v369h-67v46h67l3 125h50v-125h105v-46h-105zM174 -148q0 -52 -24 -82t-62 -41v30q45 19 45 86h-18v74h59v-67z" />
            <glyph glyph-name="dotlessj" unicode="&#x237;" horiz-adv-x="182"
           d="M-49 -138q14 -5 29.5 -8t25.5 -3q32 0 44.5 18t12.5 64v587h53v-590q0 -60 -24.5 -92.5t-76.5 -32.5q-14 0 -30.5 2.5t-33.5 8.5v46z" />
            <glyph glyph-name="circumflex" unicode="&#x2c6;" horiz-adv-x="303"
           d="M276 598h-52l-73 103l-73 -103h-52l96 137h59z" />
            <glyph glyph-name="caron" unicode="&#x2c7;" horiz-adv-x="303"
           d="M26 735h52l73 -105l72 105h53l-96 -137h-58z" />
            <glyph glyph-name="uni02C9" unicode="&#x2c9;" horiz-adv-x="266"
           d="M26 653v46h213v-46h-213z" />
            <glyph glyph-name="breve" unicode="&#x2d8;" horiz-adv-x="284"
           d="M141 592q-53 0 -83 35t-35 97h46q1 -19 5 -36.5t13 -30.5t22 -21t32 -8t32 8t22 21t13.5 30.5t5.5 36.5h45q-5 -62 -35.5 -97t-82.5 -35z" />
            <glyph glyph-name="dotaccent" unicode="&#x2d9;" horiz-adv-x="114"
           d="M26 647v73h62v-73h-62z" />
            <glyph glyph-name="ring" unicode="&#x2da;" horiz-adv-x="264"
           d="M66 700q0 -38 17.5 -59.5t47.5 -21.5q31 0 48.5 21.5t17.5 59.5t-17 59.5t-49 21.5q-30 0 -47.5 -21.5t-17.5 -59.5zM238 700q0 -51 -28 -83.5t-79 -32.5q-50 0 -77.5 32.5t-27.5 83.5t27.5 83.5t77.5 32.5q51 0 79 -32.5t28 -83.5z" />
            <glyph glyph-name="ogonek" unicode="&#x2db;" horiz-adv-x="263"
           d="M237 -149q-12 -42 -39 -65.5t-69 -23.5q-48 0 -75.5 26t-27.5 75q0 25 10.5 48.5t28.5 44t42.5 36.5t53.5 27h46q-28 -15 -53 -31t-44 -34.5t-30 -39.5t-11 -46q0 -33 16.5 -50t45.5 -17q23 0 37 11.5t23 38.5h46z" />
            <glyph glyph-name="tilde" unicode="&#x2dc;" horiz-adv-x="287"
           d="M192 628q-18 0 -30.5 5.5t-22.5 11.5t-20.5 11.5t-25.5 5.5q-29 0 -67 -34v48q18 15 34 22.5t36 7.5q18 0 30.5 -5.5t22.5 -11.5t20 -11.5t25 -5.5q29 0 66 34v-48q-18 -15 -33.5 -22.5t-34.5 -7.5z" />
            <glyph glyph-name="hungarumlaut" unicode="&#x2dd;" horiz-adv-x="334"
           d="M98 735h66l-93 -137h-45zM242 735h65l-93 -137h-44z" />
            <glyph glyph-name="uni0312" unicode="&#x312;" horiz-adv-x="133"
           d="M33 668q0 54 25 84.5t67 41.5v-32q-47 -19 -47 -87h20v-74h-65v67z" />
            <glyph glyph-name="dotbelowcomb" unicode="&#x323;" horiz-adv-x="124"
           d="M31 -180v73h64v-73h-64z" />
            <glyph glyph-name="uni037E" unicode="&#x37e;" horiz-adv-x="279"
           d="M106 440v80h72v-80h-72zM178 6q0 -66 -29.5 -100t-74.5 -45v35q29 11 43 34.5t14 69.5h-27v79h74v-73z" />
            <glyph glyph-name="tonos" unicode="&#x384;" horiz-adv-x="143"
           d="M51 720h66l-49 -147h-42z" />
            <glyph glyph-name="dieresistonos" unicode="&#x385;" horiz-adv-x="298"
           d="M33 642v69h60v-69h-60zM208 642v69h60v-69h-60zM145 873h66l-45 -147h-43z" />
            <glyph glyph-name="Alphatonos" unicode="&#x386;" horiz-adv-x="581"
           d="M513 0l-68 204h-312l-69 -204h-58l250 720h69l250 -720h-62zM149 251h279l-138 415zM139 720h66l-49 -147h-42z" />
            <glyph glyph-name="anoteleia" unicode="&#x387;" horiz-adv-x="284"
           d="M106 281v79h72v-79h-72z" />
            <glyph glyph-name="Epsilontonos" unicode="&#x388;" horiz-adv-x="539"
           d="M464 342h-295v-294h320v-48h-376v720h376v-48h-320v-282h295v-48zM12 720h66l-49 -147h-42z" />
            <glyph glyph-name="Etatonos" unicode="&#x389;" horiz-adv-x="644"
           d="M573 720v-720h-57v342h-349v-342h-56v720h56v-329h349v329h57zM12 720h66l-49 -147h-42z" />
            <glyph glyph-name="Iotatonos" unicode="&#x38a;" horiz-adv-x="223"
           d="M151 720v-720h-56v720h56zM-3 720h66l-49 -147h-42z" />
            <glyph glyph-name="Omicrontonos" unicode="&#x38c;" horiz-adv-x="674"
           d="M342 32q49 0 90.5 20t72 60.5t47.5 102t17 144.5q0 80 -16.5 141.5t-46.5 103t-72 63t-93 21.5t-93 -21.5t-72 -63t-46.5 -103t-16.5 -141.5q0 -82 17 -143t48 -102t72.5 -61.5t91.5 -20.5zM342 -15q-63 0 -115.5 24.5t-90.5 72t-59 117t-21 160.5t21 161.5t59 118
t90.5 72t114.5 24.5q61 0 113.5 -24.5t90.5 -72t60 -118t22 -161.5t-21.5 -160.5t-60 -117t-90.5 -72t-113 -24.5zM35 720h66l-49 -147h-42z" />
            <glyph glyph-name="Upsilontonos" unicode="&#x38e;" horiz-adv-x="629"
           d="M145 720l208 -385q54 97 106 192.5t105 192.5h58q-60 -110 -120.5 -219t-121.5 -219v-282h-54v283l-241 437h60zM-5 720h66l-49 -147h-42z" />
            <glyph glyph-name="Omegatonos" unicode="&#x38f;" horiz-adv-x="673"
           d="M393 49q35 4 67 23.5t56 57t38.5 94.5t14.5 137q0 79 -16.5 140t-46.5 102t-72 62.5t-93 21.5q-109 0 -169 -83.5t-60 -242.5q0 -76 14.5 -133t39 -95t56.5 -59t67 -25v-49h-201v49h97q-28 17 -52 46.5t-41 69.5t-27 89.5t-10 106.5q0 97 22.5 168t61.5 116.5t91 67.5
t111 22q58 0 110 -23.5t91 -70t62 -116.5t23 -164q0 -120 -37 -199.5t-94 -112.5h98v-49h-201v49zM35 720h66l-49 -147h-42z" />
            <glyph glyph-name="iotadieresistonos" unicode="&#x390;" horiz-adv-x="184"
           d="M66 0v520h53v-520h-53zM-20 642v69h60v-69h-60zM155 642v69h60v-69h-60zM92 873h66l-45 -147h-43z" />
            <glyph glyph-name="Alpha" unicode="&#x391;" horiz-adv-x="581"
           d="M513 0l-68 204h-312l-69 -204h-58l250 720h69l250 -720h-62zM149 251h279l-138 415z" />
            <glyph glyph-name="Beta" unicode="&#x392;" horiz-adv-x="558"
           d="M283 720q102 0 155 -47t53 -130q0 -27 -8 -53t-23.5 -47.5t-37.5 -37.5t-49 -23q30 -5 56 -20t45 -38.5t30 -54.5t11 -67q0 -46 -14 -83t-42.5 -63.5t-71.5 -41t-102 -14.5h-215v720h213zM126 356v-309h166q81 0 123 40t42 115q0 70 -42 112t-117 42h-172zM126 674v-272
h169q69 0 104 40t35 100q0 62 -37 97t-109 35h-162z" />
            <glyph glyph-name="Gamma" unicode="&#x393;" horiz-adv-x="429"
           d="M414 720v-49h-289v-671h-55v720h344z" />
            <glyph glyph-name="uni0394" unicode="&#x394;" horiz-adv-x="581"
           d="M6 0l250 720h69l250 -720h-569zM80 48h416l-206 618z" />
            <glyph glyph-name="Epsilon" unicode="&#x395;" horiz-adv-x="494"
           d="M421 342h-295v-294h320v-48h-376v720h376v-48h-320v-282h295v-48z" />
            <glyph glyph-name="Zeta" unicode="&#x396;" horiz-adv-x="557"
           d="M100 49h409v-49h-470v50l417 621h-397v49h459v-47z" />
            <glyph glyph-name="Eta" unicode="&#x397;" horiz-adv-x="602"
           d="M532 720v-720h-57v342h-349v-342h-56v720h56v-329h349v329h57z" />
            <glyph glyph-name="Theta" unicode="&#x398;" horiz-adv-x="661"
           d="M485 342h-309v48h309v-48zM331 32q49 0 90.5 20t72 60.5t47.5 102t17 144.5q0 80 -16.5 141.5t-46.5 103t-72 63t-93 21.5t-93 -21.5t-72 -63t-46.5 -103t-16.5 -141.5q0 -82 17 -143t48 -102t72.5 -61.5t91.5 -20.5zM331 -15q-63 0 -115.5 24.5t-90.5 72t-59 117
t-21 160.5t21 161.5t59 118t90.5 72t114.5 24.5q61 0 113.5 -24.5t90.5 -72t60 -118t22 -161.5t-21.5 -160.5t-60 -117t-90.5 -72t-113 -24.5z" />
            <glyph glyph-name="Iota" unicode="&#x399;" horiz-adv-x="196"
           d="M126 720v-720h-56v720h56z" />
            <glyph glyph-name="Kappa" unicode="&#x39a;" horiz-adv-x="529"
           d="M445 0l-319 355v-355h-56v720h56v-336l302 336h64l-311 -347l338 -373h-74z" />
            <glyph glyph-name="Lambda" unicode="&#x39b;" horiz-adv-x="572"
           d="M505 0l-219 664l-222 -664h-58l246 720h68l246 -720h-61z" />
            <glyph glyph-name="Mu" unicode="&#x39c;" horiz-adv-x="740"
           d="M348 0l-225 641v-641h-53v720h79l228 -654l216 654h76v-720h-53v636l-211 -636h-57z" />
            <glyph glyph-name="Nu" unicode="&#x39d;" horiz-adv-x="624"
           d="M553 720v-720h-63l-368 643v-643h-52v720h68l366 -638v638h49z" />
            <glyph glyph-name="Xi" unicode="&#x39e;" horiz-adv-x="512"
           d="M47 51h417v-51h-417v51zM464 669h-416v51h416v-51zM109 334v50h292v-50h-292z" />
            <glyph glyph-name="Omicron" unicode="&#x39f;" horiz-adv-x="661"
           d="M331 32q49 0 90.5 20t72 60.5t47.5 102t17 144.5q0 80 -16.5 141.5t-46.5 103t-72 63t-93 21.5t-93 -21.5t-72 -63t-46.5 -103t-16.5 -141.5q0 -82 17 -143t48 -102t72.5 -61.5t91.5 -20.5zM331 -15q-63 0 -115.5 24.5t-90.5 72t-59 117t-21 160.5t21 161.5t59 118
t90.5 72t114.5 24.5q61 0 113.5 -24.5t90.5 -72t60 -118t22 -161.5t-21.5 -160.5t-60 -117t-90.5 -72t-113 -24.5z" />
            <glyph glyph-name="Pi" unicode="&#x3a0;" horiz-adv-x="602"
           d="M532 720v-720h-57v671h-349v-671h-56v720h462z" />
            <glyph glyph-name="Rho" unicode="&#x3a1;" horiz-adv-x="550"
           d="M278 720q112 0 172 -57.5t60 -163.5q0 -51 -16.5 -92t-47 -70t-74 -45t-98.5 -16h-148v-276h-56v720h208zM126 673v-349h152q84 0 129 47t45 128q0 85 -44.5 129.5t-125.5 44.5h-156z" />
            <glyph glyph-name="Sigma" unicode="&#x3a3;" horiz-adv-x="507"
           d="M326 384v-43q-57 -73 -113.5 -146.5t-113.5 -146.5h368v-48h-428v49l241 314l-241 307v50h427v-49h-365z" />
            <glyph glyph-name="Tau" unicode="&#x3a4;" horiz-adv-x="504"
           d="M490 670h-210v-670h-56v670h-210v50h476v-50z" />
            <glyph glyph-name="Upsilon" unicode="&#x3a5;" horiz-adv-x="548"
           d="M65 720l208 -385q54 97 106 192.5t105 192.5h58q-60 -110 -120.5 -219t-121.5 -219v-282h-54v283l-241 437h60z" />
            <glyph glyph-name="Phi" unicode="&#x3a6;" horiz-adv-x="705"
           d="M380 735v-36q60 -1 111 -23t88.5 -64.5t59 -105.5t21.5 -147q0 -79 -21 -141t-58.5 -105.5t-89 -67t-111.5 -24.5v-36h-55v36q-60 1 -111.5 24.5t-89 67t-58.5 105.5t-21 141q0 84 21.5 147t59 105.5t88.5 64.5t111 23v36h55zM603 359q0 140 -58.5 215t-164.5 77v-582
q48 1 89 19.5t71 54.5t46.5 90t16.5 126zM102 359q0 -72 17 -126t46.5 -90t70.5 -54.5t89 -19.5v582q-106 -2 -164.5 -77t-58.5 -215z" />
            <glyph glyph-name="Chi" unicode="&#x3a7;" horiz-adv-x="541"
           d="M304 373l223 -373h-66l-190 329l-194 -329h-63l226 373l-209 347h66l177 -304l184 304h61z" />
            <glyph glyph-name="Psi" unicode="&#x3a8;" horiz-adv-x="648"
           d="M112 720v-315q0 -81 50.5 -124.5t135.5 -48.5v488h55v-488q40 2 74 14.5t58.5 34t38.5 53t14 71.5v315h53v-310q0 -105 -65 -163t-173 -64v-183h-55v183q-54 3 -98.5 19t-76 45t-49 70t-17.5 93v310h55z" />
            <glyph glyph-name="uni03A9" unicode="&#x3a9;" horiz-adv-x="661"
           d="M382 49q35 4 67 23.5t56 57t38.5 94.5t14.5 137q0 79 -16.5 140t-46.5 102t-72 62.5t-93 21.5q-109 0 -169 -83.5t-60 -242.5q0 -76 14.5 -133t39 -95t56.5 -59t67 -25v-49h-201v49h97q-28 17 -52 46.5t-41 69.5t-27 89.5t-10 106.5q0 97 22.5 168t61.5 116.5t91 67.5
t111 22q58 0 110 -23.5t91 -70t62 -116.5t23 -164q0 -120 -37 -199.5t-94 -112.5h98v-49h-201v49z" />
            <glyph glyph-name="Iotadieresis" unicode="&#x3aa;" horiz-adv-x="196"
           d="M126 720v-720h-56v720h56zM-20 821v69h60v-69h-60zM159 821v69h60v-69h-60z" />
            <glyph glyph-name="Upsilondieresis" unicode="&#x3ab;" horiz-adv-x="548"
           d="M65 720l208 -385q54 97 106 192.5t105 192.5h58q-60 -110 -120.5 -219t-121.5 -219v-282h-54v283l-241 437h60zM154 821v69h60v-69h-60zM333 821v69h60v-69h-60z" />
            <glyph glyph-name="alphatonos" unicode="&#x3ac;" horiz-adv-x="505"
           d="M397 0l-9 98q-23 -51 -61 -82t-96 -31q-41 0 -76 17t-60.5 50.5t-40 84t-14.5 118.5q0 70 14.5 123t40 87.5t60.5 52t77 17.5q57 0 95.5 -29.5t60.5 -78.5l8 93h44v-520h-43zM94 255q0 -115 40 -170t107 -55q31 0 58 13t47 41t32 71.5t12 104.5q0 118 -41 174t-107 56
q-65 0 -106.5 -57.5t-41.5 -177.5zM248 720h66l-49 -147h-42z" />
            <glyph glyph-name="epsilontonos" unicode="&#x3ad;" horiz-adv-x="431"
           d="M211 720h66l-49 -147h-42zM206 535q82 0 131 -43t58 -112h-55q-8 53 -41.5 82t-91.5 29q-57 0 -80 -27t-23 -70q0 -44 30 -72t75 -28h40v-47h-41q-57 0 -88 -31.5t-31 -77.5q0 -52 31 -80t94 -28q56 0 87.5 31t41.5 88h55q-12 -73 -57.5 -118.5t-128.5 -45.5
q-88 0 -132.5 41t-44.5 112q0 48 27.5 84.5t81.5 50.5q-47 15 -70 47.5t-23 77.5q0 59 37.5 98t117.5 39z" />
            <glyph glyph-name="etatonos" unicode="&#x3ae;" horiz-adv-x="486"
           d="M65 0v520h44l7 -90q49 105 151 105q75 0 116 -47t41 -137v-531h-53v529q0 70 -28.5 105t-88.5 35q-28 0 -52.5 -11.5t-43 -33t-29.5 -53t-11 -70.5v-321h-53zM241 720h66l-49 -147h-42z" />
            <glyph glyph-name="iotatonos" unicode="&#x3af;" horiz-adv-x="184"
           d="M96 720h66l-49 -147h-42zM66 0v520h53v-520h-53z" />
            <glyph glyph-name="upsilondieresistonos" unicode="&#x3b0;" horiz-adv-x="480"
           d="M240 -15q-90 0 -134 48t-44 136v351h53v-349q0 -65 28.5 -103t96.5 -38q69 0 96.5 37.5t27.5 103.5v349h54v-351q0 -88 -44 -136t-134 -48zM125 642v69h60v-69h-60zM300 642v69h60v-69h-60zM237 873h66l-45 -147h-43z" />
            <glyph glyph-name="alpha" unicode="&#x3b1;" horiz-adv-x="505"
           d="M397 0l-9 98q-23 -51 -61 -82t-96 -31q-41 0 -76 17t-60.5 50.5t-40 84t-14.5 118.5q0 70 14.5 123t40 87.5t60.5 52t77 17.5q57 0 95.5 -29.5t60.5 -78.5l8 93h44v-520h-43zM94 255q0 -115 40 -170t107 -55q31 0 58 13t47 41t32 71.5t12 104.5q0 118 -41 174t-107 56
q-65 0 -106.5 -57.5t-41.5 -177.5z" />
            <glyph glyph-name="beta" unicode="&#x3b2;" horiz-adv-x="467"
           d="M260 -15q-97 0 -141 92v-257h-53v689q0 106 40 166t130 60q42 0 73.5 -13t52.5 -35.5t32 -54.5t11 -69q0 -60 -29.5 -106.5t-81.5 -63.5q25 -5 48.5 -19t42 -37.5t30 -56.5t11.5 -76q0 -106 -45 -162.5t-121 -56.5zM371 202q0 42 -10.5 72.5t-28 51t-41 30.5t-48.5 10
h-36v48h34q21 0 40.5 10t35 29t25 45t9.5 59q0 62 -28 98t-88 36q-63 0 -89.5 -44.5t-26.5 -139.5v-308q0 -32 9 -62t25.5 -53.5t41 -38t56.5 -14.5q120 0 120 171z" />
            <glyph glyph-name="gamma" unicode="&#x3b3;" horiz-adv-x="439"
           d="M193 -180v180l-179 520h58l148 -465l150 465h55l-179 -520v-180h-53z" />
            <glyph glyph-name="delta" unicode="&#x3b4;" horiz-adv-x="478"
           d="M126 720h282v-45h-170q41 -13 77.5 -42.5t63.5 -75t43 -107t16 -138.5q0 -73 -10.5 -133t-34.5 -103t-63 -67t-96 -24q-47 0 -83 18.5t-60.5 51.5t-37.5 79.5t-13 102.5q0 51 12 95t35.5 77t58.5 51.5t80 18.5q33 0 59.5 -10t46.5 -27t33 -39.5t20 -47.5q-4 84 -29 142.5
t-62.5 97t-81.5 59t-86 29.5v37zM235 434q-65 0 -103 -47.5t-38 -152.5q0 -45 9 -82t26.5 -63.5t43.5 -41.5t61 -15q73 0 108.5 49.5t42.5 147.5q0 37 -8 73.5t-26 65.5t-46.5 47.5t-69.5 18.5z" />
            <glyph glyph-name="epsilon" unicode="&#x3b5;" horiz-adv-x="431"
           d="M206 535q82 0 131 -43t58 -112h-55q-8 53 -41.5 82t-91.5 29q-57 0 -80 -27t-23 -70q0 -44 30 -72t75 -28h40v-47h-41q-57 0 -88 -31.5t-31 -77.5q0 -52 31 -80t94 -28q56 0 87.5 31t41.5 88h55q-12 -73 -57.5 -118.5t-128.5 -45.5q-88 0 -132.5 41t-44.5 112
q0 48 27.5 84.5t81.5 50.5q-47 15 -70 47.5t-23 77.5q0 59 37.5 98t117.5 39z" />
            <glyph glyph-name="zeta" unicode="&#x3b6;" horiz-adv-x="394"
           d="M84 272q0 -100 35.5 -154.5t118.5 -76.5q39 -11 64 -22t40 -24t20.5 -29.5t5.5 -37.5q0 -18 -6 -36t-15.5 -33.5t-20.5 -29.5t-21 -24q-8 7 -15.5 13t-15.5 12q15 17 29 40.5t14 46.5q0 15 -4 26t-14.5 20t-28.5 16t-47 15q-101 26 -147 93t-46 176q0 151 61 258t178 155
h-229v44h323v-36q-64 -20 -115.5 -57t-88 -90t-56 -120t-19.5 -145z" />
            <glyph glyph-name="eta" unicode="&#x3b7;" horiz-adv-x="486"
           d="M65 0v520h44l7 -90q49 105 151 105q75 0 116 -47t41 -137v-531h-53v529q0 70 -28.5 105t-88.5 35q-28 0 -52.5 -11.5t-43 -33t-29.5 -53t-11 -70.5v-321h-53z" />
            <glyph glyph-name="theta" unicode="&#x3b8;" horiz-adv-x="504"
           d="M253 -15q-48 0 -87.5 22.5t-67 68.5t-43 117t-15.5 167q0 97 15 168t43 117t67.5 68t87.5 22t87 -22t66.5 -68t43 -117t15.5 -168t-15.5 -167.5t-43 -116.5t-66.5 -68.5t-87 -22.5zM253 31q152 0 156 309h-314q4 -309 158 -309zM253 689q-151 0 -158 -303h314
q-8 303 -156 303z" />
            <glyph glyph-name="iota" unicode="&#x3b9;" horiz-adv-x="178"
           d="M64 0v520h53v-520h-53z" />
            <glyph glyph-name="kappa" unicode="&#x3ba;" horiz-adv-x="433"
           d="M66 0v520h53v-237l220 237h63l-230 -245l259 -275h-68l-244 260v-260h-53z" />
            <glyph glyph-name="lambda" unicode="&#x3bb;" horiz-adv-x="440"
           d="M426 0h-56l-143 475l-159 -475h-54l178 520h20q-17 59 -28 93t-21 51t-19.5 21.5t-22.5 4.5q-11 0 -24.5 -3t-27.5 -8v44q14 5 28.5 8.5t27.5 3.5q23 0 39 -6.5t31 -28t31 -63.5t38 -113z" />
            <glyph glyph-name="uni03BC" unicode="&#x3bc;" horiz-adv-x="487"
           d="M119 520v-352q0 -72 29.5 -105t86.5 -33q61 0 97 47.5t36 123.5v319h53v-520h-44l-6 82q-24 -51 -63 -74t-86 -23q-66 0 -103 40v-205h-53v700h53z" />
            <glyph glyph-name="nu" unicode="&#x3bd;" horiz-adv-x="439"
           d="M425 520l-170 -520h-70l-171 520h58l148 -471l151 471h54z" />
            <glyph glyph-name="xi" unicode="&#x3be;" horiz-adv-x="395"
           d="M25 188q0 69 33 113t87 61q-51 14 -76.5 52t-25.5 95q0 60 33 105t99 62h-137v44h316v-38h-16q-63 0 -109 -13.5t-76 -37.5t-44 -55.5t-14 -67.5q0 -62 35 -93.5t89 -31.5h52v-48h-54q-70 0 -104.5 -41t-34.5 -105q0 -30 8 -53.5t26 -42.5t47.5 -33.5t73.5 -26.5
q42 -11 68.5 -22t42 -24t21 -28t5.5 -35q0 -32 -20 -62.5t-45 -56.5l-32 25q15 17 29.5 40t14.5 43q0 13 -4 24t-14.5 19.5t-30 16t-50.5 15.5q-104 24 -148.5 74t-44.5 126z" />
            <glyph glyph-name="omicron" unicode="&#x3bf;" horiz-adv-x="503"
           d="M40 260q0 69 15.5 120.5t43 86t66.5 51.5t87 17q97 0 154 -69t57 -206q0 -136 -57 -205.5t-153 -69.5q-97 0 -155 69.5t-58 205.5zM94 260q0 -115 43 -173t115 -58q75 0 116 58t41 173q0 117 -41.5 174t-115.5 57t-116 -58t-42 -173z" />
            <glyph glyph-name="pi" unicode="&#x3c0;" horiz-adv-x="483"
           d="M73 0v473h-65v47h467v-47h-66v-473h-53v473h-230v-473h-53z" />
            <glyph glyph-name="rho" unicode="&#x3c1;" horiz-adv-x="506"
           d="M62 282q0 122 49 187.5t149 65.5q94 0 150 -67t56 -202q0 -69 -14.5 -121.5t-40 -88t-61 -53.5t-78.5 -18q-58 0 -96.5 27.5t-60.5 78.5v-271h-53v462zM111 260q0 -115 40.5 -172.5t109.5 -57.5t110 58t41 179q0 115 -42 169t-111 54q-148 0 -148 -230z" />
            <glyph glyph-name="sigma1" unicode="&#x3c2;" horiz-adv-x="466"
           d="M40 273q0 64 15 113t41.5 82t64 50t82.5 17q80 0 128 -42t61 -117h-57q-8 53 -40.5 83.5t-90.5 30.5q-68 0 -109 -54t-41 -165q0 -95 40.5 -151t136.5 -79q43 -11 71 -21t45 -23t24 -29.5t7 -39.5q0 -37 -21 -69t-42 -54l-31 25q14 17 28 40.5t14 46.5q0 16 -5 27.5
t-18 20t-34 15.5t-54 14q-109 22 -162 89.5t-53 189.5z" />
            <glyph glyph-name="sigma" unicode="&#x3c3;" horiz-adv-x="504"
           d="M39 260q0 68 15 119.5t42.5 86t66 52t86.5 17.5q22 0 45.5 -4t43.5 -11h157v-47l-100 4q31 -33 49.5 -89.5t18.5 -127.5q0 -68 -15 -119t-42.5 -86t-66.5 -52.5t-86 -17.5q-98 0 -156 68.5t-58 206.5zM94 260q0 -116 43 -174t115 -58q75 0 115.5 58t40.5 174
q0 72 -20 130t-60 90q-16 5 -37 8t-41 3q-72 0 -114 -58t-42 -173z" />
            <glyph glyph-name="tau" unicode="&#x3c4;" horiz-adv-x="417"
           d="M181 0v473h-168v47h390v-47h-169v-473h-53z" />
            <glyph glyph-name="upsilon" unicode="&#x3c5;" horiz-adv-x="480"
           d="M240 -15q-90 0 -134 48t-44 136v351h53v-349q0 -65 28.5 -103t96.5 -38q69 0 96.5 37.5t27.5 103.5v349h54v-351q0 -88 -44 -136t-134 -48z" />
            <glyph glyph-name="phi" unicode="&#x3c6;" horiz-adv-x="660"
           d="M611 270q0 -135 -64 -207t-200 -77v-166h-54v166q-123 4 -183.5 59t-60.5 176q0 74 16 147.5t41 151.5h53q-13 -41 -23.5 -77.5t-18 -71.5t-11.5 -71t-4 -75q0 -95 44.5 -143.5t146.5 -51.5v255q0 65 8 112t26 78t46.5 45.5t69.5 14.5q82 0 125 -64t43 -201zM347 29
q57 2 97 17.5t64.5 45.5t36 74.5t11.5 104.5q0 118 -28 168t-86 50q-26 0 -44 -9.5t-29 -33.5t-16.5 -64.5t-5.5 -101.5v-251z" />
            <glyph glyph-name="chi" unicode="&#x3c7;" horiz-adv-x="451"
           d="M254 188l183 -368h-63l-152 326l-149 -326h-59l177 366l-168 334h63l138 -293l129 293h58z" />
            <glyph glyph-name="psi" unicode="&#x3c8;" horiz-adv-x="631"
           d="M115 520v-312q0 -81 46.5 -125t129.5 -49v486h52v-486q83 5 128.5 49t45.5 125v312h52v-307q0 -106 -60 -163.5t-166 -62.5v-167h-52v166q-108 5 -168.5 63.5t-60.5 163.5v307h53z" />
            <glyph glyph-name="omega" unicode="&#x3c9;" horiz-adv-x="672"
           d="M565 520q26 -78 42 -152t16 -151q0 -121 -42 -176.5t-115 -55.5q-56 0 -87.5 30.5t-42.5 91.5q-12 -60 -43.5 -91t-86.5 -31q-75 0 -116 56t-41 176q0 77 16.5 151t41.5 152h53q-13 -41 -23.5 -77.5t-18 -72.5t-12 -72.5t-4.5 -76.5q0 -102 27.5 -146.5t81.5 -44.5
q51 0 75.5 39.5t24.5 111.5v199h50v-199q0 -72 24 -111.5t75 -39.5q54 0 82 44.5t28 146.5q0 40 -4 76.5t-11.5 72.5t-18.5 72.5t-24 77.5h53z" />
            <glyph glyph-name="iotadieresis" unicode="&#x3ca;" horiz-adv-x="184"
           d="M-26 651v69h60v-69h-60zM153 651v69h60v-69h-60zM66 0v520h53v-520h-53z" />
            <glyph glyph-name="upsilondieresis" unicode="&#x3cb;" horiz-adv-x="480"
           d="M240 -15q-90 0 -134 48t-44 136v351h53v-349q0 -65 28.5 -103t96.5 -38q69 0 96.5 37.5t27.5 103.5v349h54v-351q0 -88 -44 -136t-134 -48zM119 651v69h60v-69h-60zM298 651v69h60v-69h-60z" />
            <glyph glyph-name="omicrontonos" unicode="&#x3cc;" horiz-adv-x="503"
           d="M40 260q0 69 15.5 120.5t43 86t66.5 51.5t87 17q97 0 154 -69t57 -206q0 -136 -57 -205.5t-153 -69.5q-97 0 -155 69.5t-58 205.5zM94 260q0 -115 43 -173t115 -58q75 0 116 58t41 173q0 117 -41.5 174t-115.5 57t-116 -58t-42 -173zM257 720h66l-49 -147h-42z" />
            <glyph glyph-name="upsilontonos" unicode="&#x3cd;" horiz-adv-x="480"
           d="M234 720h66l-49 -147h-42zM240 -15q-90 0 -134 48t-44 136v351h53v-349q0 -65 28.5 -103t96.5 -38q69 0 96.5 37.5t27.5 103.5v349h54v-351q0 -88 -44 -136t-134 -48z" />
            <glyph glyph-name="omegatonos" unicode="&#x3ce;" horiz-adv-x="672"
           d="M565 520q26 -78 42 -152t16 -151q0 -121 -42 -176.5t-115 -55.5q-56 0 -87.5 30.5t-42.5 91.5q-12 -60 -43.5 -91t-86.5 -31q-75 0 -116 56t-41 176q0 77 16.5 151t41.5 152h53q-13 -41 -23.5 -77.5t-18 -72.5t-12 -72.5t-4.5 -76.5q0 -102 27.5 -146.5t81.5 -44.5
q51 0 75.5 39.5t24.5 111.5v199h50v-199q0 -72 24 -111.5t75 -39.5q54 0 82 44.5t28 146.5q0 40 -4 76.5t-11.5 72.5t-18.5 72.5t-24 77.5h53zM339 720h66l-49 -147h-42z" />
            <glyph glyph-name="uni0400" unicode="&#x400;" horiz-adv-x="494"
           d="M421 342h-295v-294h320v-48h-376v720h376v-48h-320v-282h295v-48zM307 768h-48l-113 137h71z" />
            <glyph glyph-name="afii10023" unicode="&#x401;" horiz-adv-x="494"
           d="M421 342h-295v-294h320v-48h-376v720h376v-48h-320v-282h295v-48zM136 821v69h60v-69h-60zM315 821v69h60v-69h-60z" />
            <glyph glyph-name="afii10051" unicode="&#x402;" horiz-adv-x="689"
           d="M204 0v670h-190v50h437v-50h-191v-297q25 48 67.5 73t103.5 25q94 0 148.5 -57t54.5 -175v-131q0 -59 -27 -91t-75 -32q-14 0 -30.5 2.5t-33.5 8.5v46q14 -5 29 -8t26 -3q28 0 42 18t14 64v130q0 96 -41 138t-119 42q-76 0 -117.5 -48.5t-41.5 -128.5v-246h-56z" />
            <glyph glyph-name="afii10052" unicode="&#x403;" horiz-adv-x="429"
           d="M414 720v-49h-289v-671h-55v720h344zM260 905h71l-113 -137h-48z" />
            <glyph glyph-name="afii10053" unicode="&#x404;" horiz-adv-x="630"
           d="M328 33q89 0 142.5 55t63.5 151h55q-5 -53 -24.5 -99t-52.5 -80.5t-80 -54.5t-105 -20q-66 0 -118 26t-88.5 74t-56 116t-19.5 153q0 93 20 164t56.5 119t88.5 73t116 25q53 0 98 -16t79.5 -46t56.5 -73t30 -97h-56q-14 89 -68.5 136.5t-139.5 47.5q-99 0 -157 -76
t-66 -221h298v-48h-299q2 -72 18.5 -129.5t45.5 -97.5t70 -61t92 -21z" />
            <glyph glyph-name="afii10054" unicode="&#x405;" horiz-adv-x="567"
           d="M289 -15q-110 0 -174 51.5t-78 147.5h56q13 -78 63.5 -114.5t132.5 -36.5q91 0 134 38.5t43 109.5q0 32 -9 58t-32.5 48t-63.5 40t-102 34q-105 28 -150.5 75.5t-45.5 121.5q0 39 13.5 71.5t41 56t68.5 36.5t97 13q99 0 161.5 -47.5t77.5 -131.5h-57q-12 62 -57.5 96.5
t-124.5 34.5q-87 0 -125 -34.5t-38 -91.5q0 -29 7.5 -52t27 -42t53.5 -34.5t87 -29.5q63 -17 106.5 -38t70 -48t38.5 -60.5t12 -74.5q0 -89 -58 -143t-175 -54z" />
            <glyph glyph-name="afii10055" unicode="&#x406;" horiz-adv-x="196"
           d="M126 720v-720h-56v720h56z" />
            <glyph glyph-name="afii10056" unicode="&#x407;" horiz-adv-x="196"
           d="M126 720v-720h-56v720h56zM-20 821v69h60v-69h-60zM159 821v69h60v-69h-60z" />
            <glyph glyph-name="afii10057" unicode="&#x408;" horiz-adv-x="460"
           d="M84 177q2 -69 37 -106.5t93 -37.5q59 0 92.5 41.5t33.5 126.5v519h55v-519q0 -101 -47.5 -158.5t-134.5 -57.5q-42 0 -76 14t-57.5 39t-36.5 60.5t-14 78.5h55z" />
            <glyph glyph-name="afii10058" unicode="&#x409;" horiz-adv-x="909"
           d="M485 720v-276h152q112 0 172 -58.5t60 -164.5q0 -51 -16.5 -91.5t-47 -69.5t-73.5 -44.5t-96 -15.5h-207v671h-257l-41 -529q-3 -38 -10 -65t-20.5 -44t-34.5 -25t-52 -8v54q29 0 44 14.5t19 64.5l45 587h363zM485 396v-348h152q84 0 129 46.5t45 126.5q0 85 -44.5 130
t-125.5 45h-156z" />
            <glyph glyph-name="afii10059" unicode="&#x40a;" horiz-adv-x="934"
           d="M453 0v373h-328v-373h-55v720h55v-300h328v300h56v-300h154q111 0 170.5 -54.5t59.5 -154.5q0 -47 -16.5 -86t-46.5 -67t-73 -43t-96 -15h-208zM509 373v-325h153q82 0 127.5 45t45.5 118q0 76 -44.5 119t-125.5 43h-156z" />
            <glyph glyph-name="afii10060" unicode="&#x40b;" horiz-adv-x="689"
           d="M204 0v670h-190v50h437v-50h-191v-296q25 48 68 72.5t103 24.5q96 0 149.5 -57.5t53.5 -174.5v-239h-55v243q0 96 -41.5 138t-119.5 42q-77 0 -117.5 -49t-40.5 -130v-244h-56z" />
            <glyph glyph-name="afii10061" unicode="&#x40c;" horiz-adv-x="529"
           d="M281 905h71l-113 -137h-48zM449 0l-262 344h-61v-344h-56v720h56v-328h64l239 328h62l-258 -350l285 -370h-69z" />
            <glyph glyph-name="uni040D" unicode="&#x40d;" horiz-adv-x="601"
           d="M475 720h55v-720h-55v597l-351 -560v-37h-54v720h54v-598l351 561v37zM338 768h-48l-113 137h71z" />
            <glyph glyph-name="afii10062" unicode="&#x40e;" horiz-adv-x="490"
           d="M242 765q-49 0 -82.5 26t-38.5 86h48q3 -72 73 -72q72 0 75 72h47q-5 -60 -38.5 -86t-83.5 -26zM262 104q-12 -32 -23 -55t-23.5 -37t-28 -20.5t-35.5 -6.5q-10 0 -21 2t-22 5v46q13 -4 22.5 -5t17.5 -1q13 0 22 5.5t18 20.5t19.5 42t24.5 71h-20l-207 549h57l186 -506
l181 506h54z" />
            <glyph glyph-name="afii10145" unicode="&#x40f;" horiz-adv-x="602"
           d="M326 0v-140h-51v140h-205v720h56v-671h349v671h56v-720h-205z" />
            <glyph glyph-name="afii10017" unicode="&#x410;" horiz-adv-x="581"
           d="M513 0l-68 204h-312l-69 -204h-58l250 720h69l250 -720h-62zM149 251h279l-138 415z" />
            <glyph glyph-name="afii10018" unicode="&#x411;" horiz-adv-x="550"
           d="M422 720v-49h-297v-228h154q110 0 170 -59t60 -165q0 -51 -16.5 -91.5t-47 -69t-73.5 -43.5t-96 -15h-206v720h352zM125 396q0 -88 0.5 -174t0.5 -174h151q84 0 129.5 45.5t45.5 125.5q0 85 -44.5 131t-125.5 46h-157z" />
            <glyph glyph-name="afii10019" unicode="&#x412;" horiz-adv-x="558"
           d="M283 720q102 0 155 -47t53 -130q0 -27 -8 -53t-23.5 -47.5t-37.5 -37.5t-49 -23q30 -5 56 -20t45 -38.5t30 -54.5t11 -67q0 -46 -14 -83t-42.5 -63.5t-71.5 -41t-102 -14.5h-215v720h213zM126 356v-309h166q81 0 123 40t42 115q0 70 -42 112t-117 42h-172zM126 674v-272
h169q69 0 104 40t35 100q0 62 -37 97t-109 35h-162z" />
            <glyph glyph-name="afii10020" unicode="&#x413;" horiz-adv-x="429"
           d="M414 720v-49h-289v-671h-55v720h344z" />
            <glyph glyph-name="afii10021" unicode="&#x414;" horiz-adv-x="582"
           d="M511 720v-670h49v-190h-52v140h-449v-140h-51v190h37q23 16 36.5 56.5t15.5 90.5l19 523h395zM151 203q-4 -111 -55 -153h360v621h-287z" />
            <glyph glyph-name="afii10022" unicode="&#x415;" horiz-adv-x="494"
           d="M421 342h-295v-294h320v-48h-376v720h376v-48h-320v-282h295v-48z" />
            <glyph glyph-name="afii10024" unicode="&#x416;" horiz-adv-x="749"
           d="M95 720l148 -328h104v328h54v-328h105l149 328h57l-162 -348l188 -372h-62l-168 344h-107v-344h-54v344h-106l-168 -344h-62l188 372l-161 348h57z" />
            <glyph glyph-name="afii10025" unicode="&#x417;" horiz-adv-x="523"
           d="M260 31q80 0 120.5 44t40.5 122q0 75 -38.5 117t-106.5 42h-68v48h66q62 0 96 41.5t34 105.5q0 65 -37 101.5t-109 36.5t-108.5 -32.5t-46.5 -92.5h-57q12 77 65.5 124t149.5 47q92 0 146 -48t54 -131q0 -63 -30 -109.5t-87 -63.5q59 -10 97 -59t38 -126
q0 -100 -58 -156.5t-161 -56.5q-97 0 -153.5 45.5t-68.5 128.5h58q11 -63 50.5 -95.5t113.5 -32.5z" />
            <glyph glyph-name="afii10026" unicode="&#x418;" horiz-adv-x="601"
           d="M475 720h55v-720h-55v597l-351 -560v-37h-54v720h54v-598l351 561v37z" />
            <glyph glyph-name="afii10027" unicode="&#x419;" horiz-adv-x="601"
           d="M298 765q-49 0 -82.5 26t-38.5 86h48q3 -72 73 -72q72 0 75 72h47q-5 -60 -38.5 -86t-83.5 -26zM475 720h55v-720h-55v597l-351 -560v-37h-54v720h54v-598l351 561v37z" />
            <glyph glyph-name="afii10028" unicode="&#x41a;" horiz-adv-x="529"
           d="M449 0l-262 344h-61v-344h-56v720h56v-328h64l239 328h62l-258 -350l285 -370h-69z" />
            <glyph glyph-name="afii10029" unicode="&#x41b;"
           d="M489 0h-55v670h-261l-41 -529q-5 -69 -31.5 -105t-86.5 -36v53q29 0 43.5 15.5t18.5 64.5l46 587h367v-720z" />
            <glyph glyph-name="afii10030" unicode="&#x41c;" horiz-adv-x="740"
           d="M348 0l-225 641v-641h-53v720h79l228 -654l216 654h76v-720h-53v636l-211 -636h-57z" />
            <glyph glyph-name="afii10031" unicode="&#x41d;" horiz-adv-x="602"
           d="M532 720v-720h-57v342h-349v-342h-56v720h56v-329h349v329h57z" />
            <glyph glyph-name="afii10032" unicode="&#x41e;" horiz-adv-x="661"
           d="M331 32q49 0 90.5 20t72 60.5t47.5 102t17 144.5q0 80 -16.5 141.5t-46.5 103t-72 63t-93 21.5t-93 -21.5t-72 -63t-46.5 -103t-16.5 -141.5q0 -82 17 -143t48 -102t72.5 -61.5t91.5 -20.5zM331 -15q-63 0 -115.5 24.5t-90.5 72t-59 117t-21 160.5t21 161.5t59 118
t90.5 72t114.5 24.5q61 0 113.5 -24.5t90.5 -72t60 -118t22 -161.5t-21.5 -160.5t-60 -117t-90.5 -72t-113 -24.5z" />
            <glyph glyph-name="afii10033" unicode="&#x41f;" horiz-adv-x="602"
           d="M532 720v-720h-57v671h-349v-671h-56v720h462z" />
            <glyph glyph-name="afii10034" unicode="&#x420;" horiz-adv-x="550"
           d="M278 720q112 0 172 -57.5t60 -163.5q0 -51 -16.5 -92t-47 -70t-74 -45t-98.5 -16h-148v-276h-56v720h208zM126 673v-349h152q84 0 129 47t45 128q0 85 -44.5 129.5t-125.5 44.5h-156z" />
            <glyph glyph-name="afii10035" unicode="&#x421;" horiz-adv-x="630"
           d="M331 33q89 0 141.5 53t61.5 153h55q-5 -56 -24 -102.5t-52 -80t-78.5 -52.5t-102.5 -19q-66 0 -119.5 25.5t-90.5 73.5t-57 116t-20 154q0 94 21 165t58.5 119t90 72.5t114.5 24.5q52 0 96.5 -15.5t79 -45.5t57 -73t28.5 -98h-56q-14 94 -67.5 139t-137.5 45
q-51 0 -93 -21t-71.5 -63t-46 -104.5t-16.5 -144.5q0 -77 17 -136.5t47.5 -100.5t72.5 -62.5t92 -21.5z" />
            <glyph glyph-name="afii10036" unicode="&#x422;" horiz-adv-x="504"
           d="M490 670h-210v-670h-56v670h-210v50h476v-50z" />
            <glyph glyph-name="afii10037" unicode="&#x423;" horiz-adv-x="490"
           d="M262 104q-12 -32 -23 -55t-23.5 -37t-28 -20.5t-35.5 -6.5q-10 0 -21 2t-22 5v46q13 -4 22.5 -5t17.5 -1q13 0 22 5.5t18 20.5t19.5 42t24.5 71h-20l-207 549h57l186 -506l181 506h54z" />
            <glyph glyph-name="afii10038" unicode="&#x424;" horiz-adv-x="705"
           d="M380 735v-36q60 -1 111 -23t88.5 -64.5t59 -105.5t21.5 -147q0 -79 -21 -141t-58.5 -105.5t-89 -67t-111.5 -24.5v-36h-55v36q-60 1 -111.5 24.5t-89 67t-58.5 105.5t-21 141q0 84 21.5 147t59 105.5t88.5 64.5t111 23v36h55zM603 359q0 140 -58.5 215t-164.5 77v-582
q48 1 89 19.5t71 54.5t46.5 90t16.5 126zM102 359q0 -72 17 -126t46.5 -90t70.5 -54.5t89 -19.5v582q-106 -2 -164.5 -77t-58.5 -215z" />
            <glyph glyph-name="afii10039" unicode="&#x425;" horiz-adv-x="541"
           d="M304 373l223 -373h-66l-190 329l-194 -329h-63l226 373l-209 347h66l177 -304l184 304h61z" />
            <glyph glyph-name="afii10040" unicode="&#x426;" horiz-adv-x="604"
           d="M70 720h55v-671h350v671h56v-671h50v-189h-52v140h-459v720z" />
            <glyph glyph-name="afii10041" unicode="&#x427;" horiz-adv-x="557"
           d="M486 720v-720h-55v354q-52 -105 -173 -105q-96 0 -149 57t-53 174v240h56v-243q0 -95 41.5 -137.5t119.5 -42.5q75 0 116.5 49.5t41.5 131.5v242h55z" />
            <glyph glyph-name="afii10042" unicode="&#x428;" horiz-adv-x="858"
           d="M787 720v-720h-717v720h55v-671h276v671h55v-671h276v671h55z" />
            <glyph glyph-name="afii10043" unicode="&#x429;" horiz-adv-x="860"
           d="M787 720v-671h50v-189h-52v140h-715v720h55v-671h276v671h55v-671h276v671h55z" />
            <glyph glyph-name="afii10044" unicode="&#x42a;" horiz-adv-x="704"
           d="M9 720h270v-276h154q111 0 171 -58.5t60 -164.5q0 -51 -16.5 -91.5t-47 -69.5t-73.5 -44.5t-96 -15.5h-207v672h-215v48zM280 396v-348h153q84 0 128.5 46.5t44.5 126.5q0 85 -44.5 130t-125.5 45h-156z" />
            <glyph glyph-name="afii10045" unicode="&#x42b;" horiz-adv-x="685"
           d="M614 720v-720h-56v720h56zM126 720v-276h153q111 0 171 -58.5t60 -164.5q0 -51 -16.5 -91.5t-46.5 -69.5t-73 -44.5t-96 -15.5h-208v720h56zM126 396v-348h153q84 0 128.5 46.5t44.5 126.5q0 85 -44 130t-125 45h-157z" />
            <glyph glyph-name="afii10046" unicode="&#x42c;" horiz-adv-x="550"
           d="M126 720v-276h153q111 0 171 -58.5t60 -164.5q0 -51 -16.5 -91.5t-46.5 -69.5t-73 -44.5t-96 -15.5h-208v720h56zM126 396v-348h153q84 0 128.5 46.5t44.5 126.5q0 85 -44 130t-125 45h-157z" />
            <glyph glyph-name="afii10047" unicode="&#x42d;" horiz-adv-x="630"
           d="M312 -15q-61 0 -109 19.5t-82.5 53.5t-55 80.5t-25.5 100.5h57q10 -97 65.5 -151.5t148.5 -54.5q52 0 91.5 21.5t66.5 61.5t41.5 97t16.5 129h-298v48h297q-6 147 -60.5 221.5t-155.5 74.5q-88 0 -143.5 -46t-70.5 -137h-56q7 54 30 97t58 73t81.5 46t101.5 16
q63 0 113.5 -24t86 -71t55 -117t19.5 -162q0 -84 -17.5 -153.5t-52 -119t-85.5 -76.5t-118 -27z" />
            <glyph glyph-name="afii10048" unicode="&#x42e;" horiz-adv-x="889"
           d="M568 -15q-57 0 -106.5 23.5t-86.5 68.5t-59 111.5t-25 153.5h-165v-342h-56v720h56v-329h165q4 87 27.5 151.5t60.5 107.5t85.5 64t103.5 21q57 0 107.5 -24.5t88 -72t59.5 -118t22 -161.5q0 -94 -21.5 -164t-59 -116.5t-88 -70t-108.5 -23.5zM568 32q45 0 85 19t70 58.5
t47.5 101.5t17.5 148q0 80 -16.5 141.5t-46 103t-69.5 63t-88 21.5q-103 0 -162 -84t-59 -245q0 -82 17.5 -143t47.5 -102t70.5 -61.5t85.5 -20.5z" />
            <glyph glyph-name="afii10049" unicode="&#x42f;" horiz-adv-x="563"
           d="M110 500q0 -36 11.5 -65t32 -49.5t48.5 -31.5t61 -11h174v329h-163q-43 0 -74 -13.5t-51 -37t-29.5 -54.5t-9.5 -67zM14 0q45 77 89 153t89 153q-29 9 -54 24t-44 38t-30 55.5t-11 75.5q0 105 59.5 163t168.5 58h211v-720h-55v295h-191l-168 -295h-64z" />
            <glyph glyph-name="afii10065" unicode="&#x430;" horiz-adv-x="465"
           d="M53 386q6 67 54 108t127 41q81 0 125.5 -45t44.5 -126v-364h-44l-7 87q-20 -41 -60 -71.5t-104 -30.5q-70 0 -109.5 37.5t-39.5 103.5q0 69 39.5 113t138.5 60l132 21v50q0 58 -28.5 90t-89.5 32q-57 0 -88.5 -29t-36.5 -77h-54zM202 30q29 0 55.5 11.5t47 32t33 49
t12.5 62.5v92l-116 -19q-81 -13 -110.5 -45.5t-29.5 -83.5q0 -48 27.5 -73.5t80.5 -25.5z" />
            <glyph glyph-name="afii10066" unicode="&#x431;" horiz-adv-x="501"
           d="M40 291q0 83 11 146t33 107t54.5 71t76.5 38q25 7 47.5 13.5t39.5 14.5t26.5 17.5t9.5 21.5h60q0 -21 -13 -37t-35 -28t-51 -21.5t-62 -18.5q-37 -11 -61.5 -28.5t-41 -47t-26.5 -71.5t-17 -102q24 57 68 88.5t101 31.5q45 0 82 -17.5t63.5 -50t41 -78.5t14.5 -103
t-15.5 -103.5t-43 -79.5t-66 -51t-84.5 -18q-50 0 -89 17t-66.5 53.5t-42 94.5t-14.5 141zM95 236q0 -97 42.5 -152t113.5 -55q36 0 64.5 15t49 42t31 65.5t10.5 85.5q0 94 -39.5 150t-111.5 56q-35 0 -64 -13.5t-50.5 -40t-33.5 -65t-12 -88.5z" />
            <glyph glyph-name="afii10067" unicode="&#x432;" horiz-adv-x="446"
           d="M65 0v520h171q74 0 115.5 -31.5t41.5 -94.5q0 -42 -22.5 -74.5t-67.5 -46.5q45 -11 76.5 -42t31.5 -85q0 -75 -47 -110.5t-127 -35.5h-172zM234 45q26 0 49 4.5t39.5 16t26 31t9.5 49.5q0 25 -9.5 43.5t-25.5 31.5t-37 19.5t-43 6.5h-125v-202h116zM342 389
q0 50 -32 67.5t-98 17.5h-94v-180h120q21 0 39.5 6.5t33 18.5t23 29.5t8.5 40.5z" />
            <glyph glyph-name="afii10068" unicode="&#x433;" horiz-adv-x="336"
           d="M65 0v520h257v-47h-204v-473h-53z" />
            <glyph glyph-name="afii10069" unicode="&#x434;" horiz-adv-x="492"
           d="M56 46q12 13 19.5 29.5t9.5 56.5l18 388h322v-474h39v-186h-50v140h-349v-140h-51v186h42zM138 139q-2 -35 -11.5 -56.5t-24.5 -36.5h270v428h-220z" />
            <glyph glyph-name="afii10070" unicode="&#x435;" horiz-adv-x="502"
           d="M450 141q-17 -71 -65.5 -113.5t-127.5 -42.5q-48 0 -88 17.5t-68.5 52.5t-44.5 86t-16 119q0 67 15 118t43 86t66 53t85 18q46 0 84.5 -17.5t66 -52.5t43 -89.5t15.5 -127.5h-364q4 -113 48.5 -165.5t116.5 -52.5q57 0 90 29.5t45 81.5h56zM249 491q-66 0 -107 -50.5
t-47 -148.5h308q-5 100 -45.5 149.5t-108.5 49.5z" />
            <glyph glyph-name="afii10072" unicode="&#x436;" horiz-adv-x="629"
           d="M90 520l123 -218h76v218h50v-218h77l124 218h58l-139 -239l168 -281h-63l-150 256h-75v-256h-50v256h-75l-150 -256h-62l168 281l-139 239h59z" />
            <glyph glyph-name="afii10073" unicode="&#x437;" horiz-adv-x="431"
           d="M219 535q76 0 119 -37t43 -100q0 -47 -24.5 -79t-69.5 -46q46 -11 78 -43.5t32 -86.5q0 -72 -47 -115t-129 -43q-42 0 -75 12.5t-56.5 35t-38 53t-19.5 67.5h56q8 -55 40.5 -89t91.5 -34q26 0 48.5 6.5t39 20t26 34.5t9.5 51q0 25 -9.5 44.5t-26 33t-39 20.5t-47.5 7h-40
v47h40q21 0 40.5 7t34 19.5t23.5 31t9 41.5q0 45 -27.5 71.5t-81.5 26.5q-56 0 -88 -31t-40 -84h-56q11 72 59 115.5t125 43.5z" />
            <glyph glyph-name="afii10074" unicode="&#x438;" horiz-adv-x="487"
           d="M66 0v520h52v-415l250 391v24h53v-520h-53v415l-250 -391v-24h-52z" />
            <glyph glyph-name="afii10075" unicode="&#x439;" horiz-adv-x="487"
           d="M246 595q-49 0 -82.5 26t-38.5 86h48q3 -72 73 -72q72 0 75 72h47q-5 -60 -38.5 -86t-83.5 -26zM66 0v520h52v-415l250 391v24h53v-520h-53v415l-250 -391v-24h-52z" />
            <glyph glyph-name="afii10076" unicode="&#x43a;" horiz-adv-x="433"
           d="M66 0v520h53v-218h45l177 218h61l-196 -239l225 -281h-65l-205 256h-42v-256h-53z" />
            <glyph glyph-name="afii10077" unicode="&#x43b;" horiz-adv-x="463"
           d="M343 0v473h-199l-21 -294q-3 -46 -9 -79.5t-18 -55.5t-32.5 -33t-53.5 -11v47q29 0 42 16t16 61l27 396h301v-520h-53z" />
            <glyph glyph-name="afii10078" unicode="&#x43c;" horiz-adv-x="576"
           d="M262 0l-146 447v-447h-50v520h77l147 -452l143 452h77v-520h-52v443l-143 -443h-53z" />
            <glyph glyph-name="afii10079" unicode="&#x43d;" horiz-adv-x="490"
           d="M65 0v520h53v-225h253v225h53v-520h-53v248h-253v-248h-53z" />
            <glyph glyph-name="afii10080" unicode="&#x43e;" horiz-adv-x="503"
           d="M40 260q0 69 15.5 120.5t43 86t66.5 51.5t87 17q97 0 154 -69t57 -206q0 -136 -57 -205.5t-153 -69.5q-97 0 -155 69.5t-58 205.5zM94 260q0 -115 43 -173t115 -58q75 0 116 58t41 173q0 117 -41.5 174t-115.5 57t-116 -58t-42 -173z" />
            <glyph glyph-name="afii10081" unicode="&#x43f;" horiz-adv-x="490"
           d="M65 0v520h359v-520h-53v473h-253v-473h-53z" />
            <glyph glyph-name="afii10082" unicode="&#x440;" horiz-adv-x="510"
           d="M273 -15q-57 0 -94.5 28t-59.5 79v-272h-53v700h42l9 -96q23 51 62 81t99 30q89 0 140.5 -66.5t51.5 -202.5q0 -69 -14.5 -121.5t-41 -88t-62.5 -53.5t-79 -18zM415 267q0 115 -40 169t-110 54q-31 0 -58.5 -12.5t-48 -40t-32.5 -71t-12 -106.5q0 -115 39.5 -172.5
t109.5 -57.5t111 58t41 179z" />
            <glyph glyph-name="afii10083" unicode="&#x441;" horiz-adv-x="474"
           d="M435 153q-6 -36 -21 -67t-39 -53.5t-56.5 -35t-72.5 -12.5q-46 0 -84 17t-65 51t-42 85t-15 118q0 69 15 121t42 87.5t64.5 53t82.5 17.5q77 0 127 -43.5t61 -115.5h-57q-9 54 -42 84t-88 30q-70 0 -110.5 -57.5t-40.5 -178.5q0 -57 11.5 -99.5t32 -70t48.5 -41t62 -13.5
q57 0 90 34t41 89h56z" />
            <glyph glyph-name="afii10084" unicode="&#x442;" horiz-adv-x="417"
           d="M181 0v473h-168v47h390v-47h-169v-473h-53z" />
            <glyph glyph-name="afii10085" unicode="&#x443;" horiz-adv-x="440"
           d="M425 520q-42 -132 -81.5 -262.5t-79.5 -261.5q-17 -53 -30.5 -89.5t-27.5 -59t-31.5 -32.5t-41.5 -10q-12 0 -25 3t-25 7v44q25 -9 46 -9q14 0 24.5 7.5t19.5 25t18.5 46.5t21.5 71h-20l-179 520h57l158 -476l142 476h54z" />
            <glyph glyph-name="afii10086" unicode="&#x444;" horiz-adv-x="737"
           d="M525 -15q-48 0 -80 27.5t-50 75.5v-268h-53v268q-17 -48 -49.5 -75.5t-80.5 -27.5q-37 0 -68.5 18t-54.5 53.5t-36 88t-13 121.5q0 136 46 202.5t121 66.5q51 0 84 -29.5t51 -76.5v291h53v-291q19 47 51.5 76.5t83.5 29.5q75 0 121 -66.5t46 -202.5q0 -138 -48.5 -209.5
t-123.5 -71.5zM94 267q0 -121 35 -179t92 -58t90.5 57.5t33.5 172.5q0 63 -10.5 106.5t-28 71t-40.5 40t-48 12.5q-57 0 -90.5 -54t-33.5 -169zM643 267q0 115 -33.5 169t-90.5 54q-25 0 -48 -12.5t-40 -40t-27.5 -71t-10.5 -106.5q0 -115 32.5 -172.5t90.5 -57.5
q57 0 92 58t35 179z" />
            <glyph glyph-name="afii10087" unicode="&#x445;" horiz-adv-x="451"
           d="M254 275l183 -275h-64l-151 235l-146 -235h-62l177 273l-168 247h64l137 -207l127 207h60z" />
            <glyph glyph-name="afii10088" unicode="&#x446;" horiz-adv-x="491"
           d="M424 520v-474h39v-186h-50v140h-348v520h53v-474h253v474h53z" />
            <glyph glyph-name="afii10089" unicode="&#x447;" horiz-adv-x="480"
           d="M112 520v-195q0 -139 116 -139q29 0 53.5 13t42 35.5t27.5 52.5t10 65v168h53v-520h-53v236q-24 -50 -63.5 -72.5t-83.5 -22.5q-71 0 -113 45t-42 138v196h53z" />
            <glyph glyph-name="afii10090" unicode="&#x448;" horiz-adv-x="706"
           d="M640 520v-520h-575v520h53v-474h208v474h53v-474h208v474h53z" />
            <glyph glyph-name="afii10091" unicode="&#x449;" horiz-adv-x="707"
           d="M640 520v-474h39v-186h-51v140h-563v520h53v-474h208v474h53v-474h208v474h53z" />
            <glyph glyph-name="afii10092" unicode="&#x44a;" horiz-adv-x="552"
           d="M224 520v-179h100q48 0 83.5 -13t59 -35t35 -52t11.5 -64q0 -87 -50 -132t-151 -45h-141v473h-163v47h216zM224 297v-253h90q78 0 111 33.5t33 98.5q0 26 -7.5 48.5t-24.5 38.5t-43.5 25t-64.5 9h-94z" />
            <glyph glyph-name="afii10093" unicode="&#x44b;" horiz-adv-x="569"
           d="M449 0v520h53v-520h-53zM119 520v-178h101q47 0 82.5 -13t59 -35t35 -52.5t11.5 -64.5q0 -86 -50 -131.5t-151 -45.5h-141v520h53zM119 298v-254h90q77 0 111 34t34 98q0 53 -32.5 87.5t-107.5 34.5h-95z" />
            <glyph glyph-name="afii10094" unicode="&#x44c;" horiz-adv-x="447"
           d="M119 520v-178h101q47 0 82.5 -13t59 -35t35 -52.5t11.5 -64.5q0 -86 -50 -131.5t-151 -45.5h-141v520h53zM119 298v-254h90q77 0 111 34t34 98q0 53 -32.5 87.5t-107.5 34.5h-95z" />
            <glyph glyph-name="afii10095" unicode="&#x44d;" horiz-adv-x="474"
           d="M96 153q8 -55 46 -89t95 -34q66 0 103.5 52t39.5 164h-194v45h193q-7 102 -42 150.5t-101 48.5q-60 0 -94 -30.5t-43 -83.5h-56q11 73 61 116t133 43q94 0 146 -69.5t52 -208.5q0 -134 -52 -203t-146 -69q-42 0 -76 12.5t-59 35t-41 53.5t-21 67h56z" />
            <glyph glyph-name="afii10096" unicode="&#x44e;" horiz-adv-x="684"
           d="M65 0v520h53v-225h120q9 119 63 179.5t139 60.5q94 0 148.5 -69t54.5 -206t-54.5 -206t-147.5 -69q-90 0 -145.5 67t-58.5 196h-119v-248h-53zM291 260q0 -116 40 -174t109 -58q72 0 110 58t38 174t-38.5 173.5t-109.5 57.5q-70 0 -109.5 -58t-39.5 -173z" />
            <glyph glyph-name="afii10097" unicode="&#x44f;" horiz-adv-x="465"
           d="M212 202l-138 -202h-60l143 208q-48 14 -75.5 53t-27.5 93q0 79 47.5 122.5t140.5 43.5h157v-520h-53v202h-134zM346 248v228h-103q-72 0 -102.5 -31.5t-30.5 -88.5q0 -51 27 -79.5t73 -28.5h136z" />
            <glyph glyph-name="uni0450" unicode="&#x450;" horiz-adv-x="502"
           d="M450 141q-17 -71 -65.5 -113.5t-127.5 -42.5q-48 0 -88 17.5t-68.5 52.5t-44.5 86t-16 119q0 67 15 118t43 86t66 53t85 18q46 0 84.5 -17.5t66 -52.5t43 -89.5t15.5 -127.5h-364q4 -113 48.5 -165.5t116.5 -52.5q57 0 90 29.5t45 81.5h56zM249 491q-66 0 -107 -50.5
t-47 -148.5h308q-5 100 -45.5 149.5t-108.5 49.5zM291 598h-48l-113 137h71z" />
            <glyph glyph-name="afii10071" unicode="&#x451;" horiz-adv-x="502"
           d="M450 141q-17 -71 -65.5 -113.5t-127.5 -42.5q-48 0 -88 17.5t-68.5 52.5t-44.5 86t-16 119q0 67 15 118t43 86t66 53t85 18q46 0 84.5 -17.5t66 -52.5t43 -89.5t15.5 -127.5h-364q4 -113 48.5 -165.5t116.5 -52.5q57 0 90 29.5t45 81.5h56zM249 491q-66 0 -107 -50.5
t-47 -148.5h308q-5 100 -45.5 149.5t-108.5 49.5zM129 651v69h60v-69h-60zM308 651v69h60v-69h-60z" />
            <glyph glyph-name="afii10099" unicode="&#x452;" horiz-adv-x="487"
           d="M66 0v609h-50v46h50v65h53v-65h141v-46h-141v-174q23 50 60.5 75t87.5 25q75 0 116.5 -47.5t41.5 -136.5v-420q0 -66 -27.5 -95.5t-81.5 -29.5q-26 0 -57 11v45q14 -5 29.5 -7.5t26.5 -2.5q32 0 44.5 18t12.5 64v415q0 140 -117 140q-28 0 -52.5 -11.5t-43 -33.5
t-29.5 -53t-11 -71v-320h-53z" />
            <glyph glyph-name="afii10100" unicode="&#x453;" horiz-adv-x="336"
           d="M218 735h71l-113 -137h-48zM65 0v520h257v-47h-204v-473h-53z" />
            <glyph glyph-name="afii10101" unicode="&#x454;" horiz-adv-x="474"
           d="M435 153q-6 -36 -21 -67t-38.5 -53.5t-56 -35t-72.5 -12.5q-46 0 -84 17t-65.5 51t-42.5 85t-15 118q0 139 55 209t147 70q78 0 128.5 -43t61.5 -116h-57q-8 53 -42.5 83.5t-89.5 30.5q-66 0 -103 -48.5t-44 -150.5h192v-45h-193q2 -112 44 -164t109 -52q57 0 90 34
t41 89h56z" />
            <glyph glyph-name="afii10102" unicode="&#x455;" horiz-adv-x="438"
           d="M220 29q64 0 94 28.5t30 72.5q0 49 -32.5 78t-113.5 46q-72 15 -111 49t-39 96q0 29 9.5 54t30 43t52 28.5t75.5 10.5q76 0 123 -39t57 -104h-54q-6 43 -39 71.5t-89 28.5q-62 0 -86.5 -25.5t-24.5 -62.5q0 -22 6 -38.5t20.5 -29t38.5 -22.5t60 -18q94 -22 132.5 -61
t38.5 -102q0 -64 -45 -106t-134 -42q-87 0 -133 42t-54 111h55q5 -51 37.5 -80t95.5 -29z" />
            <glyph glyph-name="afii10103" unicode="&#x456;" horiz-adv-x="185"
           d="M67 0v520h53v-520h-53zM62 647v73h62v-73h-62z" />
            <glyph glyph-name="afii10104" unicode="&#x457;" horiz-adv-x="184"
           d="M-26 651v69h60v-69h-60zM153 651v69h60v-69h-60zM66 0v520h53v-520h-53z" />
            <glyph glyph-name="afii10105" unicode="&#x458;" horiz-adv-x="182"
           d="M-49 -138q14 -5 29.5 -8t25.5 -3q32 0 44.5 18.5t12.5 63.5v587h53v-590q0 -60 -24.5 -92.5t-76.5 -32.5q-14 0 -30.5 2.5t-33.5 8.5v46zM59 647v73h62v-73h-62z" />
            <glyph glyph-name="afii10106" unicode="&#x459;" horiz-adv-x="701"
           d="M373 520v-178h100q48 0 83.5 -13t59.5 -35t35.5 -52.5t11.5 -64.5q0 -86 -50.5 -131.5t-151.5 -45.5h-141v474h-182l-24 -344q-2 -32 -8 -56t-18 -40.5t-31 -25t-47 -8.5v49q10 0 18.5 1.5t15.5 8.5t11.5 22.5t6.5 42.5l27 396h284zM373 298v-254h90q78 0 111.5 34
t33.5 98q0 26 -8 48.5t-25 39t-43.5 25.5t-64.5 9h-94z" />
            <glyph glyph-name="afii10107" unicode="&#x45a;" horiz-adv-x="730"
           d="M65 0v520h53v-225h231v225h53v-179h100q48 0 83.5 -13t59 -35t35 -52t11.5 -64q0 -87 -50 -132t-152 -45h-140v248h-231v-248h-53zM402 297v-253h90q77 0 110.5 33.5t33.5 98.5q0 26 -7.5 48.5t-24.5 38.5t-43.5 25t-64.5 9h-94z" />
            <glyph glyph-name="afii10108" unicode="&#x45b;" horiz-adv-x="487"
           d="M66 0v609h-50v46h50v65h53v-65h141v-46h-141v-174q23 50 60.5 75t87.5 25q44 0 74.5 -15t49 -43.5t26.5 -69t8 -92.5v-315h-53v349q0 140 -117 140q-28 0 -52.5 -11.5t-43 -33.5t-29.5 -53t-11 -71v-320h-53z" />
            <glyph glyph-name="afii10109" unicode="&#x45c;" horiz-adv-x="433"
           d="M255 735h71l-113 -137h-48zM66 0v520h53v-218h45l177 218h61l-196 -239l225 -281h-65l-205 256h-42v-256h-53z" />
            <glyph glyph-name="uni045D" unicode="&#x45d;" horiz-adv-x="487"
           d="M66 0v520h52v-415l250 391v24h53v-520h-53v415l-250 -391v-24h-52zM284 598h-48l-113 137h71z" />
            <glyph glyph-name="afii10110" unicode="&#x45e;" horiz-adv-x="440"
           d="M425 520q-42 -132 -81.5 -262.5t-79.5 -261.5q-17 -53 -30.5 -89.5t-27.5 -59t-31.5 -32.5t-41.5 -10q-12 0 -25 3t-25 7v44q25 -9 46 -9q14 0 24.5 7.5t19.5 25t18.5 46.5t21.5 71h-20l-179 520h57l158 -476l142 476h54zM223 595q-49 0 -82.5 26t-38.5 86h48
q3 -72 73 -72q72 0 75 72h47q-5 -60 -38.5 -86t-83.5 -26z" />
            <glyph glyph-name="afii10193" unicode="&#x45f;" horiz-adv-x="490"
           d="M424 520v-520h-154v-140h-50v140h-155v520h53v-473h253v473h53z" />
            <glyph glyph-name="afii10146" unicode="&#x462;" horiz-adv-x="684"
           d="M259 670v-227h153q111 0 171 -58.5t60 -163.5q0 -51 -16.5 -91.5t-46.5 -69.5t-73 -44.5t-96 -15.5h-207v670h-190v50h436v-50h-191zM259 396q0 -88 0.5 -174t0.5 -174h152q84 0 129 46t45 127q0 84 -45 129.5t-126 45.5h-156z" />
            <glyph glyph-name="afii10194" unicode="&#x463;" horiz-adv-x="447"
           d="M119 492v-150h101q47 0 82.5 -13t59 -35t35 -52.5t11.5 -64.5q0 -86 -49.5 -131.5t-151.5 -45.5h-141v492h-66v46h66v113h53v-113h105v-46h-105zM119 298v-254h90q77 0 111 34t34 98q0 53 -32.5 87.5t-107.5 34.5h-95z" />
            <glyph glyph-name="afii10147" unicode="&#x472;" horiz-adv-x="661"
           d="M331 -15q-63 0 -115.5 24.5t-90.5 72t-59 117t-21 160.5t21 161.5t59 118t90.5 72t114.5 24.5q61 0 113.5 -24.5t90.5 -72t60 -118t22 -161.5t-21.5 -160.5t-60 -117t-90.5 -72t-113 -24.5zM331 32q48 0 89 19t71 57t47.5 96.5t19.5 138.5h-456q1 -78 19 -136.5t48.5 -97
t72 -58t89.5 -19.5zM330 688q-98 0 -159.5 -75.5t-68.5 -220.5h455q-6 145 -67.5 220.5t-159.5 75.5z" />
            <glyph glyph-name="afii10195" unicode="&#x473;" horiz-adv-x="503"
           d="M40 260q0 69 15.5 120.5t43 86t66.5 51.5t87 17q97 0 154 -69t57 -206q0 -136 -57 -205.5t-153 -69.5q-97 0 -155 69.5t-58 205.5zM252 29q72 0 112.5 53.5t44.5 160.5h-314q2 -107 45 -160.5t112 -53.5zM252 491q-69 0 -110.5 -51t-46.5 -153h313q-5 103 -46 153.5
t-110 50.5z" />
            <glyph glyph-name="afii10148" unicode="&#x474;" horiz-adv-x="551"
           d="M64 720q53 -168 105 -333.5t106 -333.5l215 667h54l-232 -720h-75q-58 181 -115.5 360t-116.5 360h59z" />
            <glyph glyph-name="afii10196" unicode="&#x475;" horiz-adv-x="439"
           d="M425 520l-170 -520h-70l-171 520h58l148 -471l151 471h54z" />
            <glyph glyph-name="afii10050" unicode="&#x490;" horiz-adv-x="429"
           d="M362 720v140h52v-189h-289v-671h-55v720h292z" />
            <glyph glyph-name="afii10098" unicode="&#x491;" horiz-adv-x="336"
           d="M65 0v520h207v135h50v-182h-204v-473h-53z" />
            <glyph glyph-name="uni0492" unicode="&#x492;" horiz-adv-x="429"
           d="M415 672h-289v-282h183v-48h-183v-342h-56v342h-78v48h78v330h345v-48z" />
            <glyph glyph-name="uni0493" unicode="&#x493;" horiz-adv-x="336"
           d="M119 473v-178h131v-47h-131v-248h-53v248h-44v47h44v225h256v-47h-203z" />
            <glyph glyph-name="uni0496" unicode="&#x496;" horiz-adv-x="751"
           d="M95 720l148 -328h104v328h54v-328h105l149 328h57l-162 -348l163 -323h44v-189h-52v140h-29l-168 344h-107v-344h-54v344h-106l-168 -344h-62l188 372l-161 348h57z" />
            <glyph glyph-name="uni0497" unicode="&#x497;" horiz-adv-x="633"
           d="M90 520l123 -218h76v218h50v-218h77l124 218h58l-139 -239l141 -235h40v-186h-51v140h-25l-150 256h-75v-256h-50v256h-75l-150 -256h-62l168 281l-139 239h59z" />
            <glyph glyph-name="uni0498" unicode="&#x498;" horiz-adv-x="523"
           d="M378 -143q0 -41 -27 -69.5t-78 -28.5q-45 0 -73 23t-33 64h44q3 -22 18 -35.5t44 -13.5q32 0 47 16.5t15 42.5q0 30 -21 46.5t-72 16.5l5 66q-91 4 -144 48.5t-65 125.5h58q11 -63 50.5 -95.5t113.5 -32.5q80 0 120.5 44t40.5 122q0 75 -38.5 117t-106.5 42h-68v48h66
q62 0 96 41.5t34 105.5q0 65 -37 101.5t-109 36.5t-108.5 -32.5t-46.5 -92.5h-57q12 77 65.5 124t149.5 47q92 0 146 -48t54 -131q0 -63 -30 -109.5t-87 -63.5q59 -10 97 -59t38 -126q0 -94 -50.5 -149t-141.5 -63v-37q45 -4 68 -29t23 -63z" />
            <glyph glyph-name="uni0499" unicode="&#x499;" horiz-adv-x="431"
           d="M333 -143q0 -41 -27.5 -69.5t-78.5 -28.5q-44 0 -72 23t-33 64h44q3 -22 18 -35.5t44 -13.5q32 0 47 16.5t15 42.5q0 30 -21 46.5t-72 16.5l4 67q-75 5 -117 51.5t-52 115.5h56q8 -55 40.5 -89t91.5 -34q26 0 48.5 6.5t39 20t26 34.5t9.5 51q0 25 -9.5 44.5t-26 33
t-39 20.5t-47.5 7h-40v47h40q21 0 40.5 7t34 19.5t23.5 31t9 41.5q0 45 -27.5 71.5t-81.5 26.5q-56 0 -88 -31t-40 -84h-56q11 72 59 115.5t125 43.5q76 0 119 -37t43 -100q0 -47 -24.5 -79t-69.5 -46q46 -11 78 -43.5t32 -86.5q0 -68 -42 -109.5t-114 -47.5v-37
q45 -4 68.5 -29t23.5 -63z" />
            <glyph glyph-name="uni049A" unicode="&#x49a;" horiz-adv-x="529"
           d="M491 720l-258 -350l249 -321h46v-189h-52v140h-27l-262 344h-61v-344h-56v720h56v-328h64l239 328h62z" />
            <glyph glyph-name="uni049B" unicode="&#x49b;" horiz-adv-x="434"
           d="M66 0v520h53v-218h45l177 218h61l-196 -239l189 -235h47v-186h-52v140h-24l-205 256h-42v-256h-53z" />
            <glyph glyph-name="uni049C" unicode="&#x49c;" horiz-adv-x="554"
           d="M125 720v-329h37v200h40v-200h13l239 329h62l-259 -351l285 -369h-69l-261 343h-10v-272h-40v272h-37v-343h-55v720h55z" />
            <glyph glyph-name="uni049D" unicode="&#x49d;" horiz-adv-x="465"
           d="M65 0v520h53v-218h28v99h40v-99h11l176 218h62l-196 -240l224 -280h-65l-205 255h-7v-202h-40v203h-28v-256h-53z" />
            <glyph glyph-name="uni04A0" unicode="&#x4a0;" horiz-adv-x="681"
           d="M600 0l-261 343h-62v-343h-55v671h-215v49h271l-1 -1v-328h65l239 329h62l-259 -351l285 -369h-69z" />
            <glyph glyph-name="uni04A1" unicode="&#x4a1;" horiz-adv-x="538"
           d="M172 0v474h-163v46h216v-218h45l177 218h61l-196 -239l225 -281h-65l-205 256h-42v-256h-53z" />
            <glyph glyph-name="uni04A2" unicode="&#x4a2;" horiz-adv-x="604"
           d="M532 720v-671h49v-189h-52v140h-54v342h-349v-342h-56v720h56v-329h349v329h57z" />
            <glyph glyph-name="uni04A3" unicode="&#x4a3;" horiz-adv-x="491"
           d="M65 0v520h53v-225h253v225h53v-474h39v-186h-51v140h-41v248h-253v-248h-53z" />
            <glyph glyph-name="uni04AA" unicode="&#x4aa;" horiz-adv-x="630"
           d="M492 -149q-12 -42 -39 -65.5t-69 -23.5q-48 0 -75.5 26t-27.5 76q0 35 20.5 66.5t52.5 56.5q-5 -1 -10 -1h-9q-66 0 -120 25t-92 72t-58.5 115.5t-20.5 155.5q0 94 21 165t59 119t90 72.5t114 24.5q52 0 96.5 -15.5t79 -45.5t57 -73t28.5 -98h-56q-14 93 -67.5 138
t-137.5 45q-51 0 -93 -21t-71.5 -63t-46 -104t-16.5 -144q0 -77 17 -136.5t47.5 -100.5t73 -62.5t92.5 -21.5q89 0 141 53t61 153h56q-8 -84 -47 -144t-105 -92q-48 -23 -80.5 -57t-32.5 -77q0 -34 16.5 -51t45.5 -17q23 0 37 11.5t23 38.5h46z" />
            <glyph glyph-name="uni04AB" unicode="&#x4ab;" horiz-adv-x="474"
           d="M388 -149q-11 -42 -38.5 -65.5t-69.5 -23.5q-48 0 -75.5 26t-27.5 75q0 35 20 66.5t53 55.5q-47 0 -85.5 16.5t-66.5 50t-43 84.5t-15 120t15 121t42 87.5t64.5 53t82.5 17.5q77 0 127 -43.5t61 -115.5h-57q-9 54 -42 84t-88 30q-70 0 -110.5 -57.5t-40.5 -178.5
q0 -57 11.5 -99.5t32 -70t48.5 -41t62 -13.5q57 0 90 34t41 89h56q-9 -54 -36.5 -93.5t-74.5 -59.5q-45 -26 -74.5 -58t-29.5 -74q0 -33 16.5 -50t46.5 -17q22 0 36 11.5t24 38.5h45z" />
            <glyph glyph-name="uni04AE" unicode="&#x4ae;" horiz-adv-x="548"
           d="M65 720l208 -385q54 97 106 192.5t105 192.5h58q-60 -110 -120.5 -219t-121.5 -219v-282h-54v283l-241 437h60z" />
            <glyph glyph-name="uni04AF" unicode="&#x4af;" horiz-adv-x="439"
           d="M193 -180v180l-179 520h58l148 -465l150 465h55l-179 -520v-180h-53z" />
            <glyph glyph-name="uni04B0" unicode="&#x4b0;" horiz-adv-x="548"
           d="M65 720l208 -385l212 385h57l-220 -399h107v-48h-129v-273h-54v273h-128v48h106l-219 399h60z" />
            <glyph glyph-name="uni04B1" unicode="&#x4b1;" horiz-adv-x="439"
           d="M425 520l-162 -474h80v-46h-97v-180h-53v180h-97v46h80l-162 474h58l148 -466l150 466h55z" />
            <glyph glyph-name="uni04B2" unicode="&#x4b2;" horiz-adv-x="541"
           d="M270 328l-193 -328h-63l225 372l-208 348h65q45 -77 89 -152.5t89 -151.5l183 304h61l-214 -347l193 -324h45v-189h-52v140h-30z" />
            <glyph glyph-name="uni04B3" unicode="&#x4b3;" horiz-adv-x="443"
           d="M254 275l152 -229h45v-186h-51v140h-27l-151 235l-146 -235h-62l177 273l-168 247h64l137 -207l127 207h60z" />
            <glyph glyph-name="uni04B8" unicode="&#x4b8;" horiz-adv-x="557"
           d="M253 71v177q-94 1 -145.5 58.5t-51.5 173.5v240h55v-244q0 -88 36.5 -131t105.5 -48v294h40v-294q65 8 101 56t36 124v243h56v-720h-56v354q-20 -45 -55 -70.5t-82 -32.5v-180h-40z" />
            <glyph glyph-name="uni04B9" unicode="&#x4b9;" horiz-adv-x="480"
           d="M111 520v-196q0 -130 103 -138v215h39v-212q51 13 79.5 61.5t28.5 114.5v155h53v-520h-53v236q-19 -39 -47.5 -60.5t-60.5 -29.5v-93h-39v88q-41 0 -70.5 14t-48.5 38t-28 57.5t-9 72.5v197h53z" />
            <glyph glyph-name="uni04BA" unicode="&#x4ba;" horiz-adv-x="555"
           d="M70 0v720h56v-349q26 48 69.5 74t104.5 26q93 0 146.5 -56.5t53.5 -175.5v-239h-55v243q0 94 -39.5 137t-117.5 43q-79 0 -120.5 -49t-41.5 -133v-241h-56z" />
            <glyph glyph-name="uni04BB" unicode="&#x4bb;" horiz-adv-x="486"
           d="M65 0v720h53v-371q47 100 148 100q77 0 117.5 -48t40.5 -135v-266h-53v264q0 68 -28 104t-89 36q-30 0 -55 -13t-43 -37.5t-28 -59t-10 -77.5v-217h-53z" />
            <glyph glyph-name="uni04C0" unicode="&#x4c0;" horiz-adv-x="196"
           d="M126 720v-720h-56v720h56z" />
            <glyph glyph-name="uni04CB" unicode="&#x4cb;" horiz-adv-x="557"
           d="M430 354q-25 -52 -69 -79t-104 -27q-95 0 -148 57.5t-53 174.5v240h55v-244q0 -94 41.5 -137t119.5 -43q37 0 66.5 13t49.5 37t31 57t11 74v243h56v-671h48v-189h-52v140h-52v354z" />
            <glyph glyph-name="uni04CC" unicode="&#x4cc;" horiz-adv-x="480"
           d="M361 236q-25 -50 -64.5 -72.5t-82.5 -22.5q-72 0 -114 44.5t-42 137.5v197h53v-196q0 -69 30 -103.5t86 -34.5q31 0 55.5 14t42 38t27 56t9.5 68v158h53v-474h38v-186h-51v140h-40v236z" />
            <glyph glyph-name="uni04CF" unicode="&#x4cf;" horiz-adv-x="184"
           d="M119 0h-53v720h53v-720z" />
            <glyph glyph-name="uni04D8" unicode="&#x4d8;" horiz-adv-x="631"
           d="M309 -15q-133 0 -200.5 94t-72.5 280h493q-1 165 -59.5 246.5t-160.5 81.5q-91 0 -140 -42.5t-69 -125.5h-56q21 105 89 160.5t176 55.5q63 0 114 -24t87.5 -71t56 -117t19.5 -162q0 -84 -19 -153.5t-54.5 -119t-87 -76.5t-116.5 -27zM308 33q48 0 86 19t65.5 55
t44.5 87.5t22 116.5h-428q6 -140 60 -209t150 -69z" />
            <glyph glyph-name="afii10846" unicode="&#x4d9;" horiz-adv-x="502"
           d="M51 379q17 71 68.5 113.5t131.5 42.5q98 0 154 -70.5t56 -204.5q0 -133 -56.5 -204t-149.5 -71q-47 0 -86 17t-67 52.5t-43.5 89.5t-15.5 128h363q-2 112 -43 165t-113 53q-57 0 -93.5 -29.5t-49.5 -81.5h-56zM253 29q69 0 108 50.5t44 148.5h-308q5 -100 46 -149.5
t110 -49.5z" />
            <glyph glyph-name="uni04E2" unicode="&#x4e2;" horiz-adv-x="601"
           d="M195 823v46h213v-46h-213zM475 720h55v-720h-55v597l-351 -560v-37h-54v720h54v-598l351 561v37z" />
            <glyph glyph-name="uni04E3" unicode="&#x4e3;" horiz-adv-x="487"
           d="M136 653v46h213v-46h-213zM66 0v520h52v-415l250 391v24h53v-520h-53v415l-250 -391v-24h-52z" />
            <glyph glyph-name="uni04E8" unicode="&#x4e8;" horiz-adv-x="661"
           d="M331 -15q-63 0 -115.5 24.5t-90.5 72t-59 117t-21 160.5t21 161.5t59 118t90.5 72t114.5 24.5q61 0 113.5 -24.5t90.5 -72t60 -118t22 -161.5t-21.5 -160.5t-60 -117t-90.5 -72t-113 -24.5zM331 32q48 0 89 19t71 57t47.5 96.5t19.5 138.5h-456q1 -78 19 -136.5t48.5 -97
t72 -58t89.5 -19.5zM330 688q-98 0 -159.5 -75.5t-68.5 -220.5h455q-6 145 -67.5 220.5t-159.5 75.5z" />
            <glyph glyph-name="uni04E9" unicode="&#x4e9;" horiz-adv-x="503"
           d="M40 260q0 69 15.5 120.5t43 86t66.5 51.5t87 17q97 0 154 -69t57 -206q0 -136 -57 -205.5t-153 -69.5q-97 0 -155 69.5t-58 205.5zM252 29q72 0 112.5 53.5t44.5 160.5h-314q2 -107 45 -160.5t112 -53.5zM252 491q-69 0 -110.5 -51t-46.5 -153h313q-5 103 -46 153.5
t-110 50.5z" />
            <glyph glyph-name="uni04EE" unicode="&#x4ee;" horiz-adv-x="490"
           d="M140 823v46h213v-46h-213zM262 104q-12 -32 -23 -55t-23.5 -37t-28 -20.5t-35.5 -6.5q-10 0 -21 2t-22 5v46q13 -4 22.5 -5t17.5 -1q13 0 22 5.5t18 20.5t19.5 42t24.5 71h-20l-207 549h57l186 -506l181 506h54z" />
            <glyph glyph-name="uni04EF" unicode="&#x4ef;" horiz-adv-x="440"
           d="M425 520q-42 -132 -81.5 -262.5t-79.5 -261.5q-17 -53 -30.5 -89.5t-27.5 -59t-31.5 -32.5t-41.5 -10q-12 0 -25 3t-25 7v44q25 -9 46 -9q14 0 24.5 7.5t19.5 25t18.5 46.5t21.5 71h-20l-179 520h57l158 -476l142 476h54zM113 653v46h213v-46h-213z" />
            <glyph glyph-name="Wgrave" unicode="&#x1e80;" horiz-adv-x="837"
           d="M827 720l-172 -720h-71l-164 660l-163 -660h-74l-173 720h58l154 -657l164 657h73l161 -655l155 655h52zM449 768h-48l-113 137h71z" />
            <glyph glyph-name="wgrave" unicode="&#x1e81;" horiz-adv-x="680"
           d="M661 520l-131 -520h-65l-124 464l-119 -464h-66l-137 520h54l118 -463l118 463h67l122 -461l110 461h53zM370 598h-48l-113 137h71z" />
            <glyph glyph-name="Wacute" unicode="&#x1e82;" horiz-adv-x="837"
           d="M827 720l-172 -720h-71l-164 660l-163 -660h-74l-173 720h58l154 -657l164 657h73l161 -655l155 655h52zM488 905h71l-113 -137h-48z" />
            <glyph glyph-name="wacute" unicode="&#x1e83;" horiz-adv-x="680"
           d="M661 520l-131 -520h-65l-124 464l-119 -464h-66l-137 520h54l118 -463l118 463h67l122 -461l110 461h53zM409 735h71l-113 -137h-48z" />
            <glyph glyph-name="Wdieresis" unicode="&#x1e84;" horiz-adv-x="837"
           d="M827 720l-172 -720h-71l-164 660l-163 -660h-74l-173 720h58l154 -657l164 657h73l161 -655l155 655h52zM299 821v69h60v-69h-60zM478 821v69h60v-69h-60z" />
            <glyph glyph-name="wdieresis" unicode="&#x1e85;" horiz-adv-x="680"
           d="M661 520l-131 -520h-65l-124 464l-119 -464h-66l-137 520h54l118 -463l118 463h67l122 -461l110 461h53zM220 651v69h60v-69h-60zM399 651v69h60v-69h-60z" />
            <glyph glyph-name="Ygrave" unicode="&#x1ef2;" horiz-adv-x="548"
           d="M65 720l208 -385q54 97 106 192.5t105 192.5h58q-60 -110 -120.5 -219t-121.5 -219v-282h-54v283l-241 437h60zM304 768h-48l-113 137h71z" />
            <glyph glyph-name="ygrave" unicode="&#x1ef3;" horiz-adv-x="440"
           d="M425 520q-42 -132 -81.5 -262.5t-79.5 -261.5q-17 -53 -30.5 -89.5t-27.5 -59t-31.5 -32.5t-41.5 -10q-12 0 -25 3t-25 7v44q25 -9 46 -9q14 0 24.5 7.5t19.5 25t18.5 46.5t21.5 71h-20l-179 520h57l158 -476l142 476h54zM260 598h-48l-113 137h71z" />
            <glyph glyph-name="uni2007" unicode="&#x2007;"
            />
            <glyph glyph-name="uni2008" unicode="&#x2008;" horiz-adv-x="284"
            />
            <glyph glyph-name="uni200B" unicode="&#x200b;" horiz-adv-x="0"
            />
            <glyph glyph-name="figuredash" unicode="&#x2012;" horiz-adv-x="486"
           d="M423 298h-358v49h358v-49z" />
            <glyph glyph-name="endash" unicode="&#x2013;" horiz-adv-x="363"
           d="M357 298h-350v49h350v-49z" />
            <glyph glyph-name="emdash" unicode="&#x2014;" horiz-adv-x="539"
           d="M532 298h-525v49h525v-49z" />
            <glyph glyph-name="afii00208" unicode="&#x2015;" horiz-adv-x="363"
           d="M357 335h-350v49h350v-49z" />
            <glyph glyph-name="underscoredbl" unicode="&#x2017;" horiz-adv-x="524"
           d="M500 -209h-476v49h476v-49zM500 -112h-476v49h476v-49z" />
            <glyph glyph-name="quoteleft" unicode="&#x2018;" horiz-adv-x="276"
           d="M99 574q0 66 29 100t75 46v-36q-29 -10 -43 -33.5t-14 -70.5h26v-79h-73v73z" />
            <glyph glyph-name="quoteright" unicode="&#x2019;" horiz-adv-x="276"
           d="M176 647q0 -66 -29.5 -100.5t-74.5 -45.5v35q29 11 43 34.5t14 69.5h-26v80h73v-73z" />
            <glyph glyph-name="quotesinglbase" unicode="&#x201a;" horiz-adv-x="276"
           d="M176 6q0 -66 -29.5 -100t-74.5 -45v35q29 11 43 34.5t14 69.5h-26v79h73v-73z" />
            <glyph glyph-name="quotereversed" unicode="&#x201b;" horiz-adv-x="276"
           d="M72 720h73v-80h-26q0 -46 14 -69.5t43 -34.5v-35q-45 11 -74.5 45.5t-29.5 100.5v73z" />
            <glyph glyph-name="quotedblleft" unicode="&#x201c;" horiz-adv-x="416"
           d="M101 574q0 66 29.5 100t74.5 46v-36q-29 -10 -43 -33.5t-14 -70.5h26v-79h-73v73zM239 574q0 66 29.5 100t74.5 46v-36q-29 -10 -43 -33.5t-14 -70.5h26v-79h-73v73z" />
            <glyph glyph-name="quotedblright" unicode="&#x201d;" horiz-adv-x="414"
           d="M176 647q0 -66 -29.5 -100.5t-74.5 -45.5v35q29 11 43 34.5t14 69.5h-26v80h73v-73zM315 647q0 -66 -29.5 -100.5t-74.5 -45.5v35q29 11 43 34.5t14 69.5h-27v80h74v-73z" />
            <glyph glyph-name="quotedblbase" unicode="&#x201e;" horiz-adv-x="414"
           d="M176 6q0 -66 -29.5 -100t-74.5 -45v35q29 11 43 34.5t14 69.5h-26v79h73v-73zM315 6q0 -65 -29.5 -99.5t-74.5 -45.5v35q29 11 43 34.5t14 69.5h-27v79h74v-73z" />
            <glyph glyph-name="dagger" unicode="&#x2020;"
           d="M306 720v-205h172v-50h-172v-465h-52v465h-172v50h172v205h52z" />
            <glyph glyph-name="daggerdbl" unicode="&#x2021;"
           d="M306 720v-191h172v-50h-172v-242h172v-51h-172v-186h-52v186h-172v51h172v242h-172v50h172v191h52z" />
            <glyph glyph-name="bullet" unicode="&#x2022;" horiz-adv-x="285"
           d="M78 253v130h128v-130h-128z" />
            <glyph glyph-name="ellipsis" unicode="&#x2026;" horiz-adv-x="832"
           d="M383 0v79h65v-79h-65zM106 0v79h65v-79h-65zM660 0v79h66v-79h-66z" />
            <glyph glyph-name="perthousand" unicode="&#x2030;" horiz-adv-x="1050"
           d="M240 0h-50l291 700h51zM331 546q0 -85 -40.5 -127t-102.5 -42q-63 0 -103.5 41.5t-40.5 127.5q0 85 41 127t103 42t102.5 -42t40.5 -127zM286 546q0 68 -27 98t-71 30q-45 0 -72 -30t-27 -98t27 -98t72 -30q43 0 70.5 30t27.5 98zM680 154q0 -42 -11 -74t-30.5 -53
t-45.5 -31.5t-57 -10.5q-62 0 -102.5 41.5t-40.5 127.5q0 85 40.5 127t102.5 42t103 -42t41 -127zM635 154q0 68 -27.5 98t-71.5 30q-45 0 -71.5 -30t-26.5 -98t26.5 -98t71.5 -30q43 0 71 30t28 98zM1015 154q0 -42 -11 -74t-30.5 -53t-45.5 -31.5t-57 -10.5
q-63 0 -103.5 41.5t-40.5 127.5q0 42 11 74t30.5 53t45.5 31.5t57 10.5q62 0 103 -42t41 -127zM970 154q0 68 -27.5 98t-71.5 30q-45 0 -71.5 -30t-26.5 -98t26.5 -98t71.5 -30q44 0 71.5 30t27.5 98z" />
            <glyph glyph-name="minute" unicode="&#x2032;" horiz-adv-x="238"
           d="M127 490h-36l10 153v92h55v-92z" />
            <glyph glyph-name="second" unicode="&#x2033;" horiz-adv-x="446"
           d="M126 490h-36l10 153v92h55v-92zM251 490h-38l11 153v92h55v-92z" />
            <glyph glyph-name="guilsinglleft" unicode="&#x2039;" horiz-adv-x="255"
           d="M54 315l106 205h41l-86 -207l77 -223h-41z" />
            <glyph glyph-name="guilsinglright" unicode="&#x203a;" horiz-adv-x="255"
           d="M103 90h-40l77 223l-86 207h40l107 -205z" />
            <glyph glyph-name="exclamdbl" unicode="&#x203c;" horiz-adv-x="460"
           d="M88 226l-6 494h62l-5 -494h-51zM80 0v79h70v-79h-70zM318 226l-6 494h62l-5 -494h-51zM310 0v79h70v-79h-70z" />
            <glyph glyph-name="uni203E" unicode="&#x203e;" horiz-adv-x="524"
           d="M500 601h-476v49h476v-49z" />
            <glyph glyph-name="fraction" unicode="&#x2044;" horiz-adv-x="237"
           d="M-116 -90l413 880h51l-413 -880h-51z" />
            <glyph glyph-name="uni2070" unicode="&#x2070;" horiz-adv-x="357"
           d="M175 284q-64 0 -100.5 55.5t-36.5 176.5t38 175t99 54t98.5 -54t37.5 -175q0 -120 -37 -176t-99 -56zM175 328q45 0 66 45.5t21 142.5q0 96 -21 140.5t-66 44.5q-46 0 -66.5 -44.5t-20.5 -140.5q0 -97 21 -142.5t66 -45.5z" />
            <glyph glyph-name="uni2074" unicode="&#x2074;" horiz-adv-x="362"
           d="M258 420h58v-43h-58v-83h-46v83h-174v49l168 309h52v-315zM82 420h130v244z" />
            <glyph glyph-name="uni2075" unicode="&#x2075;" horiz-adv-x="356"
           d="M290 692h-183l-5 -143q15 15 35 25t49 10q56 0 89.5 -36.5t33.5 -110.5q0 -32 -9.5 -60t-27 -48.5t-43 -32.5t-57.5 -12q-29 0 -52.5 9.5t-40 25t-27 36.5t-14.5 45h51q6 -32 26.5 -52t56.5 -20q39 0 62 29t23 81q0 51 -21 78.5t-63 27.5q-26 0 -45 -12t-33 -32h-42
l8 235h229v-43z" />
            <glyph glyph-name="uni2076" unicode="&#x2076;" horiz-adv-x="350"
           d="M178 745q46 0 77 -24.5t40 -66.5h-53q-6 22 -21.5 35t-42.5 13q-19 0 -34.5 -8.5t-27 -29.5t-19 -56t-9.5 -88q15 31 39.5 46.5t56.5 15.5q57 0 88 -41t31 -107q0 -37 -10 -65t-27.5 -47t-41 -28.5t-49.5 -9.5q-72 0 -104.5 56t-32.5 157q0 74 11.5 122t31 76t44.5 39
t53 11zM173 539q-39 0 -59 -29t-20 -72q0 -22 4 -42t13.5 -35.5t25 -24.5t37.5 -9q35 0 56.5 27t21.5 78t-19.5 79t-59.5 28z" />
            <glyph glyph-name="uni2077" unicode="&#x2077;" horiz-adv-x="329"
           d="M75 294l159 396h-196v45h244v-46l-154 -395h-53z" />
            <glyph glyph-name="uni2078" unicode="&#x2078;" horiz-adv-x="363"
           d="M177 745q25 0 48 -6.5t40 -20t27.5 -35t10.5 -51.5q0 -41 -22.5 -65.5t-50.5 -38.5q16 -6 31.5 -16t28 -24.5t20 -33.5t7.5 -43q0 -55 -37 -91t-103 -36t-102.5 35t-36.5 89q0 52 25 79t57 39q-27 11 -47.5 35t-20.5 68q0 59 36.5 87.5t88.5 28.5zM177 704
q-32 0 -54 -17.5t-22 -55.5q0 -23 7 -38t18.5 -25t26 -16t30.5 -10q13 4 26 11t23 17t16 25t6 36q0 37 -22.5 55t-54.5 18zM168 512q-15 -6 -28.5 -14t-24.5 -20t-17.5 -28.5t-6.5 -39.5q0 -35 22 -58.5t64 -23.5t64 22.5t22 60.5q0 25 -8 42t-21.5 28.5t-30.5 18.5t-35 12z
" />
            <glyph glyph-name="uni2079" unicode="&#x2079;" horiz-adv-x="350"
           d="M169 745q72 0 103 -55t31 -158q0 -73 -11 -121t-30 -76t-44.5 -39.5t-54.5 -11.5q-46 0 -77 25t-40 67h53q13 -49 65 -49q19 0 35 8.5t27.5 29.5t18.5 56t9 88q-15 -31 -40 -46.5t-54 -15.5q-58 0 -90 39t-32 109q0 69 37 109.5t94 40.5zM168 701q-36 0 -57.5 -27
t-21.5 -76q0 -53 20.5 -80.5t58.5 -27.5q41 0 60.5 29t19.5 72q0 21 -4 41t-13.5 35.5t-25 24.5t-37.5 9z" />
            <glyph glyph-name="uni207F" unicode="&#x207f;" horiz-adv-x="347"
           d="M192 726q54 0 83 -33t29 -98v-244h-44v242q0 49 -19 71.5t-58 22.5q-38 0 -64.5 -29t-26.5 -83v-224h-45v364h37l5 -58q35 69 103 69z" />
            <glyph glyph-name="franc" unicode="&#x20a3;" horiz-adv-x="511"
           d="M173 652v-282h256v-47h-256v-125h148v-46h-148v-152h-56v152h-67v46h67v502h344v-48h-288z" />
            <glyph glyph-name="lira" unicode="&#x20a4;" horiz-adv-x="503"
           d="M284 715q66 0 111 -36t53 -109h-53q-5 51 -34.5 75.5t-76.5 24.5q-56 0 -88 -37t-32 -109v-71h187v-45h-187v-115h166v-45h-166v-93q0 -31 -11.5 -58.5t-36.5 -47.5h334v-49h-400v49q61 24 61 108v91h-40v45h40v115h-40v45h40v71q0 48 13 84t36 59.5t54.5 35.5t69.5 12z
" />
            <glyph glyph-name="peseta" unicode="&#x20a7;" horiz-adv-x="893"
           d="M705 235q75 -18 106.5 -49.5t31.5 -82.5t-36 -84.5t-108 -33.5q-50 0 -85 19q-21 -11 -41 -15t-38 -4q-44 0 -66.5 24.5t-22.5 71.5v292h-67q-29 -45 -79.5 -69.5t-119.5 -24.5h-75v-279h-55v700h135q110 0 169.5 -47.5t59.5 -150.5q0 -21 -3.5 -45t-11.5 -44h47l4 100
h42v-100h132q30 12 72 12q60 0 99 -31t47 -84h-46q-5 35 -31 56t-71 21q-49 0 -67 -19t-18 -48q0 -17 4.5 -30t15.5 -23t29.5 -17.5t46.5 -14.5zM183 327q42 0 74.5 13t55 36t34.5 55.5t12 70.5q0 81 -44 116t-127 35h-83v-326h78zM700 23q50 0 73.5 21.5t23.5 56.5
q0 39 -25.5 62.5t-89.5 37.5q-57 12 -89 39t-32 76q0 33 15 57h-84v-293q0 -30 11.5 -43t34.5 -13q10 0 20.5 1t21.5 6q-27 31 -31 76h46q4 -39 29 -61.5t76 -22.5z" />
            <glyph glyph-name="Euro" unicode="&#x20ac;"
           d="M323 -15q-41 0 -77.5 14.5t-65.5 47t-49 83.5t-27 124h-66l11 46h51q-1 11 -1 23v53q0 13 1 25h-62l11 45h55q8 74 27 125.5t47 83.5t63.5 46t76.5 14q85 0 136.5 -48t64.5 -129h-55q-11 62 -47.5 95.5t-99.5 33.5q-30 0 -55.5 -11t-46 -36.5t-34.5 -68t-20 -105.5h247
l-11 -45h-240q-2 -14 -2 -26v-52q0 -12 2 -23h216q-6 -22 -10 -46h-202q6 -61 20.5 -103.5t35.5 -68.5t48 -38t58 -12q61 0 96 33t46 96h56q-14 -80 -64.5 -128t-133.5 -48z" />
            <glyph glyph-name="afii61248" unicode="&#x2105;" horiz-adv-x="867"
           d="M202 -90l413 880h51l-413 -880h-51zM332 461q-8 -52 -42.5 -86.5t-93.5 -34.5q-66 0 -106 48t-40 142q0 96 40 146t106 50q55 0 90.5 -30.5t43.5 -83.5h-47q-14 76 -87 76q-47 0 -73.5 -39t-26.5 -120q0 -78 28 -114.5t73 -36.5q38 0 60 22.5t28 60.5h47zM666 376
q69 0 110 -48.5t41 -144.5t-41 -144.5t-110 -48.5t-110 49t-41 144q0 97 41 145t110 48zM666 339q-50 0 -77.5 -39t-27.5 -117t28.5 -117t77.5 -39q51 0 78 39t27 117t-27.5 117t-78.5 39z" />
            <glyph glyph-name="afii61289" unicode="&#x2113;" horiz-adv-x="464"
           d="M299 33q42 0 72 18l19 -43q-20 -11 -41 -17t-53 -6q-72 0 -119.5 53.5t-61.5 151.5q-15 -10 -31.5 -19.5t-33.5 -19.5v51q16 10 31.5 19.5t29.5 19.5v18q0 241 41.5 358.5t141.5 117.5q62 0 91 -38.5t29 -98.5q0 -87 -61 -184.5t-189 -190.5q9 -101 45 -145.5t90 -44.5z
M161 278q92 73 146.5 156t54.5 164q0 50 -19.5 72.5t-54.5 22.5q-32 0 -56 -27.5t-40 -79.5t-23.5 -127.5t-7.5 -170.5v-10z" />
            <glyph glyph-name="afii61352" unicode="&#x2116;" horiz-adv-x="996"
           d="M553 720v-720h-63l-368 643v-643h-52v720h68l366 -638v638h49zM661 516q0 116 41.5 167.5t108.5 51.5q66 0 107 -51t41 -168q0 -59 -11 -100t-30.5 -67.5t-47 -38.5t-59.5 -12q-33 0 -60.5 12t-47.5 38t-31 67.5t-11 100.5zM710 516q0 -98 28 -138t73 -40t72 39.5
t27 138.5q0 98 -27 138.5t-72 40.5t-73 -41t-28 -138zM947 0h-283v49h283v-49z" />
            <glyph glyph-name="trademark" unicode="&#x2122;" horiz-adv-x="724"
           d="M468 324l-109 347v-347h-40v356h-124v-356h-44v356h-124v40h358l104 -340l101 340h66v-396h-42v347l-105 -347h-41z" />
            <glyph glyph-name="Omega" unicode="&#x2126;" horiz-adv-x="661"
           d="M382 49q35 4 67 23.5t56 57t38.5 94.5t14.5 137q0 79 -16.5 140t-46.5 102t-72 62.5t-93 21.5q-109 0 -169 -83.5t-60 -242.5q0 -76 14.5 -133t39 -95t56.5 -59t67 -25v-49h-201v49h97q-28 17 -52 46.5t-41 69.5t-27 89.5t-10 106.5q0 97 22.5 168t61.5 116.5t91 67.5
t111 22q58 0 110 -23.5t91 -70t62 -116.5t23 -164q0 -120 -37 -199.5t-94 -112.5h98v-49h-201v49z" />
            <glyph glyph-name="estimated" unicode="&#x212e;" horiz-adv-x="945"
           d="M218 339v-218q16 -24 44.5 -42t63.5 -30t73.5 -18.5t73.5 -6.5t72.5 6t72 18.5t64.5 31t51 42.5h58q-55 -64 -134.5 -100.5t-184.5 -36.5q-86 0 -159.5 27t-127.5 75t-84.5 114.5t-30.5 145.5t31.5 146t86.5 116.5t128 77.5t156 28q80 0 153 -27.5t128.5 -77t88.5 -118.5
t33 -153h-657zM727 574q-42 46 -104 74t-150 28t-152.5 -27t-102.5 -74v-196h509v195z" />
            <glyph glyph-name="onethird" unicode="&#x2153;" horiz-adv-x="849"
           d="M152 -90l413 880h51l-413 -880h-51zM192 294h-51v389l-91 -55v50l93 57h49v-441zM665 446q52 0 87.5 -28.5t35.5 -86.5q0 -38 -19.5 -64.5t-56.5 -37.5q38 -7 62.5 -35.5t24.5 -78.5q0 -58 -35.5 -93.5t-99.5 -35.5q-60 0 -95.5 31t-42.5 84h51q7 -35 27.5 -53.5
t58.5 -18.5q42 0 63.5 24t21.5 63q0 48 -23.5 69t-56.5 21h-35v42h35q29 0 48.5 20t19.5 59q0 38 -20.5 56.5t-53.5 18.5q-35 0 -54 -18t-24 -50h-52q8 51 42 81.5t91 30.5z" />
            <glyph glyph-name="twothirds" unicode="&#x2154;" horiz-adv-x="918"
           d="M221 -90l413 880h51l-413 -880h-51zM50 624q7 56 43.5 88.5t91.5 32.5t90 -33t35 -90q0 -22 -5.5 -41.5t-17 -39.5t-29 -41.5t-42.5 -48.5l-98 -110h189v-47h-250v47l129 147q38 42 55 71t17 62q0 37 -18 58.5t-55 21.5q-35 0 -56.5 -20.5t-25.5 -56.5h-53zM734 446
q52 0 87.5 -28.5t35.5 -86.5q0 -38 -19.5 -64.5t-56.5 -37.5q38 -7 62.5 -35.5t24.5 -78.5q0 -58 -35.5 -93.5t-99.5 -35.5q-60 0 -95.5 31t-42.5 84h51q7 -35 27.5 -53.5t58.5 -18.5q42 0 63.5 24t21.5 63q0 48 -23.5 69t-56.5 21h-35v42h35q29 0 48.5 20t19.5 59
q0 38 -20.5 56.5t-53.5 18.5q-35 0 -54 -18t-24 -50h-52q8 51 42 81.5t91 30.5z" />
            <glyph glyph-name="oneeighth" unicode="&#x215b;" horiz-adv-x="835"
           d="M152 -90l413 880h51l-413 -880h-51zM192 294h-51v389l-91 -55v50l93 57h49v-441zM645 447q25 0 48 -6.5t40 -20t27.5 -35t10.5 -51.5q0 -41 -22.5 -65.5t-50.5 -38.5q16 -6 31.5 -16t28 -24.5t20 -33.5t7.5 -43q0 -55 -37 -91t-103 -36t-102.5 35t-36.5 89q0 52 25 79
t57 39q-27 11 -47.5 35t-20.5 68q0 59 36.5 87.5t88.5 28.5zM645 406q-32 0 -54 -17.5t-22 -55.5q0 -23 7 -38t18.5 -25t26 -16t30.5 -10q13 4 26 11t23 17t16 25t6 36q0 37 -22.5 55t-54.5 18zM636 214q-15 -6 -28.5 -14t-24.5 -20t-17.5 -28.5t-6.5 -39.5q0 -35 22 -58.5
t64 -23.5t64 22.5t22 60.5q0 25 -8 42t-21.5 28.5t-30.5 18.5t-35 12z" />
            <glyph glyph-name="threeeighths" unicode="&#x215c;" horiz-adv-x="914"
           d="M231 -90l413 880h51l-413 -880h-51zM724 447q25 0 48 -6.5t40 -20t27.5 -35t10.5 -51.5q0 -41 -22.5 -65.5t-50.5 -38.5q16 -6 31.5 -16t28 -24.5t20 -33.5t7.5 -43q0 -55 -37 -91t-103 -36t-102.5 35t-36.5 89q0 52 25 79t57 39q-27 11 -47.5 35t-20.5 68
q0 59 36.5 87.5t88.5 28.5zM724 406q-32 0 -54 -17.5t-22 -55.5q0 -23 7 -38t18.5 -25t26 -16t30.5 -10q13 4 26 11t23 17t16 25t6 36q0 37 -22.5 55t-54.5 18zM715 214q-15 -6 -28.5 -14t-24.5 -20t-17.5 -28.5t-6.5 -39.5q0 -35 22 -58.5t64 -23.5t64 22.5t22 60.5
q0 25 -8 42t-21.5 28.5t-30.5 18.5t-35 12zM189 745q52 0 87.5 -28.5t35.5 -86.5q0 -38 -19.5 -64.5t-56.5 -37.5q38 -7 62.5 -35.5t24.5 -78.5q0 -58 -35.5 -93.5t-99.5 -35.5q-60 0 -95.5 31t-42.5 84h51q7 -35 27.5 -53.5t58.5 -18.5q42 0 63.5 24t21.5 63q0 48 -23.5 69
t-56.5 21h-35v42h35q29 0 48.5 20t19.5 59q0 38 -20.5 56.5t-53.5 18.5q-35 0 -54 -18t-24 -50h-52q8 51 42 81.5t91 30.5z" />
            <glyph glyph-name="fiveeighths" unicode="&#x215d;" horiz-adv-x="904"
           d="M221 -90l413 880h51l-413 -880h-51zM714 447q25 0 48 -6.5t40 -20t27.5 -35t10.5 -51.5q0 -41 -22.5 -65.5t-50.5 -38.5q16 -6 31.5 -16t28 -24.5t20 -33.5t7.5 -43q0 -55 -37 -91t-103 -36t-102.5 35t-36.5 89q0 52 25 79t57 39q-27 11 -47.5 35t-20.5 68
q0 59 36.5 87.5t88.5 28.5zM714 406q-32 0 -54 -17.5t-22 -55.5q0 -23 7 -38t18.5 -25t26 -16t30.5 -10q13 4 26 11t23 17t16 25t6 36q0 37 -22.5 55t-54.5 18zM705 214q-15 -6 -28.5 -14t-24.5 -20t-17.5 -28.5t-6.5 -39.5q0 -35 22 -58.5t64 -23.5t64 22.5t22 60.5
q0 25 -8 42t-21.5 28.5t-30.5 18.5t-35 12zM302 692h-183l-5 -143q15 15 35 25t49 10q56 0 89.5 -36.5t33.5 -110.5q0 -32 -9.5 -60t-27 -48.5t-43 -32.5t-57.5 -12q-29 0 -52.5 9.5t-40 25t-27 36.5t-14.5 45h51q6 -32 26.5 -52t56.5 -20q39 0 62 29t23 81q0 51 -21 78.5
t-63 27.5q-26 0 -45 -12t-33 -32h-42l8 235h229v-43z" />
            <glyph glyph-name="seveneighths" unicode="&#x215e;" horiz-adv-x="844"
           d="M161 -90l413 880h51l-413 -880h-51zM654 447q25 0 48 -6.5t40 -20t27.5 -35t10.5 -51.5q0 -41 -22.5 -65.5t-50.5 -38.5q16 -6 31.5 -16t28 -24.5t20 -33.5t7.5 -43q0 -55 -37 -91t-103 -36t-102.5 35t-36.5 89q0 52 25 79t57 39q-27 11 -47.5 35t-20.5 68
q0 59 36.5 87.5t88.5 28.5zM654 406q-32 0 -54 -17.5t-22 -55.5q0 -23 7 -38t18.5 -25t26 -16t30.5 -10q13 4 26 11t23 17t16 25t6 36q0 37 -22.5 55t-54.5 18zM645 214q-15 -6 -28.5 -14t-24.5 -20t-17.5 -28.5t-6.5 -39.5q0 -35 22 -58.5t64 -23.5t64 22.5t22 60.5
q0 25 -8 42t-21.5 28.5t-30.5 18.5t-35 12zM87 294l159 396h-196v45h244v-46l-154 -395h-53z" />
            <glyph glyph-name="arrowleft" unicode="&#x2190;" horiz-adv-x="600"
           d="M102 391h478v-48h-478l178 -229h-64l-196 253l196 253h64z" />
            <glyph glyph-name="arrowup" unicode="&#x2191;" horiz-adv-x="600"
           d="M326 566v-479h-52v479l-227 -176v61l253 196l253 -196v-61z" />
            <glyph glyph-name="arrowright" unicode="&#x2192;" horiz-adv-x="600"
           d="M497 343h-477v48h477l-177 229h64l196 -253l-196 -253h-64z" />
            <glyph glyph-name="arrowdown" unicode="&#x2193;" horiz-adv-x="600"
           d="M274 167v480h52v-480l227 177v-61l-253 -196l-253 196v61z" />
            <glyph glyph-name="arrowboth" unicode="&#x2194;" horiz-adv-x="900"
           d="M797 343h-695l178 -229h-64l-196 253l196 253h64l-178 -229h695l-177 229h64l196 -253l-196 -253h-64z" />
            <glyph glyph-name="arrowupdn" unicode="&#x2195;" horiz-adv-x="600"
           d="M274 17v699l-227 -176v61l253 196l253 -196v-61l-227 176v-699l227 177v-61l-253 -196l-253 196v61z" />
            <glyph glyph-name="uni2196" unicode="&#x2196;" horiz-adv-x="572"
           d="M167 528l325 -340l-35 -37l-321 338l-34 -284l-43 42l38 318l304 40l40 -40z" />
            <glyph glyph-name="uni2197" unicode="&#x2197;" horiz-adv-x="600"
           d="M436 489l-338 -338l-36 37l342 340l-288 37l42 40l318 -40l40 -318l-44 -42z" />
            <glyph glyph-name="uni2198" unicode="&#x2198;" horiz-adv-x="600"
           d="M404 228l-342 341l36 36l338 -339l36 285l44 -42l-40 -318l-318 -40l-42 40z" />
            <glyph glyph-name="uni2199" unicode="&#x2199;" horiz-adv-x="600"
           d="M141 266l338 339l37 -36l-342 -341l288 -37l-42 -40l-318 40l-40 318l44 42z" />
            <glyph glyph-name="arrowupdnbse" unicode="&#x21a8;" horiz-adv-x="600"
           d="M274 17v699l-227 -176v61l253 196l253 -196v-61l-227 176v-699l227 177v-61l-253 -196l-253 196v61zM538 -194h-476v49h476v-49z" />
            <glyph glyph-name="partialdiff" unicode="&#x2202;" horiz-adv-x="482"
           d="M123 733q60 -10 117 -36t102 -75t72 -124t27 -183q0 -73 -11 -133.5t-35 -104t-63.5 -68t-96.5 -24.5q-46 0 -82.5 18t-61.5 51t-38 79.5t-13 103.5q0 51 12 95.5t35.5 77t58 51t79.5 18.5q34 0 60.5 -10t46.5 -27t33.5 -39.5t20.5 -47.5q-4 88 -28 147.5t-61 97.5
t-83.5 58t-95.5 28zM234 434q-65 0 -102.5 -47.5t-37.5 -152.5q0 -93 36 -147.5t105 -54.5q74 0 108.5 49.5t41.5 147.5q0 37 -8 74t-26 66t-47 47t-70 18z" />
            <glyph glyph-name="Delta" unicode="&#x2206;" horiz-adv-x="581"
           d="M6 0l250 720h69l250 -720h-569zM80 48h416l-206 618z" />
            <glyph glyph-name="product" unicode="&#x220f;" horiz-adv-x="525"
           d="M80 0v652h-51v48h466v-48h-54v-652h-54v652h-251v-652h-56z" />
            <glyph glyph-name="summation" unicode="&#x2211;" horiz-adv-x="549"
           d="M270 273l-214 400v47h452v-48h-392l212 -399l-212 -396h392v-47h-452v46z" />
            <glyph glyph-name="minus" unicode="&#x2212;"
           d="M459 298h-358v49h358v-49z" />
            <glyph glyph-name="uni2215" unicode="&#x2215;" horiz-adv-x="237"
           d="M-65 -90h-51l413 880h52z" />
            <glyph glyph-name="uni2219" unicode="&#x2219;" horiz-adv-x="233"
           d="M81 300v79h72v-79h-72z" />
            <glyph glyph-name="radical" unicode="&#x221a;" horiz-adv-x="524"
           d="M182 0l-162 460h56l138 -402l205 744h154v-46h-113l-214 -756h-64z" />
            <glyph glyph-name="infinity" unicode="&#x221e;" horiz-adv-x="647"
           d="M186 524q41 0 78 -26t60 -80q22 55 58 80.5t82 25.5q39 0 68 -15t47.5 -40t27.5 -56t9 -63q0 -30 -9 -61t-28 -56t-48.5 -41t-69.5 -16q-41 0 -78 26t-60 79q-22 -54 -58 -79.5t-82 -25.5q-40 0 -68.5 15t-47 40t-27.5 56t-9 63q0 30 9 61t27.5 56t48 41t70.5 16z
M459 221q27 0 46.5 10.5t33 28t20 41t6.5 49.5t-7 49.5t-20.5 41t-32.5 28t-44 10.5q-28 0 -49 -13t-35.5 -33t-22.5 -44t-11 -46q1 -9 8 -29t21.5 -40.5t35.5 -36.5t51 -16zM188 479q-27 0 -46.5 -10.5t-32.5 -28t-19.5 -41t-6.5 -49.5t7 -49.5t20 -41t32 -28t44 -10.5
q28 0 49 13t35.5 33t23 44t10.5 46q-1 9 -8 29t-21 40.5t-35.5 36.5t-51.5 16z" />
            <glyph glyph-name="orthogonal" unicode="&#x221f;" horiz-adv-x="735"
           d="M103 49h582v-49h-635v660h53v-611z" />
            <glyph glyph-name="intersection" unicode="&#x2229;" horiz-adv-x="600"
           d="M300 579q48 0 90 -18t73.5 -49.5t49.5 -73.5t18 -90v-310h-53v310q0 38 -14 72t-38 59.5t-56.5 40t-69.5 14.5t-69.5 -14.5t-56.5 -40t-38 -59.5t-14 -72v-310h-53v310q0 48 18 90t49.5 73.5t73.5 49.5t90 18z" />
            <glyph glyph-name="integral" unicode="&#x222b;" horiz-adv-x="491"
           d="M135 -137q23 -3 38.5 -4t30.5 -1q31 0 48.5 18t17.5 61v862q0 59 29.5 93t83.5 34q22 0 38.5 -1.5t36.5 -3.5v-45q-23 3 -38 4t-30 1q-31 0 -49 -17.5t-18 -61.5v-862q0 -58 -29.5 -92.5t-83.5 -34.5q-21 0 -38 1.5t-37 4.5v44z" />
            <glyph glyph-name="approxequal" unicode="&#x2248;"
           d="M362 173q-27 0 -48 9t-40 20t-37.5 20t-40.5 9q-29 0 -51 -13t-44 -35v56q18 16 42 28t55 12q27 0 48 -9t40 -20t37.5 -20t40.5 -9q29 0 51.5 13t43.5 35v-56q-17 -15 -41 -27.5t-56 -12.5zM362 377q-27 0 -48 9t-40 20t-37.5 20t-40.5 9q-29 0 -51 -13t-44 -35v56
q18 16 42 28t55 12q27 0 48 -9t40 -20t37.5 -20t40.5 -9q29 0 51.5 13t43.5 35v-56q-17 -15 -41 -27.5t-56 -12.5z" />
            <glyph glyph-name="notequal" unicode="&#x2260;"
           d="M458 193h-222l-84 -153h-52l83 153h-81v49h110l86 160h-196v49h225l81 149h52l-81 -149h79v-49h-108l-86 -160h194v-49z" />
            <glyph glyph-name="equivalence" unicode="&#x2261;"
           d="M459 -17h-358v49h358v-49zM459 192h-358v49h358v-49zM459 402h-358v49h358v-49z" />
            <glyph glyph-name="lessequal" unicode="&#x2264;"
           d="M158 333l300 -145v-56l-357 176v48l357 189v-56zM458 0h-357v48h357v-48z" />
            <glyph glyph-name="greaterequal" unicode="&#x2265;"
           d="M401 331v2l-300 156v56l357 -189v-48l-357 -176v56zM101 48h357v-48h-357v48z" />
            <glyph glyph-name="dotmath" unicode="&#x22c5;" horiz-adv-x="284"
           d="M106 281v79h72v-79h-72z" />
            <glyph glyph-name="star" unicode="&#x22c6;" horiz-adv-x="595"
           d="M278 574l19 169l19 -169l22 52l4 -167l115 123l-22 -53l125 113l-97 -139l53 22l-107 -127l278 23l-160 -53l57 -7l-163 -39l143 -88l-58 7l136 -100l-154 67l35 -45l-147 81l49 -162l-35 45l34 -164l-71 152l-7 -56l-56 158l-119 -254l34 164l-35 -45l49 162l-147 -81
l35 45l-153 -67l134 100l-57 -7l143 88l-164 39l57 7l-158 53l277 -23l-108 127l53 -22l-97 139l126 -113l-22 53l114 -123l5 167z" />
            <glyph glyph-name="house" unicode="&#x2302;" horiz-adv-x="722"
           d="M672 370v-370h-622v370l311 277zM103 48h516v306l-258 227l-258 -227v-306z" />
            <glyph glyph-name="revlogicalnot" unicode="&#x2310;"
           d="M459 346v-48h-307v-179h-51v227h358z" />
            <glyph glyph-name="integraltp" unicode="&#x2320;" horiz-adv-x="490"
           d="M384 926q21 0 37.5 -1.5t36.5 -3.5v-45q-23 3 -38 4t-30 1q-31 0 -49 -17.5t-18 -61.5v-1012h-53v1009q0 59 30 93t84 34z" />
            <glyph glyph-name="integralbt" unicode="&#x2321;" horiz-adv-x="490"
           d="M323 -60q0 -58 -29.5 -92.5t-83.5 -34.5q-21 0 -38 1.5t-37 3.5v45q23 -3 38.5 -4t30.5 -1q31 0 48.5 17.5t17.5 61.5v993h53v-990z" />
            <glyph glyph-name="SF100000" unicode="&#x2500;"
           d="M-5 382h570v-60h-570v60z" />
            <glyph glyph-name="SF110000" unicode="&#x2502;"
           d="M250 1000h60v-1362h-60v1362z" />
            <glyph glyph-name="SF010000" unicode="&#x250c;"
           d="M250 382h315v-60h-255v-684h-60v744z" />
            <glyph glyph-name="SF030000" unicode="&#x2510;"
           d="M-5 382h315v-744h-60v684h-255v60z" />
            <glyph glyph-name="SF020000" unicode="&#x2514;"
           d="M250 1000h60v-618h255v-60h-315v678z" />
            <glyph glyph-name="SF040000" unicode="&#x2518;"
           d="M-5 382h255v618h60v-678h-315v60z" />
            <glyph glyph-name="SF080000" unicode="&#x251c;"
           d="M250 1000h60v-618h255v-60h-255v-684h-60v1362z" />
            <glyph glyph-name="SF090000" unicode="&#x2524;"
           d="M-5 382h255v618h60v-1362h-60v684h-255v60z" />
            <glyph glyph-name="SF060000" unicode="&#x252c;"
           d="M-5 382h570v-60h-255v-684h-60v684h-255v60z" />
            <glyph glyph-name="SF070000" unicode="&#x2534;"
           d="M-5 382h255v618h60v-618h255v-60h-570v60z" />
            <glyph glyph-name="SF050000" unicode="&#x253c;"
           d="M-5 382h255v618h60v-618h255v-60h-255v-684h-60v684h-255v60z" />
            <glyph glyph-name="SF430000" unicode="&#x2550;"
           d="M-5 322h570v-60h-570v60zM565 382h-570v60h570v-60z" />
            <glyph glyph-name="SF240000" unicode="&#x2551;"
           d="M310 -362v1362h60v-1362h-60zM190 1000h60v-1362h-60v1362z" />
            <glyph glyph-name="SF510000" unicode="&#x2552;"
           d="M565 382h-255v-60h255v-60h-255v-624h-60v804h315v-60z" />
            <glyph glyph-name="SF520000" unicode="&#x2553;"
           d="M310 -362v684h-60v-684h-60v744h375v-60h-195v-684h-60z" />
            <glyph glyph-name="SF390000" unicode="&#x2554;"
           d="M190 442h375v-60h-315v-744h-60v804zM310 -362v684h255v-60h-195v-624h-60z" />
            <glyph glyph-name="SF220000" unicode="&#x2555;"
           d="M-5 322h255v60h-255v60h315v-804h-60v624h-255v60z" />
            <glyph glyph-name="SF210000" unicode="&#x2556;"
           d="M-5 382h375v-744h-60v684h-60v-684h-60v684h-195v60z" />
            <glyph glyph-name="SF250000" unicode="&#x2557;"
           d="M310 -362v744h-315v60h375v-804h-60zM-5 322h255v-684h-60v624h-195v60z" />
            <glyph glyph-name="SF500000" unicode="&#x2558;"
           d="M565 382h-255v-60h255v-60h-315v738h60v-558h255v-60z" />
            <glyph glyph-name="SF490000" unicode="&#x2559;"
           d="M190 1000h60v-618h60v618h60v-618h195v-60h-375v678z" />
            <glyph glyph-name="SF380000" unicode="&#x255a;"
           d="M565 322v-60h-375v738h60v-678h315zM565 382h-255v618h60v-558h195v-60z" />
            <glyph glyph-name="SF280000" unicode="&#x255b;"
           d="M-5 322h255v60h-255v60h255v558h60v-738h-315v60z" />
            <glyph glyph-name="SF270000" unicode="&#x255c;"
           d="M-5 382h195v618h60v-618h60v618h60v-678h-375v60z" />
            <glyph glyph-name="SF260000" unicode="&#x255d;"
           d="M-5 322h315v678h60v-738h-375v60zM190 1000h60v-618h-255v60h195v558z" />
            <glyph glyph-name="SF360000" unicode="&#x255e;"
           d="M565 382h-255v-60h255v-60h-255v-624h-60v1362h60v-558h255v-60z" />
            <glyph glyph-name="SF370000" unicode="&#x255f;"
           d="M310 -362v1362h60v-618h195v-60h-195v-684h-60zM190 1000h60v-1362h-60v1362z" />
            <glyph glyph-name="SF420000" unicode="&#x2560;"
           d="M190 1000h60v-1362h-60v1362zM310 -362v684h255v-60h-195v-624h-60zM565 382h-255v618h60v-558h195v-60z" />
            <glyph glyph-name="SF190000" unicode="&#x2561;"
           d="M-5 322h255v60h-255v60h255v558h60v-1362h-60v624h-255v60z" />
            <glyph glyph-name="SF200000" unicode="&#x2562;"
           d="M190 -362v684h-195v60h195v618h60v-1362h-60zM310 -362v1362h60v-1362h-60z" />
            <glyph glyph-name="SF230000" unicode="&#x2563;"
           d="M310 -362v1362h60v-1362h-60zM-5 322h255v-684h-60v624h-195v60zM190 1000h60v-618h-255v60h195v558z" />
            <glyph glyph-name="SF470000" unicode="&#x2564;"
           d="M-5 322h570v-60h-255v-624h-60v624h-255v60zM565 382h-570v60h570v-60z" />
            <glyph glyph-name="SF480000" unicode="&#x2565;"
           d="M-5 382h570v-60h-195v-684h-60v684h-60v-684h-60v684h-195v60z" />
            <glyph glyph-name="SF410000" unicode="&#x2566;"
           d="M-5 322h255v-684h-60v624h-195v60zM310 -362v684h255v-60h-195v-624h-60zM565 382h-570v60h570v-60z" />
            <glyph glyph-name="SF450000" unicode="&#x2567;"
           d="M565 382h-570v60h255v558h60v-558h255v-60zM-5 322h570v-60h-570v60z" />
            <glyph glyph-name="SF460000" unicode="&#x2568;"
           d="M-5 382h195v618h60v-618h60v618h60v-618h195v-60h-570v60z" />
            <glyph glyph-name="SF400000" unicode="&#x2569;"
           d="M565 382h-255v618h60v-558h195v-60zM190 1000h60v-618h-255v60h195v558zM-5 322h570v-60h-570v60z" />
            <glyph glyph-name="SF540000" unicode="&#x256a;"
           d="M565 382h-255v-60h255v-60h-255v-624h-60v624h-255v60h255v60h-255v60h255v558h60v-558h255v-60z" />
            <glyph glyph-name="SF530000" unicode="&#x256b;"
           d="M-5 382h195v618h60v-618h60v618h60v-618h195v-60h-195v-684h-60v684h-60v-684h-60v684h-195v60z" />
            <glyph glyph-name="SF440000" unicode="&#x256c;"
           d="M-5 322h255v-684h-60v624h-195v60zM310 -362v684h255v-60h-195v-624h-60zM565 382h-255v618h60v-558h195v-60zM190 1000h60v-618h-255v60h195v558z" />
            <glyph glyph-name="upblock" unicode="&#x2580;"
           d="M560 319h-560v681h560v-681z" />
            <glyph glyph-name="dnblock" unicode="&#x2584;"
           d="M0 319h560v-681h-560v681z" />
            <glyph glyph-name="block" unicode="&#x2588;"
           d="M0 1000h560v-1362h-560v1362z" />
            <glyph glyph-name="lfblock" unicode="&#x258c;"
           d="M0 1000h280v-1362h-280v1362z" />
            <glyph glyph-name="rtblock" unicode="&#x2590;"
           d="M280 -362v1362h280v-1362h-280z" />
            <glyph glyph-name="ltshade" unicode="&#x2591;"
           d="M448 -292v-68h-56v68h56zM336 -156v-68h-56v68h56zM112 252v-68h-56v68h56zM336 116v-68h-56v68h56zM336 252v-68h-56v68h56zM336 388v-68h-56v68h56zM336 524v-68h-56v68h56zM336 660v-68h-56v68h56zM336 796v-68h-56v68h56zM336 932v-68h-56v68h56zM448 -20v-68h-56v68
h56zM112 -156v-68h-56v68h56zM112 524v-68h-56v68h56zM112 116v-68h-56v68h56zM336 -20v-68h-56v68h56zM112 388v-68h-56v68h56zM224 -20v-68h-56v68h56zM112 660v-68h-56v68h56zM112 796v-68h-56v68h56zM112 932v-68h-56v68h56zM112 -292v-68h-56v68h56zM224 932v-68h-56
v68h56zM224 796v-68h-56v68h56zM224 660v-68h-56v68h56zM224 524v-68h-56v68h56zM224 388v-68h-56v68h56zM448 524v-68h-56v68h56zM224 116v-68h-56v68h56zM112 -20v-68h-56v68h56zM224 -156v-68h-56v68h56zM336 -292v-68h-56v68h56zM448 932v-68h-56v68h56zM448 796v-68
h-56v68h56zM448 660v-68h-56v68h56zM224 252v-68h-56v68h56zM448 388v-68h-56v68h56zM448 252v-68h-56v68h56zM448 116v-68h-56v68h56zM224 -292v-68h-56v68h56zM448 -156v-68h-56v68h56zM560 -292v-68h-56v68h56zM560 -156v-68h-56v68h56zM560 -20v-68h-56v68h56zM560 116
v-68h-56v68h56zM560 252v-68h-56v68h56zM560 388v-68h-56v68h56zM560 524v-68h-56v68h56zM560 660v-68h-56v68h56zM560 796v-68h-56v68h56zM560 932v-68h-56v68h56z" />
            </font>
</defs>
</svg>
