<?xml version="1.0" standalone="no"?>
<!DOCTYPE svg PUBLIC "-//W3C//DTD SVG 1.1//EN" "http://www.w3.org/Graphics/SVG/1.1/DTD/svg11.dtd" >
<svg>
    <metadata>
        Created by FontForge 20120731 at Mon Mar 31 14:10:07 2014
        By tam,,,
        Copyright (c) 2010 by Ralph du Carrois, Erik Spiekermann &#38; Botio Nikoltchev. All rights reserved.
    </metadata>
    <defs>
        <font id="CiscoSansHeavyOblique" horiz-adv-x="600" >
            <font-face
                font-family="CiscoSansHeavy"
                font-weight="900"
                font-style="italic"
                font-variant="small-caps"
                font-stretch="normal"
                units-per-em="1000"
                panose-1="2 11 9 3 2 2 1 9 3 3"
                ascent="790"
                descent="-210"
                x-height="520"
                cap-height="720"
                bbox="-220 -362 1293 1000"
                underline-thickness="85"
                underline-position="-6"
                slope="-11"
                unicode-range="U+0020-FEFF"
            />
            <missing-glyph horiz-adv-x="605"
               d="M9 720h587v-720h-587v720zM461 135v450h-317v-450h317z" />
            <glyph glyph-name="f_f" unicode="ff" horiz-adv-x="697"
           d="M345 520h118l13 57q-18 4 -36 6t-30 2q-30 0 -43.5 -11t-18.5 -38zM386 725q45 0 92.5 -6.5t85.5 -18.5q55 35 135 35q35 0 65 -5t58 -13l-29 -135q-30 8 -46.5 10.5t-27.5 2.5q-17 0 -27.5 -4t-17 -13t-10.5 -23t-8 -35h96l-27 -131h-97l-82 -389h-193l82 389h-118
l-82 -389h-193l82 389h-76l28 131h76l4 22q9 52 27.5 87t46.5 56.5t66.5 30.5t89.5 9z" />
            <glyph glyph-name="f_f_i" unicode="ffi" horiz-adv-x="938"
           d="M345 520h118l13 57q-18 4 -36 6t-30 2q-30 0 -43.5 -11t-18.5 -38zM385 725q46 0 95 -6.5t87 -20.5q60 37 147 37q50 0 95.5 -7t72.5 -13l-28 -134q-30 6 -62.5 10t-57.5 4q-22 0 -36 -4.5t-22.5 -14t-12.5 -23.5t-7 -33h306l-110 -520h-189l82 389h-117l-82 -389h-193
l82 389h-118l-82 -389h-193l82 389h-76l28 131h76l4 22q9 52 27 87t46 56.5t66.5 30.5t89.5 9z" />
            <glyph glyph-name="f_f_j" unicode="ffj" horiz-adv-x="943"
           d="M345 520h118l13 57q-18 4 -36 6t-30 2q-30 0 -43.5 -11t-18.5 -38zM386 725q45 0 92 -7t85 -20q28 18 62 27.5t85 9.5q24 0 49 -2t48 -5t42.5 -7t33.5 -7l-29 -135q-30 7 -63 11.5t-56 4.5t-36.5 -4t-21 -13t-12 -23.5t-9.5 -34.5h311l-115 -538q-18 -85 -68 -131
t-142 -46q-26 0 -57.5 4.5t-51.5 11.5l29 135q14 -5 26.5 -7.5t21.5 -2.5q22 0 33.5 10t16.5 36l85 397h-117l-82 -389h-193l82 389h-118l-82 -389h-193l82 389h-76l28 131h76l4 22q9 52 27.5 87t46.5 56.5t66.5 30.5t89.5 9z" />
            <glyph glyph-name="f_f_l" unicode="ffl" horiz-adv-x="948"
           d="M345 520h118l13 57q-18 4 -36 6t-30 2q-30 0 -43.5 -11t-18.5 -38zM385 725q45 0 92.5 -6.5t85.5 -19.5q27 17 62.5 26.5t84.5 9.5q34 0 64.5 -4t56.5 -10l184 8l-155 -729h-194q32 148 63 294t62 295q-18 3 -34.5 4.5t-27.5 1.5q-20 0 -32 -4.5t-19.5 -13.5t-12 -23
t-9.5 -34h72l-27 -131h-73l-82 -389h-193l82 389h-118l-82 -389h-193l82 389h-76l28 131h76l4 22q9 52 27 87t46 56.5t66.5 30.5t89.5 9z" />
            <glyph glyph-name="f_i" unicode="fi" horiz-adv-x="631"
           d="M543 579q-30 7 -63.5 11.5t-58.5 4.5q-35 0 -51 -12.5t-21 -40.5l-4 -22h310l-110 -520h-194l82 389h-116l-82 -389h-193l82 389h-76l28 131h76l6 32q10 52 28 87t46.5 56.5t68.5 30.5t94 9q25 0 50.5 -2t49 -5t43 -7t33.5 -7z" />
            <glyph glyph-name="f_j" unicode="fj" horiz-adv-x="631"
           d="M250 -44q14 -5 26.5 -7.5t21.5 -2.5q21 0 33.5 9.5t17.5 35.5l84 398h-116l-82 -389h-193l82 389h-76l28 131h76l7 33q11 51 29 86t46 56t67.5 30.5t93.5 9.5q25 0 50.5 -2t49 -5t43 -7t33.5 -7l-28 -134q-30 6 -63.5 10.5t-58.5 4.5q-36 0 -50.5 -12t-20.5 -40l-5 -23
h310l-115 -538q-18 -85 -68 -131t-142 -46q-26 0 -57.5 4t-51.5 11z" />
            <glyph glyph-name="f_l" unicode="fl" horiz-adv-x="637"
           d="M355 0l124 587q-38 8 -60 8q-33 0 -49 -13t-21 -40l-3 -22h68l-28 -131h-68l-83 -389h-193l83 389h-76l27 131h76l7 32q11 51 29.5 86t45.5 56.5t65 31t88 9.5q34 0 70 -4.5t62 -10.5l185 9l-155 -729h-194z" />
            <glyph glyph-name=".notdef" horiz-adv-x="605"
           d="M9 720h587v-720h-587v720zM461 135v450h-317v-450h317z" />
            <glyph glyph-name=".null" horiz-adv-x="0"
            />
            <glyph glyph-name="nonmarkingreturn" horiz-adv-x="224"
            />
            <glyph glyph-name="space" unicode=" " horiz-adv-x="224"
            />
            <glyph glyph-name="exclam" unicode="!" horiz-adv-x="323"
           d="M82 242l79 484h229l-128 -484h-180zM16 0l38 181h210l-38 -181h-210z" />
            <glyph glyph-name="quotedbl" unicode="&#x22;" horiz-adv-x="498"
           d="M253 469h-124l17 157l22 100h156l-22 -100zM456 469h-125l18 157l21 100h156l-22 -100z" />
            <glyph glyph-name="numbersign" unicode="#"
           d="M133 547h58l46 153h155l-46 -153h92l46 153h155l-46 -153h45l-27 -128h-56l-42 -138h48l-27 -128h-59l-45 -153h-154l45 153h-92l-46 -153h-154l45 153h-45l27 128h55l42 138h-47zM266 281h92l42 138h-92z" />
            <glyph glyph-name="dollar" unicode="$"
           d="M611 235q0 -49 -14.5 -91.5t-47.5 -75.5t-87 -54t-132 -26l-26 -123h-166l28 133q-46 12 -77.5 34.5t-51 51t-28 60t-8.5 61.5q0 4 0.5 7.5t0.5 7.5h201q0 -43 27.5 -68t78.5 -25q45 0 64.5 19.5t19.5 48.5q0 31 -30.5 51.5t-94.5 37.5q-97 26 -146.5 77.5t-49.5 123.5
q0 101 60 157.5t186 68.5l25 118h166l-26 -125q78 -18 118.5 -69t40.5 -121v-13h-196q0 18 -8 30.5t-21.5 21t-30 12.5t-32.5 4q-32 0 -49 -14t-17 -40t23 -45t77 -32q115 -28 169 -78t54 -125z" />
            <glyph glyph-name="percent" unicode="%" horiz-adv-x="850"
           d="M287 0h-149l491 700h149zM276 715q78 0 120.5 -40.5t42.5 -109.5q0 -43 -13.5 -79t-39 -62t-62 -40.5t-81.5 -14.5q-78 0 -120 40.5t-42 109.5q0 44 13.5 80.5t39 62t61.5 39.5t81 14zM268 618q-14 0 -24 -8.5t-17 -22.5t-10.5 -31.5t-3.5 -36.5q0 -29 10.5 -41t27.5 -12
q26 0 41 27.5t15 69.5q0 30 -11 42.5t-28 12.5zM674 330q78 0 120.5 -40t42.5 -109q0 -43 -13.5 -79t-39 -62t-62 -40.5t-81.5 -14.5q-78 0 -120 40t-42 109q0 44 14 80.5t39.5 62t61.5 39.5t80 14zM666 233q-13 0 -23.5 -8.5t-17.5 -22t-10.5 -31t-3.5 -35.5q0 -30 11 -42
t28 -12q26 0 40 27.5t14 69.5q0 30 -10.5 42t-27.5 12z" />
            <glyph glyph-name="ampersand" unicode="&#x26;" horiz-adv-x="685"
           d="M671 341q-30 -91 -96 -174l70 -82l-138 -106l-59 69q-40 -29 -87 -46t-106 -17q-57 0 -100.5 13t-72 36t-43 54t-14.5 68q0 36 12 66t33.5 55t51 45t65.5 37q-54 63 -54 141q0 38 13.5 76.5t43.5 69t78 50t117 19.5q52 0 88.5 -13t60 -34.5t34.5 -48.5t11 -55
q0 -39 -13.5 -69.5t-36 -56t-52.5 -46.5t-62 -41l58 -63q11 17 19 36t16 39zM293 117q20 0 39.5 7t35.5 19l-96 108q-25 -20 -35.5 -37.5t-10.5 -40.5q0 -28 19 -42t48 -14zM309 519q0 -16 5 -30.5t19 -33.5q44 29 59.5 53t15.5 50q0 22 -12 31.5t-28 9.5q-29 0 -44 -24
t-15 -56z" />
            <glyph glyph-name="quotesingle" unicode="'" horiz-adv-x="270"
           d="M254 469h-125l18 157l22 100h155l-21 -100z" />
            <glyph glyph-name="parenleft" unicode="(" horiz-adv-x="340"
           d="M474 810q-69 -95 -120 -176.5t-84 -159.5t-49.5 -156.5t-16.5 -166.5q0 -75 14 -154t43 -167h-159q-27 57 -48 142.5t-21 187.5q0 94 22.5 182t61 170t90 156.5t108.5 141.5h159z" />
            <glyph glyph-name="parenright" unicode=")" horiz-adv-x="340"
           d="M282 810q13 -29 26.5 -66t23.5 -80t16.5 -91.5t6.5 -99.5q0 -96 -26.5 -189.5t-67 -177.5t-90 -154.5t-94.5 -121.5h-158q76 106 126.5 193t81 163.5t43.5 147t13 144.5q0 77 -14.5 159t-45.5 173h159z" />
            <glyph glyph-name="asterisk" unicode="*" horiz-adv-x="497"
           d="M316 438l-48 -115l-136 100l92 82l-124 10l52 160l107 -62l-29 122h168l-26 -123l109 63l52 -160l-126 -10l93 -83l-136 -99z" />
            <glyph glyph-name="plus" unicode="+"
           d="M452 540l-32 -150h149l-29 -141h-150l-32 -152h-155l33 152h-149l30 141h148l32 150h155z" />
            <glyph glyph-name="comma" unicode="," horiz-adv-x="270"
           d="M209 22q-11 -52 -34 -88t-57.5 -59t-79 -35t-99.5 -16l18 88q42 5 70.5 27t36.5 61h-70l38 181h211z" />
            <glyph glyph-name="hyphen" unicode="-" horiz-adv-x="540"
           d="M474 250h-395l30 140h395z" />
            <glyph glyph-name="period" unicode="." horiz-adv-x="303"
           d="M6 0l38 181h211l-38 -181h-211z" />
            <glyph glyph-name="slash" unicode="/" horiz-adv-x="340"
           d="M88 -90h-163l377 825h164z" />
            <glyph glyph-name="zero" unicode="0"
           d="M289 115q25 0 45.5 21t36.5 55t27.5 76t19.5 84t11.5 80t3.5 63q0 51 -15 72t-41 21q-23 0 -42.5 -20.5t-35 -53.5t-28 -74.5t-20.5 -84.5t-12.5 -82.5t-4.5 -68.5q0 -49 15 -68.5t40 -19.5zM271 -15q-52 0 -94.5 15.5t-72.5 47t-46.5 78.5t-16.5 109q0 39 6 89.5t21 104
t41 105t65 91.5t93.5 65t127.5 25q52 0 94.5 -15.5t73 -46.5t47 -77.5t16.5 -109.5q0 -41 -7 -92t-23 -104.5t-43 -104.5t-66 -91t-92.5 -64.5t-123.5 -24.5z" />
            <glyph glyph-name="one" unicode="1"
           d="M309 519l-171 -77l36 171l189 87h177l-148 -700h-193z" />
            <glyph glyph-name="two" unicode="2"
           d="M97 491q18 52 49 93.5t71.5 70.5t89.5 44.5t103 15.5q52 0 93.5 -13.5t71 -36.5t45.5 -55t16 -69v-6q0 -47 -19.5 -88t-61 -84.5t-107 -95t-157.5 -118.5h263l-30 -149h-511l31 149l202 153q56 42 93 73.5t59 57t31 47t9 44.5q0 25 -14.5 38.5t-37.5 13.5
q-26 0 -49.5 -20.5t-40.5 -64.5h-199z" />
            <glyph glyph-name="three" unicode="3"
           d="M285 120q34 0 61.5 26t27.5 82q0 19 -7 32.5t-18 22.5t-25 13t-28 4h-81l28 127h83q18 0 35.5 6.5t32 19t23.5 32t9 45.5q0 24 -14 35.5t-34 11.5q-22 0 -45 -15.5t-37 -47.5h-187q35 95 111 148t186 53q49 0 89.5 -11t69.5 -31t45 -49.5t16 -65.5t-12 -66t-33 -54
t-50 -40.5t-62 -25.5q48 -14 75 -53t27 -90q0 -46 -19.5 -90t-58 -78t-95 -55t-131.5 -21q-56 0 -101 14t-76 39t-47.5 60t-16.5 76v11q0 6 1 12h192v-11q0 -31 17.5 -48.5t48.5 -17.5z" />
            <glyph glyph-name="four" unicode="4"
           d="M615 700l-92 -436h71l-28 -137h-72l-27 -127h-186l26 127h-295l31 144l301 429h271zM340 281l69 256l-181 -273h108z" />
            <glyph glyph-name="five" unicode="5"
           d="M232 196q1 -39 19 -57t45 -18q22 0 39.5 14t29.5 35.5t18.5 48t6.5 52.5q0 38 -18.5 56t-49.5 18q-16 0 -38 -9t-42 -29h-154l102 393h446l-28 -133h-269l-33 -123q52 27 109 27q39 0 71.5 -12.5t56 -36t36.5 -57t13 -75.5q0 -63 -22.5 -118.5t-64 -97t-99 -65.5
t-126.5 -24q-51 0 -94.5 12.5t-75 37.5t-49 62t-17.5 85q0 2 0.5 7t0.5 7h187z" />
            <glyph glyph-name="six" unicode="6"
           d="M261 413q30 28 70 45.5t82 17.5q85 0 133.5 -49.5t48.5 -133.5q0 -69 -24 -125.5t-67 -97t-101 -63t-125 -22.5q-109 0 -173.5 64.5t-64.5 184.5q0 27 4 60t12 68q18 82 50.5 147.5t77.5 111.5t102 70t126 24q52 0 94.5 -13t73 -36t48 -54.5t20.5 -69.5h-204
q-2 20 -16 30.5t-37 10.5q-35 0 -68.5 -38.5t-61.5 -131.5zM336 343q-18 0 -37.5 -9.5t-35.5 -27.5t-26 -43.5t-10 -58.5q0 -35 16.5 -59.5t48.5 -24.5q20 0 38.5 10.5t33 30.5t23.5 48.5t9 63.5t-15.5 52.5t-44.5 17.5z" />
            <glyph glyph-name="seven" unicode="7"
           d="M265 0h-210l374 559h-306l30 141h510l-28 -134z" />
            <glyph glyph-name="eight" unicode="8"
           d="M399 715q45 0 87.5 -10.5t74.5 -31.5t51.5 -51t19.5 -69q0 -34 -12 -61.5t-31.5 -49.5t-44.5 -39.5t-52 -30.5q37 -21 65 -58t28 -89q0 -54 -22.5 -98t-63.5 -75.5t-99 -49t-129 -17.5q-60 0 -107.5 14t-80 39t-49.5 58.5t-17 71.5q0 40 12 70t33.5 53t51 41t64.5 33
q-32 20 -50 50.5t-18 72.5q0 47 17.5 88.5t53.5 72t90 48.5t128 18zM314 303q-15 -7 -31 -17t-29.5 -24t-22.5 -33.5t-9 -44.5q0 -32 20.5 -48t45.5 -16q17 0 34 6.5t30.5 19t21.5 30.5t8 41q0 34 -21.5 54t-46.5 32zM382 591q-15 0 -29.5 -6.5t-25.5 -18.5t-18 -28.5
t-7 -36.5q0 -29 17.5 -46.5t40.5 -25.5q29 13 53 39.5t24 67.5q0 29 -18 42t-37 13z" />
            <glyph glyph-name="nine" unicode="9"
           d="M343 355q22 0 41 12t33 32.5t22 47.5t8 56q0 33 -16 56t-49 23q-47 0 -75.5 -42.5t-28.5 -109.5q0 -75 65 -75zM293 115q35 0 64 37.5t54 130.5q-29 -27 -64.5 -44.5t-83.5 -17.5q-44 0 -78 14.5t-57.5 40.5t-35.5 62t-12 78q0 72 24.5 127.5t67.5 93.5t101.5 58
t127.5 20q112 0 173.5 -61.5t61.5 -178.5q0 -39 -6 -90t-21 -105.5t-41 -107.5t-65.5 -94.5t-95.5 -67t-130 -25.5q-54 0 -99 13t-77 36.5t-50.5 57t-20.5 74.5h205q0 -25 17.5 -38t40.5 -13z" />
            <glyph glyph-name="colon" unicode=":" horiz-adv-x="303"
           d="M78 339l38 181h211l-38 -181h-211zM6 0l38 181h211l-38 -181h-211z" />
            <glyph glyph-name="semicolon" unicode=";" horiz-adv-x="303"
           d="M78 339l38 181h211l-38 -181h-211zM221 22q-11 -52 -34 -88t-57.5 -59t-79 -35t-99.5 -16l18 88q42 5 70.5 27t36.5 61h-70l38 181h211z" />
            <glyph glyph-name="less" unicode="&#x3c;"
           d="M115 382l498 216l-36 -172l-284 -111l238 -108l-36 -164l-407 216z" />
            <glyph glyph-name="equal" unicode="="
           d="M560 347h-453l30 140h453zM518 151h-452l29 140h453z" />
            <glyph glyph-name="greater" unicode="&#x3e;"
           d="M541 259l-499 -216l36 172l284 110l-237 108l35 165l407 -216z" />
            <glyph glyph-name="question" unicode="?" horiz-adv-x="555"
           d="M112 535q13 40 40 76.5t63.5 64t82.5 43.5t99 16q100 0 156 -39.5t56 -104.5q0 -36 -10 -65.5t-31 -57.5t-52 -58.5t-73 -68.5q-23 -22 -33.5 -46.5t-18.5 -56.5h-187q8 37 16 64t19 48.5t27.5 41.5t41.5 43q29 28 48 47t30 33.5t15.5 25.5t4.5 22q0 14 -9 22t-23 8
q-17 0 -32.5 -13.5t-28.5 -44.5h-201zM144 0l38 181h210l-38 -181h-210z" />
            <glyph glyph-name="at" unicode="@" horiz-adv-x="921"
           d="M671 87q-27 0 -48 8.5t-35 22.5t-21.5 30.5t-7.5 33.5q-7 -16 -20.5 -31t-32.5 -27t-42.5 -19.5t-49.5 -7.5q-36 0 -63.5 12t-45.5 33.5t-27 51.5t-9 65q0 72 21 125.5t53.5 89.5t72.5 53.5t79 17.5q28 0 49 -12t27 -29l20 32h120l-48 -236q-5 -27 -7.5 -43t-2.5 -24
q0 -23 8.5 -31.5t22.5 -8.5q20 0 35.5 20.5t26 53t16 72t5.5 77.5q0 101 -57 151t-183 50q-47 0 -101.5 -14.5t-102 -52t-79 -103t-31.5 -168.5q0 -77 23.5 -127t63 -79.5t91 -41.5t107.5 -12q49 0 87 8.5t70 18.5l21 -115q-32 -11 -80 -21.5t-115 -10.5q-84 0 -159.5 23.5
t-133.5 70.5t-92 118.5t-34 167.5q0 86 21.5 153t57.5 117.5t83.5 86t100 57.5t107 32t103.5 10q86 0 156.5 -21t121 -62t78.5 -100.5t28 -135.5q0 -66 -18 -125.5t-50.5 -105t-78.5 -72t-101 -26.5zM455 204q17 0 32.5 22t23.5 60l14 70q3 17 4.5 27t1.5 17q0 14 -6.5 24.5
t-22.5 10.5q-18 0 -33 -18.5t-25.5 -46.5t-16.5 -60.5t-6 -59.5q0 -19 7 -32.5t27 -13.5z" />
            <glyph glyph-name="A" unicode="A" horiz-adv-x="740"
           d="M487 0l-13 157h-223l-79 -157h-215l417 720h216l113 -720h-216zM320 295h144l-19 244z" />
            <glyph glyph-name="B" unicode="B" horiz-adv-x="687"
           d="M426 720q145 0 212.5 -41.5t67.5 -116.5q0 -34 -12.5 -63.5t-34.5 -52.5t-52.5 -39.5t-66.5 -23.5q27 -6 50 -20.5t40 -34t26.5 -44.5t9.5 -52q0 -111 -87 -171.5t-268 -60.5h-294l153 720h256zM291 312l-37 -176h87q55 0 85 26t30 78q0 33 -22.5 52.5t-61.5 19.5h-81z
M349 584l-31 -145h77q43 0 69 22.5t26 63.5q0 26 -21 42.5t-57 16.5h-63z" />
            <glyph glyph-name="C" unicode="C" horiz-adv-x="761"
           d="M383 128q58 0 95 35.5t60 112.5h211q-50 -148 -144 -219.5t-243 -71.5q-73 0 -129.5 21t-95.5 60t-59 94.5t-20 123.5q0 50 9 102.5t29.5 102.5t53 95t79.5 78.5t110 53t143 19.5q63 0 118.5 -16.5t96.5 -49t64.5 -80t23.5 -108.5v-10h-208q0 65 -30.5 93t-76.5 28
q-53 0 -90.5 -31.5t-61 -78.5t-34 -102t-10.5 -102q0 -78 31 -114t78 -36z" />
            <glyph glyph-name="D" unicode="D" horiz-adv-x="755"
           d="M437 720q78 0 139.5 -18t104 -53.5t65.5 -87.5t23 -119q0 -44 -7 -94t-25 -99t-49.5 -94t-80.5 -79.5t-118 -55t-161 -20.5h-311l153 720h267zM349 578l-93 -435h80q66 0 109 31t67.5 75.5t34 93.5t9.5 86q0 75 -38 112t-103 37h-66z" />
            <glyph glyph-name="E" unicode="E" horiz-adv-x="614"
           d="M572 294h-284l-31 -148h312l-30 -146h-522l153 720h522l-32 -148h-312l-30 -140h283z" />
            <glyph glyph-name="F" unicode="F" horiz-adv-x="581"
           d="M539 280h-254l-59 -280h-209l153 720h494l-31 -146h-286l-33 -156h255z" />
            <glyph glyph-name="G" unicode="G" horiz-adv-x="771"
           d="M685 0h-143l-11 66q-38 -36 -87.5 -58.5t-118.5 -22.5q-57 0 -105.5 19.5t-84.5 57t-56.5 91t-20.5 122.5q0 42 7.5 92t26.5 101.5t50.5 99.5t80 85t115.5 59.5t156 22.5q71 0 126 -17t93 -48t57.5 -75t19.5 -97h-207q-2 48 -30 71t-75 23q-57 0 -96 -33.5t-62.5 -82
t-34 -102.5t-10.5 -95q0 -78 33.5 -115t82.5 -37q64 0 106.5 33.5t53.5 85.5l6 29h-153l29 135h339z" />
            <glyph glyph-name="H" unicode="H" horiz-adv-x="750"
           d="M806 720l-153 -720h-208l61 293h-219l-61 -293h-209l153 720h209l-61 -285h219l61 285h208z" />
            <glyph glyph-name="I" unicode="I" horiz-adv-x="323"
           d="M379 720l-153 -720h-209l153 720h209z" />
            <glyph glyph-name="J" unicode="J" horiz-adv-x="593"
           d="M224 230q-3 -20 -3 -34q0 -38 16.5 -52.5t36.5 -14.5q25 0 42 17t28 67l108 507h202l-106 -495q-13 -59 -35 -104t-56 -75t-82 -45.5t-112 -15.5q-52 0 -96.5 12.5t-77 38t-51 64.5t-18.5 93q0 17 3 37h201z" />
            <glyph glyph-name="K" unicode="K" horiz-adv-x="761"
           d="M472 0l-188 276l-58 -276h-209l153 720h209l-56 -261l276 261h241l-384 -350l265 -370h-249z" />
            <glyph glyph-name="L" unicode="L" horiz-adv-x="629"
           d="M379 720l-121 -569h342l-31 -151h-552l153 720h209z" />
            <glyph glyph-name="M" unicode="M" horiz-adv-x="916"
           d="M331 0l-51 406l-86 -406h-177l153 720h218l67 -523l285 523h232l-153 -720h-187l84 397l-217 -397h-168z" />
            <glyph glyph-name="N" unicode="N" horiz-adv-x="748"
           d="M804 720l-153 -720h-204l-158 448l-94 -448h-178l153 720h217l148 -426l91 426h178z" />
            <glyph glyph-name="O" unicode="O" horiz-adv-x="800"
           d="M401 132q37 0 67 15t52 39t38 56t26 65t14.5 66t4.5 60q0 42 -11.5 72t-29.5 48.5t-41.5 27t-47.5 8.5q-39 0 -69 -15.5t-53 -41.5t-38 -58.5t-25 -66t-14 -65.5t-4 -56q0 -42 11.5 -71.5t30 -47.5t42 -26.5t47.5 -8.5zM384 -15q-63 0 -121.5 18t-104.5 54.5t-73.5 93.5
t-27.5 135q0 42 7.5 91.5t26.5 99.5t50.5 96.5t79 82.5t113 57.5t152.5 21.5q61 0 119.5 -17.5t105 -54t75 -93.5t28.5 -135q0 -44 -8 -94.5t-27.5 -100.5t-51.5 -96t-80 -81.5t-113 -56.5t-150 -21z" />
            <glyph glyph-name="P" unicode="P" horiz-adv-x="691"
           d="M439 720q149 0 219.5 -55t70.5 -149q0 -56 -17.5 -107.5t-60 -91t-114 -63.5t-178.5 -24h-85l-48 -230h-209l153 720h269zM348 579l-44 -209h81q60 0 95 34.5t35 91.5q0 40 -26.5 61.5t-75.5 21.5h-65z" />
            <glyph glyph-name="Q" unicode="Q" horiz-adv-x="812"
           d="M384 -15q-63 0 -121.5 18t-104.5 54.5t-73.5 93.5t-27.5 135q0 42 7.5 91.5t26.5 99.5t50.5 96.5t79 82.5t113 57.5t152.5 21.5q61 0 119.5 -17.5t105 -54t75 -93.5t28.5 -135q0 -44 -8 -94t-27 -99.5t-50.5 -95.5t-78.5 -81l82 -111l-194 -114l-61 153q-21 -3 -44 -5.5
t-49 -2.5zM401 132q37 0 67 15t52 39t38 56t26 65t14.5 66t4.5 60q0 42 -11.5 72t-29.5 48.5t-41.5 27t-47.5 8.5q-39 0 -69 -15.5t-53 -41.5t-38 -58.5t-25 -66t-14 -65.5t-4 -56q0 -42 11.5 -71.5t30 -47.5t42 -26.5t47.5 -8.5z" />
            <glyph glyph-name="R" unicode="R" horiz-adv-x="729"
           d="M444 0l-103 250h-62l-53 -250h-209l153 720h275q143 0 215.5 -51t72.5 -141q0 -50 -14.5 -88.5t-40 -68t-59.5 -50t-74 -34.5l139 -287h-240zM349 578l-40 -186h87q49 0 84 29t35 84q0 35 -25 54t-71 19h-70z" />
            <glyph glyph-name="S" unicode="S" horiz-adv-x="679"
           d="M327 -15q-80 0 -137 19.5t-94 51.5t-54.5 74t-17.5 86v11h202q0 -47 29 -73.5t89 -26.5q61 0 86 21.5t25 53.5q0 17 -7 31t-23.5 25.5t-44 21t-68.5 18.5q-47 10 -86 29t-66.5 46t-43 61.5t-15.5 75.5q0 54 18 95.5t56 70.5t97 44t142 15q66 0 120.5 -16t92.5 -45.5
t59 -71.5t21 -93h-197q0 45 -31 64.5t-78 19.5t-65 -16t-18 -43q0 -29 26 -49t89 -34q115 -26 176 -79t61 -138q0 -56 -18.5 -102t-59.5 -78.5t-106 -50.5t-159 -18z" />
            <glyph glyph-name="T" unicode="T" horiz-adv-x="636"
           d="M712 569h-211l-120 -569h-209l120 569h-206l32 151h626z" />
            <glyph glyph-name="U" unicode="U" horiz-adv-x="741"
           d="M373 720l-103 -482q-2 -7 -3 -13.5t-1 -12.5q0 -40 26.5 -61t72.5 -21q53 0 86.5 26t44.5 78l103 486h203l-101 -474q-26 -122 -111 -191.5t-239 -69.5q-69 0 -123.5 14.5t-92.5 42t-58 67t-20 88.5q0 25 6 54l100 469h210z" />
            <glyph glyph-name="V" unicode="V" horiz-adv-x="704"
           d="M817 720l-388 -720h-232l-84 720h210l25 -542l259 542h210z" />
            <glyph glyph-name="W" unicode="W" horiz-adv-x="1019"
           d="M1132 720l-313 -720h-231l-13 500l-219 -500h-224l-19 720h208l-13 -467l205 467h220l12 -471l182 471h205z" />
            <glyph glyph-name="X" unicode="X" horiz-adv-x="750"
           d="M530 376l175 -376h-229l-91 227l-181 -227h-239l334 375l-164 345h226l84 -201l166 201h230z" />
            <glyph glyph-name="Y" unicode="Y" horiz-adv-x="724"
           d="M222 0l61 288l-170 432h219l82 -274l211 274h212l-354 -432l-61 -288h-200z" />
            <glyph glyph-name="Z" unicode="Z" horiz-adv-x="647"
           d="M278 145h331l-30 -145h-597l29 136l431 439h-319l31 145h584l-29 -134z" />
            <glyph glyph-name="bracketleft" unicode="[" horiz-adv-x="340"
           d="M239 -170h-270l209 980h270l-26 -121h-109l-156 -738h108z" />
            <glyph glyph-name="backslash" unicode="\" horiz-adv-x="340"
           d="M99 735h163l26 -825h-163z" />
            <glyph glyph-name="bracketright" unicode="]" horiz-adv-x="340"
           d="M-34 -49h109l156 738h-109l26 121h271l-209 -980h-270z" />
            <glyph glyph-name="asciicircum" unicode="^" horiz-adv-x="520"
           d="M229 383h-180l233 329h167l92 -329h-173l-34 163z" />
            <glyph glyph-name="underscore" unicode="_" horiz-adv-x="588"
           d="M499 -142h-551l29 139h552z" />
            <glyph glyph-name="grave" unicode="`" horiz-adv-x="362"
           d="M414 578h-134l-128 154h188z" />
            <glyph glyph-name="a" unicode="a" horiz-adv-x="581"
           d="M69 358q37 88 108.5 132.5t179.5 44.5q105 0 161.5 -43.5t56.5 -120.5q0 -11 -1 -23.5t-4 -25.5l-68 -322h-150l-12 58q-26 -29 -72.5 -51t-106.5 -22q-73 0 -112.5 35t-39.5 95q0 39 13 70.5t43.5 56t79.5 42t121 29.5l112 18l3 14q2 6 2 11v8q0 45 -50 45
q-25 0 -44 -13.5t-27 -37.5h-193zM250 111q32 0 60 20.5t37 56.5l10 44q-47 -9 -77 -16.5t-46.5 -16.5t-22.5 -20.5t-6 -29.5q0 -38 45 -38z" />
            <glyph glyph-name="b" unicode="b" horiz-adv-x="641"
           d="M6 0l153 720h194l-54 -253q33 32 73 50t87 18q83 0 131.5 -51.5t48.5 -144.5q0 -58 -16.5 -120.5t-52 -114.5t-90.5 -85.5t-132 -33.5q-48 0 -87.5 20t-61.5 53l-40 -58h-153zM369 397q-36 0 -59.5 -20.5t-38 -49.5t-20.5 -61t-6 -56q0 -44 19.5 -65.5t54.5 -21.5
q36 0 60 21.5t38 51t19.5 61t5.5 51.5q0 45 -20.5 67t-52.5 22z" />
            <glyph glyph-name="c" unicode="c" horiz-adv-x="606"
           d="M581 195q-18 -45 -45 -83t-64.5 -66.5t-85.5 -44.5t-108 -16q-122 0 -183 57.5t-61 155.5q0 54 16.5 113.5t54.5 109t101.5 82t158.5 32.5q55 0 100 -14t77 -40t49.5 -62.5t18.5 -81.5h-199q0 35 -16.5 51.5t-43.5 16.5q-35 0 -57.5 -22.5t-36 -54.5t-19 -67t-5.5 -59
q0 -45 18.5 -66.5t44.5 -21.5q28 0 50 21t36 60h199z" />
            <glyph glyph-name="d" unicode="d" horiz-adv-x="644"
           d="M404 0l-17 63q-35 -34 -78.5 -56t-92.5 -22q-84 0 -133.5 54.5t-49.5 149.5q0 34 7 73t21.5 77.5t37 74t54 62.5t72.5 43t91 16q48 0 87.5 -17.5t60.5 -46.5l53 249h194l-153 -720h-154zM354 397q-35 0 -58.5 -19.5t-37.5 -47t-20 -58.5t-6 -55q0 -46 21 -70t54 -24
q34 0 57.5 21t37.5 51t20.5 62t6.5 54q0 47 -22.5 66.5t-52.5 19.5z" />
            <glyph glyph-name="e" unicode="e" horiz-adv-x="619"
           d="M581 165q-17 -38 -43.5 -71t-63 -57t-83.5 -38t-105 -14q-57 0 -103 16.5t-78.5 46.5t-50 72t-17.5 93q0 58 19.5 115.5t59 103.5t100 74.5t142.5 28.5q54 0 99.5 -15t78.5 -44t51.5 -72t18.5 -100q0 -42 -10 -86h-366q-1 -5 -1 -9v-9q0 -45 22 -64t58 -19
q29 0 48.5 13.5t27.5 34.5h196zM351 414q-30 0 -56 -21.5t-43 -72.5h167q2 7 2 13v12q0 35 -18.5 52t-51.5 17z" />
            <glyph glyph-name="f" unicode="f" horiz-adv-x="388"
           d="M484 579q-45 16 -74 16q-28 0 -41 -11t-18 -37l-6 -27h99l-28 -131h-99l-82 -389h-193l82 389h-76l28 131h76l7 33q10 48 27 82.5t43 56.5t64 32.5t90 10.5q35 0 68.5 -5.5t61.5 -15.5z" />
            <glyph glyph-name="g" unicode="g" horiz-adv-x="633"
           d="M191 -21q5 -23 21 -33.5t51 -10.5q27 0 44.5 8.5t29 26t19 45t15.5 66.5q-67 -59 -143 -59q-42 0 -77 14t-59.5 40.5t-38.5 63.5t-14 83q0 69 22 126.5t60.5 99t90.5 64t112 22.5q47 0 85.5 -18t58.5 -48l39 51h150l-103 -484q-23 -109 -98.5 -170t-210.5 -61
q-129 0 -188.5 45.5t-59.5 128.5h194zM430 314q0 43 -22 63.5t-55 20.5q-28 0 -49.5 -12.5t-36.5 -33.5t-22.5 -48t-7.5 -55q0 -42 22 -65t57 -23q27 0 48.5 13t36 34.5t22 49t7.5 56.5z" />
            <glyph glyph-name="h" unicode="h" horiz-adv-x="607"
           d="M159 720h193l-52 -243q32 28 70 43t79 15q72 0 113 -38.5t41 -110.5q0 -14 -2 -32.5t-5 -31.5l-69 -322h-194l68 321q2 8 3 15.5t1 13.5q0 26 -13.5 39t-35.5 13q-36 0 -60 -26t-32 -68l-65 -308h-193z" />
            <glyph glyph-name="i" unicode="i" horiz-adv-x="295"
           d="M127 574l31 146h205l-32 -146h-204zM11 0l110 520h193l-110 -520h-193z" />
            <glyph glyph-name="j" unicode="j" horiz-adv-x="291"
           d="M-92 -42q14 -5 26.5 -7.5t21.5 -2.5q22 0 34 9.5t17 35.5l112 527h193l-113 -537q-18 -84 -68.5 -131t-142.5 -47q-13 0 -27.5 1t-29.5 3.5t-28.5 5.5t-23.5 7zM125 574l31 146h204l-31 -146h-204z" />
            <glyph glyph-name="k" unicode="k" horiz-adv-x="623"
           d="M6 0l153 720h193l-77 -361l182 161h225l-273 -231l178 -289h-235l-111 201l-42 -201h-193z" />
            <glyph glyph-name="l" unicode="l" horiz-adv-x="286"
           d="M200 0h-194l153 720h194z" />
            <glyph glyph-name="m" unicode="m" horiz-adv-x="914"
           d="M6 0l110 520h142l16 -59q69 74 162 74q51 0 91 -18t56 -56q71 74 168 74q72 0 115.5 -37.5t43.5 -112.5q0 -31 -7 -62l-68 -323h-193l68 328q3 13 3 26q0 48 -43 48q-37 0 -59.5 -32t-31.5 -74l-62 -296h-193l68 328q3 15 3 27q0 47 -43 47q-18 0 -32.5 -8.5t-25.5 -22.5
t-19 -32.5t-12 -39.5l-63 -299h-194z" />
            <glyph glyph-name="n" unicode="n" horiz-adv-x="607"
           d="M116 520h164l3 -58q35 35 79.5 54t86.5 19q72 0 113 -38.5t41 -110.5q0 -14 -1.5 -30.5t-5.5 -33.5l-69 -322h-194l69 322q2 7 3 15t1 15q0 25 -14 37.5t-36 12.5q-36 0 -60 -26t-32 -68l-65 -308h-193z" />
            <glyph glyph-name="o" unicode="o" horiz-adv-x="629"
           d="M361 535q57 0 105.5 -14t83 -42t54 -69t19.5 -95q0 -63 -18.5 -122.5t-58.5 -105.5t-102 -74t-149 -28q-56 0 -103.5 14.5t-82 42.5t-54 69.5t-19.5 96.5q0 33 6 70t20.5 73t38.5 69.5t60 59t85.5 40.5t114.5 15zM351 407q-37 0 -60 -24.5t-35.5 -57.5t-17 -67.5
t-4.5 -55.5q0 -47 20 -68t57 -21t59.5 24.5t35 58.5t17 69.5t4.5 57.5q0 45 -19.5 64.5t-56.5 19.5z" />
            <glyph glyph-name="p" unicode="p" horiz-adv-x="642"
           d="M350 -15q-41 0 -79.5 17t-61.5 46l-48 -228h-194l149 700h150l19 -63q35 36 77 57t93 21q83 0 133.5 -52t50.5 -146q0 -72 -21 -136t-59.5 -112t-91.5 -76t-117 -28zM368 398q-35 0 -59 -20.5t-38.5 -50t-20.5 -61.5t-6 -56q0 -47 22 -67.5t54 -20.5q30 0 53 17t38 43.5
t23 60t8 66.5q0 46 -20.5 67.5t-53.5 21.5z" />
            <glyph glyph-name="q" unicode="q" horiz-adv-x="644"
           d="M668 520l-149 -700h-194l50 233q-34 -31 -74 -49.5t-82 -18.5t-76 14t-58.5 40.5t-38 64.5t-13.5 86q0 32 6.5 70t20.5 76.5t36 74.5t54.5 63.5t75.5 44t98 16.5q54 0 92.5 -21t56.5 -54l44 60h151zM354 397q-36 0 -59.5 -19t-37.5 -47t-19.5 -59.5t-5.5 -56.5
q0 -45 20 -68.5t54 -23.5t57.5 19t38 47.5t21 61t6.5 58.5q0 46 -20.5 67t-54.5 21z" />
            <glyph glyph-name="r" unicode="r" horiz-adv-x="425"
           d="M6 0l110 520h166v-80q30 48 67 71.5t78 23.5q14 0 30.5 -1.5t33.5 -6.5l-37 -172q-22 7 -38.5 9.5t-34.5 2.5q-48 0 -84 -38t-53 -119l-44 -210h-194z" />
            <glyph glyph-name="s" unicode="s" horiz-adv-x="563"
           d="M278 112q62 0 62 37q0 19 -18 31.5t-71 22.5q-99 18 -144 58t-45 99q0 82 61.5 128.5t194.5 46.5q53 0 98 -12.5t77.5 -35t51 -53.5t18.5 -69h-188q-2 20 -19.5 32t-49.5 12q-26 0 -36.5 -8.5t-10.5 -22.5q0 -17 19 -30.5t70 -23.5q94 -18 142.5 -55t48.5 -96
q0 -91 -64.5 -139.5t-204.5 -48.5q-56 0 -103 12.5t-81 35.5t-52.5 54.5t-18.5 69.5h189q2 -19 21 -32t53 -13z" />
            <glyph glyph-name="t" unicode="t" horiz-adv-x="397"
           d="M343 1q-30 -8 -58.5 -12t-52.5 -4q-75 0 -116.5 34.5t-41.5 97.5q0 11 1.5 21.5t3.5 21.5l49 229h-76l28 131h75l38 125h182l-26 -125h103l-28 -131h-103l-48 -226q-2 -8 -2 -16q0 -27 37 -27q23 0 62 11z" />
            <glyph glyph-name="u" unicode="u"
           d="M302 520l-67 -319q-2 -8 -3.5 -19t-1.5 -14q0 -23 13 -36.5t36 -13.5q35 0 57 26.5t31 68.5l65 307h192l-110 -520h-163l-4 53q-32 -32 -72 -50t-90 -18q-74 0 -113 38.5t-39 108.5q0 28 8 66l68 322h193z" />
            <glyph glyph-name="v" unicode="v" horiz-adv-x="591"
           d="M662 520l-296 -520h-222l-75 520h203l15 -363l167 363h208z" />
            <glyph glyph-name="w" unicode="w" horiz-adv-x="859"
           d="M925 520l-253 -520h-220l7 333l-143 -333h-214l-28 520h194l-14 -331l145 331h205l-5 -329l132 329h194z" />
            <glyph glyph-name="x" unicode="x" horiz-adv-x="610"
           d="M428 275l143 -275h-221l-60 142l-118 -142h-213l254 273l-135 247h217l52 -125l99 125h209z" />
            <glyph glyph-name="y" unicode="y" horiz-adv-x="594"
           d="M665 520l-300 -527q-32 -55 -59 -91.5t-54.5 -58t-58 -30t-67.5 -8.5q-22 0 -50 4t-57 12l28 130q29 -9 45 -11.5t26 -2.5q22 0 37.5 13.5t33.5 49.5h-36l-83 520h200l13 -382l181 382h201z" />
            <glyph glyph-name="z" unicode="z" horiz-adv-x="527"
           d="M260 138h230l-29 -138h-484l28 135l296 247h-226l29 138h476l-29 -135z" />
            <glyph glyph-name="braceleft" unicode="{" horiz-adv-x="340"
           d="M44 388q42 0 65 19t31 54l35 163q13 63 37.5 100t60 56t81.5 24.5t103 5.5l-26 -123q-21 0 -36.5 -1.5t-26 -8t-18 -19t-11.5 -33.5l-34 -164q-13 -61 -42 -92.5t-65 -48.5q23 -13 37.5 -34.5t14.5 -57.5q0 -22 -6 -50l-34 -162q-2 -8 -3 -15t-1 -12q0 -25 17 -31t52 -7
l-27 -121q-48 0 -87 4.5t-66 18t-41.5 38t-14.5 65.5q0 14 1.5 31t6.5 37l34 158q1 5 1.5 10.5t0.5 10.5q0 24 -16 38t-51 14z" />
            <glyph glyph-name="bar" unicode="|" horiz-adv-x="340"
           d="M373 785l-196 -925h-161l196 925h161z" />
            <glyph glyph-name="braceright" unicode="}" horiz-adv-x="340"
           d="M342 247q-42 0 -65.5 -19.5t-30.5 -53.5l-33 -158q-13 -63 -37.5 -100t-60 -56t-81.5 -24.5t-103 -5.5l27 123q21 0 35.5 2t25 8t17.5 18.5t12 34.5l34 158q13 61 41.5 93t66.5 49q-24 12 -38.5 33.5t-14.5 58.5q0 20 6 49l35 168q3 15 3 26q0 25 -16.5 31.5t-51.5 6.5
l26 121q48 0 87 -4.5t66.5 -18t42 -38.5t14.5 -65q0 -14 -2 -31t-6 -37l-35 -163q-3 -12 -3 -21q0 -52 68 -52z" />
            <glyph glyph-name="asciitilde" unicode="~"
           d="M394 227q-32 0 -54.5 8t-41.5 18t-36.5 18t-38.5 8q-32 0 -63.5 -12t-76.5 -36l31 146q24 13 63.5 25t83.5 12q32 0 55 -8.5t41.5 -18t36.5 -18t39 -8.5q32 0 63 11.5t77 37.5l-31 -145q-24 -14 -64 -26t-84 -12z" />
            <glyph glyph-name="uni00A0" unicode="&#xa0;" horiz-adv-x="224"
            />
            <glyph glyph-name="exclamdown" unicode="&#xa1;" horiz-adv-x="323"
           d="M275 304l-78 -484h-230l129 484h179zM342 546l-39 -181h-210l38 181h211z" />
            <glyph glyph-name="cent" unicode="&#xa2;"
           d="M578 195q-15 -38 -37.5 -72t-52 -61t-66.5 -45.5t-83 -25.5l-26 -126h-168l28 135q-72 20 -107 71.5t-35 126.5q0 48 12.5 101t42.5 99.5t78.5 81.5t120.5 47l29 132h168l-30 -136q72 -19 112.5 -67.5t41.5 -118.5h-198v8q-1 29 -18 42t-40 13q-36 0 -59 -22t-36.5 -53
t-19 -65t-5.5 -58q0 -45 19.5 -66.5t42.5 -21.5q28 0 50.5 21t36.5 60h199z" />
            <glyph glyph-name="sterling" unicode="&#xa3;"
           d="M332 402h165l-25 -120h-166q-8 -48 -24.5 -80t-54.5 -51h322l-32 -151h-515l31 146q17 4 28 12t19 23t14 39.5t14 61.5h-54l25 120h54l21 98q23 111 85 163t174 52q50 0 91.5 -14t71.5 -38t46.5 -57t16.5 -71q0 -5 -0.5 -12.5t-1.5 -13.5h-185q0 35 -10.5 49t-31.5 14
q-24 0 -36.5 -17.5t-22.5 -63.5z" />
            <glyph glyph-name="currency" unicode="&#xa4;" horiz-adv-x="579"
           d="M95 218q-28 53 -28 117t28 117l-59 60l106 107l62 -62q26 14 56.5 21t60.5 7q61 0 117 -28l62 62l106 -107l-59 -60q28 -53 28 -117q0 -33 -7.5 -62t-21.5 -55l60 -59l-106 -107l-62 61q-27 -13 -57 -20t-60 -7t-60.5 7t-57.5 20l-61 -61l-106 107zM431 335
q0 54 -31 84.5t-79 30.5t-79 -30.5t-31 -84.5t31 -84t79 -30t79 30t31 84z" />
            <glyph glyph-name="yen" unicode="&#xa5;"
           d="M166 0l22 104h-127l25 116h126l9 42h-126l25 116h77l-111 322h207l51 -270l175 270h211l-249 -322h79l-25 -116h-126l-9 -42h126l-25 -116h-126l-22 -104h-187z" />
            <glyph glyph-name="brokenbar" unicode="&#xa6;" horiz-adv-x="340"
           d="M373 784l-85 -401h-161l85 401h161zM261 257l-84 -397h-161l84 397h161z" />
            <glyph glyph-name="section" unicode="&#xa7;"
           d="M208 438q-21 18 -33.5 43.5t-12.5 54.5q0 36 13 68.5t41 56.5t71 38.5t103 14.5q47 0 84.5 -14t64 -36.5t40.5 -49.5t14 -53q0 -10 -1 -14h-159q-1 23 -15.5 34.5t-34.5 11.5q-17 0 -28.5 -8.5t-11.5 -25.5q0 -23 36 -40q49 -23 84.5 -41.5t58.5 -37.5t33.5 -41t10.5 -51
q0 -50 -31 -91.5t-89 -64.5q41 -35 41 -97q0 -35 -14.5 -67.5t-43 -57t-71.5 -39.5t-100 -15q-50 0 -88.5 13.5t-64.5 35t-39 48.5t-13 54v7q0 3 1 8h159q1 -23 14.5 -34t36.5 -11q17 0 29.5 8.5t12.5 25.5q0 13 -8.5 22t-25.5 17q-37 18 -71 34.5t-59.5 36t-41 44.5
t-15.5 60q0 52 31 92t92 61zM312 373q-19 -14 -32 -31t-13 -38q0 -20 16.5 -34.5t51.5 -28.5q15 11 30.5 27t15.5 41q0 38 -69 64z" />
            <glyph glyph-name="dieresis" unicode="&#xa8;" horiz-adv-x="471"
           d="M114 585l31 144h172l-31 -144h-172zM352 585l31 144h173l-31 -144h-173z" />
            <glyph glyph-name="copyright" unicode="&#xa9;" horiz-adv-x="843"
           d="M188 360q0 -73 22.5 -128t61 -91.5t88.5 -55t106 -18.5q55 0 105 18.5t88.5 55t61 91.5t22.5 128t-22.5 128t-61 91.5t-88.5 55t-105 18.5q-56 0 -106 -18.5t-88.5 -55t-61 -91.5t-22.5 -128zM847 360q0 -95 -33 -165t-86.5 -117t-122 -70t-139.5 -23q-72 0 -140.5 23
t-122 70t-86.5 117t-33 165q0 94 33 164.5t86.5 117.5t122 70t140.5 23q71 0 139.5 -23t122 -70t86.5 -117.5t33 -164.5zM673 315q-8 -33 -23.5 -61.5t-40.5 -49.5t-59.5 -33t-79.5 -12q-98 0 -151.5 51t-53.5 149q0 97 55 152.5t152 55.5q40 0 74.5 -10.5t60 -30t42 -46.5
t22.5 -59h-146q-4 23 -18.5 37t-32.5 14q-29 0 -46 -25t-17 -89q0 -57 17.5 -80t41.5 -23q44 0 56 60h147z" />
            <glyph glyph-name="ordfeminine" unicode="&#xaa;" horiz-adv-x="510"
           d="M152 598q26 60 83.5 98.5t134.5 38.5q78 0 122.5 -34t44.5 -94q0 -9 -1 -18.5t-3 -19.5l-57 -266h-119l-6 35q-24 -22 -52.5 -34.5t-61.5 -12.5q-27 0 -51.5 6.5t-43 20t-29.5 34t-11 47.5q0 72 53.5 113.5t156.5 52.5l56 6l4 16q2 6 2 18t-7.5 17.5t-17.5 5.5
q-25 0 -37 -30h-160zM417 0h-396l29 140h396zM298 403q16 0 29 13t16 30l6 34l-23 -4q-30 -5 -43.5 -17t-13.5 -31q0 -11 8 -18t21 -7z" />
            <glyph glyph-name="guillemotleft" unicode="&#xab;" horiz-adv-x="588"
           d="M56 313l174 207h150l-139 -212l35 -222h-140zM302 313l174 207h150l-140 -212l36 -222h-141z" />
            <glyph glyph-name="logicalnot" unicode="&#xac;"
           d="M568 390l-62 -292h-154l32 152h-297l29 140h452z" />
            <glyph glyph-name="uni00AD" unicode="&#xad;" horiz-adv-x="540"
           d="M474 250h-395l30 140h395z" />
            <glyph glyph-name="registered" unicode="&#xae;" horiz-adv-x="628"
           d="M625 499q0 -62 -21.5 -107t-56.5 -73.5t-78.5 -42t-88.5 -13.5q-44 0 -88 13.5t-78.5 42t-56 73.5t-21.5 107q0 63 21.5 107.5t56 73t78.5 42t88 13.5q45 0 88.5 -13.5t78.5 -42t56.5 -73t21.5 -107.5zM380 321q32 0 63 9.5t56 30.5t40 55t15 83t-15 83t-40 55.5t-56 31
t-63 9.5t-63.5 -9.5t-56 -31t-39.5 -55.5t-15 -83t15 -83t39.5 -55t56 -30.5t63.5 -9.5zM423 388l-51 82h-19v-82h-67v234h92q49 0 77 -18.5t28 -57.5q0 -27 -13 -42t-32 -23l64 -93h-79zM353 576v-61h27q13 0 23.5 7t10.5 24t-11 23.5t-25 6.5h-25z" />
            <glyph glyph-name="macron" unicode="&#xaf;" horiz-adv-x="330"
           d="M102 591l27 128h289l-27 -128h-289z" />
            <glyph glyph-name="degree" unicode="&#xb0;" horiz-adv-x="540"
           d="M282 601q-21 0 -33 -20t-12 -52q0 -21 9 -31t23 -10q17 0 31.5 16.5t14.5 53.5q0 23 -9 33t-24 10zM460 566q0 -45 -17 -80.5t-45 -60.5t-65 -38.5t-76 -13.5q-35 0 -65 10t-52 29t-35 47t-13 64q0 46 17 82t45 61t64.5 38t75.5 13q34 0 64.5 -10t53 -29t35.5 -47.5
t13 -64.5z" />
            <glyph glyph-name="plusminus" unicode="&#xb1;"
           d="M457 565l-32 -151h149l-30 -140h-149l-20 -95h-155l20 95h-149l31 140h148l32 151h155zM487 0h-453l30 140h452z" />
            <glyph glyph-name="twosuperior" unicode="&#xb2;" horiz-adv-x="425"
           d="M98 599q25 67 78 106.5t132 39.5q74 0 112.5 -30.5t38.5 -75.5q0 -21 -5.5 -40.5t-22 -41t-47 -47t-79.5 -58.5l-75 -53h182l-22 -105h-344l22 103l122 86q45 31 71.5 53.5t40 38.5t17.5 27t4 21q0 13 -8.5 18.5t-21.5 5.5q-17 0 -31.5 -11t-24.5 -37h-139z" />
            <glyph glyph-name="threesuperior" unicode="&#xb3;" horiz-adv-x="429"
           d="M311 745q70 0 110.5 -27.5t40.5 -71.5q0 -15 -6 -32.5t-19.5 -34t-35.5 -30.5t-54 -21q40 -9 60 -33t20 -56q0 -27 -10.5 -54.5t-34.5 -50t-62 -36.5t-92 -14q-53 0 -85.5 13t-50 33.5t-23.5 45.5t-6 48h140q-2 -10 -2 -14q0 -13 7.5 -21.5t26.5 -8.5q20 0 35 15t15 45
q0 22 -14.5 30t-34.5 8h-32l19 89h34q16 0 27.5 6.5t18.5 16t10 20t3 19.5q0 21 -23 21q-31 0 -44 -35h-135q23 61 72.5 95.5t124.5 34.5z" />
            <glyph glyph-name="acute" unicode="&#xb4;" horiz-adv-x="362"
           d="M247 732h200l-193 -154h-148z" />
            <glyph glyph-name="mu" unicode="&#xb5;" horiz-adv-x="605"
           d="M307 520l-69 -324q-3 -15 -3 -28q0 -24 13 -37.5t36 -13.5q34 0 56 27t31 69l65 307h193l-110 -520h-164l-4 53q-31 -31 -73.5 -47t-84.5 -18l-35 -168h-193l149 700h193z" />
            <glyph glyph-name="paragraph" unicode="&#xb6;" horiz-adv-x="706"
           d="M488 720l-192 -900h-183l104 490q-27 3 -51.5 15.5t-43 35t-30 55t-11.5 75.5q0 65 21 109t56.5 70.5t81.5 38t96 11.5h152zM761 720l-192 -900h-184l192 900h184z" />
            <glyph glyph-name="periodcentered" unicode="&#xb7;" horiz-adv-x="296"
           d="M52 220l38 175h203l-38 -175h-203z" />
            <glyph glyph-name="cedilla" unicode="&#xb8;" horiz-adv-x="406"
           d="M224 -35q40 -10 60 -35t20 -58q0 -32 -13 -58t-36.5 -44t-56 -28t-71.5 -10q-74 0 -119 33t-45 88v9h127q0 -14 10.5 -25.5t33.5 -11.5q20 0 31 9t11 26t-20 28.5t-67 11.5l36 122h109z" />
            <glyph glyph-name="onesuperior" unicode="&#xb9;" horiz-adv-x="296"
           d="M263 276h-142l66 309l-113 -42l25 120l135 54h123z" />
            <glyph glyph-name="ordmasculine" unicode="&#xba;" horiz-adv-x="522"
           d="M351 735q34 0 68.5 -8t61.5 -27.5t44 -53t17 -85.5q0 -62 -16.5 -111.5t-48 -84.5t-77.5 -54t-104 -19q-35 0 -69 8.5t-61.5 28.5t-44.5 54.5t-17 86.5q0 59 16 107.5t47 83.5t77 54.5t107 19.5zM339 623q-20 0 -33.5 -16t-21.5 -40t-11.5 -52t-3.5 -52q0 -32 9.5 -45.5
t29.5 -13.5q21 0 35 17t21.5 41.5t10.5 52.5t3 50q0 32 -10.5 45t-28.5 13zM420 0h-408l30 140h407z" />
            <glyph glyph-name="guillemotright" unicode="&#xbb;" horiz-adv-x="588"
           d="M415 86h-148l131 222l-51 212h143l94 -207zM170 86h-149l131 222l-50 212h142l94 -207z" />
            <glyph glyph-name="onequarter" unicode="&#xbc;" horiz-adv-x="902"
           d="M90 -93l611 880h148l-610 -880h-149zM295 276h-142l66 309l-113 -42l25 120l135 54h123zM835 174h49l-20 -94h-49l-17 -79h-128l17 79h-200l21 102l217 260h167zM629 174h78l44 157z" />
            <glyph glyph-name="onehalf" unicode="&#xbd;" horiz-adv-x="966"
           d="M90 -93l611 880h148l-610 -880h-149zM295 276h-142l66 309l-113 -42l25 120l135 54h123zM595 306q25 67 78 106.5t132 39.5q74 0 112.5 -30.5t38.5 -75.5q0 -21 -5.5 -40.5t-22 -41t-47 -47t-79.5 -58.5l-75 -53h182l-22 -105h-344l22 103l122 86q45 31 71.5 53.5
t40 38.5t17.5 27t4 21q0 13 -8.5 18.5t-21.5 5.5q-17 0 -31.5 -11t-24.5 -37h-139z" />
            <glyph glyph-name="threequarters" unicode="&#xbe;" horiz-adv-x="1007"
           d="M195 -93l611 880h148l-610 -880h-149zM338 745q70 0 110.5 -27.5t40.5 -71.5q0 -15 -6 -32.5t-19.5 -34t-35.5 -30.5t-54 -21q40 -9 60 -33t20 -56q0 -27 -10.5 -54.5t-34.5 -50t-62 -36.5t-92 -14q-53 0 -85.5 13t-50 33.5t-23.5 45.5t-6 48h140q-2 -10 -2 -14
q0 -13 7.5 -21.5t26.5 -8.5q20 0 35 15t15 45q0 22 -14.5 30t-34.5 8h-32l19 89h34q16 0 27.5 6.5t18.5 16t10 20t3 19.5q0 21 -23 21q-31 0 -44 -35h-135q23 61 72.5 95.5t124.5 34.5zM940 174h49l-20 -94h-49l-17 -79h-128l17 79h-200l21 102l217 260h167zM734 174h78
l44 157z" />
            <glyph glyph-name="questiondown" unicode="&#xbf;" horiz-adv-x="555"
           d="M477 5q-14 -41 -40.5 -77t-63 -63.5t-83 -43.5t-98.5 -16q-100 0 -155.5 39.5t-55.5 104.5q0 36 10 65.5t30.5 57.5t51.5 58.5t73 68.5q23 20 33.5 45.5t18.5 57.5h187q-8 -38 -16 -64.5t-19.5 -48.5t-28 -41.5t-40.5 -42.5q-29 -28 -48 -47t-30 -33.5t-15.5 -25.5
t-4.5 -22q0 -14 9 -22t23 -8q18 0 33 13.5t28 44.5h201zM445 540l-37 -181h-211l38 181h210z" />
            <glyph glyph-name="Agrave" unicode="&#xc0;" horiz-adv-x="740"
           d="M487 0l-13 157h-223l-79 -157h-215l417 720h216l113 -720h-216zM320 295h144l-19 244zM621 774h-134l-128 154h188z" />
            <glyph glyph-name="Aacute" unicode="&#xc1;" horiz-adv-x="740"
           d="M487 0l-13 157h-223l-79 -157h-215l417 720h216l113 -720h-216zM320 295h144l-19 244zM494 928h200l-193 -154h-148z" />
            <glyph glyph-name="Acircumflex" unicode="&#xc2;" horiz-adv-x="740"
           d="M487 0l-13 157h-223l-79 -157h-215l417 720h216l113 -720h-216zM320 295h144l-19 244zM458 780h-182l170 154h153l104 -154h-175l-23 57z" />
            <glyph glyph-name="Atilde" unicode="&#xc3;" horiz-adv-x="740"
           d="M487 0l-13 157h-223l-79 -157h-215l417 720h216l113 -720h-216zM320 295h144l-19 244zM558 777q-22 0 -38.5 5.5t-31 12.5t-28 12.5t-30.5 5.5q-19 0 -41.5 -8t-56.5 -25l26 125q29 15 52.5 22t49.5 7q22 0 38 -6t30.5 -12.5t28.5 -12.5t31 -6q18 0 39 8t56 25l-27 -125
q-29 -15 -51 -21.5t-47 -6.5z" />
            <glyph glyph-name="Adieresis" unicode="&#xc4;" horiz-adv-x="740"
           d="M487 0l-13 157h-223l-79 -157h-215l417 720h216l113 -720h-216zM320 295h144l-19 244zM285 781l31 144h172l-31 -144h-172zM523 781l31 144h173l-31 -144h-173z" />
            <glyph glyph-name="Aring" unicode="&#xc5;" horiz-adv-x="740"
           d="M505 925q37 0 65 -10t46.5 -27t28 -39t9.5 -47q0 -35 -15 -65t-44 -50l108 -687h-215l-13 157h-223l-80 -157h-215l406 701q-15 16 -22 35.5t-7 42.5q0 30 10.5 56.5t32 46.5t53.5 31.5t75 11.5zM321 295h144l-20 244zM497 833q-17 0 -28 -12.5t-11 -35.5q0 -18 9 -27
t23 -9q16 0 28 11t12 38q0 17 -9.5 26t-23.5 9z" />
            <glyph glyph-name="AE" unicode="&#xc6;" horiz-adv-x="1002"
           d="M273 157l-106 -157h-216l505 720h624l-31 -148h-277l-30 -140h248l-30 -138h-248l-31 -148h277l-31 -146h-486l34 157h-202zM365 295h139l63 299z" />
            <glyph glyph-name="Ccedilla" unicode="&#xc7;" horiz-adv-x="761"
           d="M387 -35q40 -10 60 -35t20 -58q0 -65 -49.5 -102.5t-128.5 -37.5q-74 0 -118.5 33t-44.5 88v9h127q0 -14 10 -25.5t34 -11.5q20 0 31 9t11 26t-20.5 28.5t-67.5 11.5l28 93q-107 22 -164 98.5t-57 192.5q0 50 9 102.5t29.5 102.5t53 95t79.5 78.5t110 53t143 19.5
q63 0 118.5 -16.5t96.5 -49t64.5 -80t23.5 -108.5v-10h-208q0 65 -30.5 93t-76.5 28q-53 0 -90.5 -31.5t-61 -78.5t-34 -102t-10.5 -102q0 -78 31 -114t78 -36q58 0 95 35.5t60 112.5h211q-48 -142 -135 -213t-224 -77z" />
            <glyph glyph-name="Egrave" unicode="&#xc8;" horiz-adv-x="614"
           d="M572 294h-284l-31 -148h312l-30 -146h-522l153 720h522l-32 -148h-312l-30 -140h283zM556 774h-134l-128 154h188z" />
            <glyph glyph-name="Eacute" unicode="&#xc9;" horiz-adv-x="614"
           d="M572 294h-284l-31 -148h312l-30 -146h-522l153 720h522l-32 -148h-312l-30 -140h283zM481 928h200l-193 -154h-148z" />
            <glyph glyph-name="Ecircumflex" unicode="&#xca;" horiz-adv-x="614"
           d="M572 294h-284l-31 -148h312l-30 -146h-522l153 720h522l-32 -148h-312l-30 -140h283zM415 780h-182l170 154h153l104 -154h-175l-23 57z" />
            <glyph glyph-name="Edieresis" unicode="&#xcb;" horiz-adv-x="614"
           d="M572 294h-284l-31 -148h312l-30 -146h-522l153 720h522l-32 -148h-312l-30 -140h283zM241 781l31 144h172l-31 -144h-172zM479 781l31 144h173l-31 -144h-173z" />
            <glyph glyph-name="Igrave" unicode="&#xcc;" horiz-adv-x="323"
           d="M379 720l-153 -720h-209l153 720h209zM426 774h-134l-128 154h188z" />
            <glyph glyph-name="Iacute" unicode="&#xcd;" horiz-adv-x="323"
           d="M379 720l-153 -720h-209l153 720h209zM289 928h200l-193 -154h-148z" />
            <glyph glyph-name="Icircumflex" unicode="&#xce;" horiz-adv-x="323"
           d="M379 720l-153 -720h-209l153 720h209zM257 780h-182l170 154h153l104 -154h-175l-23 57z" />
            <glyph glyph-name="Idieresis" unicode="&#xcf;" horiz-adv-x="323"
           d="M379 720l-153 -720h-209l153 720h209zM84 781l31 144h172l-31 -144h-172zM322 781l31 144h173l-31 -144h-173z" />
            <glyph glyph-name="Eth" unicode="&#xd0;" horiz-adv-x="755"
           d="M437 720q156 0 244.5 -71.5t88.5 -206.5q0 -44 -7 -94t-25.5 -99t-50 -94t-80.5 -79.5t-117.5 -55t-160.5 -20.5h-311l65 308h-54l30 142h54l58 270h266zM350 578l-28 -128h97l-30 -142h-97l-35 -165h80q66 0 108.5 31t67.5 75.5t34.5 93.5t9.5 86q0 75 -38 112t-103 37
h-66z" />
            <glyph glyph-name="Ntilde" unicode="&#xd1;" horiz-adv-x="748"
           d="M804 720l-153 -720h-204l-158 448l-94 -448h-178l153 720h217l148 -426l91 426h178zM569 777q-22 0 -38.5 5.5t-31 12.5t-28 12.5t-30.5 5.5q-19 0 -41.5 -8t-56.5 -25l26 125q29 15 52.5 22t49.5 7q22 0 38 -6t30.5 -12.5t28.5 -12.5t31 -6q18 0 39 8t56 25l-27 -125
q-29 -15 -51 -21.5t-47 -6.5z" />
            <glyph glyph-name="Ograve" unicode="&#xd2;" horiz-adv-x="800"
           d="M401 132q37 0 67 15t52 39t38 56t26 65t14.5 66t4.5 60q0 42 -11.5 72t-29.5 48.5t-41.5 27t-47.5 8.5q-39 0 -69 -15.5t-53 -41.5t-38 -58.5t-25 -66t-14 -65.5t-4 -56q0 -42 11.5 -71.5t30 -47.5t42 -26.5t47.5 -8.5zM384 -15q-63 0 -121.5 18t-104.5 54.5t-73.5 93.5
t-27.5 135q0 42 7.5 91.5t26.5 99.5t50.5 96.5t79 82.5t113 57.5t152.5 21.5q61 0 119.5 -17.5t105 -54t75 -93.5t28.5 -135q0 -44 -8 -94.5t-27.5 -100.5t-51.5 -96t-80 -81.5t-113 -56.5t-150 -21zM628 774h-134l-128 154h188z" />
            <glyph glyph-name="Oacute" unicode="&#xd3;" horiz-adv-x="800"
           d="M401 132q37 0 67 15t52 39t38 56t26 65t14.5 66t4.5 60q0 42 -11.5 72t-29.5 48.5t-41.5 27t-47.5 8.5q-39 0 -69 -15.5t-53 -41.5t-38 -58.5t-25 -66t-14 -65.5t-4 -56q0 -42 11.5 -71.5t30 -47.5t42 -26.5t47.5 -8.5zM384 -15q-63 0 -121.5 18t-104.5 54.5t-73.5 93.5
t-27.5 135q0 42 7.5 91.5t26.5 99.5t50.5 96.5t79 82.5t113 57.5t152.5 21.5q61 0 119.5 -17.5t105 -54t75 -93.5t28.5 -135q0 -44 -8 -94.5t-27.5 -100.5t-51.5 -96t-80 -81.5t-113 -56.5t-150 -21zM554 928h200l-193 -154h-148z" />
            <glyph glyph-name="Ocircumflex" unicode="&#xd4;" horiz-adv-x="800"
           d="M401 132q37 0 67 15t52 39t38 56t26 65t14.5 66t4.5 60q0 42 -11.5 72t-29.5 48.5t-41.5 27t-47.5 8.5q-39 0 -69 -15.5t-53 -41.5t-38 -58.5t-25 -66t-14 -65.5t-4 -56q0 -42 11.5 -71.5t30 -47.5t42 -26.5t47.5 -8.5zM384 -15q-63 0 -121.5 18t-104.5 54.5t-73.5 93.5
t-27.5 135q0 42 7.5 91.5t26.5 99.5t50.5 96.5t79 82.5t113 57.5t152.5 21.5q61 0 119.5 -17.5t105 -54t75 -93.5t28.5 -135q0 -44 -8 -94.5t-27.5 -100.5t-51.5 -96t-80 -81.5t-113 -56.5t-150 -21zM484 780h-182l170 154h153l104 -154h-175l-23 57z" />
            <glyph glyph-name="Otilde" unicode="&#xd5;" horiz-adv-x="800"
           d="M401 132q37 0 67 15t52 39t38 56t26 65t14.5 66t4.5 60q0 42 -11.5 72t-29.5 48.5t-41.5 27t-47.5 8.5q-39 0 -69 -15.5t-53 -41.5t-38 -58.5t-25 -66t-14 -65.5t-4 -56q0 -42 11.5 -71.5t30 -47.5t42 -26.5t47.5 -8.5zM384 -15q-63 0 -121.5 18t-104.5 54.5t-73.5 93.5
t-27.5 135q0 42 7.5 91.5t26.5 99.5t50.5 96.5t79 82.5t113 57.5t152.5 21.5q61 0 119.5 -17.5t105 -54t75 -93.5t28.5 -135q0 -44 -8 -94.5t-27.5 -100.5t-51.5 -96t-80 -81.5t-113 -56.5t-150 -21zM586 777q-22 0 -38.5 5.5t-31 12.5t-28 12.5t-30.5 5.5q-19 0 -41.5 -8
t-56.5 -25l26 125q29 15 52.5 22t49.5 7q22 0 38 -6t30.5 -12.5t28.5 -12.5t31 -6q18 0 39 8t56 25l-27 -125q-29 -15 -51 -21.5t-47 -6.5z" />
            <glyph glyph-name="Odieresis" unicode="&#xd6;" horiz-adv-x="800"
           d="M401 132q37 0 67 15t52 39t38 56t26 65t14.5 66t4.5 60q0 42 -11.5 72t-29.5 48.5t-41.5 27t-47.5 8.5q-39 0 -69 -15.5t-53 -41.5t-38 -58.5t-25 -66t-14 -65.5t-4 -56q0 -42 11.5 -71.5t30 -47.5t42 -26.5t47.5 -8.5zM384 -15q-63 0 -121.5 18t-104.5 54.5t-73.5 93.5
t-27.5 135q0 42 7.5 91.5t26.5 99.5t50.5 96.5t79 82.5t113 57.5t152.5 21.5q61 0 119.5 -17.5t105 -54t75 -93.5t28.5 -135q0 -44 -8 -94.5t-27.5 -100.5t-51.5 -96t-80 -81.5t-113 -56.5t-150 -21zM319 781l31 144h172l-31 -144h-172zM557 781l31 144h173l-31 -144h-173z
" />
            <glyph glyph-name="multiply" unicode="&#xd7;"
           d="M265 529l84 -107l130 107l81 -102l-130 -107l85 -108l-120 -99l-85 107l-130 -107l-80 103l130 107l-85 107z" />
            <glyph glyph-name="Oslash" unicode="&#xd8;" horiz-adv-x="800"
           d="M384 -15q-59 0 -113 15l-73 -110h-149l112 165q-47 37 -75.5 94t-28.5 137q0 42 7.5 91.5t26.5 99.5t50.5 96.5t79 82.5t113 57.5t152.5 21.5q31 0 62 -4.5t61 -14.5l71 104h148l-111 -163q44 -37 70.5 -92t26.5 -130q0 -44 -8 -94.5t-27.5 -100.5t-51.5 -96t-80 -81.5
t-113 -56.5t-150 -21zM270 286q0 -23 4 -40t11 -31l238 363q-12 6 -25 8.5t-25 2.5q-39 0 -69 -15.5t-53 -41.5t-38 -58.5t-25 -66t-14 -65.5t-4 -56zM401 132q37 0 67 15t52 39t38 56t26 65t14.5 66t4.5 60q0 21 -4 37.5t-10 30.5l-237 -360q24 -9 49 -9z" />
            <glyph glyph-name="Ugrave" unicode="&#xd9;" horiz-adv-x="741"
           d="M373 720l-103 -482q-2 -7 -3 -13.5t-1 -12.5q0 -40 26.5 -61t72.5 -21q53 0 86.5 26t44.5 78l103 486h203l-101 -474q-26 -122 -111 -191.5t-239 -69.5q-69 0 -123.5 14.5t-92.5 42t-58 67t-20 88.5q0 25 6 54l100 469h210zM575 774h-134l-128 154h188z" />
            <glyph glyph-name="Uacute" unicode="&#xda;" horiz-adv-x="741"
           d="M373 720l-103 -482q-2 -7 -3 -13.5t-1 -12.5q0 -40 26.5 -61t72.5 -21q53 0 86.5 26t44.5 78l103 486h203l-101 -474q-26 -122 -111 -191.5t-239 -69.5q-69 0 -123.5 14.5t-92.5 42t-58 67t-20 88.5q0 25 6 54l100 469h210zM551 928h200l-193 -154h-148z" />
            <glyph glyph-name="Ucircumflex" unicode="&#xdb;" horiz-adv-x="741"
           d="M373 720l-103 -482q-2 -7 -3 -13.5t-1 -12.5q0 -40 26.5 -61t72.5 -21q53 0 86.5 26t44.5 78l103 486h203l-101 -474q-26 -122 -111 -191.5t-239 -69.5q-69 0 -123.5 14.5t-92.5 42t-58 67t-20 88.5q0 25 6 54l100 469h210zM462 780h-182l170 154h153l104 -154h-175
l-23 57z" />
            <glyph glyph-name="Udieresis" unicode="&#xdc;" horiz-adv-x="741"
           d="M373 720l-103 -482q-2 -7 -3 -13.5t-1 -12.5q0 -40 26.5 -61t72.5 -21q53 0 86.5 26t44.5 78l103 486h203l-101 -474q-26 -122 -111 -191.5t-239 -69.5q-69 0 -123.5 14.5t-92.5 42t-58 67t-20 88.5q0 25 6 54l100 469h210zM289 781l31 144h172l-31 -144h-172zM527 781
l31 144h173l-31 -144h-173z" />
            <glyph glyph-name="Yacute" unicode="&#xdd;" horiz-adv-x="724"
           d="M222 0l61 288l-170 432h219l82 -274l211 274h212l-354 -432l-61 -288h-200zM545 928h200l-193 -154h-148z" />
            <glyph glyph-name="Thorn" unicode="&#xde;" horiz-adv-x="664"
           d="M378 720l-23 -108h36q150 0 220 -54.5t70 -148.5q0 -66 -20.5 -119t-65 -90.5t-114.5 -58t-170 -20.5h-60l-26 -121h-208l153 720h208zM325 471l-44 -209h35q32 0 59.5 6.5t48 21t32 38.5t11.5 60q0 42 -27 62.5t-75 20.5h-40z" />
            <glyph glyph-name="germandbls" unicode="&#xdf;" horiz-adv-x="664"
           d="M425 -15q-102 0 -147.5 46t-45.5 121h166q-1 -5 -1 -9v-7q0 -18 9 -27t23 -9q17 0 29.5 17.5t12.5 49.5q0 24 -13.5 43.5t-47.5 38.5q-40 23 -57.5 48.5t-17.5 53.5q0 38 16 63.5t35.5 46.5t35.5 42t16 51q0 22 -15 34t-39 12q-33 0 -50.5 -23.5t-30.5 -85.5l-31 -143
l-108 -348h-158l109 516q12 54 31 95t50.5 68.5t78.5 41.5t115 14q108 0 170 -41t62 -107q0 -42 -17 -68t-38 -45t-38 -36t-17 -41q0 -14 9.5 -29.5t32.5 -29.5q51 -32 74 -67t23 -78q0 -37 -12.5 -74t-39.5 -67t-70 -48.5t-104 -18.5z" />
            <glyph glyph-name="agrave" unicode="&#xe0;" horiz-adv-x="581"
           d="M69 358q37 88 108.5 132.5t179.5 44.5q105 0 161.5 -43.5t56.5 -120.5q0 -11 -1 -23.5t-4 -25.5l-68 -322h-150l-12 58q-26 -29 -72.5 -51t-106.5 -22q-73 0 -112.5 35t-39.5 95q0 39 13 70.5t43.5 56t79.5 42t121 29.5l112 18l3 14q2 6 2 11v8q0 45 -50 45
q-25 0 -44 -13.5t-27 -37.5h-193zM250 111q32 0 60 20.5t37 56.5l10 44q-47 -9 -77 -16.5t-46.5 -16.5t-22.5 -20.5t-6 -29.5q0 -38 45 -38zM487 578h-134l-128 154h188z" />
            <glyph glyph-name="aacute" unicode="&#xe1;" horiz-adv-x="581"
           d="M69 358q37 88 108.5 132.5t179.5 44.5q105 0 161.5 -43.5t56.5 -120.5q0 -11 -1 -23.5t-4 -25.5l-68 -322h-150l-12 58q-26 -29 -72.5 -51t-106.5 -22q-73 0 -112.5 35t-39.5 95q0 39 13 70.5t43.5 56t79.5 42t121 29.5l112 18l3 14q2 6 2 11v8q0 45 -50 45
q-25 0 -44 -13.5t-27 -37.5h-193zM250 111q32 0 60 20.5t37 56.5l10 44q-47 -9 -77 -16.5t-46.5 -16.5t-22.5 -20.5t-6 -29.5q0 -38 45 -38zM431 732h200l-193 -154h-148z" />
            <glyph glyph-name="acircumflex" unicode="&#xe2;" horiz-adv-x="581"
           d="M69 358q37 88 108.5 132.5t179.5 44.5q105 0 161.5 -43.5t56.5 -120.5q0 -11 -1 -23.5t-4 -25.5l-68 -322h-150l-12 58q-26 -29 -72.5 -51t-106.5 -22q-73 0 -112.5 35t-39.5 95q0 39 13 70.5t43.5 56t79.5 42t121 29.5l112 18l3 14q2 6 2 11v8q0 45 -50 45
q-25 0 -44 -13.5t-27 -37.5h-193zM250 111q32 0 60 20.5t37 56.5l10 44q-47 -9 -77 -16.5t-46.5 -16.5t-22.5 -20.5t-6 -29.5q0 -38 45 -38zM344 584h-182l170 154h153l104 -154h-175l-23 57z" />
            <glyph glyph-name="atilde" unicode="&#xe3;" horiz-adv-x="581"
           d="M69 358q37 88 108.5 132.5t179.5 44.5q105 0 161.5 -43.5t56.5 -120.5q0 -11 -1 -23.5t-4 -25.5l-68 -322h-150l-12 58q-26 -29 -72.5 -51t-106.5 -22q-73 0 -112.5 35t-39.5 95q0 39 13 70.5t43.5 56t79.5 42t121 29.5l112 18l3 14q2 6 2 11v8q0 45 -50 45
q-25 0 -44 -13.5t-27 -37.5h-193zM250 111q32 0 60 20.5t37 56.5l10 44q-47 -9 -77 -16.5t-46.5 -16.5t-22.5 -20.5t-6 -29.5q0 -38 45 -38zM441 581q-22 0 -38.5 5.5t-31 12.5t-28 12.5t-30.5 5.5q-19 0 -41.5 -8t-56.5 -25l26 125q29 15 52.5 22t49.5 7q22 0 38 -6
t30.5 -12.5t28.5 -12.5t31 -6q18 0 39 8t56 25l-27 -125q-29 -15 -51 -21.5t-47 -6.5z" />
            <glyph glyph-name="adieresis" unicode="&#xe4;" horiz-adv-x="581"
           d="M69 358q37 88 108.5 132.5t179.5 44.5q105 0 161.5 -43.5t56.5 -120.5q0 -11 -1 -23.5t-4 -25.5l-68 -322h-150l-12 58q-26 -29 -72.5 -51t-106.5 -22q-73 0 -112.5 35t-39.5 95q0 39 13 70.5t43.5 56t79.5 42t121 29.5l112 18l3 14q2 6 2 11v8q0 45 -50 45
q-25 0 -44 -13.5t-27 -37.5h-193zM250 111q32 0 60 20.5t37 56.5l10 44q-47 -9 -77 -16.5t-46.5 -16.5t-22.5 -20.5t-6 -29.5q0 -38 45 -38zM164 585l31 144h172l-31 -144h-172zM402 585l31 144h173l-31 -144h-173z" />
            <glyph glyph-name="aring" unicode="&#xe5;" horiz-adv-x="581"
           d="M69 358q37 88 108.5 132.5t179.5 44.5q105 0 161.5 -43.5t56.5 -120.5q0 -11 -1 -23.5t-4 -25.5l-68 -322h-150l-12 58q-26 -29 -72.5 -51t-106.5 -22q-73 0 -112.5 35t-39.5 95q0 39 13 70.5t43.5 56t79.5 42t121 29.5l112 18l3 14q2 6 2 11v8q0 45 -50 45
q-25 0 -44 -13.5t-27 -37.5h-193zM250 111q32 0 60 20.5t37 56.5l10 44q-47 -9 -77 -16.5t-46.5 -16.5t-22.5 -20.5t-6 -29.5q0 -38 45 -38zM401 747q-17 0 -28 -12t-11 -35q0 -18 9 -27.5t23 -9.5q16 0 27.5 11.5t11.5 37.5q0 18 -9 26.5t-23 8.5zM408 840q37 0 65.5 -10
t47 -27t28 -39.5t9.5 -47.5q0 -30 -11 -56.5t-32.5 -46t-53.5 -31t-74 -11.5q-38 0 -65.5 10t-46.5 26.5t-28 39t-9 47.5q0 30 10.5 56.5t32 46.5t53.5 31.5t74 11.5z" />
            <glyph glyph-name="ae" unicode="&#xe6;" horiz-adv-x="939"
           d="M902 165q-18 -39 -44.5 -72t-63.5 -57t-85 -37.5t-108 -13.5q-72 0 -125.5 27.5t-83.5 74.5q-84 -102 -223 -102q-79 0 -119.5 34.5t-40.5 94.5q0 39 13 71t43.5 56.5t79.5 42t121 29.5l112 18l4 18q2 10 2 15q0 22 -13.5 33.5t-36.5 11.5q-27 0 -45 -13.5t-26 -37.5
h-194q38 88 109 132.5t180 44.5q49 0 88.5 -12.5t68.5 -34.5q35 22 75.5 34.5t87.5 12.5q54 0 99.5 -15t78.5 -44t51.5 -72t18.5 -100q0 -41 -9 -86h-367q-1 -5 -1 -9v-9q0 -45 22 -64.5t58 -19.5q29 0 48.5 14t27.5 35h197zM672 413q-31 0 -56 -21t-42 -73h167q2 7 2 12v10
q0 38 -19 55t-52 17zM249 111q38 0 65 23.5t34 55.5l9 42q-47 -8 -76.5 -15.5t-46.5 -17t-23 -21.5t-6 -29t11.5 -27.5t32.5 -10.5z" />
            <glyph glyph-name="ccedilla" unicode="&#xe7;" horiz-adv-x="606"
           d="M311 -35q40 -9 60 -34.5t20 -57.5q0 -66 -49.5 -103t-128.5 -37q-74 0 -118.5 32.5t-44.5 88.5v9h127q0 -14 10 -26t33 -12q20 0 31.5 9.5t11.5 26.5t-20.5 28t-67.5 11l28 93q-85 16 -127 70t-42 135q0 54 16.5 113.5t54.5 109t101.5 82t158.5 32.5q55 0 100 -14t77 -40
t49.5 -62.5t18.5 -81.5h-199v8q0 29 -17.5 42t-40.5 13q-36 0 -59 -22t-36.5 -53.5t-19 -65t-5.5 -57.5q0 -45 20 -66.5t43 -21.5q28 0 50 21t36 60h199q-17 -41 -41 -77t-57 -63.5t-75 -45t-94 -21.5z" />
            <glyph glyph-name="egrave" unicode="&#xe8;" horiz-adv-x="619"
           d="M581 165q-17 -38 -43.5 -71t-63 -57t-83.5 -38t-105 -14q-57 0 -103 16.5t-78.5 46.5t-50 72t-17.5 93q0 58 19.5 115.5t59 103.5t100 74.5t142.5 28.5q54 0 99.5 -15t78.5 -44t51.5 -72t18.5 -100q0 -42 -10 -86h-366q-1 -5 -1 -9v-9q0 -45 22 -64t58 -19
q29 0 48.5 13.5t27.5 34.5h196zM351 414q-30 0 -56 -21.5t-43 -72.5h167q2 7 2 13v12q0 35 -18.5 52t-51.5 17zM481 578h-134l-128 154h188z" />
            <glyph glyph-name="eacute" unicode="&#xe9;" horiz-adv-x="619"
           d="M581 165q-17 -38 -43.5 -71t-63 -57t-83.5 -38t-105 -14q-57 0 -103 16.5t-78.5 46.5t-50 72t-17.5 93q0 58 19.5 115.5t59 103.5t100 74.5t142.5 28.5q54 0 99.5 -15t78.5 -44t51.5 -72t18.5 -100q0 -42 -10 -86h-366q-1 -5 -1 -9v-9q0 -45 22 -64t58 -19
q29 0 48.5 13.5t27.5 34.5h196zM351 414q-30 0 -56 -21.5t-43 -72.5h167q2 7 2 13v12q0 35 -18.5 52t-51.5 17zM424 732h200l-193 -154h-148z" />
            <glyph glyph-name="ecircumflex" unicode="&#xea;" horiz-adv-x="619"
           d="M581 165q-17 -38 -43.5 -71t-63 -57t-83.5 -38t-105 -14q-57 0 -103 16.5t-78.5 46.5t-50 72t-17.5 93q0 58 19.5 115.5t59 103.5t100 74.5t142.5 28.5q54 0 99.5 -15t78.5 -44t51.5 -72t18.5 -100q0 -42 -10 -86h-366q-1 -5 -1 -9v-9q0 -45 22 -64t58 -19
q29 0 48.5 13.5t27.5 34.5h196zM351 414q-30 0 -56 -21.5t-43 -72.5h167q2 7 2 13v12q0 35 -18.5 52t-51.5 17zM353 584h-182l170 154h153l104 -154h-175l-23 57z" />
            <glyph glyph-name="edieresis" unicode="&#xeb;" horiz-adv-x="619"
           d="M581 165q-17 -38 -43.5 -71t-63 -57t-83.5 -38t-105 -14q-57 0 -103 16.5t-78.5 46.5t-50 72t-17.5 93q0 58 19.5 115.5t59 103.5t100 74.5t142.5 28.5q54 0 99.5 -15t78.5 -44t51.5 -72t18.5 -100q0 -42 -10 -86h-366q-1 -5 -1 -9v-9q0 -45 22 -64t58 -19
q29 0 48.5 13.5t27.5 34.5h196zM351 414q-30 0 -56 -21.5t-43 -72.5h167q2 7 2 13v12q0 35 -18.5 52t-51.5 17zM180 585l31 144h172l-31 -144h-172zM418 585l31 144h173l-31 -144h-173z" />
            <glyph glyph-name="igrave" unicode="&#xec;" horiz-adv-x="295"
           d="M362 578h-134l-128 154h188zM11 0l110 520h193l-110 -520h-193z" />
            <glyph glyph-name="iacute" unicode="&#xed;" horiz-adv-x="295"
           d="M235 732h200l-193 -154h-148zM11 0l110 520h193l-110 -520h-193z" />
            <glyph glyph-name="icircumflex" unicode="&#xee;" horiz-adv-x="295"
           d="M11 0l110 520h193l-110 -520h-193zM201 584h-182l170 154h153l104 -154h-175l-23 57z" />
            <glyph glyph-name="idieresis" unicode="&#xef;" horiz-adv-x="295"
           d="M27 585l31 144h172l-31 -144h-172zM265 585l31 144h173l-31 -144h-173zM11 0l110 520h193l-110 -520h-193z" />
            <glyph glyph-name="eth" unicode="&#xf0;" horiz-adv-x="589"
           d="M223 753q54 -5 103.5 -18.5t91.5 -35.5l25 21h151l-95 -79q48 -45 73.5 -108.5t25.5 -137.5q0 -63 -16.5 -134.5t-55.5 -133t-102 -102t-156 -40.5q-51 0 -94 14.5t-74.5 42t-49.5 67.5t-18 92q0 63 20.5 115.5t57 89.5t86.5 57.5t110 20.5q12 0 25 -2t26 -6t23 -9
t16 -11q-5 26 -11 42t-17 33l-17 -14h-151l90 75q-22 11 -46.5 19t-48.5 13zM325 354q-26 0 -43.5 -17t-28 -42t-15.5 -53.5t-5 -51.5q0 -35 13 -54.5t39 -19.5q22 0 39 16t29 39.5t18 50.5t6 49q0 37 -11.5 60t-40.5 23z" />
            <glyph glyph-name="ntilde" unicode="&#xf1;" horiz-adv-x="607"
           d="M116 520h164l3 -58q35 35 79.5 54t86.5 19q72 0 113 -38.5t41 -110.5q0 -14 -1.5 -30.5t-5.5 -33.5l-69 -322h-194l69 322q2 7 3 15t1 15q0 25 -14 37.5t-36 12.5q-36 0 -60 -26t-32 -68l-65 -308h-193zM458 581q-22 0 -38.5 5.5t-31 12.5t-28 12.5t-30.5 5.5
q-19 0 -41.5 -8t-56.5 -25l26 125q29 15 52.5 22t49.5 7q22 0 38 -6t30.5 -12.5t28.5 -12.5t31 -6q18 0 39 8t56 25l-27 -125q-29 -15 -51 -21.5t-47 -6.5z" />
            <glyph glyph-name="ograve" unicode="&#xf2;" horiz-adv-x="629"
           d="M361 535q57 0 105.5 -14t83 -42t54 -69t19.5 -95q0 -63 -18.5 -122.5t-58.5 -105.5t-102 -74t-149 -28q-56 0 -103.5 14.5t-82 42.5t-54 69.5t-19.5 96.5q0 33 6 70t20.5 73t38.5 69.5t60 59t85.5 40.5t114.5 15zM351 407q-37 0 -60 -24.5t-35.5 -57.5t-17 -67.5
t-4.5 -55.5q0 -47 20 -68t57 -21t59.5 24.5t35 58.5t17 69.5t4.5 57.5q0 45 -19.5 64.5t-56.5 19.5zM492 578h-134l-128 154h188z" />
            <glyph glyph-name="oacute" unicode="&#xf3;" horiz-adv-x="629"
           d="M361 535q57 0 105.5 -14t83 -42t54 -69t19.5 -95q0 -63 -18.5 -122.5t-58.5 -105.5t-102 -74t-149 -28q-56 0 -103.5 14.5t-82 42.5t-54 69.5t-19.5 96.5q0 33 6 70t20.5 73t38.5 69.5t60 59t85.5 40.5t114.5 15zM351 407q-37 0 -60 -24.5t-35.5 -57.5t-17 -67.5
t-4.5 -55.5q0 -47 20 -68t57 -21t59.5 24.5t35 58.5t17 69.5t4.5 57.5q0 45 -19.5 64.5t-56.5 19.5zM428 732h200l-193 -154h-148z" />
            <glyph glyph-name="ocircumflex" unicode="&#xf4;" horiz-adv-x="629"
           d="M361 535q57 0 105.5 -14t83 -42t54 -69t19.5 -95q0 -63 -18.5 -122.5t-58.5 -105.5t-102 -74t-149 -28q-56 0 -103.5 14.5t-82 42.5t-54 69.5t-19.5 96.5q0 33 6 70t20.5 73t38.5 69.5t60 59t85.5 40.5t114.5 15zM351 407q-37 0 -60 -24.5t-35.5 -57.5t-17 -67.5
t-4.5 -55.5q0 -47 20 -68t57 -21t59.5 24.5t35 58.5t17 69.5t4.5 57.5q0 45 -19.5 64.5t-56.5 19.5zM353 584h-182l170 154h153l104 -154h-175l-23 57z" />
            <glyph glyph-name="otilde" unicode="&#xf5;" horiz-adv-x="629"
           d="M361 535q57 0 105.5 -14t83 -42t54 -69t19.5 -95q0 -63 -18.5 -122.5t-58.5 -105.5t-102 -74t-149 -28q-56 0 -103.5 14.5t-82 42.5t-54 69.5t-19.5 96.5q0 33 6 70t20.5 73t38.5 69.5t60 59t85.5 40.5t114.5 15zM351 407q-37 0 -60 -24.5t-35.5 -57.5t-17 -67.5
t-4.5 -55.5q0 -47 20 -68t57 -21t59.5 24.5t35 58.5t17 69.5t4.5 57.5q0 45 -19.5 64.5t-56.5 19.5zM457 581q-22 0 -38.5 5.5t-31 12.5t-28 12.5t-30.5 5.5q-19 0 -41.5 -8t-56.5 -25l26 125q29 15 52.5 22t49.5 7q22 0 38 -6t30.5 -12.5t28.5 -12.5t31 -6q18 0 39 8t56 25
l-27 -125q-29 -15 -51 -21.5t-47 -6.5z" />
            <glyph glyph-name="odieresis" unicode="&#xf6;" horiz-adv-x="629"
           d="M361 535q57 0 105.5 -14t83 -42t54 -69t19.5 -95q0 -63 -18.5 -122.5t-58.5 -105.5t-102 -74t-149 -28q-56 0 -103.5 14.5t-82 42.5t-54 69.5t-19.5 96.5q0 33 6 70t20.5 73t38.5 69.5t60 59t85.5 40.5t114.5 15zM351 407q-37 0 -60 -24.5t-35.5 -57.5t-17 -67.5
t-4.5 -55.5q0 -47 20 -68t57 -21t59.5 24.5t35 58.5t17 69.5t4.5 57.5q0 45 -19.5 64.5t-56.5 19.5zM179 585l31 144h172l-31 -144h-172zM417 585l31 144h173l-31 -144h-173z" />
            <glyph glyph-name="divide" unicode="&#xf7;"
           d="M181 60l34 158h183l-34 -158h-183zM258 422l33 158h183l-34 -158h-182zM539 250h-452l29 140h453z" />
            <glyph glyph-name="oslash" unicode="&#xf8;" horiz-adv-x="629"
           d="M361 535q47 0 91 -11l75 106h135l-110 -155q34 -28 52 -68t18 -92q0 -63 -18.5 -122.5t-58.5 -105.5t-101.5 -74t-148.5 -28q-46 0 -87 11l-74 -106h-138l110 153q-33 29 -52 69.5t-19 94.5q0 49 14 106.5t50.5 106.5t100 82t161.5 33zM351 406q-35 0 -57.5 -20.5
t-35.5 -49t-18.5 -60t-5.5 -53.5v-20q0 -10 2 -18l151 215q-17 6 -36 6zM427 310v14q0 9 -1 14l-151 -219q15 -6 36 -6q35 0 57.5 24.5t35.5 57t18 65.5t5 50z" />
            <glyph glyph-name="ugrave" unicode="&#xf9;"
           d="M302 520l-67 -319q-2 -8 -3.5 -19t-1.5 -14q0 -23 13 -36.5t36 -13.5q35 0 57 26.5t31 68.5l65 307h192l-110 -520h-163l-4 53q-32 -32 -72 -50t-90 -18q-74 0 -113 38.5t-39 108.5q0 28 8 66l68 322h193zM456 578h-134l-128 154h188z" />
            <glyph glyph-name="uacute" unicode="&#xfa;"
           d="M302 520l-67 -319q-2 -8 -3.5 -19t-1.5 -14q0 -23 13 -36.5t36 -13.5q35 0 57 26.5t31 68.5l65 307h192l-110 -520h-163l-4 53q-32 -32 -72 -50t-90 -18q-74 0 -113 38.5t-39 108.5q0 28 8 66l68 322h193zM440 732h200l-193 -154h-148z" />
            <glyph glyph-name="ucircumflex" unicode="&#xfb;"
           d="M302 520l-67 -319q-2 -8 -3.5 -19t-1.5 -14q0 -23 13 -36.5t36 -13.5q35 0 57 26.5t31 68.5l65 307h192l-110 -520h-163l-4 53q-32 -32 -72 -50t-90 -18q-74 0 -113 38.5t-39 108.5q0 28 8 66l68 322h193zM346 584h-182l170 154h153l104 -154h-175l-23 57z" />
            <glyph glyph-name="udieresis" unicode="&#xfc;"
           d="M302 520l-67 -319q-2 -8 -3.5 -19t-1.5 -14q0 -23 13 -36.5t36 -13.5q35 0 57 26.5t31 68.5l65 307h192l-110 -520h-163l-4 53q-32 -32 -72 -50t-90 -18q-74 0 -113 38.5t-39 108.5q0 28 8 66l68 322h193zM175 585l31 144h172l-31 -144h-172zM413 585l31 144h173
l-31 -144h-173z" />
            <glyph glyph-name="yacute" unicode="&#xfd;" horiz-adv-x="594"
           d="M665 520l-300 -527q-32 -55 -59 -91.5t-54.5 -58t-58 -30t-67.5 -8.5q-22 0 -50 4t-57 12l28 130q29 -9 45 -11.5t26 -2.5q22 0 37.5 13.5t33.5 49.5h-36l-83 520h200l13 -382l181 382h201zM447 732h200l-193 -154h-148z" />
            <glyph glyph-name="thorn" unicode="&#xfe;" horiz-adv-x="641"
           d="M-33 -180l192 900h194l-54 -253q33 32 73 50t87 18q83 0 131.5 -51.5t48.5 -144.5q0 -58 -16.5 -120.5t-52 -114.5t-90.5 -85.5t-132 -33.5q-42 0 -78.5 15.5t-59.5 43.5l-48 -224h-195zM369 397q-36 0 -59.5 -20.5t-38 -49.5t-20.5 -61t-6 -56q0 -44 19.5 -65.5
t54.5 -21.5q36 0 60 21.5t38 51t19.5 61t5.5 51.5q0 45 -20.5 67t-52.5 22z" />
            <glyph glyph-name="ydieresis" unicode="&#xff;" horiz-adv-x="594"
           d="M665 520l-300 -527q-32 -55 -59 -91.5t-54.5 -58t-58 -30t-67.5 -8.5q-22 0 -50 4t-57 12l28 130q29 -9 45 -11.5t26 -2.5q22 0 37.5 13.5t33.5 49.5h-36l-83 520h200l13 -382l181 382h201zM176 585l31 144h172l-31 -144h-172zM414 585l31 144h173l-31 -144h-173z" />
            <glyph glyph-name="Amacron" unicode="&#x100;" horiz-adv-x="740"
           d="M487 0l-13 157h-223l-79 -157h-215l417 720h216l113 -720h-216zM320 295h144l-19 244zM347 787l27 128h289l-27 -128h-289z" />
            <glyph glyph-name="amacron" unicode="&#x101;" horiz-adv-x="581"
           d="M69 358q37 88 108.5 132.5t179.5 44.5q105 0 161.5 -43.5t56.5 -120.5q0 -11 -1 -23.5t-4 -25.5l-68 -322h-150l-12 58q-26 -29 -72.5 -51t-106.5 -22q-73 0 -112.5 35t-39.5 95q0 39 13 70.5t43.5 56t79.5 42t121 29.5l112 18l3 14q2 6 2 11v8q0 45 -50 45
q-25 0 -44 -13.5t-27 -37.5h-193zM250 111q32 0 60 20.5t37 56.5l10 44q-47 -9 -77 -16.5t-46.5 -16.5t-22.5 -20.5t-6 -29.5q0 -38 45 -38zM238 591l27 128h289l-27 -128h-289z" />
            <glyph glyph-name="Abreve" unicode="&#x102;" horiz-adv-x="740"
           d="M487 0l-13 157h-223l-79 -157h-215l417 720h216l113 -720h-216zM320 295h144l-19 244zM501 773q-69 0 -109.5 31.5t-40.5 97.5q0 6 0.5 11.5t1.5 11.5h138q-1 -5 -1.5 -10t-0.5 -9q0 -31 25 -31q30 0 42 50h139q-26 -81 -74.5 -116.5t-119.5 -35.5z" />
            <glyph glyph-name="abreve" unicode="&#x103;" horiz-adv-x="581"
           d="M69 358q37 88 108.5 132.5t179.5 44.5q105 0 161.5 -43.5t56.5 -120.5q0 -11 -1 -23.5t-4 -25.5l-68 -322h-150l-12 58q-26 -29 -72.5 -51t-106.5 -22q-73 0 -112.5 35t-39.5 95q0 39 13 70.5t43.5 56t79.5 42t121 29.5l112 18l3 14q2 6 2 11v8q0 45 -50 45
q-25 0 -44 -13.5t-27 -37.5h-193zM250 111q32 0 60 20.5t37 56.5l10 44q-47 -9 -77 -16.5t-46.5 -16.5t-22.5 -20.5t-6 -29.5q0 -38 45 -38zM380 577q-69 0 -109.5 31.5t-40.5 97.5q0 6 0.5 11.5t1.5 11.5h138q-1 -5 -1.5 -10t-0.5 -9q0 -31 25 -31q30 0 42 50h139
q-26 -81 -74.5 -116.5t-119.5 -35.5z" />
            <glyph glyph-name="Aogonek" unicode="&#x104;" horiz-adv-x="740"
           d="M490 -263q-67 0 -105.5 30.5t-38.5 80.5q0 51 37.5 92t102.5 66l-12 151h-223l-79 -157h-215l417 720h216l113 -720h-106q-22 -11 -43.5 -25t-39 -30.5t-28 -35.5t-10.5 -40q0 -20 11.5 -29.5t25.5 -9.5q25 0 37 26h132q-11 -24 -28 -45.5t-40 -38t-54 -26t-70 -9.5z
M320 295h144l-19 244z" />
            <glyph glyph-name="aogonek" unicode="&#x105;" horiz-adv-x="581"
           d="M539 -144q-12 -24 -28.5 -45.5t-40 -38t-54 -26t-69.5 -9.5q-67 0 -106 31t-39 80q0 52 40 94t108 67l-10 49q-26 -29 -72.5 -51t-106.5 -22q-73 0 -112.5 35t-39.5 95q0 39 13 70.5t43.5 56t79.5 42t121 29.5l112 18l2 9q3 13 3 24q0 45 -50 45q-25 0 -44 -13.5
t-27 -37.5h-193q37 88 108.5 132.5t179.5 44.5q105 0 161.5 -43.5t56.5 -120.5q0 -11 -1 -23.5t-4 -25.5q-17 -81 -34 -161t-34 -161h-49q-22 -11 -43.5 -24.5t-38.5 -30t-27.5 -35.5t-10.5 -40q0 -20 11 -29.5t25 -9.5q26 0 37 25h133zM250 111q32 0 60 20.5t37 56.5l10 44
q-47 -9 -77 -16.5t-46.5 -16.5t-22.5 -20.5t-6 -29.5q0 -38 45 -38z" />
            <glyph glyph-name="Cacute" unicode="&#x106;" horiz-adv-x="761"
           d="M383 128q58 0 95 35.5t60 112.5h211q-50 -148 -144 -219.5t-243 -71.5q-73 0 -129.5 21t-95.5 60t-59 94.5t-20 123.5q0 50 9 102.5t29.5 102.5t53 95t79.5 78.5t110 53t143 19.5q63 0 118.5 -16.5t96.5 -49t64.5 -80t23.5 -108.5v-10h-208q0 65 -30.5 93t-76.5 28
q-53 0 -90.5 -31.5t-61 -78.5t-34 -102t-10.5 -102q0 -78 31 -114t78 -36zM544 928h200l-193 -154h-148z" />
            <glyph glyph-name="cacute" unicode="&#x107;" horiz-adv-x="606"
           d="M581 195q-18 -45 -45 -83t-64.5 -66.5t-85.5 -44.5t-108 -16q-122 0 -183 57.5t-61 155.5q0 54 16.5 113.5t54.5 109t101.5 82t158.5 32.5q55 0 100 -14t77 -40t49.5 -62.5t18.5 -81.5h-199q0 35 -16.5 51.5t-43.5 16.5q-35 0 -57.5 -22.5t-36 -54.5t-19 -67t-5.5 -59
q0 -45 18.5 -66.5t44.5 -21.5q28 0 50 21t36 60h199zM428 732h200l-193 -154h-148z" />
            <glyph glyph-name="Ccircumflex" unicode="&#x108;" horiz-adv-x="761"
           d="M383 128q58 0 95 35.5t60 112.5h211q-50 -148 -144 -219.5t-243 -71.5q-73 0 -129.5 21t-95.5 60t-59 94.5t-20 123.5q0 50 9 102.5t29.5 102.5t53 95t79.5 78.5t110 53t143 19.5q63 0 118.5 -16.5t96.5 -49t64.5 -80t23.5 -108.5v-10h-208q0 65 -30.5 93t-76.5 28
q-53 0 -90.5 -31.5t-61 -78.5t-34 -102t-10.5 -102q0 -78 31 -114t78 -36zM477 780h-182l170 154h153l104 -154h-175l-23 57z" />
            <glyph glyph-name="ccircumflex" unicode="&#x109;" horiz-adv-x="606"
           d="M581 195q-18 -45 -45 -83t-64.5 -66.5t-85.5 -44.5t-108 -16q-122 0 -183 57.5t-61 155.5q0 54 16.5 113.5t54.5 109t101.5 82t158.5 32.5q55 0 100 -14t77 -40t49.5 -62.5t18.5 -81.5h-199q0 35 -16.5 51.5t-43.5 16.5q-35 0 -57.5 -22.5t-36 -54.5t-19 -67t-5.5 -59
q0 -45 18.5 -66.5t44.5 -21.5q28 0 50 21t36 60h199zM347 584h-182l170 154h153l104 -154h-175l-23 57z" />
            <glyph glyph-name="Cdotaccent" unicode="&#x10a;" horiz-adv-x="761"
           d="M383 128q58 0 95 35.5t60 112.5h211q-50 -148 -144 -219.5t-243 -71.5q-73 0 -129.5 21t-95.5 60t-59 94.5t-20 123.5q0 50 9 102.5t29.5 102.5t53 95t79.5 78.5t110 53t143 19.5q63 0 118.5 -16.5t96.5 -49t64.5 -80t23.5 -108.5v-10h-208q0 65 -30.5 93t-76.5 28
q-53 0 -90.5 -31.5t-61 -78.5t-34 -102t-10.5 -102q0 -78 31 -114t78 -36zM407 779l32 146h204l-32 -146h-204z" />
            <glyph glyph-name="cdotaccent" unicode="&#x10b;" horiz-adv-x="606"
           d="M581 195q-18 -45 -45 -83t-64.5 -66.5t-85.5 -44.5t-108 -16q-122 0 -183 57.5t-61 155.5q0 54 16.5 113.5t54.5 109t101.5 82t158.5 32.5q55 0 100 -14t77 -40t49.5 -62.5t18.5 -81.5h-199q0 35 -16.5 51.5t-43.5 16.5q-35 0 -57.5 -22.5t-36 -54.5t-19 -67t-5.5 -59
q0 -45 18.5 -66.5t44.5 -21.5q28 0 50 21t36 60h199zM280 583l32 146h204l-32 -146h-204z" />
            <glyph glyph-name="Ccaron" unicode="&#x10c;" horiz-adv-x="761"
           d="M383 128q58 0 95 35.5t60 112.5h211q-50 -148 -144 -219.5t-243 -71.5q-73 0 -129.5 21t-95.5 60t-59 94.5t-20 123.5q0 50 9 102.5t29.5 102.5t53 95t79.5 78.5t110 53t143 19.5q63 0 118.5 -16.5t96.5 -49t64.5 -80t23.5 -108.5v-10h-208q0 65 -30.5 93t-76.5 28
q-53 0 -90.5 -31.5t-61 -78.5t-34 -102t-10.5 -102q0 -78 31 -114t78 -36zM525 881l47 53h181l-170 -154h-153l-104 154h176z" />
            <glyph glyph-name="ccaron" unicode="&#x10d;" horiz-adv-x="606"
           d="M581 195q-18 -45 -45 -83t-64.5 -66.5t-85.5 -44.5t-108 -16q-122 0 -183 57.5t-61 155.5q0 54 16.5 113.5t54.5 109t101.5 82t158.5 32.5q55 0 100 -14t77 -40t49.5 -62.5t18.5 -81.5h-199q0 35 -16.5 51.5t-43.5 16.5q-35 0 -57.5 -22.5t-36 -54.5t-19 -67t-5.5 -59
q0 -45 18.5 -66.5t44.5 -21.5q28 0 50 21t36 60h199zM403 685l47 53h181l-170 -154h-153l-104 154h176z" />
            <glyph glyph-name="Dcaron" unicode="&#x10e;" horiz-adv-x="755"
           d="M437 720q78 0 139.5 -18t104 -53.5t65.5 -87.5t23 -119q0 -44 -7 -94t-25 -99t-49.5 -94t-80.5 -79.5t-118 -55t-161 -20.5h-311l153 720h267zM349 578l-93 -435h80q66 0 109 31t67.5 75.5t34 93.5t9.5 86q0 75 -38 112t-103 37h-66zM481 881l47 53h181l-170 -154h-153
l-104 154h176z" />
            <glyph glyph-name="dcaron" unicode="&#x10f;" horiz-adv-x="854"
           d="M404 0l-17 63q-35 -34 -78.5 -56t-92.5 -22q-84 0 -133.5 54.5t-49.5 149.5q0 34 7 73t21.5 77.5t37 74t54 62.5t72.5 43t91 16q48 0 87.5 -17.5t60.5 -46.5l53 249h194l-153 -720h-154zM354 397q-35 0 -58.5 -19.5t-37.5 -47t-20 -58.5t-6 -55q0 -46 21 -70t54 -24
q34 0 57.5 21t37.5 51t20.5 62t6.5 54q0 47 -22.5 66.5t-52.5 19.5zM922 601q-10 -49 -29 -83.5t-47.5 -57.5t-67.5 -36t-88 -18l17 82q37 7 60.5 27.5t31.5 56.5h-49l32 148h165z" />
            <glyph glyph-name="Dcroat" unicode="&#x110;" horiz-adv-x="755"
           d="M437 720q156 0 244.5 -71.5t88.5 -206.5q0 -44 -7 -94t-25.5 -99t-50 -94t-80.5 -79.5t-117.5 -55t-160.5 -20.5h-311l65 308h-54l30 142h54l58 270h266zM350 578l-28 -128h97l-30 -142h-97l-35 -165h80q66 0 108.5 31t67.5 75.5t34.5 93.5t9.5 86q0 75 -38 112t-103 37
h-66z" />
            <glyph glyph-name="dcroat" unicode="&#x111;" horiz-adv-x="653"
           d="M404 0l-17 63q-35 -34 -78.5 -56t-92.5 -22q-84 0 -133.5 54.5t-49.5 149.5q0 34 7 73t21.5 77.5t37 74t54 62.5t72.5 43t91 16q48 0 87.5 -17.5t60.5 -46.5l18 86h-94l27 130h95l7 33h194l-8 -33h43l-27 -130h-43l-118 -557h-154zM354 397q-35 0 -58.5 -19.5t-37.5 -47
t-20 -58.5t-6 -55q0 -46 21 -70t54 -24q34 0 57.5 21t38 51t20.5 62t6 54q0 47 -22.5 66.5t-52.5 19.5z" />
            <glyph glyph-name="Emacron" unicode="&#x112;" horiz-adv-x="614"
           d="M572 294h-284l-31 -148h312l-30 -146h-522l153 720h522l-32 -148h-312l-30 -140h283zM300 787l27 128h289l-27 -128h-289z" />
            <glyph glyph-name="emacron" unicode="&#x113;" horiz-adv-x="619"
           d="M581 165q-17 -38 -43.5 -71t-63 -57t-83.5 -38t-105 -14q-57 0 -103 16.5t-78.5 46.5t-50 72t-17.5 93q0 58 19.5 115.5t59 103.5t100 74.5t142.5 28.5q54 0 99.5 -15t78.5 -44t51.5 -72t18.5 -100q0 -42 -10 -86h-366q-1 -5 -1 -9v-9q0 -45 22 -64t58 -19
q29 0 48.5 13.5t27.5 34.5h196zM351 414q-30 0 -56 -21.5t-43 -72.5h167q2 7 2 13v12q0 35 -18.5 52t-51.5 17zM250 591l27 128h289l-27 -128h-289z" />
            <glyph glyph-name="Ebreve" unicode="&#x114;" horiz-adv-x="614"
           d="M572 294h-284l-31 -148h312l-30 -146h-522l153 720h522l-32 -148h-312l-30 -140h283zM443 773q-69 0 -109.5 31.5t-40.5 97.5q0 6 0.5 11.5t1.5 11.5h138q-1 -5 -1.5 -10t-0.5 -9q0 -31 25 -31q30 0 42 50h139q-26 -81 -74.5 -116.5t-119.5 -35.5z" />
            <glyph glyph-name="ebreve" unicode="&#x115;" horiz-adv-x="619"
           d="M581 165q-17 -38 -43.5 -71t-63 -57t-83.5 -38t-105 -14q-57 0 -103 16.5t-78.5 46.5t-50 72t-17.5 93q0 58 19.5 115.5t59 103.5t100 74.5t142.5 28.5q54 0 99.5 -15t78.5 -44t51.5 -72t18.5 -100q0 -42 -10 -86h-366q-1 -5 -1 -9v-9q0 -45 22 -64t58 -19
q29 0 48.5 13.5t27.5 34.5h196zM351 414q-30 0 -56 -21.5t-43 -72.5h167q2 7 2 13v12q0 35 -18.5 52t-51.5 17zM380 577q-69 0 -109.5 31.5t-40.5 97.5q0 6 0.5 11.5t1.5 11.5h138q-1 -5 -1.5 -10t-0.5 -9q0 -31 25 -31q30 0 42 50h139q-26 -81 -74.5 -116.5t-119.5 -35.5z
" />
            <glyph glyph-name="Edotaccent" unicode="&#x116;" horiz-adv-x="614"
           d="M572 294h-284l-31 -148h312l-30 -146h-522l153 720h522l-32 -148h-312l-30 -140h283zM346 779l32 146h204l-32 -146h-204z" />
            <glyph glyph-name="edotaccent" unicode="&#x117;" horiz-adv-x="619"
           d="M581 165q-17 -38 -43.5 -71t-63 -57t-83.5 -38t-105 -14q-57 0 -103 16.5t-78.5 46.5t-50 72t-17.5 93q0 58 19.5 115.5t59 103.5t100 74.5t142.5 28.5q54 0 99.5 -15t78.5 -44t51.5 -72t18.5 -100q0 -42 -10 -86h-366q-1 -5 -1 -9v-9q0 -45 22 -64t58 -19
q29 0 48.5 13.5t27.5 34.5h196zM351 414q-30 0 -56 -21.5t-43 -72.5h167q2 7 2 13v12q0 35 -18.5 52t-51.5 17zM286 583l32 146h204l-32 -146h-204z" />
            <glyph glyph-name="Eogonek" unicode="&#x118;" horiz-adv-x="614"
           d="M300 -263q-67 0 -105.5 30.5t-38.5 80.5q0 48 34 87t92 65h-265l153 720h522l-32 -148h-312l-30 -140h283l-29 -138h-284l-31 -148h312l-30 -146h-132q-22 -11 -43.5 -25t-39 -30.5t-28 -35.5t-10.5 -40q0 -20 11.5 -29.5t25.5 -9.5q26 0 37 26h132q-11 -24 -28 -45.5
t-40 -38t-54 -26t-70 -9.5z" />
            <glyph glyph-name="eogonek" unicode="&#x119;" horiz-adv-x="619"
           d="M294 -263q-67 0 -105.5 30.5t-38.5 80.5q0 42 26 77.5t73 61.5q-49 5 -88 23.5t-66.5 48t-42.5 68.5t-15 86q0 58 19.5 115.5t59 103.5t100 74.5t142.5 28.5q54 0 99.5 -15t78.5 -44t51.5 -72t18.5 -100q0 -42 -10 -86h-366q-1 -5 -1 -9v-9q0 -45 22 -64t58 -19
q29 0 48.5 13.5t27.5 34.5h196q-25 -56 -63 -94t-103 -64q-22 -9 -46 -23.5t-43.5 -32.5t-32.5 -39t-13 -43q0 -20 11.5 -29.5t25.5 -9.5q26 0 37 26h132q-11 -24 -28 -45.5t-40 -38t-54 -26t-70 -9.5zM351 414q-30 0 -56 -21.5t-43 -72.5h167q2 7 2 12v10q0 38 -18.5 55
t-51.5 17z" />
            <glyph glyph-name="Ecaron" unicode="&#x11a;" horiz-adv-x="614"
           d="M572 294h-284l-31 -148h312l-30 -146h-522l153 720h522l-32 -148h-312l-30 -140h283zM475 881l47 53h181l-170 -154h-153l-104 154h176z" />
            <glyph glyph-name="ecaron" unicode="&#x11b;" horiz-adv-x="619"
           d="M581 165q-17 -38 -43.5 -71t-63 -57t-83.5 -38t-105 -14q-57 0 -103 16.5t-78.5 46.5t-50 72t-17.5 93q0 58 19.5 115.5t59 103.5t100 74.5t142.5 28.5q54 0 99.5 -15t78.5 -44t51.5 -72t18.5 -100q0 -42 -10 -86h-366q-1 -5 -1 -9v-9q0 -45 22 -64t58 -19
q29 0 48.5 13.5t27.5 34.5h196zM351 414q-30 0 -56 -21.5t-43 -72.5h167q2 7 2 13v12q0 35 -18.5 52t-51.5 17zM409 685l47 53h181l-170 -154h-153l-104 154h176z" />
            <glyph glyph-name="Gcircumflex" unicode="&#x11c;" horiz-adv-x="771"
           d="M685 0h-143l-11 66q-38 -36 -87.5 -58.5t-118.5 -22.5q-57 0 -105.5 19.5t-84.5 57t-56.5 91t-20.5 122.5q0 42 7.5 92t26.5 101.5t50.5 99.5t80 85t115.5 59.5t156 22.5q71 0 126 -17t93 -48t57.5 -75t19.5 -97h-207q-2 48 -30 71t-75 23q-57 0 -96 -33.5t-62.5 -82
t-34 -102.5t-10.5 -95q0 -78 33.5 -115t82.5 -37q64 0 106.5 33.5t53.5 85.5l6 29h-153l29 135h339zM469 780h-182l170 154h153l104 -154h-175l-23 57z" />
            <glyph glyph-name="gcircumflex" unicode="&#x11d;" horiz-adv-x="633"
           d="M191 -21q5 -23 21 -33.5t51 -10.5q27 0 44.5 8.5t29 26t19 45t15.5 66.5q-67 -59 -143 -59q-42 0 -77 14t-59.5 40.5t-38.5 63.5t-14 83q0 69 22 126.5t60.5 99t90.5 64t112 22.5q47 0 85.5 -18t58.5 -48l39 51h150l-103 -484q-23 -109 -98.5 -170t-210.5 -61
q-129 0 -188.5 45.5t-59.5 128.5h194zM430 314q0 43 -22 63.5t-55 20.5q-28 0 -49.5 -12.5t-36.5 -33.5t-22.5 -48t-7.5 -55q0 -42 22 -65t57 -23q27 0 48.5 13t36 34.5t22 49t7.5 56.5zM368 584h-182l170 154h153l104 -154h-175l-23 57z" />
            <glyph glyph-name="Gbreve" unicode="&#x11e;" horiz-adv-x="771"
           d="M685 0h-143l-11 66q-38 -36 -87.5 -58.5t-118.5 -22.5q-57 0 -105.5 19.5t-84.5 57t-56.5 91t-20.5 122.5q0 42 7.5 92t26.5 101.5t50.5 99.5t80 85t115.5 59.5t156 22.5q71 0 126 -17t93 -48t57.5 -75t19.5 -97h-207q-2 48 -30 71t-75 23q-57 0 -96 -33.5t-62.5 -82
t-34 -102.5t-10.5 -95q0 -78 33.5 -115t82.5 -37q64 0 106.5 33.5t53.5 85.5l6 29h-153l29 135h339zM516 773q-69 0 -109.5 31.5t-40.5 97.5q0 6 0.5 11.5t1.5 11.5h138q-1 -5 -1.5 -10t-0.5 -9q0 -31 25 -31q30 0 42 50h139q-26 -81 -74.5 -116.5t-119.5 -35.5z" />
            <glyph glyph-name="gbreve" unicode="&#x11f;" horiz-adv-x="633"
           d="M191 -21q5 -23 21 -33.5t51 -10.5q27 0 44.5 8.5t29 26t19 45t15.5 66.5q-67 -59 -143 -59q-42 0 -77 14t-59.5 40.5t-38.5 63.5t-14 83q0 69 22 126.5t60.5 99t90.5 64t112 22.5q47 0 85.5 -18t58.5 -48l39 51h150l-103 -484q-23 -109 -98.5 -170t-210.5 -61
q-129 0 -188.5 45.5t-59.5 128.5h194zM430 314q0 43 -22 63.5t-55 20.5q-28 0 -49.5 -12.5t-36.5 -33.5t-22.5 -48t-7.5 -55q0 -42 22 -65t57 -23q27 0 48.5 13t36 34.5t22 49t7.5 56.5zM403 577q-69 0 -109.5 31.5t-40.5 97.5q0 6 0.5 11.5t1.5 11.5h138q-1 -5 -1.5 -10
t-0.5 -9q0 -31 25 -31q30 0 42 50h139q-26 -81 -74.5 -116.5t-119.5 -35.5z" />
            <glyph glyph-name="Gdotaccent" unicode="&#x120;" horiz-adv-x="771"
           d="M685 0h-143l-11 66q-38 -36 -87.5 -58.5t-118.5 -22.5q-57 0 -105.5 19.5t-84.5 57t-56.5 91t-20.5 122.5q0 42 7.5 92t26.5 101.5t50.5 99.5t80 85t115.5 59.5t156 22.5q71 0 126 -17t93 -48t57.5 -75t19.5 -97h-207q-2 48 -30 71t-75 23q-57 0 -96 -33.5t-62.5 -82
t-34 -102.5t-10.5 -95q0 -78 33.5 -115t82.5 -37q64 0 106.5 33.5t53.5 85.5l6 29h-153l29 135h339zM409 779l32 146h204l-32 -146h-204z" />
            <glyph glyph-name="gdotaccent" unicode="&#x121;" horiz-adv-x="633"
           d="M191 -21q5 -23 21 -33.5t51 -10.5q27 0 44.5 8.5t29 26t19 45t15.5 66.5q-67 -59 -143 -59q-42 0 -77 14t-59.5 40.5t-38.5 63.5t-14 83q0 69 22 126.5t60.5 99t90.5 64t112 22.5q47 0 85.5 -18t58.5 -48l39 51h150l-103 -484q-23 -109 -98.5 -170t-210.5 -61
q-129 0 -188.5 45.5t-59.5 128.5h194zM430 314q0 43 -22 63.5t-55 20.5q-28 0 -49.5 -12.5t-36.5 -33.5t-22.5 -48t-7.5 -55q0 -42 22 -65t57 -23q27 0 48.5 13t36 34.5t22 49t7.5 56.5zM299 583l32 146h204l-32 -146h-204z" />
            <glyph glyph-name="Gcommaaccent" unicode="&#x122;" horiz-adv-x="771"
           d="M685 0h-143l-11 66q-38 -36 -87.5 -58.5t-118.5 -22.5q-57 0 -105.5 19.5t-84.5 57t-56.5 91t-20.5 122.5q0 42 7.5 92t26.5 101.5t50.5 99.5t80 85t115.5 59.5t156 22.5q71 0 126 -17t93 -48t57.5 -75t19.5 -97h-207q-2 48 -30 71t-75 23q-57 0 -96 -33.5t-62.5 -82
t-34 -102.5t-10.5 -95q0 -78 33.5 -115t82.5 -37q64 0 106.5 33.5t53.5 85.5l6 29h-153l29 135h339zM412 -168q-10 -48 -29 -82.5t-47.5 -58t-67 -36t-88.5 -17.5l18 82q76 12 91 83h-49l32 149h165z" />
            <glyph glyph-name="gcommaaccent" unicode="&#x123;" horiz-adv-x="633"
           d="M191 -21q5 -23 21 -33.5t51 -10.5q27 0 44.5 8.5t29 26t19 45t15.5 66.5q-67 -59 -143 -59q-42 0 -77 14t-59.5 40.5t-38.5 63.5t-14 83q0 69 22 126.5t60.5 99t90.5 64t112 22.5q47 0 85.5 -18t58.5 -48l39 51h150l-103 -484q-23 -109 -98.5 -170t-210.5 -61
q-129 0 -188.5 45.5t-59.5 128.5h194zM430 314q0 43 -22 63.5t-55 20.5q-28 0 -49.5 -12.5t-36.5 -33.5t-22.5 -48t-7.5 -55q0 -42 22 -65t57 -23q27 0 48.5 13t36 34.5t22 49t7.5 56.5zM335 701q10 49 28.5 82.5t46.5 55.5t66.5 34t89.5 17l-18 -82q-37 -7 -60.5 -27.5
t-31.5 -55.5h49l-32 -149h-165z" />
            <glyph glyph-name="Hcircumflex" unicode="&#x124;" horiz-adv-x="750"
           d="M806 720l-153 -720h-208l61 293h-219l-61 -293h-209l153 720h209l-61 -285h219l61 285h208zM466 780h-182l170 154h153l104 -154h-175l-23 57z" />
            <glyph glyph-name="hcircumflex" unicode="&#x125;" horiz-adv-x="607"
           d="M159 720h193l-52 -243q32 28 70 43t79 15q72 0 113 -38.5t41 -110.5q0 -14 -2 -32.5t-5 -31.5l-69 -322h-194l68 321q2 8 3 15.5t1 13.5q0 26 -13.5 39t-35.5 13q-36 0 -60 -26t-32 -68l-65 -308h-193zM365 780h-182l170 154h153l104 -154h-175l-23 57z" />
            <glyph glyph-name="Hbar" unicode="&#x126;" horiz-adv-x="756"
           d="M809 720l-16 -76h48l-30 -136h-48l-107 -508h-208l61 293h-219l-61 -293h-209l107 508h-48l30 136h48l16 76h209l-16 -76h218l17 76h208zM321 435h219l15 73h-219z" />
            <glyph glyph-name="hbar" unicode="&#x127;" horiz-adv-x="607"
           d="M125 558h-44l27 130h44l7 32h193l-7 -32h102l-28 -130h-101l-18 -81q32 28 70 43t79 15q72 0 113 -38.5t41 -110.5q0 -14 -1.5 -30.5t-5.5 -33.5l-69 -322h-194l69 324q3 12 3 26q0 26 -13.5 39t-35.5 13q-36 0 -60 -26t-32 -68l-65 -308h-193z" />
            <glyph glyph-name="Itilde" unicode="&#x128;" horiz-adv-x="323"
           d="M379 720l-153 -720h-209l153 720h209zM353 777q-22 0 -38.5 5.5t-31 12.5t-28 12.5t-30.5 5.5q-19 0 -41.5 -8t-56.5 -25l26 125q29 15 52.5 22t49.5 7q22 0 38 -6t30.5 -12.5t28.5 -12.5t31 -6q18 0 39 8t56 25l-27 -125q-29 -15 -51 -21.5t-47 -6.5z" />
            <glyph glyph-name="itilde" unicode="&#x129;" horiz-adv-x="295"
           d="M300 581q-22 0 -38.5 5.5t-31 12.5t-28 12.5t-30.5 5.5q-19 0 -41.5 -8t-56.5 -25l26 125q29 15 52.5 22t49.5 7q22 0 38 -6t30.5 -12.5t28.5 -12.5t31 -6q18 0 39 8t56 25l-27 -125q-29 -15 -51 -21.5t-47 -6.5zM11 0l110 520h193l-110 -520h-193z" />
            <glyph glyph-name="Imacron" unicode="&#x12a;" horiz-adv-x="323"
           d="M379 720l-153 -720h-209l153 720h209zM143 787l27 128h289l-27 -128h-289z" />
            <glyph glyph-name="imacron" unicode="&#x12b;" horiz-adv-x="295"
           d="M90 591l27 128h289l-27 -128h-289zM11 0l110 520h193l-110 -520h-193z" />
            <glyph glyph-name="Ibreve" unicode="&#x12c;" horiz-adv-x="323"
           d="M379 720l-153 -720h-209l153 720h209zM276 773q-69 0 -109.5 31.5t-40.5 97.5q0 6 0.5 11.5t1.5 11.5h138q-1 -5 -1.5 -10t-0.5 -9q0 -31 25 -31q30 0 42 50h139q-26 -81 -74.5 -116.5t-119.5 -35.5z" />
            <glyph glyph-name="ibreve" unicode="&#x12d;" horiz-adv-x="295"
           d="M11 0l110 520h193l-110 -520h-193zM218 577q-69 0 -109.5 31.5t-40.5 97.5q0 6 0.5 11.5t1.5 11.5h138q-1 -5 -1.5 -10t-0.5 -9q0 -31 25 -31q30 0 42 50h139q-26 -81 -74.5 -116.5t-119.5 -35.5z" />
            <glyph glyph-name="Iogonek" unicode="&#x12e;" horiz-adv-x="329"
           d="M32 -263q-67 0 -105.5 30.5t-38.5 80.5q0 49 35.5 89t96.5 65l153 718h209l-153 -720h-90q-22 -11 -43.5 -25t-39 -30.5t-28 -35.5t-10.5 -40q0 -20 11 -29.5t25 -9.5q26 0 38 26h132q-12 -24 -28.5 -45.5t-40 -38t-54 -26t-69.5 -9.5z" />
            <glyph glyph-name="iogonek" unicode="&#x12f;" horiz-adv-x="295"
           d="M16 -263q-67 0 -106 30.5t-39 80.5q0 51 38 91.5t103 66.5l109 514h193l-110 -520h-82q-22 -11 -43.5 -25t-38.5 -30.5t-27.5 -35.5t-10.5 -40q0 -20 11 -29.5t25 -9.5q26 0 37 26h133q-12 -24 -28.5 -45.5t-40 -38t-54 -26t-69.5 -9.5zM127 574l31 146h205l-32 -146
h-204z" />
            <glyph glyph-name="Idotaccent" unicode="&#x130;" horiz-adv-x="323"
           d="M379 720l-153 -720h-209l153 720h209zM183 779l32 146h204l-32 -146h-204z" />
            <glyph glyph-name="dotlessi" unicode="&#x131;" horiz-adv-x="295"
           d="M11 0l110 520h193l-110 -520h-193z" />
            <glyph glyph-name="IJ" unicode="&#x132;" horiz-adv-x="916"
           d="M379 720l-153 -720h-209l153 720h209zM547 230q-3 -20 -3 -34q0 -38 16.5 -52.5t36.5 -14.5q25 0 42 17t28 67l108 507h202l-106 -495q-13 -59 -35 -104t-56 -75t-82 -45.5t-112 -15.5q-52 0 -96.5 12.5t-77 38t-51 64.5t-18.5 93q0 17 3 37h201z" />
            <glyph glyph-name="ij" unicode="&#x133;" horiz-adv-x="586"
           d="M127 574l31 146h205l-32 -146h-204zM11 0l110 520h193l-110 -520h-193zM203 -42q14 -5 26.5 -7.5t21.5 -2.5q22 0 34 9.5t17 35.5l112 527h193l-113 -537q-18 -84 -68.5 -131t-142.5 -47q-13 0 -27.5 1t-29.5 3.5t-28.5 5.5t-23.5 7zM420 574l31 146h204l-31 -146h-204z
" />
            <glyph glyph-name="Jcircumflex" unicode="&#x134;" horiz-adv-x="593"
           d="M224 230q-3 -20 -3 -34q0 -38 16.5 -52.5t36.5 -14.5q25 0 42 17t28 67l108 507h202l-106 -495q-13 -59 -35 -104t-56 -75t-82 -45.5t-112 -15.5q-52 0 -96.5 12.5t-77 38t-51 64.5t-18.5 93q0 17 3 37h201zM525 780h-182l170 154h153l104 -154h-175l-23 57z" />
            <glyph glyph-name="jcircumflex" unicode="&#x135;" horiz-adv-x="291"
           d="M-92 -44q14 -5 26.5 -7.5t20.5 -2.5q23 0 34.5 9.5t16.5 35.5l113 529h193l-114 -538q-18 -85 -68 -131t-142 -46q-26 0 -58 4t-51 11zM190 584h-182l170 154h153l104 -154h-175l-23 57z" />
            <glyph glyph-name="Kcommaaccent" unicode="&#x136;" horiz-adv-x="761"
           d="M472 0l-188 276l-58 -276h-209l153 720h209l-56 -261l276 261h241l-384 -350l265 -370h-249zM372 -168q-10 -48 -29 -82.5t-47.5 -58t-67 -36t-88.5 -17.5l18 82q76 12 91 83h-49l32 149h165z" />
            <glyph glyph-name="kcommaaccent" unicode="&#x137;" horiz-adv-x="623"
           d="M6 0l153 720h193l-77 -361l182 161h225l-273 -231l178 -289h-235l-111 201l-42 -201h-193zM314 -168q-10 -48 -29 -82.5t-47.5 -58t-67 -36t-88.5 -17.5l18 82q76 12 91 83h-49l32 149h165z" />
            <glyph glyph-name="kgreenlandic" unicode="&#x138;" horiz-adv-x="623"
           d="M6 0l110 520h193l-34 -164l184 164h223l-274 -232l179 -288h-230l-116 198l-42 -198h-193z" />
            <glyph glyph-name="Lacute" unicode="&#x139;" horiz-adv-x="629"
           d="M379 720l-121 -569h342l-31 -151h-552l153 720h209zM300 928h200l-193 -154h-148z" />
            <glyph glyph-name="lacute" unicode="&#x13a;" horiz-adv-x="286"
           d="M200 0h-194l153 720h194zM267 928h200l-193 -154h-148z" />
            <glyph glyph-name="Lcommaaccent" unicode="&#x13b;" horiz-adv-x="629"
           d="M379 720l-121 -569h342l-31 -151h-552l153 720h209zM327 -168q-10 -48 -29 -82.5t-47.5 -58t-67 -36t-88.5 -17.5l18 82q76 12 91 83h-49l32 149h165z" />
            <glyph glyph-name="lcommaaccent" unicode="&#x13c;" horiz-adv-x="286"
           d="M200 0h-194l153 720h194zM151 -168q-10 -48 -29 -82.5t-47.5 -58t-67 -36t-88.5 -17.5l18 82q76 12 91 83h-49l32 149h165z" />
            <glyph glyph-name="Lcaron" unicode="&#x13d;" horiz-adv-x="629"
           d="M379 720l-121 -569h342l-31 -151h-552l153 720h209zM596 601q-10 -49 -29 -83.5t-47.5 -57.5t-67.5 -36t-88 -18l17 82q37 7 60.5 27.5t31.5 56.5h-49l32 148h165z" />
            <glyph glyph-name="lcaron" unicode="&#x13e;" horiz-adv-x="484"
           d="M200 0h-194l153 720h194zM553 601q-10 -49 -29 -83.5t-47.5 -57.5t-67.5 -36t-88 -18l17 82q37 7 60.5 27.5t31.5 56.5h-49l32 148h165z" />
            <glyph glyph-name="Ldot" unicode="&#x13f;" horiz-adv-x="629"
           d="M379 720l-121 -569h342l-31 -151h-552l153 720h209zM393 305l32 146h204l-32 -146h-204z" />
            <glyph glyph-name="ldot" unicode="&#x140;" horiz-adv-x="486"
           d="M200 0h-194l153 720h194zM310 305l32 146h204l-32 -146h-204z" />
            <glyph glyph-name="Lslash" unicode="&#x141;" horiz-adv-x="633"
           d="M383 720l-39 -183l92 49l-35 -167l-92 -49l-47 -220h342l-31 -150h-552l52 246l-66 -35l35 167l66 35l66 307h209z" />
            <glyph glyph-name="lslash" unicode="&#x142;" horiz-adv-x="303"
           d="M319 531l51 28l-36 -167l-50 -28l-77 -364h-194l51 243l-46 -25l35 166l46 25l67 311h194z" />
            <glyph glyph-name="Nacute" unicode="&#x143;" horiz-adv-x="748"
           d="M804 720l-153 -720h-204l-158 448l-94 -448h-178l153 720h217l148 -426l91 426h178zM560 928h200l-193 -154h-148z" />
            <glyph glyph-name="nacute" unicode="&#x144;" horiz-adv-x="607"
           d="M116 520h164l3 -58q35 35 79.5 54t86.5 19q72 0 113 -38.5t41 -110.5q0 -14 -1.5 -30.5t-5.5 -33.5l-69 -322h-194l69 322q2 7 3 15t1 15q0 25 -14 37.5t-36 12.5q-36 0 -60 -26t-32 -68l-65 -308h-193zM438 732h200l-193 -154h-148z" />
            <glyph glyph-name="Ncommaaccent" unicode="&#x145;" horiz-adv-x="748"
           d="M804 720l-153 -720h-204l-158 448l-94 -448h-178l153 720h217l148 -426l91 426h178zM388 -168q-10 -48 -29 -82.5t-47.5 -58t-67 -36t-88.5 -17.5l18 82q76 12 91 83h-49l32 149h165z" />
            <glyph glyph-name="ncommaaccent" unicode="&#x146;" horiz-adv-x="607"
           d="M116 520h164l3 -58q35 35 79.5 54t86.5 19q72 0 113 -38.5t41 -110.5q0 -14 -1.5 -30.5t-5.5 -33.5l-69 -322h-194l69 322q2 7 3 15t1 15q0 25 -14 37.5t-36 12.5q-36 0 -60 -26t-32 -68l-65 -308h-193zM318 -168q-10 -48 -29 -82.5t-47.5 -58t-67 -36t-88.5 -17.5l18 82
q76 12 91 83h-49l32 149h165z" />
            <glyph glyph-name="Ncaron" unicode="&#x147;" horiz-adv-x="748"
           d="M804 720l-153 -720h-204l-158 448l-94 -448h-178l153 720h217l148 -426l91 426h178zM522 881l47 53h181l-170 -154h-153l-104 154h176z" />
            <glyph glyph-name="ncaron" unicode="&#x148;" horiz-adv-x="607"
           d="M116 520h164l3 -58q35 35 79.5 54t86.5 19q72 0 113 -38.5t41 -110.5q0 -14 -1.5 -30.5t-5.5 -33.5l-69 -322h-194l69 322q2 7 3 15t1 15q0 25 -14 37.5t-36 12.5q-36 0 -60 -26t-32 -68l-65 -308h-193zM413 685l47 53h181l-170 -154h-153l-104 154h176z" />
            <glyph glyph-name="napostrophe" unicode="&#x149;" horiz-adv-x="725"
           d="M234 520h164l3 -58q35 35 79.5 54t86.5 19q72 0 113 -38.5t41 -110.5q0 -14 -1.5 -30.5t-5.5 -33.5l-69 -322h-194l69 322q2 7 3 15t1 15q0 25 -14 37.5t-36 12.5q-36 0 -60 -26t-32 -68l-65 -308h-193zM249.407 607.915q-9 -44.1016 -26.1006 -75.1523t-42.751 -51.751
q-25.6504 -20.7012 -60.752 -32.4014q-35.1006 -11.7002 -79.2021 -16.2002l15.3008 73.8018q33.3008 6.2998 54.4512 24.751q21.1504 18.4502 28.3506 50.8516h-44.1006l28.8008 133.203h148.504z" />
            <glyph glyph-name="Eng" unicode="&#x14a;" horiz-adv-x="748"
           d="M804 720l-157 -738q-18 -85 -69 -131t-142 -46q-26 0 -57 4.5t-51 11.5l29 135q14 -5 27.5 -7.5t21.5 -2.5q32 0 48 13.5t16 35.5v5h-23l-159 447l-94 -447h-177l153 720h216l149 -426l91 426h178z" />
            <glyph glyph-name="eng" unicode="&#x14b;" horiz-adv-x="607"
           d="M116 520h164l3 -58q35 35 79.5 54t86.5 19q72 0 113 -38.5t41 -110.5q0 -14 -1.5 -30.5t-5.5 -33.5l-73 -341q-18 -85 -68 -130.5t-142 -45.5q-26 0 -57.5 4t-51.5 11l29 136q14 -5 26.5 -7.5t21.5 -2.5q22 0 33.5 9.5t16.5 34.5l71 332q2 7 3 15t1 15q0 25 -14 37.5
t-36 12.5q-36 0 -60 -26t-32 -68l-65 -308h-193z" />
            <glyph glyph-name="Omacron" unicode="&#x14c;" horiz-adv-x="801"
           d="M401 132q37 0 67 15t52 39t38 56t26 65t14.5 66t4.5 60q0 42 -11.5 72t-29.5 48.5t-41.5 27t-47.5 8.5q-39 0 -69 -15.5t-53 -41.5t-38 -58.5t-25 -66t-14 -65.5t-4 -56q0 -42 11.5 -71.5t30 -47.5t42 -26.5t47.5 -8.5zM384 -15q-63 0 -121.5 18t-104.5 54.5t-73.5 93.5
t-27.5 135q0 42 7.5 91.5t26.5 99.5t50.5 96.5t79 82.5t113 57.5t152.5 21.5q61 0 119.5 -17.5t105 -54t75 -93.5t28.5 -135q0 -44 -8 -94.5t-27.5 -100.5t-51.5 -96t-80 -81.5t-113 -56.5t-150 -21zM381 787l27 128h289l-27 -128h-289z" />
            <glyph glyph-name="omacron" unicode="&#x14d;" horiz-adv-x="629"
           d="M361 535q57 0 105.5 -14t83 -42t54 -69t19.5 -95q0 -63 -18.5 -122.5t-58.5 -105.5t-102 -74t-149 -28q-56 0 -103.5 14.5t-82 42.5t-54 69.5t-19.5 96.5q0 33 6 70t20.5 73t38.5 69.5t60 59t85.5 40.5t114.5 15zM351 407q-37 0 -60 -24.5t-35.5 -57.5t-17 -67.5
t-4.5 -55.5q0 -47 20 -68t57 -21t59.5 24.5t35 58.5t17 69.5t4.5 57.5q0 45 -19.5 64.5t-56.5 19.5zM255 591l27 128h289l-27 -128h-289z" />
            <glyph glyph-name="Obreve" unicode="&#x14e;" horiz-adv-x="800"
           d="M401 132q37 0 67 15t52 39t38 56t26 65t14.5 66t4.5 60q0 42 -11.5 72t-29.5 48.5t-41.5 27t-47.5 8.5q-39 0 -69 -15.5t-53 -41.5t-38 -58.5t-25 -66t-14 -65.5t-4 -56q0 -42 11.5 -71.5t30 -47.5t42 -26.5t47.5 -8.5zM384 -15q-63 0 -121.5 18t-104.5 54.5t-73.5 93.5
t-27.5 135q0 42 7.5 91.5t26.5 99.5t50.5 96.5t79 82.5t113 57.5t152.5 21.5q61 0 119.5 -17.5t105 -54t75 -93.5t28.5 -135q0 -44 -8 -94.5t-27.5 -100.5t-51.5 -96t-80 -81.5t-113 -56.5t-150 -21zM508 773q-69 0 -109.5 31.5t-40.5 97.5q0 6 0.5 11.5t1.5 11.5h138
q-1 -5 -1.5 -10t-0.5 -9q0 -31 25 -31q30 0 42 50h139q-26 -81 -74.5 -116.5t-119.5 -35.5z" />
            <glyph glyph-name="obreve" unicode="&#x14f;" horiz-adv-x="629"
           d="M361 535q57 0 105.5 -14t83 -42t54 -69t19.5 -95q0 -63 -18.5 -122.5t-58.5 -105.5t-102 -74t-149 -28q-56 0 -103.5 14.5t-82 42.5t-54 69.5t-19.5 96.5q0 33 6 70t20.5 73t38.5 69.5t60 59t85.5 40.5t114.5 15zM351 407q-37 0 -60 -24.5t-35.5 -57.5t-17 -67.5
t-4.5 -55.5q0 -47 20 -68t57 -21t59.5 24.5t35 58.5t17 69.5t4.5 57.5q0 45 -19.5 64.5t-56.5 19.5zM383 577q-69 0 -109.5 31.5t-40.5 97.5q0 6 0.5 11.5t1.5 11.5h138q-1 -5 -1.5 -10t-0.5 -9q0 -31 25 -31q30 0 42 50h139q-26 -81 -74.5 -116.5t-119.5 -35.5z" />
            <glyph glyph-name="Ohungarumlaut" unicode="&#x150;" horiz-adv-x="800"
           d="M401 132q37 0 67 15t52 39t38 56t26 65t14.5 66t4.5 60q0 42 -11.5 72t-29.5 48.5t-41.5 27t-47.5 8.5q-39 0 -69 -15.5t-53 -41.5t-38 -58.5t-25 -66t-14 -65.5t-4 -56q0 -42 11.5 -71.5t30 -47.5t42 -26.5t47.5 -8.5zM384 -15q-63 0 -121.5 18t-104.5 54.5t-73.5 93.5
t-27.5 135q0 42 7.5 91.5t26.5 99.5t50.5 96.5t79 82.5t113 57.5t152.5 21.5q61 0 119.5 -17.5t105 -54t75 -93.5t28.5 -135q0 -44 -8 -94.5t-27.5 -100.5t-51.5 -96t-80 -81.5t-113 -56.5t-150 -21zM457 928h199l-193 -154h-146zM704 928h199l-193 -154h-146z" />
            <glyph glyph-name="ohungarumlaut" unicode="&#x151;" horiz-adv-x="629"
           d="M361 535q57 0 105.5 -14t83 -42t54 -69t19.5 -95q0 -63 -18.5 -122.5t-58.5 -105.5t-102 -74t-149 -28q-56 0 -103.5 14.5t-82 42.5t-54 69.5t-19.5 96.5q0 33 6 70t20.5 73t38.5 69.5t60 59t85.5 40.5t114.5 15zM351 407q-37 0 -60 -24.5t-35.5 -57.5t-17 -67.5
t-4.5 -55.5q0 -47 20 -68t57 -21t59.5 24.5t35 58.5t17 69.5t4.5 57.5q0 45 -19.5 64.5t-56.5 19.5zM332 732h199l-193 -154h-146zM579 732h199l-193 -154h-146z" />
            <glyph glyph-name="OE" unicode="&#x152;" horiz-adv-x="982"
           d="M939 293h-251l-32 -147h281l-30 -146h-439q-27 -7 -56 -11t-59 -4q-60 0 -113.5 17t-94.5 53t-65 91t-24 130q0 87 26 169.5t80 147t138 103.5t201 39q30 0 64 -4t60 -11h435l-32 -148h-281l-30 -140h252zM388 132q30 0 59 11l91 433q-11 6 -27.5 9t-30.5 3
q-60 0 -101 -31.5t-65.5 -78.5t-35 -101t-10.5 -99q0 -39 9.5 -67t26 -45.5t38.5 -25.5t46 -8z" />
            <glyph glyph-name="oe" unicode="&#x153;" horiz-adv-x="1000"
           d="M962 165q-17 -38 -43.5 -71t-63.5 -57t-84 -38t-105 -14q-54 0 -98.5 17t-76.5 47q-39 -31 -89 -47.5t-110 -16.5q-56 0 -103.5 15t-81.5 43.5t-53 71t-19 96.5q0 61 20.5 119.5t61.5 104t102.5 73t143.5 27.5q56 0 103 -17.5t81 -47.5q38 29 87 47t106 18q54 0 99.5 -15
t78.5 -44t51 -72t18 -100q0 -20 -2.5 -41.5t-7.5 -44.5h-367q-1 -5 -1 -9v-9q0 -45 22 -64.5t58 -19.5q29 0 48.5 14t28.5 35h196zM355 406q-37 0 -61 -21t-37.5 -51.5t-18.5 -64.5t-5 -60q0 -51 19 -73.5t52 -22.5q52 0 87.5 54t35.5 155q0 45 -20 64.5t-52 19.5zM730 413
q-30 0 -55.5 -21t-42.5 -73h168q1 7 1.5 13.5t0.5 11.5q0 35 -19.5 52t-52.5 17z" />
            <glyph glyph-name="Racute" unicode="&#x154;" horiz-adv-x="729"
           d="M444 0l-103 250h-62l-53 -250h-209l153 720h275q143 0 215.5 -51t72.5 -141q0 -50 -14.5 -88.5t-40 -68t-59.5 -50t-74 -34.5l139 -287h-240zM349 578l-40 -186h87q49 0 84 29t35 84q0 35 -25 54t-71 19h-70zM511 928h200l-193 -154h-148z" />
            <glyph glyph-name="racute" unicode="&#x155;" horiz-adv-x="425"
           d="M6 0l110 520h166v-80q30 48 67 71.5t78 23.5q14 0 30.5 -1.5t33.5 -6.5l-37 -172q-22 7 -38.5 9.5t-34.5 2.5q-48 0 -84 -38t-53 -119l-44 -210h-194zM359 732h200l-193 -154h-148z" />
            <glyph glyph-name="Rcommaaccent" unicode="&#x156;" horiz-adv-x="729"
           d="M444 0l-103 250h-62l-53 -250h-209l153 720h275q143 0 215.5 -51t72.5 -141q0 -50 -14.5 -88.5t-40 -68t-59.5 -50t-74 -34.5l139 -287h-240zM349 578l-40 -186h87q49 0 84 29t35 84q0 35 -25 54t-71 19h-70zM366 -168q-10 -48 -29 -82.5t-47.5 -58t-67 -36t-88.5 -17.5
l18 82q76 12 91 83h-49l32 149h165z" />
            <glyph glyph-name="rcommaaccent" unicode="&#x157;" horiz-adv-x="425"
           d="M6 0l110 520h166v-80q30 48 67 71.5t78 23.5q14 0 30.5 -1.5t33.5 -6.5l-37 -172q-22 7 -38.5 9.5t-34.5 2.5q-48 0 -84 -38t-53 -119l-44 -210h-194zM149 -168q-10 -48 -29 -82.5t-47.5 -58t-67 -36t-88.5 -17.5l18 82q76 12 91 83h-49l32 149h165z" />
            <glyph glyph-name="Rcaron" unicode="&#x158;" horiz-adv-x="729"
           d="M444 0l-103 250h-62l-53 -250h-209l153 720h275q143 0 215.5 -51t72.5 -141q0 -50 -14.5 -88.5t-40 -68t-59.5 -50t-74 -34.5l139 -287h-240zM349 578l-40 -186h87q49 0 84 29t35 84q0 35 -25 54t-71 19h-70zM462 881l47 53h181l-170 -154h-153l-104 154h176z" />
            <glyph glyph-name="rcaron" unicode="&#x159;" horiz-adv-x="425"
           d="M6 0l110 520h166v-80q30 48 67 71.5t78 23.5q14 0 30.5 -1.5t33.5 -6.5l-37 -172q-22 7 -38.5 9.5t-34.5 2.5q-48 0 -84 -38t-53 -119l-44 -210h-194zM325 685l47 53h181l-170 -154h-153l-104 154h176z" />
            <glyph glyph-name="Sacute" unicode="&#x15a;" horiz-adv-x="679"
           d="M327 -15q-80 0 -137 19.5t-94 51.5t-54.5 74t-17.5 86v11h202q0 -47 29 -73.5t89 -26.5q61 0 86 21.5t25 53.5q0 17 -7 31t-23.5 25.5t-44 21t-68.5 18.5q-47 10 -86 29t-66.5 46t-43 61.5t-15.5 75.5q0 54 18 95.5t56 70.5t97 44t142 15q66 0 120.5 -16t92.5 -45.5
t59 -71.5t21 -93h-197q0 45 -31 64.5t-78 19.5t-65 -16t-18 -43q0 -29 26 -49t89 -34q115 -26 176 -79t61 -138q0 -56 -18.5 -102t-59.5 -78.5t-106 -50.5t-159 -18zM472 928h200l-193 -154h-148z" />
            <glyph glyph-name="sacute" unicode="&#x15b;" horiz-adv-x="563"
           d="M278 112q62 0 62 37q0 19 -18 31.5t-71 22.5q-99 18 -144 58t-45 99q0 82 61.5 128.5t194.5 46.5q53 0 98 -12.5t77.5 -35t51 -53.5t18.5 -69h-188q-2 20 -19.5 32t-49.5 12q-26 0 -36.5 -8.5t-10.5 -22.5q0 -17 19 -30.5t70 -23.5q94 -18 142.5 -55t48.5 -96
q0 -91 -64.5 -139.5t-204.5 -48.5q-56 0 -103 12.5t-81 35.5t-52.5 54.5t-18.5 69.5h189q2 -19 21 -32t53 -13zM372 732h200l-193 -154h-148z" />
            <glyph glyph-name="Scircumflex" unicode="&#x15c;" horiz-adv-x="679"
           d="M327 -15q-80 0 -137 19.5t-94 51.5t-54.5 74t-17.5 86v11h202q0 -47 29 -73.5t89 -26.5q61 0 86 21.5t25 53.5q0 17 -7 31t-23.5 25.5t-44 21t-68.5 18.5q-47 10 -86 29t-66.5 46t-43 61.5t-15.5 75.5q0 54 18 95.5t56 70.5t97 44t142 15q66 0 120.5 -16t92.5 -45.5
t59 -71.5t21 -93h-197q0 45 -31 64.5t-78 19.5t-65 -16t-18 -43q0 -29 26 -49t89 -34q115 -26 176 -79t61 -138q0 -56 -18.5 -102t-59.5 -78.5t-106 -50.5t-159 -18zM394 780h-182l170 154h153l104 -154h-175l-23 57z" />
            <glyph glyph-name="scircumflex" unicode="&#x15d;" horiz-adv-x="563"
           d="M278 112q62 0 62 37q0 19 -18 31.5t-71 22.5q-99 18 -144 58t-45 99q0 82 61.5 128.5t194.5 46.5q53 0 98 -12.5t77.5 -35t51 -53.5t18.5 -69h-188q-2 20 -19.5 32t-49.5 12q-26 0 -36.5 -8.5t-10.5 -22.5q0 -17 19 -30.5t70 -23.5q94 -18 142.5 -55t48.5 -96
q0 -91 -64.5 -139.5t-204.5 -48.5q-56 0 -103 12.5t-81 35.5t-52.5 54.5t-18.5 69.5h189q2 -19 21 -32t53 -13zM313 584h-182l170 154h153l104 -154h-175l-23 57z" />
            <glyph glyph-name="Scedilla" unicode="&#x15e;" horiz-adv-x="679"
           d="M376 -35q40 -9 60 -34.5t20 -57.5q0 -66 -49.5 -103t-128.5 -37q-74 0 -118.5 32.5t-44.5 88.5v9h127q0 -14 10 -26t34 -12q20 0 31 9.5t11 26.5t-20.5 28t-67.5 11l27 89q-64 7 -110 28.5t-75.5 52t-43.5 68.5t-14 78v11h202q0 -48 29 -74t89 -26q58 0 84.5 20t26.5 55
q0 17 -7 31t-23.5 25.5t-44 21t-68.5 18.5q-47 10 -86 29t-66.5 46t-43 61.5t-15.5 75.5q0 54 18 95.5t56 70.5t97 44t142 15q66 0 120.5 -16t92.5 -45.5t59 -71.5t21 -93h-197q0 45 -31 64.5t-78 19.5t-65 -16t-18 -43q0 -29 26 -49t89 -34q115 -26 176 -79t61 -138
q0 -52 -16 -95t-50.5 -75.5t-90 -52t-134.5 -24.5z" />
            <glyph glyph-name="scedilla" unicode="&#x15f;" horiz-adv-x="563"
           d="M313 -35q40 -9 60 -34.5t20 -57.5q0 -66 -49.5 -103t-128.5 -37q-74 0 -119 32.5t-45 88.5v9h127q0 -14 10.5 -26t33.5 -12q20 0 31.5 9.5t11.5 26.5t-20.5 28t-67.5 11l26 91q-86 12 -137 56.5t-51 109.5h189q2 -19 21 -32t53 -13q62 0 62 37q0 19 -18 31.5t-71 22.5
q-99 18 -144 58t-45 99q0 82 61.5 128.5t194.5 46.5q53 0 98 -12.5t77.5 -35t51 -53.5t18.5 -69h-188q-2 20 -19.5 32t-49.5 12q-26 0 -36.5 -8.5t-10.5 -22.5q0 -17 19 -30.5t70 -23.5q94 -18 142.5 -55t48.5 -96q0 -83 -53.5 -130.5t-169.5 -55.5z" />
            <glyph glyph-name="Scaron" unicode="&#x160;" horiz-adv-x="679"
           d="M327 -15q-80 0 -137 19.5t-94 51.5t-54.5 74t-17.5 86v11h202q0 -47 29 -73.5t89 -26.5q61 0 86 21.5t25 53.5q0 17 -7 31t-23.5 25.5t-44 21t-68.5 18.5q-47 10 -86 29t-66.5 46t-43 61.5t-15.5 75.5q0 54 18 95.5t56 70.5t97 44t142 15q66 0 120.5 -16t92.5 -45.5
t59 -71.5t21 -93h-197q0 45 -31 64.5t-78 19.5t-65 -16t-18 -43q0 -29 26 -49t89 -34q115 -26 176 -79t61 -138q0 -56 -18.5 -102t-59.5 -78.5t-106 -50.5t-159 -18zM450 881l47 53h181l-170 -154h-153l-104 154h176z" />
            <glyph glyph-name="scaron" unicode="&#x161;" horiz-adv-x="563"
           d="M278 112q62 0 62 37q0 19 -18 31.5t-71 22.5q-99 18 -144 58t-45 99q0 82 61.5 128.5t194.5 46.5q53 0 98 -12.5t77.5 -35t51 -53.5t18.5 -69h-188q-2 20 -19.5 32t-49.5 12q-26 0 -36.5 -8.5t-10.5 -22.5q0 -17 19 -30.5t70 -23.5q94 -18 142.5 -55t48.5 -96
q0 -91 -64.5 -139.5t-204.5 -48.5q-56 0 -103 12.5t-81 35.5t-52.5 54.5t-18.5 69.5h189q2 -19 21 -32t53 -13zM358 685l47 53h181l-170 -154h-153l-104 154h176z" />
            <glyph glyph-name="Tcommaaccent" unicode="&#x162;" horiz-adv-x="636"
           d="M712 569h-211l-120 -569h-209l120 569h-206l32 151h626zM324 -168q-10 -48 -29 -82.5t-47.5 -58t-67 -36t-88.5 -17.5l18 82q76 12 91 83h-49l32 149h165z" />
            <glyph glyph-name="tcommaaccent" unicode="&#x163;" horiz-adv-x="397"
           d="M343 1q-30 -8 -58.5 -12t-52.5 -4q-75 0 -116.5 34.5t-41.5 97.5q0 11 1.5 21.5t3.5 21.5l49 229h-76l28 131h75l38 125h182l-26 -125h103l-28 -131h-103l-48 -226q-2 -8 -2 -16q0 -27 37 -27q23 0 62 11zM212 -168q-10 -48 -29 -82.5t-47.5 -58t-67 -36t-88.5 -17.5
l18 82q76 12 91 83h-49l32 149h165z" />
            <glyph glyph-name="Tcaron" unicode="&#x164;" horiz-adv-x="636"
           d="M712 569h-211l-120 -569h-209l120 569h-206l32 151h626zM460 881l47 53h181l-170 -154h-153l-104 154h176z" />
            <glyph glyph-name="tcaron" unicode="&#x165;" horiz-adv-x="499"
           d="M620 646q-11 -48 -52.5 -78t-119.5 -33l13 59q20 2 31 12t14 21h-29l22 106h140zM343 1q-30 -8 -58.5 -12t-52.5 -4q-75 0 -116.5 34.5t-41.5 97.5q0 11 1.5 21.5t3.5 21.5l49 229h-76l28 131h75l38 125h182l-26 -125h103l-28 -131h-103l-48 -226q-2 -8 -2 -16
q0 -27 37 -27q23 0 62 11z" />
            <glyph glyph-name="Tbar" unicode="&#x166;" horiz-adv-x="636"
           d="M452 336l-72 -336h-209l72 336h-103l28 136h103l21 97h-207l33 151h626l-33 -151h-210l-21 -97h103l-28 -136h-103z" />
            <glyph glyph-name="tbar" unicode="&#x167;" horiz-adv-x="397"
           d="M343 1q-30 -8 -58.5 -12t-52.5 -4q-75 0 -116.5 34.5t-41.5 97.5q0 11 1.5 21.5t3.5 21.5l14 69h-52l28 129h52l7 31h-76l28 131h75l38 125h182l-26 -125h103l-28 -131h-103l-7 -31h78l-28 -129h-76l-15 -67q-2 -8 -2 -15q0 -27 37 -27q23 0 62 11z" />
            <glyph glyph-name="Utilde" unicode="&#x168;" horiz-adv-x="741"
           d="M373 720l-103 -482q-2 -7 -3 -13.5t-1 -12.5q0 -40 26.5 -61t72.5 -21q53 0 86.5 26t44.5 78l103 486h203l-101 -474q-26 -122 -111 -191.5t-239 -69.5q-69 0 -123.5 14.5t-92.5 42t-58 67t-20 88.5q0 25 6 54l100 469h210zM568 777q-22 0 -38.5 5.5t-31 12.5t-28 12.5
t-30.5 5.5q-19 0 -41.5 -8t-56.5 -25l26 125q29 15 52.5 22t49.5 7q22 0 38 -6t30.5 -12.5t28.5 -12.5t31 -6q18 0 39 8t56 25l-27 -125q-29 -15 -51 -21.5t-47 -6.5z" />
            <glyph glyph-name="utilde" unicode="&#x169;"
           d="M302 520l-67 -319q-2 -8 -3.5 -19t-1.5 -14q0 -23 13 -36.5t36 -13.5q35 0 57 26.5t31 68.5l65 307h192l-110 -520h-163l-4 53q-32 -32 -72 -50t-90 -18q-74 0 -113 38.5t-39 108.5q0 28 8 66l68 322h193zM451 581q-22 0 -38.5 5.5t-31 12.5t-28 12.5t-30.5 5.5
q-19 0 -41.5 -8t-56.5 -25l26 125q29 15 52.5 22t49.5 7q22 0 38 -6t30.5 -12.5t28.5 -12.5t31 -6q18 0 39 8t56 25l-27 -125q-29 -15 -51 -21.5t-47 -6.5z" />
            <glyph glyph-name="Umacron" unicode="&#x16a;" horiz-adv-x="741"
           d="M373 720l-103 -482q-2 -7 -3 -13.5t-1 -12.5q0 -40 26.5 -61t72.5 -21q53 0 86.5 26t44.5 78l103 486h203l-101 -474q-26 -122 -111 -191.5t-239 -69.5q-69 0 -123.5 14.5t-92.5 42t-58 67t-20 88.5q0 25 6 54l100 469h210zM351 787l27 128h289l-27 -128h-289z" />
            <glyph glyph-name="umacron" unicode="&#x16b;"
           d="M302 520l-67 -319q-2 -8 -3.5 -19t-1.5 -14q0 -23 13 -36.5t36 -13.5q35 0 57 26.5t31 68.5l65 307h192l-110 -520h-163l-4 53q-32 -32 -72 -50t-90 -18q-74 0 -113 38.5t-39 108.5q0 28 8 66l68 322h193zM237 591l27 128h289l-27 -128h-289z" />
            <glyph glyph-name="Ubreve" unicode="&#x16c;" horiz-adv-x="741"
           d="M373 720l-103 -482q-2 -7 -3 -13.5t-1 -12.5q0 -40 26.5 -61t72.5 -21q53 0 86.5 26t44.5 78l103 486h203l-101 -474q-26 -122 -111 -191.5t-239 -69.5q-69 0 -123.5 14.5t-92.5 42t-58 67t-20 88.5q0 25 6 54l100 469h210zM505 773q-69 0 -109.5 31.5t-40.5 97.5
q0 6 0.5 11.5t1.5 11.5h138q-1 -5 -1.5 -10t-0.5 -9q0 -31 25 -31q30 0 42 50h139q-26 -81 -74.5 -116.5t-119.5 -35.5z" />
            <glyph glyph-name="ubreve" unicode="&#x16d;"
           d="M302 520l-67 -319q-2 -8 -3.5 -19t-1.5 -14q0 -23 13 -36.5t36 -13.5q35 0 57 26.5t31 68.5l65 307h192l-110 -520h-163l-4 53q-32 -32 -72 -50t-90 -18q-74 0 -113 38.5t-39 108.5q0 28 8 66l68 322h193zM386 577q-69 0 -109.5 31.5t-40.5 97.5q0 6 0.5 11.5t1.5 11.5
h138q-1 -5 -1.5 -10t-0.5 -9q0 -31 25 -31q30 0 42 50h139q-26 -81 -74.5 -116.5t-119.5 -35.5z" />
            <glyph glyph-name="Uring" unicode="&#x16e;" horiz-adv-x="741"
           d="M373 720l-103 -482q-2 -7 -3 -13.5t-1 -12.5q0 -40 26.5 -61t72.5 -21q53 0 86.5 26t44.5 78l103 486h203l-101 -474q-26 -122 -111 -191.5t-239 -69.5q-69 0 -123.5 14.5t-92.5 42t-58 67t-20 88.5q0 25 6 54l100 469h210zM513 907q-17 0 -28 -12t-11 -35q0 -18 9 -27.5
t23 -9.5q16 0 27.5 11.5t11.5 37.5q0 18 -9 26.5t-23 8.5zM520 1000q37 0 65.5 -10t47 -27t28 -39.5t9.5 -47.5q0 -30 -11 -56.5t-32.5 -46t-53.5 -31t-74 -11.5q-38 0 -65.5 10t-46.5 26.5t-28 39t-9 47.5q0 30 10.5 56.5t32 46.5t53.5 31.5t74 11.5z" />
            <glyph glyph-name="uring" unicode="&#x16f;"
           d="M302 520l-67 -319q-2 -8 -3.5 -19t-1.5 -14q0 -23 13 -36.5t36 -13.5q35 0 57 26.5t31 68.5l65 307h192l-110 -520h-163l-4 53q-32 -32 -72 -50t-90 -18q-74 0 -113 38.5t-39 108.5q0 28 8 66l68 322h193zM406 747q-17 0 -28 -12t-11 -35q0 -18 9 -27.5t23 -9.5
q16 0 27.5 11.5t11.5 37.5q0 18 -9 26.5t-23 8.5zM413 840q37 0 65.5 -10t47 -27t28 -39.5t9.5 -47.5q0 -30 -11 -56.5t-32.5 -46t-53.5 -31t-74 -11.5q-38 0 -65.5 10t-46.5 26.5t-28 39t-9 47.5q0 30 10.5 56.5t32 46.5t53.5 31.5t74 11.5z" />
            <glyph glyph-name="Uhungarumlaut" unicode="&#x170;" horiz-adv-x="741"
           d="M373 720l-103 -482q-2 -7 -3 -13.5t-1 -12.5q0 -40 26.5 -61t72.5 -21q53 0 86.5 26t44.5 78l103 486h203l-101 -474q-26 -122 -111 -191.5t-239 -69.5q-69 0 -123.5 14.5t-92.5 42t-58 67t-20 88.5q0 25 6 54l100 469h210zM432 928h199l-193 -154h-146zM679 928h199
l-193 -154h-146z" />
            <glyph glyph-name="uhungarumlaut" unicode="&#x171;"
           d="M302 520l-67 -319q-2 -8 -3.5 -19t-1.5 -14q0 -23 13 -36.5t36 -13.5q35 0 57 26.5t31 68.5l65 307h192l-110 -520h-163l-4 53q-32 -32 -72 -50t-90 -18q-74 0 -113 38.5t-39 108.5q0 28 8 66l68 322h193zM316 732h199l-193 -154h-146zM563 732h199l-193 -154h-146z" />
            <glyph glyph-name="Uogonek" unicode="&#x172;" horiz-adv-x="741"
           d="M381 -263q-67 0 -105.5 30.5t-38.5 80.5q0 42 25 77t71 61q-130 4 -203 59.5t-73 151.5q0 25 6 54l100 469h210l-103 -482q-2 -7 -3 -13.5t-1 -12.5q0 -40 26.5 -61t72.5 -21q53 0 86.5 26t44.5 78l103 486h203l-101 -474q-18 -84 -62.5 -143t-128.5 -93
q-22 -9 -47 -23.5t-46.5 -32.5t-35.5 -39.5t-14 -45.5q0 -20 11 -29.5t25 -9.5q26 0 38 26h132q-12 -24 -28.5 -45.5t-40 -38t-54 -26t-69.5 -9.5z" />
            <glyph glyph-name="uogonek" unicode="&#x173;"
           d="M353 -263q-67 0 -105.5 30.5t-38.5 80.5q0 51 37.5 92t103.5 66l-3 47q-32 -32 -72 -50t-90 -18q-74 0 -113 38.5t-39 108.5q0 28 8 66l68 322h193l-70 -330q-2 -10 -2 -22q0 -23 13 -36.5t36 -13.5q33 0 56 26.5t32 68.5l64 307h193l-110 -520h-54q-22 -11 -43.5 -25
t-39 -30.5t-28 -35.5t-10.5 -40q0 -20 11.5 -29.5t25.5 -9.5q25 0 37 26h132q-11 -24 -28 -45.5t-40 -38t-54 -26t-70 -9.5z" />
            <glyph glyph-name="Wcircumflex" unicode="&#x174;" horiz-adv-x="1019"
           d="M1132 720l-313 -720h-231l-13 500l-219 -500h-224l-19 720h208l-13 -467l205 467h220l12 -471l182 471h205zM602 780h-182l170 154h153l104 -154h-175l-23 57z" />
            <glyph glyph-name="wcircumflex" unicode="&#x175;" horiz-adv-x="859"
           d="M925 520l-253 -520h-220l7 333l-143 -333h-214l-28 520h194l-14 -331l145 331h205l-5 -329l132 329h194zM481 584h-182l170 154h153l104 -154h-175l-23 57z" />
            <glyph glyph-name="Ycircumflex" unicode="&#x176;" horiz-adv-x="724"
           d="M222 0l61 288l-170 432h219l82 -274l211 274h212l-354 -432l-61 -288h-200zM458 780h-182l170 154h153l104 -154h-175l-23 57z" />
            <glyph glyph-name="ycircumflex" unicode="&#x177;" horiz-adv-x="594"
           d="M665 520l-300 -527q-32 -55 -59 -91.5t-54.5 -58t-58 -30t-67.5 -8.5q-22 0 -50 4t-57 12l28 130q29 -9 45 -11.5t26 -2.5q22 0 37.5 13.5t33.5 49.5h-36l-83 520h200l13 -382l181 382h201zM346 584h-182l170 154h153l104 -154h-175l-23 57z" />
            <glyph glyph-name="Ydieresis" unicode="&#x178;" horiz-adv-x="724"
           d="M222 0l61 288l-170 432h219l82 -274l211 274h212l-354 -432l-61 -288h-200zM286 781l31 144h172l-31 -144h-172zM524 781l31 144h173l-31 -144h-173z" />
            <glyph glyph-name="Zacute" unicode="&#x179;" horiz-adv-x="647"
           d="M278 145h331l-30 -145h-597l29 136l431 439h-319l31 145h584l-29 -134zM501 928h200l-193 -154h-148z" />
            <glyph glyph-name="zacute" unicode="&#x17a;" horiz-adv-x="527"
           d="M260 138h230l-29 -138h-484l28 135l296 247h-226l29 138h476l-29 -135zM418 732h200l-193 -154h-148z" />
            <glyph glyph-name="Zdotaccent" unicode="&#x17b;" horiz-adv-x="647"
           d="M278 145h331l-30 -145h-597l29 136l431 439h-319l31 145h584l-29 -134zM351 779l32 146h204l-32 -146h-204z" />
            <glyph glyph-name="zdotaccent" unicode="&#x17c;" horiz-adv-x="527"
           d="M260 138h230l-29 -138h-484l28 135l296 247h-226l29 138h476l-29 -135zM259 583l32 146h204l-32 -146h-204z" />
            <glyph glyph-name="Zcaron" unicode="&#x17d;" horiz-adv-x="647"
           d="M278 145h331l-30 -145h-597l29 136l431 439h-319l31 145h584l-29 -134zM468 881l47 53h181l-170 -154h-153l-104 154h176z" />
            <glyph glyph-name="zcaron" unicode="&#x17e;" horiz-adv-x="527"
           d="M260 138h230l-29 -138h-484l28 135l296 247h-226l29 138h476l-29 -135zM377 685l47 53h181l-170 -154h-153l-104 154h176z" />
            <glyph glyph-name="longs" unicode="&#x17f;" horiz-adv-x="388"
           d="M42 0l82 389h-76l28 131h76l7 33q10 48 27 82.5t43 56.5t64 32.5t90 10.5q35 0 68.5 -5.5t61.5 -15.5l-29 -135q-45 16 -74 16q-28 0 -41 -11t-18 -37l-116 -547h-193z" />
            <glyph glyph-name="florin" unicode="&#x192;" horiz-adv-x="407"
           d="M504 559q-45 16 -74 16q-28 0 -41.5 -11t-18.5 -37l-5 -27h98l-28 -131h-98l-117 -549h-193l117 549h-76l27 131h76l7 33q10 48 27 82.5t43 56.5t64 32.5t90 10.5q35 0 69 -5.5t61 -15.5z" />
            <glyph glyph-name="Aringacute" unicode="&#x1fa;" horiz-adv-x="740"
           d="M441 818l111 139h188l-172 -139h-127zM499 803q33 0 57 -9t39.5 -24t23 -34t7.5 -39q0 -23 -10.5 -45.5t-39.5 -44.5l127 -610h-211l-16 157h-216l-83 -157h-220l384 611q-11 11 -15 28.5t-4 31.5q0 21 9 44.5t30 43.5t54.5 33.5t83.5 13.5zM481 719q-12 0 -19.5 -5.5
t-12 -13t-6 -16t-1.5 -15.5q0 -25 25 -25q11 0 18 5.5t11.5 14t6.5 17t2 14.5q0 13 -6.5 18.5t-17.5 5.5zM462 292l-20 204l-108 -204h128z" />
            <glyph glyph-name="aringacute" unicode="&#x1fb;" horiz-adv-x="581"
           d="M69 358q37 88 108.5 132.5t179.5 44.5q105 0 161.5 -43.5t56.5 -120.5q0 -11 -1 -23.5t-4 -25.5l-68 -322h-150l-12 58q-26 -29 -72.5 -51t-106.5 -22q-73 0 -112.5 35t-39.5 95q0 39 13 70.5t43.5 56t79.5 42t121 29.5l112 18l3 14q2 6 2 11v8q0 45 -50 45
q-25 0 -44 -13.5t-27 -37.5h-193zM250 111q32 0 60 20.5t37 56.5l10 44q-47 -9 -77 -16.5t-46.5 -16.5t-22.5 -20.5t-6 -29.5q0 -38 45 -38zM372 707.318q-17 0 -28 -10.8008q-11 -10.7998 -11 -31.5q0 -16.2012 9 -24.751q9 -8.55078 23 -8.55078q16 0 27.5 10.3506
t11.5 33.751q0 16.2002 -9 23.8506t-23 7.65039zM379 791.021q37 0 65.5 -9q28.5 -9.00098 47 -24.3008q18.5 -15.3008 28 -35.5508q9.5 -20.251 9.5 -42.751q0 -27.001 -11 -50.8516t-32.5 -41.4014t-53.5 -27.9004q-32 -10.3506 -74 -10.3506q-38 0 -65.5 9t-46.5 23.8506
t-28 35.1016q-9 20.25 -9 42.751q0 27 10.5 50.8516q10.5 23.8506 32 41.8506q21.5 18.001 53.5 28.3506q32 10.3506 74 10.3506zM441 943.818h200l-193 -138.604h-148z" />
            <glyph glyph-name="AEacute" unicode="&#x1fc;" horiz-adv-x="1002"
           d="M273 157l-106 -157h-216l505 720h624l-31 -148h-277l-30 -140h248l-30 -138h-248l-31 -148h277l-31 -146h-486l34 157h-202zM365 295h139l63 299zM771 928h200l-193 -154h-148z" />
            <glyph glyph-name="aeacute" unicode="&#x1fd;" horiz-adv-x="939"
           d="M902 165q-18 -39 -44.5 -72t-63.5 -57t-85 -37.5t-108 -13.5q-72 0 -125.5 27.5t-83.5 74.5q-84 -102 -223 -102q-79 0 -119.5 34.5t-40.5 94.5q0 39 13 71t43.5 56.5t79.5 42t121 29.5l112 18l4 18q2 10 2 15q0 22 -13.5 33.5t-36.5 11.5q-27 0 -45 -13.5t-26 -37.5
h-194q38 88 109 132.5t180 44.5q49 0 88.5 -12.5t68.5 -34.5q35 22 75.5 34.5t87.5 12.5q54 0 99.5 -15t78.5 -44t51.5 -72t18.5 -100q0 -41 -9 -86h-367q-1 -5 -1 -9v-9q0 -45 22 -64.5t58 -19.5q29 0 48.5 14t27.5 35h197zM672 413q-31 0 -56 -21t-42 -73h167q2 7 2 12v10
q0 38 -19 55t-52 17zM249 111q38 0 65 23.5t34 55.5l9 42q-47 -8 -76.5 -15.5t-46.5 -17t-23 -21.5t-6 -29t11.5 -27.5t32.5 -10.5zM600 732h200l-193 -154h-148z" />
            <glyph glyph-name="Oslashacute" unicode="&#x1fe;" horiz-adv-x="800"
           d="M384 -15q-59 0 -113 15l-73 -110h-149l112 165q-47 37 -75.5 94t-28.5 137q0 42 7.5 91.5t26.5 99.5t50.5 96.5t79 82.5t113 57.5t152.5 21.5q31 0 62 -4.5t61 -14.5l71 104h148l-111 -163q44 -37 70.5 -92t26.5 -130q0 -44 -8 -94.5t-27.5 -100.5t-51.5 -96t-80 -81.5
t-113 -56.5t-150 -21zM270 286q0 -23 4 -40t11 -31l238 363q-12 6 -25 8.5t-25 2.5q-39 0 -69 -15.5t-53 -41.5t-38 -58.5t-25 -66t-14 -65.5t-4 -56zM401 132q37 0 67 15t52 39t38 56t26 65t14.5 66t4.5 60q0 21 -4 37.5t-10 30.5l-237 -360q24 -9 49 -9zM559 928h200
l-193 -154h-148z" />
            <glyph glyph-name="oslashacute" unicode="&#x1ff;" horiz-adv-x="629"
           d="M361 535q47 0 91 -11l75 106h135l-110 -155q34 -28 52 -68t18 -92q0 -63 -18.5 -122.5t-58.5 -105.5t-101.5 -74t-148.5 -28q-46 0 -87 11l-74 -106h-138l110 153q-33 29 -52 69.5t-19 94.5q0 49 14 106.5t50.5 106.5t100 82t161.5 33zM351 406q-35 0 -57.5 -20.5
t-35.5 -49t-18.5 -60t-5.5 -53.5v-20q0 -10 2 -18l151 215q-17 6 -36 6zM427 310v14q0 9 -1 14l-151 -219q15 -6 36 -6q35 0 57.5 24.5t35.5 57t18 65.5t5 50zM395 732h200l-193 -154h-148z" />
            <glyph glyph-name="Scommaaccent" unicode="&#x218;" horiz-adv-x="679"
           d="M327 -15q-80 0 -137 19.5t-94 51.5t-54.5 74t-17.5 86v11h202q0 -47 29 -73.5t89 -26.5q61 0 86 21.5t25 53.5q0 17 -7 31t-23.5 25.5t-44 21t-68.5 18.5q-47 10 -86 29t-66.5 46t-43 61.5t-15.5 75.5q0 54 18 95.5t56 70.5t97 44t142 15q66 0 120.5 -16t92.5 -45.5
t59 -71.5t21 -93h-197q0 45 -31 64.5t-78 19.5t-65 -16t-18 -43q0 -29 26 -49t89 -34q115 -26 176 -79t61 -138q0 -56 -18.5 -102t-59.5 -78.5t-106 -50.5t-159 -18zM380 -168q-10 -48 -29 -82.5t-47.5 -58t-67 -36t-88.5 -17.5l18 82q76 12 91 83h-49l32 149h165z" />
            <glyph glyph-name="scommaaccent" unicode="&#x219;" horiz-adv-x="563"
           d="M278 112q62 0 62 37q0 19 -18 31.5t-71 22.5q-99 18 -144 58t-45 99q0 82 61.5 128.5t194.5 46.5q53 0 98 -12.5t77.5 -35t51 -53.5t18.5 -69h-188q-2 20 -19.5 32t-49.5 12q-26 0 -36.5 -8.5t-10.5 -22.5q0 -17 19 -30.5t70 -23.5q94 -18 142.5 -55t48.5 -96
q0 -91 -64.5 -139.5t-204.5 -48.5q-56 0 -103 12.5t-81 35.5t-52.5 54.5t-18.5 69.5h189q2 -19 21 -32t53 -13zM314 -168q-10 -48 -29 -82.5t-47.5 -58t-67 -36t-88.5 -17.5l18 82q76 12 91 83h-49l32 149h165z" />
            <glyph glyph-name="uni021A" unicode="&#x21a;" horiz-adv-x="636"
           d="M712 569h-211l-120 -569h-209l120 569h-206l32 151h626zM324 -168q-10 -48 -29 -82.5t-47.5 -58t-67 -36t-88.5 -17.5l18 82q76 12 91 83h-49l32 149h165z" />
            <glyph glyph-name="uni021B" unicode="&#x21b;" horiz-adv-x="397"
           d="M343 1q-30 -8 -58.5 -12t-52.5 -4q-75 0 -116.5 34.5t-41.5 97.5q0 11 1.5 21.5t3.5 21.5l49 229h-76l28 131h75l38 125h182l-26 -125h103l-28 -131h-103l-48 -226q-2 -8 -2 -16q0 -27 37 -27q23 0 62 11zM212 -168q-10 -48 -29 -82.5t-47.5 -58t-67 -36t-88.5 -17.5
l18 82q76 12 91 83h-49l32 149h165z" />
            <glyph glyph-name="dotlessj" unicode="&#x237;" horiz-adv-x="291"
           d="M-92 -44q14 -5 26.5 -7.5t20.5 -2.5q23 0 34.5 9.5t16.5 35.5l113 529h193l-114 -538q-18 -85 -68 -131t-142 -46q-26 0 -58 4t-51 11z" />
            <glyph glyph-name="circumflex" unicode="&#x2c6;" horiz-adv-x="487"
           d="M295 584h-182l170 154h153l104 -154h-175l-23 57z" />
            <glyph glyph-name="caron" unicode="&#x2c7;" horiz-adv-x="487"
           d="M345 685l47 53h181l-170 -154h-153l-104 154h176z" />
            <glyph glyph-name="uni02C9" unicode="&#x2c9;" horiz-adv-x="330"
           d="M101 586l27 126h289l-27 -126h-289z" />
            <glyph glyph-name="breve" unicode="&#x2d8;" horiz-adv-x="402"
           d="M293 577q-69 0 -109.5 31.5t-40.5 97.5q0 6 0.5 11.5t1.5 11.5h138q-1 -5 -1.5 -10t-0.5 -9q0 -31 25 -31q30 0 42 50h139q-26 -81 -74.5 -116.5t-119.5 -35.5z" />
            <glyph glyph-name="dotaccent" unicode="&#x2d9;" horiz-adv-x="264"
           d="M113 583l32 146h204l-32 -146h-204z" />
            <glyph glyph-name="ring" unicode="&#x2da;" horiz-adv-x="370"
           d="M297 747q-17 0 -28 -12t-11 -35q0 -18 9 -27.5t23 -9.5q16 0 27.5 11.5t11.5 37.5q0 18 -9 26.5t-23 8.5zM304 840q37 0 65.5 -10t47 -27t28 -39.5t9.5 -47.5q0 -30 -11 -56.5t-32.5 -46t-53.5 -31t-74 -11.5q-38 0 -65.5 10t-46.5 26.5t-28 39t-9 47.5q0 30 10.5 56.5
t32 46.5t53.5 31.5t74 11.5z" />
            <glyph glyph-name="ogonek" unicode="&#x2db;" horiz-adv-x="401"
           d="M105 -263q-67 0 -105.5 30.5t-38.5 80.5q0 58 49 103t131 68h113q-24 -10 -52.5 -25t-53 -34t-41 -42t-16.5 -49q0 -20 11.5 -29.5t25.5 -9.5q25 0 37 26h132q-11 -24 -28 -45.5t-40 -38t-54 -26t-70 -9.5z" />
            <glyph glyph-name="tilde" unicode="&#x2dc;" horiz-adv-x="379"
           d="M340 581q-22 0 -38.5 5.5t-31 12.5t-28 12.5t-30.5 5.5q-19 0 -41.5 -8t-56.5 -25l26 125q29 15 52.5 22t49.5 7q22 0 38 -6t30.5 -12.5t28.5 -12.5t31 -6q18 0 39 8t56 25l-27 -125q-29 -15 -51 -21.5t-47 -6.5z" />
            <glyph glyph-name="hungarumlaut" unicode="&#x2dd;" horiz-adv-x="609"
           d="M248 732h199l-193 -154h-146zM495 732h199l-193 -154h-146z" />
            <glyph glyph-name="uni0312" unicode="&#x312;" horiz-adv-x="270"
           d="M147 701q10 49 28.5 82.5t46.5 55.5t66.5 34t89.5 17l-18 -82q-37 -7 -60.5 -27.5t-31.5 -55.5h49l-32 -149h-165z" />
            <glyph glyph-name="dotbelowcomb" unicode="&#x323;" horiz-adv-x="264"
           d="M-48 -180l30 146h204l-31 -146h-203z" />
            <glyph glyph-name="uni037E" unicode="&#x37e;" horiz-adv-x="296"
           d="M78 339l38 181h211l-38 -181h-211zM221 22q-11 -52 -34 -88t-57.5 -59t-79 -35t-99.5 -16l18 88q42 5 70.5 27t36.5 61h-70l38 181h211z" />
            <glyph glyph-name="tonos" unicode="&#x384;" horiz-adv-x="270"
           d="M165 720h188l-107 -147h-135z" />
            <glyph glyph-name="dieresistonos" unicode="&#x385;" horiz-adv-x="491"
           d="M114 585l31 144h160l-31 -144h-160zM383 585l31 144h161l-31 -144h-161zM356 901h176l-106 -147h-123z" />
            <glyph glyph-name="Alphatonos" unicode="&#x386;" horiz-adv-x="740"
           d="M487 0l-13 157h-223l-79 -157h-215l417 720h216l113 -720h-216zM320 295h144l-19 244zM141 720h188l-107 -147h-135z" />
            <glyph glyph-name="anoteleia" unicode="&#x387;" horiz-adv-x="296"
           d="M52 220l38 175h203l-38 -175h-203z" />
            <glyph glyph-name="Epsilontonos" unicode="&#x388;" horiz-adv-x="720"
           d="M678 294h-284l-31 -148h312l-30 -146h-522l153 720h522l-32 -148h-312l-30 -140h283zM62 720h188l-107 -147h-135z" />
            <glyph glyph-name="Etatonos" unicode="&#x389;" horiz-adv-x="859"
           d="M915 720l-153 -720h-208l61 293h-219l-61 -293h-209l153 720h209l-61 -285h219l61 285h208zM62 720h188l-107 -147h-135z" />
            <glyph glyph-name="Iotatonos" unicode="&#x38a;" horiz-adv-x="433"
           d="M488 720l-153 -720h-209l153 720h209zM62 720h188l-107 -147h-135z" />
            <glyph glyph-name="Omicrontonos" unicode="&#x38c;" horiz-adv-x="888"
           d="M489 132q37 0 67 15t52 39t38 56t26 65t14.5 66t4.5 60q0 42 -11.5 72t-29.5 48.5t-41.5 27t-47.5 8.5q-39 0 -69 -15.5t-53 -41.5t-38 -58.5t-25 -66t-14 -65.5t-4 -56q0 -42 11.5 -71.5t30 -47.5t42 -26.5t47.5 -8.5zM472 -15q-63 0 -121.5 18t-104.5 54.5t-73.5 93.5
t-27.5 135q0 42 7.5 91.5t26.5 99.5t50.5 96.5t79 82.5t113 57.5t152.5 21.5q61 0 119.5 -17.5t105 -54t75 -93.5t28.5 -135q0 -44 -8 -94.5t-27.5 -100.5t-51.5 -96t-80 -81.5t-113 -56.5t-150 -21zM111 720h188l-107 -147h-135z" />
            <glyph glyph-name="Upsilontonos" unicode="&#x38e;" horiz-adv-x="861"
           d="M358 0l61 288l-170 432h219l82 -274l211 274h212l-354 -432l-61 -288h-200zM42 720h188l-107 -147h-135z" />
            <glyph glyph-name="Omegatonos" unicode="&#x38f;" horiz-adv-x="887"
           d="M513 133q30 0 55 15.5t44.5 40.5t33.5 57t23.5 65.5t14 65.5t4.5 57q0 42 -10.5 71t-28.5 48t-40.5 27.5t-46.5 8.5q-61 0 -101.5 -34t-64.5 -84t-34 -107.5t-10 -104.5q0 -66 23 -96t57 -30l-27 -133h-315l29 140h108q-35 34 -55 82.5t-20 105.5q0 76 28 149t82 130.5
t132.5 92.5t179.5 35q63 0 122 -18t104.5 -54t73.5 -90t28 -126q0 -51 -12 -95.5t-33 -82.5t-50 -70.5t-63 -58.5h87l-29 -140h-316zM110 720h188l-107 -147h-135z" />
            <glyph glyph-name="iotadieresistonos" unicode="&#x390;" horiz-adv-x="295"
           d="M11 0l110 520h193l-110 -520h-193zM18 585l31 144h160l-31 -144h-160zM287 585l31 144h161l-31 -144h-161zM260 901h176l-106 -147h-123z" />
            <glyph glyph-name="Alpha" unicode="&#x391;" horiz-adv-x="740"
           d="M487 0l-13 157h-223l-79 -157h-215l417 720h216l113 -720h-216zM320 295h144l-19 244z" />
            <glyph glyph-name="Beta" unicode="&#x392;" horiz-adv-x="687"
           d="M426 720q145 0 212.5 -41.5t67.5 -116.5q0 -34 -12.5 -63.5t-34.5 -52.5t-52.5 -39.5t-66.5 -23.5q27 -6 50 -20.5t40 -34t26.5 -44.5t9.5 -52q0 -111 -87 -171.5t-268 -60.5h-294l153 720h256zM291 312l-37 -176h87q55 0 85 26t30 78q0 33 -22.5 52.5t-61.5 19.5h-81z
M349 584l-31 -145h77q43 0 69 22.5t26 63.5q0 26 -21 42.5t-57 16.5h-63z" />
            <glyph glyph-name="Gamma" unicode="&#x393;" horiz-adv-x="545"
           d="M621 572h-274l-121 -572h-209l153 720h483z" />
            <glyph glyph-name="uni0394" unicode="&#x394;" horiz-adv-x="740"
           d="M-58 0l417 720h216l113 -720h-746zM227 138h235l-31 401z" />
            <glyph glyph-name="Epsilon" unicode="&#x395;" horiz-adv-x="614"
           d="M572 294h-284l-31 -148h312l-30 -146h-522l153 720h522l-32 -148h-312l-30 -140h283z" />
            <glyph glyph-name="Zeta" unicode="&#x396;" horiz-adv-x="647"
           d="M278 145h331l-30 -145h-597l29 136l431 439h-319l31 145h584l-29 -134z" />
            <glyph glyph-name="Eta" unicode="&#x397;" horiz-adv-x="750"
           d="M806 720l-153 -720h-208l61 293h-219l-61 -293h-209l153 720h209l-61 -285h219l61 285h208z" />
            <glyph glyph-name="Theta" unicode="&#x398;" horiz-adv-x="805"
           d="M524 294h-201l29 138h202zM402 132q38 0 68.5 14.5t53 38.5t38.5 55.5t26 64.5t14.5 66t4.5 60q0 43 -11.5 73t-30 49t-42.5 27.5t-48 8.5q-39 0 -69.5 -15.5t-53 -40.5t-38.5 -57t-25.5 -65.5t-14 -65.5t-4.5 -57q0 -43 12 -72.5t30.5 -48t42 -27t47.5 -8.5zM387 -15
q-60 0 -119.5 17.5t-106 54t-75.5 93.5t-29 135q0 47 9 98.5t29.5 101.5t53.5 95.5t81 79.5t112.5 54.5t147.5 20.5q61 0 120 -17.5t105.5 -54.5t75 -93.5t28.5 -135.5q0 -41 -7.5 -90t-26.5 -98.5t-50.5 -96.5t-79.5 -83.5t-114.5 -58.5t-153.5 -22z" />
            <glyph glyph-name="Iota" unicode="&#x399;" horiz-adv-x="323"
           d="M379 720l-153 -720h-209l153 720h209z" />
            <glyph glyph-name="Kappa" unicode="&#x39a;" horiz-adv-x="761"
           d="M472 0l-188 276l-58 -276h-209l153 720h209l-56 -261l276 261h241l-384 -350l265 -370h-249z" />
            <glyph glyph-name="Lambda" unicode="&#x39b;" horiz-adv-x="733"
           d="M481 0l-39 539l-269 -539h-216l413 720h216l109 -720h-214z" />
            <glyph glyph-name="Mu" unicode="&#x39c;" horiz-adv-x="916"
           d="M331 0l-51 406l-86 -406h-177l153 720h218l67 -523l285 523h232l-153 -720h-187l84 397l-217 -397h-168z" />
            <glyph glyph-name="Nu" unicode="&#x39d;" horiz-adv-x="748"
           d="M804 720l-153 -720h-204l-158 448l-94 -448h-178l153 720h217l148 -426l91 426h178z" />
            <glyph glyph-name="Xi" unicode="&#x39e;" horiz-adv-x="610"
           d="M535 0h-540l31 152h540zM655 568h-539l33 152h539zM513 291h-366l30 144h366z" />
            <glyph glyph-name="Omicron" unicode="&#x39f;" horiz-adv-x="800"
           d="M401 132q37 0 67 15t52 39t38 56t26 65t14.5 66t4.5 60q0 42 -11.5 72t-29.5 48.5t-41.5 27t-47.5 8.5q-39 0 -69 -15.5t-53 -41.5t-38 -58.5t-25 -66t-14 -65.5t-4 -56q0 -42 11.5 -71.5t30 -47.5t42 -26.5t47.5 -8.5zM384 -15q-63 0 -121.5 18t-104.5 54.5t-73.5 93.5
t-27.5 135q0 42 7.5 91.5t26.5 99.5t50.5 96.5t79 82.5t113 57.5t152.5 21.5q61 0 119.5 -17.5t105 -54t75 -93.5t28.5 -135q0 -44 -8 -94.5t-27.5 -100.5t-51.5 -96t-80 -81.5t-113 -56.5t-150 -21z" />
            <glyph glyph-name="Pi" unicode="&#x3a0;" horiz-adv-x="750"
           d="M806 720l-153 -720h-208l122 577h-219l-122 -577h-209l153 720h636z" />
            <glyph glyph-name="Rho" unicode="&#x3a1;" horiz-adv-x="691"
           d="M439 720q149 0 219.5 -55t70.5 -149q0 -56 -17.5 -107.5t-60 -91t-114 -63.5t-178.5 -24h-85l-48 -230h-209l153 720h269zM348 579l-44 -209h81q60 0 95 34.5t35 91.5q0 40 -26.5 61.5t-75.5 21.5h-65z" />
            <glyph glyph-name="Sigma" unicode="&#x3a3;" horiz-adv-x="638"
           d="M446 313l-171 -168h316l-30 -145h-568l28 134l244 230l-148 222l29 134h562l-31 -146h-315l104 -167z" />
            <glyph glyph-name="Tau" unicode="&#x3a4;" horiz-adv-x="636"
           d="M712 569h-211l-120 -569h-209l120 569h-206l32 151h626z" />
            <glyph glyph-name="Upsilon" unicode="&#x3a5;" horiz-adv-x="724"
           d="M222 0l61 288l-170 432h219l82 -274l211 274h212l-354 -432l-61 -288h-200z" />
            <glyph glyph-name="Phi" unicode="&#x3a6;" horiz-adv-x="980"
           d="M707 735l-9 -37q65 -2 119 -21t93 -54.5t60.5 -85.5t21.5 -114q0 -88 -30.5 -161.5t-87.5 -126.5t-138 -83t-181 -30l-8 -37h-203l8 37q-65 1 -118.5 20t-92 54t-60 85t-21.5 114q0 83 28.5 156.5t83.5 128t136.5 86.5t187.5 32l8 37h203zM586 169q52 2 89 25t61 58.5
t35 78.5t11 85q0 66 -32.5 99t-82.5 36zM465 551q-53 -1 -90 -25t-60 -60t-34 -78.5t-11 -81.5q0 -66 32.5 -99.5t80.5 -36.5z" />
            <glyph glyph-name="Chi" unicode="&#x3a7;" horiz-adv-x="750"
           d="M530 376l175 -376h-229l-91 227l-181 -227h-239l334 375l-164 345h226l84 -201l166 201h230z" />
            <glyph glyph-name="Psi" unicode="&#x3a8;" horiz-adv-x="878"
           d="M362 720l-63 -294q-2 -11 -3 -20t-1 -17q0 -32 16.5 -53t53.5 -32l88 416h200l-90 -421q57 11 82.5 40t36.5 83l64 298h195l-61 -286q-14 -63 -38.5 -112.5t-66 -85t-101 -57t-143.5 -28.5l-31 -151h-200l33 156q-121 17 -180 70.5t-59 141.5q0 17 2 33.5t6 36.5l60 282
h200z" />
            <glyph glyph-name="uni03A9" unicode="&#x3a9;" horiz-adv-x="801"
           d="M428 133q30 0 55 15.5t44.5 40.5t33.5 57t23.5 65.5t14 65.5t4.5 57q0 42 -10.5 71t-28.5 48t-40.5 27.5t-46.5 8.5q-61 0 -101.5 -34t-64.5 -84t-34 -107.5t-10 -104.5q0 -66 23 -96t57 -30l-27 -133h-315l29 140h108q-35 34 -55 82.5t-20 105.5q0 76 28 149t82 130.5
t132.5 92.5t179.5 35q63 0 122 -18t104.5 -54t73.5 -90t28 -126q0 -51 -12 -95.5t-33 -82.5t-50 -70.5t-63 -58.5h87l-29 -140h-316z" />
            <glyph glyph-name="Iotadieresis" unicode="&#x3aa;" horiz-adv-x="323"
           d="M379 720l-153 -720h-209l153 720h209zM84 781l31 144h172l-31 -144h-172zM322 781l31 144h173l-31 -144h-173z" />
            <glyph glyph-name="Upsilondieresis" unicode="&#x3ab;" horiz-adv-x="724"
           d="M222 0l61 288l-170 432h219l82 -274l211 274h212l-354 -432l-61 -288h-200zM281 781l31 144h172l-31 -144h-172zM519 781l31 144h173l-31 -144h-173z" />
            <glyph glyph-name="alphatonos" unicode="&#x3ac;" horiz-adv-x="636"
           d="M396 0l-17 63q-35 -34 -77 -56t-91 -22q-40 0 -73 14t-56 40.5t-36 64t-13 84.5q0 72 20.5 135t57.5 110t89.5 74.5t116.5 27.5q47 0 86.5 -18t59.5 -52l43 55h154l-110 -520h-154zM350 397q-27 0 -49 -15t-37.5 -40.5t-23.5 -58.5t-8 -68q0 -46 20 -69t51 -23
q25 0 47 15t37.5 40.5t24.5 60t9 72.5q0 49 -21.5 67.5t-49.5 18.5zM380 720h188l-107 -147h-135z" />
            <glyph glyph-name="epsilontonos" unicode="&#x3ad;" horiz-adv-x="581"
           d="M335 720h188l-107 -147h-135zM312 535q59 0 107 -13.5t82 -37.5t52.5 -57.5t18.5 -73.5h-187q-2 26 -22 40t-50 14q-27 0 -41.5 -12t-14.5 -33q0 -17 13.5 -28t42.5 -11h34l-24 -109h-26q-51 0 -73 -14.5t-22 -40.5q0 -20 15 -32.5t40 -12.5q32 0 54.5 16.5t40.5 51.5
h188q-19 -43 -45.5 -79t-63 -62.5t-84.5 -41t-110 -14.5q-61 0 -105.5 11.5t-74 31.5t-43.5 47t-14 58q0 63 44.5 100.5t115.5 42.5q-45 10 -68 40t-23 68q0 34 14.5 61.5t44.5 47.5t75.5 31t108.5 11z" />
            <glyph glyph-name="etatonos" unicode="&#x3ae;" horiz-adv-x="607"
           d="M116 520h164l3 -58q35 35 79.5 54t86.5 19q72 0 113 -38.5t41 -110.5q0 -14 -2.5 -34.5t-4.5 -29.5l-108 -502h-194l108 501q2 8 3 16t1 14q0 26 -14 38.5t-36 12.5q-36 0 -60 -26t-32 -68l-65 -308h-193zM339 720h188l-107 -147h-135z" />
            <glyph glyph-name="iotatonos" unicode="&#x3af;" horiz-adv-x="295"
           d="M210 720h188l-107 -147h-135zM11 0l110 520h193l-110 -520h-193z" />
            <glyph glyph-name="upsilondieresistonos" unicode="&#x3b0;" horiz-adv-x="595"
           d="M271 -15q-109 0 -172.5 43.5t-63.5 124.5q0 11 1 22.5t4 24.5l68 320h193l-69 -328q-3 -12 -3 -23q0 -51 57 -51q33 0 48 15.5t23 50.5l72 336h193l-71 -336q-21 -99 -90 -149t-190 -50zM163 585l31 144h160l-31 -144h-160zM432 585l31 144h161l-31 -144h-161zM405 901
h176l-106 -147h-123z" />
            <glyph glyph-name="alpha" unicode="&#x3b1;" horiz-adv-x="636"
           d="M396 0l-17 63q-35 -34 -77 -56t-91 -22q-40 0 -73 14t-56 40.5t-36 64t-13 84.5q0 72 20.5 135t57.5 110t89.5 74.5t116.5 27.5q47 0 86.5 -18t59.5 -52l43 55h154l-110 -520h-154zM350 397q-27 0 -49 -15t-37.5 -40.5t-23.5 -58.5t-8 -68q0 -46 20 -69t51 -23
q25 0 47 15t37.5 40.5t24.5 60t9 72.5q0 49 -21.5 67.5t-49.5 18.5z" />
            <glyph glyph-name="beta" unicode="&#x3b2;" horiz-adv-x="609"
           d="M355 -15q-48 0 -86.5 18.5t-55.5 51.5l-50 -235h-196l149 703q11 51 31.5 90.5t53.5 66.5t80 41t111 14q118 0 179.5 -44t61.5 -113q0 -34 -13.5 -65t-36.5 -55t-55 -40t-68 -20q53 -7 86.5 -50.5t33.5 -106.5q0 -47 -13 -93t-41 -82t-70.5 -58.5t-100.5 -22.5zM319 334
l25 113h22q15 0 28.5 9.5t23.5 23.5t15.5 31.5t5.5 34.5q0 25 -15.5 39t-39.5 14q-31 0 -47.5 -20t-27.5 -73l-52 -246q-5 -20 -6.5 -36t-1.5 -30q0 -37 14 -54t35 -17q20 0 38 11.5t31 30.5t20.5 44.5t7.5 54.5q0 35 -15.5 52.5t-41.5 17.5h-19z" />
            <glyph glyph-name="gamma" unicode="&#x3b3;" horiz-adv-x="591"
           d="M119 -180l39 180l-89 520h202l17 -353l165 353h209l-310 -520l-39 -180h-194z" />
            <glyph glyph-name="delta" unicode="&#x3b4;" horiz-adv-x="589"
           d="M246 720h388l-27 -125h-155q63 -32 100 -98.5t37 -150.5q0 -33 -6.5 -72t-22 -79t-40 -78t-60 -67.5t-83 -47t-108.5 -17.5q-59 0 -103.5 15.5t-74.5 43.5t-45 66.5t-15 84.5q0 41 13.5 91.5t45 94.5t82.5 73.5t126 29.5q28 0 58.5 -9t45.5 -24q-11 64 -56.5 108
t-121.5 57zM323 354q-24 0 -41 -17.5t-28 -43t-16 -53.5t-5 -50q0 -39 14 -56.5t40 -17.5q20 0 36.5 17.5t28 43t18 54t6.5 50.5q0 73 -53 73z" />
            <glyph glyph-name="epsilon" unicode="&#x3b5;" horiz-adv-x="581"
           d="M327 535q59 0 107 -13.5t82 -37.5t52.5 -57.5t18.5 -73.5h-187q-2 26 -22 40t-50 14q-27 0 -41.5 -12t-14.5 -33q0 -17 13.5 -28t42.5 -11h34l-24 -109h-26q-51 0 -73 -14.5t-22 -40.5q0 -20 15 -32.5t40 -12.5q32 0 54.5 16.5t40.5 51.5h188q-19 -43 -45.5 -79
t-63 -62.5t-84.5 -41t-110 -14.5q-61 0 -105.5 11.5t-74 31.5t-43.5 47t-14 58q0 63 44.5 100.5t115.5 42.5q-45 10 -68 40t-23 68q0 34 14.5 61.5t44.5 47.5t75.5 31t108.5 11z" />
            <glyph glyph-name="zeta" unicode="&#x3b6;" horiz-adv-x="532"
           d="M572 614q-100 -41 -165 -88.5t-103 -96.5t-53 -97t-15 -90q0 -53 27.5 -92t84.5 -56q68 -21 95.5 -47.5t27.5 -63.5q0 -25 -12.5 -53.5t-34 -56.5t-51.5 -54t-65 -46l-87 83q23 19 39.5 36.5t16.5 38.5q0 14 -13.5 25t-52.5 22q-88 26 -131.5 82t-43.5 139q0 118 73 217
t230 178h-210l27 126h439z" />
            <glyph glyph-name="eta" unicode="&#x3b7;" horiz-adv-x="607"
           d="M116 520h164l3 -58q35 35 79.5 54t86.5 19q72 0 113 -38.5t41 -110.5q0 -14 -2.5 -34.5t-4.5 -29.5l-108 -502h-194l108 501q2 8 3 16t1 14q0 26 -14 38.5t-36 12.5q-36 0 -60 -26t-32 -68l-65 -308h-193z" />
            <glyph glyph-name="theta" unicode="&#x3b8;"
           d="M267 -15q-103 0 -164 65.5t-61 193.5q0 28 4.5 75t18.5 101.5t39 110.5t65 101.5t98 74t137 28.5q104 0 164.5 -65t60.5 -193q0 -33 -6 -82t-21 -103.5t-41 -109.5t-66 -98.5t-96.5 -71t-131.5 -27.5zM287 115q17 0 32 9t29 30.5t27 57.5t27 89h-157q-5 -31 -8 -55
t-3 -44q0 -49 14.5 -68t38.5 -19zM383 607q-16 0 -30.5 -9t-28 -30t-26.5 -55.5t-26 -85.5h156q9 54 9 89q0 50 -14.5 70.5t-39.5 20.5z" />
            <glyph glyph-name="iota" unicode="&#x3b9;" horiz-adv-x="295"
           d="M11 0l110 520h193l-110 -520h-193z" />
            <glyph glyph-name="kappa" unicode="&#x3ba;" horiz-adv-x="623"
           d="M6 0l110 520h193l-37 -173l187 173h223l-276 -242l181 -278h-236l-111 193l-41 -193h-193z" />
            <glyph glyph-name="lambda" unicode="&#x3bb;" horiz-adv-x="594"
           d="M361 0l-24 381l-174 -381h-204l299 520h50q-2 51 -17.5 67t-41.5 16q-11 0 -27.5 -2.5t-42.5 -8.5l27 129q65 14 107 14q37 0 64 -9.5t46 -34t32 -66.5t23 -106l77 -519h-194z" />
            <glyph glyph-name="uni03BC" unicode="&#x3bc;" horiz-adv-x="605"
           d="M307 520l-69 -327q-2 -10 -3 -19t-1 -12q0 -21 12.5 -30.5t32.5 -9.5q29 0 55 21t36 66l66 311h193l-110 -520h-152l-4 41q-29 -30 -63.5 -43t-71.5 -13q-18 0 -35 5l-35 -170h-193l149 700h193z" />
            <glyph glyph-name="nu" unicode="&#x3bd;" horiz-adv-x="591"
           d="M662 520l-296 -520h-222l-75 520h203l15 -363l167 363h208z" />
            <glyph glyph-name="xi" unicode="&#x3be;" horiz-adv-x="560"
           d="M193 358q-45 10 -67.5 36.5t-22.5 62.5q0 49 39 85.5t127 53.5h-134l27 124h437l-24 -106h-33q-59 0 -104.5 -10.5t-76.5 -28.5t-46.5 -42.5t-15.5 -52.5q0 -30 22.5 -48.5t75.5 -18.5h63l-26 -125h-63q-44 0 -73 -7.5t-46 -20t-24 -30t-7 -36.5q0 -33 27 -54.5t81 -34.5
q45 -11 75.5 -23.5t49 -27t26.5 -32.5t8 -39q0 -50 -44.5 -105.5t-119.5 -104.5l-86 83q23 19 39.5 37t16.5 38q0 15 -16 25t-64 19q-94 18 -142 68t-48 119q0 36 12 68.5t34 59t53 44.5t70 24z" />
            <glyph glyph-name="omicron" unicode="&#x3bf;" horiz-adv-x="629"
           d="M361 535q57 0 105.5 -14t83 -42t54 -69t19.5 -95q0 -63 -18.5 -122.5t-58.5 -105.5t-102 -74t-149 -28q-56 0 -103.5 14.5t-82 42.5t-54 69.5t-19.5 96.5q0 33 6 70t20.5 73t38.5 69.5t60 59t85.5 40.5t114.5 15zM351 407q-37 0 -60 -24.5t-35.5 -57.5t-17 -67.5
t-4.5 -55.5q0 -47 20 -68t57 -21t59.5 24.5t35 58.5t17 69.5t4.5 57.5q0 45 -19.5 64.5t-56.5 19.5z" />
            <glyph glyph-name="pi" unicode="&#x3c0;" horiz-adv-x="593"
           d="M580 389l-83 -389h-192l82 389h-96l-82 -389h-193l82 389h-48l28 131h577l-28 -131h-47z" />
            <glyph glyph-name="rho" unicode="&#x3c1;" horiz-adv-x="637"
           d="M346 -15q-42 0 -81 15.5t-62 44.5l-47 -225h-193l96 457q14 67 37.5 115.5t60.5 80t88.5 47t122.5 15.5q61 0 109.5 -16t83 -45t53 -71t18.5 -94q0 -27 -6 -61.5t-19.5 -70.5t-35.5 -70.5t-54 -61.5t-74.5 -43.5t-96.5 -16.5zM358 398q-33 0 -55.5 -20t-36.5 -48.5
t-20 -61t-6 -56.5q0 -48 20.5 -69t50.5 -21q35 0 59 19.5t39 48t21.5 60.5t6.5 57q0 47 -22.5 69t-56.5 22z" />
            <glyph glyph-name="sigma1" unicode="&#x3c2;" horiz-adv-x="607"
           d="M252 -17q-112 15 -165 72.5t-53 147.5q0 52 15.5 110t52.5 107.5t99.5 82t157.5 32.5q56 0 102.5 -14.5t79.5 -41t51.5 -63t18.5 -79.5h-200q0 31 -18 48.5t-41 17.5q-34 0 -56 -17t-35 -42.5t-18 -55t-5 -54.5q0 -47 27.5 -76t93.5 -45q84 -21 119.5 -52t35.5 -76
q0 -59 -44 -109.5t-113 -98.5q-21 21 -41.5 42t-42.5 42q24 19 39 36.5t15 39.5q0 17 -17 28.5t-58 17.5z" />
            <glyph glyph-name="sigma" unicode="&#x3c3;" horiz-adv-x="628"
           d="M612 389q5 -16 7.5 -38t2.5 -46q0 -52 -16.5 -108.5t-55 -103.5t-102 -77.5t-157.5 -30.5q-56 0 -103 15t-81 43.5t-53 70.5t-19 96q0 33 6 70t21 73t39.5 69t61.5 58t88.5 40t118.5 15q27 0 60.5 -3.5t56.5 -11.5h204l-28 -134zM406 400q-9 3 -24 5t-27 2
q-37 0 -60.5 -22.5t-37 -54.5t-18.5 -67.5t-5 -60.5q0 -89 76 -89q35 0 58 25t36.5 59.5t18.5 71t5 60.5q0 26 -6 43.5t-16 27.5z" />
            <glyph glyph-name="tau" unicode="&#x3c4;" horiz-adv-x="520"
           d="M77 520h506l-28 -131h-156l-83 -389h-193l82 389h-156z" />
            <glyph glyph-name="upsilon" unicode="&#x3c5;" horiz-adv-x="595"
           d="M271 -15q-109 0 -172.5 43.5t-63.5 124.5q0 11 1 22.5t4 24.5l68 320h193l-69 -328q-3 -12 -3 -23q0 -51 57 -51q33 0 48 15.5t23 50.5l72 336h193l-71 -336q-21 -99 -90 -149t-190 -50z" />
            <glyph glyph-name="phi" unicode="&#x3c6;" horiz-adv-x="837"
           d="M342 520q-48 -85 -79 -156.5t-31 -128.5q0 -70 71 -93l31 146q13 63 33 109.5t51 77t76.5 45.5t110.5 15q109 0 170 -51.5t61 -146.5q0 -34 -7 -69q-15 -69 -43 -119.5t-72 -84t-106.5 -52t-146.5 -24.5l-35 -168h-192l37 171q-124 16 -181 68.5t-57 134.5q0 40 9 80
t25 80.5t38 82t47 83.5h190zM493 136q34 5 58.5 15.5t41.5 27.5t27.5 41t17.5 56q4 17 5.5 32t1.5 27q0 35 -13 49t-33 14q-13 0 -23.5 -4.5t-19.5 -17t-17 -36t-16 -62.5z" />
            <glyph glyph-name="chi" unicode="&#x3c7;" horiz-adv-x="610"
           d="M408 181l124 -361h-215l-42 223l-136 -223h-218l272 359l-115 341h210l33 -212l119 212h215z" />
            <glyph glyph-name="psi" unicode="&#x3c8;" horiz-adv-x="831"
           d="M301 520l-54 -254q-5 -23 -5 -39q0 -67 71 -87l81 380h186l-82 -385q56 9 83 36.5t38 81.5l57 267h181l-54 -259q-14 -65 -38 -113.5t-64 -82t-97.5 -52.5t-137.5 -25l-35 -168h-186l36 172q-119 15 -173.5 68t-54.5 141q0 19 2.5 39t7.5 42l51 238h187z" />
            <glyph glyph-name="omega" unicode="&#x3c9;" horiz-adv-x="824"
           d="M797 520q8 -38 12 -79t4 -84q0 -74 -12.5 -141t-42.5 -118.5t-80.5 -82t-126.5 -30.5q-42 0 -71 11t-47 30.5t-26 46.5t-8 59q-10 -31 -28 -57.5t-44.5 -46.5t-60.5 -31.5t-76 -11.5q-74 0 -118.5 45t-44.5 124q0 42 11.5 87.5t30.5 93t44 94.5t53 91h183
q-25 -41 -48.5 -87.5t-41.5 -91.5t-28.5 -85.5t-10.5 -70.5q0 -31 12 -49.5t35 -18.5q25 0 42 25.5t27 70.5l35 167h162l-35 -167q-2 -12 -3.5 -22.5t-1.5 -19.5q0 -26 10 -40t30 -14q22 0 37.5 14t26 36t16 50t8.5 56t4 52.5t1 41.5q0 42 -2.5 80t-8.5 73h182z" />
            <glyph glyph-name="iotadieresis" unicode="&#x3ca;" horiz-adv-x="295"
           d="M28 585l31 144h172l-31 -144h-172zM266 585l31 144h173l-31 -144h-173zM11 0l110 520h193l-110 -520h-193z" />
            <glyph glyph-name="upsilondieresis" unicode="&#x3cb;" horiz-adv-x="595"
           d="M271 -15q-109 0 -172.5 43.5t-63.5 124.5q0 11 1 22.5t4 24.5l68 320h193l-69 -328q-3 -12 -3 -23q0 -51 57 -51q33 0 48 15.5t23 50.5l72 336h193l-71 -336q-21 -99 -90 -149t-190 -50zM173 585l31 144h172l-31 -144h-172zM411 585l31 144h173l-31 -144h-173z" />
            <glyph glyph-name="omicrontonos" unicode="&#x3cc;" horiz-adv-x="629"
           d="M361 535q57 0 105.5 -14t83 -42t54 -69t19.5 -95q0 -63 -18.5 -122.5t-58.5 -105.5t-102 -74t-149 -28q-56 0 -103.5 14.5t-82 42.5t-54 69.5t-19.5 96.5q0 33 6 70t20.5 73t38.5 69.5t60 59t85.5 40.5t114.5 15zM351 407q-37 0 -60 -24.5t-35.5 -57.5t-17 -67.5
t-4.5 -55.5q0 -47 20 -68t57 -21t59.5 24.5t35 58.5t17 69.5t4.5 57.5q0 45 -19.5 64.5t-56.5 19.5zM377 720h188l-107 -147h-135z" />
            <glyph glyph-name="upsilontonos" unicode="&#x3cd;" horiz-adv-x="595"
           d="M364 720h188l-107 -147h-135zM271 -15q-109 0 -172.5 43.5t-63.5 124.5q0 11 1 22.5t4 24.5l68 320h193l-69 -328q-3 -12 -3 -23q0 -51 57 -51q33 0 48 15.5t23 50.5l72 336h193l-71 -336q-21 -99 -90 -149t-190 -50z" />
            <glyph glyph-name="omegatonos" unicode="&#x3ce;" horiz-adv-x="826"
           d="M797 520q8 -38 12 -79t4 -84q0 -74 -12.5 -141t-42.5 -118.5t-80.5 -82t-126.5 -30.5q-42 0 -71 11t-47 30.5t-26 46.5t-8 59q-10 -31 -28 -57.5t-44.5 -46.5t-60.5 -31.5t-76 -11.5q-74 0 -118.5 45t-44.5 124q0 42 11.5 87.5t30.5 93t44 94.5t53 91h183
q-25 -41 -48.5 -87.5t-41.5 -91.5t-28.5 -85.5t-10.5 -70.5q0 -31 12 -49.5t35 -18.5q25 0 42 25.5t27 70.5l35 167h162l-35 -167q-2 -12 -3.5 -22.5t-1.5 -19.5q0 -26 10 -40t30 -14q22 0 37.5 14t26 36t16 50t8.5 56t4 52.5t1 41.5q0 42 -2.5 80t-8.5 73h182zM486 720h188
l-107 -147h-135z" />
            <glyph glyph-name="uni0400" unicode="&#x400;" horiz-adv-x="614"
           d="M572 294h-284l-31 -148h312l-30 -146h-522l153 720h522l-32 -148h-312l-30 -140h283zM517 774h-134l-128 154h188z" />
            <glyph glyph-name="afii10023" unicode="&#x401;" horiz-adv-x="614"
           d="M572 294h-284l-31 -148h312l-30 -146h-522l153 720h522l-32 -148h-312l-30 -140h283zM238 781l31 144h172l-31 -144h-172zM476 781l31 144h173l-31 -144h-173z" />
            <glyph glyph-name="afii10051" unicode="&#x402;" horiz-adv-x="854"
           d="M152 0l121 569h-187l32 151h586l-32 -151h-190l-27 -129q44 34 92.5 52.5t99.5 18.5q96 0 145.5 -45.5t49.5 -136.5q0 -11 -1 -23.5t-4 -31t-8 -45.5t-14 -67q-19 -83 -73.5 -130t-158.5 -47q-26 0 -54.5 4t-48.5 10l28 136q28 -9 48 -9q23 0 34 9.5t17 35.5l18 80
q2 9 3 18.5t1 17.5q0 36 -19.5 57.5t-58.5 21.5q-24 0 -46.5 -8.5t-40.5 -23.5t-31 -36t-18 -45l-54 -253h-209z" />
            <glyph glyph-name="afii10052" unicode="&#x403;" horiz-adv-x="545"
           d="M621 572h-274l-121 -572h-209l153 720h483zM455 929h200l-193 -154h-148z" />
            <glyph glyph-name="afii10053" unicode="&#x404;" horiz-adv-x="762"
           d="M382 128q57 0 95 35.5t60 112.5h212q-50 -148 -146 -219.5t-245 -71.5q-66 0 -121 20.5t-95 58.5t-62 93.5t-22 125.5q0 41 7.5 90.5t26 99.5t49.5 97.5t78.5 84t113.5 58.5t153 22q64 0 119 -16.5t95 -48t62.5 -78t22.5 -107.5v-14h-208q0 33 -8.5 56t-23.5 37.5t-35 21
t-43 6.5q-52 0 -92.5 -36.5t-68.5 -118.5h183l-30 -139h-185q-1 -8 -1.5 -16t-0.5 -15q0 -74 32.5 -106.5t77.5 -32.5z" />
            <glyph glyph-name="afii10054" unicode="&#x405;" horiz-adv-x="679"
           d="M327 -15q-80 0 -137 19.5t-94 51.5t-54.5 74t-17.5 86v11h202q0 -47 29 -73.5t89 -26.5q61 0 86 21.5t25 53.5q0 17 -7 31t-23.5 25.5t-44 21t-68.5 18.5q-47 10 -86 29t-66.5 46t-43 61.5t-15.5 75.5q0 54 18 95.5t56 70.5t97 44t142 15q66 0 120.5 -16t92.5 -45.5
t59 -71.5t21 -93h-197q0 45 -31 64.5t-78 19.5t-65 -16t-18 -43q0 -29 26 -49t89 -34q115 -26 176 -79t61 -138q0 -56 -18.5 -102t-59.5 -78.5t-106 -50.5t-159 -18z" />
            <glyph glyph-name="afii10055" unicode="&#x406;" horiz-adv-x="323"
           d="M379 720l-153 -720h-209l153 720h209z" />
            <glyph glyph-name="afii10056" unicode="&#x407;" horiz-adv-x="323"
           d="M379 720l-153 -720h-209l153 720h209zM84 781l31 144h172l-31 -144h-172zM322 781l31 144h173l-31 -144h-173z" />
            <glyph glyph-name="afii10057" unicode="&#x408;" horiz-adv-x="593"
           d="M224 230q-3 -20 -3 -34q0 -38 16.5 -52.5t36.5 -14.5q25 0 42 17t28 67l108 507h202l-106 -495q-13 -59 -35 -104t-56 -75t-82 -45.5t-112 -15.5q-52 0 -96.5 12.5t-77 38t-51 64.5t-18.5 93q0 17 3 37h201z" />
            <glyph glyph-name="afii10058" unicode="&#x409;" horiz-adv-x="1111"
           d="M809 490q149 0 219.5 -55t70.5 -149q0 -145 -95 -215.5t-275 -70.5h-293l123 579h-175l-116 -387q-15 -50 -37 -86t-57 -59.5t-86 -35t-123 -11.5q8 33 14.5 66t13.5 67q18 0 31.5 3t23.5 11.5t18 23t15 38.5l154 511h563l-49 -230h60zM719 349l-45 -209h81q60 0 95 34.5
t35 91.5q0 40 -26.5 61.5t-75.5 21.5h-64z" />
            <glyph glyph-name="afii10059" unicode="&#x40a;" horiz-adv-x="1102"
           d="M792 720l-55 -259h58q152 0 223.5 -49.5t71.5 -140.5q0 -141 -94 -206t-275 -65h-291l68 320h-205l-68 -320h-208l153 720h208l-55 -259h205l55 259h209zM707 320l-39 -180h84q53 0 88.5 26.5t35.5 82.5q0 36 -29 53.5t-77 17.5h-63z" />
            <glyph glyph-name="afii10060" unicode="&#x40b;" horiz-adv-x="852"
           d="M153 0l120 569h-187l32 151h586l-32 -151h-190l-27 -129q44 34 92 52.5t96 18.5q97 0 147 -47t50 -140q0 -41 -11 -96l-48 -228h-209l51 246q2 11 3.5 21t1.5 19q0 38 -20 59t-59 21q-24 0 -46 -8t-40 -23t-30.5 -35.5t-17.5 -45.5l-53 -254h-209z" />
            <glyph glyph-name="afii10061" unicode="&#x40c;" horiz-adv-x="761"
           d="M522 928h200l-193 -154h-148zM492 0l-156 293h-49l-61 -293h-209l153 720h209l-61 -286h49l253 286h220l-325 -355l206 -365h-229z" />
            <glyph glyph-name="uni040D" unicode="&#x40d;" horiz-adv-x="750"
           d="M806 720l-153 -720h-208l84 397l-293 -348l-10 -49h-209l153 720h209l-85 -398l293 349l11 49h208zM566 774h-134l-128 154h188z" />
            <glyph glyph-name="afii10062" unicode="&#x40e;" horiz-adv-x="653"
           d="M456 770q-33 0 -60.5 6t-48 19.5t-32 35.5t-11.5 54v8q0 3 1 11h139q0 -19 7.5 -25.5t21.5 -6.5q12 0 23.5 7t17.5 25h139q-14 -38 -34.5 -63.5t-46 -41t-55 -22.5t-61.5 -7zM441 174q-33 -56 -61.5 -92.5t-58 -58t-63 -30t-77.5 -8.5q-22 0 -47.5 4t-53.5 12l28 133
q23 -8 40.5 -11t28.5 -3q25 0 41 12t35 47h-47l-93 541h202l33 -402l208 402h209z" />
            <glyph glyph-name="afii10145" unicode="&#x40f;" horiz-adv-x="750"
           d="M431 0l-30 -140h-193l30 140h-221l153 720h209l-123 -576h218l123 576h209l-153 -720h-222z" />
            <glyph glyph-name="afii10017" unicode="&#x410;" horiz-adv-x="740"
           d="M487 0l-13 157h-223l-79 -157h-215l417 720h216l113 -720h-216zM320 295h144l-19 244z" />
            <glyph glyph-name="afii10018" unicode="&#x411;" horiz-adv-x="701"
           d="M389 490q149 0 220 -55t71 -149q0 -145 -95 -215.5t-275 -70.5h-293l153 720h486l-31 -147h-278l-18 -83h60zM299 349l-45 -209h81q60 0 95 34.5t35 91.5q0 40 -26.5 61.5t-75.5 21.5h-64z" />
            <glyph glyph-name="afii10019" unicode="&#x412;" horiz-adv-x="687"
           d="M426 720q145 0 212.5 -41.5t67.5 -116.5q0 -34 -12.5 -63.5t-34.5 -52.5t-52.5 -39.5t-66.5 -23.5q27 -6 50 -20.5t40 -34t26.5 -44.5t9.5 -52q0 -111 -87 -171.5t-268 -60.5h-294l153 720h256zM291 312l-37 -176h87q55 0 85 26t30 78q0 33 -22.5 52.5t-61.5 19.5h-81z
M349 584l-31 -145h77q43 0 69 22.5t26 63.5q0 26 -21 42.5t-57 16.5h-63z" />
            <glyph glyph-name="afii10020" unicode="&#x413;" horiz-adv-x="545"
           d="M621 572h-274l-121 -572h-209l153 720h483z" />
            <glyph glyph-name="afii10021" unicode="&#x414;" horiz-adv-x="758"
           d="M798 720l-124 -580h78l-59 -280h-188l30 140h-396l-30 -140h-187l59 280h63q24 17 40.5 43t27.5 68l123 469h563zM317 297q-15 -56 -41 -92t-64 -65h259l93 439h-172z" />
            <glyph glyph-name="afii10022" unicode="&#x415;" horiz-adv-x="614"
           d="M572 294h-284l-31 -148h312l-30 -146h-522l153 720h522l-32 -148h-312l-30 -140h283z" />
            <glyph glyph-name="afii10024" unicode="&#x416;" horiz-adv-x="1088"
           d="M357 720l92 -286h43l61 286h208l-61 -286h43l207 286h217l-274 -352l155 -368h-228l-102 293h-48l-62 -293h-208l61 293h-51l-216 -293h-234l315 386l-128 334h210z" />
            <glyph glyph-name="afii10025" unicode="&#x417;" horiz-adv-x="656"
           d="M314 128q47 0 77 28.5t30 79.5q0 35 -23.5 54.5t-64.5 19.5h-65l27 127h65q53 0 82 24t29 69q0 28 -21 46t-56 18q-38 0 -63.5 -17t-39.5 -49h-203q32 95 114 151t220 56q61 0 110.5 -13t84.5 -36.5t53.5 -55t18.5 -68.5q0 -69 -46.5 -116t-126.5 -64q57 -14 87.5 -55.5
t30.5 -95.5q0 -56 -23 -101t-66 -77.5t-105 -50t-140 -17.5q-64 0 -114.5 15.5t-86 42.5t-54 63.5t-18.5 77.5v10q0 6 1 11h208q-1 -2 -1 -6v-5q0 -30 18.5 -48t60.5 -18z" />
            <glyph glyph-name="afii10026" unicode="&#x418;" horiz-adv-x="750"
           d="M806 720l-153 -720h-208l84 397l-293 -348l-10 -49h-209l153 720h209l-85 -398l293 349l11 49h208z" />
            <glyph glyph-name="afii10027" unicode="&#x419;" horiz-adv-x="750"
           d="M501 770q-33 0 -60.5 6t-48 19.5t-32 35.5t-11.5 54v8q0 3 1 11h139q0 -19 7.5 -25.5t21.5 -6.5q12 0 23.5 7t17.5 25h139q-14 -38 -34.5 -63.5t-46 -41t-55 -22.5t-61.5 -7zM806 720l-153 -720h-208l84 397l-293 -348l-10 -49h-209l153 720h209l-85 -398l293 349l11 49
h208z" />
            <glyph glyph-name="afii10028" unicode="&#x41a;" horiz-adv-x="761"
           d="M492 0l-156 293h-49l-61 -293h-209l153 720h209l-61 -286h49l253 286h220l-325 -355l206 -365h-229z" />
            <glyph glyph-name="afii10029" unicode="&#x41b;" horiz-adv-x="743"
           d="M799 720l-153 -720h-203l123 580h-181l-118 -388q-16 -53 -38 -89.5t-56.5 -59t-85 -33t-122.5 -10.5l28 133q18 0 31.5 3t24 11.5t18.5 23.5t15 38l153 511h564z" />
            <glyph glyph-name="afii10030" unicode="&#x41c;" horiz-adv-x="916"
           d="M331 0l-51 406l-86 -406h-177l153 720h218l67 -523l285 523h232l-153 -720h-187l84 397l-217 -397h-168z" />
            <glyph glyph-name="afii10031" unicode="&#x41d;" horiz-adv-x="750"
           d="M806 720l-153 -720h-208l61 293h-219l-61 -293h-209l153 720h209l-61 -285h219l61 285h208z" />
            <glyph glyph-name="afii10032" unicode="&#x41e;" horiz-adv-x="800"
           d="M401 132q37 0 67 15t52 39t38 56t26 65t14.5 66t4.5 60q0 42 -11.5 72t-29.5 48.5t-41.5 27t-47.5 8.5q-39 0 -69 -15.5t-53 -41.5t-38 -58.5t-25 -66t-14 -65.5t-4 -56q0 -42 11.5 -71.5t30 -47.5t42 -26.5t47.5 -8.5zM384 -15q-63 0 -121.5 18t-104.5 54.5t-73.5 93.5
t-27.5 135q0 42 7.5 91.5t26.5 99.5t50.5 96.5t79 82.5t113 57.5t152.5 21.5q61 0 119.5 -17.5t105 -54t75 -93.5t28.5 -135q0 -44 -8 -94.5t-27.5 -100.5t-51.5 -96t-80 -81.5t-113 -56.5t-150 -21z" />
            <glyph glyph-name="afii10033" unicode="&#x41f;" horiz-adv-x="750"
           d="M806 720l-153 -720h-208l122 577h-219l-122 -577h-209l153 720h636z" />
            <glyph glyph-name="afii10034" unicode="&#x420;" horiz-adv-x="691"
           d="M439 720q149 0 219.5 -55t70.5 -149q0 -56 -17.5 -107.5t-60 -91t-114 -63.5t-178.5 -24h-85l-48 -230h-209l153 720h269zM348 579l-44 -209h81q60 0 95 34.5t35 91.5q0 40 -26.5 61.5t-75.5 21.5h-65z" />
            <glyph glyph-name="afii10035" unicode="&#x421;" horiz-adv-x="761"
           d="M383 128q58 0 95 35.5t60 112.5h211q-50 -148 -144 -219.5t-243 -71.5q-73 0 -129.5 21t-95.5 60t-59 94.5t-20 123.5q0 50 9 102.5t29.5 102.5t53 95t79.5 78.5t110 53t143 19.5q63 0 118.5 -16.5t96.5 -49t64.5 -80t23.5 -108.5v-10h-208q0 65 -30.5 93t-76.5 28
q-53 0 -90.5 -31.5t-61 -78.5t-34 -102t-10.5 -102q0 -78 31 -114t78 -36z" />
            <glyph glyph-name="afii10036" unicode="&#x422;" horiz-adv-x="636"
           d="M712 569h-211l-120 -569h-209l120 569h-206l32 151h626z" />
            <glyph glyph-name="afii10037" unicode="&#x423;" horiz-adv-x="653"
           d="M441 174q-33 -56 -61.5 -92.5t-58 -58t-63 -30t-77.5 -8.5q-22 0 -47.5 4t-53.5 12l28 133q23 -8 40.5 -11t28.5 -3q25 0 41 12t35 47h-47l-93 541h202l33 -402l208 402h209z" />
            <glyph glyph-name="afii10038" unicode="&#x424;" horiz-adv-x="980"
           d="M707 735l-9 -37q65 -2 119 -21t93 -54.5t60.5 -85.5t21.5 -114q0 -88 -30.5 -161.5t-87.5 -126.5t-138 -83t-181 -30l-8 -37h-203l8 37q-65 1 -118.5 20t-92 54t-60 85t-21.5 114q0 83 28.5 156.5t83.5 128t136.5 86.5t187.5 32l8 37h203zM586 169q52 2 89 25t61 58.5
t35 78.5t11 85q0 66 -32.5 99t-82.5 36zM465 551q-53 -1 -90 -25t-60 -60t-34 -78.5t-11 -81.5q0 -66 32.5 -99.5t80.5 -36.5z" />
            <glyph glyph-name="afii10039" unicode="&#x425;" horiz-adv-x="750"
           d="M530 376l175 -376h-229l-91 227l-181 -227h-239l334 375l-164 345h226l84 -201l166 201h230z" />
            <glyph glyph-name="afii10040" unicode="&#x426;" horiz-adv-x="766"
           d="M256 144h218l124 576h208l-123 -577h80l-60 -283h-193l30 140h-523l153 720h209z" />
            <glyph glyph-name="afii10041" unicode="&#x427;" horiz-adv-x="730"
           d="M786 720l-153 -720h-208l57 273q-42 -34 -87.5 -52t-90.5 -18q-101 0 -154 47t-53 141q0 42 10 89l51 240h210l-56 -257q-4 -17 -4 -37q0 -36 20 -57t59 -21q54 0 89 33.5t46 84.5l56 254h208z" />
            <glyph glyph-name="afii10042" unicode="&#x428;" horiz-adv-x="992"
           d="M17 0l153 720h209l-123 -576h129l123 576h208l-123 -576h123l124 576h208l-153 -720h-878z" />
            <glyph glyph-name="afii10043" unicode="&#x429;" horiz-adv-x="1008"
           d="M17 0l153 720h209l-123 -576h129l123 576h208l-123 -576h123l124 576h208l-123 -577h80l-60 -283h-193l30 140h-765z" />
            <glyph glyph-name="afii10044" unicode="&#x42a;" horiz-adv-x="857"
           d="M555 490q149 0 220 -55t71 -149q0 -145 -95 -215.5t-275 -70.5h-293l121 572h-213l32 148h421l-49 -230h60zM465 350l-45 -210h81q60 0 95 34.5t35 91.5q0 41 -26.5 62.5t-75.5 21.5h-64z" />
            <glyph glyph-name="afii10045" unicode="&#x42b;" horiz-adv-x="980"
           d="M1035 720l-153 -720h-209l153 720h209zM389 490q149 0 220 -55t71 -149q0 -145 -95 -215.5t-275 -70.5h-293l153 720h208l-49 -230h60zM299 349l-45 -209h81q60 0 95 34.5t35 91.5q0 40 -26.5 61.5t-75.5 21.5h-64z" />
            <glyph glyph-name="afii10046" unicode="&#x42c;" horiz-adv-x="691"
           d="M389 490q149 0 220 -55t71 -149q0 -145 -95 -215.5t-275 -70.5h-293l153 720h208l-49 -230h60zM299 349l-45 -209h81q60 0 95 34.5t35 91.5q0 40 -26.5 61.5t-75.5 21.5h-64z" />
            <glyph glyph-name="afii10047" unicode="&#x42d;" horiz-adv-x="763"
           d="M378 437h183q1 6 1 12v11q0 69 -30.5 100.5t-78.5 31.5q-100 0 -149 -122h-209q47 125 143.5 195t233.5 70q71 0 127.5 -20t96 -57.5t60.5 -91t21 -120.5q0 -55 -13 -113q-16 -75 -49 -138.5t-83 -110t-118.5 -73t-155.5 -26.5q-72 0 -129 16t-97.5 47.5t-62 79.5
t-21.5 111q0 9 0.5 18t1.5 18h211q-2 -8 -2 -17v-16q0 -59 31.5 -86.5t82.5 -27.5q49 0 90 39t70 131h-185z" />
            <glyph glyph-name="afii10048" unicode="&#x42e;" horiz-adv-x="1105"
           d="M699 -15q-71 0 -128.5 23t-99 64t-65 97t-24.5 123h-95l-62 -292h-208l153 720h208l-60 -285h87q24 85 63.5 142.5t90.5 92.5t112 50t128 15q59 0 116.5 -17.5t102.5 -54.5t73 -93t28 -134q0 -40 -7.5 -89t-26.5 -99t-50 -97.5t-77.5 -84t-110.5 -59t-148 -22.5zM714 132
q36 0 64 15t49.5 40t36.5 57t24.5 66t14 66.5t4.5 59.5q0 42 -10 71t-27 47t-39 26t-46 8q-35 0 -63 -15.5t-49 -41.5t-36 -58.5t-24.5 -66.5t-14 -66.5t-4.5 -57.5q0 -41 10.5 -69.5t27.5 -46.5t38.5 -26t43.5 -8z" />
            <glyph glyph-name="afii10049" unicode="&#x42f;" horiz-adv-x="727"
           d="M-38 0l255 288q-47 25 -73 66t-26 98q0 55 19 103.5t61 85t109.5 58t164.5 21.5h310l-153 -720h-209l53 250h-63l-207 -250h-241zM336 471q0 -34 24 -56.5t63 -22.5h80l39 186h-81q-61 0 -93 -28t-32 -79z" />
            <glyph glyph-name="afii10065" unicode="&#x430;" horiz-adv-x="581"
           d="M69 358q37 88 108.5 132.5t179.5 44.5q105 0 161.5 -43.5t56.5 -120.5q0 -11 -1 -23.5t-4 -25.5l-68 -322h-150l-12 58q-26 -29 -72.5 -51t-106.5 -22q-73 0 -112.5 35t-39.5 95q0 39 13 70.5t43.5 56t79.5 42t121 29.5l112 18l3 14q2 6 2 11v8q0 45 -50 45
q-25 0 -44 -13.5t-27 -37.5h-193zM250 111q32 0 60 20.5t37 56.5l10 44q-47 -9 -77 -16.5t-46.5 -16.5t-22.5 -20.5t-6 -29.5q0 -38 45 -38z" />
            <glyph glyph-name="afii10066" unicode="&#x431;" horiz-adv-x="623"
           d="M261 440q29 26 70 43.5t80 17.5q45 0 82.5 -14.5t64.5 -41t41.5 -64t14.5 -84.5q0 -61 -19 -117t-58.5 -99.5t-101.5 -69.5t-149 -26q-119 0 -183 61.5t-64 170.5q0 33 6 75t20 87t36.5 90t56 83t79 66.5t104.5 40.5q74 15 105 28t36 33h197q-7 -27 -22 -48.5
t-43.5 -39.5t-73.5 -33.5t-112 -30.5q-36 -8 -62.5 -19t-46 -27t-33.5 -36t-25 -46zM343 372q-32 0 -54 -17.5t-35.5 -43t-19 -55.5t-5.5 -55q0 -44 20 -66t53 -22q32 0 54 17.5t35 44t18.5 56.5t5.5 54q0 45 -20 66t-52 21z" />
            <glyph glyph-name="afii10067" unicode="&#x432;" horiz-adv-x="591"
           d="M6 0l110 520h264q114 0 165 -31.5t51 -83.5t-40 -88t-119 -44q60 -7 92 -38.5t32 -72.5q0 -32 -13 -61t-43 -51.5t-80 -36t-124 -13.5h-295zM243 211l-19 -91h66q42 0 61 13t19 38q0 17 -14 28.5t-40 11.5h-73zM283 400l-16 -78h70q26 0 42 11t16 33q0 15 -13.5 24.5
t-40.5 9.5h-58z" />
            <glyph glyph-name="afii10068" unicode="&#x433;" horiz-adv-x="442"
           d="M505 520l-28 -131h-196l-82 -389h-193l110 520h389z" />
            <glyph glyph-name="afii10069" unicode="&#x434;" horiz-adv-x="636"
           d="M25 131q15 10 28.5 28t26.5 60l92 301h475l-82 -389h69l-57 -271h-179l30 140h-304l-30 -140h-177l56 271h52zM271 236q-11 -39 -34.5 -64t-56.5 -41h195l55 258h-115z" />
            <glyph glyph-name="afii10070" unicode="&#x435;" horiz-adv-x="619"
           d="M581 165q-17 -38 -43.5 -71t-63 -57t-83.5 -38t-105 -14q-57 0 -103 16.5t-78.5 46.5t-50 72t-17.5 93q0 58 19.5 115.5t59 103.5t100 74.5t142.5 28.5q54 0 99.5 -15t78.5 -44t51.5 -72t18.5 -100q0 -42 -10 -86h-366q-1 -5 -1 -9v-9q0 -45 22 -64t58 -19
q29 0 48.5 13.5t27.5 34.5h196zM351 414q-30 0 -56 -21.5t-43 -72.5h167q2 7 2 13v12q0 35 -18.5 52t-51.5 17z" />
            <glyph glyph-name="afii10072" unicode="&#x436;" horiz-adv-x="883"
           d="M279 520l75 -186h21l40 186h193l-39 -186h21l147 186h203l-209 -250l112 -270h-214l-63 203h-25l-43 -203h-193l43 203h-27l-142 -203h-219l231 290l-108 230h196z" />
            <glyph glyph-name="afii10073" unicode="&#x437;" horiz-adv-x="572"
           d="M353 535q56 0 98 -10t69.5 -27.5t41 -40.5t13.5 -50q0 -51 -36 -84t-108 -47q49 -7 78 -39t29 -77q0 -33 -14 -64.5t-45 -56t-82 -39.5t-124 -15q-56 0 -100.5 14.5t-75.5 41t-48.5 62.5t-18.5 79h190q2 -35 18.5 -51.5t44.5 -16.5q26 0 43 14t17 40q0 20 -17.5 33
t-56.5 13h-17l23 109h29q32 0 51.5 11t19.5 35q0 15 -13 26.5t-36 11.5q-30 0 -50 -14t-32 -40h-190q16 39 43.5 72.5t65.5 58t86 38t104 13.5z" />
            <glyph glyph-name="afii10074" unicode="&#x438;" horiz-adv-x="611"
           d="M6 0l110 520h193l-55 -253l181 219l7 34h193l-110 -520h-193l54 252l-181 -221l-6 -31h-193z" />
            <glyph glyph-name="afii10075" unicode="&#x439;" horiz-adv-x="611"
           d="M390 574q-33 0 -60.5 6t-48 19.5t-32 35.5t-11.5 54v8q0 3 1 11h139q0 -19 7.5 -25.5t21.5 -6.5q12 0 23.5 7t17.5 25h139q-14 -38 -34.5 -63.5t-46 -41t-55 -22.5t-61.5 -7zM6 0l110 520h193l-55 -253l181 219l7 34h193l-110 -520h-193l54 252l-181 -221l-6 -31h-193z
" />
            <glyph glyph-name="afii10076" unicode="&#x43a;" horiz-adv-x="623"
           d="M6 0l110 520h193l-39 -186h25l181 186h206l-253 -250l158 -270h-220l-106 203h-19l-43 -203h-193z" />
            <glyph glyph-name="afii10077" unicode="&#x43b;" horiz-adv-x="638"
           d="M662 520l-110 -520h-193l82 390h-121l-61 -209q-14 -49 -35 -83.5t-54 -56t-81.5 -31.5t-118.5 -10l27 130q18 0 31.5 3t23 10.5t17 21.5t14.5 37l95 318h484z" />
            <glyph glyph-name="afii10078" unicode="&#x43c;" horiz-adv-x="732"
           d="M270 30l-25 258l-61 -288h-178l110 520h228l23 -301l146 301h243l-110 -520h-188l61 289l-131 -259h-118z" />
            <glyph glyph-name="afii10079" unicode="&#x43d;" horiz-adv-x="611"
           d="M309 520l-38 -177h133l38 177h193l-110 -520h-193l45 212h-133l-45 -212h-193l110 520h193z" />
            <glyph glyph-name="afii10080" unicode="&#x43e;" horiz-adv-x="629"
           d="M361 535q57 0 105.5 -14t83 -42t54 -69t19.5 -95q0 -63 -18.5 -122.5t-58.5 -105.5t-102 -74t-149 -28q-56 0 -103.5 14.5t-82 42.5t-54 69.5t-19.5 96.5q0 33 6 70t20.5 73t38.5 69.5t60 59t85.5 40.5t114.5 15zM351 407q-37 0 -60 -24.5t-35.5 -57.5t-17 -67.5
t-4.5 -55.5q0 -47 20 -68t57 -21t59.5 24.5t35 58.5t17 69.5t4.5 57.5q0 45 -19.5 64.5t-56.5 19.5z" />
            <glyph glyph-name="afii10081" unicode="&#x43f;" horiz-adv-x="611"
           d="M635 520l-110 -520h-193l82 389h-133l-82 -389h-193l110 520h519z" />
            <glyph glyph-name="afii10082" unicode="&#x440;" horiz-adv-x="642"
           d="M350 -15q-41 0 -79.5 17t-61.5 46l-48 -228h-194l149 700h150l19 -63q35 36 77 57t93 21q83 0 133.5 -52t50.5 -146q0 -72 -21 -136t-59.5 -112t-91.5 -76t-117 -28zM368 398q-35 0 -59 -20.5t-38.5 -50t-20.5 -61.5t-6 -56q0 -47 22 -67.5t54 -20.5q30 0 53 17t38 43.5
t23 60t8 66.5q0 46 -20.5 67.5t-53.5 21.5z" />
            <glyph glyph-name="afii10083" unicode="&#x441;" horiz-adv-x="606"
           d="M581 195q-18 -45 -45 -83t-64.5 -66.5t-85.5 -44.5t-108 -16q-122 0 -183 57.5t-61 155.5q0 54 16.5 113.5t54.5 109t101.5 82t158.5 32.5q55 0 100 -14t77 -40t49.5 -62.5t18.5 -81.5h-199q0 35 -16.5 51.5t-43.5 16.5q-35 0 -57.5 -22.5t-36 -54.5t-19 -67t-5.5 -59
q0 -45 18.5 -66.5t44.5 -21.5q28 0 50 21t36 60h199z" />
            <glyph glyph-name="afii10084" unicode="&#x442;" horiz-adv-x="520"
           d="M77 520h506l-28 -131h-156l-83 -389h-193l82 389h-156z" />
            <glyph glyph-name="afii10085" unicode="&#x443;" horiz-adv-x="594"
           d="M665 520l-300 -527q-32 -55 -59 -91.5t-54.5 -58t-58 -30t-67.5 -8.5q-22 0 -50 4t-57 12l28 130q29 -9 45 -11.5t26 -2.5q22 0 37.5 13.5t33.5 49.5h-36l-83 520h200l13 -382l181 382h201z" />
            <glyph glyph-name="afii10086" unicode="&#x444;" horiz-adv-x="946"
           d="M664 -15q-35 0 -71 13t-57 36l-46 -214h-194l46 213q-63 -48 -128 -48q-41 0 -74 14.5t-56.5 42t-36.5 66.5t-13 88q0 30 5.5 66.5t18 74t32.5 73.5t50 63.5t70 44.5t92 17q38 0 76 -14t60 -39l50 238h194l-51 -239q62 54 134 54q81 0 129.5 -53t48.5 -148q0 -37 -7 -77
t-21 -78.5t-36.5 -73.5t-53.5 -62t-71 -42.5t-90 -15.5zM409 311q0 43 -18.5 65t-47.5 22q-33 0 -54.5 -20t-34.5 -48.5t-18.5 -60t-5.5 -54.5q0 -47 19.5 -70.5t48.5 -23.5t50 20.5t34.5 50t20 62t6.5 57.5zM565 208q0 -46 18 -66.5t46 -20.5q30 0 52.5 19.5t36.5 48.5
t21 62t7 60q0 44 -18.5 65.5t-47.5 21.5q-33 0 -55 -21.5t-35.5 -52t-19 -63t-5.5 -53.5z" />
            <glyph glyph-name="afii10087" unicode="&#x445;" horiz-adv-x="610"
           d="M428 275l143 -275h-221l-60 142l-118 -142h-213l254 273l-135 247h217l52 -125l99 125h209z" />
            <glyph glyph-name="afii10088" unicode="&#x446;" horiz-adv-x="624"
           d="M552 130h70l-57 -270h-179l30 140h-410l110 520h193l-83 -390h133l83 390h193z" />
            <glyph glyph-name="afii10089" unicode="&#x447;" horiz-adv-x="601"
           d="M303 520l-43 -209q-3 -12 -3 -22q0 -24 13.5 -37.5t36.5 -13.5q34 0 56.5 27t30.5 69l38 186h193l-109 -520h-193l35 159q-30 -24 -66.5 -38.5t-79.5 -14.5q-74 0 -113 38.5t-39 107.5q0 16 2 32t6 34l42 202h193z" />
            <glyph glyph-name="afii10090" unicode="&#x448;" horiz-adv-x="850"
           d="M6 0l110 520h193l-83 -390h89l83 390h193l-82 -390h89l83 390h193l-110 -520h-758z" />
            <glyph glyph-name="afii10091" unicode="&#x449;" horiz-adv-x="863"
           d="M6 0l110 520h193l-83 -390h89l83 390h193l-82 -390h89l83 390h193l-83 -390h70l-57 -270h-178l30 140h-650z" />
            <glyph glyph-name="afii10092" unicode="&#x44a;" horiz-adv-x="711"
           d="M402 378h85q96 0 147.5 -43t51.5 -113q0 -53 -19.5 -94t-56 -69.5t-89.5 -43.5t-119 -15h-272l81 390h-162l28 130h355zM377 260l-30 -143h37q109 0 109 85q0 58 -85 58h-31z" />
            <glyph glyph-name="afii10093" unicode="&#x44b;" horiz-adv-x="845"
           d="M565 0l110 520h193l-110 -520h-193zM309 520l-31 -142h85q97 0 148.5 -43t51.5 -113q0 -53 -19.5 -94t-56 -69.5t-89.5 -43.5t-119 -15h-273l110 520h193zM253 260l-30 -143h37q109 0 109 85q0 28 -20 43t-65 15h-31z" />
            <glyph glyph-name="afii10094" unicode="&#x44c;" horiz-adv-x="588"
           d="M309 520l-31 -142h85q97 0 148.5 -43t51.5 -113q0 -53 -19.5 -94t-56 -69.5t-89.5 -43.5t-119 -15h-273l110 520h193zM253 260l-30 -143h37q109 0 109 85q0 28 -20 43t-65 15h-31z" />
            <glyph glyph-name="afii10095" unicode="&#x44d;" horiz-adv-x="599"
           d="M226 186q1 -37 17 -54.5t42 -17.5q36 0 57 24.5t37 82.5h-111l20 94h109q0 5 0.5 8.5t0.5 7.5q0 42 -18.5 58t-46.5 16t-48 -16.5t-31 -42.5h-200q14 39 41 73t65 60t86 41t105 15q56 0 100.5 -16t76 -45.5t48 -71t16.5 -91.5q0 -61 -17 -119.5t-55 -104.5t-98 -74
t-145 -28q-62 0 -109 16t-78.5 43.5t-47.5 64t-16 77.5h200z" />
            <glyph glyph-name="afii10096" unicode="&#x44e;" horiz-adv-x="879"
           d="M309 520l-38 -177h61q37 102 111 147t181 45q53 0 99 -14t79.5 -42t52.5 -68.5t19 -94.5t-15.5 -112t-52.5 -107t-98.5 -80.5t-152.5 -31.5q-57 0 -102.5 16t-78 45t-50 71t-18.5 95h-62l-45 -212h-193l110 520h193zM612 406q-32 0 -53 -23t-33.5 -56t-17.5 -69t-5 -62
q0 -83 65 -83q32 0 53.5 23.5t34 57.5t17.5 71t5 64q0 42 -17 59.5t-49 17.5z" />
            <glyph glyph-name="afii10097" unicode="&#x44f;" horiz-adv-x="610"
           d="M-32 0l181 181q-38 19 -57 52.5t-19 74.5q0 102 71.5 157t208.5 55h281l-110 -520h-193l34 160h-38l-149 -160h-210zM390 278l27 125h-51q-51 0 -75 -17.5t-24 -54.5q0 -25 19 -39t62 -14h42z" />
            <glyph glyph-name="uni0450" unicode="&#x450;" horiz-adv-x="619"
           d="M581 165q-17 -38 -43.5 -71t-63 -57t-83.5 -38t-105 -14q-57 0 -103 16.5t-78.5 46.5t-50 72t-17.5 93q0 58 19.5 115.5t59 103.5t100 74.5t142.5 28.5q54 0 99.5 -15t78.5 -44t51.5 -72t18.5 -100q0 -42 -10 -86h-366q-1 -5 -1 -9v-9q0 -45 22 -64t58 -19
q29 0 48.5 13.5t27.5 34.5h196zM351 414q-30 0 -56 -21.5t-43 -72.5h167q2 7 2 13v12q0 35 -18.5 52t-51.5 17zM460 578h-134l-128 154h188z" />
            <glyph glyph-name="afii10071" unicode="&#x451;" horiz-adv-x="619"
           d="M581 165q-17 -38 -43.5 -71t-63 -57t-83.5 -38t-105 -14q-57 0 -103 16.5t-78.5 46.5t-50 72t-17.5 93q0 58 19.5 115.5t59 103.5t100 74.5t142.5 28.5q54 0 99.5 -15t78.5 -44t51.5 -72t18.5 -100q0 -42 -10 -86h-366q-1 -5 -1 -9v-9q0 -45 22 -64t58 -19
q29 0 48.5 13.5t27.5 34.5h196zM351 414q-30 0 -56 -21.5t-43 -72.5h167q2 7 2 13v12q0 35 -18.5 52t-51.5 17zM182 585l31 144h172l-31 -144h-172zM420 585l31 144h173l-31 -144h-173z" />
            <glyph glyph-name="afii10099" unicode="&#x452;" horiz-adv-x="607"
           d="M125 558h-44l27 130h44l7 32h193l-7 -32h102l-28 -130h-101l-18 -81q32 28 70 43t79 15q72 0 113 -38.5t41 -110.5q0 -14 -1.5 -30.5t-5.5 -33.5l-73 -341q-18 -85 -68 -130.5t-142 -45.5q-26 0 -57 4t-51 11l29 136q14 -5 26.5 -7.5t20.5 -2.5q22 0 33.5 9.5t16.5 34.5
l71 334q3 15 3 26q0 26 -13.5 39t-35.5 13q-36 0 -60 -26t-32 -68l-65 -308h-193z" />
            <glyph glyph-name="afii10100" unicode="&#x453;" horiz-adv-x="442"
           d="M344 732h200l-193 -154h-148zM505 520l-28 -131h-196l-82 -389h-193l110 520h389z" />
            <glyph glyph-name="afii10101" unicode="&#x454;" horiz-adv-x="604"
           d="M576 186q-18 -41 -43.5 -77.5t-61 -64t-82 -43.5t-106.5 -16q-58 0 -104 16t-78.5 45t-49.5 70t-17 91q0 31 6 67.5t20.5 73t38.5 70t60 60t85.5 42t114.5 15.5q55 0 101 -15t79.5 -40.5t52 -60t18.5 -73.5h-200q-2 26 -20.5 42.5t-41.5 16.5q-32 0 -54 -20t-40 -71h109
l-20 -94h-112q-1 -7 -1.5 -13.5t-0.5 -11.5q0 -22 6 -37.5t15 -25t20.5 -14t22.5 -4.5q29 0 49 19t34 53h200z" />
            <glyph glyph-name="afii10102" unicode="&#x455;" horiz-adv-x="563"
           d="M278 112q62 0 62 37q0 19 -18 31.5t-71 22.5q-99 18 -144 58t-45 99q0 82 61.5 128.5t194.5 46.5q53 0 98 -12.5t77.5 -35t51 -53.5t18.5 -69h-188q-2 20 -19.5 32t-49.5 12q-26 0 -36.5 -8.5t-10.5 -22.5q0 -17 19 -30.5t70 -23.5q94 -18 142.5 -55t48.5 -96
q0 -91 -64.5 -139.5t-204.5 -48.5q-56 0 -103 12.5t-81 35.5t-52.5 54.5t-18.5 69.5h189q2 -19 21 -32t53 -13z" />
            <glyph glyph-name="afii10103" unicode="&#x456;" horiz-adv-x="295"
           d="M127 574l31 146h205l-32 -146h-204zM11 0l110 520h193l-110 -520h-193z" />
            <glyph glyph-name="afii10104" unicode="&#x457;" horiz-adv-x="295"
           d="M28 585l31 144h172l-31 -144h-172zM266 585l31 144h173l-31 -144h-173zM11 0l110 520h193l-110 -520h-193z" />
            <glyph glyph-name="afii10105" unicode="&#x458;" horiz-adv-x="291"
           d="M-92 -42q14 -5 26.5 -7.5t21.5 -2.5q22 0 34 9.5t17 35.5l112 527h193l-113 -537q-18 -84 -68.5 -131t-142.5 -47q-13 0 -27.5 1t-29.5 3.5t-28.5 5.5t-23.5 7zM125 574l31 146h204l-31 -146h-204z" />
            <glyph glyph-name="afii10106" unicode="&#x459;" horiz-adv-x="940"
           d="M661 520l-31 -142h85q97 0 148.5 -43t51.5 -113q0 -53 -19.5 -94t-56 -69.5t-89.5 -43.5t-119 -15h-273l82 390h-120l-61 -209q-14 -49 -35 -83.5t-54 -56t-81.5 -31.5t-118.5 -10l27 130q18 0 31.5 3t23 10.5t17 21.5t14.5 37l95 318h483zM605 260l-30 -143h37
q109 0 109 85q0 28 -20 43t-65 15h-31z" />
            <glyph glyph-name="afii10107" unicode="&#x45a;" horiz-adv-x="910"
           d="M631 520l-31 -142h85q97 0 148.5 -43t51.5 -113q0 -53 -19.5 -94t-56 -69.5t-89.5 -43.5t-119 -15h-273l45 213h-129l-45 -213h-193l110 520h193l-37 -177h128l38 177h193zM575 260l-30 -143h37q109 0 109 85q0 28 -20 43t-65 15h-31z" />
            <glyph glyph-name="afii10108" unicode="&#x45b;" horiz-adv-x="607"
           d="M125 558h-44l27 130h44l7 32h193l-7 -32h102l-28 -130h-101l-18 -81q32 28 70 43t79 15q72 0 113 -38.5t41 -110.5q0 -14 -1.5 -30.5t-5.5 -33.5l-69 -322h-194l69 324q3 15 3 26q0 26 -13.5 39t-35.5 13q-36 0 -60 -26t-32 -68l-65 -308h-193z" />
            <glyph glyph-name="afii10109" unicode="&#x45c;" horiz-adv-x="623"
           d="M419 732h200l-193 -154h-148zM6 0l110 520h193l-39 -186h25l181 186h206l-253 -250l158 -270h-220l-106 203h-19l-43 -203h-193z" />
            <glyph glyph-name="uni045D" unicode="&#x45d;" horiz-adv-x="611"
           d="M6 0l110 520h193l-55 -253l181 219l7 34h193l-110 -520h-193l54 252l-181 -221l-6 -31h-193zM476 578h-134l-128 154h188z" />
            <glyph glyph-name="afii10110" unicode="&#x45e;" horiz-adv-x="594"
           d="M665 520l-300 -527q-32 -55 -59 -91.5t-54.5 -58t-58 -30t-67.5 -8.5q-22 0 -50 4t-57 12l28 130q29 -9 45 -11.5t26 -2.5q22 0 37.5 13.5t33.5 49.5h-36l-83 520h200l13 -382l181 382h201zM385 574q-33 0 -60.5 6t-48 19.5t-32 35.5t-11.5 54v8q0 3 1 11h139
q0 -19 7.5 -25.5t21.5 -6.5q12 0 23.5 7t17.5 25h139q-14 -38 -34.5 -63.5t-46 -41t-55 -22.5t-61.5 -7z" />
            <glyph glyph-name="afii10193" unicode="&#x45f;" horiz-adv-x="611"
           d="M355 0l-30 -140h-179l30 140h-170l110 520h193l-82 -389h132l83 389h193l-110 -520h-170z" />
            <glyph glyph-name="afii10146" unicode="&#x462;" horiz-adv-x="827"
           d="M525 490q149 0 219.5 -55t70.5 -149q0 -145 -95 -215.5t-275 -70.5h-293l121 569h-188l33 151h586l-33 -151h-189l-17 -79h60zM435 349l-45 -209h81q60 0 95 34.5t35 91.5q0 40 -26.5 61.5t-75.5 21.5h-64z" />
            <glyph glyph-name="afii10194" unicode="&#x463;" horiz-adv-x="614"
           d="M320 451l-15 -73h85q96 0 147.5 -43t51.5 -113q0 -53 -19.5 -94t-56 -69.5t-89.5 -43.5t-119 -15h-273l96 451h-76l27 131h76l15 70h193l-15 -70h103l-27 -131h-104zM279 260l-29 -143h37q108 0 108 85q0 28 -20 43t-64 15h-32z" />
            <glyph glyph-name="afii10147" unicode="&#x472;" horiz-adv-x="800"
           d="M384 -15q-63 0 -122 18t-104.5 54.5t-73 93t-27.5 134.5q0 42 7.5 92t26 100t50 96.5t79 82.5t113 57.5t152.5 21.5q61 0 119.5 -17.5t105 -54.5t75 -93.5t28.5 -134.5q0 -44 -8 -94.5t-27.5 -100.5t-51.5 -96t-79.5 -81.5t-112.5 -56.5t-150 -21zM401 132q35 0 63.5 13
t50 35.5t37.5 51t26 60.5h-308q0 -44 11 -74.5t29.5 -49.5t42 -27.5t48.5 -8.5zM472 588q-35 0 -62.5 -12.5t-49 -34t-37.5 -49t-26 -57.5h304q0 42 -11.5 71t-30 47t-41.5 26.5t-46 8.5z" />
            <glyph glyph-name="afii10195" unicode="&#x473;" horiz-adv-x="629"
           d="M361 535q57 0 105 -14.5t82.5 -42t54 -68.5t19.5 -95q0 -63 -18.5 -122.5t-58.5 -105.5t-101.5 -74t-148.5 -28q-56 0 -104 14.5t-82.5 42.5t-54 69.5t-19.5 95.5q0 49 14 106.5t50.5 106.5t100 82t161.5 33zM311 113q20 0 36 8t28 21.5t20.5 31t13.5 36.5h-175
q-1 -5 -1 -13q0 -45 21.5 -64.5t56.5 -19.5zM351 406q-20 0 -36 -7.5t-28 -20t-21 -28.5t-15 -34h176q0 49 -19.5 69.5t-56.5 20.5z" />
            <glyph glyph-name="afii10148" unicode="&#x474;" horiz-adv-x="704"
           d="M817 720l-388 -720h-232l-84 720h210l25 -542l259 542h210z" />
            <glyph glyph-name="afii10196" unicode="&#x475;" horiz-adv-x="591"
           d="M662 520l-296 -520h-222l-75 520h203l15 -363l167 363h208z" />
            <glyph glyph-name="afii10050" unicode="&#x490;" horiz-adv-x="545"
           d="M681 855l-60 -283h-274l-121 -572h-209l153 720h290l28 135h193z" />
            <glyph glyph-name="afii10098" unicode="&#x491;" horiz-adv-x="442"
           d="M327 520l28 131h179l-56 -262h-197l-82 -389h-193l110 520h211z" />
            <glyph glyph-name="uni0492" unicode="&#x492;" horiz-adv-x="578"
           d="M654 572h-274l-30 -140h153l-30 -138h-153l-61 -294h-209l62 294h-90l29 138h90l62 288h483z" />
            <glyph glyph-name="uni0493" unicode="&#x493;" horiz-adv-x="448"
           d="M510 520l-27 -131h-197l-14 -69h106l-28 -131h-106l-40 -189h-193l40 189h-49l28 131h49l42 200h389z" />
            <glyph glyph-name="uni0496" unicode="&#x496;" horiz-adv-x="1097"
           d="M357 720l92 -286h43l61 286h208l-61 -286h43l207 286h217l-274 -352l94 -225h108l-60 -283h-193l29 140h-51l-102 293h-48l-62 -293h-208l61 293h-51l-216 -293h-234l315 386l-128 334h210z" />
            <glyph glyph-name="uni0497" unicode="&#x497;" horiz-adv-x="894"
           d="M279 520l75 -186h21l40 186h193l-39 -186h21l147 186h203l-209 -250l57 -139h102l-57 -271h-178l29 140h-55l-63 203h-25l-43 -203h-193l43 203h-27l-142 -203h-219l231 290l-108 230h196z" />
            <glyph glyph-name="uni0498" unicode="&#x498;" horiz-adv-x="662"
           d="M351 -35q41 -10 61 -35t20 -58q0 -32 -13 -58t-37 -44t-56.5 -28t-71.5 -10q-74 0 -119 33t-45 88v9h127q0 -14 10.5 -25.5t33.5 -11.5q20 0 31.5 9t11.5 26t-20.5 28.5t-67.5 11.5l26 90q-50 7 -88.5 25t-65.5 43.5t-41 57.5t-14 68v10q0 6 1 11h208q-1 -2 -1 -6v-5
q0 -30 18.5 -48t59.5 -18q48 0 78 28.5t30 79.5q0 35 -23.5 54.5t-64.5 19.5h-65l27 127h65q53 0 81.5 24t28.5 69q0 28 -20.5 46t-55.5 18q-38 0 -63.5 -17t-39.5 -49h-203q32 95 114 151t219 56q62 0 111.5 -13t84.5 -36.5t53.5 -55t18.5 -68.5q0 -69 -46.5 -116
t-126.5 -64q57 -14 87.5 -55.5t30.5 -95.5q0 -103 -75.5 -168t-209.5 -76z" />
            <glyph glyph-name="uni0499" unicode="&#x499;" horiz-adv-x="572"
           d="M315 -35q40 -10 60 -35t20 -58q0 -65 -49.5 -102.5t-128.5 -37.5q-74 0 -118.5 33t-44.5 88v9h127q0 -14 10 -25.5t34 -11.5q20 0 31 9t11 26t-20.5 28.5t-67.5 11.5l27 92q-82 15 -128 66t-48 124h190q2 -35 18.5 -51.5t44.5 -16.5q26 0 43 14t17 40q0 20 -17.5 33
t-56.5 13h-17l23 109h29q32 0 51.5 11t19.5 35q0 15 -13 26.5t-36 11.5q-30 0 -50 -14t-32 -40h-190q16 39 43.5 72.5t65.5 58t86 38t104 13.5t98 -10t69.5 -27.5t41 -40.5t13.5 -50q0 -51 -36 -84t-108 -47q49 -7 78 -39t29 -77q0 -31 -11.5 -60t-37.5 -52.5t-68 -39.5
t-102 -21z" />
            <glyph glyph-name="uni049A" unicode="&#x49a;" horiz-adv-x="762"
           d="M515 365l125 -222h119l-59 -283h-193l29 140h-44l-156 293h-49l-61 -293h-209l153 720h209l-61 -286h49l253 286h220z" />
            <glyph glyph-name="uni049B" unicode="&#x49b;" horiz-adv-x="628"
           d="M6 0l110 520h193l-39 -186h25l181 186h206l-253 -250l81 -139h116l-57 -271h-179l30 140h-53l-106 203h-19l-43 -203h-193z" />
            <glyph glyph-name="uni049C" unicode="&#x49c;" horiz-adv-x="812"
           d="M449 591l-33 -156l254 285h220l-325 -356l206 -364h-228l-158 288l-42 -195h-73l43 200h-26l-62 -293h-208l153 720h208l-61 -286h25l34 157h73z" />
            <glyph glyph-name="uni049D" unicode="&#x49d;" horiz-adv-x="668"
           d="M366 401l-14 -67h1l166 186h208l-243 -251l148 -269h-220l-90 191l-30 -138h-61l32 150h-21l-43 -203h-193l110 520h193l-40 -187h22l14 68h61z" />
            <glyph glyph-name="uni04A0" unicode="&#x4a0;" horiz-adv-x="927"
           d="M483 434h50l252 286h220l-325 -356l206 -364h-228l-157 293h-48l-62 -293h-209l121 571h-212l32 149h421z" />
            <glyph glyph-name="uni04A1" unicode="&#x4a1;" horiz-adv-x="746"
           d="M129 0l82 389h-162l28 131h355l-40 -187h25l181 187h207l-253 -251l157 -269h-219l-106 203h-19l-43 -203h-193z" />
            <glyph glyph-name="uni04A2" unicode="&#x4a2;" horiz-adv-x="766"
           d="M806 720l-123 -577h80l-60 -283h-193l30 140h-95l61 293h-219l-61 -293h-209l153 720h209l-61 -285h219l61 285h208z" />
            <glyph glyph-name="uni04A3" unicode="&#x4a3;" horiz-adv-x="624"
           d="M309 520l-38 -177h133l38 177h193l-83 -390h70l-57 -270h-179l30 140h-84l45 212h-133l-45 -212h-193l110 520h193z" />
            <glyph glyph-name="uni04AA" unicode="&#x4aa;" horiz-adv-x="761"
           d="M393 -263q-67 0 -106 30.5t-39 80.5q0 42 26 77t71 61q-69 2 -122 24t-90 61t-56 93t-19 120q0 50 9 102.5t29.5 102.5t53 95t79.5 78.5t110 53t143 19.5q63 0 118.5 -16.5t96.5 -49t64.5 -80t23.5 -108.5v-10h-208q0 65 -30.5 93t-76.5 28q-53 0 -90.5 -31.5t-61 -78.5
t-34 -102t-10.5 -102q0 -78 31 -114t78 -36q58 0 95 35.5t60 112.5h211q-34 -106 -90 -168.5t-125 -91.5q-23 -9 -50 -24t-50.5 -33.5t-39 -41.5t-15.5 -48q0 -20 11 -29.5t25 -9.5q26 0 37 26h133q-12 -24 -28.5 -45.5t-40 -38t-54 -26t-69.5 -9.5z" />
            <glyph glyph-name="uni04AB" unicode="&#x4ab;" horiz-adv-x="606"
           d="M474 -144q-12 -24 -28.5 -45.5t-40 -38t-54 -26t-69.5 -9.5q-67 0 -106 31t-39 80q0 42 26.5 78t73.5 62q-102 9 -152 64.5t-50 145.5q0 54 16 113.5t54.5 109t102 82t158.5 32.5q55 0 100 -14t77 -40t49.5 -62.5t17.5 -81.5h-199q1 3 1 8q-1 29 -18 42t-40 13
q-36 0 -59 -22t-36.5 -53t-19 -65t-5.5 -58q0 -45 19.5 -66.5t42.5 -21.5q28 0 50.5 21t36.5 60h198q-23 -59 -64 -109t-117 -81q-23 -9 -46.5 -24t-42.5 -33t-31 -38t-12 -40t11 -29.5t25 -9.5q26 0 37 25h133z" />
            <glyph glyph-name="uni04AE" unicode="&#x4ae;" horiz-adv-x="724"
           d="M222 0l61 288l-170 432h219l82 -274l211 274h212l-354 -432l-61 -288h-200z" />
            <glyph glyph-name="uni04AF" unicode="&#x4af;" horiz-adv-x="591"
           d="M119 -180l39 180l-89 520h202l17 -353l165 353h209l-310 -520l-39 -180h-194z" />
            <glyph glyph-name="uni04B0" unicode="&#x4b0;" horiz-adv-x="724"
           d="M222 0l52 244h-120l29 139h63l-133 337h219l82 -274l211 274h212l-277 -337h68l-29 -139h-126l-51 -244h-200z" />
            <glyph glyph-name="uni04B1" unicode="&#x4b1;" horiz-adv-x="591"
           d="M120 -180l39 180h-90l27 131h40l-66 389h202l17 -353l165 353h208l-231 -389h46l-27 -131h-97l-39 -180h-194z" />
            <glyph glyph-name="uni04B2" unicode="&#x4b2;" horiz-adv-x="762"
           d="M529 379l109 -236h118l-60 -283h-193l29 140h-61l-90 226l-182 -226h-234l336 374l-166 346h230l84 -198l166 198h226z" />
            <glyph glyph-name="uni04B3" unicode="&#x4b3;" horiz-adv-x="619"
           d="M428 275l75 -144h119l-57 -271h-178l29 140h-66l-60 142l-118 -142h-213l254 273l-135 247h217l52 -125l99 125h209z" />
            <glyph glyph-name="uni04B8" unicode="&#x4b8;" horiz-adv-x="730"
           d="M479 591l-51 -238q37 12 61 42t33 71l55 254h209l-153 -720h-209l58 272q-20 -16 -40.5 -28t-40.5 -21l-28 -130h-73l23 111q-4 0 -7 -0.5t-7 -0.5q-103 0 -158 46.5t-55 140.5q0 43 10 89l52 241h209l-56 -258q-4 -17 -4 -37q0 -28 12 -47t36 -27l51 240h73z" />
            <glyph glyph-name="uni04B9" unicode="&#x4b9;" horiz-adv-x="601"
           d="M303 520q-11 -51 -21 -102t-21 -102q-2 -7 -3 -14.5t-1 -12.5q0 -31 21 -43l33 155h61l-34 -155q21 11 35 33.5t21 54.5l38 186h193l-109 -520h-193l34 159q-19 -16 -43 -29l-16 -77h-61l12 56q-9 -2 -18.5 -3t-18.5 -1q-74 0 -113 38.5t-39 108.5q0 28 8 66l42 202h193z
" />
            <glyph glyph-name="uni04BA" unicode="&#x4ba;" horiz-adv-x="717"
           d="M17 0l153 720h209l-60 -280q45 34 92.5 52.5t95.5 18.5q97 0 147 -47t50 -140q0 -41 -11 -96l-48 -228h-209l52 246q4 20 4 40q0 38 -20 59t-59 21q-50 0 -87 -33t-48 -85l-52 -248h-209z" />
            <glyph glyph-name="uni04BB" unicode="&#x4bb;" horiz-adv-x="602"
           d="M159 720h193l-62 -291q31 28 69 43t80 15q72 0 112.5 -38.5t40.5 -110.5q0 -14 -1.5 -30.5t-5.5 -33.5l-58 -274h-194l59 276q3 10 3 26q0 26 -13.5 39t-36.5 13q-35 0 -59.5 -26t-32.5 -68l-54 -260h-193z" />
            <glyph glyph-name="uni04C0" unicode="&#x4c0;" horiz-adv-x="323"
           d="M379 720l-153 -720h-209l153 720h209z" />
            <glyph glyph-name="uni04CB" unicode="&#x4cb;" horiz-adv-x="746"
           d="M786 720l-122 -577h79l-60 -283h-192l29 140h-95l57 273q-42 -34 -87.5 -52t-90.5 -18q-101 0 -154 47t-53 141q0 42 10 89l51 240h210l-56 -257q-4 -17 -4 -37q0 -36 20 -57t59 -21q54 0 89 33.5t46 84.5l56 254h208z" />
            <glyph glyph-name="uni04CC" unicode="&#x4cc;" horiz-adv-x="614"
           d="M303 520l-42 -203q-2 -6 -3 -14.5t-1 -13.5q0 -24 13.5 -37.5t36.5 -13.5q34 0 56.5 27t30.5 69l38 186h193l-82 -389h70l-57 -271h-178l29 140h-84l35 159q-30 -24 -66.5 -38.5t-79.5 -14.5q-74 0 -113 38.5t-39 107.5q0 16 2.5 34t5.5 32l42 202h193z" />
            <glyph glyph-name="uni04CF" unicode="&#x4cf;" horiz-adv-x="286"
           d="M200 0h-194l153 720h194z" />
            <glyph glyph-name="uni04D8" unicode="&#x4d8;" horiz-adv-x="766"
           d="M357 -15q-144 0 -217.5 70t-73.5 218q0 30 3.5 63.5t9.5 71.5h485q2 15 3.5 28.5t1.5 25.5q0 70 -30 100t-78 30q-54 0 -87 -23t-54 -63h-208q46 106 141 167.5t237 61.5q138 0 214.5 -72.5t76.5 -203.5q0 -92 -29 -177.5t-83.5 -151.5t-133.5 -105.5t-178 -39.5z
M370 128q23 0 46 8t43.5 25t38 43.5t29.5 64.5h-255q-2 -9 -2 -17v-16q0 -57 25.5 -82.5t74.5 -25.5z" />
            <glyph glyph-name="afii10846" unicode="&#x4d9;" horiz-adv-x="618"
           d="M68 355q17 39 44.5 72t65.5 57t86 37.5t107 13.5q56 0 100.5 -15.5t76 -44t48 -69t16.5 -89.5q0 -31 -6.5 -67.5t-22 -73.5t-41 -71.5t-63 -61t-88 -42.5t-116.5 -16q-109 0 -171.5 55t-62.5 165q0 45 12 98h365q1 6 1 11v10q0 44 -20 62.5t-52 18.5q-30 0 -51 -13.5
t-32 -36.5h-196zM293 106q33 0 58.5 20t43.5 74h-167q-1 -7 -1.5 -12.5t-0.5 -11.5q0 -37 17.5 -53.5t49.5 -16.5z" />
            <glyph glyph-name="uni04E2" unicode="&#x4e2;" horiz-adv-x="750"
           d="M356 787l27 128h289l-27 -128h-289zM806 720l-153 -720h-208l84 397l-293 -348l-10 -49h-209l153 720h209l-85 -398l293 349l11 49h208z" />
            <glyph glyph-name="uni04E3" unicode="&#x4e3;" horiz-adv-x="611"
           d="M246 591l27 128h289l-27 -128h-289zM6 0l110 520h193l-55 -253l181 219l7 34h193l-110 -520h-193l54 252l-181 -221l-6 -31h-193z" />
            <glyph glyph-name="uni04E8" unicode="&#x4e8;" horiz-adv-x="800"
           d="M384 -15q-63 0 -122 18t-104.5 54.5t-73 93t-27.5 134.5q0 42 7.5 92t26 100t50 96.5t79 82.5t113 57.5t152.5 21.5q61 0 119.5 -17.5t105 -54.5t75 -93.5t28.5 -134.5q0 -44 -8 -94.5t-27.5 -100.5t-51.5 -96t-79.5 -81.5t-112.5 -56.5t-150 -21zM401 132q35 0 63.5 13
t50 35.5t37.5 51t26 60.5h-308q0 -44 11 -74.5t29.5 -49.5t42 -27.5t48.5 -8.5zM472 588q-35 0 -62.5 -12.5t-49 -34t-37.5 -49t-26 -57.5h304q0 42 -11.5 71t-30 47t-41.5 26.5t-46 8.5z" />
            <glyph glyph-name="uni04E9" unicode="&#x4e9;" horiz-adv-x="629"
           d="M361 535q57 0 105.5 -14t83 -42t54 -69t19.5 -95q0 -63 -18.5 -122.5t-58.5 -105.5t-102 -74t-149 -28q-56 0 -103.5 14.5t-82 42.5t-54 69.5t-19.5 96.5q0 33 6 70t20.5 73t38.5 69.5t60 59t85.5 40.5t114.5 15zM311 113q21 0 36.5 8t27.5 21.5t20.5 31.5t14.5 37h-176
q0 -52 18.5 -75t58.5 -23zM351 407q-20 0 -36 -7.5t-28 -20t-20.5 -28.5t-14.5 -34h175v6q0 45 -19.5 64.5t-56.5 19.5z" />
            <glyph glyph-name="uni04EE" unicode="&#x4ee;" horiz-adv-x="653"
           d="M318 787l27 128h289l-27 -128h-289zM441 174q-33 -56 -61.5 -92.5t-58 -58t-63 -30t-77.5 -8.5q-22 0 -47.5 4t-53.5 12l28 133q23 -8 40.5 -11t28.5 -3q25 0 41 12t35 47h-47l-93 541h202l33 -402l208 402h209z" />
            <glyph glyph-name="uni04EF" unicode="&#x4ef;" horiz-adv-x="594"
           d="M665 520l-300 -527q-32 -55 -59 -91.5t-54.5 -58t-58 -30t-67.5 -8.5q-22 0 -50 4t-57 12l28 130q29 -9 45 -11.5t26 -2.5q22 0 37.5 13.5t33.5 49.5h-36l-83 520h200l13 -382l181 382h201zM241 591l27 128h289l-27 -128h-289z" />
            <glyph glyph-name="Wgrave" unicode="&#x1e80;" horiz-adv-x="1019"
           d="M1132 720l-313 -720h-231l-13 500l-219 -500h-224l-19 720h208l-13 -467l205 467h220l12 -471l182 471h205zM700 774h-134l-128 154h188z" />
            <glyph glyph-name="wgrave" unicode="&#x1e81;" horiz-adv-x="859"
           d="M925 520l-253 -520h-220l7 333l-143 -333h-214l-28 520h194l-14 -331l145 331h205l-5 -329l132 329h194zM580 578h-134l-128 154h188z" />
            <glyph glyph-name="Wacute" unicode="&#x1e82;" horiz-adv-x="1019"
           d="M1132 720l-313 -720h-231l-13 500l-219 -500h-224l-19 720h208l-13 -467l205 467h220l12 -471l182 471h205zM700 928h200l-193 -154h-148z" />
            <glyph glyph-name="wacute" unicode="&#x1e83;" horiz-adv-x="859"
           d="M925 520l-253 -520h-220l7 333l-143 -333h-214l-28 520h194l-14 -331l145 331h205l-5 -329l132 329h194zM581 732h200l-193 -154h-148z" />
            <glyph glyph-name="Wdieresis" unicode="&#x1e84;" horiz-adv-x="1019"
           d="M1132 720l-313 -720h-231l-13 500l-219 -500h-224l-19 720h208l-13 -467l205 467h220l12 -471l182 471h205zM427 781l31 144h172l-31 -144h-172zM665 781l31 144h173l-31 -144h-173z" />
            <glyph glyph-name="wdieresis" unicode="&#x1e85;" horiz-adv-x="859"
           d="M925 520l-253 -520h-220l7 333l-143 -333h-214l-28 520h194l-14 -331l145 331h205l-5 -329l132 329h194zM302 585l31 144h172l-31 -144h-172zM540 585l31 144h173l-31 -144h-173z" />
            <glyph glyph-name="Ygrave" unicode="&#x1ef2;" horiz-adv-x="724"
           d="M222 0l61 288l-170 432h219l82 -274l211 274h212l-354 -432l-61 -288h-200zM562 774h-134l-128 154h188z" />
            <glyph glyph-name="ygrave" unicode="&#x1ef3;" horiz-adv-x="594"
           d="M665 520l-300 -527q-32 -55 -59 -91.5t-54.5 -58t-58 -30t-67.5 -8.5q-22 0 -50 4t-57 12l28 130q29 -9 45 -11.5t26 -2.5q22 0 37.5 13.5t33.5 49.5h-36l-83 520h200l13 -382l181 382h201zM448 578h-134l-128 154h188z" />
            <glyph glyph-name="uni2007" unicode="&#x2007;"
            />
            <glyph glyph-name="uni2008" unicode="&#x2008;" horiz-adv-x="303"
            />
            <glyph glyph-name="uni200B" unicode="&#x200b;" horiz-adv-x="0"
            />
            <glyph glyph-name="figuredash" unicode="&#x2012;" horiz-adv-x="540"
           d="M464 250h-452l29 140h453z" />
            <glyph glyph-name="endash" unicode="&#x2013;" horiz-adv-x="450"
           d="M445 250h-414l29 140h415z" />
            <glyph glyph-name="emdash" unicode="&#x2014;" horiz-adv-x="641"
           d="M636 250h-605l29 140h606z" />
            <glyph glyph-name="afii00208" unicode="&#x2015;" horiz-adv-x="450"
           d="M445 250h-414l29 140h415z" />
            <glyph glyph-name="underscoredbl" unicode="&#x2017;" horiz-adv-x="588"
           d="M499 -142h-551l29 139h552zM463 -321h-551l29 139h552z" />
            <glyph glyph-name="quoteleft" unicode="&#x2018;" horiz-adv-x="270"
           d="M92 510q22 104 93 153t182 57l-20 -89q-42 -5 -70 -27t-36 -60h70l-39 -181h-211z" />
            <glyph glyph-name="quoteright" unicode="&#x2019;" horiz-adv-x="270"
           d="M324 561q-11 -52 -34.5 -88t-58 -59t-79.5 -35t-99 -16l19 88q42 5 70 27t36 61h-69l38 181h211z" />
            <glyph glyph-name="quotesinglbase" unicode="&#x201a;" horiz-adv-x="270"
           d="M209 22q-11 -52 -34 -88t-57.5 -59t-79 -35t-99.5 -16l18 88q42 5 70.5 27t36.5 61h-70l38 181h211z" />
            <glyph glyph-name="quotereversed" unicode="&#x201b;" horiz-adv-x="270"
           d="M128 720h211l-38 -181h-70q-2 -6 -2 -11v-10q0 -29 19 -45.5t52 -21.5l-18 -88q-86 11 -137 53t-51 117q0 11 1 23t4 25z" />
            <glyph glyph-name="quotedblleft" unicode="&#x201c;" horiz-adv-x="533"
           d="M102 522q11 52 34 88t57.5 59t79.5 35t101 16l-20 -89q-42 -5 -70 -27t-36 -60h70l-39 -181h-211zM358 522q11 52 34 88t57.5 59t79.5 35t101 16l-20 -89q-42 -5 -70 -27t-36 -60h70l-39 -181h-211z" />
            <glyph glyph-name="quotedblright" unicode="&#x201d;" horiz-adv-x="533"
           d="M324 561q-11 -52 -34 -88t-57.5 -59t-79.5 -35t-100 -16l19 88q42 5 70 27t36 61h-69l38 181h211zM580 561q-11 -52 -34.5 -88t-58 -59t-79.5 -35t-99 -16l19 88q42 5 70 27t36 61h-69l38 181h211z" />
            <glyph glyph-name="quotedblbase" unicode="&#x201e;" horiz-adv-x="526"
           d="M465 22q-11 -52 -34 -88t-57.5 -59t-79.5 -35t-100 -16l19 88q42 5 70.5 27t36.5 61h-70l38 181h211zM209 22q-11 -52 -34 -88t-57.5 -59t-79 -35t-99.5 -16l18 88q42 5 70.5 27t36.5 61h-70l38 181h211z" />
            <glyph glyph-name="dagger" unicode="&#x2020;" horiz-adv-x="584"
           d="M481 720l-36 -164h166l-38 -175h-165l-80 -381h-183l80 381h-164l37 175h164l36 164h183z" />
            <glyph glyph-name="daggerdbl" unicode="&#x2021;" horiz-adv-x="576"
           d="M481 720l-28 -128h165l-37 -175h-165l-22 -101h166l-37 -175h-165l-30 -141h-183l30 141h-165l37 175h164l22 101h-164l37 175h164l28 128h183z" />
            <glyph glyph-name="bullet" unicode="&#x2022;" horiz-adv-x="335"
           d="M37 197l50 238h257l-51 -238h-256z" />
            <glyph glyph-name="ellipsis" unicode="&#x2026;" horiz-adv-x="909"
           d="M612 0l38 181h211l-38 -181h-211zM6 0l38 181h211l-38 -181h-211zM309 0l38 181h211l-38 -181h-211z" />
            <glyph glyph-name="perthousand" unicode="&#x2030;" horiz-adv-x="1246"
           d="M287 0h-149l491 700h149zM278 715q78 0 120.5 -40.5t42.5 -109.5q0 -43 -13.5 -79t-39 -62t-61.5 -40.5t-81 -14.5q-78 0 -120.5 40.5t-42.5 109.5q0 44 14 80.5t39.5 62t61.5 39.5t80 14zM270 618q-20 0 -37 -21.5t-17 -77.5q0 -29 10 -41t27 -12q26 0 41 27.5t15 69.5
q0 30 -11 42.5t-28 12.5zM674 330q78 0 121 -40t43 -109q0 -43 -14 -79t-39.5 -62t-61.5 -40.5t-81 -14.5q-78 0 -120 40t-42 109q0 44 13.5 80.5t39 62t61.5 39.5t80 14zM666 233q-20 0 -37 -21.5t-17 -77.5q0 -29 10 -40.5t27 -11.5q26 0 41 27t15 70q0 30 -11 42t-28 12z
M1070 330q78 0 121 -40t43 -109q0 -43 -14 -79t-39.5 -62t-61.5 -40.5t-81 -14.5q-78 0 -120 40t-42 109q0 44 13.5 80.5t39 62t61.5 39.5t80 14zM1062 233q-20 0 -37 -21.5t-17 -77.5q0 -29 10 -40.5t27 -11.5q26 0 41 27t15 70q0 30 -11 42t-28 12z" />
            <glyph glyph-name="minute" unicode="&#x2032;" horiz-adv-x="270"
           d="M244 469h-125l38 157l22 100h155l-21 -100z" />
            <glyph glyph-name="second" unicode="&#x2033;" horiz-adv-x="498"
           d="M243 469h-124l37 157l22 100h156l-22 -100zM446 469h-125l38 157l21 100h156l-22 -100z" />
            <glyph glyph-name="guilsinglleft" unicode="&#x2039;" horiz-adv-x="342"
           d="M56 313l174 207h150l-139 -212l35 -222h-140z" />
            <glyph glyph-name="guilsinglright" unicode="&#x203a;" horiz-adv-x="342"
           d="M170 86h-149l131 222l-50 212h142l94 -207z" />
            <glyph glyph-name="exclamdbl" unicode="&#x203c;" horiz-adv-x="646"
           d="M82 242l79 484h229l-128 -484h-180zM16 0l38 181h210l-38 -181h-210zM405 242l79 484h229l-128 -484h-180zM339 0l38 181h210l-38 -181h-210z" />
            <glyph glyph-name="uni203E" unicode="&#x203e;" horiz-adv-x="588"
           d="M648 550h-551l29 139h552z" />
            <glyph glyph-name="fraction" unicode="&#x2044;" horiz-adv-x="234"
           d="M-207 -93l611 880h148l-610 -880h-149z" />
            <glyph glyph-name="uni2070" unicode="&#x2070;" horiz-adv-x="438"
           d="M229 284q-74 0 -115 36.5t-41 113.5q0 51 12 105.5t39.5 100.5t72 75.5t109.5 29.5q75 0 116 -36t41 -115q0 -50 -11.5 -104.5t-39 -100t-72.5 -75.5t-111 -30zM238 376q23 0 40.5 29t29 67.5t17 77t5.5 57.5q0 29 -8 38t-19 9q-23 0 -40.5 -24.5t-30.5 -60t-19.5 -76
t-6.5 -71.5q0 -29 9 -37.5t23 -8.5z" />
            <glyph glyph-name="uni2074" unicode="&#x2074;" horiz-adv-x="443"
           d="M398 467h49l-20 -94h-49l-17 -79h-128l17 79h-200l21 102l217 260h167zM192 467h78l44 157z" />
            <glyph glyph-name="uni2075" unicode="&#x2075;" horiz-adv-x="427"
           d="M439 641h-169l-19 -65q19 11 36.5 14t34.5 3q51 0 81 -24.5t30 -76.5q0 -35 -11.5 -72t-36 -67t-64 -49.5t-96.5 -19.5q-83 0 -123 35t-40 102h135v-9q0 -32 32 -32q18 0 29.5 9.5t18 23t9.5 29.5t3 30q0 20 -9 26.5t-26 6.5q-8 0 -20 -4t-24 -15h-113l66 249h296z" />
            <glyph glyph-name="uni2076" unicode="&#x2076;" horiz-adv-x="439"
           d="M317 745q73 0 113.5 -29.5t42.5 -83.5h-131q-1 10 -8 17t-24 7q-23 0 -44 -19t-37 -72q20 15 46.5 23t55.5 8q51 0 82.5 -29t31.5 -81q0 -33 -12 -68.5t-37.5 -65t-65.5 -49t-96 -19.5q-78 0 -121 39t-43 109q0 15 2.5 34.5t6.5 37.5q26 124 88 182.5t150 58.5zM270 502
q-17 0 -28.5 -8.5t-18.5 -21.5t-10 -28t-3 -28q0 -21 10 -28.5t23 -7.5q18 0 29.5 9t18 22t9 28.5t2.5 29.5q0 19 -8.5 26t-23.5 7z" />
            <glyph glyph-name="uni2077" unicode="&#x2077;" horiz-adv-x="403"
           d="M61 294l249 344h-204l21 97h337l-20 -94l-230 -347h-153z" />
            <glyph glyph-name="uni2078" unicode="&#x2078;" horiz-adv-x="442"
           d="M311 745q70 0 113 -29t43 -77q0 -16 -5 -32.5t-17.5 -31.5t-34 -27.5t-54.5 -21.5q43 -11 62 -34.5t19 -54.5q0 -24 -10.5 -51t-35 -49.5t-64 -37.5t-97.5 -15q-85 0 -128.5 33.5t-43.5 81.5q0 40 26.5 74t96.5 54q-32 15 -48.5 38.5t-16.5 51.5q0 21 9.5 43.5t32 41
t60 31t93.5 12.5zM302 660q-31 0 -41.5 -19t-10.5 -39q0 -17 7.5 -29t25.5 -17q17 10 33 26t16 50q0 16 -9.5 22t-20.5 6zM255 491q-30 -15 -40 -35.5t-10 -36.5q0 -41 35 -41q24 0 39.5 14.5t15.5 46.5q0 18 -10.5 31t-29.5 21z" />
            <glyph glyph-name="uni2079" unicode="&#x2079;" horiz-adv-x="439"
           d="M303 745q78 0 120.5 -33t42.5 -108q0 -17 -1.5 -35.5t-6.5 -38.5q-26 -124 -84.5 -185t-155.5 -61q-75 0 -117 30t-44 83h141q0 -11 9.5 -17t20.5 -6q26 0 44 20.5t36 72.5q-20 -15 -43.5 -24.5t-51.5 -9.5q-53 0 -87.5 28t-34.5 82q0 34 12 70t37.5 65.5t65.5 48
t97 18.5zM293 649q-16 0 -27.5 -8t-18.5 -21t-10.5 -28.5t-3.5 -30.5q0 -21 10 -27.5t25 -6.5q18 0 29.5 10t18 24t9 29.5t2.5 26.5q0 20 -10 26t-24 6z" />
            <glyph glyph-name="uni207F" unicode="&#x207f;" horiz-adv-x="431"
           d="M354 726q50 0 79.5 -23.5t29.5 -74.5q0 -22 -6 -47l-49 -230h-154l50 236q1 3 1 9q0 10 -6 16.5t-20 6.5q-39 0 -52 -55l-46 -213h-153l77 364h132l2 -34q26 24 54 34.5t61 10.5z" />
            <glyph glyph-name="franc" unicode="&#x20a3;" horiz-adv-x="604"
           d="M385 554l-27 -126h221l-29 -138h-221l-11 -51h132l-27 -128h-132l-24 -111h-209l24 111h-48l27 128h47l97 461h458l-31 -146h-247z" />
            <glyph glyph-name="lira" unicode="&#x20a4;" horiz-adv-x="622"
           d="M463 509q0 4 0.5 7.5t0.5 6.5q0 27 -10.5 38t-30.5 11q-24 0 -39.5 -20.5t-25.5 -65.5l-5 -23h177l-23 -110h-177l-7 -33h147l-25 -120h-147l-1 -3q-3 -13 -14.5 -25.5t-40.5 -20.5h310l-32 -151h-510l31 146q33 9 43.5 24t12.5 22l2 8h-38l25 120h38l7 33h-38l23 110h39
l5 25q23 112 91 169.5t186 57.5q53 0 93.5 -15.5t66.5 -43t37 -65.5t6 -82h-177z" />
            <glyph glyph-name="peseta" unicode="&#x20a7;" horiz-adv-x="1169"
           d="M992 292q2 32 -35 32q-34 0 -34 -30q0 -11 13 -18t45 -15q74 -18 102 -48t28 -68q0 -27 -9 -55t-32.5 -51.5t-65 -38.5t-106.5 -15q-67 0 -110 23q-42 -15 -71 -19t-52 -4q-34 0 -57.5 8t-38.5 21.5t-22 31.5t-7 38q0 15 5 35l40 184h-82q-37 -25 -88.5 -39.5
t-123.5 -14.5h-27l-53 -249h-198l149 700h187q126 0 194.5 -45.5t68.5 -136.5q0 -27 -6 -54t-17 -51h19l35 100h140l-21 -100h112q37 12 92 12q39 0 71.5 -9.5t56 -27t36 -42t11.5 -54.5h-149zM913 87q15 0 29 7.5t14 25.5q0 11 -10 18.5t-39 15.5q-40 9 -67 21t-43.5 26.5
t-23.5 31.5t-7 35q0 17 3 35h-30l-39 -180q-2 -10 -2 -14q0 -8 5 -12t19 -4h3q-2 7 -2 14v15h150q1 -19 10 -27t30 -8zM312 389q28 0 48 8t32.5 22t18 32.5t5.5 38.5q0 34 -21 51.5t-55 17.5h-10l-36 -170h18z" />
            <glyph glyph-name="Euro" unicode="&#x20ac;"
           d="M341 128q26 0 46.5 13t36.5 47h185q-35 -95 -107 -149t-183 -54q-47 0 -90 14.5t-77.5 44.5t-57 76.5t-26.5 110.5h-67l44 102h27q1 8 3.5 22t4.5 20h-48l44 102h33q20 55 48.5 99t67.5 75t89.5 47.5t115.5 16.5q53 0 98 -13.5t77.5 -39t50.5 -61t18 -78.5v-12h-185
q0 17 -6.5 28.5t-16.5 19t-23 10.5t-26 3q-38 0 -65.5 -23.5t-47.5 -71.5h177l-44 -102h-165q-3 -11 -4.5 -21t-3.5 -21h157l-44 -102h-119q4 -57 27 -80t56 -23z" />
            <glyph glyph-name="afii61248" unicode="&#x2105;" horiz-adv-x="987"
           d="M126 -93l611 880h148l-610 -880h-149zM476 491q-25 -72 -74.5 -111.5t-131.5 -39.5q-93 0 -136.5 43t-43.5 113q0 35 11.5 75t38.5 74.5t73 57.5t115 23q82 0 126 -39t42 -103h-152q2 20 -6.5 29t-23.5 9q-18 0 -31 -12.5t-21.5 -32t-12.5 -43t-4 -44.5q0 -20 7.5 -33
t26.5 -13q16 0 26 10t19 37h152zM797 375q85 0 132.5 -36.5t47.5 -106.5q0 -40 -12 -83t-40.5 -78.5t-74.5 -58.5t-114 -23q-86 0 -132.5 37.5t-46.5 108.5q0 40 11.5 82.5t39.5 77.5t74 57.5t115 22.5zM785 272q-24 0 -38.5 -14.5t-22.5 -34.5t-10.5 -42t-2.5 -38
q0 -51 38 -51q24 0 38.5 14.5t22.5 35t10.5 43.5t2.5 40q0 22 -9 34.5t-29 12.5z" />
            <glyph glyph-name="afii61289" unicode="&#x2113;" horiz-adv-x="537"
           d="M572 602q0 -45 -15 -93t-50 -98.5t-94.5 -103t-147.5 -105.5q1 -28 5.5 -45t12 -26.5t18 -12.5t23.5 -3q16 0 39.5 8.5t40.5 21.5l28 -119q-27 -15 -59.5 -28t-80.5 -13q-69 0 -114 32.5t-58 107.5q-21 -10 -43.5 -20t-45.5 -20l31 143q15 7 28.5 13t27.5 13
q4 51 13.5 106.5t26.5 109t41.5 101.5t58 84.5t76.5 58t96 21.5q36 0 63 -10.5t44.5 -29t26 -42.5t8.5 -51zM278 353q46 36 76 70t46.5 64t23 54.5t6.5 41.5q0 15 -8.5 22.5t-18.5 7.5q-23 0 -42.5 -23t-35.5 -60t-28 -83.5t-19 -93.5z" />
            <glyph glyph-name="afii61352" unicode="&#x2116;" horiz-adv-x="1270"
           d="M1102 734q34 0 68.5 -8t61.5 -27.5t44 -53t17 -85.5q0 -62 -16.5 -111.5t-48 -84.5t-77.5 -54t-104 -19q-35 0 -69 8.5t-61.5 28.5t-44.5 54.5t-17 86.5q0 59 16 107.5t47 83.5t77 54.5t107 19.5zM1090 622q-20 0 -33.5 -16t-21.5 -40t-11.5 -52t-3.5 -52
q0 -32 9.5 -45.5t29.5 -13.5q21 0 35 17t21.5 41.5t10.5 52.5t3 50q0 32 -10.5 45t-28.5 13zM1171 0h-408l30 140h407zM804 720l-153 -720h-204l-158 448l-94 -448h-178l153 720h217l148 -426l91 426h178z" />
            <glyph glyph-name="trademark" unicode="&#x2122;" horiz-adv-x="854"
           d="M601 319l-55 177v-177h-128v291h-69v-291h-135v291h-114v110h493l61 -199l57 199h177v-401h-130v177l-55 -177h-102z" />
            <glyph glyph-name="Omega" unicode="&#x2126;" horiz-adv-x="801"
           d="M428 133q30 0 55 15.5t44.5 40.5t33.5 57t23.5 65.5t14 65.5t4.5 57q0 42 -10.5 71t-28.5 48t-40.5 27.5t-46.5 8.5q-61 0 -101.5 -34t-64.5 -84t-34 -107.5t-10 -104.5q0 -66 23 -96t57 -30l-27 -133h-315l29 140h108q-35 34 -55 82.5t-20 105.5q0 76 28 149t82 130.5
t132.5 92.5t179.5 35q63 0 122 -18t104.5 -54t73.5 -90t28 -126q0 -51 -12 -95.5t-33 -82.5t-50 -70.5t-63 -58.5h87l-29 -140h-316z" />
            <glyph glyph-name="estimated" unicode="&#x212e;" horiz-adv-x="945"
           d="M233 339v-218q16 -24 44.5 -42t63.5 -30t73.5 -18.5t73.5 -6.5t72.5 6t72 18.5t64.5 31t51 42.5h58q-55 -64 -134.5 -100.5t-184.5 -36.5q-86 0 -159.5 27t-127.5 75t-84.5 114.5t-30.5 145.5t31.5 146t86.5 116.5t128 77.5t156 28q80 0 153 -27.5t128.5 -77t88.5 -118.5
t33 -153h-657zM742 574q-42 46 -104 74t-150 28t-152.5 -27t-102.5 -74v-196h509v195z" />
            <glyph glyph-name="onethird" unicode="&#x2153;" horiz-adv-x="959"
           d="M90 -93l611 880h148l-610 -880h-149zM295 276h-142l66 309l-113 -42l25 120l135 54h123zM798 445q70 0 110.5 -27.5t40.5 -71.5q0 -15 -6 -32.5t-19.5 -34t-35.5 -30.5t-54 -21q40 -9 60 -33t20 -56q0 -27 -10.5 -54.5t-34.5 -50t-62 -36.5t-92 -14q-53 0 -85.5 13
t-50 33.5t-23.5 45.5t-6 48h140q-2 -10 -2 -14q0 -13 7.5 -21.5t26.5 -8.5q20 0 35 15t15 45q0 22 -14.5 30t-34.5 8h-32l19 89h34q16 0 27.5 6.5t18.5 16t10 20t3 19.5q0 21 -23 21q-31 0 -44 -35h-135q23 61 72.5 95.5t124.5 34.5z" />
            <glyph glyph-name="twothirds" unicode="&#x2154;" horiz-adv-x="1096"
           d="M227 -93l611 880h148l-610 -880h-149zM142 599q25 67 78 106.5t132 39.5q74 0 112.5 -30.5t38.5 -75.5q0 -21 -5.5 -40.5t-22 -41t-47 -47t-79.5 -58.5l-75 -53h182l-22 -105h-344l22 103l122 86q45 31 71.5 53.5t40 38.5t17.5 27t4 21q0 13 -8.5 18.5t-21.5 5.5
q-17 0 -31.5 -11t-24.5 -37h-139zM935 445q70 0 110.5 -27.5t40.5 -71.5q0 -15 -6 -32.5t-19.5 -34t-35.5 -30.5t-54 -21q40 -9 60 -33t20 -56q0 -27 -10.5 -54.5t-34.5 -50t-62 -36.5t-92 -14q-53 0 -85.5 13t-50 33.5t-23.5 45.5t-6 48h140q-2 -10 -2 -14q0 -13 7.5 -21.5
t26.5 -8.5q20 0 35 15t15 45q0 22 -14.5 30t-34.5 8h-32l19 89h34q16 0 27.5 6.5t18.5 16t10 20t3 19.5q0 21 -23 21q-31 0 -44 -35h-135q23 61 72.5 95.5t124.5 34.5z" />
            </font>
</defs>
</svg>
