<?xml version="1.0" standalone="no"?>
<!DOCTYPE svg PUBLIC "-//W3C//DTD SVG 1.1//EN" "http://www.w3.org/Graphics/SVG/1.1/DTD/svg11.dtd" >
<svg>
<metadata>
Created by FontForge 20120731 at Mon Mar 31 14:10:07 2014
 By tam,,,
Copyright (c) 2010-2013 by Ralph du Carrois, Erik Spiekermann &#38; Botio Nikoltchev. All rights reserved.
</metadata>
<defs>
<font id="CiscoSansTT-CondensedHeavy" horiz-adv-x="560" >
  <font-face 
    font-family="CiscoSansTT Condensed Heavy"
    font-weight="900"
    font-stretch="condensed"
    units-per-em="1000"
    panose-1="2 11 10 6 2 2 0 2 3 3"
    ascent="790"
    descent="-210"
    x-height="520"
    cap-height="720"
    bbox="-157 -362 1119 1000"
    underline-thickness="85"
    underline-position="-6"
    unicode-range="U+0020-FEFF"
  />
<missing-glyph horiz-adv-x="539" 
d="M34 720h471v-720h-471v720zM366 139v442h-193v-442h193z" />
    <glyph glyph-name="f_f" unicode="ff" horiz-adv-x="623" 
d="M531 389v-389h-192v389h-84v-389h-193v389h-65v131h65v22q0 47 13 81.5t37 57t57 33.5t73 11t81 -6.5t78 -18.5q44 35 116 35q34 0 63 -5t56 -13v-135q-29 8 -42.5 10.5t-22.5 2.5q-22 0 -31 -11t-9 -38v-26h80v-131h-80zM339 520v43q0 7 1 15q-13 3 -24.5 5t-19.5 2
q-23 0 -32 -10.5t-9 -31.5v-23h84z" />
    <glyph glyph-name="f_f_i" unicode="ffi" horiz-adv-x="841" 
d="M571 733q37 -2 68 -7.5t51 -10.5v-134q-29 6 -58.5 10t-51.5 4q-31 0 -40 -13t-9 -40v-22h276v-520h-189v389h-87v-389h-192v389h-84v-389h-193v389h-65v131h65v22q0 91 47 137t132 46q40 0 82 -6.5t80 -20.5q25 18 57.5 27.5t74.5 9.5q8 0 17.5 -0.5t18.5 -1.5zM255 520
h84v44q0 7 1 13q-12 4 -25.5 6t-21.5 2q-23 0 -30.5 -11.5t-7.5 -37.5v-16z" />
    <glyph glyph-name="f_f_j" unicode="ffj" horiz-adv-x="846" 
d="M532 735q46 0 88.5 -7t69.5 -13v-134q-29 6 -58.5 10t-49.5 4q-28 0 -39.5 -11.5t-11.5 -37.5v-26h281v-536q0 -83 -44.5 -131t-126.5 -48q-26 0 -51 4t-44 9v135q13 -3 22.5 -5t16.5 -2q19 0 26 10t7 36v397h-87v-389h-192v389h-84v-389h-193v389h-65v131h65v22
q0 46 13 80.5t37 57.5t57 34t73 11q39 0 79.5 -6.5t77.5 -18.5q21 17 53.5 26t79.5 9zM339 578q-12 3 -24 5t-19 2q-23 0 -32 -10.5t-9 -29.5v-25h84v58z" />
    <glyph glyph-name="f_f_l" unicode="ffl" horiz-adv-x="846" 
d="M531 735q30 0 57.5 -4t50.5 -10q44 2 86.5 4t86.5 4v-729h-193v589q-11 2 -22.5 4t-19.5 2q-46 0 -46 -50v-25h56v-131h-56v-389h-192v389h-84v-389h-193v389h-65v131h65v22q0 47 13 81.5t37 57t57 33.5t73 11q39 0 79.5 -6.5t77.5 -18.5q22 17 53.5 26t78.5 9zM339 578
q-12 3 -24 5t-19 2q-23 0 -32 -10.5t-9 -29.5v-25h84v58z" />
    <glyph glyph-name="f_i" unicode="fi" horiz-adv-x="569" 
d="M413 581q-29 6 -58.5 10t-51.5 4q-30 0 -39 -12.5t-9 -40.5v-22h280v-520h-194v389h-86v-389h-193v389h-65v131h65v28q0 94 49.5 140.5t139.5 46.5q23 0 46.5 -2t44.5 -5t39.5 -6.5t31.5 -6.5v-134z" />
    <glyph glyph-name="f_j" unicode="fj" horiz-adv-x="569" 
d="M341 389h-86v-389h-193v389h-65v131h65v28q0 94 51 140.5t139 46.5q22 0 45.5 -2t44.5 -5t39.5 -6.5t31.5 -6.5v-134q-29 6 -56.5 10t-49.5 4q-32 0 -42 -12.5t-10 -40.5v-22h280v-536q0 -83 -42.5 -131t-127.5 -48q-26 0 -51.5 4t-44.5 9v135q12 -3 22 -5t17 -2
q18 0 25.5 10t7.5 36v397z" />
    <glyph glyph-name="f_l" unicode="fl" horiz-adv-x="569" 
d="M342 0v589q-11 3 -22.5 4.5t-19.5 1.5q-29 0 -37 -13t-8 -40v-23h51v-131h-51v-388h-193v388h-65v131h65v29q0 94 49.5 140.5t135.5 46.5q30 0 56.5 -4t50.5 -10q46 2 91 4l90 4v-729h-193z" />
    <glyph glyph-name=".notdef" horiz-adv-x="539" 
d="M34 720h471v-720h-471v720zM366 139v442h-193v-442h193z" />
    <glyph glyph-name=".null" horiz-adv-x="0" 
 />
    <glyph glyph-name="nonmarkingreturn" horiz-adv-x="175" 
 />
    <glyph glyph-name="space" unicode=" " horiz-adv-x="175" 
 />
    <glyph glyph-name="exclam" unicode="!" horiz-adv-x="289" 
d="M53 242l-23 478h229l-23 -478h-183zM40 0v181h208v-181h-208z" />
    <glyph glyph-name="quotedbl" unicode="&#x22;" horiz-adv-x="456" 
d="M176 469h-122l-13 157v100h149v-100zM362 469h-122l-13 157v100h149v-100z" />
    <glyph glyph-name="numbersign" unicode="#" 
d="M56 547h50l12 153h151l-12 -153h82l11 153h152l-12 -153h37v-128h-47l-11 -138h40v-128h-49l-12 -153h-150l10 153h-81l-11 -153h-151l10 153h-36v128h46l10 138h-39v128zM236 281h82l10 138h-81z" />
    <glyph glyph-name="dollar" unicode="$" 
d="M542 209q0 -40 -9.5 -76t-31 -64.5t-56.5 -49t-87 -29.5v-125h-163v128q-42 9 -73.5 29.5t-53 49.5t-34 65.5t-16.5 77.5h199q5 -45 23 -66.5t46 -21.5q23 0 36.5 13.5t13.5 45.5q0 16 -4 29t-14.5 24.5t-29 21t-47.5 18.5q-59 18 -98.5 41t-62.5 51.5t-32.5 62.5
t-9.5 75q0 79 39.5 131.5t117.5 67.5v122h163v-122q146 -29 170 -200h-193q-5 40 -18 54.5t-34 14.5q-20 0 -30 -14.5t-10 -38.5q0 -31 15 -49t60 -32q61 -18 104 -41t69.5 -51.5t38.5 -64t12 -77.5z" />
    <glyph glyph-name="percent" unicode="%" horiz-adv-x="738" 
d="M295 0h-140l286 700h141zM327 542q0 -79 -38 -126t-119 -47t-119 47t-38 126t38 126t119 47t119 -47t38 -126zM200 542q0 44 -6.5 60t-23.5 16q-18 0 -23.5 -16t-5.5 -60t6 -60t23 -16t23.5 16t6.5 60zM725 158q0 -79 -37.5 -126t-119.5 -47q-81 0 -119 47t-38 126
t38 126t119 47q82 0 119.5 -47t37.5 -126zM598 158q0 44 -6.5 60t-23.5 16t-23 -16t-6 -60t6 -60t23 -16t23.5 16t6.5 60z" />
    <glyph glyph-name="ampersand" unicode="&#x26;" horiz-adv-x="593" 
d="M560 331q-8 -45 -20 -84.5t-32 -77.5l69 -77l-112 -107l-52 58q-29 -28 -68 -43t-90 -15q-62 0 -106 14t-72.5 39.5t-42 61.5t-13.5 79q0 111 101 181q-38 41 -58 81.5t-20 91.5q0 36 11 68.5t35.5 58t63 40.5t93.5 15q53 0 90.5 -13.5t61.5 -37t35 -55t11 -66.5
q0 -60 -25.5 -105t-73.5 -87l44 -56q5 15 7 29l4 28zM266 117q13 0 25.5 6.5t21.5 19.5l-80 103q-21 -27 -21 -63q0 -34 15 -50t39 -16zM214 537q0 -23 6.5 -42t22.5 -39q20 21 27.5 42t7.5 45q0 32 -8.5 44t-22.5 12q-16 0 -24.5 -14t-8.5 -48z" />
    <glyph glyph-name="quotesingle" unicode="'" horiz-adv-x="234" 
d="M175 490h-122l-14 152v93h149v-93z" />
    <glyph glyph-name="parenleft" unicode="(" horiz-adv-x="295" 
d="M177 321q0 -55 6 -112.5t20 -118.5t38 -126t59 -134h-158q-23 39 -47 92.5t-43.5 117.5t-32 135.5t-12.5 145.5q0 73 13 144t33.5 135t44.5 117.5t47 92.5h159q-70 -139 -98.5 -259.5t-28.5 -229.5z" />
    <glyph glyph-name="parenright" unicode=")" horiz-adv-x="295" 
d="M110 321q0 109 -28.5 229.5t-98.5 259.5h159q22 -39 46.5 -92.5t45 -117.5t33.5 -135t13 -144q0 -74 -12.5 -145.5t-32 -135.5t-43.5 -117.5t-47 -92.5h-158q70 139 96.5 260t26.5 231z" />
    <glyph glyph-name="asterisk" unicode="*" horiz-adv-x="497" 
d="M247 438l-48 -115l-136 100l92 82l-124 10l53 160l106 -62l-29 122h168l-26 -123l109 63l52 -160l-125 -10l93 -83l-137 -99z" />
    <glyph glyph-name="plus" unicode="+" 
d="M356 526v-136h124v-140h-124v-137h-153v137h-123v140h123v136h153z" />
    <glyph glyph-name="comma" unicode="," horiz-adv-x="270" 
d="M245 42q0 -104 -60 -157t-169 -61v88q41 5 64.5 27t23.5 61h-70v181h211v-139z" />
    <glyph glyph-name="hyphen" unicode="-" horiz-adv-x="468" 
d="M403 250h-351v140h351v-140z" />
    <glyph glyph-name="period" unicode="." horiz-adv-x="303" 
d="M46 0v181h211v-181h-211z" />
    <glyph glyph-name="slash" unicode="/" horiz-adv-x="277" 
d="M135 -90h-161l163 825h159z" />
    <glyph glyph-name="zero" unicode="0" 
d="M279 115q13 0 22.5 9t16 34.5t9.5 71.5t3 119t-3 119t-9.5 72.5t-16 36.5t-22.5 10q-12 0 -21 -10t-15 -36.5t-9.5 -72.5t-3.5 -119t3.5 -119t9.5 -71.5t15 -34.5t21 -9zM280 -15q-121 0 -184.5 88t-63.5 276q0 191 63 278.5t184 87.5q122 0 185.5 -87.5t63.5 -278.5
q0 -187 -64.5 -275.5t-183.5 -88.5z" />
    <glyph glyph-name="one" unicode="1" 
d="M250 526l-134 -77v164l151 87h176v-700h-193v526z" />
    <glyph glyph-name="two" unicode="2" 
d="M42 492q7 51 27.5 92.5t52.5 70.5t74.5 44.5t94.5 15.5q56 0 98 -14.5t70.5 -40.5t42.5 -62t14 -79q0 -33 -6.5 -62t-22 -59.5t-42 -65.5t-66.5 -81l-90 -102h226v-149h-456v145l134 154q40 46 65 79t39 58t19 45t5 40q0 55 -35 55q-20 0 -32.5 -20t-17.5 -64h-194z" />
    <glyph glyph-name="three" unicode="3" 
d="M279 121q20 0 31.5 20t11.5 61q0 54 -20.5 76t-52.5 22h-45v127h47q64 0 64 87q0 35 -8 50.5t-26 15.5t-27 -15.5t-14 -49.5h-183q13 94 74 147t161 53q108 0 162 -49t54 -131q0 -57 -28 -101.5t-82 -61.5q56 -17 88.5 -65t32.5 -109q0 -106 -63.5 -159.5t-172.5 -53.5
q-111 0 -173.5 56.5t-69.5 156.5h191q2 -36 12.5 -56.5t35.5 -20.5z" />
    <glyph glyph-name="four" unicode="4" 
d="M482 700v-436h48v-137h-48v-127h-185v127h-267v144l206 429h246zM297 281l16 260l-118 -277h102v17z" />
    <glyph glyph-name="five" unicode="5" 
d="M225 196q3 -40 15.5 -57.5t32.5 -17.5q23 0 36 24t13 88q0 33 -3.5 55t-10.5 34.5t-16.5 17.5t-22.5 5q-31 0 -51 -38h-151l17 393h390v-133h-213l-9 -123q19 14 41.5 20.5t45.5 6.5q39 0 72 -14t57 -43t37.5 -72.5t13.5 -102.5q0 -58 -16 -105t-46.5 -80t-75 -51
t-100.5 -18q-106 0 -167 53.5t-74 157.5h185z" />
    <glyph glyph-name="six" unicode="6" 
d="M286 343q-25 0 -41 -27.5t-16 -88.5q0 -58 15 -82t39 -24t38 25t14 88q0 33 -3 54t-9.5 33.5t-15.5 17t-21 4.5zM290 584q-14 0 -25 -7t-20 -25.5t-15 -51.5t-9 -84q20 28 51.5 44t73.5 16q39 0 72 -15t58 -44t39 -72.5t14 -100.5q0 -60 -16 -107.5t-47 -81.5t-75.5 -52
t-101.5 -18q-127 0 -193 84t-66 254q0 100 18 174t52 122.5t82.5 72t109.5 23.5q97 0 156.5 -45.5t77.5 -126.5h-197q-6 41 -39 41z" />
    <glyph glyph-name="seven" unicode="7" 
d="M293 0h-192l219 559h-270v141h459v-134z" />
    <glyph glyph-name="eight" unicode="8" 
d="M512 532q0 -55 -25.5 -95.5t-69.5 -64.5q53 -26 83.5 -69t30.5 -104q0 -45 -15.5 -84t-46.5 -68t-77.5 -45.5t-109.5 -16.5t-110.5 16t-79 44.5t-47.5 66.5t-16 82q0 65 26 106t83 65q-45 26 -68 63t-23 94q0 43 14.5 78.5t43.5 61t73.5 39.5t103.5 14q53 0 95.5 -13.5
t72.5 -37.5t46 -58t16 -74zM330 199q0 39 -14 63.5t-42 40.5q-20 -14 -32 -38.5t-12 -65.5q0 -38 13 -58.5t36 -20.5q25 0 38 21t13 58zM236 521q0 -39 13.5 -60t36.5 -32q17 12 27.5 33.5t10.5 56.5q0 40 -12 56t-31 16q-21 0 -33 -15.5t-12 -54.5z" />
    <glyph glyph-name="nine" unicode="9" 
d="M275 357q24 0 40.5 27.5t16.5 88.5q0 58 -15 82t-40 24q-23 0 -37.5 -25t-14.5 -88q0 -33 3 -54t9.5 -33.5t16 -17t21.5 -4.5zM272 116q14 0 25.5 7t20 25.5t14 51.5t7.5 84q-20 -28 -51 -44t-73 -16q-39 0 -72.5 15t-58 44t-39 72.5t-14.5 100.5q0 60 16 107.5t47 81.5
t75.5 52t101.5 18q128 0 193.5 -80t65.5 -257q0 -201 -61.5 -297t-194.5 -96q-100 0 -162 45.5t-80 126.5h201q3 -20 13.5 -30.5t25.5 -10.5z" />
    <glyph glyph-name="colon" unicode=":" horiz-adv-x="303" 
d="M46 339v181h211v-181h-211zM46 0v181h211v-181h-211z" />
    <glyph glyph-name="semicolon" unicode=";" horiz-adv-x="296" 
d="M46 339v181h211v-181h-211zM257 42q0 -104 -60 -157t-169 -61v88q41 5 64.5 27t23.5 61h-70v181h211v-139z" />
    <glyph glyph-name="less" unicode="&#x3c;" 
d="M79 382l401 216v-168l-208 -112l208 -107v-168l-401 216v123z" />
    <glyph glyph-name="equal" unicode="=" 
d="M480 347h-400v140h400v-140zM480 151h-400v140h400v-140z" />
    <glyph glyph-name="greater" unicode="&#x3e;" 
d="M480 259l-401 -216v168l208 107l-208 112v168l401 -216v-123z" />
    <glyph glyph-name="question" unicode="?" horiz-adv-x="480" 
d="M30 535q3 41 20 77.5t46 63.5t69 43t88 16q100 0 153.5 -48t53.5 -128q0 -27 -5 -49.5t-15.5 -45t-26.5 -48.5t-38 -60q-10 -15 -16 -27.5t-9.5 -25.5t-4.5 -28.5t-1 -36.5h-181q0 43 2.5 72t8 50.5t14.5 39t22 38.5q15 24 26.5 41t18.5 31t10.5 26t3.5 25q0 32 -19 32
q-13 0 -19.5 -11.5t-8.5 -46.5h-192zM150 0v181h208v-181h-208z" />
    <glyph glyph-name="at" unicode="@" horiz-adv-x="802" 
d="M574 87q-25 0 -44.5 8.5t-33 22.5t-20.5 30.5t-8 33.5q-5 -16 -16 -31t-27 -27t-35.5 -19.5t-42.5 -7.5q-35 0 -60 14t-41.5 38.5t-24.5 57.5t-8 70q0 69 16.5 119.5t42 83.5t56 49t59.5 16q24 0 42 -11t26 -28l11 24h117l-28 -246q-1 -11 -2 -23t-1 -17q0 -29 8.5 -40
t20.5 -11q13 0 23.5 14.5t18 40t11 61t3.5 76.5q0 124 -51.5 178.5t-166.5 54.5q-58 0 -107 -20.5t-84.5 -59.5t-55.5 -95.5t-20 -128.5q0 -80 18 -136t52.5 -91.5t85.5 -51.5t117 -16q43 0 78.5 7t62.5 17l34 -112q-27 -11 -72.5 -21.5t-109.5 -10.5q-93 0 -167.5 26
t-127 77.5t-81 129.5t-28.5 182q0 98 30 176t84 132.5t128 83.5t163 29q83 0 149 -23.5t112 -68t70.5 -109.5t24.5 -148q0 -62 -13.5 -116.5t-39.5 -95t-63.5 -64t-84.5 -23.5zM378 204q13 0 20.5 21.5t12.5 59.5q1 4 2.5 18.5t3.5 30.5t3.5 30t1.5 18v12q0 23 -3.5 32
t-14.5 9q-12 0 -21 -19.5t-15 -47t-9 -57.5t-3 -51q0 -31 5.5 -43.5t16.5 -12.5z" />
    <glyph glyph-name="A" unicode="A" horiz-adv-x="648" 
d="M432 0l-33 157h-161l-34 -157h-208l220 720h214l221 -720h-219zM274 295h89l-44 244z" />
    <glyph glyph-name="B" unicode="B" horiz-adv-x="606" 
d="M273 720q78 0 132 -12t87.5 -35.5t49 -58.5t15.5 -82q0 -50 -29 -91t-83 -58q65 -14 102 -58t37 -113q0 -49 -15 -88.5t-48.5 -67t-88.5 -42t-134 -14.5h-254v720h229zM253 312v-176h47q38 0 56 21t18 66t-19.5 67t-49.5 22h-52zM253 584v-145h37q27 0 43 19t16 56
q0 33 -17 51.5t-44 18.5h-35z" />
    <glyph glyph-name="C" unicode="C" horiz-adv-x="669" 
d="M345 128q41 0 63 34.5t27 113.5h210q-18 -148 -94.5 -219.5t-208.5 -71.5q-152 0 -233 93.5t-81 286.5q0 181 81.5 275.5t233.5 94.5q121 0 198.5 -67.5t99.5 -196.5h-208q-11 66 -33.5 93.5t-56.5 27.5q-23 0 -41.5 -12t-31.5 -39t-19.5 -71t-6.5 -108q0 -66 7 -111
t20.5 -72t32 -39t41.5 -12z" />
    <glyph glyph-name="D" unicode="D" horiz-adv-x="667" 
d="M304 720q165 0 250.5 -88t85.5 -272q0 -183 -82.5 -271.5t-249.5 -88.5h-264v720h260zM253 578v-435h52q54 0 89.5 51.5t35.5 165.5q0 116 -36 167t-91 51h-50z" />
    <glyph glyph-name="E" unicode="E" horiz-adv-x="541" 
d="M490 294h-237v-148h262v-146h-471v720h471v-148h-262v-140h237v-138z" />
    <glyph glyph-name="F" unicode="F" horiz-adv-x="508" 
d="M460 280h-207v-280h-209v720h442v-146h-233v-156h207v-138z" />
    <glyph glyph-name="G" unicode="G" horiz-adv-x="678" 
d="M642 0h-140l-23 70q-29 -42 -69 -63.5t-102 -21.5q-60 0 -111.5 24.5t-89 72.5t-59 118t-21.5 162q0 184 85.5 278.5t239.5 94.5q116 0 191.5 -61t97.5 -176h-207q-7 51 -28.5 72.5t-55.5 21.5q-24 0 -43.5 -11t-33.5 -37t-22 -70.5t-8 -111.5q0 -65 8.5 -110t23 -73
t35 -40t44.5 -12q49 0 76 32.5t27 86.5v29h-118v135h303v-410z" />
    <glyph glyph-name="H" unicode="H" horiz-adv-x="660" 
d="M615 720v-720h-207v293h-155v-293h-209v720h209v-285h155v285h207z" />
    <glyph glyph-name="I" unicode="I" horiz-adv-x="297" 
d="M253 720v-720h-209v720h209z" />
    <glyph glyph-name="J" unicode="J" horiz-adv-x="528" 
d="M210 212q3 -50 14 -66.5t28 -16.5q8 0 14 3.5t10.5 12.5t7 25t2.5 41v509h202v-486q0 -57 -13 -103.5t-41 -78.5t-71.5 -49.5t-104.5 -17.5q-112 0 -174.5 59.5t-73.5 167.5h200z" />
    <glyph glyph-name="K" unicode="K" horiz-adv-x="693" 
d="M439 0l-186 282v-282h-209v720h209v-270l179 270h231l-251 -338l283 -382h-256z" />
    <glyph glyph-name="L" unicode="L" horiz-adv-x="556" 
d="M253 720v-569h290v-151h-499v720h209z" />
    <glyph glyph-name="M" unicode="M" horiz-adv-x="805" 
d="M322 0l-117 459l10 -323v-136h-171v720h218l137 -517l135 517h226v-720h-177v136l4 323l-118 -459h-147z" />
    <glyph glyph-name="N" unicode="N" horiz-adv-x="654" 
d="M610 720v-720h-198l-192 427v-427h-176v720h211l179 -407v407h176z" />
    <glyph glyph-name="O" unicode="O" horiz-adv-x="703" 
d="M351 132q23 0 44 11.5t36.5 38.5t25 70.5t9.5 107.5q0 63 -9 107t-25 71t-36.5 39t-44.5 12q-23 0 -43.5 -11.5t-36.5 -38.5t-25 -71t-9 -109q0 -63 9.5 -106.5t25.5 -70.5t36.5 -38.5t42.5 -11.5zM351 -15q-71 0 -130.5 23.5t-102.5 70t-67 117t-24 163.5q0 92 23.5 162
t66 117.5t102.5 72t132 24.5q70 0 129.5 -22.5t103 -69t68 -117t24.5 -166.5q0 -92 -24.5 -162t-67.5 -117.5t-103 -71.5t-130 -24z" />
    <glyph glyph-name="P" unicode="P" horiz-adv-x="613" 
d="M291 720q160 0 230 -60.5t70 -184.5q0 -122 -70 -184t-222 -62h-47v-229h-208v720h247zM252 579v-210h48q35 0 58 27t23 79q0 54 -23.5 79t-65.5 25h-40z" />
    <glyph glyph-name="Q" unicode="Q" horiz-adv-x="720" 
d="M351 -15q-71 0 -130.5 23.5t-102.5 70t-67 117t-24 163.5q0 92 23.5 162t66 117.5t102.5 72t132 24.5q70 0 129.5 -22.5t103 -69t68 -117t24.5 -166.5q0 -93 -24 -161.5t-67 -116.5l108 -127l-167 -116l-92 155q-39 -9 -83 -9zM351 132q23 0 44 11.5t36.5 38.5t25 70.5
t9.5 107.5q0 63 -9 107t-25 71t-36.5 39t-44.5 12q-23 0 -43.5 -11.5t-36.5 -38.5t-25 -71t-9 -109q0 -63 9.5 -106.5t25.5 -70.5t36.5 -38.5t42.5 -11.5z" />
    <glyph glyph-name="R" unicode="R" horiz-adv-x="651" 
d="M408 0l-129 250h-26v-250h-209v720h246q157 0 230 -61t73 -173q0 -76 -31.5 -124t-91.5 -75l179 -287h-241zM253 578v-186h43q82 0 82 95q0 48 -21 69.5t-65 21.5h-39z" />
    <glyph glyph-name="S" unicode="S" horiz-adv-x="623" 
d="M318 -15q-141 0 -214.5 62t-87.5 174h200q6 -45 30 -69.5t72 -24.5q44 0 62 17t18 48q0 17 -5 30t-18.5 24.5t-38 22t-63.5 22.5q-65 19 -110 42t-72.5 51.5t-39.5 64t-12 79.5q0 46 15 84.5t47 65.5t82.5 42t121.5 15q123 0 196.5 -59t88.5 -160h-195q-9 78 -85 78
q-34 0 -48 -15t-14 -41q0 -29 20.5 -47t75.5 -33q71 -20 121 -44.5t81.5 -54.5t46 -67t14.5 -81q0 -47 -15.5 -88t-50 -71.5t-89.5 -48.5t-134 -18z" />
    <glyph glyph-name="T" unicode="T" horiz-adv-x="559" 
d="M556 569h-174v-569h-209v569h-170v151h553v-151z" />
    <glyph glyph-name="U" unicode="U" horiz-adv-x="653" 
d="M249 720v-484q0 -56 19 -81t59 -25q42 0 62 25.5t20 80.5v484h203v-472q0 -61 -17.5 -109.5t-53 -82.5t-89.5 -52.5t-126 -18.5t-126 18.5t-89.5 52.5t-53 83t-17.5 109v472h209z" />
    <glyph glyph-name="V" unicode="V" horiz-adv-x="624" 
d="M624 720l-198 -720h-228l-198 720h215l101 -533l104 533h204z" />
    <glyph glyph-name="W" unicode="W" horiz-adv-x="905" 
d="M902 720l-130 -720h-229l-92 502l-84 -502h-219l-145 720h214l57 -475l78 475h208l90 -479l51 479h201z" />
    <glyph glyph-name="X" unicode="X" horiz-adv-x="674" 
d="M450 380l221 -380h-239l-106 226l-98 -226h-225l222 373l-208 347h236l96 -198l90 198h215z" />
    <glyph glyph-name="Y" unicode="Y" horiz-adv-x="652" 
d="M226 0v288l-226 432h217l113 -270l123 270h199l-227 -432v-288h-199z" />
    <glyph glyph-name="Z" unicode="Z" horiz-adv-x="561" 
d="M243 145h300v-145h-529v136l304 439h-288v145h517v-134z" />
    <glyph glyph-name="bracketleft" unicode="[" horiz-adv-x="294" 
d="M282 -170h-250v980h250v-121h-92v-738h92v-121z" />
    <glyph glyph-name="backslash" unicode="\" horiz-adv-x="278" 
d="M-27 735h160l162 -825h-160z" />
    <glyph glyph-name="bracketright" unicode="]" horiz-adv-x="294" 
d="M4 -49h92v738h-92v121h250v-980h-250v121z" />
    <glyph glyph-name="asciicircum" unicode="^" horiz-adv-x="428" 
d="M161 383h-172l136 329h165l136 -329h-171l-47 158z" />
    <glyph glyph-name="underscore" unicode="_" horiz-adv-x="504" 
d="M493 -142h-481v139h481v-139z" />
    <glyph glyph-name="grave" unicode="`" horiz-adv-x="333" 
d="M307 578h-137l-144 154h187z" />
    <glyph glyph-name="a" unicode="a" horiz-adv-x="514" 
d="M27 365q23 85 80.5 127.5t154.5 42.5q106 0 164 -51.5t58 -148.5v-335h-147q-5 14 -11.5 27.5t-11.5 27.5q-26 -34 -60 -52t-81 -18q-74 0 -116 41t-42 113q0 31 9 58.5t31.5 50t60.5 39t95 27.5l81 15v22q0 35 -10 45.5t-24 10.5q-16 0 -26 -9.5t-15 -32.5h-190z
M236 111q31 0 43.5 27.5t12.5 73.5v17q-53 -13 -73 -27.5t-20 -44.5q0 -46 37 -46z" />
    <glyph glyph-name="b" unicode="b" horiz-adv-x="566" 
d="M34 0v720h193v-245q24 29 56 44.5t71 15.5q42 0 76.5 -15.5t60 -47.5t39.5 -82t14 -119q0 -143 -53.5 -214.5t-142.5 -71.5q-39 0 -74.5 18.5t-60.5 52.5l-28 -56h-151zM350 264q0 39 -4 64.5t-12.5 41t-20 21.5t-26.5 6q-31 0 -48 -28t-17 -103q0 -43 4 -70.5
t12.5 -43.5t20.5 -22.5t28 -6.5q29 0 46 30t17 111z" />
    <glyph glyph-name="c" unicode="c" horiz-adv-x="539" 
d="M520 192q-21 -97 -81.5 -152t-166.5 -55q-130 0 -190 68.5t-60 202.5q0 136 64 207.5t188 71.5q51 0 93 -14t73.5 -39.5t52 -61.5t27.5 -80h-196q-4 34 -17.5 50t-31.5 16q-14 0 -24 -6.5t-17.5 -23t-11 -46t-3.5 -75.5q0 -77 14 -108.5t40 -31.5q23 0 35 17.5t15 59.5
h197z" />
    <glyph glyph-name="d" unicode="d" horiz-adv-x="567" 
d="M380 0l-29 63q-26 -36 -59.5 -57t-72.5 -21q-44 0 -80 17.5t-62 51.5t-40.5 84.5t-14.5 116.5q0 70 14.5 122.5t41 87.5t62.5 52.5t79 17.5q41 0 70 -15t51 -41v241h193v-720h-153zM215 257q0 -38 4.5 -64t13 -41.5t21 -22t28.5 -6.5q27 0 44 30t17 104q0 42 -4.5 69
t-12.5 43t-19.5 22t-25.5 6q-30 0 -48 -30.5t-18 -109.5z" />
    <glyph glyph-name="e" unicode="e" horiz-adv-x="551" 
d="M525 164q-7 -38 -26.5 -70.5t-50 -56.5t-72.5 -38t-95 -14q-125 0 -192 72.5t-67 206.5q0 131 64.5 201t187.5 70q58 0 105 -19.5t80.5 -58.5t51.5 -98.5t18 -140.5h-312q2 -30 7.5 -50t14 -31.5t19.5 -16t25 -4.5q41 0 49 48h193zM273 414q-25 0 -39 -19.5t-17 -75.5
h114q-2 56 -17.5 75.5t-40.5 19.5z" />
    <glyph glyph-name="f" unicode="f" horiz-adv-x="354" 
d="M367 583q-44 12 -64 12q-26 0 -34.5 -11t-8.5 -37v-27h82v-131h-82v-389h-193v389h-66v131h66v33q0 89 42 135.5t139 46.5q32 0 62 -5t57 -13v-134z" />
    <glyph glyph-name="g" unicode="g" horiz-adv-x="556" 
d="M223 -23q5 -23 16.5 -32.5t36.5 -9.5q27 0 40 18.5t13 68.5v52q-21 -24 -47.5 -37.5t-61.5 -13.5q-43 0 -79.5 15.5t-62.5 47t-41 79t-15 110.5q0 62 15 110.5t42 81.5t63.5 50.5t79.5 17.5q79 0 124 -62l28 47h148v-478q0 -112 -59.5 -174.5t-185.5 -62.5
q-120 0 -176.5 44.5t-69.5 127.5h192zM215 276q0 -65 17.5 -90t49.5 -25q28 0 44.5 25.5t16.5 89.5q0 72 -16.5 97t-46.5 25q-29 0 -47 -27t-18 -95z" />
    <glyph glyph-name="h" unicode="h" horiz-adv-x="539" 
d="M34 720h192v-242q24 29 53 43t70 14q75 0 117.5 -48t42.5 -154v-333h-193v333q0 42 -9.5 55.5t-28.5 13.5q-23 0 -37.5 -20t-14.5 -71v-311h-192v720z" />
    <glyph glyph-name="i" unicode="i" horiz-adv-x="262" 
d="M28 574v146h204v-146h-204zM34 0v520h194v-520h-194z" />
    <glyph glyph-name="j" unicode="j" horiz-adv-x="264" 
d="M-35 -47q11 -4 21.5 -5.5t17.5 -1.5q17 0 25 9t8 36v529h193v-536q0 -83 -41 -131t-129 -48q-26 0 -51.5 3.5t-43.5 9.5v135zM31 574v146h204v-146h-204z" />
    <glyph glyph-name="k" unicode="k" horiz-adv-x="566" 
d="M34 0v720h192v-374l130 174h204l-179 -222l189 -298h-228l-116 212v-212h-192z" />
    <glyph glyph-name="l" unicode="l" horiz-adv-x="261" 
d="M227 0h-193v720h193v-720z" />
    <glyph glyph-name="m" unicode="m" horiz-adv-x="805" 
d="M33 0v520h165q3 -14 6.5 -28.5t7.5 -28.5q43 72 128 72q42 0 76.5 -19t54.5 -56q47 75 139 75q78 0 121.5 -49.5t43.5 -152.5v-333h-193v337q0 40 -8.5 52.5t-27.5 12.5q-21 0 -33.5 -17.5t-12.5 -65.5v-319h-193v337q0 40 -8.5 52.5t-27.5 12.5q-20 0 -32 -17.5
t-12 -62.5v-322h-194z" />
    <glyph glyph-name="n" unicode="n" horiz-adv-x="539" 
d="M34 520h164l14 -56q26 38 59 54.5t78 16.5q75 0 117.5 -48t42.5 -154v-333h-193v333q0 42 -9.5 55.5t-28.5 13.5q-23 0 -37.5 -20t-14.5 -71v-311h-192v520z" />
    <glyph glyph-name="o" unicode="o" horiz-adv-x="556" 
d="M22 262q0 135 64.5 204t191.5 69q124 0 190 -68.5t66 -204.5q0 -134 -65.5 -205.5t-190.5 -71.5t-190.5 70.5t-65.5 206.5zM219 262q0 -45 3.5 -74t10.5 -45.5t18.5 -23t27.5 -6.5t27.5 5.5t18.5 22t10 45.5t3 76q0 46 -3.5 74t-11 44t-18.5 21.5t-27 5.5t-27.5 -6
t-18.5 -21.5t-10 -44t-3 -73.5z" />
    <glyph glyph-name="p" unicode="p" horiz-adv-x="566" 
d="M214 459q23 38 60 57t80 19q42 0 76.5 -15.5t60 -47.5t39.5 -82t14 -119q0 -71 -14 -124.5t-39.5 -89.5t-60.5 -54t-78 -18q-39 0 -71.5 16t-53.5 42v-223h-193v700h148zM350 264q0 39 -4 64.5t-12.5 41t-20 21.5t-26.5 6q-31 0 -48 -28t-17 -103q0 -43 4.5 -70.5
t12.5 -43.5t20.5 -22.5t27.5 -6.5q31 0 47 30t16 111z" />
    <glyph glyph-name="q" unicode="q" horiz-adv-x="567" 
d="M340 51q-22 -29 -52.5 -47.5t-69.5 -18.5q-43 0 -79 17t-62 51t-40.5 84.5t-14.5 116.5q0 70 14.5 122.5t41 88t62.5 53t79 17.5q47 0 78.5 -18.5t55.5 -55.5l31 59h149v-700h-193v231zM215 256q0 -76 17 -104.5t49 -28.5q28 0 44.5 30t16.5 104q0 42 -4.5 69t-12.5 42.5
t-19.5 22t-24.5 6.5q-30 0 -48 -30.5t-18 -110.5z" />
    <glyph glyph-name="r" unicode="r" horiz-adv-x="388" 
d="M34 0v520h165l17 -80q36 95 112 95q23 0 54 -7v-173q-21 7 -35 9.5t-30 2.5q-42 0 -66 -39.5t-24 -119.5v-208h-193z" />
    <glyph glyph-name="s" unicode="s" horiz-adv-x="526" 
d="M264 112q45 0 45 35q0 17 -13 28t-56 21q-62 14 -102.5 31.5t-64 39t-33 48.5t-9.5 59q0 37 12.5 67t39.5 51t69 32t101 11q49 0 90.5 -12t73 -34t52 -52.5t27.5 -67.5h-186q-5 20 -17 30t-36 10q-35 0 -35 -29q0 -8 2.5 -14.5t11 -12.5t23.5 -11.5t40 -11.5
q58 -14 96.5 -31.5t61.5 -39t33 -48t10 -57.5q0 -78 -56.5 -123.5t-182.5 -45.5q-109 0 -169 47t-74 124h188q5 -23 18.5 -33.5t39.5 -10.5z" />
    <glyph glyph-name="t" unicode="t" horiz-adv-x="364" 
d="M352 0q-26 -8 -55 -11.5t-52 -3.5q-85 0 -128.5 42.5t-43.5 124.5v237h-65v131h65l10 125h183v-125h87v-131h-87v-231q0 -23 7 -30.5t27 -7.5q8 0 23 2.5t29 7.5v-130z" />
    <glyph glyph-name="u" unicode="u" horiz-adv-x="532" 
d="M222 520v-339q0 -37 10 -50t29 -13q20 0 33 21t13 74v307h192v-520h-164l-14 53q-21 -32 -52 -50t-79 -18q-80 0 -120 47t-40 153v335h192z" />
    <glyph glyph-name="v" unicode="v" horiz-adv-x="532" 
d="M535 520l-161 -520h-217l-161 520h208l67 -354l65 354h199z" />
    <glyph glyph-name="w" unicode="w" horiz-adv-x="758" 
d="M757 520l-121 -520h-219l-38 334l-51 -334h-212l-115 520h200l33 -331l54 331h198l43 -329l41 329h187z" />
    <glyph glyph-name="x" unicode="x" horiz-adv-x="550" 
d="M380 275l173 -275h-222l-67 142l-66 -142h-202l171 273l-163 247h217l59 -125l52 125h199z" />
    <glyph glyph-name="y" unicode="y" horiz-adv-x="538" 
d="M541 520l-165 -519q-18 -56 -36.5 -93.5t-41 -60t-49.5 -32.5t-61 -10q-42 0 -100 14v130q31 -8 46 -10t22 -2q17 0 26.5 13.5t15.5 49.5h-34l-168 520h203l71 -371l78 371h193z" />
    <glyph glyph-name="z" unicode="z" horiz-adv-x="469" 
d="M239 138h208v-138h-435v135l221 247h-206v138h430v-135z" />
    <glyph glyph-name="braceleft" unicode="{" horiz-adv-x="303" 
d="M3 384q38 0 52.5 19t14.5 54v163q0 63 16 101t45 57.5t71 25.5t93 6v-121q-15 0 -27 -2t-20.5 -8.5t-12.5 -19.5t-4 -34v-166q0 -61 -18 -92.5t-47 -48.5q29 -17 47 -49t18 -93v-160q0 -22 4 -34.5t12.5 -19.5t20.5 -9t27 -2v-121q-51 0 -93 6t-71 25.5t-45 57.5t-16 101
v158q0 34 -14.5 53.5t-52.5 19.5v133z" />
    <glyph glyph-name="bar" unicode="|" horiz-adv-x="289" 
d="M220 785v-925h-159v925h159z" />
    <glyph glyph-name="braceright" unicode="}" horiz-adv-x="303" 
d="M299 251q-38 0 -52 -19.5t-14 -53.5v-158q0 -63 -16 -101t-45.5 -57.5t-71.5 -25.5t-93 -6v121q16 0 28 2t20 9t12 19.5t4 34.5v160q0 61 18.5 93t47.5 49q-29 17 -47.5 48.5t-18.5 92.5v166q0 21 -4 34t-12 19.5t-20 8.5t-28 2v121q51 0 93 -6t71.5 -25.5t45.5 -57.5
t16 -101v-163q0 -35 14 -54t52 -19v-133z" />
    <glyph glyph-name="asciitilde" unicode="~" 
d="M354 227q-24 0 -45 8t-39.5 18t-36.5 18t-36 8q-26 0 -52.5 -12t-64.5 -36v143q19 13 52.5 26.5t73.5 13.5q25 0 45.5 -8.5t39.5 -18t36.5 -18t36.5 -8.5q26 0 52 12t64 37v-143q-19 -14 -52 -27t-74 -13z" />
    <glyph glyph-name="uni00A0" unicode="&#xa0;" horiz-adv-x="175" 
 />
    <glyph glyph-name="exclamdown" unicode="&#xa1;" horiz-adv-x="289" 
d="M236 298l23 -478h-229l23 478h183zM248 540v-181h-208v181h208z" />
    <glyph glyph-name="cent" unicode="&#xa2;" 
d="M193 -135v131q-85 20 -124 85t-39 174t41 176.5t122 90.5v138h165v-134q70 -18 114.5 -66.5t55.5 -119.5h-196q-3 34 -17 49.5t-32 15.5q-14 0 -24 -6t-17.5 -23t-11 -46.5t-3.5 -75.5q0 -77 14 -108.5t41 -31.5q22 0 34 18t15 60h197q-17 -77 -58 -128.5t-112 -68.5
v-130h-165z" />
    <glyph glyph-name="sterling" unicode="&#xa3;" 
d="M286 403h143v-120h-144v-40q0 -61 -48 -92h280v-151h-465v146q27 8 32 24t5 46v67h-54v120h54v85q0 111 50.5 169t163.5 58q51 0 91 -15t68.5 -42t44 -63.5t16.5 -79.5h-173q-4 35 -12 46t-21 11q-16 0 -23.5 -15t-7.5 -64v-90z" />
    <glyph glyph-name="currency" unicode="&#xa4;" 
d="M78 218q-22 53 -22 117q0 65 23 117l-51 60l102 107l54 -62q47 28 95 28q49 0 96 -28l54 62l102 -107l-51 -60q23 -52 23 -117q0 -33 -6 -62t-17 -55l51 -59l-102 -107l-54 61q-23 -13 -46.5 -20t-49.5 -7q-25 0 -49 7t-47 20l-52 -61l-103 107zM364 335q0 54 -23.5 86
t-60.5 32t-61 -32t-24 -86t24 -86t61 -32t60.5 32t23.5 86z" />
    <glyph glyph-name="yen" unicode="&#xa5;" 
d="M187 0v104h-105v116h105v42h-105v116h60l-149 322h214l77 -263l88 263h195l-151 -322h61v-116h-105v-42h105v-116h-105v-104h-185z" />
    <glyph glyph-name="brokenbar" unicode="&#xa6;" horiz-adv-x="281" 
d="M220 784v-401h-159v401h159zM220 257v-397h-159v397h159z" />
    <glyph glyph-name="section" unicode="&#xa7;" 
d="M494 321q0 -46 -16.5 -80.5t-51.5 -54.5q31 -25 44 -55.5t13 -70.5q0 -66 -47.5 -108.5t-151.5 -42.5q-44 0 -81.5 12t-66 33.5t-45.5 52.5t-20 69h176q2 -22 9 -31t20 -9q24 0 24 29q0 16 -9.5 28t-48.5 26q-89 29 -132.5 76.5t-43.5 109.5q0 45 15.5 79t50.5 54
q-59 49 -59 122q0 71 45.5 113t150.5 42q41 0 77.5 -11.5t65 -33t47.5 -52.5t24 -69h-174q-2 22 -9 31t-21 9q-23 0 -23 -29q0 -8 2.5 -15t9 -13.5t19 -13t33.5 -13.5q85 -29 129.5 -75.5t44.5 -108.5zM308 306q0 19 -10 36.5t-33 29.5q-8 -8 -10.5 -21.5t-2.5 -30.5
q0 -20 9.5 -37.5t32.5 -30.5q8 8 11 22.5t3 31.5z" />
    <glyph glyph-name="dieresis" unicode="&#xa8;" horiz-adv-x="429" 
d="M26 585v144h167v-144h-167zM235 585v144h168v-144h-168z" />
    <glyph glyph-name="copyright" unicode="&#xa9;" horiz-adv-x="721" 
d="M116 363q0 -72 18 -127.5t49.5 -93t75 -56.5t93.5 -19t93 18.5t74.5 55.5t49.5 92t18 127t-18 127t-50 92t-75 56t-92 19q-50 0 -93.5 -18.5t-75 -55t-49.5 -91t-18 -126.5zM680 360q0 -94 -27 -164t-72.5 -117t-105 -70.5t-123.5 -23.5q-66 0 -126 24t-105 71.5
t-71.5 118t-26.5 164.5t27 163.5t72.5 116t105 69.5t124.5 23q64 0 123.5 -23.5t105 -70.5t72.5 -117t27 -164zM540 318q-6 -33 -20.5 -61.5t-37 -49.5t-53.5 -33t-72 -12q-99 0 -141.5 51t-42.5 149q0 97 46 152.5t140 55.5q76 0 123 -40.5t58 -105.5h-145q-2 23 -11 37
t-23 14q-24 0 -33.5 -25t-9.5 -89q0 -57 8.5 -80t29.5 -23q17 0 25.5 15.5t13.5 44.5h145z" />
    <glyph glyph-name="ordfeminine" unicode="&#xaa;" horiz-adv-x="469" 
d="M65 598q12 60 60.5 98.5t121.5 38.5q82 0 126 -43t44 -121v-268h-118l-14 35q-17 -22 -40.5 -34.5t-50.5 -12.5q-60 0 -99 32.5t-39 101.5q0 59 39 94.5t123 46.5l36 5v27q0 17 -3.5 23.5t-10.5 6.5q-17 0 -20 -30h-155zM412 0h-348v140h348v-140zM237 403q18 0 18 37v40
l-12 -3q-18 -4 -23.5 -14.5t-5.5 -29.5q0 -30 23 -30z" />
    <glyph glyph-name="guillemotleft" unicode="&#xab;" horiz-adv-x="529" 
d="M18 315l115 205h152l-87 -210l76 -220h-150zM242 315l115 205h152l-87 -210l76 -220h-150z" />
    <glyph glyph-name="logicalnot" unicode="&#xac;" 
d="M480 390v-292h-153v152h-247v140h400z" />
    <glyph glyph-name="uni00AD" unicode="&#xad;" horiz-adv-x="468" 
d="M403 250h-351v140h351v-140z" />
    <glyph glyph-name="registered" unicode="&#xae;" horiz-adv-x="539" 
d="M480 499q0 -62 -17.5 -107t-46.5 -73.5t-67 -42t-80 -13.5t-80 13.5t-67 42t-46 73.5t-17 107t17 107t46 73.5t67 42t80 13.5t80 -13.5t67 -42t46.5 -73.5t17.5 -107zM268 319q30 0 56.5 10t47 31.5t32 55.5t11.5 83t-12 83.5t-32.5 56t-47 31t-55.5 9.5t-56 -9.5
t-47 -31t-32 -56t-12 -83.5t12 -83t32 -55.5t46.5 -31.5t56.5 -10zM311 388l-47 82h-20v-82h-63v234h84q46 0 71 -18.5t25 -57.5q0 -27 -11.5 -42.5t-28.5 -23.5l58 -92h-68zM244 576v-61h25q10 0 19.5 7t9.5 24t-9.5 23.5t-21.5 6.5h-23z" />
    <glyph glyph-name="macron" unicode="&#xaf;" horiz-adv-x="307" 
d="M26 591v128h255v-128h-255z" />
    <glyph glyph-name="degree" unicode="&#xb0;" horiz-adv-x="603" 
d="M189 545q0 -30 5.5 -43.5t18.5 -13.5q11 0 17 13.5t6 43.5t-6 43t-17 13q-13 0 -18.5 -13t-5.5 -43zM376 545q0 -41 -12.5 -73t-34.5 -54t-52 -33.5t-64 -11.5q-35 0 -65 11.5t-52 33.5t-34.5 54t-12.5 73t12.5 73t34.5 54t52 33.5t65 11.5q34 0 64 -11.5t52 -33.5
t34.5 -54t12.5 -73z" />
    <glyph glyph-name="plusminus" unicode="&#xb1;" 
d="M356 551v-137h124v-140h-124v-95h-153v95h-123v140h123v137h153zM480 0h-400v140h400v-140z" />
    <glyph glyph-name="twosuperior" unicode="&#xb2;" horiz-adv-x="378" 
d="M27 599q10 67 54.5 106.5t115.5 39.5q78 0 116 -35.5t38 -89.5q0 -21 -4.5 -39.5t-16.5 -38t-31.5 -41.5t-49.5 -49l-55 -53h156v-105h-311v103l86 85q29 29 47 50t28 37t13.5 28.5t3.5 24.5q0 13 -6.5 18.5t-16.5 5.5q-13 0 -21 -10.5t-12 -36.5h-134z" />
    <glyph glyph-name="threesuperior" unicode="&#xb3;" horiz-adv-x="380" 
d="M199 745q74 0 110.5 -31.5t36.5 -82.5q0 -35 -19.5 -63.5t-61.5 -39.5q43 -11 65.5 -41t22.5 -68q0 -68 -43 -101.5t-117 -33.5q-76 0 -119 37.5t-47 102.5h134q0 -20 6 -32t23 -12q10 0 17.5 11t7.5 33q0 32 -14 43t-34 11h-29v89h31q40 0 40 48q0 20 -4 27.5t-14 7.5
q-20 0 -24 -35h-128q8 61 50 95.5t110 34.5z" />
    <glyph glyph-name="acute" unicode="&#xb4;" horiz-adv-x="333" 
d="M121 732h186l-144 -154h-137z" />
    <glyph glyph-name="mu" unicode="&#xb5;" horiz-adv-x="536" 
d="M226 520v-343q0 -35 10 -47.5t29 -12.5q20 0 32.5 21.5t12.5 74.5v307h192v-520h-163l-14 53q-17 -26 -43.5 -39.5t-55.5 -22.5v-171h-193v700h193z" />
    <glyph glyph-name="paragraph" unicode="&#xb6;" horiz-adv-x="641" 
d="M344 720v-900h-184v490q-66 8 -110 59t-44 145q0 97 49 151.5t133 54.5h156zM597 720v-900h-185v900h185z" />
    <glyph glyph-name="periodcentered" unicode="&#xb7;" horiz-adv-x="296" 
d="M46 220v175h203v-175h-203z" />
    <glyph glyph-name="cedilla" unicode="&#xb8;" horiz-adv-x="378" 
d="M347 -143q0 -54 -39 -89.5t-115 -35.5q-70 0 -111.5 33.5t-49.5 93.5h123q2 -18 10 -26t26 -8q32 0 32 34q0 20 -17.5 30.5t-65.5 10.5l10 122h105l2 -57q44 -9 67 -37.5t23 -70.5z" />
    <glyph glyph-name="onesuperior" unicode="&#xb9;" horiz-adv-x="267" 
d="M240 276h-136v309l-90 -42v120l110 54h116v-441z" />
    <glyph glyph-name="ordmasculine" unicode="&#xba;" horiz-adv-x="467" 
d="M40 515q0 66 17 108.5t44.5 67t62.5 34t70 9.5t69.5 -9t62 -33.5t44.5 -67t17 -109.5q0 -68 -17 -111.5t-44.5 -68.5t-62 -34.5t-69.5 -9.5q-36 0 -70.5 10t-62 35t-44.5 68.5t-17 110.5zM204 515q0 -63 5.5 -87.5t25.5 -24.5q18 0 24 24.5t6 87.5q0 62 -6 84.5t-25 22.5
q-18 0 -24 -22.5t-6 -84.5zM418 0h-363v140h363v-140z" />
    <glyph glyph-name="guillemotright" unicode="&#xbb;" horiz-adv-x="529" 
d="M405 90h-150l76 220l-87 210h152l114 -205zM181 90h-150l76 220l-87 210h152l115 -205z" />
    <glyph glyph-name="onequarter" unicode="&#xbc;" horiz-adv-x="879" 
d="M134 -90l424 880h138l-423 -880h-139zM276 276h-136v309l-90 -42v120l110 54h116v-441zM790 174h39v-94h-39v-79h-123v79h-179v102l136 260h166v-268zM605 174h62l12 157z" />
    <glyph glyph-name="onehalf" unicode="&#xbd;" horiz-adv-x="902" 
d="M134 -90l424 880h138l-423 -880h-139zM276 276h-136v309l-90 -42v120l110 54h116v-441zM528 306q10 67 54.5 106.5t115.5 39.5q78 0 116 -35.5t38 -89.5q0 -21 -4.5 -39.5t-16.5 -38t-31.5 -41.5t-49.5 -49l-55 -53h156v-105h-311v103l86 85q29 29 47 50t28 37t13.5 28.5
t3.5 24.5q0 13 -6.5 18.5t-16.5 5.5q-13 0 -21 -10.5t-12 -36.5h-134z" />
    <glyph glyph-name="threequarters" unicode="&#xbe;" horiz-adv-x="956" 
d="M211 -90l424 880h138l-423 -880h-139zM222 745q74 0 110.5 -31.5t36.5 -82.5q0 -35 -19.5 -63.5t-61.5 -39.5q43 -11 65.5 -41t22.5 -68q0 -68 -43 -101.5t-117 -33.5q-76 0 -119 37.5t-47 102.5h134q0 -20 6 -32t23 -12q10 0 17.5 11t7.5 33q0 32 -14 43t-34 11h-29v89
h31q40 0 40 48q0 20 -4 27.5t-14 7.5q-20 0 -24 -35h-128q8 61 50 95.5t110 34.5zM867 174h39v-94h-39v-79h-123v79h-179v102l136 260h166v-268zM682 174h62l12 157z" />
    <glyph glyph-name="questiondown" unicode="&#xbf;" horiz-adv-x="480" 
d="M451 5q-3 -41 -20.5 -77.5t-46.5 -63.5t-69 -43t-88 -16q-100 0 -153.5 48t-53.5 128q0 27 5.5 49.5t16 45t26.5 48.5t38 60q9 15 15 27.5t9.5 25.5t4.5 28.5t1 36.5h182q0 -43 -2.5 -72t-8.5 -50.5t-15 -39t-22 -38.5q-31 -47 -44.5 -72.5t-13.5 -50.5q0 -32 19 -32
q12 0 18.5 11.5t9.5 46.5h192zM330 540v-181h-207v181h207z" />
    <glyph glyph-name="Agrave" unicode="&#xc0;" horiz-adv-x="648" 
d="M432 0l-33 157h-161l-34 -157h-208l220 720h214l221 -720h-219zM274 295h89l-44 244zM450 774h-137l-144 154h187z" />
    <glyph glyph-name="Aacute" unicode="&#xc1;" horiz-adv-x="648" 
d="M432 0l-33 157h-161l-34 -157h-208l220 720h214l221 -720h-219zM274 295h89l-44 244zM290 928h186l-144 -154h-137z" />
    <glyph glyph-name="Acircumflex" unicode="&#xc2;" horiz-adv-x="648" 
d="M432 0l-33 157h-161l-34 -157h-208l220 720h214l221 -720h-219zM274 295h89l-44 244zM297 780h-165l114 154h144l114 -154h-165l-21 67z" />
    <glyph glyph-name="Atilde" unicode="&#xc3;" horiz-adv-x="648" 
d="M432 0l-33 157h-161l-34 -157h-208l220 720h214l221 -720h-219zM274 295h89l-44 244zM381 777q-19 0 -35 5.5t-30.5 12.5t-28.5 12.5t-28 5.5q-15 0 -33 -8t-47 -25v125q23 15 42 22t42 7q18 0 34 -6t31 -12.5t29 -12.5t28 -6q15 0 31.5 8t45.5 25v-125
q-23 -15 -41 -21.5t-40 -6.5z" />
    <glyph glyph-name="Adieresis" unicode="&#xc4;" horiz-adv-x="648" 
d="M432 0l-33 157h-161l-34 -157h-208l220 720h214l221 -720h-219zM274 295h89l-44 244zM131 781v144h167v-144h-167zM340 781v144h168v-144h-168z" />
    <glyph glyph-name="Aring" unicode="&#xc5;" horiz-adv-x="648" 
d="M467 791q0 -55 -31 -92l215 -699h-219l-33 157h-161l-34 -157h-208l213 698q-17 18 -25 41.5t-8 51.5q0 27 8.5 51.5t26 42.5t45 29t65.5 11t65.5 -11t45.5 -29t26.5 -42.5t8.5 -51.5zM274 295h89l-44 244zM295 791q0 -42 26 -42q14 0 20 9.5t6 32.5q0 42 -26 42t-26 -42
z" />
    <glyph glyph-name="AE" unicode="&#xc6;" horiz-adv-x="880" 
d="M853 0h-435v157h-154l-52 -157h-215q71 181 141.5 360t142.5 360h572v-148h-226v-140h201v-139h-201v-147h226v-146zM418 295v299l-97 -299h97z" />
    <glyph glyph-name="Ccedilla" unicode="&#xc7;" horiz-adv-x="669" 
d="M479 -143q0 -54 -39 -89.5t-115 -35.5q-70 0 -111.5 33.5t-49.5 93.5h123q2 -18 10 -26t26 -8q32 0 32 34q0 20 -17.5 30.5t-65.5 10.5l7 90q-73 12 -121 45.5t-77 83.5t-41 113t-12 133q0 181 81.5 275.5t233.5 94.5q121 0 198.5 -67.5t99.5 -196.5h-208
q-11 66 -33.5 93.5t-56.5 27.5q-23 0 -41.5 -12t-31.5 -39t-19.5 -71t-6.5 -108q0 -66 7 -111t20.5 -72t32 -39t41.5 -12q41 0 63 34.5t27 113.5h210q-33 -265 -257 -288l1 -23q44 -9 67 -37.5t23 -70.5z" />
    <glyph glyph-name="Egrave" unicode="&#xc8;" horiz-adv-x="541" 
d="M490 294h-237v-148h262v-146h-471v720h471v-148h-262v-140h237v-138zM385 774h-137l-144 154h187z" />
    <glyph glyph-name="Eacute" unicode="&#xc9;" horiz-adv-x="541" 
d="M490 294h-237v-148h262v-146h-471v720h471v-148h-262v-140h237v-138zM282 928h186l-144 -154h-137z" />
    <glyph glyph-name="Ecircumflex" unicode="&#xca;" horiz-adv-x="541" 
d="M490 294h-237v-148h262v-146h-471v720h471v-148h-262v-140h237v-138zM261 780h-165l114 154h144l114 -154h-165l-21 67z" />
    <glyph glyph-name="Edieresis" unicode="&#xcb;" horiz-adv-x="541" 
d="M490 294h-237v-148h262v-146h-471v720h471v-148h-262v-140h237v-138zM91 781v144h167v-144h-167zM300 781v144h168v-144h-168z" />
    <glyph glyph-name="Igrave" unicode="&#xcc;" horiz-adv-x="297" 
d="M253 720v-720h-209v720h209zM289 774h-137l-144 154h187z" />
    <glyph glyph-name="Iacute" unicode="&#xcd;" horiz-adv-x="297" 
d="M253 720v-720h-209v720h209zM120 928h186l-144 -154h-137z" />
    <glyph glyph-name="Icircumflex" unicode="&#xce;" horiz-adv-x="297" 
d="M253 720v-720h-209v720h209zM129 780h-165l114 154h144l114 -154h-165l-21 67z" />
    <glyph glyph-name="Idieresis" unicode="&#xcf;" horiz-adv-x="297" 
d="M253 720v-720h-209v720h209zM-37 781v144h167v-144h-167zM172 781v144h168v-144h-168z" />
    <glyph glyph-name="Eth" unicode="&#xd0;" horiz-adv-x="671" 
d="M307 720q166 0 251.5 -88t85.5 -272q0 -183 -83 -271.5t-250 -88.5h-263v308h-47v142h47v270h259zM257 578v-128h62v-142h-62v-165h52q27 0 49.5 12.5t39.5 39t26.5 67.5t9.5 98q0 58 -9.5 99.5t-27 67.5t-41 38.5t-50.5 12.5h-49z" />
    <glyph glyph-name="Ntilde" unicode="&#xd1;" horiz-adv-x="654" 
d="M610 720v-720h-198l-192 427v-427h-176v720h211l179 -407v407h176zM388 777q-19 0 -35 5.5t-30.5 12.5t-28.5 12.5t-28 5.5q-15 0 -33 -8t-47 -25v125q23 15 42 22t42 7q18 0 34 -6t31 -12.5t29 -12.5t28 -6q15 0 31.5 8t45.5 25v-125q-23 -15 -41 -21.5t-40 -6.5z" />
    <glyph glyph-name="Ograve" unicode="&#xd2;" horiz-adv-x="703" 
d="M351 132q23 0 44 11.5t36.5 38.5t25 70.5t9.5 107.5q0 63 -9 107t-25 71t-36.5 39t-44.5 12q-23 0 -43.5 -11.5t-36.5 -38.5t-25 -71t-9 -109q0 -63 9.5 -106.5t25.5 -70.5t36.5 -38.5t42.5 -11.5zM351 -15q-71 0 -130.5 23.5t-102.5 70t-67 117t-24 163.5q0 92 23.5 162
t66 117.5t102.5 72t132 24.5q70 0 129.5 -22.5t103 -69t68 -117t24.5 -166.5q0 -92 -24.5 -162t-67.5 -117.5t-103 -71.5t-130 -24zM455 774h-137l-144 154h187z" />
    <glyph glyph-name="Oacute" unicode="&#xd3;" horiz-adv-x="703" 
d="M351 132q23 0 44 11.5t36.5 38.5t25 70.5t9.5 107.5q0 63 -9 107t-25 71t-36.5 39t-44.5 12q-23 0 -43.5 -11.5t-36.5 -38.5t-25 -71t-9 -109q0 -63 9.5 -106.5t25.5 -70.5t36.5 -38.5t42.5 -11.5zM351 -15q-71 0 -130.5 23.5t-102.5 70t-67 117t-24 163.5q0 92 23.5 162
t66 117.5t102.5 72t132 24.5q70 0 129.5 -22.5t103 -69t68 -117t24.5 -166.5q0 -92 -24.5 -162t-67.5 -117.5t-103 -71.5t-130 -24zM349 928h186l-144 -154h-137z" />
    <glyph glyph-name="Ocircumflex" unicode="&#xd4;" horiz-adv-x="703" 
d="M351 132q23 0 44 11.5t36.5 38.5t25 70.5t9.5 107.5q0 63 -9 107t-25 71t-36.5 39t-44.5 12q-23 0 -43.5 -11.5t-36.5 -38.5t-25 -71t-9 -109q0 -63 9.5 -106.5t25.5 -70.5t36.5 -38.5t42.5 -11.5zM351 -15q-71 0 -130.5 23.5t-102.5 70t-67 117t-24 163.5q0 92 23.5 162
t66 117.5t102.5 72t132 24.5q70 0 129.5 -22.5t103 -69t68 -117t24.5 -166.5q0 -92 -24.5 -162t-67.5 -117.5t-103 -71.5t-130 -24zM331 780h-165l114 154h144l114 -154h-165l-21 67z" />
    <glyph glyph-name="Otilde" unicode="&#xd5;" horiz-adv-x="703" 
d="M351 132q23 0 44 11.5t36.5 38.5t25 70.5t9.5 107.5q0 63 -9 107t-25 71t-36.5 39t-44.5 12q-23 0 -43.5 -11.5t-36.5 -38.5t-25 -71t-9 -109q0 -63 9.5 -106.5t25.5 -70.5t36.5 -38.5t42.5 -11.5zM351 -15q-71 0 -130.5 23.5t-102.5 70t-67 117t-24 163.5q0 92 23.5 162
t66 117.5t102.5 72t132 24.5q70 0 129.5 -22.5t103 -69t68 -117t24.5 -166.5q0 -92 -24.5 -162t-67.5 -117.5t-103 -71.5t-130 -24zM412 777q-19 0 -35 5.5t-30.5 12.5t-28.5 12.5t-28 5.5q-15 0 -33 -8t-47 -25v125q23 15 42 22t42 7q18 0 34 -6t31 -12.5t29 -12.5t28 -6
q15 0 31.5 8t45.5 25v-125q-23 -15 -41 -21.5t-40 -6.5z" />
    <glyph glyph-name="Odieresis" unicode="&#xd6;" horiz-adv-x="703" 
d="M351 132q23 0 44 11.5t36.5 38.5t25 70.5t9.5 107.5q0 63 -9 107t-25 71t-36.5 39t-44.5 12q-23 0 -43.5 -11.5t-36.5 -38.5t-25 -71t-9 -109q0 -63 9.5 -106.5t25.5 -70.5t36.5 -38.5t42.5 -11.5zM351 -15q-71 0 -130.5 23.5t-102.5 70t-67 117t-24 163.5q0 92 23.5 162
t66 117.5t102.5 72t132 24.5q70 0 129.5 -22.5t103 -69t68 -117t24.5 -166.5q0 -92 -24.5 -162t-67.5 -117.5t-103 -71.5t-130 -24zM165 781v144h167v-144h-167zM374 781v144h168v-144h-168z" />
    <glyph glyph-name="multiply" unicode="&#xd7;" 
d="M83 223l94 94l-97 97l104 104l98 -97l95 94l99 -99l-95 -95l98 -98l-103 -104l-99 98l-95 -94z" />
    <glyph glyph-name="Oslash" unicode="&#xd8;" horiz-adv-x="703" 
d="M351 -15q-41 0 -81 8l-44 -103h-146l71 158q-59 45 -91.5 122.5t-32.5 188.5q0 92 23.5 162t66 117.5t102.5 72t132 24.5q43 0 84 -9l41 94h146l-68 -151q57 -45 89.5 -121t32.5 -188q0 -92 -24.5 -162t-67.5 -117.5t-103 -71.5t-130 -24zM351 132q23 0 44 11.5
t36.5 38.5t25 70.5t9.5 107.5q0 42 -5.5 72t-14.5 53l-124 -348q15 -5 29 -5zM237 359q0 -38 5 -67t14 -49l124 341q-8 2 -14.5 3.5t-14.5 1.5q-23 0 -43.5 -11.5t-36.5 -38.5t-25 -71t-9 -109z" />
    <glyph glyph-name="Ugrave" unicode="&#xd9;" horiz-adv-x="653" 
d="M249 720v-484q0 -56 19 -81t59 -25q42 0 62 25.5t20 80.5v484h203v-472q0 -61 -17.5 -109.5t-53 -82.5t-89.5 -52.5t-126 -18.5t-126 18.5t-89.5 52.5t-53 83t-17.5 109v472h209zM395 774h-137l-144 154h187z" />
    <glyph glyph-name="Uacute" unicode="&#xda;" horiz-adv-x="653" 
d="M249 720v-484q0 -56 19 -81t59 -25q42 0 62 25.5t20 80.5v484h203v-472q0 -61 -17.5 -109.5t-53 -82.5t-89.5 -52.5t-126 -18.5t-126 18.5t-89.5 52.5t-53 83t-17.5 109v472h209zM356 928h186l-144 -154h-137z" />
    <glyph glyph-name="Ucircumflex" unicode="&#xdb;" horiz-adv-x="653" 
d="M249 720v-484q0 -56 19 -81t59 -25q42 0 62 25.5t20 80.5v484h203v-472q0 -61 -17.5 -109.5t-53 -82.5t-89.5 -52.5t-126 -18.5t-126 18.5t-89.5 52.5t-53 83t-17.5 109v472h209zM303 780h-165l114 154h144l114 -154h-165l-21 67z" />
    <glyph glyph-name="Udieresis" unicode="&#xdc;" horiz-adv-x="653" 
d="M249 720v-484q0 -56 19 -81t59 -25q42 0 62 25.5t20 80.5v484h203v-472q0 -61 -17.5 -109.5t-53 -82.5t-89.5 -52.5t-126 -18.5t-126 18.5t-89.5 52.5t-53 83t-17.5 109v472h209zM137 781v144h167v-144h-167zM346 781v144h168v-144h-168z" />
    <glyph glyph-name="Yacute" unicode="&#xdd;" horiz-adv-x="652" 
d="M226 0v288l-226 432h217l113 -270l123 270h199l-227 -432v-288h-199zM348 928h186l-144 -154h-137z" />
    <glyph glyph-name="Thorn" unicode="&#xde;" horiz-adv-x="600" 
d="M252 720v-108q166 0 244 -57t78 -189q0 -121 -70 -183t-219 -62h-33v-121h-208v720h208zM252 471v-209h19q39 0 67 23t28 81q0 52 -24 78.5t-63 26.5h-27z" />
    <glyph glyph-name="germandbls" unicode="&#xdf;" horiz-adv-x="597" 
d="M406 -15q-92 0 -136 40t-52 110h157q2 -20 8 -27.5t16 -7.5q11 0 17 10.5t6 39.5q0 23 -14 46t-56 50q-42 29 -59 58.5t-17 74.5q0 29 6.5 48.5t14 37t14 35t6.5 42.5q0 28 -13 43t-33 15q-13 0 -21.5 -4.5t-14 -16.5t-8 -33t-2.5 -54v-144l-43 -348h-148v512
q0 49 14 90.5t42.5 70.5t72.5 45.5t104 16.5q112 0 168.5 -45t56.5 -124q0 -34 -9 -56t-19.5 -38t-19 -29.5t-8.5 -31.5q0 -22 10 -38t32 -30q60 -39 85.5 -82t25.5 -97q0 -82 -45.5 -130.5t-137.5 -48.5z" />
    <glyph glyph-name="agrave" unicode="&#xe0;" horiz-adv-x="514" 
d="M27 365q23 85 80.5 127.5t154.5 42.5q106 0 164 -51.5t58 -148.5v-335h-147q-5 14 -11.5 27.5t-11.5 27.5q-26 -34 -60 -52t-81 -18q-74 0 -116 41t-42 113q0 31 9 58.5t31.5 50t60.5 39t95 27.5l81 15v22q0 35 -10 45.5t-24 10.5q-16 0 -26 -9.5t-15 -32.5h-190z
M236 111q31 0 43.5 27.5t12.5 73.5v17q-53 -13 -73 -27.5t-20 -44.5q0 -46 37 -46zM370 581h-137l-144 154h187z" />
    <glyph glyph-name="aacute" unicode="&#xe1;" horiz-adv-x="514" 
d="M27 365q23 85 80.5 127.5t154.5 42.5q106 0 164 -51.5t58 -148.5v-335h-147q-5 14 -11.5 27.5t-11.5 27.5q-26 -34 -60 -52t-81 -18q-74 0 -116 41t-42 113q0 31 9 58.5t31.5 50t60.5 39t95 27.5l81 15v22q0 35 -10 45.5t-24 10.5q-16 0 -26 -9.5t-15 -32.5h-190z
M236 111q31 0 43.5 27.5t12.5 73.5v17q-53 -13 -73 -27.5t-20 -44.5q0 -46 37 -46zM279 735h186l-144 -154h-137z" />
    <glyph glyph-name="acircumflex" unicode="&#xe2;" horiz-adv-x="514" 
d="M27 365q23 85 80.5 127.5t154.5 42.5q106 0 164 -51.5t58 -148.5v-335h-147q-5 14 -11.5 27.5t-11.5 27.5q-26 -34 -60 -52t-81 -18q-74 0 -116 41t-42 113q0 31 9 58.5t31.5 50t60.5 39t95 27.5l81 15v22q0 35 -10 45.5t-24 10.5q-16 0 -26 -9.5t-15 -32.5h-190z
M236 111q31 0 43.5 27.5t12.5 73.5v17q-53 -13 -73 -27.5t-20 -44.5q0 -46 37 -46zM238 583h-165l114 154h144l114 -154h-165l-21 67z" />
    <glyph glyph-name="atilde" unicode="&#xe3;" horiz-adv-x="514" 
d="M27 365q23 85 80.5 127.5t154.5 42.5q106 0 164 -51.5t58 -148.5v-335h-147q-5 14 -11.5 27.5t-11.5 27.5q-26 -34 -60 -52t-81 -18q-74 0 -116 41t-42 113q0 31 9 58.5t31.5 50t60.5 39t95 27.5l81 15v22q0 35 -10 45.5t-24 10.5q-16 0 -26 -9.5t-15 -32.5h-190z
M236 111q31 0 43.5 27.5t12.5 73.5v17q-53 -13 -73 -27.5t-20 -44.5q0 -46 37 -46zM318 581q-19 0 -35 5.5t-30.5 12.5t-28.5 12.5t-28 5.5q-15 0 -33 -8t-47 -25v125q23 15 42 22t42 7q18 0 34 -6t31 -12.5t29 -12.5t28 -6q15 0 31.5 8t45.5 25v-125q-23 -15 -41 -21.5
t-40 -6.5z" />
    <glyph glyph-name="adieresis" unicode="&#xe4;" horiz-adv-x="514" 
d="M27 365q23 85 80.5 127.5t154.5 42.5q106 0 164 -51.5t58 -148.5v-335h-147q-5 14 -11.5 27.5t-11.5 27.5q-26 -34 -60 -52t-81 -18q-74 0 -116 41t-42 113q0 31 9 58.5t31.5 50t60.5 39t95 27.5l81 15v22q0 35 -10 45.5t-24 10.5q-16 0 -26 -9.5t-15 -32.5h-190z
M236 111q31 0 43.5 27.5t12.5 73.5v17q-53 -13 -73 -27.5t-20 -44.5q0 -46 37 -46zM64 577v144h167v-144h-167zM273 577v144h168v-144h-168z" />
    <glyph glyph-name="aring" unicode="&#xe5;" horiz-adv-x="514" 
d="M27 365q23 85 80.5 127.5t154.5 42.5q106 0 164 -51.5t58 -148.5v-335h-147q-5 14 -11.5 27.5t-11.5 27.5q-26 -34 -60 -52t-81 -18q-74 0 -116 41t-42 113q0 31 9 58.5t31.5 50t60.5 39t95 27.5l81 15v22q0 35 -10 45.5t-24 10.5q-16 0 -26 -9.5t-15 -32.5h-190z
M236 111q31 0 43.5 27.5t12.5 73.5v17q-53 -13 -73 -27.5t-20 -44.5q0 -46 37 -46zM228 705q0 -42 27 -42q25 0 25 42q0 23 -6 32.5t-20 9.5q-26 0 -26 -42zM400 705q0 -27 -8 -51.5t-25.5 -43t-45 -29t-66.5 -10.5q-38 0 -65.5 10.5t-45.5 29t-26.5 43t-8.5 51.5t8.5 51.5
t26 43t45 29.5t65.5 11t65.5 -11t45.5 -29.5t26.5 -43t8.5 -51.5z" />
    <glyph glyph-name="ae" unicode="&#xe6;" horiz-adv-x="813" 
d="M787 165q-8 -38 -26 -71t-48.5 -57t-73.5 -38t-99 -14q-64 0 -109.5 26t-77.5 74q-29 -47 -72.5 -73.5t-104.5 -26.5q-78 0 -119.5 40.5t-41.5 115.5q0 31 8.5 58t30.5 48.5t60 38.5t98 29l80 16v20q0 32 -9 45t-26 13q-20 0 -28 -11t-12 -34h-190q23 84 79.5 127.5
t154.5 43.5q42 0 76.5 -14t61.5 -37q25 23 58.5 37t78.5 14q117 0 185.5 -79.5t68.5 -237.5h-309q5 -60 19.5 -81t45.5 -21q41 0 47 49h194zM535 413q-26 0 -38.5 -19.5t-16.5 -74.5h112q-2 54 -16 74t-41 20zM292 232q-26 -8 -43.5 -15t-28 -16t-14.5 -19.5t-4 -23.5
q0 -47 34 -47q28 0 42 25t14 67v29z" />
    <glyph glyph-name="ccedilla" unicode="&#xe7;" horiz-adv-x="539" 
d="M520 192q-19 -85 -66.5 -138t-131.5 -65l2 -24q44 -9 67 -37.5t23 -70.5q0 -54 -39 -89.5t-116 -35.5q-69 0 -111 33.5t-49 93.5h123q1 -34 35 -34q33 0 33 34q0 20 -17.5 30.5t-65.5 10.5l6 89q-100 14 -145.5 81.5t-45.5 185.5q0 136 64 207.5t188 71.5q51 0 93 -14
t73.5 -39.5t52 -61.5t27.5 -80h-196q-4 34 -17.5 50t-31.5 16q-14 0 -24 -6.5t-17.5 -23t-11 -46t-3.5 -75.5q0 -77 14 -108.5t40 -31.5q23 0 35 17.5t15 59.5h197z" />
    <glyph glyph-name="egrave" unicode="&#xe8;" horiz-adv-x="551" 
d="M525 164q-7 -38 -26.5 -70.5t-50 -56.5t-72.5 -38t-95 -14q-125 0 -192 72.5t-67 206.5q0 131 64.5 201t187.5 70q58 0 105 -19.5t80.5 -58.5t51.5 -98.5t18 -140.5h-312q2 -30 7.5 -50t14 -31.5t19.5 -16t25 -4.5q41 0 49 48h193zM273 414q-25 0 -39 -19.5t-17 -75.5
h114q-2 56 -17.5 75.5t-40.5 19.5zM375 581h-137l-144 154h187z" />
    <glyph glyph-name="eacute" unicode="&#xe9;" horiz-adv-x="551" 
d="M525 164q-7 -38 -26.5 -70.5t-50 -56.5t-72.5 -38t-95 -14q-125 0 -192 72.5t-67 206.5q0 131 64.5 201t187.5 70q58 0 105 -19.5t80.5 -58.5t51.5 -98.5t18 -140.5h-312q2 -30 7.5 -50t14 -31.5t19.5 -16t25 -4.5q41 0 49 48h193zM273 414q-25 0 -39 -19.5t-17 -75.5
h114q-2 56 -17.5 75.5t-40.5 19.5zM269 735h186l-144 -154h-137z" />
    <glyph glyph-name="ecircumflex" unicode="&#xea;" horiz-adv-x="551" 
d="M525 164q-7 -38 -26.5 -70.5t-50 -56.5t-72.5 -38t-95 -14q-125 0 -192 72.5t-67 206.5q0 131 64.5 201t187.5 70q58 0 105 -19.5t80.5 -58.5t51.5 -98.5t18 -140.5h-312q2 -30 7.5 -50t14 -31.5t19.5 -16t25 -4.5q41 0 49 48h193zM273 414q-25 0 -39 -19.5t-17 -75.5
h114q-2 56 -17.5 75.5t-40.5 19.5zM246 583h-165l114 154h144l114 -154h-165l-21 67z" />
    <glyph glyph-name="edieresis" unicode="&#xeb;" horiz-adv-x="551" 
d="M525 164q-7 -38 -26.5 -70.5t-50 -56.5t-72.5 -38t-95 -14q-125 0 -192 72.5t-67 206.5q0 131 64.5 201t187.5 70q58 0 105 -19.5t80.5 -58.5t51.5 -98.5t18 -140.5h-312q2 -30 7.5 -50t14 -31.5t19.5 -16t25 -4.5q41 0 49 48h193zM273 414q-25 0 -39 -19.5t-17 -75.5
h114q-2 56 -17.5 75.5t-40.5 19.5zM78 577v144h167v-144h-167zM287 577v144h168v-144h-168z" />
    <glyph glyph-name="igrave" unicode="&#xec;" horiz-adv-x="262" 
d="M261 581h-137l-144 154h187zM34 0v520h194v-520h-194z" />
    <glyph glyph-name="iacute" unicode="&#xed;" horiz-adv-x="262" 
d="M97 735h186l-144 -154h-137zM34 0v520h194v-520h-194z" />
    <glyph glyph-name="icircumflex" unicode="&#xee;" horiz-adv-x="262" 
d="M34 0v520h194v-520h-194zM111 583h-165l114 154h144l114 -154h-165l-21 67z" />
    <glyph glyph-name="idieresis" unicode="&#xef;" horiz-adv-x="262" 
d="M-27 576v144h137v-144h-137zM152 576v144h138v-144h-138zM34 0v520h194v-520h-194z" />
    <glyph glyph-name="eth" unicode="&#xf0;" horiz-adv-x="512" 
d="M75 753q102 -7 188 -49l15 17h143l-70 -73q69 -58 106.5 -141t37.5 -184q0 -161 -56 -249.5t-177 -88.5q-118 0 -181 63t-63 186q0 57 13.5 103t38.5 79t59.5 51t76.5 18q17 0 34.5 -7t27.5 -17q-5 20 -12 37.5t-18 31.5l-11 -12h-143l76 79q-35 17 -86 28zM258 354
q-11 0 -18 -5t-11.5 -18.5t-6.5 -37t-2 -59.5t2 -58.5t7 -36t12.5 -18.5t18.5 -5q9 0 16 5t11.5 19.5t6.5 42t2 72.5q0 58 -9.5 78.5t-28.5 20.5z" />
    <glyph glyph-name="ntilde" unicode="&#xf1;" horiz-adv-x="539" 
d="M34 520h164l14 -56q26 38 59 54.5t78 16.5q75 0 117.5 -48t42.5 -154v-333h-193v333q0 42 -9.5 55.5t-28.5 13.5q-23 0 -37.5 -20t-14.5 -71v-311h-192v520zM330 581q-19 0 -35 5.5t-30.5 12.5t-28.5 12.5t-28 5.5q-15 0 -33 -8t-47 -25v125q23 15 42 22t42 7q18 0 34 -6
t31 -12.5t29 -12.5t28 -6q15 0 31.5 8t45.5 25v-125q-23 -15 -41 -21.5t-40 -6.5z" />
    <glyph glyph-name="ograve" unicode="&#xf2;" horiz-adv-x="556" 
d="M22 262q0 135 64.5 204t191.5 69q124 0 190 -68.5t66 -204.5q0 -134 -65.5 -205.5t-190.5 -71.5t-190.5 70.5t-65.5 206.5zM219 262q0 -45 3.5 -74t10.5 -45.5t18.5 -23t27.5 -6.5t27.5 5.5t18.5 22t10 45.5t3 76q0 46 -3.5 74t-11 44t-18.5 21.5t-27 5.5t-27.5 -6
t-18.5 -21.5t-10 -44t-3 -73.5zM380 581h-137l-144 154h187z" />
    <glyph glyph-name="oacute" unicode="&#xf3;" horiz-adv-x="556" 
d="M22 262q0 135 64.5 204t191.5 69q124 0 190 -68.5t66 -204.5q0 -134 -65.5 -205.5t-190.5 -71.5t-190.5 70.5t-65.5 206.5zM219 262q0 -45 3.5 -74t10.5 -45.5t18.5 -23t27.5 -6.5t27.5 5.5t18.5 22t10 45.5t3 76q0 46 -3.5 74t-11 44t-18.5 21.5t-27 5.5t-27.5 -6
t-18.5 -21.5t-10 -44t-3 -73.5zM276 735h186l-144 -154h-137z" />
    <glyph glyph-name="ocircumflex" unicode="&#xf4;" horiz-adv-x="556" 
d="M22 262q0 135 64.5 204t191.5 69q124 0 190 -68.5t66 -204.5q0 -134 -65.5 -205.5t-190.5 -71.5t-190.5 70.5t-65.5 206.5zM219 262q0 -45 3.5 -74t10.5 -45.5t18.5 -23t27.5 -6.5t27.5 5.5t18.5 22t10 45.5t3 76q0 46 -3.5 74t-11 44t-18.5 21.5t-27 5.5t-27.5 -6
t-18.5 -21.5t-10 -44t-3 -73.5zM258 583h-165l114 154h144l114 -154h-165l-21 67z" />
    <glyph glyph-name="otilde" unicode="&#xf5;" horiz-adv-x="556" 
d="M22 262q0 135 64.5 204t191.5 69q124 0 190 -68.5t66 -204.5q0 -134 -65.5 -205.5t-190.5 -71.5t-190.5 70.5t-65.5 206.5zM219 262q0 -45 3.5 -74t10.5 -45.5t18.5 -23t27.5 -6.5t27.5 5.5t18.5 22t10 45.5t3 76q0 46 -3.5 74t-11 44t-18.5 21.5t-27 5.5t-27.5 -6
t-18.5 -21.5t-10 -44t-3 -73.5zM339 581q-19 0 -35 5.5t-30.5 12.5t-28.5 12.5t-28 5.5q-15 0 -33 -8t-47 -25v125q23 15 42 22t42 7q18 0 34 -6t31 -12.5t29 -12.5t28 -6q15 0 31.5 8t45.5 25v-125q-23 -15 -41 -21.5t-40 -6.5z" />
    <glyph glyph-name="odieresis" unicode="&#xf6;" horiz-adv-x="556" 
d="M22 262q0 135 64.5 204t191.5 69q124 0 190 -68.5t66 -204.5q0 -134 -65.5 -205.5t-190.5 -71.5t-190.5 70.5t-65.5 206.5zM219 262q0 -45 3.5 -74t10.5 -45.5t18.5 -23t27.5 -6.5t27.5 5.5t18.5 22t10 45.5t3 76q0 46 -3.5 74t-11 44t-18.5 21.5t-27 5.5t-27.5 -6
t-18.5 -21.5t-10 -44t-3 -73.5zM90 577v144h167v-144h-167zM299 577v144h168v-144h-168z" />
    <glyph glyph-name="divide" unicode="&#xf7;" 
d="M196 60v152h167v-152h-167zM196 428v152h167v-152h-167zM480 250h-400v140h400v-140z" />
    <glyph glyph-name="oslash" unicode="&#xf8;" horiz-adv-x="556" 
d="M22 262q0 135 64 204t191 69q14 0 27.5 -1t27.5 -3l44 99h132l-63 -145q43 -33 65.5 -89t22.5 -134q0 -135 -65 -206t-190 -71q-14 0 -27 1.5t-26 3.5l-42 -100h-136q16 37 32 73t32 71q-89 68 -89 228zM219 262q0 -16 1 -30t1 -25l78 197q-9 3 -21 3q-16 0 -27 -6
t-18 -22t-10.5 -44t-3.5 -73zM338 258v27q0 17 -1 28l-78 -197q9 -3 19 -3q16 0 27.5 5.5t18.5 21t10.5 44t3.5 74.5z" />
    <glyph glyph-name="ugrave" unicode="&#xf9;" horiz-adv-x="532" 
d="M222 520v-339q0 -37 10 -50t29 -13q20 0 33 21t13 74v307h192v-520h-164l-14 53q-21 -32 -52 -50t-79 -18q-80 0 -120 47t-40 153v335h192zM332 581h-137l-144 154h187z" />
    <glyph glyph-name="uacute" unicode="&#xfa;" horiz-adv-x="532" 
d="M222 520v-339q0 -37 10 -50t29 -13q20 0 33 21t13 74v307h192v-520h-164l-14 53q-21 -32 -52 -50t-79 -18q-80 0 -120 47t-40 153v335h192zM293 735h186l-144 -154h-137z" />
    <glyph glyph-name="ucircumflex" unicode="&#xfb;" horiz-adv-x="532" 
d="M222 520v-339q0 -37 10 -50t29 -13q20 0 33 21t13 74v307h192v-520h-164l-14 53q-21 -32 -52 -50t-79 -18q-80 0 -120 47t-40 153v335h192zM240 583h-165l114 154h144l114 -154h-165l-21 67z" />
    <glyph glyph-name="udieresis" unicode="&#xfc;" horiz-adv-x="532" 
d="M222 520v-339q0 -37 10 -50t29 -13q20 0 33 21t13 74v307h192v-520h-164l-14 53q-21 -32 -52 -50t-79 -18q-80 0 -120 47t-40 153v335h192zM75 577v144h167v-144h-167zM284 577v144h168v-144h-168z" />
    <glyph glyph-name="yacute" unicode="&#xfd;" horiz-adv-x="538" 
d="M541 520l-165 -519q-18 -56 -36.5 -93.5t-41 -60t-49.5 -32.5t-61 -10q-42 0 -100 14v130q31 -8 46 -10t22 -2q17 0 26.5 13.5t15.5 49.5h-34l-168 520h203l71 -371l78 371h193zM292 735h186l-144 -154h-137z" />
    <glyph glyph-name="thorn" unicode="&#xfe;" horiz-adv-x="566" 
d="M34 -180v900h193v-245q24 29 56 44.5t71 15.5q42 0 76.5 -15.5t60 -47.5t39.5 -82t14 -119q0 -143 -53.5 -214.5t-142.5 -71.5q-34 0 -66 14t-55 40v-219h-193zM350 264q0 39 -4 64.5t-12.5 41t-20 21.5t-26.5 6q-31 0 -48 -28t-17 -103q0 -43 4 -70.5t12.5 -43.5
t20.5 -22.5t28 -6.5q29 0 46 30t17 111z" />
    <glyph glyph-name="ydieresis" unicode="&#xff;" horiz-adv-x="538" 
d="M541 520l-165 -519q-18 -56 -36.5 -93.5t-41 -60t-49.5 -32.5t-61 -10q-42 0 -100 14v130q31 -8 46 -10t22 -2q17 0 26.5 13.5t15.5 49.5h-34l-168 520h203l71 -371l78 371h193zM80 585v144h167v-144h-167zM289 585v144h168v-144h-168z" />
    <glyph glyph-name="Amacron" unicode="&#x100;" horiz-adv-x="648" 
d="M432 0l-33 157h-161l-34 -157h-208l220 720h214l221 -720h-219zM274 295h89l-44 244zM192 787v128h255v-128h-255z" />
    <glyph glyph-name="amacron" unicode="&#x101;" horiz-adv-x="514" 
d="M27 365q23 85 80.5 127.5t154.5 42.5q106 0 164 -51.5t58 -148.5v-335h-147q-5 14 -11.5 27.5t-11.5 27.5q-26 -34 -60 -52t-81 -18q-74 0 -116 41t-42 113q0 31 9 58.5t31.5 50t60.5 39t95 27.5l81 15v22q0 35 -10 45.5t-24 10.5q-16 0 -26 -9.5t-15 -32.5h-190z
M236 111q31 0 43.5 27.5t12.5 73.5v17q-53 -13 -73 -27.5t-20 -44.5q0 -46 37 -46zM139 591v128h255v-128h-255z" />
    <glyph glyph-name="Abreve" unicode="&#x102;" horiz-adv-x="648" 
d="M432 0l-33 157h-161l-34 -157h-208l220 720h214l221 -720h-219zM274 295h89l-44 244zM327 773q-69 0 -108 37t-47 115h134q0 -50 21 -50t21 50h134q-8 -81 -49 -116.5t-106 -35.5z" />
    <glyph glyph-name="abreve" unicode="&#x103;" horiz-adv-x="514" 
d="M27 365q23 85 80.5 127.5t154.5 42.5q106 0 164 -51.5t58 -148.5v-335h-147q-5 14 -11.5 27.5t-11.5 27.5q-26 -34 -60 -52t-81 -18q-74 0 -116 41t-42 113q0 31 9 58.5t31.5 50t60.5 39t95 27.5l81 15v22q0 35 -10 45.5t-24 10.5q-16 0 -26 -9.5t-15 -32.5h-190z
M236 111q31 0 43.5 27.5t12.5 73.5v17q-53 -13 -73 -27.5t-20 -44.5q0 -46 37 -46zM254 583q-69 0 -108 37t-47 115h134q0 -50 21 -50t21 50h134q-8 -81 -49 -116.5t-106 -35.5z" />
    <glyph glyph-name="Aogonek" unicode="&#x104;" horiz-adv-x="648" 
d="M484 -264q-73 0 -111 33.5t-38 93.5q0 42 24 81t71 63l-31 150h-161l-34 -157h-208l220 720h214l221 -720h-117q-35 -25 -56.5 -55.5t-21.5 -65.5q0 -26 9 -37.5t23 -11.5q22 0 27 26h129q-13 -56 -53.5 -88t-106.5 -32zM274 295h89l-44 244z" />
    <glyph glyph-name="aogonek" unicode="&#x105;" horiz-adv-x="514" 
d="M543 -144q-13 -55 -53 -87t-106 -32q-73 0 -111 33t-38 93q0 43 25 82.5t73 62.5l-19 47q-26 -34 -60 -52t-81 -18q-74 0 -116 41t-42 113q0 31 9 58.5t31.5 50t60.5 39t95 27.5l81 15v22q0 35 -10 45.5t-24 10.5q-16 0 -26 -9.5t-15 -32.5h-190q23 85 80.5 127.5
t154.5 42.5q106 0 164 -51.5t58 -148.5v-335h-50q-35 -24 -56.5 -54.5t-21.5 -65.5q0 -26 9 -37.5t23 -11.5q22 0 27 25h128zM236 111q31 0 43.5 27.5t12.5 73.5v17q-53 -13 -73 -27.5t-20 -44.5q0 -46 37 -46z" />
    <glyph glyph-name="Cacute" unicode="&#x106;" horiz-adv-x="669" 
d="M345 128q41 0 63 34.5t27 113.5h210q-18 -148 -94.5 -219.5t-208.5 -71.5q-152 0 -233 93.5t-81 286.5q0 181 81.5 275.5t233.5 94.5q121 0 198.5 -67.5t99.5 -196.5h-208q-11 66 -33.5 93.5t-56.5 27.5q-23 0 -41.5 -12t-31.5 -39t-19.5 -71t-6.5 -108q0 -66 7 -111
t20.5 -72t32 -39t41.5 -12zM339 928h186l-144 -154h-137z" />
    <glyph glyph-name="cacute" unicode="&#x107;" horiz-adv-x="539" 
d="M520 192q-21 -97 -81.5 -152t-166.5 -55q-130 0 -190 68.5t-60 202.5q0 136 64 207.5t188 71.5q51 0 93 -14t73.5 -39.5t52 -61.5t27.5 -80h-196q-4 34 -17.5 50t-31.5 16q-14 0 -24 -6.5t-17.5 -23t-11 -46t-3.5 -75.5q0 -77 14 -108.5t40 -31.5q23 0 35 17.5t15 59.5
h197zM272 735h186l-144 -154h-137z" />
    <glyph glyph-name="Ccircumflex" unicode="&#x108;" horiz-adv-x="669" 
d="M345 128q41 0 63 34.5t27 113.5h210q-18 -148 -94.5 -219.5t-208.5 -71.5q-152 0 -233 93.5t-81 286.5q0 181 81.5 275.5t233.5 94.5q121 0 198.5 -67.5t99.5 -196.5h-208q-11 66 -33.5 93.5t-56.5 27.5q-23 0 -41.5 -12t-31.5 -39t-19.5 -71t-6.5 -108q0 -66 7 -111
t20.5 -72t32 -39t41.5 -12zM320 780h-165l114 154h144l114 -154h-165l-21 67z" />
    <glyph glyph-name="ccircumflex" unicode="&#x109;" horiz-adv-x="539" 
d="M520 192q-21 -97 -81.5 -152t-166.5 -55q-130 0 -190 68.5t-60 202.5q0 136 64 207.5t188 71.5q51 0 93 -14t73.5 -39.5t52 -61.5t27.5 -80h-196q-4 34 -17.5 50t-31.5 16q-14 0 -24 -6.5t-17.5 -23t-11 -46t-3.5 -75.5q0 -77 14 -108.5t40 -31.5q23 0 35 17.5t15 59.5
h197zM239 583h-165l114 154h144l114 -154h-165l-21 67z" />
    <glyph glyph-name="Cdotaccent" unicode="&#x10a;" horiz-adv-x="669" 
d="M345 128q41 0 63 34.5t27 113.5h210q-18 -148 -94.5 -219.5t-208.5 -71.5q-152 0 -233 93.5t-81 286.5q0 181 81.5 275.5t233.5 94.5q121 0 198.5 -67.5t99.5 -196.5h-208q-11 66 -33.5 93.5t-56.5 27.5q-23 0 -41.5 -12t-31.5 -39t-19.5 -71t-6.5 -108q0 -66 7 -111
t20.5 -72t32 -39t41.5 -12zM241 780v146h204v-146h-204z" />
    <glyph glyph-name="cdotaccent" unicode="&#x10b;" horiz-adv-x="539" 
d="M520 192q-21 -97 -81.5 -152t-166.5 -55q-130 0 -190 68.5t-60 202.5q0 136 64 207.5t188 71.5q51 0 93 -14t73.5 -39.5t52 -61.5t27.5 -80h-196q-4 34 -17.5 50t-31.5 16q-14 0 -24 -6.5t-17.5 -23t-11 -46t-3.5 -75.5q0 -77 14 -108.5t40 -31.5q23 0 35 17.5t15 59.5
h197zM165 584v146h204v-146h-204z" />
    <glyph glyph-name="Ccaron" unicode="&#x10c;" horiz-adv-x="669" 
d="M345 128q41 0 63 34.5t27 113.5h210q-18 -148 -94.5 -219.5t-208.5 -71.5q-152 0 -233 93.5t-81 286.5q0 181 81.5 275.5t233.5 94.5q121 0 198.5 -67.5t99.5 -196.5h-208q-11 66 -33.5 93.5t-56.5 27.5q-23 0 -41.5 -12t-31.5 -39t-19.5 -71t-6.5 -108q0 -66 7 -111
t20.5 -72t32 -39t41.5 -12zM337 871l21 63h165l-114 -154h-144l-114 154h165z" />
    <glyph glyph-name="ccaron" unicode="&#x10d;" horiz-adv-x="539" 
d="M520 192q-21 -97 -81.5 -152t-166.5 -55q-130 0 -190 68.5t-60 202.5q0 136 64 207.5t188 71.5q51 0 93 -14t73.5 -39.5t52 -61.5t27.5 -80h-196q-4 34 -17.5 50t-31.5 16q-14 0 -24 -6.5t-17.5 -23t-11 -46t-3.5 -75.5q0 -77 14 -108.5t40 -31.5q23 0 35 17.5t15 59.5
h197zM269 674l21 63h165l-114 -154h-144l-114 154h165z" />
    <glyph glyph-name="Dcaron" unicode="&#x10e;" horiz-adv-x="667" 
d="M304 720q165 0 250.5 -88t85.5 -272q0 -183 -82.5 -271.5t-249.5 -88.5h-264v720h260zM253 578v-435h52q54 0 89.5 51.5t35.5 165.5q0 116 -36 167t-91 51h-50zM300 871l21 63h165l-114 -154h-144l-114 154h165z" />
    <glyph glyph-name="dcaron" unicode="&#x10f;" horiz-adv-x="756" 
d="M380 0l-29 63q-26 -36 -59.5 -57t-72.5 -21q-44 0 -80 17.5t-62 51.5t-40.5 84.5t-14.5 116.5q0 70 14.5 122.5t41 87.5t62.5 52.5t79 17.5q41 0 70 -15t51 -41v241h193v-720h-153zM215 257q0 -38 4.5 -64t13 -41.5t21 -22t28.5 -6.5q27 0 44 30t17 104q0 42 -4.5 69
t-12.5 43t-19.5 22t-25.5 6q-30 0 -48 -30.5t-18 -109.5zM761 621q0 -97 -45 -150.5t-145 -64.5v82q35 7 54.5 27.5t19.5 56.5h-49v148h165v-99z" />
    <glyph glyph-name="Dcroat" unicode="&#x110;" horiz-adv-x="671" 
d="M307 720q166 0 251.5 -88t85.5 -272q0 -183 -83 -271.5t-250 -88.5h-263v308h-47v142h47v270h259zM257 578v-128h62v-142h-62v-165h52q27 0 49.5 12.5t39.5 39t26.5 67.5t9.5 98q0 58 -9.5 99.5t-27 67.5t-41 38.5t-50.5 12.5h-49z" />
    <glyph glyph-name="dcroat" unicode="&#x111;" horiz-adv-x="577" 
d="M380 0l-29 63q-26 -36 -59.5 -57t-72.5 -21q-44 0 -80 17.5t-62 51.5t-40.5 84.5t-14.5 116.5q0 70 14.5 122.5t41 87.5t62.5 52.5t79 17.5q41 0 70 -15t51 -41v78h-66v130h66v33h193v-33h37v-130h-37v-557h-153zM215 257q0 -38 4.5 -64t13 -41.5t21 -22t28.5 -6.5
q27 0 44 30t17 104q0 42 -4.5 69t-12.5 43t-19.5 22t-25.5 6q-30 0 -48 -30.5t-18 -109.5z" />
    <glyph glyph-name="Emacron" unicode="&#x112;" horiz-adv-x="541" 
d="M490 294h-237v-148h262v-146h-471v720h471v-148h-262v-140h237v-138zM148 787v128h255v-128h-255z" />
    <glyph glyph-name="emacron" unicode="&#x113;" horiz-adv-x="551" 
d="M525 164q-7 -38 -26.5 -70.5t-50 -56.5t-72.5 -38t-95 -14q-125 0 -192 72.5t-67 206.5q0 131 64.5 201t187.5 70q58 0 105 -19.5t80.5 -58.5t51.5 -98.5t18 -140.5h-312q2 -30 7.5 -50t14 -31.5t19.5 -16t25 -4.5q41 0 49 48h193zM273 414q-25 0 -39 -19.5t-17 -75.5
h114q-2 56 -17.5 75.5t-40.5 19.5zM150 591v128h255v-128h-255z" />
    <glyph glyph-name="Ebreve" unicode="&#x114;" horiz-adv-x="541" 
d="M490 294h-237v-148h262v-146h-471v720h471v-148h-262v-140h237v-138zM290 773q-69 0 -108 37t-47 115h134q0 -50 21 -50t21 50h134q-8 -81 -49 -116.5t-106 -35.5z" />
    <glyph glyph-name="ebreve" unicode="&#x115;" horiz-adv-x="551" 
d="M525 164q-7 -38 -26.5 -70.5t-50 -56.5t-72.5 -38t-95 -14q-125 0 -192 72.5t-67 206.5q0 131 64.5 201t187.5 70q58 0 105 -19.5t80.5 -58.5t51.5 -98.5t18 -140.5h-312q2 -30 7.5 -50t14 -31.5t19.5 -16t25 -4.5q41 0 49 48h193zM273 414q-25 0 -39 -19.5t-17 -75.5
h114q-2 56 -17.5 75.5t-40.5 19.5zM275 577q-69 0 -108 37t-47 115h134q0 -50 21 -50t21 50h134q-8 -81 -49 -116.5t-106 -35.5z" />
    <glyph glyph-name="Edotaccent" unicode="&#x116;" horiz-adv-x="541" 
d="M490 294h-237v-148h262v-146h-471v720h471v-148h-262v-140h237v-138zM182 780v146h204v-146h-204z" />
    <glyph glyph-name="edotaccent" unicode="&#x117;" horiz-adv-x="551" 
d="M525 164q-7 -38 -26.5 -70.5t-50 -56.5t-72.5 -38t-95 -14q-125 0 -192 72.5t-67 206.5q0 131 64.5 201t187.5 70q58 0 105 -19.5t80.5 -58.5t51.5 -98.5t18 -140.5h-312q2 -30 7.5 -50t14 -31.5t19.5 -16t25 -4.5q41 0 49 48h193zM273 414q-25 0 -39 -19.5t-17 -75.5
h114q-2 56 -17.5 75.5t-40.5 19.5zM170 584v146h204v-146h-204z" />
    <glyph glyph-name="Eogonek" unicode="&#x118;" horiz-adv-x="541" 
d="M334 -264q-73 0 -111 33.5t-38 93.5q0 39 20.5 75.5t61.5 61.5h-223v720h471v-148h-262v-140h237v-138h-237v-148h262v-146h-131q-35 -25 -56.5 -55.5t-21.5 -65.5q0 -26 9 -37.5t23 -11.5q22 0 27 26h128q-13 -56 -53 -88t-106 -32z" />
    <glyph glyph-name="eogonek" unicode="&#x119;" horiz-adv-x="551" 
d="M341 -264q-73 0 -111.5 33.5t-38.5 93.5q0 34 16 66t47 57q-112 8 -172 79.5t-60 198.5q0 131 64.5 201t187.5 70q58 0 105 -19.5t80.5 -58.5t51.5 -98.5t18 -140.5h-312q2 -30 7.5 -50t14 -31.5t19.5 -16t25 -4.5q41 0 49 48h193q-9 -50 -38.5 -90t-78.5 -63
q-41 -25 -68.5 -59t-27.5 -73q0 -26 9 -37.5t24 -11.5q21 0 27 26h128q-13 -56 -53 -88t-106 -32zM273 414q-25 0 -39 -19.5t-17 -75.5h114q-2 56 -17.5 75.5t-40.5 19.5z" />
    <glyph glyph-name="Ecaron" unicode="&#x11a;" horiz-adv-x="541" 
d="M490 294h-237v-148h262v-146h-471v720h471v-148h-262v-140h237v-138zM289 871l21 63h165l-114 -154h-144l-114 154h165z" />
    <glyph glyph-name="ecaron" unicode="&#x11b;" horiz-adv-x="551" 
d="M525 164q-7 -38 -26.5 -70.5t-50 -56.5t-72.5 -38t-95 -14q-125 0 -192 72.5t-67 206.5q0 131 64.5 201t187.5 70q58 0 105 -19.5t80.5 -58.5t51.5 -98.5t18 -140.5h-312q2 -30 7.5 -50t14 -31.5t19.5 -16t25 -4.5q41 0 49 48h193zM273 414q-25 0 -39 -19.5t-17 -75.5
h114q-2 56 -17.5 75.5t-40.5 19.5zM275 674l21 63h165l-114 -154h-144l-114 154h165z" />
    <glyph glyph-name="Gcircumflex" unicode="&#x11c;" horiz-adv-x="678" 
d="M642 0h-140l-23 70q-29 -42 -69 -63.5t-102 -21.5q-60 0 -111.5 24.5t-89 72.5t-59 118t-21.5 162q0 184 85.5 278.5t239.5 94.5q116 0 191.5 -61t97.5 -176h-207q-7 51 -28.5 72.5t-55.5 21.5q-24 0 -43.5 -11t-33.5 -37t-22 -70.5t-8 -111.5q0 -65 8.5 -110t23 -73
t35 -40t44.5 -12q49 0 76 32.5t27 86.5v29h-118v135h303v-410zM307 780h-165l114 154h144l114 -154h-165l-21 67z" />
    <glyph glyph-name="gcircumflex" unicode="&#x11d;" horiz-adv-x="556" 
d="M223 -23q5 -23 16.5 -32.5t36.5 -9.5q27 0 40 18.5t13 68.5v52q-21 -24 -47.5 -37.5t-61.5 -13.5q-43 0 -79.5 15.5t-62.5 47t-41 79t-15 110.5q0 62 15 110.5t42 81.5t63.5 50.5t79.5 17.5q79 0 124 -62l28 47h148v-478q0 -112 -59.5 -174.5t-185.5 -62.5
q-120 0 -176.5 44.5t-69.5 127.5h192zM215 276q0 -65 17.5 -90t49.5 -25q28 0 44.5 25.5t16.5 89.5q0 72 -16.5 97t-46.5 25q-29 0 -47 -27t-18 -95zM257 583h-165l114 154h144l114 -154h-165l-21 67z" />
    <glyph glyph-name="Gbreve" unicode="&#x11e;" horiz-adv-x="678" 
d="M642 0h-140l-23 70q-29 -42 -69 -63.5t-102 -21.5q-60 0 -111.5 24.5t-89 72.5t-59 118t-21.5 162q0 184 85.5 278.5t239.5 94.5q116 0 191.5 -61t97.5 -176h-207q-7 51 -28.5 72.5t-55.5 21.5q-24 0 -43.5 -11t-33.5 -37t-22 -70.5t-8 -111.5q0 -65 8.5 -110t23 -73
t35 -40t44.5 -12q49 0 76 32.5t27 86.5v29h-118v135h303v-410zM337 773q-69 0 -108 37t-47 115h134q0 -50 21 -50t21 50h134q-8 -81 -49 -116.5t-106 -35.5z" />
    <glyph glyph-name="gbreve" unicode="&#x11f;" horiz-adv-x="556" 
d="M223 -23q5 -23 16.5 -32.5t36.5 -9.5q27 0 40 18.5t13 68.5v52q-21 -24 -47.5 -37.5t-61.5 -13.5q-43 0 -79.5 15.5t-62.5 47t-41 79t-15 110.5q0 62 15 110.5t42 81.5t63.5 50.5t79.5 17.5q79 0 124 -62l28 47h148v-478q0 -112 -59.5 -174.5t-185.5 -62.5
q-120 0 -176.5 44.5t-69.5 127.5h192zM215 276q0 -65 17.5 -90t49.5 -25q28 0 44.5 25.5t16.5 89.5q0 72 -16.5 97t-46.5 25q-29 0 -47 -27t-18 -95zM277 583q-69 0 -108 37t-47 115h134q0 -50 21 -50t21 50h134q-8 -81 -49 -116.5t-106 -35.5z" />
    <glyph glyph-name="Gdotaccent" unicode="&#x120;" horiz-adv-x="678" 
d="M642 0h-140l-23 70q-29 -42 -69 -63.5t-102 -21.5q-60 0 -111.5 24.5t-89 72.5t-59 118t-21.5 162q0 184 85.5 278.5t239.5 94.5q116 0 191.5 -61t97.5 -176h-207q-7 51 -28.5 72.5t-55.5 21.5q-24 0 -43.5 -11t-33.5 -37t-22 -70.5t-8 -111.5q0 -65 8.5 -110t23 -73
t35 -40t44.5 -12q49 0 76 32.5t27 86.5v29h-118v135h303v-410zM239 780v146h204v-146h-204z" />
    <glyph glyph-name="gdotaccent" unicode="&#x121;" horiz-adv-x="556" 
d="M223 -23q5 -23 16.5 -32.5t36.5 -9.5q27 0 40 18.5t13 68.5v52q-21 -24 -47.5 -37.5t-61.5 -13.5q-43 0 -79.5 15.5t-62.5 47t-41 79t-15 110.5q0 62 15 110.5t42 81.5t63.5 50.5t79.5 17.5q79 0 124 -62l28 47h148v-478q0 -112 -59.5 -174.5t-185.5 -62.5
q-120 0 -176.5 44.5t-69.5 127.5h192zM215 276q0 -65 17.5 -90t49.5 -25q28 0 44.5 25.5t16.5 89.5q0 72 -16.5 97t-46.5 25q-29 0 -47 -27t-18 -95zM185 584v146h204v-146h-204z" />
    <glyph glyph-name="Gcommaaccent" unicode="&#x122;" horiz-adv-x="678" 
d="M642 0h-140l-23 70q-29 -42 -69 -63.5t-102 -21.5q-60 0 -111.5 24.5t-89 72.5t-59 118t-21.5 162q0 184 85.5 278.5t239.5 94.5q116 0 191.5 -61t97.5 -176h-207q-7 51 -28.5 72.5t-55.5 21.5q-24 0 -43.5 -11t-33.5 -37t-22 -70.5t-8 -111.5q0 -65 8.5 -110t23 -73
t35 -40t44.5 -12q49 0 76 32.5t27 86.5v29h-118v135h303v-410zM395 -128q0 -90 -39.5 -141t-131.5 -60v82q67 12 67 70h-47v129h151v-80z" />
    <glyph glyph-name="gcommaaccent" unicode="&#x123;" horiz-adv-x="556" 
d="M223 -23q5 -23 16.5 -32.5t36.5 -9.5q27 0 40 18.5t13 68.5v52q-21 -24 -47.5 -37.5t-61.5 -13.5q-43 0 -79.5 15.5t-62.5 47t-41 79t-15 110.5q0 62 15 110.5t42 81.5t63.5 50.5t79.5 17.5q79 0 124 -62l28 47h148v-478q0 -112 -59.5 -174.5t-185.5 -62.5
q-120 0 -176.5 44.5t-69.5 127.5h192zM215 276q0 -65 17.5 -90t49.5 -25q28 0 44.5 25.5t16.5 89.5q0 72 -16.5 97t-46.5 25q-29 0 -47 -27t-18 -95zM207 655q0 90 39.5 141t131.5 60v-82q-67 -12 -67 -70h47v-129h-151v80z" />
    <glyph glyph-name="Hcircumflex" unicode="&#x124;" horiz-adv-x="660" 
d="M615 720v-720h-207v293h-155v-293h-209v720h209v-285h155v285h207zM306 780h-165l114 154h144l114 -154h-165l-21 67z" />
    <glyph glyph-name="hcircumflex" unicode="&#x125;" horiz-adv-x="539" 
d="M34 720h192v-242q24 29 53 43t70 14q75 0 117.5 -48t42.5 -154v-333h-193v333q0 42 -9.5 55.5t-28.5 13.5q-23 0 -37.5 -20t-14.5 -71v-311h-192v720zM214 780h-165l114 154h144l114 -154h-165l-21 67z" />
    <glyph glyph-name="Hbar" unicode="&#x126;" horiz-adv-x="664" 
d="M617 720v-76h36v-136h-36v-508h-208v292h-154v-292h-209v508h-36v136h36v76h209v-76h154v76h208zM255 435h154v73h-154v-73z" />
    <glyph glyph-name="hbar" unicode="&#x127;" horiz-adv-x="545" 
d="M40 558h-30v130h30v32h193v-32h84v-130h-84v-80q23 29 52.5 43t70.5 14q75 0 117.5 -48t42.5 -154v-333h-194v333q0 42 -9 55.5t-29 13.5q-23 0 -37 -20t-14 -71v-311h-193v558z" />
    <glyph glyph-name="Itilde" unicode="&#x128;" horiz-adv-x="297" 
d="M253 720v-720h-209v720h209zM211 777q-19 0 -35 5.5t-30.5 12.5t-28.5 12.5t-28 5.5q-15 0 -33 -8t-47 -25v125q23 15 42 22t42 7q18 0 34 -6t31 -12.5t29 -12.5t28 -6q15 0 31.5 8t45.5 25v-125q-23 -15 -41 -21.5t-40 -6.5z" />
    <glyph glyph-name="itilde" unicode="&#x129;" horiz-adv-x="262" 
d="M193 581q-19 0 -35 5.5t-30.5 12.5t-28.5 12.5t-28 5.5q-15 0 -33 -8t-47 -25v125q23 15 42 22t42 7q18 0 34 -6t31 -12.5t29 -12.5t28 -6q15 0 31.5 8t45.5 25v-125q-23 -15 -41 -21.5t-40 -6.5zM34 0v520h194v-520h-194z" />
    <glyph glyph-name="Imacron" unicode="&#x12a;" horiz-adv-x="297" 
d="M253 720v-720h-209v720h209zM23 787v128h255v-128h-255z" />
    <glyph glyph-name="imacron" unicode="&#x12b;" horiz-adv-x="262" 
d="M5 591v128h255v-128h-255zM34 0v520h194v-520h-194z" />
    <glyph glyph-name="Ibreve" unicode="&#x12c;" horiz-adv-x="297" 
d="M253 720v-720h-209v720h209zM150 773q-69 0 -108 37t-47 115h134q0 -50 21 -50t21 50h134q-8 -81 -49 -116.5t-106 -35.5z" />
    <glyph glyph-name="ibreve" unicode="&#x12d;" horiz-adv-x="262" 
d="M34 0v520h194v-520h-194zM132 577q-69 0 -108 37t-47 115h134q0 -50 21 -50t21 50h134q-8 -81 -49 -116.5t-106 -35.5z" />
    <glyph glyph-name="Iogonek" unicode="&#x12e;" horiz-adv-x="297" 
d="M105 -264q-73 0 -111.5 33.5t-38.5 93.5q0 40 23 78.5t67 62.5v716h208v-720h-98q-35 -25 -57 -55.5t-22 -65.5q0 -26 9 -37.5t24 -11.5q21 0 27 26h128q-13 -56 -53 -88t-106 -32z" />
    <glyph glyph-name="iogonek" unicode="&#x12f;" horiz-adv-x="262" 
d="M86 -264q-74 0 -112 33.5t-38 93.5q0 42 25 82t73 64v511h194v-520h-92q-35 -25 -57 -55.5t-22 -65.5q0 -26 9 -37.5t23 -11.5q22 0 27 26h129q-13 -56 -53 -88t-106 -32zM28 574v146h204v-146h-204z" />
    <glyph glyph-name="Idotaccent" unicode="&#x130;" horiz-adv-x="297" 
d="M253 720v-720h-209v720h209zM47 780v146h204v-146h-204z" />
    <glyph glyph-name="dotlessi" unicode="&#x131;" horiz-adv-x="262" 
d="M34 0v520h194v-520h-194z" />
    <glyph glyph-name="IJ" unicode="&#x132;" horiz-adv-x="825" 
d="M253 720v-720h-209v720h209zM507 212q3 -50 14 -66.5t28 -16.5q8 0 14 3.5t10.5 12.5t7 25t2.5 41v509h202v-486q0 -57 -13 -103.5t-41 -78.5t-71.5 -49.5t-104.5 -17.5q-112 0 -174.5 59.5t-73.5 167.5h200z" />
    <glyph glyph-name="ij" unicode="&#x133;" horiz-adv-x="526" 
d="M28 574v146h204v-146h-204zM34 0v520h194v-520h-194zM227 -47q11 -4 21.5 -5.5t17.5 -1.5q17 0 25 9t8 36v529h193v-536q0 -83 -41 -131t-129 -48q-26 0 -51.5 3.5t-43.5 9.5v135zM293 574v146h204v-146h-204z" />
    <glyph glyph-name="Jcircumflex" unicode="&#x134;" horiz-adv-x="528" 
d="M210 212q3 -50 14 -66.5t28 -16.5q8 0 14 3.5t10.5 12.5t7 25t2.5 41v509h202v-486q0 -57 -13 -103.5t-41 -78.5t-71.5 -49.5t-104.5 -17.5q-112 0 -174.5 59.5t-73.5 167.5h200zM358 780h-165l114 154h144l114 -154h-165l-21 67z" />
    <glyph glyph-name="jcircumflex" unicode="&#x135;" horiz-adv-x="264" 
d="M-35 -47q22 -7 39 -7q18 0 25.5 9.5t7.5 35.5v529h193v-536q0 -83 -42 -131t-128 -48q-26 0 -51.5 3.5t-43.5 9.5v135zM103 583h-165l114 154h144l114 -154h-165l-21 67z" />
    <glyph glyph-name="Kcommaaccent" unicode="&#x136;" horiz-adv-x="693" 
d="M439 0l-186 282v-282h-209v720h209v-270l179 270h231l-251 -338l283 -382h-256zM430 -128q0 -90 -39.5 -141t-131.5 -60v82q67 12 67 70h-47v129h151v-80z" />
    <glyph glyph-name="kcommaaccent" unicode="&#x137;" horiz-adv-x="566" 
d="M34 0v720h192v-374l130 174h204l-179 -222l189 -298h-228l-116 212v-212h-192zM348 -128q0 -90 -39.5 -141t-131.5 -60v82q67 12 67 70h-47v129h151v-80z" />
    <glyph glyph-name="kgreenlandic" unicode="&#x138;" horiz-adv-x="566" 
d="M34 0v520h192v-189l138 189h196l-187 -235l197 -285h-216l-128 206v-206h-192z" />
    <glyph glyph-name="Lacute" unicode="&#x139;" horiz-adv-x="556" 
d="M253 720v-569h290v-151h-499v720h209zM128 928h186l-144 -154h-137z" />
    <glyph glyph-name="lacute" unicode="&#x13a;" horiz-adv-x="261" 
d="M227 0h-193v720h193v-720zM99 928h186l-144 -154h-137z" />
    <glyph glyph-name="Lcommaaccent" unicode="&#x13b;" horiz-adv-x="556" 
d="M253 720v-569h290v-151h-499v720h209zM353 -128q0 -90 -39.5 -141t-131.5 -60v82q67 12 67 70h-47v129h151v-80z" />
    <glyph glyph-name="lcommaaccent" unicode="&#x13c;" horiz-adv-x="261" 
d="M227 0h-193v720h193v-720zM203 -128q0 -90 -39.5 -141t-131.5 -60v82q67 12 67 70h-47v129h151v-80z" />
    <glyph glyph-name="Lcaron" unicode="&#x13d;" horiz-adv-x="556" 
d="M253 720v-569h290v-151h-499v720h209zM483 621q0 -97 -45 -150.5t-145 -64.5v82q35 7 54.5 27.5t19.5 56.5h-49v148h165v-99z" />
    <glyph glyph-name="lcaron" unicode="&#x13e;" horiz-adv-x="442" 
d="M227 0h-193v720h193v-720zM450 621q0 -97 -45 -150.5t-145 -64.5v82q35 7 54.5 27.5t19.5 56.5h-49v148h165v-99z" />
    <glyph glyph-name="Ldot" unicode="&#x13f;" horiz-adv-x="556" 
d="M253 720v-569h290v-151h-499v720h209zM328.8 305v146h163.197v-146h-163.197z" />
    <glyph glyph-name="ldot" unicode="&#x140;" horiz-adv-x="422" 
d="M227 0h-193v720h193v-720zM258.8 305v146h163.197v-146h-163.197z" />
    <glyph glyph-name="Lslash" unicode="&#x141;" horiz-adv-x="564" 
d="M261 720v-175l63 41v-167l-63 -41v-227h290v-151h-499v245l-53 -33v166l53 34v308h209z" />
    <glyph glyph-name="lslash" unicode="&#x142;" horiz-adv-x="252" 
d="M223 539l29 20v-167l-29 -20v-372h-193v238l-30 -20v166l30 21v315h193v-181z" />
    <glyph glyph-name="Nacute" unicode="&#x143;" horiz-adv-x="654" 
d="M610 720v-720h-198l-192 427v-427h-176v720h211l179 -407v407h176zM357 928h186l-144 -154h-137z" />
    <glyph glyph-name="nacute" unicode="&#x144;" horiz-adv-x="539" 
d="M34 520h164l14 -56q26 38 59 54.5t78 16.5q75 0 117.5 -48t42.5 -154v-333h-193v333q0 42 -9.5 55.5t-28.5 13.5q-23 0 -37.5 -20t-14.5 -71v-311h-192v520zM283 735h186l-144 -154h-137z" />
    <glyph glyph-name="Ncommaaccent" unicode="&#x145;" horiz-adv-x="654" 
d="M610 720v-720h-198l-192 427v-427h-176v720h211l179 -407v407h176zM403 -128q0 -90 -39.5 -141t-131.5 -60v82q67 12 67 70h-47v129h151v-80z" />
    <glyph glyph-name="ncommaaccent" unicode="&#x146;" horiz-adv-x="539" 
d="M34 520h164l14 -56q26 38 59 54.5t78 16.5q75 0 117.5 -48t42.5 -154v-333h-193v333q0 42 -9.5 55.5t-28.5 13.5q-23 0 -37.5 -20t-14.5 -71v-311h-192v520zM347 -128q0 -90 -39.5 -141t-131.5 -60v82q67 12 67 70h-47v129h151v-80z" />
    <glyph glyph-name="Ncaron" unicode="&#x147;" horiz-adv-x="654" 
d="M610 720v-720h-198l-192 427v-427h-176v720h211l179 -407v407h176zM329 871l21 63h165l-114 -154h-144l-114 154h165z" />
    <glyph glyph-name="ncaron" unicode="&#x148;" horiz-adv-x="539" 
d="M34 520h164l14 -56q26 38 59 54.5t78 16.5q75 0 117.5 -48t42.5 -154v-333h-193v333q0 42 -9.5 55.5t-28.5 13.5q-23 0 -37.5 -20t-14.5 -71v-311h-192v520zM274 674l21 63h165l-114 -154h-144l-114 154h165z" />
    <glyph glyph-name="napostrophe" unicode="&#x149;" horiz-adv-x="678" 
d="M173 520h164l14 -56q26 38 59 54.5t78 16.5q75 0 117.5 -48t42.5 -154v-333h-193v333q0 42 -9.5 55.5t-28.5 13.5q-23 0 -37.5 -20t-14.5 -71v-311h-192v520zM172.205 625.915q0 -87.3018 -40.501 -135.453t-130.503 -58.0518v73.8018q31.5 6.2998 49.0508 24.751
q17.5508 18.4502 17.5508 50.8516h-44.1016v133.203h148.504v-89.1025z" />
    <glyph glyph-name="Eng" unicode="&#x14a;" horiz-adv-x="654" 
d="M610 720v-736q0 -83 -41.5 -131t-129.5 -48q-25 0 -50.5 4t-44.5 9v135q13 -3 22.5 -5t16.5 -2q26 0 38 10t12 34v10h-21l-192 426v-426h-176v720h210l179 -408v408h177z" />
    <glyph glyph-name="eng" unicode="&#x14b;" horiz-adv-x="539" 
d="M34 520h164l14 -56q26 38 59 54.5t78 16.5q75 0 117.5 -48t42.5 -154v-349q0 -83 -41 -131t-129 -48q-26 0 -51.5 3.5t-43.5 9.5v135q22 -7 39 -7t25 9.5t8 34.5v343q0 42 -9.5 55.5t-28.5 13.5q-23 0 -37.5 -20t-14.5 -71v-311h-192v520z" />
    <glyph glyph-name="Omacron" unicode="&#x14c;" horiz-adv-x="703" 
d="M351 132q23 0 44 11.5t36.5 38.5t25 70.5t9.5 107.5q0 63 -9 107t-25 71t-36.5 39t-44.5 12q-23 0 -43.5 -11.5t-36.5 -38.5t-25 -71t-9 -109q0 -63 9.5 -106.5t25.5 -70.5t36.5 -38.5t42.5 -11.5zM351 -15q-71 0 -130.5 23.5t-102.5 70t-67 117t-24 163.5q0 92 23.5 162
t66 117.5t102.5 72t132 24.5q70 0 129.5 -22.5t103 -69t68 -117t24.5 -166.5q0 -92 -24.5 -162t-67.5 -117.5t-103 -71.5t-130 -24zM226 787v128h255v-128h-255z" />
    <glyph glyph-name="omacron" unicode="&#x14d;" horiz-adv-x="556" 
d="M22 262q0 135 64.5 204t191.5 69q124 0 190 -68.5t66 -204.5q0 -134 -65.5 -205.5t-190.5 -71.5t-190.5 70.5t-65.5 206.5zM219 262q0 -45 3.5 -74t10.5 -45.5t18.5 -23t27.5 -6.5t27.5 5.5t18.5 22t10 45.5t3 76q0 46 -3.5 74t-11 44t-18.5 21.5t-27 5.5t-27.5 -6
t-18.5 -21.5t-10 -44t-3 -73.5zM150 591v128h255v-128h-255z" />
    <glyph glyph-name="Obreve" unicode="&#x14e;" horiz-adv-x="703" 
d="M351 132q23 0 44 11.5t36.5 38.5t25 70.5t9.5 107.5q0 63 -9 107t-25 71t-36.5 39t-44.5 12q-23 0 -43.5 -11.5t-36.5 -38.5t-25 -71t-9 -109q0 -63 9.5 -106.5t25.5 -70.5t36.5 -38.5t42.5 -11.5zM351 -15q-71 0 -130.5 23.5t-102.5 70t-67 117t-24 163.5q0 92 23.5 162
t66 117.5t102.5 72t132 24.5q70 0 129.5 -22.5t103 -69t68 -117t24.5 -166.5q0 -92 -24.5 -162t-67.5 -117.5t-103 -71.5t-130 -24zM351 773q-69 0 -108 37t-47 115h134q0 -50 21 -50t21 50h134q-8 -81 -49 -116.5t-106 -35.5z" />
    <glyph glyph-name="obreve" unicode="&#x14f;" horiz-adv-x="556" 
d="M22 262q0 135 64.5 204t191.5 69q124 0 190 -68.5t66 -204.5q0 -134 -65.5 -205.5t-190.5 -71.5t-190.5 70.5t-65.5 206.5zM219 262q0 -45 3.5 -74t10.5 -45.5t18.5 -23t27.5 -6.5t27.5 5.5t18.5 22t10 45.5t3 76q0 46 -3.5 74t-11 44t-18.5 21.5t-27 5.5t-27.5 -6
t-18.5 -21.5t-10 -44t-3 -73.5zM278 577q-69 0 -108 37t-47 115h134q0 -50 21 -50t21 50h134q-8 -81 -49 -116.5t-106 -35.5z" />
    <glyph glyph-name="Ohungarumlaut" unicode="&#x150;" horiz-adv-x="703" 
d="M351 132q23 0 44 11.5t36.5 38.5t25 70.5t9.5 107.5q0 63 -9 107t-25 71t-36.5 39t-44.5 12q-23 0 -43.5 -11.5t-36.5 -38.5t-25 -71t-9 -109q0 -63 9.5 -106.5t25.5 -70.5t36.5 -38.5t42.5 -11.5zM351 -15q-71 0 -130.5 23.5t-102.5 70t-67 117t-24 163.5q0 92 23.5 162
t66 117.5t102.5 72t132 24.5q70 0 129.5 -22.5t103 -69t68 -117t24.5 -166.5q0 -92 -24.5 -162t-67.5 -117.5t-103 -71.5t-130 -24zM255 928h191l-147 -154h-140zM488 928h191l-147 -154h-140z" />
    <glyph glyph-name="ohungarumlaut" unicode="&#x151;" horiz-adv-x="556" 
d="M22 262q0 135 64.5 204t191.5 69q124 0 190 -68.5t66 -204.5q0 -134 -65.5 -205.5t-190.5 -71.5t-190.5 70.5t-65.5 206.5zM219 262q0 -45 3.5 -74t10.5 -45.5t18.5 -23t27.5 -6.5t27.5 5.5t18.5 22t10 45.5t3 76q0 46 -3.5 74t-11 44t-18.5 21.5t-27 5.5t-27.5 -6
t-18.5 -21.5t-10 -44t-3 -73.5zM181 735h191l-147 -154h-140zM414 735h191l-147 -154h-140z" />
    <glyph glyph-name="OE" unicode="&#x152;" horiz-adv-x="848" 
d="M796 293h-205v-147h230v-146h-381q-23 -7 -47 -11t-47 -4q-63 0 -120.5 19.5t-102 63.5t-70.5 115.5t-26 175.5q0 102 27 173.5t71 116.5t101.5 65.5t119.5 20.5q23 0 48.5 -4t50.5 -11h376v-148h-230v-140h205v-139zM349 132q19 0 32 8v440q-12 8 -31 8q-21 0 -41 -11.5
t-36 -38t-26 -70.5t-10 -109t9.5 -108.5t25.5 -70t36 -37.5t41 -11z" />
    <glyph glyph-name="oe" unicode="&#x153;" horiz-adv-x="863" 
d="M838 165q-6 -34 -21.5 -66.5t-44.5 -57.5t-72.5 -40.5t-104.5 -15.5q-52 0 -92 18.5t-69 50.5q-32 -33 -70.5 -51t-89.5 -18q-54 0 -100 15t-80 48.5t-53 86t-19 127.5t19 127t52 84.5t79 47t100 14.5q50 0 89 -15.5t71 -47.5q29 31 67.5 47t89.5 16q124 0 188 -79
t64 -242h-309q2 -27 6 -46t11.5 -30t19 -16t28.5 -5q24 0 34.5 13.5t12.5 34.5h194zM584 414q-27 0 -38 -20.5t-15 -73.5h111q-3 51 -16 72.5t-42 21.5zM219 262q0 -44 3 -72.5t9.5 -45.5t18 -24t29.5 -7t29 6.5t18 23t9.5 45.5t2.5 74q0 44 -3 72.5t-9.5 44.5t-18 22
t-29.5 6t-29.5 -6.5t-18 -23t-9 -44.5t-2.5 -71z" />
    <glyph glyph-name="Racute" unicode="&#x154;" horiz-adv-x="651" 
d="M408 0l-129 250h-26v-250h-209v720h246q157 0 230 -61t73 -173q0 -76 -31.5 -124t-91.5 -75l179 -287h-241zM253 578v-186h43q82 0 82 95q0 48 -21 69.5t-65 21.5h-39zM321 928h186l-144 -154h-137z" />
    <glyph glyph-name="racute" unicode="&#x155;" horiz-adv-x="388" 
d="M34 0v520h165l17 -80q36 95 112 95q23 0 54 -7v-173q-21 7 -35 9.5t-30 2.5q-42 0 -66 -39.5t-24 -119.5v-208h-193zM215 735h186l-144 -154h-137z" />
    <glyph glyph-name="Rcommaaccent" unicode="&#x156;" horiz-adv-x="651" 
d="M408 0l-129 250h-26v-250h-209v720h246q157 0 230 -61t73 -173q0 -76 -31.5 -124t-91.5 -75l179 -287h-241zM253 578v-186h43q82 0 82 95q0 48 -21 69.5t-65 21.5h-39zM394 -128q0 -90 -39.5 -141t-131.5 -60v82q67 12 67 70h-47v129h151v-80z" />
    <glyph glyph-name="rcommaaccent" unicode="&#x157;" horiz-adv-x="388" 
d="M34 0v520h165l17 -80q36 95 112 95q23 0 54 -7v-173q-21 7 -35 9.5t-30 2.5q-42 0 -66 -39.5t-24 -119.5v-208h-193zM200 -128q0 -90 -39.5 -141t-131.5 -60v82q67 12 67 70h-47v129h151v-80z" />
    <glyph glyph-name="Rcaron" unicode="&#x158;" horiz-adv-x="651" 
d="M408 0l-129 250h-26v-250h-209v720h246q157 0 230 -61t73 -173q0 -76 -31.5 -124t-91.5 -75l179 -287h-241zM253 578v-186h43q82 0 82 95q0 48 -21 69.5t-65 21.5h-39zM281 871l21 63h165l-114 -154h-144l-114 154h165z" />
    <glyph glyph-name="rcaron" unicode="&#x159;" horiz-adv-x="388" 
d="M34 0v520h165l17 -80q36 95 112 95q23 0 54 -7v-173q-21 7 -35 9.5t-30 2.5q-42 0 -66 -39.5t-24 -119.5v-208h-193zM198 674l21 63h165l-114 -154h-144l-114 154h165z" />
    <glyph glyph-name="Sacute" unicode="&#x15a;" horiz-adv-x="623" 
d="M318 -15q-141 0 -214.5 62t-87.5 174h200q6 -45 30 -69.5t72 -24.5q44 0 62 17t18 48q0 17 -5 30t-18.5 24.5t-38 22t-63.5 22.5q-65 19 -110 42t-72.5 51.5t-39.5 64t-12 79.5q0 46 15 84.5t47 65.5t82.5 42t121.5 15q123 0 196.5 -59t88.5 -160h-195q-9 78 -85 78
q-34 0 -48 -15t-14 -41q0 -29 20.5 -47t75.5 -33q71 -20 121 -44.5t81.5 -54.5t46 -67t14.5 -81q0 -47 -15.5 -88t-50 -71.5t-89.5 -48.5t-134 -18zM319 928h186l-144 -154h-137z" />
    <glyph glyph-name="sacute" unicode="&#x15b;" horiz-adv-x="526" 
d="M264 112q45 0 45 35q0 17 -13 28t-56 21q-62 14 -102.5 31.5t-64 39t-33 48.5t-9.5 59q0 37 12.5 67t39.5 51t69 32t101 11q49 0 90.5 -12t73 -34t52 -52.5t27.5 -67.5h-186q-5 20 -17 30t-36 10q-35 0 -35 -29q0 -8 2.5 -14.5t11 -12.5t23.5 -11.5t40 -11.5
q58 -14 96.5 -31.5t61.5 -39t33 -48t10 -57.5q0 -78 -56.5 -123.5t-182.5 -45.5q-109 0 -169 47t-74 124h188q5 -23 18.5 -33.5t39.5 -10.5zM246 735h186l-144 -154h-137z" />
    <glyph glyph-name="Scircumflex" unicode="&#x15c;" horiz-adv-x="623" 
d="M318 -15q-141 0 -214.5 62t-87.5 174h200q6 -45 30 -69.5t72 -24.5q44 0 62 17t18 48q0 17 -5 30t-18.5 24.5t-38 22t-63.5 22.5q-65 19 -110 42t-72.5 51.5t-39.5 64t-12 79.5q0 46 15 84.5t47 65.5t82.5 42t121.5 15q123 0 196.5 -59t88.5 -160h-195q-9 78 -85 78
q-34 0 -48 -15t-14 -41q0 -29 20.5 -47t75.5 -33q71 -20 121 -44.5t81.5 -54.5t46 -67t14.5 -81q0 -47 -15.5 -88t-50 -71.5t-89.5 -48.5t-134 -18zM277 780h-165l114 154h144l114 -154h-165l-21 67z" />
    <glyph glyph-name="scircumflex" unicode="&#x15d;" horiz-adv-x="526" 
d="M264 112q45 0 45 35q0 17 -13 28t-56 21q-62 14 -102.5 31.5t-64 39t-33 48.5t-9.5 59q0 37 12.5 67t39.5 51t69 32t101 11q49 0 90.5 -12t73 -34t52 -52.5t27.5 -67.5h-186q-5 20 -17 30t-36 10q-35 0 -35 -29q0 -8 2.5 -14.5t11 -12.5t23.5 -11.5t40 -11.5
q58 -14 96.5 -31.5t61.5 -39t33 -48t10 -57.5q0 -78 -56.5 -123.5t-182.5 -45.5q-109 0 -169 47t-74 124h188q5 -23 18.5 -33.5t39.5 -10.5zM236 583h-165l114 154h144l114 -154h-165l-21 67z" />
    <glyph glyph-name="Scedilla" unicode="&#x15e;" horiz-adv-x="623" 
d="M469 -143q0 -54 -39 -89.5t-115 -35.5q-70 0 -111.5 33.5t-49.5 93.5h123q2 -18 10 -26t26 -8q32 0 32 34q0 20 -17.5 30.5t-65.5 10.5l7 88q-117 10 -179 70.5t-74 162.5h200q6 -45 30 -69.5t72 -24.5q44 0 62 17t18 48q0 17 -5 30t-18.5 24.5t-38 22t-63.5 22.5
q-65 19 -110 42t-72.5 51.5t-39.5 64t-12 79.5q0 46 15 84.5t47 65.5t82.5 42t121.5 15q123 0 196.5 -59t88.5 -160h-195q-9 78 -85 78q-34 0 -48 -15t-14 -41q0 -29 20.5 -47t75.5 -33q71 -20 121 -44.5t81.5 -54.5t46 -67t14.5 -81q0 -42 -12.5 -79.5t-40 -67t-71 -49.5
t-105.5 -27l1 -23q44 -9 67 -37.5t23 -70.5z" />
    <glyph glyph-name="scedilla" unicode="&#x15f;" horiz-adv-x="526" 
d="M414 -143q0 -54 -39 -89.5t-116 -35.5q-69 0 -111 33.5t-49 93.5h123q1 -34 35 -34q33 0 33 34q0 20 -17.5 30.5t-65.5 10.5l6 88q-87 10 -135 54.5t-60 113.5h188q5 -23 18.5 -33.5t39.5 -10.5q45 0 45 35q0 17 -13 28t-56 21q-60 14 -100 31t-64.5 39t-34.5 48.5
t-10 59.5q0 37 12.5 67t39.5 51t69 32t101 11q49 0 90.5 -12t73 -34t52 -52.5t27.5 -67.5h-186q-5 20 -17 30t-36 10q-35 0 -35 -29q0 -8 2.5 -14.5t11 -12.5t23.5 -11.5t40 -11.5q58 -14 96.5 -31t61.5 -38.5t33 -48t10 -58.5q0 -68 -42 -111t-136 -54l2 -24
q44 -9 67 -37.5t23 -70.5z" />
    <glyph glyph-name="Scaron" unicode="&#x160;" horiz-adv-x="623" 
d="M318 -15q-141 0 -214.5 62t-87.5 174h200q6 -45 30 -69.5t72 -24.5q44 0 62 17t18 48q0 17 -5 30t-18.5 24.5t-38 22t-63.5 22.5q-65 19 -110 42t-72.5 51.5t-39.5 64t-12 79.5q0 46 15 84.5t47 65.5t82.5 42t121.5 15q123 0 196.5 -59t88.5 -160h-195q-9 78 -85 78
q-34 0 -48 -15t-14 -41q0 -29 20.5 -47t75.5 -33q71 -20 121 -44.5t81.5 -54.5t46 -67t14.5 -81q0 -47 -15.5 -88t-50 -71.5t-89.5 -48.5t-134 -18zM304 871l21 63h165l-114 -154h-144l-114 154h165z" />
    <glyph glyph-name="scaron" unicode="&#x161;" horiz-adv-x="526" 
d="M264 112q45 0 45 35q0 17 -13 28t-56 21q-62 14 -102.5 31.5t-64 39t-33 48.5t-9.5 59q0 37 12.5 67t39.5 51t69 32t101 11q49 0 90.5 -12t73 -34t52 -52.5t27.5 -67.5h-186q-5 20 -17 30t-36 10q-35 0 -35 -29q0 -8 2.5 -14.5t11 -12.5t23.5 -11.5t40 -11.5
q58 -14 96.5 -31.5t61.5 -39t33 -48t10 -57.5q0 -78 -56.5 -123.5t-182.5 -45.5q-109 0 -169 47t-74 124h188q5 -23 18.5 -33.5t39.5 -10.5zM253 674l21 63h165l-114 -154h-144l-114 154h165z" />
    <glyph glyph-name="Tcommaaccent" unicode="&#x162;" horiz-adv-x="559" 
d="M556 569h-174v-569h-209v569h-170v151h553v-151zM350 -128q0 -90 -39.5 -141t-131.5 -60v82q67 12 67 70h-47v129h151v-80z" />
    <glyph glyph-name="tcommaaccent" unicode="&#x163;" horiz-adv-x="364" 
d="M352 0q-26 -8 -55 -11.5t-52 -3.5q-85 0 -128.5 42.5t-43.5 124.5v237h-65v131h65l10 125h183v-125h87v-131h-87v-231q0 -23 7 -30.5t27 -7.5q8 0 23 2.5t29 7.5v-130zM257 -128q0 -90 -39.5 -141t-131.5 -60v82q67 12 67 70h-47v129h151v-80z" />
    <glyph glyph-name="Tcaron" unicode="&#x164;" horiz-adv-x="559" 
d="M556 569h-174v-569h-209v569h-170v151h553v-151zM279 871l21 63h165l-114 -154h-144l-114 154h165z" />
    <glyph glyph-name="tcaron" unicode="&#x165;" horiz-adv-x="462" 
d="M460 660q0 -52 -32.5 -87t-104.5 -38v59q17 1 23.5 9t6.5 24h-25v106h132v-73zM352 0q-26 -8 -55 -11.5t-52 -3.5q-85 0 -128.5 42.5t-43.5 124.5v237h-65v131h65l10 125h183v-125h87v-131h-87v-231q0 -23 7 -30.5t27 -7.5q8 0 23 2.5t29 7.5v-130z" />
    <glyph glyph-name="Tbar" unicode="&#x166;" horiz-adv-x="559" 
d="M382 336v-336h-209v336h-79v136h79v97h-170v151h552v-151h-173v-97h79v-136h-79z" />
    <glyph glyph-name="tbar" unicode="&#x167;" horiz-adv-x="364" 
d="M352 0q-26 -8 -55 -11.5t-52 -3.5q-83 0 -127.5 43t-44.5 124v77h-42v129h42v31h-65v131h65l10 125h183v-125h87v-131h-87v-31h60v-129h-60v-71q0 -23 8.5 -30.5t25.5 -7.5q8 0 23 2.5t29 7.5v-130z" />
    <glyph glyph-name="Utilde" unicode="&#x168;" horiz-adv-x="653" 
d="M249 720v-484q0 -56 19 -81t59 -25q42 0 62 25.5t20 80.5v484h203v-472q0 -61 -17.5 -109.5t-53 -82.5t-89.5 -52.5t-126 -18.5t-126 18.5t-89.5 52.5t-53 83t-17.5 109v472h209zM391 777q-19 0 -35 5.5t-30.5 12.5t-28.5 12.5t-28 5.5q-15 0 -33 -8t-47 -25v125
q23 15 42 22t42 7q18 0 34 -6t31 -12.5t29 -12.5t28 -6q15 0 31.5 8t45.5 25v-125q-23 -15 -41 -21.5t-40 -6.5z" />
    <glyph glyph-name="utilde" unicode="&#x169;" horiz-adv-x="532" 
d="M222 520v-339q0 -37 10 -50t29 -13q20 0 33 21t13 74v307h192v-520h-164l-14 53q-21 -32 -52 -50t-79 -18q-80 0 -120 47t-40 153v335h192zM329 581q-19 0 -35 5.5t-30.5 12.5t-28.5 12.5t-28 5.5q-15 0 -33 -8t-47 -25v125q23 15 42 22t42 7q18 0 34 -6t31 -12.5
t29 -12.5t28 -6q15 0 31.5 8t45.5 25v-125q-23 -15 -41 -21.5t-40 -6.5z" />
    <glyph glyph-name="Umacron" unicode="&#x16a;" horiz-adv-x="653" 
d="M249 720v-484q0 -56 19 -81t59 -25q42 0 62 25.5t20 80.5v484h203v-472q0 -61 -17.5 -109.5t-53 -82.5t-89.5 -52.5t-126 -18.5t-126 18.5t-89.5 52.5t-53 83t-17.5 109v472h209zM197 787v128h255v-128h-255z" />
    <glyph glyph-name="umacron" unicode="&#x16b;" horiz-adv-x="532" 
d="M222 520v-339q0 -37 10 -50t29 -13q20 0 33 21t13 74v307h192v-520h-164l-14 53q-21 -32 -52 -50t-79 -18q-80 0 -120 47t-40 153v335h192zM137 591v128h255v-128h-255z" />
    <glyph glyph-name="Ubreve" unicode="&#x16c;" horiz-adv-x="653" 
d="M249 720v-484q0 -56 19 -81t59 -25q42 0 62 25.5t20 80.5v484h203v-472q0 -61 -17.5 -109.5t-53 -82.5t-89.5 -52.5t-126 -18.5t-126 18.5t-89.5 52.5t-53 83t-17.5 109v472h209zM328 773q-69 0 -108 37t-47 115h134q0 -50 21 -50t21 50h134q-8 -81 -49 -116.5
t-106 -35.5z" />
    <glyph glyph-name="ubreve" unicode="&#x16d;" horiz-adv-x="532" 
d="M222 520v-339q0 -37 10 -50t29 -13q20 0 33 21t13 74v307h192v-520h-164l-14 53q-21 -32 -52 -50t-79 -18q-80 0 -120 47t-40 153v335h192zM261 583q-69 0 -108 37t-47 115h134q0 -50 21 -50t21 50h134q-8 -81 -49 -116.5t-106 -35.5z" />
    <glyph glyph-name="Uring" unicode="&#x16e;" horiz-adv-x="653" 
d="M249 720v-484q0 -56 19 -81t59 -25q42 0 62 25.5t20 80.5v484h203v-472q0 -61 -17.5 -109.5t-53 -82.5t-89.5 -52.5t-126 -18.5t-126 18.5t-89.5 52.5t-53 83t-17.5 109v472h209zM298 865q0 -42 27 -42q25 0 25 42q0 23 -6 32.5t-20 9.5q-26 0 -26 -42zM470 865
q0 -27 -8 -51.5t-25.5 -43t-45 -29t-66.5 -10.5q-38 0 -65.5 10.5t-45.5 29t-26.5 43t-8.5 51.5t8.5 51.5t26 43t45 29.5t65.5 11t65.5 -11t45.5 -29.5t26.5 -43t8.5 -51.5z" />
    <glyph glyph-name="uring" unicode="&#x16f;" horiz-adv-x="532" 
d="M222 520v-339q0 -37 10 -50t29 -13q20 0 33 21t13 74v307h192v-520h-164l-14 53q-21 -32 -52 -50t-79 -18q-80 0 -120 47t-40 153v335h192zM234 705q0 -42 27 -42q25 0 25 42q0 23 -6 32.5t-20 9.5q-26 0 -26 -42zM406 705q0 -27 -8 -51.5t-25.5 -43t-45 -29t-66.5 -10.5
q-38 0 -65.5 10.5t-45.5 29t-26.5 43t-8.5 51.5t8.5 51.5t26 43t45 29.5t65.5 11t65.5 -11t45.5 -29.5t26.5 -43t8.5 -51.5z" />
    <glyph glyph-name="Uhungarumlaut" unicode="&#x170;" horiz-adv-x="653" 
d="M249 720v-484q0 -56 19 -81t59 -25q42 0 62 25.5t20 80.5v484h203v-472q0 -61 -17.5 -109.5t-53 -82.5t-89.5 -52.5t-126 -18.5t-126 18.5t-89.5 52.5t-53 83t-17.5 109v472h209zM234 928h191l-147 -154h-140zM467 928h191l-147 -154h-140z" />
    <glyph glyph-name="uhungarumlaut" unicode="&#x171;" horiz-adv-x="532" 
d="M222 520v-339q0 -37 10 -50t29 -13q20 0 33 21t13 74v307h192v-520h-164l-14 53q-21 -32 -52 -50t-79 -18q-80 0 -120 47t-40 153v335h192zM168 736h191l-147 -154h-140zM401 736h191l-147 -154h-140z" />
    <glyph glyph-name="Uogonek" unicode="&#x172;" horiz-adv-x="653" 
d="M568 -144q-13 -55 -53 -87t-106 -32q-74 0 -112 33t-38 93q0 34 15.5 66t45.5 56q-142 7 -211 73t-69 190v472h209v-484q0 -58 21 -82.5t57 -24.5q82 0 82 107v484h203v-472q0 -72 -27.5 -132.5t-97.5 -98.5q-44 -23 -75.5 -59t-31.5 -78q0 -26 9 -37.5t23 -11.5
q22 0 27 25h129z" />
    <glyph glyph-name="uogonek" unicode="&#x173;" horiz-adv-x="532" 
d="M389 -264q-73 0 -111 33.5t-38 93.5q0 42 23.5 81t69.5 62l-12 47q-21 -32 -52 -50t-79 -18q-80 0 -120 47t-40 153v335h192v-339q0 -37 10 -50t29 -13q20 0 33 21t13 74v307h192v-520h-60q-35 -25 -56.5 -55.5t-21.5 -65.5q0 -26 9 -37.5t23 -11.5q22 0 27 26h128
q-13 -56 -53 -88t-106 -32z" />
    <glyph glyph-name="Wcircumflex" unicode="&#x174;" horiz-adv-x="905" 
d="M902 720l-130 -720h-229l-92 502l-84 -502h-219l-145 720h214l57 -475l78 475h208l90 -479l51 479h201zM431 780h-165l114 154h144l114 -154h-165l-21 67z" />
    <glyph glyph-name="wcircumflex" unicode="&#x175;" horiz-adv-x="758" 
d="M757 520l-121 -520h-219l-38 334l-51 -334h-212l-115 520h200l33 -331l54 331h198l43 -329l41 329h187zM357 583h-165l114 154h144l114 -154h-165l-21 67z" />
    <glyph glyph-name="Ycircumflex" unicode="&#x176;" horiz-adv-x="652" 
d="M226 0v288l-226 432h217l113 -270l123 270h199l-227 -432v-288h-199zM305 780h-165l114 154h144l114 -154h-165l-21 67z" />
    <glyph glyph-name="ycircumflex" unicode="&#x177;" horiz-adv-x="538" 
d="M541 520l-165 -519q-18 -56 -36.5 -93.5t-41 -60t-49.5 -32.5t-61 -10q-42 0 -100 14v130q31 -8 46 -10t22 -2q17 0 26.5 13.5t15.5 49.5h-34l-168 520h203l71 -371l78 371h193zM248 584h-165l114 154h144l114 -154h-165l-21 67z" />
    <glyph glyph-name="Ydieresis" unicode="&#x178;" horiz-adv-x="652" 
d="M226 0v288l-226 432h217l113 -270l123 270h199l-227 -432v-288h-199zM141 781v144h167v-144h-167zM350 781v144h168v-144h-168z" />
    <glyph glyph-name="Zacute" unicode="&#x179;" horiz-adv-x="561" 
d="M243 145h300v-145h-529v136l304 439h-288v145h517v-134zM301 928h186l-144 -154h-137z" />
    <glyph glyph-name="zacute" unicode="&#x17a;" horiz-adv-x="469" 
d="M239 138h208v-138h-435v135l221 247h-206v138h430v-135zM269 735h186l-144 -154h-137z" />
    <glyph glyph-name="Zdotaccent" unicode="&#x17b;" horiz-adv-x="561" 
d="M243 145h300v-145h-529v136l304 439h-288v145h517v-134zM184 780v146h204v-146h-204z" />
    <glyph glyph-name="zdotaccent" unicode="&#x17c;" horiz-adv-x="469" 
d="M239 138h208v-138h-435v135l221 247h-206v138h430v-135zM147 584v146h204v-146h-204z" />
    <glyph glyph-name="Zcaron" unicode="&#x17d;" horiz-adv-x="561" 
d="M243 145h300v-145h-529v136l304 439h-288v145h517v-134zM279 871l21 63h165l-114 -154h-144l-114 154h165z" />
    <glyph glyph-name="zcaron" unicode="&#x17e;" horiz-adv-x="469" 
d="M239 138h208v-138h-435v135l221 247h-206v138h430v-135zM243 674l21 63h165l-114 -154h-144l-114 154h165z" />
    <glyph glyph-name="longs" unicode="&#x17f;" horiz-adv-x="354" 
d="M67 0v389h-66v131h66v33q0 89 42 135.5t139 46.5q32 0 62 -5t57 -13v-134q-44 12 -64 12q-26 0 -34.5 -11t-8.5 -37v-547h-193z" />
    <glyph glyph-name="florin" unicode="&#x192;" 
d="M463 563q-44 12 -64 12q-29 0 -36 -11.5t-7 -36.5v-27h82v-131h-82v-549h-193v549h-66v131h66v33q0 89 43.5 135.5t137.5 46.5q32 0 62 -5t57 -13v-134z" />
    <glyph glyph-name="Aringacute" unicode="&#x1fa;" horiz-adv-x="647" 
d="M261 821l82 139h188l-143 -139h-127zM323 806q38 0 65.5 -10t45.5 -26.5t26.5 -38.5t8.5 -47q0 -22 -7.5 -42t-25.5 -36l215 -606h-215l-35 151h-165l-36 -151h-204l214 608q-17 16 -24.5 35t-7.5 41q0 25 8.5 47t26 38.5t45 26.5t65.5 10zM323 722q-26 0 -26 -38
q0 -37 27 -37q25 0 25 37q0 38 -26 38zM372 273l-53 228l-54 -228h107z" />
    <glyph glyph-name="aringacute" unicode="&#x1fb;" horiz-adv-x="514" 
d="M27 365q23 85 80.5 127.5t154.5 42.5q106 0 164 -51.5t58 -148.5v-335h-147q-5 14 -11.5 27.5t-11.5 27.5q-26 -34 -60 -52t-81 -18q-74 0 -116 41t-42 113q0 31 9 58.5t31.5 50t60.5 39t95 27.5l81 15v22q0 35 -10 45.5t-24 10.5q-16 0 -26 -9.5t-15 -32.5h-190z
M236 111q31 0 43.5 27.5t12.5 73.5v17q-53 -13 -73 -27.5t-20 -44.5q0 -46 37 -46zM237 671.518q0 -37.8018 27 -37.8018q25 0 25 37.8018q0 20.7002 -6 29.25q-6 8.55078 -20 8.55078q-26 0 -26 -37.8008zM409 671.518q0 -24.3008 -8 -46.3516t-25.5 -38.7012t-45 -26.1006
t-66.5 -9.4502q-38 0 -65.5 9.4502t-45.5 26.1006t-26.5 38.7012t-8.5 46.3516t8.5 46.3506q8.5 22.0508 26 38.7012t45 26.5508t65.5 9.90039t65.5 -9.90039t45.5 -26.5508t26.5 -38.7012q8.5 -22.0498 8.5 -46.3506zM288 944.818h186l-144 -138.604h-137z" />
    <glyph glyph-name="AEacute" unicode="&#x1fc;" horiz-adv-x="880" 
d="M853 0h-435v157h-154l-52 -157h-215q71 181 141.5 360t142.5 360h572v-148h-226v-140h201v-139h-201v-147h226v-146zM418 295v299l-97 -299h97zM554 928h186l-144 -154h-137z" />
    <glyph glyph-name="aeacute" unicode="&#x1fd;" horiz-adv-x="813" 
d="M787 165q-8 -38 -26 -71t-48.5 -57t-73.5 -38t-99 -14q-64 0 -109.5 26t-77.5 74q-29 -47 -72.5 -73.5t-104.5 -26.5q-78 0 -119.5 40.5t-41.5 115.5q0 31 8.5 58t30.5 48.5t60 38.5t98 29l80 16v20q0 32 -9 45t-26 13q-20 0 -28 -11t-12 -34h-190q23 84 79.5 127.5
t154.5 43.5q42 0 76.5 -14t61.5 -37q25 23 58.5 37t78.5 14q117 0 185.5 -79.5t68.5 -237.5h-309q5 -60 19.5 -81t45.5 -21q41 0 47 49h194zM535 413q-26 0 -38.5 -19.5t-16.5 -74.5h112q-2 54 -16 74t-41 20zM292 232q-26 -8 -43.5 -15t-28 -16t-14.5 -19.5t-4 -23.5
q0 -47 34 -47q28 0 42 25t14 67v29zM421 732h186l-144 -154h-137z" />
    <glyph glyph-name="Oslashacute" unicode="&#x1fe;" horiz-adv-x="703" 
d="M351 -15q-41 0 -81 8l-44 -103h-146l71 158q-59 45 -91.5 122.5t-32.5 188.5q0 92 23.5 162t66 117.5t102.5 72t132 24.5q43 0 84 -9l41 94h146l-68 -151q57 -45 89.5 -121t32.5 -188q0 -92 -24.5 -162t-67.5 -117.5t-103 -71.5t-130 -24zM351 132q23 0 44 11.5
t36.5 38.5t25 70.5t9.5 107.5q0 42 -5.5 72t-14.5 53l-124 -348q15 -5 29 -5zM237 359q0 -38 5 -67t14 -49l124 341q-8 2 -14.5 3.5t-14.5 1.5q-23 0 -43.5 -11.5t-36.5 -38.5t-25 -71t-9 -109zM339 928h186l-144 -154h-137z" />
    <glyph glyph-name="oslashacute" unicode="&#x1ff;" horiz-adv-x="556" 
d="M22 262q0 135 64 204t191 69q14 0 27.5 -1t27.5 -3l44 99h132l-63 -145q43 -33 65.5 -89t22.5 -134q0 -135 -65 -206t-190 -71q-14 0 -27 1.5t-26 3.5l-42 -100h-136q16 37 32 73t32 71q-89 68 -89 228zM219 262q0 -16 1 -30t1 -25l78 197q-9 3 -21 3q-16 0 -27 -6
t-18 -22t-10.5 -44t-3.5 -73zM338 258v27q0 17 -1 28l-78 -197q9 -3 19 -3q16 0 27.5 5.5t18.5 21t10.5 44t3.5 74.5zM232 732h186l-144 -154h-137z" />
    <glyph glyph-name="Scommaaccent" unicode="&#x218;" horiz-adv-x="623" 
d="M318 -15q-141 0 -214.5 62t-87.5 174h200q6 -45 30 -69.5t72 -24.5q44 0 62 17t18 48q0 17 -5 30t-18.5 24.5t-38 22t-63.5 22.5q-65 19 -110 42t-72.5 51.5t-39.5 64t-12 79.5q0 46 15 84.5t47 65.5t82.5 42t121.5 15q123 0 196.5 -59t88.5 -160h-195q-9 78 -85 78
q-34 0 -48 -15t-14 -41q0 -29 20.5 -47t75.5 -33q71 -20 121 -44.5t81.5 -54.5t46 -67t14.5 -81q0 -47 -15.5 -88t-50 -71.5t-89.5 -48.5t-134 -18zM400 -128q0 -90 -39.5 -141t-131.5 -60v82q67 12 67 70h-47v129h151v-80z" />
    <glyph glyph-name="scommaaccent" unicode="&#x219;" horiz-adv-x="526" 
d="M264 112q45 0 45 35q0 17 -13 28t-56 21q-62 14 -102.5 31.5t-64 39t-33 48.5t-9.5 59q0 37 12.5 67t39.5 51t69 32t101 11q49 0 90.5 -12t73 -34t52 -52.5t27.5 -67.5h-186q-5 20 -17 30t-36 10q-35 0 -35 -29q0 -8 2.5 -14.5t11 -12.5t23.5 -11.5t40 -11.5
q58 -14 96.5 -31.5t61.5 -39t33 -48t10 -57.5q0 -78 -56.5 -123.5t-182.5 -45.5q-109 0 -169 47t-74 124h188q5 -23 18.5 -33.5t39.5 -10.5zM326 -128q0 -90 -39.5 -141t-131.5 -60v82q67 12 67 70h-47v129h151v-80z" />
    <glyph glyph-name="uni021A" unicode="&#x21a;" horiz-adv-x="559" 
d="M556 569h-174v-569h-209v569h-170v151h553v-151zM350 -128q0 -90 -39.5 -141t-131.5 -60v82q67 12 67 70h-47v129h151v-80z" />
    <glyph glyph-name="uni021B" unicode="&#x21b;" horiz-adv-x="364" 
d="M352 0q-26 -8 -55 -11.5t-52 -3.5q-85 0 -128.5 42.5t-43.5 124.5v237h-65v131h65l10 125h183v-125h87v-131h-87v-231q0 -23 7 -30.5t27 -7.5q8 0 23 2.5t29 7.5v-130zM257 -128q0 -90 -39.5 -141t-131.5 -60v82q67 12 67 70h-47v129h151v-80z" />
    <glyph glyph-name="dotlessj" unicode="&#x237;" horiz-adv-x="264" 
d="M-35 -47q22 -7 39 -7q18 0 25.5 9.5t7.5 35.5v529h193v-536q0 -83 -42 -131t-128 -48q-26 0 -51.5 3.5t-43.5 9.5v135z" />
    <glyph glyph-name="circumflex" unicode="&#x2c6;" horiz-adv-x="445" 
d="M201 584h-165l114 154h144l114 -154h-165l-21 67z" />
    <glyph glyph-name="caron" unicode="&#x2c7;" horiz-adv-x="445" 
d="M222 675l21 63h165l-114 -154h-144l-114 154h165z" />
    <glyph glyph-name="uni02C9" unicode="&#x2c9;" horiz-adv-x="294" 
d="M19 586v126h255v-126h-255z" />
    <glyph glyph-name="breve" unicode="&#x2d8;" horiz-adv-x="367" 
d="M183 577q-69 0 -108 37t-47 115h134q0 -50 21 -50t21 50h134q-8 -81 -49 -116.5t-106 -35.5z" />
    <glyph glyph-name="dotaccent" unicode="&#x2d9;" horiz-adv-x="256" 
d="M26 584v146h204v-146h-204z" />
    <glyph glyph-name="ring" unicode="&#x2da;" horiz-adv-x="331" 
d="M139 705q0 -42 27 -42q25 0 25 42q0 23 -6 32.5t-20 9.5q-26 0 -26 -42zM311 705q0 -27 -8 -51.5t-25.5 -43t-45 -29t-66.5 -10.5q-38 0 -65.5 10.5t-45.5 29t-26.5 43t-8.5 51.5t8.5 51.5t26 43t45 29.5t65.5 11t65.5 -11t45.5 -29.5t26.5 -43t8.5 -51.5z" />
    <glyph glyph-name="ogonek" unicode="&#x2db;" horiz-adv-x="368" 
d="M180 -264q-74 0 -112 33.5t-38 93.5q0 24 8 47t23.5 44t38.5 37.5t53 27.5h108q-46 -25 -78 -61.5t-32 -78.5q0 -26 9 -37.5t23 -11.5q22 0 27 26h129q-13 -56 -53 -88t-106 -32z" />
    <glyph glyph-name="tilde" unicode="&#x2dc;" horiz-adv-x="335" 
d="M228 581q-19 0 -35 5.5t-30.5 12.5t-28.5 12.5t-28 5.5q-15 0 -33 -8t-47 -25v125q23 15 42 22t42 7q18 0 34 -6t31 -12.5t29 -12.5t28 -6q15 0 31.5 8t45.5 25v-125q-23 -15 -41 -21.5t-40 -6.5z" />
    <glyph glyph-name="hungarumlaut" unicode="&#x2dd;" horiz-adv-x="572" 
d="M122 732h191l-147 -154h-140zM355 732h191l-147 -154h-140z" />
    <glyph glyph-name="uni0312" unicode="&#x312;" horiz-adv-x="270" 
d="M45 655q0 90 39.5 141t131.5 60v-82q-67 -12 -67 -70h47v-129h-151v80z" />
    <glyph glyph-name="dotbelowcomb" unicode="&#x323;" horiz-adv-x="264" 
d="M30 -180v146h204v-146h-204z" />
    <glyph glyph-name="uni037E" unicode="&#x37e;" horiz-adv-x="296" 
d="M46 339v181h211v-181h-211zM257 42q0 -104 -60 -157t-169 -61v88q41 5 64.5 27t23.5 61h-70v181h211v-139z" />
    <glyph glyph-name="tonos" unicode="&#x384;" horiz-adv-x="251" 
d="M44 720h181l-65 -147h-134z" />
    <glyph glyph-name="dieresistonos" unicode="&#x385;" horiz-adv-x="453" 
d="M25 585v144h154v-144h-154zM277 585v144h155v-144h-155zM185 901h168l-65 -147h-121z" />
    <glyph glyph-name="Alphatonos" unicode="&#x386;" horiz-adv-x="648" 
d="M432 0l-33 157h-161l-34 -157h-208l220 720h214l221 -720h-219zM274 295h89l-44 244zM-1 720h181l-65 -147h-134z" />
    <glyph glyph-name="anoteleia" unicode="&#x387;" horiz-adv-x="296" 
d="M46 220v175h203v-175h-203z" />
    <glyph glyph-name="Epsilontonos" unicode="&#x388;" horiz-adv-x="704" 
d="M653 294h-237v-148h262v-146h-471v720h471v-148h-262v-140h237v-138zM5 720h181l-65 -147h-134z" />
    <glyph glyph-name="Etatonos" unicode="&#x389;" horiz-adv-x="826" 
d="M781 720v-720h-207v293h-155v-293h-209v720h209v-285h155v285h207zM5 720h181l-65 -147h-134z" />
    <glyph glyph-name="Iotatonos" unicode="&#x38a;" horiz-adv-x="464" 
d="M419 720v-720h-209v720h209zM5 720h181l-65 -147h-134z" />
    <glyph glyph-name="Omicrontonos" unicode="&#x38c;" horiz-adv-x="799" 
d="M447 132q23 0 44 11.5t36.5 38.5t25 70.5t9.5 107.5q0 63 -9 107t-25 71t-36.5 39t-44.5 12q-23 0 -43.5 -11.5t-36.5 -38.5t-25 -71t-9 -109q0 -63 9.5 -106.5t25.5 -70.5t36.5 -38.5t42.5 -11.5zM447 -15q-71 0 -130.5 23.5t-102.5 70t-67 117t-24 163.5q0 92 23.5 162
t66 117.5t102.5 72t132 24.5q70 0 129.5 -22.5t103 -69t68 -117t24.5 -166.5q0 -92 -24.5 -162t-67.5 -117.5t-103 -71.5t-130 -24zM10 720h181l-65 -147h-134z" />
    <glyph glyph-name="Upsilontonos" unicode="&#x38e;" horiz-adv-x="849" 
d="M423 0v288l-226 432h217l113 -270l123 270h199l-227 -432v-288h-199zM2 720h181l-65 -147h-134z" />
    <glyph glyph-name="Omegatonos" unicode="&#x38f;" horiz-adv-x="797" 
d="M471 133q18 0 34 12t28 39t19 70t7 105q0 65 -9 109t-25 71t-36.5 38.5t-44.5 11.5t-45 -11.5t-36.5 -38.5t-24 -71.5t-8.5 -109.5q0 -61 7 -104t19 -70t27.5 -39t33.5 -12v-133h-291v140h87q-42 38 -67.5 99.5t-25.5 141.5q0 89 25.5 155.5t69.5 110.5t103 66t126 22
t126 -21t103.5 -64.5t70 -110t25.5 -157.5q0 -75 -26 -137.5t-70 -104.5h91v-140h-293v133zM10 720h181l-65 -147h-134z" />
    <glyph glyph-name="iotadieresistonos" unicode="&#x390;" horiz-adv-x="262" 
d="M89 901h168l-65 -137h-121zM-27 585v144h137v-144h-137zM152 585v144h138v-144h-138zM34 0v520h194v-520h-194z" />
    <glyph glyph-name="Alpha" unicode="&#x391;" horiz-adv-x="648" 
d="M432 0l-33 157h-161l-34 -157h-208l220 720h214l221 -720h-219zM274 295h89l-44 244z" />
    <glyph glyph-name="Beta" unicode="&#x392;" horiz-adv-x="606" 
d="M273 720q78 0 132 -12t87.5 -35.5t49 -58.5t15.5 -82q0 -50 -29 -91t-83 -58q65 -14 102 -58t37 -113q0 -49 -15 -88.5t-48.5 -67t-88.5 -42t-134 -14.5h-254v720h229zM253 312v-176h47q38 0 56 21t18 66t-19.5 67t-49.5 22h-52zM253 584v-145h37q27 0 43 19t16 56
q0 33 -17 51.5t-44 18.5h-35z" />
    <glyph glyph-name="Gamma" unicode="&#x393;" horiz-adv-x="488" 
d="M485 572h-232v-572h-209v720h441v-148z" />
    <glyph glyph-name="uni0394" unicode="&#x394;" horiz-adv-x="648" 
d="M-4 0l220 720h214l221 -720h-655zM241 138h156l-78 399z" />
    <glyph glyph-name="Epsilon" unicode="&#x395;" horiz-adv-x="541" 
d="M490 294h-237v-148h262v-146h-471v720h471v-148h-262v-140h237v-138z" />
    <glyph glyph-name="Zeta" unicode="&#x396;" horiz-adv-x="561" 
d="M243 145h300v-145h-529v136l304 439h-288v145h517v-134z" />
    <glyph glyph-name="Eta" unicode="&#x397;" horiz-adv-x="660" 
d="M615 720v-720h-207v293h-155v-293h-209v720h209v-285h155v285h207z" />
    <glyph glyph-name="Theta" unicode="&#x398;" horiz-adv-x="703" 
d="M418 294h-135v138h135v-138zM351 132q23 0 44 11.5t36.5 38.5t25 70.5t9.5 107.5q0 63 -9 107t-25 71t-36.5 39t-44.5 12q-23 0 -43.5 -11.5t-36.5 -38.5t-25 -71t-9 -109q0 -63 9.5 -106.5t25.5 -70.5t36.5 -38.5t42.5 -11.5zM351 -15q-71 0 -130.5 23.5t-102.5 70
t-67 117t-24 163.5q0 92 23.5 162t66 117.5t102.5 72t132 24.5q70 0 129.5 -22.5t103 -69t68 -117t24.5 -166.5q0 -92 -24.5 -162t-67.5 -117.5t-103 -71.5t-130 -24z" />
    <glyph glyph-name="Iota" unicode="&#x399;" horiz-adv-x="297" 
d="M253 720v-720h-209v720h209z" />
    <glyph glyph-name="Kappa" unicode="&#x39a;" horiz-adv-x="693" 
d="M439 0l-186 282v-282h-209v720h209v-270l179 270h231l-251 -338l283 -382h-256z" />
    <glyph glyph-name="Lambda" unicode="&#x39b;" horiz-adv-x="642" 
d="M426 0l-110 530l-112 -530h-208l217 720h214l219 -720h-220z" />
    <glyph glyph-name="Mu" unicode="&#x39c;" horiz-adv-x="805" 
d="M322 0l-117 459l10 -323v-136h-171v720h218l137 -517l135 517h226v-720h-177v136l4 323l-118 -459h-147z" />
    <glyph glyph-name="Nu" unicode="&#x39d;" horiz-adv-x="654" 
d="M610 720v-720h-198l-192 427v-427h-176v720h211l179 -407v407h176z" />
    <glyph glyph-name="Xi" unicode="&#x39e;" horiz-adv-x="536" 
d="M509 0h-483v153h483v-153zM509 567h-482v153h482v-153zM435 290h-327v146h327v-146z" />
    <glyph glyph-name="Omicron" unicode="&#x39f;" horiz-adv-x="703" 
d="M351 132q23 0 44 11.5t36.5 38.5t25 70.5t9.5 107.5q0 63 -9 107t-25 71t-36.5 39t-44.5 12q-23 0 -43.5 -11.5t-36.5 -38.5t-25 -71t-9 -109q0 -63 9.5 -106.5t25.5 -70.5t36.5 -38.5t42.5 -11.5zM351 -15q-71 0 -130.5 23.5t-102.5 70t-67 117t-24 163.5q0 92 23.5 162
t66 117.5t102.5 72t132 24.5q70 0 129.5 -22.5t103 -69t68 -117t24.5 -166.5q0 -92 -24.5 -162t-67.5 -117.5t-103 -71.5t-130 -24z" />
    <glyph glyph-name="Pi" unicode="&#x3a0;" horiz-adv-x="660" 
d="M615 720v-720h-207v577h-155v-577h-209v720h571z" />
    <glyph glyph-name="Rho" unicode="&#x3a1;" horiz-adv-x="613" 
d="M291 720q160 0 230 -60.5t70 -184.5q0 -122 -70 -184t-222 -62h-47v-229h-208v720h247zM252 579v-210h48q35 0 58 27t23 79q0 54 -23.5 79t-65.5 25h-40z" />
    <glyph glyph-name="Sigma" unicode="&#x3a3;" horiz-adv-x="558" 
d="M370 313l-119 -168h283v-145h-510v134l156 225l-156 227v134h504v-146h-274l116 -167v-94z" />
    <glyph glyph-name="Tau" unicode="&#x3a4;" horiz-adv-x="559" 
d="M556 569h-174v-569h-209v569h-170v151h553v-151z" />
    <glyph glyph-name="Upsilon" unicode="&#x3a5;" horiz-adv-x="652" 
d="M226 0v288l-226 432h217l113 -270l123 270h199l-227 -432v-288h-199z" />
    <glyph glyph-name="Phi" unicode="&#x3a6;" horiz-adv-x="880" 
d="M339 22q-74 0 -131.5 24.5t-98 68.5t-61.5 106.5t-21 138.5q0 158 81.5 245.5t230.5 92.5v37h201v-37q149 -5 231 -92.5t82 -245.5q0 -157 -82 -245.5t-231 -92.5v-37h-201v37zM648 360q0 97 -29 142t-79 49v-382q48 4 78 49.5t30 141.5zM231 360q0 -96 29.5 -141.5
t77.5 -49.5v382q-48 -5 -77.5 -49.5t-29.5 -141.5z" />
    <glyph glyph-name="Chi" unicode="&#x3a7;" horiz-adv-x="674" 
d="M450 380l221 -380h-239l-106 226l-98 -226h-225l222 373l-208 347h236l96 -198l90 198h215z" />
    <glyph glyph-name="Psi" unicode="&#x3a8;" horiz-adv-x="789" 
d="M239 720v-296q0 -55 10.5 -83.5t47.5 -38.5v418h197v-418q37 11 48.5 39t11.5 83v296h194v-284q0 -61 -12.5 -109.5t-42 -84t-78.5 -58t-121 -30.5v-154h-197v153q-72 8 -121 30.5t-79 58t-43 84.5t-13 110v284h198z" />
    <glyph glyph-name="uni03A9" unicode="&#x3a9;" horiz-adv-x="704" 
d="M379 133q18 0 34 12t28 39t19 70t7 105q0 65 -9 109t-25 71t-36.5 38.5t-44.5 11.5t-45 -11.5t-36.5 -38.5t-24 -71.5t-8.5 -109.5q0 -61 7 -104t19 -70t27.5 -39t33.5 -12v-133h-291v140h87q-42 38 -67.5 99.5t-25.5 141.5q0 89 25.5 155.5t69.5 110.5t103 66t126 22
t126 -21t103.5 -64.5t70 -110t25.5 -157.5q0 -75 -26 -137.5t-70 -104.5h91v-140h-293v133z" />
    <glyph glyph-name="Iotadieresis" unicode="&#x3aa;" horiz-adv-x="297" 
d="M253 720v-720h-209v720h209zM-38 781v144h167v-144h-167zM171 781v144h168v-144h-168z" />
    <glyph glyph-name="Upsilondieresis" unicode="&#x3ab;" horiz-adv-x="652" 
d="M226 0v288l-226 432h217l113 -270l123 270h199l-227 -432v-288h-199zM136 781v144h167v-144h-167zM345 781v144h168v-144h-168z" />
    <glyph glyph-name="alphatonos" unicode="&#x3ac;" horiz-adv-x="563" 
d="M376 0l-29 63q-25 -34 -56.5 -56t-74.5 -22q-89 0 -141.5 69.5t-52.5 200.5q0 139 53.5 209.5t141.5 70.5q47 0 76.5 -18.5t52.5 -50.5l30 54h153v-520h-153zM215 256q0 -73 16 -103t46 -30q29 0 45.5 31t16.5 103q0 78 -15.5 109t-45.5 31q-29 0 -46 -32.5t-17 -108.5z
M234 720h181l-65 -147h-134z" />
    <glyph glyph-name="epsilontonos" unicode="&#x3ad;" horiz-adv-x="515" 
d="M201 720h181l-65 -147h-134zM244 535q54 0 97 -13t74.5 -37t51 -57t27.5 -72h-184q-6 52 -52 52q-17 0 -25.5 -11t-8.5 -29q0 -45 49 -45h23v-109h-15q-38 0 -51.5 -14t-13.5 -35q0 -49 40 -49q42 0 54 64h185q-10 -42 -29.5 -78t-49.5 -62t-72 -40.5t-97 -14.5
q-61 0 -104 12.5t-70.5 34.5t-40 52t-12.5 64q0 49 30 84.5t84 43.5q-51 14 -76 45.5t-25 79.5q0 27 12 51.5t37.5 43t65.5 29t96 10.5z" />
    <glyph glyph-name="etatonos" unicode="&#x3ae;" horiz-adv-x="539" 
d="M34 520h164l14 -56q26 38 59 54.5t78 16.5q75 0 117.5 -48t42.5 -154v-513h-193v513q0 42 -9.5 55.5t-28.5 13.5q-23 0 -37.5 -20t-14.5 -71v-311h-192v520zM204 720h181l-65 -147h-134z" />
    <glyph glyph-name="iotatonos" unicode="&#x3af;" horiz-adv-x="262" 
d="M77 720h181l-65 -147h-134zM34 0v520h194v-520h-194z" />
    <glyph glyph-name="upsilondieresistonos" unicode="&#x3b0;" horiz-adv-x="526" 
d="M264 -15q-124 0 -179 53t-55 154v328h192v-332q0 -43 10.5 -56.5t31.5 -13.5q23 0 32 14t9 56v332h192v-328q0 -99 -56.5 -153t-176.5 -54zM59 585v144h154v-144h-154zM311 585v144h155v-144h-155zM219 901h168l-65 -147h-121z" />
    <glyph glyph-name="alpha" unicode="&#x3b1;" horiz-adv-x="563" 
d="M376 0l-29 63q-25 -34 -56.5 -56t-74.5 -22q-89 0 -141.5 69.5t-52.5 200.5q0 139 53.5 209.5t141.5 70.5q47 0 76.5 -18.5t52.5 -50.5l30 54h153v-520h-153zM215 256q0 -73 16 -103t46 -30q29 0 45.5 31t16.5 103q0 78 -15.5 109t-45.5 31q-29 0 -46 -32.5t-17 -108.5z
" />
    <glyph glyph-name="beta" unicode="&#x3b2;" horiz-adv-x="535" 
d="M361 -15q-46 0 -79 19t-53 51v-235h-195v694q0 103 55 162t174 59q124 0 179.5 -47.5t55.5 -129.5q0 -59 -32 -103.5t-91 -56.5q30 -4 55 -19.5t42.5 -41t27.5 -59t10 -72.5q0 -116 -38 -168.5t-111 -52.5zM322 230q0 32 -3 52.5t-9 32t-14 15.5t-18 4h-16v113h14
q16 0 27 19t11 69q0 36 -11.5 50.5t-30.5 14.5q-23 0 -33 -19t-10 -78v-239q0 -43 3.5 -70.5t9.5 -43t15 -21.5t20 -6q23 0 34 22.5t11 84.5z" />
    <glyph glyph-name="gamma" unicode="&#x3b3;" horiz-adv-x="532" 
d="M170 -180v180l-174 520h208l68 -352l64 352h199l-172 -520v-180h-193z" />
    <glyph glyph-name="delta" unicode="&#x3b4;" horiz-adv-x="525" 
d="M120 720h345v-125h-128q34 -16 64 -46t52.5 -69t35.5 -84t13 -91q0 -154 -58 -237t-177 -83q-118 0 -181.5 62.5t-63.5 183.5q0 60 13 107t36 79.5t55.5 49.5t70.5 17q26 0 47.5 -7.5t35.5 -21.5q-20 69 -63 109.5t-97 51.5v104zM263 354q-11 0 -18.5 -5.5t-12.5 -19
t-7.5 -37t-2.5 -59.5q0 -35 2.5 -57.5t8 -36t13.5 -18.5t19 -5q10 0 17 5t12 19.5t7.5 41.5t2.5 71q0 59 -11 80t-30 21z" />
    <glyph glyph-name="epsilon" unicode="&#x3b5;" horiz-adv-x="515" 
d="M244 535q54 0 97 -13t74.5 -37t51 -57t27.5 -72h-184q-6 52 -52 52q-17 0 -25.5 -11t-8.5 -29q0 -45 49 -45h23v-109h-15q-38 0 -51.5 -14t-13.5 -35q0 -49 40 -49q42 0 54 64h185q-10 -42 -29.5 -78t-49.5 -62t-72 -40.5t-97 -14.5q-61 0 -104 12.5t-70.5 34.5t-40 52
t-12.5 64q0 49 30 84.5t84 43.5q-51 14 -76 45.5t-25 79.5q0 27 12 51.5t37.5 43t65.5 29t96 10.5z" />
    <glyph glyph-name="zeta" unicode="&#x3b6;" horiz-adv-x="470" 
d="M421 614q-62 -32 -102 -69t-63.5 -78t-33 -86.5t-9.5 -94.5q0 -70 27.5 -120.5t86.5 -70.5q37 -13 62 -26.5t40 -30t21.5 -36.5t6.5 -46q0 -22 -9 -47t-25 -50t-37 -47.5t-45 -38.5l-103 83q14 17 24 33t10 33q0 18 -11.5 31t-49.5 24q-94 29 -141.5 104t-47.5 184
q0 47 10 92.5t31.5 87.5t55 79.5t81.5 69.5h-162v126h383v-106z" />
    <glyph glyph-name="eta" unicode="&#x3b7;" horiz-adv-x="539" 
d="M34 520h164l14 -56q26 38 59 54.5t78 16.5q75 0 117.5 -48t42.5 -154v-513h-193v513q0 42 -9.5 55.5t-28.5 13.5q-23 0 -37.5 -20t-14.5 -71v-311h-192v520z" />
    <glyph glyph-name="theta" unicode="&#x3b8;" horiz-adv-x="536" 
d="M268 -15q-121 0 -183.5 91t-62.5 283q0 195 62 285.5t184 90.5q121 0 183.5 -90.5t62.5 -285.5q0 -192 -62.5 -283t-183.5 -91zM268 115q12 0 20 7t14 27t9.5 56.5t5.5 95.5h-97q2 -59 5.5 -95.5t9.5 -56.5t14 -27t19 -7zM268 607q-12 0 -20 -7.5t-13.5 -27t-9 -55
t-5.5 -90.5h96q-2 55 -5.5 90.5t-9 55t-14 27t-19.5 7.5z" />
    <glyph glyph-name="iota" unicode="&#x3b9;" horiz-adv-x="262" 
d="M34 0v520h194v-520h-194z" />
    <glyph glyph-name="kappa" unicode="&#x3ba;" horiz-adv-x="566" 
d="M34 0v520h192v-189l138 189h196l-187 -235l197 -285h-216l-128 206v-206h-192z" />
    <glyph glyph-name="lambda" unicode="&#x3bb;" horiz-adv-x="537" 
d="M341 0l-76 376l-68 -376h-201l168 520h47q-8 48 -22.5 65.5t-38.5 17.5q-10 0 -24.5 -2.5t-38.5 -8.5v129q58 14 100 14q36 0 62.5 -9.5t48.5 -34t41 -66.5t39 -106l162 -519h-199z" />
    <glyph glyph-name="uni03BC" unicode="&#x3bc;" horiz-adv-x="536" 
d="M226 520v-343q0 -35 10 -47.5t29 -12.5q20 0 32.5 21.5t12.5 74.5v307h192v-520h-163l-14 53q-17 -26 -43.5 -39.5t-55.5 -22.5v-171h-193v700h193z" />
    <glyph glyph-name="nu" unicode="&#x3bd;" horiz-adv-x="532" 
d="M535 520l-161 -520h-217l-161 520h208l67 -354l65 354h199z" />
    <glyph glyph-name="xi" unicode="&#x3be;" horiz-adv-x="487" 
d="M21 192q0 33 8.5 61.5t23 50.5t34.5 36t43 18q-49 11 -72.5 40.5t-23.5 73.5q0 42 27.5 75.5t91.5 48.5h-109v124h381v-106h-32q-79 0 -123.5 -34t-44.5 -90q0 -38 17 -57.5t69 -19.5h46v-125h-36q-33 0 -54.5 -6t-33.5 -16.5t-17 -26t-5 -33.5q0 -35 18.5 -60t69.5 -39
q50 -14 83 -29t52 -33.5t26.5 -40.5t7.5 -50q0 -21 -9.5 -44.5t-25.5 -47.5t-37 -47t-43 -42l-101 83q14 17 24 33.5t10 33.5q0 10 -3 17.5t-11 13.5t-23 11.5t-39 10.5q-98 20 -143.5 78t-45.5 138z" />
    <glyph glyph-name="omicron" unicode="&#x3bf;" horiz-adv-x="556" 
d="M22 262q0 135 64.5 204t191.5 69q124 0 190 -68.5t66 -204.5q0 -134 -65.5 -205.5t-190.5 -71.5t-190.5 70.5t-65.5 206.5zM219 262q0 -45 3.5 -74t10.5 -45.5t18.5 -23t27.5 -6.5t27.5 5.5t18.5 22t10 45.5t3 76q0 46 -3.5 74t-11 44t-18.5 21.5t-27 5.5t-27.5 -6
t-18.5 -21.5t-10 -44t-3 -73.5z" />
    <glyph glyph-name="pi" unicode="&#x3c0;" horiz-adv-x="526" 
d="M488 389v-389h-189v389h-71v-389h-189v389h-31v131h510v-131h-30z" />
    <glyph glyph-name="rho" unicode="&#x3c1;" horiz-adv-x="562" 
d="M348 -15q-72 0 -125 55v-220h-193v443q0 138 57.5 205t189.5 67q129 0 196 -70.5t67 -198.5q0 -140 -52 -210.5t-140 -70.5zM348 264q0 39 -4.5 64.5t-13 41t-20.5 22t-28 6.5q-29 0 -45.5 -29t-16.5 -103q0 -42 4.5 -70t12.5 -44.5t20 -23t26 -6.5q30 0 47.5 31
t17.5 111z" />
    <glyph glyph-name="sigma1" unicode="&#x3c2;" horiz-adv-x="539" 
d="M331 115q48 -13 80.5 -28.5t52.5 -35t28.5 -43.5t8.5 -54q0 -21 -8 -44t-22.5 -46.5t-34 -46t-42.5 -41.5l-100 84q15 17 23 33.5t8 34.5q0 21 -15 34t-55 20q-64 10 -108.5 31t-72 54t-40 79.5t-12.5 108.5q0 134 63.5 207t187.5 73q52 0 94.5 -14t74 -40t51.5 -62.5
t27 -81.5h-197q-3 37 -16.5 53t-33.5 16q-13 0 -23 -6t-17 -22.5t-10.5 -44.5t-3.5 -71q0 -34 5 -58t17.5 -40.5t34 -28t55.5 -20.5z" />
    <glyph glyph-name="sigma" unicode="&#x3c3;" horiz-adv-x="561" 
d="M502 389q15 -27 23.5 -62t8.5 -72q0 -62 -16.5 -112t-48.5 -85t-80 -54t-111 -19q-129 0 -192.5 70t-63.5 207q0 134 63.5 203.5t191.5 69.5q50 0 92 -15h182v-134zM219 262q0 -46 3.5 -75t10.5 -45.5t18.5 -22.5t27.5 -6t27.5 6t18.5 22.5t10 45t3 74.5q0 60 -8 92.5
t-21 46.5q-14 7 -31 7q-16 0 -27.5 -5.5t-18.5 -21t-10 -44t-3 -74.5z" />
    <glyph glyph-name="tau" unicode="&#x3c4;" horiz-adv-x="464" 
d="M5 520h453v-131h-130v-389h-193v389h-130v131z" />
    <glyph glyph-name="upsilon" unicode="&#x3c5;" horiz-adv-x="526" 
d="M264 -15q-124 0 -179 53t-55 154v328h192v-332q0 -43 10.5 -56.5t31.5 -13.5q23 0 32 14t9 56v332h192v-328q0 -99 -56.5 -153t-176.5 -54z" />
    <glyph glyph-name="phi" unicode="&#x3c6;" horiz-adv-x="752" 
d="M213 270q0 -64 14 -92.5t45 -38.5v129q0 71 12 121.5t39 83t70 47.5t105 15q115 0 173.5 -61t58.5 -188q0 -138 -63 -210t-205 -87v-169h-190v169q-70 7 -117.5 28t-77 53t-42.5 76t-13 98q0 73 9.5 138.5t32.5 137.5h188q-20 -70 -29.5 -136t-9.5 -114zM462 138
q42 10 61 42t19 100q0 36 -2.5 59t-7.5 36t-13 18t-18 5t-17 -4.5t-12 -18t-7.5 -38t-2.5 -63.5v-136z" />
    <glyph glyph-name="chi" unicode="&#x3c7;" horiz-adv-x="550" 
d="M376 181l177 -361h-218l-71 226l-72 -226h-196l175 359l-167 341h211l65 -215l57 215h194z" />
    <glyph glyph-name="psi" unicode="&#x3c8;" horiz-adv-x="738" 
d="M216 520v-260q0 -60 14 -86.5t47 -36.5v383h185v-382q35 10 51 36t16 86v260h180v-248q0 -137 -59 -203t-188 -79v-170h-185v169q-65 7 -112 26.5t-77 53.5t-44 84t-14 119v248h186z" />
    <glyph glyph-name="omega" unicode="&#x3c9;" horiz-adv-x="728" 
d="M364 130q-18 -145 -162 -145q-86 0 -133 57t-47 163q0 91 13.5 166t38.5 149h180q-21 -70 -33.5 -147t-12.5 -158q0 -58 10 -77.5t27 -19.5q16 0 28 19.5t12 75.5v167h158v-167q0 -56 11.5 -75.5t28.5 -19.5t27 19.5t10 77.5q0 81 -12.5 158t-34.5 147h181
q25 -74 38.5 -149t13.5 -166q0 -106 -47 -163t-133 -57q-144 0 -162 145z" />
    <glyph glyph-name="iotadieresis" unicode="&#x3ca;" horiz-adv-x="262" 
d="M-27 585v144h137v-144h-137zM152 585v144h138v-144h-138zM34 0v520h194v-520h-194z" />
    <glyph glyph-name="upsilondieresis" unicode="&#x3cb;" horiz-adv-x="526" 
d="M264 -15q-124 0 -179 53t-55 154v328h192v-332q0 -43 10.5 -56.5t31.5 -13.5q23 0 32 14t9 56v332h192v-328q0 -99 -56.5 -153t-176.5 -54zM74 585v144h167v-144h-167zM283 585v144h168v-144h-168z" />
    <glyph glyph-name="omicrontonos" unicode="&#x3cc;" horiz-adv-x="556" 
d="M22 262q0 135 64.5 204t191.5 69q124 0 190 -68.5t66 -204.5q0 -134 -65.5 -205.5t-190.5 -71.5t-190.5 70.5t-65.5 206.5zM219 262q0 -45 3.5 -74t10.5 -45.5t18.5 -23t27.5 -6.5t27.5 5.5t18.5 22t10 45.5t3 76q0 46 -3.5 74t-11 44t-18.5 21.5t-27 5.5t-27.5 -6
t-18.5 -21.5t-10 -44t-3 -73.5zM222 720h181l-65 -147h-134z" />
    <glyph glyph-name="upsilontonos" unicode="&#x3cd;" horiz-adv-x="526" 
d="M220 720h181l-65 -147h-134zM264 -15q-124 0 -179 53t-55 154v328h192v-332q0 -43 10.5 -56.5t31.5 -13.5q23 0 32 14t9 56v332h192v-328q0 -99 -56.5 -153t-176.5 -54z" />
    <glyph glyph-name="omegatonos" unicode="&#x3ce;" horiz-adv-x="728" 
d="M364 130q-18 -145 -162 -145q-86 0 -133 57t-47 163q0 91 13.5 166t38.5 149h180q-21 -70 -33.5 -147t-12.5 -158q0 -58 10 -77.5t27 -19.5q16 0 28 19.5t12 75.5v167h158v-167q0 -56 11.5 -75.5t28.5 -19.5t27 19.5t10 77.5q0 81 -12.5 158t-34.5 147h181
q25 -74 38.5 -149t13.5 -166q0 -106 -47 -163t-133 -57q-144 0 -162 145zM322 720h181l-65 -147h-134z" />
    <glyph glyph-name="uni0400" unicode="&#x400;" horiz-adv-x="541" 
d="M490 294h-237v-148h262v-146h-471v720h471v-148h-262v-140h237v-138zM371 774h-137l-144 154h187z" />
    <glyph glyph-name="afii10023" unicode="&#x401;" horiz-adv-x="541" 
d="M490 294h-237v-148h262v-146h-471v720h471v-148h-262v-140h237v-138zM88 781v144h167v-144h-167zM297 781v144h168v-144h-168z" />
    <glyph glyph-name="afii10051" unicode="&#x402;" horiz-adv-x="756" 
d="M159 0v569h-156v151h524v-151h-159v-128q34 34 74 52t87 18q51 0 88.5 -14t63 -45t38 -81t12.5 -123v-84q0 -83 -42.5 -131t-139.5 -48q-26 0 -51 3.5t-44 9.5v135q22 -7 39 -7q16 0 22.5 9.5t6.5 35.5v90q0 60 -16.5 82.5t-50.5 22.5q-45 0 -66 -33t-21 -88v-245h-209z
" />
    <glyph glyph-name="afii10052" unicode="&#x403;" horiz-adv-x="488" 
d="M485 572h-232v-572h-209v720h441v-148zM244 929h186l-144 -154h-137z" />
    <glyph glyph-name="afii10053" unicode="&#x404;" horiz-adv-x="667" 
d="M345 128q19 0 34.5 7.5t26.5 24t17.5 43.5t9.5 67h211q-38 -285 -308 -285q-70 0 -127 23.5t-97.5 71t-62.5 118t-22 164.5q0 182 80 277.5t233 95.5q59 0 109.5 -17.5t89 -51t64 -81.5t36.5 -108h-208q-11 64 -33.5 89.5t-56.5 25.5q-40 0 -63 -34.5t-30 -120.5h127
v-139h-128q4 -48 12 -80.5t20.5 -52.5t29 -28.5t36.5 -8.5z" />
    <glyph glyph-name="afii10054" unicode="&#x405;" horiz-adv-x="623" 
d="M318 -15q-141 0 -214.5 62t-87.5 174h200q6 -45 30 -69.5t72 -24.5q44 0 62 17t18 48q0 17 -5 30t-18.5 24.5t-38 22t-63.5 22.5q-65 19 -110 42t-72.5 51.5t-39.5 64t-12 79.5q0 46 15 84.5t47 65.5t82.5 42t121.5 15q123 0 196.5 -59t88.5 -160h-195q-9 78 -85 78
q-34 0 -48 -15t-14 -41q0 -29 20.5 -47t75.5 -33q71 -20 121 -44.5t81.5 -54.5t46 -67t14.5 -81q0 -47 -15.5 -88t-50 -71.5t-89.5 -48.5t-134 -18z" />
    <glyph glyph-name="afii10055" unicode="&#x406;" horiz-adv-x="297" 
d="M253 720v-720h-209v720h209z" />
    <glyph glyph-name="afii10056" unicode="&#x407;" horiz-adv-x="297" 
d="M253 720v-720h-209v720h209zM-38 781v144h167v-144h-167zM171 781v144h168v-144h-168z" />
    <glyph glyph-name="afii10057" unicode="&#x408;" horiz-adv-x="528" 
d="M210 212q3 -50 14 -66.5t28 -16.5q8 0 14 3.5t10.5 12.5t7 25t2.5 41v509h202v-486q0 -57 -13 -103.5t-41 -78.5t-71.5 -49.5t-104.5 -17.5q-112 0 -174.5 59.5t-73.5 167.5h200z" />
    <glyph glyph-name="afii10058" unicode="&#x409;" horiz-adv-x="977" 
d="M614 490h39q80 0 137 -15t93 -45.5t53 -76.5t17 -108q0 -120 -70 -182.5t-222 -62.5h-255v583h-125q-7 -98 -14 -195t-15 -194q-4 -51 -19 -88t-44.5 -60.5t-75 -34.5t-110.5 -11v133q14 0 24.5 2.5t18 11t12 23.5t6.5 39q9 128 18 255t19 256h513v-230zM614 349v-209h49
q35 0 57.5 27t22.5 78q0 54 -23 79t-65 25h-41z" />
    <glyph glyph-name="afii10059" unicode="&#x40a;" horiz-adv-x="973" 
d="M610 720v-259h40q80 0 137 -13.5t93 -41.5t52.5 -70t16.5 -100q0 -112 -68.5 -174t-223.5 -62h-255v320h-150v-320h-208v720h208v-259h150v259h208zM610 320v-180h48q35 0 58 24.5t23 70.5q0 45 -21.5 65t-66.5 20h-41z" />
    <glyph glyph-name="afii10060" unicode="&#x40b;" horiz-adv-x="756" 
d="M159 0v569h-156v151h524v-151h-159v-126q34 33 75 50.5t87 17.5q51 0 88.5 -13.5t62.5 -44.5t37.5 -81.5t12.5 -123.5v-248h-209v263q0 59 -17 81t-50 22q-42 0 -64.5 -30t-22.5 -90v-246h-209z" />
    <glyph glyph-name="afii10061" unicode="&#x40c;" horiz-adv-x="693" 
d="M332 928h186l-144 -154h-137zM452 0l-169 293h-28v-293h-209v720h209v-286h24l167 286h218l-218 -339l249 -381h-243z" />
    <glyph glyph-name="uni040D" unicode="&#x40d;" horiz-adv-x="656" 
d="M612 720v-720h-208v384l-150 -335v-49h-210v720h210v-385l150 336v49h208zM426 774h-137l-144 154h187z" />
    <glyph glyph-name="afii10062" unicode="&#x40e;" horiz-adv-x="581" 
d="M292 770q-32 0 -59.5 7t-48.5 23t-34.5 41t-16.5 63h135q2 -18 8 -25t16 -7q8 0 14.5 7t8.5 25h135q-6 -38 -20.5 -63.5t-35.5 -41t-47.5 -22.5t-54.5 -7zM407 185q-18 -54 -37.5 -92t-43.5 -62t-54 -35t-68 -11q-21 0 -49 4t-56 11v134q22 -7 41 -10t30 -3
q19 0 30.5 11.5t19.5 46.5h-50q-43 136 -85.5 270t-84.5 271h206l85 -397l89 397h201z" />
    <glyph glyph-name="afii10145" unicode="&#x40f;" horiz-adv-x="659" 
d="M425 0v-140h-192v140h-189v720h208v-577h155v577h208v-720h-190z" />
    <glyph glyph-name="afii10017" unicode="&#x410;" horiz-adv-x="648" 
d="M432 0l-33 157h-161l-34 -157h-208l220 720h214l221 -720h-219zM274 295h89l-44 244z" />
    <glyph glyph-name="afii10018" unicode="&#x411;" horiz-adv-x="615" 
d="M482 573h-230v-83h39q80 0 137 -15t93 -45.5t53 -76.5t17 -108q0 -120 -70 -182.5t-222 -62.5h-255v720h438v-147zM252 349v-209h49q35 0 57.5 27t22.5 78q0 54 -23 79t-65 25h-41z" />
    <glyph glyph-name="afii10019" unicode="&#x412;" horiz-adv-x="606" 
d="M273 720q78 0 132 -12t87.5 -35.5t49 -58.5t15.5 -82q0 -50 -29 -91t-83 -58q65 -14 102 -58t37 -113q0 -49 -15 -88.5t-48.5 -67t-88.5 -42t-134 -14.5h-254v720h229zM253 312v-176h47q38 0 56 21t18 66t-19.5 67t-49.5 22h-52zM253 584v-145h37q27 0 43 19t16 56
q0 33 -17 51.5t-44 18.5h-35z" />
    <glyph glyph-name="afii10020" unicode="&#x413;" horiz-adv-x="488" 
d="M485 572h-232v-572h-209v720h441v-148z" />
    <glyph glyph-name="afii10021" unicode="&#x414;" horiz-adv-x="684" 
d="M624 720v-580h70v-280h-187v140h-332v-140h-186v280h62q16 17 24 43t10 68l26 469h513zM278 301q-2 -56 -19.5 -94t-50.5 -67h213v439h-129z" />
    <glyph glyph-name="afii10022" unicode="&#x415;" horiz-adv-x="541" 
d="M490 294h-237v-148h262v-146h-471v720h471v-148h-262v-140h237v-138z" />
    <glyph glyph-name="afii10024" unicode="&#x416;" horiz-adv-x="992" 
d="M245 720l128 -286h18v286h209v-286h18l128 286h216l-173 -342l204 -378h-237l-132 293h-24v-293h-209v293h-24l-131 -293h-237l203 378l-173 342h216z" />
    <glyph glyph-name="afii10025" unicode="&#x417;" horiz-adv-x="599" 
d="M298 128q65 0 65 92q0 47 -19 68.5t-57 21.5h-61v127h58q37 0 53.5 20t16.5 63q0 73 -56 73q-53 0 -67 -65h-201q6 45 27 82.5t56 65.5t84 43.5t111 15.5q123 0 190 -50t67 -138q0 -60 -28 -103t-82 -62q54 -14 88 -61t34 -112q0 -48 -18 -89t-52.5 -71t-86 -47
t-117.5 -17q-63 0 -114 17t-87.5 47t-58 70t-24.5 86h207q2 -37 18.5 -57t53.5 -20z" />
    <glyph glyph-name="afii10026" unicode="&#x418;" horiz-adv-x="656" 
d="M612 720v-720h-208v384l-150 -335v-49h-210v720h210v-385l150 336v49h208z" />
    <glyph glyph-name="afii10027" unicode="&#x419;" horiz-adv-x="656" 
d="M324 760q-32 0 -59.5 7t-48.5 23t-34.5 41t-16.5 63h135q2 -18 8 -25t16 -7q8 0 14.5 7t8.5 25h135q-6 -38 -20.5 -63.5t-35.5 -41t-47.5 -22.5t-54.5 -7zM612 720v-720h-208v384l-150 -335v-49h-210v720h210v-385l150 336v49h208z" />
    <glyph glyph-name="afii10028" unicode="&#x41a;" horiz-adv-x="691" 
d="M450 0l-169 293h-28v-293h-209v720h209v-286h24l167 286h218l-218 -339l249 -381h-243z" />
    <glyph glyph-name="afii10029" unicode="&#x41b;" horiz-adv-x="659" 
d="M614 720v-720h-201v580h-134l-28 -378q-4 -50 -18 -87.5t-42.5 -63t-74.5 -38.5t-113 -13v133q15 0 26 3t18.5 11.5t11 23.5t5.5 38l37 511h513z" />
    <glyph glyph-name="afii10030" unicode="&#x41c;" horiz-adv-x="805" 
d="M322 0l-117 459l10 -323v-136h-171v720h218l137 -517l135 517h226v-720h-177v136l4 323l-118 -459h-147z" />
    <glyph glyph-name="afii10031" unicode="&#x41d;" horiz-adv-x="660" 
d="M615 720v-720h-207v293h-155v-293h-209v720h209v-285h155v285h207z" />
    <glyph glyph-name="afii10032" unicode="&#x41e;" horiz-adv-x="703" 
d="M351 132q23 0 44 11.5t36.5 38.5t25 70.5t9.5 107.5q0 63 -9 107t-25 71t-36.5 39t-44.5 12q-23 0 -43.5 -11.5t-36.5 -38.5t-25 -71t-9 -109q0 -63 9.5 -106.5t25.5 -70.5t36.5 -38.5t42.5 -11.5zM351 -15q-71 0 -130.5 23.5t-102.5 70t-67 117t-24 163.5q0 92 23.5 162
t66 117.5t102.5 72t132 24.5q70 0 129.5 -22.5t103 -69t68 -117t24.5 -166.5q0 -92 -24.5 -162t-67.5 -117.5t-103 -71.5t-130 -24z" />
    <glyph glyph-name="afii10033" unicode="&#x41f;" horiz-adv-x="660" 
d="M615 720v-720h-207v577h-155v-577h-209v720h571z" />
    <glyph glyph-name="afii10034" unicode="&#x420;" horiz-adv-x="613" 
d="M291 720q160 0 230 -60.5t70 -184.5q0 -122 -70 -184t-222 -62h-47v-229h-208v720h247zM252 579v-210h48q35 0 58 27t23 79q0 54 -23.5 79t-65.5 25h-40z" />
    <glyph glyph-name="afii10035" unicode="&#x421;" horiz-adv-x="669" 
d="M345 128q41 0 63 34.5t27 113.5h210q-18 -148 -94.5 -219.5t-208.5 -71.5q-152 0 -233 93.5t-81 286.5q0 181 81.5 275.5t233.5 94.5q121 0 198.5 -67.5t99.5 -196.5h-208q-11 66 -33.5 93.5t-56.5 27.5q-23 0 -41.5 -12t-31.5 -39t-19.5 -71t-6.5 -108q0 -66 7 -111
t20.5 -72t32 -39t41.5 -12z" />
    <glyph glyph-name="afii10036" unicode="&#x422;" horiz-adv-x="559" 
d="M556 569h-174v-569h-209v569h-170v151h553v-151z" />
    <glyph glyph-name="afii10037" unicode="&#x423;" horiz-adv-x="581" 
d="M407 185q-18 -54 -37.5 -92t-43.5 -62t-54 -35t-68 -11q-21 0 -49 4t-56 11v134q22 -7 41 -10t30 -3q19 0 30.5 11.5t19.5 46.5h-50q-43 136 -85.5 270t-84.5 271h206l85 -397l89 397h201z" />
    <glyph glyph-name="afii10038" unicode="&#x424;" horiz-adv-x="880" 
d="M339 22q-74 0 -131.5 24.5t-98 68.5t-61.5 106.5t-21 138.5q0 158 81.5 245.5t230.5 92.5v37h201v-37q149 -5 231 -92.5t82 -245.5q0 -157 -82 -245.5t-231 -92.5v-37h-201v37zM648 360q0 97 -29 142t-79 49v-382q48 4 78 49.5t30 141.5zM231 360q0 -96 29.5 -141.5
t77.5 -49.5v382q-48 -5 -77.5 -49.5t-29.5 -141.5z" />
    <glyph glyph-name="afii10039" unicode="&#x425;" horiz-adv-x="674" 
d="M450 380l221 -380h-239l-106 226l-98 -226h-225l222 373l-208 347h236l96 -198l90 198h215z" />
    <glyph glyph-name="afii10040" unicode="&#x426;" horiz-adv-x="678" 
d="M253 144h155v576h207v-577h74v-283h-193v140h-452v720h209v-576z" />
    <glyph glyph-name="afii10041" unicode="&#x427;" horiz-adv-x="648" 
d="M603 720v-720h-208v272q-32 -34 -71.5 -51.5t-81.5 -17.5q-108 0 -159 61t-51 201v255h209v-267q0 -31 4 -51t12.5 -32t21.5 -17t31 -5q36 0 60.5 30t24.5 89v253h208z" />
    <glyph glyph-name="afii10042" unicode="&#x428;" horiz-adv-x="864" 
d="M44 0v720h207v-576h79v576h204v-576h79v576h207v-720h-776z" />
    <glyph glyph-name="afii10043" unicode="&#x429;" horiz-adv-x="883" 
d="M44 0v720h208v-576h77v576h205v-576h79v576h207v-577h74v-283h-194v140h-656z" />
    <glyph glyph-name="afii10044" unicode="&#x42a;" horiz-adv-x="758" 
d="M9 720h387v-230h39q80 0 136.5 -15t92.5 -45.5t53 -76.5t17 -108q0 -120 -69.5 -182.5t-221.5 -62.5h-256v571h-178v149zM396 349v-209h49q35 0 57.5 27t22.5 78q0 54 -23.5 79t-65.5 25h-40z" />
    <glyph glyph-name="afii10045" unicode="&#x42b;" horiz-adv-x="880" 
d="M836 720v-720h-209v720h209zM252 490h39q80 0 137 -15t93 -45.5t53 -76.5t17 -108q0 -120 -70 -182.5t-222 -62.5h-255v720h208v-230zM252 349v-209h49q35 0 57.5 27t22.5 78q0 54 -23 79t-65 25h-41z" />
    <glyph glyph-name="afii10046" unicode="&#x42c;" horiz-adv-x="615" 
d="M252 490h39q80 0 137 -15t93 -45.5t53 -76.5t17 -108q0 -120 -70 -182.5t-222 -62.5h-255v720h208v-230zM252 349v-209h49q35 0 57.5 27t22.5 78q0 54 -23 79t-65 25h-41z" />
    <glyph glyph-name="afii10047" unicode="&#x42d;" horiz-adv-x="668" 
d="M293 437h126q-5 82 -28 118.5t-62 36.5q-38 0 -59.5 -26.5t-33.5 -88.5h-208q22 123 101 190.5t203 67.5q153 0 231 -95.5t78 -277.5q0 -90 -20.5 -160t-59.5 -118.5t-96 -73.5t-130 -25q-140 0 -217 72t-95 213h208q7 -76 31.5 -109t66.5 -33t65 39.5t27 130.5h-128v139
z" />
    <glyph glyph-name="afii10048" unicode="&#x42e;" horiz-adv-x="981" 
d="M638 -15q-63 0 -116.5 20t-94 59t-67 96.5t-35.5 132.5h-72v-293h-209v720h209v-285h74q10 74 37.5 130t68 94t92.5 57t112 19q68 0 126 -22.5t100.5 -69t66.5 -117t24 -166.5q0 -91 -23 -161t-65 -117.5t-100 -72t-128 -24.5zM638 132q22 0 41.5 12t33.5 39t22.5 70.5
t8.5 106.5q0 61 -8.5 104.5t-22.5 71t-33.5 40.5t-41.5 13q-47 0 -76 -53.5t-29 -176.5q0 -64 9 -107.5t23.5 -70t33.5 -38t39 -11.5z" />
    <glyph glyph-name="afii10049" unicode="&#x42f;" horiz-adv-x="646" 
d="M0 0l167 288q-56 26 -85 75t-29 120q0 109 70.5 173t222.5 64h256v-720h-209v250h-42l-128 -250h-223zM268 481q0 -42 20.5 -65.5t59.5 -23.5h45v186h-37q-88 0 -88 -97z" />
    <glyph glyph-name="afii10065" unicode="&#x430;" horiz-adv-x="514" 
d="M27 365q23 85 80.5 127.5t154.5 42.5q106 0 164 -51.5t58 -148.5v-335h-147q-5 14 -11.5 27.5t-11.5 27.5q-26 -34 -60 -52t-81 -18q-74 0 -116 41t-42 113q0 31 9 58.5t31.5 50t60.5 39t95 27.5l81 15v22q0 35 -10 45.5t-24 10.5q-16 0 -26 -9.5t-15 -32.5h-190z
M236 111q31 0 43.5 27.5t12.5 73.5v17q-53 -13 -73 -27.5t-20 -44.5q0 -46 37 -46z" />
    <glyph glyph-name="afii10066" unicode="&#x431;" horiz-adv-x="550" 
d="M200 442q18 26 52.5 41.5t73.5 15.5q90 0 146 -63.5t56 -190.5q0 -126 -64 -193t-188 -67q-65 0 -112.5 17.5t-79 54.5t-47 95t-15.5 140q0 86 13.5 150t38 108.5t58.5 70.5t74 36q67 16 91.5 29.5t24.5 33.5h194q-1 -27 -11 -48.5t-32.5 -39.5t-59.5 -33.5t-92 -30.5
q-58 -17 -85.5 -45t-35.5 -81zM216 245q0 -40 4 -65.5t11.5 -40.5t18 -20.5t24.5 -5.5q15 0 26 5.5t18 20t10.5 40t3.5 66.5q0 39 -4 63.5t-11.5 38.5t-18 19.5t-24.5 5.5t-25 -5.5t-18.5 -20t-11 -39t-3.5 -62.5z" />
    <glyph glyph-name="afii10067" unicode="&#x432;" horiz-adv-x="532" 
d="M34 0v520h252q60 0 101 -9t66 -25.5t36 -40.5t11 -54q0 -42 -26.5 -74.5t-89.5 -43.5q69 -9 100 -41t31 -81q0 -69 -51.5 -110t-168.5 -41h-261zM226 211v-91h38q32 0 45.5 13t13.5 34q0 20 -11.5 32t-35.5 12h-50zM226 400v-78h42q20 0 30 11t10 28t-10.5 28t-33.5 11
h-38z" />
    <glyph glyph-name="afii10068" unicode="&#x433;" horiz-adv-x="403" 
d="M396 520v-131h-170v-389h-193v520h363z" />
    <glyph glyph-name="afii10069" unicode="&#x434;" horiz-adv-x="593" 
d="M37 131q11 8 19 27t12 61l29 301h434v-389h66v-271h-178v140h-248v-140h-178v271h44zM252 247q-2 -44 -19 -72t-47 -44h157v258h-83z" />
    <glyph glyph-name="afii10070" unicode="&#x435;" horiz-adv-x="551" 
d="M525 164q-7 -38 -26.5 -70.5t-50 -56.5t-72.5 -38t-95 -14q-125 0 -192 72.5t-67 206.5q0 131 64.5 201t187.5 70q58 0 105 -19.5t80.5 -58.5t51.5 -98.5t18 -140.5h-312q2 -30 7.5 -50t14 -31.5t19.5 -16t25 -4.5q41 0 49 48h193zM273 414q-25 0 -39 -19.5t-17 -75.5
h114q-2 56 -17.5 75.5t-40.5 19.5z" />
    <glyph glyph-name="afii10072" unicode="&#x436;" horiz-adv-x="801" 
d="M207 520l86 -186h12v186h193v-186h9l87 186h199l-139 -240l146 -280h-217l-72 203h-13v-203h-193v203h-16l-71 -203h-217l146 280l-140 240h200z" />
    <glyph glyph-name="afii10073" unicode="&#x437;" horiz-adv-x="515" 
d="M271 535q56 0 96 -10.5t65.5 -29t37 -44t11.5 -54.5q0 -47 -23.5 -77.5t-77.5 -43.5q55 -7 84.5 -41t29.5 -87q0 -34 -12 -64t-39.5 -52t-71 -34.5t-106.5 -12.5q-57 0 -99.5 14t-72.5 40t-48 61.5t-25 79.5h186q5 -37 18.5 -51.5t35.5 -14.5q17 0 27.5 13t10.5 39
t-14.5 37.5t-47.5 11.5h-9v107h19q44 0 44 45q0 20 -9.5 30t-25.5 10q-22 0 -33 -13t-15 -39h-186q7 39 26.5 72t51.5 57t75 37.5t97 13.5z" />
    <glyph glyph-name="afii10074" unicode="&#x438;" horiz-adv-x="541" 
d="M34 0v520h193v-245l87 211v34h193v-520h-193v244l-87 -213v-31h-193z" />
    <glyph glyph-name="afii10075" unicode="&#x439;" horiz-adv-x="541" 
d="M268 574q-32 0 -59.5 7t-48.5 23t-34.5 41t-16.5 63h135q2 -18 8 -25t16 -7q8 0 14.5 7t8.5 25h135q-6 -38 -20.5 -63.5t-35.5 -41t-47.5 -22.5t-54.5 -7zM34 0v520h193v-245l87 211v34h193v-520h-193v244l-87 -213v-31h-193z" />
    <glyph glyph-name="afii10076" unicode="&#x43a;" horiz-adv-x="566" 
d="M34 0v520h192v-186h22l125 186h187l-167 -244l177 -276h-209l-115 203h-20v-203h-192z" />
    <glyph glyph-name="afii10077" unicode="&#x43b;" horiz-adv-x="574" 
d="M541 520v-520h-193v390h-85l-12 -196q-3 -49 -16.5 -85.5t-42 -60.5t-73 -36t-110.5 -12v130q29 0 44 15.5t18 60.5l23 314h447z" />
    <glyph glyph-name="afii10078" unicode="&#x43c;" horiz-adv-x="643" 
d="M261 30l-51 258v-288h-176v520h226l61 -296l56 296h232v-520h-188v283l-50 -253h-110z" />
    <glyph glyph-name="afii10079" unicode="&#x43d;" horiz-adv-x="540" 
d="M226 520v-177h87v177h193v-520h-193v212h-87v-212h-193v520h193z" />
    <glyph glyph-name="afii10080" unicode="&#x43e;" horiz-adv-x="556" 
d="M22 262q0 135 64.5 204t191.5 69q124 0 190 -68.5t66 -204.5q0 -134 -65.5 -205.5t-190.5 -71.5t-190.5 70.5t-65.5 206.5zM219 262q0 -45 3.5 -74t10.5 -45.5t18.5 -23t27.5 -6.5t27.5 5.5t18.5 22t10 45.5t3 76q0 46 -3.5 74t-11 44t-18.5 21.5t-27 5.5t-27.5 -6
t-18.5 -21.5t-10 -44t-3 -73.5z" />
    <glyph glyph-name="afii10081" unicode="&#x43f;" horiz-adv-x="540" 
d="M506 520v-520h-193v389h-87v-389h-193v520h473z" />
    <glyph glyph-name="afii10082" unicode="&#x440;" horiz-adv-x="566" 
d="M214 459q23 38 60 57t80 19q42 0 76.5 -15.5t60 -47.5t39.5 -82t14 -119q0 -71 -14 -124.5t-39.5 -89.5t-60.5 -54t-78 -18q-39 0 -71.5 16t-53.5 42v-223h-193v700h148zM350 264q0 39 -4 64.5t-12.5 41t-20 21.5t-26.5 6q-31 0 -48 -28t-17 -103q0 -43 4.5 -70.5
t12.5 -43.5t20.5 -22.5t27.5 -6.5q31 0 47 30t16 111z" />
    <glyph glyph-name="afii10083" unicode="&#x441;" horiz-adv-x="539" 
d="M520 192q-21 -97 -81.5 -152t-166.5 -55q-130 0 -190 68.5t-60 202.5q0 136 64 207.5t188 71.5q51 0 93 -14t73.5 -39.5t52 -61.5t27.5 -80h-196q-4 34 -17.5 50t-31.5 16q-14 0 -24 -6.5t-17.5 -23t-11 -46t-3.5 -75.5q0 -77 14 -108.5t40 -31.5q23 0 35 17.5t15 59.5
h197z" />
    <glyph glyph-name="afii10084" unicode="&#x442;" horiz-adv-x="464" 
d="M5 520h453v-131h-130v-389h-193v389h-130v131z" />
    <glyph glyph-name="afii10085" unicode="&#x443;" horiz-adv-x="538" 
d="M541 520l-165 -519q-18 -56 -36.5 -93.5t-41 -60t-49.5 -32.5t-61 -10q-42 0 -100 14v130q31 -8 46 -10t22 -2q17 0 26.5 13.5t15.5 49.5h-34l-168 520h203l71 -371l78 371h193z" />
    <glyph glyph-name="afii10086" unicode="&#x444;" horiz-adv-x="843" 
d="M624 -15q-59 0 -106 47v-212h-193v212q-50 -47 -109 -47q-89 0 -141.5 72.5t-52.5 209.5q0 136 51.5 202t137.5 66q67 0 114 -50v235h193v-235q22 24 50 37t64 13q84 0 136.5 -65.5t52.5 -202.5q0 -71 -14.5 -124t-40.5 -88t-62.5 -52.5t-79.5 -17.5zM629 264q0 40 -4 66
t-11.5 41t-19 21t-26.5 6q-28 0 -45.5 -28.5t-17.5 -105.5q0 -42 4 -69.5t12 -44t18.5 -23t24.5 -6.5q15 0 27 6.5t20.5 22.5t13 44t4.5 70zM214 264q0 -42 4.5 -70t13 -44t20.5 -22.5t27 -6.5q13 0 24 6.5t19 23t12 44t4 69.5q0 77 -17.5 105.5t-45.5 28.5q-15 0 -26.5 -6
t-19 -21t-11.5 -41t-4 -66z" />
    <glyph glyph-name="afii10087" unicode="&#x445;" horiz-adv-x="550" 
d="M380 275l173 -275h-222l-67 142l-66 -142h-202l171 273l-163 247h217l59 -125l52 125h199z" />
    <glyph glyph-name="afii10088" unicode="&#x446;" horiz-adv-x="568" 
d="M506 130h66v-270h-178v140h-361v520h193v-390h87v390h193v-390z" />
    <glyph glyph-name="afii10089" unicode="&#x447;" horiz-adv-x="530" 
d="M220 520v-218q0 -38 9.5 -51t29.5 -13t32.5 21.5t12.5 74.5v186h192v-520h-192v158q-44 -52 -116 -52q-80 0 -120.5 47t-40.5 153v214h193z" />
    <glyph glyph-name="afii10090" unicode="&#x448;" horiz-adv-x="746" 
d="M33 0v520h193v-390h53v390h187v-390h54v390h192v-520h-679z" />
    <glyph glyph-name="afii10091" unicode="&#x449;" horiz-adv-x="775" 
d="M712 130h67v-270h-179v140h-567v520h193v-390h53v390h187v-390h54v390h192v-390z" />
    <glyph glyph-name="afii10092" unicode="&#x44a;" horiz-adv-x="639" 
d="M338 520v-142h81q96 0 146.5 -49t50.5 -139q0 -87 -55 -138.5t-164 -51.5h-251v389h-141v131h333zM338 260v-143h9q39 0 59.5 16.5t20.5 55.5q0 37 -16.5 54t-54.5 17h-18z" />
    <glyph glyph-name="afii10093" unicode="&#x44b;" horiz-adv-x="769" 
d="M542 0v520h194v-520h-194zM225 520v-142h81q96 0 146.5 -49t50.5 -139q0 -87 -54.5 -138.5t-164.5 -51.5h-251v520h192zM225 260v-143h9q38 0 59.5 16.5t21.5 55.5q0 37 -17 54t-55 17h-18z" />
    <glyph glyph-name="afii10094" unicode="&#x44c;" horiz-adv-x="526" 
d="M225 520v-142h81q96 0 146.5 -49t50.5 -139q0 -87 -54.5 -138.5t-164.5 -51.5h-251v520h192zM225 260v-143h9q38 0 59.5 16.5t21.5 55.5q0 37 -17 54t-55 17h-18z" />
    <glyph glyph-name="afii10095" unicode="&#x44d;" horiz-adv-x="538" 
d="M218 186q5 -38 18.5 -55t34.5 -17q22 0 35 22.5t14 84.5h-81v94h78q-2 53 -13.5 72t-34.5 19t-36 -15.5t-16 -44.5h-197q6 39 25.5 73.5t51.5 60t75.5 40.5t98.5 15q120 0 182.5 -73t62.5 -205q0 -129 -61.5 -200.5t-187.5 -71.5q-105 0 -166.5 53.5t-80.5 147.5h198z
" />
    <glyph glyph-name="afii10096" unicode="&#x44e;" horiz-adv-x="783" 
d="M226 520v-177h49q20 97 80 144.5t158 47.5q118 0 182.5 -68t64.5 -205t-63.5 -207t-183.5 -70q-102 0 -166 56.5t-78 170.5h-43v-212h-193v520h193zM463 262q0 -44 3 -73t9.5 -46t16 -23.5t22.5 -6.5q14 0 23.5 6.5t15.5 23t8.5 45.5t2.5 74q0 44 -3 72t-9 44t-15.5 22
t-23.5 6t-23.5 -6t-15.5 -22t-8.5 -44t-2.5 -72z" />
    <glyph glyph-name="afii10097" unicode="&#x44f;" horiz-adv-x="552" 
d="M3 0l127 185q-45 22 -66 60t-21 90q0 42 14 76.5t43.5 58.5t76 37t111.5 13h230v-520h-192v160h-29l-92 -160h-202zM326 278v125h-26q-35 0 -50.5 -16t-15.5 -47q0 -32 14.5 -47t49.5 -15h28z" />
    <glyph glyph-name="uni0450" unicode="&#x450;" horiz-adv-x="551" 
d="M525 164q-7 -38 -26.5 -70.5t-50 -56.5t-72.5 -38t-95 -14q-125 0 -192 72.5t-67 206.5q0 131 64.5 201t187.5 70q58 0 105 -19.5t80.5 -58.5t51.5 -98.5t18 -140.5h-312q2 -30 7.5 -50t14 -31.5t19.5 -16t25 -4.5q41 0 49 48h193zM273 414q-25 0 -39 -19.5t-17 -75.5
h114q-2 56 -17.5 75.5t-40.5 19.5zM366 578h-137l-144 154h187z" />
    <glyph glyph-name="afii10071" unicode="&#x451;" horiz-adv-x="551" 
d="M525 164q-7 -38 -26.5 -70.5t-50 -56.5t-72.5 -38t-95 -14q-125 0 -192 72.5t-67 206.5q0 131 64.5 201t187.5 70q58 0 105 -19.5t80.5 -58.5t51.5 -98.5t18 -140.5h-312q2 -30 7.5 -50t14 -31.5t19.5 -16t25 -4.5q41 0 49 48h193zM273 414q-25 0 -39 -19.5t-17 -75.5
h114q-2 56 -17.5 75.5t-40.5 19.5zM81 577v144h167v-144h-167zM290 577v144h168v-144h-168z" />
    <glyph glyph-name="afii10099" unicode="&#x452;" horiz-adv-x="545" 
d="M40 558h-30v130h30v32h193v-32h84v-130h-84v-80q23 29 52.5 43t70.5 14q75 0 117.5 -48t42.5 -154v-349q0 -83 -41.5 -131t-129.5 -48q-25 0 -50.5 3.5t-44.5 9.5v135q24 -7 39 -7q19 0 26 9.5t7 34.5v343q0 42 -9 55.5t-29 13.5q-23 0 -37 -20t-14 -71v-311h-193v558z
" />
    <glyph glyph-name="afii10100" unicode="&#x453;" horiz-adv-x="403" 
d="M201 735h186l-144 -154h-137zM396 520v-131h-170v-389h-193v520h363z" />
    <glyph glyph-name="afii10101" unicode="&#x454;" horiz-adv-x="538" 
d="M518 186q-6 -41 -24 -77.5t-48 -64t-72.5 -43.5t-98.5 -16q-127 0 -190 69t-63 201q0 65 17 117t49 88t78.5 55.5t106.5 19.5q51 0 93.5 -14.5t74 -40t51.5 -60t27 -74.5h-197q-5 60 -49 60q-25 0 -37.5 -20t-15.5 -71h79v-94h-82q2 -59 16.5 -83t40.5 -24q20 0 32.5 17
t16.5 55h195z" />
    <glyph glyph-name="afii10102" unicode="&#x455;" horiz-adv-x="526" 
d="M264 112q45 0 45 35q0 17 -13 28t-56 21q-62 14 -102.5 31.5t-64 39t-33 48.5t-9.5 59q0 37 12.5 67t39.5 51t69 32t101 11q49 0 90.5 -12t73 -34t52 -52.5t27.5 -67.5h-186q-5 20 -17 30t-36 10q-35 0 -35 -29q0 -8 2.5 -14.5t11 -12.5t23.5 -11.5t40 -11.5
q58 -14 96.5 -31.5t61.5 -39t33 -48t10 -57.5q0 -78 -56.5 -123.5t-182.5 -45.5q-109 0 -169 47t-74 124h188q5 -23 18.5 -33.5t39.5 -10.5z" />
    <glyph glyph-name="afii10103" unicode="&#x456;" horiz-adv-x="260" 
d="M28 574v146h204v-146h-204zM34 0v520h194v-520h-194z" />
    <glyph glyph-name="afii10104" unicode="&#x457;" horiz-adv-x="262" 
d="M-27 576v144h137v-144h-137zM152 576v144h138v-144h-138zM34 0v520h194v-520h-194z" />
    <glyph glyph-name="afii10105" unicode="&#x458;" horiz-adv-x="264" 
d="M-35 -47q11 -4 21.5 -5.5t17.5 -1.5q17 0 25 9t8 36v529h193v-536q0 -83 -41 -131t-129 -48q-26 0 -51.5 3.5t-43.5 9.5v135zM31 574v146h204v-146h-204z" />
    <glyph glyph-name="afii10106" unicode="&#x459;" horiz-adv-x="842" 
d="M541 520v-142h81q96 0 146.5 -49t50.5 -139q0 -87 -54.5 -138.5t-164.5 -51.5h-251v389h-86l-5 -89q-5 -89 -17.5 -147t-40 -92t-73.5 -47.5t-118 -13.5v130q31 0 44 15.5t17 60.5l23 314h448zM541 260v-143h9q38 0 59.5 16.5t21.5 55.5q0 37 -17 54t-55 17h-18z" />
    <glyph glyph-name="afii10107" unicode="&#x45a;" horiz-adv-x="806" 
d="M506 520v-142h81q96 0 146.5 -49t50.5 -139q0 -87 -55 -138.5t-164 -51.5h-251v212h-88v-212h-193v520h193v-177h88v177h192zM506 260v-143h9q39 0 59.5 17t20.5 55q0 37 -16.5 54t-54.5 17h-18z" />
    <glyph glyph-name="afii10108" unicode="&#x45b;" horiz-adv-x="545" 
d="M40 558h-30v130h30v32h193v-32h84v-130h-84v-80q23 29 52.5 43t70.5 14q75 0 117.5 -48t42.5 -154v-333h-194v333q0 42 -9 55.5t-29 13.5q-23 0 -37 -20t-14 -71v-311h-193v558z" />
    <glyph glyph-name="afii10109" unicode="&#x45c;" horiz-adv-x="566" 
d="M275 735h186l-144 -154h-137zM34 0v520h192v-186h22l125 186h187l-167 -244l177 -276h-209l-115 203h-20v-203h-192z" />
    <glyph glyph-name="uni045D" unicode="&#x45d;" horiz-adv-x="541" 
d="M34 0v520h193v-245l87 211v34h193v-520h-193v244l-87 -213v-31h-193zM366 578h-137l-144 154h187z" />
    <glyph glyph-name="afii10110" unicode="&#x45e;" horiz-adv-x="538" 
d="M541 520l-165 -519q-18 -56 -36.5 -93.5t-41 -60t-49.5 -32.5t-61 -10q-42 0 -100 14v130q31 -8 46 -10t22 -2q17 0 26.5 13.5t15.5 49.5h-34l-168 520h203l71 -371l78 371h193zM270 574q-32 0 -59.5 7t-48.5 23t-34.5 41t-16.5 63h135q2 -18 8 -25t16 -7q8 0 14.5 7
t8.5 25h135q-6 -38 -20.5 -63.5t-35.5 -41t-47.5 -22.5t-54.5 -7z" />
    <glyph glyph-name="afii10193" unicode="&#x45f;" horiz-adv-x="540" 
d="M359 0v-140h-178v140h-147v520h192v-389h88v389h193v-520h-148z" />
    <glyph glyph-name="afii10146" unicode="&#x462;" horiz-adv-x="730" 
d="M526 569h-158v-79h39q80 0 137 -15t93 -45.5t53 -76.5t17 -108q0 -120 -70 -182.5t-222 -62.5h-256v569h-156v151h523v-151zM368 349v-209h49q35 0 57.5 27t22.5 78q0 54 -23.5 79t-65.5 25h-40z" />
    <glyph glyph-name="afii10194" unicode="&#x463;" horiz-adv-x="566" 
d="M265 451v-73h81q96 0 146.5 -49t50.5 -139q0 -87 -54.5 -138.5t-164.5 -51.5h-251v451h-66v131h66v89h192v-89h87v-131h-87zM265 260v-143h9q38 0 59.5 16.5t21.5 55.5q0 37 -17 54t-55 17h-18z" />
    <glyph glyph-name="afii10147" unicode="&#x472;" horiz-adv-x="703" 
d="M351 -15q-71 0 -130.5 23.5t-102.5 70t-67 117t-24 163.5q0 92 23.5 162t66 117.5t102.5 72t132 24.5q70 0 129.5 -22.5t103 -69t68 -117t24.5 -166.5q0 -92 -24.5 -162t-67.5 -117.5t-103 -71.5t-130 -24zM351 132q40 0 71 36t40 125h-221q4 -44 15 -75t25.5 -50
t32.5 -27.5t37 -8.5zM351 589q-19 0 -36.5 -8t-32 -26t-25 -47.5t-15.5 -72.5h220q-11 84 -41.5 119t-69.5 35z" />
    <glyph glyph-name="afii10195" unicode="&#x473;" horiz-adv-x="556" 
d="M22 262q0 135 64.5 204t191.5 69q124 0 190 -68.5t66 -204.5q0 -134 -65.5 -205.5t-190.5 -71.5t-190.5 70.5t-65.5 206.5zM279 113q13 0 23.5 4t17.5 14.5t11 30t5 49.5h-116q1 -29 5.5 -48t12 -30t17.5 -15.5t24 -4.5zM278 407q-26 0 -40 -18t-18 -72h116
q-2 27 -6.5 44.5t-11.5 27.5t-17 14t-23 4z" />
    <glyph glyph-name="afii10148" unicode="&#x474;" horiz-adv-x="624" 
d="M624 720l-198 -720h-228l-198 720h215l101 -533l104 533h204z" />
    <glyph glyph-name="afii10196" unicode="&#x475;" horiz-adv-x="532" 
d="M535 520l-161 -520h-217l-161 520h208l67 -354l65 354h199z" />
    <glyph glyph-name="afii10050" unicode="&#x490;" horiz-adv-x="488" 
d="M485 855v-283h-232v-572h-209v720h248v135h193z" />
    <glyph glyph-name="afii10098" unicode="&#x491;" horiz-adv-x="403" 
d="M219 520v131h177v-262h-170v-389h-193v520h186z" />
    <glyph glyph-name="uni0492" unicode="&#x492;" horiz-adv-x="526" 
d="M523 572h-233v-140h123v-138h-123v-294h-208v294h-78v138h78v288h441v-148z" />
    <glyph glyph-name="uni0493" unicode="&#x493;" horiz-adv-x="403" 
d="M396 520v-131h-165v-69h83v-131h-83v-189h-192v189h-42v131h42v200h357z" />
    <glyph glyph-name="uni0496" unicode="&#x496;" horiz-adv-x="1001" 
d="M245 720l128 -286h18v286h209v-286h18l128 286h216l-173 -342l126 -235h90v-283h-193v140h-56l-132 293h-24v-293h-209v293h-24l-131 -293h-237l203 378l-173 342h216z" />
    <glyph glyph-name="uni0497" unicode="&#x497;" horiz-adv-x="814" 
d="M207 520l86 -186h12v186h193v-186h9l87 186h199l-139 -240l76 -149h85v-271h-177v140h-55l-72 203h-13v-203h-193v203h-16l-71 -203h-217l146 280l-140 240h200z" />
    <glyph glyph-name="uni0498" unicode="&#x498;" horiz-adv-x="599" 
d="M460 -143q0 -54 -39 -89.5t-115 -35.5q-70 0 -111.5 33.5t-49.5 93.5h123q3 -34 35 -34q33 0 33 34q0 20 -17.5 30.5t-65.5 10.5l7 88q-54 6 -97.5 24.5t-74 47.5t-48.5 66t-21 79h207q2 -37 18.5 -57t53.5 -20q65 0 65 92q0 47 -19 68.5t-57 21.5h-61v127h58
q37 0 53.5 20t16.5 63q0 73 -56 73q-53 0 -67 -65h-201q6 45 27 82.5t56 65.5t84 43.5t111 15.5q123 0 190 -50t67 -138q0 -60 -28 -103t-82 -62q54 -14 88 -61t34 -112q0 -85 -53 -144.5t-155 -74.5l1 -25q44 -9 67 -37.5t23 -70.5z" />
    <glyph glyph-name="uni0499" unicode="&#x499;" horiz-adv-x="515" 
d="M422 -143q0 -54 -38.5 -89.5t-115.5 -35.5q-69 0 -111 33.5t-50 93.5h124q1 -34 35 -34q32 0 32 34q0 20 -17 30.5t-65 10.5l6 88q-92 10 -140 61.5t-62 130.5h186q5 -37 18.5 -51.5t35.5 -14.5q17 0 27.5 13t10.5 39t-14.5 37.5t-47.5 11.5h-9v107h19q44 0 44 45
q0 20 -9.5 30t-25.5 10q-22 0 -33 -13t-15 -39h-186q7 39 26.5 72t51.5 57t75 37.5t97 13.5q56 0 96 -10.5t65.5 -29t37 -44t11.5 -54.5q0 -47 -23.5 -77.5t-77.5 -43.5q55 -7 84.5 -41t29.5 -87q0 -59 -37.5 -102.5t-125.5 -55.5l1 -25q45 -9 67.5 -37.5t22.5 -70.5z" />
    <glyph glyph-name="uni049A" unicode="&#x49a;" horiz-adv-x="697" 
d="M509 0h-59l-169 293h-28v-293h-209v720h209v-286h24l167 286h218l-218 -339l155 -238h103v-283h-193v140z" />
    <glyph glyph-name="uni049B" unicode="&#x49b;" horiz-adv-x="573" 
d="M34 0v520h192v-186h22l125 186h187l-167 -244l93 -145h94v-271h-178v140h-41l-115 203h-20v-203h-192z" />
    <glyph glyph-name="uni049C" unicode="&#x49c;" horiz-adv-x="753" 
d="M253 720v-286h23v157h62v-157h2l167 286h218l-219 -339l249 -381h-242l-170 293h-5v-200h-62v200h-23v-293h-209v720h209z" />
    <glyph glyph-name="uni049D" unicode="&#x49d;" horiz-adv-x="618" 
d="M412 0l-114 201h-2v-148h-51v150h-19v-203h-193v520h193v-187h19v68h51v-68h4l124 187h187l-167 -245l177 -275h-209z" />
    <glyph glyph-name="uni04A0" unicode="&#x4a0;" horiz-adv-x="836" 
d="M595 0l-169 293h-29v-293h-208v571h-180v149h388v-286h25l167 286h218l-218 -339l248 -381h-242z" />
    <glyph glyph-name="uni04A1" unicode="&#x4a1;" horiz-adv-x="680" 
d="M147 0v390h-141v130h334v-186h22l125 186h187l-168 -244l177 -276h-209l-115 203h-19v-203h-193z" />
    <glyph glyph-name="uni04A2" unicode="&#x4a2;" horiz-adv-x="678" 
d="M615 720v-577h73v-283h-192v140h-89v292h-155v-292h-208v720h208v-285h155v285h208z" />
    <glyph glyph-name="uni04A3" unicode="&#x4a3;" horiz-adv-x="568" 
d="M226 520v-177h87v177h193v-390h66v-270h-178v140h-81v212h-87v-212h-193v520h193z" />
    <glyph glyph-name="uni04AA" unicode="&#x4aa;" horiz-adv-x="669" 
d="M575 -144q-13 -55 -53 -87t-106 -32q-73 0 -111.5 33t-38.5 93q0 34 16 66t45 56q-144 4 -222 97t-78 280q0 183 81.5 278t233.5 95q121 0 199 -68t100 -197h-208q-12 69 -34.5 94t-54.5 25q-50 0 -75 -52.5t-25 -174.5q0 -66 7 -111t20 -72.5t31.5 -39t41.5 -11.5
q41 0 63 34t27 113h211q-24 -191 -148 -256q-22 -12 -42 -27t-35 -33t-24 -38t-9 -41q0 -26 9 -37.5t24 -11.5q21 0 27 25h128z" />
    <glyph glyph-name="uni04AB" unicode="&#x4ab;" horiz-adv-x="539" 
d="M326 -264q-73 0 -111 33.5t-38 93.5q0 34 15.5 66t46.5 57q-113 8 -165 76t-52 194q0 136 64 207.5t188 71.5q51 0 93 -14t73.5 -39.5t52 -61.5t27.5 -80h-196q-4 34 -17.5 50t-31.5 16q-14 0 -24 -6.5t-17.5 -23t-11 -46t-3.5 -75.5q0 -77 14 -108.5t40 -31.5
q23 0 35 17.5t15 59.5h197q-14 -66 -46 -113t-86 -71q-38 -24 -64 -57.5t-26 -71.5q0 -26 9 -37.5t23 -11.5q22 0 27 26h128q-13 -56 -53 -88t-106 -32z" />
    <glyph glyph-name="uni04AE" unicode="&#x4ae;" horiz-adv-x="652" 
d="M226 0v288l-226 432h217l113 -270l123 270h199l-227 -432v-288h-199z" />
    <glyph glyph-name="uni04AF" unicode="&#x4af;" horiz-adv-x="532" 
d="M170 -180v180l-174 520h208l68 -352l64 352h199l-172 -520v-180h-193z" />
    <glyph glyph-name="uni04B0" unicode="&#x4b0;" horiz-adv-x="652" 
d="M226 0v244h-100v139h47l-173 337h224l106 -269l117 269h205l-174 -337h53v-139h-106v-244h-199z" />
    <glyph glyph-name="uni04B1" unicode="&#x4b1;" horiz-adv-x="532" 
d="M535 520l-124 -389h33v-131h-81v-180h-193v180h-75v131h26l-125 389h209l67 -349l63 349h200z" />
    <glyph glyph-name="uni04B2" unicode="&#x4b2;" horiz-adv-x="687" 
d="M499 0h-67l-106 226l-98 -226h-225l222 373l-208 347h236l96 -198l90 198h215l-204 -340l138 -237h103v-283h-192v140z" />
    <glyph glyph-name="uni04B3" unicode="&#x4b3;" horiz-adv-x="572" 
d="M380 274l90 -144h103v-270h-178v140h-65l-67 142l-66 -142h-200l170 272l-164 248h218l58 -125l53 125h199z" />
    <glyph glyph-name="uni04B8" unicode="&#x4b8;" horiz-adv-x="648" 
d="M603 720v-720h-208v272q-21 -22 -42 -36v-143h-63v116q-24 -6 -48 -6q-108 0 -159 61t-51 201v255h209v-267q0 -53 12 -76t37 -28v242h63v-230q19 13 30.5 39.5t11.5 66.5v253h208z" />
    <glyph glyph-name="uni04B9" unicode="&#x4b9;" horiz-adv-x="542" 
d="M220 520v-218q0 -27 7 -41t18 -19v159h46v-153q11 10 18 31t7 55v186h192v-520h-192v158q-6 -7 -12 -12.5t-13 -10.5v-82h-46v61q-26 -8 -51 -8q-80 0 -123.5 47.5t-43.5 152.5v214h193z" />
    <glyph glyph-name="uni04BA" unicode="&#x4ba;" horiz-adv-x="641" 
d="M44 0v720h209v-279q32 34 71.5 52t86.5 18q53 0 92 -14.5t64 -46t37 -81.5t12 -121v-248h-209v261q0 57 -16.5 81t-52.5 24q-85 0 -85 -121v-245h-209z" />
    <glyph glyph-name="uni04BB" unicode="&#x4bb;" horiz-adv-x="539" 
d="M34 720h192v-289q22 27 50.5 41.5t71.5 14.5q78 0 119.5 -49t41.5 -153v-285h-193v285q0 40 -9 54.5t-29 14.5q-26 0 -39 -22t-13 -70v-262h-192v720z" />
    <glyph glyph-name="uni04C0" unicode="&#x4c0;" horiz-adv-x="297" 
d="M253 720v-720h-209v720h209z" />
    <glyph glyph-name="uni04CB" unicode="&#x4cb;" horiz-adv-x="666" 
d="M484 0h-89v272q-32 -34 -71.5 -51.5t-81.5 -17.5q-108 0 -159 61t-51 201v255h209v-267q0 -31 4 -51t12.5 -32t21.5 -17t31 -5q36 0 60.5 30t24.5 89v253h208v-577h74v-283h-193v140z" />
    <glyph glyph-name="uni04CC" unicode="&#x4cc;" horiz-adv-x="558" 
d="M220 520v-218q0 -38 9.5 -51t28.5 -13q20 0 33 21.5t13 74.5v186h192v-390h66v-270h-178v140h-80v158q-45 -53 -117 -53q-79 0 -119.5 47.5t-40.5 152.5v215h193z" />
    <glyph glyph-name="uni04CF" unicode="&#x4cf;" horiz-adv-x="264" 
d="M228 0h-193v720h193v-720z" />
    <glyph glyph-name="uni04D8" unicode="&#x4d8;" horiz-adv-x="671" 
d="M341 -15q-75 0 -131.5 22t-95.5 72t-60.5 130.5t-26.5 198.5h402q0 51 -7 86.5t-19 57t-29.5 31t-38.5 9.5q-41 0 -62.5 -22t-29.5 -64h-207q22 106 98 167.5t206 61.5q146 0 225 -93.5t79 -277.5q0 -92 -21 -163t-60.5 -119t-95.5 -72.5t-126 -24.5zM338 128
q37 0 59.5 32t25.5 109h-173q3 -42 10.5 -69.5t18.5 -43.5t25.5 -22t33.5 -6z" />
    <glyph glyph-name="afii10846" unicode="&#x4d9;" horiz-adv-x="549" 
d="M25 355q7 39 27 72t52 57t76 37.5t100 13.5q59 0 105 -19.5t77.5 -56t48 -88t16.5 -115.5q0 -130 -64 -200.5t-190 -70.5q-251 0 -251 318h309q-2 59 -16.5 80.5t-40.5 21.5t-38 -12t-17 -38h-194zM277 106q26 0 38 20t16 74h-111q2 -53 15.5 -73.5t41.5 -20.5z" />
    <glyph glyph-name="uni04E2" unicode="&#x4e2;" horiz-adv-x="656" 
d="M199 787v128h255v-128h-255zM612 720v-720h-208v384l-150 -335v-49h-210v720h210v-385l150 336v49h208z" />
    <glyph glyph-name="uni04E3" unicode="&#x4e3;" horiz-adv-x="541" 
d="M143 591v128h255v-128h-255zM34 0v520h193v-245l87 211v34h193v-520h-193v244l-87 -213v-31h-193z" />
    <glyph glyph-name="uni04E8" unicode="&#x4e8;" horiz-adv-x="703" 
d="M351 -15q-71 0 -130.5 23.5t-102.5 70t-67 117t-24 163.5q0 92 23.5 162t66 117.5t102.5 72t132 24.5q70 0 129.5 -22.5t103 -69t68 -117t24.5 -166.5q0 -92 -24.5 -162t-67.5 -117.5t-103 -71.5t-130 -24zM351 132q40 0 71 36t40 125h-221q4 -44 15 -75t25.5 -50
t32.5 -27.5t37 -8.5zM351 589q-19 0 -36.5 -8t-32 -26t-25 -47.5t-15.5 -72.5h220q-11 84 -41.5 119t-69.5 35z" />
    <glyph glyph-name="uni04E9" unicode="&#x4e9;" horiz-adv-x="556" 
d="M22 262q0 135 64.5 204t191.5 69q124 0 190 -68.5t66 -204.5q0 -134 -65.5 -205.5t-190.5 -71.5t-190.5 70.5t-65.5 206.5zM279 113q13 0 23.5 4t17.5 14.5t11 30t5 49.5h-116q1 -29 5.5 -48t12 -30t17.5 -15.5t24 -4.5zM278 407q-26 0 -40 -18t-18 -72h116
q-2 27 -6.5 44.5t-11.5 27.5t-17 14t-23 4z" />
    <glyph glyph-name="uni04EE" unicode="&#x4ee;" horiz-adv-x="581" 
d="M171 787v128h255v-128h-255zM407 185q-18 -54 -37.5 -92t-43.5 -62t-54 -35t-68 -11q-21 0 -49 4t-56 11v134q22 -7 41 -10t30 -3q19 0 30.5 11.5t19.5 46.5h-50q-43 136 -85.5 270t-84.5 271h206l85 -397l89 397h201z" />
    <glyph glyph-name="uni04EF" unicode="&#x4ef;" horiz-adv-x="538" 
d="M541 520l-165 -519q-18 -56 -36.5 -93.5t-41 -60t-49.5 -32.5t-61 -10q-42 0 -100 14v130q31 -8 46 -10t22 -2q17 0 26.5 13.5t15.5 49.5h-34l-168 520h203l71 -371l78 371h193zM144 591v128h255v-128h-255z" />
    <glyph glyph-name="Wgrave" unicode="&#x1e80;" horiz-adv-x="905" 
d="M902 720l-130 -720h-229l-92 502l-84 -502h-219l-145 720h214l57 -475l78 475h208l90 -479l51 479h201zM533 774h-137l-144 154h187z" />
    <glyph glyph-name="wgrave" unicode="&#x1e81;" horiz-adv-x="758" 
d="M757 520l-121 -520h-219l-38 334l-51 -334h-212l-115 520h200l33 -331l54 331h198l43 -329l41 329h187zM459 578h-137l-144 154h187z" />
    <glyph glyph-name="Wacute" unicode="&#x1e82;" horiz-adv-x="905" 
d="M902 720l-130 -720h-229l-92 502l-84 -502h-219l-145 720h214l57 -475l78 475h208l90 -479l51 479h201zM477 928h186l-144 -154h-137z" />
    <glyph glyph-name="wacute" unicode="&#x1e83;" horiz-adv-x="758" 
d="M757 520l-121 -520h-219l-38 334l-51 -334h-212l-115 520h200l33 -331l54 331h198l43 -329l41 329h187zM413 732h186l-144 -154h-137z" />
    <glyph glyph-name="Wdieresis" unicode="&#x1e84;" horiz-adv-x="905" 
d="M902 720l-130 -720h-229l-92 502l-84 -502h-219l-145 720h214l57 -475l78 475h208l90 -479l51 479h201zM264 781v144h167v-144h-167zM473 781v144h168v-144h-168z" />
    <glyph glyph-name="wdieresis" unicode="&#x1e85;" horiz-adv-x="758" 
d="M757 520l-121 -520h-219l-38 334l-51 -334h-212l-115 520h200l33 -331l54 331h198l43 -329l41 329h187zM190 585v144h167v-144h-167zM399 585v144h168v-144h-168z" />
    <glyph glyph-name="Ygrave" unicode="&#x1ef2;" horiz-adv-x="652" 
d="M226 0v288l-226 432h217l113 -270l123 270h199l-227 -432v-288h-199zM406 774h-137l-144 154h187z" />
    <glyph glyph-name="ygrave" unicode="&#x1ef3;" horiz-adv-x="538" 
d="M541 520l-165 -519q-18 -56 -36.5 -93.5t-41 -60t-49.5 -32.5t-61 -10q-42 0 -100 14v130q31 -8 46 -10t22 -2q17 0 26.5 13.5t15.5 49.5h-34l-168 520h203l71 -371l78 371h193zM359 578h-137l-144 154h187z" />
    <glyph glyph-name="uni2007" unicode="&#x2007;" 
 />
    <glyph glyph-name="uni2008" unicode="&#x2008;" horiz-adv-x="303" 
 />
    <glyph glyph-name="uni200B" unicode="&#x200b;" horiz-adv-x="0" 
 />
    <glyph glyph-name="figuredash" unicode="&#x2012;" horiz-adv-x="490" 
d="M447 250h-400v140h400v-140z" />
    <glyph glyph-name="endash" unicode="&#x2013;" horiz-adv-x="393" 
d="M378 250h-362v140h362v-140z" />
    <glyph glyph-name="emdash" unicode="&#x2014;" horiz-adv-x="557" 
d="M541 250h-525v140h525v-140z" />
    <glyph glyph-name="afii00208" unicode="&#x2015;" horiz-adv-x="393" 
d="M378 290h-362v140h362v-140z" />
    <glyph glyph-name="underscoredbl" unicode="&#x2017;" horiz-adv-x="504" 
d="M493 -321h-481v139h481v-139zM493 -142h-481v139h481v-139z" />
    <glyph glyph-name="quoteleft" unicode="&#x2018;" horiz-adv-x="270" 
d="M25 502q0 104 60 157t169 61v-89q-41 -5 -64.5 -27t-23.5 -60h70v-181h-211v139z" />
    <glyph glyph-name="quoteright" unicode="&#x2019;" horiz-adv-x="270" 
d="M245 581q0 -104 -60 -157t-169 -61v88q41 5 64.5 27t23.5 61h-70v181h211v-139z" />
    <glyph glyph-name="quotesinglbase" unicode="&#x201a;" horiz-adv-x="270" 
d="M245 42q0 -104 -60 -157t-169 -61v88q41 5 64.5 27t23.5 61h-70v181h211v-139z" />
    <glyph glyph-name="quotereversed" unicode="&#x201b;" horiz-adv-x="270" 
d="M16 720h211v-181h-70q0 -39 23.5 -61t64.5 -27v-88q-109 8 -169 61t-60 157v139z" />
    <glyph glyph-name="quotedblleft" unicode="&#x201c;" horiz-adv-x="533" 
d="M32 502q0 104 60 157t169 61v-89q-42 -5 -65 -27t-23 -60h69v-181h-210v139zM288 502q0 104 60 157t169 61v-89q-42 -5 -65 -27t-23 -60h69v-181h-210v139z" />
    <glyph glyph-name="quotedblright" unicode="&#x201d;" horiz-adv-x="533" 
d="M245 581q0 -104 -60 -157t-169 -61v88q41 5 64.5 27t23.5 61h-70v181h211v-139zM501 581q0 -104 -60 -157t-169 -61v88q41 5 64.5 27t23.5 61h-70v181h211v-139z" />
    <glyph glyph-name="quotedblbase" unicode="&#x201e;" horiz-adv-x="526" 
d="M501 42q0 -104 -60 -157t-169 -61v88q41 5 64.5 27t23.5 61h-70v181h211v-139zM245 42q0 -104 -60 -157t-169 -61v88q41 5 64.5 27t23.5 61h-70v181h211v-139z" />
    <glyph glyph-name="dagger" unicode="&#x2020;" 
d="M373 720v-164h135v-175h-135v-381h-187v381h-134v175h134v164h187z" />
    <glyph glyph-name="daggerdbl" unicode="&#x2021;" 
d="M371 720v-128h136v-175h-136v-101h136v-175h-136v-141h-185v141h-134v175h134v101h-134v175h134v128h185z" />
    <glyph glyph-name="bullet" unicode="&#x2022;" horiz-adv-x="335" 
d="M36 197v238h256v-238h-256z" />
    <glyph glyph-name="ellipsis" unicode="&#x2026;" horiz-adv-x="909" 
d="M652 0v181h211v-181h-211zM46 0v181h211v-181h-211zM349 0v181h211v-181h-211z" />
    <glyph glyph-name="perthousand" unicode="&#x2030;" horiz-adv-x="1084" 
d="M1067 158q0 -79 -37.5 -126t-118.5 -47t-119 47t-38 126t38 126t119 47t118.5 -47t37.5 -126zM940 158q0 44 -6 60t-23 16q-18 0 -24 -16t-6 -60t6.5 -60t23.5 -16t23 16t6 60zM295 0h-140l286 700h141zM327 542q0 -79 -38 -126t-119 -47t-119 47t-38 126t38 126t119 47
t119 -47t38 -126zM200 542q0 44 -6.5 60t-23.5 16q-18 0 -23.5 -16t-5.5 -60t6 -60t23 -16t23.5 16t6.5 60zM725 158q0 -79 -37.5 -126t-119.5 -47q-81 0 -119 47t-38 126t38 126t119 47q82 0 119.5 -47t37.5 -126zM598 158q0 44 -6.5 60t-23.5 16t-23 -16t-6 -60t6 -60
t23 -16t23.5 16t6.5 60z" />
    <glyph glyph-name="minute" unicode="&#x2032;" horiz-adv-x="234" 
d="M165 490h-122l6 152v93h149v-93z" />
    <glyph glyph-name="second" unicode="&#x2033;" horiz-adv-x="456" 
d="M166 469h-122l7 157v100h149v-100zM352 469h-122l7 157v100h149v-100z" />
    <glyph glyph-name="guilsinglleft" unicode="&#x2039;" horiz-adv-x="305" 
d="M18 315l115 205h152l-87 -210l76 -220h-150z" />
    <glyph glyph-name="guilsinglright" unicode="&#x203a;" horiz-adv-x="305" 
d="M180 90h-149l76 220l-87 210h152l115 -205z" />
    <glyph glyph-name="exclamdbl" unicode="&#x203c;" horiz-adv-x="578" 
d="M53 242l-23 478h229l-23 -478h-183zM40 0v181h208v-181h-208zM342 242l-23 478h229l-23 -478h-183zM329 0v181h208v-181h-208z" />
    <glyph glyph-name="uni203E" unicode="&#x203e;" horiz-adv-x="504" 
d="M493 550h-481v139h481v-139z" />
    <glyph glyph-name="fraction" unicode="&#x2044;" horiz-adv-x="234" 
d="M-157 -90l424 880h138l-423 -880h-139z" />
    <glyph glyph-name="uni2070" unicode="&#x2070;" horiz-adv-x="392" 
d="M196 284q-83 0 -126 55.5t-43 174.5q0 121 43 176t125 55q85 0 127.5 -55t42.5 -176q0 -118 -43.5 -174t-125.5 -56zM195 376q7 0 14 4.5t12.5 19.5t8.5 42t3 72t-3 72.5t-8.5 42.5t-12.5 20t-14 5q-6 0 -13 -5t-12 -20t-8.5 -42.5t-3.5 -72.5t3.5 -72t8.5 -42t12 -19.5
t13 -4.5z" />
    <glyph glyph-name="uni2074" unicode="&#x2074;" horiz-adv-x="395" 
d="M329 467h39v-94h-39v-79h-123v79h-179v102l136 260h166v-268zM144 467h62l12 157z" />
    <glyph glyph-name="uni2075" unicode="&#x2075;" horiz-adv-x="380" 
d="M322 641h-142l-4 -65q14 11 28 14t28 3q53 0 87 -35.5t34 -111.5q0 -74 -42.5 -118t-118.5 -44q-73 0 -114.5 35t-50.5 102h129q2 -22 10 -31.5t19 -9.5q14 0 22.5 12t8.5 50q0 40 -9 51.5t-24 11.5q-19 0 -30 -19h-107l12 249h264v-94z" />
    <glyph glyph-name="uni2076" unicode="&#x2076;" horiz-adv-x="395" 
d="M206 745q67 0 107.5 -29.5t52.5 -83.5h-133q-5 20 -26 20q-18 0 -29 -17t-15 -70q28 31 82 31q52 0 87.5 -37t35.5 -109q0 -76 -43 -121t-121 -45q-86 0 -131.5 52t-45.5 162q0 124 47.5 185.5t131.5 61.5zM202 502q-15 0 -24.5 -15.5t-9.5 -50.5q0 -33 10.5 -44.5
t23.5 -11.5q14 0 23 12t9 48t-9 49t-23 13z" />
    <glyph glyph-name="uni2077" unicode="&#x2077;" horiz-adv-x="366" 
d="M60 294l152 344h-185v97h312v-94l-142 -347h-137z" />
    <glyph glyph-name="uni2078" unicode="&#x2078;" horiz-adv-x="396" 
d="M199 745q73 0 115 -33t42 -84q0 -32 -17.5 -57.5t-53.5 -42.5q84 -33 84 -112q0 -27 -10.5 -51t-31.5 -42t-53 -28.5t-75 -10.5t-75 10.5t-53.5 28t-32.5 40.5t-11 49q0 43 18 69.5t63 42.5q-37 17 -53 40t-16 57q0 54 39 89t121 35zM199 660q-13 0 -22 -8.5t-9 -31.5
q0 -27 9 -40t24 -20q8 7 17 21t9 38q0 23 -9 32t-19 9zM194 488q-12 -8 -20.5 -23t-8.5 -43q0 -23 9.5 -33.5t22.5 -10.5q14 0 24 10.5t10 33.5q0 26 -10 41t-27 25z" />
    <glyph glyph-name="uni2079" unicode="&#x2079;" horiz-adv-x="395" 
d="M191 745q87 0 132 -49t45 -164q0 -124 -41.5 -186t-132.5 -62q-69 0 -112 30t-55 83h139q1 -10 8.5 -15t17.5 -5q16 0 26.5 17t13.5 70q-26 -31 -82 -31q-51 0 -87 37t-36 109q0 76 42.5 121t121.5 45zM193 649q-13 0 -23.5 -12.5t-10.5 -46.5q0 -20 3 -32.5t8 -19.5
t11.5 -9t13.5 -2q14 0 23.5 15t9.5 49q0 37 -10.5 47.5t-24.5 10.5z" />
    <glyph glyph-name="uni207F" unicode="&#x207f;" horiz-adv-x="384" 
d="M256 726q53 0 83 -34t30 -111v-230h-152v236q0 32 -19 32q-13 0 -20 -10t-7 -36v-222h-151v364h132l7 -34q19 24 43 34.5t54 10.5z" />
    <glyph glyph-name="franc" unicode="&#x20a3;" 
d="M307 554v-126h177v-138h-177v-51h88v-128h-88v-111h-209v111h-48v128h47v461h413v-146h-203z" />
    <glyph glyph-name="lira" unicode="&#x20a4;" horiz-adv-x="588" 
d="M318 715q51 0 91 -15t68.5 -42t44 -63.5t16.5 -79.5h-173q-4 35 -12 46t-21 11q-16 0 -24 -15t-8 -64v-30h144v-110h-144v-33h114v-120h-131v-4q0 -11 -8.5 -24.5t-22.5 -20.5h280v-151h-465v146q19 6 28 15t9 24v15h-54v120h54v33h-54v110h54v25q0 111 50.5 169
t163.5 58z" />
    <glyph glyph-name="peseta" unicode="&#x20a7;" horiz-adv-x="1169" 
d="M959 261q46 -11 77 -25t49.5 -31.5t26 -38.5t7.5 -46q0 -62 -45 -98.5t-146 -36.5q-33 0 -60 5.5t-49 16.5q-39 -14 -70 -18t-54 -4q-138 0 -138 134v184h-90q-35 -28 -85.5 -41t-116.5 -13h-17v-249h-198v700h207q145 0 214.5 -52.5t69.5 -172.5q0 -31 -7 -62h23l8 100
h146v-100h120q36 12 91 12q79 0 131 -36.5t63 -96.5h-149q-3 16 -12.5 24t-29.5 8q-28 0 -28 -23q0 -14 11 -22t51 -18zM266 389q35 0 57.5 19t22.5 67q0 49 -23.5 66.5t-64.5 17.5h-10v-170h18zM931 87q36 0 36 28q0 13 -10.5 22t-45.5 17q-50 11 -82 25t-51 31t-26.5 37.5
t-7.5 44.5v11h-33v-180q0 -18 6 -24t22 -6h2q-2 7 -3.5 14t-3.5 15h150q5 -19 15.5 -27t31.5 -8z" />
    <glyph glyph-name="Euro" unicode="&#x20ac;" 
d="M360 333l-18 -97h-93q4 -33 10 -54t14.5 -33t19.5 -16.5t23 -4.5q20 0 33.5 14t18.5 46h181q-6 -45 -24.5 -82.5t-48.5 -64.5t-70.5 -41.5t-91.5 -14.5q-50 0 -91 14t-72.5 44.5t-53.5 78t-34 114.5h-52l19 97h25v41h-45l18 97h35q19 127 81 185.5t162 58.5
q47 0 88 -14.5t72 -41t51.5 -64.5t27.5 -85h-182q-6 33 -19.5 47.5t-33.5 14.5q-23 0 -37 -21t-21 -80h129l-18 -97h-119v-41h116z" />
    <glyph glyph-name="afii61248" unicode="&#x2105;" horiz-adv-x="936" 
d="M175 -90l424 880h138l-423 -880h-139zM403 491q-16 -71 -55.5 -111t-120.5 -40q-94 0 -135.5 48t-41.5 142t46 145t137 51q75 0 117 -39t53 -103h-148q-3 38 -25 38q-7 0 -12 -3t-8.5 -13t-5 -28t-1.5 -48q0 -49 5.5 -67.5t19.5 -18.5t19 10t7 37h149zM700 376
q91 0 138.5 -48t47.5 -143q0 -94 -47 -144.5t-139 -50.5q-91 0 -138 50t-47 145q0 94 46 142.5t139 48.5zM700 273q-20 0 -25 -18.5t-5 -69.5q0 -53 5.5 -72.5t25.5 -19.5t25.5 18.5t5.5 73.5q0 52 -6.5 70t-25.5 18z" />
    <glyph glyph-name="afii61289" unicode="&#x2113;" horiz-adv-x="537" 
d="M336 115q16 0 38.5 6t37.5 16l51 -111q-23 -15 -54.5 -28t-86.5 -13q-69 0 -118.5 32.5t-75.5 106.5q-19 -10 -38 -19.5t-40 -19.5v143l27 13q13 7 25 14q-1 16 -1.5 33t-0.5 35q0 113 13 191.5t40.5 127.5t70.5 71t102 22q44 0 74.5 -14.5t50 -38.5t28 -55.5t8.5 -65.5
q0 -39 -12 -81.5t-39 -88t-70.5 -92.5t-107.5 -93q5 -29 13 -47t18 -27.5t21.5 -13t25.5 -3.5zM247 360q29 28 47.5 56t28.5 54t13.5 50.5t3.5 47.5t-9 34t-21 11q-15 0 -26.5 -11t-19.5 -38t-12.5 -72t-4.5 -113v-19z" />
    <glyph glyph-name="afii61352" unicode="&#x2116;" horiz-adv-x="1112" 
d="M610 720v-720h-198l-192 427v-427h-176v720h211l179 -407v407h176zM685 515q0 66 17 108.5t44.5 67t62 34t70.5 9.5q35 0 69.5 -9t62 -33.5t44.5 -67t17 -109.5q0 -68 -17 -111.5t-44.5 -68.5t-62 -34.5t-69.5 -9.5q-36 0 -70.5 10t-62 35t-44.5 68.5t-17 110.5zM849 515
q0 -63 5.5 -87.5t25.5 -24.5q18 0 24 24.5t6 87.5q0 62 -6.5 84.5t-24.5 22.5q-19 0 -24.5 -22.5t-5.5 -84.5zM1063 0h-364v140h364v-140z" />
    <glyph glyph-name="trademark" unicode="&#x2122;" horiz-adv-x="746" 
d="M443 324l-37 171v-171h-126v286h-43v-286h-131v286h-97v110h437l47 -197l43 197h168v-396h-127v171l-39 -171h-95z" />
    <glyph glyph-name="Omega" unicode="&#x2126;" horiz-adv-x="704" 
d="M379 133q18 0 34 12t28 39t19 70t7 105q0 65 -9 109t-25 71t-36.5 38.5t-44.5 11.5t-45 -11.5t-36.5 -38.5t-24 -71.5t-8.5 -109.5q0 -61 7 -104t19 -70t27.5 -39t33.5 -12v-133h-291v140h87q-42 38 -67.5 99.5t-25.5 141.5q0 89 25.5 155.5t69.5 110.5t103 66t126 22
t126 -21t103.5 -64.5t70 -110t25.5 -157.5q0 -75 -26 -137.5t-70 -104.5h91v-140h-293v133z" />
    <glyph glyph-name="estimated" unicode="&#x212e;" horiz-adv-x="945" 
d="M218 339v-218q16 -24 44.5 -42t63.5 -30t73.5 -18.5t73.5 -6.5t72.5 6t72 18.5t64.5 31t51 42.5h58q-55 -64 -134.5 -100.5t-184.5 -36.5q-86 0 -159.5 27t-127.5 75t-84.5 114.5t-30.5 145.5t31.5 146t86.5 116.5t128 77.5t156 28q80 0 153 -27.5t128.5 -77t88.5 -118.5
t33 -153h-657zM727 574q-42 46 -104 74t-150 28t-152.5 -27t-102.5 -74v-196h509v195z" />
    <glyph glyph-name="onethird" unicode="&#x2153;" horiz-adv-x="884" 
d="M134 -90l424 880h138l-423 -880h-139zM276 276h-136v309l-90 -42v120l110 54h116v-441zM680 445q74 0 110.5 -31.5t36.5 -82.5q0 -35 -19.5 -63.5t-61.5 -39.5q43 -11 65.5 -41t22.5 -68q0 -68 -43 -101.5t-117 -33.5q-76 0 -119 37.5t-47 102.5h134q0 -20 6 -32t23 -12
q10 0 17.5 11t7.5 33q0 32 -14 43t-34 11h-29v89h31q40 0 40 48q0 20 -4 27.5t-14 7.5q-20 0 -24 -35h-128q8 61 50 95.5t110 34.5z" />
    <glyph glyph-name="twothirds" unicode="&#x2154;" horiz-adv-x="961" 
d="M211 -90l424 880h138l-423 -880h-139zM50 599q10 67 54.5 106.5t115.5 39.5q78 0 116 -35.5t38 -89.5q0 -21 -4.5 -39.5t-16.5 -38t-31.5 -41.5t-49.5 -49l-55 -53h156v-105h-311v103l86 85q29 29 47 50t28 37t13.5 28.5t3.5 24.5q0 13 -6.5 18.5t-16.5 5.5
q-13 0 -21 -10.5t-12 -36.5h-134zM757 445q74 0 110.5 -31.5t36.5 -82.5q0 -35 -19.5 -63.5t-61.5 -39.5q43 -11 65.5 -41t22.5 -68q0 -68 -43 -101.5t-117 -33.5q-76 0 -119 37.5t-47 102.5h134q0 -20 6 -32t23 -12q10 0 17.5 11t7.5 33q0 32 -14 43t-34 11h-29v89h31
q40 0 40 48q0 20 -4 27.5t-14 7.5q-20 0 -24 -35h-128q8 61 50 95.5t110 34.5z" />
    <glyph glyph-name="oneeighth" unicode="&#x215b;" horiz-adv-x="900" 
d="M134 -90l424 880h138l-423 -880h-139zM276 276h-136v309l-90 -42v120l110 54h116v-441zM680 447q73 0 115 -33t42 -84q0 -32 -17.5 -57.5t-53.5 -42.5q84 -33 84 -112q0 -27 -10.5 -51t-31.5 -42t-53 -28.5t-75 -10.5t-75 10.5t-53.5 28t-32.5 40.5t-11 49q0 43 18 69.5
t63 42.5q-37 17 -53 40t-16 57q0 54 39 89t121 35zM680 362q-13 0 -22 -8.5t-9 -31.5q0 -27 9 -40t24 -20q8 7 17 21t9 38q0 23 -9 32t-19 9zM675 190q-12 -8 -20.5 -23t-8.5 -43q0 -23 9.5 -33.5t22.5 -10.5q14 0 24 10.5t10 33.5q0 26 -10 41t-27 25z" />
    <glyph glyph-name="threeeighths" unicode="&#x215c;" horiz-adv-x="977" 
d="M211 -90l424 880h138l-423 -880h-139zM757 447q73 0 115 -33t42 -84q0 -32 -17.5 -57.5t-53.5 -42.5q84 -33 84 -112q0 -27 -10.5 -51t-31.5 -42t-53 -28.5t-75 -10.5t-75 10.5t-53.5 28t-32.5 40.5t-11 49q0 43 18 69.5t63 42.5q-37 17 -53 40t-16 57q0 54 39 89t121 35
zM757 362q-13 0 -22 -8.5t-9 -31.5q0 -27 9 -40t24 -20q8 7 17 21t9 38q0 23 -9 32t-19 9zM752 190q-12 -8 -20.5 -23t-8.5 -43q0 -23 9.5 -33.5t22.5 -10.5q14 0 24 10.5t10 33.5q0 26 -10 41t-27 25zM222 745q74 0 110.5 -31.5t36.5 -82.5q0 -35 -19.5 -63.5t-61.5 -39.5
q43 -11 65.5 -41t22.5 -68q0 -68 -43 -101.5t-117 -33.5q-76 0 -119 37.5t-47 102.5h134q0 -20 6 -32t23 -12q10 0 17.5 11t7.5 33q0 32 -14 43t-34 11h-29v89h31q40 0 40 48q0 20 -4 27.5t-14 7.5q-20 0 -24 -35h-128q8 61 50 95.5t110 34.5z" />
    <glyph glyph-name="fiveeighths" unicode="&#x215d;" horiz-adv-x="977" 
d="M211 -90l424 880h138l-423 -880h-139zM757 447q73 0 115 -33t42 -84q0 -32 -17.5 -57.5t-53.5 -42.5q84 -33 84 -112q0 -27 -10.5 -51t-31.5 -42t-53 -28.5t-75 -10.5t-75 10.5t-53.5 28t-32.5 40.5t-11 49q0 43 18 69.5t63 42.5q-37 17 -53 40t-16 57q0 54 39 89t121 35
zM757 362q-13 0 -22 -8.5t-9 -31.5q0 -27 9 -40t24 -20q8 7 17 21t9 38q0 23 -9 32t-19 9zM752 190q-12 -8 -20.5 -23t-8.5 -43q0 -23 9.5 -33.5t22.5 -10.5q14 0 24 10.5t10 33.5q0 26 -10 41t-27 25zM345 641h-142l-4 -65q14 11 28 14t28 3q53 0 87 -35.5t34 -111.5
q0 -74 -42.5 -118t-118.5 -44q-73 0 -114.5 35t-50.5 102h129q2 -22 10 -31.5t19 -9.5q14 0 22.5 12t8.5 50q0 40 -9 51.5t-24 11.5q-19 0 -30 -19h-107l12 249h264v-94z" />
    <glyph glyph-name="seveneighths" unicode="&#x215e;" horiz-adv-x="897" 
d="M131 -90l424 880h138l-423 -880h-139zM677 447q73 0 115 -33t42 -84q0 -32 -17.5 -57.5t-53.5 -42.5q84 -33 84 -112q0 -27 -10.5 -51t-31.5 -42t-53 -28.5t-75 -10.5t-75 10.5t-53.5 28t-32.5 40.5t-11 49q0 43 18 69.5t63 42.5q-37 17 -53 40t-16 57q0 54 39 89t121 35
zM677 362q-13 0 -22 -8.5t-9 -31.5q0 -27 9 -40t24 -20q8 7 17 21t9 38q0 23 -9 32t-19 9zM672 190q-12 -8 -20.5 -23t-8.5 -43q0 -23 9.5 -33.5t22.5 -10.5q14 0 24 10.5t10 33.5q0 26 -10 41t-27 25zM83 294l152 344h-185v97h312v-94l-142 -347h-137z" />
    <glyph glyph-name="arrowleft" unicode="&#x2190;" horiz-adv-x="600" 
d="M254 438h326v-142h-326l144 -182h-182l-196 253l196 253h182z" />
    <glyph glyph-name="arrowup" unicode="&#x2191;" horiz-adv-x="600" 
d="M374 415v-328h-148v328l-179 -141v177l253 196l253 -196v-177z" />
    <glyph glyph-name="arrowright" unicode="&#x2192;" horiz-adv-x="600" 
d="M346 296h-326v142h326l-144 182h182l196 -253l-196 -253h-182z" />
    <glyph glyph-name="arrowdown" unicode="&#x2193;" horiz-adv-x="600" 
d="M226 319v328h148v-328l179 141v-177l-253 -196l-253 196v177z" />
    <glyph glyph-name="arrowboth" unicode="&#x2194;" horiz-adv-x="900" 
d="M254 438h392l-144 182h182l196 -253l-196 -253h-182l144 182h-392l144 -182h-182l-196 253l196 253h182z" />
    <glyph glyph-name="arrowupdn" unicode="&#x2195;" horiz-adv-x="600" 
d="M374 565v-397l179 141v-176l-253 -196l-253 196v176l178 -141v397l-178 -141v177l253 196l253 -196v-177z" />
    <glyph glyph-name="uni2196" unicode="&#x2196;" horiz-adv-x="600" 
d="M316 469l235 -234l-106 -105l-224 224l-26 -223l-133 129l40 318l318 40l126 -122z" />
    <glyph glyph-name="uni2197" unicode="&#x2197;" horiz-adv-x="600" 
d="M393 354l-224 -224l-105 105l234 234l-229 27l125 122l318 -40l40 -318l-133 -129z" />
    <glyph glyph-name="uni2198" unicode="&#x2198;" horiz-adv-x="600" 
d="M298 273l-234 235l105 105l224 -224l26 223l133 -129l-40 -318l-318 -40l-125 122z" />
    <glyph glyph-name="uni2199" unicode="&#x2199;" horiz-adv-x="600" 
d="M221 389l224 224l106 -105l-235 -234l230 -27l-126 -122l-318 40l-40 318l133 129z" />
    <glyph glyph-name="arrowupdnbse" unicode="&#x21a8;" horiz-adv-x="600" 
d="M374 565v-397l179 141v-176l-253 -196l-253 196v176l178 -141v397l-178 -141v177l253 196l253 -196v-177zM540 -209h-481v139h481v-139z" />
    <glyph glyph-name="partialdiff" unicode="&#x2202;" horiz-adv-x="513" 
d="M75 753q93 -7 170.5 -40.5t133 -90t86 -132.5t30.5 -167q0 -161 -56 -249.5t-177 -88.5q-118 0 -181 63t-63 186q0 57 13.5 103t38.5 79t59.5 51t76.5 18q16 0 33.5 -6t27.5 -16q-10 36 -25.5 62.5t-39 46t-55 32t-73.5 21.5zM258 354q-11 0 -18 -5t-11.5 -18.5t-6.5 -37
t-2 -59.5t2 -58.5t7 -36t12.5 -18.5t18.5 -5q9 0 16 5t11.5 19.5t6.5 42t2 72.5q0 58 -9.5 78.5t-28.5 20.5z" />
    <glyph glyph-name="Delta" unicode="&#x2206;" horiz-adv-x="648" 
d="M-4 0l220 720h214l221 -720h-655zM241 138h156l-78 399z" />
    <glyph glyph-name="product" unicode="&#x220f;" horiz-adv-x="587" 
d="M577 556h-36v-556h-202v556h-91v-556h-203v556h-35v144h567v-144z" />
    <glyph glyph-name="summation" unicode="&#x2211;" horiz-adv-x="553" 
d="M233 575l151 -302l-151 -300h307v-143h-526v133l158 310l-158 313v134h526v-145h-307z" />
    <glyph glyph-name="minus" unicode="&#x2212;" 
d="M480 250h-400v140h400v-140z" />
    <glyph glyph-name="uni2215" unicode="&#x2215;" horiz-adv-x="234" 
d="M6 -90h-139l354 880h138z" />
    <glyph glyph-name="uni2219" unicode="&#x2219;" horiz-adv-x="263" 
d="M41 220v175h203v-175h-203z" />
    <glyph glyph-name="radical" unicode="&#x221a;" horiz-adv-x="566" 
d="M140 0l-152 496h196l68 -315l130 621h283v-143h-132l-163 -659h-230z" />
    <glyph glyph-name="infinity" unicode="&#x221e;" horiz-adv-x="685" 
d="M204 532q42 0 76.5 -18.5t60.5 -52.5q28 36 65 53.5t78 17.5q49 0 85 -14.5t59.5 -40t35 -59t11.5 -72.5q0 -38 -11.5 -72t-35.5 -59.5t-60.5 -40t-86.5 -14.5q-42 0 -76 18.5t-60 51.5q-29 -35 -66.5 -52.5t-77.5 -17.5q-49 0 -85 14.5t-59.5 40t-35 59.5t-11.5 72
q0 39 11.5 72.5t35.5 59t60.5 40t86.5 14.5zM474 285q16 0 26 15t10 46t-10 46.5t-24 15.5q-15 0 -32 -13.5t-31 -49.5q4 -24 22 -42t39 -18zM212 408q-17 0 -27 -15.5t-10 -46.5t10 -46t24 -15q15 0 32 13.5t30 48.5q-4 24 -21.5 42.5t-37.5 18.5z" />
    <glyph glyph-name="orthogonal" unicode="&#x221f;" horiz-adv-x="735" 
d="M685 180v-180h-635v660h194v-480h441z" />
    <glyph glyph-name="intersection" unicode="&#x2229;" horiz-adv-x="600" 
d="M300 579q48 0 90 -18t73.5 -49.5t49.5 -73.5t18 -90v-310h-165v310q0 87 -66 87t-66 -87v-310h-165v310q0 48 18 90t49.5 73.5t73.5 49.5t90 18z" />
    <glyph glyph-name="integral" unicode="&#x222b;" horiz-adv-x="480" 
d="M56 -20q29 -6 42.5 -7.5t26.5 -1.5q21 0 31.5 11t10.5 38v728q0 94 49 138.5t133 44.5q41 0 67 -3.5t55 -9.5v-136q-29 6 -43 7.5t-26 1.5q-23 0 -32.5 -11t-9.5 -38v-728q0 -94 -49.5 -138.5t-133.5 -44.5q-41 0 -67 3.5t-54 9.5v136z" />
    <glyph glyph-name="approxequal" unicode="&#x2248;" 
d="M354 328q-24 0 -45 8.5t-39.5 18t-36.5 18t-36 8.5q-26 0 -52.5 -12t-64.5 -37v143q19 14 52.5 27t73.5 13q25 0 45.5 -8t39.5 -18t36.5 -18t36.5 -8q26 0 52 12t64 37v-144q-19 -13 -52 -26.5t-74 -13.5zM354 124q-24 0 -45 8t-39.5 18t-36.5 18t-36 8q-26 0 -52.5 -12
t-64.5 -36v143q19 13 52.5 26.5t73.5 13.5q25 0 45.5 -8.5t39.5 -18t36.5 -18t36.5 -8.5q26 0 52 12t64 37v-143q-19 -14 -52 -27t-74 -13z" />
    <glyph glyph-name="notequal" unicode="&#x2260;" 
d="M481 151h-211l-55 -115h-149l55 115h-41v140h114l25 56h-139v140h211l53 109h149l-53 -109h41v-140h-114l-24 -56h138v-140z" />
    <glyph glyph-name="equivalence" unicode="&#x2261;" 
d="M480 151h-400v140h400v-140zM480 -45h-400v140h400v-140zM480 347h-400v140h400v-140z" />
    <glyph glyph-name="lessequal" unicode="&#x2264;" 
d="M79 441l401 185v-163l-187 -82l187 -57v-163l-401 155v125zM480 0h-401v139h401v-139z" />
    <glyph glyph-name="greaterequal" unicode="&#x2265;" 
d="M79 139h401v-139h-401v139zM480 316l-401 -155v163l187 57l-187 82v163l401 -185v-125z" />
    <glyph glyph-name="dotmath" unicode="&#x22c5;" horiz-adv-x="296" 
d="M46 220v175h203v-175h-203z" />
    <glyph glyph-name="star" unicode="&#x22c6;" horiz-adv-x="600" 
d="M156 660l95 -125l49 195l48 -195l78 141l-35 -168l201 87l-115 -166l158 37l-152 -88l196 -93l-202 -26l133 -90l-166 55l57 -205l-151 137l20 -160l-70 161l-70 -161l20 160l-152 -137l58 205l-166 -55l132 93l-201 26l194 90l-149 88l156 -37l-114 166l200 -87z" />
    <glyph glyph-name="house" unicode="&#x2302;" horiz-adv-x="722" 
d="M672 370v-370h-622v370l311 277zM210 139h302v188l-151 130l-151 -130v-188z" />
    <glyph glyph-name="revlogicalnot" unicode="&#x2310;" 
d="M480 390v-140h-247v-152h-153v292h400z" />
    <glyph glyph-name="integraltp" unicode="&#x2320;" horiz-adv-x="480" 
d="M349 931q41 0 67 -3.5t55 -9.5v-136q-29 6 -43 7.5t-26 1.5q-23 0 -32.5 -11t-9.5 -38v-952h-193v958q0 94 49 138.5t133 44.5z" />
    <glyph glyph-name="integralbt" unicode="&#x2321;" horiz-adv-x="480" 
d="M360 14q0 -94 -49.5 -138.5t-133.5 -44.5q-41 0 -67 3.5t-54 9.5v136q29 -6 42.5 -7.5t26.5 -1.5q21 0 31.5 11t10.5 38v910h193v-916z" />
    <glyph glyph-name="SF100000" unicode="&#x2500;" 
d="M-5 397h570v-90h-570v90z" />
    <glyph glyph-name="SF110000" unicode="&#x2502;" 
d="M235 1000h90v-1362h-90v1362z" />
    <glyph glyph-name="SF010000" unicode="&#x250c;" 
d="M235 397h330v-90h-240v-669h-90v759z" />
    <glyph glyph-name="SF030000" unicode="&#x2510;" 
d="M-5 397h330v-759h-90v669h-240v90z" />
    <glyph glyph-name="SF020000" unicode="&#x2514;" 
d="M235 1000h90v-603h240v-90h-330v693z" />
    <glyph glyph-name="SF040000" unicode="&#x2518;" 
d="M-5 397h240v603h90v-693h-330v90z" />
    <glyph glyph-name="SF080000" unicode="&#x251c;" 
d="M235 1000h90v-603h240v-90h-240v-669h-90v1362z" />
    <glyph glyph-name="SF090000" unicode="&#x2524;" 
d="M-5 397h240v603h90v-1362h-90v669h-240v90z" />
    <glyph glyph-name="SF060000" unicode="&#x252c;" 
d="M-5 397h570v-90h-240v-669h-90v669h-240v90z" />
    <glyph glyph-name="SF070000" unicode="&#x2534;" 
d="M-5 397h240v603h90v-603h240v-90h-570v90z" />
    <glyph glyph-name="SF050000" unicode="&#x253c;" 
d="M-5 397h240v603h90v-603h240v-90h-240v-669h-90v669h-240v90z" />
    <glyph glyph-name="SF430000" unicode="&#x2550;" 
d="M-5 307h570v-90h-570v90zM565 397h-570v90h570v-90z" />
    <glyph glyph-name="SF240000" unicode="&#x2551;" 
d="M325 -362v1362h90v-1362h-90zM145 1000h90v-1362h-90v1362z" />
    <glyph glyph-name="SF510000" unicode="&#x2552;" 
d="M565 397h-240v-90h240v-90h-240v-579h-90v849h330v-90z" />
    <glyph glyph-name="SF520000" unicode="&#x2553;" 
d="M325 -362v669h-90v-669h-90v759h420v-90h-150v-669h-90z" />
    <glyph glyph-name="SF390000" unicode="&#x2554;" 
d="M145 487h420v-90h-330v-759h-90v849zM325 -362v669h240v-90h-150v-579h-90z" />
    <glyph glyph-name="SF220000" unicode="&#x2555;" 
d="M-5 307h240v90h-240v90h330v-849h-90v579h-240v90z" />
    <glyph glyph-name="SF210000" unicode="&#x2556;" 
d="M-5 397h420v-759h-90v669h-90v-669h-90v669h-150v90z" />
    <glyph glyph-name="SF250000" unicode="&#x2557;" 
d="M325 -362v759h-330v90h420v-849h-90zM-5 307h240v-669h-90v579h-150v90z" />
    <glyph glyph-name="SF500000" unicode="&#x2558;" 
d="M565 397h-240v-90h240v-90h-330v783h90v-513h240v-90z" />
    <glyph glyph-name="SF490000" unicode="&#x2559;" 
d="M145 1000h90v-603h90v603h90v-603h150v-90h-420v693z" />
    <glyph glyph-name="SF380000" unicode="&#x255a;" 
d="M565 307v-90h-420v783h90v-693h330zM565 397h-240v603h90v-513h150v-90z" />
    <glyph glyph-name="SF280000" unicode="&#x255b;" 
d="M-5 307h240v90h-240v90h240v513h90v-783h-330v90z" />
    <glyph glyph-name="SF270000" unicode="&#x255c;" 
d="M-5 397h150v603h90v-603h90v603h90v-693h-420v90z" />
    <glyph glyph-name="SF260000" unicode="&#x255d;" 
d="M-5 307h330v693h90v-783h-420v90zM145 1000h90v-603h-240v90h150v513z" />
    <glyph glyph-name="SF360000" unicode="&#x255e;" 
d="M565 397h-240v-90h240v-90h-240v-579h-90v1362h90v-513h240v-90z" />
    <glyph glyph-name="SF370000" unicode="&#x255f;" 
d="M325 -362v1362h90v-603h150v-90h-150v-669h-90zM145 1000h90v-1362h-90v1362z" />
    <glyph glyph-name="SF420000" unicode="&#x2560;" 
d="M145 1000h90v-1362h-90v1362zM325 -362v669h240v-90h-150v-579h-90zM565 397h-240v603h90v-513h150v-90z" />
    <glyph glyph-name="SF190000" unicode="&#x2561;" 
d="M-5 307h240v90h-240v90h240v513h90v-1362h-90v579h-240v90z" />
    <glyph glyph-name="SF200000" unicode="&#x2562;" 
d="M145 -362v669h-150v90h150v603h90v-1362h-90zM325 -362v1362h90v-1362h-90z" />
    <glyph glyph-name="SF230000" unicode="&#x2563;" 
d="M325 -362v1362h90v-1362h-90zM-5 307h240v-669h-90v579h-150v90zM145 1000h90v-603h-240v90h150v513z" />
    <glyph glyph-name="SF470000" unicode="&#x2564;" 
d="M-5 307h570v-90h-240v-579h-90v579h-240v90zM565 397h-570v90h570v-90z" />
    <glyph glyph-name="SF480000" unicode="&#x2565;" 
d="M-5 397h570v-90h-150v-669h-90v669h-90v-669h-90v669h-150v90z" />
    <glyph glyph-name="SF410000" unicode="&#x2566;" 
d="M-5 307h240v-669h-90v579h-150v90zM325 -362v669h240v-90h-150v-579h-90zM565 397h-570v90h570v-90z" />
    <glyph glyph-name="SF450000" unicode="&#x2567;" 
d="M565 397h-570v90h240v513h90v-513h240v-90zM-5 307h570v-90h-570v90z" />
    <glyph glyph-name="SF460000" unicode="&#x2568;" 
d="M-5 397h150v603h90v-603h90v603h90v-603h150v-90h-570v90z" />
    <glyph glyph-name="SF400000" unicode="&#x2569;" 
d="M565 397h-240v603h90v-513h150v-90zM145 1000h90v-603h-240v90h150v513zM-5 307h570v-90h-570v90z" />
    <glyph glyph-name="SF540000" unicode="&#x256a;" 
d="M565 397h-240v-90h240v-90h-240v-579h-90v579h-240v90h240v90h-240v90h240v513h90v-513h240v-90z" />
    <glyph glyph-name="SF530000" unicode="&#x256b;" 
d="M-5 397h150v603h90v-603h90v603h90v-603h150v-90h-150v-669h-90v669h-90v-669h-90v669h-150v90z" />
    <glyph glyph-name="SF440000" unicode="&#x256c;" 
d="M-5 307h240v-669h-90v579h-150v90zM325 -362v669h240v-90h-150v-579h-90zM565 397h-240v603h90v-513h150v-90zM145 1000h90v-603h-240v90h150v513z" />
    <glyph glyph-name="upblock" unicode="&#x2580;" 
d="M560 319h-560v681h560v-681z" />
    <glyph glyph-name="dnblock" unicode="&#x2584;" 
d="M0 319h560v-681h-560v681z" />
    <glyph glyph-name="block" unicode="&#x2588;" 
d="M0 1000h560v-1362h-560v1362z" />
    <glyph glyph-name="lfblock" unicode="&#x258c;" 
d="M0 1000h280v-1362h-280v1362z" />
    <glyph glyph-name="rtblock" unicode="&#x2590;" 
d="M280 -362v1362h280v-1362h-280z" />
    <glyph glyph-name="ltshade" unicode="&#x2591;" 
d="M448 -292v-68h-56v68h56zM336 -156v-68h-56v68h56zM112 252v-68h-56v68h56zM336 116v-68h-56v68h56zM336 252v-68h-56v68h56zM336 388v-68h-56v68h56zM336 524v-68h-56v68h56zM336 660v-68h-56v68h56zM336 796v-68h-56v68h56zM336 932v-68h-56v68h56zM448 -20v-68h-56v68
h56zM112 -156v-68h-56v68h56zM112 524v-68h-56v68h56zM112 116v-68h-56v68h56zM336 -20v-68h-56v68h56zM112 388v-68h-56v68h56zM224 -20v-68h-56v68h56zM112 660v-68h-56v68h56zM112 796v-68h-56v68h56zM112 932v-68h-56v68h56zM112 -292v-68h-56v68h56zM224 932v-68h-56
v68h56zM224 796v-68h-56v68h56zM224 660v-68h-56v68h56zM224 524v-68h-56v68h56zM224 388v-68h-56v68h56zM448 524v-68h-56v68h56zM224 116v-68h-56v68h56zM112 -20v-68h-56v68h56zM224 -156v-68h-56v68h56zM336 -292v-68h-56v68h56zM448 932v-68h-56v68h56zM448 796v-68
h-56v68h56zM448 660v-68h-56v68h56zM224 252v-68h-56v68h56zM448 388v-68h-56v68h56zM448 252v-68h-56v68h56zM448 116v-68h-56v68h56zM224 -292v-68h-56v68h56zM448 -156v-68h-56v68h56zM560 -292v-68h-56v68h56zM560 -156v-68h-56v68h56zM560 -20v-68h-56v68h56zM560 116
v-68h-56v68h56zM560 252v-68h-56v68h56zM560 388v-68h-56v68h56zM560 524v-68h-56v68h56zM560 660v-68h-56v68h56zM560 796v-68h-56v68h56zM560 932v-68h-56v68h56z" />
    <glyph glyph-name="shade" unicode="&#x2592;" 
d="M503 -292h-55v-68h-57v68h-55v-68h-57v68h-55v-68h-57v68h-55v-68h-57v68h-55v69h55v67h-55v69h55v67h-55v69h55v67h-55v69h55v67h-55v69h55v67h-55v69h55v67h-55v69h55v67h-55v69h55v67h-55v69h55v67h-55v68h56v-67h55v67h57v-67h55v67h57v-67h55v67h57v-67h55v67h57
v-67h56v-69h-56v-67h56v-69h-56v-67h56v-69h-56v-67h56v-69h-56v-67h56v-69h-56v-67h56v-69h-56v-67h56v-69h-56v-67h56v-69h-56v-67h56v-69h-56v-67h56v-69h-57v68zM392 -291h55v67h-55v-67zM168 -291h55v67h-55v-67zM448 -223h55v67h-55v-67zM224 -223h55v67h-55v-67z
M280 797h55v67h-55v-67zM112 729h55v67h-55v-67zM112 -87h55v67h-55v-67zM392 253h55v67h-55v-67zM280 -155h55v67h-55v-67zM392 -19h55v67h-55v-67zM280 -291h55v67h-55v-67zM336 865h55v67h-55v-67zM448 -87h55v67h-55v-67zM168 253h55v67h-55v-67zM56 525h55v67h-55v-67z
M280 661h55v67h-55v-67zM168 -19h55v67h-55v-67zM56 -155h55v67h-55v-67zM336 49h55v67h-55v-67zM56 661h55v67h-55v-67zM280 253h55v67h-55v-67zM280 525h55v67h-55v-67zM392 525h55v67h-55v-67zM112 865h55v67h-55v-67zM168 797h55v67h-55v-67zM168 661h55v67h-55v-67z
M392 389h55v67h-55v-67zM280 117h55v67h-55v-67zM448 321h55v67h-55v-67zM336 185h55v67h-55v-67zM56 117h55v67h-55v-67zM392 797h55v67h-55v-67zM336 -87h55v67h-55v-67zM56 -19h55v67h-55v-67zM224 49h55v67h-55v-67zM224 729h55v67h-55v-67zM224 185h55v67h-55v-67z
M112 49h55v67h-55v-67zM448 185h55v67h-55v-67zM224 321h55v67h-55v-67zM224 457h55v67h-55v-67zM448 865h55v67h-55v-67zM280 -19h55v67h-55v-67zM112 321h55v67h-55v-67zM336 593h55v67h-55v-67zM224 593h55v67h-55v-67zM56 797h55v67h-55v-67zM448 457h55v67h-55v-67z
M112 185h55v67h-55v-67zM168 389h55v67h-55v-67zM336 321h55v67h-55v-67zM448 49h55v67h-55v-67zM168 -155h55v67h-55v-67zM56 389h55v67h-55v-67zM224 -87h55v67h-55v-67zM448 593h55v67h-55v-67zM224 865h55v67h-55v-67zM392 661h55v67h-55v-67zM56 253h55v67h-55v-67z
M168 525h55v67h-55v-67zM336 457h55v67h-55v-67zM392 117h55v67h-55v-67zM112 457h55v67h-55v-67zM448 729h55v67h-55v-67zM280 389h55v67h-55v-67zM336 729h55v67h-55v-67zM168 117h55v67h-55v-67zM112 -223h55v67h-55v-67zM336 -223h55v67h-55v-67zM56 -291h55v67h-55v-67
zM112 593h55v67h-55v-67zM392 -155h55v67h-55v-67z" />
    <glyph glyph-name="dkshade" unicode="&#x2593;" 
d="M56 -360h-56v1360h560v-68h-56v-68h56v-68h-56v-68h56v-68h-56v-68h56v-68h-56v-68h56v-68h-56v-68h56v-68h-56v-68h56v-68h-56v-68h56v-68h-56v-68h56v-68h-56v-68h56v-68h-56v-68h-56v68h-56v-68h-56v68h-56v-68h-56v68h-56v-68h-56v68h-56v-68zM392 48h56v68h-56v-68z
M392 184h56v68h-56v-68zM392 320h56v68h-56v-68zM168 184h56v68h-56v-68zM392 592h56v68h-56v-68zM392 728h56v68h-56v-68zM392 864h56v68h-56v-68zM168 -224h56v68h-56v-68zM56 -88h56v68h-56v-68zM168 48h56v68h-56v-68zM392 456h56v68h-56v-68zM168 320h56v68h-56v-68z
M168 456h56v68h-56v-68zM168 592h56v68h-56v-68zM168 728h56v68h-56v-68zM168 864h56v68h-56v-68zM56 864h56v68h-56v-68zM56 728h56v68h-56v-68zM56 592h56v68h-56v-68zM168 -88h56v68h-56v-68zM56 320h56v68h-56v-68zM280 -88h56v68h-56v-68zM56 48h56v68h-56v-68zM56 456
h56v68h-56v-68zM56 -224h56v68h-56v-68zM392 -88h56v68h-56v-68zM280 864h56v68h-56v-68zM280 728h56v68h-56v-68zM280 592h56v68h-56v-68zM280 456h56v68h-56v-68zM280 320h56v68h-56v-68zM280 184h56v68h-56v-68zM280 48h56v68h-56v-68zM56 184h56v68h-56v-68zM280 -224
h56v68h-56v-68zM392 -224h56v68h-56v-68z" />
    <glyph glyph-name="filledbox" unicode="&#x25a0;" 
d="M26 508h508v-508h-508v508z" />
    <glyph glyph-name="H22073" unicode="&#x25a1;" 
d="M26 508h508v-508h-508v508zM444 90v328h-328v-328h328z" />
    <glyph glyph-name="H18543" unicode="&#x25aa;" 
d="M133 254h267v-254h-267v254z" />
    <glyph glyph-name="H18551" unicode="&#x25ab;" 
d="M133 254h267v-254h-267v254zM310 90v74h-87v-74h87z" />
    <glyph glyph-name="filledrect" unicode="&#x25ac;" 
d="M26 254h508v-254h-508v254z" />
    <glyph glyph-name="uni25AF" unicode="&#x25af;" horiz-adv-x="539" 
d="M34 720h471v-720h-471v720zM366 139v442h-193v-442h193z" />
    <glyph glyph-name="triagup" unicode="&#x25b2;" horiz-adv-x="600" 
d="M30 0l270 540l270 -540h-540z" />
    <glyph glyph-name="triagrt" unicode="&#x25ba;" horiz-adv-x="600" 
d="M570 270l-540 -270v540z" />
    <glyph glyph-name="triagdn" unicode="&#x25bc;" horiz-adv-x="600" 
d="M300 0l-270 540h540z" />
    <glyph glyph-name="triaglf" unicode="&#x25c4;" horiz-adv-x="600" 
d="M570 0l-540 270l540 270v-540z" />
    <glyph glyph-name="lozenge" unicode="&#x25ca;" 
d="M351 0h-154l-148 349l149 351h153l160 -351zM277 545l-61 -196l61 -194l66 194z" />
    <glyph glyph-name="circle" unicode="&#x25cb;" 
d="M26 254q0 52 20 98.5t54.5 81t80.5 54.5t99 20q52 0 98.5 -20t81 -54.5t54.5 -81t20 -98.5q0 -53 -20 -99t-54.5 -80.5t-81 -54.5t-98.5 -20q-53 0 -99 20t-80.5 54.5t-54.5 80.5t-20 99zM116 254q0 -34 13 -64t35 -52t52 -35t64 -13t63.5 13t52 35t35.5 52t13 64
t-13 63.5t-35.5 52t-52 35.5t-63.5 13t-64 -13t-52 -35.5t-35 -52t-13 -63.5z" />
    <glyph glyph-name="H18533" unicode="&#x25cf;" 
d="M26 254q0 52 20 98.5t54.5 81t80.5 54.5t99 20q52 0 98.5 -20t81 -54.5t54.5 -81t20 -98.5q0 -53 -20 -99t-54.5 -80.5t-81 -54.5t-98.5 -20q-53 0 -99 20t-80.5 54.5t-54.5 80.5t-20 99z" />
    <glyph glyph-name="invbullet" unicode="&#x25d8;" horiz-adv-x="600" 
d="M570 0h-540v540h540v-540zM70 270q0 -48 18 -89.5t49.5 -73t73 -49.5t89.5 -18q47 0 89 18t73.5 49.5t49.5 73t18 89.5q0 47 -18 89t-49.5 73.5t-73.5 49.5t-89 18q-48 0 -89.5 -18t-73 -49.5t-49.5 -73.5t-18 -89z" />
    <glyph glyph-name="invcircle" unicode="&#x25d9;" 
d="M26 508h508v-508h-508v508zM71 254q0 -44 16.5 -82t44.5 -66t66 -44.5t82 -16.5q43 0 81 16.5t66.5 44.5t45 66t16.5 82q0 43 -16.5 81t-45 66.5t-66.5 45t-81 16.5q-44 0 -82 -16.5t-66 -45t-44.5 -66.5t-16.5 -81zM161 254q0 24 9.5 46t25.5 38t37.5 25.5t46.5 9.5
q24 0 46 -9.5t38 -25.5t25.5 -38t9.5 -46q0 -25 -9.5 -46.5t-25.5 -37.5t-38 -25.5t-46 -9.5q-25 0 -46.5 9.5t-37.5 25.5t-25.5 37.5t-9.5 46.5z" />
    <glyph glyph-name="openbullet" unicode="&#x25e6;" horiz-adv-x="600" 
d="M70 270q0 47 18 89t49.5 73.5t73 49.5t89.5 18q47 0 89 -18t73.5 -49.5t49.5 -73.5t18 -89q0 -48 -18 -89.5t-49.5 -73t-73.5 -49.5t-89 -18q-48 0 -89.5 18t-73 49.5t-49.5 73t-18 89.5zM161 270q0 -29 11 -54.5t29.5 -44t44 -29.5t54.5 -11q28 0 53.5 11t44.5 29.5
t30 44t11 54.5q0 28 -11 53.5t-30 44.5t-44.5 30t-53.5 11q-29 0 -54.5 -11t-44 -30t-29.5 -44.5t-11 -53.5z" />
    <glyph glyph-name="smileface" unicode="&#x263a;" horiz-adv-x="748" 
d="M50 324q0 67 25.5 126t69 102.5t102.5 69t127 25.5q67 0 126 -25.5t103 -69t69.5 -102.5t25.5 -126q0 -68 -25.5 -127t-69.5 -102.5t-103 -69t-126 -25.5q-68 0 -127 25.5t-102.5 69t-69 102.5t-25.5 127zM135 324q0 -51 18 -96t50.5 -79t76 -53.5t94.5 -19.5
q50 0 93.5 19.5t76 53.5t51 79t18.5 96q0 50 -18.5 95t-51 78.5t-76 53t-93.5 19.5q-51 0 -94.5 -19.5t-76 -53t-50.5 -78.5t-18 -95zM333 415q0 -24 -16 -40t-41 -16q-26 0 -42 16t-16 40q0 23 16 38.5t42 15.5q25 0 41 -15.5t16 -38.5zM525 415q0 -24 -16 -40t-41 -16
q-26 0 -42 16t-16 40q0 23 16 38.5t42 15.5q25 0 41 -15.5t16 -38.5zM374 127q-36 0 -65.5 13t-52 34.5t-36.5 51t-18 62.5h63q6 -16 14 -31.5t21 -28t30.5 -20t43.5 -7.5q25 0 43 7.5t31 20t21 28t14 31.5h63q-4 -33 -18 -62.5t-36.5 -51t-52 -34.5t-65.5 -13z" />
    <glyph glyph-name="invsmileface" unicode="&#x263b;" horiz-adv-x="748" 
d="M374 647q67 0 126 -25.5t103 -69t69.5 -102.5t25.5 -126q0 -68 -25.5 -127t-69.5 -102.5t-103 -69t-126 -25.5q-68 0 -127 25.5t-102.5 69t-69 102.5t-25.5 127q0 67 25.5 126t69 102.5t102.5 69t127 25.5zM270 475q-26 0 -42 -15.5t-16 -38.5q0 -24 16 -40t42 -16
q25 0 41 16t16 40q0 23 -16 38.5t-41 15.5zM474 475q-26 0 -42 -15.5t-16 -38.5q0 -24 16 -40t42 -16q25 0 41 16t16 40q0 23 -16 38.5t-41 15.5zM486 282q-12 -36 -36.5 -61.5t-75.5 -25.5t-75.5 25.5t-36.5 61.5h-63q4 -33 18.5 -62.5t37.5 -51t53 -34.5t66 -13t66 13
t53 34.5t37.5 51t18.5 62.5h-63z" />
    <glyph glyph-name="sun" unicode="&#x263c;" horiz-adv-x="735" 
d="M546 269q-6 -24 -18 -43l98 -98l-69 -70l-98 98q-19 -12 -43 -18v-138h-98v137q-25 6 -44 18l-97 -97l-69 70l95 95q-13 23 -19 46h-134v98h133q6 23 19 46l-94 94l69 70l95 -95q11 7 22.5 11.5t23.5 7.5v134h98v-135q12 -3 23 -8t22 -11l96 96l69 -70l-97 -97
q12 -19 18 -43h138v-98h-139zM365 222q40 0 67 28.5t27 68.5t-27 68.5t-67 28.5t-67 -28.5t-27 -68.5t27 -68.5t67 -28.5z" />
    <glyph glyph-name="female" unicode="&#x2640;" horiz-adv-x="485" 
d="M387 192v-88h-95v-104h-98v104h-95v88h95v84q-31 8 -57.5 24.5t-45.5 40t-30 53t-11 63.5q0 40 15 75t41 60.5t61 40t75 14.5t75 -14.5t61.5 -40t41.5 -60.5t15 -75q0 -34 -11 -63.5t-30 -52.5t-45 -39.5t-57 -23.5v-86h95zM141 457q0 -46 27.5 -75.5t73.5 -29.5t74 29.5
t28 75.5t-28 76.5t-74 30.5t-73.5 -30.5t-27.5 -76.5z" />
    <glyph glyph-name="male" unicode="&#x2642;" horiz-adv-x="678" 
d="M535 320l-2 34q0 6 -0.5 11.5t-0.5 10.5q0 15 2 26.5t6 31.5l-5 2l-133 -137q16 -23 24.5 -50.5t8.5 -57.5q0 -40 -15 -75t-41.5 -60.5t-61.5 -40t-75 -14.5t-75 14.5t-61 40t-41 60.5t-15 75t15 75t41 60.5t61 40t75 14.5q45 0 86 -19l140 138l-2 3q-11 -1 -19.5 -1.5
t-16.5 -0.5t-17 0.5t-22 1.5l-40 2l14 83l248 -12l15 -243zM242 85q46 0 74 29.5t28 75.5t-28 76.5t-74 30.5t-73.5 -30.5t-27.5 -76.5t27.5 -75.5t73.5 -29.5z" />
    <glyph glyph-name="spade" unicode="&#x2660;" horiz-adv-x="652" 
d="M602 0h-552l48 78h187l19 162q-25 -42 -58 -60.5t-78 -18.5q-54 0 -86 34t-32 92q0 40 19 79.5t55 82t87 91t115 107.5q64 -59 115 -107.5t87 -91t55 -82t19 -79.5q0 -58 -32 -92t-86 -34q-45 0 -78 18.5t-58 60.5l19 -162h187z" />
    <glyph glyph-name="club" unicode="&#x2663;" horiz-adv-x="652" 
d="M602 0h-552l48 78h187l19 162q-25 -42 -56 -60.5t-73 -18.5q-27 0 -50 9t-39.5 25.5t-26 40t-9.5 51.5q0 66 29.5 103t86.5 37q27 0 42 -3t38 -14q-12 10 -23 21q-12 12 -21 26.5t-14.5 33t-5.5 42.5q0 58 39.5 86t104.5 28t104.5 -28t39.5 -86q0 -24 -5.5 -42.5
t-14.5 -33t-21 -26t-23 -21.5q22 11 37.5 14t42.5 3q57 0 86.5 -37t29.5 -103q0 -28 -9.5 -51.5t-26 -40t-39.5 -25.5t-50 -9q-43 0 -74 18.5t-55 60.5l19 -162h187z" />
    <glyph glyph-name="heart" unicode="&#x2665;" horiz-adv-x="700" 
d="M350 0q-63 56 -118 113t-95.5 113.5t-63.5 112.5t-23 109q0 30 9.5 57t27.5 47.5t43.5 32.5t58.5 12q62 0 98 -32.5t63 -90.5q27 58 63 90.5t98 32.5q33 0 58.5 -12t43.5 -32.5t27.5 -47.5t9.5 -57q0 -53 -23.5 -108.5t-64 -112.5t-95 -114t-117.5 -113z" />
    <glyph glyph-name="diamond" unicode="&#x2666;" horiz-adv-x="570" 
d="M285 648l235 -328l-235 -333l-235 333z" />
    <glyph glyph-name="musicalnote" unicode="&#x266a;" horiz-adv-x="529" 
d="M381 598q54 -36 76 -68t22 -80q0 -27 -6.5 -50.5t-15.5 -43.5l-35 15q0 36 -3 61.5t-11 44t-21.5 32.5t-33.5 27l-28 18v-458q0 -18 -11 -37t-30.5 -35t-47 -26t-60.5 -10q-59 0 -92.5 24t-33.5 66q0 45 38.5 73.5t101.5 28.5q20 0 33 -3t24 -7v465h78z" />
    <glyph glyph-name="musicalnotedbl" unicode="&#x266b;" horiz-adv-x="714" 
d="M664 151q0 -18 -11 -37t-30.5 -35t-47 -26t-60.5 -10q-59 0 -92.5 24t-33.5 66q0 45 38.5 73.5t101.5 28.5q20 0 33 -3t24 -7v363l-261 -66v-431q0 -18 -11 -37t-31 -35t-47 -26t-60 -10q-59 0 -92.5 24t-33.5 66q0 45 38.5 73.5t101.5 28.5q20 0 33 -3t24 -7v417
l417 108v-539z" />
    <glyph glyph-name="uniFB00" unicode="&#xfb00;" horiz-adv-x="623" 
d="M531 389v-389h-192v389h-84v-389h-193v389h-65v131h65v22q0 47 13 81.5t37 57t57 33.5t73 11t81 -6.5t78 -18.5q44 35 116 35q34 0 63 -5t56 -13v-135q-29 8 -42.5 10.5t-22.5 2.5q-22 0 -31 -11t-9 -38v-26h80v-131h-80zM339 520v43q0 7 1 15q-13 3 -24.5 5t-19.5 2
q-23 0 -32 -10.5t-9 -31.5v-23h84z" />
    <glyph glyph-name="fi" unicode="&#xfb01;" horiz-adv-x="569" 
d="M413 581q-29 6 -58.5 10t-51.5 4q-30 0 -39 -12.5t-9 -40.5v-22h280v-520h-194v389h-86v-389h-193v389h-65v131h65v28q0 94 49.5 140.5t139.5 46.5q23 0 46.5 -2t44.5 -5t39.5 -6.5t31.5 -6.5v-134z" />
    <glyph glyph-name="fl" unicode="&#xfb02;" horiz-adv-x="569" 
d="M342 0v589q-11 3 -22.5 4.5t-19.5 1.5q-29 0 -37 -13t-8 -40v-23h51v-131h-51v-388h-193v388h-65v131h65v29q0 94 49.5 140.5t135.5 46.5q30 0 56.5 -4t50.5 -10q46 2 91 4l90 4v-729h-193z" />
    <glyph glyph-name="uniFB03" unicode="&#xfb03;" horiz-adv-x="841" 
d="M571 733q37 -2 68 -7.5t51 -10.5v-134q-29 6 -58.5 10t-51.5 4q-31 0 -40 -13t-9 -40v-22h276v-520h-189v389h-87v-389h-192v389h-84v-389h-193v389h-65v131h65v22q0 91 47 137t132 46q40 0 82 -6.5t80 -20.5q25 18 57.5 27.5t74.5 9.5q8 0 17.5 -0.5t18.5 -1.5zM255 520
h84v44q0 7 1 13q-12 4 -25.5 6t-21.5 2q-23 0 -30.5 -11.5t-7.5 -37.5v-16z" />
    <glyph glyph-name="uniFB04" unicode="&#xfb04;" horiz-adv-x="846" 
d="M531 735q30 0 57.5 -4t50.5 -10q44 2 86.5 4t86.5 4v-729h-193v589q-11 2 -22.5 4t-19.5 2q-46 0 -46 -50v-25h56v-131h-56v-389h-192v389h-84v-389h-193v389h-65v131h65v22q0 47 13 81.5t37 57t57 33.5t73 11q39 0 79.5 -6.5t77.5 -18.5q22 17 53.5 26t78.5 9zM339 578
q-12 3 -24 5t-19 2q-23 0 -32 -10.5t-9 -29.5v-25h84v58z" />
    <glyph glyph-name="uniFEFF" unicode="&#xfeff;" horiz-adv-x="0" 
 />
    <glyph glyph-name="i.latn_TRK" horiz-adv-x="260" 
d="M28 574v146h204v-146h-204zM34 0v520h192v-520h-192z" />
    <glyph glyph-name="Ldot.latn_CAT" horiz-adv-x="556" 
d="M253 720v-569h290v-151h-499v720h209zM328.8 305v146h163.197v-146h-163.197z" />
    <glyph glyph-name="ldot.latn_CAT" horiz-adv-x="422" 
d="M227 0h-193v720h193v-720zM258.8 305v146h163.197v-146h-163.197z" />
    <glyph glyph-name="zero.lf" horiz-adv-x="551" 
d="M276 115q13 0 22.5 9t16 34.5t9.5 71.5t3 119t-3 119t-9.5 72.5t-16 36.5t-22.5 10q-12 0 -21 -10t-15 -36.5t-9.5 -72.5t-3.5 -119t3.5 -119t9.5 -71.5t15 -34.5t21 -9zM277 -15q-121 0 -184.5 88t-63.5 276q0 191 63 278.5t184 87.5q122 0 185.5 -87.5t63.5 -278.5
q0 -187 -64.5 -275.5t-183.5 -88.5z" />
    <glyph glyph-name="one.lf" horiz-adv-x="502" 
d="M69 0v138h112v388l-134 -77v164l151 87h176v-562h104v-138h-409z" />
    <glyph glyph-name="two.lf" horiz-adv-x="544" 
d="M26 492q7 51 27.5 92.5t52.5 70.5t74.5 44.5t94.5 15.5q56 0 98 -14.5t70.5 -40.5t42.5 -62t14 -79q0 -33 -6.5 -62t-22 -59.5t-42 -65.5t-66.5 -81l-90 -102h226v-149h-456v145l134 154q40 46 65 79t39 58t19 45t5 40q0 55 -35 55q-20 0 -32.5 -20t-17.5 -64h-194z" />
    <glyph glyph-name="three.lf" horiz-adv-x="517" 
d="M253 121q20 0 31.5 20t11.5 61q0 54 -20.5 76t-52.5 22h-45v127h47q64 0 64 87q0 35 -8 50.5t-26 15.5t-27 -15.5t-14 -49.5h-183q13 94 74 147t161 53q108 0 162 -49t54 -131q0 -57 -28 -101.5t-82 -61.5q56 -17 88.5 -65t32.5 -109q0 -106 -63.5 -159.5t-172.5 -53.5
q-111 0 -173.5 56.5t-69.5 156.5h191q2 -36 12.5 -56.5t35.5 -20.5z" />
    <glyph glyph-name="four.lf" horiz-adv-x="539" 
d="M467 447v-183h52v-137h-52v-127h-185v127h-255v141l138 432h168l-124 -436h73v40l45 143h140z" />
    <glyph glyph-name="five.lf" horiz-adv-x="535" 
d="M213 196q3 -40 15.5 -57.5t32.5 -17.5q23 0 36 24t13 88q0 33 -3.5 55t-10.5 34.5t-16.5 17.5t-22.5 5q-31 0 -51 -38h-151l17 393h390v-133h-213l-9 -123q19 14 41.5 20.5t45.5 6.5q39 0 72 -14t57 -43t37.5 -72.5t13.5 -102.5q0 -58 -16 -105t-46.5 -80t-75 -51
t-100.5 -18q-106 0 -167 53.5t-74 157.5h185z" />
    <glyph glyph-name="six.lf" horiz-adv-x="554" 
d="M281 343q-25 0 -41 -27.5t-16 -88.5q0 -58 15 -82t39 -24t38 25t14 88q0 33 -3 54t-9.5 33.5t-15.5 17t-21 4.5zM285 584q-14 0 -25 -7t-20 -25.5t-15 -51.5t-9 -84q20 28 51.5 44t73.5 16q39 0 72 -15t58 -44t39 -72.5t14 -100.5q0 -60 -16 -107.5t-47 -81.5t-75.5 -52
t-101.5 -18q-127 0 -193 84t-66 254q0 100 18 174t52 122.5t82.5 72t109.5 23.5q97 0 156.5 -45.5t77.5 -126.5h-197q-6 41 -39 41z" />
    <glyph glyph-name="seven.lf" horiz-adv-x="499" 
d="M258 0h-192l219 559h-270v141h459v-134z" />
    <glyph glyph-name="eight.lf" horiz-adv-x="539" 
d="M503 532q0 -55 -25.5 -95.5t-69.5 -64.5q53 -26 83.5 -69t30.5 -104q0 -45 -15.5 -84t-46.5 -68t-77.5 -45.5t-109.5 -16.5t-110.5 16t-79 44.5t-47.5 66.5t-16 82q0 65 26 106t83 65q-45 26 -68 63t-23 94q0 43 14.5 78.5t43.5 61t73.5 39.5t103.5 14q53 0 95.5 -13.5
t72.5 -37.5t46 -58t16 -74zM321 199q0 39 -14 63.5t-42 40.5q-20 -14 -32 -38.5t-12 -65.5q0 -38 13 -58.5t36 -20.5q25 0 38 21t13 58zM227 521q0 -39 13.5 -60t36.5 -32q17 12 27.5 33.5t10.5 56.5q0 40 -12 56t-31 16q-21 0 -33 -15.5t-12 -54.5z" />
    <glyph glyph-name="nine.lf" horiz-adv-x="554" 
d="M273 357q24 0 40.5 27.5t16.5 88.5q0 58 -15 82t-40 24q-23 0 -37.5 -25t-14.5 -88q0 -33 3 -54t9.5 -33.5t16 -17t21.5 -4.5zM270 116q14 0 25.5 7t20 25.5t14 51.5t7.5 84q-20 -28 -51 -44t-73 -16q-39 0 -72.5 15t-58 44t-39 72.5t-14.5 100.5q0 60 16 107.5t47 81.5
t75.5 52t101.5 18q128 0 193.5 -80t65.5 -257q0 -201 -61.5 -297t-194.5 -96q-100 0 -162 45.5t-80 126.5h201q3 -20 13.5 -30.5t25.5 -10.5z" />
    <glyph glyph-name="parenleft.case" horiz-adv-x="295" 
d="M177 361q0 -55 6 -112.5t20 -118.5t38 -126t59 -134h-158q-23 39 -47 92.5t-43.5 117.5t-32 135.5t-12.5 145.5q0 73 13 144t33.5 135t44.5 117.5t47 92.5h159q-70 -139 -98.5 -259.5t-28.5 -229.5z" />
    <glyph glyph-name="parenright.case" horiz-adv-x="295" 
d="M110 361q0 109 -28.5 229.5t-98.5 259.5h159q22 -39 46.5 -92.5t45 -117.5t33.5 -135t13 -144q0 -74 -12.5 -145.5t-32 -135.5t-43.5 -117.5t-47 -92.5h-158q70 139 96.5 260t26.5 231z" />
    <glyph glyph-name="hyphen.case" horiz-adv-x="468" 
d="M403 290h-351v140h351v-140z" />
    <glyph glyph-name="bracketleft.case" horiz-adv-x="294" 
d="M282 -130h-250v980h250v-121h-92v-738h92v-121z" />
    <glyph glyph-name="bracketright.case" horiz-adv-x="294" 
d="M4 -9h92v738h-92v121h250v-980h-250v121z" />
    </font>
</defs>
</svg>
