<?xml version="1.0" standalone="no"?>
<!DOCTYPE svg PUBLIC "-//W3C//DTD SVG 1.1//EN" "http://www.w3.org/Graphics/SVG/1.1/DTD/svg11.dtd" >
<svg>
<metadata>
Created by FontForge 20120731 at Mon Mar 31 14:10:07 2014
 By tam,,,
Copyright (c) 2010-2013 by Ralph du Carrois, Erik Spiekermann &#38; Botio Nikoltchev. All rights reserved.
</metadata>
<defs>
<font id="CiscoSansTT-CondensedHeavyOblique" horiz-adv-x="560" >
  <font-face 
    font-family="CiscoSansTT Condensed Heavy"
    font-weight="900"
    font-style="oblique"
    font-stretch="condensed"
    units-per-em="1000"
    panose-1="2 11 10 6 2 2 0 2 3 3"
    ascent="790"
    descent="-210"
    x-height="520"
    cap-height="720"
    bbox="-192 -362 1147 1000"
    underline-thickness="85"
    underline-position="-6"
    slope="-12"
    unicode-range="U+0020-FEFF"
  />
<missing-glyph horiz-adv-x="539" 
d="M34 720h471v-720h-471v720zM366 139v442h-193v-442h193z" />
    <glyph glyph-name="f_f" unicode="ff" horiz-adv-x="623" 
d="M573 389l-82 -389h-192l82 389h-84l-82 -389h-193l82 389h-66q8 33 14.5 65.5t13.5 65.5h66l7 32q20 94 74 133.5t135 39.5q40 0 83.5 -6.5t77.5 -18.5q52 35 120 35q34 0 63.5 -5t55.5 -13q-8 -34 -14.5 -67t-13.5 -67q-26 7 -41 9.5t-24 2.5q-22 0 -32.5 -10.5
t-15.5 -36.5l-6 -28h80l-28 -131h-80zM377 585q-23 0 -34 -12t-16 -41l-2 -12h84q2 14 5 28.5t8 29.5q-12 3 -24.5 5t-20.5 2z" />
    <glyph glyph-name="f_f_i" unicode="ffi" horiz-adv-x="841" 
d="M686 733q37 -2 66.5 -7.5t48.5 -10.5q-8 -33 -14 -66.5t-14 -67.5q-28 6 -57.5 10t-51.5 4q-31 0 -42 -12t-16 -38l-5 -25h276l-110 -520h-189l83 389h-88l-82 -389h-192l82 389h-84l-82 -389h-193l82 389h-66q8 33 14.5 65.5t13.5 65.5h66q2 8 3.5 16t3.5 16
q20 91 71 132t136 41q41 0 85.5 -6.5t79.5 -20.5q29 18 61 27.5t74 9.5q9 0 20.5 -0.5t19.5 -1.5zM377 585q-23 0 -34 -12t-16 -41l-2 -12h84q2 14 5 28.5t8 29.5q-12 3 -24.5 5t-20.5 2z" />
    <glyph glyph-name="f_f_j" unicode="ffj" horiz-adv-x="846" 
d="M497 -45q11 -5 21 -6.5t18 -1.5q16 0 25 9t15 36l84 397h-87l-82 -389h-192l82 389h-84l-82 -389h-193l82 389h-66l28 131h66l7 32q20 93 76.5 133t136.5 40q39 0 79.5 -6.5t75.5 -18.5q25 17 59 26t81 9q45 0 88 -7t67 -13l-29 -134q-27 6 -56.5 10t-49.5 4
q-17 0 -27.5 -2.5t-17 -11t-11.5 -23t-10 -38.5h281q-29 -137 -58 -272.5t-58 -272.5q-17 -81 -67 -125.5t-138 -44.5q-25 0 -50 5t-42 11zM409 520q3 15 6 29.5t7 28.5q-12 3 -24 5t-20 2q-41 0 -48 -39l-5 -26h84z" />
    <glyph glyph-name="f_f_l" unicode="ffl" horiz-adv-x="846" 
d="M643 735q30 0 58.5 -4t50.5 -10l174 6l-154 -727h-193l125 589q-10 2 -23.5 4t-21.5 2q-15 0 -24.5 -4t-15.5 -12.5t-10 -23t-8 -35.5h56q-7 -33 -13.5 -65.5t-14.5 -65.5h-56l-82 -389h-192l82 389h-84l-82 -389h-193l82 389h-66q8 33 14.5 65.5t13.5 65.5h66
q2 8 3.5 16t3.5 16q20 94 76 133.5t137 39.5q39 0 79.5 -6.5t75.5 -18.5q26 17 57 26t79 9zM377 585q-23 0 -34 -12t-16 -41l-2 -12h84q2 14 5 28.5t8 29.5q-12 3 -24.5 5t-20.5 2z" />
    <glyph glyph-name="f_i" unicode="fi" horiz-adv-x="569" 
d="M496 581q-28 6 -57.5 10t-51.5 4q-17 0 -28 -3.5t-18 -12t-10.5 -23t-5.5 -36.5h280l-110 -520h-194l83 389h-87l-82 -389h-193l82 389h-66l28 131h66l8 38q20 94 74 135.5t144 41.5q23 0 47.5 -2t47 -5t41.5 -6.5t31 -6.5z" />
    <glyph glyph-name="f_j" unicode="fj" horiz-adv-x="569" 
d="M220 -45q11 -5 21 -6.5t18 -1.5q17 0 25.5 9t14.5 36l85 397h-87l-82 -389h-193l82 389h-66l28 131h66l9 38q22 94 75.5 135.5t141.5 41.5q22 0 46.5 -2t47 -5t42 -6.5t31.5 -6.5l-29 -134q-27 6 -54.5 10t-50.5 4q-34 0 -47.5 -15.5t-18.5 -59.5h280l-116 -545
q-15 -81 -67.5 -125.5t-137.5 -44.5q-24 0 -49.5 5t-42.5 11z" />
    <glyph glyph-name="f_l" unicode="fl" horiz-adv-x="569" 
d="M302 0l125 589q-11 3 -24 4.5t-21 1.5q-32 0 -42 -18.5t-15 -57.5h51l-28 -131h-51l-82 -388h-193l82 388h-66l28 131h66l8 39q20 94 74.5 135.5t139.5 41.5q30 0 60 -4t53 -10q46 2 91.5 4t91.5 4l-155 -729h-193z" />
    <glyph glyph-name=".notdef" horiz-adv-x="539" 
d="M34 720h471v-720h-471v720zM366 139v442h-193v-442h193z" />
    <glyph glyph-name=".null" horiz-adv-x="0" 
 />
    <glyph glyph-name="nonmarkingreturn" horiz-adv-x="175" 
 />
    <glyph glyph-name="space" unicode=" " horiz-adv-x="175" 
 />
    <glyph glyph-name="exclam" unicode="!" horiz-adv-x="289" 
d="M64 242l79 478h229l-125 -478h-183zM0 0l38 181h208l-38 -181h-208z" />
    <glyph glyph-name="quotedbl" unicode="&#x22;" horiz-adv-x="455" 
d="M238 490h-122l17 145l22 100h149l-22 -100zM425 490h-123l17 145l22 100h149l-22 -100z" />
    <glyph glyph-name="numbersign" unicode="#" 
d="M132 547h50l44 153h151l-44 -153h82l43 153h152l-44 -153h37l-27 -128h-48l-39 -138h40l-27 -128h-50l-44 -153h-150l43 153h-82l-43 -153h-151l43 153h-37l27 128h47l39 138h-39zM256 281h82l39 138h-82z" />
    <glyph glyph-name="dollar" unicode="$" 
d="M371 441q96 -31 138 -81t42 -115q0 -101 -57 -169.5t-166 -85.5l-27 -125h-163l27 129q-73 16 -108.5 60t-35.5 122q0 9 0.5 19t1.5 19h198q-1 -5 -1 -10v-9q0 -29 13 -49t42 -20q28 0 45.5 19.5t17.5 54.5q0 28 -17 47t-62 33q-83 27 -122 73.5t-39 112.5q0 97 54 162
t152 79l26 123h164l-26 -122q63 -11 95 -58.5t32 -114.5v-14q0 -7 -1 -14h-192q0 4 0.5 7.5t0.5 7.5q0 54 -41 54q-22 0 -36.5 -17.5t-14.5 -46.5t13 -44.5t47 -26.5z" />
    <glyph glyph-name="percent" unicode="%" horiz-adv-x="738" 
d="M255 0h-140l434 700h140zM265 715q69 0 103 -35.5t34 -95.5q0 -47 -12 -86.5t-35.5 -68t-59 -44.5t-81.5 -16q-69 0 -103 36t-34 96q0 46 12 85.5t36 68t59 44.5t81 16zM249 617q-17 0 -31 -26.5t-14 -93.5q0 -31 26 -31q18 0 31.5 28t13.5 90q0 17 -7.5 25t-18.5 8z
M589 331q69 0 103 -35.5t34 -95.5q0 -47 -12 -86.5t-35.5 -68t-59 -44.5t-81.5 -16q-69 0 -103 36t-34 96q0 46 12 85.5t36 68t59 44.5t81 16zM573 233q-17 0 -31 -26.5t-14 -93.5q0 -31 26 -31q18 0 31.5 28t13.5 90q0 17 -7.5 25t-18.5 8z" />
    <glyph glyph-name="ampersand" unicode="&#x26;" horiz-adv-x="593" 
d="M590 331q-17 -45 -37.5 -84.5t-49.5 -77.5l56 -83l-127 -101l-50 58q-35 -28 -73.5 -43t-86.5 -15q-107 0 -157.5 44.5t-50.5 118.5q0 59 34.5 113t109.5 99q-22 32 -34 65t-12 71q0 46 14.5 86t44 69.5t73.5 46.5t104 17q86 0 131 -38.5t45 -103.5q0 -30 -7 -57t-24 -54
t-44.5 -54t-69.5 -57l33 -56q8 15 13.5 29t10.5 28zM252 117q27 0 51 26l-58 103q-17 -14 -27 -36.5t-10 -41.5q0 -51 44 -51zM331 599q-11 0 -19.5 -7.5t-14.5 -20.5t-9 -29t-3 -34q0 -27 14 -52q29 23 43 53.5t14 56.5q0 16 -5.5 24.5t-19.5 8.5z" />
    <glyph glyph-name="quotesingle" unicode="'" horiz-adv-x="234" 
d="M240 490h-123l17 145l22 100h149l-22 -100z" />
    <glyph glyph-name="parenleft" unicode="(" horiz-adv-x="295" 
d="M181 110q0 -66 9.5 -135t32.5 -145h-159q-19 53 -34 130t-15 170q0 96 24 194.5t61.5 188.5t84.5 167t92 130h159q-73 -103 -121 -192t-77 -173t-42 -165.5t-15 -169.5z" />
    <glyph glyph-name="parenright" unicode=")" horiz-adv-x="295" 
d="M158 516q0 68 -10.5 141t-33.5 153h159q20 -55 36 -135.5t16 -175.5t-23.5 -192t-61 -185.5t-83 -164t-89.5 -127.5h-157q69 99 116 187t75.5 171t41.5 163.5t14 164.5z" />
    <glyph glyph-name="asterisk" unicode="*" horiz-adv-x="497" 
d="M316 438l-48 -115l-136 100l92 82l-124 10l53 160l106 -62l-28 122h168l-26 -123l108 63l52 -160l-125 -10l93 -83l-137 -99z" />
    <glyph glyph-name="plus" unicode="+" 
d="M427 526l-29 -136h124l-29 -140h-124l-29 -137h-153l29 137h-123l29 140h123l29 136h153z" />
    <glyph glyph-name="comma" unicode="," horiz-adv-x="270" 
d="M211 32q-23 -105 -92 -153t-180 -55l18 88q42 5 70.5 27t36.5 61h-70l38 181h211z" />
    <glyph glyph-name="hyphen" unicode="-" horiz-adv-x="468" 
d="M416 250h-352l30 140h351z" />
    <glyph glyph-name="period" unicode="." horiz-adv-x="303" 
d="M6 0l38 181h211l-38 -181h-211z" />
    <glyph glyph-name="slash" unicode="/" horiz-adv-x="277" 
d="M75 -90h-160l338 825h159z" />
    <glyph glyph-name="zero" unicode="0" 
d="M266 115q13 0 24 8.5t22.5 33.5t24 70.5t27.5 118.5q14 67 20.5 111.5t6.5 71.5q0 32 -8.5 45t-22.5 13q-12 0 -22.5 -9.5t-22 -35.5t-24 -71.5t-27.5 -118.5q-14 -68 -20 -111.5t-6 -69.5q0 -32 7.5 -44t20.5 -12zM246 -15q-95 0 -146.5 56.5t-51.5 170.5q0 32 5 68.5
t13 78.5q20 96 49 163.5t68 110t88 62.5t109 20q96 0 147.5 -55.5t51.5 -171.5q0 -65 -18 -149q-20 -93 -49.5 -160t-68.5 -110t-88 -63.5t-109 -20.5z" />
    <glyph glyph-name="one" unicode="1" 
d="M320 517l-151 -77l37 173l169 87h176l-148 -700h-193z" />
    <glyph glyph-name="two" unicode="2" 
d="M106 492q35 103 109 163t179 60q97 0 147 -43.5t50 -112.5q0 -41 -11 -75.5t-35 -69.5t-61.5 -74.5t-91.5 -88.5l-112 -102h226l-31 -149h-456l30 145l167 154q51 48 85.5 83t55 62.5t29.5 50t9 44.5q0 37 -31 37q-20 0 -36 -20t-28 -64h-194z" />
    <glyph glyph-name="three" unicode="3" 
d="M266 120q14 0 25.5 10t20 26.5t13 37.5t4.5 42q0 34 -17 49t-43 15h-42l27 127h52q19 0 34 9.5t25.5 25.5t16.5 37t6 45q0 36 -27 36q-18 0 -30 -15.5t-23 -50.5h-183q33 95 99.5 148t166.5 53q94 0 144 -42t50 -108q0 -69 -40.5 -121.5t-108.5 -71.5q42 -15 65.5 -53.5
t23.5 -87.5q0 -57 -18.5 -102.5t-53 -77.5t-84.5 -49t-112 -17q-101 0 -159.5 46.5t-58.5 128.5q0 9 0.5 18t2.5 19h190q-3 -15 -3 -28q0 -23 8.5 -36t28.5 -13z" />
    <glyph glyph-name="four" unicode="4" 
d="M590 700l-92 -436h47l-29 -137h-47l-27 -127h-185l26 127h-266l30 144l293 429h250zM316 281l77 272l-181 -289h100z" />
    <glyph glyph-name="five" unicode="5" 
d="M226 196q-2 -11 -2 -16v-8q0 -27 10.5 -39t28.5 -12t32 17t24 43t15.5 56.5t5.5 56.5q0 29 -11 40t-29 11q-30 0 -57 -38h-151l100 393h390l-28 -133h-213l-35 -123q43 27 88 27q64 0 104.5 -42t40.5 -123q0 -69 -21 -128t-59 -101.5t-91.5 -67t-118.5 -24.5
q-100 0 -154.5 46.5t-54.5 137.5v14q0 7 1 13h185z" />
    <glyph glyph-name="six" unicode="6" 
d="M313 343q-17 0 -31.5 -13t-26 -34.5t-18 -49.5t-6.5 -59q0 -36 11 -51t31 -15q18 0 33 17t25.5 42.5t16 56t5.5 57.5q0 29 -10 39t-30 10zM370 584q-14 0 -27 -7t-25 -25.5t-24 -51.5t-25 -84q26 28 57.5 44t73.5 16q32 0 59.5 -11.5t47.5 -33t31 -53.5t11 -72
q0 -70 -21 -129t-60 -101.5t-93 -66.5t-120 -24q-106 0 -158.5 58t-52.5 163q0 106 25 198.5t70 161.5t108.5 109t141.5 40q100 0 155.5 -45.5t56.5 -126.5h-197q2 20 -7.5 30.5t-26.5 10.5z" />
    <glyph glyph-name="seven" unicode="7" 
d="M253 0h-196l337 559h-266l30 141h459l-29 -134z" />
    <glyph glyph-name="eight" unicode="8" 
d="M381 715q47 0 85.5 -12t65.5 -33t42 -50.5t15 -63.5q0 -33 -10.5 -61t-28.5 -51t-42.5 -41t-52.5 -31q38 -21 60 -57.5t22 -82.5q0 -54 -20 -99.5t-57.5 -78t-90.5 -51t-120 -18.5q-55 0 -97 13.5t-70.5 37.5t-43 56t-14.5 69q0 75 41 127.5t110 75.5q-63 41 -63 120
q0 52 17.5 95t51.5 73t84.5 46.5t115.5 16.5zM335 230q0 49 -38 73q-25 -14 -47 -48t-22 -84q0 -24 11 -37.5t28 -13.5q29 0 48.5 31t19.5 79zM362 590q-28 0 -44 -26.5t-16 -68.5q0 -25 8.5 -40.5t25.5 -26.5q9 6 19.5 16t19.5 24.5t15 33t6 42.5q0 46 -34 46z" />
    <glyph glyph-name="nine" unicode="9" 
d="M316 357q17 0 32 15t26 38t17.5 52t6.5 58q0 31 -11 45t-31 14q-18 0 -33 -17t-25.5 -42.5t-16 -56t-5.5 -57.5q0 -29 10.5 -39t29.5 -10zM259 116q14 0 26.5 7t24.5 25.5t24 51.5t26 84q-26 -28 -58 -44t-74 -16q-65 0 -107 44.5t-42 126.5q0 69 21 128t59.5 101.5
t92 66.5t118.5 24q105 0 160 -53.5t55 -162.5q0 -111 -22.5 -205.5t-66 -163t-107 -107t-145.5 -38.5q-103 0 -160.5 45.5t-58.5 126.5h201q-2 -20 8 -30.5t25 -10.5z" />
    <glyph glyph-name="colon" unicode=":" horiz-adv-x="303" 
d="M78 339l38 181h211l-38 -181h-211zM6 0l38 181h211l-38 -181h-211z" />
    <glyph glyph-name="semicolon" unicode=";" horiz-adv-x="296" 
d="M78 339l38 181h211l-38 -181h-211zM223 32q-23 -105 -92 -153t-180 -55l18 88q42 5 70.5 27t36.5 61h-70l38 181h211z" />
    <glyph glyph-name="less" unicode="&#x3c;" 
d="M120 382l447 216l-37 -173l-232 -111l186 -107l-36 -164l-354 216z" />
    <glyph glyph-name="equal" unicode="=" 
d="M514 347h-401l30 140h400zM472 151h-400l29 140h401z" />
    <glyph glyph-name="greater" unicode="&#x3e;" 
d="M495 259l-447 -216l37 172l232 111l-186 108l35 164l355 -216z" />
    <glyph glyph-name="question" unicode="?" horiz-adv-x="480" 
d="M103 535q10 43 33 79.5t56 63.5t75.5 42t92.5 15q89 0 135.5 -39t46.5 -102q0 -27 -5.5 -51t-20 -50.5t-39.5 -58.5t-65 -75q-14 -15 -23 -28t-15.5 -26.5t-11 -29.5t-8.5 -37h-182q9 40 17.5 69.5t19 52.5t24 41.5t30.5 36.5q49 52 67.5 81t18.5 51q0 23 -17 23
q-13 0 -21 -11.5t-16 -46.5h-192zM110 0l38 181h207l-37 -181h-208z" />
    <glyph glyph-name="at" unicode="@" horiz-adv-x="802" 
d="M583 86q-44 0 -71 28t-27 68q-14 -35 -49 -60.5t-79 -25.5q-60 0 -90 41t-30 119q0 60 16.5 112.5t44.5 91.5t63.5 61.5t74.5 22.5q23 0 40.5 -10.5t23.5 -27.5l14 23h116l-48 -245q-5 -21 -6.5 -33.5t-1.5 -17.5q0 -23 7 -32t18 -9q13 0 27 18t24.5 49.5t17.5 75t7 95.5
q0 99 -48.5 143t-151.5 44q-72 0 -127 -28t-93 -76.5t-57.5 -113.5t-19.5 -138q0 -65 16.5 -111.5t48 -75.5t78.5 -42.5t107 -13.5q44 0 79.5 7.5t64.5 17.5l23 -112q-27 -11 -73.5 -21.5t-111.5 -10.5q-86 0 -154.5 22t-116.5 66.5t-73.5 111.5t-25.5 156q0 102 31 189.5
t88.5 152t140 101.5t185.5 37q77 0 138 -20.5t103 -59.5t64.5 -96t22.5 -130q0 -66 -16.5 -128t-46.5 -110t-72.5 -76.5t-94.5 -28.5zM396 203q12 0 23 24t20 57.5t14 69t5 58.5q0 13 -3.5 17.5t-10.5 4.5q-13 0 -24.5 -21.5t-20.5 -51t-14.5 -61.5t-5.5 -53q0 -28 4.5 -36
t12.5 -8z" />
    <glyph glyph-name="A" unicode="A" horiz-adv-x="648" 
d="M396 157h-161l-67 -157h-211l371 720h214l69 -720h-215v157zM293 295h103l1 243z" />
    <glyph glyph-name="B" unicode="B" horiz-adv-x="606" 
d="M377 720q136 0 197 -40t61 -113q0 -64 -39 -113.5t-110 -70.5q50 -14 78.5 -51t28.5 -88q0 -56 -19.5 -101.5t-59.5 -77t-102 -48.5t-146 -17h-262l153 720h220zM278 312l-37 -176h51q45 0 68.5 32t23.5 80q0 32 -15.5 48t-44.5 16h-46zM336 584l-31 -145h38q33 0 55 26
t22 62q0 57 -53 57h-31z" />
    <glyph glyph-name="C" unicode="C" horiz-adv-x="669" 
d="M333 128q41 0 69.5 34.5t50.5 113.5h211q-50 -147 -135.5 -219t-215.5 -72q-131 0 -197 68t-66 193q0 108 27.5 198t78 154.5t122.5 100.5t162 36q130 0 194.5 -67t65.5 -174v-23h-207q3 67 -15 94t-55 27q-35 0 -64.5 -32.5t-50.5 -84t-32.5 -115t-11.5 -125.5
q0 -59 18.5 -83t50.5 -24z" />
    <glyph glyph-name="D" unicode="D" horiz-adv-x="667" 
d="M407 720q140 0 211.5 -64t71.5 -189q0 -108 -28 -194t-80.5 -147t-129.5 -93.5t-174 -32.5h-274l153 720h250zM336 578l-93 -435h55q37 0 69.5 25t57 67.5t38.5 98t14 116.5q0 67 -26.5 97.5t-68.5 30.5h-46z" />
    <glyph glyph-name="E" unicode="E" horiz-adv-x="541" 
d="M511 294h-236l-31 -148h261l-30 -146h-471l153 720h471l-32 -148h-262l-29 -140h236z" />
    <glyph glyph-name="F" unicode="F" horiz-adv-x="508" 
d="M479 280h-207l-59 -280h-209l153 720h442l-32 -146h-233l-33 -156h207z" />
    <glyph glyph-name="G" unicode="G" horiz-adv-x="678" 
d="M602 0h-140l-9 70q-37 -42 -80.5 -63.5t-105.5 -21.5q-49 0 -89 17.5t-68.5 50.5t-44.5 81t-16 110q0 100 25.5 189t76 156t126.5 106.5t177 39.5q58 0 104.5 -15t79.5 -44.5t51 -72.5t18 -98v-7h-207v14q0 43 -17.5 61.5t-51.5 18.5q-39 0 -70 -32.5t-52.5 -83
t-32.5 -112t-11 -120.5q0 -62 22 -89.5t57 -27.5q48 0 81 32.5t45 86.5l6 29h-118l28 135h303z" />
    <glyph glyph-name="H" unicode="H" horiz-adv-x="660" 
d="M728 720l-153 -720h-207l61 293h-155l-61 -293h-209l153 720h209l-61 -285h155l61 285h207z" />
    <glyph glyph-name="I" unicode="I" horiz-adv-x="297" 
d="M366 720l-153 -720h-209l153 720h209z" />
    <glyph glyph-name="J" unicode="J" horiz-adv-x="528" 
d="M214 212q-3 -24 -3 -38q0 -25 7.5 -35t21.5 -10q9 0 16 3.5t13.5 14.5t12.5 31t13 52l104 490h202l-104 -486q-27 -127 -93.5 -188t-179.5 -61q-104 0 -157.5 51t-53.5 142q0 8 0.5 16.5t1.5 17.5h199z" />
    <glyph glyph-name="K" unicode="K" horiz-adv-x="693" 
d="M413 0l-138 295l-62 -295h-209l153 720h209l-56 -261l229 261h237l-323 -338l202 -382h-242z" />
    <glyph glyph-name="L" unicode="L" horiz-adv-x="556" 
d="M366 720l-121 -569h289l-31 -151h-499l153 720h209z" />
    <glyph glyph-name="M" unicode="M" horiz-adv-x="822" 
d="M293 0l-21 459l-58 -323l-28 -136h-182l153 720h225l26 -517l245 517h237l-153 -720h-183l28 136l74 323l-216 -459h-147z" />
    <glyph glyph-name="N" unicode="N" horiz-adv-x="654" 
d="M723 720l-153 -720h-198l-100 434l-92 -434h-176l153 720h211l90 -415l89 415h176z" />
    <glyph glyph-name="O" unicode="O" horiz-adv-x="703" 
d="M347 132q34 0 65 29t53.5 76.5t36 107t13.5 120.5q0 66 -24.5 95t-62.5 29q-33 0 -63.5 -28.5t-53.5 -75t-36.5 -106.5t-13.5 -122q0 -68 24 -96.5t62 -28.5zM323 -15q-62 0 -112.5 17.5t-86 51.5t-55 85t-19.5 117q0 106 30.5 194t84.5 151.5t127.5 98.5t158.5 35
q61 0 111.5 -17t86.5 -51t56 -84.5t20 -117.5q0 -106 -31 -194.5t-85.5 -152t-128 -98.5t-157.5 -35z" />
    <glyph glyph-name="P" unicode="P" horiz-adv-x="613" 
d="M396 720q138 0 201 -50.5t63 -138.5q0 -142 -85.5 -221.5t-258.5 -79.5h-55l-48 -230h-209l153 720h239zM335 579l-44 -209h50q22 0 41 10.5t33 28.5t22.5 42t8.5 51q0 77 -74 77h-37z" />
    <glyph glyph-name="Q" unicode="Q" horiz-adv-x="720" 
d="M323 -15q-62 0 -112.5 17.5t-86 51.5t-55 85t-19.5 117q0 106 30.5 194t84.5 151.5t127.5 98.5t158.5 35q61 0 111.5 -17t86.5 -51t56 -84.5t20 -117.5q0 -127 -43 -226.5t-117 -162.5l78 -121l-191 -116l-58 153q-17 -3 -35 -5t-36 -2zM347 132q34 0 65 29t53.5 76.5
t36 107t13.5 120.5q0 66 -24.5 95t-62.5 29q-33 0 -63.5 -28.5t-53.5 -75t-36.5 -106.5t-13.5 -122q0 -68 24 -96.5t62 -28.5z" />
    <glyph glyph-name="R" unicode="R" horiz-adv-x="651" 
d="M385 0l-86 250h-33l-53 -250h-209l153 720h236q136 0 202.5 -50.5t66.5 -137.5q0 -90 -46 -155t-125 -91l118 -286h-224zM336 578l-40 -186h46q48 0 75.5 33t27.5 84q0 69 -74 69h-35z" />
    <glyph glyph-name="S" unicode="S" horiz-adv-x="617" 
d="M286 -15q-68 0 -117.5 14.5t-81.5 41.5t-47.5 64.5t-15.5 84.5q0 6 0.5 12t1.5 19h200q-1 -9 -1 -21q0 -32 17.5 -52.5t61.5 -20.5t66.5 18.5t23.5 48.5q0 14 -4 25.5t-15 23t-32 23t-55 25.5q-101 42 -146 91.5t-45 116.5q0 52 19 95.5t56.5 75t94 48.5t130.5 17
q123 0 189 -55t66 -149v-16h-195q1 5 1 8q0 70 -72 70q-37 0 -55 -16.5t-18 -41.5q0 -28 17 -45t64 -36q114 -46 165 -98t51 -122q0 -56 -21 -102t-62 -78.5t-101.5 -50.5t-139.5 -18z" />
    <glyph glyph-name="T" unicode="T" horiz-adv-x="559" 
d="M636 569h-173l-121 -569h-209l121 569h-170l32 151h553z" />
    <glyph glyph-name="U" unicode="U" horiz-adv-x="653" 
d="M362 720l-102 -480q-3 -12 -4 -22.5t-1 -19.5q0 -68 64 -68q42 0 65 24.5t35 79.5l103 486h203l-102 -482q-26 -122 -107.5 -187.5t-226.5 -65.5q-122 0 -182.5 55t-60.5 147q0 31 8 71l99 462h209z" />
    <glyph glyph-name="V" unicode="V" horiz-adv-x="624" 
d="M737 720l-351 -720h-228l-45 720h211l-12 -533l218 533h207z" />
    <glyph glyph-name="W" unicode="W" horiz-adv-x="905" 
d="M1015 720l-283 -720h-229l14 502l-190 -502h-220l9 720h210l-45 -475l180 475h209l-13 -479l154 479h204z" />
    <glyph glyph-name="X" unicode="X" horiz-adv-x="674" 
d="M491 380l140 -380h-232l-59 226l-146 -226h-231l301 373l-134 347h229l54 -198l133 198h221z" />
    <glyph glyph-name="Y" unicode="Y" horiz-adv-x="652" 
d="M186 0l61 288l-134 432h213l55 -270l181 270h203l-319 -432l-61 -288h-199z" />
    <glyph glyph-name="Z" unicode="Z" horiz-adv-x="561" 
d="M237 145h297l-31 -145h-529l29 136l394 439h-286l32 145h517l-29 -134z" />
    <glyph glyph-name="bracketleft" unicode="[" horiz-adv-x="294" 
d="M205 -170h-250l209 980h250l-27 -121h-91l-157 -738h92z" />
    <glyph glyph-name="backslash" unicode="\" horiz-adv-x="277" 
d="M-135 735h160l337 -825h-160z" />
    <glyph glyph-name="bracketright" unicode="]" horiz-adv-x="294" 
d="M-46 -49h91l157 738h-92l26 121h250l-209 -980h-249z" />
    <glyph glyph-name="asciicircum" unicode="^" horiz-adv-x="428" 
d="M205 383h-175l207 329h165l65 -329h-168l-13 158z" />
    <glyph glyph-name="underscore" unicode="_" horiz-adv-x="504" 
d="M422 -142h-480l29 139h480z" />
    <glyph glyph-name="grave" unicode="`" horiz-adv-x="333" 
d="M405 578h-136l-112 154h187z" />
    <glyph glyph-name="a" unicode="a" horiz-adv-x="514" 
d="M65 365q29 82 91 126t165 44q96 0 147 -42.5t51 -117.5q0 -23 -6 -50l-69 -325h-147l-12 55q-26 -31 -64 -50.5t-87 -19.5q-63 0 -98.5 36t-35.5 93q0 83 52 132t177 69l92 14l4 20q3 16 3 29q0 29 -26 29q-35 0 -47 -42h-190zM223 111q32 0 46.5 26.5t25.5 71.5l5 20
q-60 -7 -85 -29t-25 -52q0 -37 33 -37z" />
    <glyph glyph-name="b" unicode="b" horiz-adv-x="566" 
d="M-6 0l153 720h193l-53 -245q31 29 64 44.5t71 15.5q68 0 109 -44.5t41 -132.5q0 -79 -19.5 -147t-53.5 -118.5t-80.5 -79t-100.5 -28.5q-42 0 -78.5 18.5t-55.5 52.5l-39 -56h-151zM325 397q-23 0 -40.5 -19.5t-30.5 -50t-19.5 -68t-6.5 -72.5t12.5 -49.5t37.5 -14.5
q21 0 39 19t31 49.5t20 67.5t7 73q0 35 -13 50t-37 15z" />
    <glyph glyph-name="c" unicode="c" horiz-adv-x="539" 
d="M520 192q-41 -102 -109.5 -154.5t-169.5 -52.5q-110 0 -162.5 51.5t-52.5 142.5q0 79 20 144.5t59 112.5t95.5 73t130.5 26q51 0 92 -13.5t69.5 -37.5t44 -58t15.5 -75v-11h-196q1 4 1 7v7q0 26 -11.5 39t-29.5 13q-21 0 -38 -21t-29.5 -54t-19.5 -74t-7 -81
q0 -33 10.5 -47t27.5 -14q23 0 37.5 17.5t25.5 59.5h197z" />
    <glyph glyph-name="d" unicode="d" horiz-adv-x="567" 
d="M340 0l-16 63q-34 -36 -69.5 -57t-74.5 -21q-69 0 -112 48.5t-43 139.5q0 76 19.5 142t53 115t79 77t97.5 28q45 0 78 -15.5t49 -40.5l52 241h193l-153 -720h-153zM320 397q-22 0 -40.5 -18.5t-31.5 -48t-20 -66.5t-7 -74q0 -36 13.5 -51.5t37.5 -15.5q22 0 39.5 20.5
t30 51.5t19 67.5t6.5 68.5q0 35 -12.5 50.5t-34.5 15.5z" />
    <glyph glyph-name="e" unicode="e" horiz-adv-x="551" 
d="M520 164q-15 -38 -39.5 -70.5t-58 -56.5t-76.5 -38t-96 -14q-105 0 -163 55.5t-58 152.5q0 79 21 142t60 107.5t94 68.5t124 24q102 0 160 -55t58 -160q0 -44 -11 -102h-312q-3 -21 -3 -40q0 -35 13 -48.5t37 -13.5q21 0 34.5 12t21.5 36h194zM318 414q-24 0 -41.5 -19.5
t-32.5 -75.5h114q2 12 3 22t1 18q0 29 -11 42t-33 13z" />
    <glyph glyph-name="f" unicode="f" horiz-adv-x="354" 
d="M450 583q-41 12 -64 12q-26 0 -35.5 -9.5t-14.5 -37.5l-6 -28h82l-28 -131h-82l-82 -389h-193l83 389h-66l27 131h66l9 43q10 44 26.5 76.5t42 53.5t61.5 31.5t85 10.5q32 0 62 -5t56 -13z" />
    <glyph glyph-name="g" unicode="g" horiz-adv-x="556" 
d="M178 -23q0 -23 10.5 -32.5t35.5 -9.5q13 0 23.5 4t19 13.5t15 26t11.5 41.5l12 54q-29 -26 -55.5 -38.5t-59.5 -12.5q-72 0 -115.5 46.5t-43.5 134.5q0 70 19.5 131t53 105t79.5 69.5t99 25.5q40 0 74 -16t50 -46l38 47h148l-103 -484q-23 -109 -92 -170t-192 -61
q-120 0 -169.5 42.5t-50.5 116.5q0 8 1 13h192zM319 398q-20 0 -37 -14.5t-29 -38.5t-19 -55t-7 -64q0 -65 54 -65q21 0 37 16.5t27.5 42.5t17.5 57t6 61q0 32 -12.5 46t-37.5 14z" />
    <glyph glyph-name="h" unicode="h" horiz-adv-x="539" 
d="M-6 0q38 181 76 360t76 360h193q-13 -61 -25.5 -121.5t-26.5 -121.5q29 29 61.5 43.5t71.5 14.5q60 0 93.5 -33t33.5 -99q0 -34 -9 -74l-69 -329h-194l70 330q2 9 3 20t1 19q0 19 -7.5 26t-20.5 7q-22 0 -40.5 -20t-29.5 -71l-65 -311h-192z" />
    <glyph glyph-name="i" unicode="i" horiz-adv-x="262" 
d="M110 574l31 146h204l-31 -146h-204zM-6 0l110 520h194l-110 -520h-194z" />
    <glyph glyph-name="j" unicode="j" horiz-adv-x="264" 
d="M-85 -46q11 -4 21.5 -6t17.5 -2q17 0 26 9.5t15 35.5l112 529h193l-116 -545q-17 -82 -67 -126t-138 -44q-24 0 -49.5 4.5t-42.5 11.5zM110 574l31 146h204l-31 -146h-204z" />
    <glyph glyph-name="k" unicode="k" horiz-adv-x="566" 
d="M-6 0l153 720h192l-79 -369l162 169h208l-226 -221l126 -299h-219l-77 225l-48 -225h-192z" />
    <glyph glyph-name="l" unicode="l" horiz-adv-x="261" 
d="M187 0h-193l153 720h193z" />
    <glyph glyph-name="m" unicode="m" horiz-adv-x="805" 
d="M-6 0q27 131 54 260t55 260h153l12 -57q58 72 141 72q45 0 76 -18.5t43 -56.5q32 38 68 56.5t82 18.5q63 0 98.5 -36.5t35.5 -105.5q0 -16 -2 -33t-6 -37l-69 -323h-193l70 330q4 20 4 36q0 20 -7 28t-21 8q-21 0 -36 -18.5t-25 -65.5l-67 -318h-193l70 330q2 12 3 20
t1 16q0 20 -7 28t-20 8q-20 0 -35.5 -18.5t-24.5 -63.5l-67 -320h-193z" />
    <glyph glyph-name="n" unicode="n" horiz-adv-x="539" 
d="M-6 0q27 131 54 260t55 260h154l11 -57q34 38 67.5 55t76.5 17q62 0 97.5 -36t35.5 -107q0 -29 -8 -69l-68 -323h-194l70 328q2 8 3 18.5t1 20.5q0 20 -7.5 27.5t-20.5 7.5q-23 0 -41 -21t-29 -72l-65 -309h-192z" />
    <glyph glyph-name="o" unicode="o" horiz-adv-x="556" 
d="M335 535q107 0 165 -52t58 -149q0 -78 -21 -142.5t-61.5 -110.5t-98.5 -71t-132 -25q-104 0 -161 53t-57 150q0 74 19.5 137.5t58 110t96 73t134.5 26.5zM318 406q-16 0 -31.5 -12t-28.5 -38t-23 -69t-14 -104q0 -38 9.5 -54t37.5 -16q27 0 45.5 27t30 64t16.5 74.5
t5 58.5q0 40 -10.5 54.5t-36.5 14.5z" />
    <glyph glyph-name="p" unicode="p" horiz-adv-x="566" 
d="M269 459q64 76 149 76q69 0 111.5 -45.5t42.5 -134.5q0 -76 -19 -143t-52.5 -117.5t-79.5 -80t-100 -29.5q-39 0 -74.5 16t-51.5 42l-47 -223h-193l149 700h146zM375 332q0 36 -13 50.5t-39 14.5q-24 0 -41.5 -20.5t-29.5 -52t-18 -68t-6 -68.5q0 -36 13 -50.5t39 -14.5
t44 23.5t29.5 57t16.5 69t5 59.5z" />
    <glyph glyph-name="q" unicode="q" horiz-adv-x="567" 
d="M310 51q-28 -29 -59 -47.5t-70 -18.5q-71 0 -113.5 48.5t-42.5 138.5q0 75 19 141t52.5 115.5t79.5 78t99 28.5q99 0 136 -72l43 57h149l-149 -700h-193zM319 397q-21 0 -38.5 -18t-31 -47.5t-21 -66.5t-7.5 -75q0 -37 14.5 -52t37.5 -15q19 0 36 18.5t29.5 48t20 65
t7.5 69.5q0 42 -12 57.5t-35 15.5z" />
    <glyph glyph-name="r" unicode="r" horiz-adv-x="388" 
d="M-6 0l110 520h155l8 -80q57 95 134 95q24 0 53 -7l-37 -173q-20 7 -33 9.5t-30 2.5q-39 0 -72.5 -38t-50.5 -121l-44 -208h-193z" />
    <glyph glyph-name="s" unicode="s" horiz-adv-x="522" 
d="M249 112q25 0 36.5 10.5t11.5 25.5q0 13 -11.5 23t-48.5 24q-51 15 -84.5 33t-53.5 38t-28 43t-8 47q0 83 58 131t187 48q52 0 93.5 -12.5t70.5 -34.5t44 -52t15 -67h-187q0 18 -11 29t-37 11q-19 0 -28.5 -8.5t-9.5 -21.5q0 -7 2 -13t9 -11.5t20 -11.5t36 -13
q48 -15 80.5 -33.5t52 -38.5t27.5 -43t8 -47q0 -82 -65 -132.5t-204 -50.5q-109 0 -161.5 45.5t-53.5 116.5q0 5 1 9h189q0 -23 11.5 -33.5t38.5 -10.5z" />
    <glyph glyph-name="t" unicode="t" horiz-adv-x="364" 
d="M312 0q-29 -8 -58.5 -11.5t-52.5 -3.5q-71 0 -105.5 33t-34.5 92q0 23 6 52l48 227h-65l28 131h65l37 125h183l-27 -125h87l-28 -131h-87l-48 -227q-1 -5 -1.5 -10t-0.5 -9q0 -12 6 -17.5t21 -5.5q8 0 24 2.5t31 7.5z" />
    <glyph glyph-name="u" unicode="u" horiz-adv-x="532" 
d="M292 520l-70 -331q-2 -11 -3 -20t-1 -15q0 -20 7.5 -28.5t21.5 -8.5q20 0 36.5 20.5t27.5 73.5q16 78 32.5 154.5t32.5 154.5h192l-110 -520h-163l-3 53q-28 -32 -61 -50t-81 -18q-63 0 -96 33t-33 99q0 34 9 78l69 325h193z" />
    <glyph glyph-name="v" unicode="v" horiz-adv-x="532" 
d="M605 520l-271 -520h-217l-51 520h204l-8 -354l140 354h203z" />
    <glyph glyph-name="w" unicode="w" horiz-adv-x="758" 
d="M827 520l-231 -520h-219l32 334l-121 -334h-212l-5 520h196l-36 -331l124 331h198l-28 -329l112 329h190z" />
    <glyph glyph-name="x" unicode="x" horiz-adv-x="550" 
d="M398 274l115 -274h-218l-37 142l-96 -142h-206l228 274l-110 246h214l32 -125l79 125h202z" />
    <glyph glyph-name="y" unicode="y" horiz-adv-x="538" 
d="M611 520l-270 -519q-29 -56 -54.5 -93.5t-52 -60t-56 -32.5t-65.5 -10q-50 0 -104 14l28 130q29 -8 43.5 -10t23.5 -2q20 0 34 13.5t28 49.5h-42l-58 520h199l-8 -371l157 371h197z" />
    <glyph glyph-name="z" unicode="z" horiz-adv-x="469" 
d="M231 138h204l-28 -138h-435l28 135l270 247h-202l29 138h430l-29 -135z" />
    <glyph glyph-name="braceleft" unicode="{" horiz-adv-x="303" 
d="M44 384q38 0 56 19t26 54l35 163q13 63 37 101t57.5 57.5t76.5 25.5t95 6l-26 -121q-16 0 -28.5 -2.5t-22 -9t-16.5 -19t-11 -33.5q-8 -42 -17 -83t-18 -83q-13 -61 -38 -93t-57 -49q19 -12 30.5 -31.5t11.5 -53.5q0 -26 -7 -57l-34 -160q-1 -5 -2 -14.5t-1 -14.5
q0 -23 13.5 -28.5t39.5 -6.5l-26 -121q-44 0 -79.5 4t-60.5 16.5t-39 36.5t-14 64q0 15 1.5 32t6.5 37l34 157q2 9 2.5 14.5t0.5 11.5q0 22 -12.5 34.5t-42.5 12.5z" />
    <glyph glyph-name="bar" unicode="|" horiz-adv-x="289" 
d="M346 785l-196 -925h-159l196 925h159z" />
    <glyph glyph-name="braceright" unicode="}" horiz-adv-x="303" 
d="M313 256q-38 0 -56 -19t-26 -54l-35 -163q-14 -63 -37.5 -101t-57 -57.5t-76.5 -25.5t-95 -6l26 121q16 0 28.5 2.5t22 9t16.5 19t11 33.5q8 42 17 83t18 83q13 61 38 93t57 49q-19 12 -30.5 31.5t-11.5 53.5q0 26 7 57l34 160q1 5 2 14.5t1 14.5q0 23 -13.5 28.5
t-39.5 6.5l26 121q43 0 79 -4t61 -17t39 -36.5t14 -63.5q0 -15 -1.5 -32t-6.5 -37l-34 -157q-2 -9 -2.5 -14.5t-0.5 -11.5q0 -22 12.5 -34.5t42.5 -12.5z" />
    <glyph glyph-name="asciitilde" unicode="~" 
d="M361 227q-24 0 -43 8t-35.5 18t-32.5 18t-34 8q-26 0 -55 -12t-73 -36l31 143q22 13 58 26.5t76 13.5q25 0 44 -8.5t35.5 -18t32.5 -18t35 -8.5q26 0 54.5 12t71.5 37l-30 -143q-22 -14 -58 -27t-77 -13z" />
    <glyph glyph-name="uni00A0" unicode="&#xa0;" horiz-adv-x="175" 
 />
    <glyph glyph-name="exclamdown" unicode="&#xa1;" horiz-adv-x="289" 
d="M259 298l-79 -478h-228l124 478h183zM322 540l-38 -181h-208l39 181h207z" />
    <glyph glyph-name="cent" unicode="&#xa2;" 
d="M124 -135q7 34 13.5 67.5t14.5 67.5q-60 20 -89 65.5t-29 113.5t15 126t44.5 103t72 75.5t98.5 42.5l29 134h165l-30 -139q64 -19 98 -63.5t34 -107.5v-10h-196q1 4 1 7v7q0 24 -11 37.5t-30 13.5q-20 0 -37.5 -21t-30 -54t-19.5 -74t-7 -81q0 -32 10.5 -46.5t27.5 -14.5
q23 0 37.5 18t25.5 60h197q-34 -84 -86 -135t-127 -65l-26 -127h-165z" />
    <glyph glyph-name="sterling" unicode="&#xa3;" 
d="M330 402h144q-7 -30 -13 -60l-12 -60h-144q-6 -24 -11 -43.5t-13.5 -35.5t-21 -29t-31.5 -23h280l-32 -151h-465q8 36 15.5 72.5t15.5 73.5q15 4 23.5 9.5t13.5 14t8.5 19.5t6.5 26l15 67h-54l12 60q6 30 13 60h54l20 96q12 55 30.5 96t47 68t69 40t96.5 13q48 0 85 -13
t61.5 -35.5t37.5 -53.5t13 -68v-15q0 -7 -2 -15h-173q1 5 1 9v9q0 18 -5.5 28.5t-19.5 10.5q-8 0 -13.5 -3t-10.5 -11.5t-9.5 -23.5t-10.5 -40z" />
    <glyph glyph-name="currency" unicode="&#xa4;" 
d="M84 218q-3 11 -4 24.5t-1 34.5q0 47 15.5 92.5t39.5 82.5q-9 15 -18.5 30t-19.5 30q32 27 63 53.5t62 53.5l42 -62q51 28 97 28q25 0 49 -7t44 -21q17 15 34 30.5t34 31.5l79 -107l-64 -60q2 -14 3.5 -28.5t1.5 -32.5q-3 -51 -18 -93.5t-38 -79.5l40 -59
q-32 -27 -63 -53.5t-62 -53.5l-41 61q-26 -13 -49.5 -20t-49.5 -7q-52 0 -93 27l-66 -61q-20 27 -40 53.5t-40 53.5zM334 453q-21 0 -41 -11.5t-35.5 -32.5t-25.5 -49t-10 -61q0 -38 18 -60t47 -22q21 0 41.5 12t36 33t25.5 49.5t10 61.5q0 37 -18.5 58.5t-47.5 21.5z" />
    <glyph glyph-name="yen" unicode="&#xa5;" 
d="M147 0l22 104h-106l25 116h105l9 42h-105l25 116h60l-82 322h208l22 -263l143 263h202l-219 -322h61l-24 -116h-106l-9 -42h106l-25 -116h-105l-22 -104h-185z" />
    <glyph glyph-name="brokenbar" unicode="&#xa6;" horiz-adv-x="289" 
d="M346 784l-85 -401h-159l85 401h159zM235 257l-85 -397h-159l84 397h160z" />
    <glyph glyph-name="section" unicode="&#xa7;" 
d="M525 344q0 -115 -98 -159q34 -37 34 -91q0 -87 -54 -136t-171 -49q-41 0 -76 10.5t-60 29.5t-39 46.5t-14 60.5v10q0 5 1 10h176q0 -2 -0.5 -5t-0.5 -5q0 -17 7 -23.5t19 -6.5q13 0 20 10.5t7 24.5q0 17 -7.5 28t-40.5 23q-71 25 -106 66.5t-35 92.5q0 117 98 161
q-37 40 -37 93q0 88 53.5 134t165.5 46q39 0 74 -10.5t61.5 -30.5t41.5 -48.5t15 -64.5v-12h-174q0 3 0.5 6t0.5 5q0 29 -24 29q-13 0 -20.5 -8.5t-7.5 -21.5q0 -9 1.5 -16t6.5 -13t16 -12t29 -13q69 -24 103.5 -67t34.5 -94zM335 313q0 16 -6 32t-26 27q-11 -8 -17.5 -24
t-6.5 -34t5.5 -32.5t25.5 -25.5q12 10 18.5 25t6.5 32z" />
    <glyph glyph-name="dieresis" unicode="&#xa8;" horiz-adv-x="429" 
d="M150 585l31 144h167l-31 -144h-167zM358 585l31 144h169l-31 -144h-169z" />
    <glyph glyph-name="copyright" unicode="&#xa9;" horiz-adv-x="721" 
d="M162 363q0 -72 18 -127.5t49.5 -93t75 -56.5t93.5 -19t93 18.5t74.5 55.5t49.5 92t18 127t-18 127t-50 92t-75 56t-92 19q-50 0 -93.5 -18.5t-75 -55t-49.5 -91t-18 -126.5zM726 360q0 -94 -27 -164t-72.5 -117t-105 -70.5t-123.5 -23.5q-66 0 -126 24t-105 71.5
t-71.5 118t-26.5 164.5t27 163.5t72.5 116t105 69.5t124.5 23q64 0 123.5 -23.5t105 -70.5t72.5 -117t27 -164zM586 318q-6 -33 -20.5 -61.5t-37 -49.5t-53.5 -33t-72 -12q-99 0 -141.5 51t-42.5 149q0 97 46 152.5t140 55.5q76 0 123 -40.5t58 -105.5h-145q-2 23 -11 37
t-23 14q-24 0 -33.5 -25t-9.5 -89q0 -57 8.5 -80t29.5 -23q17 0 25.5 15.5t13.5 44.5h145z" />
    <glyph glyph-name="ordfeminine" unicode="&#xaa;" horiz-adv-x="469" 
d="M152 598q23 60 77 98.5t128 38.5q69 0 107 -33t38 -91q0 -11 -2 -22l-4 -22l-55 -264h-119l-5 35q-22 -22 -46.5 -34.5t-51.5 -12.5q-51 0 -84 26t-33 77q0 78 49.5 118.5t146.5 53.5l37 5l6 27q1 5 1.5 8.5t0.5 6.5q0 15 -13 15q-16 0 -23 -30h-155zM372 0h-348l30 140
h348zM283 403q10 0 15 10t9 27l9 40l-12 -3q-21 -5 -30.5 -18.5t-9.5 -30.5q0 -25 19 -25z" />
    <glyph glyph-name="guillemotleft" unicode="&#xab;" horiz-adv-x="529" 
d="M44 315l159 205h152l-132 -210l29 -220h-150zM268 315l159 205h152l-132 -210l29 -220h-150z" />
    <glyph glyph-name="logicalnot" unicode="&#xac;" 
d="M522 390l-61 -292h-153l32 152h-248l30 140h400z" />
    <glyph glyph-name="uni00AD" unicode="&#xad;" horiz-adv-x="468" 
d="M416 250h-352l30 140h351z" />
    <glyph glyph-name="registered" unicode="&#xae;" horiz-adv-x="539" 
d="M551 499q0 -62 -17.5 -107t-46.5 -73.5t-67 -42t-80 -13.5t-80 13.5t-67 42t-46 73.5t-17 107t17 107t46 73.5t67 42t80 13.5t80 -13.5t67 -42t46.5 -73.5t17.5 -107zM339 319q30 0 56.5 10t47 31.5t32 55.5t11.5 83t-12 83.5t-32.5 56t-47 31t-55.5 9.5t-56 -9.5
t-47 -31t-32 -56t-12 -83.5t12 -83t32 -55.5t46.5 -31.5t56.5 -10zM382 388l-47 82h-20v-82h-63v234h84q46 0 71 -18.5t25 -57.5q0 -27 -11.5 -42.5t-28.5 -23.5l58 -92h-68zM315 576v-61h25q10 0 19.5 7t9.5 24t-9.5 23.5t-21.5 6.5h-23z" />
    <glyph glyph-name="macron" unicode="&#xaf;" horiz-adv-x="307" 
d="M151 591l27 128h255l-27 -128h-255z" />
    <glyph glyph-name="degree" unicode="&#xb0;" 
d="M297 601q-12 0 -19 -10t-11.5 -24t-6 -28.5t-1.5 -23.5q0 -27 18 -27q9 0 16 7t12 18.5t7.5 26t2.5 28.5q0 33 -18 33zM260 373q-30 0 -56 10t-44.5 28t-29.5 44t-11 58q0 47 15.5 85t42 64.5t61.5 40.5t74 14q30 0 56 -10t45.5 -28t31 -44t11.5 -58q0 -46 -15.5 -83.5
t-42.5 -64.5t-62.5 -41.5t-75.5 -14.5z" />
    <glyph glyph-name="plusminus" unicode="&#xb1;" 
d="M433 551l-30 -137h124l-29 -140h-124l-20 -95h-153l20 95h-123l29 140h123l30 137h153zM440 0h-400l29 140h400z" />
    <glyph glyph-name="twosuperior" unicode="&#xb2;" horiz-adv-x="378" 
d="M92 599q24 67 73.5 106.5t120.5 39.5q68 0 102.5 -31.5t34.5 -75.5q0 -23 -6 -42.5t-21.5 -40.5t-42 -45t-67.5 -56l-70 -55h156l-22 -105h-311l22 103l105 85q40 32 64 54.5t37 39t17 29t4 24.5q0 17 -19 17q-13 0 -24.5 -10.5t-20.5 -36.5h-132z" />
    <glyph glyph-name="threesuperior" unicode="&#xb3;" horiz-adv-x="380" 
d="M287 745q66 0 100.5 -27.5t34.5 -69.5q0 -41 -26 -75t-81 -47q34 -10 51.5 -34t17.5 -53q0 -28 -10 -55.5t-31.5 -49.5t-56.5 -36t-85 -14q-46 0 -75 12.5t-44.5 32t-20.5 44.5t-4 51h132q0 -2 -0.5 -5t-0.5 -5q0 -13 4.5 -23.5t17.5 -10.5q18 0 27.5 19.5t9.5 43.5
q0 20 -11 27.5t-28 7.5h-29l19 89h31q15 0 25.5 7t16.5 17.5t8.5 22.5t2.5 21q0 15 -13 15q-21 0 -34 -35h-126q22 61 66 95.5t112 34.5z" />
    <glyph glyph-name="acute" unicode="&#xb4;" horiz-adv-x="333" 
d="M276 732h186l-177 -154h-137z" />
    <glyph glyph-name="mu" unicode="&#xb5;" horiz-adv-x="536" 
d="M296 520l-66 -312q-3 -15 -5.5 -29t-2.5 -25q0 -21 7.5 -29t21.5 -8q20 0 36.5 20.5t27.5 73.5l65 309h192l-110 -520h-163l-3 53q-23 -26 -49.5 -40.5t-57.5 -14.5h-5l-37 -178h-191l147 700h193z" />
    <glyph glyph-name="paragraph" unicode="&#xb6;" horiz-adv-x="641" 
d="M457 720l-192 -900h-184l105 490q-54 8 -86.5 47t-32.5 105q0 56 16.5 103t47 81.5t72.5 54t93 19.5h161zM710 720l-192 -900h-185l192 900h185z" />
    <glyph glyph-name="periodcentered" unicode="&#xb7;" horiz-adv-x="296" 
d="M52 220l38 175h203l-38 -175h-203z" />
    <glyph glyph-name="cedilla" unicode="&#xb8;" horiz-adv-x="378" 
d="M279 -123q0 -29 -10.5 -55t-32 -46t-54 -32t-76.5 -12q-67 0 -106 30t-39 84q0 3 0.5 6.5t0.5 6.5h123q-1 -3 -1 -8q0 -26 32 -26q19 0 28.5 10t9.5 26q0 15 -14.5 27t-61.5 12l36 122h105l-10 -57q35 -10 52.5 -33t17.5 -55z" />
    <glyph glyph-name="onesuperior" unicode="&#xb9;" horiz-adv-x="267" 
d="M240 294h-136l66 309l-99 -42l25 120l122 54h116z" />
    <glyph glyph-name="ordmasculine" unicode="&#xba;" horiz-adv-x="467" 
d="M408 139q-8 -35 -15 -69.5t-15 -69.5h-364l30 139h364zM339 735q30 0 59.5 -7t52.5 -25t37 -48.5t14 -76.5q0 -74 -18 -128t-49.5 -89.5t-74.5 -52.5t-93 -17q-31 0 -60.5 7.5t-53 25.5t-37.5 48.5t-14 77.5q0 65 15 118t45 90t74.5 57t102.5 20zM320 622
q-14 0 -24.5 -20t-18 -49t-11.5 -61t-4 -55q0 -34 22 -34q13 0 24 20.5t19 49.5t12 60.5t4 54.5q0 19 -6 26.5t-17 7.5z" />
    <glyph glyph-name="guillemotright" unicode="&#xbb;" horiz-adv-x="529" 
d="M382 90h-149l124 220l-43 210h152l70 -205zM159 90h-150l123 220l-42 210h152l71 -205z" />
    <glyph glyph-name="onequarter" unicode="&#xbc;" horiz-adv-x="890" 
d="M90 -90l611 880h148l-610 -880h-149zM302 294h-136l66 309l-99 -42l25 120l122 54h116zM823 174h39l-20 -94h-39l-17 -79h-123l17 79h-179l21 102l192 260h166zM638 174h62l55 172z" />
    <glyph glyph-name="onehalf" unicode="&#xbd;" horiz-adv-x="930" 
d="M90 -90l611 880h148l-610 -880h-149zM302 294h-136l66 309l-99 -42l25 120l122 54h116zM589 306q24 67 73.5 106.5t120.5 39.5q68 0 102.5 -31.5t34.5 -75.5q0 -23 -6 -42.5t-21.5 -40.5t-42 -45t-67.5 -56l-70 -55h156l-22 -105h-311l22 103l105 85q40 32 64 54.5t37 39
t17 29t4 24.5q0 17 -19 17q-13 0 -24.5 -10.5t-20.5 -36.5h-132z" />
    <glyph glyph-name="threequarters" unicode="&#xbe;" horiz-adv-x="952" 
d="M152 -90l611 880h148l-610 -880h-149zM321 745q66 0 100.5 -27.5t34.5 -69.5q0 -41 -26 -75t-81 -47q34 -10 51.5 -34t17.5 -53q0 -28 -10 -55.5t-31.5 -49.5t-56.5 -36t-85 -14q-46 0 -75 12.5t-44.5 32t-20.5 44.5t-4 51h132q0 -2 -0.5 -5t-0.5 -5q0 -13 4.5 -23.5
t17.5 -10.5q18 0 27.5 19.5t9.5 43.5q0 20 -11 27.5t-28 7.5h-29l19 89h31q15 0 25.5 7t16.5 17.5t8.5 22.5t2.5 21q0 15 -13 15q-21 0 -34 -35h-126q22 61 66 95.5t112 34.5zM885 174h39l-20 -94h-39l-17 -79h-123l17 79h-179l21 102l192 260h166zM700 174h62l55 172z" />
    <glyph glyph-name="questiondown" unicode="&#xbf;" horiz-adv-x="480" 
d="M378 5q-11 -43 -34 -79.5t-56 -63.5t-76 -42t-92 -15q-88 0 -135 39t-47 102q0 27 5.5 51t20 50.5t39.5 58.5t65 75q13 15 22.5 28t16 26.5t11 29.5t8.5 37h182q-9 -41 -17.5 -70t-19 -52t-23.5 -41.5t-30 -36.5q-49 -52 -68 -81t-19 -51q0 -23 17 -23q13 0 21.5 11.5
t16.5 46.5h192zM370 540l-38 -181h-207l38 181h207z" />
    <glyph glyph-name="Agrave" unicode="&#xc0;" horiz-adv-x="648" 
d="M396 157h-161l-67 -157h-211l371 720h214l69 -720h-215v157zM293 295h103l1 243zM548 774h-136l-112 154h187z" />
    <glyph glyph-name="Aacute" unicode="&#xc1;" horiz-adv-x="648" 
d="M396 157h-161l-67 -157h-211l371 720h214l69 -720h-215v157zM293 295h103l1 243zM445 928h186l-177 -154h-137z" />
    <glyph glyph-name="Acircumflex" unicode="&#xc2;" horiz-adv-x="648" 
d="M396 157h-161l-67 -157h-211l371 720h214l69 -720h-215v157zM293 295h103l1 243zM421 780h-165l146 154h144l82 -154h-165l-7 67z" />
    <glyph glyph-name="Atilde" unicode="&#xc3;" horiz-adv-x="648" 
d="M396 157h-161l-67 -157h-211l371 720h214l69 -720h-215v157zM293 295h103l1 243zM504 777q-19 0 -34 5.5t-28 12.5t-25.5 12.5t-26.5 5.5q-15 0 -35 -8t-52 -25l26 125q26 15 46.5 22t43.5 7q19 0 33.5 -6t28 -12.5t26 -12.5t27.5 -6q14 0 33 8t51 25l-27 -125
q-26 -15 -45.5 -21.5t-41.5 -6.5z" />
    <glyph glyph-name="Adieresis" unicode="&#xc4;" horiz-adv-x="648" 
d="M396 157h-161l-67 -157h-211l371 720h214l69 -720h-215v157zM293 295h103l1 243zM255 781l31 144h167l-31 -144h-167zM463 781l31 144h169l-31 -144h-169z" />
    <glyph glyph-name="Aring" unicode="&#xc5;" horiz-adv-x="648" 
d="M610 814q0 -41 -16 -74t-48 -53l65 -687h-215v157h-161l-67 -157h-212l369 713q-12 24 -12 54q0 33 11 62t32 50t52.5 33.5t73.5 12.5q66 0 97 -32.5t31 -78.5zM293 295h104v244zM433 775q0 -26 24 -26q18 0 25.5 18t7.5 39q0 12 -5 19.5t-18 7.5q-17 0 -25.5 -16.5
t-8.5 -41.5z" />
    <glyph glyph-name="AE" unicode="&#xc6;" horiz-adv-x="880" 
d="M813 0h-435l33 157h-154l-85 -157h-215l437 720h572l-32 -148h-226l-30 -140h202l-30 -139h-201l-32 -147h227zM440 295l64 299l-161 -299h97z" />
    <glyph glyph-name="Ccedilla" unicode="&#xc7;" horiz-adv-x="669" 
d="M411 -123q0 -29 -10.5 -55t-32 -46t-54 -32t-76.5 -12q-67 0 -106 30t-39 84q0 3 0.5 6.5t0.5 6.5h123q-1 -3 -1 -8q0 -26 32 -26q19 0 28.5 10t9.5 26q0 15 -14.5 27t-61.5 12l27 92q-93 19 -140 84t-47 170q0 108 27.5 198t78 154.5t122.5 100.5t162 36
q125 0 192.5 -66t67.5 -181v-17h-207v18q0 57 -17.5 80t-52.5 23t-64.5 -32.5t-50.5 -84t-32.5 -115t-11.5 -125.5q0 -59 18.5 -83t50.5 -24q41 0 69.5 34.5t50.5 113.5h211q-48 -138 -125 -209.5t-195 -79.5l-3 -22q35 -10 52.5 -33t17.5 -55z" />
    <glyph glyph-name="Egrave" unicode="&#xc8;" horiz-adv-x="541" 
d="M511 294h-236l-31 -148h261l-30 -146h-471l153 720h471l-32 -148h-262l-29 -140h236zM483 774h-136l-112 154h187z" />
    <glyph glyph-name="Eacute" unicode="&#xc9;" horiz-adv-x="541" 
d="M511 294h-236l-31 -148h261l-30 -146h-471l153 720h471l-32 -148h-262l-29 -140h236zM437 928h186l-177 -154h-137z" />
    <glyph glyph-name="Ecircumflex" unicode="&#xca;" horiz-adv-x="541" 
d="M511 294h-236l-31 -148h261l-30 -146h-471l153 720h471l-32 -148h-262l-29 -140h236zM385 780h-165l146 154h144l82 -154h-165l-7 67z" />
    <glyph glyph-name="Edieresis" unicode="&#xcb;" horiz-adv-x="541" 
d="M511 294h-236l-31 -148h261l-30 -146h-471l153 720h471l-32 -148h-262l-29 -140h236zM215 781l31 144h167l-31 -144h-167zM423 781l31 144h169l-31 -144h-169z" />
    <glyph glyph-name="Igrave" unicode="&#xcc;" horiz-adv-x="297" 
d="M366 720l-153 -720h-209l153 720h209zM387 774h-136l-112 154h187z" />
    <glyph glyph-name="Iacute" unicode="&#xcd;" horiz-adv-x="297" 
d="M366 720l-153 -720h-209l153 720h209zM275 928h186l-177 -154h-137z" />
    <glyph glyph-name="Icircumflex" unicode="&#xce;" horiz-adv-x="297" 
d="M366 720l-153 -720h-209l153 720h209zM253 780h-165l146 154h144l82 -154h-165l-7 67z" />
    <glyph glyph-name="Idieresis" unicode="&#xcf;" horiz-adv-x="297" 
d="M366 720l-153 -720h-209l153 720h209zM87 781l31 144h167l-31 -144h-167zM295 781l31 144h169l-31 -144h-169z" />
    <glyph glyph-name="Eth" unicode="&#xd0;" horiz-adv-x="671" 
d="M410 720q140 0 211.5 -64t71.5 -189q0 -108 -27.5 -194t-80.5 -147t-129.5 -93.5t-174.5 -32.5h-273l65 308h-47l30 142h48l57 270h249zM339 578l-27 -128h62l-30 -142h-62l-35 -165h55q37 0 69.5 25t57 67.5t38.5 98t14 116.5q0 67 -27 97.5t-69 30.5h-46z" />
    <glyph glyph-name="Ntilde" unicode="&#xd1;" horiz-adv-x="654" 
d="M723 720l-153 -720h-198l-100 434l-92 -434h-176l153 720h211l90 -415l89 415h176zM511 777q-19 0 -34 5.5t-28 12.5t-25.5 12.5t-26.5 5.5q-15 0 -35 -8t-52 -25l26 125q26 15 46.5 22t43.5 7q19 0 33.5 -6t28 -12.5t26 -12.5t27.5 -6q14 0 33 8t51 25l-27 -125
q-26 -15 -45.5 -21.5t-41.5 -6.5z" />
    <glyph glyph-name="Ograve" unicode="&#xd2;" horiz-adv-x="703" 
d="M347 132q34 0 65 29t53.5 76.5t36 107t13.5 120.5q0 66 -24.5 95t-62.5 29q-33 0 -63.5 -28.5t-53.5 -75t-36.5 -106.5t-13.5 -122q0 -68 24 -96.5t62 -28.5zM323 -15q-62 0 -112.5 17.5t-86 51.5t-55 85t-19.5 117q0 106 30.5 194t84.5 151.5t127.5 98.5t158.5 35
q61 0 111.5 -17t86.5 -51t56 -84.5t20 -117.5q0 -106 -31 -194.5t-85.5 -152t-128 -98.5t-157.5 -35zM553 774h-136l-112 154h187z" />
    <glyph glyph-name="Oacute" unicode="&#xd3;" horiz-adv-x="703" 
d="M347 132q34 0 65 29t53.5 76.5t36 107t13.5 120.5q0 66 -24.5 95t-62.5 29q-33 0 -63.5 -28.5t-53.5 -75t-36.5 -106.5t-13.5 -122q0 -68 24 -96.5t62 -28.5zM323 -15q-62 0 -112.5 17.5t-86 51.5t-55 85t-19.5 117q0 106 30.5 194t84.5 151.5t127.5 98.5t158.5 35
q61 0 111.5 -17t86.5 -51t56 -84.5t20 -117.5q0 -106 -31 -194.5t-85.5 -152t-128 -98.5t-157.5 -35zM504 928h186l-177 -154h-137z" />
    <glyph glyph-name="Ocircumflex" unicode="&#xd4;" horiz-adv-x="703" 
d="M347 132q34 0 65 29t53.5 76.5t36 107t13.5 120.5q0 66 -24.5 95t-62.5 29q-33 0 -63.5 -28.5t-53.5 -75t-36.5 -106.5t-13.5 -122q0 -68 24 -96.5t62 -28.5zM323 -15q-62 0 -112.5 17.5t-86 51.5t-55 85t-19.5 117q0 106 30.5 194t84.5 151.5t127.5 98.5t158.5 35
q61 0 111.5 -17t86.5 -51t56 -84.5t20 -117.5q0 -106 -31 -194.5t-85.5 -152t-128 -98.5t-157.5 -35zM455 780h-165l146 154h144l82 -154h-165l-7 67z" />
    <glyph glyph-name="Otilde" unicode="&#xd5;" horiz-adv-x="703" 
d="M347 132q34 0 65 29t53.5 76.5t36 107t13.5 120.5q0 66 -24.5 95t-62.5 29q-33 0 -63.5 -28.5t-53.5 -75t-36.5 -106.5t-13.5 -122q0 -68 24 -96.5t62 -28.5zM323 -15q-62 0 -112.5 17.5t-86 51.5t-55 85t-19.5 117q0 106 30.5 194t84.5 151.5t127.5 98.5t158.5 35
q61 0 111.5 -17t86.5 -51t56 -84.5t20 -117.5q0 -106 -31 -194.5t-85.5 -152t-128 -98.5t-157.5 -35zM535 777q-19 0 -34 5.5t-28 12.5t-25.5 12.5t-26.5 5.5q-15 0 -35 -8t-52 -25l26 125q26 15 46.5 22t43.5 7q19 0 33.5 -6t28 -12.5t26 -12.5t27.5 -6q14 0 33 8t51 25
l-27 -125q-26 -15 -45.5 -21.5t-41.5 -6.5z" />
    <glyph glyph-name="Odieresis" unicode="&#xd6;" horiz-adv-x="703" 
d="M347 132q34 0 65 29t53.5 76.5t36 107t13.5 120.5q0 66 -24.5 95t-62.5 29q-33 0 -63.5 -28.5t-53.5 -75t-36.5 -106.5t-13.5 -122q0 -68 24 -96.5t62 -28.5zM323 -15q-62 0 -112.5 17.5t-86 51.5t-55 85t-19.5 117q0 106 30.5 194t84.5 151.5t127.5 98.5t158.5 35
q61 0 111.5 -17t86.5 -51t56 -84.5t20 -117.5q0 -106 -31 -194.5t-85.5 -152t-128 -98.5t-157.5 -35zM289 781l31 144h167l-31 -144h-167zM497 781l31 144h169l-31 -144h-169z" />
    <glyph glyph-name="multiply" unicode="&#xd7;" 
d="M413 313l79 -100l-113 -93l-79 100l-123 -101l-82 107l121 100l-79 99l114 93l78 -99l120 99l83 -106z" />
    <glyph glyph-name="Oslash" unicode="&#xd8;" horiz-adv-x="703" 
d="M322 -15q-25 0 -48 3.5t-44 8.5l-68 -107h-146l108 164q-35 34 -54.5 84t-19.5 117q0 106 30.5 194.5t84.5 152t127 98.5t159 35q26 0 49.5 -3.5t45.5 -9.5l64 98h146l-105 -158q35 -33 54.5 -82.5t19.5 -115.5q0 -106 -31 -194t-85.5 -151.5t-128 -98.5t-158.5 -35z
M261 277v-11q0 -7 0.5 -15.5t1 -16.5t0.5 -13l199 361q-17 6 -34 6q-32 0 -62.5 -28t-53.5 -72.5t-37 -100t-14 -110.5zM346 132q33 0 64 28t54 74t37 103.5t14 116.5v19q0 8 -2 18l-202 -352q14 -7 35 -7z" />
    <glyph glyph-name="Ugrave" unicode="&#xd9;" horiz-adv-x="653" 
d="M362 720l-102 -480q-3 -12 -4 -22.5t-1 -19.5q0 -68 64 -68q42 0 65 24.5t35 79.5l103 486h203l-102 -482q-26 -122 -107.5 -187.5t-226.5 -65.5q-122 0 -182.5 55t-60.5 147q0 31 8 71l99 462h209zM493 774h-136l-112 154h187z" />
    <glyph glyph-name="Uacute" unicode="&#xda;" horiz-adv-x="653" 
d="M362 720l-102 -480q-3 -12 -4 -22.5t-1 -19.5q0 -68 64 -68q42 0 65 24.5t35 79.5l103 486h203l-102 -482q-26 -122 -107.5 -187.5t-226.5 -65.5q-122 0 -182.5 55t-60.5 147q0 31 8 71l99 462h209zM511 928h186l-177 -154h-137z" />
    <glyph glyph-name="Ucircumflex" unicode="&#xdb;" horiz-adv-x="653" 
d="M362 720l-102 -480q-3 -12 -4 -22.5t-1 -19.5q0 -68 64 -68q42 0 65 24.5t35 79.5l103 486h203l-102 -482q-26 -122 -107.5 -187.5t-226.5 -65.5q-122 0 -182.5 55t-60.5 147q0 31 8 71l99 462h209zM427 780h-165l146 154h144l82 -154h-165l-7 67z" />
    <glyph glyph-name="Udieresis" unicode="&#xdc;" horiz-adv-x="653" 
d="M362 720l-102 -480q-3 -12 -4 -22.5t-1 -19.5q0 -68 64 -68q42 0 65 24.5t35 79.5l103 486h203l-102 -482q-26 -122 -107.5 -187.5t-226.5 -65.5q-122 0 -182.5 55t-60.5 147q0 31 8 71l99 462h209zM261 781l31 144h167l-31 -144h-167zM469 781l31 144h169l-31 -144h-169
z" />
    <glyph glyph-name="Yacute" unicode="&#xdd;" horiz-adv-x="652" 
d="M186 0l61 288l-134 432h213l55 -270l181 270h203l-319 -432l-61 -288h-199zM503 928h186l-177 -154h-137z" />
    <glyph glyph-name="Thorn" unicode="&#xde;" horiz-adv-x="600" 
d="M365 720l-23 -108q137 -4 207 -49t70 -142q0 -84 -28.5 -140.5t-79 -91.5t-120.5 -50.5t-153 -17.5l-26 -121h-208l153 720h208zM312 471l-45 -209h18q22 0 44 8t39.5 24.5t28 42.5t10.5 61t-19.5 54t-50.5 19h-25z" />
    <glyph glyph-name="germandbls" unicode="&#xdf;" horiz-adv-x="597" 
d="M374 -15q-86 0 -127.5 35.5t-41.5 95.5v9q0 5 1 10h157q0 -3 -0.5 -5.5t-0.5 -4.5q0 -25 21 -25q14 0 23.5 16.5t9.5 45.5q0 22 -10.5 41.5t-41.5 43.5q-30 23 -41 45t-11 51q0 39 13 67.5t28 51.5t28 45.5t13 49.5q0 43 -38 43q-12 0 -21.5 -4t-17 -16t-14.5 -33
t-14 -54l-31 -145l-116 -348h-148l110 523q10 50 30.5 89.5t53 66.5t78 41.5t106.5 14.5q99 0 151 -39t52 -103q0 -45 -14.5 -73t-31.5 -48.5t-31.5 -37.5t-14.5 -39q0 -20 6 -31t22 -22q42 -32 59.5 -68t17.5 -77q0 -47 -14.5 -86t-42 -67t-67.5 -43.5t-90 -15.5z" />
    <glyph glyph-name="agrave" unicode="&#xe0;" horiz-adv-x="514" 
d="M65 365q29 82 91 126t165 44q96 0 147 -42.5t51 -117.5q0 -23 -6 -50l-69 -325h-147l-12 55q-26 -31 -64 -50.5t-87 -19.5q-63 0 -98.5 36t-35.5 93q0 83 52 132t177 69l92 14l4 20q3 16 3 29q0 29 -26 29q-35 0 -47 -42h-190zM223 111q32 0 46.5 26.5t25.5 71.5l5 20
q-60 -7 -85 -29t-25 -52q0 -37 33 -37zM428 581h-136l-112 154h187z" />
    <glyph glyph-name="aacute" unicode="&#xe1;" horiz-adv-x="514" 
d="M65 365q29 82 91 126t165 44q96 0 147 -42.5t51 -117.5q0 -23 -6 -50l-69 -325h-147l-12 55q-26 -31 -64 -50.5t-87 -19.5q-63 0 -98.5 36t-35.5 93q0 83 52 132t177 69l92 14l4 20q3 16 3 29q0 29 -26 29q-35 0 -47 -42h-190zM223 111q32 0 46.5 26.5t25.5 71.5l5 20
q-60 -7 -85 -29t-25 -52q0 -37 33 -37zM394 735h186l-177 -154h-137z" />
    <glyph glyph-name="acircumflex" unicode="&#xe2;" horiz-adv-x="514" 
d="M65 365q29 82 91 126t165 44q96 0 147 -42.5t51 -117.5q0 -23 -6 -50l-69 -325h-147l-12 55q-26 -31 -64 -50.5t-87 -19.5q-63 0 -98.5 36t-35.5 93q0 83 52 132t177 69l92 14l4 20q3 16 3 29q0 29 -26 29q-35 0 -47 -42h-190zM223 111q32 0 46.5 26.5t25.5 71.5l5 20
q-60 -7 -85 -29t-25 -52q0 -37 33 -37zM324 583h-165l146 154h144l82 -154h-165l-7 67z" />
    <glyph glyph-name="atilde" unicode="&#xe3;" horiz-adv-x="514" 
d="M65 365q29 82 91 126t165 44q96 0 147 -42.5t51 -117.5q0 -23 -6 -50l-69 -325h-147l-12 55q-26 -31 -64 -50.5t-87 -19.5q-63 0 -98.5 36t-35.5 93q0 83 52 132t177 69l92 14l4 20q3 16 3 29q0 29 -26 29q-35 0 -47 -42h-190zM223 111q32 0 46.5 26.5t25.5 71.5l5 20
q-60 -7 -85 -29t-25 -52q0 -37 33 -37zM401 581q-19 0 -34 5.5t-28 12.5t-25.5 12.5t-26.5 5.5q-15 0 -35 -8t-52 -25l26 125q26 15 46.5 22t43.5 7q19 0 33.5 -6t28 -12.5t26 -12.5t27.5 -6q14 0 33 8t51 25l-27 -125q-26 -15 -45.5 -21.5t-41.5 -6.5z" />
    <glyph glyph-name="adieresis" unicode="&#xe4;" horiz-adv-x="514" 
d="M65 365q29 82 91 126t165 44q96 0 147 -42.5t51 -117.5q0 -23 -6 -50l-69 -325h-147l-12 55q-26 -31 -64 -50.5t-87 -19.5q-63 0 -98.5 36t-35.5 93q0 83 52 132t177 69l92 14l4 20q3 16 3 29q0 29 -26 29q-35 0 -47 -42h-190zM223 111q32 0 46.5 26.5t25.5 71.5l5 20
q-60 -7 -85 -29t-25 -52q0 -37 33 -37zM149 577l31 144h167l-31 -144h-167zM357 577l31 144h169l-31 -144h-169z" />
    <glyph glyph-name="aring" unicode="&#xe5;" horiz-adv-x="514" 
d="M65 365q29 82 91 126t165 44q96 0 147 -42.5t51 -117.5q0 -23 -6 -50l-69 -325h-147l-12 55q-26 -31 -64 -50.5t-87 -19.5q-63 0 -98.5 36t-35.5 93q0 83 52 132t177 69l92 14l4 20q3 16 3 29q0 29 -26 29q-35 0 -47 -42h-190zM223 111q32 0 46.5 26.5t25.5 71.5l5 20
q-60 -7 -85 -29t-25 -52q0 -37 33 -37zM336 690q0 -12 5.5 -19.5t17.5 -7.5q18 0 25.5 18t7.5 39q0 12 -5 19.5t-18 7.5q-17 0 -25 -16t-8 -41zM512 729q0 -33 -11 -62t-32 -50.5t-52.5 -33.5t-73.5 -12q-66 0 -97 32.5t-31 78.5q0 33 11 61.5t32.5 50t53 34t73.5 12.5
q65 0 96 -33t31 -78z" />
    <glyph glyph-name="ae" unicode="&#xe6;" horiz-adv-x="813" 
d="M64 365q35 86 96.5 128t163.5 42q86 0 133 -47q29 20 66 33.5t75 13.5q46 0 85 -13.5t67 -40.5t43.5 -67.5t15.5 -94.5q0 -46 -12 -101h-311q-2 -11 -3 -22.5t-1 -17.5q0 -35 12.5 -47.5t32.5 -12.5q45 0 62 45h193q-15 -38 -39.5 -70.5t-58.5 -56.5t-77.5 -37.5
t-96.5 -13.5q-66 0 -110.5 25.5t-67.5 71.5q-32 -47 -78 -72t-112 -25q-64 0 -103 36t-39 92q0 42 12 75t39.5 58t71 42t106.5 27l91 14l5 20q3 12 3 30t-8.5 23t-18.5 5q-30 0 -47 -42h-190zM580 413q-24 0 -41 -19.5t-33 -74.5h115q2 11 3 21.5t1 18.5q0 32 -12.5 43
t-32.5 11zM222 111q24 0 42 21t26 56l9 41q-59 -7 -84.5 -29t-25.5 -50q0 -39 33 -39z" />
    <glyph glyph-name="ccedilla" unicode="&#xe7;" horiz-adv-x="539" 
d="M275 -35q35 -10 53 -33t18 -54q0 -29 -10.5 -55t-32 -46t-54.5 -32t-77 -12q-66 0 -105.5 29.5t-39.5 83.5q0 4 0.5 7t0.5 7h123q-1 -3 -1 -8q0 -27 32 -27q19 0 28.5 10.5t9.5 26.5q0 7 -3 14t-11.5 12t-23 8.5t-37.5 3.5l26 92q-75 15 -110 63.5t-35 123.5
q0 79 20 144.5t59 112.5t95.5 73t130.5 26q51 0 91.5 -13.5t69 -37.5t44 -58t15.5 -75v-11h-196q1 5 1 15q0 22 -10 36t-30 14q-21 0 -38 -21t-30 -54t-20 -74t-7 -81q0 -32 10.5 -46.5t28.5 -14.5q22 0 36.5 18t26.5 60h197q-37 -92 -96.5 -143.5t-144.5 -60.5z" />
    <glyph glyph-name="egrave" unicode="&#xe8;" horiz-adv-x="551" 
d="M520 164q-15 -38 -39.5 -70.5t-58 -56.5t-76.5 -38t-96 -14q-105 0 -163 55.5t-58 152.5q0 79 21 142t60 107.5t94 68.5t124 24q102 0 160 -55t58 -160q0 -44 -11 -102h-312q-3 -21 -3 -40q0 -35 13 -48.5t37 -13.5q21 0 34.5 12t21.5 36h194zM318 414q-24 0 -41.5 -19.5
t-32.5 -75.5h114q2 12 3 22t1 18q0 29 -11 42t-33 13zM433 581h-136l-112 154h187z" />
    <glyph glyph-name="eacute" unicode="&#xe9;" horiz-adv-x="551" 
d="M520 164q-15 -38 -39.5 -70.5t-58 -56.5t-76.5 -38t-96 -14q-105 0 -163 55.5t-58 152.5q0 79 21 142t60 107.5t94 68.5t124 24q102 0 160 -55t58 -160q0 -44 -11 -102h-312q-3 -21 -3 -40q0 -35 13 -48.5t37 -13.5q21 0 34.5 12t21.5 36h194zM318 414q-24 0 -41.5 -19.5
t-32.5 -75.5h114q2 12 3 22t1 18q0 29 -11 42t-33 13zM384 735h186l-177 -154h-137z" />
    <glyph glyph-name="ecircumflex" unicode="&#xea;" horiz-adv-x="551" 
d="M520 164q-15 -38 -39.5 -70.5t-58 -56.5t-76.5 -38t-96 -14q-105 0 -163 55.5t-58 152.5q0 79 21 142t60 107.5t94 68.5t124 24q102 0 160 -55t58 -160q0 -44 -11 -102h-312q-3 -21 -3 -40q0 -35 13 -48.5t37 -13.5q21 0 34.5 12t21.5 36h194zM318 414q-24 0 -41.5 -19.5
t-32.5 -75.5h114q2 12 3 22t1 18q0 29 -11 42t-33 13zM330 583h-165l146 154h144l82 -154h-165l-7 67z" />
    <glyph glyph-name="edieresis" unicode="&#xeb;" horiz-adv-x="551" 
d="M520 164q-15 -38 -39.5 -70.5t-58 -56.5t-76.5 -38t-96 -14q-105 0 -163 55.5t-58 152.5q0 79 21 142t60 107.5t94 68.5t124 24q102 0 160 -55t58 -160q0 -44 -11 -102h-312q-3 -21 -3 -40q0 -35 13 -48.5t37 -13.5q21 0 34.5 12t21.5 36h194zM318 414q-24 0 -41.5 -19.5
t-32.5 -75.5h114q2 12 3 22t1 18q0 29 -11 42t-33 13zM162 577l31 144h167l-31 -144h-167zM370 577l31 144h169l-31 -144h-169z" />
    <glyph glyph-name="igrave" unicode="&#xec;" horiz-adv-x="262" 
d="M319 581h-136l-112 154h187zM-6 0l110 520h194l-110 -520h-194z" />
    <glyph glyph-name="iacute" unicode="&#xed;" horiz-adv-x="262" 
d="M212 735h186l-177 -154h-137zM-6 0l110 520h194l-110 -520h-194z" />
    <glyph glyph-name="icircumflex" unicode="&#xee;" horiz-adv-x="262" 
d="M-6 0l110 520h194l-110 -520h-194zM195 583h-165l146 154h144l82 -154h-165l-7 67z" />
    <glyph glyph-name="idieresis" unicode="&#xef;" horiz-adv-x="262" 
d="M57 576l30 144h137l-30 -144h-137zM236 576l30 144h138l-30 -144h-138zM-6 0l110 520h194l-110 -520h-194z" />
    <glyph glyph-name="eth" unicode="&#xf0;" horiz-adv-x="512" 
d="M194 753q101 -9 177 -50l20 17h143l-88 -74q43 -45 65.5 -102.5t22.5 -123.5q0 -89 -20 -168t-58.5 -138t-94 -94t-126.5 -35q-101 0 -158.5 49t-57.5 139q0 63 16 119t45.5 99t71.5 68t93 25q27 0 47.5 -7.5t36.5 -21.5q-2 22 -6 41t-12 35l-15 -14h-143l93 80
q-31 16 -80 27zM290 354q-20 0 -34 -23.5t-27 -82.5q-13 -55 -13 -94q0 -22 6.5 -30t20.5 -8q9 0 18 6t17.5 21t16.5 41t16 66q4 19 5.5 36t1.5 31q0 22 -7.5 29.5t-20.5 7.5z" />
    <glyph glyph-name="ntilde" unicode="&#xf1;" horiz-adv-x="539" 
d="M-6 0q27 131 54 260t55 260h154l11 -57q34 38 67.5 55t76.5 17q62 0 97.5 -36t35.5 -107q0 -29 -8 -69l-68 -323h-194l70 328q2 8 3 18.5t1 20.5q0 20 -7.5 27.5t-20.5 7.5q-23 0 -41 -21t-29 -72l-65 -309h-192zM413 581q-19 0 -34 5.5t-28 12.5t-25.5 12.5t-26.5 5.5
q-15 0 -35 -8t-52 -25l26 125q26 15 46.5 22t43.5 7q19 0 33.5 -6t28 -12.5t26 -12.5t27.5 -6q14 0 33 8t51 25l-27 -125q-26 -15 -45.5 -21.5t-41.5 -6.5z" />
    <glyph glyph-name="ograve" unicode="&#xf2;" horiz-adv-x="556" 
d="M335 535q107 0 165 -52t58 -149q0 -78 -21 -142.5t-61.5 -110.5t-98.5 -71t-132 -25q-104 0 -161 53t-57 150q0 74 19.5 137.5t58 110t96 73t134.5 26.5zM318 406q-16 0 -31.5 -12t-28.5 -38t-23 -69t-14 -104q0 -38 9.5 -54t37.5 -16q27 0 45.5 27t30 64t16.5 74.5
t5 58.5q0 40 -10.5 54.5t-36.5 14.5zM438 581h-136l-112 154h187z" />
    <glyph glyph-name="oacute" unicode="&#xf3;" horiz-adv-x="556" 
d="M335 535q107 0 165 -52t58 -149q0 -78 -21 -142.5t-61.5 -110.5t-98.5 -71t-132 -25q-104 0 -161 53t-57 150q0 74 19.5 137.5t58 110t96 73t134.5 26.5zM318 406q-16 0 -31.5 -12t-28.5 -38t-23 -69t-14 -104q0 -38 9.5 -54t37.5 -16q27 0 45.5 27t30 64t16.5 74.5
t5 58.5q0 40 -10.5 54.5t-36.5 14.5zM391 735h186l-177 -154h-137z" />
    <glyph glyph-name="ocircumflex" unicode="&#xf4;" horiz-adv-x="556" 
d="M335 535q107 0 165 -52t58 -149q0 -78 -21 -142.5t-61.5 -110.5t-98.5 -71t-132 -25q-104 0 -161 53t-57 150q0 74 19.5 137.5t58 110t96 73t134.5 26.5zM318 406q-16 0 -31.5 -12t-28.5 -38t-23 -69t-14 -104q0 -38 9.5 -54t37.5 -16q27 0 45.5 27t30 64t16.5 74.5
t5 58.5q0 40 -10.5 54.5t-36.5 14.5zM342 583h-165l146 154h144l82 -154h-165l-7 67z" />
    <glyph glyph-name="otilde" unicode="&#xf5;" horiz-adv-x="556" 
d="M335 535q107 0 165 -52t58 -149q0 -78 -21 -142.5t-61.5 -110.5t-98.5 -71t-132 -25q-104 0 -161 53t-57 150q0 74 19.5 137.5t58 110t96 73t134.5 26.5zM318 406q-16 0 -31.5 -12t-28.5 -38t-23 -69t-14 -104q0 -38 9.5 -54t37.5 -16q27 0 45.5 27t30 64t16.5 74.5
t5 58.5q0 40 -10.5 54.5t-36.5 14.5zM422 581q-19 0 -34 5.5t-28 12.5t-25.5 12.5t-26.5 5.5q-15 0 -35 -8t-52 -25l26 125q26 15 46.5 22t43.5 7q19 0 33.5 -6t28 -12.5t26 -12.5t27.5 -6q14 0 33 8t51 25l-27 -125q-26 -15 -45.5 -21.5t-41.5 -6.5z" />
    <glyph glyph-name="odieresis" unicode="&#xf6;" horiz-adv-x="556" 
d="M335 535q107 0 165 -52t58 -149q0 -78 -21 -142.5t-61.5 -110.5t-98.5 -71t-132 -25q-104 0 -161 53t-57 150q0 74 19.5 137.5t58 110t96 73t134.5 26.5zM318 406q-16 0 -31.5 -12t-28.5 -38t-23 -69t-14 -104q0 -38 9.5 -54t37.5 -16q27 0 45.5 27t30 64t16.5 74.5
t5 58.5q0 40 -10.5 54.5t-36.5 14.5zM174 577l31 144h167l-31 -144h-167zM382 577l31 144h169l-31 -144h-169z" />
    <glyph glyph-name="divide" unicode="&#xf7;" 
d="M169 60l32 152h167l-32 -152h-167zM247 428l32 152h167l-32 -152h-167zM493 250h-401l30 140h400z" />
    <glyph glyph-name="oslash" unicode="&#xf8;" horiz-adv-x="556" 
d="M335 535q39 0 68 -7l66 102h132l-98 -151q55 -52 55 -145q0 -78 -21 -142.5t-61.5 -110.5t-98.5 -71t-132 -25q-34 0 -62 6l-64 -101h-135l97 150q-54 52 -54 148q0 74 19.5 137.5t58 110t96 73t134.5 26.5zM318 406q-38 0 -61 -50t-34 -147l120 193q-9 4 -25 4zM244 117
q5 -2 10 -3t12 -1q38 0 62.5 53t35.5 146z" />
    <glyph glyph-name="ugrave" unicode="&#xf9;" horiz-adv-x="532" 
d="M292 520l-70 -331q-2 -11 -3 -20t-1 -15q0 -20 7.5 -28.5t21.5 -8.5q20 0 36.5 20.5t27.5 73.5q16 78 32.5 154.5t32.5 154.5h192l-110 -520h-163l-3 53q-28 -32 -61 -50t-81 -18q-63 0 -96 33t-33 99q0 34 9 78l69 325h193zM414 581h-136l-112 154h187z" />
    <glyph glyph-name="uacute" unicode="&#xfa;" horiz-adv-x="532" 
d="M292 520l-70 -331q-2 -11 -3 -20t-1 -15q0 -20 7.5 -28.5t21.5 -8.5q20 0 36.5 20.5t27.5 73.5q16 78 32.5 154.5t32.5 154.5h192l-110 -520h-163l-3 53q-28 -32 -61 -50t-81 -18q-63 0 -96 33t-33 99q0 34 9 78l69 325h193zM408 735h186l-177 -154h-137z" />
    <glyph glyph-name="ucircumflex" unicode="&#xfb;" horiz-adv-x="532" 
d="M292 520l-70 -331q-2 -11 -3 -20t-1 -15q0 -20 7.5 -28.5t21.5 -8.5q20 0 36.5 20.5t27.5 73.5q16 78 32.5 154.5t32.5 154.5h192l-110 -520h-163l-3 53q-28 -32 -61 -50t-81 -18q-63 0 -96 33t-33 99q0 34 9 78l69 325h193zM325 583h-165l146 154h144l82 -154h-165
l-7 67z" />
    <glyph glyph-name="udieresis" unicode="&#xfc;" horiz-adv-x="532" 
d="M292 520l-70 -331q-2 -11 -3 -20t-1 -15q0 -20 7.5 -28.5t21.5 -8.5q20 0 36.5 20.5t27.5 73.5q16 78 32.5 154.5t32.5 154.5h192l-110 -520h-163l-3 53q-28 -32 -61 -50t-81 -18q-63 0 -96 33t-33 99q0 34 9 78l69 325h193zM159 577l31 144h167l-31 -144h-167zM367 577
l31 144h169l-31 -144h-169z" />
    <glyph glyph-name="yacute" unicode="&#xfd;" horiz-adv-x="538" 
d="M611 520l-270 -519q-29 -56 -54.5 -93.5t-52 -60t-56 -32.5t-65.5 -10q-50 0 -104 14l28 130q29 -8 43.5 -10t23.5 -2q20 0 34 13.5t28 49.5h-42l-58 520h199l-8 -371l157 371h197zM407 735h186l-177 -154h-137z" />
    <glyph glyph-name="thorn" unicode="&#xfe;" horiz-adv-x="566" 
d="M-44 -180l190 900h194l-53 -245q30 29 63.5 44.5t71.5 15.5q68 0 109 -45t41 -133q0 -79 -19.5 -147t-53.5 -118t-81 -78.5t-101 -28.5q-36 0 -69 14t-53 41l-46 -220h-193zM324 397q-22 0 -40 -19.5t-30.5 -50t-19.5 -68t-7 -72.5q0 -33 12 -48t35 -15q22 0 40.5 19
t32 48.5t20.5 66.5t7 73t-14 51t-36 15z" />
    <glyph glyph-name="ydieresis" unicode="&#xff;" horiz-adv-x="538" 
d="M611 520l-270 -519q-29 -56 -54.5 -93.5t-52 -60t-56 -32.5t-65.5 -10q-50 0 -104 14l28 130q29 -8 43.5 -10t23.5 -2q20 0 34 13.5t28 49.5h-42l-58 520h199l-8 -371l157 371h197zM164 577l31 144h167l-31 -144h-167zM372 577l31 144h169l-31 -144h-169z" />
    <glyph glyph-name="Amacron" unicode="&#x100;" horiz-adv-x="648" 
d="M396 157h-161l-67 -157h-211l371 720h214l69 -720h-215v157zM293 295h103l1 243zM317 787l27 128h255l-27 -128h-255z" />
    <glyph glyph-name="amacron" unicode="&#x101;" horiz-adv-x="514" 
d="M65 365q29 82 91 126t165 44q96 0 147 -42.5t51 -117.5q0 -23 -6 -50l-69 -325h-147l-12 55q-26 -31 -64 -50.5t-87 -19.5q-63 0 -98.5 36t-35.5 93q0 83 52 132t177 69l92 14l4 20q3 16 3 29q0 29 -26 29q-35 0 -47 -42h-190zM223 111q32 0 46.5 26.5t25.5 71.5l5 20
q-60 -7 -85 -29t-25 -52q0 -37 33 -37zM224 591l27 128h255l-27 -128h-255z" />
    <glyph glyph-name="Abreve" unicode="&#x102;" horiz-adv-x="648" 
d="M396 157h-161l-67 -157h-211l371 720h214l69 -720h-215v157zM293 295h103l1 243zM460 925q-3 -17 -3 -27q0 -23 14 -23q20 0 32 50h134q-26 -81 -72.5 -117t-111.5 -36q-62 0 -95.5 30t-33.5 95q0 13 3 28h133z" />
    <glyph glyph-name="abreve" unicode="&#x103;" horiz-adv-x="514" 
d="M65 365q29 82 91 126t165 44q96 0 147 -42.5t51 -117.5q0 -23 -6 -50l-69 -325h-147l-12 55q-26 -31 -64 -50.5t-87 -19.5q-63 0 -98.5 36t-35.5 93q0 83 52 132t177 69l92 14l4 20q3 16 3 29q0 29 -26 29q-35 0 -47 -42h-190zM223 111q32 0 46.5 26.5t25.5 71.5l5 20
q-60 -7 -85 -29t-25 -52q0 -37 33 -37zM347 721q-3 -17 -3 -27q0 -23 14 -23q20 0 32 50h134q-26 -81 -72.5 -117t-111.5 -36q-62 0 -95.5 30t-33.5 95q0 13 3 28h133z" />
    <glyph glyph-name="Aogonek" unicode="&#x104;" horiz-adv-x="648" 
d="M405 -264q-60 0 -97.5 28.5t-37.5 85.5q0 21 8.5 43t25 43t39.5 39.5t53 31.5v150h-161l-67 -157h-212l373 720h214l68 -720h-110q-46 -27 -76 -62t-30 -71q0 -37 26 -37q22 0 30 26h129q-23 -56 -66.5 -88t-108.5 -32zM293 295h104v244z" />
    <glyph glyph-name="aogonek" unicode="&#x105;" horiz-adv-x="514" 
d="M479 -144q-23 -55 -66 -87t-108 -32q-60 0 -97.5 28t-37.5 85q0 21 8.5 43t24.5 43t39 39t53 31l-10 49q-26 -31 -64 -50.5t-87 -19.5q-63 0 -98.5 36t-35.5 93q0 83 52 132t177 69l92 14l4 20q2 5 2.5 13t0.5 13q0 19 -7 26.5t-21 7.5q-17 0 -27 -9.5t-18 -34.5h-190
q29 82 91 126t165 44q96 0 147 -42.5t51 -117.5q0 -23 -6 -50l-69 -325h-44q-45 -27 -75 -62t-30 -70q0 -37 26 -37q23 0 30 25h128zM223 111q32 0 46.5 26.5t25.5 71.5l5 20q-60 -7 -85 -29t-25 -52q0 -37 33 -37z" />
    <glyph glyph-name="Cacute" unicode="&#x106;" horiz-adv-x="669" 
d="M333 128q41 0 69.5 34.5t50.5 113.5h211q-50 -147 -135.5 -219t-215.5 -72q-131 0 -197 68t-66 193q0 108 27.5 198t78 154.5t122.5 100.5t162 36q130 0 194.5 -67t65.5 -174v-23h-207q3 67 -15 94t-55 27q-35 0 -64.5 -32.5t-50.5 -84t-32.5 -115t-11.5 -125.5
q0 -59 18.5 -83t50.5 -24zM494 928h186l-177 -154h-137z" />
    <glyph glyph-name="cacute" unicode="&#x107;" horiz-adv-x="539" 
d="M520 192q-41 -102 -109.5 -154.5t-169.5 -52.5q-110 0 -162.5 51.5t-52.5 142.5q0 79 20 144.5t59 112.5t95.5 73t130.5 26q51 0 92 -13.5t69.5 -37.5t44 -58t15.5 -75v-11h-196q1 4 1 7v7q0 26 -11.5 39t-29.5 13q-21 0 -38 -21t-29.5 -54t-19.5 -74t-7 -81
q0 -33 10.5 -47t27.5 -14q23 0 37.5 17.5t25.5 59.5h197zM387 735h186l-177 -154h-137z" />
    <glyph glyph-name="Ccircumflex" unicode="&#x108;" horiz-adv-x="669" 
d="M333 128q41 0 69.5 34.5t50.5 113.5h211q-50 -147 -135.5 -219t-215.5 -72q-131 0 -197 68t-66 193q0 108 27.5 198t78 154.5t122.5 100.5t162 36q130 0 194.5 -67t65.5 -174v-23h-207q3 67 -15 94t-55 27q-35 0 -64.5 -32.5t-50.5 -84t-32.5 -115t-11.5 -125.5
q0 -59 18.5 -83t50.5 -24zM444 780h-165l146 154h144l82 -154h-165l-7 67z" />
    <glyph glyph-name="ccircumflex" unicode="&#x109;" horiz-adv-x="539" 
d="M520 192q-41 -102 -109.5 -154.5t-169.5 -52.5q-110 0 -162.5 51.5t-52.5 142.5q0 79 20 144.5t59 112.5t95.5 73t130.5 26q51 0 92 -13.5t69.5 -37.5t44 -58t15.5 -75v-11h-196q1 4 1 7v7q0 26 -11.5 39t-29.5 13q-21 0 -38 -21t-29.5 -54t-19.5 -74t-7 -81
q0 -33 10.5 -47t27.5 -14q23 0 37.5 17.5t25.5 59.5h197zM325 583h-165l146 154h144l82 -154h-165l-7 67z" />
    <glyph glyph-name="Cdotaccent" unicode="&#x10a;" horiz-adv-x="669" 
d="M333 128q41 0 69.5 34.5t50.5 113.5h211q-50 -147 -135.5 -219t-215.5 -72q-131 0 -197 68t-66 193q0 108 27.5 198t78 154.5t122.5 100.5t162 36q130 0 194.5 -67t65.5 -174v-23h-207q3 67 -15 94t-55 27q-35 0 -64.5 -32.5t-50.5 -84t-32.5 -115t-11.5 -125.5
q0 -59 18.5 -83t50.5 -24zM362 779l31 146h204l-31 -146h-204z" />
    <glyph glyph-name="cdotaccent" unicode="&#x10b;" horiz-adv-x="539" 
d="M520 192q-41 -102 -109.5 -154.5t-169.5 -52.5q-110 0 -162.5 51.5t-52.5 142.5q0 79 20 144.5t59 112.5t95.5 73t130.5 26q51 0 92 -13.5t69.5 -37.5t44 -58t15.5 -75v-11h-196q1 4 1 7v7q0 26 -11.5 39t-29.5 13q-21 0 -38 -21t-29.5 -54t-19.5 -74t-7 -81
q0 -33 10.5 -47t27.5 -14q23 0 37.5 17.5t25.5 59.5h197zM246 583l31 146h204l-31 -146h-204z" />
    <glyph glyph-name="Ccaron" unicode="&#x10c;" horiz-adv-x="669" 
d="M333 128q41 0 69.5 34.5t50.5 113.5h211q-50 -147 -135.5 -219t-215.5 -72q-131 0 -197 68t-66 193q0 108 27.5 198t78 154.5t122.5 100.5t162 36q130 0 194.5 -67t65.5 -174v-23h-207q3 67 -15 94t-55 27q-35 0 -64.5 -32.5t-50.5 -84t-32.5 -115t-11.5 -125.5
q0 -59 18.5 -83t50.5 -24zM480 871l34 63h165l-146 -154h-144l-82 154h165z" />
    <glyph glyph-name="ccaron" unicode="&#x10d;" horiz-adv-x="539" 
d="M520 192q-41 -102 -109.5 -154.5t-169.5 -52.5q-110 0 -162.5 51.5t-52.5 142.5q0 79 20 144.5t59 112.5t95.5 73t130.5 26q51 0 92 -13.5t69.5 -37.5t44 -58t15.5 -75v-11h-196q1 4 1 7v7q0 26 -11.5 39t-29.5 13q-21 0 -38 -21t-29.5 -54t-19.5 -74t-7 -81
q0 -33 10.5 -47t27.5 -14q23 0 37.5 17.5t25.5 59.5h197zM372 674l34 63h165l-146 -154h-144l-82 154h165z" />
    <glyph glyph-name="Dcaron" unicode="&#x10e;" horiz-adv-x="667" 
d="M407 720q140 0 211.5 -64t71.5 -189q0 -108 -28 -194t-80.5 -147t-129.5 -93.5t-174 -32.5h-274l153 720h250zM336 578l-93 -435h55q37 0 69.5 25t57 67.5t38.5 98t14 116.5q0 67 -26.5 97.5t-68.5 30.5h-46zM443 871l34 63h165l-146 -154h-144l-82 154h165z" />
    <glyph glyph-name="dcaron" unicode="&#x10f;" horiz-adv-x="756" 
d="M340 0l-16 63q-34 -36 -69.5 -57t-74.5 -21q-69 0 -112 48.5t-43 139.5q0 76 19.5 142t53 115t79 77t97.5 28q45 0 78 -15.5t49 -40.5l52 241h193l-153 -720h-153zM320 397q-22 0 -40.5 -18.5t-31.5 -48t-20 -66.5t-7 -74q0 -36 13.5 -51.5t37.5 -15.5q22 0 39.5 20.5
t30 51.5t19 67.5t6.5 68.5q0 35 -12.5 50.5t-34.5 15.5zM851 611q-20 -97 -76.5 -145.5t-157.5 -59.5l17 82q37 7 60.5 27.5t31.5 56.5h-49l32 148h165z" />
    <glyph glyph-name="Dcroat" unicode="&#x110;" horiz-adv-x="671" 
d="M410 720q140 0 211.5 -64t71.5 -189q0 -108 -27.5 -194t-80.5 -147t-129.5 -93.5t-174.5 -32.5h-273l65 308h-47l30 142h48l57 270h249zM339 578l-27 -128h62l-30 -142h-62l-35 -165h55q37 0 69.5 25t57 67.5t38.5 98t14 116.5q0 67 -27 97.5t-69 30.5h-46z" />
    <glyph glyph-name="dcroat" unicode="&#x111;" horiz-adv-x="577" 
d="M340 0l-16 63q-34 -36 -69.5 -57t-74.5 -21q-69 0 -112 48.5t-43 139.5q0 76 19.5 142t53 115t79 77t97.5 28q45 0 78 -15.5t49 -40.5l17 78h-66l28 130h65l8 33h193l-7 -33h37l-28 -130h-37l-118 -557h-153zM320 397q-22 0 -40.5 -18.5t-31.5 -48t-20 -66.5t-7 -74
q0 -36 13.5 -51.5t37.5 -15.5q22 0 39.5 20.5t30 51.5t19 67.5t6.5 68.5q0 35 -12.5 50.5t-34.5 15.5z" />
    <glyph glyph-name="Emacron" unicode="&#x112;" horiz-adv-x="541" 
d="M511 294h-236l-31 -148h261l-30 -146h-471l153 720h471l-32 -148h-262l-29 -140h236zM273 787l27 128h255l-27 -128h-255z" />
    <glyph glyph-name="emacron" unicode="&#x113;" horiz-adv-x="551" 
d="M520 164q-15 -38 -39.5 -70.5t-58 -56.5t-76.5 -38t-96 -14q-105 0 -163 55.5t-58 152.5q0 79 21 142t60 107.5t94 68.5t124 24q102 0 160 -55t58 -160q0 -44 -11 -102h-312q-3 -21 -3 -40q0 -35 13 -48.5t37 -13.5q21 0 34.5 12t21.5 36h194zM318 414q-24 0 -41.5 -19.5
t-32.5 -75.5h114q2 12 3 22t1 18q0 29 -11 42t-33 13zM235 591l27 128h255l-27 -128h-255z" />
    <glyph glyph-name="Ebreve" unicode="&#x114;" horiz-adv-x="541" 
d="M511 294h-236l-31 -148h261l-30 -146h-471l153 720h471l-32 -148h-262l-29 -140h236zM415 925q-3 -17 -3 -27q0 -23 14 -23q20 0 32 50h134q-26 -81 -72.5 -117t-111.5 -36q-62 0 -95.5 30t-33.5 95q0 13 3 28h133z" />
    <glyph glyph-name="ebreve" unicode="&#x115;" horiz-adv-x="551" 
d="M520 164q-15 -38 -39.5 -70.5t-58 -56.5t-76.5 -38t-96 -14q-105 0 -163 55.5t-58 152.5q0 79 21 142t60 107.5t94 68.5t124 24q102 0 160 -55t58 -160q0 -44 -11 -102h-312q-3 -21 -3 -40q0 -35 13 -48.5t37 -13.5q21 0 34.5 12t21.5 36h194zM318 414q-24 0 -41.5 -19.5
t-32.5 -75.5h114q2 12 3 22t1 18q0 29 -11 42t-33 13zM355 729q-3 -17 -3 -27q0 -23 14 -23q20 0 32 50h134q-26 -81 -72.5 -117t-111.5 -36q-62 0 -95.5 30t-33.5 95q0 13 3 28h133z" />
    <glyph glyph-name="Edotaccent" unicode="&#x116;" horiz-adv-x="541" 
d="M511 294h-236l-31 -148h261l-30 -146h-471l153 720h471l-32 -148h-262l-29 -140h236zM303 779l31 146h204l-31 -146h-204z" />
    <glyph glyph-name="edotaccent" unicode="&#x117;" horiz-adv-x="551" 
d="M520 164q-15 -38 -39.5 -70.5t-58 -56.5t-76.5 -38t-96 -14q-105 0 -163 55.5t-58 152.5q0 79 21 142t60 107.5t94 68.5t124 24q102 0 160 -55t58 -160q0 -44 -11 -102h-312q-3 -21 -3 -40q0 -35 13 -48.5t37 -13.5q21 0 34.5 12t21.5 36h194zM318 414q-24 0 -41.5 -19.5
t-32.5 -75.5h114q2 12 3 22t1 18q0 29 -11 42t-33 13zM251 583l31 146h204l-31 -146h-204z" />
    <glyph glyph-name="Eogonek" unicode="&#x118;" horiz-adv-x="541" 
d="M255 -264q-60 0 -97.5 28.5t-37.5 85.5q0 39 29 80.5t82 69.5h-227l153 720h471l-32 -148h-262l-29 -140h236l-30 -138h-236l-31 -148h261l-30 -146h-125q-45 -27 -75 -62t-30 -71q0 -37 26 -37q22 0 30 26h128q-23 -56 -66 -88t-108 -32z" />
    <glyph glyph-name="eogonek" unicode="&#x119;" horiz-adv-x="551" 
d="M519 163q-22 -51 -57 -89.5t-84 -62.5q-27 -13 -50 -29.5t-40.5 -35.5t-27 -39t-9.5 -39q0 -37 26 -37q23 0 30 25h129q-23 -55 -66.5 -87t-108.5 -32q-60 0 -97.5 28t-37.5 85q0 35 23 72.5t66 65.5q-89 9 -138 62.5t-49 142.5q0 79 21 142t60 107.5t94 68.5t124 24
q103 0 161 -55.5t58 -160.5q0 -46 -12 -101h-311q-2 -11 -3 -21.5t-1 -18.5q0 -37 15 -49.5t36 -12.5q39 0 56 47h193zM317 413q-23 0 -40.5 -19.5t-33.5 -74.5h115q2 11 3 21.5t1 18.5q0 29 -11 41.5t-34 12.5z" />
    <glyph glyph-name="Ecaron" unicode="&#x11a;" horiz-adv-x="541" 
d="M511 294h-236l-31 -148h261l-30 -146h-471l153 720h471l-32 -148h-262l-29 -140h236zM432 871l34 63h165l-146 -154h-144l-82 154h165z" />
    <glyph glyph-name="ecaron" unicode="&#x11b;" horiz-adv-x="551" 
d="M520 164q-15 -38 -39.5 -70.5t-58 -56.5t-76.5 -38t-96 -14q-105 0 -163 55.5t-58 152.5q0 79 21 142t60 107.5t94 68.5t124 24q102 0 160 -55t58 -160q0 -44 -11 -102h-312q-3 -21 -3 -40q0 -35 13 -48.5t37 -13.5q21 0 34.5 12t21.5 36h194zM318 414q-24 0 -41.5 -19.5
t-32.5 -75.5h114q2 12 3 22t1 18q0 29 -11 42t-33 13zM378 674l34 63h165l-146 -154h-144l-82 154h165z" />
    <glyph glyph-name="Gcircumflex" unicode="&#x11c;" horiz-adv-x="678" 
d="M602 0h-140l-9 70q-37 -42 -80.5 -63.5t-105.5 -21.5q-49 0 -89 17.5t-68.5 50.5t-44.5 81t-16 110q0 100 25.5 189t76 156t126.5 106.5t177 39.5q58 0 104.5 -15t79.5 -44.5t51 -72.5t18 -98v-7h-207v14q0 43 -17.5 61.5t-51.5 18.5q-39 0 -70 -32.5t-52.5 -83
t-32.5 -112t-11 -120.5q0 -62 22 -89.5t57 -27.5q48 0 81 32.5t45 86.5l6 29h-118l28 135h303zM431 780h-165l146 154h144l82 -154h-165l-7 67z" />
    <glyph glyph-name="gcircumflex" unicode="&#x11d;" horiz-adv-x="556" 
d="M178 -23q0 -23 10.5 -32.5t35.5 -9.5q13 0 23.5 4t19 13.5t15 26t11.5 41.5l12 54q-29 -26 -55.5 -38.5t-59.5 -12.5q-72 0 -115.5 46.5t-43.5 134.5q0 70 19.5 131t53 105t79.5 69.5t99 25.5q40 0 74 -16t50 -46l38 47h148l-103 -484q-23 -109 -92 -170t-192 -61
q-120 0 -169.5 42.5t-50.5 116.5q0 8 1 13h192zM319 398q-20 0 -37 -14.5t-29 -38.5t-19 -55t-7 -64q0 -65 54 -65q21 0 37 16.5t27.5 42.5t17.5 57t6 61q0 32 -12.5 46t-37.5 14zM341 583h-165l146 154h144l82 -154h-165l-7 67z" />
    <glyph glyph-name="Gbreve" unicode="&#x11e;" horiz-adv-x="678" 
d="M602 0h-140l-9 70q-37 -42 -80.5 -63.5t-105.5 -21.5q-49 0 -89 17.5t-68.5 50.5t-44.5 81t-16 110q0 100 25.5 189t76 156t126.5 106.5t177 39.5q58 0 104.5 -15t79.5 -44.5t51 -72.5t18 -98v-7h-207v14q0 43 -17.5 61.5t-51.5 18.5q-39 0 -70 -32.5t-52.5 -83
t-32.5 -112t-11 -120.5q0 -62 22 -89.5t57 -27.5q48 0 81 32.5t45 86.5l6 29h-118l28 135h303zM470 925q-3 -17 -3 -27q0 -23 14 -23q20 0 32 50h134q-26 -81 -72.5 -117t-111.5 -36q-62 0 -95.5 30t-33.5 95q0 13 3 28h133z" />
    <glyph glyph-name="gbreve" unicode="&#x11f;" horiz-adv-x="556" 
d="M178 -23q0 -23 10.5 -32.5t35.5 -9.5q13 0 23.5 4t19 13.5t15 26t11.5 41.5l12 54q-29 -26 -55.5 -38.5t-59.5 -12.5q-72 0 -115.5 46.5t-43.5 134.5q0 70 19.5 131t53 105t79.5 69.5t99 25.5q40 0 74 -16t50 -46l38 47h148l-103 -484q-23 -109 -92 -170t-192 -61
q-120 0 -169.5 42.5t-50.5 116.5q0 8 1 13h192zM319 398q-20 0 -37 -14.5t-29 -38.5t-19 -55t-7 -64q0 -65 54 -65q21 0 37 16.5t27.5 42.5t17.5 57t6 61q0 32 -12.5 46t-37.5 14zM370 721q-3 -17 -3 -27q0 -23 14 -23q20 0 32 50h134q-26 -81 -72.5 -117t-111.5 -36
q-62 0 -95.5 30t-33.5 95q0 13 3 28h133z" />
    <glyph glyph-name="Gdotaccent" unicode="&#x120;" horiz-adv-x="678" 
d="M602 0h-140l-9 70q-37 -42 -80.5 -63.5t-105.5 -21.5q-49 0 -89 17.5t-68.5 50.5t-44.5 81t-16 110q0 100 25.5 189t76 156t126.5 106.5t177 39.5q58 0 104.5 -15t79.5 -44.5t51 -72.5t18 -98v-7h-207v14q0 43 -17.5 61.5t-51.5 18.5q-39 0 -70 -32.5t-52.5 -83
t-32.5 -112t-11 -120.5q0 -62 22 -89.5t57 -27.5q48 0 81 32.5t45 86.5l6 29h-118l28 135h303zM360 779l31 146h204l-31 -146h-204z" />
    <glyph glyph-name="gdotaccent" unicode="&#x121;" horiz-adv-x="556" 
d="M178 -23q0 -23 10.5 -32.5t35.5 -9.5q13 0 23.5 4t19 13.5t15 26t11.5 41.5l12 54q-29 -26 -55.5 -38.5t-59.5 -12.5q-72 0 -115.5 46.5t-43.5 134.5q0 70 19.5 131t53 105t79.5 69.5t99 25.5q40 0 74 -16t50 -46l38 47h148l-103 -484q-23 -109 -92 -170t-192 -61
q-120 0 -169.5 42.5t-50.5 116.5q0 8 1 13h192zM319 398q-20 0 -37 -14.5t-29 -38.5t-19 -55t-7 -64q0 -65 54 -65q21 0 37 16.5t27.5 42.5t17.5 57t6 61q0 32 -12.5 46t-37.5 14zM266 574l31 146h204l-31 -146h-204z" />
    <glyph glyph-name="Gcommaaccent" unicode="&#x122;" horiz-adv-x="678" 
d="M602 0h-140l-9 70q-37 -42 -80.5 -63.5t-105.5 -21.5q-49 0 -89 17.5t-68.5 50.5t-44.5 81t-16 110q0 100 25.5 189t76 156t126.5 106.5t177 39.5q58 0 104.5 -15t79.5 -44.5t51 -72.5t18 -98v-7h-207v14q0 43 -17.5 61.5t-51.5 18.5q-39 0 -70 -32.5t-52.5 -83
t-32.5 -112t-11 -120.5q0 -62 22 -89.5t57 -27.5q48 0 81 32.5t45 86.5l6 29h-118l28 135h303zM331 -138q-10 -46 -26 -80t-41 -57t-60 -36.5t-83 -17.5l17 82q34 6 54.5 22t26.5 48h-47l27 129h151z" />
    <glyph glyph-name="gcommaaccent" unicode="&#x123;" horiz-adv-x="556" 
d="M178 -23q0 -23 10.5 -32.5t35.5 -9.5q13 0 23.5 4t19 13.5t15 26t11.5 41.5l12 54q-29 -26 -55.5 -38.5t-59.5 -12.5q-72 0 -115.5 46.5t-43.5 134.5q0 70 19.5 131t53 105t79.5 69.5t99 25.5q40 0 74 -16t50 -46l38 47h148l-103 -484q-23 -109 -92 -170t-192 -61
q-120 0 -169.5 42.5t-50.5 116.5q0 8 1 13h192zM319 398q-20 0 -37 -14.5t-29 -38.5t-19 -55t-7 -64q0 -65 54 -65q21 0 37 16.5t27.5 42.5t17.5 57t6 61q0 32 -12.5 46t-37.5 14zM293 665q19 92 67 137t143 54l-17 -82q-34 -6 -54.5 -22t-26.5 -48h47l-27 -129h-151z" />
    <glyph glyph-name="Hcircumflex" unicode="&#x124;" horiz-adv-x="660" 
d="M728 720l-153 -720h-207l61 293h-155l-61 -293h-209l153 720h209l-61 -285h155l61 285h207zM430 780h-165l146 154h144l82 -154h-165l-7 67z" />
    <glyph glyph-name="hcircumflex" unicode="&#x125;" horiz-adv-x="539" 
d="M-6 0q38 181 76 360t76 360h193q-13 -61 -25.5 -121.5t-26.5 -121.5q29 29 61.5 43.5t71.5 14.5q60 0 93.5 -33t33.5 -99q0 -34 -9 -74l-69 -329h-194l70 330q2 9 3 20t1 19q0 19 -7.5 26t-20.5 7q-22 0 -40.5 -20t-29.5 -71l-65 -311h-192zM338 780h-165l146 154h144
l82 -154h-165l-7 67z" />
    <glyph glyph-name="Hbar" unicode="&#x126;" horiz-adv-x="664" 
d="M730 720l-16 -76h36l-30 -136h-35l-108 -508h-208l62 292h-155l-61 -292h-209l107 508h-35l29 136h36l16 76h209l-17 -76h155l16 76h208zM307 435h155l15 73h-155z" />
    <glyph glyph-name="hbar" unicode="&#x127;" horiz-adv-x="545" 
d="M118 558h-30l27 130h31l7 32h193l-7 -32h83l-27 -130h-84l-17 -81q29 29 61 43.5t72 14.5q60 0 93 -34t33 -98q0 -17 -1.5 -35.5t-6.5 -38.5l-70 -329h-193l69 326q2 6 3 17t1 24q0 20 -7 27.5t-20 7.5q-23 0 -41 -20t-29 -71l-65 -311h-193z" />
    <glyph glyph-name="Itilde" unicode="&#x128;" horiz-adv-x="297" 
d="M366 720l-153 -720h-209l153 720h209zM334 777q-19 0 -34 5.5t-28 12.5t-25.5 12.5t-26.5 5.5q-15 0 -35 -8t-52 -25l26 125q26 15 46.5 22t43.5 7q19 0 33.5 -6t28 -12.5t26 -12.5t27.5 -6q14 0 33 8t51 25l-27 -125q-26 -15 -45.5 -21.5t-41.5 -6.5z" />
    <glyph glyph-name="itilde" unicode="&#x129;" horiz-adv-x="262" 
d="M276 581q-19 0 -34 5.5t-28 12.5t-25.5 12.5t-26.5 5.5q-15 0 -35 -8t-52 -25l26 125q26 15 46.5 22t43.5 7q19 0 33.5 -6t28 -12.5t26 -12.5t27.5 -6q14 0 33 8t51 25l-27 -125q-26 -15 -45.5 -21.5t-41.5 -6.5zM-6 0l110 520h194l-110 -520h-194z" />
    <glyph glyph-name="Imacron" unicode="&#x12a;" horiz-adv-x="297" 
d="M366 720l-153 -720h-209l153 720h209zM148 787l27 128h255l-27 -128h-255z" />
    <glyph glyph-name="imacron" unicode="&#x12b;" horiz-adv-x="262" 
d="M90 591l27 128h255l-27 -128h-255zM-6 0l110 520h194l-110 -520h-194z" />
    <glyph glyph-name="Ibreve" unicode="&#x12c;" horiz-adv-x="297" 
d="M366 720l-153 -720h-209l153 720h209zM269 925q-3 -17 -3 -27q0 -23 14 -23q20 0 32 50h134q-26 -81 -72.5 -117t-111.5 -36q-62 0 -95.5 30t-33.5 95q0 13 3 28h133z" />
    <glyph glyph-name="ibreve" unicode="&#x12d;" horiz-adv-x="262" 
d="M-6 0l110 520h194l-110 -520h-194zM211 729q-3 -17 -3 -27q0 -23 14 -23q20 0 32 50h134q-26 -81 -72.5 -117t-111.5 -36q-62 0 -95.5 30t-33.5 95q0 13 3 28h133z" />
    <glyph glyph-name="Iogonek" unicode="&#x12e;" horiz-adv-x="297" 
d="M200 -144q-23 -55 -66.5 -87t-108.5 -32q-60 0 -97 28t-37 85q0 25 10 48t26 42.5t36 34.5t41 26l153 719h209l-153 -720h-92q-46 -27 -76 -62t-30 -70q0 -37 26 -37q23 0 30 25h129z" />
    <glyph glyph-name="iogonek" unicode="&#x12f;" horiz-adv-x="262" 
d="M6 -264q-60 0 -97.5 28.5t-37.5 85.5q0 42 33 86t92 70l108 514h194l-110 -520h-86q-45 -27 -75.5 -62t-30.5 -71q0 -37 27 -37q21 0 29 26h129q-23 -56 -66 -88t-109 -32zM110 574l31 146h204l-31 -146h-204z" />
    <glyph glyph-name="Idotaccent" unicode="&#x130;" horiz-adv-x="297" 
d="M366 720l-153 -720h-209l153 720h209zM168 779l31 146h204l-31 -146h-204z" />
    <glyph glyph-name="dotlessi" unicode="&#x131;" horiz-adv-x="262" 
d="M-6 0l110 520h194l-110 -520h-194z" />
    <glyph glyph-name="IJ" unicode="&#x132;" horiz-adv-x="825" 
d="M366 720l-153 -720h-209l153 720h209zM511 212q-3 -24 -3 -38q0 -25 7.5 -35t21.5 -10q9 0 16 3.5t13.5 14.5t12.5 31t13 52l104 490h202l-104 -486q-27 -127 -93.5 -188t-179.5 -61q-104 0 -157.5 51t-53.5 142q0 8 0.5 16.5t1.5 17.5h199z" />
    <glyph glyph-name="ij" unicode="&#x133;" horiz-adv-x="526" 
d="M110 574l31 146h204l-31 -146h-204zM-6 0l110 520h194l-110 -520h-194zM177 -46q11 -4 21.5 -6t17.5 -2q17 0 26 9.5t15 35.5l112 529h193l-116 -545q-17 -82 -67 -126t-138 -44q-24 0 -49.5 4.5t-42.5 11.5zM372 574l31 146h204l-31 -146h-204z" />
    <glyph glyph-name="Jcircumflex" unicode="&#x134;" horiz-adv-x="528" 
d="M214 212q-3 -24 -3 -38q0 -25 7.5 -35t21.5 -10q9 0 16 3.5t13.5 14.5t12.5 31t13 52l104 490h202l-104 -486q-27 -127 -93.5 -188t-179.5 -61q-104 0 -157.5 51t-53.5 142q0 8 0.5 16.5t1.5 17.5h199zM482 780h-165l146 154h144l82 -154h-165l-7 67z" />
    <glyph glyph-name="jcircumflex" unicode="&#x135;" horiz-adv-x="264" 
d="M-85 -46q11 -4 21.5 -6t17.5 -2q17 0 26 9.5t15 35.5l112 529h193l-116 -545q-17 -81 -66 -125.5t-139 -44.5q-24 0 -49.5 4.5t-42.5 11.5zM187 583h-165l146 154h144l82 -154h-165l-7 67z" />
    <glyph glyph-name="Kcommaaccent" unicode="&#x136;" horiz-adv-x="693" 
d="M413 0l-138 295l-62 -295h-209l153 720h209l-56 -261l229 261h237l-323 -338l202 -382h-242zM366 -138q-10 -46 -26 -80t-41 -57t-60 -36.5t-83 -17.5l17 82q34 6 54.5 22t26.5 48h-47l27 129h151z" />
    <glyph glyph-name="kcommaaccent" unicode="&#x137;" horiz-adv-x="566" 
d="M-6 0l153 720h192l-79 -369l162 169h208l-226 -221l126 -299h-219l-77 225l-48 -225h-192zM284 -138q-10 -46 -26 -80t-41 -57t-60 -36.5t-83 -17.5l17 82q34 6 54.5 22t26.5 48h-47l27 129h151z" />
    <glyph glyph-name="kgreenlandic" unicode="&#x138;" horiz-adv-x="566" 
d="M-6 0l110 520h192l-39 -184l173 184h200l-237 -235l137 -285h-212l-87 211l-45 -211h-192z" />
    <glyph glyph-name="Lacute" unicode="&#x139;" horiz-adv-x="556" 
d="M366 720l-121 -569h289l-31 -151h-499l153 720h209zM283 928h186l-177 -154h-137z" />
    <glyph glyph-name="lacute" unicode="&#x13a;" horiz-adv-x="261" 
d="M187 0h-193l153 720h193zM254 928h186l-177 -154h-137z" />
    <glyph glyph-name="Lcommaaccent" unicode="&#x13b;" horiz-adv-x="556" 
d="M366 720l-121 -569h289l-31 -151h-499l153 720h209zM289 -138q-10 -46 -26 -80t-41 -57t-60 -36.5t-83 -17.5l17 82q34 6 54.5 22t26.5 48h-47l27 129h151z" />
    <glyph glyph-name="lcommaaccent" unicode="&#x13c;" horiz-adv-x="261" 
d="M187 0h-193l153 720h193zM139 -138q-10 -46 -26 -80t-41 -57t-60 -36.5t-83 -17.5l17 82q34 6 54.5 22t26.5 48h-47l27 129h151z" />
    <glyph glyph-name="Lcaron" unicode="&#x13d;" horiz-adv-x="556" 
d="M366 720l-121 -569h289l-31 -151h-499l153 720h209zM573 611q-20 -97 -76.5 -145.5t-157.5 -59.5l17 82q37 7 60.5 27.5t31.5 56.5h-49l32 148h165z" />
    <glyph glyph-name="lcaron" unicode="&#x13e;" horiz-adv-x="442" 
d="M187 0h-193l153 720h193zM540 611q-20 -97 -76.5 -145.5t-157.5 -59.5l17 82q37 7 60.5 27.5t31.5 56.5h-49l32 148h165z" />
    <glyph glyph-name="Ldot" unicode="&#x13f;" horiz-adv-x="556" 
d="M366 720l-121 -569h289l-31 -151h-499l153 720h209zM344 305l31 146h204l-31 -146h-204z" />
    <glyph glyph-name="ldot" unicode="&#x140;" horiz-adv-x="464" 
d="M187 0h-193l153 720h193zM284 305l31 146h204l-31 -146h-204z" />
    <glyph glyph-name="Lslash" unicode="&#x141;" horiz-adv-x="564" 
d="M374 720l-38 -174l72 40l-35 -167l-73 -41l-48 -227h290l-31 -151h-499l52 246l-61 -34l36 166l60 35l66 307h209z" />
    <glyph glyph-name="lslash" unicode="&#x142;" horiz-adv-x="261" 
d="M301 539l34 20l-36 -167l-33 -20l-79 -372h-193l50 238l-34 -20l36 166l33 21l68 315h193z" />
    <glyph glyph-name="Nacute" unicode="&#x143;" horiz-adv-x="654" 
d="M723 720l-153 -720h-198l-100 434l-92 -434h-176l153 720h211l90 -415l89 415h176zM512 928h186l-177 -154h-137z" />
    <glyph glyph-name="nacute" unicode="&#x144;" horiz-adv-x="539" 
d="M-6 0q27 131 54 260t55 260h154l11 -57q34 38 67.5 55t76.5 17q62 0 97.5 -36t35.5 -107q0 -29 -8 -69l-68 -323h-194l70 328q2 8 3 18.5t1 20.5q0 20 -7.5 27.5t-20.5 7.5q-23 0 -41 -21t-29 -72l-65 -309h-192zM398 735h186l-177 -154h-137z" />
    <glyph glyph-name="Ncommaaccent" unicode="&#x145;" horiz-adv-x="654" 
d="M723 720l-153 -720h-198l-100 434l-92 -434h-176l153 720h211l90 -415l89 415h176zM339 -138q-10 -46 -26 -80t-41 -57t-60 -36.5t-83 -17.5l17 82q34 6 54.5 22t26.5 48h-47l27 129h151z" />
    <glyph glyph-name="ncommaaccent" unicode="&#x146;" horiz-adv-x="539" 
d="M-6 0q27 131 54 260t55 260h154l11 -57q34 38 67.5 55t76.5 17q62 0 97.5 -36t35.5 -107q0 -29 -8 -69l-68 -323h-194l70 328q2 8 3 18.5t1 20.5q0 20 -7.5 27.5t-20.5 7.5q-23 0 -41 -21t-29 -72l-65 -309h-192zM283 -138q-10 -46 -26 -80t-41 -57t-60 -36.5t-83 -17.5
l17 82q34 6 54.5 22t26.5 48h-47l27 129h151z" />
    <glyph glyph-name="Ncaron" unicode="&#x147;" horiz-adv-x="654" 
d="M723 720l-153 -720h-198l-100 434l-92 -434h-176l153 720h211l90 -415l89 415h176zM472 871l34 63h165l-146 -154h-144l-82 154h165z" />
    <glyph glyph-name="ncaron" unicode="&#x148;" horiz-adv-x="539" 
d="M-6 0q27 131 54 260t55 260h154l11 -57q34 38 67.5 55t76.5 17q62 0 97.5 -36t35.5 -107q0 -29 -8 -69l-68 -323h-194l70 328q2 8 3 18.5t1 20.5q0 20 -7.5 27.5t-20.5 7.5q-23 0 -41 -21t-29 -72l-65 -309h-192zM377 674l34 63h165l-146 -154h-144l-82 154h165z" />
    <glyph glyph-name="napostrophe" unicode="&#x149;" horiz-adv-x="651" 
d="M106 0q27 131 54 260t55 260h154l11 -57q34 38 67.5 55t76.5 17q62 0 97.5 -36t35.5 -107q0 -29 -8 -69l-68 -323h-194l70 328q2 8 3 18.5t1 20.5q0 20 -7.5 27.5t-20.5 7.5q-23 0 -41 -21t-29 -72l-65 -309h-192zM241.207 620.915q-18 -87.3027 -68.8516 -130.954
q-50.8516 -43.6504 -141.754 -53.5508l15.3008 73.8018q33.3008 6.2998 54.4512 24.751q21.1504 18.4502 28.3506 50.8516h-44.1006l28.8008 133.203h148.504z" />
    <glyph glyph-name="Eng" unicode="&#x14a;" horiz-adv-x="654" 
d="M723 720l-160 -745q-17 -81 -66.5 -125.5t-137.5 -44.5q-25 0 -50 5t-43 11l29 134q11 -5 21 -6.5t18 -1.5q23 0 37 10t22 43h-21l-100 433l-92 -433h-176l153 720h210l91 -415l88 415h177z" />
    <glyph glyph-name="eng" unicode="&#x14b;" horiz-adv-x="539" 
d="M-6 0q27 131 54 260t55 260h154l11 -57q34 38 67.5 55t76.5 17q62 0 97.5 -36t35.5 -107q0 -12 -1.5 -26.5t-3.5 -29t-4 -27t-4 -20.5l-70 -314q-18 -81 -67 -125.5t-137 -44.5q-25 0 -50 5t-43 11l29 134q11 -5 21 -6.5t18 -1.5q16 0 25 9t15 36l71 332q3 14 4 24.5
t1 18.5q0 20 -7.5 27.5t-20.5 7.5q-23 0 -41 -21t-29 -72l-65 -309h-192z" />
    <glyph glyph-name="Omacron" unicode="&#x14c;" horiz-adv-x="703" 
d="M347 132q34 0 65 29t53.5 76.5t36 107t13.5 120.5q0 66 -24.5 95t-62.5 29q-33 0 -63.5 -28.5t-53.5 -75t-36.5 -106.5t-13.5 -122q0 -68 24 -96.5t62 -28.5zM323 -15q-62 0 -112.5 17.5t-86 51.5t-55 85t-19.5 117q0 106 30.5 194t84.5 151.5t127.5 98.5t158.5 35
q61 0 111.5 -17t86.5 -51t56 -84.5t20 -117.5q0 -106 -31 -194.5t-85.5 -152t-128 -98.5t-157.5 -35zM351 787l27 128h255l-27 -128h-255z" />
    <glyph glyph-name="omacron" unicode="&#x14d;" horiz-adv-x="556" 
d="M335 535q107 0 165 -52t58 -149q0 -78 -21 -142.5t-61.5 -110.5t-98.5 -71t-132 -25q-104 0 -161 53t-57 150q0 74 19.5 137.5t58 110t96 73t134.5 26.5zM318 406q-16 0 -31.5 -12t-28.5 -38t-23 -69t-14 -104q0 -38 9.5 -54t37.5 -16q27 0 45.5 27t30 64t16.5 74.5
t5 58.5q0 40 -10.5 54.5t-36.5 14.5zM235 591l27 128h255l-27 -128h-255z" />
    <glyph glyph-name="Obreve" unicode="&#x14e;" horiz-adv-x="703" 
d="M347 132q34 0 65 29t53.5 76.5t36 107t13.5 120.5q0 66 -24.5 95t-62.5 29q-33 0 -63.5 -28.5t-53.5 -75t-36.5 -106.5t-13.5 -122q0 -68 24 -96.5t62 -28.5zM323 -15q-62 0 -112.5 17.5t-86 51.5t-55 85t-19.5 117q0 106 30.5 194t84.5 151.5t127.5 98.5t158.5 35
q61 0 111.5 -17t86.5 -51t56 -84.5t20 -117.5q0 -106 -31 -194.5t-85.5 -152t-128 -98.5t-157.5 -35zM466 925q-3 -17 -3 -27q0 -23 14 -23q20 0 32 50h134q-26 -81 -72.5 -117t-111.5 -36q-62 0 -95.5 30t-33.5 95q0 13 3 28h133z" />
    <glyph glyph-name="obreve" unicode="&#x14f;" horiz-adv-x="556" 
d="M335 535q107 0 165 -52t58 -149q0 -78 -21 -142.5t-61.5 -110.5t-98.5 -71t-132 -25q-104 0 -161 53t-57 150q0 74 19.5 137.5t58 110t96 73t134.5 26.5zM318 406q-16 0 -31.5 -12t-28.5 -38t-23 -69t-14 -104q0 -38 9.5 -54t37.5 -16q27 0 45.5 27t30 64t16.5 74.5
t5 58.5q0 40 -10.5 54.5t-36.5 14.5zM356 729q-3 -17 -3 -27q0 -23 14 -23q20 0 32 50h134q-26 -81 -72.5 -117t-111.5 -36q-62 0 -95.5 30t-33.5 95q0 13 3 28h133z" />
    <glyph glyph-name="Ohungarumlaut" unicode="&#x150;" horiz-adv-x="703" 
d="M347 132q34 0 65 29t53.5 76.5t36 107t13.5 120.5q0 66 -24.5 95t-62.5 29q-33 0 -63.5 -28.5t-53.5 -75t-36.5 -106.5t-13.5 -122q0 -68 24 -96.5t62 -28.5zM323 -15q-62 0 -112.5 17.5t-86 51.5t-55 85t-19.5 117q0 106 30.5 194t84.5 151.5t127.5 98.5t158.5 35
q61 0 111.5 -17t86.5 -51t56 -84.5t20 -117.5q0 -106 -31 -194.5t-85.5 -152t-128 -98.5t-157.5 -35zM410 928h192l-181 -154h-140zM643 928h191l-180 -154h-139z" />
    <glyph glyph-name="ohungarumlaut" unicode="&#x151;" horiz-adv-x="556" 
d="M335 535q107 0 165 -52t58 -149q0 -78 -21 -142.5t-61.5 -110.5t-98.5 -71t-132 -25q-104 0 -161 53t-57 150q0 74 19.5 137.5t58 110t96 73t134.5 26.5zM318 406q-16 0 -31.5 -12t-28.5 -38t-23 -69t-14 -104q0 -38 9.5 -54t37.5 -16q27 0 45.5 27t30 64t16.5 74.5
t5 58.5q0 40 -10.5 54.5t-36.5 14.5zM296 735h192l-181 -154h-140zM529 735h191l-180 -154h-139z" />
    <glyph glyph-name="OE" unicode="&#x152;" horiz-adv-x="848" 
d="M818 293h-205l-32 -147h231l-31 -146h-381q-25 -7 -50 -11t-48 -4q-52 0 -98 14.5t-80.5 46t-55 80.5t-20.5 119q0 27 3 55t8 57q18 97 57 168.5t91.5 118t115.5 69t130 22.5q22 0 52 -4t53 -11h376l-31 -148h-231q-7 -35 -14.5 -70t-15.5 -70h206zM339 132q16 0 32 8
l94 440q-7 5 -16.5 6.5t-17.5 1.5q-46 0 -88.5 -50.5t-67.5 -159.5q-15 -66 -15 -124q0 -67 23.5 -94.5t55.5 -27.5z" />
    <glyph glyph-name="oe" unicode="&#x153;" horiz-adv-x="863" 
d="M832 163q-15 -38 -39.5 -70.5t-58.5 -56.5t-77.5 -37.5t-96.5 -13.5q-97 0 -148 59q-34 -26 -78.5 -42.5t-91.5 -16.5q-103 0 -159 53t-56 150q0 74 19 137.5t57.5 110t95.5 73t132 26.5q47 0 87 -14t66 -43q32 26 72.5 41.5t88.5 15.5q99 0 156.5 -54t57.5 -162
q0 -43 -11 -101h-312q-3 -21 -3 -40q0 -37 13.5 -49.5t36.5 -12.5q21 0 34.5 12t21.5 35h193zM318 406q-16 0 -31.5 -12t-28.5 -38t-23 -69t-14 -104q0 -41 10.5 -55.5t34.5 -14.5q30 0 49 28.5t36 103.5q5 24 8.5 47t5.5 45q0 42 -11.5 55.5t-35.5 13.5zM630 413
q-24 0 -40.5 -19.5t-32.5 -74.5h114q2 11 3 21.5t1 18.5q0 32 -12.5 43t-32.5 11z" />
    <glyph glyph-name="Racute" unicode="&#x154;" horiz-adv-x="651" 
d="M385 0l-86 250h-33l-53 -250h-209l153 720h236q136 0 202.5 -50.5t66.5 -137.5q0 -90 -46 -155t-125 -91l118 -286h-224zM336 578l-40 -186h46q48 0 75.5 33t27.5 84q0 69 -74 69h-35zM476 928h186l-177 -154h-137z" />
    <glyph glyph-name="racute" unicode="&#x155;" horiz-adv-x="388" 
d="M-6 0l110 520h155l8 -80q57 95 134 95q24 0 53 -7l-37 -173q-20 7 -33 9.5t-30 2.5q-39 0 -72.5 -38t-50.5 -121l-44 -208h-193zM330 735h186l-177 -154h-137z" />
    <glyph glyph-name="Rcommaaccent" unicode="&#x156;" horiz-adv-x="651" 
d="M385 0l-86 250h-33l-53 -250h-209l153 720h236q136 0 202.5 -50.5t66.5 -137.5q0 -90 -46 -155t-125 -91l118 -286h-224zM336 578l-40 -186h46q48 0 75.5 33t27.5 84q0 69 -74 69h-35zM330 -138q-10 -46 -26 -80t-41 -57t-60 -36.5t-83 -17.5l17 82q34 6 54.5 22t26.5 48
h-47l27 129h151z" />
    <glyph glyph-name="rcommaaccent" unicode="&#x157;" horiz-adv-x="388" 
d="M-6 0l110 520h155l8 -80q57 95 134 95q24 0 53 -7l-37 -173q-20 7 -33 9.5t-30 2.5q-39 0 -72.5 -38t-50.5 -121l-44 -208h-193zM136 -138q-10 -46 -26 -80t-41 -57t-60 -36.5t-83 -17.5l17 82q34 6 54.5 22t26.5 48h-47l27 129h151z" />
    <glyph glyph-name="Rcaron" unicode="&#x158;" horiz-adv-x="651" 
d="M385 0l-86 250h-33l-53 -250h-209l153 720h236q136 0 202.5 -50.5t66.5 -137.5q0 -90 -46 -155t-125 -91l118 -286h-224zM336 578l-40 -186h46q48 0 75.5 33t27.5 84q0 69 -74 69h-35zM424 871l34 63h165l-146 -154h-144l-82 154h165z" />
    <glyph glyph-name="rcaron" unicode="&#x159;" horiz-adv-x="388" 
d="M-6 0l110 520h155l8 -80q57 95 134 95q24 0 53 -7l-37 -173q-20 7 -33 9.5t-30 2.5q-39 0 -72.5 -38t-50.5 -121l-44 -208h-193zM301 674l34 63h165l-146 -154h-144l-82 154h165z" />
    <glyph glyph-name="Sacute" unicode="&#x15a;" horiz-adv-x="617" 
d="M286 -15q-68 0 -117.5 14.5t-81.5 41.5t-47.5 64.5t-15.5 84.5q0 6 0.5 12t1.5 19h200q-1 -9 -1 -21q0 -32 17.5 -52.5t61.5 -20.5t66.5 18.5t23.5 48.5q0 14 -4 25.5t-15 23t-32 23t-55 25.5q-101 42 -146 91.5t-45 116.5q0 52 19 95.5t56.5 75t94 48.5t130.5 17
q123 0 189 -55t66 -149v-16h-195q1 5 1 8q0 70 -72 70q-37 0 -55 -16.5t-18 -41.5q0 -28 17 -45t64 -36q114 -46 165 -98t51 -122q0 -56 -21 -102t-62 -78.5t-101.5 -50.5t-139.5 -18zM468 928h186l-177 -154h-137z" />
    <glyph glyph-name="sacute" unicode="&#x15b;" horiz-adv-x="526" 
d="M252 112q25 0 36.5 10.5t11.5 25.5q0 13 -11.5 23t-48.5 24q-51 15 -84.5 33t-53.5 38t-28 43t-8 47q0 83 58 131t187 48q52 0 93.5 -12.5t70.5 -34.5t44 -52t15 -67h-187q0 18 -11 29t-37 11q-19 0 -28.5 -8.5t-9.5 -21.5q0 -7 2 -13t9 -11.5t20 -11.5t36 -13
q48 -15 80.5 -33.5t52 -38.5t27.5 -43t8 -47q0 -82 -65 -132.5t-204 -50.5q-109 0 -161.5 45.5t-53.5 116.5q0 5 1 9h189q0 -23 11.5 -33.5t38.5 -10.5zM361 735h186l-177 -154h-137z" />
    <glyph glyph-name="Scircumflex" unicode="&#x15c;" horiz-adv-x="617" 
d="M286 -15q-68 0 -117.5 14.5t-81.5 41.5t-47.5 64.5t-15.5 84.5q0 6 0.5 12t1.5 19h200q-1 -9 -1 -21q0 -32 17.5 -52.5t61.5 -20.5t66.5 18.5t23.5 48.5q0 14 -4 25.5t-15 23t-32 23t-55 25.5q-101 42 -146 91.5t-45 116.5q0 52 19 95.5t56.5 75t94 48.5t130.5 17
q123 0 189 -55t66 -149v-16h-195q1 5 1 8q0 70 -72 70q-37 0 -55 -16.5t-18 -41.5q0 -28 17 -45t64 -36q114 -46 165 -98t51 -122q0 -56 -21 -102t-62 -78.5t-101.5 -50.5t-139.5 -18zM395 780h-165l146 154h144l82 -154h-165l-7 67z" />
    <glyph glyph-name="scircumflex" unicode="&#x15d;" horiz-adv-x="526" 
d="M252 112q25 0 36.5 10.5t11.5 25.5q0 13 -11.5 23t-48.5 24q-51 15 -84.5 33t-53.5 38t-28 43t-8 47q0 83 58 131t187 48q52 0 93.5 -12.5t70.5 -34.5t44 -52t15 -67h-187q0 18 -11 29t-37 11q-19 0 -28.5 -8.5t-9.5 -21.5q0 -7 2 -13t9 -11.5t20 -11.5t36 -13
q48 -15 80.5 -33.5t52 -38.5t27.5 -43t8 -47q0 -82 -65 -132.5t-204 -50.5q-109 0 -161.5 45.5t-53.5 116.5q0 5 1 9h189q0 -23 11.5 -33.5t38.5 -10.5zM322 583h-165l146 154h144l82 -154h-165l-7 67z" />
    <glyph glyph-name="Scedilla" unicode="&#x15e;" horiz-adv-x="617" 
d="M328 -35q35 -10 52.5 -33t17.5 -54q0 -29 -10.5 -55t-32 -46t-54 -32t-76.5 -12q-66 0 -105.5 29t-39.5 82v8q0 4 1 8h122q-1 -3 -1 -9q0 -26 33 -26q19 0 28 10.5t9 26.5q0 7 -3 14t-11 12t-22.5 8.5t-38.5 3.5l26 89q-51 6 -88.5 23t-62 43t-36.5 60t-12 74q0 8 0.5 16
t1.5 16h200q-1 -5 -1 -11v-10q0 -33 17.5 -53t62.5 -20q43 0 66 18.5t23 48.5q0 14 -3.5 25.5t-15 23t-32.5 23t-55 25.5q-101 41 -145.5 91t-44.5 117q0 52 19 95.5t56.5 75t93.5 48.5t131 17q122 0 188.5 -55.5t66.5 -150.5v-14h-195q1 5 1 14q0 64 -73 64q-35 0 -54 -17
t-19 -41q0 -28 17.5 -45t64.5 -36q113 -46 164 -98t51 -122q0 -104 -71 -170.5t-208 -76.5z" />
    <glyph glyph-name="scedilla" unicode="&#x15f;" horiz-adv-x="526" 
d="M346 -123q0 -29 -10.5 -55t-32 -46t-54 -32t-76.5 -12q-67 0 -106 30.5t-39 85.5v11h123v-7q0 -27 32 -27q19 0 28 10t9 26q0 15 -14 27t-61 12l25 89q-78 11 -117 53t-39 105v9h189q0 -24 12 -34t38 -10q25 0 36 10.5t11 25.5q0 13 -10.5 23.5t-48.5 23.5
q-51 16 -84.5 34.5t-53.5 38.5t-28.5 42t-8.5 46q0 83 58.5 131t187.5 48q51 0 92 -12t70 -33.5t44.5 -51t15.5 -64.5v-5h-187q0 18 -11 29t-36 11q-19 0 -29 -8.5t-10 -21.5q0 -7 2 -13t9 -11.5t20.5 -11.5t36.5 -13q48 -15 80.5 -33.5t52 -38.5t27.5 -43t8 -47
q0 -74 -52.5 -122.5t-165.5 -58.5l-3 -22q35 -10 52.5 -33t17.5 -55z" />
    <glyph glyph-name="Scaron" unicode="&#x160;" horiz-adv-x="617" 
d="M286 -15q-68 0 -117.5 14.5t-81.5 41.5t-47.5 64.5t-15.5 84.5q0 6 0.5 12t1.5 19h200q-1 -9 -1 -21q0 -32 17.5 -52.5t61.5 -20.5t66.5 18.5t23.5 48.5q0 14 -4 25.5t-15 23t-32 23t-55 25.5q-101 42 -146 91.5t-45 116.5q0 52 19 95.5t56.5 75t94 48.5t130.5 17
q123 0 189 -55t66 -149v-16h-195q1 5 1 8q0 70 -72 70q-37 0 -55 -16.5t-18 -41.5q0 -28 17 -45t64 -36q114 -46 165 -98t51 -122q0 -56 -21 -102t-62 -78.5t-101.5 -50.5t-139.5 -18zM441 871l34 63h165l-146 -154h-144l-82 154h165z" />
    <glyph glyph-name="scaron" unicode="&#x161;" horiz-adv-x="526" 
d="M252 112q25 0 36.5 10.5t11.5 25.5q0 13 -11.5 23t-48.5 24q-51 15 -84.5 33t-53.5 38t-28 43t-8 47q0 83 58 131t187 48q52 0 93.5 -12.5t70.5 -34.5t44 -52t15 -67h-187q0 18 -11 29t-37 11q-19 0 -28.5 -8.5t-9.5 -21.5q0 -7 2 -13t9 -11.5t20 -11.5t36 -13
q48 -15 80.5 -33.5t52 -38.5t27.5 -43t8 -47q0 -82 -65 -132.5t-204 -50.5q-109 0 -161.5 45.5t-53.5 116.5q0 5 1 9h189q0 -23 11.5 -33.5t38.5 -10.5zM357 674l34 63h165l-146 -154h-144l-82 154h165z" />
    <glyph glyph-name="Tcommaaccent" unicode="&#x162;" horiz-adv-x="559" 
d="M636 569h-173l-121 -569h-209l121 569h-170l32 151h553zM286 -138q-10 -46 -26 -80t-41 -57t-60 -36.5t-83 -17.5l17 82q34 6 54.5 22t26.5 48h-47l27 129h151z" />
    <glyph glyph-name="tcommaaccent" unicode="&#x163;" horiz-adv-x="364" 
d="M312 0q-29 -8 -58.5 -11.5t-52.5 -3.5q-71 0 -105.5 33t-34.5 92q0 23 6 52l48 227h-65l28 131h65l37 125h183l-27 -125h87l-28 -131h-87l-48 -227q-1 -5 -1.5 -10t-0.5 -9q0 -12 6 -17.5t21 -5.5q8 0 24 2.5t31 7.5zM193 -138q-10 -46 -26 -80t-41 -57t-60 -36.5
t-83 -17.5l17 82q34 6 54.5 22t26.5 48h-47l27 129h151z" />
    <glyph glyph-name="Tcaron" unicode="&#x164;" horiz-adv-x="559" 
d="M636 569h-173l-121 -569h-209l121 569h-170l32 151h553zM422 871l34 63h165l-146 -154h-144l-82 154h165z" />
    <glyph glyph-name="tcaron" unicode="&#x165;" horiz-adv-x="462" 
d="M560 660q-11 -52 -51.5 -87t-112.5 -38l13 59q17 1 25 9t12 24h-25l23 106h131zM312 0q-29 -8 -58.5 -11.5t-52.5 -3.5q-71 0 -105.5 33t-34.5 92q0 23 6 52l48 227h-65l28 131h65l37 125h183l-27 -125h87l-28 -131h-87l-48 -227q-1 -5 -1.5 -10t-0.5 -9q0 -12 6 -17.5
t21 -5.5q8 0 24 2.5t31 7.5z" />
    <glyph glyph-name="Tbar" unicode="&#x166;" horiz-adv-x="559" 
d="M413 336l-71 -336h-209l71 336h-79l28 136h80l20 97h-170l33 151h552l-32 -151h-174l-20 -97h78l-28 -136h-79z" />
    <glyph glyph-name="tbar" unicode="&#x167;" horiz-adv-x="364" 
d="M312 0q-29 -8 -58.5 -11.5t-52.5 -3.5q-71 0 -105.5 33t-34.5 92q0 23 6 52l14 67h-42l28 129h41l7 31h-65l28 131h65l37 125h183l-27 -125h87l-28 -131h-87l-7 -31h61l-28 -129h-60l-14 -66q-3 -14 -3 -20q0 -23 28 -23q8 0 24 2.5t31 7.5z" />
    <glyph glyph-name="Utilde" unicode="&#x168;" horiz-adv-x="653" 
d="M362 720l-102 -480q-3 -12 -4 -22.5t-1 -19.5q0 -68 64 -68q42 0 65 24.5t35 79.5l103 486h203l-102 -482q-26 -122 -107.5 -187.5t-226.5 -65.5q-122 0 -182.5 55t-60.5 147q0 31 8 71l99 462h209zM514 777q-19 0 -34 5.5t-28 12.5t-25.5 12.5t-26.5 5.5q-15 0 -35 -8
t-52 -25l26 125q26 15 46.5 22t43.5 7q19 0 33.5 -6t28 -12.5t26 -12.5t27.5 -6q14 0 33 8t51 25l-27 -125q-26 -15 -45.5 -21.5t-41.5 -6.5z" />
    <glyph glyph-name="utilde" unicode="&#x169;" horiz-adv-x="532" 
d="M292 520l-70 -331q-2 -11 -3 -20t-1 -15q0 -20 7.5 -28.5t21.5 -8.5q20 0 36.5 20.5t27.5 73.5q16 78 32.5 154.5t32.5 154.5h192l-110 -520h-163l-3 53q-28 -32 -61 -50t-81 -18q-63 0 -96 33t-33 99q0 34 9 78l69 325h193zM412 581q-19 0 -34 5.5t-28 12.5t-25.5 12.5
t-26.5 5.5q-15 0 -35 -8t-52 -25l26 125q26 15 46.5 22t43.5 7q19 0 33.5 -6t28 -12.5t26 -12.5t27.5 -6q14 0 33 8t51 25l-27 -125q-26 -15 -45.5 -21.5t-41.5 -6.5z" />
    <glyph glyph-name="Umacron" unicode="&#x16a;" horiz-adv-x="653" 
d="M362 720l-102 -480q-3 -12 -4 -22.5t-1 -19.5q0 -68 64 -68q42 0 65 24.5t35 79.5l103 486h203l-102 -482q-26 -122 -107.5 -187.5t-226.5 -65.5q-122 0 -182.5 55t-60.5 147q0 31 8 71l99 462h209zM322 787l27 128h255l-27 -128h-255z" />
    <glyph glyph-name="umacron" unicode="&#x16b;" horiz-adv-x="532" 
d="M292 520l-70 -331q-2 -11 -3 -20t-1 -15q0 -20 7.5 -28.5t21.5 -8.5q20 0 36.5 20.5t27.5 73.5q16 78 32.5 154.5t32.5 154.5h192l-110 -520h-163l-3 53q-28 -32 -61 -50t-81 -18q-63 0 -96 33t-33 99q0 34 9 78l69 325h193zM222 591l27 128h255l-27 -128h-255z" />
    <glyph glyph-name="Ubreve" unicode="&#x16c;" horiz-adv-x="653" 
d="M362 720l-102 -480q-3 -12 -4 -22.5t-1 -19.5q0 -68 64 -68q42 0 65 24.5t35 79.5l103 486h203l-102 -482q-26 -122 -107.5 -187.5t-226.5 -65.5q-122 0 -182.5 55t-60.5 147q0 31 8 71l99 462h209zM461 925q-3 -17 -3 -27q0 -23 14 -23q20 0 32 50h134
q-26 -81 -72.5 -117t-111.5 -36q-62 0 -95.5 30t-33.5 95q0 13 3 28h133z" />
    <glyph glyph-name="ubreve" unicode="&#x16d;" horiz-adv-x="532" 
d="M292 520l-70 -331q-2 -11 -3 -20t-1 -15q0 -20 7.5 -28.5t21.5 -8.5q20 0 36.5 20.5t27.5 73.5q16 78 32.5 154.5t32.5 154.5h192l-110 -520h-163l-3 53q-28 -32 -61 -50t-81 -18q-63 0 -96 33t-33 99q0 34 9 78l69 325h193zM354 721q-3 -17 -3 -27q0 -23 14 -23
q20 0 32 50h134q-26 -81 -72.5 -117t-111.5 -36q-62 0 -95.5 30t-33.5 95q0 13 3 28h133z" />
    <glyph glyph-name="Uring" unicode="&#x16e;" horiz-adv-x="653" 
d="M362 720l-102 -480q-3 -12 -4 -22.5t-1 -19.5q0 -68 64 -68q42 0 65 24.5t35 79.5l103 486h203l-102 -482q-26 -122 -107.5 -187.5t-226.5 -65.5q-122 0 -182.5 55t-60.5 147q0 31 8 71l99 462h209zM436 850q0 -12 5.5 -19.5t17.5 -7.5q18 0 25.5 18t7.5 39q0 12 -5 19.5
t-18 7.5q-17 0 -25 -16t-8 -41zM612 889q0 -33 -11 -62t-32 -50.5t-52.5 -33.5t-73.5 -12q-66 0 -97 32.5t-31 78.5q0 33 11 61.5t32.5 50t53 34t73.5 12.5q65 0 96 -33t31 -78z" />
    <glyph glyph-name="uring" unicode="&#x16f;" horiz-adv-x="532" 
d="M292 520l-70 -331q-2 -11 -3 -20t-1 -15q0 -20 7.5 -28.5t21.5 -8.5q20 0 36.5 20.5t27.5 73.5q16 78 32.5 154.5t32.5 154.5h192l-110 -520h-163l-3 53q-28 -32 -61 -50t-81 -18q-63 0 -96 33t-33 99q0 34 9 78l69 325h193zM342 690q0 -12 5.5 -19.5t17.5 -7.5
q18 0 25.5 18t7.5 39q0 12 -5 19.5t-18 7.5q-17 0 -25 -16t-8 -41zM518 729q0 -33 -11 -62t-32 -50.5t-52.5 -33.5t-73.5 -12q-66 0 -97 32.5t-31 78.5q0 33 11 61.5t32.5 50t53 34t73.5 12.5q65 0 96 -33t31 -78z" />
    <glyph glyph-name="Uhungarumlaut" unicode="&#x170;" horiz-adv-x="653" 
d="M362 720l-102 -480q-3 -12 -4 -22.5t-1 -19.5q0 -68 64 -68q42 0 65 24.5t35 79.5l103 486h203l-102 -482q-26 -122 -107.5 -187.5t-226.5 -65.5q-122 0 -182.5 55t-60.5 147q0 31 8 71l99 462h209zM389 928h192l-181 -154h-140zM622 928h191l-180 -154h-139z" />
    <glyph glyph-name="uhungarumlaut" unicode="&#x171;" horiz-adv-x="532" 
d="M292 520l-70 -331q-2 -11 -3 -20t-1 -15q0 -20 7.5 -28.5t21.5 -8.5q20 0 36.5 20.5t27.5 73.5q16 78 32.5 154.5t32.5 154.5h192l-110 -520h-163l-3 53q-28 -32 -61 -50t-81 -18q-63 0 -96 33t-33 99q0 34 9 78l69 325h193zM283 735h192l-181 -154h-140zM516 735h191
l-180 -154h-139z" />
    <glyph glyph-name="Uogonek" unicode="&#x172;" horiz-adv-x="653" 
d="M505 -144q-23 -55 -66.5 -87t-108.5 -32q-60 0 -97.5 28t-37.5 85q0 35 22 71t64 64q-235 13 -235 203q0 30 8 70l99 462h209l-103 -480q-3 -12 -4 -22.5t-1 -20.5q0 -68 65 -68q40 0 64.5 25t35.5 79l103 487h203l-103 -482q-18 -83 -60.5 -140t-113.5 -86
q-26 -13 -49.5 -29.5t-41 -35.5t-27.5 -39t-10 -40q0 -37 26 -37q23 0 30 25h129z" />
    <glyph glyph-name="uogonek" unicode="&#x173;" horiz-adv-x="532" 
d="M292 520l-69 -327q-2 -11 -3.5 -19.5t-1.5 -19.5q0 -20 7.5 -28.5t21.5 -8.5q20 0 36.5 20.5t27.5 73.5l65 309h192l-110 -520h-53q-45 -27 -75 -62t-30 -70q0 -37 26 -37q23 0 30 25h128q-23 -55 -66 -87t-109 -32q-60 0 -97.5 28t-37.5 85q0 21 8 42.5t23.5 42t38 38.5
t50.5 31l-2 49q-28 -32 -61 -50t-81 -18q-63 0 -96 33t-33 99q0 21 3.5 44t9.5 52l65 307h193z" />
    <glyph glyph-name="Wcircumflex" unicode="&#x174;" horiz-adv-x="905" 
d="M1015 720l-283 -720h-229l14 502l-190 -502h-220l9 720h210l-45 -475l180 475h209l-13 -479l154 479h204zM555 780h-165l146 154h144l82 -154h-165l-7 67z" />
    <glyph glyph-name="wcircumflex" unicode="&#x175;" horiz-adv-x="758" 
d="M827 520l-231 -520h-219l32 334l-121 -334h-212l-5 520h196l-36 -331l124 331h198l-28 -329l112 329h190zM441 583h-165l146 154h144l82 -154h-165l-7 67z" />
    <glyph glyph-name="Ycircumflex" unicode="&#x176;" horiz-adv-x="652" 
d="M186 0l61 288l-134 432h213l55 -270l181 270h203l-319 -432l-61 -288h-199zM435 780h-165l146 154h144l82 -154h-165l-7 67z" />
    <glyph glyph-name="ycircumflex" unicode="&#x177;" horiz-adv-x="538" 
d="M611 520l-270 -519q-29 -56 -54.5 -93.5t-52 -60t-56 -32.5t-65.5 -10q-50 0 -104 14l28 130q29 -8 43.5 -10t23.5 -2q20 0 34 13.5t28 49.5h-42l-58 520h199l-8 -371l157 371h197zM324 584h-165l146 154h144l82 -154h-165l-7 67z" />
    <glyph glyph-name="Ydieresis" unicode="&#x178;" horiz-adv-x="652" 
d="M186 0l61 288l-134 432h213l55 -270l181 270h203l-319 -432l-61 -288h-199zM265 781l31 144h167l-31 -144h-167zM473 781l31 144h169l-31 -144h-169z" />
    <glyph glyph-name="Zacute" unicode="&#x179;" horiz-adv-x="561" 
d="M237 145h297l-31 -145h-529l29 136l394 439h-286l32 145h517l-29 -134zM456 928h186l-177 -154h-137z" />
    <glyph glyph-name="zacute" unicode="&#x17a;" horiz-adv-x="473" 
d="M231 138h204l-28 -138h-435l28 135l270 247h-202l29 138h430l-29 -135zM384 735h186l-177 -154h-137z" />
    <glyph glyph-name="Zdotaccent" unicode="&#x17b;" horiz-adv-x="561" 
d="M237 145h297l-31 -145h-529l29 136l394 439h-286l32 145h517l-29 -134zM305 779l31 146h204l-31 -146h-204z" />
    <glyph glyph-name="zdotaccent" unicode="&#x17c;" horiz-adv-x="469" 
d="M231 138h204l-28 -138h-435l28 135l270 247h-202l29 138h430l-29 -135zM228 583l31 146h204l-31 -146h-204z" />
    <glyph glyph-name="Zcaron" unicode="&#x17d;" horiz-adv-x="561" 
d="M237 145h297l-31 -145h-529l29 136l394 439h-286l32 145h517l-29 -134zM422 871l34 63h165l-146 -154h-144l-82 154h165z" />
    <glyph glyph-name="zcaron" unicode="&#x17e;" horiz-adv-x="469" 
d="M231 138h204l-28 -138h-435l28 135l270 247h-202l29 138h430l-29 -135zM348 674l34 63h165l-146 -154h-144l-82 154h165z" />
    <glyph glyph-name="longs" unicode="&#x17f;" horiz-adv-x="354" 
d="M27 0l83 389h-66l27 131h66l9 43q10 44 26.5 76.5t42 53.5t61.5 31.5t85 10.5q32 0 62 -5t56 -13l-29 -134q-41 12 -64 12q-26 0 -35 -9.5t-15 -37.5l-116 -548h-193z" />
    <glyph glyph-name="florin" unicode="&#x192;" 
d="M135 369l28 131h66l10 48q19 89 69 128t145 39q32 0 61.5 -5t55.5 -13l-28 -135q-21 6 -36.5 9.5t-26.5 3.5q-15 0 -24 -2.5t-15 -10t-10 -22.5t-9 -40h83q-8 -33 -14.5 -65.5t-13.5 -65.5h-82l-118 -549h-192l117 549h-66z" />
    <glyph glyph-name="Aringacute" unicode="&#x1fa;" horiz-adv-x="647" 
d="M396 821l111 139h188l-172 -139h-127zM446 806q67 0 99 -29t32 -70q0 -23 -12 -51t-42 -50l88 -606h-206l-3 151h-165l-68 -151h-213l347 610q-12 11 -17.5 26t-5.5 33q0 19 8 43t27 45t51 35t80 14zM436 722q-11 0 -17.5 -6t-11 -14t-6 -17t-1.5 -15q0 -23 22 -23
q11 0 17.5 6t10.5 15t5 18t1 15q0 21 -20 21zM399 273l-5 228l-102 -228h107z" />
    <glyph glyph-name="aringacute" unicode="&#x1fb;" horiz-adv-x="514" 
d="M65 365q29 82 91 126t165 44q96 0 147 -42.5t51 -117.5q0 -23 -6 -50l-69 -325h-147l-12 55q-26 -31 -64 -50.5t-87 -19.5q-63 0 -98.5 36t-35.5 93q0 83 52 132t177 69l92 14l4 20q3 16 3 29q0 29 -26 29q-35 0 -47 -42h-190zM223 111q32 0 46.5 26.5t25.5 71.5l5 20
q-60 -7 -85 -29t-25 -52q0 -37 33 -37zM326 658.017q0 -10.7998 5.5 -17.5498q5.5 -6.75098 17.5 -6.75098q18 0 25.5 16.2012q7.5 16.2002 7.5 35.1006q0 10.8008 -5 17.5508t-18 6.75q-17 0 -25 -14.4004t-8 -36.9014zM502 693.118q0 -29.7012 -11 -55.8018t-32 -45.4512
t-52.5 -30.1514q-31.5 -10.7998 -73.5 -10.7998q-66 0 -97 29.251t-31 70.6514q0 29.7012 11 55.3516t32.5 45.001t53 30.6016q31.5 11.25 73.5 11.25q65 0 96 -29.7012q31 -29.7002 31 -70.2012zM429 944.818h186l-177 -138.604h-137z" />
    <glyph glyph-name="AEacute" unicode="&#x1fc;" horiz-adv-x="880" 
d="M813 0h-435l33 157h-154l-85 -157h-215l437 720h572l-32 -148h-226l-30 -140h202l-30 -139h-201l-32 -147h227zM440 295l64 299l-161 -299h97zM705 928h186l-177 -154h-137z" />
    <glyph glyph-name="aeacute" unicode="&#x1fd;" horiz-adv-x="813" 
d="M64 365q35 86 96.5 128t163.5 42q86 0 133 -47q29 20 66 33.5t75 13.5q46 0 85 -13.5t67 -40.5t43.5 -67.5t15.5 -94.5q0 -46 -12 -101h-311q-2 -11 -3 -22.5t-1 -17.5q0 -35 12.5 -47.5t32.5 -12.5q45 0 62 45h193q-15 -38 -39.5 -70.5t-58.5 -56.5t-77.5 -37.5
t-96.5 -13.5q-66 0 -110.5 25.5t-67.5 71.5q-32 -47 -78 -72t-112 -25q-64 0 -103 36t-39 92q0 42 12 75t39.5 58t71 42t106.5 27l91 14l5 20q3 12 3 30t-8.5 23t-18.5 5q-30 0 -47 -42h-190zM580 413q-24 0 -41 -19.5t-33 -74.5h115q2 11 3 21.5t1 18.5q0 32 -12.5 43
t-32.5 11zM222 111q24 0 42 21t26 56l9 41q-59 -7 -84.5 -29t-25.5 -50q0 -39 33 -39zM517 732h186l-177 -154h-137z" />
    <glyph glyph-name="Oslashacute" unicode="&#x1fe;" horiz-adv-x="703" 
d="M322 -15q-25 0 -48 3.5t-44 8.5l-68 -107h-146l108 164q-35 34 -54.5 84t-19.5 117q0 106 30.5 194.5t84.5 152t127 98.5t159 35q26 0 49.5 -3.5t45.5 -9.5l64 98h146l-105 -158q35 -33 54.5 -82.5t19.5 -115.5q0 -106 -31 -194t-85.5 -151.5t-128 -98.5t-158.5 -35z
M261 277v-11q0 -7 0.5 -15.5t1 -16.5t0.5 -13l199 361q-17 6 -34 6q-32 0 -62.5 -28t-53.5 -72.5t-37 -100t-14 -110.5zM346 132q33 0 64 28t54 74t37 103.5t14 116.5v19q0 8 -2 18l-202 -352q14 -7 35 -7zM487 928h186l-177 -154h-137z" />
    <glyph glyph-name="oslashacute" unicode="&#x1ff;" horiz-adv-x="556" 
d="M335 535q39 0 68 -7l66 102h132l-98 -151q55 -52 55 -145q0 -78 -21 -142.5t-61.5 -110.5t-98.5 -71t-132 -25q-34 0 -62 6l-64 -101h-135l97 150q-54 52 -54 148q0 74 19.5 137.5t58 110t96 73t134.5 26.5zM318 406q-38 0 -61 -50t-34 -147l120 193q-9 4 -25 4zM244 117
q5 -2 10 -3t12 -1q38 0 62.5 53t35.5 146zM353 732h186l-177 -154h-137z" />
    <glyph glyph-name="Scommaaccent" unicode="&#x218;" horiz-adv-x="617" 
d="M286 -15q-68 0 -117.5 14.5t-81.5 41.5t-47.5 64.5t-15.5 84.5q0 6 0.5 12t1.5 19h200q-1 -9 -1 -21q0 -32 17.5 -52.5t61.5 -20.5t66.5 18.5t23.5 48.5q0 14 -4 25.5t-15 23t-32 23t-55 25.5q-101 42 -146 91.5t-45 116.5q0 52 19 95.5t56.5 75t94 48.5t130.5 17
q123 0 189 -55t66 -149v-16h-195q1 5 1 8q0 70 -72 70q-37 0 -55 -16.5t-18 -41.5q0 -28 17 -45t64 -36q114 -46 165 -98t51 -122q0 -56 -21 -102t-62 -78.5t-101.5 -50.5t-139.5 -18zM330 -138q-10 -46 -26 -80t-41 -57t-60 -36.5t-83 -17.5l17 82q34 6 54.5 22t26.5 48
h-47l27 129h151z" />
    <glyph glyph-name="scommaaccent" unicode="&#x219;" horiz-adv-x="526" 
d="M252 112q25 0 36.5 10.5t11.5 25.5q0 13 -11.5 23t-48.5 24q-51 15 -84.5 33t-53.5 38t-28 43t-8 47q0 83 58 131t187 48q52 0 93.5 -12.5t70.5 -34.5t44 -52t15 -67h-187q0 18 -11 29t-37 11q-19 0 -28.5 -8.5t-9.5 -21.5q0 -7 2 -13t9 -11.5t20 -11.5t36 -13
q48 -15 80.5 -33.5t52 -38.5t27.5 -43t8 -47q0 -82 -65 -132.5t-204 -50.5q-109 0 -161.5 45.5t-53.5 116.5q0 5 1 9h189q0 -23 11.5 -33.5t38.5 -10.5zM262 -138q-10 -46 -26 -80t-41 -57t-60 -36.5t-83 -17.5l17 82q34 6 54.5 22t26.5 48h-47l27 129h151z" />
    <glyph glyph-name="uni021A" unicode="&#x21a;" horiz-adv-x="559" 
d="M636 569h-173l-121 -569h-209l121 569h-170l32 151h553zM286 -138q-10 -46 -26 -80t-41 -57t-60 -36.5t-83 -17.5l17 82q34 6 54.5 22t26.5 48h-47l27 129h151z" />
    <glyph glyph-name="uni021B" unicode="&#x21b;" horiz-adv-x="364" 
d="M312 0q-29 -8 -58.5 -11.5t-52.5 -3.5q-71 0 -105.5 33t-34.5 92q0 23 6 52l48 227h-65l28 131h65l37 125h183l-27 -125h87l-28 -131h-87l-48 -227q-1 -5 -1.5 -10t-0.5 -9q0 -12 6 -17.5t21 -5.5q8 0 24 2.5t31 7.5zM193 -138q-10 -46 -26 -80t-41 -57t-60 -36.5
t-83 -17.5l17 82q34 6 54.5 22t26.5 48h-47l27 129h151z" />
    <glyph glyph-name="dotlessj" unicode="&#x237;" horiz-adv-x="264" 
d="M-85 -46q11 -4 21.5 -6t17.5 -2q17 0 26 9.5t15 35.5l112 529h193l-116 -545q-17 -81 -66 -125.5t-139 -44.5q-24 0 -49.5 4.5t-42.5 11.5z" />
    <glyph glyph-name="circumflex" unicode="&#x2c6;" horiz-adv-x="445" 
d="M325 584h-165l146 154h144l82 -154h-165l-7 67z" />
    <glyph glyph-name="caron" unicode="&#x2c7;" horiz-adv-x="445" 
d="M365 675l34 63h165l-146 -154h-144l-82 154h165z" />
    <glyph glyph-name="uni02C9" unicode="&#x2c9;" horiz-adv-x="294" 
d="M103 586l28 126h254l-27 -126h-255z" />
    <glyph glyph-name="breve" unicode="&#x2d8;" horiz-adv-x="367" 
d="M316 729q-3 -17 -3 -27q0 -23 14 -23q20 0 32 50h134q-26 -81 -72.5 -117t-111.5 -36q-62 0 -95.5 30t-33.5 95q0 13 3 28h133z" />
    <glyph glyph-name="dotaccent" unicode="&#x2d9;" horiz-adv-x="254" 
d="M147 583l31 146h204l-31 -146h-204z" />
    <glyph glyph-name="ring" unicode="&#x2da;" horiz-adv-x="331" 
d="M287 690q0 -12 5.5 -19.5t17.5 -7.5q18 0 25.5 18t7.5 39q0 12 -5 19.5t-18 7.5q-17 0 -25 -16t-8 -41zM463 729q0 -33 -11 -62t-32 -50.5t-52.5 -33.5t-73.5 -12q-66 0 -97 32.5t-31 78.5q0 33 11 61.5t32.5 50t53 34t73.5 12.5q65 0 96 -33t31 -78z" />
    <glyph glyph-name="ogonek" unicode="&#x2db;" horiz-adv-x="368" 
d="M100 -264q-60 0 -97.5 28.5t-37.5 85.5q0 24 11 49t31.5 48t50 42t66.5 30h108q-29 -13 -54.5 -30.5t-45 -37.5t-31 -41.5t-11.5 -42.5q0 -37 27 -37q21 0 29 26h129q-23 -56 -66 -88t-109 -32z" />
    <glyph glyph-name="tilde" unicode="&#x2dc;" horiz-adv-x="335" 
d="M351 581q-19 0 -34 5.5t-28 12.5t-25.5 12.5t-26.5 5.5q-15 0 -35 -8t-52 -25l26 125q26 15 46.5 22t43.5 7q19 0 33.5 -6t28 -12.5t26 -12.5t27.5 -6q14 0 33 8t51 25l-27 -125q-26 -15 -45.5 -21.5t-41.5 -6.5z" />
    <glyph glyph-name="hungarumlaut" unicode="&#x2dd;" horiz-adv-x="572" 
d="M277 732h192l-181 -154h-140zM510 732h191l-180 -154h-139z" />
    <glyph glyph-name="uni0312" unicode="&#x312;" horiz-adv-x="270" 
d="M147 665q19 92 67 137t143 54l-17 -82q-34 -6 -54.5 -22t-26.5 -48h47l-27 -129h-151z" />
    <glyph glyph-name="dotbelowcomb" unicode="&#x323;" horiz-adv-x="264" 
d="M-48 -180l30 146h204l-31 -146h-203z" />
    <glyph glyph-name="uni037E" unicode="&#x37e;" horiz-adv-x="296" 
d="M78 339l38 181h211l-38 -181h-211zM223 32q-23 -105 -92 -153t-180 -55l18 88q42 5 70.5 27t36.5 61h-70l38 181h211z" />
    <glyph glyph-name="tonos" unicode="&#x384;" horiz-adv-x="251" 
d="M157 720h181l-97 -147h-134z" />
    <glyph glyph-name="dieresistonos" unicode="&#x385;" horiz-adv-x="453" 
d="M108 585l31 144h154l-31 -144h-154zM361 585l31 144h155l-31 -144h-155zM336 901h168l-96 -147h-122z" />
    <glyph glyph-name="Alphatonos" unicode="&#x386;" horiz-adv-x="648" 
d="M396 157h-161l-67 -157h-211l371 720h214l69 -720h-215v157zM293 295h103l1 243zM112 720h181l-97 -147h-134z" />
    <glyph glyph-name="anoteleia" unicode="&#x387;" horiz-adv-x="296" 
d="M52 220l38 175h203l-38 -175h-203z" />
    <glyph glyph-name="Epsilontonos" unicode="&#x388;" horiz-adv-x="704" 
d="M674 294h-236l-31 -148h261l-30 -146h-471l153 720h471l-32 -148h-262l-29 -140h236zM118 720h181l-97 -147h-134z" />
    <glyph glyph-name="Etatonos" unicode="&#x389;" horiz-adv-x="826" 
d="M894 720l-153 -720h-207l61 293h-155l-61 -293h-209l153 720h209l-61 -285h155l61 285h207zM118 720h181l-97 -147h-134z" />
    <glyph glyph-name="Iotatonos" unicode="&#x38a;" horiz-adv-x="464" 
d="M532 720l-153 -720h-209l153 720h209zM118 720h181l-97 -147h-134z" />
    <glyph glyph-name="Omicrontonos" unicode="&#x38c;" horiz-adv-x="799" 
d="M443 132q34 0 65 29t53.5 76.5t36 107t13.5 120.5q0 66 -24.5 95t-62.5 29q-33 0 -63.5 -28.5t-53.5 -75t-36.5 -106.5t-13.5 -122q0 -68 24 -96.5t62 -28.5zM419 -15q-62 0 -112.5 17.5t-86 51.5t-55 85t-19.5 117q0 106 30.5 194t84.5 151.5t127.5 98.5t158.5 35
q61 0 111.5 -17t86.5 -51t56 -84.5t20 -117.5q0 -106 -31 -194.5t-85.5 -152t-128 -98.5t-157.5 -35zM123 720h181l-97 -147h-134z" />
    <glyph glyph-name="Upsilontonos" unicode="&#x38e;" horiz-adv-x="849" 
d="M383 0l61 288l-134 432h213l55 -270l181 270h203l-319 -432l-61 -288h-199zM115 720h181l-97 -147h-134z" />
    <glyph glyph-name="Omegatonos" unicode="&#x38f;" horiz-adv-x="797" 
d="M458 133q25 0 46.5 17.5t38 45.5t29 64t20.5 73t12 72t4 61q0 67 -23 95t-65 28q-38 0 -70 -32.5t-54.5 -83.5t-35 -114.5t-12.5 -126.5q0 -54 16.5 -76.5t39.5 -22.5l-27 -133h-291l29 140h87q-24 27 -37.5 69.5t-13.5 94.5q0 100 32 180t86.5 135.5t127 85.5t153.5 30
q57 0 106.5 -16.5t86 -49t57.5 -81.5t21 -115q0 -47 -11 -95.5t-31.5 -93t-50 -82t-66.5 -62.5h91l-29 -140h-293zM123 720h181l-97 -147h-134z" />
    <glyph glyph-name="iotadieresistonos" unicode="&#x390;" horiz-adv-x="262" 
d="M240 901h168l-96 -147h-122zM57 585l30 144h137l-30 -144h-137zM236 585l30 144h138l-30 -144h-138zM-6 0l110 520h194l-110 -520h-194z" />
    <glyph glyph-name="Alpha" unicode="&#x391;" horiz-adv-x="648" 
d="M396 157h-161l-67 -157h-211l371 720h214l69 -720h-215v157zM293 295h103l1 243z" />
    <glyph glyph-name="Beta" unicode="&#x392;" horiz-adv-x="606" 
d="M377 720q136 0 197 -40t61 -113q0 -64 -39 -113.5t-110 -70.5q50 -14 78.5 -51t28.5 -88q0 -56 -19.5 -101.5t-59.5 -77t-102 -48.5t-146 -17h-262l153 720h220zM278 312l-37 -176h51q45 0 68.5 32t23.5 80q0 32 -15.5 48t-44.5 16h-46zM336 584l-31 -145h38q33 0 55 26
t22 62q0 57 -53 57h-31z" />
    <glyph glyph-name="Gamma" unicode="&#x393;" horiz-adv-x="488" 
d="M566 572h-232l-121 -572h-209l153 720h441z" />
    <glyph glyph-name="uni0394" unicode="&#x394;" horiz-adv-x="648" 
d="M-44 0l373 720h214l68 -720h-655zM230 138h155l8 399z" />
    <glyph glyph-name="Epsilon" unicode="&#x395;" horiz-adv-x="541" 
d="M511 294h-236l-31 -148h261l-30 -146h-471l153 720h471l-32 -148h-262l-29 -140h236z" />
    <glyph glyph-name="Zeta" unicode="&#x396;" horiz-adv-x="561" 
d="M237 145h297l-31 -145h-529l29 136l394 439h-286l32 145h517l-29 -134z" />
    <glyph glyph-name="Eta" unicode="&#x397;" horiz-adv-x="660" 
d="M728 720l-153 -720h-207l61 293h-155l-61 -293h-209l153 720h209l-61 -285h155l61 285h207z" />
    <glyph glyph-name="Theta" unicode="&#x398;" horiz-adv-x="703" 
d="M439 294h-134l30 138h134zM347 132q34 0 65 29t53.5 76.5t36 107t13.5 120.5q0 66 -24.5 95t-62.5 29q-33 0 -63.5 -28.5t-53.5 -75t-36.5 -106.5t-13.5 -122q0 -68 24 -96.5t62 -28.5zM323 -15q-62 0 -112.5 17.5t-86 51.5t-55 85t-19.5 117q0 106 30.5 194t84.5 151.5
t127.5 98.5t158.5 35q61 0 111.5 -17t86.5 -51t56 -84.5t20 -117.5q0 -106 -31 -194.5t-85.5 -152t-128 -98.5t-157.5 -35z" />
    <glyph glyph-name="Iota" unicode="&#x399;" horiz-adv-x="297" 
d="M366 720l-153 -720h-209l153 720h209z" />
    <glyph glyph-name="Kappa" unicode="&#x39a;" horiz-adv-x="693" 
d="M413 0l-138 295l-62 -295h-209l153 720h209l-56 -261l229 261h237l-323 -338l202 -382h-242z" />
    <glyph glyph-name="Lambda" unicode="&#x39b;" horiz-adv-x="642" 
d="M393 0v530l-225 -530h-212l370 720h214l66 -720h-213z" />
    <glyph glyph-name="Mu" unicode="&#x39c;" horiz-adv-x="805" 
d="M284 0l-21 459l-58 -323l-28 -136h-182l153 720h225l26 -517l245 517h237l-153 -720h-183l28 136l74 323l-216 -459h-147z" />
    <glyph glyph-name="Nu" unicode="&#x39d;" horiz-adv-x="654" 
d="M723 720l-153 -720h-198l-100 434l-92 -434h-176l153 720h211l90 -415l89 415h176z" />
    <glyph glyph-name="Xi" unicode="&#x39e;" horiz-adv-x="536" 
d="M469 0h-483l32 153h483zM589 567h-482l33 153h482zM456 290h-327l31 146h327z" />
    <glyph glyph-name="Omicron" unicode="&#x39f;" horiz-adv-x="703" 
d="M347 132q34 0 65 29t53.5 76.5t36 107t13.5 120.5q0 66 -24.5 95t-62.5 29q-33 0 -63.5 -28.5t-53.5 -75t-36.5 -106.5t-13.5 -122q0 -68 24 -96.5t62 -28.5zM323 -15q-62 0 -112.5 17.5t-86 51.5t-55 85t-19.5 117q0 106 30.5 194t84.5 151.5t127.5 98.5t158.5 35
q61 0 111.5 -17t86.5 -51t56 -84.5t20 -117.5q0 -106 -31 -194.5t-85.5 -152t-128 -98.5t-157.5 -35z" />
    <glyph glyph-name="Pi" unicode="&#x3a0;" horiz-adv-x="660" 
d="M728 720l-153 -720h-207l122 577h-155l-122 -577h-209l153 720h571z" />
    <glyph glyph-name="Rho" unicode="&#x3a1;" horiz-adv-x="613" 
d="M396 720q138 0 201 -50.5t63 -138.5q0 -142 -85.5 -221.5t-258.5 -79.5h-55l-48 -230h-209l153 720h239zM335 579l-44 -209h50q22 0 41 10.5t33 28.5t22.5 42t8.5 51q0 77 -74 77h-37z" />
    <glyph glyph-name="Sigma" unicode="&#x3a3;" horiz-adv-x="558" 
d="M396 313l-150 -168h278l-30 -145h-509l27 134l204 225l-108 227l29 134h504l-32 -146h-278l85 -167z" />
    <glyph glyph-name="Tau" unicode="&#x3a4;" horiz-adv-x="559" 
d="M636 569h-173l-121 -569h-209l121 569h-170l32 151h553z" />
    <glyph glyph-name="Upsilon" unicode="&#x3a5;" horiz-adv-x="652" 
d="M186 0l61 288l-134 432h213l55 -270l181 270h203l-319 -432l-61 -288h-199z" />
    <glyph glyph-name="Phi" unicode="&#x3a6;" horiz-adv-x="880" 
d="M303 22q-35 0 -65 11q-90 17 -138 80t-48 160q0 89 27 166.5t77.5 134.5t123.5 90t166 34l9 37h201l-8 -37q119 -4 185.5 -71t66.5 -182q0 -89 -28 -166.5t-79.5 -134.5t-124.5 -89.5t-163 -32.5l-9 -37h-201zM536 169q38 1 67.5 28t50 66.5t31 86.5t10.5 89
q0 54 -21.5 81.5t-56.5 30.5zM415 551q-38 -2 -67 -26.5t-49 -62.5t-30.5 -85t-10.5 -94q0 -54 22.5 -83t53.5 -31z" />
    <glyph glyph-name="Chi" unicode="&#x3a7;" horiz-adv-x="674" 
d="M491 380l140 -380h-232l-59 226l-146 -226h-231l301 373l-134 347h229l54 -198l133 198h221z" />
    <glyph glyph-name="Psi" unicode="&#x3a8;" horiz-adv-x="789" 
d="M352 720l-62 -293q-4 -20 -6.5 -35.5t-2.5 -28.5q0 -24 9 -39t30 -22l90 418h197l-89 -418q19 6 32.5 14t23 21.5t16.5 33.5t13 50l64 299h194l-62 -294q-14 -65 -37 -113t-60 -81t-90 -52t-126 -26l-32 -154h-197l31 153q-106 14 -154.5 67t-48.5 138q0 42 10 88l59 274
h198z" />
    <glyph glyph-name="uni03A9" unicode="&#x3a9;" horiz-adv-x="704" 
d="M366 133q25 0 46.5 17.5t38 45.5t29 64t20.5 73t12 72t4 61q0 67 -23 95t-65 28q-38 0 -70 -32.5t-54.5 -83.5t-35 -114.5t-12.5 -126.5q0 -54 16.5 -76.5t39.5 -22.5l-27 -133h-291l29 140h87q-24 27 -37.5 69.5t-13.5 94.5q0 100 32 180t86.5 135.5t127 85.5t153.5 30
q57 0 106.5 -16.5t86 -49t57.5 -81.5t21 -115q0 -47 -11 -95.5t-31.5 -93t-50 -82t-66.5 -62.5h91l-29 -140h-293z" />
    <glyph glyph-name="Iotadieresis" unicode="&#x3aa;" horiz-adv-x="297" 
d="M366 720l-153 -720h-209l153 720h209zM86 781l31 144h167l-31 -144h-167zM294 781l31 144h169l-31 -144h-169z" />
    <glyph glyph-name="Upsilondieresis" unicode="&#x3ab;" horiz-adv-x="652" 
d="M186 0l61 288l-134 432h213l55 -270l181 270h203l-319 -432l-61 -288h-199zM260 781l31 144h167l-31 -144h-167zM468 781l31 144h169l-31 -144h-169z" />
    <glyph glyph-name="alphatonos" unicode="&#x3ac;" horiz-adv-x="563" 
d="M336 0l-16 63q-32 -34 -66 -56t-78 -22q-71 0 -111 48.5t-40 136.5q0 75 18.5 141.5t51.5 116t78.5 78.5t99.5 29q47 0 81 -17.5t52 -49.5l40 52h153l-110 -520h-153zM316 397q-21 0 -39 -20.5t-30.5 -51.5t-19.5 -68t-7 -70q0 -64 49 -64q22 0 39.5 21.5t29.5 53
t18.5 68t6.5 67.5q0 35 -12 49.5t-35 14.5zM347 720h181l-97 -147h-134z" />
    <glyph glyph-name="epsilontonos" unicode="&#x3ad;" horiz-adv-x="515" 
d="M314 720h181l-97 -147h-134zM300 535q53 0 96 -13t73 -37t45 -56.5t15 -72.5h-184q5 52 -44 52q-18 0 -29.5 -12.5t-11.5 -32.5q0 -40 43 -40h21l-23 -109h-13q-44 0 -62 -17.5t-18 -41.5q0 -39 35 -39q43 0 65 64h185q-18 -42 -43 -78t-59 -62t-77.5 -40.5t-100.5 -14.5
q-54 0 -93 11t-64 29.5t-37 44.5t-12 56q0 61 40 101.5t105 48.5q-39 11 -58.5 38.5t-19.5 63.5t12.5 65t40 49.5t70.5 31.5t103 11z" />
    <glyph glyph-name="etatonos" unicode="&#x3ae;" horiz-adv-x="539" 
d="M103 520h154l11 -57q34 38 67.5 55t76.5 17q62 0 97.5 -36t35.5 -107q0 -29 -8 -69l-107 -503h-194l109 508q2 11 3 21t1 18q0 20 -7.5 27.5t-20.5 7.5q-23 0 -41 -21t-29 -72l-65 -309h-192zM317 720h181l-97 -147h-134z" />
    <glyph glyph-name="iotatonos" unicode="&#x3af;" horiz-adv-x="262" 
d="M190 720h181l-97 -147h-134zM-6 0l110 520h194l-110 -520h-194z" />
    <glyph glyph-name="upsilondieresistonos" unicode="&#x3b0;" horiz-adv-x="526" 
d="M230 -15q-105 0 -155 41.5t-50 116.5q0 14 2 28.5t5 30.5l68 318h192l-70 -330q-2 -11 -3.5 -20t-1.5 -17q0 -20 8.5 -27.5t23.5 -7.5q23 0 34 12.5t20 54.5l72 335h192l-72 -338q-21 -99 -83 -148t-182 -49zM142 585l31 144h154l-31 -144h-154zM395 585l31 144h155
l-31 -144h-155zM370 901h168l-96 -147h-122z" />
    <glyph glyph-name="alpha" unicode="&#x3b1;" horiz-adv-x="563" 
d="M336 0l-16 63q-32 -34 -66 -56t-78 -22q-71 0 -111 48.5t-40 136.5q0 75 18.5 141.5t51.5 116t78.5 78.5t99.5 29q47 0 81 -17.5t52 -49.5l40 52h153l-110 -520h-153zM316 397q-21 0 -39 -20.5t-30.5 -51.5t-19.5 -68t-7 -70q0 -64 49 -64q22 0 39.5 21.5t29.5 53
t18.5 68t6.5 67.5q0 35 -12 49.5t-35 14.5z" />
    <glyph glyph-name="beta" unicode="&#x3b2;" horiz-adv-x="535" 
d="M330 -15q-45 0 -80.5 18.5t-48.5 51.5l-51 -235h-194q37 177 73.5 351.5t74.5 351.5q11 51 31 90.5t51.5 66.5t76.5 41t106 14q109 0 160 -40.5t51 -104.5q0 -35 -12 -67.5t-33.5 -58t-51 -43t-64.5 -23.5q45 -7 72.5 -44.5t27.5 -99.5q0 -61 -14.5 -110.5t-40 -85
t-60 -54.5t-74.5 -19zM292 334l25 113h8q25 0 44.5 28.5t19.5 82.5q0 41 -35 41q-11 0 -19 -5t-15 -17.5t-13.5 -33.5t-13.5 -54q-6 -26 -13.5 -63t-15.5 -72q-9 -40 -18 -84q-2 -12 -4.5 -26t-4.5 -26.5t-3 -21.5t-1 -12q0 -36 8.5 -48.5t25.5 -12.5t30.5 16t22.5 40.5
t14 53.5t5 55q0 25 -9.5 35.5t-23.5 10.5h-14z" />
    <glyph glyph-name="gamma" unicode="&#x3b3;" horiz-adv-x="532" 
d="M91 -180l39 180l-64 520h204l-7 -352l140 352h202l-282 -520l-39 -180h-193z" />
    <glyph glyph-name="delta" unicode="&#x3b4;" horiz-adv-x="525" 
d="M233 720h345l-27 -125h-128q25 -13 45.5 -36.5t34.5 -54.5t22 -67.5t8 -74.5q0 -83 -20.5 -152t-58.5 -119t-92.5 -78t-122.5 -28q-104 0 -160.5 49t-56.5 140q0 64 16.5 120.5t45.5 98.5t68.5 66.5t86.5 24.5q68 0 106 -42q-6 73 -43 118t-91 56zM294 354
q-20 0 -34 -23.5t-28 -82.5q-7 -26 -9.5 -48t-2.5 -39q0 -24 7.5 -34.5t20.5 -10.5q10 0 18.5 5t17 18t16.5 35t16 56q9 39 9 77q0 26 -9.5 36.5t-21.5 10.5z" />
    <glyph glyph-name="epsilon" unicode="&#x3b5;" horiz-adv-x="515" 
d="M300 535q53 0 96 -13t73 -37t45 -56.5t15 -72.5h-184q5 52 -44 52q-18 0 -29.5 -12.5t-11.5 -32.5q0 -40 43 -40h21l-23 -109h-13q-44 0 -62 -17.5t-18 -41.5q0 -39 35 -39q43 0 65 64h185q-18 -42 -43 -78t-59 -62t-77.5 -40.5t-100.5 -14.5q-54 0 -93 11t-64 29.5
t-37 44.5t-12 56q0 61 40 101.5t105 48.5q-39 11 -58.5 38.5t-19.5 63.5t12.5 65t40 49.5t70.5 31.5t103 11z" />
    <glyph glyph-name="zeta" unicode="&#x3b6;" horiz-adv-x="470" 
d="M510 614q-150 -75 -216.5 -171t-66.5 -214q0 -47 19 -82.5t60 -51.5q58 -22 82 -46t24 -59q0 -32 -14.5 -63t-37 -59.5t-51 -52.5t-56.5 -42l-87 83q7 6 16 14.5t16.5 18t12.5 21t5 23.5q0 14 -11 24t-40 20q-69 23 -103 78t-34 133q0 129 65 228.5t193 177.5h-163
l28 126h383z" />
    <glyph glyph-name="eta" unicode="&#x3b7;" horiz-adv-x="539" 
d="M-6 0q27 131 54 260t55 260h154l11 -57q34 38 67.5 55t76.5 17q62 0 97.5 -36t35.5 -107q0 -29 -8 -69l-72 -337q-9 -42 -18 -83t-17 -83h-194l109 508q2 6 3 18.5t1 20.5q0 20 -7.5 27.5t-20.5 7.5q-23 0 -41 -21t-29 -72l-65 -309h-192z" />
    <glyph glyph-name="theta" unicode="&#x3b8;" horiz-adv-x="536" 
d="M234 -15q-94 0 -144 57.5t-50 173.5q0 66 18 153q21 97 50 166.5t68 114t88 65t110 20.5q94 0 144.5 -56.5t50.5 -172.5q0 -34 -5 -73t-14 -84q-41 -191 -118.5 -277.5t-197.5 -86.5zM254 115q12 0 21.5 7t19 27t20.5 56.5t26 95.5h-97q-10 -49 -14 -81.5t-4 -52.5
q0 -30 7.5 -41t20.5 -11zM353 607q-11 0 -20.5 -7t-18.5 -26.5t-19.5 -55t-24.5 -91.5h97q8 45 11.5 75.5t3.5 50.5q0 30 -7.5 42t-21.5 12z" />
    <glyph glyph-name="iota" unicode="&#x3b9;" horiz-adv-x="262" 
d="M-6 0l110 520h194l-110 -520h-194z" />
    <glyph glyph-name="kappa" unicode="&#x3ba;" horiz-adv-x="566" 
d="M-6 0l110 520h192l-39 -184l173 184h200l-237 -235l137 -285h-212l-87 211l-45 -211h-192z" />
    <glyph glyph-name="lambda" unicode="&#x3bb;" horiz-adv-x="537" 
d="M304 0l3 376l-147 -376h-203l276 520h55q0 46 -14 64.5t-37 18.5q-10 0 -24.5 -2.5t-40.5 -9.5l27 130q61 14 103 14q36 0 60.5 -10t41 -34.5t27 -66t16.5 -105.5l53 -519h-196z" />
    <glyph glyph-name="uni03BC" unicode="&#x3bc;" horiz-adv-x="536" 
d="M296 520l-66 -312q-3 -15 -5.5 -29t-2.5 -25q0 -21 7.5 -29t21.5 -8q20 0 36.5 20.5t27.5 73.5l65 309h192l-110 -520h-163l-3 53q-23 -26 -51.5 -41.5t-60.5 -13.5l-37 -178h-191l147 700h193z" />
    <glyph glyph-name="nu" unicode="&#x3bd;" horiz-adv-x="532" 
d="M605 520l-271 -520h-217l-51 520h204l-8 -354l140 354h203z" />
    <glyph glyph-name="xi" unicode="&#x3be;" horiz-adv-x="487" 
d="M166 358q-38 8 -56.5 33t-18.5 59q0 57 36 92.5t113 53.5h-110l27 124h381l-23 -106h-32q-43 0 -79 -10.5t-62.5 -29.5t-41.5 -47t-15 -62q0 -25 16 -38.5t58 -13.5h45l-26 -125h-36q-68 0 -99 -26t-31 -77q0 -27 15 -47t54 -31t66 -23.5t43.5 -27t24 -31t7.5 -36.5
q0 -19 -4 -35q-5 -21 -19.5 -44.5t-35.5 -47.5t-46.5 -47t-51.5 -42l-85 83q18 17 31.5 33.5t17.5 33.5q1 4 1 12q0 14 -13.5 23t-51.5 18q-78 17 -113.5 63t-35.5 108q0 35 10 70t29.5 64t47 49.5t63.5 27.5z" />
    <glyph glyph-name="omicron" unicode="&#x3bf;" horiz-adv-x="556" 
d="M335 535q107 0 165 -52t58 -149q0 -78 -21 -142.5t-61.5 -110.5t-98.5 -71t-132 -25q-104 0 -161 53t-57 150q0 74 19.5 137.5t58 110t96 73t134.5 26.5zM318 406q-16 0 -31.5 -12t-28.5 -38t-23 -69t-14 -104q0 -38 9.5 -54t37.5 -16q27 0 45.5 27t30 64t16.5 74.5
t5 58.5q0 40 -10.5 54.5t-36.5 14.5z" />
    <glyph glyph-name="pi" unicode="&#x3c0;" horiz-adv-x="526" 
d="M530 389l-82 -389h-189l82 389h-71l-82 -389h-189l82 389h-31l28 131h510l-27 -131h-31z" />
    <glyph glyph-name="rho" unicode="&#x3c1;" horiz-adv-x="562" 
d="M320 -15q-38 0 -73 14t-55 41l-48 -220h-192l96 453q15 69 37 118.5t56 81.5t82 47t114 15q109 0 168 -55t59 -151q0 -59 -16.5 -120t-48 -111t-76.5 -81.5t-103 -31.5zM319 398q-22 0 -39 -20.5t-29 -52t-18.5 -68t-6.5 -67.5q0 -38 13 -53t37 -15q21 0 39 19t31 49.5
t20 67.5t7 73q0 37 -14 52t-40 15z" />
    <glyph glyph-name="sigma1" unicode="&#x3c2;" horiz-adv-x="539" 
d="M315 115q76 -22 108 -51.5t32 -73.5q0 -33 -13 -63.5t-34.5 -57.5t-48 -50.5t-53.5 -42.5l-83 84q16 14 31.5 34t15.5 46q0 16 -13.5 26t-45.5 16q-95 17 -140 66t-45 133q0 76 19 140.5t57 112t96 74.5t135 27q104 0 161.5 -50.5t57.5 -133.5v-14h-198q1 5 1 9v9
q0 27 -11 39t-30 12t-35 -18t-27.5 -47t-18 -64.5t-6.5 -70.5q0 -34 20 -55.5t68 -35.5z" />
    <glyph glyph-name="sigma" unicode="&#x3c3;" horiz-adv-x="561" 
d="M540 389q5 -19 9.5 -45.5t4.5 -46.5q0 -65 -21 -122t-60 -99t-96 -66.5t-129 -24.5q-108 0 -164.5 52t-56.5 149q0 78 20 142.5t59 110t96 71t132 25.5q24 0 54.5 -3.5t50.5 -11.5h181l-28 -134zM317 406q-18 0 -35 -16t-30.5 -45.5t-22 -71.5t-8.5 -94q0 -39 11.5 -52.5
t34.5 -13.5q31 0 51 32.5t35 107.5q5 29 8 52.5t3 43.5q0 32 -8.5 44.5t-38.5 12.5z" />
    <glyph glyph-name="tau" unicode="&#x3c4;" horiz-adv-x="464" 
d="M75 520h453l-28 -131h-130l-82 -389h-193l82 389h-129z" />
    <glyph glyph-name="upsilon" unicode="&#x3c5;" horiz-adv-x="526" 
d="M230 -15q-105 0 -155 41.5t-50 116.5q0 14 2 28.5t5 30.5l68 318h192l-70 -330q-2 -11 -3.5 -20t-1.5 -17q0 -20 8.5 -27.5t23.5 -7.5q23 0 34 12.5t20 54.5l72 335h192l-72 -338q-21 -99 -83 -148t-182 -49z" />
    <glyph glyph-name="phi" unicode="&#x3c6;" horiz-adv-x="752" 
d="M229 -10q-107 11 -155.5 61.5t-48.5 128.5q0 36 9 79t24 88.5t35 90t41 82.5h188q-17 -35 -35 -76.5t-32.5 -83.5t-23.5 -80.5t-9 -68.5q0 -31 10 -47.5t29 -24.5l24 113q16 79 37 133t52.5 87.5t76 48t108.5 14.5q96 0 148.5 -46t52.5 -135q0 -62 -17 -124.5
t-56.5 -114.5t-105 -86t-162.5 -39l-36 -170h-190zM451 137q33 4 55.5 25.5t37 52.5t21 67t6.5 71q0 24 -8 34.5t-22 10.5q-9 0 -17 -4t-15 -17t-14 -37t-15 -63z" />
    <glyph glyph-name="chi" unicode="&#x3c7;" horiz-adv-x="550" 
d="M374 181l100 -361h-214l-23 226l-119 -226h-200l250 359l-94 341h207l19 -215l103 215h198z" />
    <glyph glyph-name="psi" unicode="&#x3c8;" horiz-adv-x="738" 
d="M286 520l-55 -257q-8 -38 -8 -60q0 -27 11 -42.5t32 -23.5l81 383h185l-81 -382q20 5 34.5 13t25 21.5t18.5 34t14 50.5l56 263h180l-55 -258q-15 -69 -38.5 -117.5t-60 -80.5t-87 -49.5t-119.5 -24.5l-36 -170h-185l36 169q-100 11 -148.5 58.5t-48.5 136.5q0 42 12 98
l51 238h186z" />
    <glyph glyph-name="omega" unicode="&#x3c9;" horiz-adv-x="728" 
d="M474 380l-28 -164q-3 -17 -4 -30t-1 -24q0 -25 8 -35t20 -10q22 0 37 32.5t24.5 79.5t13.5 98.5t4 90.5q0 14 -1 42.5t-4 59.5h180q4 -28 6 -56.5t2 -60.5q0 -83 -11 -158.5t-38 -133.5t-73.5 -92t-117.5 -34q-38 0 -63.5 10.5t-42 29t-25 43.5t-10.5 53
q-49 -136 -177 -136q-77 0 -116.5 43t-39.5 118q0 44 12 93t30.5 98.5t41 96.5t43.5 86h180q-20 -39 -41 -87t-38.5 -97t-28.5 -95.5t-11 -82.5q0 -23 7 -32t18 -9q17 0 32 18t27 75l35 170h150z" />
    <glyph glyph-name="iotadieresis" unicode="&#x3ca;" horiz-adv-x="262" 
d="M57 585l30 144h137l-30 -144h-137zM236 585l30 144h138l-30 -144h-138zM-6 0l110 520h194l-110 -520h-194z" />
    <glyph glyph-name="upsilondieresis" unicode="&#x3cb;" horiz-adv-x="526" 
d="M230 -15q-105 0 -155 41.5t-50 116.5q0 14 2 28.5t5 30.5l68 318h192l-70 -330q-2 -11 -3.5 -20t-1.5 -17q0 -20 8.5 -27.5t23.5 -7.5q23 0 34 12.5t20 54.5l72 335h192l-72 -338q-21 -99 -83 -148t-182 -49zM154 585l31 144h167l-31 -144h-167zM362 585l31 144h169
l-31 -144h-169z" />
    <glyph glyph-name="omicrontonos" unicode="&#x3cc;" horiz-adv-x="556" 
d="M335 535q107 0 165 -52t58 -149q0 -78 -21 -142.5t-61.5 -110.5t-98.5 -71t-132 -25q-104 0 -161 53t-57 150q0 74 19.5 137.5t58 110t96 73t134.5 26.5zM318 406q-16 0 -31.5 -12t-28.5 -38t-23 -69t-14 -104q0 -38 9.5 -54t37.5 -16q27 0 45.5 27t30 64t16.5 74.5
t5 58.5q0 40 -10.5 54.5t-36.5 14.5zM335 720h181l-97 -147h-134z" />
    <glyph glyph-name="upsilontonos" unicode="&#x3cd;" horiz-adv-x="526" 
d="M333 720h181l-97 -147h-134zM230 -15q-105 0 -155 41.5t-50 116.5q0 14 2 28.5t5 30.5l68 318h192l-70 -330q-2 -11 -3.5 -20t-1.5 -17q0 -20 8.5 -27.5t23.5 -7.5q23 0 34 12.5t20 54.5l72 335h192l-72 -338q-21 -99 -83 -148t-182 -49z" />
    <glyph glyph-name="omegatonos" unicode="&#x3ce;" horiz-adv-x="728" 
d="M474 380l-28 -164q-3 -17 -4 -30t-1 -24q0 -25 8 -35t20 -10q22 0 37 32.5t24.5 79.5t13.5 98.5t4 90.5q0 14 -1 42.5t-4 59.5h180q4 -28 6 -56.5t2 -60.5q0 -83 -11 -158.5t-38 -133.5t-73.5 -92t-117.5 -34q-38 0 -63.5 10.5t-42 29t-25 43.5t-10.5 53
q-49 -136 -177 -136q-77 0 -116.5 43t-39.5 118q0 44 12 93t30.5 98.5t41 96.5t43.5 86h180q-20 -39 -41 -87t-38.5 -97t-28.5 -95.5t-11 -82.5q0 -23 7 -32t18 -9q17 0 32 18t27 75l35 170h150zM435 720h181l-97 -147h-134z" />
    <glyph glyph-name="uni0400" unicode="&#x400;" horiz-adv-x="541" 
d="M511 294h-236l-31 -148h261l-30 -146h-471l153 720h471l-32 -148h-262l-29 -140h236zM469 774h-136l-112 154h187z" />
    <glyph glyph-name="afii10023" unicode="&#x401;" horiz-adv-x="541" 
d="M511 294h-236l-31 -148h261l-30 -146h-471l153 720h471l-32 -148h-262l-29 -140h236zM212 781l31 144h167l-31 -144h-167zM420 781l31 144h169l-31 -144h-169z" />
    <glyph glyph-name="afii10051" unicode="&#x402;" horiz-adv-x="756" 
d="M119 0l121 569h-156l32 151h524l-33 -151h-158l-27 -128q85 70 169 70q83 0 123.5 -39.5t40.5 -124.5q0 -23 -3 -50.5t-10 -58.5l-18 -80q-18 -83 -67 -128t-146 -45q-26 0 -53.5 3.5t-44.5 9.5l29 135q11 -4 20.5 -5.5t16.5 -1.5q16 0 24.5 9.5t13.5 35.5l19 86
q3 13 4.5 26t1.5 24q0 59 -53 59q-45 0 -71.5 -33t-37.5 -88l-52 -245h-209z" />
    <glyph glyph-name="afii10052" unicode="&#x403;" horiz-adv-x="488" 
d="M566 572h-232l-121 -572h-209l153 720h441zM399 929h186l-177 -154h-137z" />
    <glyph glyph-name="afii10053" unicode="&#x404;" horiz-adv-x="667" 
d="M335 128q19 0 35 7.5t30.5 24t26.5 43.5t24 67h210q-49 -143 -136 -214t-223 -71q-119 0 -186 69.5t-67 197.5q0 102 25.5 190t75.5 153t123.5 102.5t169.5 37.5q59 0 107.5 -17.5t82.5 -51t50.5 -78.5t16.5 -95v-16h-207q2 63 -16 89t-53 26q-40 0 -69 -34.5t-54 -120.5
h126l-30 -139h-128q-2 -17 -3 -32.5t-1 -29.5q0 -58 19 -83t51 -25z" />
    <glyph glyph-name="afii10054" unicode="&#x405;" horiz-adv-x="623" 
d="M292 -15q-68 0 -117.5 14.5t-81.5 41.5t-47.5 64.5t-15.5 84.5q0 6 0.5 12t1.5 19h200q-1 -9 -1 -21q0 -32 17.5 -52.5t61.5 -20.5t66.5 18.5t23.5 48.5q0 14 -4 25.5t-15 23t-32 23t-55 25.5q-101 42 -146 91.5t-45 116.5q0 52 19 95.5t56.5 75t94 48.5t130.5 17
q123 0 189 -55t66 -149v-16h-195q1 5 1 8q0 70 -72 70q-37 0 -55 -16.5t-18 -41.5q0 -28 17 -45t64 -36q114 -46 165 -98t51 -122q0 -56 -21 -102t-62 -78.5t-101.5 -50.5t-139.5 -18z" />
    <glyph glyph-name="afii10055" unicode="&#x406;" horiz-adv-x="297" 
d="M366 720l-153 -720h-209l153 720h209z" />
    <glyph glyph-name="afii10056" unicode="&#x407;" horiz-adv-x="297" 
d="M366 720l-153 -720h-209l153 720h209zM86 781l31 144h167l-31 -144h-167zM294 781l31 144h169l-31 -144h-169z" />
    <glyph glyph-name="afii10057" unicode="&#x408;" horiz-adv-x="528" 
d="M214 212q-3 -24 -3 -38q0 -25 7.5 -35t21.5 -10q9 0 16 3.5t13.5 14.5t12.5 31t13 52l104 490h202l-104 -486q-27 -127 -93.5 -188t-179.5 -61q-104 0 -157.5 51t-53.5 142q0 8 0.5 16.5t1.5 17.5h199z" />
    <glyph glyph-name="afii10058" unicode="&#x409;" horiz-adv-x="977" 
d="M678 490h35q135 0 197.5 -48.5t62.5 -137.5q0 -146 -88 -225t-268 -79h-251l123 583h-125l-111 -389q-15 -51 -37.5 -88t-57 -60.5t-82.5 -34.5t-113 -11q8 33 14.5 66t13.5 67q14 0 25 2.5t20 11t16.5 23.5t14.5 39l147 511h513zM648 349l-44 -209h48q22 0 41.5 10
t34 28t23 43t8.5 55q0 36 -19.5 54.5t-54.5 18.5h-37z" />
    <glyph glyph-name="afii10059" unicode="&#x40a;" horiz-adv-x="973" 
d="M723 720l-55 -259h35q134 0 198 -44.5t64 -130.5q0 -137 -84.5 -211.5t-253.5 -74.5h-265l67 320h-149q-17 -81 -34 -160t-34 -160h-208l153 720h208l-55 -259h149l56 259h208zM638 320q-10 -45 -19.5 -90t-18.5 -90h47q21 0 40 8.5t33 24t22.5 36.5t8.5 46
q0 32 -18 48.5t-57 16.5h-38z" />
    <glyph glyph-name="afii10060" unicode="&#x40b;" horiz-adv-x="756" 
d="M119 0l121 569h-156l32 151h524l-33 -151h-158l-27 -126q41 33 81.5 50.5t87.5 17.5q83 0 123.5 -39.5t40.5 -122.5q0 -46 -14 -111l-50 -238h-209l54 255q6 28 6 49q0 62 -52 62q-85 0 -110 -120l-52 -246h-209z" />
    <glyph glyph-name="afii10061" unicode="&#x40c;" horiz-adv-x="693" 
d="M487 928h186l-177 -154h-137zM418 0l-107 293h-34l-62 -293h-209l153 720h209l-61 -286h20l228 286h222l-290 -340l168 -380h-237z" />
    <glyph glyph-name="uni040D" unicode="&#x40d;" horiz-adv-x="656" 
d="M725 720l-153 -720h-208l79 376l-219 -327l-10 -49h-210l153 720h210l-81 -378l220 329l11 49h208zM519 774h-136l-112 154h187z" />
    <glyph glyph-name="afii10062" unicode="&#x40e;" horiz-adv-x="581" 
d="M413 772q-61 0 -96.5 25t-35.5 89q0 5 0.5 10t1.5 10h135q-1 -3 -1 -8q0 -13 5 -18.5t12 -5.5q11 0 17.5 7t13.5 25h134q-26 -71 -73 -102.5t-113 -31.5zM408 185q-30 -56 -57 -94t-56 -61.5t-61.5 -34t-71.5 -10.5q-22 0 -50 4.5t-54 11.5l28 133q20 -7 39 -10t30 -3
q21 0 35 11.5t30 46.5h-52l-55 541h202l2 -397l173 397h204z" />
    <glyph glyph-name="afii10145" unicode="&#x40f;" horiz-adv-x="659" 
d="M386 0l-30 -140h-193l30 140h-189l153 720h209l-124 -576h155l123 576h208l-153 -720h-189z" />
    <glyph glyph-name="afii10017" unicode="&#x410;" horiz-adv-x="648" 
d="M396 157h-161l-67 -157h-211l371 720h214l69 -720h-215v157zM293 295h103l1 243z" />
    <glyph glyph-name="afii10018" unicode="&#x411;" horiz-adv-x="615" 
d="M563 573h-229l-18 -83h35q135 0 197.5 -48.5t62.5 -137.5q0 -146 -88 -225t-268 -79h-251l153 720h438zM286 349l-44 -209h48q22 0 41.5 10t34 28t23 43t8.5 55q0 36 -19.5 54.5t-54.5 18.5h-37z" />
    <glyph glyph-name="afii10019" unicode="&#x412;" horiz-adv-x="606" 
d="M377 720q136 0 197 -40t61 -113q0 -64 -39 -113.5t-110 -70.5q50 -14 78.5 -51t28.5 -88q0 -56 -19.5 -101.5t-59.5 -77t-102 -48.5t-146 -17h-262l153 720h220zM278 312l-37 -176h51q45 0 68.5 32t23.5 80q0 32 -15.5 48t-44.5 16h-46zM336 584l-31 -145h38q33 0 55 26
t22 62q0 57 -53 57h-31z" />
    <glyph glyph-name="afii10020" unicode="&#x413;" horiz-adv-x="488" 
d="M566 572h-232l-121 -572h-209l153 720h441z" />
    <glyph glyph-name="afii10021" unicode="&#x414;" horiz-adv-x="684" 
d="M737 720l-124 -580h71l-60 -280h-187l30 140h-332l-30 -140h-185q15 71 29.5 140t28.5 140h62q20 17 33 43t24 68l127 469h513zM301 301q-14 -56 -39.5 -94t-64.5 -67h214l93 439h-130z" />
    <glyph glyph-name="afii10022" unicode="&#x415;" horiz-adv-x="541" 
d="M511 294h-236l-31 -148h261l-30 -146h-471l153 720h471l-32 -148h-262l-29 -140h236z" />
    <glyph glyph-name="afii10024" unicode="&#x416;" horiz-adv-x="992" 
d="M354 720l66 -286h23l61 286h209l-60 -286h13l189 286h220l-246 -342l124 -378h-232l-70 293h-29l-62 -293h-209l62 293h-20l-193 -293h-241l283 378l-100 342h212z" />
    <glyph glyph-name="afii10025" unicode="&#x417;" horiz-adv-x="599" 
d="M287 128q35 0 60.5 30.5t25.5 85.5q0 66 -62 66h-60l27 127h59q43 0 66.5 28t23.5 73q0 55 -47 55q-29 0 -47 -15t-30 -50h-201q14 45 40.5 82.5t65.5 65.5t90 43.5t114 15.5q57 0 100.5 -12.5t73 -34t44.5 -51.5t15 -65q0 -64 -39.5 -116t-109.5 -74q40 -13 64.5 -49.5
t24.5 -88.5q0 -55 -21.5 -102.5t-62 -82t-99.5 -54.5t-135 -20q-59 0 -105.5 15t-78 41t-48 61t-16.5 76q0 7 0.5 13.5t1.5 13.5h208q-1 -6 -1.5 -11t-0.5 -10q0 -29 15.5 -42.5t44.5 -13.5z" />
    <glyph glyph-name="afii10026" unicode="&#x418;" horiz-adv-x="656" 
d="M725 720l-153 -720h-208l79 376l-219 -327l-10 -49h-210l153 720h210l-81 -378l220 329l11 49h208z" />
    <glyph glyph-name="afii10027" unicode="&#x419;" horiz-adv-x="656" 
d="M445 772q-61 0 -96.5 25t-35.5 89q0 5 0.5 10t1.5 10h135q-1 -3 -1 -8q0 -13 5 -18.5t12 -5.5q11 0 17.5 7t13.5 25h134q-26 -71 -73 -102.5t-113 -31.5zM725 720l-153 -720h-208l79 376l-219 -327l-10 -49h-210l153 720h210l-81 -378l220 329l11 49h208z" />
    <glyph glyph-name="afii10028" unicode="&#x41a;" horiz-adv-x="691" 
d="M416 0l-107 293h-34l-62 -293h-209l153 720h209l-61 -286h20l228 286h222l-290 -340l168 -380h-237z" />
    <glyph glyph-name="afii10029" unicode="&#x41b;" horiz-adv-x="659" 
d="M727 720l-153 -720h-201l123 580h-134l-108 -378q-14 -50 -36 -87.5t-56 -63t-83 -38.5t-116 -13l28 133q15 0 26.5 3t20.5 11.5t16 23.5t14 38l146 511h513z" />
    <glyph glyph-name="afii10030" unicode="&#x41c;" horiz-adv-x="805" 
d="M284 0l-21 459l-58 -323l-28 -136h-182l153 720h225l26 -517l245 517h237l-153 -720h-183l28 136l74 323l-216 -459h-147z" />
    <glyph glyph-name="afii10031" unicode="&#x41d;" horiz-adv-x="660" 
d="M728 720l-153 -720h-207l61 293h-155l-61 -293h-209l153 720h209l-61 -285h155l61 285h207z" />
    <glyph glyph-name="afii10032" unicode="&#x41e;" horiz-adv-x="703" 
d="M347 132q34 0 65 29t53.5 76.5t36 107t13.5 120.5q0 66 -24.5 95t-62.5 29q-33 0 -63.5 -28.5t-53.5 -75t-36.5 -106.5t-13.5 -122q0 -68 24 -96.5t62 -28.5zM323 -15q-62 0 -112.5 17.5t-86 51.5t-55 85t-19.5 117q0 106 30.5 194t84.5 151.5t127.5 98.5t158.5 35
q61 0 111.5 -17t86.5 -51t56 -84.5t20 -117.5q0 -106 -31 -194.5t-85.5 -152t-128 -98.5t-157.5 -35z" />
    <glyph glyph-name="afii10033" unicode="&#x41f;" horiz-adv-x="660" 
d="M728 720l-153 -720h-207l122 577h-155l-122 -577h-209l153 720h571z" />
    <glyph glyph-name="afii10034" unicode="&#x420;" horiz-adv-x="613" 
d="M396 720q138 0 201 -50.5t63 -138.5q0 -142 -85.5 -221.5t-258.5 -79.5h-55l-48 -230h-209l153 720h239zM335 579l-44 -209h50q22 0 41 10.5t33 28.5t22.5 42t8.5 51q0 77 -74 77h-37z" />
    <glyph glyph-name="afii10035" unicode="&#x421;" horiz-adv-x="669" 
d="M333 128q41 0 69.5 34.5t50.5 113.5h211q-50 -147 -135.5 -219t-215.5 -72q-131 0 -197 68t-66 193q0 108 27.5 198t78 154.5t122.5 100.5t162 36q130 0 194.5 -67t65.5 -174v-23h-207q3 67 -15 94t-55 27q-35 0 -64.5 -32.5t-50.5 -84t-32.5 -115t-11.5 -125.5
q0 -59 18.5 -83t50.5 -24z" />
    <glyph glyph-name="afii10036" unicode="&#x422;" horiz-adv-x="559" 
d="M636 569h-173l-121 -569h-209l121 569h-170l32 151h553z" />
    <glyph glyph-name="afii10037" unicode="&#x423;" horiz-adv-x="581" 
d="M408 185q-30 -56 -57 -94t-56 -61.5t-61.5 -34t-71.5 -10.5q-22 0 -50 4.5t-54 11.5l28 133q20 -7 39 -10t30 -3q21 0 35 11.5t30 46.5h-52l-55 541h202l2 -397l173 397h204z" />
    <glyph glyph-name="afii10038" unicode="&#x424;" horiz-adv-x="880" 
d="M303 22q-35 0 -65 11q-90 17 -138 80t-48 160q0 89 27 166.5t77.5 134.5t123.5 90t166 34l9 37h201l-8 -37q119 -4 185.5 -71t66.5 -182q0 -89 -28 -166.5t-79.5 -134.5t-124.5 -89.5t-163 -32.5l-9 -37h-201zM536 169q38 1 67.5 28t50 66.5t31 86.5t10.5 89
q0 54 -21.5 81.5t-56.5 30.5zM415 551q-38 -2 -67 -26.5t-49 -62.5t-30.5 -85t-10.5 -94q0 -54 22.5 -83t53.5 -31z" />
    <glyph glyph-name="afii10039" unicode="&#x425;" horiz-adv-x="674" 
d="M491 380l140 -380h-232l-59 226l-146 -226h-231l301 373l-134 347h229l54 -198l133 198h221z" />
    <glyph glyph-name="afii10040" unicode="&#x426;" horiz-adv-x="678" 
d="M242 144h156l123 576h207l-123 -577h74l-60 -283h-193l30 140h-452l153 720h209z" />
    <glyph glyph-name="afii10041" unicode="&#x427;" horiz-adv-x="648" 
d="M716 720l-153 -720h-208l57 272q-80 -69 -166 -69q-85 0 -126 39.5t-41 123.5q0 23 3 50.5t10 58.5l53 245h209l-57 -264q-3 -16 -5 -28.5t-2 -23.5q0 -31 14 -43.5t40 -12.5q37 0 66.5 29.5t42.5 88.5l55 254h208z" />
    <glyph glyph-name="afii10042" unicode="&#x428;" horiz-adv-x="864" 
d="M4 0l153 720h207l-123 -576h79l123 576h204l-123 -576h79l123 576h207l-153 -720h-776z" />
    <glyph glyph-name="afii10043" unicode="&#x429;" horiz-adv-x="883" 
d="M4 0l153 720h208l-123 -576h77l123 576h205l-124 -576h80l123 576h207l-123 -577h73l-59 -283h-194l30 140h-656z" />
    <glyph glyph-name="afii10044" unicode="&#x42a;" horiz-adv-x="758" 
d="M122 720h387l-50 -230h35q135 0 197.5 -49t62.5 -137q0 -146 -88.5 -225t-266.5 -79h-252l121 571h-178zM430 349l-45 -209h49q21 0 40.5 10t34 28t23 43t8.5 55q0 36 -19.5 54.5t-54.5 18.5h-36z" />
    <glyph glyph-name="afii10045" unicode="&#x42b;" horiz-adv-x="880" 
d="M949 720l-153 -720h-209l153 720h209zM316 490h35q135 0 197.5 -48.5t62.5 -137.5q0 -146 -88 -225t-268 -79h-251l153 720h208zM286 349l-44 -209h48q22 0 41.5 10t34 28t23 43t8.5 55q0 36 -19.5 54.5t-54.5 18.5h-37z" />
    <glyph glyph-name="afii10046" unicode="&#x42c;" horiz-adv-x="615" 
d="M316 490h35q135 0 197.5 -48.5t62.5 -137.5q0 -146 -88 -225t-268 -79h-251l153 720h208zM286 349l-44 -209h48q22 0 41.5 10t34 28t23 43t8.5 55q0 36 -19.5 54.5t-54.5 18.5h-37z" />
    <glyph glyph-name="afii10047" unicode="&#x42d;" horiz-adv-x="668" 
d="M346 437h126q2 17 3.5 32t1.5 28q0 50 -17.5 72.5t-47.5 22.5q-39 0 -65.5 -26.5t-49.5 -88.5h-208q45 123 132.5 190.5t214.5 67.5q125 0 190 -66.5t65 -187.5q0 -103 -26 -193.5t-75.5 -157.5t-122 -106t-165.5 -39q-131 0 -197.5 62t-66.5 183q0 9 0.5 19t1.5 21h209
q-2 -13 -3 -24.5t-1 -21.5q0 -51 19.5 -73.5t54.5 -22.5q41 0 71.5 39.5t53.5 130.5h-128z" />
    <glyph glyph-name="afii10048" unicode="&#x42e;" horiz-adv-x="981" 
d="M607 -15q-124 0 -193 69.5t-69 194.5q0 11 0.5 22t1.5 22h-73l-61 -293h-209l153 720h209l-61 -285h75q51 155 146.5 227.5t216.5 72.5q57 0 105 -17.5t82.5 -51t53.5 -84t19 -116.5q0 -104 -29.5 -192t-82 -152t-125 -100.5t-159.5 -36.5zM631 132q36 0 66 31.5t51.5 81
t33.5 109.5t12 117q0 62 -20.5 90t-55.5 28t-65 -30.5t-51.5 -79t-34 -108.5t-12.5 -120q0 -65 22 -92t54 -27z" />
    <glyph glyph-name="afii10049" unicode="&#x42f;" horiz-adv-x="646" 
d="M-40 0l228 291q-35 19 -57 59t-22 90q0 65 22.5 117t65 88t104.5 55.5t141 19.5h273l-153 -720h-209l53 250h-41l-181 -250h-224zM327 463q0 -32 18 -51.5t52 -19.5h39l39 186h-39q-50 0 -79.5 -30.5t-29.5 -84.5z" />
    <glyph glyph-name="afii10065" unicode="&#x430;" horiz-adv-x="514" 
d="M65 365q29 82 91 126t165 44q96 0 147 -42.5t51 -117.5q0 -23 -6 -50l-69 -325h-147l-12 55q-26 -31 -64 -50.5t-87 -19.5q-63 0 -98.5 36t-35.5 93q0 83 52 132t177 69l92 14l4 20q3 16 3 29q0 29 -26 29q-35 0 -47 -42h-190zM223 111q32 0 46.5 26.5t25.5 71.5l5 20
q-60 -7 -85 -29t-25 -52q0 -37 33 -37z" />
    <glyph glyph-name="afii10066" unicode="&#x431;" horiz-adv-x="550" 
d="M305 657q35 8 58.5 15t38.5 14.5t22.5 15.5t10.5 18h193q-7 -27 -21.5 -48.5t-41 -39.5t-66.5 -34t-98 -31q-62 -16 -95.5 -44.5t-52.5 -80.5q24 26 60 41.5t75 15.5q74 0 117.5 -46t43.5 -133q0 -77 -20.5 -138.5t-60 -105.5t-97 -67.5t-130.5 -23.5q-211 0 -211 201
q0 90 22 170t59.5 142.5t87.5 104t106 54.5zM307 371q-29 0 -46 -25t-32 -88q-5 -23 -8.5 -43.5t-3.5 -40.5q0 -33 12 -47t34 -14q32 0 50.5 31t31.5 103q3 16 5 32.5t2 30.5q0 33 -11.5 47t-33.5 14z" />
    <glyph glyph-name="afii10067" unicode="&#x432;" horiz-adv-x="532" 
d="M-6 0l110 520h248q102 0 148 -30t46 -82q0 -49 -34.5 -85t-109.5 -50q57 -9 82.5 -37.5t25.5 -67.5q0 -37 -13.5 -68t-43 -53t-76.5 -34.5t-114 -12.5h-269zM230 211l-19 -91h40q35 0 51.5 15t16.5 41q0 15 -10.5 25t-31.5 10h-47zM271 400l-17 -78h45q22 0 34 12.5
t12 33.5q0 14 -10 23t-29 9h-35z" />
    <glyph glyph-name="afii10068" unicode="&#x433;" horiz-adv-x="403" 
d="M466 520l-27 -131h-171l-82 -389h-192q27 131 54 260t55 260h363z" />
    <glyph glyph-name="afii10069" unicode="&#x434;" horiz-adv-x="593" 
d="M24 131q13 8 25 27t25 61l93 301h434l-82 -389h66l-58 -271h-178l30 140h-248l-30 -140h-177l56 271h44zM265 247q-12 -44 -35 -72t-56 -44h157l54 258h-83z" />
    <glyph glyph-name="afii10070" unicode="&#x435;" horiz-adv-x="551" 
d="M520 164q-15 -38 -39.5 -70.5t-58 -56.5t-76.5 -38t-96 -14q-105 0 -163 55.5t-58 152.5q0 79 21 142t60 107.5t94 68.5t124 24q102 0 160 -55t58 -160q0 -44 -11 -102h-312q-3 -21 -3 -40q0 -35 13 -48.5t37 -13.5q21 0 34.5 12t21.5 36h194zM318 414q-24 0 -41.5 -19.5
t-32.5 -75.5h114q2 12 3 22t1 18q0 29 -11 42t-33 13z" />
    <glyph glyph-name="afii10072" unicode="&#x436;" horiz-adv-x="801" 
d="M273 520l45 -186h16l40 186h193l-39 -186h9l123 186h203l-188 -243l85 -277h-214l-27 203h-19l-43 -203h-193l43 203h-16l-109 -203h-221l202 283l-86 237h196z" />
    <glyph glyph-name="afii10073" unicode="&#x437;" horiz-adv-x="515" 
d="M331 535q54 0 91.5 -9.5t61 -26t34 -40t10.5 -51.5q0 -47 -34 -84t-96 -48q45 -6 68 -35t23 -70t-15 -75.5t-46.5 -59t-80 -38t-114.5 -13.5q-57 0 -98.5 14t-68 40t-38 61t-11.5 80h187q-3 -37 8.5 -51.5t34.5 -14.5q20 0 34 17t14 44q0 20 -12 30t-42 10h-9l23 107h19
q54 0 54 52q0 33 -31 33q-41 0 -55 -52h-185q13 39 37 72t58.5 57t79.5 37.5t99 13.5z" />
    <glyph glyph-name="afii10074" unicode="&#x438;" horiz-adv-x="541" 
d="M-6 0l110 520h193l-51 -239l131 205l7 34h193l-110 -520h-193l50 239l-131 -208l-6 -31h-193z" />
    <glyph glyph-name="afii10075" unicode="&#x439;" horiz-adv-x="541" 
d="M349 576q-61 0 -96.5 25t-35.5 89q0 5 0.5 10t1.5 10h135q-1 -3 -1 -8q0 -13 5 -18.5t12 -5.5q11 0 17.5 7t13.5 25h134q-26 -71 -73 -102.5t-113 -31.5zM-6 0l110 520h193l-51 -239l131 205l7 34h193l-110 -520h-193l50 239l-131 -208l-6 -31h-193z" />
    <glyph glyph-name="afii10076" unicode="&#x43a;" horiz-adv-x="566" 
d="M-6 0l110 520h192l-40 -186h14l164 186h196l-219 -244l119 -276h-210l-72 203h-19l-43 -203h-192z" />
    <glyph glyph-name="afii10077" unicode="&#x43b;" horiz-adv-x="574" 
d="M611 520l-110 -520h-193l82 390h-84l-54 -196q-14 -49 -35 -85.5t-54 -60.5t-80.5 -36t-113.5 -12l27 130q29 0 47 15.5t31 60.5l90 314h447z" />
    <glyph glyph-name="afii10078" unicode="&#x43c;" horiz-adv-x="643" 
d="M227 30l5 288l-45 -238l-17 -80h-176l109 520h224l-2 -296l119 296h235l-110 -520h-188l17 80l54 232l-115 -282h-110z" />
    <glyph glyph-name="afii10079" unicode="&#x43d;" horiz-adv-x="540" 
d="M296 520l-38 -177h88l37 177h193l-110 -520h-193l45 212h-87l-45 -212h-192l109 520h193z" />
    <glyph glyph-name="afii10080" unicode="&#x43e;" horiz-adv-x="556" 
d="M335 535q107 0 165 -52t58 -149q0 -78 -21 -142.5t-61.5 -110.5t-98.5 -71t-132 -25q-104 0 -161 53t-57 150q0 74 19.5 137.5t58 110t96 73t134.5 26.5zM318 406q-16 0 -31.5 -12t-28.5 -38t-23 -69t-14 -104q0 -38 9.5 -54t37.5 -16q27 0 45.5 27t30 64t16.5 74.5
t5 58.5q0 40 -10.5 54.5t-36.5 14.5z" />
    <glyph glyph-name="afii10081" unicode="&#x43f;" horiz-adv-x="540" 
d="M576 520l-110 -520h-193l83 389h-88l-82 -389h-192q27 131 54 260t55 260h473z" />
    <glyph glyph-name="afii10082" unicode="&#x440;" horiz-adv-x="566" 
d="M269 459q64 76 149 76q69 0 111.5 -45.5t42.5 -134.5q0 -76 -19 -143t-52.5 -117.5t-79.5 -80t-100 -29.5q-39 0 -74.5 16t-51.5 42l-47 -223h-193l149 700h146zM375 332q0 36 -13 50.5t-39 14.5q-24 0 -41.5 -20.5t-29.5 -52t-18 -68t-6 -68.5q0 -36 13 -50.5t39 -14.5
t44 23.5t29.5 57t16.5 69t5 59.5z" />
    <glyph glyph-name="afii10083" unicode="&#x441;" horiz-adv-x="539" 
d="M520 192q-41 -102 -109.5 -154.5t-169.5 -52.5q-110 0 -162.5 51.5t-52.5 142.5q0 79 20 144.5t59 112.5t95.5 73t130.5 26q51 0 92 -13.5t69.5 -37.5t44 -58t15.5 -75v-11h-196q1 4 1 7v7q0 26 -11.5 39t-29.5 13q-21 0 -38 -21t-29.5 -54t-19.5 -74t-7 -81
q0 -33 10.5 -47t27.5 -14q23 0 37.5 17.5t25.5 59.5h197z" />
    <glyph glyph-name="afii10084" unicode="&#x442;" horiz-adv-x="464" 
d="M75 520h453l-28 -131h-130l-82 -389h-193l82 389h-129z" />
    <glyph glyph-name="afii10085" unicode="&#x443;" horiz-adv-x="538" 
d="M611 520l-270 -519q-29 -56 -54.5 -93.5t-52 -60t-56 -32.5t-65.5 -10q-50 0 -104 14l28 130q29 -8 43.5 -10t23.5 -2q20 0 34 13.5t28 49.5h-42l-58 520h199l-8 -371l157 371h197z" />
    <glyph glyph-name="afii10086" unicode="&#x444;" horiz-adv-x="843" 
d="M590 -15q-30 0 -58.5 12t-46.5 35l-46 -212h-193l45 212q-29 -23 -57 -35t-58 -12q-69 0 -110 48.5t-41 139.5q0 73 17 139t49 115.5t78.5 78.5t105.5 29q35 0 65 -13t48 -37l50 235h193l-50 -235q26 24 55 37t65 13q67 0 107 -45t40 -133q0 -77 -19 -144.5t-53 -118
t-81.5 -80t-104.5 -29.5zM606 398q-23 0 -41 -21t-30 -52.5t-18.5 -68.5t-6.5 -70q0 -35 12 -48.5t32 -13.5q22 0 40.5 18.5t31.5 48t20.5 66t7.5 72.5q0 41 -11.5 55t-36.5 14zM311 398q-22 0 -39 -19.5t-28.5 -49.5t-17.5 -66.5t-6 -71.5q0 -38 12.5 -53t35.5 -15
q21 0 38 18t29.5 47.5t19.5 67t7 75.5t-14 52.5t-37 14.5z" />
    <glyph glyph-name="afii10087" unicode="&#x445;" horiz-adv-x="550" 
d="M398 274l115 -274h-218l-37 142l-96 -142h-206l228 274l-110 246h214l32 -125l79 125h202z" />
    <glyph glyph-name="afii10088" unicode="&#x446;" horiz-adv-x="568" 
d="M494 130h65l-57 -270h-178l30 140h-360l109 520h193l-83 -390h88l82 390h193z" />
    <glyph glyph-name="afii10089" unicode="&#x447;" horiz-adv-x="530" 
d="M290 520l-46 -217q-2 -7 -2.5 -16t-0.5 -16q0 -20 7 -26.5t21 -6.5q20 0 37 21.5t28 74.5l40 186h192l-110 -520h-192l33 158q-28 -26 -58 -39.5t-67 -13.5q-128 0 -128 132q0 47 14 111l39 172h193z" />
    <glyph glyph-name="afii10090" unicode="&#x448;" horiz-adv-x="746" 
d="M-6 0l109 520h193l-83 -390h54l82 390h187l-83 -390h54l83 390h192l-110 -520h-678z" />
    <glyph glyph-name="afii10091" unicode="&#x449;" horiz-adv-x="775" 
d="M700 130h66l-57 -270h-179l30 140h-566l109 520h193l-83 -390h54l82 390h187l-83 -390h54l83 390h192z" />
    <glyph glyph-name="afii10092" unicode="&#x44a;" horiz-adv-x="639" 
d="M408 520l-30 -142h75q78 0 123 -40.5t45 -109.5q0 -106 -67 -167t-193 -61h-255l82 389h-141l28 131h333zM353 260l-30 -143h9q45 0 71.5 22.5t26.5 70.5q0 26 -14.5 38t-46.5 12h-16z" />
    <glyph glyph-name="afii10093" unicode="&#x44b;" horiz-adv-x="769" 
d="M502 0l110 520h194l-110 -520h-194zM295 520l-30 -142h75q78 0 123 -41.5t45 -108.5q0 -106 -67 -167t-193 -61h-254q27 131 54 260t55 260h192zM240 260l-30 -143h9q45 0 71.5 22.5t26.5 70.5q0 26 -14.5 38t-46.5 12h-16z" />
    <glyph glyph-name="afii10094" unicode="&#x44c;" horiz-adv-x="526" 
d="M295 520l-30 -142h75q78 0 123 -41.5t45 -108.5q0 -106 -67 -167t-193 -61h-254q27 131 54 260t55 260h192zM240 260l-30 -143h9q45 0 71.5 22.5t26.5 70.5q0 26 -14.5 38t-46.5 12h-16z" />
    <glyph glyph-name="afii10095" unicode="&#x44d;" horiz-adv-x="538" 
d="M217 186q-3 -38 8.5 -55t33.5 -17q21 0 37 22.5t30 84.5h-81l20 94h79q2 13 3 23t1 18q0 27 -10.5 38.5t-27.5 11.5q-24 0 -39 -15.5t-21 -44.5h-197q12 40 35.5 74.5t58.5 60t81 40t102 14.5q100 0 155 -54.5t55 -150.5q0 -75 -20 -138.5t-58.5 -109.5t-94.5 -71.5
t-129 -25.5q-106 0 -162.5 53.5t-56.5 147.5h198z" />
    <glyph glyph-name="afii10096" unicode="&#x44e;" horiz-adv-x="783" 
d="M296 520q-9 -45 -18.5 -88.5t-19.5 -88.5h49q39 97 104 144.5t165 47.5q99 0 154 -51t55 -148q0 -78 -21 -143t-61 -111t-96.5 -71.5t-127.5 -25.5q-99 0 -152.5 53.5t-53.5 149.5v12q0 6 1 12h-43l-45 -212h-192q27 131 54 260t55 260h193zM556 406q-29 0 -46 -30
t-33 -104q-7 -31 -9.5 -59t-2.5 -48q0 -29 9.5 -40.5t27.5 -11.5q27 0 45 34t33 104q13 64 13 106q0 27 -9 38t-28 11z" />
    <glyph glyph-name="afii10097" unicode="&#x44f;" horiz-adv-x="552" 
d="M-37 0l170 189q-64 39 -64 116q0 100 68.5 157.5t210.5 57.5h240l-110 -520h-192l33 160h-29l-125 -160h-202zM344 278l27 125h-31q-41 0 -59 -23t-18 -55q0 -47 57 -47h24z" />
    <glyph glyph-name="uni0450" unicode="&#x450;" horiz-adv-x="551" 
d="M520 164q-15 -38 -39.5 -70.5t-58 -56.5t-76.5 -38t-96 -14q-105 0 -163 55.5t-58 152.5q0 79 21 142t60 107.5t94 68.5t124 24q102 0 160 -55t58 -160q0 -44 -11 -102h-312q-3 -21 -3 -40q0 -35 13 -48.5t37 -13.5q21 0 34.5 12t21.5 36h194zM318 414q-24 0 -41.5 -19.5
t-32.5 -75.5h114q2 12 3 22t1 18q0 29 -11 42t-33 13zM410 578h-136l-112 154h187z" />
    <glyph glyph-name="afii10071" unicode="&#x451;" horiz-adv-x="551" 
d="M520 164q-15 -38 -39.5 -70.5t-58 -56.5t-76.5 -38t-96 -14q-105 0 -163 55.5t-58 152.5q0 79 21 142t60 107.5t94 68.5t124 24q102 0 160 -55t58 -160q0 -44 -11 -102h-312q-3 -21 -3 -40q0 -35 13 -48.5t37 -13.5q21 0 34.5 12t21.5 36h194zM318 414q-24 0 -41.5 -19.5
t-32.5 -75.5h114q2 12 3 22t1 18q0 29 -11 42t-33 13zM165 577l31 144h167l-31 -144h-167zM373 577l31 144h169l-31 -144h-169z" />
    <glyph glyph-name="afii10099" unicode="&#x452;" horiz-adv-x="545" 
d="M118 558h-30q6 32 13 64.5t14 65.5h31q2 8 3.5 16t3.5 16h193q-2 -8 -3.5 -16t-3.5 -16h83l-27 -130h-84l-17 -81q29 29 61 43.5t72 14.5q60 0 93 -34t33 -98q0 -17 -1.5 -35.5t-6.5 -38.5l-76 -354q-17 -81 -67 -125.5t-138 -44.5q-24 0 -49.5 5t-42.5 11
q8 33 14.5 66.5t13.5 67.5q11 -5 21.5 -6.5t17.5 -1.5q17 0 25.5 9t14.5 36l73 338q1 5 2.5 17t1.5 20q0 20 -7.5 27.5t-20.5 7.5q-23 0 -41 -20t-29 -71l-65 -311h-193z" />
    <glyph glyph-name="afii10100" unicode="&#x453;" horiz-adv-x="403" 
d="M323 735h186l-177 -154h-137zM466 520l-27 -131h-171l-82 -389h-192q27 131 54 260t55 260h363z" />
    <glyph glyph-name="afii10101" unicode="&#x454;" horiz-adv-x="538" 
d="M517 186q-15 -42 -39.5 -78.5t-58.5 -64t-78 -43t-99 -15.5q-106 0 -160.5 51t-54.5 145q0 78 21.5 143.5t62 112t97 72.5t127.5 26q50 0 90 -13.5t68.5 -37.5t43.5 -57t15 -72v-9h-197q1 5 1 13q0 47 -40 47q-25 0 -40 -19.5t-29 -71.5h79l-20 -94h-82q-3 -14 -4 -26
t-1 -22q0 -32 11 -45.5t31 -13.5t34 16.5t27 55.5h195z" />
    <glyph glyph-name="afii10102" unicode="&#x455;" horiz-adv-x="526" 
d="M252 112q25 0 36.5 10.5t11.5 25.5q0 13 -11.5 23t-48.5 24q-51 15 -84.5 33t-53.5 38t-28 43t-8 47q0 83 58 131t187 48q52 0 93.5 -12.5t70.5 -34.5t44 -52t15 -67h-187q0 18 -11 29t-37 11q-19 0 -28.5 -8.5t-9.5 -21.5q0 -7 2 -13t9 -11.5t20 -11.5t36 -13
q48 -15 80.5 -33.5t52 -38.5t27.5 -43t8 -47q0 -82 -65 -132.5t-204 -50.5q-109 0 -161.5 45.5t-53.5 116.5q0 5 1 9h189q0 -23 11.5 -33.5t38.5 -10.5z" />
    <glyph glyph-name="afii10103" unicode="&#x456;" horiz-adv-x="260" 
d="M110 574l31 146h204l-31 -146h-204zM-6 0l110 520h194l-110 -520h-194z" />
    <glyph glyph-name="afii10104" unicode="&#x457;" horiz-adv-x="262" 
d="M57 576l30 144h137l-30 -144h-137zM236 576l30 144h138l-30 -144h-138zM-6 0l110 520h194l-110 -520h-194z" />
    <glyph glyph-name="afii10105" unicode="&#x458;" horiz-adv-x="264" 
d="M-85 -46q11 -4 21.5 -6t17.5 -2q17 0 26 9.5t15 35.5l112 529h193l-116 -545q-17 -82 -67 -126t-138 -44q-24 0 -49.5 4.5t-42.5 11.5zM110 574l31 146h204l-31 -146h-204z" />
    <glyph glyph-name="afii10106" unicode="&#x459;" horiz-adv-x="842" 
d="M611 520l-30 -142h75q79 0 123.5 -40.5t44.5 -109.5q0 -106 -67 -167t-193 -61h-255l82 389h-86l-54 -195q-14 -49 -35.5 -85.5t-55 -60.5t-80.5 -36t-111 -12l28 130q30 0 47 15.5t30 60.5q22 79 44 157t45 157h448zM556 260l-30 -143h9q45 0 71.5 22.5t26.5 70.5
q0 26 -14.5 38t-46.5 12h-16z" />
    <glyph glyph-name="afii10107" unicode="&#x45a;" horiz-adv-x="806" 
d="M576 520l-30 -142h75q78 0 123 -40.5t45 -109.5q0 -106 -67.5 -167t-192.5 -61h-255l45 212h-88l-45 -212h-192l109 520h193q-9 -45 -18.5 -88.5t-19.5 -88.5h88l38 177h192zM520 260l-29 -143h9q46 0 72 23t26 70q0 50 -61 50h-17z" />
    <glyph glyph-name="afii10108" unicode="&#x45b;" horiz-adv-x="545" 
d="M118 558h-30l27 130h31l7 32h193l-7 -32h83l-27 -130h-84l-17 -81q29 29 61 43.5t72 14.5q60 0 93 -34t33 -98q0 -17 -1.5 -35.5t-6.5 -38.5l-70 -329h-193l67 316q3 14 4.5 28.5t1.5 22.5q0 20 -7 27.5t-20 7.5q-23 0 -41 -20t-29 -71l-65 -311h-193z" />
    <glyph glyph-name="afii10109" unicode="&#x45c;" horiz-adv-x="566" 
d="M390 735h186l-177 -154h-137zM-6 0l110 520h192l-40 -186h14l164 186h196l-219 -244l119 -276h-210l-72 203h-19l-43 -203h-192z" />
    <glyph glyph-name="uni045D" unicode="&#x45d;" horiz-adv-x="541" 
d="M-6 0l110 520h193l-51 -239l131 205l7 34h193l-110 -520h-193l50 239l-131 -208l-6 -31h-193zM415 578h-136l-112 154h187z" />
    <glyph glyph-name="afii10110" unicode="&#x45e;" horiz-adv-x="538" 
d="M611 520l-270 -519q-29 -56 -54.5 -93.5t-52 -60t-56 -32.5t-65.5 -10q-50 0 -104 14l28 130q29 -8 43.5 -10t23.5 -2q20 0 34 13.5t28 49.5h-42l-58 520h199l-8 -371l157 371h197zM351 576q-61 0 -96.5 25t-35.5 89q0 5 0.5 10t1.5 10h135q-1 -3 -1 -8q0 -13 5 -18.5
t12 -5.5q11 0 17.5 7t13.5 25h134q-26 -71 -73 -102.5t-113 -31.5z" />
    <glyph glyph-name="afii10193" unicode="&#x45f;" horiz-adv-x="540" 
d="M319 0l-30 -140h-178l30 140h-147l110 520h192l-82 -389h87l83 389h193l-110 -520h-148z" />
    <glyph glyph-name="afii10146" unicode="&#x462;" horiz-adv-x="730" 
d="M639 720q-8 -38 -16 -75.5t-16 -75.5h-159q-4 -20 -8 -39.5t-9 -39.5h35q135 0 197.5 -49t62.5 -137q0 -146 -88.5 -225t-266.5 -79h-252q31 143 61 284.5t60 284.5h-157l33 151h523zM402 349l-45 -209h49q21 0 40.5 10t34 28t23 43t8.5 55q0 36 -19 54.5t-54 18.5h-37z
" />
    <glyph glyph-name="afii10194" unicode="&#x463;" horiz-adv-x="566" 
d="M324 466l-19 -88h75q79 0 123.5 -40.5t44.5 -109.5q0 -106 -67 -167t-193 -61h-255l98 466h-66l28 131h66l15 69h192l-15 -69h87l-27 -131h-87zM280 260l-30 -143h9q45 0 71.5 22.5t26.5 70.5q0 26 -14.5 38t-46.5 12h-16z" />
    <glyph glyph-name="afii10147" unicode="&#x472;" horiz-adv-x="703" 
d="M323 -15q-62 0 -112.5 17.5t-86 51.5t-55 85t-19.5 117q0 106 30.5 194t84.5 151.5t127.5 98.5t158.5 35q61 0 111.5 -17t86.5 -51t56 -84.5t20 -117.5q0 -106 -31 -194.5t-85.5 -152t-128 -98.5t-157.5 -35zM347 132q22 0 42 12t38 33.5t33.5 51t26.5 64.5h-225
q-1 -6 -1 -19v-17q0 -68 24 -96.5t62 -28.5zM428 589q-42 0 -78.5 -43.5t-59.5 -110.5h224q0 8 0.5 15t0.5 15q0 66 -24.5 95t-62.5 29z" />
    <glyph glyph-name="afii10195" unicode="&#x473;" horiz-adv-x="556" 
d="M335 535q108 0 165.5 -51.5t57.5 -149.5q0 -78 -21 -142.5t-61.5 -110t-98.5 -71t-132 -25.5q-104 0 -160.5 53t-56.5 151q0 74 19 137.5t57.5 110t96 72.5t134.5 26zM266 113q28 0 46 23t32 75h-121q-1 -12 -1.5 -22.5t-0.5 -19.5q0 -30 11 -43t34 -13zM318 407
q-26 0 -43 -21t-31 -69h120q1 10 1.5 18.5t0.5 16.5q0 30 -12 42.5t-36 12.5z" />
    <glyph glyph-name="afii10148" unicode="&#x474;" horiz-adv-x="624" 
d="M737 720l-351 -720h-228l-45 720h211l-12 -533l218 533h207z" />
    <glyph glyph-name="afii10196" unicode="&#x475;" horiz-adv-x="532" 
d="M605 520l-271 -520h-217l-51 520h204l-8 -354l140 354h203z" />
    <glyph glyph-name="afii10050" unicode="&#x490;" horiz-adv-x="488" 
d="M626 855l-60 -284h-233l-121 -571h-208l153 720h248l28 135h193z" />
    <glyph glyph-name="afii10098" unicode="&#x491;" horiz-adv-x="403" 
d="M289 520l28 131h177l-55 -262h-171l-82 -389h-192l109 520h186z" />
    <glyph glyph-name="uni0492" unicode="&#x492;" horiz-adv-x="526" 
d="M604 572h-233l-29 -140h122l-29 -138h-123l-62 -294h-208l62 294h-79l30 138h78l62 288h441z" />
    <glyph glyph-name="uni0493" unicode="&#x493;" horiz-adv-x="403" 
d="M466 520l-27 -131h-165l-15 -69h83l-28 -131h-83l-40 -189h-192l39 189h-41l28 131h42l42 200h357z" />
    <glyph glyph-name="uni0496" unicode="&#x496;" horiz-adv-x="1001" 
d="M354 720l67 -286h22l61 286h209l-60 -286h13l189 286h220l-246 -342l76 -235h90l-60 -283h-193l29 140h-51l-70 293h-28l-62 -293h-209l62 293h-20l-193 -293h-241l283 378l-100 342h212z" />
    <glyph glyph-name="uni0497" unicode="&#x497;" horiz-adv-x="814" 
d="M273 520l46 -186h16l40 186h193l-40 -186h10l123 186h202l-187 -243l43 -146h84l-58 -271h-177l29 140h-50l-27 203h-19l-43 -203h-193l43 203h-17l-109 -203h-221l201 283l-85 237h196z" />
    <glyph glyph-name="uni0498" unicode="&#x498;" horiz-adv-x="599" 
d="M392 -123q0 -29 -10.5 -55t-32 -46t-54 -32t-76.5 -12q-67 0 -106 30t-39 84q0 3 0.5 6.5t0.5 6.5h122v-7q0 -27 32 -27q19 0 28 10t9 26q0 15 -14 27t-61 12l26 89q-48 6 -84.5 23t-62 41.5t-38.5 56.5t-13 68q0 7 0.5 13.5t1.5 13.5h208q-1 -6 -1.5 -11t-0.5 -10
q0 -29 15.5 -42.5t44.5 -13.5q35 0 60.5 30.5t25.5 85.5q0 66 -62 66h-60l27 127h59q43 0 66.5 28t23.5 73q0 55 -47 55q-29 0 -47 -15t-30 -50h-201q14 45 40.5 82.5t65.5 65.5t90 43.5t114 15.5q57 0 100.5 -12.5t73 -34t44.5 -51.5t15 -65q0 -64 -39.5 -116t-109.5 -74
q40 -13 64.5 -49.5t24.5 -88.5q0 -50 -17.5 -93t-50.5 -77t-81 -56t-110 -29l-4 -24q35 -10 52.5 -33t17.5 -55z" />
    <glyph glyph-name="uni0499" unicode="&#x499;" horiz-adv-x="515" 
d="M355 -123q0 -29 -10.5 -55t-32 -46t-54.5 -32t-77 -12q-67 0 -105.5 30.5t-38.5 85.5v11h123v-7q0 -27 32 -27q19 0 28 10t9 26q0 15 -14 27t-61 12l25 89q-84 12 -123 60.5t-39 122.5v8h187q0 -4 -0.5 -7t-0.5 -6q0 -29 12 -41t32 -12t34 17t14 44q0 20 -12 30t-42 10
h-9l23 107h19q54 0 54 52q0 33 -31 33q-41 0 -55 -52h-185q13 39 37 72t58.5 57t79.5 37.5t99 13.5t91.5 -9.5t61 -26t34 -40t10.5 -51.5q0 -47 -34 -84t-96 -48q45 -6 68 -35t23 -70q0 -74 -48 -123t-153 -60l-3 -23q35 -10 52.5 -33t17.5 -55z" />
    <glyph glyph-name="uni049A" unicode="&#x49a;" horiz-adv-x="697" 
d="M468 0h-52l-107 293h-34l-62 -293h-209l153 720h209l-61 -286h20l228 286h222l-291 -339l105 -238h103l-60 -283h-193z" />
    <glyph glyph-name="uni049B" unicode="&#x49b;" horiz-adv-x="573" 
d="M-6 0l110 520h192l-40 -186h14l164 186h196l-219 -244l63 -145h93l-57 -271h-178l29 140h-41l-73 203h-18l-43 -203h-192z" />
    <glyph glyph-name="uni049C" unicode="&#x49c;" horiz-adv-x="753" 
d="M365 720l-61 -286h23l33 157h63l-34 -156h1l227 285h220l-291 -340l169 -380h-239l-108 293h-9l-42 -200h-63l43 200h-23l-62 -293h-208l153 720h208z" />
    <glyph glyph-name="uni049D" unicode="&#x49d;" horiz-adv-x="618" 
d="M376 0l-72 203h-4l-32 -150h-52l32 150h-19l-43 -203h-192l110 520h192l-39 -186h19l14 67h52l-15 -67l164 186h191l-219 -244l118 -276h-205z" />
    <glyph glyph-name="uni04A0" unicode="&#x4a0;" horiz-adv-x="836" 
d="M561 0l-108 293h-34l-62 -293h-208l121 571h-180l32 149h389l-62 -286h21l228 286h222l-291 -340l168 -380h-236z" />
    <glyph glyph-name="uni04A1" unicode="&#x4a1;" horiz-adv-x="680" 
d="M107 0l82 390h-141l28 130h334l-40 -186h13l165 186h196l-219 -244l118 -276h-210l-73 203h-17l-43 -203h-193z" />
    <glyph glyph-name="uni04A2" unicode="&#x4a2;" horiz-adv-x="678" 
d="M728 720l-123 -577h73l-60 -283h-192l29 140h-88l62 292h-155l-62 -292h-208l153 720h208l-60 -285h155l60 285h208z" />
    <glyph glyph-name="uni04A3" unicode="&#x4a3;" horiz-adv-x="568" 
d="M296 520l-38 -177h88l37 177h193l-82 -390h65l-57 -270h-178l30 140h-81l45 212h-87l-45 -212h-192l109 520h193z" />
    <glyph glyph-name="uni04AA" unicode="&#x4aa;" horiz-adv-x="669" 
d="M338 -264q-60 0 -97.5 28.5t-37.5 85.5q0 35 22 71.5t64 64.5q-118 6 -178.5 73.5t-60.5 186.5q0 108 27.5 198t78 154.5t122.5 100.5t162 36q130 0 195 -68.5t65 -179.5v-16h-207q3 67 -15 94t-55 27q-35 0 -64.5 -32.5t-50.5 -84t-32.5 -115t-11.5 -125.5
q0 -59 18.5 -83t50.5 -24q41 0 69.5 34.5t50.5 113.5h211q-35 -104 -87 -169.5t-125 -95.5q-26 -14 -48.5 -30.5t-39.5 -35.5t-26.5 -39t-9.5 -39q0 -37 26 -37q22 0 30 26h128q-23 -56 -66 -88t-108 -32z" />
    <glyph glyph-name="uni04AB" unicode="&#x4ab;" horiz-adv-x="539" 
d="M421 -144q-23 -55 -66 -87t-109 -32q-60 0 -97.5 28t-37.5 85q0 35 23.5 72.5t66.5 65.5q-90 9 -132.5 59t-42.5 132q0 79 20 144.5t59 112.5t95.5 73t130.5 26q51 0 91.5 -13.5t69 -37.5t44 -58t15.5 -75v-11h-196q1 5 1 15q0 22 -10 36t-30 14q-21 0 -38 -21t-30 -54
t-20 -74t-7 -81q0 -33 11.5 -47t27.5 -14q22 0 36.5 18t26.5 60h197q-23 -57 -66.5 -108.5t-103.5 -79.5q-25 -11 -45.5 -27t-35.5 -34t-23.5 -37.5t-8.5 -37.5q0 -37 26 -37q23 0 30 25h128z" />
    <glyph glyph-name="uni04AE" unicode="&#x4ae;" horiz-adv-x="652" 
d="M186 0l61 288l-134 432h213l55 -270l181 270h203l-319 -432l-61 -288h-199z" />
    <glyph glyph-name="uni04AF" unicode="&#x4af;" horiz-adv-x="532" 
d="M91 -180l39 180l-64 520h204l-7 -352l140 352h202l-282 -520l-39 -180h-193z" />
    <glyph glyph-name="uni04B0" unicode="&#x4b0;" horiz-adv-x="652" 
d="M186 0l52 244h-100l29 139h47l-101 337h220l48 -269l175 269h209l-247 -337h54l-29 -139h-107l-51 -244h-199z" />
    <glyph glyph-name="uni04B1" unicode="&#x4b1;" horiz-adv-x="532" 
d="M605 520l-206 -389h33l-28 -131h-81l-39 -180h-193l39 180h-75l27 131h26l-42 389h205l-8 -349l138 349h204z" />
    <glyph glyph-name="uni04B2" unicode="&#x4b2;" horiz-adv-x="687" 
d="M458 0h-59l-59 226l-146 -226h-231l301 373l-134 347h229l54 -198l133 198h221l-276 -340l87 -237h103l-60 -283h-192z" />
    <glyph glyph-name="uni04B3" unicode="&#x4b3;" horiz-adv-x="572" 
d="M601 520l-203 -246l59 -144h103l-57 -270h-178l29 140h-60l-37 142l-96 -142h-204l227 273l-111 247h214l32 -125l79 125h203z" />
    <glyph glyph-name="uni04B8" unicode="&#x4b8;" horiz-adv-x="648" 
d="M716 720l-153 -720h-208l57 272q-26 -24 -50 -37l-30 -142h-63l25 116q-26 -6 -48 -6q-85 0 -126 39.5t-41 123.5q0 23 3 50.5t10 58.5l53 245h209l-57 -264q-3 -16 -5 -28.5t-2 -23.5q0 -46 33 -54l52 241h63l-50 -231q22 14 39.5 39.5t25.5 66.5l55 254h208z" />
    <glyph glyph-name="uni04B9" unicode="&#x4b9;" horiz-adv-x="542" 
d="M290 520l-46 -217q-3 -17 -3 -28q0 -25 15 -33l34 159h45l-32 -154q13 10 24 31t19 56l40 186h192l-110 -520h-192l33 158q-16 -15 -31 -24l-17 -81h-45l12 61q-24 -9 -50 -9q-64 0 -99 34t-35 103q0 33 9 72l44 206h193z" />
    <glyph glyph-name="uni04BA" unicode="&#x4ba;" horiz-adv-x="641" 
d="M4 0l153 720h209l-60 -279q40 34 79 52t87 18q83 0 125.5 -39.5t42.5 -124.5q0 -45 -14 -109l-50 -238h-209l54 256q6 27 6 49q0 61 -54 61q-83 0 -109 -121l-51 -245h-209z" />
    <glyph glyph-name="uni04BB" unicode="&#x4bb;" horiz-adv-x="539" 
d="M147 720h192l-62 -289q28 27 58.5 41.5t72.5 14.5q62 0 95 -34.5t33 -102.5q0 -35 -9 -75l-58 -275h-193l59 279q2 12 3.5 21.5t1.5 17.5q0 36 -29 36q-25 0 -41.5 -22t-27.5 -70l-56 -262h-192z" />
    <glyph glyph-name="uni04C0" unicode="&#x4c0;" horiz-adv-x="297" 
d="M366 720l-153 -720h-209l153 720h209z" />
    <glyph glyph-name="uni04CB" unicode="&#x4cb;" horiz-adv-x="666" 
d="M443 0h-88l57 272q-80 -69 -166 -69q-85 0 -126 39.5t-41 123.5q0 23 3 50.5t10 58.5l53 245h209l-57 -264q-3 -16 -5 -28.5t-2 -23.5q0 -31 14 -43.5t40 -12.5q37 0 66.5 29.5t42.5 88.5l55 254h208l-122 -577h73l-60 -283h-193z" />
    <glyph glyph-name="uni04CC" unicode="&#x4cc;" horiz-adv-x="558" 
d="M245 307q-2 -12 -3 -21.5t-1 -14.5q0 -20 7 -26.5t21 -6.5q20 0 37 21.5t28 74.5l40 186h192l-82 -390h65l-57 -270h-178l30 140h-80l33 158q-28 -26 -58 -39.5t-67 -13.5q-63 0 -95.5 31.5t-32.5 100.5q0 28 5.5 63t13.5 72.5t17 75t17 72.5h193z" />
    <glyph glyph-name="uni04CF" unicode="&#x4cf;" horiz-adv-x="264" 
d="M188 0h-193l153 720h193z" />
    <glyph glyph-name="uni04D8" unicode="&#x4d8;" horiz-adv-x="671" 
d="M313 -15q-62 0 -110 15t-80 47t-48.5 83.5t-16.5 123.5q0 67 15 154h402q5 27 8 49t3 40q0 52 -20 73.5t-52 21.5q-42 0 -64.5 -21.5t-38.5 -64.5h-208q41 108 125.5 168.5t215.5 60.5q119 0 185 -66t66 -189q0 -104 -28 -194.5t-78 -157t-120.5 -105t-155.5 -38.5z
M327 128q37 0 65 31.5t47 109.5h-172q-2 -16 -3.5 -30t-1.5 -25q0 -50 17.5 -68t47.5 -18z" />
    <glyph glyph-name="afii10846" unicode="&#x4d9;" horiz-adv-x="549" 
d="M60 355q15 40 39.5 73t59.5 57t80.5 37t101.5 13q50 0 89 -14.5t65.5 -41.5t40 -65t13.5 -84q0 -76 -20.5 -139.5t-60 -109t-96.5 -71t-130 -25.5q-209 0 -209 205q0 26 3 54t10 59h309q2 14 3.5 25.5t1.5 20.5q0 30 -12 43t-33 13q-25 0 -39 -12t-22 -38h-194zM262 106
q25 0 40.5 20.5t30.5 73.5h-112q-3 -24 -3 -40q0 -29 11 -41.5t33 -12.5z" />
    <glyph glyph-name="uni04E2" unicode="&#x4e2;" horiz-adv-x="656" 
d="M324 787l27 128h255l-27 -128h-255zM725 720l-153 -720h-208l79 376l-219 -327l-10 -49h-210l153 720h210l-81 -378l220 329l11 49h208z" />
    <glyph glyph-name="uni04E3" unicode="&#x4e3;" horiz-adv-x="541" 
d="M228 591l27 128h255l-27 -128h-255zM-6 0l110 520h193l-51 -239l131 205l7 34h193l-110 -520h-193l50 239l-131 -208l-6 -31h-193z" />
    <glyph glyph-name="uni04E8" unicode="&#x4e8;" horiz-adv-x="703" 
d="M323 -15q-62 0 -112.5 17.5t-86 51.5t-55 85t-19.5 117q0 106 30.5 194t84.5 151.5t127.5 98.5t158.5 35q61 0 111.5 -17t86.5 -51t56 -84.5t20 -117.5q0 -106 -31 -194.5t-85.5 -152t-128 -98.5t-157.5 -35zM347 132q22 0 42 12t38 33.5t33.5 51t26.5 64.5h-226
q-3 -85 17.5 -123t68.5 -38zM428 589q-42 0 -78.5 -43.5t-59.5 -110.5h224q5 78 -17.5 116t-68.5 38z" />
    <glyph glyph-name="uni04E9" unicode="&#x4e9;" horiz-adv-x="556" 
d="M335 535q108 0 165.5 -51.5t57.5 -149.5q0 -78 -21 -142.5t-61.5 -110t-98.5 -71t-132 -25.5q-104 0 -160.5 53t-56.5 151q0 74 19 137.5t57.5 110t96 72.5t134.5 26zM266 113q28 0 46 23t32 75h-121q-1 -12 -1.5 -22.5t-0.5 -19.5q0 -30 11 -43t34 -13zM318 407
q-26 0 -43 -21t-31 -69h120q1 10 1.5 18.5t0.5 16.5q0 30 -12 42.5t-36 12.5z" />
    <glyph glyph-name="uni04EE" unicode="&#x4ee;" horiz-adv-x="581" 
d="M296 787l27 128h255l-27 -128h-255zM408 185q-30 -56 -57 -94t-56 -61.5t-61.5 -34t-71.5 -10.5q-22 0 -50 4.5t-54 11.5l28 133q20 -7 39 -10t30 -3q21 0 35 11.5t30 46.5h-52l-55 541h202l2 -397l173 397h204z" />
    <glyph glyph-name="uni04EF" unicode="&#x4ef;" horiz-adv-x="538" 
d="M611 520l-270 -519q-29 -56 -54.5 -93.5t-52 -60t-56 -32.5t-65.5 -10q-50 0 -104 14l28 130q29 -8 43.5 -10t23.5 -2q20 0 34 13.5t28 49.5h-42l-58 520h199l-8 -371l157 371h197zM253 591l27 128h255l-27 -128h-255z" />
    <glyph glyph-name="Wgrave" unicode="&#x1e80;" horiz-adv-x="905" 
d="M1015 720l-283 -720h-229l14 502l-190 -502h-220l9 720h210l-45 -475l180 475h209l-13 -479l154 479h204zM641 774h-136l-112 154h187z" />
    <glyph glyph-name="wgrave" unicode="&#x1e81;" horiz-adv-x="758" 
d="M827 520l-231 -520h-219l32 334l-121 -334h-212l-5 520h196l-36 -331l124 331h198l-28 -329l112 329h190zM525 578h-136l-112 154h187z" />
    <glyph glyph-name="Wacute" unicode="&#x1e82;" horiz-adv-x="905" 
d="M1015 720l-283 -720h-229l14 502l-190 -502h-220l9 720h210l-45 -475l180 475h209l-13 -479l154 479h204zM633 928h186l-177 -154h-137z" />
    <glyph glyph-name="wacute" unicode="&#x1e83;" horiz-adv-x="758" 
d="M827 520l-231 -520h-219l32 334l-121 -334h-212l-5 520h196l-36 -331l124 331h198l-28 -329l112 329h190zM521 732h186l-177 -154h-137z" />
    <glyph glyph-name="Wdieresis" unicode="&#x1e84;" horiz-adv-x="905" 
d="M1015 720l-283 -720h-229l14 502l-190 -502h-220l9 720h210l-45 -475l180 475h209l-13 -479l154 479h204zM384 781l31 144h167l-31 -144h-167zM592 781l31 144h169l-31 -144h-169z" />
    <glyph glyph-name="wdieresis" unicode="&#x1e85;" horiz-adv-x="758" 
d="M827 520l-231 -520h-219l32 334l-121 -334h-212l-5 520h196l-36 -331l124 331h198l-28 -329l112 329h190zM273 585l31 144h167l-31 -144h-167zM481 585l31 144h169l-31 -144h-169z" />
    <glyph glyph-name="Ygrave" unicode="&#x1ef2;" horiz-adv-x="652" 
d="M186 0l61 288l-134 432h213l55 -270l181 270h203l-319 -432l-61 -288h-199zM515 774h-136l-112 154h187z" />
    <glyph glyph-name="ygrave" unicode="&#x1ef3;" horiz-adv-x="538" 
d="M611 520l-270 -519q-29 -56 -54.5 -93.5t-52 -60t-56 -32.5t-65.5 -10q-50 0 -104 14l28 130q29 -8 43.5 -10t23.5 -2q20 0 34 13.5t28 49.5h-42l-58 520h199l-8 -371l157 371h197zM404 578h-136l-112 154h187z" />
    <glyph glyph-name="uni2007" unicode="&#x2007;" 
 />
    <glyph glyph-name="uni2008" unicode="&#x2008;" horiz-adv-x="303" 
 />
    <glyph glyph-name="uni200B" unicode="&#x200b;" horiz-adv-x="0" 
 />
    <glyph glyph-name="figuredash" unicode="&#x2012;" horiz-adv-x="490" 
d="M460 250h-401l30 140h400z" />
    <glyph glyph-name="endash" unicode="&#x2013;" horiz-adv-x="393" 
d="M390 250h-362l30 140h362z" />
    <glyph glyph-name="emdash" unicode="&#x2014;" horiz-adv-x="557" 
d="M554 250h-526l30 140h525z" />
    <glyph glyph-name="afii00208" unicode="&#x2015;" horiz-adv-x="393" 
d="M399 290h-362l30 140h362z" />
    <glyph glyph-name="underscoredbl" unicode="&#x2017;" horiz-adv-x="504" 
d="M422 -142h-480l29 139h480zM386 -321h-480l29 139h480z" />
    <glyph glyph-name="quoteleft" unicode="&#x2018;" horiz-adv-x="270" 
d="M94 512q22 105 91.5 152.5t180.5 55.5l-18 -89q-42 -5 -70.5 -27t-36.5 -60h70l-38 -181h-211z" />
    <glyph glyph-name="quoteright" unicode="&#x2019;" horiz-adv-x="270" 
d="M327 571q-23 -105 -92 -153t-180 -55l18 88q42 5 70 27t36 61h-69l37 181h211z" />
    <glyph glyph-name="quotesinglbase" unicode="&#x201a;" horiz-adv-x="270" 
d="M211 32q-23 -105 -92 -153t-180 -55l18 88q42 5 70.5 27t36.5 61h-70l38 181h211z" />
    <glyph glyph-name="quotereversed" unicode="&#x201b;" horiz-adv-x="270" 
d="M138 720h211l-38 -181h-70q-2 -6 -2 -11v-10q0 -29 19 -45.5t52 -21.5l-18 -88q-88 17 -138 58.5t-50 113.5q0 11 1.5 22.5t3.5 23.5z" />
    <glyph glyph-name="quotedblleft" unicode="&#x201c;" horiz-adv-x="533" 
d="M101 512q22 105 91.5 152.5t180.5 55.5l-18 -89q-42 -5 -70.5 -27t-36.5 -60h70l-38 -181h-211zM357 512q22 105 91.5 152.5t180.5 55.5l-18 -89q-42 -5 -70.5 -27t-36.5 -60h70l-38 -181h-211z" />
    <glyph glyph-name="quotedblright" unicode="&#x201d;" horiz-adv-x="533" 
d="M327 571q-23 -105 -92 -153t-180 -55l18 88q42 5 70 27t36 61h-69l37 181h211zM583 571q-23 -105 -92 -153t-180 -55l18 88q42 5 70 27t36 61h-69l37 181h211z" />
    <glyph glyph-name="quotedblbase" unicode="&#x201e;" horiz-adv-x="526" 
d="M467 32q-23 -105 -92 -153t-180 -55l18 88q42 5 70.5 27t36.5 61h-70l38 181h211zM211 32q-23 -105 -92 -153t-180 -55l18 88q42 5 70.5 27t36.5 61h-70l38 181h211z" />
    <glyph glyph-name="dagger" unicode="&#x2020;" 
d="M486 720l-36 -164h135l-37 -175h-135l-80 -381h-187l80 381h-133l37 175h133l36 164h187z" />
    <glyph glyph-name="daggerdbl" unicode="&#x2021;" 
d="M484 720l-28 -128h136l-36 -175h-136l-22 -101h136l-37 -175h-136l-30 -141h-185l30 141h-134l37 175h134l22 101h-135l37 175h135l27 128h185z" />
    <glyph glyph-name="bullet" unicode="&#x2022;" horiz-adv-x="335" 
d="M37 197l50 238h257l-51 -238h-256z" />
    <glyph glyph-name="ellipsis" unicode="&#x2026;" horiz-adv-x="879" 
d="M612 0l38 181h211l-38 -181h-211zM309 0l38 181h211l-38 -181h-211zM6 0l38 181h211l-38 -181h-211z" />
    <glyph glyph-name="perthousand" unicode="&#x2030;" horiz-adv-x="1088" 
d="M932 331q69 0 103 -35.5t34 -95.5q0 -47 -12 -86.5t-35.5 -68t-59 -44.5t-81.5 -16q-69 0 -103 36t-34 96q0 46 12 85.5t36 68t59 44.5t81 16zM916 233q-17 0 -31 -26.5t-14 -93.5q0 -31 26 -31q18 0 31.5 28t13.5 90q0 17 -7.5 25t-18.5 8zM255 0h-140l434 700h140z
M265 715q69 0 103 -35.5t34 -95.5q0 -47 -12 -86.5t-35.5 -68t-59 -44.5t-81.5 -16q-69 0 -103 36t-34 96q0 46 12 85.5t36 68t59 44.5t81 16zM249 617q-17 0 -31 -26.5t-14 -93.5q0 -31 26 -31q18 0 31.5 28t13.5 90q0 17 -7.5 25t-18.5 8zM589 331q69 0 103 -35.5
t34 -95.5q0 -47 -12 -86.5t-35.5 -68t-59 -44.5t-81.5 -16q-69 0 -103 36t-34 96q0 46 12 85.5t36 68t59 44.5t81 16zM573 233q-17 0 -31 -26.5t-14 -93.5q0 -31 26 -31q18 0 31.5 28t13.5 90q0 17 -7.5 25t-18.5 8z" />
    <glyph glyph-name="minute" unicode="&#x2032;" horiz-adv-x="234" 
d="M230 490h-123l37 145l22 100h149l-22 -100z" />
    <glyph glyph-name="second" unicode="&#x2033;" horiz-adv-x="455" 
d="M228 490h-122l37 145l22 100h149l-22 -100zM415 490h-123l37 145l22 100h149l-22 -100z" />
    <glyph glyph-name="guilsinglleft" unicode="&#x2039;" horiz-adv-x="305" 
d="M44 315l159 205h152l-132 -210l29 -220h-150z" />
    <glyph glyph-name="guilsinglright" unicode="&#x203a;" horiz-adv-x="305" 
d="M158 90h-149l123 220l-42 210h152l71 -205z" />
    <glyph glyph-name="exclamdbl" unicode="&#x203c;" horiz-adv-x="578" 
d="M64 242l79 478h229l-125 -478h-183zM0 0l38 181h208l-38 -181h-208zM353 242l79 478h229l-125 -478h-183zM289 0l38 181h208l-38 -181h-208z" />
    <glyph glyph-name="uni203E" unicode="&#x203e;" horiz-adv-x="504" 
d="M562 550h-480l29 139h480z" />
    <glyph glyph-name="fraction" unicode="&#x2044;" horiz-adv-x="234" 
d="M-167 -90l611 880h148l-610 -880h-149z" />
    <glyph glyph-name="uni2070" unicode="&#x2070;" horiz-adv-x="392" 
d="M206 284q-66 0 -103 35t-37 110q0 49 11 104.5t36 102.5t66.5 78t103.5 31q67 0 104 -34.5t37 -109.5q0 -50 -11 -105.5t-36.5 -102.5t-67.5 -78t-103 -31zM215 376q19 0 34.5 25t25.5 61.5t15.5 77.5t5.5 73q0 25 -6.5 33t-15.5 8q-18 0 -33 -24.5t-25.5 -60.5t-16 -77
t-5.5 -74q0 -26 6.5 -34t14.5 -8z" />
    <glyph glyph-name="uni2074" unicode="&#x2074;" horiz-adv-x="395" 
d="M366 467h39l-20 -94h-39l-17 -79h-123l17 79h-179l21 102l192 260h166zM181 467h62l55 172z" />
    <glyph glyph-name="uni2075" unicode="&#x2075;" horiz-adv-x="380" 
d="M398 641h-142l-18 -65q16 11 31 14t29 3q43 0 69 -27.5t26 -77.5q0 -34 -10.5 -70t-33.5 -66t-59.5 -49t-88.5 -19q-73 0 -111.5 35t-33.5 102h126v-8q0 -14 5 -23.5t18 -9.5q14 0 23.5 11t15 26t8 31.5t2.5 27.5q0 18 -6.5 23.5t-17.5 5.5q-19 0 -34 -19h-107l65 249
h264z" />
    <glyph glyph-name="uni2076" unicode="&#x2076;" horiz-adv-x="395" 
d="M294 745q67 0 104.5 -29.5t38.5 -83.5h-129q0 10 -6.5 15t-16.5 5q-18 0 -33 -17t-31 -70q17 15 35.5 23t45.5 8q45 0 75.5 -26.5t30.5 -79.5q0 -30 -10 -66t-33 -67t-60 -52t-91 -21q-71 0 -110.5 35t-39.5 108q0 16 1.5 33.5t6.5 37.5q53 247 222 247zM248 502
q-13 0 -22.5 -10t-16 -24.5t-9.5 -30t-3 -25.5q0 -19 7.5 -25.5t17.5 -6.5q15 0 24.5 10.5t15 25t7.5 30t2 26.5q0 17 -6 23.5t-17 6.5z" />
    <glyph glyph-name="uni2077" unicode="&#x2077;" horiz-adv-x="366" 
d="M51 294l234 344h-185l21 97h312l-20 -94l-216 -347h-146z" />
    <glyph glyph-name="uni2078" unicode="&#x2078;" horiz-adv-x="396" 
d="M289 745q66 0 103.5 -28.5t37.5 -71.5q0 -38 -25 -69.5t-74 -50.5q67 -28 67 -88q0 -21 -9.5 -48t-31.5 -50t-58.5 -39t-91.5 -16q-38 0 -67 9t-48.5 24.5t-29.5 35.5t-10 42q0 38 24.5 74.5t86.5 56.5q-54 28 -54 78q0 25 9 50.5t30 45.5t55.5 32.5t85.5 12.5zM279 660
q-25 0 -33.5 -20t-8.5 -41q0 -16 6 -25t17 -14q19 13 29.5 35.5t10.5 39.5q0 14 -6.5 19.5t-14.5 5.5zM237 488q-24 -14 -35 -37.5t-11 -42.5q0 -15 7.5 -22.5t18.5 -7.5q17 0 31.5 16t14.5 50q0 16 -7 26t-19 18z" />
    <glyph glyph-name="uni2079" unicode="&#x2079;" horiz-adv-x="395" 
d="M277 745q72 0 112.5 -33t40.5 -104q0 -34 -9 -76q-26 -123 -77.5 -185.5t-142.5 -62.5q-69 0 -108.5 30t-40.5 83h132q0 -11 8 -15.5t16 -4.5q19 0 35 18t30 71q-16 -15 -35 -24t-46 -9q-44 0 -75.5 27t-31.5 80q0 30 10 66t32.5 66.5t59 51.5t90.5 21zM271 649
q-13 0 -22.5 -9.5t-16 -23.5t-9.5 -29.5t-3 -27.5q0 -20 8 -26t19 -6q14 0 23.5 11t15.5 26t8.5 31t2.5 26q0 17 -7.5 22.5t-18.5 5.5z" />
    <glyph glyph-name="uni207F" unicode="&#x207f;" horiz-adv-x="384" 
d="M336 726q42 0 65.5 -21t23.5 -69q0 -12 -2 -25.5t-5 -29.5l-49 -230h-152l50 236q1 5 1.5 9t0.5 7q0 16 -14 16q-13 0 -22 -10t-15 -36l-47 -222h-151l77 364h132v-34q24 24 50.5 34.5t56.5 10.5z" />
    <glyph glyph-name="franc" unicode="&#x20a3;" 
d="M385 554l-27 -126h177l-29 -138h-177l-11 -51h88l-27 -128h-88l-24 -111h-209l24 111h-48l27 128h47l97 461h414l-31 -146h-203z" />
    <glyph glyph-name="lira" unicode="&#x20a4;" horiz-adv-x="588" 
d="M420 715q90 0 140.5 -44.5t50.5 -116.5q0 -22 -4 -39h-170q0 5 0.5 9.5t0.5 8.5q0 21 -5.5 30t-19.5 9q-16 0 -27 -15t-21 -64l-7 -30h144l-23 -110h-144l-7 -33h114l-25 -120h-131l-1 -4q-3 -11 -14 -24.5t-27 -20.5h280l-32 -151h-465l31 146q20 6 31 15t14 24l4 15
h-54l25 120h54l7 33h-54l23 110h54l6 25q13 55 33 97.5t49.5 71t71 43.5t98.5 15z" />
    <glyph glyph-name="peseta" unicode="&#x20a7;" horiz-adv-x="1169" 
d="M992 292q2 32 -35 32q-34 0 -34 -30q0 -11 13 -18t45 -15q74 -18 102 -48t28 -68q0 -27 -9 -55t-32.5 -51.5t-65 -38.5t-106.5 -15q-67 0 -110 23q-42 -15 -71 -19t-52 -4q-34 0 -57.5 8t-38.5 21.5t-22 31.5t-7 38q0 15 5 35l40 184h-82q-36 -25 -88 -39.5t-124 -14.5
h-27l-53 -249h-198l149 700h187q126 0 192.5 -44t66.5 -128q0 -29 -4 -58t-15 -57h19l35 100h140l-21 -100h112q37 12 92 12q39 0 71.5 -9.5t56 -27t36 -42t11.5 -54.5h-149zM913 87q17 0 30 8.5t13 25.5q0 11 -10 18t-39 15q-40 10 -67 22t-43.5 26.5t-23.5 31t-7 34.5
q0 17 3 35h-30l-39 -180q-2 -10 -2 -14q0 -8 5 -12t19 -4h3q-2 7 -2 14v15h150q1 -19 10 -27t30 -8zM312 389q28 0 47.5 11t31 28t16.5 36t5 36q0 26 -19 42.5t-53 16.5h-10l-36 -170h18z" />
    <glyph glyph-name="Euro" unicode="&#x20ac;" 
d="M390 333l-38 -97h-93q-1 -8 -1.5 -15.5t-0.5 -15.5q0 -45 13.5 -61t34.5 -16t36 14t26 46h181q-15 -45 -40 -82.5t-58.5 -64.5t-76 -41.5t-93.5 -14.5q-101 0 -153.5 61t-52.5 190h-53l39 97h24l9 41h-44l39 97h32q46 131 116 187.5t171 56.5q47 0 87 -14.5t67.5 -41.5
t40 -61t12.5 -69q0 -9 -1 -19h-182q1 34 -10.5 48t-31.5 14q-23 0 -41.5 -21t-36.5 -80h130l-39 -97h-119l-9 -41h116z" />
    <glyph glyph-name="afii61248" unicode="&#x2105;" horiz-adv-x="900" 
d="M92 -90l611 880h148l-610 -880h-149zM442 491q-13 -35 -30 -62.5t-41 -47.5t-55.5 -30.5t-71.5 -10.5q-78 0 -116 36t-38 101q0 42 11.5 86t38 80.5t69.5 59.5t105 23q75 0 113 -39t35 -103h-144q0 38 -18 38q-15 0 -26 -16.5t-18.5 -40t-11 -49t-3.5 -43.5q0 -13 4 -21
t12 -8q14 0 21 10t15 37h149zM729 376q76 0 118.5 -34t42.5 -103q0 -39 -11 -83t-37.5 -81t-69 -61t-105.5 -24q-77 0 -118.5 35.5t-41.5 104.5q0 39 10.5 82.5t36 80t68 60t107.5 23.5zM717 273q-15 0 -26 -18.5t-18 -42.5t-10.5 -47.5t-3.5 -32.5q0 -23 5 -31t16 -8
q16 0 27 18.5t18 42.5t10.5 47t3.5 32q0 26 -5.5 33t-16.5 7z" />
    <glyph glyph-name="afii61289" unicode="&#x2113;" horiz-adv-x="537" 
d="M572 602q0 -45 -15 -93t-50 -98.5t-94.5 -103t-147.5 -105.5q1 -28 5.5 -45t12 -26.5t18 -12.5t23.5 -3q16 0 39.5 8.5t40.5 21.5l28 -119q-27 -15 -59.5 -28t-80.5 -13q-69 0 -114 32.5t-58 107.5q-21 -10 -43.5 -20t-45.5 -20l31 143q15 7 28.5 13t27.5 13
q4 51 13.5 106.5t26.5 109t41.5 101.5t58 84.5t76.5 58t96 21.5q36 0 63 -10.5t44.5 -29t26 -42.5t8.5 -51zM278 353q46 36 76 70t46.5 64t23 54.5t6.5 41.5q0 15 -8.5 22.5t-18.5 7.5q-23 0 -42.5 -23t-35.5 -60t-28 -83.5t-19 -93.5z" />
    <glyph glyph-name="afii61352" unicode="&#x2116;" horiz-adv-x="1112" 
d="M723 720l-153 -720h-198l-100 433l-92 -433h-176l153 720h210l91 -415l88 415h177zM1023 0h-364l29 139h364zM983 735q31 0 60.5 -7t52.5 -25t37 -48.5t14 -76.5q0 -74 -18 -128t-50 -89.5t-75 -52.5t-93 -17q-30 0 -60 7.5t-53 25.5t-37.5 48.5t-14.5 77.5
q0 65 15.5 118t45.5 90t74 57t102 20zM965 622q-20 0 -30 -26.5t-20 -80.5q-5 -27 -7 -46.5t-2 -31.5q0 -34 23 -34q19 0 30 27.5t21 81.5q4 23 5.5 40.5t1.5 29.5q0 22 -4.5 31t-17.5 9z" />
    <glyph glyph-name="trademark" unicode="&#x2122;" horiz-adv-x="746" 
d="M554 324l-37 171v-171h-126v286h-43v-286h-131v286h-97v110h437l47 -197l43 197h168v-396h-127v171l-39 -171h-95z" />
    <glyph glyph-name="Omega" unicode="&#x2126;" horiz-adv-x="704" 
d="M366 133q25 0 46.5 17.5t38 45.5t29 64t20.5 73t12 72t4 61q0 67 -23 95t-65 28q-38 0 -70 -32.5t-54.5 -83.5t-35 -114.5t-12.5 -126.5q0 -54 16.5 -76.5t39.5 -22.5l-27 -133h-291l29 140h87q-24 27 -37.5 69.5t-13.5 94.5q0 100 32 180t86.5 135.5t127 85.5t153.5 30
q57 0 106.5 -16.5t86 -49t57.5 -81.5t21 -115q0 -47 -11 -95.5t-31.5 -93t-50 -82t-66.5 -62.5h91l-29 -140h-293z" />
    <glyph glyph-name="estimated" unicode="&#x212e;" horiz-adv-x="945" 
d="M218 339v-218q16 -24 44.5 -42t63.5 -30t73.5 -18.5t73.5 -6.5t72.5 6t72 18.5t64.5 31t51 42.5h58q-55 -64 -134.5 -100.5t-184.5 -36.5q-86 0 -159.5 27t-127.5 75t-84.5 114.5t-30.5 145.5t31.5 146t86.5 116.5t128 77.5t156 28q80 0 153 -27.5t128.5 -77t88.5 -118.5
t33 -153h-657zM727 574q-42 46 -104 74t-150 28t-152.5 -27t-102.5 -74v-196h509v195z" />
    <glyph glyph-name="onethird" unicode="&#x2153;" horiz-adv-x="909" 
d="M90 -90l611 880h148l-610 -880h-149zM302 294h-136l66 309l-99 -42l25 120l122 54h116zM764 445q66 0 100.5 -27.5t34.5 -69.5q0 -41 -26 -75t-81 -47q34 -10 51.5 -34t17.5 -53q0 -28 -10 -55.5t-31.5 -49.5t-56.5 -36t-85 -14q-46 0 -75 12.5t-44.5 32t-20.5 44.5
t-4 51h132q0 -2 -0.5 -5t-0.5 -5q0 -13 4.5 -23.5t17.5 -10.5q18 0 27.5 19.5t9.5 43.5q0 20 -11 27.5t-28 7.5h-29l19 89h31q15 0 25.5 7t16.5 17.5t8.5 22.5t2.5 21q0 15 -13 15q-21 0 -34 -35h-126q22 61 66 95.5t112 34.5z" />
    <glyph glyph-name="twothirds" unicode="&#x2154;" horiz-adv-x="978" 
d="M159 -90l611 880h148l-610 -880h-149zM143 599q24 67 73.5 106.5t120.5 39.5q68 0 102.5 -31.5t34.5 -75.5q0 -23 -6 -42.5t-21.5 -40.5t-42 -45t-67.5 -56l-70 -55h156l-22 -105h-311l22 103l105 85q40 32 64 54.5t37 39t17 29t4 24.5q0 17 -19 17q-13 0 -24.5 -10.5
t-20.5 -36.5h-132zM833 445q66 0 100.5 -27.5t34.5 -69.5q0 -41 -26 -75t-81 -47q34 -10 51.5 -34t17.5 -53q0 -28 -10 -55.5t-31.5 -49.5t-56.5 -36t-85 -14q-46 0 -75 12.5t-44.5 32t-20.5 44.5t-4 51h132q0 -2 -0.5 -5t-0.5 -5q0 -13 4.5 -23.5t17.5 -10.5
q18 0 27.5 19.5t9.5 43.5q0 20 -11 27.5t-28 7.5h-29l19 89h31q15 0 25.5 7t16.5 17.5t8.5 22.5t2.5 21q0 15 -13 15q-21 0 -34 -35h-126q22 61 66 95.5t112 34.5z" />
    <glyph glyph-name="oneeighth" unicode="&#x215b;" horiz-adv-x="917" 
d="M90 -90l611 880h148l-610 -880h-149zM302 294h-136l66 309l-99 -42l25 120l122 54h116zM766 447q66 0 103.5 -28.5t37.5 -71.5q0 -38 -25 -69.5t-74 -50.5q67 -28 67 -88q0 -21 -9.5 -48t-31.5 -50t-58.5 -39t-91.5 -16q-38 0 -67 9t-48.5 24.5t-29.5 35.5t-10 42
q0 38 24.5 74.5t86.5 56.5q-54 28 -54 78q0 25 9 50.5t30 45.5t55.5 32.5t85.5 12.5zM756 362q-25 0 -33.5 -20t-8.5 -41q0 -16 6 -25t17 -14q19 13 29.5 35.5t10.5 39.5q0 14 -6.5 19.5t-14.5 5.5zM714 190q-24 -14 -35 -37.5t-11 -42.5q0 -15 7.5 -22.5t18.5 -7.5
q17 0 31.5 16t14.5 50q0 16 -7 26t-19 18z" />
    <glyph glyph-name="threeeighths" unicode="&#x215c;" horiz-adv-x="959" 
d="M132 -90l611 880h148l-610 -880h-149zM808 447q66 0 103.5 -28.5t37.5 -71.5q0 -38 -25 -69.5t-74 -50.5q67 -28 67 -88q0 -21 -9.5 -48t-31.5 -50t-58.5 -39t-91.5 -16q-38 0 -67 9t-48.5 24.5t-29.5 35.5t-10 42q0 38 24.5 74.5t86.5 56.5q-54 28 -54 78q0 25 9 50.5
t30 45.5t55.5 32.5t85.5 12.5zM798 362q-25 0 -33.5 -20t-8.5 -41q0 -16 6 -25t17 -14q19 13 29.5 35.5t10.5 39.5q0 14 -6.5 19.5t-14.5 5.5zM756 190q-24 -14 -35 -37.5t-11 -42.5q0 -15 7.5 -22.5t18.5 -7.5q17 0 31.5 16t14.5 50q0 16 -7 26t-19 18zM321 745
q66 0 100.5 -27.5t34.5 -69.5q0 -41 -26 -75t-81 -47q34 -10 51.5 -34t17.5 -53q0 -28 -10 -55.5t-31.5 -49.5t-56.5 -36t-85 -14q-46 0 -75 12.5t-44.5 32t-20.5 44.5t-4 51h132q0 -2 -0.5 -5t-0.5 -5q0 -13 4.5 -23.5t17.5 -10.5q18 0 27.5 19.5t9.5 43.5q0 20 -11 27.5
t-28 7.5h-29l19 89h31q15 0 25.5 7t16.5 17.5t8.5 22.5t2.5 21q0 15 -13 15q-21 0 -34 -35h-126q22 61 66 95.5t112 34.5z" />
    <glyph glyph-name="fiveeighths" unicode="&#x215d;" horiz-adv-x="960" 
d="M133 -90l611 880h148l-610 -880h-149zM809 447q66 0 103.5 -28.5t37.5 -71.5q0 -38 -25 -69.5t-74 -50.5q67 -28 67 -88q0 -21 -9.5 -48t-31.5 -50t-58.5 -39t-91.5 -16q-38 0 -67 9t-48.5 24.5t-29.5 35.5t-10 42q0 38 24.5 74.5t86.5 56.5q-54 28 -54 78q0 25 9 50.5
t30 45.5t55.5 32.5t85.5 12.5zM799 362q-25 0 -33.5 -20t-8.5 -41q0 -16 6 -25t17 -14q19 13 29.5 35.5t10.5 39.5q0 14 -6.5 19.5t-14.5 5.5zM757 190q-24 -14 -35 -37.5t-11 -42.5q0 -15 7.5 -22.5t18.5 -7.5q17 0 31.5 16t14.5 50q0 16 -7 26t-19 18zM433 641h-142
l-18 -65q16 11 31 14t29 3q43 0 69 -27.5t26 -77.5q0 -34 -10.5 -70t-33.5 -66t-59.5 -49t-88.5 -19q-73 0 -111.5 35t-33.5 102h126v-8q0 -14 5 -23.5t18 -9.5q14 0 23.5 11t15 26t8 31.5t2.5 27.5q0 18 -6.5 23.5t-17.5 5.5q-19 0 -34 -19h-107l65 249h264z" />
    <glyph glyph-name="seveneighths" unicode="&#x215e;" horiz-adv-x="917" 
d="M90 -90l611 880h148l-610 -880h-149zM766 447q66 0 103.5 -28.5t37.5 -71.5q0 -38 -25 -69.5t-74 -50.5q67 -28 67 -88q0 -21 -9.5 -48t-31.5 -50t-58.5 -39t-91.5 -16q-38 0 -67 9t-48.5 24.5t-29.5 35.5t-10 42q0 38 24.5 74.5t86.5 56.5q-54 28 -54 78q0 25 9 50.5
t30 45.5t55.5 32.5t85.5 12.5zM756 362q-25 0 -33.5 -20t-8.5 -41q0 -16 6 -25t17 -14q19 13 29.5 35.5t10.5 39.5q0 14 -6.5 19.5t-14.5 5.5zM714 190q-24 -14 -35 -37.5t-11 -42.5q0 -15 7.5 -22.5t18.5 -7.5q17 0 31.5 16t14.5 50q0 16 -7 26t-19 18zM123 294l234 344
h-185l21 97h312l-20 -94l-216 -347h-146z" />
    <glyph glyph-name="arrowleft" unicode="&#x2190;" horiz-adv-x="600" 
d="M254 438h326v-142h-326l144 -182h-182l-196 253l196 253h182z" />
    <glyph glyph-name="arrowup" unicode="&#x2191;" horiz-adv-x="600" 
d="M374 415v-328h-148v328l-179 -141v177l253 196l253 -196v-177z" />
    <glyph glyph-name="arrowright" unicode="&#x2192;" horiz-adv-x="600" 
d="M346 296h-326v142h326l-144 182h182l196 -253l-196 -253h-182z" />
    <glyph glyph-name="arrowdown" unicode="&#x2193;" horiz-adv-x="600" 
d="M226 319v328h148v-328l179 141v-177l-253 -196l-253 196v177z" />
    <glyph glyph-name="arrowboth" unicode="&#x2194;" horiz-adv-x="900" 
d="M254 438h392l-144 182h182l196 -253l-196 -253h-182l144 182h-392l144 -182h-182l-196 253l196 253h182z" />
    <glyph glyph-name="arrowupdn" unicode="&#x2195;" horiz-adv-x="600" 
d="M374 565v-397l179 141v-176l-253 -196l-253 196v176l178 -141v397l-178 -141v177l253 196l253 -196v-177z" />
    <glyph glyph-name="uni2196" unicode="&#x2196;" horiz-adv-x="600" 
d="M316 469l235 -234l-106 -105l-224 224l-26 -223l-133 129l40 318l318 40l126 -122z" />
    <glyph glyph-name="uni2197" unicode="&#x2197;" horiz-adv-x="600" 
d="M393 354l-224 -224l-105 105l234 234l-229 27l125 122l318 -40l40 -318l-133 -129z" />
    <glyph glyph-name="uni2198" unicode="&#x2198;" horiz-adv-x="600" 
d="M298 273l-234 235l105 105l224 -224l26 223l133 -129l-40 -318l-318 -40l-125 122z" />
    <glyph glyph-name="uni2199" unicode="&#x2199;" horiz-adv-x="600" 
d="M221 389l224 224l106 -105l-235 -234l230 -27l-126 -122l-318 40l-40 318l133 129z" />
    <glyph glyph-name="arrowupdnbse" unicode="&#x21a8;" horiz-adv-x="600" 
d="M540 -210h-481v139h481v-139zM374 565v-397l179 141v-176l-253 -196l-253 196v176l178 -141v397l-178 -141v177l253 196l253 -196v-177z" />
    <glyph glyph-name="partialdiff" unicode="&#x2202;" horiz-adv-x="513" 
d="M194 753q81 -6 144 -33.5t106.5 -72t66.5 -102.5t23 -125q0 -89 -20 -168t-58.5 -138t-94 -94t-126.5 -35q-101 0 -158.5 49t-57.5 139q0 63 15.5 119t44 99t70 68t92.5 25q27 0 49.5 -7.5t38.5 -21.5q-2 37 -12 64.5t-29.5 47.5t-49.5 34t-72 23zM290 354
q-20 0 -33.5 -23.5t-26.5 -82.5q-14 -59 -14 -94q0 -22 6.5 -30t20.5 -8q9 0 18 6t17 21t16 41t16 66t8 67q0 22 -7.5 29.5t-20.5 7.5z" />
    <glyph glyph-name="Delta" unicode="&#x2206;" horiz-adv-x="648" 
d="M-44 0l373 720h214l68 -720h-655zM230 138h155l8 399z" />
    <glyph glyph-name="product" unicode="&#x220f;" horiz-adv-x="587" 
d="M655 556h-36l-118 -556h-202l117 556h-90l-118 -556h-203l118 556h-36l31 144h567z" />
    <glyph glyph-name="summation" unicode="&#x2211;" horiz-adv-x="553" 
d="M311 575l91 -302l-212 -302h303l-30 -143h-524l27 133l224 312l-91 313l28 134h526l-31 -145h-311z" />
    <glyph glyph-name="minus" unicode="&#x2212;" 
d="M493 250h-401l30 140h400z" />
    <glyph glyph-name="uni2215" unicode="&#x2215;" horiz-adv-x="234" 
d="M-53 -90h-139l540 880h138z" />
    <glyph glyph-name="uni2219" unicode="&#x2219;" horiz-adv-x="263" 
d="M47 220l38 175h203l-38 -175h-203z" />
    <glyph glyph-name="radical" unicode="&#x221a;" horiz-adv-x="566" 
d="M100 0l-48 496h193l1 -315l262 621h287l-30 -143h-132l-303 -659h-230z" />
    <glyph glyph-name="infinity" unicode="&#x221e;" horiz-adv-x="685" 
d="M271 532q42 0 75 -18.5t52 -52.5q71 71 153 71q41 0 71.5 -11.5t51 -32t30.5 -47.5t10 -58q0 -47 -16 -87.5t-46 -70.5t-73.5 -47.5t-98.5 -17.5q-42 0 -74.5 18.5t-52.5 51.5q-72 -70 -153 -70q-41 0 -71.5 11.5t-50.5 32t-30 47.5t-10 58q0 47 15.5 87.5t45.5 70.5
t73 47.5t99 17.5zM497 285q18 0 34.5 20.5t16.5 51.5q0 51 -32 51q-16 0 -33 -14.5t-37 -48.5q1 -24 15.5 -42t35.5 -18zM256 408q-19 0 -35 -20t-16 -50q0 -26 6.5 -39.5t23.5 -13.5q15 0 32 13.5t38 48.5q-1 24 -14.5 42.5t-34.5 18.5z" />
    <glyph glyph-name="orthogonal" unicode="&#x221f;" horiz-adv-x="735" 
d="M685 180v-180h-635v660h194v-480h441z" />
    <glyph glyph-name="intersection" unicode="&#x2229;" horiz-adv-x="600" 
d="M300 579q48 0 90 -18t73.5 -49.5t49.5 -73.5t18 -90v-310h-165v310q0 87 -66 87t-66 -87v-310h-165v310q0 48 18 90t49.5 73.5t73.5 49.5t90 18z" />
    <glyph glyph-name="integral" unicode="&#x222b;" horiz-adv-x="480" 
d="M11 -20q27 -6 41 -7.5t26 -1.5q22 0 34.5 10.5t17.5 36.5l156 734q20 94 78 136.5t142 42.5q41 0 67 -3.5t52 -9.5l-29 -136q-27 6 -40.5 7.5t-26.5 1.5q-22 0 -34 -10.5t-18 -37.5l-156 -733q-20 -94 -78.5 -136.5t-141.5 -42.5q-41 0 -66.5 3.5t-52.5 9.5z" />
    <glyph glyph-name="approxequal" unicode="&#x2248;" 
d="M383 328q-24 0 -43 8.5t-35.5 18t-32.5 18t-35 8.5q-26 0 -55 -12t-72 -37l30 143q22 14 58.5 27t76.5 13q25 0 44 -8t35.5 -18t32.5 -18t35 -8q26 0 54.5 12t71.5 37l-30 -144q-22 -13 -58 -26.5t-77 -13.5zM340 124q-24 0 -43 8t-36 18t-33 18t-34 8q-26 0 -55 -12
t-72 -36l30 143q22 13 58 26.5t77 13.5q24 0 43 -8.5t35.5 -18t32.5 -18t35 -8.5q26 0 54.5 12t72.5 37l-31 -143q-21 -14 -57 -27t-77 -13z" />
    <glyph glyph-name="notequal" unicode="&#x2260;" 
d="M472 151h-210l-79 -113h-149l79 113h-41l29 140h114l37 56h-139l30 140h211l76 109h149l-76 -109h41l-30 -140h-113l-37 -56h138z" />
    <glyph glyph-name="equivalence" unicode="&#x2261;" 
d="M514 347h-401l30 140h400zM473 151h-401l30 140h400zM431 -45h-400l29 140h401z" />
    <glyph glyph-name="lessequal" unicode="&#x2264;" 
d="M132 441l441 185l-36 -167l-204 -82l175 -57l-35 -159l-367 155zM440 0h-401l30 139h400z" />
    <glyph glyph-name="greaterequal" unicode="&#x2265;" 
d="M507 316l-434 -155l36 168l200 60l-171 78l34 159l361 -185zM69 139h400l-29 -139h-401z" />
    <glyph glyph-name="dotmath" unicode="&#x22c5;" horiz-adv-x="296" 
d="M52 220l38 175h203l-38 -175h-203z" />
    <glyph glyph-name="star" unicode="&#x22c6;" horiz-adv-x="600" 
d="M156 660l95 -125l49 195l48 -195l78 141l-35 -168l201 87l-115 -166l158 37l-152 -88l196 -93l-202 -26l133 -90l-166 55l57 -205l-151 137l20 -160l-70 161l-70 -161l20 160l-152 -137l58 205l-166 -55l132 93l-201 26l194 90l-149 88l156 -37l-114 166l200 -87z" />
    <glyph glyph-name="house" unicode="&#x2302;" horiz-adv-x="722" 
d="M672 370v-370h-622v370l311 277zM210 139h302v188l-151 130l-151 -130v-188z" />
    <glyph glyph-name="revlogicalnot" unicode="&#x2310;" 
d="M542 390l-30 -140h-247l-32 -152h-153l62 292h400z" />
    <glyph glyph-name="integraltp" unicode="&#x2320;" horiz-adv-x="480" 
d="M542 931q41 0 71 -5.5t58 -13.5l-29 -130q-28 6 -41.5 7.5t-25.5 1.5q-23 0 -35 -11t-18 -38l-202 -952h-193l204 958q20 94 72.5 138.5t138.5 44.5z" />
    <glyph glyph-name="integralbt" unicode="&#x2321;" horiz-adv-x="480" 
d="M359 14q-20 -94 -69 -138.5t-133 -44.5q-83 0 -138 22l29 127q27 -6 40.5 -7.5t26.5 -1.5q21 0 33.5 11t18.5 38l194 910h193z" />
    <glyph glyph-name="SF100000" unicode="&#x2500;" 
d="M-5 397h570v-90h-570v90z" />
    <glyph glyph-name="SF110000" unicode="&#x2502;" 
d="M235 1000h90v-1362h-90v1362z" />
    <glyph glyph-name="SF010000" unicode="&#x250c;" 
d="M235 397h330v-90h-240v-669h-90v759z" />
    <glyph glyph-name="SF030000" unicode="&#x2510;" 
d="M-5 397h330v-759h-90v669h-240v90z" />
    <glyph glyph-name="SF020000" unicode="&#x2514;" 
d="M235 1000h90v-603h240v-90h-330v693z" />
    <glyph glyph-name="SF040000" unicode="&#x2518;" 
d="M-5 397h240v603h90v-693h-330v90z" />
    <glyph glyph-name="SF080000" unicode="&#x251c;" 
d="M235 1000h90v-603h240v-90h-240v-669h-90v1362z" />
    <glyph glyph-name="SF090000" unicode="&#x2524;" 
d="M-5 397h240v603h90v-1362h-90v669h-240v90z" />
    <glyph glyph-name="SF060000" unicode="&#x252c;" 
d="M-5 397h570v-90h-240v-669h-90v669h-240v90z" />
    <glyph glyph-name="SF070000" unicode="&#x2534;" 
d="M-5 397h240v603h90v-603h240v-90h-570v90z" />
    <glyph glyph-name="SF050000" unicode="&#x253c;" 
d="M-5 397h240v603h90v-603h240v-90h-240v-669h-90v669h-240v90z" />
    <glyph glyph-name="SF430000" unicode="&#x2550;" 
d="M-5 307h570v-90h-570v90zM565 397h-570v90h570v-90z" />
    <glyph glyph-name="SF240000" unicode="&#x2551;" 
d="M325 -362v1362h90v-1362h-90zM145 1000h90v-1362h-90v1362z" />
    <glyph glyph-name="SF510000" unicode="&#x2552;" 
d="M565 397h-240v-90h240v-90h-240v-579h-90v849h330v-90z" />
    <glyph glyph-name="SF520000" unicode="&#x2553;" 
d="M325 -362v669h-90v-669h-90v759h420v-90h-150v-669h-90z" />
    <glyph glyph-name="SF390000" unicode="&#x2554;" 
d="M145 487h420v-90h-330v-759h-90v849zM325 -362v669h240v-90h-150v-579h-90z" />
    <glyph glyph-name="SF220000" unicode="&#x2555;" 
d="M-5 307h240v90h-240v90h330v-849h-90v579h-240v90z" />
    <glyph glyph-name="SF210000" unicode="&#x2556;" 
d="M-5 397h420v-759h-90v669h-90v-669h-90v669h-150v90z" />
    <glyph glyph-name="SF250000" unicode="&#x2557;" 
d="M325 -362v759h-330v90h420v-849h-90zM-5 307h240v-669h-90v579h-150v90z" />
    <glyph glyph-name="SF500000" unicode="&#x2558;" 
d="M565 397h-240v-90h240v-90h-330v783h90v-513h240v-90z" />
    <glyph glyph-name="SF490000" unicode="&#x2559;" 
d="M145 1000h90v-603h90v603h90v-603h150v-90h-420v693z" />
    <glyph glyph-name="SF380000" unicode="&#x255a;" 
d="M565 307v-90h-420v783h90v-693h330zM565 397h-240v603h90v-513h150v-90z" />
    <glyph glyph-name="SF280000" unicode="&#x255b;" 
d="M-5 307h240v90h-240v90h240v513h90v-783h-330v90z" />
    <glyph glyph-name="SF270000" unicode="&#x255c;" 
d="M-5 397h150v603h90v-603h90v603h90v-693h-420v90z" />
    <glyph glyph-name="SF260000" unicode="&#x255d;" 
d="M-5 307h330v693h90v-783h-420v90zM145 1000h90v-603h-240v90h150v513z" />
    <glyph glyph-name="SF360000" unicode="&#x255e;" 
d="M565 397h-240v-90h240v-90h-240v-579h-90v1362h90v-513h240v-90z" />
    <glyph glyph-name="SF370000" unicode="&#x255f;" 
d="M325 -362v1362h90v-603h150v-90h-150v-669h-90zM145 1000h90v-1362h-90v1362z" />
    <glyph glyph-name="SF420000" unicode="&#x2560;" 
d="M145 1000h90v-1362h-90v1362zM325 -362v669h240v-90h-150v-579h-90zM565 397h-240v603h90v-513h150v-90z" />
    <glyph glyph-name="SF190000" unicode="&#x2561;" 
d="M-5 307h240v90h-240v90h240v513h90v-1362h-90v579h-240v90z" />
    <glyph glyph-name="SF200000" unicode="&#x2562;" 
d="M145 -362v669h-150v90h150v603h90v-1362h-90zM325 -362v1362h90v-1362h-90z" />
    <glyph glyph-name="SF230000" unicode="&#x2563;" 
d="M325 -362v1362h90v-1362h-90zM-5 307h240v-669h-90v579h-150v90zM145 1000h90v-603h-240v90h150v513z" />
    <glyph glyph-name="SF470000" unicode="&#x2564;" 
d="M-5 307h570v-90h-240v-579h-90v579h-240v90zM565 397h-570v90h570v-90z" />
    <glyph glyph-name="SF480000" unicode="&#x2565;" 
d="M-5 397h570v-90h-150v-669h-90v669h-90v-669h-90v669h-150v90z" />
    <glyph glyph-name="SF410000" unicode="&#x2566;" 
d="M-5 307h240v-669h-90v579h-150v90zM325 -362v669h240v-90h-150v-579h-90zM565 397h-570v90h570v-90z" />
    <glyph glyph-name="SF450000" unicode="&#x2567;" 
d="M565 397h-570v90h240v513h90v-513h240v-90zM-5 307h570v-90h-570v90z" />
    <glyph glyph-name="SF460000" unicode="&#x2568;" 
d="M-5 397h150v603h90v-603h90v603h90v-603h150v-90h-570v90z" />
    <glyph glyph-name="SF400000" unicode="&#x2569;" 
d="M565 397h-240v603h90v-513h150v-90zM145 1000h90v-603h-240v90h150v513zM-5 307h570v-90h-570v90z" />
    <glyph glyph-name="SF540000" unicode="&#x256a;" 
d="M565 397h-240v-90h240v-90h-240v-579h-90v579h-240v90h240v90h-240v90h240v513h90v-513h240v-90z" />
    <glyph glyph-name="SF530000" unicode="&#x256b;" 
d="M-5 397h150v603h90v-603h90v603h90v-603h150v-90h-150v-669h-90v669h-90v-669h-90v669h-150v90z" />
    <glyph glyph-name="SF440000" unicode="&#x256c;" 
d="M-5 307h240v-669h-90v579h-150v90zM325 -362v669h240v-90h-150v-579h-90zM565 397h-240v603h90v-513h150v-90zM145 1000h90v-603h-240v90h150v513z" />
    <glyph glyph-name="upblock" unicode="&#x2580;" 
d="M560 319h-560v681h560v-681z" />
    <glyph glyph-name="dnblock" unicode="&#x2584;" 
d="M0 319h560v-681h-560v681z" />
    <glyph glyph-name="block" unicode="&#x2588;" 
d="M0 1000h560v-1362h-560v1362z" />
    <glyph glyph-name="lfblock" unicode="&#x258c;" 
d="M0 1000h280v-1362h-280v1362z" />
    <glyph glyph-name="rtblock" unicode="&#x2590;" 
d="M280 -362v1362h280v-1362h-280z" />
    <glyph glyph-name="ltshade" unicode="&#x2591;" 
d="M448 -292v-68h-56v68h56zM336 -156v-68h-56v68h56zM112 252v-68h-56v68h56zM336 116v-68h-56v68h56zM336 252v-68h-56v68h56zM336 388v-68h-56v68h56zM336 524v-68h-56v68h56zM336 660v-68h-56v68h56zM336 796v-68h-56v68h56zM336 932v-68h-56v68h56zM448 -20v-68h-56v68
h56zM112 -156v-68h-56v68h56zM112 524v-68h-56v68h56zM112 116v-68h-56v68h56zM336 -20v-68h-56v68h56zM112 388v-68h-56v68h56zM224 -20v-68h-56v68h56zM112 660v-68h-56v68h56zM112 796v-68h-56v68h56zM112 932v-68h-56v68h56zM112 -292v-68h-56v68h56zM224 932v-68h-56
v68h56zM224 796v-68h-56v68h56zM224 660v-68h-56v68h56zM224 524v-68h-56v68h56zM224 388v-68h-56v68h56zM448 524v-68h-56v68h56zM224 116v-68h-56v68h56zM112 -20v-68h-56v68h56zM224 -156v-68h-56v68h56zM336 -292v-68h-56v68h56zM448 932v-68h-56v68h56zM448 796v-68
h-56v68h56zM448 660v-68h-56v68h56zM224 252v-68h-56v68h56zM448 388v-68h-56v68h56zM448 252v-68h-56v68h56zM448 116v-68h-56v68h56zM224 -292v-68h-56v68h56zM448 -156v-68h-56v68h56zM560 -292v-68h-56v68h56zM560 -156v-68h-56v68h56zM560 -20v-68h-56v68h56zM560 116
v-68h-56v68h56zM560 252v-68h-56v68h56zM560 388v-68h-56v68h56zM560 524v-68h-56v68h56zM560 660v-68h-56v68h56zM560 796v-68h-56v68h56zM560 932v-68h-56v68h56z" />
    <glyph glyph-name="shade" unicode="&#x2592;" 
d="M503 -292h-55v-68h-57v68h-55v-68h-57v68h-55v-68h-57v68h-55v-68h-57v68h-55v69h55v67h-55v69h55v67h-55v69h55v67h-55v69h55v67h-55v69h55v67h-55v69h55v67h-55v69h55v67h-55v69h55v67h-55v69h55v67h-55v68h56v-67h55v67h57v-67h55v67h57v-67h55v67h57v-67h55v67h57
v-67h56v-69h-56v-67h56v-69h-56v-67h56v-69h-56v-67h56v-69h-56v-67h56v-69h-56v-67h56v-69h-56v-67h56v-69h-56v-67h56v-69h-56v-67h56v-69h-56v-67h56v-69h-57v68zM392 -291h55v67h-55v-67zM168 -291h55v67h-55v-67zM448 -223h55v67h-55v-67zM224 -223h55v67h-55v-67z
M280 797h55v67h-55v-67zM112 729h55v67h-55v-67zM112 -87h55v67h-55v-67zM392 253h55v67h-55v-67zM280 -155h55v67h-55v-67zM392 -19h55v67h-55v-67zM280 -291h55v67h-55v-67zM336 865h55v67h-55v-67zM448 -87h55v67h-55v-67zM168 253h55v67h-55v-67zM56 525h55v67h-55v-67z
M280 661h55v67h-55v-67zM168 -19h55v67h-55v-67zM56 -155h55v67h-55v-67zM336 49h55v67h-55v-67zM56 661h55v67h-55v-67zM280 253h55v67h-55v-67zM280 525h55v67h-55v-67zM392 525h55v67h-55v-67zM112 865h55v67h-55v-67zM168 797h55v67h-55v-67zM168 661h55v67h-55v-67z
M392 389h55v67h-55v-67zM280 117h55v67h-55v-67zM448 321h55v67h-55v-67zM336 185h55v67h-55v-67zM56 117h55v67h-55v-67zM392 797h55v67h-55v-67zM336 -87h55v67h-55v-67zM56 -19h55v67h-55v-67zM224 49h55v67h-55v-67zM224 729h55v67h-55v-67zM224 185h55v67h-55v-67z
M112 49h55v67h-55v-67zM448 185h55v67h-55v-67zM224 321h55v67h-55v-67zM224 457h55v67h-55v-67zM448 865h55v67h-55v-67zM280 -19h55v67h-55v-67zM112 321h55v67h-55v-67zM336 593h55v67h-55v-67zM224 593h55v67h-55v-67zM56 797h55v67h-55v-67zM448 457h55v67h-55v-67z
M112 185h55v67h-55v-67zM168 389h55v67h-55v-67zM336 321h55v67h-55v-67zM448 49h55v67h-55v-67zM168 -155h55v67h-55v-67zM56 389h55v67h-55v-67zM224 -87h55v67h-55v-67zM448 593h55v67h-55v-67zM224 865h55v67h-55v-67zM392 661h55v67h-55v-67zM56 253h55v67h-55v-67z
M168 525h55v67h-55v-67zM336 457h55v67h-55v-67zM392 117h55v67h-55v-67zM112 457h55v67h-55v-67zM448 729h55v67h-55v-67zM280 389h55v67h-55v-67zM336 729h55v67h-55v-67zM168 117h55v67h-55v-67zM112 -223h55v67h-55v-67zM336 -223h55v67h-55v-67zM56 -291h55v67h-55v-67
zM112 593h55v67h-55v-67zM392 -155h55v67h-55v-67z" />
    </font>
</defs>
</svg>
