<?xml version="1.0" standalone="no"?>
<!DOCTYPE svg PUBLIC "-//W3C//DTD SVG 1.1//EN" "http://www.w3.org/Graphics/SVG/1.1/DTD/svg11.dtd" >
<svg>
<metadata>
Created by FontForge 20120731 at Mon Mar 31 14:10:07 2014
 By tam,,,
Copyright (c) 2010-2013 by Ralph du Carrois, Erik Spiekermann &#38; Botio Nikoltchev. All rights reserved.
</metadata>
<defs>
<font id="CiscoSansTT-CondensedBoldOblique" horiz-adv-x="560" >
  <font-face 
    font-family="CiscoSansTT Condensed"
    font-weight="700"
    font-style="oblique"
    font-stretch="condensed"
    units-per-em="1000"
    panose-1="2 11 8 6 2 2 0 2 3 3"
    ascent="790"
    descent="-210"
    x-height="520"
    cap-height="720"
    bbox="-172 -362 1111 1000"
    underline-thickness="85"
    underline-position="-6"
    slope="-12"
    unicode-range="U+0020-FEFF"
  />
<missing-glyph horiz-adv-x="529" 
d="M42 720h445v-720h-445v720zM364 123v474h-199v-474h199z" />
    <glyph glyph-name="f_f" unicode="ff" horiz-adv-x="618" 
d="M558 412l-87 -412h-154l87 412h-135l-87 -412h-154l87 412h-69l23 108h69l8 38q10 48 29.5 80t45.5 51.5t57 27.5t64 8q40 0 81 -6.5t86 -24.5q48 41 116 41q37 0 66 -5.5t49 -11.5l-23 -110q-20 6 -40 9.5t-32 3.5q-26 0 -36.5 -10.5t-17.5 -42.5l-10 -48h93l-23 -108
h-93zM435 558q2 11 4.5 20.5t5.5 19.5q-21 5 -43 9t-34 4q-35 0 -48 -11.5t-20 -42.5l-8 -37h135z" />
    <glyph glyph-name="f_f_i" unicode="ffi" horiz-adv-x="847" 
d="M664 735q49 0 87.5 -6t58.5 -12l-23 -110q-10 3 -24 5.5t-28.5 4.5t-28.5 3t-25 1q-27 0 -43.5 -4t-26 -12t-14.5 -20t-8 -28l-8 -37h294l-110 -520h-155l87 412h-139l-87 -412h-154l87 412h-135l-87 -412h-154l87 412h-69l23 108h69l8 38q19 89 67.5 128t124.5 39
q42 0 86.5 -7t92.5 -27q61 44 147 44zM292 520h135l6 28q3 14 5.5 26t7.5 23q-20 6 -44 10t-36 4q-35 0 -47 -11.5t-19 -42.5z" />
    <glyph glyph-name="f_f_j" unicode="ffj" horiz-adv-x="848" 
d="M501 -68q14 -5 28.5 -7t23.5 -2q20 0 33.5 12.5t19.5 41.5l92 435h-140l-87 -412h-154l87 412h-135l-87 -412h-154l87 412h-69l23 108h69l8 38q10 48 29.5 80t45.5 51.5t57 27.5t64 8q39 0 79 -6.5t85 -24.5q24 21 64 31t103 10q46 0 82 -6t56 -12l-23 -110
q-10 3 -24.5 5.5t-29 4.5t-28 3t-21.5 1q-47 0 -67 -12t-27 -44l-10 -45h295l-118 -556q-16 -75 -65 -117t-128 -42q-22 0 -46.5 5.5t-40.5 12.5zM444 598q-20 5 -42 9t-33 4q-35 0 -49 -11.5t-21 -42.5l-7 -37h135l8 38z" />
    <glyph glyph-name="f_f_l" unicode="ffl" horiz-adv-x="854" 
d="M651 735q38 0 70 -3.5t52 -8.5l153 6l-154 -729h-155l130 613q-17 4 -40 6t-37 2q-32 0 -52.5 -12.5t-27.5 -44.5l-9 -44h97l-23 -108h-97l-87 -412h-154l87 412h-135l-87 -412h-154l87 412h-69l23 108h69l8 38q10 48 29.5 80t46 51.5t58 27.5t64.5 8q39 0 78 -6.5
t84 -24.5q24 21 56 31t89 10zM444 598q-20 5 -42 9t-33 4q-35 0 -48.5 -11.5t-20.5 -42.5l-8 -37h135l8 38z" />
    <glyph glyph-name="f_i" unicode="fi" horiz-adv-x="558" 
d="M498 607q-10 3 -24 5.5t-29 4.5t-29 3t-25 1q-27 0 -43 -3.5t-25.5 -11t-14 -19.5t-8.5 -29l-8 -38h294l-110 -520h-155l87 412h-139l-87 -412h-154l87 412h-69l23 108h69l8 38q20 96 77 136.5t146 40.5q49 0 90.5 -6t61.5 -12z" />
    <glyph glyph-name="f_j" unicode="fj" horiz-adv-x="558" 
d="M211 -68q14 -5 28.5 -7t23.5 -2q20 0 33.5 12.5t19.5 41.5l92 435h-139l-87 -412h-154l87 412h-69l23 108h69l9 38q22 95 79.5 136t141.5 41q46 0 89.5 -6t63.5 -12l-23 -110q-10 3 -24.5 5.5t-29 4.5t-28 3t-22.5 1q-26 0 -42.5 -3.5t-26.5 -11.5t-15.5 -20t-9.5 -29
l-8 -37h294l-118 -556q-16 -75 -65 -117t-128 -42q-22 0 -46.5 5.5t-40.5 12.5z" />
    <glyph glyph-name="f_l" unicode="fl" horiz-adv-x="565" 
d="M328 0l130 613q-17 4 -40.5 6t-37.5 2q-24 0 -38.5 -4.5t-22.5 -13t-12.5 -21t-7.5 -28.5l-7 -35h85l-23 -108h-85l-87 -411h-154l87 411h-69l23 108h69l8 39q10 48 29.5 81.5t47 55t62 31t74.5 9.5q38 0 71.5 -3.5t53.5 -8.5l153 6l-154 -729h-155z" />
    <glyph glyph-name=".notdef" horiz-adv-x="529" 
d="M42 720h445v-720h-445v720zM364 123v474h-199v-474h199z" />
    <glyph glyph-name=".null" horiz-adv-x="0" 
 />
    <glyph glyph-name="nonmarkingreturn" horiz-adv-x="210" 
 />
    <glyph glyph-name="space" unicode=" " horiz-adv-x="210" 
 />
    <glyph glyph-name="exclam" unicode="!" horiz-adv-x="275" 
d="M72 240l79 480h199l-125 -480h-153zM10 0l33 157h174l-33 -157h-174z" />
    <glyph glyph-name="quotedbl" unicode="&#x22;" horiz-adv-x="506" 
d="M236 490h-96l19 153l20 92h122l-20 -92zM398 490h-96l19 153l20 92h122l-20 -92z" />
    <glyph glyph-name="numbersign" unicode="#" 
d="M154 540h55l46 160h122l-45 -160h74l46 160h122l-45 -160h42l-23 -110h-52l-45 -160h46l-23 -110h-54l-46 -160h-123l46 160h-75l-45 -160h-123l46 160h-43l23 110h51l46 160h-46zM254 270h74l46 160h-75z" />
    <glyph glyph-name="dollar" unicode="$" 
d="M358 433q93 -32 134 -80.5t41 -114.5q0 -56 -16.5 -100.5t-46 -76.5t-70 -51t-89.5 -23l-26 -122h-124l26 124q-72 11 -112 54t-40 124q0 21 3 44h155q-1 -6 -1 -11v-10q0 -44 21 -66.5t58 -22.5q42 0 68 29.5t26 78.5q0 29 -21.5 50.5t-75.5 38.5q-79 25 -116 67.5
t-37 106.5q0 49 15 91.5t42 74t65.5 50.5t86.5 22l26 120h124l-25 -118q60 -8 95 -52t35 -116v-14q0 -7 -1 -15h-153v11q0 40 -18.5 57t-44.5 17q-32 0 -53.5 -20.5t-21.5 -62.5q0 -33 14.5 -51.5t56.5 -32.5z" />
    <glyph glyph-name="percent" unicode="%" horiz-adv-x="677" 
d="M216 0h-116l428 700h116zM245 715q72 0 106.5 -35.5t34.5 -97.5q0 -45 -10.5 -83t-32 -65t-54.5 -42t-78 -15q-72 0 -106.5 35.5t-34.5 97.5q0 45 10.5 82.5t32.5 65t54.5 42.5t77.5 15zM239 637q-19 0 -32 -10t-21 -26.5t-11.5 -39.5t-3.5 -48q0 -29 10.5 -43.5
t35.5 -14.5q19 0 32 10t21 27t12 39.5t4 48.5q0 57 -47 57zM530 323q72 0 106.5 -35.5t34.5 -97.5q0 -45 -10.5 -83t-32 -65t-54.5 -42t-78 -15q-72 0 -106.5 35.5t-34.5 97.5q0 45 10.5 82.5t32.5 65t54.5 42.5t77.5 15zM524 245q-19 0 -32 -10t-21 -26.5t-11.5 -39.5
t-3.5 -48q0 -29 10.5 -43.5t35.5 -14.5q19 0 32 10t21 27t12 39.5t4 48.5q0 57 -47 57z" />
    <glyph glyph-name="ampersand" unicode="&#x26;" horiz-adv-x="589" 
d="M591 325q-15 -44 -34.5 -83.5t-46.5 -81.5l53 -82l-117 -93l-40 65q-35 -30 -79 -47.5t-89 -17.5q-109 0 -160.5 44t-51.5 121q0 29 7 55t24.5 51t46 51t71.5 56q-53 69 -53 143q0 47 14 85.5t42.5 66t71.5 42.5t102 15q85 0 130 -37t45 -97q0 -31 -6 -57t-23.5 -51.5
t-48.5 -53t-81 -63.5l54 -93q9 20 16 39.5t14 41.5zM262 98q20 0 39 10t36 28l-87 135q-24 -22 -37 -51.5t-13 -55.5q0 -29 15 -47.5t47 -18.5zM272 519q0 -19 6 -36t20 -38q45 32 63 62t18 61q0 20 -8.5 34.5t-31.5 14.5q-33 0 -50 -28.5t-17 -69.5z" />
    <glyph glyph-name="quotesingle" unicode="'" horiz-adv-x="232" 
d="M228 490h-96l19 153l20 92h122l-20 -92z" />
    <glyph glyph-name="parenleft" unicode="(" horiz-adv-x="293" 
d="M167 101q0 -64 9.5 -131t31.5 -140h-132q-19 53 -34 128.5t-15 167.5q0 58 10.5 122.5t28.5 129.5t42.5 128.5t53.5 120t60.5 103.5t62.5 80h132q-69 -99 -114.5 -184t-73.5 -167.5t-42 -169t-20 -188.5z" />
    <glyph glyph-name="parenright" unicode=")" horiz-adv-x="293" 
d="M181 537q0 65 -9.5 132t-31.5 141h132q19 -54 34 -130t15 -169q0 -58 -10.5 -122t-28.5 -129t-43 -128t-53.5 -119t-60 -103t-62.5 -80h-131q67 99 113 183.5t74.5 167t42.5 168.5t19 188z" />
    <glyph glyph-name="asterisk" unicode="*" horiz-adv-x="470" 
d="M308 475l-50 -119l-112 82l92 88l-130 10l44 132l112 -60l-30 127h138l-23 -129l115 62l44 -132l-131 -10l93 -88l-112 -82z" />
    <glyph glyph-name="plus" unicode="+" 
d="M417 527l-31 -143h128l-26 -123h-128l-31 -144h-131l31 144h-127l26 123h127l31 143h131z" />
    <glyph glyph-name="comma" unicode="," horiz-adv-x="270" 
d="M197 20q-12 -58 -37.5 -95.5t-58 -60t-70 -33t-73.5 -14.5l15 78q40 8 68 34t38 71h-63l33 157h177z" />
    <glyph glyph-name="hyphen" unicode="-" horiz-adv-x="464" 
d="M414 261h-334l26 123h334z" />
    <glyph glyph-name="period" unicode="." horiz-adv-x="289" 
d="M16 0l33 157h177l-33 -157h-177z" />
    <glyph glyph-name="slash" unicode="/" horiz-adv-x="272" 
d="M65 -90h-134l333 825h134z" />
    <glyph glyph-name="zero" unicode="0" 
d="M261 91q19 0 35.5 11.5t31.5 40t29 77.5t30 125q13 62 19.5 106.5t6.5 75.5q0 45 -12.5 64t-35.5 19q-19 0 -35.5 -12t-31.5 -41.5t-29.5 -79.5t-30.5 -126q-25 -119 -25 -180q0 -45 12.5 -62.5t35.5 -17.5zM247 -15q-91 0 -139.5 52.5t-48.5 164.5q0 34 5 72.5t14 83.5
q21 98 49 166t65 110.5t83.5 61.5t104.5 19q91 0 139 -52.5t48 -164.5q0 -71 -19 -160q-20 -95 -48.5 -162t-66 -109.5t-84 -62t-102.5 -19.5z" />
    <glyph glyph-name="one" unicode="1" 
d="M349 552l-157 -82l31 145l157 85h155l-148 -700h-155z" />
    <glyph glyph-name="two" unicode="2" 
d="M123 508q16 51 43 89.5t62.5 64.5t78 39.5t89.5 13.5q88 0 136.5 -40.5t48.5 -106.5q0 -43 -12 -79.5t-40.5 -76t-74.5 -86t-115 -109.5l-99 -90h245l-26 -127h-428l26 127l165 161q65 63 104 104.5t60 69.5t28 47t7 38q0 52 -52 52q-29 0 -53 -22t-41 -69h-152z" />
    <glyph glyph-name="three" unicode="3" 
d="M258 98q20 0 37 11t29 30t19 45t7 55q0 76 -83 76h-50l23 107h67q22 0 41 11t32.5 29t21 41.5t7.5 49.5t-11 38t-31 12q-25 0 -41.5 -16.5t-29.5 -52.5h-148q27 83 86.5 132t153.5 49q85 0 133.5 -39.5t48.5 -105.5q0 -35 -13 -67.5t-36 -58.5t-54 -44t-67 -24
q24 -3 44.5 -16.5t34.5 -33.5t22 -45t8 -53q0 -55 -17.5 -99.5t-51 -76.5t-81.5 -49.5t-109 -17.5q-97 0 -148.5 43t-51.5 113q0 9 1 18.5t3 19.5h154q-1 -7 -1.5 -13t-0.5 -12q0 -26 12 -41t40 -15z" />
    <glyph glyph-name="four" unicode="4" 
d="M562 700l-96 -453h57l-24 -115h-57l-28 -132h-146l28 132h-259l28 132l334 436h163zM320 247l64 271l-192 -271h128z" />
    <glyph glyph-name="five" unicode="5" 
d="M202 180q-1 -5 -1 -10v-9q0 -32 13.5 -47.5t37.5 -15.5q25 0 45 17t34 45t21.5 62.5t7.5 69.5q0 39 -16 55.5t-42 16.5q-20 0 -39 -11.5t-36 -31.5h-119l97 379h358l-23 -110h-219l-44 -156q23 15 48 23.5t51 8.5q68 0 107 -42t39 -120q0 -68 -21.5 -126t-59 -101
t-89.5 -67.5t-112 -24.5q-88 0 -137.5 43t-49.5 124v14q0 7 1 14h148z" />
    <glyph glyph-name="six" unicode="6" 
d="M391 478q66 0 105.5 -44.5t39.5 -123.5q0 -72 -20.5 -132t-58 -102.5t-89.5 -66.5t-114 -24q-100 0 -148.5 54.5t-48.5 149.5q0 106 22.5 201.5t65.5 167.5t105 114.5t141 42.5q92 0 142.5 -40t55.5 -113h-167q0 25 -12 36.5t-33 11.5q-18 0 -34.5 -8t-32.5 -30.5
t-31 -62t-31 -101.5q27 32 63 51t80 19zM209 174q0 -42 16.5 -60.5t42.5 -18.5t46.5 19.5t34.5 49.5t21.5 66.5t7.5 71.5q0 38 -14.5 52t-40.5 14q-24 0 -45 -13.5t-36 -39t-24 -61t-9 -80.5z" />
    <glyph glyph-name="seven" unicode="7" 
d="M235 0h-164l351 582h-275l25 118h431l-26 -122z" />
    <glyph glyph-name="eight" unicode="8" 
d="M379 715q43 0 79.5 -11.5t62.5 -32t40.5 -48.5t14.5 -62q0 -66 -37 -111t-100 -77q40 -29 58.5 -66t18.5 -79q0 -55 -18 -99.5t-52 -76.5t-83 -49.5t-112 -17.5q-51 0 -90 12.5t-65.5 34.5t-40 52.5t-13.5 66.5q0 81 39 134t111 79q-35 23 -50.5 53.5t-15.5 68.5
q0 52 16 94t48 72t79.5 46.5t109.5 16.5zM351 225q0 61 -63 90q-16 -8 -30.5 -24t-25.5 -37t-17.5 -45.5t-6.5 -48.5q0 -32 14 -49t38 -17q20 0 37 11t29 29t18.5 41.5t6.5 49.5zM370 617q-43 0 -66.5 -32.5t-23.5 -81.5q0 -58 56 -82q16 9 32 22.5t28 30t19.5 36.5t7.5 42
q0 32 -15 48.5t-38 16.5z" />
    <glyph glyph-name="nine" unicode="9" 
d="M238 222q-67 0 -106.5 45.5t-39.5 125.5q0 72 21 131.5t58.5 101.5t89 65.5t112.5 23.5q97 0 147 -52.5t50 -153.5q0 -106 -20.5 -201t-62.5 -167t-105.5 -114t-148.5 -42q-89 0 -139 40t-55 113h167q0 -48 42 -48q18 0 34.5 8t32.5 30.5t32 62t33 101.5q-28 -32 -63 -51
t-79 -19zM360 605q-25 0 -45 -19t-34.5 -49t-22.5 -67t-8 -72q0 -38 15 -52t41 -14t47 17.5t35.5 45t22.5 62t8 69.5q0 42 -16.5 60.5t-42.5 18.5z" />
    <glyph glyph-name="colon" unicode=":" horiz-adv-x="289" 
d="M16 0l33 157h177l-33 -157h-177zM93 363l33 157h177l-33 -157h-177z" />
    <glyph glyph-name="semicolon" unicode=";" horiz-adv-x="270" 
d="M93 363l33 157h177l-33 -157h-177zM197 20q-12 -58 -37.5 -95.5t-58 -60t-70 -33t-73.5 -14.5l15 78q40 8 68 34t38 71h-63l33 157h177z" />
    <glyph glyph-name="less" unicode="&#x3c;" 
d="M128 382l430 210l-32 -153l-253 -117l-1 -7l203 -117l-31 -143l-341 210z" />
    <glyph glyph-name="equal" unicode="=" 
d="M510 363h-386l26 123h386zM466 158h-386l26 123h386z" />
    <glyph glyph-name="greater" unicode="&#x3e;" 
d="M489 265l-431 -210l33 153l254 117l1 7l-204 117l30 143l342 -210z" />
    <glyph glyph-name="question" unicode="?" horiz-adv-x="459" 
d="M111 535q7 42 27 78.5t51.5 63.5t72.5 42.5t89 15.5q79 0 122 -36t43 -98q0 -29 -5 -53t-17.5 -49t-33.5 -53.5t-53 -67.5q-20 -24 -31.5 -39t-18.5 -29.5t-11.5 -32.5t-10.5 -47h-156q10 47 18 77t16.5 51t19.5 37t28 35q51 57 70.5 91.5t19.5 63.5q0 18 -6 25.5
t-17 7.5q-9 0 -15.5 -3t-12.5 -12t-11.5 -25.5t-12.5 -42.5h-165zM123 0l33 157h173l-33 -157h-173z" />
    <glyph glyph-name="at" unicode="@" horiz-adv-x="790" 
d="M585 95q-45 0 -69.5 26.5t-24.5 60.5q-6 -12 -18 -26t-28 -25t-36.5 -18.5t-42.5 -7.5q-35 0 -59 11.5t-38.5 31.5t-21 47.5t-6.5 60.5q0 67 17 122t45.5 94t65 60t75.5 21q23 0 42.5 -10.5t27.5 -27.5l16 31h99l-50 -250q-4 -19 -7.5 -37.5t-3.5 -38.5q0 -19 6 -25.5
t16 -6.5q28 0 47 26t30.5 63.5t16.5 80t5 75.5q0 103 -52.5 152t-158.5 49q-76 0 -132.5 -29t-93.5 -79t-55 -116t-18 -140q0 -67 18 -116t50.5 -80.5t77 -46.5t97.5 -15q46 0 79 7.5t61 17.5l23 -96q-27 -11 -70 -21.5t-109 -10.5q-74 0 -137 22.5t-109 67t-72 110.5
t-26 154q0 97 27 182.5t80 150t133 102t185 37.5q73 0 131 -20t98.5 -58t62.5 -93.5t22 -125.5q0 -11 -0.5 -21t-1.5 -21q-6 -72 -26 -128t-49 -94.5t-65 -58.5t-74 -20zM398 199q20 0 34.5 27t23.5 63t13.5 72.5t4.5 54.5q0 26 -6 35.5t-20 9.5q-17 0 -32 -20.5t-26 -51
t-17.5 -65t-6.5 -62.5q0 -20 2 -32.5t6 -19.5t10 -9t14 -2z" />
    <glyph glyph-name="A" unicode="A" horiz-adv-x="601" 
d="M388 165h-189l-72 -165h-167l359 720h186l56 -720h-170zM247 275h139l-4 307z" />
    <glyph glyph-name="B" unicode="B" horiz-adv-x="555" 
d="M351 720q124 0 179 -37.5t55 -107.5q0 -67 -39.5 -119t-115.5 -75q54 -13 83.5 -50.5t29.5 -87.5q0 -55 -19 -100t-57.5 -76.5t-97 -49t-137.5 -17.5h-226l153 720h192zM241 324l-45 -214h61q57 0 86.5 38t29.5 101q0 38 -19.5 56.5t-52.5 18.5h-60zM302 610l-39 -182h49
q22 0 40.5 8.5t32.5 23.5t22 35t8 43q0 72 -71 72h-42z" />
    <glyph glyph-name="C" unicode="C" horiz-adv-x="641" 
d="M316 103q54 0 86.5 38.5t56.5 123.5h170q-23 -68 -53 -120t-69 -87.5t-89 -54t-113 -18.5q-123 0 -187 65t-64 190q0 109 26.5 200t75.5 156.5t118.5 102t155.5 36.5q58 0 104.5 -17.5t77.5 -49.5t45 -77.5t14 -105.5h-167q3 71 -19 102t-70 31q-42 0 -76.5 -32.5
t-59 -86.5t-38.5 -124t-14 -144q0 -69 23.5 -98.5t65.5 -29.5z" />
    <glyph glyph-name="D" unicode="D" horiz-adv-x="634" 
d="M388 720q128 0 196 -60.5t68 -184.5q0 -111 -27.5 -199.5t-78.5 -149.5t-123.5 -93.5t-163.5 -32.5h-253l153 720h229zM301 604l-104 -487h75q40 0 78 25.5t67.5 71t47 108.5t17.5 139q0 75 -31 109t-83 34h-67z" />
    <glyph glyph-name="E" unicode="E" horiz-adv-x="502" 
d="M476 305h-239l-39 -184h264l-25 -121h-431l153 720h431l-27 -123h-264l-37 -176h239z" />
    <glyph glyph-name="F" unicode="F" horiz-adv-x="466" 
d="M440 291h-206l-61 -291h-167l153 720h399l-26 -121h-232l-41 -192h206z" />
    <glyph glyph-name="G" unicode="G" horiz-adv-x="648" 
d="M570 0h-101l-6 77q-41 -46 -88 -69t-107 -23q-97 0 -155.5 62.5t-58.5 183.5q0 111 27.5 203.5t77.5 159.5t121.5 104t160.5 37q56 0 101 -15t76 -43.5t46 -69.5t15 -93h-166q3 51 -20 77.5t-70 26.5q-45 0 -80.5 -33t-61 -87t-39 -123.5t-13.5 -141.5q0 -68 26 -99
t72 -31q59 0 100 38.5t54 99.5l11 51h-135l23 109h275z" />
    <glyph glyph-name="H" unicode="H" horiz-adv-x="626" 
d="M693 720l-153 -720h-165l64 304h-202l-64 -304h-167l153 720h167l-63 -296h202l63 296h165z" />
    <glyph glyph-name="I" unicode="I" horiz-adv-x="259" 
d="M326 720l-153 -720h-167l153 720h167z" />
    <glyph glyph-name="J" unicode="J" horiz-adv-x="494" 
d="M174 198q-3 -18 -3 -31q0 -32 13 -47.5t36 -15.5q26 0 45 23t33 89l108 504h159l-105 -492q-26 -123 -87 -183t-166 -60q-93 0 -142.5 45.5t-49.5 131.5q0 8 0.5 17.5t1.5 18.5h157z" />
    <glyph glyph-name="K" unicode="K" horiz-adv-x="645" 
d="M415 0l-171 333l-71 -333h-167l153 720h167l-63 -295l269 295h192l-323 -338l206 -382h-192z" />
    <glyph glyph-name="L" unicode="L" horiz-adv-x="510" 
d="M326 720l-127 -594h285l-26 -126h-452l153 720h167z" />
    <glyph glyph-name="M" unicode="M" horiz-adv-x="787" 
d="M287 0l-32 473l-100 -473h-149l153 720h194l37 -539l265 539h199l-153 -720h-150l100 474l-232 -474h-132z" />
    <glyph glyph-name="N" unicode="N" horiz-adv-x="620" 
d="M687 720l-153 -720h-167l-113 502l-107 -502h-141l153 720h181l102 -491l104 491h141z" />
    <glyph glyph-name="O" unicode="O" horiz-adv-x="678" 
d="M331 104q38 0 73 30.5t62 81.5t43.5 117.5t16.5 138.5q0 76 -29.5 110.5t-77.5 34.5q-36 0 -71 -30t-62.5 -80.5t-44.5 -117t-17 -140.5q0 -77 29.5 -111t77.5 -34zM312 -15q-59 0 -106.5 17t-81 50t-51.5 82.5t-18 114.5q0 108 29.5 197.5t81 153.5t121.5 99.5t151 35.5
q58 0 105 -17t81 -50t52.5 -82.5t18.5 -115.5q0 -108 -30.5 -197.5t-82.5 -153.5t-122 -99t-148 -35z" />
    <glyph glyph-name="P" unicode="P" horiz-adv-x="584" 
d="M380 720q66 0 112.5 -12.5t76 -35.5t43.5 -56t14 -75q0 -141 -83.5 -220.5t-245.5 -79.5h-73l-51 -241h-167l153 720h221zM301 605l-53 -249h73q28 0 51.5 12.5t41 34t27.5 51t10 64.5q0 42 -23.5 64.5t-71.5 22.5h-55z" />
    <glyph glyph-name="Q" unicode="Q" horiz-adv-x="687" 
d="M312 -15q-59 0 -106.5 17t-81 50t-51.5 82.5t-18 114.5q0 108 29.5 197.5t81 153.5t121.5 99.5t151 35.5q58 0 105 -17t81 -50t52.5 -82.5t18.5 -115.5q0 -137 -47.5 -242t-125.5 -168l79 -121l-150 -98l-71 152q-35 -8 -68 -8zM331 104q38 0 73 30.5t62 81.5t43.5 117.5
t16.5 138.5q0 76 -29.5 110.5t-77.5 34.5q-36 0 -71 -30t-62.5 -80.5t-44.5 -117t-17 -140.5q0 -77 29.5 -111t77.5 -34z" />
    <glyph glyph-name="R" unicode="R" horiz-adv-x="598" 
d="M374 0l-95 263h-50l-56 -263h-167l153 720h203q136 0 199.5 -48.5t63.5 -132.5q0 -97 -45 -158.5t-143 -92.5l118 -288h-181zM301 604l-48 -225h56q68 0 104.5 38.5t36.5 107.5q0 38 -24 58.5t-81 20.5h-44z" />
    <glyph glyph-name="S" unicode="S" horiz-adv-x="577" 
d="M264 -15q-62 0 -107 13.5t-74 39t-42.5 61.5t-13.5 81q0 8 0.5 16t1.5 16h155q-1 -5 -1 -10v-10q0 -20 4.5 -36.5t15.5 -28.5t30.5 -18.5t48.5 -6.5q55 0 84 22t29 64q0 16 -3.5 30t-15.5 27.5t-35 28t-61 31.5q-92 42 -133.5 87.5t-41.5 107.5q0 50 17 93t52.5 74.5
t90 49.5t129.5 18q106 0 164 -46.5t58 -131.5v-11q0 -6 -1 -11h-153q1 5 1 7v5q0 35 -23 54t-65 19q-51 0 -74 -22.5t-23 -56.5q0 -17 4 -29.5t14.5 -23.5t28.5 -21.5t45 -22.5q55 -24 93 -47.5t62 -48.5t34.5 -51.5t10.5 -57.5q0 -58 -20 -105t-59 -80t-96 -51t-131 -18z
" />
    <glyph glyph-name="T" unicode="T" horiz-adv-x="519" 
d="M602 594h-174l-126 -594h-167l126 594h-172l27 126h513z" />
    <glyph glyph-name="U" unicode="U" horiz-adv-x="619" 
d="M322 720l-105 -487q-3 -13 -4 -24t-1 -22q0 -40 20 -61.5t63 -21.5q54 0 85.5 31t44.5 92l105 493h160l-104 -489q-26 -121 -101 -183.5t-210 -62.5q-113 0 -170.5 52t-57.5 143q0 31 8 71l100 469h167z" />
    <glyph glyph-name="V" unicode="V" horiz-adv-x="573" 
d="M686 720l-341 -720h-198l-34 720h167l-4 -582l246 582h164z" />
    <glyph glyph-name="W" unicode="W" horiz-adv-x="864" 
d="M974 720l-281 -720h-198l9 540l-211 -540h-187l10 720h165l-29 -529l202 529h182l-10 -532l186 532h162z" />
    <glyph glyph-name="X" unicode="X" horiz-adv-x="621" 
d="M441 382l137 -382h-186l-73 244l-170 -244h-186l297 375l-131 345h181l66 -215l156 215h177z" />
    <glyph glyph-name="Y" unicode="Y" horiz-adv-x="588" 
d="M176 0l61 287l-124 433h174l59 -288l194 288h161l-308 -433l-61 -287h-156z" />
    <glyph glyph-name="Z" unicode="Z" horiz-adv-x="526" 
d="M172 119h319l-25 -119h-490l25 121l425 480h-308l26 119h479l-26 -118z" />
    <glyph glyph-name="bracketleft" unicode="[" horiz-adv-x="292" 
d="M198 -170h-229l209 980h229l-22 -103h-97l-165 -774h97z" />
    <glyph glyph-name="backslash" unicode="\" horiz-adv-x="272" 
d="M-126 735h134l333 -825h-134z" />
    <glyph glyph-name="bracketright" unicode="]" horiz-adv-x="292" 
d="M-38 -67h97l165 774h-97l22 103h229l-209 -980h-228z" />
    <glyph glyph-name="asciicircum" unicode="^" horiz-adv-x="419" 
d="M198 400h-148l198 320h150l61 -320h-139l-20 196z" />
    <glyph glyph-name="underscore" unicode="_" horiz-adv-x="449" 
d="M387 -149h-468l26 123h468z" />
    <glyph glyph-name="grave" unicode="`" horiz-adv-x="299" 
d="M396 583h-116l-101 137h161z" />
    <glyph glyph-name="a" unicode="a" horiz-adv-x="509" 
d="M77 373q29 78 89 120t161 42q85 0 132 -39.5t47 -113.5q0 -27 -6 -55l-69 -327h-120l-8 54q-28 -29 -66 -49t-91 -20q-30 0 -54 10t-41 28t-26.5 42.5t-9.5 53.5q0 78 51 127t164 66l115 17l5 25q2 8 3 16.5t1 13.5q0 50 -48 50q-55 0 -72 -61h-157zM214 92q44 0 69 29.5
t33 70.5l11 51l-69 -13q-49 -10 -68 -34.5t-19 -51.5q0 -28 10.5 -40t32.5 -12z" />
    <glyph glyph-name="b" unicode="b" horiz-adv-x="555" 
d="M2 0l153 720h155l-53 -246q30 29 65 45t75 16q74 0 116.5 -46.5t42.5 -132.5q0 -77 -20.5 -144.5t-57 -118t-85.5 -79.5t-106 -29q-39 0 -75.5 18.5t-53.5 50.5l-36 -54h-120zM324 421q-29 0 -53 -18.5t-40.5 -50t-25.5 -74.5t-9 -92q0 -46 18.5 -66.5t53.5 -20.5
q30 0 53 20.5t39.5 54.5t25 76.5t8.5 86.5t-18.5 64t-51.5 20z" />
    <glyph glyph-name="c" unicode="c" horiz-adv-x="519" 
d="M493 173q-41 -94 -102.5 -141t-157.5 -47q-100 0 -150.5 48.5t-50.5 141.5q0 77 20 143t57.5 114t92.5 75.5t125 27.5q49 0 88 -13t65.5 -36.5t39.5 -55.5t13 -70h-161q2 33 -14 51t-45 18q-26 0 -48 -20.5t-38.5 -55.5t-26 -80.5t-9.5 -94.5q0 -45 16 -65.5t43 -20.5
q31 0 49.5 19.5t32.5 61.5h161z" />
    <glyph glyph-name="d" unicode="d" horiz-adv-x="555" 
d="M353 0l-14 57q-32 -32 -67 -52t-73 -20q-75 0 -121.5 51t-46.5 144q0 78 20.5 143t56 112t82 73.5t98.5 26.5q46 0 80.5 -17t49.5 -43l53 245h155l-153 -720h-120zM315 421q-27 0 -50 -19t-40 -51.5t-27 -75t-10 -88.5q0 -47 20 -67.5t54 -20.5q26 0 48.5 19t39 50.5
t26 73t9.5 86.5q0 47 -19 70t-51 23z" />
    <glyph glyph-name="e" unicode="e" horiz-adv-x="526" 
d="M489 147q-29 -73 -87.5 -117.5t-155.5 -44.5q-102 0 -157 52t-55 146q0 78 19.5 142.5t56.5 111t90.5 72.5t122.5 26q95 0 148 -51t53 -154q0 -48 -12 -108h-320q-2 -10 -3 -22t-1 -22q0 -45 18 -64.5t55 -19.5q29 0 46 13.5t27 39.5h155zM313 437q-35 0 -59.5 -27.5
t-44.5 -96.5h163q3 15 4 27.5t1 23.5q0 39 -16 56t-48 17z" />
    <glyph glyph-name="f" unicode="f" horiz-adv-x="347" 
d="M446 608q-20 6 -38 9.5t-29 3.5q-34 0 -47 -13.5t-19 -43.5l-9 -44h99l-23 -108h-99l-87 -412h-154l87 412h-69l23 108h69l10 48q19 87 65.5 127t133.5 40q36 0 63 -5.5t47 -11.5z" />
    <glyph glyph-name="g" unicode="g" horiz-adv-x="543" 
d="M144 -36q2 -26 16.5 -38t51.5 -12q39 0 61.5 24t35.5 80l10 44q-29 -23 -55.5 -35t-56.5 -12q-38 0 -69.5 13.5t-54 38.5t-35 60.5t-12.5 79.5q0 70 19.5 130.5t54 104t81 68.5t99.5 25q36 0 73.5 -16t55.5 -45l37 46h115l-105 -494q-22 -103 -89 -162t-182 -59
q-116 0 -162 39t-46 102q0 9 1 18h156zM315 421q-27 0 -49 -17t-38.5 -45.5t-25.5 -66.5t-9 -80q0 -45 19.5 -64t55.5 -19q28 0 50 17.5t37.5 47t23.5 67t8 77.5q0 45 -18.5 64t-53.5 19z" />
    <glyph glyph-name="h" unicode="h" horiz-adv-x="529" 
d="M155 720h155l-53 -247q32 32 64.5 47t72.5 15q64 0 99 -36.5t35 -104.5q0 -16 -2 -32.5t-6 -35.5l-69 -326h-155l68 324q6 28 6 47q0 29 -12 41.5t-34 12.5q-35 0 -61.5 -26t-39.5 -85l-66 -314h-155z" />
    <glyph glyph-name="i" unicode="i" horiz-adv-x="239" 
d="M117 587l29 133h169l-29 -133h-169zM2 0l110 520h155l-110 -520h-155z" />
    <glyph glyph-name="j" unicode="j" horiz-adv-x="245" 
d="M-102 -68q14 -5 28.5 -7t23.5 -2q20 0 33.5 12.5t19.5 41.5l115 543h155l-118 -556q-16 -75 -65 -117t-128 -42q-22 0 -46.5 5.5t-40.5 12.5zM124 587l29 133h169l-29 -133h-169z" />
    <glyph glyph-name="k" unicode="k" horiz-adv-x="526" 
d="M2 0l153 720h155l-83 -389l184 189h173l-220 -218l132 -302h-185l-100 257l-54 -257h-155z" />
    <glyph glyph-name="l" unicode="l" horiz-adv-x="239" 
d="M157 0h-155l153 720h155z" />
    <glyph glyph-name="m" unicode="m" horiz-adv-x="807" 
d="M2 0l110 520h119l11 -54q29 34 64 51.5t82 17.5q46 0 76.5 -17t45.5 -55q34 36 71.5 54t88.5 18q66 0 101 -35t35 -102q0 -16 -1.5 -33t-6.5 -37l-69 -328h-155l70 332q5 23 5 38q0 55 -49 55q-34 0 -56.5 -25t-34.5 -82l-67 -318h-155l70 332q5 25 5 39q0 54 -48 54
q-30 0 -53.5 -24.5t-34.5 -75.5l-69 -325h-155z" />
    <glyph glyph-name="n" unicode="n" horiz-adv-x="529" 
d="M112 520h118l11 -55q38 38 73 54t79 16q64 0 100 -37t36 -106q0 -28 -8 -66l-70 -326h-155l69 324q6 27 6 47q0 29 -12.5 41.5t-34.5 12.5q-35 0 -61.5 -26.5t-39.5 -85.5l-66 -313h-155z" />
    <glyph glyph-name="o" unicode="o" horiz-adv-x="542" 
d="M328 535q103 0 157 -49t54 -145q0 -79 -19.5 -144.5t-57.5 -112.5t-94 -73t-129 -26q-101 0 -153.5 50t-52.5 146q0 74 18 138.5t55 112.5t92.5 75.5t129.5 27.5zM313 430q-30 0 -52.5 -23t-38.5 -60t-24 -84.5t-8 -95.5q0 -42 17 -59.5t51 -17.5q30 0 53.5 22t39 58.5
t24 84.5t8.5 99q0 41 -17.5 58.5t-52.5 17.5z" />
    <glyph glyph-name="p" unicode="p" horiz-adv-x="555" 
d="M245 464q35 35 73 53t77 18q75 0 118 -45.5t43 -133.5q0 -77 -20.5 -145t-56.5 -118t-85 -79t-106 -29q-39 0 -73.5 17t-48.5 43l-48 -225h-155l149 700h115zM321 421q-29 0 -52.5 -21t-39.5 -54.5t-24.5 -75t-8.5 -83.5q0 -47 19 -67.5t57 -20.5q26 0 48.5 21t39 54.5
t25.5 76t9 86.5q0 45 -18 64.5t-55 19.5z" />
    <glyph glyph-name="q" unicode="q" horiz-adv-x="555" 
d="M328 48q-26 -27 -57 -45t-69 -18q-75 0 -122.5 51t-47.5 144q0 75 20.5 140t55 112.5t80.5 75t97 27.5q101 0 142 -69l41 54h115l-149 -700h-155zM316 421q-27 0 -50 -18t-40.5 -49.5t-27.5 -74t-10 -92.5q0 -45 20 -66.5t55 -21.5q26 0 48 19t38.5 51t26 73t9.5 86
q0 51 -18.5 72t-50.5 21z" />
    <glyph glyph-name="r" unicode="r" horiz-adv-x="357" 
d="M2 0l110 520h117l11 -79q28 46 62.5 70t76.5 24q14 0 27.5 -2t22.5 -5l-31 -145q-11 5 -25 7.5t-33 2.5q-42 0 -80.5 -44.5t-57.5 -132.5l-45 -216h-155z" />
    <glyph glyph-name="s" unicode="s" horiz-adv-x="481" 
d="M227 91q32 0 45.5 14t13.5 37q0 7 -3 14.5t-12 15t-25.5 16.5t-43.5 21q-78 33 -107.5 67.5t-29.5 78.5q0 81 55 130.5t172 49.5q99 0 149.5 -41.5t50.5 -104.5q0 -7 -1 -13h-155q2 23 -13 38t-47 15q-26 0 -39 -12.5t-13 -30.5q0 -8 2 -15t10 -14.5t23.5 -16t41.5 -19.5
q84 -35 116 -72.5t32 -82.5q0 -40 -14.5 -73t-44.5 -57t-76.5 -37.5t-110.5 -13.5q-100 0 -146.5 43t-46.5 106q0 7 1 13h157q-5 -56 59 -56z" />
    <glyph glyph-name="t" unicode="t" horiz-adv-x="332" 
d="M280 -1q-19 -6 -44.5 -10t-48.5 -4q-63 0 -94 31t-31 87q0 23 6 52l55 257h-69l23 108h69l37 125h144l-27 -125h91l-23 -108h-91l-57 -269q-1 -5 -1.5 -8.5t-0.5 -7.5q0 -31 35 -31q7 0 22.5 2.5t27.5 6.5z" />
    <glyph glyph-name="u" unicode="u" horiz-adv-x="524" 
d="M263 520l-73 -341q-4 -16 -4 -32q0 -28 14 -40t40 -12q28 0 53.5 28t37.5 85l66 312h155l-110 -520h-128l-3 55q-30 -33 -66 -51.5t-81 -18.5q-66 0 -100 34.5t-34 99.5q0 30 8 70l70 331h155z" />
    <glyph glyph-name="v" unicode="v" horiz-adv-x="506" 
d="M573 520l-264 -520h-193l-43 520h163l3 -398l170 398h164z" />
    <glyph glyph-name="w" unicode="w" horiz-adv-x="757" 
d="M820 520l-230 -520h-194l24 375l-149 -375h-188l-6 520h156l-24 -386l151 386h186l-26 -388l151 388h149z" />
    <glyph glyph-name="x" unicode="x" horiz-adv-x="510" 
d="M356 274l111 -274h-176l-46 161l-117 -161h-165l225 276l-107 244h172l41 -136l98 136h163z" />
    <glyph glyph-name="y" unicode="y" horiz-adv-x="512" 
d="M579 520l-276 -531q-27 -51 -49.5 -86t-45.5 -56.5t-49 -31.5t-60 -10q-20 0 -45.5 3t-42.5 8l24 109q22 -6 36 -7.5t22 -1.5q24 0 41 19.5t31 64.5h-43l-49 520h160l3 -399l184 399h159z" />
    <glyph glyph-name="z" unicode="z" horiz-adv-x="445" 
d="M179 115h224l-24 -115h-405l25 121l300 284h-222l24 115h400l-26 -121z" />
    <glyph glyph-name="braceleft" unicode="{" horiz-adv-x="293" 
d="M48 378q40 0 59.5 23t28.5 65l33 157q13 62 35.5 99t53.5 56.5t70 25.5t85 6l-22 -103q-16 0 -29 -2.5t-23.5 -11t-18 -24t-13.5 -41.5l-34 -160q-8 -35 -19 -60t-25.5 -42t-32.5 -28t-38 -18q26 -11 42.5 -32t16.5 -61q0 -26 -7 -55l-34 -160q-2 -11 -3.5 -20t-1.5 -17
q0 -27 14.5 -34t40.5 -8l-22 -103q-39 0 -70.5 4t-54.5 16t-35.5 35t-12.5 61q0 30 9 71l33 157q5 23 5 37q0 24 -12.5 37.5t-42.5 13.5z" />
    <glyph glyph-name="bar" unicode="|" horiz-adv-x="286" 
d="M336 785l-196 -925h-134l196 925h134z" />
    <glyph glyph-name="braceright" unicode="}" horiz-adv-x="293" 
d="M300 262q-41 0 -60.5 -23t-28.5 -65l-33 -157q-13 -62 -35.5 -99t-53.5 -56.5t-69.5 -25.5t-83.5 -6l22 103q16 0 28.5 2.5t23 11t18 24t13.5 41.5l34 160q7 35 18.5 59.5t26.5 42t32.5 28.5t38.5 18q-26 11 -43 32t-17 61q0 26 7 55l34 160q2 11 3.5 20t1.5 17
q0 27 -14.5 34t-40.5 8l22 103q38 0 70 -4t54.5 -16t35 -35t12.5 -61q0 -29 -9 -71l-33 -157q-5 -23 -5 -37q0 -24 12.5 -37.5t43.5 -13.5z" />
    <glyph glyph-name="asciitilde" unicode="~" 
d="M368 237q-26 0 -45.5 8.5t-36 19t-32.5 19t-36 8.5q-33 0 -65 -15.5t-55 -34.5l27 127q19 15 52 27.5t71 12.5q27 0 46.5 -8.5t36 -19t33 -19t36.5 -8.5q32 0 63.5 15.5t54.5 34.5l-27 -127q-19 -15 -52 -27.5t-71 -12.5z" />
    <glyph glyph-name="uni00A0" unicode="&#xa0;" horiz-adv-x="210" 
 />
    <glyph glyph-name="exclamdown" unicode="&#xa1;" horiz-adv-x="275" 
d="M237 300l-79 -480h-198l124 480h153zM298 540l-33 -157h-174l33 157h174z" />
    <glyph glyph-name="cent" unicode="&#xa2;" 
d="M151 -135l27 128q-129 31 -129 182q0 69 16 130t47 108t76.5 77.5t103.5 40.5l28 129h125l-29 -134q66 -17 100 -61t34 -105h-161q2 33 -14 51t-45 18q-26 0 -48 -20.5t-38.5 -55.5t-26 -80.5t-9.5 -94.5q0 -45 16 -65.5t43 -20.5q31 0 49.5 19.5t32.5 61.5h161
q-35 -81 -84.5 -127t-123.5 -57l-26 -124h-125z" />
    <glyph glyph-name="sterling" unicode="&#xa3;" 
d="M305 395h171l-19 -93h-173l-16 -72q-8 -35 -22.5 -59.5t-43.5 -44.5h285l-26 -126h-442l26 126q13 4 22 9t15 13t10 20t8 29l25 105h-61l19 93h59l23 105q12 55 30 95.5t46.5 67t68 39.5t93.5 13q49 0 86 -13.5t61.5 -37.5t33.5 -52.5t9 -56.5q0 -10 -1 -20h-146
q1 34 -11 48.5t-35 14.5q-13 0 -23.5 -4.5t-19 -16.5t-16 -32.5t-14.5 -52.5z" />
    <glyph glyph-name="currency" unicode="&#xa4;" 
d="M97 216q-4 19 -4 47q0 17 2 38.5t7 42.5q8 35 19.5 63t26.5 54l-36 58l102 88l34 -56q58 35 107 35q26 0 57.5 -9t52.5 -26l59 56l64 -88l-62 -58q2 -11 3 -21.5t1 -22.5q0 -17 -2 -38t-7 -42q-8 -37 -20 -66t-29 -55l38 -59l-101 -88l-37 58q-57 -33 -106 -33
q-26 0 -55.5 8t-50.5 25l-61 -58l-64 88zM336 471q-27 0 -49 -15t-38 -39.5t-25 -55.5t-9 -62q0 -39 19 -65t53 -26q27 0 49 15t38.5 40t25.5 55.5t9 62.5q0 39 -19.5 64.5t-53.5 25.5z" />
    <glyph glyph-name="yen" unicode="&#xa5;" 
d="M163 0l27 130h-103l20 93h103l10 47h-103l20 93h62l-101 337h174l58 -277l187 277h161l-242 -337h62l-20 -93h-103l-10 -47h103l-20 -93h-103l-27 -130h-155z" />
    <glyph glyph-name="brokenbar" unicode="&#xa6;" horiz-adv-x="286" 
d="M336 785l-81 -385h-134l81 385h134zM222 245l-82 -385h-134l82 385h134z" />
    <glyph glyph-name="section" unicode="&#xa7;" 
d="M508 342q0 -56 -26 -95.5t-74 -62.5q37 -40 37 -95q0 -87 -50.5 -133.5t-161.5 -46.5q-42 0 -75.5 11t-57 31t-32.5 44.5t-9 47.5q0 12 2 25h153q-2 -26 7.5 -39.5t26.5 -13.5q21 0 30.5 17t9.5 35q0 20 -9 31.5t-44 25.5q-60 24 -96 65.5t-36 92.5q0 55 25.5 94.5
t71.5 62.5q-20 20 -28.5 43t-8.5 51q0 84 51.5 133t156.5 49q40 0 74 -11t57.5 -31t33.5 -46t10 -52q0 -9 -1 -19h-150q3 53 -32 53q-18 0 -30 -12.5t-12 -30.5q0 -24 10.5 -38t45.5 -28q60 -24 95.5 -65.5t35.5 -92.5zM346 313q0 19 -10.5 37.5t-40.5 32.5
q-12 -11 -20 -28.5t-8 -39.5q0 -23 10 -40.5t40 -33.5q14 14 21.5 33.5t7.5 38.5z" />
    <glyph glyph-name="dieresis" unicode="&#xa8;" horiz-adv-x="394" 
d="M151 592l28 128h142l-28 -128h-142zM350 592l28 128h143l-28 -128h-143z" />
    <glyph glyph-name="copyright" unicode="&#xa9;" horiz-adv-x="713" 
d="M160 360q0 -75 19.5 -130t52.5 -91t75.5 -54t89.5 -18q45 0 87.5 18t75.5 54t53 91t20 130t-20 130t-53 91t-75.5 54t-87.5 18q-46 0 -89 -18t-76 -54t-52.5 -91t-19.5 -130zM725 360q0 -99 -28.5 -169.5t-75 -116.5t-105 -67.5t-119.5 -21.5t-120 21.5t-105.5 67.5
t-75 116.5t-28.5 169.5t28.5 169.5t75 116.5t105.5 67.5t120 21.5t119.5 -21.5t105 -67.5t75 -116.5t28.5 -169.5zM587 293q-7 -31 -21 -57.5t-36 -46t-53.5 -30.5t-73.5 -11q-97 0 -141.5 51.5t-44.5 158.5q0 103 46 160.5t140 57.5q78 0 125 -37.5t59 -98.5h-127
q-5 24 -18.5 39t-33.5 15q-35 0 -50 -31.5t-15 -106.5q0 -66 13.5 -96t45.5 -30q20 0 33.5 15.5t24.5 47.5h127z" />
    <glyph glyph-name="ordfeminine" unicode="&#xaa;" horiz-adv-x="460" 
d="M163 603q21 62 70 97t121 35q66 0 102 -31.5t36 -86.5q0 -20 -4 -39l-57 -271h-96l-12 43q-23 -23 -48.5 -39t-59.5 -16q-18 0 -37 5.5t-35 18t-26 32t-10 47.5q0 40 16.5 69t43 48.5t60.5 31t69 17.5l51 8l5 21q3 15 3 24q0 27 -20 27q-13 0 -21.5 -10t-16.5 -31h-134z
M359 0h-328l26 123h328zM279 391q18 0 27 16.5t14 37.5l10 48l-23 -6q-32 -8 -44.5 -23.5t-12.5 -35.5q0 -37 29 -37z" />
    <glyph glyph-name="guillemotleft" unicode="&#xab;" horiz-adv-x="482" 
d="M60 315l157 205h118l-130 -208l30 -222h-118zM243 315l157 205h118l-129 -208l29 -222h-118z" />
    <glyph glyph-name="logicalnot" unicode="&#xac;" 
d="M514 384l-60 -282h-130l34 159h-256l26 123h386z" />
    <glyph glyph-name="uni00AD" unicode="&#xad;" horiz-adv-x="464" 
d="M414 261h-334l26 123h334z" />
    <glyph glyph-name="registered" unicode="&#xae;" horiz-adv-x="530" 
d="M553 494q0 -64 -20 -109.5t-52 -75t-73.5 -43t-84.5 -13.5q-44 0 -85 13t-72.5 41.5t-51 73.5t-19.5 110q0 64 19.5 110t51 76t72.5 44t85 14q43 0 84.5 -14t73.5 -43t52 -74.5t20 -109.5zM166 491q0 -49 12.5 -83t33.5 -55t49.5 -30t61.5 -9q32 0 61 9.5t50.5 31t34 56
t12.5 83.5t-12.5 83.5t-34 56t-50.5 31t-61 9.5q-33 0 -61.5 -10t-49.5 -32t-33.5 -57t-12.5 -84zM374 372l-52 89h-30v-89h-53v242h85q19 0 36.5 -4t30.5 -13t20.5 -23.5t7.5 -35.5q0 -29 -14.5 -45.5t-32.5 -23.5l61 -97h-59zM292 575v-76h36q10 0 23.5 8t13.5 31
t-13.5 30t-25.5 7h-34z" />
    <glyph glyph-name="macron" unicode="&#xaf;" horiz-adv-x="284" 
d="M155 608l24 112h232l-24 -112h-232z" />
    <glyph glyph-name="degree" unicode="&#xb0;" 
d="M301 623q-15 0 -25 -9t-17 -23.5t-10 -33t-3 -36.5q0 -40 31 -40q14 0 24 9t17 23.5t10 32.5t3 36q0 41 -30 41zM261 384q-56 0 -93 37t-37 99q0 46 15.5 83t41 63t59.5 40t70 14q56 0 93 -36t37 -98q0 -44 -14 -81t-39 -64t-59 -42t-74 -15z" />
    <glyph glyph-name="plusminus" unicode="&#xb1;" 
d="M417 527l-31 -143h128l-26 -123h-128l-21 -99h-131l21 99h-127l26 123h127l31 143h131zM433 0h-386l26 123h386z" />
    <glyph glyph-name="twosuperior" unicode="&#xb2;" horiz-adv-x="371" 
d="M97 605q22 64 69.5 102t114.5 38q62 0 96.5 -30t34.5 -75q0 -24 -6.5 -45t-22.5 -44t-44.5 -49t-71.5 -59l-70 -53h161l-20 -96h-296l20 94l114 94q38 31 61.5 53t36 38.5t17 29.5t4.5 27q0 25 -28 25q-17 0 -31 -11t-24 -39h-115z" />
    <glyph glyph-name="threesuperior" unicode="&#xb3;" horiz-adv-x="375" 
d="M282 745q57 0 93.5 -25.5t36.5 -71.5q0 -38 -24 -72.5t-82 -48.5q34 -9 52 -33t18 -53q0 -27 -9.5 -54.5t-30.5 -50t-55 -37t-82 -14.5q-44 0 -72 12t-43 31t-20.5 43t-4.5 48h114q-1 -19 6.5 -33t27.5 -14q26 0 38.5 21t12.5 48q0 23 -13 32.5t-30 9.5h-27l17 80h29
q15 0 26 7t18 17.5t10 23t3 22.5q0 14 -6.5 20t-17.5 6q-17 0 -27 -10.5t-17 -29.5h-111q20 60 62.5 93t107.5 33z" />
    <glyph glyph-name="acute" unicode="&#xb4;" horiz-adv-x="299" 
d="M266 720h160l-161 -137h-116z" />
    <glyph glyph-name="mu" unicode="&#xb5;" horiz-adv-x="528" 
d="M267 520l-77 -361v-12q0 -28 14 -40t40 -12q28 0 53.5 28t37.5 85l66 312h155l-110 -520h-128l-3 55q-30 -33 -66 -51.5t-81 -18.5q-10 0 -15 1l-35 -166h-155l149 700h155z" />
    <glyph glyph-name="paragraph" unicode="&#xb6;" horiz-adv-x="606" 
d="M436 720l-192 -900h-146l105 495q-55 0 -90.5 40.5t-35.5 110.5q0 55 15.5 101.5t43 80.5t65 53t82.5 19h153zM679 720l-192 -900h-146l192 900h146z" />
    <glyph glyph-name="periodcentered" unicode="&#xb7;" horiz-adv-x="270" 
d="M68 248l30 142h158l-30 -142h-158z" />
    <glyph glyph-name="cedilla" unicode="&#xb8;" horiz-adv-x="327" 
d="M178 -40q54 -21 54 -78q0 -62 -39 -101t-108 -39q-62 0 -94 25.5t-32 76.5v10q0 4 1 9h94q-1 -4 -1 -10q0 -31 38 -31q21 0 31 12t10 29q0 16 -12 27t-47 11l38 124h81z" />
    <glyph glyph-name="onesuperior" unicode="&#xb9;" horiz-adv-x="255" 
d="M224 294h-116l69 327l-102 -46l23 106l118 54h102z" />
    <glyph glyph-name="ordmasculine" unicode="&#xba;" horiz-adv-x="459" 
d="M367 0h-350l26 123h350zM330 735q31 0 60 -7t51.5 -25t36 -49t13.5 -80q0 -72 -16.5 -125t-46 -87t-71 -50.5t-91.5 -16.5q-32 0 -61 7.5t-51 26t-35.5 50t-13.5 79.5q0 130 57.5 203.5t167.5 73.5zM316 641q-23 0 -36.5 -25t-21 -58t-10 -66.5t-2.5 -51.5q0 -51 35 -51
q22 0 36 24.5t21.5 57t10 65.5t2.5 50q0 29 -8 42t-27 13z" />
    <glyph glyph-name="guillemotright" unicode="&#xbb;" horiz-adv-x="482" 
d="M323 90h-118l124 222l-42 208h118l69 -205zM140 90h-118l123 222l-41 208h118l69 -205z" />
    <glyph glyph-name="onequarter" unicode="&#xbc;" horiz-adv-x="865" 
d="M90 -90l610 880h128l-609 -880h-129zM280 294h-116l69 327l-102 -46l23 106l118 54h102zM796 168h46l-18 -86h-46l-17 -81h-106l17 81h-173l19 93l201 267h136zM618 168h73l47 170z" />
    <glyph glyph-name="onehalf" unicode="&#xbd;" horiz-adv-x="913" 
d="M90 -90l610 880h128l-609 -880h-129zM280 294h-116l69 327l-102 -46l23 106l118 54h102zM588 312q22 64 69.5 102t114.5 38q62 0 96.5 -30t34.5 -75q0 -24 -6.5 -45t-22.5 -44t-44.5 -49t-71.5 -59l-70 -53h161l-20 -96h-296l20 94l114 94q38 31 61.5 53t36 38.5t17 29.5
t4.5 27q0 25 -28 25q-17 0 -31 -11t-24 -39h-115z" />
    <glyph glyph-name="threequarters" unicode="&#xbe;" horiz-adv-x="931" 
d="M156 -90l610 880h128l-609 -880h-129zM314 745q57 0 93.5 -25.5t36.5 -71.5q0 -38 -24 -72.5t-82 -48.5q34 -9 52 -33t18 -53q0 -27 -9.5 -54.5t-30.5 -50t-55 -37t-82 -14.5q-44 0 -72 12t-43 31t-20.5 43t-4.5 48h114q-1 -19 6.5 -33t27.5 -14q26 0 38.5 21t12.5 48
q0 23 -13 32.5t-30 9.5h-27l17 80h29q15 0 26 7t18 17.5t10 23t3 22.5q0 14 -6.5 20t-17.5 6q-17 0 -27 -10.5t-17 -29.5h-111q20 60 62.5 93t107.5 33zM862 168h46l-18 -86h-46l-17 -81h-106l17 81h-173l19 93l201 267h136zM684 168h73l47 170z" />
    <glyph glyph-name="questiondown" unicode="&#xbf;" horiz-adv-x="459" 
d="M349 5q-7 -42 -27 -78.5t-51.5 -63.5t-72.5 -42.5t-89 -15.5q-79 0 -122 36t-43 98q0 29 5 53t17.5 49t33.5 53.5t53 67.5q20 24 31.5 39t18.5 29.5t11.5 32.5t10.5 47h156q-10 -47 -18 -77t-16.5 -51t-19.5 -37t-28 -35q-51 -57 -70.5 -91.5t-19.5 -63.5q0 -18 6 -25.5
t17 -7.5q9 0 15.5 3t12.5 12t11.5 25.5t12.5 42.5h165zM337 540l-33 -157h-173l33 157h173z" />
    <glyph glyph-name="Agrave" unicode="&#xc0;" horiz-adv-x="601" 
d="M388 165h-189l-72 -165h-167l359 720h186l56 -720h-170zM247 275h139l-4 307zM539 773h-116l-101 137h161z" />
    <glyph glyph-name="Aacute" unicode="&#xc1;" horiz-adv-x="601" 
d="M388 165h-189l-72 -165h-167l359 720h186l56 -720h-170zM247 275h139l-4 307zM425 910h160l-161 -137h-116z" />
    <glyph glyph-name="Acircumflex" unicode="&#xc2;" horiz-adv-x="601" 
d="M388 165h-189l-72 -165h-167l359 720h186l56 -720h-170zM247 275h139l-4 307zM389 773h-149l142 137h131l82 -137h-148l-14 69z" />
    <glyph glyph-name="Atilde" unicode="&#xc3;" horiz-adv-x="601" 
d="M388 165h-189l-72 -165h-167l359 720h186l56 -720h-170zM247 275h139l-4 307zM479 782q-18 0 -32 6t-26 13t-23.5 13t-25.5 6t-36 -10.5t-45 -27.5l24 110q22 16 44.5 24.5t39.5 8.5q18 0 32 -6t26 -13t23.5 -13t25.5 -6t34.5 10.5t42.5 27.5l-24 -110q-44 -33 -80 -33z
" />
    <glyph glyph-name="Adieresis" unicode="&#xc4;" horiz-adv-x="601" 
d="M388 165h-189l-72 -165h-167l359 720h186l56 -720h-170zM247 275h139l-4 307zM250 782l28 128h142l-28 -128h-142zM449 782l28 128h143l-28 -128h-143z" />
    <glyph glyph-name="Aring" unicode="&#xc5;" horiz-adv-x="601" 
d="M444 925q53 0 79.5 -29.5t26.5 -71.5q0 -68 -45 -110l56 -714h-170l-3 165h-189l-72 -165h-167l358 718q-18 25 -18 62q0 30 10 56.5t28.5 46t45 31t60.5 11.5zM247 275h139l-4 307zM431 853q-17 0 -26.5 -20.5t-9.5 -54.5q0 -27 25 -27q20 0 28 22t8 49q0 31 -25 31z
" />
    <glyph glyph-name="AE" unicode="&#xc6;" horiz-adv-x="821" 
d="M756 0h-401l35 165h-171l-92 -165h-167l426 720h523l-27 -123h-234l-37 -176h209l-25 -116h-209l-39 -184h234zM413 275l73 346l-198 -346h125z" />
    <glyph glyph-name="Ccedilla" unicode="&#xc7;" horiz-adv-x="641" 
d="M319 -40q54 -21 54 -78q0 -62 -39 -101t-108 -39q-62 0 -94 25.5t-32 76.5v10q0 4 1 9h94q-1 -4 -1 -10q0 -31 38 -31q21 0 31 12t10 29q0 16 -12 27t-47 11l27 89q-92 16 -139.5 79t-47.5 171q0 109 26.5 200t75.5 156.5t118.5 102t155.5 36.5q113 0 177 -61.5
t64 -170.5v-18h-167v16q0 62 -22 89.5t-67 27.5q-42 0 -76.5 -32.5t-59 -86.5t-38.5 -124t-14 -144q0 -69 23.5 -98.5t65.5 -29.5q54 0 86.5 38.5t56.5 123.5h170q-44 -131 -116 -202.5t-189 -76.5z" />
    <glyph glyph-name="Egrave" unicode="&#xc8;" horiz-adv-x="502" 
d="M476 305h-239l-39 -184h264l-25 -121h-431l153 720h431l-27 -123h-264l-37 -176h239zM480 773h-116l-101 137h161z" />
    <glyph glyph-name="Eacute" unicode="&#xc9;" horiz-adv-x="502" 
d="M476 305h-239l-39 -184h264l-25 -121h-431l153 720h431l-27 -123h-264l-37 -176h239zM418 910h160l-161 -137h-116z" />
    <glyph glyph-name="Ecircumflex" unicode="&#xca;" horiz-adv-x="502" 
d="M476 305h-239l-39 -184h264l-25 -121h-431l153 720h431l-27 -123h-264l-37 -176h239zM356 773h-149l142 137h131l82 -137h-148l-14 69z" />
    <glyph glyph-name="Edieresis" unicode="&#xcb;" horiz-adv-x="502" 
d="M476 305h-239l-39 -184h264l-25 -121h-431l153 720h431l-27 -123h-264l-37 -176h239zM213 782l28 128h142l-28 -128h-142zM412 782l28 128h143l-28 -128h-143z" />
    <glyph glyph-name="Igrave" unicode="&#xcc;" horiz-adv-x="259" 
d="M326 720l-153 -720h-167l153 720h167zM369 773h-116l-101 137h161z" />
    <glyph glyph-name="Iacute" unicode="&#xcd;" horiz-adv-x="259" 
d="M326 720l-153 -720h-167l153 720h167zM257 910h160l-161 -137h-116z" />
    <glyph glyph-name="Icircumflex" unicode="&#xce;" horiz-adv-x="259" 
d="M326 720l-153 -720h-167l153 720h167zM225 773h-149l142 137h131l82 -137h-148l-14 69z" />
    <glyph glyph-name="Idieresis" unicode="&#xcf;" horiz-adv-x="259" 
d="M326 720l-153 -720h-167l153 720h167zM85 782l28 128h142l-28 -128h-142zM284 782l28 128h143l-28 -128h-143z" />
    <glyph glyph-name="Eth" unicode="&#xd0;" horiz-adv-x="634" 
d="M388 720q128 0 196 -60.5t68 -184.5q0 -111 -27.5 -199.5t-78.5 -149.5t-123.5 -93.5t-163.5 -32.5h-253l67 315h-44l27 126h44l59 279h229zM301 604l-35 -163h85l-27 -126h-85l-42 -198h75q40 0 78 25.5t67.5 71t47 108.5t17.5 139q0 75 -31 109t-83 34h-67z" />
    <glyph glyph-name="Ntilde" unicode="&#xd1;" horiz-adv-x="620" 
d="M687 720l-153 -720h-167l-113 502l-107 -502h-141l153 720h181l102 -491l104 491h141zM489 782q-18 0 -32 6t-26 13t-23.5 13t-25.5 6t-36 -10.5t-45 -27.5l24 110q22 16 44.5 24.5t39.5 8.5q18 0 32 -6t26 -13t23.5 -13t25.5 -6t34.5 10.5t42.5 27.5l-24 -110
q-44 -33 -80 -33z" />
    <glyph glyph-name="Ograve" unicode="&#xd2;" horiz-adv-x="678" 
d="M331 104q38 0 73 30.5t62 81.5t43.5 117.5t16.5 138.5q0 76 -29.5 110.5t-77.5 34.5q-36 0 -71 -30t-62.5 -80.5t-44.5 -117t-17 -140.5q0 -77 29.5 -111t77.5 -34zM312 -15q-59 0 -106.5 17t-81 50t-51.5 82.5t-18 114.5q0 108 29.5 197.5t81 153.5t121.5 99.5t151 35.5
q58 0 105 -17t81 -50t52.5 -82.5t18.5 -115.5q0 -108 -30.5 -197.5t-82.5 -153.5t-122 -99t-148 -35zM557 773h-116l-101 137h161z" />
    <glyph glyph-name="Oacute" unicode="&#xd3;" horiz-adv-x="678" 
d="M331 104q38 0 73 30.5t62 81.5t43.5 117.5t16.5 138.5q0 76 -29.5 110.5t-77.5 34.5q-36 0 -71 -30t-62.5 -80.5t-44.5 -117t-17 -140.5q0 -77 29.5 -111t77.5 -34zM312 -15q-59 0 -106.5 17t-81 50t-51.5 82.5t-18 114.5q0 108 29.5 197.5t81 153.5t121.5 99.5t151 35.5
q58 0 105 -17t81 -50t52.5 -82.5t18.5 -115.5q0 -108 -30.5 -197.5t-82.5 -153.5t-122 -99t-148 -35zM494 910h160l-161 -137h-116z" />
    <glyph glyph-name="Ocircumflex" unicode="&#xd4;" horiz-adv-x="678" 
d="M331 104q38 0 73 30.5t62 81.5t43.5 117.5t16.5 138.5q0 76 -29.5 110.5t-77.5 34.5q-36 0 -71 -30t-62.5 -80.5t-44.5 -117t-17 -140.5q0 -77 29.5 -111t77.5 -34zM312 -15q-59 0 -106.5 17t-81 50t-51.5 82.5t-18 114.5q0 108 29.5 197.5t81 153.5t121.5 99.5t151 35.5
q58 0 105 -17t81 -50t52.5 -82.5t18.5 -115.5q0 -108 -30.5 -197.5t-82.5 -153.5t-122 -99t-148 -35zM436 773h-149l142 137h131l82 -137h-148l-14 69z" />
    <glyph glyph-name="Otilde" unicode="&#xd5;" horiz-adv-x="678" 
d="M331 104q38 0 73 30.5t62 81.5t43.5 117.5t16.5 138.5q0 76 -29.5 110.5t-77.5 34.5q-36 0 -71 -30t-62.5 -80.5t-44.5 -117t-17 -140.5q0 -77 29.5 -111t77.5 -34zM312 -15q-59 0 -106.5 17t-81 50t-51.5 82.5t-18 114.5q0 108 29.5 197.5t81 153.5t121.5 99.5t151 35.5
q58 0 105 -17t81 -50t52.5 -82.5t18.5 -115.5q0 -108 -30.5 -197.5t-82.5 -153.5t-122 -99t-148 -35zM522 782q-18 0 -32 6t-26 13t-23.5 13t-25.5 6t-36 -10.5t-45 -27.5l24 110q22 16 44.5 24.5t39.5 8.5q18 0 32 -6t26 -13t23.5 -13t25.5 -6t34.5 10.5t42.5 27.5
l-24 -110q-44 -33 -80 -33z" />
    <glyph glyph-name="Odieresis" unicode="&#xd6;" horiz-adv-x="678" 
d="M331 104q38 0 73 30.5t62 81.5t43.5 117.5t16.5 138.5q0 76 -29.5 110.5t-77.5 34.5q-36 0 -71 -30t-62.5 -80.5t-44.5 -117t-17 -140.5q0 -77 29.5 -111t77.5 -34zM312 -15q-59 0 -106.5 17t-81 50t-51.5 82.5t-18 114.5q0 108 29.5 197.5t81 153.5t121.5 99.5t151 35.5
q58 0 105 -17t81 -50t52.5 -82.5t18.5 -115.5q0 -108 -30.5 -197.5t-82.5 -153.5t-122 -99t-148 -35zM296 782l28 128h142l-28 -128h-142zM495 782l28 128h143l-28 -128h-143z" />
    <glyph glyph-name="multiply" unicode="&#xd7;" 
d="M401 315l84 -106l-96 -79l-84 106l-129 -106l-73 94l128 106l-83 105l96 79l83 -105l127 105l73 -94z" />
    <glyph glyph-name="Oslash" unicode="&#xd8;" horiz-adv-x="678" 
d="M312 -15q-45 0 -82 9l-51 -104h-113l75 147q-42 32 -64 85t-22 127q0 108 29.5 197.5t81 153.5t121.5 99.5t151 35.5q22 0 41.5 -2.5t38.5 -7.5l51 95h113l-75 -138q42 -33 65 -86t23 -126q0 -108 -30.5 -197.5t-82.5 -153.5t-122 -99t-148 -35zM224 249q0 -51 14 -85
l223 445q-21 8 -42 8q-36 0 -71 -30t-62.5 -80.5t-44.5 -117t-17 -140.5zM331 104q38 0 73 30.5t62 81.5t43.5 117.5t16.5 138.5q0 49 -14 82l-222 -443q17 -7 41 -7z" />
    <glyph glyph-name="Ugrave" unicode="&#xd9;" horiz-adv-x="619" 
d="M322 720l-105 -487q-3 -13 -4 -24t-1 -22q0 -40 20 -61.5t63 -21.5q54 0 85.5 31t44.5 92l105 493h160l-104 -489q-26 -121 -101 -183.5t-210 -62.5q-113 0 -170.5 52t-57.5 143q0 31 8 71l100 469h167zM495 773h-116l-101 137h161z" />
    <glyph glyph-name="Uacute" unicode="&#xda;" horiz-adv-x="619" 
d="M322 720l-105 -487q-3 -13 -4 -24t-1 -22q0 -40 20 -61.5t63 -21.5q54 0 85.5 31t44.5 92l105 493h160l-104 -489q-26 -121 -101 -183.5t-210 -62.5q-113 0 -170.5 52t-57.5 143q0 31 8 71l100 469h167zM501 910h160l-161 -137h-116z" />
    <glyph glyph-name="Ucircumflex" unicode="&#xdb;" horiz-adv-x="619" 
d="M322 720l-105 -487q-3 -13 -4 -24t-1 -22q0 -40 20 -61.5t63 -21.5q54 0 85.5 31t44.5 92l105 493h160l-104 -489q-26 -121 -101 -183.5t-210 -62.5q-113 0 -170.5 52t-57.5 143q0 31 8 71l100 469h167zM403 773h-149l142 137h131l82 -137h-148l-14 69z" />
    <glyph glyph-name="Udieresis" unicode="&#xdc;" horiz-adv-x="619" 
d="M322 720l-105 -487q-3 -13 -4 -24t-1 -22q0 -40 20 -61.5t63 -21.5q54 0 85.5 31t44.5 92l105 493h160l-104 -489q-26 -121 -101 -183.5t-210 -62.5q-113 0 -170.5 52t-57.5 143q0 31 8 71l100 469h167zM264 782l28 128h142l-28 -128h-142zM463 782l28 128h143l-28 -128
h-143z" />
    <glyph glyph-name="Yacute" unicode="&#xdd;" horiz-adv-x="588" 
d="M176 0l61 287l-124 433h174l59 -288l194 288h161l-308 -433l-61 -287h-156zM466 910h160l-161 -137h-116z" />
    <glyph glyph-name="Thorn" unicode="&#xde;" horiz-adv-x="590" 
d="M326 720l-25 -115h54q121 0 183 -47.5t62 -138.5q0 -72 -22 -126.5t-63.5 -91.5t-101 -56t-133.5 -19h-81l-26 -126h-167l153 720h167zM277 490l-53 -249h76q25 0 48 12.5t40 34t27 50.5t10 62q0 44 -24 67t-63 23h-61z" />
    <glyph glyph-name="germandbls" unicode="&#xdf;" horiz-adv-x="571" 
d="M355 -15q-97 0 -136.5 37.5t-34.5 104.5h146q-3 -35 28 -35q18 0 31.5 21.5t13.5 53.5q0 23 -8 41.5t-30 38.5q-32 29 -43 51.5t-11 51.5q0 46 16.5 74t36.5 50t36.5 44t16.5 55q0 23 -15.5 37.5t-44.5 14.5q-38 0 -58 -24.5t-33 -84.5l-37 -173l-101 -343h-126l110 522
q21 100 84 156.5t179 56.5q45 0 82.5 -11t63.5 -30t40.5 -45t14.5 -57t-9.5 -53.5t-24 -40t-31.5 -31t-31.5 -26.5t-24 -26t-9.5 -30q0 -18 6.5 -29.5t20.5 -23.5q45 -38 64 -76t19 -78q0 -43 -14 -78.5t-40.5 -61t-63.5 -39.5t-83 -14z" />
    <glyph glyph-name="agrave" unicode="&#xe0;" horiz-adv-x="509" 
d="M77 373q29 78 89 120t161 42q85 0 132 -39.5t47 -113.5q0 -27 -6 -55l-69 -327h-120l-8 54q-28 -29 -66 -49t-91 -20q-30 0 -54 10t-41 28t-26.5 42.5t-9.5 53.5q0 78 51 127t164 66l115 17l5 25q2 8 3 16.5t1 13.5q0 50 -48 50q-55 0 -72 -61h-157zM214 92q44 0 69 29.5
t33 70.5l11 51l-69 -13q-49 -10 -68 -34.5t-19 -51.5q0 -28 10.5 -40t32.5 -12zM416 598h-116l-101 137h161z" />
    <glyph glyph-name="aacute" unicode="&#xe1;" horiz-adv-x="509" 
d="M77 373q29 78 89 120t161 42q85 0 132 -39.5t47 -113.5q0 -27 -6 -55l-69 -327h-120l-8 54q-28 -29 -66 -49t-91 -20q-30 0 -54 10t-41 28t-26.5 42.5t-9.5 53.5q0 78 51 127t164 66l115 17l5 25q2 8 3 16.5t1 13.5q0 50 -48 50q-55 0 -72 -61h-157zM214 92q44 0 69 29.5
t33 70.5l11 51l-69 -13q-49 -10 -68 -34.5t-19 -51.5q0 -28 10.5 -40t32.5 -12zM396 735h160l-161 -137h-116z" />
    <glyph glyph-name="acircumflex" unicode="&#xe2;" horiz-adv-x="509" 
d="M77 373q29 78 89 120t161 42q85 0 132 -39.5t47 -113.5q0 -27 -6 -55l-69 -327h-120l-8 54q-28 -29 -66 -49t-91 -20q-30 0 -54 10t-41 28t-26.5 42.5t-9.5 53.5q0 78 51 127t164 66l115 17l5 25q2 8 3 16.5t1 13.5q0 50 -48 50q-55 0 -72 -61h-157zM214 92q44 0 69 29.5
t33 70.5l11 51l-69 -13q-49 -10 -68 -34.5t-19 -51.5q0 -28 10.5 -40t32.5 -12zM315 598h-149l142 137h131l82 -137h-148l-14 69z" />
    <glyph glyph-name="atilde" unicode="&#xe3;" horiz-adv-x="509" 
d="M77 373q29 78 89 120t161 42q85 0 132 -39.5t47 -113.5q0 -27 -6 -55l-69 -327h-120l-8 54q-28 -29 -66 -49t-91 -20q-30 0 -54 10t-41 28t-26.5 42.5t-9.5 53.5q0 78 51 127t164 66l115 17l5 25q2 8 3 16.5t1 13.5q0 50 -48 50q-55 0 -72 -61h-157zM214 92q44 0 69 29.5
t33 70.5l11 51l-69 -13q-49 -10 -68 -34.5t-19 -51.5q0 -28 10.5 -40t32.5 -12zM389 592q-18 0 -32 6t-26 13t-23.5 13t-25.5 6t-36 -10.5t-45 -27.5l24 110q22 16 44.5 24.5t39.5 8.5q18 0 32 -6t26 -13t23.5 -13t25.5 -6t34.5 10.5t42.5 27.5l-24 -110q-44 -33 -80 -33z
" />
    <glyph glyph-name="adieresis" unicode="&#xe4;" horiz-adv-x="509" 
d="M77 373q29 78 89 120t161 42q85 0 132 -39.5t47 -113.5q0 -27 -6 -55l-69 -327h-120l-8 54q-28 -29 -66 -49t-91 -20q-30 0 -54 10t-41 28t-26.5 42.5t-9.5 53.5q0 78 51 127t164 66l115 17l5 25q2 8 3 16.5t1 13.5q0 50 -48 50q-55 0 -72 -61h-157zM214 92q44 0 69 29.5
t33 70.5l11 51l-69 -13q-49 -10 -68 -34.5t-19 -51.5q0 -28 10.5 -40t32.5 -12zM164 592l28 128h142l-28 -128h-142zM363 592l28 128h143l-28 -128h-143z" />
    <glyph glyph-name="aring" unicode="&#xe5;" horiz-adv-x="509" 
d="M77 373q29 78 89 120t161 42q85 0 132 -39.5t47 -113.5q0 -27 -6 -55l-69 -327h-120l-8 54q-28 -29 -66 -49t-91 -20q-30 0 -54 10t-41 28t-26.5 42.5t-9.5 53.5q0 78 51 127t164 66l115 17l5 25q2 8 3 16.5t1 13.5q0 50 -48 50q-55 0 -72 -61h-157zM214 92q44 0 69 29.5
t33 70.5l11 51l-69 -13q-49 -10 -68 -34.5t-19 -51.5q0 -28 10.5 -40t32.5 -12zM369 751q-17 0 -26.5 -20.5t-9.5 -54.5q0 -27 25 -27q20 0 28 22t8 49q0 31 -25 31zM382 823q53 0 79.5 -29.5t26.5 -71.5q0 -30 -9.5 -56.5t-28 -46t-45.5 -31t-61 -11.5q-53 0 -79.5 30
t-26.5 71q0 30 10 56.5t28.5 46t45 31t60.5 11.5z" />
    <glyph glyph-name="ae" unicode="&#xe6;" horiz-adv-x="814" 
d="M76 373q32 78 92 120t158 42q46 0 81.5 -14t58.5 -39q31 24 67.5 38.5t79.5 14.5q95 0 148 -51t53 -154q0 -48 -12 -108h-320q-2 -10 -3 -22t-1 -22q0 -47 19 -65.5t54 -18.5q29 0 46 13.5t27 39.5h155q-29 -73 -87.5 -117.5t-155.5 -44.5q-75 0 -124 28t-72 80
q-29 -54 -73 -81t-116 -27q-30 0 -55.5 10t-43.5 28t-28 42.5t-10 53.5q0 78 51 127t164 66l115 17l5 25q2 8 3 16.5t1 13.5q0 26 -12.5 38t-35.5 12q-47 0 -72 -61h-157zM603 437q-35 0 -59.5 -27.5t-44.5 -96.5h163q3 15 4 27.5t1 23.5q0 42 -17 57.5t-47 15.5zM213 92
q44 0 69 29.5t33 70.5l11 51l-69 -13q-49 -10 -68 -34.5t-19 -51.5q0 -28 10.5 -40t32.5 -12z" />
    <glyph glyph-name="ccedilla" unicode="&#xe7;" horiz-adv-x="519" 
d="M256 -40q54 -21 54 -78q0 -62 -39 -101t-108 -39q-62 0 -94 25.5t-32 76.5v10q0 4 1 9h94q-1 -4 -1 -10q0 -31 38 -31q21 0 31 12t10 29q0 16 -12 27t-47 11l27 89q-73 12 -109.5 59t-36.5 126q0 77 20 143t57.5 114t92.5 75.5t125 27.5q49 0 87 -12.5t64.5 -35
t40.5 -53.5t14 -68v-6h-161v5q0 31 -15.5 47.5t-43.5 16.5q-26 0 -48 -20.5t-38.5 -55.5t-26 -80.5t-9.5 -94.5q0 -45 16 -65.5t43 -20.5q31 0 49.5 19.5t32.5 61.5h161q-38 -88 -92.5 -134t-139.5 -53z" />
    <glyph glyph-name="egrave" unicode="&#xe8;" horiz-adv-x="526" 
d="M489 147q-29 -73 -87.5 -117.5t-155.5 -44.5q-102 0 -157 52t-55 146q0 78 19.5 142.5t56.5 111t90.5 72.5t122.5 26q95 0 148 -51t53 -154q0 -48 -12 -108h-320q-2 -10 -3 -22t-1 -22q0 -45 18 -64.5t55 -19.5q29 0 46 13.5t27 39.5h155zM313 437q-35 0 -59.5 -27.5
t-44.5 -96.5h163q3 15 4 27.5t1 23.5q0 39 -16 56t-48 17zM418 598h-116l-101 137h161z" />
    <glyph glyph-name="eacute" unicode="&#xe9;" horiz-adv-x="526" 
d="M489 147q-29 -73 -87.5 -117.5t-155.5 -44.5q-102 0 -157 52t-55 146q0 78 19.5 142.5t56.5 111t90.5 72.5t122.5 26q95 0 148 -51t53 -154q0 -48 -12 -108h-320q-2 -10 -3 -22t-1 -22q0 -45 18 -64.5t55 -19.5q29 0 46 13.5t27 39.5h155zM313 437q-35 0 -59.5 -27.5
t-44.5 -96.5h163q3 15 4 27.5t1 23.5q0 39 -16 56t-48 17zM401 735h160l-161 -137h-116z" />
    <glyph glyph-name="ecircumflex" unicode="&#xea;" horiz-adv-x="526" 
d="M489 147q-29 -73 -87.5 -117.5t-155.5 -44.5q-102 0 -157 52t-55 146q0 78 19.5 142.5t56.5 111t90.5 72.5t122.5 26q95 0 148 -51t53 -154q0 -48 -12 -108h-320q-2 -10 -3 -22t-1 -22q0 -45 18 -64.5t55 -19.5q29 0 46 13.5t27 39.5h155zM313 437q-35 0 -59.5 -27.5
t-44.5 -96.5h163q3 15 4 27.5t1 23.5q0 39 -16 56t-48 17zM312 598h-149l142 137h131l82 -137h-148l-14 69z" />
    <glyph glyph-name="edieresis" unicode="&#xeb;" horiz-adv-x="526" 
d="M489 147q-29 -73 -87.5 -117.5t-155.5 -44.5q-102 0 -157 52t-55 146q0 78 19.5 142.5t56.5 111t90.5 72.5t122.5 26q95 0 148 -51t53 -154q0 -48 -12 -108h-320q-2 -10 -3 -22t-1 -22q0 -45 18 -64.5t55 -19.5q29 0 46 13.5t27 39.5h155zM313 437q-35 0 -59.5 -27.5
t-44.5 -96.5h163q3 15 4 27.5t1 23.5q0 39 -16 56t-48 17zM171 592l28 128h142l-28 -128h-142zM370 592l28 128h143l-28 -128h-143z" />
    <glyph glyph-name="igrave" unicode="&#xec;" horiz-adv-x="239" 
d="M304 598h-116l-101 137h161zM2 0l110 520h155l-110 -520h-155z" />
    <glyph glyph-name="iacute" unicode="&#xed;" horiz-adv-x="239" 
d="M220 735h160l-161 -137h-116zM2 0l110 520h155l-110 -520h-155z" />
    <glyph glyph-name="icircumflex" unicode="&#xee;" horiz-adv-x="239" 
d="M2 0l110 520h155l-110 -520h-155zM175 598h-149l142 137h131l82 -137h-148l-14 69z" />
    <glyph glyph-name="idieresis" unicode="&#xef;" horiz-adv-x="239" 
d="M59 592l28 128h121l-28 -128h-121zM227 592l28 128h123l-28 -128h-123zM2 0l110 520h155l-110 -520h-155z" />
    <glyph glyph-name="eth" unicode="&#xf0;" horiz-adv-x="510" 
d="M187 753q106 -11 187 -60l31 27h135l-97 -82q38 -40 59 -90.5t21 -110.5q0 -92 -17 -174.5t-51 -144t-86.5 -97.5t-122.5 -36q-103 0 -160 48.5t-57 139.5q0 63 15.5 119t45 98.5t72 67.5t95.5 25q66 0 101 -40q0 32 -3.5 59t-14.5 48l-17 -15h-135l90 76q-22 13 -50 22
t-63 17zM287 370q-24 0 -43 -17.5t-32 -47t-20 -67.5t-7 -79q0 -36 15.5 -48.5t46.5 -12.5q17 0 34.5 15.5t31.5 42.5t23 65t9 83q0 35 -15 50.5t-43 15.5z" />
    <glyph glyph-name="ntilde" unicode="&#xf1;" horiz-adv-x="529" 
d="M112 520h118l11 -55q38 38 73 54t79 16q64 0 100 -37t36 -106q0 -28 -8 -66l-70 -326h-155l69 324q6 27 6 47q0 29 -12.5 41.5t-34.5 12.5q-35 0 -61.5 -26.5t-39.5 -85.5l-66 -313h-155zM410 592q-18 0 -32 6t-26 13t-23.5 13t-25.5 6t-36 -10.5t-45 -27.5l24 110
q22 16 44.5 24.5t39.5 8.5q18 0 32 -6t26 -13t23.5 -13t25.5 -6t34.5 10.5t42.5 27.5l-24 -110q-44 -33 -80 -33z" />
    <glyph glyph-name="ograve" unicode="&#xf2;" horiz-adv-x="542" 
d="M328 535q103 0 157 -49t54 -145q0 -79 -19.5 -144.5t-57.5 -112.5t-94 -73t-129 -26q-101 0 -153.5 50t-52.5 146q0 74 18 138.5t55 112.5t92.5 75.5t129.5 27.5zM313 430q-30 0 -52.5 -23t-38.5 -60t-24 -84.5t-8 -95.5q0 -42 17 -59.5t51 -17.5q30 0 53.5 22t39 58.5
t24 84.5t8.5 99q0 41 -17.5 58.5t-52.5 17.5zM432 598h-116l-101 137h161z" />
    <glyph glyph-name="oacute" unicode="&#xf3;" horiz-adv-x="542" 
d="M328 535q103 0 157 -49t54 -145q0 -79 -19.5 -144.5t-57.5 -112.5t-94 -73t-129 -26q-101 0 -153.5 50t-52.5 146q0 74 18 138.5t55 112.5t92.5 75.5t129.5 27.5zM313 430q-30 0 -52.5 -23t-38.5 -60t-24 -84.5t-8 -95.5q0 -42 17 -59.5t51 -17.5q30 0 53.5 22t39 58.5
t24 84.5t8.5 99q0 41 -17.5 58.5t-52.5 17.5zM384 735h160l-161 -137h-116z" />
    <glyph glyph-name="ocircumflex" unicode="&#xf4;" horiz-adv-x="542" 
d="M328 535q103 0 157 -49t54 -145q0 -79 -19.5 -144.5t-57.5 -112.5t-94 -73t-129 -26q-101 0 -153.5 50t-52.5 146q0 74 18 138.5t55 112.5t92.5 75.5t129.5 27.5zM313 430q-30 0 -52.5 -23t-38.5 -60t-24 -84.5t-8 -95.5q0 -42 17 -59.5t51 -17.5q30 0 53.5 22t39 58.5
t24 84.5t8.5 99q0 41 -17.5 58.5t-52.5 17.5zM327 598h-149l142 137h131l82 -137h-148l-14 69z" />
    <glyph glyph-name="otilde" unicode="&#xf5;" horiz-adv-x="542" 
d="M328 535q103 0 157 -49t54 -145q0 -79 -19.5 -144.5t-57.5 -112.5t-94 -73t-129 -26q-101 0 -153.5 50t-52.5 146q0 74 18 138.5t55 112.5t92.5 75.5t129.5 27.5zM313 430q-30 0 -52.5 -23t-38.5 -60t-24 -84.5t-8 -95.5q0 -42 17 -59.5t51 -17.5q30 0 53.5 22t39 58.5
t24 84.5t8.5 99q0 41 -17.5 58.5t-52.5 17.5zM415 592q-18 0 -32 6t-26 13t-23.5 13t-25.5 6t-36 -10.5t-45 -27.5l24 110q22 16 44.5 24.5t39.5 8.5q18 0 32 -6t26 -13t23.5 -13t25.5 -6t34.5 10.5t42.5 27.5l-24 -110q-44 -33 -80 -33z" />
    <glyph glyph-name="odieresis" unicode="&#xf6;" horiz-adv-x="542" 
d="M328 535q103 0 157 -49t54 -145q0 -79 -19.5 -144.5t-57.5 -112.5t-94 -73t-129 -26q-101 0 -153.5 50t-52.5 146q0 74 18 138.5t55 112.5t92.5 75.5t129.5 27.5zM313 430q-30 0 -52.5 -23t-38.5 -60t-24 -84.5t-8 -95.5q0 -42 17 -59.5t51 -17.5q30 0 53.5 22t39 58.5
t24 84.5t8.5 99q0 41 -17.5 58.5t-52.5 17.5zM186 592l28 128h142l-28 -128h-142zM385 592l28 128h143l-28 -128h-143z" />
    <glyph glyph-name="divide" unicode="&#xf7;" 
d="M177 62l30 142h151l-30 -142h-151zM257 441l30 142h151l-30 -142h-151zM488 261h-386l26 123h386z" />
    <glyph glyph-name="oslash" unicode="&#xf8;" horiz-adv-x="542" 
d="M328 535q40 0 71 -7l61 102h113l-89 -144q55 -50 55 -145q0 -79 -19.5 -144.5t-57.5 -112.5t-94 -73t-129 -26q-18 0 -35 1.5t-32 5.5l-60 -102h-114l88 144q-53 50 -53 147q0 74 18 138.5t55 112.5t92.5 75.5t129.5 27.5zM313 430q-30 0 -52.5 -23t-38.5 -60t-24 -84.5
t-8 -95.5v-16l156 274q-15 5 -33 5zM383 354q0 9 -1 14l-155 -274q12 -4 31 -4q30 0 53.5 22t39 58.5t24 84.5t8.5 99z" />
    <glyph glyph-name="ugrave" unicode="&#xf9;" horiz-adv-x="524" 
d="M263 520l-73 -341q-4 -16 -4 -32q0 -28 14 -40t40 -12q28 0 53.5 28t37.5 85l66 312h155l-110 -520h-128l-3 55q-30 -33 -66 -51.5t-81 -18.5q-66 0 -100 34.5t-34 99.5q0 30 8 70l70 331h155zM401 598h-116l-101 137h161z" />
    <glyph glyph-name="uacute" unicode="&#xfa;" horiz-adv-x="524" 
d="M263 520l-73 -341q-4 -16 -4 -32q0 -28 14 -40t40 -12q28 0 53.5 28t37.5 85l66 312h155l-110 -520h-128l-3 55q-30 -33 -66 -51.5t-81 -18.5q-66 0 -100 34.5t-34 99.5q0 30 8 70l70 331h155zM400 735h160l-161 -137h-116z" />
    <glyph glyph-name="ucircumflex" unicode="&#xfb;" horiz-adv-x="524" 
d="M263 520l-73 -341q-4 -16 -4 -32q0 -28 14 -40t40 -12q28 0 53.5 28t37.5 85l66 312h155l-110 -520h-128l-3 55q-30 -33 -66 -51.5t-81 -18.5q-66 0 -100 34.5t-34 99.5q0 30 8 70l70 331h155zM313 598h-149l142 137h131l82 -137h-148l-14 69z" />
    <glyph glyph-name="udieresis" unicode="&#xfc;" horiz-adv-x="524" 
d="M263 520l-73 -341q-4 -16 -4 -32q0 -28 14 -40t40 -12q28 0 53.5 28t37.5 85l66 312h155l-110 -520h-128l-3 55q-30 -33 -66 -51.5t-81 -18.5q-66 0 -100 34.5t-34 99.5q0 30 8 70l70 331h155zM175 592l28 128h142l-28 -128h-142zM374 592l28 128h143l-28 -128h-143z" />
    <glyph glyph-name="yacute" unicode="&#xfd;" horiz-adv-x="512" 
d="M579 520l-276 -531q-27 -51 -49.5 -86t-45.5 -56.5t-49 -31.5t-60 -10q-20 0 -45.5 3t-42.5 8l24 109q22 -6 36 -7.5t22 -1.5q24 0 41 19.5t31 64.5h-43l-49 520h160l3 -399l184 399h159zM382 735h160l-161 -137h-116z" />
    <glyph glyph-name="thorn" unicode="&#xfe;" horiz-adv-x="555" 
d="M-37 -180l192 900h155l-53 -246q30 29 65 45t75 16q74 0 116.5 -46.5t42.5 -132.5q0 -77 -20.5 -144.5t-57 -118t-85.5 -79.5t-106 -29q-35 0 -68.5 15t-53.5 42l-47 -222h-155zM324 421q-29 0 -53 -18.5t-40.5 -50t-25.5 -74.5t-9 -92q0 -46 18.5 -66.5t53.5 -20.5
q30 0 53 20.5t39.5 54.5t25 76.5t8.5 86.5t-18.5 64t-51.5 20z" />
    <glyph glyph-name="ydieresis" unicode="&#xff;" horiz-adv-x="512" 
d="M579 520l-276 -531q-27 -51 -49.5 -86t-45.5 -56.5t-49 -31.5t-60 -10q-20 0 -45.5 3t-42.5 8l24 109q22 -6 36 -7.5t22 -1.5q24 0 41 19.5t31 64.5h-43l-49 520h160l3 -399l184 399h159zM170 592l28 128h142l-28 -128h-142zM369 592l28 128h143l-28 -128h-143z" />
    <glyph glyph-name="Amacron" unicode="&#x100;" horiz-adv-x="601" 
d="M388 165h-189l-72 -165h-167l359 720h186l56 -720h-170zM247 275h139l-4 307zM308 798l24 112h232l-24 -112h-232z" />
    <glyph glyph-name="amacron" unicode="&#x101;" horiz-adv-x="509" 
d="M77 373q29 78 89 120t161 42q85 0 132 -39.5t47 -113.5q0 -27 -6 -55l-69 -327h-120l-8 54q-28 -29 -66 -49t-91 -20q-30 0 -54 10t-41 28t-26.5 42.5t-9.5 53.5q0 78 51 127t164 66l115 17l5 25q2 8 3 16.5t1 13.5q0 50 -48 50q-55 0 -72 -61h-157zM214 92q44 0 69 29.5
t33 70.5l11 51l-69 -13q-49 -10 -68 -34.5t-19 -51.5q0 -28 10.5 -40t32.5 -12zM236 608l24 112h232l-24 -112h-232z" />
    <glyph glyph-name="Abreve" unicode="&#x102;" horiz-adv-x="601" 
d="M388 165h-189l-72 -165h-167l359 720h186l56 -720h-170zM247 275h139l-4 307zM430 910q-4 -17 -4 -30q0 -19 13 -19q10 0 17 11.5t13 37.5h118q-23 -72 -67.5 -102.5t-98.5 -30.5q-57 0 -83.5 27t-26.5 78q0 7 0.5 14t1.5 14h117z" />
    <glyph glyph-name="abreve" unicode="&#x103;" horiz-adv-x="509" 
d="M77 373q29 78 89 120t161 42q85 0 132 -39.5t47 -113.5q0 -27 -6 -55l-69 -327h-120l-8 54q-28 -29 -66 -49t-91 -20q-30 0 -54 10t-41 28t-26.5 42.5t-9.5 53.5q0 78 51 127t164 66l115 17l5 25q2 8 3 16.5t1 13.5q0 50 -48 50q-55 0 -72 -61h-157zM214 92q44 0 69 29.5
t33 70.5l11 51l-69 -13q-49 -10 -68 -34.5t-19 -51.5q0 -28 10.5 -40t32.5 -12zM352 720q-4 -17 -4 -30q0 -19 13 -19q10 0 17 11.5t13 37.5h118q-23 -72 -67.5 -102.5t-98.5 -30.5q-57 0 -83.5 27t-26.5 78q0 7 0.5 14t1.5 14h117z" />
    <glyph glyph-name="Aogonek" unicode="&#x104;" horiz-adv-x="601" 
d="M528 -137q-20 -51 -55.5 -80.5t-94.5 -29.5q-56 0 -86 26.5t-30 74.5q0 44 32 83.5t97 68.5l-3 159h-189l-72 -165h-167l359 720h186l56 -720h-88q-103 -59 -103 -122q0 -17 6.5 -27t21.5 -10q20 0 28 22h102zM247 275h139l-4 307z" />
    <glyph glyph-name="aogonek" unicode="&#x105;" horiz-adv-x="509" 
d="M451 -137q-20 -51 -55.5 -80.5t-94.5 -29.5q-56 0 -86 26.5t-30 74.5q0 44 31 83t94 68l-7 49q-28 -29 -66 -49t-91 -20q-30 0 -54 10t-41 28t-26.5 42.5t-9.5 53.5q0 78 51 127t164 66l115 17l5 25q2 8 3 16t1 14q0 50 -48 50q-55 0 -72 -61h-157q29 78 89 120t161 42
q85 0 132 -39.5t47 -113.5q0 -27 -6 -55l-69 -327h-35q-103 -59 -103 -122q0 -17 6.5 -27t21.5 -10q20 0 28 22h102zM214 92q44 0 69 29.5t33 70.5l11 51l-69 -13q-49 -10 -68 -34.5t-19 -51.5q0 -28 10.5 -40t32.5 -12z" />
    <glyph glyph-name="Cacute" unicode="&#x106;" horiz-adv-x="641" 
d="M316 103q54 0 86.5 38.5t56.5 123.5h170q-23 -68 -53 -120t-69 -87.5t-89 -54t-113 -18.5q-123 0 -187 65t-64 190q0 109 26.5 200t75.5 156.5t118.5 102t155.5 36.5q58 0 104.5 -17.5t77.5 -49.5t45 -77.5t14 -105.5h-167q3 71 -19 102t-70 31q-42 0 -76.5 -32.5
t-59 -86.5t-38.5 -124t-14 -144q0 -69 23.5 -98.5t65.5 -29.5zM511 910h160l-161 -137h-116z" />
    <glyph glyph-name="cacute" unicode="&#x107;" horiz-adv-x="519" 
d="M493 173q-41 -94 -102.5 -141t-157.5 -47q-100 0 -150.5 48.5t-50.5 141.5q0 77 20 143t57.5 114t92.5 75.5t125 27.5q49 0 88 -13t65.5 -36.5t39.5 -55.5t13 -70h-161q2 33 -14 51t-45 18q-26 0 -48 -20.5t-38.5 -55.5t-26 -80.5t-9.5 -94.5q0 -45 16 -65.5t43 -20.5
q31 0 49.5 19.5t32.5 61.5h161zM401 735h160l-161 -137h-116z" />
    <glyph glyph-name="Ccircumflex" unicode="&#x108;" horiz-adv-x="641" 
d="M316 103q54 0 86.5 38.5t56.5 123.5h170q-23 -68 -53 -120t-69 -87.5t-89 -54t-113 -18.5q-123 0 -187 65t-64 190q0 109 26.5 200t75.5 156.5t118.5 102t155.5 36.5q58 0 104.5 -17.5t77.5 -49.5t45 -77.5t14 -105.5h-167q3 71 -19 102t-70 31q-42 0 -76.5 -32.5
t-59 -86.5t-38.5 -124t-14 -144q0 -69 23.5 -98.5t65.5 -29.5zM432 773h-149l142 137h131l82 -137h-148l-14 69z" />
    <glyph glyph-name="ccircumflex" unicode="&#x109;" horiz-adv-x="519" 
d="M493 173q-41 -94 -102.5 -141t-157.5 -47q-100 0 -150.5 48.5t-50.5 141.5q0 77 20 143t57.5 114t92.5 75.5t125 27.5q49 0 88 -13t65.5 -36.5t39.5 -55.5t13 -70h-161q2 33 -14 51t-45 18q-26 0 -48 -20.5t-38.5 -55.5t-26 -80.5t-9.5 -94.5q0 -45 16 -65.5t43 -20.5
q31 0 49.5 19.5t32.5 61.5h161zM310 598h-149l142 137h131l82 -137h-148l-14 69z" />
    <glyph glyph-name="Cdotaccent" unicode="&#x10a;" horiz-adv-x="641" 
d="M316 103q54 0 86.5 38.5t56.5 123.5h170q-23 -68 -53 -120t-69 -87.5t-89 -54t-113 -18.5q-123 0 -187 65t-64 190q0 109 26.5 200t75.5 156.5t118.5 102t155.5 36.5q58 0 104.5 -17.5t77.5 -49.5t45 -77.5t14 -105.5h-167q3 71 -19 102t-70 31q-42 0 -76.5 -32.5
t-59 -86.5t-38.5 -124t-14 -144q0 -69 23.5 -98.5t65.5 -29.5zM371 777l29 133h169l-29 -133h-169z" />
    <glyph glyph-name="cdotaccent" unicode="&#x10b;" horiz-adv-x="519" 
d="M493 173q-41 -94 -102.5 -141t-157.5 -47q-100 0 -150.5 48.5t-50.5 141.5q0 77 20 143t57.5 114t92.5 75.5t125 27.5q49 0 88 -13t65.5 -36.5t39.5 -55.5t13 -70h-161q2 33 -14 51t-45 18q-26 0 -48 -20.5t-38.5 -55.5t-26 -80.5t-9.5 -94.5q0 -45 16 -65.5t43 -20.5
q31 0 49.5 19.5t32.5 61.5h161zM263 587l29 133h169l-29 -133h-169z" />
    <glyph glyph-name="Ccaron" unicode="&#x10c;" horiz-adv-x="641" 
d="M316 103q54 0 86.5 38.5t56.5 123.5h170q-23 -68 -53 -120t-69 -87.5t-89 -54t-113 -18.5q-123 0 -187 65t-64 190q0 109 26.5 200t75.5 156.5t118.5 102t155.5 36.5q58 0 104.5 -17.5t77.5 -49.5t45 -77.5t14 -105.5h-167q3 71 -19 102t-70 31q-42 0 -76.5 -32.5
t-59 -86.5t-38.5 -124t-14 -144q0 -69 23.5 -98.5t65.5 -29.5zM459 841l44 69h148l-142 -137h-131l-82 137h149z" />
    <glyph glyph-name="ccaron" unicode="&#x10d;" horiz-adv-x="519" 
d="M493 173q-41 -94 -102.5 -141t-157.5 -47q-100 0 -150.5 48.5t-50.5 141.5q0 77 20 143t57.5 114t92.5 75.5t125 27.5q49 0 88 -13t65.5 -36.5t39.5 -55.5t13 -70h-161q2 33 -14 51t-45 18q-26 0 -48 -20.5t-38.5 -55.5t-26 -80.5t-9.5 -94.5q0 -45 16 -65.5t43 -20.5
q31 0 49.5 19.5t32.5 61.5h161zM360 666l44 69h148l-142 -137h-131l-82 137h149z" />
    <glyph glyph-name="Dcaron" unicode="&#x10e;" horiz-adv-x="634" 
d="M388 720q128 0 196 -60.5t68 -184.5q0 -111 -27.5 -199.5t-78.5 -149.5t-123.5 -93.5t-163.5 -32.5h-253l153 720h229zM301 604l-104 -487h75q40 0 78 25.5t67.5 71t47 108.5t17.5 139q0 75 -31 109t-83 34h-67zM432 841l44 69h148l-142 -137h-131l-82 137h149z" />
    <glyph glyph-name="dcaron" unicode="&#x10f;" horiz-adv-x="699" 
d="M353 0l-14 57q-32 -32 -67 -52t-73 -20q-75 0 -121.5 51t-46.5 144q0 78 20.5 143t56 112t82 73.5t98.5 26.5q46 0 80.5 -17t49.5 -43l53 245h155l-153 -720h-120zM315 421q-27 0 -50 -19t-40 -51.5t-27 -75t-10 -88.5q0 -47 20 -67.5t54 -20.5q26 0 48.5 19t39 50.5
t26 73t9.5 86.5q0 47 -19 70t-51 23zM804 606q-11 -49 -33 -82t-50.5 -54t-61 -32.5t-65.5 -17.5l14 68q39 12 61.5 34.5t30.5 60.5h-48l30 137h147z" />
    <glyph glyph-name="Dcroat" unicode="&#x110;" horiz-adv-x="634" 
d="M388 720q128 0 196 -60.5t68 -184.5q0 -111 -27.5 -199.5t-78.5 -149.5t-123.5 -93.5t-163.5 -32.5h-253l67 315h-44l27 126h44l59 279h229zM301 604l-35 -163h85l-27 -126h-85l-42 -198h75q40 0 78 25.5t67.5 71t47 108.5t17.5 139q0 75 -31 109t-83 34h-67z" />
    <glyph glyph-name="dcroat" unicode="&#x111;" horiz-adv-x="555" 
d="M353 0l-14 57q-32 -32 -67 -52t-73 -20q-75 0 -121.5 51t-46.5 144q0 78 20.5 143t56 112t82 73.5t98.5 26.5q46 0 80.5 -17t49.5 -43l20 95h-88l22 106h89l10 44h155l-10 -44h37l-22 -106h-37l-121 -570h-120zM315 421q-27 0 -50 -19t-40 -51.5t-27 -75t-10 -88.5
q0 -47 20 -67.5t54 -20.5q26 0 48.5 19t39 50.5t26 73t9.5 86.5q0 47 -19 70t-51 23z" />
    <glyph glyph-name="Emacron" unicode="&#x112;" horiz-adv-x="502" 
d="M476 305h-239l-39 -184h264l-25 -121h-431l153 720h431l-27 -123h-264l-37 -176h239zM273 798l24 112h232l-24 -112h-232z" />
    <glyph glyph-name="emacron" unicode="&#x113;" horiz-adv-x="526" 
d="M489 147q-29 -73 -87.5 -117.5t-155.5 -44.5q-102 0 -157 52t-55 146q0 78 19.5 142.5t56.5 111t90.5 72.5t122.5 26q95 0 148 -51t53 -154q0 -48 -12 -108h-320q-2 -10 -3 -22t-1 -22q0 -45 18 -64.5t55 -19.5q29 0 46 13.5t27 39.5h155zM313 437q-35 0 -59.5 -27.5
t-44.5 -96.5h163q3 15 4 27.5t1 23.5q0 39 -16 56t-48 17zM241 608l24 112h232l-24 -112h-232z" />
    <glyph glyph-name="Ebreve" unicode="&#x114;" horiz-adv-x="502" 
d="M476 305h-239l-39 -184h264l-25 -121h-431l153 720h431l-27 -123h-264l-37 -176h239zM389 910q-4 -17 -4 -30q0 -19 13 -19q10 0 17 11.5t13 37.5h118q-23 -72 -67.5 -102.5t-98.5 -30.5q-57 0 -83.5 27t-26.5 78q0 7 0.5 14t1.5 14h117z" />
    <glyph glyph-name="ebreve" unicode="&#x115;" horiz-adv-x="526" 
d="M489 147q-29 -73 -87.5 -117.5t-155.5 -44.5q-102 0 -157 52t-55 146q0 78 19.5 142.5t56.5 111t90.5 72.5t122.5 26q95 0 148 -51t53 -154q0 -48 -12 -108h-320q-2 -10 -3 -22t-1 -22q0 -45 18 -64.5t55 -19.5q29 0 46 13.5t27 39.5h155zM313 437q-35 0 -59.5 -27.5
t-44.5 -96.5h163q3 15 4 27.5t1 23.5q0 39 -16 56t-48 17zM344 720q-4 -17 -4 -30q0 -19 13 -19q10 0 17 11.5t13 37.5h118q-23 -72 -67.5 -102.5t-98.5 -30.5q-57 0 -83.5 27t-26.5 78q0 7 0.5 14t1.5 14h117z" />
    <glyph glyph-name="Edotaccent" unicode="&#x116;" horiz-adv-x="502" 
d="M476 305h-239l-39 -184h264l-25 -121h-431l153 720h431l-27 -123h-264l-37 -176h239zM306 777l29 133h169l-29 -133h-169z" />
    <glyph glyph-name="edotaccent" unicode="&#x117;" horiz-adv-x="526" 
d="M489 147q-29 -73 -87.5 -117.5t-155.5 -44.5q-102 0 -157 52t-55 146q0 78 19.5 142.5t56.5 111t90.5 72.5t122.5 26q95 0 148 -51t53 -154q0 -48 -12 -108h-320q-2 -10 -3 -22t-1 -22q0 -45 18 -64.5t55 -19.5q29 0 46 13.5t27 39.5h155zM313 437q-35 0 -59.5 -27.5
t-44.5 -96.5h163q3 15 4 27.5t1 23.5q0 39 -16 56t-48 17zM265 587l29 133h169l-29 -133h-169z" />
    <glyph glyph-name="Eogonek" unicode="&#x118;" horiz-adv-x="502" 
d="M385 -137q-20 -51 -55.5 -80.5t-94.5 -29.5q-56 0 -86 26.5t-30 74.5q0 42 28.5 79.5t86.5 66.5h-228l153 720h431l-27 -123h-264l-37 -176h239l-25 -116h-239l-39 -184h264l-25 -121h-107q-103 -59 -103 -122q0 -17 6.5 -27t21.5 -10q20 0 28 22h102z" />
    <glyph glyph-name="eogonek" unicode="&#x119;" horiz-adv-x="526" 
d="M489 147q-17 -42 -41.5 -74.5t-60.5 -52.5q-69 -36 -104 -71t-35 -71q0 -17 6.5 -27t21.5 -10q20 0 28 22h102q-20 -51 -55.5 -80.5t-94.5 -29.5q-56 0 -86 26.5t-30 74.5q0 37 22 70.5t67 61.5q-94 5 -144.5 55.5t-50.5 141.5q0 78 19.5 142.5t56.5 111t90.5 72.5
t122.5 26q95 0 148 -51t53 -154q0 -48 -12 -108h-320q-2 -10 -3 -22t-1 -22q0 -45 18 -64.5t55 -19.5q29 0 46 13.5t27 39.5h155zM313 437q-35 0 -59.5 -27.5t-44.5 -96.5h163q3 15 4 27.5t1 23.5q0 39 -16 56t-48 17z" />
    <glyph glyph-name="Ecaron" unicode="&#x11a;" horiz-adv-x="502" 
d="M476 305h-239l-39 -184h264l-25 -121h-431l153 720h431l-27 -123h-264l-37 -176h239zM406 841l44 69h148l-142 -137h-131l-82 137h149z" />
    <glyph glyph-name="ecaron" unicode="&#x11b;" horiz-adv-x="526" 
d="M489 147q-29 -73 -87.5 -117.5t-155.5 -44.5q-102 0 -157 52t-55 146q0 78 19.5 142.5t56.5 111t90.5 72.5t122.5 26q95 0 148 -51t53 -154q0 -48 -12 -108h-320q-2 -10 -3 -22t-1 -22q0 -45 18 -64.5t55 -19.5q29 0 46 13.5t27 39.5h155zM313 437q-35 0 -59.5 -27.5
t-44.5 -96.5h163q3 15 4 27.5t1 23.5q0 39 -16 56t-48 17zM367 666l44 69h148l-142 -137h-131l-82 137h149z" />
    <glyph glyph-name="Gcircumflex" unicode="&#x11c;" horiz-adv-x="648" 
d="M570 0h-101l-6 77q-41 -46 -88 -69t-107 -23q-97 0 -155.5 62.5t-58.5 183.5q0 111 27.5 203.5t77.5 159.5t121.5 104t160.5 37q56 0 101 -15t76 -43.5t46 -69.5t15 -93h-166q3 51 -20 77.5t-70 26.5q-45 0 -80.5 -33t-61 -87t-39 -123.5t-13.5 -141.5q0 -68 26 -99
t72 -31q59 0 100 38.5t54 99.5l11 51h-135l23 109h275zM411 773h-149l142 137h131l82 -137h-148l-14 69z" />
    <glyph glyph-name="gcircumflex" unicode="&#x11d;" horiz-adv-x="543" 
d="M144 -36q2 -26 16.5 -38t51.5 -12q39 0 61.5 24t35.5 80l10 44q-29 -23 -55.5 -35t-56.5 -12q-38 0 -69.5 13.5t-54 38.5t-35 60.5t-12.5 79.5q0 70 19.5 130.5t54 104t81 68.5t99.5 25q36 0 73.5 -16t55.5 -45l37 46h115l-105 -494q-22 -103 -89 -162t-182 -59
q-116 0 -162 39t-46 102q0 9 1 18h156zM315 421q-27 0 -49 -17t-38.5 -45.5t-25.5 -66.5t-9 -80q0 -45 19.5 -64t55.5 -19q28 0 50 17.5t37.5 47t23.5 67t8 77.5q0 45 -18.5 64t-53.5 19zM325 598h-149l142 137h131l82 -137h-148l-14 69z" />
    <glyph glyph-name="Gbreve" unicode="&#x11e;" horiz-adv-x="648" 
d="M570 0h-101l-6 77q-41 -46 -88 -69t-107 -23q-97 0 -155.5 62.5t-58.5 183.5q0 111 27.5 203.5t77.5 159.5t121.5 104t160.5 37q56 0 101 -15t76 -43.5t46 -69.5t15 -93h-166q3 51 -20 77.5t-70 26.5q-45 0 -80.5 -33t-61 -87t-39 -123.5t-13.5 -141.5q0 -68 26 -99
t72 -31q59 0 100 38.5t54 99.5l11 51h-135l23 109h275zM459 910q-4 -17 -4 -30q0 -19 13 -19q10 0 17 11.5t13 37.5h118q-23 -72 -67.5 -102.5t-98.5 -30.5q-57 0 -83.5 27t-26.5 78q0 7 0.5 14t1.5 14h117z" />
    <glyph glyph-name="gbreve" unicode="&#x11f;" horiz-adv-x="543" 
d="M144 -36q2 -26 16.5 -38t51.5 -12q39 0 61.5 24t35.5 80l10 44q-29 -23 -55.5 -35t-56.5 -12q-38 0 -69.5 13.5t-54 38.5t-35 60.5t-12.5 79.5q0 70 19.5 130.5t54 104t81 68.5t99.5 25q36 0 73.5 -16t55.5 -45l37 46h115l-105 -494q-22 -103 -89 -162t-182 -59
q-116 0 -162 39t-46 102q0 9 1 18h156zM315 421q-27 0 -49 -17t-38.5 -45.5t-25.5 -66.5t-9 -80q0 -45 19.5 -64t55.5 -19q28 0 50 17.5t37.5 47t23.5 67t8 77.5q0 45 -18.5 64t-53.5 19zM366 720q-4 -17 -4 -30q0 -19 13 -19q10 0 17 11.5t13 37.5h118
q-23 -72 -67.5 -102.5t-98.5 -30.5q-57 0 -83.5 27t-26.5 78q0 7 0.5 14t1.5 14h117z" />
    <glyph glyph-name="Gdotaccent" unicode="&#x120;" horiz-adv-x="648" 
d="M570 0h-101l-6 77q-41 -46 -88 -69t-107 -23q-97 0 -155.5 62.5t-58.5 183.5q0 111 27.5 203.5t77.5 159.5t121.5 104t160.5 37q56 0 101 -15t76 -43.5t46 -69.5t15 -93h-166q3 51 -20 77.5t-70 26.5q-45 0 -80.5 -33t-61 -87t-39 -123.5t-13.5 -141.5q0 -68 26 -99
t72 -31q59 0 100 38.5t54 99.5l11 51h-135l23 109h275zM378 777l29 133h169l-29 -133h-169z" />
    <glyph glyph-name="gdotaccent" unicode="&#x121;" horiz-adv-x="543" 
d="M144 -36q2 -26 16.5 -38t51.5 -12q39 0 61.5 24t35.5 80l10 44q-29 -23 -55.5 -35t-56.5 -12q-38 0 -69.5 13.5t-54 38.5t-35 60.5t-12.5 79.5q0 70 19.5 130.5t54 104t81 68.5t99.5 25q36 0 73.5 -16t55.5 -45l37 46h115l-105 -494q-22 -103 -89 -162t-182 -59
q-116 0 -162 39t-46 102q0 9 1 18h156zM315 421q-27 0 -49 -17t-38.5 -45.5t-25.5 -66.5t-9 -80q0 -45 19.5 -64t55.5 -19q28 0 50 17.5t37.5 47t23.5 67t8 77.5q0 45 -18.5 64t-53.5 19zM269 587l29 133h169l-29 -133h-169z" />
    <glyph glyph-name="Gcommaaccent" unicode="&#x122;" horiz-adv-x="648" 
d="M570 0h-101l-6 77q-41 -46 -88 -69t-107 -23q-97 0 -155.5 62.5t-58.5 183.5q0 111 27.5 203.5t77.5 159.5t121.5 104t160.5 37q56 0 101 -15t76 -43.5t46 -69.5t15 -93h-166q3 51 -20 77.5t-70 26.5q-45 0 -80.5 -33t-61 -87t-39 -123.5t-13.5 -141.5q0 -68 26 -99
t72 -31q59 0 100 38.5t54 99.5l11 51h-135l23 109h275zM313 -151q-10 -45 -27 -75t-40.5 -49t-53.5 -29t-66 -16l15 68q35 12 49.5 27.5t20.5 47.5h-37l25 117h133z" />
    <glyph glyph-name="gcommaaccent" unicode="&#x123;" horiz-adv-x="543" 
d="M144 -36q2 -26 16.5 -38t51.5 -12q39 0 61.5 24t35.5 80l10 44q-29 -23 -55.5 -35t-56.5 -12q-38 0 -69.5 13.5t-54 38.5t-35 60.5t-12.5 79.5q0 70 19.5 130.5t54 104t81 68.5t99.5 25q36 0 73.5 -16t55.5 -45l37 46h115l-105 -494q-22 -103 -89 -162t-182 -59
q-116 0 -162 39t-46 102q0 9 1 18h156zM315 421q-27 0 -49 -17t-38.5 -45.5t-25.5 -66.5t-9 -80q0 -45 19.5 -64t55.5 -19q28 0 50 17.5t37.5 47t23.5 67t8 77.5q0 45 -18.5 64t-53.5 19zM276 660q10 45 27 75t40.5 49t53.5 29t66 16l-15 -68q-35 -12 -49.5 -27.5
t-20.5 -47.5h37l-25 -117h-133z" />
    <glyph glyph-name="Hcircumflex" unicode="&#x124;" horiz-adv-x="626" 
d="M693 720l-153 -720h-165l64 304h-202l-64 -304h-167l153 720h167l-63 -296h202l63 296h165zM407 773h-149l142 137h131l82 -137h-148l-14 69z" />
    <glyph glyph-name="hcircumflex" unicode="&#x125;" horiz-adv-x="529" 
d="M155 720h155l-53 -247q32 32 64.5 47t72.5 15q64 0 99 -36.5t35 -104.5q0 -16 -2 -32.5t-6 -35.5l-69 -326h-155l68 324q6 28 6 47q0 29 -12 41.5t-34 12.5q-35 0 -61.5 -26t-39.5 -85l-66 -314h-155zM329 773h-149l142 137h131l82 -137h-148l-14 69z" />
    <glyph glyph-name="Hbar" unicode="&#x126;" horiz-adv-x="637" 
d="M699 720l-18 -84h38l-24 -111h-38l-111 -525h-166l64 304h-201l-64 -304h-168l111 525h-38l24 111h38l18 84h168l-18 -84h201l18 84h166zM269 424h201l21 101h-201z" />
    <glyph glyph-name="hbar" unicode="&#x127;" horiz-adv-x="529" 
d="M123 570h-29l22 106h29l10 44h155l-10 -44h113l-22 -106h-113l-21 -97q32 32 64.5 47t72.5 15q64 0 99 -36.5t35 -104.5q0 -16 -2 -32.5t-6 -35.5l-69 -326h-155l68 324q6 28 6 47q0 29 -12 41.5t-34 12.5q-35 0 -61.5 -26t-39.5 -85l-66 -314h-155z" />
    <glyph glyph-name="Itilde" unicode="&#x128;" horiz-adv-x="259" 
d="M326 720l-153 -720h-167l153 720h167zM313 782q-18 0 -32 6t-26 13t-23.5 13t-25.5 6t-36 -10.5t-45 -27.5l24 110q22 16 44.5 24.5t39.5 8.5q18 0 32 -6t26 -13t23.5 -13t25.5 -6t34.5 10.5t42.5 27.5l-24 -110q-44 -33 -80 -33z" />
    <glyph glyph-name="itilde" unicode="&#x129;" horiz-adv-x="239" 
d="M263 592q-18 0 -32 6t-26 13t-23.5 13t-25.5 6t-36 -10.5t-45 -27.5l24 110q22 16 44.5 24.5t39.5 8.5q18 0 32 -6t26 -13t23.5 -13t25.5 -6t34.5 10.5t42.5 27.5l-24 -110q-44 -33 -80 -33zM2 0l110 520h155l-110 -520h-155z" />
    <glyph glyph-name="Imacron" unicode="&#x12a;" horiz-adv-x="259" 
d="M326 720l-153 -720h-167l153 720h167zM145 798l24 112h232l-24 -112h-232z" />
    <glyph glyph-name="imacron" unicode="&#x12b;" horiz-adv-x="239" 
d="M93 608l24 112h232l-24 -112h-232zM2 0l110 520h155l-110 -520h-155z" />
    <glyph glyph-name="Ibreve" unicode="&#x12c;" horiz-adv-x="259" 
d="M326 720l-153 -720h-167l153 720h167zM251 910q-4 -17 -4 -30q0 -19 13 -19q10 0 17 11.5t13 37.5h118q-23 -72 -67.5 -102.5t-98.5 -30.5q-57 0 -83.5 27t-26.5 78q0 7 0.5 14t1.5 14h117z" />
    <glyph glyph-name="ibreve" unicode="&#x12d;" horiz-adv-x="239" 
d="M2 0l110 520h155l-110 -520h-155zM202 720q-4 -17 -4 -30q0 -19 13 -19q10 0 17 11.5t13 37.5h118q-23 -72 -67.5 -102.5t-98.5 -30.5q-57 0 -83.5 27t-26.5 78q0 7 0.5 14t1.5 14h117z" />
    <glyph glyph-name="Iogonek" unicode="&#x12e;" horiz-adv-x="259" 
d="M158 -137q-20 -51 -55.5 -80.5t-94.5 -29.5q-56 0 -86 26.5t-30 74.5q0 42 28.5 79.5t85.5 66.5l153 720h167l-153 -720h-70q-103 -59 -103 -122q0 -17 6.5 -27t21.5 -10q20 0 28 22h102z" />
    <glyph glyph-name="iogonek" unicode="&#x12f;" horiz-adv-x="239" 
d="M141 -137q-20 -51 -55.5 -80.5t-94.5 -29.5q-56 0 -86 26.5t-30 74.5q0 45 32.5 84.5t96.5 68.5l109 513h154l-110 -520h-71q-103 -59 -103 -122q0 -17 6.5 -27t21.5 -10q20 0 28 22h102zM118 587l29 133h169l-29 -133h-169z" />
    <glyph glyph-name="Idotaccent" unicode="&#x130;" horiz-adv-x="259" 
d="M326 720l-153 -720h-167l153 720h167zM169 777l29 133h169l-29 -133h-169z" />
    <glyph glyph-name="dotlessi" unicode="&#x131;" horiz-adv-x="239" 
d="M2 0l110 520h155l-110 -520h-155z" />
    <glyph glyph-name="IJ" unicode="&#x132;" horiz-adv-x="753" 
d="M326 720l-153 -720h-167l153 720h167zM433 198q-3 -18 -3 -31q0 -32 13 -47.5t36 -15.5q26 0 45 23t33 89l108 504h159l-105 -492q-26 -123 -87 -183t-166 -60q-93 0 -142.5 45.5t-49.5 131.5q0 8 0.5 17.5t1.5 18.5h157z" />
    <glyph glyph-name="ij" unicode="&#x133;" horiz-adv-x="484" 
d="M117 587l29 133h169l-29 -133h-169zM2 0l110 520h155l-110 -520h-155zM137 -68q14 -5 28.5 -7t23.5 -2q20 0 33.5 12.5t19.5 41.5l115 543h155l-118 -556q-16 -75 -65 -117t-128 -42q-22 0 -46.5 5.5t-40.5 12.5zM363 587l29 133h169l-29 -133h-169z" />
    <glyph glyph-name="Jcircumflex" unicode="&#x134;" horiz-adv-x="494" 
d="M174 198q-3 -18 -3 -31q0 -32 13 -47.5t36 -15.5q26 0 45 23t33 89l108 504h159l-105 -492q-26 -123 -87 -183t-166 -60q-93 0 -142.5 45.5t-49.5 131.5q0 8 0.5 17.5t1.5 18.5h157zM464 773h-149l142 137h131l82 -137h-148l-14 69z" />
    <glyph glyph-name="jcircumflex" unicode="&#x135;" horiz-adv-x="245" 
d="M-102 -68q14 -5 28.5 -7t23.5 -2q20 0 33.5 12.5t19.5 41.5l115 543h155l-118 -556q-16 -75 -65 -117t-128 -42q-22 0 -46.5 5.5t-40.5 12.5zM168 598h-149l142 137h131l82 -137h-148l-14 69z" />
    <glyph glyph-name="Kcommaaccent" unicode="&#x136;" horiz-adv-x="644" 
d="M415 0l-171 333l-71 -333h-167l153 720h167l-63 -295l269 295h192l-323 -338l206 -382h-192zM352 -151q-10 -45 -27 -75t-40.5 -49t-53.5 -29t-66 -16l15 68q35 12 49.5 27.5t20.5 47.5h-37l25 117h133z" />
    <glyph glyph-name="kcommaaccent" unicode="&#x137;" horiz-adv-x="526" 
d="M2 0l153 720h155l-83 -389l184 189h173l-220 -218l132 -302h-185l-100 257l-54 -257h-155zM245 -151q-10 -45 -27 -75t-40.5 -49t-53.5 -29t-66 -16l15 68q35 12 49.5 27.5t20.5 47.5h-37l25 117h133z" />
    <glyph glyph-name="kgreenlandic" unicode="&#x138;" horiz-adv-x="526" 
d="M2 0l110 520h155l-45 -212l195 212h167l-227 -235l139 -285h-177l-109 251l-53 -251h-155z" />
    <glyph glyph-name="Lacute" unicode="&#x139;" horiz-adv-x="510" 
d="M326 720l-127 -594h285l-26 -126h-452l153 720h167zM299 910h160l-161 -137h-116z" />
    <glyph glyph-name="lacute" unicode="&#x13a;" horiz-adv-x="239" 
d="M157 0h-155l153 720h155zM257 910h160l-161 -137h-116z" />
    <glyph glyph-name="Lcommaaccent" unicode="&#x13b;" horiz-adv-x="510" 
d="M326 720l-127 -594h285l-26 -126h-452l153 720h167zM258 -151q-10 -45 -27 -75t-40.5 -49t-53.5 -29t-66 -16l15 68q35 12 49.5 27.5t20.5 47.5h-37l25 117h133z" />
    <glyph glyph-name="lcommaaccent" unicode="&#x13c;" horiz-adv-x="239" 
d="M157 0h-155l153 720h155zM113 -151q-10 -45 -27 -75t-40.5 -49t-53.5 -29t-66 -16l15 68q35 12 49.5 27.5t20.5 47.5h-37l25 117h133z" />
    <glyph glyph-name="Lcaron" unicode="&#x13d;" horiz-adv-x="510" 
d="M326 720l-127 -594h285l-26 -126h-452l153 720h167zM505 606q-11 -49 -33 -82t-50.5 -54t-61 -32.5t-65.5 -17.5l14 68q39 12 61.5 34.5t30.5 60.5h-48l30 137h147z" />
    <glyph glyph-name="lcaron" unicode="&#x13e;" horiz-adv-x="369" 
d="M157 0h-155l153 720h155zM482 606q-11 -49 -33 -82t-50.5 -54t-61 -32.5t-65.5 -17.5l14 68q39 12 61.5 34.5t30.5 60.5h-48l30 137h147z" />
    <glyph glyph-name="Ldot" unicode="&#x13f;" horiz-adv-x="510" 
d="M326 720l-127 -594h285l-26 -126h-452l153 720h167zM319 312l29 133h169l-29 -133h-169z" />
    <glyph glyph-name="ldot" unicode="&#x140;" horiz-adv-x="437" 
d="M157 0h-155l153 720h155zM279 312l29 133h169l-29 -133h-169z" />
    <glyph glyph-name="Lslash" unicode="&#x141;" horiz-adv-x="520" 
d="M336 720l-43 -201l91 53l-30 -142l-92 -54l-53 -250h285l-26 -126h-452l56 265l-64 -37l30 142l64 38l67 312h167z" />
    <glyph glyph-name="lslash" unicode="&#x142;" horiz-adv-x="239" 
d="M267 520l36 22l-31 -144l-35 -22l-80 -376h-155l56 266l-36 -22l31 144l36 22l66 310h155z" />
    <glyph glyph-name="Nacute" unicode="&#x143;" horiz-adv-x="620" 
d="M687 720l-153 -720h-167l-113 502l-107 -502h-141l153 720h181l102 -491l104 491h141zM493 910h160l-161 -137h-116z" />
    <glyph glyph-name="nacute" unicode="&#x144;" horiz-adv-x="529" 
d="M112 520h118l11 -55q38 38 73 54t79 16q64 0 100 -37t36 -106q0 -28 -8 -66l-70 -326h-155l69 324q6 27 6 47q0 29 -12.5 41.5t-34.5 12.5q-35 0 -61.5 -26.5t-39.5 -85.5l-66 -313h-155zM418 735h160l-161 -137h-116z" />
    <glyph glyph-name="Ncommaaccent" unicode="&#x145;" horiz-adv-x="620" 
d="M687 720l-153 -720h-167l-113 502l-107 -502h-141l153 720h181l102 -491l104 491h141zM302 -151q-10 -45 -27 -75t-40.5 -49t-53.5 -29t-66 -16l15 68q35 12 49.5 27.5t20.5 47.5h-37l25 117h133z" />
    <glyph glyph-name="ncommaaccent" unicode="&#x146;" horiz-adv-x="529" 
d="M112 520h118l11 -55q38 38 73 54t79 16q64 0 100 -37t36 -106q0 -28 -8 -66l-70 -326h-155l69 324q6 27 6 47q0 29 -12.5 41.5t-34.5 12.5q-35 0 -61.5 -26.5t-39.5 -85.5l-66 -313h-155zM261 -151q-10 -45 -27 -75t-40.5 -49t-53.5 -29t-66 -16l15 68q35 12 49.5 27.5
t20.5 47.5h-37l25 117h133z" />
    <glyph glyph-name="Ncaron" unicode="&#x147;" horiz-adv-x="620" 
d="M687 720l-153 -720h-167l-113 502l-107 -502h-141l153 720h181l102 -491l104 491h141zM461 841l44 69h148l-142 -137h-131l-82 137h149z" />
    <glyph glyph-name="ncaron" unicode="&#x148;" horiz-adv-x="529" 
d="M112 520h118l11 -55q38 38 73 54t79 16q64 0 100 -37t36 -106q0 -28 -8 -66l-70 -326h-155l69 324q6 27 6 47q0 29 -12.5 41.5t-34.5 12.5q-35 0 -61.5 -26.5t-39.5 -85.5l-66 -313h-155zM379 666l44 69h148l-142 -137h-131l-82 137h149z" />
    <glyph glyph-name="napostrophe" unicode="&#x149;" horiz-adv-x="629" 
d="M212 520h118l11 -55q38 38 73 54t79 16q64 0 100 -37t36 -106q0 -28 -8 -66l-70 -326h-155l69 324q6 27 6 47q0 29 -12.5 41.5t-34.5 12.5q-35 0 -61.5 -26.5t-39.5 -85.5l-66 -313h-155zM230.554 611.707q-10.4502 -46.5498 -31.3506 -77.9004t-47.9756 -51.3008
t-57.9512 -30.876q-30.875 -10.9248 -62.2256 -16.625l13.3008 64.6006q37.0498 11.4004 58.4258 32.7754q21.375 21.376 28.9746 57.4766h-45.6006l28.501 130.151h139.651z" />
    <glyph glyph-name="Eng" unicode="&#x14a;" horiz-adv-x="620" 
d="M687 720l-161 -756q-16 -75 -64.5 -117t-127.5 -42q-22 0 -46.5 5.5t-40.5 12.5l23 109q14 -5 28.5 -7t23.5 -2q31 0 45 12.5t20 41.5l5 23h-25l-113 502l-107 -502h-141l153 720h181l102 -491l104 491h141z" />
    <glyph glyph-name="eng" unicode="&#x14b;" horiz-adv-x="529" 
d="M112 520h118l11 -55q38 38 73 54t79 16q64 0 100 -37t36 -106q0 -28 -8 -66l-78 -362q-16 -75 -64.5 -117t-127.5 -42q-22 0 -46.5 5.5t-40.5 12.5l23 109q14 -5 28.5 -7t23.5 -2q20 0 33 12.5t19 41.5l74 347q6 27 6 47q0 29 -12.5 41.5t-34.5 12.5q-35 0 -61.5 -26.5
t-39.5 -85.5l-66 -313h-155z" />
    <glyph glyph-name="Omacron" unicode="&#x14c;" horiz-adv-x="678" 
d="M331 104q38 0 73 30.5t62 81.5t43.5 117.5t16.5 138.5q0 76 -29.5 110.5t-77.5 34.5q-36 0 -71 -30t-62.5 -80.5t-44.5 -117t-17 -140.5q0 -77 29.5 -111t77.5 -34zM312 -15q-59 0 -106.5 17t-81 50t-51.5 82.5t-18 114.5q0 108 29.5 197.5t81 153.5t121.5 99.5t151 35.5
q58 0 105 -17t81 -50t52.5 -82.5t18.5 -115.5q0 -108 -30.5 -197.5t-82.5 -153.5t-122 -99t-148 -35zM355 798l24 112h232l-24 -112h-232z" />
    <glyph glyph-name="omacron" unicode="&#x14d;" horiz-adv-x="542" 
d="M328 535q103 0 157 -49t54 -145q0 -79 -19.5 -144.5t-57.5 -112.5t-94 -73t-129 -26q-101 0 -153.5 50t-52.5 146q0 74 18 138.5t55 112.5t92.5 75.5t129.5 27.5zM313 430q-30 0 -52.5 -23t-38.5 -60t-24 -84.5t-8 -95.5q0 -42 17 -59.5t51 -17.5q30 0 53.5 22t39 58.5
t24 84.5t8.5 99q0 41 -17.5 58.5t-52.5 17.5zM244 608l24 112h232l-24 -112h-232z" />
    <glyph glyph-name="Obreve" unicode="&#x14e;" horiz-adv-x="678" 
d="M331 104q38 0 73 30.5t62 81.5t43.5 117.5t16.5 138.5q0 76 -29.5 110.5t-77.5 34.5q-36 0 -71 -30t-62.5 -80.5t-44.5 -117t-17 -140.5q0 -77 29.5 -111t77.5 -34zM312 -15q-59 0 -106.5 17t-81 50t-51.5 82.5t-18 114.5q0 108 29.5 197.5t81 153.5t121.5 99.5t151 35.5
q58 0 105 -17t81 -50t52.5 -82.5t18.5 -115.5q0 -108 -30.5 -197.5t-82.5 -153.5t-122 -99t-148 -35zM460 910q-4 -17 -4 -30q0 -19 13 -19q10 0 17 11.5t13 37.5h118q-23 -72 -67.5 -102.5t-98.5 -30.5q-57 0 -83.5 27t-26.5 78q0 7 0.5 14t1.5 14h117z" />
    <glyph glyph-name="obreve" unicode="&#x14f;" horiz-adv-x="542" 
d="M328 535q103 0 157 -49t54 -145q0 -79 -19.5 -144.5t-57.5 -112.5t-94 -73t-129 -26q-101 0 -153.5 50t-52.5 146q0 74 18 138.5t55 112.5t92.5 75.5t129.5 27.5zM313 430q-30 0 -52.5 -23t-38.5 -60t-24 -84.5t-8 -95.5q0 -42 17 -59.5t51 -17.5q30 0 53.5 22t39 58.5
t24 84.5t8.5 99q0 41 -17.5 58.5t-52.5 17.5zM352 720q-4 -17 -4 -30q0 -19 13 -19q10 0 17 11.5t13 37.5h118q-23 -72 -67.5 -102.5t-98.5 -30.5q-57 0 -83.5 27t-26.5 78q0 7 0.5 14t1.5 14h117z" />
    <glyph glyph-name="Ohungarumlaut" unicode="&#x150;" horiz-adv-x="678" 
d="M331 104q38 0 73 30.5t62 81.5t43.5 117.5t16.5 138.5q0 76 -29.5 110.5t-77.5 34.5q-36 0 -71 -30t-62.5 -80.5t-44.5 -117t-17 -140.5q0 -77 29.5 -111t77.5 -34zM312 -15q-59 0 -106.5 17t-81 50t-51.5 82.5t-18 114.5q0 108 29.5 197.5t81 153.5t121.5 99.5t151 35.5
q58 0 105 -17t81 -50t52.5 -82.5t18.5 -115.5q0 -108 -30.5 -197.5t-82.5 -153.5t-122 -99t-148 -35zM423 910h167l-165 -137h-120zM628 910h167l-165 -137h-120z" />
    <glyph glyph-name="ohungarumlaut" unicode="&#x151;" horiz-adv-x="542" 
d="M328 535q103 0 157 -49t54 -145q0 -79 -19.5 -144.5t-57.5 -112.5t-94 -73t-129 -26q-101 0 -153.5 50t-52.5 146q0 74 18 138.5t55 112.5t92.5 75.5t129.5 27.5zM313 430q-30 0 -52.5 -23t-38.5 -60t-24 -84.5t-8 -95.5q0 -42 17 -59.5t51 -17.5q30 0 53.5 22t39 58.5
t24 84.5t8.5 99q0 41 -17.5 58.5t-52.5 17.5zM309 735h167l-165 -137h-120zM514 735h167l-165 -137h-120z" />
    <glyph glyph-name="OE" unicode="&#x152;" horiz-adv-x="797" 
d="M771 305h-221l-39 -184h246l-25 -121h-366q-17 -7 -40 -11t-43 -4q-49 0 -91 14t-73 44t-48.5 77t-17.5 113q0 113 29.5 205.5t80.5 158.5t121 102t151 36q18 0 45 -4t46 -11h359l-27 -123h-246l-37 -176h221zM318 104q13 0 24 5l107 503q-4 2 -12 3.5t-13 1.5
q-44 0 -80.5 -32t-63 -84t-41.5 -118.5t-15 -135.5q0 -39 8 -66.5t21 -44.5t30 -24.5t35 -7.5z" />
    <glyph glyph-name="oe" unicode="&#x153;" horiz-adv-x="848" 
d="M813 147q-29 -73 -87.5 -117.5t-155.5 -44.5q-55 0 -92.5 15.5t-60.5 44.5q-68 -60 -178 -60q-101 0 -153.5 50t-52.5 146q0 74 18 138.5t55 112.5t92.5 75.5t129.5 27.5q108 0 153 -57q65 57 166 57q95 0 148 -51t53 -154q0 -48 -12 -108h-320q-2 -10 -3 -22t-1 -22
q0 -47 19 -65.5t54 -18.5q29 0 46 13.5t27 39.5h155zM313 430q-30 0 -52.5 -23t-38.5 -60t-24 -84.5t-8 -95.5q0 -44 18 -60.5t50 -16.5q30 0 53.5 22t39 58.5t24 84.5t8.5 99q0 42 -17.5 59t-52.5 17zM637 437q-35 0 -59.5 -27.5t-44.5 -96.5h163q3 15 4 27.5t1 23.5
q0 42 -17 57.5t-47 15.5z" />
    <glyph glyph-name="Racute" unicode="&#x154;" horiz-adv-x="598" 
d="M374 0l-95 263h-50l-56 -263h-167l153 720h203q136 0 199.5 -48.5t63.5 -132.5q0 -97 -45 -158.5t-143 -92.5l118 -288h-181zM301 604l-48 -225h56q68 0 104.5 38.5t36.5 107.5q0 38 -24 58.5t-81 20.5h-44zM446 910h160l-161 -137h-116z" />
    <glyph glyph-name="racute" unicode="&#x155;" horiz-adv-x="357" 
d="M2 0l110 520h117l11 -79q28 46 62.5 70t76.5 24q14 0 27.5 -2t22.5 -5l-31 -145q-11 5 -25 7.5t-33 2.5q-42 0 -80.5 -44.5t-57.5 -132.5l-45 -216h-155zM333 735h160l-161 -137h-116z" />
    <glyph glyph-name="Rcommaaccent" unicode="&#x156;" horiz-adv-x="598" 
d="M374 0l-95 263h-50l-56 -263h-167l153 720h203q136 0 199.5 -48.5t63.5 -132.5q0 -97 -45 -158.5t-143 -92.5l118 -288h-181zM301 604l-48 -225h56q68 0 104.5 38.5t36.5 107.5q0 38 -24 58.5t-81 20.5h-44zM287 -151q-10 -45 -27 -75t-40.5 -49t-53.5 -29t-66 -16l15 68
q35 12 49.5 27.5t20.5 47.5h-37l25 117h133z" />
    <glyph glyph-name="rcommaaccent" unicode="&#x157;" horiz-adv-x="357" 
d="M2 0l110 520h117l11 -79q28 46 62.5 70t76.5 24q14 0 27.5 -2t22.5 -5l-31 -145q-11 5 -25 7.5t-33 2.5q-42 0 -80.5 -44.5t-57.5 -132.5l-45 -216h-155zM112 -151q-10 -45 -27 -75t-40.5 -49t-53.5 -29t-66 -16l15 68q35 12 49.5 27.5t20.5 47.5h-37l25 117h133z" />
    <glyph glyph-name="Rcaron" unicode="&#x158;" horiz-adv-x="598" 
d="M374 0l-95 263h-50l-56 -263h-167l153 720h203q136 0 199.5 -48.5t63.5 -132.5q0 -97 -45 -158.5t-143 -92.5l118 -288h-181zM301 604l-48 -225h56q68 0 104.5 38.5t36.5 107.5q0 38 -24 58.5t-81 20.5h-44zM404 841l44 69h148l-142 -137h-131l-82 137h149z" />
    <glyph glyph-name="rcaron" unicode="&#x159;" horiz-adv-x="357" 
d="M2 0l110 520h117l11 -79q28 46 62.5 70t76.5 24q14 0 27.5 -2t22.5 -5l-31 -145q-11 5 -25 7.5t-33 2.5q-42 0 -80.5 -44.5t-57.5 -132.5l-45 -216h-155zM294 666l44 69h148l-142 -137h-131l-82 137h149z" />
    <glyph glyph-name="Sacute" unicode="&#x15a;" horiz-adv-x="577" 
d="M264 -15q-62 0 -107 13.5t-74 39t-42.5 61.5t-13.5 81q0 8 0.5 16t1.5 16h155q-1 -5 -1 -10v-10q0 -20 4.5 -36.5t15.5 -28.5t30.5 -18.5t48.5 -6.5q55 0 84 22t29 64q0 16 -3.5 30t-15.5 27.5t-35 28t-61 31.5q-92 42 -133.5 87.5t-41.5 107.5q0 50 17 93t52.5 74.5
t90 49.5t129.5 18q106 0 164 -46.5t58 -131.5v-11q0 -6 -1 -11h-153q1 5 1 7v5q0 35 -23 54t-65 19q-51 0 -74 -22.5t-23 -56.5q0 -17 4 -29.5t14.5 -23.5t28.5 -21.5t45 -22.5q55 -24 93 -47.5t62 -48.5t34.5 -51.5t10.5 -57.5q0 -58 -20 -105t-59 -80t-96 -51t-131 -18z
M460 910h160l-161 -137h-116z" />
    <glyph glyph-name="sacute" unicode="&#x15b;" horiz-adv-x="490" 
d="M236 91q32 0 45.5 14t13.5 37q0 7 -3 14.5t-12 15t-25.5 16.5t-43.5 21q-78 33 -107.5 67.5t-29.5 78.5q0 81 55 130.5t172 49.5q99 0 149.5 -41.5t50.5 -104.5q0 -7 -1 -13h-155q2 23 -13 38t-47 15q-26 0 -39 -12.5t-13 -30.5q0 -8 2 -15t10 -14.5t23.5 -16t41.5 -19.5
q84 -35 116 -72.5t32 -82.5q0 -40 -14.5 -73t-44.5 -57t-76.5 -37.5t-110.5 -13.5q-100 0 -146.5 43t-46.5 106q0 7 1 13h157q-5 -56 59 -56zM365 735h160l-161 -137h-116z" />
    <glyph glyph-name="Scircumflex" unicode="&#x15c;" horiz-adv-x="577" 
d="M264 -15q-62 0 -107 13.5t-74 39t-42.5 61.5t-13.5 81q0 8 0.5 16t1.5 16h155q-1 -5 -1 -10v-10q0 -20 4.5 -36.5t15.5 -28.5t30.5 -18.5t48.5 -6.5q55 0 84 22t29 64q0 16 -3.5 30t-15.5 27.5t-35 28t-61 31.5q-92 42 -133.5 87.5t-41.5 107.5q0 50 17 93t52.5 74.5
t90 49.5t129.5 18q106 0 164 -46.5t58 -131.5v-11q0 -6 -1 -11h-153q1 5 1 7v5q0 35 -23 54t-65 19q-51 0 -74 -22.5t-23 -56.5q0 -17 4 -29.5t14.5 -23.5t28.5 -21.5t45 -22.5q55 -24 93 -47.5t62 -48.5t34.5 -51.5t10.5 -57.5q0 -58 -20 -105t-59 -80t-96 -51t-131 -18z
M379 773h-149l142 137h131l82 -137h-148l-14 69z" />
    <glyph glyph-name="scircumflex" unicode="&#x15d;" horiz-adv-x="490" 
d="M236 91q32 0 45.5 14t13.5 37q0 7 -3 14.5t-12 15t-25.5 16.5t-43.5 21q-78 33 -107.5 67.5t-29.5 78.5q0 81 55 130.5t172 49.5q99 0 149.5 -41.5t50.5 -104.5q0 -7 -1 -13h-155q2 23 -13 38t-47 15q-26 0 -39 -12.5t-13 -30.5q0 -8 2 -15t10 -14.5t23.5 -16t41.5 -19.5
q84 -35 116 -72.5t32 -82.5q0 -40 -14.5 -73t-44.5 -57t-76.5 -37.5t-110.5 -13.5q-100 0 -146.5 43t-46.5 106q0 7 1 13h157q-5 -56 59 -56zM300 598h-149l142 137h131l82 -137h-148l-14 69z" />
    <glyph glyph-name="Scedilla" unicode="&#x15e;" horiz-adv-x="577" 
d="M298 -40q54 -21 54 -78q0 -62 -39 -101t-108 -39q-62 0 -94 25.5t-32 76.5v10q0 4 1 9h94q-1 -4 -1 -10q0 -31 38 -31q21 0 31 12t10 29q0 16 -12 27t-47 11l26 86q-101 10 -146.5 60.5t-45.5 132.5q0 8 0.5 16t1.5 16h155q-1 -5 -1 -10v-10q0 -20 4.5 -36.5t15.5 -28.5
t30.5 -18.5t48.5 -6.5q55 0 84 22t29 64q0 16 -3.5 30t-15.5 27.5t-35 28t-61 31.5q-92 42 -133.5 87.5t-41.5 107.5q0 50 17 93t52.5 74.5t90 49.5t129.5 18q106 0 164 -46.5t58 -131.5v-11q0 -6 -1 -11h-153q1 5 1 7v5q0 35 -23 54t-65 19q-51 0 -74 -22.5t-23 -56.5
q0 -17 4 -29.5t14.5 -23.5t28.5 -21.5t45 -22.5q55 -24 93 -47.5t62 -48.5t34.5 -51.5t10.5 -57.5q0 -109 -68 -176t-199 -76z" />
    <glyph glyph-name="scedilla" unicode="&#x15f;" horiz-adv-x="490" 
d="M250 -40q54 -21 54 -78q0 -62 -39 -101t-108 -39q-62 0 -94 25.5t-32 76.5v10q0 4 1 9h94q-1 -4 -1 -10q0 -31 38 -31q21 0 31 12t10 29q0 16 -12 27t-47 11l26 87q-75 8 -113 47t-38 99v13h157v-7q0 -49 59 -49q32 0 45.5 14t13.5 37q0 7 -3 14.5t-12 15t-25.5 16.5
t-43.5 21q-78 33 -107.5 67.5t-29.5 78.5q0 81 55 130.5t172 49.5q95 0 147 -40.5t52 -107.5v-11h-155v6q0 20 -15 33.5t-45 13.5q-26 0 -39 -12.5t-13 -30.5q0 -8 2 -15t10 -14.5t23.5 -16t41.5 -19.5q84 -35 116 -72.5t32 -82.5q0 -73 -48.5 -121.5t-154.5 -57.5z" />
    <glyph glyph-name="Scaron" unicode="&#x160;" horiz-adv-x="577" 
d="M264 -15q-62 0 -107 13.5t-74 39t-42.5 61.5t-13.5 81q0 8 0.5 16t1.5 16h155q-1 -5 -1 -10v-10q0 -20 4.5 -36.5t15.5 -28.5t30.5 -18.5t48.5 -6.5q55 0 84 22t29 64q0 16 -3.5 30t-15.5 27.5t-35 28t-61 31.5q-92 42 -133.5 87.5t-41.5 107.5q0 50 17 93t52.5 74.5
t90 49.5t129.5 18q106 0 164 -46.5t58 -131.5v-11q0 -6 -1 -11h-153q1 5 1 7v5q0 35 -23 54t-65 19q-51 0 -74 -22.5t-23 -56.5q0 -17 4 -29.5t14.5 -23.5t28.5 -21.5t45 -22.5q55 -24 93 -47.5t62 -48.5t34.5 -51.5t10.5 -57.5q0 -58 -20 -105t-59 -80t-96 -51t-131 -18z
M431 841l44 69h148l-142 -137h-131l-82 137h149z" />
    <glyph glyph-name="scaron" unicode="&#x161;" horiz-adv-x="490" 
d="M236 91q32 0 45.5 14t13.5 37q0 7 -3 14.5t-12 15t-25.5 16.5t-43.5 21q-78 33 -107.5 67.5t-29.5 78.5q0 81 55 130.5t172 49.5q99 0 149.5 -41.5t50.5 -104.5q0 -7 -1 -13h-155q2 23 -13 38t-47 15q-26 0 -39 -12.5t-13 -30.5q0 -8 2 -15t10 -14.5t23.5 -16t41.5 -19.5
q84 -35 116 -72.5t32 -82.5q0 -40 -14.5 -73t-44.5 -57t-76.5 -37.5t-110.5 -13.5q-100 0 -146.5 43t-46.5 106q0 7 1 13h157q-5 -56 59 -56zM332 666l44 69h148l-142 -137h-131l-82 137h149z" />
    <glyph glyph-name="Tcommaaccent" unicode="&#x162;" horiz-adv-x="519" 
d="M602 594h-174l-126 -594h-167l126 594h-172l27 126h513zM252 -151q-10 -45 -27 -75t-40.5 -49t-53.5 -29t-66 -16l15 68q35 12 49.5 27.5t20.5 47.5h-37l25 117h133z" />
    <glyph glyph-name="tcommaaccent" unicode="&#x163;" horiz-adv-x="332" 
d="M280 -1q-19 -6 -44.5 -10t-48.5 -4q-63 0 -94 31t-31 87q0 23 6 52l55 257h-69l23 108h69l37 125h144l-27 -125h91l-23 -108h-91l-57 -269q-1 -5 -1.5 -8.5t-0.5 -7.5q0 -31 35 -31q7 0 22.5 2.5t27.5 6.5zM161 -151q-10 -45 -27 -75t-40.5 -49t-53.5 -29t-66 -16l15 68
q35 12 49.5 27.5t20.5 47.5h-37l25 117h133z" />
    <glyph glyph-name="Tcaron" unicode="&#x164;" horiz-adv-x="519" 
d="M602 594h-174l-126 -594h-167l126 594h-172l27 126h513zM398 841l44 69h148l-142 -137h-131l-82 137h149z" />
    <glyph glyph-name="tcaron" unicode="&#x165;" horiz-adv-x="385" 
d="M483 665q-11 -49 -47 -83t-100 -39l12 55q16 2 24 9t12 25h-24l20 97h116zM280 -1q-19 -6 -44.5 -10t-48.5 -4q-63 0 -94 31t-31 87q0 23 6 52l55 257h-69l23 108h69l37 125h144l-27 -125h91l-23 -108h-91l-57 -269q-1 -5 -1.5 -8.5t-0.5 -7.5q0 -31 35 -31q7 0 22.5 2.5
t27.5 6.5z" />
    <glyph glyph-name="Tbar" unicode="&#x166;" horiz-adv-x="519" 
d="M377 354l-75 -354h-167l75 354h-87l23 111h87l28 129h-172l27 126h513l-27 -126h-174l-28 -129h86l-23 -111h-86z" />
    <glyph glyph-name="tbar" unicode="&#x167;" horiz-adv-x="332" 
d="M280 -1q-19 -6 -44.5 -10t-48.5 -4q-63 0 -94 31t-31 87q0 23 6 52l25 120h-56l22 105h57l7 32h-69l23 108h69l37 125h144l-27 -125h91l-23 -108h-91l-7 -32h70l-22 -105h-70l-28 -132q-1 -5 -1.5 -8.5t-0.5 -7.5q0 -31 35 -31q7 0 22.5 2.5t27.5 6.5z" />
    <glyph glyph-name="Utilde" unicode="&#x168;" horiz-adv-x="619" 
d="M322 720l-105 -487q-3 -13 -4 -24t-1 -22q0 -40 20 -61.5t63 -21.5q54 0 85.5 31t44.5 92l105 493h160l-104 -489q-26 -121 -101 -183.5t-210 -62.5q-113 0 -170.5 52t-57.5 143q0 31 8 71l100 469h167zM489 782q-18 0 -32 6t-26 13t-23.5 13t-25.5 6t-36 -10.5
t-45 -27.5l24 110q22 16 44.5 24.5t39.5 8.5q18 0 32 -6t26 -13t23.5 -13t25.5 -6t34.5 10.5t42.5 27.5l-24 -110q-44 -33 -80 -33z" />
    <glyph glyph-name="utilde" unicode="&#x169;" horiz-adv-x="524" 
d="M263 520l-73 -341q-4 -16 -4 -32q0 -28 14 -40t40 -12q28 0 53.5 28t37.5 85l66 312h155l-110 -520h-128l-3 55q-30 -33 -66 -51.5t-81 -18.5q-66 0 -100 34.5t-34 99.5q0 30 8 70l70 331h155zM408 592q-18 0 -32 6t-26 13t-23.5 13t-25.5 6t-36 -10.5t-45 -27.5l24 110
q22 16 44.5 24.5t39.5 8.5q18 0 32 -6t26 -13t23.5 -13t25.5 -6t34.5 10.5t42.5 27.5l-24 -110q-44 -33 -80 -33z" />
    <glyph glyph-name="Umacron" unicode="&#x16a;" horiz-adv-x="619" 
d="M322 720l-105 -487q-3 -13 -4 -24t-1 -22q0 -40 20 -61.5t63 -21.5q54 0 85.5 31t44.5 92l105 493h160l-104 -489q-26 -121 -101 -183.5t-210 -62.5q-113 0 -170.5 52t-57.5 143q0 31 8 71l100 469h167zM322 798l24 112h232l-24 -112h-232z" />
    <glyph glyph-name="umacron" unicode="&#x16b;" horiz-adv-x="524" 
d="M263 520l-73 -341q-4 -16 -4 -32q0 -28 14 -40t40 -12q28 0 53.5 28t37.5 85l66 312h155l-110 -520h-128l-3 55q-30 -33 -66 -51.5t-81 -18.5q-66 0 -100 34.5t-34 99.5q0 30 8 70l70 331h155zM235 608l24 112h232l-24 -112h-232z" />
    <glyph glyph-name="Ubreve" unicode="&#x16c;" horiz-adv-x="619" 
d="M322 720l-105 -487q-3 -13 -4 -24t-1 -22q0 -40 20 -61.5t63 -21.5q54 0 85.5 31t44.5 92l105 493h160l-104 -489q-26 -121 -101 -183.5t-210 -62.5q-113 0 -170.5 52t-57.5 143q0 31 8 71l100 469h167zM443 910q-4 -17 -4 -30q0 -19 13 -19q10 0 17 11.5t13 37.5h118
q-23 -72 -67.5 -102.5t-98.5 -30.5q-57 0 -83.5 27t-26.5 78q0 7 0.5 14t1.5 14h117z" />
    <glyph glyph-name="ubreve" unicode="&#x16d;" horiz-adv-x="524" 
d="M263 520l-73 -341q-4 -16 -4 -32q0 -28 14 -40t40 -12q28 0 53.5 28t37.5 85l66 312h155l-110 -520h-128l-3 55q-30 -33 -66 -51.5t-81 -18.5q-66 0 -100 34.5t-34 99.5q0 30 8 70l70 331h155zM348 720q-4 -17 -4 -30q0 -19 13 -19q10 0 17 11.5t13 37.5h118
q-23 -72 -67.5 -102.5t-98.5 -30.5q-57 0 -83.5 27t-26.5 78q0 7 0.5 14t1.5 14h117z" />
    <glyph glyph-name="Uring" unicode="&#x16e;" horiz-adv-x="619" 
d="M322 720l-105 -487q-3 -13 -4 -24t-1 -22q0 -40 20 -61.5t63 -21.5q54 0 85.5 31t44.5 92l105 493h160l-104 -489q-26 -121 -101 -183.5t-210 -62.5q-113 0 -170.5 52t-57.5 143q0 31 8 71l100 469h167zM459 928q-17 0 -26.5 -20.5t-9.5 -54.5q0 -27 25 -27q20 0 28 22
t8 49q0 31 -25 31zM472 1000q53 0 79.5 -29.5t26.5 -71.5q0 -30 -9.5 -56.5t-28 -46t-45.5 -31t-61 -11.5q-53 0 -79.5 30t-26.5 71q0 30 10 56.5t28.5 46t45 31t60.5 11.5z" />
    <glyph glyph-name="uring" unicode="&#x16f;" horiz-adv-x="524" 
d="M263 520l-73 -341q-4 -16 -4 -32q0 -28 14 -40t40 -12q28 0 53.5 28t37.5 85l66 312h155l-110 -520h-128l-3 55q-30 -33 -66 -51.5t-81 -18.5q-66 0 -100 34.5t-34 99.5q0 30 8 70l70 331h155zM369 751q-17 0 -26.5 -20.5t-9.5 -54.5q0 -27 25 -27q20 0 28 22t8 49
q0 31 -25 31zM382 823q53 0 79.5 -29.5t26.5 -71.5q0 -30 -9.5 -56.5t-28 -46t-45.5 -31t-61 -11.5q-53 0 -79.5 30t-26.5 71q0 30 10 56.5t28.5 46t45 31t60.5 11.5z" />
    <glyph glyph-name="Uhungarumlaut" unicode="&#x170;" horiz-adv-x="619" 
d="M322 720l-105 -487q-3 -13 -4 -24t-1 -22q0 -40 20 -61.5t63 -21.5q54 0 85.5 31t44.5 92l105 493h160l-104 -489q-26 -121 -101 -183.5t-210 -62.5q-113 0 -170.5 52t-57.5 143q0 31 8 71l100 469h167zM374 910h167l-165 -137h-120zM579 910h167l-165 -137h-120z" />
    <glyph glyph-name="uhungarumlaut" unicode="&#x171;" horiz-adv-x="524" 
d="M263 520l-73 -341q-4 -16 -4 -32q0 -28 14 -40t40 -12q28 0 53.5 28t37.5 85l66 312h155l-110 -520h-128l-3 55q-30 -33 -66 -51.5t-81 -18.5q-66 0 -100 34.5t-34 99.5q0 30 8 70l70 331h155zM282 735h167l-165 -137h-120zM487 735h167l-165 -137h-120z" />
    <glyph glyph-name="Uogonek" unicode="&#x172;" horiz-adv-x="619" 
d="M457 -137q-20 -51 -55.5 -80.5t-94.5 -29.5q-56 0 -86 26.5t-30 74.5q0 36 21.5 69.5t66.5 61.5h-4q-113 0 -170.5 52t-57.5 143q0 31 8 71l100 469h167l-105 -487q-3 -13 -4 -24t-1 -22q0 -40 20 -61.5t63 -21.5q54 0 85.5 31t44.5 92l105 493h160l-104 -489
q-17 -83 -57.5 -138.5t-107.5 -82.5q-122 -63 -122 -132q0 -17 6.5 -27t21.5 -10q20 0 28 22h102z" />
    <glyph glyph-name="uogonek" unicode="&#x173;" horiz-adv-x="524" 
d="M263 520l-73 -341q-4 -16 -4 -32q0 -28 14 -40t40 -12q28 0 53.5 28t37.5 85l66 312h155l-110 -520h-36q-103 -59 -103 -122q0 -17 6.5 -27t21.5 -10q20 0 28 22h102q-20 -51 -55.5 -80.5t-94.5 -29.5q-56 0 -86 26.5t-30 74.5q0 42 29.5 80t89.5 67l-3 54
q-30 -33 -66 -51.5t-81 -18.5q-66 0 -100 34.5t-34 99.5q0 30 8 70l70 331h155z" />
    <glyph glyph-name="Wcircumflex" unicode="&#x174;" horiz-adv-x="864" 
d="M974 720l-281 -720h-198l9 540l-211 -540h-187l10 720h165l-29 -529l202 529h182l-10 -532l186 532h162zM526 773h-149l142 137h131l82 -137h-148l-14 69z" />
    <glyph glyph-name="wcircumflex" unicode="&#x175;" horiz-adv-x="757" 
d="M820 520l-230 -520h-194l24 375l-149 -375h-188l-6 520h156l-24 -386l151 386h186l-26 -388l151 388h149zM435 598h-149l142 137h131l82 -137h-148l-14 69z" />
    <glyph glyph-name="Ycircumflex" unicode="&#x176;" horiz-adv-x="588" 
d="M176 0l61 287l-124 433h174l59 -288l194 288h161l-308 -433l-61 -287h-156zM392 773h-149l142 137h131l82 -137h-148l-14 69z" />
    <glyph glyph-name="ycircumflex" unicode="&#x177;" horiz-adv-x="512" 
d="M579 520l-276 -531q-27 -51 -49.5 -86t-45.5 -56.5t-49 -31.5t-60 -10q-20 0 -45.5 3t-42.5 8l24 109q22 -6 36 -7.5t22 -1.5q24 0 41 19.5t31 64.5h-43l-49 520h160l3 -399l184 399h159zM305 583h-149l142 137h131l82 -137h-148l-14 69z" />
    <glyph glyph-name="Ydieresis" unicode="&#x178;" horiz-adv-x="588" 
d="M176 0l61 287l-124 433h174l59 -288l194 288h161l-308 -433l-61 -287h-156zM253 782l28 128h142l-28 -128h-142zM452 782l28 128h143l-28 -128h-143z" />
    <glyph glyph-name="Zacute" unicode="&#x179;" horiz-adv-x="526" 
d="M172 119h319l-25 -119h-490l25 121l425 480h-308l26 119h479l-26 -118zM443 910h160l-161 -137h-116z" />
    <glyph glyph-name="zacute" unicode="&#x17a;" horiz-adv-x="445" 
d="M179 115h224l-24 -115h-405l25 121l300 284h-222l24 115h400l-26 -121zM370 735h160l-161 -137h-116z" />
    <glyph glyph-name="Zdotaccent" unicode="&#x17b;" horiz-adv-x="526" 
d="M172 119h319l-25 -119h-490l25 121l425 480h-308l26 119h479l-26 -118zM306 777l29 133h169l-29 -133h-169z" />
    <glyph glyph-name="zdotaccent" unicode="&#x17c;" horiz-adv-x="445" 
d="M179 115h224l-24 -115h-405l25 121l300 284h-222l24 115h400l-26 -121zM226 587l29 133h169l-29 -133h-169z" />
    <glyph glyph-name="Zcaron" unicode="&#x17d;" horiz-adv-x="526" 
d="M172 119h319l-25 -119h-490l25 121l425 480h-308l26 119h479l-26 -118zM405 841l44 69h148l-142 -137h-131l-82 137h149z" />
    <glyph glyph-name="zcaron" unicode="&#x17e;" horiz-adv-x="445" 
d="M179 115h224l-24 -115h-405l25 121l300 284h-222l24 115h400l-26 -121zM336 666l44 69h148l-142 -137h-131l-82 137h149z" />
    <glyph glyph-name="longs" unicode="&#x17f;" horiz-adv-x="347" 
d="M40 0l87 412h-69l23 108h69l10 48q19 87 65.5 127t133.5 40q36 0 63 -5.5t47 -11.5l-23 -110q-20 6 -38 9.5t-29 3.5q-34 0 -47 -13.5t-19 -43.5l-119 -564h-154z" />
    <glyph glyph-name="florin" unicode="&#x192;" 
d="M150 392l23 108h69l10 48q19 87 65.5 127t133.5 40q36 0 63 -5.5t47 -11.5l-23 -110q-20 6 -37.5 9.5t-28.5 3.5q-35 0 -48 -13.5t-19 -43.5l-9 -44h99l-23 -108h-99l-122 -572h-154l122 572h-69z" />
    <glyph glyph-name="Aringacute" unicode="&#x1fa;" horiz-adv-x="626" 
d="M508 828h-109l111 132h160zM439 811q59 0 88 -29t29 -67q0 -29 -14.5 -57t-46.5 -48l93 -610h-167l-11 163h-200l-80 -163h-172l353 614q-14 11 -20 26.5t-6 34.5q0 20 8 44t26 44.5t47.5 34t72.5 13.5zM429 739q-13 0 -22 -6.5t-14 -16t-7.5 -20t-2.5 -17.5
q0 -30 29 -30q13 0 21.5 6.5t13.5 16.5t7 20.5t2 18.5q0 28 -27 28zM261 270h143l-17 254z" />
    <glyph glyph-name="aringacute" unicode="&#x1fb;" horiz-adv-x="509" 
d="M77 373q29 78 89 120t161 42q85 0 132 -39.5t47 -113.5q0 -27 -6 -55l-69 -327h-120l-8 54q-28 -29 -66 -49t-91 -20q-30 0 -54 10t-41 28t-26.5 42.5t-9.5 53.5q0 78 51 127t164 66l115 17l5 25q2 8 3 16.5t1 13.5q0 50 -48 50q-55 0 -72 -61h-157zM214 92q44 0 69 29.5
t33 70.5l11 51l-69 -13q-49 -10 -68 -34.5t-19 -51.5q0 -28 10.5 -40t32.5 -12zM351 705.918q-17 0 -26.5 -18.4502t-9.5 -49.0518q0 -24.2998 25 -24.2998q20 0 28 19.7998q8 19.8008 8 44.1016q0 27.9004 -25 27.9004zM364 770.72q53 0 79.5 -26.5508
q26.5 -26.5498 26.5 -64.3516q0 -27.001 -9.5 -50.8516t-28 -41.4004q-18.5 -17.5508 -45.5 -27.9014q-27 -10.3496 -61 -10.3496q-53 0 -79.5 27q-26.5 27.001 -26.5 63.9023q0 27 10 50.8516q10 23.8506 28.5 41.4004q18.5 17.5508 45 27.9014q26.5 10.3496 60.5 10.3496z
M414 908.018h160l-161 -123.304h-116z" />
    <glyph glyph-name="AEacute" unicode="&#x1fc;" horiz-adv-x="821" 
d="M756 0h-401l35 165h-171l-92 -165h-167l426 720h523l-27 -123h-234l-37 -176h209l-25 -116h-209l-39 -184h234zM413 275l73 346l-198 -346h125zM669 910h160l-161 -137h-116z" />
    <glyph glyph-name="aeacute" unicode="&#x1fd;" horiz-adv-x="814" 
d="M76 373q32 78 92 120t158 42q46 0 81.5 -14t58.5 -39q31 24 67.5 38.5t79.5 14.5q95 0 148 -51t53 -154q0 -48 -12 -108h-320q-2 -10 -3 -22t-1 -22q0 -47 19 -65.5t54 -18.5q29 0 46 13.5t27 39.5h155q-29 -73 -87.5 -117.5t-155.5 -44.5q-75 0 -124 28t-72 80
q-29 -54 -73 -81t-116 -27q-30 0 -55.5 10t-43.5 28t-28 42.5t-10 53.5q0 78 51 127t164 66l115 17l5 25q2 8 3 16.5t1 13.5q0 26 -12.5 38t-35.5 12q-47 0 -72 -61h-157zM603 437q-35 0 -59.5 -27.5t-44.5 -96.5h163q3 15 4 27.5t1 23.5q0 42 -17 57.5t-47 15.5zM213 92
q44 0 69 29.5t33 70.5l11 51l-69 -13q-49 -10 -68 -34.5t-19 -51.5q0 -28 10.5 -40t32.5 -12zM538 720h160l-161 -137h-116z" />
    <glyph glyph-name="Oslashacute" unicode="&#x1fe;" horiz-adv-x="678" 
d="M312 -15q-45 0 -82 9l-51 -104h-113l75 147q-42 32 -64 85t-22 127q0 108 29.5 197.5t81 153.5t121.5 99.5t151 35.5q22 0 41.5 -2.5t38.5 -7.5l51 95h113l-75 -138q42 -33 65 -86t23 -126q0 -108 -30.5 -197.5t-82.5 -153.5t-122 -99t-148 -35zM224 249q0 -51 14 -85
l223 445q-21 8 -42 8q-36 0 -71 -30t-62.5 -80.5t-44.5 -117t-17 -140.5zM331 104q38 0 73 30.5t62 81.5t43.5 117.5t16.5 138.5q0 49 -14 82l-222 -443q17 -7 41 -7zM457 910h160l-161 -137h-116z" />
    <glyph glyph-name="oslashacute" unicode="&#x1ff;" horiz-adv-x="542" 
d="M328 535q40 0 71 -7l61 102h113l-89 -144q55 -50 55 -145q0 -79 -19.5 -144.5t-57.5 -112.5t-94 -73t-129 -26q-18 0 -35 1.5t-32 5.5l-60 -102h-114l88 144q-53 50 -53 147q0 74 18 138.5t55 112.5t92.5 75.5t129.5 27.5zM313 430q-30 0 -52.5 -23t-38.5 -60t-24 -84.5
t-8 -95.5v-16l156 274q-15 5 -33 5zM383 354q0 9 -1 14l-155 -274q12 -4 31 -4q30 0 53.5 22t39 58.5t24 84.5t8.5 99zM360 720h160l-161 -137h-116z" />
    <glyph glyph-name="Scommaaccent" unicode="&#x218;" horiz-adv-x="577" 
d="M264 -15q-62 0 -107 13.5t-74 39t-42.5 61.5t-13.5 81q0 8 0.5 16t1.5 16h155q-1 -5 -1 -10v-10q0 -20 4.5 -36.5t15.5 -28.5t30.5 -18.5t48.5 -6.5q55 0 84 22t29 64q0 16 -3.5 30t-15.5 27.5t-35 28t-61 31.5q-92 42 -133.5 87.5t-41.5 107.5q0 50 17 93t52.5 74.5
t90 49.5t129.5 18q106 0 164 -46.5t58 -131.5v-11q0 -6 -1 -11h-153q1 5 1 7v5q0 35 -23 54t-65 19q-51 0 -74 -22.5t-23 -56.5q0 -17 4 -29.5t14.5 -23.5t28.5 -21.5t45 -22.5q55 -24 93 -47.5t62 -48.5t34.5 -51.5t10.5 -57.5q0 -58 -20 -105t-59 -80t-96 -51t-131 -18z
M293 -151q-10 -45 -27 -75t-40.5 -49t-53.5 -29t-66 -16l15 68q35 12 49.5 27.5t20.5 47.5h-37l25 117h133z" />
    <glyph glyph-name="scommaaccent" unicode="&#x219;" horiz-adv-x="490" 
d="M236 91q32 0 45.5 14t13.5 37q0 7 -3 14.5t-12 15t-25.5 16.5t-43.5 21q-78 33 -107.5 67.5t-29.5 78.5q0 81 55 130.5t172 49.5q99 0 149.5 -41.5t50.5 -104.5q0 -7 -1 -13h-155q2 23 -13 38t-47 15q-26 0 -39 -12.5t-13 -30.5q0 -8 2 -15t10 -14.5t23.5 -16t41.5 -19.5
q84 -35 116 -72.5t32 -82.5q0 -40 -14.5 -73t-44.5 -57t-76.5 -37.5t-110.5 -13.5q-100 0 -146.5 43t-46.5 106q0 7 1 13h157q-5 -56 59 -56zM227 -151q-10 -45 -27 -75t-40.5 -49t-53.5 -29t-66 -16l15 68q35 12 49.5 27.5t20.5 47.5h-37l25 117h133z" />
    <glyph glyph-name="uni021A" unicode="&#x21a;" horiz-adv-x="519" 
d="M602 594h-174l-126 -594h-167l126 594h-172l27 126h513zM252 -151q-10 -45 -27 -75t-40.5 -49t-53.5 -29t-66 -16l15 68q35 12 49.5 27.5t20.5 47.5h-37l25 117h133z" />
    <glyph glyph-name="uni021B" unicode="&#x21b;" horiz-adv-x="332" 
d="M280 -1q-19 -6 -44.5 -10t-48.5 -4q-63 0 -94 31t-31 87q0 23 6 52l55 257h-69l23 108h69l37 125h144l-27 -125h91l-23 -108h-91l-57 -269q-1 -5 -1.5 -8.5t-0.5 -7.5q0 -31 35 -31q7 0 22.5 2.5t27.5 6.5zM161 -151q-10 -45 -27 -75t-40.5 -49t-53.5 -29t-66 -16l15 68
q35 12 49.5 27.5t20.5 47.5h-37l25 117h133z" />
    <glyph glyph-name="dotlessj" unicode="&#x237;" horiz-adv-x="245" 
d="M-102 -68q14 -5 28.5 -7t23.5 -2q20 0 33.5 12.5t19.5 41.5l115 543h155l-118 -556q-16 -75 -65 -117t-128 -42q-22 0 -46.5 5.5t-40.5 12.5z" />
    <glyph glyph-name="circumflex" unicode="&#x2c6;" horiz-adv-x="427" 
d="M308 583h-149l142 137h131l82 -137h-148l-14 69z" />
    <glyph glyph-name="caron" unicode="&#x2c7;" horiz-adv-x="427" 
d="M352 651l44 69h148l-142 -137h-131l-82 137h149z" />
    <glyph glyph-name="uni02C9" unicode="&#x2c9;" horiz-adv-x="284" 
d="M116 612l23 108h232l-23 -108h-232z" />
    <glyph glyph-name="breve" unicode="&#x2d8;" horiz-adv-x="332" 
d="M299 720q-4 -17 -4 -30q0 -19 13 -19q10 0 17 11.5t13 37.5h118q-23 -72 -67.5 -102.5t-98.5 -30.5q-57 0 -83.5 27t-26.5 78q0 7 0.5 14t1.5 14h117z" />
    <glyph glyph-name="dotaccent" unicode="&#x2d9;" horiz-adv-x="217" 
d="M148 587l29 133h169l-29 -133h-169z" />
    <glyph glyph-name="ring" unicode="&#x2da;" horiz-adv-x="274" 
d="M291 751q-17 0 -26.5 -20.5t-9.5 -54.5q0 -27 25 -27q20 0 28 22t8 49q0 31 -25 31zM304 823q53 0 79.5 -29.5t26.5 -71.5q0 -30 -9.5 -56.5t-28 -46t-45.5 -31t-61 -11.5q-53 0 -79.5 30t-26.5 71q0 30 10 56.5t28.5 46t45 31t60.5 11.5z" />
    <glyph glyph-name="ogonek" unicode="&#x2db;" horiz-adv-x="318" 
d="M231 -137q-20 -51 -55.5 -80.5t-94.5 -29.5q-56 0 -86 26.5t-30 74.5q0 49 40 92.5t121 73.5h89q-70 -33 -106 -69.5t-36 -72.5q0 -17 6.5 -27t21.5 -10q20 0 28 22h102z" />
    <glyph glyph-name="tilde" unicode="&#x2dc;" horiz-adv-x="313" 
d="M339 592q-18 0 -32 6t-26 13t-23.5 13t-25.5 6t-36 -10.5t-45 -27.5l24 110q22 16 44.5 24.5t39.5 8.5q18 0 32 -6t26 -13t23.5 -13t25.5 -6t34.5 10.5t42.5 27.5l-24 -110q-44 -33 -80 -33z" />
    <glyph glyph-name="hungarumlaut" unicode="&#x2dd;" horiz-adv-x="512" 
d="M267 720h167l-165 -137h-120zM472 720h167l-165 -137h-120z" />
    <glyph glyph-name="uni0312" unicode="&#x312;" horiz-adv-x="231" 
d="M136 660q10 45 27 75t40.5 49t53.5 29t66 16l-15 -68q-35 -12 -49.5 -27.5t-20.5 -47.5h37l-25 -117h-133z" />
    <glyph glyph-name="dotbelowcomb" unicode="&#x323;" horiz-adv-x="228" 
d="M-48 -180l28 133h168l-29 -133h-167z" />
    <glyph glyph-name="uni037E" unicode="&#x37e;" horiz-adv-x="270" 
d="M93 363l33 157h177l-33 -157h-177zM197 20q-12 -58 -37.5 -95.5t-58 -60t-70 -33t-73.5 -14.5l15 78q40 8 68 34t38 71h-63l33 157h177z" />
    <glyph glyph-name="tonos" unicode="&#x384;" horiz-adv-x="232" 
d="M156 720h163l-91 -147h-121z" />
    <glyph glyph-name="dieresistonos" unicode="&#x385;" horiz-adv-x="477" 
d="M109 592l28 128h142l-28 -128h-142zM399 592l28 128h143l-28 -128h-143zM346 883h162l-89 -147h-122z" />
    <glyph glyph-name="Alphatonos" unicode="&#x386;" horiz-adv-x="601" 
d="M388 165h-189l-72 -165h-167l359 720h186l56 -720h-170zM247 275h139l-4 307zM117 720h163l-91 -147h-121z" />
    <glyph glyph-name="anoteleia" unicode="&#x387;" horiz-adv-x="270" 
d="M68 248l30 142h158l-30 -142h-158z" />
    <glyph glyph-name="Epsilontonos" unicode="&#x388;" horiz-adv-x="642" 
d="M617 305h-239l-39 -184h264l-25 -121h-431l153 720h431l-27 -123h-264l-37 -176h239zM117 720h163l-91 -147h-121z" />
    <glyph glyph-name="Etatonos" unicode="&#x389;" horiz-adv-x="772" 
d="M838 720l-153 -720h-165l64 304h-202l-64 -304h-167l153 720h167l-63 -296h202l63 296h165zM117 720h163l-91 -147h-121z" />
    <glyph glyph-name="Iotatonos" unicode="&#x38a;" horiz-adv-x="405" 
d="M471 720l-153 -720h-167l153 720h167zM117 720h163l-91 -147h-121z" />
    <glyph glyph-name="Omicrontonos" unicode="&#x38c;" horiz-adv-x="768" 
d="M421 104q38 0 73 30.5t62 81.5t43.5 117.5t16.5 138.5q0 76 -29.5 110.5t-77.5 34.5q-36 0 -71 -30t-62.5 -80.5t-44.5 -117t-17 -140.5q0 -77 29.5 -111t77.5 -34zM402 -15q-59 0 -106.5 17t-81 50t-51.5 82.5t-18 114.5q0 108 29.5 197.5t81 153.5t121.5 99.5t151 35.5
q58 0 105 -17t81 -50t52.5 -82.5t18.5 -115.5q0 -108 -30.5 -197.5t-82.5 -153.5t-122 -99t-148 -35zM133 720h163l-91 -147h-121z" />
    <glyph glyph-name="Upsilontonos" unicode="&#x38e;" horiz-adv-x="753" 
d="M341 0l61 287l-124 433h174l59 -288l194 288h161l-308 -433l-61 -287h-156zM100 720h163l-91 -147h-121z" />
    <glyph glyph-name="Omegatonos" unicode="&#x38f;" horiz-adv-x="769" 
d="M452 121q27 0 49.5 18.5t41 48.5t32.5 67.5t23.5 77t14 76.5t4.5 65q0 78 -28.5 110.5t-76.5 32.5q-42 0 -78 -31t-62.5 -82t-41.5 -117.5t-15 -136.5q0 -36 6.5 -61t16 -40t20.5 -21.5t20 -6.5l-25 -121h-242l25 121h72q-27 26 -42 66.5t-15 94.5q0 105 31 189
t83.5 142.5t122.5 90t148 31.5q55 0 101.5 -15.5t80 -47t52 -79.5t18.5 -114q0 -51 -10.5 -103t-31.5 -99.5t-52.5 -88t-73.5 -67.5h76l-25 -121h-244zM133 720h163l-91 -147h-121z" />
    <glyph glyph-name="iotadieresistonos" unicode="&#x390;" horiz-adv-x="239" 
d="M225 883h162l-89 -147h-122zM59 592l28 128h121l-28 -128h-121zM227 592l28 128h123l-28 -128h-123zM2 0l110 520h155l-110 -520h-155z" />
    <glyph glyph-name="Alpha" unicode="&#x391;" horiz-adv-x="601" 
d="M388 165h-189l-72 -165h-167l359 720h186l56 -720h-170zM247 275h139l-4 307z" />
    <glyph glyph-name="Beta" unicode="&#x392;" horiz-adv-x="555" 
d="M351 720q124 0 179 -37.5t55 -107.5q0 -67 -39.5 -119t-115.5 -75q54 -13 83.5 -50.5t29.5 -87.5q0 -55 -19 -100t-57.5 -76.5t-97 -49t-137.5 -17.5h-226l153 720h192zM241 324l-45 -214h61q57 0 86.5 38t29.5 101q0 38 -19.5 56.5t-52.5 18.5h-60zM302 610l-39 -182h49
q22 0 40.5 8.5t32.5 23.5t22 35t8 43q0 72 -71 72h-42z" />
    <glyph glyph-name="Gamma" unicode="&#x393;" horiz-adv-x="440" 
d="M523 594h-224l-126 -594h-167l153 720h391z" />
    <glyph glyph-name="uni0394" unicode="&#x394;" horiz-adv-x="601" 
d="M-40 0l359 720h186l56 -720h-601zM175 110h206l-4 467z" />
    <glyph glyph-name="Epsilon" unicode="&#x395;" horiz-adv-x="502" 
d="M476 305h-239l-39 -184h264l-25 -121h-431l153 720h431l-27 -123h-264l-37 -176h239z" />
    <glyph glyph-name="Zeta" unicode="&#x396;" horiz-adv-x="526" 
d="M172 119h319l-25 -119h-490l25 121l425 480h-308l26 119h479l-26 -118z" />
    <glyph glyph-name="Eta" unicode="&#x397;" horiz-adv-x="626" 
d="M693 720l-153 -720h-165l64 304h-202l-64 -304h-167l153 720h167l-63 -296h202l63 296h165z" />
    <glyph glyph-name="Theta" unicode="&#x398;" horiz-adv-x="678" 
d="M447 305h-169l25 116h169zM331 104q38 0 73 30.5t62 81.5t43.5 117.5t16.5 138.5q0 76 -29.5 110.5t-77.5 34.5q-36 0 -71 -30t-62.5 -80.5t-44.5 -117t-17 -140.5q0 -77 29.5 -111t77.5 -34zM312 -15q-59 0 -106.5 17t-81 50t-51.5 82.5t-18 114.5q0 108 29.5 197.5
t81 153.5t121.5 99.5t151 35.5q58 0 105 -17t81 -50t52.5 -82.5t18.5 -115.5q0 -108 -30.5 -197.5t-82.5 -153.5t-122 -99t-148 -35z" />
    <glyph glyph-name="Iota" unicode="&#x399;" horiz-adv-x="259" 
d="M326 720l-153 -720h-167l153 720h167z" />
    <glyph glyph-name="Kappa" unicode="&#x39a;" horiz-adv-x="644" 
d="M415 0l-171 333l-71 -333h-167l153 720h167l-63 -295l269 295h192l-323 -338l206 -382h-192z" />
    <glyph glyph-name="Lambda" unicode="&#x39b;" horiz-adv-x="593" 
d="M382 0l-5 576l-250 -576h-167l355 720h186l52 -720h-171z" />
    <glyph glyph-name="Mu" unicode="&#x39c;" horiz-adv-x="775" 
d="M276 0l-32 473l-100 -473h-149l153 720h194l37 -539l265 539h199l-153 -720h-150l100 474l-232 -474h-132z" />
    <glyph glyph-name="Nu" unicode="&#x39d;" horiz-adv-x="620" 
d="M687 720l-153 -720h-167l-113 502l-107 -502h-141l153 720h181l102 -491l104 491h141z" />
    <glyph glyph-name="Xi" unicode="&#x39e;" horiz-adv-x="499" 
d="M434 0h-449l27 128h449zM560 593h-449l27 127h449zM433 301h-320l27 124h320z" />
    <glyph glyph-name="Omicron" unicode="&#x39f;" horiz-adv-x="678" 
d="M331 104q38 0 73 30.5t62 81.5t43.5 117.5t16.5 138.5q0 76 -29.5 110.5t-77.5 34.5q-36 0 -71 -30t-62.5 -80.5t-44.5 -117t-17 -140.5q0 -77 29.5 -111t77.5 -34zM312 -15q-59 0 -106.5 17t-81 50t-51.5 82.5t-18 114.5q0 108 29.5 197.5t81 153.5t121.5 99.5t151 35.5
q58 0 105 -17t81 -50t52.5 -82.5t18.5 -115.5q0 -108 -30.5 -197.5t-82.5 -153.5t-122 -99t-148 -35z" />
    <glyph glyph-name="Pi" unicode="&#x3a0;" horiz-adv-x="626" 
d="M693 720l-153 -720h-165l127 600h-202l-127 -600h-167l153 720h534z" />
    <glyph glyph-name="Rho" unicode="&#x3a1;" horiz-adv-x="584" 
d="M380 720q66 0 112.5 -12.5t76 -35.5t43.5 -56t14 -75q0 -141 -83.5 -220.5t-245.5 -79.5h-73l-51 -241h-167l153 720h221zM301 605l-53 -249h73q28 0 51.5 12.5t41 34t27.5 51t10 64.5q0 42 -23.5 64.5t-71.5 22.5h-55z" />
    <glyph glyph-name="Sigma" unicode="&#x3a3;" horiz-adv-x="535" 
d="M384 325l-194 -206h304l-25 -119h-483l25 118l229 241l-126 246l25 115h468l-26 -119h-291l110 -205z" />
    <glyph glyph-name="Tau" unicode="&#x3a4;" horiz-adv-x="519" 
d="M602 594h-174l-126 -594h-167l126 594h-172l27 126h513z" />
    <glyph glyph-name="Upsilon" unicode="&#x3a5;" horiz-adv-x="588" 
d="M176 0l61 287l-124 433h174l59 -288l194 288h161l-308 -433l-61 -287h-156z" />
    <glyph glyph-name="Phi" unicode="&#x3a6;" horiz-adv-x="838" 
d="M300 25q-58 2 -103 21t-75.5 52t-46.5 78.5t-16 101.5q0 87 27.5 163t78 132t121.5 88.5t157 33.5l9 40h167l-9 -40q56 -1 100.5 -18.5t76 -50t48.5 -78t17 -102.5q0 -86 -28.5 -162.5t-79.5 -134.5t-121.5 -91.5t-154.5 -32.5l-9 -40h-167l9 40h-1zM493 144
q44 0 79.5 27.5t61 70t39 95.5t13.5 104q0 68 -28.5 101t-72.5 35zM417 577q-42 -2 -77 -25t-60.5 -62.5t-39.5 -93.5t-14 -117q0 -67 27 -100t72 -35z" />
    <glyph glyph-name="Chi" unicode="&#x3a7;" horiz-adv-x="621" 
d="M441 382l137 -382h-186l-73 244l-170 -244h-186l297 375l-131 345h181l66 -215l156 215h177z" />
    <glyph glyph-name="Psi" unicode="&#x3a8;" horiz-adv-x="682" 
d="M311 720l-68 -318q-6 -27 -6 -50q0 -29 11 -47t37 -25l94 440h157l-94 -439q43 11 62.5 38.5t30.5 76.5l70 324h150l-68 -320q-23 -105 -86.5 -166t-184.5 -75l-33 -159h-157l33 158q-87 11 -132.5 62.5t-45.5 131.5q0 17 2 33.5t6 34.5l64 300h158z" />
    <glyph glyph-name="uni03A9" unicode="&#x3a9;" horiz-adv-x="678" 
d="M361 121q27 0 49.5 18.5t41 48.5t32.5 67.5t23.5 77t14 76.5t4.5 65q0 78 -28.5 110.5t-76.5 32.5q-42 0 -78 -31t-62.5 -82t-41.5 -117.5t-15 -136.5q0 -36 6.5 -61t16 -40t20.5 -21.5t20 -6.5l-25 -121h-242l25 121h72q-27 26 -42 66.5t-15 94.5q0 105 31 189
t83.5 142.5t122.5 90t148 31.5q55 0 101.5 -15.5t80 -47t52 -79.5t18.5 -114q0 -51 -10.5 -103t-31.5 -99.5t-52.5 -88t-73.5 -67.5h76l-25 -121h-244z" />
    <glyph glyph-name="Iotadieresis" unicode="&#x3aa;" horiz-adv-x="259" 
d="M326 720l-153 -720h-167l153 720h167zM85 782l28 128h142l-28 -128h-142zM284 782l28 128h143l-28 -128h-143z" />
    <glyph glyph-name="Upsilondieresis" unicode="&#x3ab;" horiz-adv-x="588" 
d="M176 0l61 287l-124 433h174l59 -288l194 288h161l-308 -433l-61 -287h-156zM248 782l28 128h142l-28 -128h-142zM447 782l28 128h143l-28 -128h-143z" />
    <glyph glyph-name="alphatonos" unicode="&#x3ac;" horiz-adv-x="550" 
d="M349 0l-14 57q-32 -32 -68 -52t-78 -20q-75 0 -116 50.5t-41 138.5q0 76 20 142t54.5 115t80.5 76.5t97 27.5q47 0 83 -18t53 -52l38 55h120l-110 -520h-119zM312 421q-27 0 -50 -20.5t-39.5 -54.5t-25.5 -76.5t-9 -85.5q0 -45 18.5 -65t50.5 -20q30 0 53 20t39 52.5
t24.5 74t8.5 84.5q0 50 -19 70.5t-51 20.5zM343 720h163l-91 -147h-121z" />
    <glyph glyph-name="epsilontonos" unicode="&#x3ad;" horiz-adv-x="485" 
d="M304 720h163l-91 -147h-121zM294 535q49 0 88.5 -12.5t66 -35t39 -51.5t12.5 -60v-13h-161q4 32 -11 50t-44 18q-23 0 -38.5 -17t-15.5 -41q0 -53 52 -53h38l-22 -103h-27q-48 0 -73.5 -21t-25.5 -52q0 -49 45 -49q29 0 47.5 16.5t33.5 58.5h161q-18 -41 -41 -74.5
t-54.5 -58.5t-72.5 -38.5t-93 -13.5q-47 0 -82 11t-58.5 30t-35.5 44.5t-12 55.5q0 31 11 57.5t30 46t45.5 31.5t57.5 15q-38 8 -58.5 35.5t-20.5 64.5q0 72 56.5 115.5t162.5 43.5z" />
    <glyph glyph-name="etatonos" unicode="&#x3ae;" horiz-adv-x="529" 
d="M112 520h118l11 -55q38 38 73 54t79 16q64 0 100 -37t36 -106q0 -28 -8 -66l-109 -506h-155l108 504q6 27 6 47q0 29 -12.5 41.5t-34.5 12.5q-35 0 -61.5 -26.5t-39.5 -85.5l-66 -313h-155zM331 720h163l-91 -147h-121z" />
    <glyph glyph-name="iotatonos" unicode="&#x3af;" horiz-adv-x="239" 
d="M192 720h163l-91 -147h-121zM2 0l110 520h155l-110 -520h-155z" />
    <glyph glyph-name="upsilondieresistonos" unicode="&#x3b0;" horiz-adv-x="518" 
d="M227 -15q-101 0 -147.5 39.5t-46.5 111.5q0 30 7 61l68 323h155l-72 -335q-2 -11 -3.5 -20.5t-1.5 -17.5q0 -29 14.5 -40.5t40.5 -11.5q36 0 53.5 17.5t28.5 67.5l73 340h154l-73 -343q-20 -97 -79 -144.5t-171 -47.5zM127 592l28 128h142l-28 -128h-142zM417 592l28 128
h143l-28 -128h-143zM364 883h162l-89 -147h-122z" />
    <glyph glyph-name="alpha" unicode="&#x3b1;" horiz-adv-x="550" 
d="M349 0l-14 57q-32 -32 -68 -52t-78 -20q-75 0 -116 50.5t-41 138.5q0 76 20 142t54.5 115t80.5 76.5t97 27.5q47 0 83 -18t53 -52l38 55h120l-110 -520h-119zM312 421q-27 0 -50 -20.5t-39.5 -54.5t-25.5 -76.5t-9 -85.5q0 -45 18.5 -65t50.5 -20q30 0 53 20t39 52.5
t24.5 74t8.5 84.5q0 50 -19 70.5t-51 20.5z" />
    <glyph glyph-name="beta" unicode="&#x3b2;" horiz-adv-x="518" 
d="M293 -15q-45 0 -79.5 18t-45.5 50l-50 -233h-155l149 702q11 52 30.5 91.5t49.5 66.5t72.5 41t99.5 14q97 0 145 -38t48 -104q0 -35 -12.5 -68t-34 -59t-52 -44t-66.5 -24q24 -3 43 -16t32.5 -33t20.5 -45.5t7 -53.5q0 -61 -16.5 -110t-44.5 -83.5t-64.5 -53t-76.5 -18.5
zM274 334l25 113h16q16 0 30.5 9.5t25.5 25.5t18 38t7 47q0 29 -14 43.5t-36 14.5q-32 0 -48.5 -21t-29.5 -79l-55 -261q-11 -53 -11 -85q0 -43 14.5 -61.5t37.5 -18.5q20 0 35.5 15.5t26.5 40t17 56t6 63.5q0 34 -12.5 47t-34.5 13h-18z" />
    <glyph glyph-name="gamma" unicode="&#x3b3;" horiz-adv-x="506" 
d="M97 -180l39 180l-63 520h163l7 -383l165 383h165l-282 -520l-39 -180h-155z" />
    <glyph glyph-name="delta" unicode="&#x3b4;" horiz-adv-x="512" 
d="M244 720h320l-23 -104h-125q22 -12 40 -34t31.5 -52.5t21 -67.5t7.5 -77q0 -89 -19 -162.5t-56.5 -126t-92 -82t-124.5 -29.5q-97 0 -147 47t-50 133q0 69 18.5 127.5t49.5 100.5t71.5 66t85.5 24q33 0 64.5 -15t45.5 -41q0 43 -10.5 78.5t-29 62t-43.5 42.5t-54 21z
M286 370q-21 0 -39 -18t-31.5 -47t-21.5 -65t-8 -73q0 -38 15 -53.5t41 -15.5q22 0 40.5 15.5t32 43t21.5 64t8 78.5q0 41 -17 56t-41 15z" />
    <glyph glyph-name="epsilon" unicode="&#x3b5;" horiz-adv-x="485" 
d="M294 535q49 0 88.5 -12.5t66 -35t39 -51.5t12.5 -60v-13h-161q4 32 -11 50t-44 18q-23 0 -38.5 -17t-15.5 -41q0 -53 52 -53h38l-22 -103h-27q-48 0 -73.5 -21t-25.5 -52q0 -49 45 -49q29 0 47.5 16.5t33.5 58.5h161q-18 -41 -41 -74.5t-54.5 -58.5t-72.5 -38.5
t-93 -13.5q-47 0 -82 11t-58.5 30t-35.5 44.5t-12 55.5q0 31 11 57.5t30 46t45.5 31.5t57.5 15q-38 8 -58.5 35.5t-20.5 64.5q0 72 56.5 115.5t162.5 43.5z" />
    <glyph glyph-name="zeta" unicode="&#x3b6;" horiz-adv-x="453" 
d="M502 632q-153 -78 -226.5 -180t-73.5 -223q0 -48 20 -84.5t68 -53.5q55 -20 80 -47t25 -66q0 -30 -13 -58.5t-34 -54t-46.5 -48t-50.5 -40.5l-77 76q18 17 35.5 38t17.5 49q0 29 -31 39q-85 29 -123 83.5t-38 131.5q0 68 17 125t51 107t84.5 95.5t117.5 90.5h-184l23 108
h377z" />
    <glyph glyph-name="eta" unicode="&#x3b7;" horiz-adv-x="529" 
d="M112 520h118l11 -55q38 38 73 54t79 16q64 0 100 -37t36 -106q0 -28 -8 -66l-109 -506h-155l108 504q6 27 6 47q0 29 -12.5 41.5t-34.5 12.5q-35 0 -61.5 -26.5t-39.5 -85.5l-66 -313h-155z" />
    <glyph glyph-name="theta" unicode="&#x3b8;" horiz-adv-x="521" 
d="M227 -15q-89 0 -135.5 56t-46.5 168q0 71 19 159q21 97 49 167t65 114t83.5 65t105.5 21q89 0 135.5 -55t46.5 -167q0 -68 -20 -165q-20 -95 -48.5 -163.5t-65.5 -113t-84 -65.5t-104 -21zM244 91q18 0 32 10.5t27.5 35.5t26.5 66.5t28 104.5h-145q-15 -84 -15 -133
q0 -45 11.5 -64.5t34.5 -19.5zM350 630q-18 0 -32.5 -11t-27.5 -36t-26 -66t-28 -102h145q7 41 10.5 72.5t3.5 55.5q0 45 -11.5 66t-33.5 21z" />
    <glyph glyph-name="iota" unicode="&#x3b9;" horiz-adv-x="239" 
d="M2 0l110 520h155l-110 -520h-155z" />
    <glyph glyph-name="kappa" unicode="&#x3ba;" horiz-adv-x="526" 
d="M2 0l110 520h155l-45 -212l195 212h167l-227 -235l139 -285h-177l-109 251l-53 -251h-155z" />
    <glyph glyph-name="lambda" unicode="&#x3bb;" horiz-adv-x="511" 
d="M313 0l-13 399l-172 -399h-165l267 520h54q1 8 1 16v15q0 41 -9.5 57t-29.5 16q-8 0 -22 -1.5t-39 -7.5l23 109q20 5 41.5 8t40.5 3q35 0 57.5 -8.5t36.5 -31t21.5 -62t13.5 -102.5l49 -531h-155z" />
    <glyph glyph-name="uni03BC" unicode="&#x3bc;" horiz-adv-x="528" 
d="M267 520l-77 -361v-12q0 -28 14 -40t40 -12q28 0 53.5 28t37.5 85l66 312h155l-110 -520h-128l-3 55q-30 -33 -66 -51.5t-81 -18.5q-10 0 -15 1l-35 -166h-155l149 700h155z" />
    <glyph glyph-name="nu" unicode="&#x3bd;" horiz-adv-x="506" 
d="M573 520l-264 -520h-193l-43 520h163l3 -398l170 398h164z" />
    <glyph glyph-name="xi" unicode="&#x3be;" horiz-adv-x="464" 
d="M21 153q0 33 10 66t28.5 61.5t46.5 49.5t64 28q-38 9 -57 36t-19 63q0 60 36.5 97.5t107.5 57.5h-112l23 108h372l-19 -88h-29q-45 0 -84.5 -11t-69.5 -32t-47 -52t-17 -72q0 -26 17.5 -42t64.5 -16h56l-24 -113h-46q-38 0 -64 -8t-42 -21.5t-23 -31.5t-7 -37
q0 -37 20 -61.5t71 -41.5q62 -20 87.5 -47t25.5 -65q0 -32 -13 -60t-33.5 -53.5t-45 -48t-48.5 -42.5l-75 76q15 14 32.5 36t17.5 48q0 16 -13 26.5t-46 18.5q-74 17 -110 62.5t-36 108.5z" />
    <glyph glyph-name="omicron" unicode="&#x3bf;" horiz-adv-x="542" 
d="M328 535q103 0 157 -49t54 -145q0 -79 -19.5 -144.5t-57.5 -112.5t-94 -73t-129 -26q-101 0 -153.5 50t-52.5 146q0 74 18 138.5t55 112.5t92.5 75.5t129.5 27.5zM313 430q-30 0 -52.5 -23t-38.5 -60t-24 -84.5t-8 -95.5q0 -42 17 -59.5t51 -17.5q30 0 53.5 22t39 58.5
t24 84.5t8.5 99q0 41 -17.5 58.5t-52.5 17.5z" />
    <glyph glyph-name="pi" unicode="&#x3c0;" horiz-adv-x="514" 
d="M519 412l-87 -412h-155l87 412h-120l-87 -412h-155l87 412h-38l23 108h506l-23 -108h-38z" />
    <glyph glyph-name="rho" unicode="&#x3c1;" horiz-adv-x="551" 
d="M61 289q13 65 34 111.5t53 76.5t76.5 44t105.5 14q49 0 89 -14.5t68.5 -41.5t44 -66t15.5 -88q0 -72 -21 -134.5t-56 -108t-80.5 -71.5t-93.5 -26q-40 0 -77 15t-56 43l-48 -223h-155zM195 189q0 -50 20.5 -70t55.5 -20q26 0 48.5 20t39 52.5t26 74.5t9.5 87
q0 48 -20.5 68t-56.5 20q-27 0 -50 -21t-39.5 -54.5t-25 -75t-7.5 -81.5z" />
    <glyph glyph-name="sigma1" unicode="&#x3c2;" horiz-adv-x="519" 
d="M322 535q103 0 157 -46t54 -121v-8h-161q0 3 0.5 5.5t0.5 4.5q0 28 -15.5 43.5t-44.5 15.5q-23 0 -44 -14t-38 -43t-27 -74t-10 -107q0 -33 20.5 -59t65.5 -39q75 -22 106.5 -48.5t31.5 -67.5q0 -31 -12.5 -59t-32.5 -53t-45 -47t-49 -41l-76 76q15 15 32.5 36t17.5 46
q0 16 -12 26t-42 16q-82 17 -125.5 61t-43.5 129q0 72 16 138.5t50.5 117.5t90 81.5t135.5 30.5z" />
    <glyph glyph-name="sigma" unicode="&#x3c3;" horiz-adv-x="542" 
d="M519 413q7 -20 12.5 -46.5t5.5 -48.5q0 -73 -20 -134t-58 -105.5t-93.5 -69t-125.5 -24.5q-102 0 -155 49t-53 145q0 79 18.5 144.5t55.5 112.5t91 73t125 26q13 0 28 -1t30 -3t28.5 -4.5t23.5 -6.5h169l-24 -112zM311 430q-28 0 -50.5 -23.5t-38 -61t-24 -84t-8.5 -92.5
q0 -45 17.5 -62t52.5 -17q31 0 53.5 23.5t37.5 61t22.5 83t7.5 90.5q0 22 -4.5 41.5t-13.5 32.5q-19 8 -52 8z" />
    <glyph glyph-name="tau" unicode="&#x3c4;" horiz-adv-x="424" 
d="M77 520h410l-23 -107h-128l-87 -413h-155l87 413h-127z" />
    <glyph glyph-name="upsilon" unicode="&#x3c5;" horiz-adv-x="518" 
d="M227 -15q-101 0 -147.5 39.5t-46.5 111.5q0 30 7 61l68 323h155l-72 -335q-2 -11 -3.5 -20.5t-1.5 -17.5q0 -29 14.5 -40.5t40.5 -11.5q36 0 53.5 17.5t28.5 67.5l73 340h154l-73 -343q-20 -97 -79 -144.5t-171 -47.5z" />
    <glyph glyph-name="phi" unicode="&#x3c6;" horiz-adv-x="693" 
d="M214 -12q-98 8 -141 53.5t-43 125.5q0 46 10.5 94t27 94t37.5 88t42 77h152q-20 -36 -39.5 -79t-35 -86t-25.5 -83t-10 -70q0 -36 13.5 -58.5t37.5 -31.5l40 188q14 65 32.5 110t46 72.5t65 40t88.5 12.5q83 0 132.5 -43.5t49.5 -133.5q0 -81 -21.5 -147t-63 -114.5
t-102 -76.5t-138.5 -32l-36 -168h-155zM395 110q40 4 67.5 30.5t45 63.5t25 79.5t7.5 78.5q0 32 -10 45.5t-27 13.5q-11 0 -20 -5.5t-17.5 -20t-16.5 -40t-17 -66.5z" />
    <glyph glyph-name="chi" unicode="&#x3c7;" horiz-adv-x="510" 
d="M335 176l93 -356h-181l-23 241l-134 -241h-165l241 354l-85 346h176l16 -236l119 236h163z" />
    <glyph glyph-name="psi" unicode="&#x3c8;" horiz-adv-x="692" 
d="M258 520l-61 -287q-2 -7 -3 -17t-1 -18q0 -34 16 -57t48 -32l87 411h150l-87 -410q94 22 113 116l62 294h142l-61 -290q-45 -211 -282 -241l-36 -169h-150l36 168q-94 12 -141 63t-47 131q0 30 8 68l57 270h150z" />
    <glyph glyph-name="omega" unicode="&#x3c9;" horiz-adv-x="690" 
d="M453 380l-39 -183q-6 -27 -6 -47q0 -29 9.5 -42t23.5 -13q20 0 34 17.5t24 45.5t16.5 61.5t10 66t4.5 59t1 39.5q0 40 -4 73.5t-10 62.5h155q6 -26 9.5 -60t3.5 -74q0 -69 -10 -140.5t-35.5 -129t-68 -94.5t-108.5 -37q-67 0 -100 27t-37 79q-22 -53 -62 -79.5t-93 -26.5
q-72 0 -110 43t-38 118q0 51 14 104.5t34.5 103.5t44 93t42.5 73h155q-19 -31 -42.5 -74.5t-44.5 -93.5t-35 -103.5t-14 -103.5t32 -50q19 0 38.5 20.5t30.5 73.5l39 191h136z" />
    <glyph glyph-name="iotadieresis" unicode="&#x3ca;" horiz-adv-x="239" 
d="M59 592l28 128h121l-28 -128h-121zM227 592l28 128h123l-28 -128h-123zM2 0l110 520h155l-110 -520h-155z" />
    <glyph glyph-name="upsilondieresis" unicode="&#x3cb;" horiz-adv-x="518" 
d="M227 -15q-101 0 -147.5 39.5t-46.5 111.5q0 30 7 61l68 323h155l-72 -335q-2 -11 -3.5 -20.5t-1.5 -17.5q0 -29 14.5 -40.5t40.5 -11.5q36 0 53.5 17.5t28.5 67.5l73 340h154l-73 -343q-20 -97 -79 -144.5t-171 -47.5zM163 592l28 128h142l-28 -128h-142zM362 592l28 128
h143l-28 -128h-143z" />
    <glyph glyph-name="omicrontonos" unicode="&#x3cc;" horiz-adv-x="542" 
d="M328 535q103 0 157 -49t54 -145q0 -79 -19.5 -144.5t-57.5 -112.5t-94 -73t-129 -26q-101 0 -153.5 50t-52.5 146q0 74 18 138.5t55 112.5t92.5 75.5t129.5 27.5zM313 430q-30 0 -52.5 -23t-38.5 -60t-24 -84.5t-8 -95.5q0 -42 17 -59.5t51 -17.5q30 0 53.5 22t39 58.5
t24 84.5t8.5 99q0 41 -17.5 58.5t-52.5 17.5zM335 720h163l-91 -147h-121z" />
    <glyph glyph-name="upsilontonos" unicode="&#x3cd;" horiz-adv-x="518" 
d="M339 720h163l-91 -147h-121zM227 -15q-101 0 -147.5 39.5t-46.5 111.5q0 30 7 61l68 323h155l-72 -335q-2 -11 -3.5 -20.5t-1.5 -17.5q0 -29 14.5 -40.5t40.5 -11.5q36 0 53.5 17.5t28.5 67.5l73 340h154l-73 -343q-20 -97 -79 -144.5t-171 -47.5z" />
    <glyph glyph-name="omegatonos" unicode="&#x3ce;" horiz-adv-x="690" 
d="M453 380l-39 -183q-6 -27 -6 -47q0 -29 9.5 -42t23.5 -13q20 0 34 17.5t24 45.5t16.5 61.5t10 66t4.5 59t1 39.5q0 40 -4 73.5t-10 62.5h155q6 -26 9.5 -60t3.5 -74q0 -69 -10 -140.5t-35.5 -129t-68 -94.5t-108.5 -37q-67 0 -100 27t-37 79q-22 -53 -62 -79.5t-93 -26.5
q-72 0 -110 43t-38 118q0 51 14 104.5t34.5 103.5t44 93t42.5 73h155q-19 -31 -42.5 -74.5t-44.5 -93.5t-35 -103.5t-14 -103.5t32 -50q19 0 38.5 20.5t30.5 73.5l39 191h136zM419 720h163l-91 -147h-121z" />
    <glyph glyph-name="uni0400" unicode="&#x400;" horiz-adv-x="502" 
d="M476 305h-239l-39 -184h264l-25 -121h-431l153 720h431l-27 -123h-264l-37 -176h239zM449 773h-116l-101 137h161z" />
    <glyph glyph-name="afii10023" unicode="&#x401;" horiz-adv-x="502" 
d="M476 305h-239l-39 -184h264l-25 -121h-431l153 720h431l-27 -123h-264l-37 -176h239zM212 782l28 128h142l-28 -128h-142zM411 782l28 128h143l-28 -128h-143z" />
    <glyph glyph-name="afii10051" unicode="&#x402;" horiz-adv-x="703" 
d="M121 0l126 594h-158l27 126h486l-27 -126h-161l-35 -164q40 38 80.5 56.5t88.5 18.5q72 0 109.5 -37.5t37.5 -118.5q0 -49 -13 -110l-18 -88q-16 -75 -66.5 -120.5t-129.5 -45.5q-23 0 -47 4t-40 11l23 109q13 -5 28 -7t24 -2q14 0 24.5 12.5t16.5 41.5l22 102q9 42 9 68
q0 33 -13.5 47.5t-44.5 14.5q-28 0 -49.5 -12.5t-38 -33.5t-27.5 -48t-17 -56l-50 -236h-167z" />
    <glyph glyph-name="afii10052" unicode="&#x403;" horiz-adv-x="440" 
d="M523 594h-224l-126 -594h-167l153 720h391zM388 910h160l-161 -137h-116z" />
    <glyph glyph-name="afii10053" unicode="&#x404;" horiz-adv-x="641" 
d="M322 103q23 0 42.5 8t36 27t31 50t27.5 77h170q-47 -138 -128.5 -209t-212.5 -71q-113 0 -173.5 66t-60.5 191q0 105 24.5 195t72.5 156.5t118 104t161 37.5q54 0 99.5 -16.5t77.5 -48t47 -73.5t17 -87v-25h-167q2 70 -20.5 101.5t-67.5 31.5q-24 0 -45.5 -10t-41 -33.5
t-37 -61t-33.5 -92.5h173l-25 -116h-173q-3 -20 -4 -38t-1 -34q0 -37 7 -62t19 -40t29 -21.5t38 -6.5z" />
    <glyph glyph-name="afii10054" unicode="&#x405;" horiz-adv-x="587" 
d="M274 -15q-62 0 -107 13.5t-74 39t-42.5 61.5t-13.5 81q0 8 0.5 16t1.5 16h155q-1 -5 -1 -10v-10q0 -20 4.5 -36.5t15.5 -28.5t30.5 -18.5t48.5 -6.5q55 0 84 22t29 64q0 16 -3.5 30t-15.5 27.5t-35 28t-61 31.5q-92 42 -133.5 87.5t-41.5 107.5q0 50 17 93t52.5 74.5
t90 49.5t129.5 18q106 0 164 -46.5t58 -131.5v-11q0 -6 -1 -11h-153q1 5 1 7v5q0 35 -23 54t-65 19q-51 0 -74 -22.5t-23 -56.5q0 -17 4 -29.5t14.5 -23.5t28.5 -21.5t45 -22.5q55 -24 93 -47.5t62 -48.5t34.5 -51.5t10.5 -57.5q0 -58 -20 -105t-59 -80t-96 -51t-131 -18z
" />
    <glyph glyph-name="afii10055" unicode="&#x406;" horiz-adv-x="259" 
d="M326 720l-153 -720h-167l153 720h167z" />
    <glyph glyph-name="afii10056" unicode="&#x407;" horiz-adv-x="259" 
d="M326 720l-153 -720h-167l153 720h167zM85 782l28 128h142l-28 -128h-142zM284 782l28 128h143l-28 -128h-143z" />
    <glyph glyph-name="afii10057" unicode="&#x408;" horiz-adv-x="494" 
d="M174 198q-3 -18 -3 -31q0 -32 13 -47.5t36 -15.5q26 0 45 23t33 89l108 504h159l-105 -492q-26 -123 -87 -183t-166 -60q-93 0 -142.5 45.5t-49.5 131.5q0 8 0.5 17.5t1.5 18.5h157z" />
    <glyph glyph-name="afii10058" unicode="&#x409;" horiz-adv-x="931" 
d="M621 479h50q130 0 190.5 -45.5t60.5 -133.5q0 -70 -22.5 -125.5t-66 -94.5t-107.5 -59.5t-148 -20.5h-225l130 613h-153l-120 -419q-15 -50 -33.5 -86.5t-46.5 -60.5t-68.5 -35.5t-98.5 -11.5l23 110q14 0 25 2.5t19.5 11t15.5 23.5t14 39l153 534h460zM597 364l-53 -249
h65q27 0 52 12t44 34t30.5 51.5t11.5 65.5q0 86 -94 86h-56z" />
    <glyph glyph-name="afii10059" unicode="&#x40a;" horiz-adv-x="942" 
d="M684 720l-56 -261h53q128 0 189 -41.5t61 -125.5q0 -67 -20.5 -121t-60.5 -92t-100 -58.5t-138 -20.5h-248l73 344h-191l-73 -344h-167l153 720h167l-56 -261h191l56 261h167zM604 344l-49 -229h76q24 0 47 11.5t40 32t27.5 48.5t10.5 61q0 76 -91 76h-61z" />
    <glyph glyph-name="afii10060" unicode="&#x40b;" horiz-adv-x="703" 
d="M121 0l126 594h-158l27 126h486l-27 -126h-161l-35 -164q39 36 79.5 55.5t85.5 19.5q74 0 113 -36t39 -119q0 -24 -3.5 -51.5t-10.5 -59.5l-50 -239h-167l55 262q4 19 6 34t2 28q0 33 -13.5 47.5t-43.5 14.5q-49 0 -83.5 -39t-49.5 -111l-50 -236h-167z" />
    <glyph glyph-name="afii10061" unicode="&#x40c;" horiz-adv-x="645" 
d="M477 910h160l-161 -137h-116zM423 0l-121 305h-58l-65 -305h-167l153 720h167l-64 -299h37l247 299h174l-286 -337l167 -383h-184z" />
    <glyph glyph-name="uni040D" unicode="&#x40d;" horiz-adv-x="622" 
d="M689 720l-153 -720h-166l88 420l-271 -356l-13 -64h-168l153 720h168l-90 -422l272 359l14 63h166zM489 773h-116l-101 137h161z" />
    <glyph glyph-name="afii10062" unicode="&#x40e;" horiz-adv-x="541" 
d="M374 179q-26 -50 -49.5 -86.5t-48.5 -60.5t-54.5 -35.5t-67.5 -11.5q-23 0 -48 5t-42 11l26 118q20 -6 36.5 -9.5t27.5 -3.5q24 0 39 16.5t32 55.5h-63l-49 542h160l20 -419l196 419h165zM392 764q-30 0 -54.5 6.5t-41.5 20.5t-23.5 31.5t-6.5 35.5q0 10 1 22h120
q-2 -18 6 -25t16 -7t18.5 7t16.5 25h121q-23 -63 -71.5 -89.5t-101.5 -26.5z" />
    <glyph glyph-name="afii10145" unicode="&#x40f;" horiz-adv-x="625" 
d="M352 0l-30 -140h-161l30 140h-185l153 720h167l-128 -598h201l128 598h165l-153 -720h-187z" />
    <glyph glyph-name="afii10017" unicode="&#x410;" horiz-adv-x="601" 
d="M388 165h-189l-72 -165h-167l359 720h186l56 -720h-170zM247 275h139l-4 307z" />
    <glyph glyph-name="afii10018" unicode="&#x411;" horiz-adv-x="584" 
d="M532 599h-232l-26 -120h50q130 0 190.5 -45.5t60.5 -133.5q0 -70 -22.5 -125.5t-66 -94.5t-107.5 -59.5t-148 -20.5h-225l153 720h399zM250 364l-53 -249h65q27 0 52 12t44 34t30.5 51.5t11.5 65.5q0 86 -94 86h-56z" />
    <glyph glyph-name="afii10019" unicode="&#x412;" horiz-adv-x="555" 
d="M351 720q124 0 179 -37.5t55 -107.5q0 -67 -39.5 -119t-115.5 -75q54 -13 83.5 -50.5t29.5 -87.5q0 -55 -19 -100t-57.5 -76.5t-97 -49t-137.5 -17.5h-226l153 720h192zM241 324l-45 -214h61q57 0 86.5 38t29.5 101q0 38 -19.5 56.5t-52.5 18.5h-60zM302 610l-39 -182h49
q22 0 40.5 8.5t32.5 23.5t22 35t8 43q0 72 -71 72h-42z" />
    <glyph glyph-name="afii10020" unicode="&#x413;" horiz-adv-x="440" 
d="M523 594h-224l-126 -594h-167l153 720h391z" />
    <glyph glyph-name="afii10021" unicode="&#x414;" horiz-adv-x="604" 
d="M666 720l-129 -605h66l-54 -255h-146l30 140h-341l-30 -140h-146l53 255h54q21 15 36 45t28 81l119 479h460zM235 247q-12 -49 -33 -81t-47 -51h231l104 490h-165z" />
    <glyph glyph-name="afii10022" unicode="&#x415;" horiz-adv-x="502" 
d="M476 305h-239l-39 -184h264l-25 -121h-431l153 720h431l-27 -123h-264l-37 -176h239z" />
    <glyph glyph-name="afii10024" unicode="&#x416;" horiz-adv-x="879" 
d="M305 720l74 -299h25l64 299h169l-63 -299h14l202 299h169l-238 -337l120 -383h-177l-80 305h-35l-65 -305h-169l65 305h-26l-208 -305h-188l282 383l-94 337h159z" />
    <glyph glyph-name="afii10025" unicode="&#x417;" horiz-adv-x="534" 
d="M246 101q22 0 41 10.5t33.5 30t23 47.5t8.5 63q0 73 -77 73h-68l22 107h79q23 0 42 10t32.5 27t20.5 38.5t7 44.5q0 34 -16 51t-44 17q-33 0 -53 -15.5t-35 -53.5h-159q13 41 36 75t56.5 58t79 37.5t102.5 13.5q45 0 82 -12.5t64 -34t42 -51t15 -63.5q0 -33 -12 -63.5
t-33.5 -55.5t-53 -43t-70.5 -26q48 -9 78.5 -50t30.5 -99q0 -53 -21 -99t-60 -80t-93 -53.5t-120 -19.5q-50 0 -89.5 13t-66.5 35.5t-41.5 53.5t-14.5 67q0 7 0.5 14t1.5 14h163q-1 -6 -1.5 -11.5t-0.5 -10.5q0 -32 17.5 -45.5t51.5 -13.5z" />
    <glyph glyph-name="afii10026" unicode="&#x418;" horiz-adv-x="622" 
d="M689 720l-153 -720h-166l88 420l-271 -356l-13 -64h-168l153 720h168l-90 -422l272 359l14 63h166z" />
    <glyph glyph-name="afii10027" unicode="&#x419;" horiz-adv-x="622" 
d="M427 764q-30 0 -54.5 6.5t-41.5 20.5t-23.5 31.5t-6.5 35.5q0 10 1 22h120q-2 -18 6 -25t16 -7t18.5 7t16.5 25h121q-23 -63 -71.5 -89.5t-101.5 -26.5zM689 720l-153 -720h-166l88 420l-271 -356l-13 -64h-168l153 720h168l-90 -422l272 359l14 63h166z" />
    <glyph glyph-name="afii10028" unicode="&#x41a;" horiz-adv-x="639" 
d="M417 0l-121 305h-58l-65 -305h-167l153 720h167l-64 -299h37l247 299h174l-286 -337l167 -383h-184z" />
    <glyph glyph-name="afii10029" unicode="&#x41b;" horiz-adv-x="589" 
d="M656 720l-153 -720h-150l128 605h-157l-117 -411q-14 -50 -32 -86.5t-46 -60.5t-68 -35.5t-98 -11.5l23 110q14 0 25 2.5t19.5 11t15.5 23.5t14 39l153 534h443z" />
    <glyph glyph-name="afii10030" unicode="&#x41c;" horiz-adv-x="775" 
d="M276 0l-32 473l-100 -473h-149l153 720h194l37 -539l265 539h199l-153 -720h-150l100 474l-232 -474h-132z" />
    <glyph glyph-name="afii10031" unicode="&#x41d;" horiz-adv-x="626" 
d="M693 720l-153 -720h-165l64 304h-202l-64 -304h-167l153 720h167l-63 -296h202l63 296h165z" />
    <glyph glyph-name="afii10032" unicode="&#x41e;" horiz-adv-x="678" 
d="M331 104q38 0 73 30.5t62 81.5t43.5 117.5t16.5 138.5q0 76 -29.5 110.5t-77.5 34.5q-36 0 -71 -30t-62.5 -80.5t-44.5 -117t-17 -140.5q0 -77 29.5 -111t77.5 -34zM312 -15q-59 0 -106.5 17t-81 50t-51.5 82.5t-18 114.5q0 108 29.5 197.5t81 153.5t121.5 99.5t151 35.5
q58 0 105 -17t81 -50t52.5 -82.5t18.5 -115.5q0 -108 -30.5 -197.5t-82.5 -153.5t-122 -99t-148 -35z" />
    <glyph glyph-name="afii10033" unicode="&#x41f;" horiz-adv-x="626" 
d="M693 720l-153 -720h-165l127 600h-202l-127 -600h-167l153 720h534z" />
    <glyph glyph-name="afii10034" unicode="&#x420;" horiz-adv-x="584" 
d="M380 720q66 0 112.5 -12.5t76 -35.5t43.5 -56t14 -75q0 -141 -83.5 -220.5t-245.5 -79.5h-73l-51 -241h-167l153 720h221zM301 605l-53 -249h73q28 0 51.5 12.5t41 34t27.5 51t10 64.5q0 42 -23.5 64.5t-71.5 22.5h-55z" />
    <glyph glyph-name="afii10035" unicode="&#x421;" horiz-adv-x="641" 
d="M316 103q54 0 86.5 38.5t56.5 123.5h170q-23 -68 -53 -120t-69 -87.5t-89 -54t-113 -18.5q-123 0 -187 65t-64 190q0 109 26.5 200t75.5 156.5t118.5 102t155.5 36.5q58 0 104.5 -17.5t77.5 -49.5t45 -77.5t14 -105.5h-167q3 71 -19 102t-70 31q-42 0 -76.5 -32.5
t-59 -86.5t-38.5 -124t-14 -144q0 -69 23.5 -98.5t65.5 -29.5z" />
    <glyph glyph-name="afii10036" unicode="&#x422;" horiz-adv-x="519" 
d="M602 594h-174l-126 -594h-167l126 594h-172l27 126h513z" />
    <glyph glyph-name="afii10037" unicode="&#x423;" horiz-adv-x="541" 
d="M374 179q-26 -50 -49.5 -86.5t-48.5 -60.5t-54.5 -35.5t-67.5 -11.5q-23 0 -48 5t-42 11l26 118q20 -6 36.5 -9.5t27.5 -3.5q24 0 39 16.5t32 55.5h-63l-49 542h160l20 -419l196 419h165z" />
    <glyph glyph-name="afii10038" unicode="&#x424;" horiz-adv-x="838" 
d="M300 25q-58 2 -103 21t-75.5 52t-46.5 78.5t-16 101.5q0 87 27.5 163t78 132t121.5 88.5t157 33.5l9 40h167l-9 -40q56 -1 100.5 -18.5t76 -50t48.5 -78t17 -102.5q0 -86 -28.5 -162.5t-79.5 -134.5t-121.5 -91.5t-154.5 -32.5l-9 -40h-167l9 40h-1zM493 144
q44 0 79.5 27.5t61 70t39 95.5t13.5 104q0 68 -28.5 101t-72.5 35zM417 577q-42 -2 -77 -25t-60.5 -62.5t-39.5 -93.5t-14 -117q0 -67 27 -100t72 -35z" />
    <glyph glyph-name="afii10039" unicode="&#x425;" horiz-adv-x="621" 
d="M441 382l137 -382h-186l-73 244l-170 -244h-186l297 375l-131 345h181l66 -215l156 215h177z" />
    <glyph glyph-name="afii10040" unicode="&#x426;" horiz-adv-x="639" 
d="M198 122h202l128 598h165l-128 -598h74l-55 -262h-161l30 140h-447l153 720h167z" />
    <glyph glyph-name="afii10041" unicode="&#x427;" horiz-adv-x="578" 
d="M645 720l-153 -720h-167l61 289q-37 -36 -78 -55t-84 -19q-76 0 -115.5 37.5t-39.5 119.5q0 23 3.5 49.5t9.5 56.5l52 242h167l-55 -258q-9 -42 -9 -69q0 -34 15 -46.5t45 -12.5q42 0 77.5 37t51.5 110l52 239h167z" />
    <glyph glyph-name="afii10042" unicode="&#x428;" horiz-adv-x="832" 
d="M6 0l153 720h167l-128 -598h120l128 598h167l-128 -598h120l128 598h166l-153 -720h-740z" />
    <glyph glyph-name="afii10043" unicode="&#x429;" horiz-adv-x="845" 
d="M6 0l153 720h167l-128 -598h120l128 598h167l-128 -598h120l128 598h166l-128 -598h74l-55 -262h-162l30 140h-652z" />
    <glyph glyph-name="afii10044" unicode="&#x42a;" horiz-adv-x="719" 
d="M123 720h338l-52 -241h50q130 0 190.5 -45.5t60.5 -133.5q0 -70 -22.5 -125.5t-66 -94.5t-107.5 -59.5t-148 -20.5h-225l126 594h-171zM385 364l-53 -249h65q27 0 52 12t44 34t30.5 51.5t11.5 65.5q0 86 -94 86h-56z" />
    <glyph glyph-name="afii10045" unicode="&#x42b;" horiz-adv-x="806" 
d="M873 720l-153 -720h-167l153 720h167zM274 479h50q130 0 190.5 -45.5t60.5 -133.5q0 -70 -22.5 -125.5t-66 -94.5t-107.5 -59.5t-148 -20.5h-225l153 720h167zM250 364l-53 -249h65q27 0 52 12t44 34t30.5 51.5t11.5 65.5q0 86 -94 86h-56z" />
    <glyph glyph-name="afii10046" unicode="&#x42c;" horiz-adv-x="584" 
d="M274 479h50q130 0 190.5 -45.5t60.5 -133.5q0 -70 -22.5 -125.5t-66 -94.5t-107.5 -59.5t-148 -20.5h-225l153 720h167zM250 364l-53 -249h65q27 0 52 12t44 34t30.5 51.5t11.5 65.5q0 86 -94 86h-56z" />
    <glyph glyph-name="afii10047" unicode="&#x42d;" horiz-adv-x="641" 
d="M307 421h172q4 23 6 43t2 37q0 61 -22 89t-63 28q-49 0 -80.5 -32.5t-57.5 -100.5h-167q44 122 127 186t195 64q118 0 179 -63.5t61 -178.5q0 -105 -23.5 -197.5t-70.5 -161.5t-116.5 -109t-160.5 -40q-246 0 -246 235q0 11 0.5 22t1.5 23h171q-2 -15 -3 -28.5t-1 -25.5
q0 -57 23.5 -82.5t70.5 -25.5q25 0 47 11t40.5 35t34 62.5t27.5 93.5h-172z" />
    <glyph glyph-name="afii10048" unicode="&#x42e;" horiz-adv-x="925" 
d="M561 -15q-114 0 -178 66t-64 193q0 14 1 29t3 31h-86l-64 -304h-167l153 720h167l-63 -296h88q25 81 61.5 140t82 97t97.5 56t108 18q54 0 98 -17.5t76 -51.5t49.5 -84t17.5 -114q0 -102 -28.5 -190t-79.5 -153.5t-120.5 -102.5t-151.5 -37zM582 104q43 0 78.5 34.5
t61 89t39 121t13.5 130.5q0 73 -25.5 105.5t-64.5 32.5q-44 0 -80.5 -33.5t-62 -86.5t-39.5 -119.5t-14 -132.5q0 -76 27.5 -108.5t66.5 -32.5z" />
    <glyph glyph-name="afii10049" unicode="&#x42f;" horiz-adv-x="597" 
d="M-37 0l222 303q-38 22 -60.5 56.5t-22.5 86.5q0 57 19.5 107t58.5 87t97 58.5t135 21.5h252l-153 -720h-168l56 263h-71l-185 -263h-180zM278 463q0 -38 23 -61t68 -23h54l48 225h-55q-65 0 -101.5 -36t-36.5 -105z" />
    <glyph glyph-name="afii10065" unicode="&#x430;" horiz-adv-x="509" 
d="M77 373q29 78 89 120t161 42q85 0 132 -39.5t47 -113.5q0 -27 -6 -55l-69 -327h-120l-8 54q-28 -29 -66 -49t-91 -20q-30 0 -54 10t-41 28t-26.5 42.5t-9.5 53.5q0 78 51 127t164 66l115 17l5 25q2 8 3 16.5t1 13.5q0 50 -48 50q-55 0 -72 -61h-157zM214 92q44 0 69 29.5
t33 70.5l11 51l-69 -13q-49 -10 -68 -34.5t-19 -51.5q0 -28 10.5 -40t32.5 -12z" />
    <glyph glyph-name="afii10066" unicode="&#x431;" horiz-adv-x="531" 
d="M311 653q64 16 97.5 30.5t38.5 36.5h165q-6 -28 -24.5 -49t-47.5 -37.5t-66.5 -29.5t-81.5 -26q-62 -18 -100 -51t-61 -95q27 29 63 45.5t74 16.5q33 0 61 -12.5t49 -36.5t32.5 -58.5t11.5 -78.5q0 -74 -20 -133.5t-58 -101.5t-92 -65t-123 -23q-93 0 -143 49t-50 152
q0 90 22.5 169t61 140.5t88 102.5t103.5 55zM301 388q-27 0 -48 -20t-35.5 -51.5t-22.5 -71t-8 -78.5q0 -43 17 -60t49 -17q26 0 47 18t35.5 48.5t22 70t7.5 82.5t-16.5 61t-47.5 18z" />
    <glyph glyph-name="afii10067" unicode="&#x432;" horiz-adv-x="513" 
d="M2 0l110 520h201q109 0 158.5 -30t49.5 -89q0 -20 -9 -40t-26 -37.5t-41.5 -31t-56.5 -19.5q47 -8 72 -36.5t25 -68.5q0 -36 -14 -66.5t-45 -53t-80.5 -35.5t-120.5 -13h-223zM202 217l-24 -109h65q45 0 66 19t21 47q0 20 -12 31.5t-35 11.5h-81zM243 412l-19 -92h80
q24 0 39 16t15 39q0 16 -13.5 26.5t-37.5 10.5h-64z" />
    <glyph glyph-name="afii10068" unicode="&#x433;" horiz-adv-x="372" 
d="M435 520l-23 -107h-168l-87 -413h-155l110 520h323z" />
    <glyph glyph-name="afii10069" unicode="&#x434;" horiz-adv-x="555" 
d="M20 108q7 6 13.5 13.5t13 18.5t12 27t11.5 40l78 313h421l-88 -412h66l-52 -248h-149l30 140h-277l-30 -140h-148l51 248h48zM225 214q-9 -37 -28.5 -63t-45.5 -43h176l65 304h-119z" />
    <glyph glyph-name="afii10070" unicode="&#x435;" horiz-adv-x="526" 
d="M489 147q-29 -73 -87.5 -117.5t-155.5 -44.5q-102 0 -157 52t-55 146q0 78 19.5 142.5t56.5 111t90.5 72.5t122.5 26q95 0 148 -51t53 -154q0 -48 -12 -108h-320q-2 -10 -3 -22t-1 -22q0 -45 18 -64.5t55 -19.5q29 0 46 13.5t27 39.5h155zM313 437q-35 0 -59.5 -27.5
t-44.5 -96.5h163q3 15 4 27.5t1 23.5q0 39 -16 56t-48 17z" />
    <glyph glyph-name="afii10072" unicode="&#x436;" horiz-adv-x="725" 
d="M242 520l49 -196h23l42 196h156l-42 -196h13l132 196h163l-164 -231l71 -289h-169l-37 217h-31l-46 -217h-156l46 217h-27l-128 -217h-177l193 290l-66 230h155z" />
    <glyph glyph-name="afii10073" unicode="&#x437;" horiz-adv-x="484" 
d="M317 535q48 0 82 -9.5t55.5 -26.5t31.5 -40.5t10 -51.5q0 -23 -9 -45t-26 -39.5t-41 -30t-54 -16.5q45 -7 67.5 -36.5t22.5 -70.5q0 -83 -60 -133.5t-179 -50.5q-52 0 -90.5 13.5t-63 38t-35 55.5t-10.5 63v15h161q-3 -43 10.5 -61t41.5 -18q29 0 47.5 22t18.5 55
q0 25 -15.5 37t-53.5 12h-13l22 103h24q35 0 53.5 18t18.5 51q0 40 -42 40q-27 0 -44.5 -17t-26.5 -49h-161q13 37 36 68.5t55 54.5t74 36t93 13z" />
    <glyph glyph-name="afii10074" unicode="&#x438;" horiz-adv-x="527" 
d="M2 0l110 520h156l-58 -275l184 241l7 34h154l-110 -520h-154l57 274l-184 -243l-6 -31h-156z" />
    <glyph glyph-name="afii10075" unicode="&#x439;" horiz-adv-x="527" 
d="M343 574q-30 0 -54.5 6.5t-41.5 20.5t-23.5 31.5t-6.5 35.5q0 10 1 22h120q-2 -18 6 -25t16 -7t18.5 7t16.5 25h121q-23 -63 -71.5 -89.5t-101.5 -26.5zM2 0l110 520h156l-58 -275l184 241l7 34h154l-110 -520h-154l57 274l-184 -243l-6 -31h-156z" />
    <glyph glyph-name="afii10076" unicode="&#x43a;" horiz-adv-x="526" 
d="M2 0l110 520h155l-42 -196h20l174 196h165l-210 -238l122 -282h-178l-85 217h-30l-46 -217h-155z" />
    <glyph glyph-name="afii10077" unicode="&#x43b;" horiz-adv-x="549" 
d="M577 520l-110 -520h-154l87 413h-119l-60 -219q-14 -51 -35 -88t-51 -60.5t-70.5 -34.5t-95.5 -11l23 112q31 0 48.5 15.5t30.5 60.5l95 332h411z" />
    <glyph glyph-name="afii10078" unicode="&#x43c;" horiz-adv-x="620" 
d="M214 30l-4 293l-68 -323h-140l110 520h190l8 -320l142 320h196l-110 -520h-152l68 323l-128 -293h-112z" />
    <glyph glyph-name="afii10079" unicode="&#x43d;" horiz-adv-x="527" 
d="M267 520l-40 -187h133l40 187h155l-110 -520h-155l48 226h-133l-48 -226h-155l110 520h155z" />
    <glyph glyph-name="afii10080" unicode="&#x43e;" horiz-adv-x="542" 
d="M328 535q103 0 157 -49t54 -145q0 -79 -19.5 -144.5t-57.5 -112.5t-94 -73t-129 -26q-101 0 -153.5 50t-52.5 146q0 74 18 138.5t55 112.5t92.5 75.5t129.5 27.5zM313 430q-30 0 -52.5 -23t-38.5 -60t-24 -84.5t-8 -95.5q0 -42 17 -59.5t51 -17.5q30 0 53.5 22t39 58.5
t24 84.5t8.5 99q0 41 -17.5 58.5t-52.5 17.5z" />
    <glyph glyph-name="afii10081" unicode="&#x43f;" horiz-adv-x="527" 
d="M555 520l-110 -520h-155l87 413h-133l-87 -413h-155l110 520h443z" />
    <glyph glyph-name="afii10082" unicode="&#x440;" horiz-adv-x="555" 
d="M245 464q35 35 73 53t77 18q75 0 118 -45.5t43 -133.5q0 -77 -20.5 -145t-56.5 -118t-85 -79t-106 -29q-39 0 -73.5 17t-48.5 43l-48 -225h-155l149 700h115zM321 421q-29 0 -52.5 -21t-39.5 -54.5t-24.5 -75t-8.5 -83.5q0 -47 19 -67.5t57 -20.5q26 0 48.5 21t39 54.5
t25.5 76t9 86.5q0 45 -18 64.5t-55 19.5z" />
    <glyph glyph-name="afii10083" unicode="&#x441;" horiz-adv-x="519" 
d="M493 173q-41 -94 -102.5 -141t-157.5 -47q-100 0 -150.5 48.5t-50.5 141.5q0 77 20 143t57.5 114t92.5 75.5t125 27.5q49 0 88 -13t65.5 -36.5t39.5 -55.5t13 -70h-161q2 33 -14 51t-45 18q-26 0 -48 -20.5t-38.5 -55.5t-26 -80.5t-9.5 -94.5q0 -45 16 -65.5t43 -20.5
q31 0 49.5 19.5t32.5 61.5h161z" />
    <glyph glyph-name="afii10084" unicode="&#x442;" horiz-adv-x="424" 
d="M77 520h410l-23 -107h-128l-87 -413h-155l87 413h-127z" />
    <glyph glyph-name="afii10085" unicode="&#x443;" horiz-adv-x="512" 
d="M579 520l-276 -531q-27 -51 -49.5 -86t-45.5 -56.5t-49 -31.5t-60 -10q-20 0 -45.5 3t-42.5 8l24 109q22 -6 36 -7.5t22 -1.5q24 0 41 19.5t31 64.5h-43l-49 520h160l3 -399l184 399h159z" />
    <glyph glyph-name="afii10086" unicode="&#x444;" horiz-adv-x="827" 
d="M557 -15q-29 0 -55.5 13t-43.5 37l-46 -215h-155l46 215q-29 -24 -55 -37t-55 -13q-71 0 -115.5 51.5t-44.5 146.5q0 73 18 137t52 112t82 75.5t108 27.5q33 0 61 -13t45 -37l50 235h155l-50 -235q26 24 57 37t64 13q69 0 110 -46.5t41 -135.5q0 -75 -20 -142t-56 -117.5
t-85.5 -79.5t-107.5 -29zM608 421q-29 0 -51.5 -22.5t-38.5 -57.5t-24.5 -78t-8.5 -84q0 -45 16 -62.5t43 -17.5q30 0 54 21.5t40 56.5t24.5 78.5t8.5 87.5q0 43 -16.5 60.5t-46.5 17.5zM304 421q-27 0 -48.5 -20.5t-36 -53t-22 -74t-7.5 -83.5q0 -50 18 -70.5t51 -20.5
q24 0 44.5 20t35.5 53t23.5 75t8.5 86q0 48 -17 68t-50 20z" />
    <glyph glyph-name="afii10087" unicode="&#x445;" horiz-adv-x="510" 
d="M356 274l111 -274h-176l-46 161l-117 -161h-165l225 276l-107 244h172l41 -136l98 136h163z" />
    <glyph glyph-name="afii10088" unicode="&#x446;" horiz-adv-x="542" 
d="M468 108h66l-52 -248h-149l29 140h-360l110 520h155l-88 -413h133l88 413h155z" />
    <glyph glyph-name="afii10089" unicode="&#x447;" horiz-adv-x="518" 
d="M257 520l-45 -214q-2 -10 -3 -18.5t-1 -16.5q0 -50 51 -50q28 0 54 28t38 85l40 186h155l-110 -520h-155l35 166q-32 -29 -62.5 -42t-69.5 -13q-67 0 -101 34t-34 100q0 16 2 32.5t6 35.5l45 207h155z" />
    <glyph glyph-name="afii10090" unicode="&#x448;" horiz-adv-x="696" 
d="M2 0l110 520h155l-88 -412h73l88 412h155l-88 -412h74l88 412h155l-110 -520h-612z" />
    <glyph glyph-name="afii10091" unicode="&#x449;" horiz-adv-x="711" 
d="M637 108h66l-52 -248h-149l29 140h-529l110 520h155l-88 -412h73l88 412h155l-88 -412h74l88 412h155z" />
    <glyph glyph-name="afii10092" unicode="&#x44a;" horiz-adv-x="603" 
d="M369 520l-31 -145h83q75 0 117 -40t42 -108q0 -51 -17 -93t-48.5 -72t-76 -46t-99.5 -16h-235l87 413h-135l23 107h290zM317 277l-37 -177h40q44 0 72 32t28 83q0 62 -65 62h-38z" />
    <glyph glyph-name="afii10093" unicode="&#x44b;" horiz-adv-x="717" 
d="M480 0l110 520h155l-110 -520h-155zM267 520l-31 -145h83q75 0 117 -40t42 -108q0 -51 -17 -93t-48.5 -72t-76 -46t-99.5 -16h-235l110 520h155zM215 277l-37 -177h40q44 0 72 32t28 83q0 62 -65 62h-38z" />
    <glyph glyph-name="afii10094" unicode="&#x44c;" horiz-adv-x="501" 
d="M267 520l-31 -145h83q75 0 117 -40t42 -108q0 -51 -17 -93t-48.5 -72t-76 -46t-99.5 -16h-235l110 520h155zM215 277l-37 -177h40q44 0 72 32t28 83q0 62 -65 62h-38z" />
    <glyph glyph-name="afii10095" unicode="&#x44d;" horiz-adv-x="519" 
d="M181 173q0 -48 16 -65t46 -17q15 0 28.5 6.5t25.5 22t22 40.5t18 62h-117l19 91h114q2 14 3 25.5t1 21.5q0 38 -15.5 53.5t-41.5 15.5q-35 0 -54.5 -19.5t-27.5 -49.5h-160q12 36 34 68t55 56t76.5 37.5t97.5 13.5q93 0 144 -53t51 -147q0 -75 -19.5 -139t-56.5 -111
t-90 -73.5t-120 -26.5q-109 0 -160 48t-52 126v14h163z" />
    <glyph glyph-name="afii10096" unicode="&#x44e;" horiz-adv-x="749" 
d="M267 520l-40 -187h62q37 105 98.5 153.5t162.5 48.5q96 0 146 -49.5t50 -143.5q0 -78 -20 -143.5t-58 -113t-92.5 -74t-122.5 -26.5q-93 0 -144 53t-51 141q0 11 1 23t3 24h-57l-48 -226h-155l110 520h155zM532 430q-31 0 -53 -25.5t-36.5 -64.5t-21 -85.5t-6.5 -87.5
t13.5 -59t46.5 -18q29 0 51 26.5t36.5 66.5t21.5 87t7 88q0 39 -14.5 55.5t-44.5 16.5z" />
    <glyph glyph-name="afii10097" unicode="&#x44f;" horiz-adv-x="529" 
d="M-30 0l173 198q-37 19 -55 49.5t-18 69.5q0 96 63 149.5t201 53.5h223l-110 -520h-156l37 175h-48l-141 -175h-169zM349 274l31 147h-45q-53 0 -77.5 -23.5t-24.5 -62.5q0 -61 80 -61h36z" />
    <glyph glyph-name="uni0450" unicode="&#x450;" horiz-adv-x="526" 
d="M489 147q-29 -73 -87.5 -117.5t-155.5 -44.5q-102 0 -157 52t-55 146q0 78 19.5 142.5t56.5 111t90.5 72.5t122.5 26q95 0 148 -51t53 -154q0 -48 -12 -108h-320q-2 -10 -3 -22t-1 -22q0 -45 18 -64.5t55 -19.5q29 0 46 13.5t27 39.5h155zM313 437q-35 0 -59.5 -27.5
t-44.5 -96.5h163q3 15 4 27.5t1 23.5q0 39 -16 56t-48 17zM412 583h-116l-101 137h161z" />
    <glyph glyph-name="afii10071" unicode="&#x451;" horiz-adv-x="526" 
d="M489 147q-29 -73 -87.5 -117.5t-155.5 -44.5q-102 0 -157 52t-55 146q0 78 19.5 142.5t56.5 111t90.5 72.5t122.5 26q95 0 148 -51t53 -154q0 -48 -12 -108h-320q-2 -10 -3 -22t-1 -22q0 -45 18 -64.5t55 -19.5q29 0 46 13.5t27 39.5h155zM313 437q-35 0 -59.5 -27.5
t-44.5 -96.5h163q3 15 4 27.5t1 23.5q0 39 -16 56t-48 17zM177 592l28 128h142l-28 -128h-142zM376 592l28 128h143l-28 -128h-143z" />
    <glyph glyph-name="afii10099" unicode="&#x452;" horiz-adv-x="529" 
d="M123 570h-29l22 106h29l10 44h155l-10 -44h113l-22 -106h-113l-21 -97q32 32 64.5 47t72.5 15q64 0 99 -36.5t35 -104.5q0 -16 -2 -32.5t-6 -35.5l-77 -362q-16 -75 -64.5 -117t-127.5 -42q-22 0 -46.5 5.5t-40.5 12.5l23 109q14 -5 28.5 -7t23.5 -2q20 0 33 12.5
t19 41.5l73 347q6 28 6 47q0 29 -12 41.5t-34 12.5q-35 0 -61.5 -26t-39.5 -85l-66 -314h-155z" />
    <glyph glyph-name="afii10100" unicode="&#x453;" horiz-adv-x="372" 
d="M330 720h160l-161 -137h-116zM435 520l-23 -107h-168l-87 -413h-155l110 520h323z" />
    <glyph glyph-name="afii10101" unicode="&#x454;" horiz-adv-x="519" 
d="M493 173q-32 -86 -94.5 -137t-157.5 -51q-104 0 -156.5 48.5t-52.5 142.5q0 82 20.5 148.5t58 113t91.5 72t121 25.5q50 0 89.5 -12.5t66.5 -36t40.5 -55.5t13.5 -71h-161q2 32 -11.5 50.5t-45.5 18.5q-36 0 -57.5 -25.5t-39.5 -90.5h114l-19 -91h-117q-6 -32 -6 -54
q0 -77 60 -77q28 0 46.5 17.5t35.5 64.5h161z" />
    <glyph glyph-name="afii10102" unicode="&#x455;" horiz-adv-x="490" 
d="M236 91q32 0 45.5 14t13.5 37q0 7 -3 14.5t-12 15t-25.5 16.5t-43.5 21q-78 33 -107.5 67.5t-29.5 78.5q0 81 55 130.5t172 49.5q99 0 149.5 -41.5t50.5 -104.5q0 -7 -1 -13h-155q2 23 -13 38t-47 15q-26 0 -39 -12.5t-13 -30.5q0 -8 2 -15t10 -14.5t23.5 -16t41.5 -19.5
q84 -35 116 -72.5t32 -82.5q0 -40 -14.5 -73t-44.5 -57t-76.5 -37.5t-110.5 -13.5q-100 0 -146.5 43t-46.5 106q0 7 1 13h157q-5 -56 59 -56z" />
    <glyph glyph-name="afii10103" unicode="&#x456;" horiz-adv-x="235" 
 />
    <glyph glyph-name="afii10104" unicode="&#x457;" horiz-adv-x="239" 
d="M59 592l28 128h121l-28 -128h-121zM227 592l28 128h123l-28 -128h-123zM2 0l110 520h155l-110 -520h-155z" />
    <glyph glyph-name="afii10105" unicode="&#x458;" horiz-adv-x="245" 
d="M-102 -68q14 -5 28.5 -7t23.5 -2q20 0 33.5 12.5t19.5 41.5l115 543h155l-118 -556q-16 -75 -65 -117t-128 -42q-22 0 -46.5 5.5t-40.5 12.5zM124 587l29 133h169l-29 -133h-169z" />
    <glyph glyph-name="afii10106" unicode="&#x459;" horiz-adv-x="811" 
d="M577 520l-31 -145h83q75 0 117 -40t42 -108q0 -51 -17 -93t-48.5 -72t-76 -46t-99.5 -16h-235l87 413h-118l-60 -219q-29 -102 -89 -148t-163 -46l23 112q33 0 49.5 15.5t29.5 60.5l95 332h411zM525 277l-37 -177h40q44 0 72 32t28 83q0 62 -65 62h-38z" />
    <glyph glyph-name="afii10107" unicode="&#x45a;" horiz-adv-x="784" 
d="M550 520l-31 -145h83q75 0 117 -40t42 -108q0 -51 -17 -93t-48.5 -72t-76 -46t-99.5 -16h-235l48 226h-128l-48 -226h-155l110 520h155l-40 -187h128l40 187h155zM498 277l-37 -177h40q44 0 72 32t28 83q0 62 -65 62h-38z" />
    <glyph glyph-name="afii10108" unicode="&#x45b;" horiz-adv-x="529" 
d="M123 570h-29l22 106h29l10 44h155l-10 -44h113l-22 -106h-113l-21 -97q32 32 64.5 47t72.5 15q64 0 99 -36.5t35 -104.5q0 -16 -2 -32.5t-6 -35.5l-69 -326h-155l68 324q6 28 6 47q0 29 -12 41.5t-34 12.5q-35 0 -61.5 -26t-39.5 -85l-66 -314h-155z" />
    <glyph glyph-name="afii10109" unicode="&#x45c;" horiz-adv-x="526" 
d="M389 720h160l-161 -137h-116zM2 0l110 520h155l-42 -196h20l174 196h165l-210 -238l122 -282h-178l-85 217h-30l-46 -217h-155z" />
    <glyph glyph-name="uni045D" unicode="&#x45d;" horiz-adv-x="527" 
d="M2 0l110 520h156l-58 -275l184 241l7 34h154l-110 -520h-154l57 274l-184 -243l-6 -31h-156zM402 583h-116l-101 137h161z" />
    <glyph glyph-name="afii10110" unicode="&#x45e;" horiz-adv-x="512" 
d="M579 520l-276 -531q-27 -51 -49.5 -86t-45.5 -56.5t-49 -31.5t-60 -10q-20 0 -45.5 3t-42.5 8l24 109q22 -6 36 -7.5t22 -1.5q24 0 41 19.5t31 64.5h-43l-49 520h160l3 -399l184 399h159zM341 574q-30 0 -54.5 6.5t-41.5 20.5t-23.5 31.5t-6.5 35.5q0 10 1 22h120
q-2 -18 6 -25t16 -7t18.5 7t16.5 25h121q-23 -63 -71.5 -89.5t-101.5 -26.5z" />
    <glyph glyph-name="afii10193" unicode="&#x45f;" horiz-adv-x="527" 
d="M298 0l-30 -140h-149l30 140h-147l110 520h155l-88 -412h133l88 412h155l-110 -520h-147z" />
    <glyph glyph-name="afii10146" unicode="&#x462;" horiz-adv-x="699" 
d="M575 594h-161l-25 -115h50q130 0 190.5 -45.5t60.5 -133.5q0 -70 -22.5 -125.5t-66 -94.5t-107.5 -59.5t-148 -20.5h-225l126 594h-158l27 126h486zM365 364l-53 -249h65q27 0 52 12t44 34t30.5 51.5t11.5 65.5q0 86 -94 86h-56z" />
    <glyph glyph-name="afii10194" unicode="&#x463;" horiz-adv-x="535" 
d="M291 474l-21 -99h83q75 0 117 -40t42 -108q0 -51 -17 -93t-48.5 -72t-76 -46t-99.5 -16h-235l100 474h-69l23 108h69l18 83h155l-18 -83h90l-23 -108h-90zM249 277l-37 -177h40q44 0 72 32t28 83q0 62 -65 62h-38z" />
    <glyph glyph-name="afii10147" unicode="&#x472;" horiz-adv-x="678" 
d="M312 -15q-59 0 -106.5 17t-81 50t-51.5 82.5t-18 114.5q0 108 29.5 197.5t81 153.5t121.5 99.5t151 35.5q58 0 105 -17t81 -50t52.5 -82.5t18.5 -115.5q0 -108 -30.5 -197.5t-82.5 -153.5t-122 -99t-148 -35zM331 104q26 0 51 15t47.5 42t40.5 63.5t31 79.5h-275
q-1 -14 -1.5 -27.5t-0.5 -27.5q0 -77 29.5 -111t77.5 -34zM419 617q-25 0 -49.5 -14.5t-46.5 -40t-41 -61t-32 -77.5h274q1 12 1.5 24t0.5 24q0 76 -29.5 110.5t-77.5 34.5z" />
    <glyph glyph-name="afii10195" unicode="&#x473;" horiz-adv-x="542" 
d="M328 535q103 0 157 -49t54 -145q0 -79 -19.5 -144.5t-57.5 -112.5t-94 -73t-129 -26q-101 0 -153.5 50t-52.5 146q0 74 18 138.5t55 112.5t92.5 75.5t129.5 27.5zM258 90q39 0 67 36.5t42 94.5h-175q-1 -14 -1.5 -27t-0.5 -27q0 -42 17 -59.5t51 -17.5zM313 430
q-36 0 -62.5 -33.5t-41.5 -84.5h172q1 11 1.5 21t0.5 21q0 41 -17.5 58.5t-52.5 17.5z" />
    <glyph glyph-name="afii10148" unicode="&#x474;" horiz-adv-x="573" 
d="M686 720l-341 -720h-198l-34 720h167l-4 -582l246 582h164z" />
    <glyph glyph-name="afii10196" unicode="&#x475;" horiz-adv-x="506" 
d="M573 520l-264 -520h-193l-43 520h163l3 -398l170 398h164z" />
    <glyph glyph-name="afii10050" unicode="&#x490;" horiz-adv-x="440" 
d="M578 856l-55 -262h-224l-126 -594h-167l153 720h230l28 136h161z" />
    <glyph glyph-name="afii10098" unicode="&#x491;" horiz-adv-x="372" 
d="M286 520l31 145h149l-54 -252h-168l-87 -413h-155l110 520h174z" />
    <glyph glyph-name="uni0492" unicode="&#x492;" horiz-adv-x="477" 
d="M560 594h-224l-37 -173h118l-25 -116h-118l-64 -305h-167l65 305h-79l25 116h78l64 299h391z" />
    <glyph glyph-name="uni0493" unicode="&#x493;" horiz-adv-x="372" 
d="M435 520l-23 -107h-168l-19 -93h84l-23 -107h-84l-45 -213h-155l45 213h-42l23 107h42l42 200h323z" />
    <glyph glyph-name="uni0496" unicode="&#x496;" horiz-adv-x="883" 
d="M307 720l74 -299h23l64 299h169l-63 -299h14l202 299h169l-238 -337l81 -261h61l-55 -262h-161l29 140h-15l-79 305h-33l-65 -305h-169l65 305h-27l-207 -305h-188l282 383l-94 337h161z" />
    <glyph glyph-name="uni0497" unicode="&#x497;" horiz-adv-x="728" 
d="M242 520l49 -196h23l42 196h156l-42 -196h13l132 196h163l-164 -231l44 -181h62l-52 -248h-149l29 140h-32l-37 217h-31l-46 -217h-156l46 217h-27l-128 -217h-177l193 290l-66 230h155z" />
    <glyph glyph-name="uni0498" unicode="&#x498;" horiz-adv-x="534" 
d="M271 -40q54 -21 54 -78q0 -62 -39 -101t-108 -39q-62 0 -94 25.5t-32 76.5v10q0 4 1 9h94q-1 -4 -1 -10q0 -31 38 -31q21 0 31 12t10 29q0 16 -12 27t-47 11l26 86q-85 8 -131.5 54.5t-46.5 112.5q0 6 0.5 12.5t1.5 15.5h163q-1 -6 -1.5 -11.5t-0.5 -10.5
q0 -32 17.5 -45.5t51.5 -13.5q22 0 41 10.5t33.5 30t23 47.5t8.5 63q0 73 -77 73h-68l22 107h79q23 0 42 10t32.5 27t20.5 38.5t7 44.5q0 34 -16 51t-44 17q-33 0 -53 -15.5t-35 -53.5h-159q13 41 36 75t56.5 58t79 37.5t102.5 13.5q45 0 82 -12.5t64 -34t42 -51t15 -63.5
q0 -33 -12 -63.5t-33.5 -55.5t-53 -43t-70.5 -26q48 -9 78.5 -50t30.5 -99q0 -48 -17.5 -90t-49 -75t-76.5 -55t-100 -29z" />
    <glyph glyph-name="uni0499" unicode="&#x499;" horiz-adv-x="484" 
d="M257 -40q54 -21 54 -78q0 -62 -39 -101t-108 -39q-62 0 -94 25.5t-32 76.5v10q0 4 1 9h94q-1 -4 -1 -10q0 -31 38 -31q21 0 31 12t10 29q0 16 -12 27t-47 11l26 86q-80 9 -120 54t-40 114v15h161q0 -4 -0.5 -7.5t-0.5 -6.5q0 -35 13.5 -50t39.5 -15q29 0 47.5 22t18.5 55
q0 25 -15.5 37t-53.5 12h-13l22 103h24q35 0 53.5 18t18.5 51q0 40 -42 40q-27 0 -44.5 -17t-26.5 -49h-161q13 37 36 68.5t55 54.5t74 36t93 13q48 0 82 -9.5t55.5 -26.5t31.5 -40.5t10 -51.5q0 -23 -9 -45t-26 -39.5t-41 -30t-54 -16.5q45 -7 67.5 -36.5t22.5 -70.5
q0 -75 -48.5 -123.5t-144.5 -58.5z" />
    <glyph glyph-name="uni049A" unicode="&#x49a;" horiz-adv-x="650" 
d="M443 0h-26l-121 305h-58l-65 -305h-167l153 720h167l-64 -299h37l247 299h174l-286 -337l114 -261h82l-55 -262h-161z" />
    <glyph glyph-name="uni049B" unicode="&#x49b;" horiz-adv-x="526" 
d="M2 0l110 520h155l-42 -196h20l174 196h165l-210 -238l75 -174h82l-52 -248h-149l29 140h-41l-85 217h-30l-46 -217h-155z" />
    <glyph glyph-name="uni049C" unicode="&#x49c;" horiz-adv-x="690" 
d="M326 720l-64 -299h23l36 170h69l-36 -166l243 295h174l-286 -337l167 -383h-188l-121 305h-14l-45 -212h-69l45 212h-22l-65 -305h-167l153 720h167z" />
    <glyph glyph-name="uni049D" unicode="&#x49d;" horiz-adv-x="586" 
d="M377 0l-85 217h-8l-35 -164h-64l35 164h-17l-46 -217h-155l110 520h155l-42 -196h17l17 77h64l-16 -77l173 196h164l-210 -238l122 -282h-179z" />
    <glyph glyph-name="uni04A0" unicode="&#x4a0;" horiz-adv-x="780" 
d="M558 0l-121 305h-58l-65 -305h-167l126 594h-177l27 126h344l-64 -299h38l246 299h174l-286 -337l167 -383h-184z" />
    <glyph glyph-name="uni04A1" unicode="&#x4a1;" horiz-adv-x="630" 
d="M106 0l87 413h-137l23 107h292l-42 -196h20l174 196h165l-210 -238l122 -282h-178l-85 217h-30l-46 -217h-155z" />
    <glyph glyph-name="uni04A2" unicode="&#x4a2;" horiz-adv-x="639" 
d="M693 720l-128 -598h74l-55 -262h-161l30 140h-78l64 304h-202l-64 -304h-167l153 720h167l-63 -296h202l63 296h165z" />
    <glyph glyph-name="uni04A3" unicode="&#x4a3;" horiz-adv-x="542" 
d="M267 520l-40 -187h133l40 187h155l-87 -412h66l-52 -248h-149l29 140h-72l48 226h-133l-48 -226h-155l110 520h155z" />
    <glyph glyph-name="uni04AA" unicode="&#x4aa;" horiz-adv-x="641" 
d="M471 -137q-20 -51 -55.5 -80.5t-94.5 -29.5q-56 0 -86 26.5t-30 74.5q0 36 21.5 69.5t66.5 61.5q-118 4 -178.5 68.5t-60.5 186.5q0 109 26.5 200t75.5 156.5t118.5 102t155.5 36.5q58 0 104.5 -17.5t77.5 -49.5t45 -75t14 -94v-14h-167q3 71 -19 102t-70 31
q-42 0 -76.5 -32.5t-59 -86.5t-38.5 -124t-14 -144q0 -69 23.5 -98.5t65.5 -29.5q54 0 86.5 38.5t56.5 123.5h170q-32 -95 -78 -158t-112 -95q-63 -30 -94.5 -65t-31.5 -69q0 -17 6.5 -27t21.5 -10q20 0 28 22h102z" />
    <glyph glyph-name="uni04AB" unicode="&#x4ab;" horiz-adv-x="519" 
d="M389 -137q-20 -51 -55.5 -80.5t-94.5 -29.5q-56 0 -86 26.5t-30 74.5q0 37 22 70.5t67 61.5q-180 11 -180 189q0 77 20 143t57.5 114t92.5 75.5t125 27.5q49 0 88 -13t65.5 -36.5t39.5 -55.5t13 -70h-161q2 33 -14 51t-45 18q-26 0 -48 -20.5t-38.5 -55.5t-26 -80.5
t-9.5 -94.5q0 -45 16 -65.5t43 -20.5q31 0 49.5 19.5t32.5 61.5h161q-23 -53 -56 -93.5t-92 -73.5q-56 -31 -85 -63.5t-29 -64.5q0 -17 6.5 -27t21.5 -10q20 0 28 22h102z" />
    <glyph glyph-name="uni04AE" unicode="&#x4ae;" horiz-adv-x="588" 
d="M176 0l61 287l-124 433h174l59 -288l194 288h161l-308 -433l-61 -287h-156z" />
    <glyph glyph-name="uni04AF" unicode="&#x4af;" horiz-adv-x="506" 
d="M97 -180l39 180l-63 520h163l7 -383l165 383h165l-282 -520l-39 -180h-155z" />
    <glyph glyph-name="uni04B0" unicode="&#x4b0;" horiz-adv-x="588" 
d="M176 0l54 256h-101l25 116h56l-97 348h174l59 -289l194 289h161l-245 -348h64l-25 -116h-109l-54 -256h-156z" />
    <glyph glyph-name="uni04B1" unicode="&#x4b1;" horiz-adv-x="506" 
d="M573 520l-221 -412h42l-22 -108h-81l-39 -180h-155l39 180h-74l22 108h34l-45 412h164l6 -385l166 385h164z" />
    <glyph glyph-name="uni04B2" unicode="&#x4b2;" horiz-adv-x="628" 
d="M421 0h-29l-73 244l-170 -244h-186l297 375l-131 345h181l66 -215l156 215h177l-268 -338l93 -260h74l-55 -262h-161z" />
    <glyph glyph-name="uni04B3" unicode="&#x4b3;" horiz-adv-x="524" 
d="M356 274l67 -166h93l-52 -248h-149l29 140h-53l-46 161l-117 -161h-165l225 276l-107 244h172l41 -136l98 136h163z" />
    <glyph glyph-name="uni04B8" unicode="&#x4b8;" horiz-adv-x="578" 
d="M645 720l-153 -720h-167l61 289q-31 -31 -67 -50l-31 -146h-70l26 123q-5 -1 -10 -1h-10q-76 0 -115.5 37.5t-39.5 119.5q0 23 3.5 49.5t9.5 56.5l52 242h167l-55 -258q-9 -42 -9 -69q0 -26 8 -38.5t25 -17.5l54 254h70l-53 -246q29 15 51.5 48.5t33.5 87.5l52 239h167z
" />
    <glyph glyph-name="uni04B9" unicode="&#x4b9;" horiz-adv-x="518" 
d="M257 520l-45 -214q-2 -10 -3 -18.5t-1 -16.5q0 -33 20 -44l37 174h64l-36 -170q19 12 34.5 37.5t23.5 65.5l40 186h155l-110 -520h-155l35 166q-11 -11 -22 -19t-22 -15l-17 -79h-64l12 59q-5 -1 -10 -1h-9q-67 0 -101 34t-34 100q0 16 2 32.5t6 35.5l45 207h155z" />
    <glyph glyph-name="uni04BA" unicode="&#x4ba;" horiz-adv-x="588" 
d="M6 0l153 720h167l-62 -290q39 36 77.5 55.5t84.5 19.5q74 0 114.5 -38t40.5 -123q0 -47 -13 -105l-51 -239h-167l54 252q5 20 6.5 36t1.5 30q0 37 -14.5 52.5t-41.5 15.5q-48 0 -82.5 -37t-50.5 -113l-50 -236h-167z" />
    <glyph glyph-name="uni04BB" unicode="&#x4bb;" horiz-adv-x="529" 
d="M155 720h155l-65 -305q26 28 57 44t77 16q68 0 102 -37t34 -103q0 -29 -8 -69l-56 -266h-155l55 260q6 28 6 50q0 55 -44 55q-39 0 -65.5 -31t-37.5 -83l-53 -251h-155z" />
    <glyph glyph-name="uni04C0" unicode="&#x4c0;" horiz-adv-x="259" 
d="M326 720l-153 -720h-167l153 720h167z" />
    <glyph glyph-name="uni04CB" unicode="&#x4cb;" horiz-adv-x="591" 
d="M404 0h-79l61 289q-37 -36 -78 -55t-84 -19q-76 0 -115.5 37.5t-39.5 119.5q0 23 3.5 49.5t9.5 56.5l52 242h167l-55 -258q-9 -42 -9 -69q0 -34 15 -46.5t45 -12.5q42 0 77.5 37t51.5 110l52 239h167l-127 -598h73l-55 -262h-161z" />
    <glyph glyph-name="uni04CC" unicode="&#x4cc;" horiz-adv-x="533" 
d="M257 520l-45 -214q-2 -10 -3 -18.5t-1 -16.5q0 -50 51 -50q28 0 54 28t38 85l40 186h155l-87 -412h66l-52 -248h-149l29 140h-72l35 166q-32 -29 -62.5 -42t-69.5 -13q-67 0 -101 34t-34 100q0 16 2 32.5t6 35.5l45 207h155z" />
    <glyph glyph-name="uni04CF" unicode="&#x4cf;" horiz-adv-x="247" 
d="M161 0h-155l153 720h155z" />
    <glyph glyph-name="uni04D8" unicode="&#x4d8;" horiz-adv-x="636" 
d="M304 -15q-125 0 -185.5 64t-60.5 203q0 60 12 137h405q13 61 13 108q0 63 -23 92t-65 29q-52 0 -80 -27.5t-43 -77.5h-167q47 112 121.5 167t192.5 55q107 0 169 -64.5t62 -180.5q0 -103 -26 -194.5t-72.5 -160.5t-111 -109.5t-141.5 -40.5zM308 103q43 0 78 38t60 132
h-213q-6 -41 -6 -69q0 -57 21.5 -79t59.5 -22z" />
    <glyph glyph-name="afii10846" unicode="&#x4d9;" horiz-adv-x="533" 
d="M71 369q12 36 33 66.5t52.5 52.5t74.5 34.5t99 12.5q47 0 84 -14.5t62.5 -40.5t39 -62.5t13.5 -80.5q0 -77 -19 -141.5t-56 -111t-90 -73t-121 -26.5q-109 0 -157.5 47.5t-48.5 147.5q0 50 14 118h319q6 30 6 53q0 39 -18 57t-50 18q-34 0 -54 -15.5t-27 -41.5h-156z
M251 83q19 0 33.5 6.5t26 21.5t21.5 38.5t20 57.5h-163q-3 -14 -4 -26.5t-1 -23.5q0 -74 67 -74z" />
    <glyph glyph-name="uni04E2" unicode="&#x4e2;" horiz-adv-x="622" 
d="M324 798l24 112h232l-24 -112h-232zM689 720l-153 -720h-166l88 420l-271 -356l-13 -64h-168l153 720h168l-90 -422l272 359l14 63h166z" />
    <glyph glyph-name="uni04E3" unicode="&#x4e3;" horiz-adv-x="527" 
d="M238 608l24 112h232l-24 -112h-232zM2 0l110 520h156l-58 -275l184 241l7 34h154l-110 -520h-154l57 274l-184 -243l-6 -31h-156z" />
    <glyph glyph-name="uni04E8" unicode="&#x4e8;" horiz-adv-x="678" 
d="M312 -15q-59 0 -106.5 17t-81 50t-51.5 82.5t-18 114.5q0 108 29.5 197.5t81 153.5t121.5 99.5t151 35.5q58 0 105 -17t81 -50t52.5 -82.5t18.5 -115.5q0 -108 -30.5 -197.5t-82.5 -153.5t-122 -99t-148 -35zM331 104q26 0 51 15t47.5 42t40.5 63.5t31 79.5h-275
q-1 -14 -1.5 -27.5t-0.5 -27.5q0 -77 29.5 -111t77.5 -34zM419 617q-25 0 -49.5 -14.5t-46.5 -40t-41 -61t-32 -77.5h274q1 12 1.5 24t0.5 24q0 76 -29.5 110.5t-77.5 34.5z" />
    <glyph glyph-name="uni04E9" unicode="&#x4e9;" horiz-adv-x="542" 
d="M328 535q103 0 157 -49t54 -145q0 -79 -19.5 -144.5t-57.5 -112.5t-94 -73t-129 -26q-101 0 -153.5 50t-52.5 146q0 74 18 138.5t55 112.5t92.5 75.5t129.5 27.5zM258 90q39 0 67 36.5t42 94.5h-175q-1 -14 -1.5 -27t-0.5 -27q0 -42 17 -59.5t51 -17.5zM313 430
q-36 0 -62.5 -33.5t-41.5 -84.5h172q1 11 1.5 21t0.5 21q0 41 -17.5 58.5t-52.5 17.5z" />
    <glyph glyph-name="uni04EE" unicode="&#x4ee;" horiz-adv-x="541" 
d="M374 179q-26 -50 -49.5 -86.5t-48.5 -60.5t-54.5 -35.5t-67.5 -11.5q-23 0 -48 5t-42 11l26 118q20 -6 36.5 -9.5t27.5 -3.5q24 0 39 16.5t32 55.5h-63l-49 542h160l20 -419l196 419h165zM290 798l24 112h232l-24 -112h-232z" />
    <glyph glyph-name="uni04EF" unicode="&#x4ef;" horiz-adv-x="512" 
d="M579 520l-276 -531q-27 -51 -49.5 -86t-45.5 -56.5t-49 -31.5t-60 -10q-20 0 -45.5 3t-42.5 8l24 109q22 -6 36 -7.5t22 -1.5q24 0 41 19.5t31 64.5h-43l-49 520h160l3 -399l184 399h159zM232 608l24 112h232l-24 -112h-232z" />
    <glyph glyph-name="Wgrave" unicode="&#x1e80;" horiz-adv-x="864" 
d="M974 720l-281 -720h-198l9 540l-211 -540h-187l10 720h165l-29 -529l202 529h182l-10 -532l186 532h162zM600 773h-116l-101 137h161z" />
    <glyph glyph-name="wgrave" unicode="&#x1e81;" horiz-adv-x="757" 
d="M820 520l-230 -520h-194l24 375l-149 -375h-188l-6 520h156l-24 -386l151 386h186l-26 -388l151 388h149zM519 583h-116l-101 137h161z" />
    <glyph glyph-name="Wacute" unicode="&#x1e82;" horiz-adv-x="864" 
d="M974 720l-281 -720h-198l9 540l-211 -540h-187l10 720h165l-29 -529l202 529h182l-10 -532l186 532h162zM612 910h160l-161 -137h-116z" />
    <glyph glyph-name="wacute" unicode="&#x1e83;" horiz-adv-x="757" 
d="M820 520l-230 -520h-194l24 375l-149 -375h-188l-6 520h156l-24 -386l151 386h186l-26 -388l151 388h149zM518 720h160l-161 -137h-116z" />
    <glyph glyph-name="Wdieresis" unicode="&#x1e84;" horiz-adv-x="864" 
d="M974 720l-281 -720h-198l9 540l-211 -540h-187l10 720h165l-29 -529l202 529h182l-10 -532l186 532h162zM384 782l28 128h142l-28 -128h-142zM583 782l28 128h143l-28 -128h-143z" />
    <glyph glyph-name="wdieresis" unicode="&#x1e85;" horiz-adv-x="757" 
d="M820 520l-230 -520h-194l24 375l-149 -375h-188l-6 520h156l-24 -386l151 386h186l-26 -388l151 388h149zM293 592l28 128h142l-28 -128h-142zM492 592l28 128h143l-28 -128h-143z" />
    <glyph glyph-name="Ygrave" unicode="&#x1ef2;" horiz-adv-x="588" 
d="M176 0l61 287l-124 433h174l59 -288l194 288h161l-308 -433l-61 -287h-156zM480 773h-116l-101 137h161z" />
    <glyph glyph-name="ygrave" unicode="&#x1ef3;" horiz-adv-x="512" 
d="M579 520l-276 -531q-27 -51 -49.5 -86t-45.5 -56.5t-49 -31.5t-60 -10q-20 0 -45.5 3t-42.5 8l24 109q22 -6 36 -7.5t22 -1.5q24 0 41 19.5t31 64.5h-43l-49 520h160l3 -399l184 399h159zM386 583h-116l-101 137h161z" />
    <glyph glyph-name="uni2007" unicode="&#x2007;" 
 />
    <glyph glyph-name="uni2008" unicode="&#x2008;" horiz-adv-x="289" 
 />
    <glyph glyph-name="uni200B" unicode="&#x200b;" horiz-adv-x="0" 
 />
    <glyph glyph-name="figuredash" unicode="&#x2012;" horiz-adv-x="444" 
d="M431 261h-386l26 123h386z" />
    <glyph glyph-name="endash" unicode="&#x2013;" horiz-adv-x="344" 
d="M359 261h-344l26 123h344z" />
    <glyph glyph-name="emdash" unicode="&#x2014;" horiz-adv-x="516" 
d="M531 261h-516l26 123h516z" />
    <glyph glyph-name="afii00208" unicode="&#x2015;" horiz-adv-x="344" 
d="M367 298h-344l26 123h344z" />
    <glyph glyph-name="underscoredbl" unicode="&#x2017;" horiz-adv-x="449" 
d="M387 -149h-468l26 123h468zM352 -322h-468l26 123h468z" />
    <glyph glyph-name="quoteleft" unicode="&#x2018;" horiz-adv-x="270" 
d="M107 517q12 58 37.5 95.5t58 60t70 33t73.5 14.5l-15 -78q-40 -8 -68 -34t-38 -71h63l-33 -157h-177z" />
    <glyph glyph-name="quoteright" unicode="&#x2019;" horiz-adv-x="270" 
d="M317 583q-12 -58 -37.5 -95.5t-58 -60t-70 -33t-73.5 -14.5l15 78q40 8 68 34t38 71h-63l33 157h177z" />
    <glyph glyph-name="quotesinglbase" unicode="&#x201a;" horiz-adv-x="270" 
d="M197 20q-12 -58 -37.5 -95.5t-58 -60t-70 -33t-73.5 -14.5l15 78q40 8 68 34t38 71h-63l33 157h177z" />
    <glyph glyph-name="quotereversed" unicode="&#x201b;" horiz-adv-x="270" 
d="M142 720h177l-34 -157h-63q-3 -15 -3 -28q0 -32 17 -51t47 -26l-17 -78q-29 7 -57 20t-50 33.5t-35.5 48.5t-13.5 65q0 11 1 22t4 24z" />
    <glyph glyph-name="quotedblleft" unicode="&#x201c;" horiz-adv-x="507" 
d="M124 517q12 58 37.5 95.5t58 60t70 33t73.5 14.5l-15 -78q-40 -8 -68 -34t-38 -71h63l-33 -157h-177zM344 517q12 58 37.5 95.5t58 60t70 33t73.5 14.5l-15 -78q-40 -8 -68 -34t-38 -71h63l-33 -157h-177z" />
    <glyph glyph-name="quotedblright" unicode="&#x201d;" horiz-adv-x="507" 
d="M317 583q-12 -58 -37.5 -95.5t-58 -60t-70 -33t-73.5 -14.5l15 78q40 8 68 34t38 71h-63l33 157h177zM537 583q-12 -58 -37.5 -95.5t-58 -60t-70 -33t-73.5 -14.5l15 78q40 8 68 34t38 71h-63l33 157h177z" />
    <glyph glyph-name="quotedblbase" unicode="&#x201e;" horiz-adv-x="490" 
d="M417 20q-12 -58 -37.5 -95.5t-58 -60t-70 -33t-73.5 -14.5l15 78q40 8 68 34t38 71h-63l33 157h177zM197 20q-12 -58 -37.5 -95.5t-58 -60t-70 -33t-73.5 -14.5l15 78q40 8 68 34t38 71h-63l33 157h177z" />
    <glyph glyph-name="dagger" unicode="&#x2020;" 
d="M460 720l-39 -180h142l-26 -123h-142l-88 -417h-135l88 417h-141l26 123h141l39 180h135z" />
    <glyph glyph-name="daggerdbl" unicode="&#x2021;" 
d="M460 720l-32 -149h142l-26 -123h-142l-38 -176h142l-26 -123h-142l-31 -149h-135l31 149h-141l26 123h141l38 176h-141l26 123h141l32 149h135z" />
    <glyph glyph-name="bullet" unicode="&#x2022;" horiz-adv-x="335" 
d="M53 206l48 225h235l-48 -225h-235z" />
    <glyph glyph-name="ellipsis" unicode="&#x2026;" horiz-adv-x="867" 
d="M305 0l33 157h177l-33 -157h-177zM16 0l33 157h177l-33 -157h-177zM594 0l33 157h177l-33 -157h-177z" />
    <glyph glyph-name="perthousand" unicode="&#x2030;" horiz-adv-x="1023" 
d="M861 323q72 0 106.5 -35.5t34.5 -97.5q0 -45 -10.5 -83t-32 -65t-54.5 -42t-78 -15q-72 0 -106.5 35.5t-34.5 97.5q0 45 10.5 82.5t32.5 65t54.5 42.5t77.5 15zM855 245q-19 0 -32 -10t-21 -26.5t-11.5 -39.5t-3.5 -48q0 -29 10.5 -43.5t35.5 -14.5q19 0 32 10t21 27
t12 39.5t4 48.5q0 57 -47 57zM216 0h-116l428 700h116zM245 715q72 0 106.5 -35.5t34.5 -97.5q0 -45 -10.5 -83t-32 -65t-54.5 -42t-78 -15q-72 0 -106.5 35.5t-34.5 97.5q0 45 10.5 82.5t32.5 65t54.5 42.5t77.5 15zM239 637q-19 0 -32 -10t-21 -26.5t-11.5 -39.5t-3.5 -48
q0 -29 10.5 -43.5t35.5 -14.5q19 0 32 10t21 27t12 39.5t4 48.5q0 57 -47 57zM530 323q72 0 106.5 -35.5t34.5 -97.5q0 -45 -10.5 -83t-32 -65t-54.5 -42t-78 -15q-72 0 -106.5 35.5t-34.5 97.5q0 45 10.5 82.5t32.5 65t54.5 42.5t77.5 15zM524 245q-19 0 -32 -10t-21 -26.5
t-11.5 -39.5t-3.5 -48q0 -29 10.5 -43.5t35.5 -14.5q19 0 32 10t21 27t12 39.5t4 48.5q0 57 -47 57z" />
    <glyph glyph-name="minute" unicode="&#x2032;" horiz-adv-x="232" 
d="M218 490h-96l39 153l20 92h122l-20 -92z" />
    <glyph glyph-name="second" unicode="&#x2033;" horiz-adv-x="506" 
d="M226 490h-96l39 153l20 92h122l-20 -92zM388 490h-96l39 153l20 92h122l-20 -92z" />
    <glyph glyph-name="guilsinglleft" unicode="&#x2039;" horiz-adv-x="299" 
d="M60 315l157 205h118l-130 -208l30 -222h-118z" />
    <glyph glyph-name="guilsinglright" unicode="&#x203a;" horiz-adv-x="299" 
d="M139 90h-117l123 222l-41 208h118l69 -205z" />
    <glyph glyph-name="exclamdbl" unicode="&#x203c;" horiz-adv-x="550" 
d="M72 240l79 480h199l-125 -480h-153zM10 0l33 157h174l-33 -157h-174zM347 240l79 480h199l-125 -480h-153zM285 0l33 157h174l-33 -157h-174z" />
    <glyph glyph-name="uni203E" unicode="&#x203e;" horiz-adv-x="449" 
d="M538 559h-468l26 123h468z" />
    <glyph glyph-name="fraction" unicode="&#x2044;" horiz-adv-x="232" 
d="M-161 -90l610 880h128l-609 -880h-129z" />
    <glyph glyph-name="uni2070" unicode="&#x2070;" horiz-adv-x="380" 
d="M199 284q-61 0 -95.5 35t-34.5 107q0 48 10.5 104t35.5 103.5t64.5 79.5t98.5 32q61 0 96 -33.5t35 -107.5q0 -32 -4.5 -68t-15 -71.5t-27 -68t-40 -57.5t-54 -40t-69.5 -15zM208 369q24 0 41 26t28.5 63.5t16.5 80t5 75.5q0 26 -7.5 36.5t-21.5 10.5q-22 0 -39 -26
t-28.5 -64t-17.5 -80t-6 -75q0 -27 7.5 -37t21.5 -10z" />
    <glyph glyph-name="uni2074" unicode="&#x2074;" horiz-adv-x="386" 
d="M345 461h46l-18 -86h-46l-17 -81h-106l17 81h-173l19 93l201 267h136zM167 461h73l47 170z" />
    <glyph glyph-name="uni2075" unicode="&#x2075;" horiz-adv-x="373" 
d="M395 649h-153l-20 -75q17 12 32.5 16t32.5 4q39 0 66.5 -27t27.5 -81q0 -32 -10 -67.5t-32 -65.5t-57 -49.5t-85 -19.5q-72 0 -107 37t-32 94h110q-2 -16 5.5 -29.5t27.5 -13.5q17 0 28.5 11.5t19 28t10.5 34.5t3 31q0 20 -8 28.5t-23 8.5q-11 0 -21 -5t-23 -18h-95
l63 244h258z" />
    <glyph glyph-name="uni2076" unicode="&#x2076;" horiz-adv-x="379" 
d="M287 745q62 0 96.5 -28.5t35.5 -79.5h-111q-1 11 -8.5 17.5t-20.5 6.5q-20 0 -38.5 -22t-36.5 -82q19 20 40 27.5t44 7.5q45 0 72.5 -27.5t27.5 -77.5q0 -32 -10 -67.5t-32 -65.5t-57 -50t-84 -20q-64 0 -101 33t-37 105q0 17 1.5 36t6.5 40q14 66 35 113t48 77
t59.5 43.5t69.5 13.5zM241 506q-17 0 -28.5 -11.5t-18.5 -27.5t-10 -33t-3 -27q0 -23 9.5 -30t20.5 -7q17 0 28.5 11.5t18 27t9 32.5t2.5 29q0 36 -28 36z" />
    <glyph glyph-name="uni2077" unicode="&#x2077;" horiz-adv-x="347" 
d="M54 294l226 352h-175l19 89h287l-19 -88l-210 -353h-128z" />
    <glyph glyph-name="uni2078" unicode="&#x2078;" horiz-adv-x="383" 
d="M283 745q57 0 94 -26.5t37 -73.5q0 -36 -24.5 -68t-70.5 -54q29 -13 46.5 -35.5t17.5 -54.5q0 -21 -9.5 -46.5t-31 -48.5t-56.5 -38.5t-86 -15.5q-72 0 -109 32t-37 77q0 42 25.5 78t83.5 56q-24 13 -37.5 32.5t-13.5 45.5q0 25 9 50t29 45t53 32.5t80 12.5zM274 667
q-15 0 -24.5 -6.5t-15.5 -16t-8.5 -21.5t-2.5 -23q0 -32 32 -45q23 16 34.5 37.5t11.5 44.5q0 14 -8 22t-19 8zM227 494q-27 -18 -39.5 -41.5t-12.5 -46.5q0 -16 8.5 -26.5t24.5 -10.5q26 0 41.5 20t15.5 53q0 19 -10.5 31t-27.5 21z" />
    <glyph glyph-name="uni2079" unicode="&#x2079;" horiz-adv-x="379" 
d="M272 745q65 0 102.5 -30.5t37.5 -101.5q0 -18 -2.5 -38t-7.5 -43q-28 -131 -78.5 -189.5t-131.5 -58.5q-63 0 -99.5 29.5t-37.5 79.5h115q0 -12 8.5 -18.5t20.5 -6.5q23 0 41 22.5t35 83.5q-36 -37 -82 -37t-74.5 28.5t-28.5 79.5q0 30 9.5 65t31.5 65t56.5 50t84.5 20z
M266 658q-17 0 -28 -10.5t-18 -25.5t-10 -32t-3 -31q0 -20 8.5 -28t22.5 -8q18 0 29.5 12.5t18 29t9 33.5t2.5 27q0 20 -9 26.5t-22 6.5z" />
    <glyph glyph-name="uni207F" unicode="&#x207f;" horiz-adv-x="374" 
d="M317 726q43 0 66.5 -21t23.5 -69q0 -12 -2 -25.5t-5 -29.5l-49 -230h-124l50 233q3 13 3 24q0 14 -6.5 19.5t-18.5 5.5q-20 0 -34.5 -14t-22.5 -47l-47 -221h-123l77 364h106v-36q25 26 51 36.5t55 10.5z" />
    <glyph glyph-name="franc" unicode="&#x20a3;" horiz-adv-x="542" 
d="M350 577l-35 -164h197l-25 -118h-197l-14 -67h101l-23 -108h-101l-26 -120h-167l25 120h-49l23 108h49l99 472h394l-26 -123h-225z" />
    <glyph glyph-name="lira" unicode="&#x20a4;" horiz-adv-x="559" 
d="M408 715q81 0 128.5 -40t47.5 -112q0 -16 -3 -34h-140q0 5 0.5 8.5t0.5 7.5q0 27 -10 39t-31 12q-26 0 -42.5 -20.5t-28.5 -71.5l-9 -39h152l-21 -98h-152l-10 -51h127l-22 -104h-138l-3 -13q-5 -23 -18.5 -42t-36.5 -30h290l-27 -127h-442l27 124q23 7 37.5 22t21.5 44
l5 22h-50l22 104h50l11 51h-50l21 98h49l8 36q23 108 79 161t157 53z" />
    <glyph glyph-name="peseta" unicode="&#x20a7;" horiz-adv-x="1082" 
d="M933 296q2 42 -44 42q-23 0 -35.5 -11t-12.5 -31q0 -13 13.5 -21.5t47.5 -18.5q69 -20 95.5 -49t26.5 -66q0 -26 -9 -54t-31.5 -50.5t-61 -37t-97.5 -14.5q-32 0 -57 6t-44 17q-36 -15 -62 -19t-47 -4q-31 0 -52.5 8t-35 21t-19.5 30t-6 35q0 15 5 33l44 207h-75
q-36 -29 -89.5 -46t-128.5 -17h-30l-55 -256h-160l149 700h163q118 0 181.5 -44t63.5 -127q0 -29 -5 -58t-18 -58h24l32 100h114l-21 -100h116q34 12 86 12q36 0 65.5 -9t50 -26t31.5 -41t10 -53h-122zM276 374q39 0 64.5 13t41 33.5t22 44.5t6.5 45q0 34 -24 52.5t-69 18.5
h-20l-44 -207h23zM837 72q23 0 41 11.5t18 37.5q0 15 -12.5 26t-46.5 20q-69 19 -97 46.5t-28 63.5q0 19 5 42h-40l-44 -205q-3 -9 -3 -18t5.5 -14t19.5 -5q3 0 7 0.5t9 1.5q-3 10 -4 20t-1 21h122q0 -25 11.5 -36.5t37.5 -11.5z" />
    <glyph glyph-name="Euro" unicode="&#x20ac;" 
d="M389 326l-36 -94h-110q-1 -11 -1.5 -20t-0.5 -17q0 -52 17 -72t48 -20q29 0 48 17.5t31 52.5h147q-13 -41 -36 -75.5t-54 -59.5t-70.5 -39t-85.5 -14q-99 0 -149.5 60.5t-50.5 186.5h-54l36 94h27q2 14 5 26.5t8 29.5h-44l36 94h37q45 125 108.5 182t159.5 57
q46 0 83 -14.5t63 -40t38 -57.5t12 -65q0 -7 -1 -14h-148q3 35 -12 54.5t-43 19.5q-32 0 -55 -29t-43 -93h145l-36 -94h-139l-5 -17q-1 -5 -3 -13q-3 -11 -4 -26h132z" />
    <glyph glyph-name="afii61248" unicode="&#x2105;" horiz-adv-x="884" 
d="M95 -90l610 880h128l-609 -880h-129zM423 484q-23 -64 -67.5 -104t-119.5 -40q-72 0 -109 34t-37 99q0 41 11.5 85.5t37 82t66 61.5t99.5 24q70 0 107 -36t34 -98h-121q0 25 -8 34.5t-22 9.5q-21 0 -36 -18t-24 -44t-13.5 -54t-4.5 -48t7.5 -31t23.5 -11q19 0 30 12.5
t20 41.5h126zM722 376q71 0 111.5 -33.5t40.5 -102.5q0 -40 -11.5 -84t-37 -81t-66.5 -61t-101 -24q-72 0 -111.5 34.5t-39.5 102.5q0 40 10.5 84t35.5 80.5t66.5 60.5t102.5 24zM712 287q-21 0 -36.5 -19t-25 -44.5t-14 -51.5t-4.5 -41q0 -28 9 -40t29 -12q22 0 37 19
t24.5 44.5t14 51.5t4.5 41q0 30 -9 41t-29 11z" />
    <glyph glyph-name="afii61289" unicode="&#x2113;" horiz-adv-x="519" 
d="M557 610q0 -43 -15 -91t-51.5 -99t-97 -104.5t-150.5 -108.5q0 -34 5 -55.5t13.5 -34t21 -17t28.5 -4.5q18 0 41 7.5t40 19.5l24 -101q-27 -15 -57.5 -26t-74.5 -11q-65 0 -108.5 38t-54.5 117q-20 -11 -42 -20.5t-45 -20.5l26 121q31 15 60 30q3 53 13 109.5t26.5 110
t40.5 102t56.5 84.5t73.5 57.5t91 21.5q34 0 59.5 -9.5t42.5 -26.5t25.5 -40t8.5 -49zM253 333q55 40 90.5 78.5t56 72.5t28.5 62.5t8 49.5q0 17 -9.5 26.5t-23.5 9.5q-29 0 -53 -27.5t-43 -70.5t-32.5 -96.5t-21.5 -104.5z" />
    <glyph glyph-name="afii61352" unicode="&#x2116;" horiz-adv-x="1079" 
d="M687 720l-153 -720h-167l-113 502l-107 -502h-141l153 720h181l102 -491l104 491h141zM987 0h-350l26 123h350zM950 735q31 0 60 -7t51.5 -25t36 -49t13.5 -80q0 -72 -16.5 -125t-46 -87t-71 -50.5t-91.5 -16.5q-32 0 -61 7.5t-51 26t-35.5 50t-13.5 79.5
q0 130 57.5 203.5t167.5 73.5zM936 641q-23 0 -36.5 -25t-21 -58t-10 -66.5t-2.5 -51.5q0 -51 35 -51q22 0 36 24.5t21.5 57t10 65.5t2.5 50q0 29 -8 42t-27 13z" />
    <glyph glyph-name="trademark" unicode="&#x2122;" horiz-adv-x="730" 
d="M569 324l-57 236v-236h-110v300h-68v-300h-115v300h-103v96h440l61 -245l50 245h164v-396h-111v236l-59 -236h-92z" />
    <glyph glyph-name="Omega" unicode="&#x2126;" horiz-adv-x="678" 
d="M361 121q27 0 49.5 18.5t41 48.5t32.5 67.5t23.5 77t14 76.5t4.5 65q0 78 -28.5 110.5t-76.5 32.5q-42 0 -78 -31t-62.5 -82t-41.5 -117.5t-15 -136.5q0 -36 6.5 -61t16 -40t20.5 -21.5t20 -6.5l-25 -121h-242l25 121h72q-27 26 -42 66.5t-15 94.5q0 105 31 189
t83.5 142.5t122.5 90t148 31.5q55 0 101.5 -15.5t80 -47t52 -79.5t18.5 -114q0 -51 -10.5 -103t-31.5 -99.5t-52.5 -88t-73.5 -67.5h76l-25 -121h-244z" />
    <glyph glyph-name="estimated" unicode="&#x212e;" horiz-adv-x="945" 
d="M218 339v-218q16 -24 44.5 -42t63.5 -30t73.5 -18.5t73.5 -6.5t72.5 6t72 18.5t64.5 31t51 42.5h58q-55 -64 -134.5 -100.5t-184.5 -36.5q-86 0 -159.5 27t-127.5 75t-84.5 114.5t-30.5 145.5t31.5 146t86.5 116.5t128 77.5t156 28q80 0 153 -27.5t128.5 -77t88.5 -118.5
t33 -153h-657zM727 574q-42 46 -104 74t-150 28t-152.5 -27t-102.5 -74v-196h509v195z" />
    <glyph glyph-name="onethird" unicode="&#x2153;" horiz-adv-x="893" 
d="M90 -90l610 880h128l-609 -880h-129zM280 294h-116l69 327l-102 -46l23 106l118 54h102zM753 445q57 0 93.5 -25.5t36.5 -71.5q0 -38 -24 -72.5t-82 -48.5q34 -9 52 -33t18 -53q0 -27 -9.5 -54.5t-30.5 -50t-55 -37t-82 -14.5q-44 0 -72 12t-43 31t-20.5 43t-4.5 48h114
q-1 -19 6.5 -33t27.5 -14q26 0 38.5 21t12.5 48q0 23 -13 32.5t-30 9.5h-27l17 80h29q15 0 26 7t18 17.5t10 23t3 22.5q0 14 -6.5 20t-17.5 6q-17 0 -27 -10.5t-17 -29.5h-111q20 60 62.5 93t107.5 33z" />
    <glyph glyph-name="twothirds" unicode="&#x2154;" horiz-adv-x="945" 
d="M142 -90l610 880h128l-609 -880h-129zM145 605q22 64 69.5 102t114.5 38q62 0 96.5 -30t34.5 -75q0 -24 -6.5 -45t-22.5 -44t-44.5 -49t-71.5 -59l-70 -53h161l-20 -96h-296l20 94l114 94q38 31 61.5 53t36 38.5t17 29.5t4.5 27q0 25 -28 25q-17 0 -31 -11t-24 -39h-115z
M805 445q57 0 93.5 -25.5t36.5 -71.5q0 -38 -24 -72.5t-82 -48.5q34 -9 52 -33t18 -53q0 -27 -9.5 -54.5t-30.5 -50t-55 -37t-82 -14.5q-44 0 -72 12t-43 31t-20.5 43t-4.5 48h114q-1 -19 6.5 -33t27.5 -14q26 0 38.5 21t12.5 48q0 23 -13 32.5t-30 9.5h-27l17 80h29
q15 0 26 7t18 17.5t10 23t3 22.5q0 14 -6.5 20t-17.5 6q-17 0 -27 -10.5t-17 -29.5h-111q20 60 62.5 93t107.5 33z" />
    <glyph glyph-name="oneeighth" unicode="&#x215b;" horiz-adv-x="895" 
d="M90 -90l610 880h128l-609 -880h-129zM280 294h-116l69 327l-102 -46l23 106l118 54h102zM754 447q57 0 94 -26.5t37 -73.5q0 -36 -24.5 -68t-70.5 -54q29 -13 46.5 -35.5t17.5 -54.5q0 -21 -9.5 -46.5t-31 -48.5t-56.5 -38.5t-86 -15.5q-72 0 -109 32t-37 77
q0 42 25.5 78t83.5 56q-24 13 -37.5 32.5t-13.5 45.5q0 25 9 50t29 45t53 32.5t80 12.5zM745 369q-15 0 -24.5 -6.5t-15.5 -16t-8.5 -21.5t-2.5 -23q0 -32 32 -45q23 16 34.5 37.5t11.5 44.5q0 14 -8 22t-19 8zM698 196q-27 -18 -39.5 -41.5t-12.5 -46.5q0 -16 8.5 -26.5
t24.5 -10.5q26 0 41.5 20t15.5 53q0 19 -10.5 31t-27.5 21z" />
    <glyph glyph-name="threeeighths" unicode="&#x215c;" horiz-adv-x="941" 
d="M136 -90l610 880h128l-609 -880h-129zM800 447q57 0 94 -26.5t37 -73.5q0 -36 -24.5 -68t-70.5 -54q29 -13 46.5 -35.5t17.5 -54.5q0 -21 -9.5 -46.5t-31 -48.5t-56.5 -38.5t-86 -15.5q-72 0 -109 32t-37 77q0 42 25.5 78t83.5 56q-24 13 -37.5 32.5t-13.5 45.5
q0 25 9 50t29 45t53 32.5t80 12.5zM791 369q-15 0 -24.5 -6.5t-15.5 -16t-8.5 -21.5t-2.5 -23q0 -32 32 -45q23 16 34.5 37.5t11.5 44.5q0 14 -8 22t-19 8zM744 196q-27 -18 -39.5 -41.5t-12.5 -46.5q0 -16 8.5 -26.5t24.5 -10.5q26 0 41.5 20t15.5 53q0 19 -10.5 31
t-27.5 21zM314 745q57 0 93.5 -25.5t36.5 -71.5q0 -38 -24 -72.5t-82 -48.5q34 -9 52 -33t18 -53q0 -27 -9.5 -54.5t-30.5 -50t-55 -37t-82 -14.5q-44 0 -72 12t-43 31t-20.5 43t-4.5 48h114q-1 -19 6.5 -33t27.5 -14q26 0 38.5 21t12.5 48q0 23 -13 32.5t-30 9.5h-27l17 80
h29q15 0 26 7t18 17.5t10 23t3 22.5q0 14 -6.5 20t-17.5 6q-17 0 -27 -10.5t-17 -29.5h-111q20 60 62.5 93t107.5 33z" />
    <glyph glyph-name="fiveeighths" unicode="&#x215d;" horiz-adv-x="942" 
d="M137 -90l610 880h128l-609 -880h-129zM801 447q57 0 94 -26.5t37 -73.5q0 -36 -24.5 -68t-70.5 -54q29 -13 46.5 -35.5t17.5 -54.5q0 -21 -9.5 -46.5t-31 -48.5t-56.5 -38.5t-86 -15.5q-72 0 -109 32t-37 77q0 42 25.5 78t83.5 56q-24 13 -37.5 32.5t-13.5 45.5
q0 25 9 50t29 45t53 32.5t80 12.5zM792 369q-15 0 -24.5 -6.5t-15.5 -16t-8.5 -21.5t-2.5 -23q0 -32 32 -45q23 16 34.5 37.5t11.5 44.5q0 14 -8 22t-19 8zM745 196q-27 -18 -39.5 -41.5t-12.5 -46.5q0 -16 8.5 -26.5t24.5 -10.5q26 0 41.5 20t15.5 53q0 19 -10.5 31
t-27.5 21zM428 649h-153l-20 -75q17 12 32.5 16t32.5 4q39 0 66.5 -27t27.5 -81q0 -32 -10 -67.5t-32 -65.5t-57 -49.5t-85 -19.5q-72 0 -107 37t-32 94h110q-2 -16 5.5 -29.5t27.5 -13.5q17 0 28.5 11.5t19 28t10.5 34.5t3 31q0 20 -8 28.5t-23 8.5q-11 0 -21 -5t-23 -18
h-95l63 244h258z" />
    <glyph glyph-name="seveneighths" unicode="&#x215e;" horiz-adv-x="895" 
d="M90 -90l610 880h128l-609 -880h-129zM754 447q57 0 94 -26.5t37 -73.5q0 -36 -24.5 -68t-70.5 -54q29 -13 46.5 -35.5t17.5 -54.5q0 -21 -9.5 -46.5t-31 -48.5t-56.5 -38.5t-86 -15.5q-72 0 -109 32t-37 77q0 42 25.5 78t83.5 56q-24 13 -37.5 32.5t-13.5 45.5q0 25 9 50
t29 45t53 32.5t80 12.5zM745 369q-15 0 -24.5 -6.5t-15.5 -16t-8.5 -21.5t-2.5 -23q0 -32 32 -45q23 16 34.5 37.5t11.5 44.5q0 14 -8 22t-19 8zM698 196q-27 -18 -39.5 -41.5t-12.5 -46.5q0 -16 8.5 -26.5t24.5 -10.5q26 0 41.5 20t15.5 53q0 19 -10.5 31t-27.5 21z
M120 294l226 352h-175l19 89h287l-19 -88l-210 -353h-128z" />
    <glyph glyph-name="arrowleft" unicode="&#x2190;" horiz-adv-x="600" 
d="M222 426h358v-118h-358l151 -194h-157l-196 253l196 253h157z" />
    <glyph glyph-name="arrowup" unicode="&#x2191;" horiz-adv-x="600" 
d="M364 446v-359h-128v359l-189 -147v152l253 196l253 -196v-152z" />
    <glyph glyph-name="arrowright" unicode="&#x2192;" horiz-adv-x="600" 
d="M378 308h-358v118h358l-151 194h157l196 -253l-196 -253h-157z" />
    <glyph glyph-name="arrowdown" unicode="&#x2193;" horiz-adv-x="600" 
d="M236 288v359h128v-359l189 147v-152l-253 -196l-253 196v152z" />
    <glyph glyph-name="arrowboth" unicode="&#x2194;" horiz-adv-x="900" 
d="M222 426h456l-151 194h157l196 -253l-196 -253h-157l151 194h-456l151 -194h-157l-196 253l196 253h157z" />
    <glyph glyph-name="arrowupdn" unicode="&#x2195;" horiz-adv-x="600" 
d="M364 596v-458l189 147v-152l-253 -196l-253 196v152l189 -147v458l-189 -147v152l253 196l253 -196v-152z" />
    <glyph glyph-name="uni2196" unicode="&#x2196;" horiz-adv-x="600" 
d="M288 471l256 -256l-92 -92l-248 248l-29 -232l-113 108l40 318l318 40l107 -104z" />
    <glyph glyph-name="uni2197" unicode="&#x2197;" horiz-adv-x="600" 
d="M402 371l-248 -248l-92 92l256 256l-239 30l107 104l318 -40l40 -318l-113 -108z" />
    <glyph glyph-name="uni2198" unicode="&#x2198;" horiz-adv-x="600" 
d="M318 256l-256 257l92 92l248 -248l29 232l113 -108l-40 -318l-318 -40l-107 104z" />
    <glyph glyph-name="uni2199" unicode="&#x2199;" horiz-adv-x="600" 
d="M204 357l248 248l92 -92l-256 -256l239 -30l-107 -104l-318 40l-40 318l113 108z" />
    <glyph glyph-name="arrowupdnbse" unicode="&#x21a8;" horiz-adv-x="600" 
d="M572 -233h-544v123h544v-123zM364 596v-458l189 147v-152l-253 -196l-253 196v152l189 -147v458l-189 -147v152l253 196l253 -196v-152z" />
    <glyph glyph-name="partialdiff" unicode="&#x2202;" horiz-adv-x="512" 
d="M187 753q70 -6 131 -31t106.5 -66t72 -96.5t26.5 -122.5q0 -92 -17 -174.5t-51 -144t-86.5 -97.5t-122.5 -36q-103 0 -160 48.5t-57 139.5q0 63 15.5 119t45 98.5t72 67.5t95.5 25q66 0 101 -40q2 46 -7.5 80t-33 58.5t-61 40.5t-91.5 28zM287 370q-24 0 -43 -17.5
t-32 -47t-20 -67.5t-7 -79q0 -36 15.5 -48.5t46.5 -12.5q17 0 34.5 15.5t31.5 42.5t23 65t9 83q0 35 -15 50.5t-43 15.5z" />
    <glyph glyph-name="Delta" unicode="&#x2206;" horiz-adv-x="601" 
d="M-40 0l359 720h186l56 -720h-601zM175 110h206l-4 467z" />
    <glyph glyph-name="product" unicode="&#x220f;" horiz-adv-x="517" 
d="M584 578h-38l-122 -578h-153l122 578h-104l-122 -578h-154l122 578h-38l26 122h487z" />
    <glyph glyph-name="summation" unicode="&#x2211;" horiz-adv-x="516" 
d="M247 604l97 -329l-229 -333h334l-25 -114h-487l24 114l238 333l-98 329l25 116h488l-25 -116h-342z" />
    <glyph glyph-name="minus" unicode="&#x2212;" 
d="M488 261h-386l26 123h386z" />
    <glyph glyph-name="uni2215" unicode="&#x2215;" horiz-adv-x="232" 
d="M-64 -90h-108l531 880h108z" />
    <glyph glyph-name="uni2219" unicode="&#x2219;" horiz-adv-x="222" 
d="M68 248l30 142h158l-30 -142h-158z" />
    <glyph glyph-name="radical" unicode="&#x221a;" horiz-adv-x="540" 
d="M105 0l-65 460h148l25 -291l297 633h236l-24 -112h-113l-349 -690h-155z" />
    <glyph glyph-name="infinity" unicode="&#x221e;" horiz-adv-x="600" 
d="M241 533q41 0 68.5 -23t43.5 -63q35 43 75.5 64.5t78.5 21.5q36 0 61.5 -11t42.5 -30t25 -44.5t8 -55.5q0 -46 -15 -87t-43 -71.5t-68 -48.5t-91 -18q-42 0 -68.5 22.5t-42.5 62.5q-36 -42 -77 -63.5t-79 -21.5q-35 0 -61 11t-42.5 30t-24.5 44.5t-8 54.5q0 46 15 87
t42.5 72t68 49t91.5 18zM443 274q12 0 23 9t19.5 24t14 33.5t5.5 37.5q0 23 -8.5 35.5t-19.5 12.5q-16 0 -38 -16t-48 -61q-3 -30 13 -52.5t39 -22.5zM225 426q-12 0 -23 -9t-19.5 -24t-14 -33.5t-5.5 -37.5q0 -23 8.5 -35.5t19.5 -12.5q16 0 37.5 16t47.5 61
q3 30 -12.5 52.5t-38.5 22.5z" />
    <glyph glyph-name="orthogonal" unicode="&#x221f;" horiz-adv-x="735" 
d="M206 144h479v-144h-635v660h156v-516z" />
    <glyph glyph-name="intersection" unicode="&#x2229;" horiz-adv-x="600" 
d="M300 579q48 0 90 -18t73.5 -49.5t49.5 -73.5t18 -90v-310h-138v310q0 51 -24 81t-69 30t-69 -30t-24 -81v-310h-138v310q0 48 18 90t49.5 73.5t73.5 49.5t90 18z" />
    <glyph glyph-name="integral" unicode="&#x222b;" horiz-adv-x="516" 
d="M12 -52q10 -1 17.5 -2t14.5 -1.5t14 -0.5h17q25 0 41 11t23 43l163 765q10 48 30 80t47 51.5t58 27.5t64 8q22 0 37 -0.5t27 -1t21.5 -1.5t21.5 -2l-24 -113q-20 2 -31.5 3t-30.5 1q-26 0 -42 -11t-23 -43l-163 -765q-10 -48 -30 -80t-47 -51.5t-58.5 -27.5t-64.5 -8
q-22 0 -37 0.5t-26 1t-21 1.5t-22 2z" />
    <glyph glyph-name="approxequal" unicode="&#x2248;" 
d="M390 341q-26 0 -45.5 8.5t-36 19t-32.5 19t-36 8.5q-33 0 -65 -15.5t-55 -34.5l27 127q19 15 52.5 27.5t71.5 12.5q27 0 46 -8.5t35.5 -19t33 -19t36.5 -8.5q32 0 63.5 15.5t54.5 34.5l-27 -127q-19 -15 -52 -27.5t-71 -12.5zM347 137q-26 0 -45.5 8.5t-36 19t-33 19
t-36.5 8.5q-33 0 -64.5 -15.5t-54.5 -34.5l27 127q19 15 52 27.5t71 12.5q27 0 46 -8.5t35.5 -19t33 -19t36.5 -8.5q32 0 64 15.5t55 34.5l-27 -127q-19 -15 -52 -27.5t-71 -12.5z" />
    <glyph glyph-name="notequal" unicode="&#x2260;" 
d="M467 158h-215l-79 -118h-125l79 118h-47l26 123h116l50 82h-148l26 123h215l76 114h125l-76 -114h47l-26 -123h-115l-50 -82h147z" />
    <glyph glyph-name="equivalence" unicode="&#x2261;" 
d="M510 363h-386l26 123h386zM466 158h-386l26 123h386zM422 -47h-386l26 123h386z" />
    <glyph glyph-name="lessequal" unicode="&#x2264;" 
d="M134 412l424 180l-31 -148l-235 -89l-1 -7l202 -65l-30 -138l-354 150zM433 0h-386l26 123h386z" />
    <glyph glyph-name="greaterequal" unicode="&#x2265;" 
d="M495 295l-418 -150l32 148l231 65l1 7l-198 89l29 138l348 -180zM73 123h386l-26 -123h-386z" />
    <glyph glyph-name="dotmath" unicode="&#x22c5;" horiz-adv-x="270" 
d="M68 248l30 142h158l-30 -142h-158z" />
    <glyph glyph-name="star" unicode="&#x22c6;" horiz-adv-x="600" 
d="M300 738l131 -126l182 -25l-17 -182l94 -157l-153 -100l-64 -170l-173 56l-174 -56l-64 170l-152 100l93 157l-16 182l181 25z" />
    <glyph glyph-name="house" unicode="&#x2302;" horiz-adv-x="722" 
d="M672 370v-370h-622v370l311 277zM185 117h352v215l-176 153l-176 -153v-215z" />
    <glyph glyph-name="revlogicalnot" unicode="&#x2310;" 
d="M531 380l-25 -118h-258l-34 -159h-126l59 277h384z" />
    <glyph glyph-name="integraltp" unicode="&#x2320;" horiz-adv-x="489" 
d="M533 931q35 0 63.5 -4t52.5 -10l-25 -111q-25 5 -39 6t-27 1q-23 0 -36 -11.5t-19 -39.5l-207 -972h-154l207 974q17 81 62.5 124t121.5 43z" />
    <glyph glyph-name="integralbt" unicode="&#x2321;" horiz-adv-x="489" 
d="M332 -2q-17 -81 -60.5 -124t-118.5 -43q-35 0 -66.5 4.5t-54.5 12.5l25 108q24 -5 38.5 -6t27.5 -1q22 0 35 11.5t19 39.5l198 930h155z" />
    <glyph glyph-name="SF100000" unicode="&#x2500;" 
d="M-5 395h570v-86h-570v86z" />
    <glyph glyph-name="SF110000" unicode="&#x2502;" 
d="M237 1000h86v-1362h-86v1362z" />
    <glyph glyph-name="SF010000" unicode="&#x250c;" 
d="M237 395h328v-86h-242v-671h-86v757z" />
    <glyph glyph-name="SF030000" unicode="&#x2510;" 
d="M-5 395h328v-757h-86v671h-242v86z" />
    <glyph glyph-name="SF020000" unicode="&#x2514;" 
d="M237 1000h86v-605h242v-86h-328v691z" />
    <glyph glyph-name="SF040000" unicode="&#x2518;" 
d="M-5 395h242v605h86v-691h-328v86z" />
    <glyph glyph-name="SF080000" unicode="&#x251c;" 
d="M237 1000h86v-605h242v-86h-242v-671h-86v1362z" />
    <glyph glyph-name="SF090000" unicode="&#x2524;" 
d="M-5 395h242v605h86v-1362h-86v671h-242v86z" />
    <glyph glyph-name="SF060000" unicode="&#x252c;" 
d="M-5 395h570v-86h-242v-671h-86v671h-242v86z" />
    <glyph glyph-name="SF070000" unicode="&#x2534;" 
d="M-5 395h242v605h86v-605h242v-86h-570v86z" />
    <glyph glyph-name="SF050000" unicode="&#x253c;" 
d="M-5 395h242v605h86v-605h242v-86h-242v-671h-86v671h-242v86z" />
    <glyph glyph-name="SF430000" unicode="&#x2550;" 
d="M-5 309h570v-86h-570v86zM565 395h-570v86h570v-86z" />
    <glyph glyph-name="SF240000" unicode="&#x2551;" 
d="M323 -362v1362h86v-1362h-86zM151 1000h86v-1362h-86v1362z" />
    <glyph glyph-name="SF510000" unicode="&#x2552;" 
d="M565 395h-242v-86h242v-86h-242v-585h-86v843h328v-86z" />
    <glyph glyph-name="SF520000" unicode="&#x2553;" 
d="M323 -362v671h-86v-671h-86v757h414v-86h-156v-671h-86z" />
    <glyph glyph-name="SF390000" unicode="&#x2554;" 
d="M151 481h414v-86h-328v-757h-86v843zM323 -362v671h242v-86h-156v-585h-86z" />
    <glyph glyph-name="SF220000" unicode="&#x2555;" 
d="M-5 309h242v86h-242v86h328v-843h-86v585h-242v86z" />
    <glyph glyph-name="SF210000" unicode="&#x2556;" 
d="M-5 395h414v-757h-86v671h-86v-671h-86v671h-156v86z" />
    <glyph glyph-name="SF250000" unicode="&#x2557;" 
d="M323 -362v757h-328v86h414v-843h-86zM-5 309h242v-671h-86v585h-156v86z" />
    <glyph glyph-name="SF500000" unicode="&#x2558;" 
d="M565 395h-242v-86h242v-86h-328v777h86v-519h242v-86z" />
    <glyph glyph-name="SF490000" unicode="&#x2559;" 
d="M151 1000h86v-605h86v605h86v-605h156v-86h-414v691z" />
    <glyph glyph-name="SF380000" unicode="&#x255a;" 
d="M565 309v-86h-414v777h86v-691h328zM565 395h-242v605h86v-519h156v-86z" />
    <glyph glyph-name="SF280000" unicode="&#x255b;" 
d="M-5 309h242v86h-242v86h242v519h86v-777h-328v86z" />
    <glyph glyph-name="SF270000" unicode="&#x255c;" 
d="M-5 395h156v605h86v-605h86v605h86v-691h-414v86z" />
    <glyph glyph-name="SF260000" unicode="&#x255d;" 
d="M-5 309h328v691h86v-777h-414v86zM151 1000h86v-605h-242v86h156v519z" />
    <glyph glyph-name="SF360000" unicode="&#x255e;" 
d="M565 395h-242v-86h242v-86h-242v-585h-86v1362h86v-519h242v-86z" />
    <glyph glyph-name="SF370000" unicode="&#x255f;" 
d="M323 -362v1362h86v-605h156v-86h-156v-671h-86zM151 1000h86v-1362h-86v1362z" />
    <glyph glyph-name="SF420000" unicode="&#x2560;" 
d="M151 1000h86v-1362h-86v1362zM323 -362v671h242v-86h-156v-585h-86zM565 395h-242v605h86v-519h156v-86z" />
    <glyph glyph-name="SF190000" unicode="&#x2561;" 
d="M-5 309h242v86h-242v86h242v519h86v-1362h-86v585h-242v86z" />
    <glyph glyph-name="SF200000" unicode="&#x2562;" 
d="M151 -362v671h-156v86h156v605h86v-1362h-86zM323 -362v1362h86v-1362h-86z" />
    <glyph glyph-name="SF230000" unicode="&#x2563;" 
d="M323 -362v1362h86v-1362h-86zM-5 309h242v-671h-86v585h-156v86zM151 1000h86v-605h-242v86h156v519z" />
    <glyph glyph-name="SF470000" unicode="&#x2564;" 
d="M-5 309h570v-86h-242v-585h-86v585h-242v86zM565 395h-570v86h570v-86z" />
    <glyph glyph-name="SF480000" unicode="&#x2565;" 
d="M-5 395h570v-86h-156v-671h-86v671h-86v-671h-86v671h-156v86z" />
    <glyph glyph-name="SF410000" unicode="&#x2566;" 
d="M-5 309h242v-671h-86v585h-156v86zM323 -362v671h242v-86h-156v-585h-86zM565 395h-570v86h570v-86z" />
    <glyph glyph-name="SF450000" unicode="&#x2567;" 
d="M565 395h-570v86h242v519h86v-519h242v-86zM-5 309h570v-86h-570v86z" />
    <glyph glyph-name="SF460000" unicode="&#x2568;" 
d="M-5 395h156v605h86v-605h86v605h86v-605h156v-86h-570v86z" />
    <glyph glyph-name="SF400000" unicode="&#x2569;" 
d="M565 395h-242v605h86v-519h156v-86zM151 1000h86v-605h-242v86h156v519zM-5 309h570v-86h-570v86z" />
    <glyph glyph-name="SF540000" unicode="&#x256a;" 
d="M565 395h-242v-86h242v-86h-242v-585h-86v585h-242v86h242v86h-242v86h242v519h86v-519h242v-86z" />
    <glyph glyph-name="SF530000" unicode="&#x256b;" 
d="M-5 395h156v605h86v-605h86v605h86v-605h156v-86h-156v-671h-86v671h-86v-671h-86v671h-156v86z" />
    <glyph glyph-name="SF440000" unicode="&#x256c;" 
d="M-5 309h242v-671h-86v585h-156v86zM323 -362v671h242v-86h-156v-585h-86zM565 395h-242v605h86v-519h156v-86zM151 1000h86v-605h-242v86h156v519z" />
    <glyph glyph-name="upblock" unicode="&#x2580;" 
d="M560 319h-560v681h560v-681z" />
    <glyph glyph-name="dnblock" unicode="&#x2584;" 
d="M0 319h560v-681h-560v681z" />
    <glyph glyph-name="block" unicode="&#x2588;" 
d="M0 1000h560v-1362h-560v1362z" />
    <glyph glyph-name="lfblock" unicode="&#x258c;" 
d="M0 1000h280v-1362h-280v1362z" />
    <glyph glyph-name="rtblock" unicode="&#x2590;" 
d="M280 -362v1362h280v-1362h-280z" />
    <glyph glyph-name="ltshade" unicode="&#x2591;" 
d="M448 -292v-68h-56v68h56zM336 -156v-68h-56v68h56zM112 252v-68h-56v68h56zM336 116v-68h-56v68h56zM336 252v-68h-56v68h56zM336 388v-68h-56v68h56zM336 524v-68h-56v68h56zM336 660v-68h-56v68h56zM336 796v-68h-56v68h56zM336 932v-68h-56v68h56zM448 -20v-68h-56v68
h56zM112 -156v-68h-56v68h56zM112 524v-68h-56v68h56zM112 116v-68h-56v68h56zM336 -20v-68h-56v68h56zM112 388v-68h-56v68h56zM224 -20v-68h-56v68h56zM112 660v-68h-56v68h56zM112 796v-68h-56v68h56zM112 932v-68h-56v68h56zM112 -292v-68h-56v68h56zM224 932v-68h-56
v68h56zM224 796v-68h-56v68h56zM224 660v-68h-56v68h56zM224 524v-68h-56v68h56zM224 388v-68h-56v68h56zM448 524v-68h-56v68h56zM224 116v-68h-56v68h56zM112 -20v-68h-56v68h56zM224 -156v-68h-56v68h56zM336 -292v-68h-56v68h56zM448 932v-68h-56v68h56zM448 796v-68
h-56v68h56zM448 660v-68h-56v68h56zM224 252v-68h-56v68h56zM448 388v-68h-56v68h56zM448 252v-68h-56v68h56zM448 116v-68h-56v68h56zM224 -292v-68h-56v68h56zM448 -156v-68h-56v68h56zM560 -292v-68h-56v68h56zM560 -156v-68h-56v68h56zM560 -20v-68h-56v68h56zM560 116
v-68h-56v68h56zM560 252v-68h-56v68h56zM560 388v-68h-56v68h56zM560 524v-68h-56v68h56zM560 660v-68h-56v68h56zM560 796v-68h-56v68h56zM560 932v-68h-56v68h56z" />
    </font>
</defs>
</svg>
