<?xml version="1.0" standalone="no"?>
<!DOCTYPE svg PUBLIC "-//W3C//DTD SVG 1.1//EN" "http://www.w3.org/Graphics/SVG/1.1/DTD/svg11.dtd" >
<svg>
<metadata>
Created by FontForge 20120731 at Mon Mar 31 14:10:17 2014
 By tam,,,
(URW)++,Copyright 2013 by (URW)++ Design &#38; Development
</metadata>
<defs>
<font id="CiscoSansThai-Regular" horiz-adv-x="1229" >
  <font-face 
    font-family="CiscoSansThai"
    font-weight="400"
    font-stretch="normal"
    units-per-em="2048"
    panose-1="0 0 0 0 0 0 0 0 0 0"
    ascent="1536"
    descent="-512"
    x-height="1065"
    cap-height="1475"
    bbox="-1413 -1039.01 2450 2336"
    underline-thickness="297"
    underline-position="813"
    unicode-range="U+0020-FEFF"
  />
<missing-glyph horiz-adv-x="614" 
d="M61 0v1475h492v-1475h-492zM492 61v1353h-370v-1353h370z" />
    <glyph glyph-name="fi" unicode="fi" horiz-adv-x="1092" 
d="M792 1291q-144 34 -223 34q-91 0 -132 -30.5t-41 -98.5v-131h552v-1065h-197v897h-355v-897h-197v897h-158v168h158v119q0 147 89.5 229t249.5 82q112 0 254 -34v-170z" />
    <glyph glyph-name="fl" unicode="fl" horiz-adv-x="1122" 
d="M782 0v1295q-125 30 -213 30q-91 0 -132 -30.5t-41 -98.5v-131h208v-168h-208v-897h-197v897h-158v168h158v119q0 148 89.5 229.5t251.5 81.5q106 0 244 -32l195 12v-1475h-197z" />
    <glyph glyph-name="uni1EA0" unicode="A&#x323;" horiz-adv-x="1446" 
d="M1214 0l-145 373h-702l-148 -373h-219l606 1475h236l604 -1475h-232zM434 543h567l-280 723zM612 -426v231h222v-231h-222z" />
    <glyph glyph-name="uni1EA1" unicode="a&#x323;" horiz-adv-x="1126" 
d="M102 768q22 157 141 242.5t316 85.5q201 0 317.5 -99t116.5 -270v-727h-161l-25 145q-131 -176 -356 -176q-167 0 -268 84t-101 221q0 149 97 234t306 121l312 53v53q0 99 -63.5 152t-182.5 53q-214 0 -240 -172h-209zM797 528l-264 -47q-131 -23 -186.5 -65.5
t-55.5 -120.5q0 -160 207 -160q120 0 209.5 76.5t89.5 179.5v137zM466 -426v231h221v-231h-221z" />
    <glyph glyph-name="uni1EA2" unicode="A&#x309;" horiz-adv-x="1446" 
d="M1214 0l-145 373h-702l-148 -373h-219l606 1475h236l604 -1475h-232zM434 543h567l-280 723zM532 1804l-72 93q123 85 249 85q118 0 191 -49t73 -129q0 -156 -186 -200v-67h-138v167q95 5 133.5 28t38.5 74t-110 51q-84 0 -179 -53z" />
    <glyph glyph-name="uni1EA3" unicode="a&#x309;" horiz-adv-x="1126" 
d="M102 768q22 157 141 242.5t316 85.5q201 0 317.5 -99t116.5 -270v-727h-161l-25 145q-131 -176 -356 -176q-167 0 -268 84t-101 221q0 149 97 234t306 121l312 53v53q0 99 -63.5 152t-182.5 53q-214 0 -240 -172h-209zM797 528l-264 -47q-131 -23 -186.5 -65.5
t-55.5 -120.5q0 -160 207 -160q120 0 209.5 76.5t89.5 179.5v137zM362 1484l-72 93q123 85 249 85q118 0 191 -49t73 -129q0 -156 -186 -200v-67h-138v167q95 5 133.5 28t38.5 74t-110 51q-84 0 -179 -53z" />
    <glyph glyph-name="uni1EA8" unicode="&#xc2;&#x309;" horiz-adv-x="1446" 
d="M1214 0l-145 373h-702l-148 -373h-219l606 1475h236l604 -1475h-232zM434 543h567l-280 723zM1075 1518h-198l-154 134l-154 -134h-198l241 224h224zM883 1819l-72 60q123 55 248 55q119 0 192 -31.5t73 -82.5q0 -100 -187 -129v-42h-137v107q175 5 172 65q-2 33 -111 33
q-83 0 -178 -35z" />
    <glyph glyph-name="uni1EA9" unicode="&#xe2;&#x309;" horiz-adv-x="1126" 
d="M102 768q22 157 141 242.5t316 85.5q201 0 317.5 -99t116.5 -270v-727h-161l-25 145q-131 -176 -356 -176q-167 0 -268 84t-101 221q0 149 97 234t306 121l312 53v53q0 99 -63.5 152t-182.5 53q-214 0 -240 -172h-209zM797 528l-264 -47q-131 -23 -186.5 -65.5
t-55.5 -120.5q0 -160 207 -160q120 0 209.5 76.5t89.5 179.5v137zM909 1225h-198l-154 168l-153 -168h-199l242 280h223zM737 1607l-72 94q123 85 248 85q119 0 192 -49t73 -129q0 -156 -187 -201v-66h-137v167q95 5 133.5 28t38.5 74t-111 51q-83 0 -178 -54z" />
    <glyph glyph-name="uni1EAC" unicode="&#xc2;&#x323;" horiz-adv-x="1446" 
d="M1214 0l-145 373h-702l-148 -373h-219l606 1475h236l604 -1475h-232zM434 543h567l-280 723zM1075 1573h-198l-154 168l-154 -168h-198l241 280h224zM612 -426v231h222v-231h-222z" />
    <glyph glyph-name="uni1EAD" unicode="&#xe2;&#x323;" horiz-adv-x="1126" 
d="M102 768q22 157 141 242.5t316 85.5q201 0 317.5 -99t116.5 -270v-727h-161l-25 145q-131 -176 -356 -176q-167 0 -268 84t-101 221q0 149 97 234t306 121l312 53v53q0 99 -63.5 152t-182.5 53q-214 0 -240 -172h-209zM797 528l-264 -47q-131 -23 -186.5 -65.5
t-55.5 -120.5q0 -160 207 -160q120 0 209.5 76.5t89.5 179.5v137zM909 1225h-198l-154 168l-153 -168h-199l242 280h223zM427 -426v231h221v-231h-221z" />
    <glyph glyph-name="uni1EB2" unicode="&#x102;&#x309;" horiz-adv-x="1446" 
d="M1214 0l-145 373h-702l-148 -373h-219l606 1475h236l604 -1475h-232zM434 543h567l-280 723zM418 1724h172q12 -113 125 -113t125 113h172q-39 -218 -297 -218t-297 218zM538 1870l-71 60q123 55 248 55q119 0 191.5 -31.5t72.5 -82.5q0 -100 -186 -129v-42h-137v107
q175 5 172 65q-2 33 -111 33q-83 0 -179 -35z" />
    <glyph glyph-name="uni1EB3" unicode="&#x103;&#x309;" horiz-adv-x="1126" 
d="M102 768q22 157 141 242.5t316 85.5q201 0 317.5 -99t116.5 -270v-727h-161l-25 145q-131 -176 -356 -176q-167 0 -268 84t-101 221q0 149 97 234t306 121l312 53v53q0 99 -63.5 152t-182.5 53q-214 0 -240 -172h-209zM797 528l-264 -47q-131 -23 -186.5 -65.5
t-55.5 -120.5q0 -160 207 -160q120 0 209.5 76.5t89.5 179.5v137zM260 1439h172q12 -141 125 -141t125 141h172q-39 -272 -297 -272t-297 272zM371 1686l-72 93q124 85 249 85q119 0 191.5 -48.5t72.5 -128.5q0 -157 -186 -201v-67h-137v167q95 5 133.5 28t38.5 75
q0 51 -111 51q-84 0 -179 -54z" />
    <glyph glyph-name="uni1EB6" unicode="&#x102;&#x323;" horiz-adv-x="1446" 
d="M1214 0l-145 373h-702l-148 -373h-219l606 1475h236l604 -1475h-232zM434 543h567l-280 723zM418 1853h172q12 -141 125 -141t125 141h172q-39 -272 -297 -272t-297 272zM612 -426v231h222v-231h-222z" />
    <glyph glyph-name="uni1EB7" unicode="&#x103;&#x323;" horiz-adv-x="1126" 
d="M102 768q22 157 141 242.5t316 85.5q201 0 317.5 -99t116.5 -270v-727h-161l-25 145q-131 -176 -356 -176q-167 0 -268 84t-101 221q0 149 97 234t306 121l312 53v53q0 99 -63.5 152t-182.5 53q-214 0 -240 -172h-209zM797 528l-264 -47q-131 -23 -186.5 -65.5
t-55.5 -120.5q0 -160 207 -160q120 0 209.5 76.5t89.5 179.5v137zM260 1505h172q12 -141 125 -141t125 141h172q-39 -272 -297 -272t-297 272zM427 -426v231h221v-231h-221z" />
    <glyph glyph-name="uni1EB8" unicode="E&#x323;" horiz-adv-x="1176" 
d="M1014 664h-651v-488h711v-176h-920v1475h920v-177h-711v-462h651v-172zM512 -426v231h221v-231h-221z" />
    <glyph glyph-name="uni1EB9" unicode="e&#x323;" horiz-adv-x="1186" 
d="M1081 307q-46 -160 -171.5 -249t-305.5 -89q-245 0 -383.5 149.5t-138.5 413.5q0 262 137.5 413t374.5 151q495 0 500 -607h-811q14 -170 87 -252q91 -102 240 -102q95 0 163.5 46t94.5 126h213zM291 645h602q-12 144 -87 218.5t-208 74.5q-126 0 -204.5 -74.5
t-102.5 -218.5zM494 -426v231h222v-231h-222z" />
    <glyph glyph-name="uni1EBA" unicode="E&#x309;" horiz-adv-x="1176" 
d="M1014 664h-651v-488h711v-176h-920v1475h920v-177h-711v-462h651v-172zM435 1804l-72 93q123 85 249 85q119 0 191.5 -49t72.5 -129q0 -156 -186 -200v-67h-138v167q95 5 133.5 28t38.5 74t-110 51q-84 0 -179 -53z" />
    <glyph glyph-name="uni1EBB" unicode="e&#x309;" horiz-adv-x="1186" 
d="M1081 307q-46 -160 -171.5 -249t-305.5 -89q-245 0 -383.5 149.5t-138.5 413.5q0 262 137.5 413t374.5 151q495 0 500 -607h-811q14 -170 87 -252q91 -102 240 -102q95 0 163.5 46t94.5 126h213zM291 645h602q-12 144 -87 218.5t-208 74.5q-126 0 -204.5 -74.5
t-102.5 -218.5zM409 1484l-72 93q123 85 249 85q119 0 191.5 -49t72.5 -129q0 -156 -186 -200v-67h-138v167q95 5 133.5 28t38.5 74t-110 51q-84 0 -179 -53z" />
    <glyph glyph-name="uni1EC2" unicode="&#xca;&#x309;" horiz-adv-x="1176" 
d="M1014 664h-651v-488h711v-176h-920v1475h920v-177h-711v-462h651v-172zM961 1530h-199l-153 134l-154 -134h-199l242 224h223zM780 1801l-72 60q123 54 248 54q119 0 191.5 -31t72.5 -82q0 -101 -186 -129v-43h-137v107q175 6 172 66q-2 32 -111 32q-83 0 -178 -34z" />
    <glyph glyph-name="uni1EC3" unicode="&#xea;&#x309;" horiz-adv-x="1186" 
d="M1081 307q-46 -160 -171.5 -249t-305.5 -89q-245 0 -383.5 149.5t-138.5 413.5q0 262 137.5 413t374.5 151q495 0 500 -607h-811q14 -170 87 -252q91 -102 240 -102q95 0 163.5 46t94.5 126h213zM291 645h602q-12 144 -87 218.5t-208 74.5q-126 0 -204.5 -74.5
t-102.5 -218.5zM940 1225h-199l-153 168l-154 -168h-198l241 280h223zM766 1619l-72 94q123 85 248 85q119 0 191.5 -49t72.5 -129q0 -156 -186 -201v-66h-137v167q95 5 133.5 28t38.5 74t-111 51q-84 0 -178 -54z" />
    <glyph glyph-name="uni1EC6" unicode="&#xca;&#x323;" horiz-adv-x="1176" 
d="M1014 664h-651v-488h711v-176h-920v1475h920v-177h-711v-462h651v-172zM961 1573h-199l-153 168l-154 -168h-199l242 280h223zM503 -426v231h221v-231h-221z" />
    <glyph glyph-name="uni1EC7" unicode="&#xea;&#x323;" horiz-adv-x="1186" 
d="M1081 307q-46 -160 -171.5 -249t-305.5 -89q-245 0 -383.5 149.5t-138.5 413.5q0 262 137.5 413t374.5 151q495 0 500 -607h-811q14 -170 87 -252q91 -102 240 -102q95 0 163.5 46t94.5 126h213zM291 645h602q-12 144 -87 218.5t-208 74.5q-126 0 -204.5 -74.5
t-102.5 -218.5zM940 1225h-199l-153 168l-154 -168h-198l241 280h223zM477 -426v231h221v-231h-221z" />
    <glyph glyph-name="uni1EC8" unicode="I&#x309;" horiz-adv-x="516" 
d="M362 1475v-1475h-209v1475h209zM70 1804l-72 93q123 85 249 85q118 0 191 -49t73 -129q0 -156 -187 -200v-67h-137v167q95 5 133.5 28t38.5 74t-110 51q-84 0 -179 -53z" />
    <glyph glyph-name="uni1EC9" unicode="i&#x309;" horiz-adv-x="483" 
d="M143 0v1065h196v-1065h-196zM49 1484l-72 93q123 85 249 85q118 0 191 -49t73 -129q0 -156 -187 -200v-67h-137v167q95 5 133.5 28t38.5 74t-110 51q-84 0 -179 -53z" />
    <glyph glyph-name="uni1ECA" unicode="I&#x323;" horiz-adv-x="516" 
d="M362 1475v-1475h-209v1475h209zM147 -426v231h221v-231h-221z" />
    <glyph glyph-name="uni1ECB" unicode="i&#x323;" horiz-adv-x="483" 
d="M131 1243v232h221v-232h-221zM143 0v1065h197v-1065h-197zM139 -426v231h221v-231h-221z" />
    <glyph glyph-name="uni1ECC" unicode="O&#x323;" horiz-adv-x="1585" 
d="M792 -31q-299 0 -485 182q-215 210 -215 586q0 360 206 571q193 197 496 197q321 0 510 -207.5t189 -560.5q0 -357 -201 -567q-192 -201 -500 -201zM792 139q227 0 357.5 160t130.5 438t-130.5 438t-357.5 160q-226 0 -356.5 -160t-130.5 -438q0 -277 130.5 -437.5
t356.5 -160.5zM688 -426v231h221v-231h-221z" />
    <glyph glyph-name="uni1ECD" unicode="o&#x323;" horiz-adv-x="1214" 
d="M82 532q0 261 141.5 412.5t384.5 151.5q245 0 385 -150.5t140 -413.5q0 -260 -142 -411.5t-385 -151.5q-241 0 -382.5 152.5t-141.5 410.5zM287 532q0 -186 87 -294.5t236 -108.5q150 0 234 106.5t84 296.5q0 188 -85.5 296t-234.5 108q-148 0 -234.5 -109t-86.5 -295z
M505 -426v231h221v-231h-221z" />
    <glyph glyph-name="uni1ECE" unicode="O&#x309;" horiz-adv-x="1585" 
d="M792 -31q-299 0 -485 182q-215 210 -215 586q0 360 206 571q193 197 496 197q321 0 510 -207.5t189 -560.5q0 -357 -201 -567q-192 -201 -500 -201zM792 139q227 0 357.5 160t130.5 438t-130.5 438t-357.5 160q-226 0 -356.5 -160t-130.5 -438q0 -277 130.5 -437.5
t356.5 -160.5zM605 1816l-72 93q123 85 248 85q119 0 192 -49t73 -129q0 -156 -187 -200v-67h-137v167q95 5 133.5 28t38.5 74t-111 51q-83 0 -178 -53z" />
    <glyph glyph-name="uni1ECF" unicode="o&#x309;" horiz-adv-x="1214" 
d="M82 532q0 261 141.5 412.5t384.5 151.5q245 0 385 -150.5t140 -413.5q0 -260 -142 -411.5t-385 -151.5q-241 0 -382.5 152.5t-141.5 410.5zM287 532q0 -186 87 -294.5t236 -108.5q150 0 234 106.5t84 296.5q0 188 -85.5 296t-234.5 108q-148 0 -234.5 -109t-86.5 -295z
M423 1484l-72 93q123 85 248 85q119 0 192 -49t73 -129q0 -156 -187 -200v-67h-137v167q95 5 133.5 28t38.5 74t-111 51q-84 0 -178 -53z" />
    <glyph glyph-name="uni1ED4" unicode="&#xd4;&#x309;" horiz-adv-x="1585" 
d="M792 -31q-299 0 -485 182q-215 210 -215 586q0 360 206 571q193 197 496 197q321 0 510 -207.5t189 -560.5q0 -357 -201 -567q-192 -201 -500 -201zM792 139q227 0 357.5 160t130.5 438t-130.5 438t-357.5 160q-226 0 -356.5 -160t-130.5 -438q0 -277 130.5 -437.5
t356.5 -160.5zM1130 1541h-198l-154 135l-154 -135h-198l241 225h224zM961 1813l-72 60q124 54 249 54q119 0 191.5 -31.5t72.5 -82.5q0 -100 -186 -128v-43h-138v107q175 5 172 66q-1 32 -110 32q-83 0 -179 -34z" />
    <glyph glyph-name="uni1ED5" unicode="&#xf4;&#x309;" horiz-adv-x="1214" 
d="M82 532q0 261 141.5 412.5t384.5 151.5q245 0 385 -150.5t140 -413.5q0 -260 -142 -411.5t-385 -151.5q-241 0 -382.5 152.5t-141.5 410.5zM287 532q0 -186 87 -294.5t236 -108.5q150 0 234 106.5t84 296.5q0 188 -85.5 296t-234.5 108q-148 0 -234.5 -109t-86.5 -295z
M957 1158h-198l-154 168l-154 -168h-198l241 281h224zM767 1565l-72 94q123 85 249 85q118 0 191 -49t73 -129q0 -157 -187 -201v-67h-137v167q95 6 133.5 28.5t38.5 74.5q0 51 -110 51q-84 0 -179 -54z" />
    <glyph glyph-name="uni1ED8" unicode="&#xd4;&#x323;" horiz-adv-x="1585" 
d="M792 -31q-299 0 -485 182q-215 210 -215 586q0 360 206 571q193 197 496 197q321 0 510 -207.5t189 -560.5q0 -357 -201 -567q-192 -201 -500 -201zM792 139q227 0 357.5 160t130.5 438t-130.5 438t-357.5 160q-226 0 -356.5 -160t-130.5 -438q0 -277 130.5 -437.5
t356.5 -160.5zM1130 1573h-198l-154 168l-154 -168h-198l241 280h224zM697 -426v231h221v-231h-221z" />
    <glyph glyph-name="uni1ED9" unicode="&#xf4;&#x323;" horiz-adv-x="1214" 
d="M82 532q0 261 141.5 412.5t384.5 151.5q245 0 385 -150.5t140 -413.5q0 -260 -142 -411.5t-385 -151.5q-241 0 -382.5 152.5t-141.5 410.5zM287 532q0 -186 87 -294.5t236 -108.5q150 0 234 106.5t84 296.5q0 188 -85.5 296t-234.5 108q-148 0 -234.5 -109t-86.5 -295z
M957 1225h-198l-154 168l-154 -168h-198l241 280h224zM509 -426v231h221v-231h-221z" />
    <glyph glyph-name="uni1EDE" unicode="&#x1a0;&#x309;" horiz-adv-x="1585" 
d="M1290 1312q111 34 111 148h-61v197h204v-162q0 -91 -49.5 -162.5t-136.5 -105.5q135 -201 135 -490q0 -357 -201 -567q-192 -201 -500 -201q-299 0 -485 182q-215 210 -215 586q0 360 206 571q193 197 496 197q309 0 496 -193zM792 139q227 0 357.5 160t130.5 438
t-130.5 438t-357.5 160q-226 0 -356.5 -160t-130.5 -438q0 -277 130.5 -437.5t356.5 -160.5zM604 1816l-72 93q123 85 248 85q119 0 191.5 -49t72.5 -129q0 -156 -186 -200v-67h-137v167q95 5 133.5 28t38.5 74t-111 51q-84 0 -178 -53z" />
    <glyph glyph-name="uni1EDF" unicode="&#x1a1;&#x309;" horiz-adv-x="1215" 
d="M975 963q67 39 69 130h-62v197h205v-162q0 -164 -144 -248q90 -143 90 -348q0 -260 -142 -411.5t-385 -151.5q-241 0 -382.5 152.5t-141.5 410.5q0 261 141.5 412.5t384.5 151.5q232 0 367 -133zM287 532q0 -186 87 -294.5t236 -108.5q150 0 234 106.5t84 296.5
q0 188 -85.5 296t-234.5 108q-148 0 -234.5 -109t-86.5 -295zM423 1484l-72 93q123 85 248 85q119 0 192 -49t73 -129q0 -156 -187 -200v-67h-137v167q95 5 133.5 28t38.5 74t-110 51q-84 0 -179 -53z" />
    <glyph glyph-name="uni1EE2" unicode="&#x1a0;&#x323;" horiz-adv-x="1585" 
d="M1290 1312q111 34 111 148h-61v197h204v-162q0 -91 -49.5 -162.5t-136.5 -105.5q135 -201 135 -490q0 -357 -201 -567q-192 -201 -500 -201q-299 0 -485 182q-215 210 -215 586q0 360 206 571q193 197 496 197q309 0 496 -193zM792 139q227 0 357.5 160t130.5 438
t-130.5 438t-357.5 160q-226 0 -356.5 -160t-130.5 -438q0 -277 130.5 -437.5t356.5 -160.5zM708 -426v231h221v-231h-221z" />
    <glyph glyph-name="uni1EE3" unicode="&#x1a1;&#x323;" horiz-adv-x="1215" 
d="M975 963q67 39 69 130h-62v197h205v-162q0 -164 -144 -248q90 -143 90 -348q0 -260 -142 -411.5t-385 -151.5q-241 0 -382.5 152.5t-141.5 410.5q0 261 141.5 412.5t384.5 151.5q232 0 367 -133zM287 532q0 -186 87 -294.5t236 -108.5q150 0 234 106.5t84 296.5
q0 188 -85.5 296t-234.5 108q-148 0 -234.5 -109t-86.5 -295zM515 -426v231h221v-231h-221z" />
    <glyph glyph-name="uni1EE4" unicode="U&#x323;" horiz-adv-x="1448" 
d="M352 1475v-1000q0 -154 99.5 -242t275.5 -88q175 0 274.5 88t99.5 242v1000h203v-981q0 -241 -156.5 -383t-422.5 -142t-424 142.5t-158 382.5v981h209zM628 -426v231h221v-231h-221z" />
    <glyph glyph-name="uni1EE5" unicode="u&#x323;" horiz-adv-x="1153" 
d="M330 1065v-698q0 -230 221 -230q118 0 190 76.5t72 202.5v649h197v-1065h-162l-23 123q-115 -154 -319 -154q-177 0 -275 105.5t-98 296.5v694h197zM469 -426v231h221v-231h-221z" />
    <glyph glyph-name="uni1EE6" unicode="U&#x309;" horiz-adv-x="1448" 
d="M352 1475v-1000q0 -154 99.5 -242t275.5 -88q175 0 274.5 88t99.5 242v1000h203v-981q0 -241 -156.5 -383t-422.5 -142t-424 142.5t-158 382.5v981h209zM545 1804l-72 93q123 85 249 85q118 0 191 -49t73 -129q0 -156 -187 -200v-67h-137v167q95 5 133.5 28t38.5 74
t-110 51q-84 0 -179 -53z" />
    <glyph glyph-name="uni1EE7" unicode="u&#x309;" horiz-adv-x="1153" 
d="M330 1065v-698q0 -230 221 -230q118 0 190 76.5t72 202.5v649h197v-1065h-162l-23 123q-115 -154 -319 -154q-177 0 -275 105.5t-98 296.5v694h197zM387 1484l-72 93q123 85 248 85q119 0 191.5 -49t72.5 -129q0 -156 -186 -200v-67h-137v167q95 5 133.5 28t38.5 74
t-111 51q-84 0 -178 -53z" />
    <glyph glyph-name="uni1EEC" unicode="&#x1af;&#x309;" horiz-adv-x="1448" 
d="M1304 1311q117 33 116 149h-61v197h204v-162q0 -111 -70.5 -189.5t-188.5 -97.5v-714q0 -241 -156.5 -383t-422.5 -142t-424 142.5t-158 382.5v981h209v-1000q0 -154 99.5 -242t275.5 -88q175 0 274.5 88t99.5 242v1000h203v-164zM551 1804l-72 93q123 85 249 85
q119 0 191.5 -49t72.5 -129q0 -156 -186 -200v-67h-138v167q95 5 133.5 28t38.5 74t-110 51q-84 0 -179 -53z" />
    <glyph glyph-name="uni1EED" unicode="&#x1b0;&#x309;" horiz-adv-x="1153" 
d="M1010 949q100 36 100 144h-61v197h205v-162q0 -107 -67 -185t-177 -99v-844h-162l-23 123q-115 -154 -319 -154q-177 0 -275 105.5t-98 296.5v694h197v-698q0 -230 221 -230q118 0 190 76.5t72 202.5v649h197v-116zM391 1484l-72 93q123 85 249 85q118 0 191 -49t73 -129
q0 -156 -186 -200v-67h-138v167q95 5 133.5 28t38.5 74t-110 51q-84 0 -179 -53z" />
    <glyph glyph-name="uni1EF0" unicode="&#x1af;&#x323;" horiz-adv-x="1448" 
d="M1304 1311q117 33 116 149h-61v197h204v-162q0 -111 -70.5 -189.5t-188.5 -97.5v-714q0 -241 -156.5 -383t-422.5 -142t-424 142.5t-158 382.5v981h209v-1000q0 -154 99.5 -242t275.5 -88q175 0 274.5 88t99.5 242v1000h203v-164zM625 -426v231h221v-231h-221z" />
    <glyph glyph-name="uni1EF1" unicode="&#x1b0;&#x323;" horiz-adv-x="1153" 
d="M1010 949q100 36 100 144h-61v197h205v-162q0 -107 -67 -185t-177 -99v-844h-162l-23 123q-115 -154 -319 -154q-177 0 -275 105.5t-98 296.5v694h197v-698q0 -230 221 -230q118 0 190 76.5t72 202.5v649h197v-116zM468 -426v231h221v-231h-221z" />
    <glyph glyph-name="uni1EF4" unicode="Y&#x323;" horiz-adv-x="1288" 
d="M541 0v586l-541 889h229l416 -709l430 709h213l-540 -889v-586h-207zM534 -426v231h221v-231h-221z" />
    <glyph glyph-name="uni1EF5" unicode="y&#x323;" horiz-adv-x="1053" 
d="M186 -381v160q58 -15 102 -15q62 0 99.5 48t87.5 188h-64l-391 1065h213l301 -905l301 905h197l-371 -1079q-76 -222 -150 -303.5t-198 -81.5q-47 0 -117 16zM641 -426v231h221v-231h-221z" />
    <glyph glyph-name="uni1EF6" unicode="Y&#x309;" horiz-adv-x="1288" 
d="M541 0v586l-541 889h229l416 -709l430 709h213l-540 -889v-586h-207zM483 1804l-71 93q123 85 248 85q119 0 191.5 -49t72.5 -129q0 -156 -186 -200v-67h-137v167q95 5 133.5 28t38.5 74t-111 51q-84 0 -179 -53z" />
    <glyph glyph-name="uni1EF7" unicode="y&#x309;" horiz-adv-x="1053" 
d="M186 -381v160q58 -15 102 -15q62 0 99.5 48t87.5 188h-64l-391 1065h213l301 -905l301 905h197l-371 -1079q-76 -222 -150 -303.5t-198 -81.5q-47 0 -117 16zM353 1484l-72 93q123 85 249 85q119 0 191.5 -49t72.5 -129q0 -156 -186 -200v-67h-138v167q95 5 133.5 28
t38.5 74t-110 51q-84 0 -179 -53z" />
    <glyph glyph-name="uni0E4F.liga" unicode="&#xe4f;&#x22;" horiz-adv-x="1324" 
d="M666 826q118 0 202 -78q83 -77 83 -189q0 -113 -83 -190q-84 -78 -207 -78q-121 0 -205 78q-83 78 -83 189q0 114 84 191t209 77zM660 708q-56 0 -97.5 -45t-41.5 -104q0 -60 42.5 -105.5t98.5 -45.5t98.5 45t42.5 105q0 61 -42 105.5t-101 44.5zM670 1127
q238 0 410 -166q171 -165 171 -402q0 -238 -171 -402q-173 -167 -419 -167q-243 0 -417 167q-171 165 -171 400q0 242 171 404q177 166 426 166zM657 981q-163 0 -289 -124q-124 -122 -124 -299q0 -176 124 -298q127 -124 293 -124q168 0 295 124q124 123 124 298
q0 179 -124 299q-128 124 -299 124zM342 1720h237v-246l-71 -270h-97l-69 270v246zM748 1720h236v-246l-71 -270h-96l-69 270v246z" />
    <glyph glyph-name="uni0E24.liga" unicode="&#xe24;&#xe32;" horiz-adv-x="1911" 
d="M1017 983q82 83 195.5 129t233.5 46q192 0 293 -117q50 -59 50 -159v-1385h-197v1320q0 91 -29 125q-53 63 -147 63q-149 0 -344 -174v-1334h-197v1311q0 84 -77 138q-85 60 -218 60q-192 0 -289 -137q236 -16 363 -66l-84 -78q-81 -3 -127 -60t-46 -153v-97q30 3 45 3
q88 0 150.5 -61t62.5 -147q0 -89 -63.5 -149.5t-156.5 -60.5q-95 0 -165 64t-70 151v282q3 181 158 245q-163 18 -236 18q-10 0 -60 -3q17 89 42 139.5t79 104.5q149 149 404 149q138 0 252 -44.5t178 -122.5zM434 296q-35 0 -60 -24t-25 -57q0 -34 25 -58t61 -24
q35 0 60 24t25 57q0 34 -25 58t-61 24z" />
    <glyph glyph-name="uni0E26.liga" unicode="&#xe26;&#xe32;" horiz-adv-x="2004" 
d="M1108 982l6 6q180 170 424 170q192 0 293 -117q50 -59 50 -159v-1383h-197v1318q0 91 -29 125q-53 63 -146 63q-156 0 -345 -175v-1316h-197v1283q0 71 -30 106q-78 93 -266 93q-93 0 -155 -29.5t-131 -107.5q219 -10 340 -55l-68 -102q-32 13 -53 13q-44 0 -76 -58
t-32 -138v-263q0 -119 -51 -179q-67 -79 -181 -79q-99 0 -163 64q-62 61 -62 144q0 87 65 149t156 62q17 0 39 -3v68q0 185 143 261q-141 14 -296 15q50 121 90 180.5t102 104.5q142 104 350 104q129 0 244.5 -45.5t175.5 -119.5zM266 288q-34 0 -59.5 -24t-25.5 -57
q0 -34 25.5 -58t61.5 -24q35 0 60.5 24.5t25.5 57.5t-26 57t-62 24z" />
    <glyph glyph-name=".notdef" horiz-adv-x="614" 
d="M61 0v1475h492v-1475h-492zM492 61v1353h-370v-1353h370z" />
    <glyph glyph-name="glyph1" horiz-adv-x="0" 
 />
    <glyph glyph-name="glyph2" horiz-adv-x="614" 
 />
    <glyph glyph-name="space" unicode=" " horiz-adv-x="614" 
 />
    <glyph glyph-name="exclam" unicode="!" horiz-adv-x="584" 
d="M174 0v238h236v-238h-236zM215 492l-41 983h236l-41 -983h-154z" />
    <glyph glyph-name="quotedbl" unicode="&#x22;" 
d="M338 1004h-143l-31 313v188h205v-188zM666 1004h-144l-30 313v188h204v-188z" />
    <glyph glyph-name="numbersign" unicode="#" 
d="M82 1065h174l33 369h172l-33 -369h432l33 369h172l-33 -369h156v-154h-170l-33 -388h162v-154h-176l-31 -369h-172l31 369h-432l-31 -369h-172l31 369h-154v154h168l33 388h-160v154zM381 523h432l33 388h-432z" />
    <glyph glyph-name="dollar" unicode="$" 
d="M528 -25q-201 24 -325.5 134.5t-151.5 289.5h215q45 -258 356 -258q174 0 261 72q85 70 85 177q0 108 -88.5 167.5t-351.5 128.5q-225 59 -325.5 155t-100.5 251q0 153 112.5 250t313.5 118v240h182v-240q399 -46 457 -383h-215q-23 112 -107 163.5t-243 51.5
q-141 0 -216 -48.5t-75 -139.5q0 -94 77 -148t287 -108q263 -68 382.5 -175t119.5 -275q0 -171 -128 -287.5t-339 -137.5v-250h-182v252z" />
    <glyph glyph-name="percent" unicode="%" horiz-adv-x="1722" 
d="M420 1465q156 0 253 -96.5t97 -250.5q0 -153 -97.5 -249t-252.5 -96t-251.5 96t-96.5 250t96.5 250t251.5 96zM420 1322q-88 0 -135 -52.5t-47 -150.5t47 -150.5t135 -52.5q89 0 137.5 53t48.5 150t-48.5 150t-137.5 53zM561 0h-196l782 1434h197zM1301 662
q156 0 253 -96.5t97 -250.5q0 -153 -97.5 -249.5t-252.5 -96.5t-251.5 96.5t-96.5 249.5q0 154 96.5 250.5t251.5 96.5zM1301 519q-88 0 -135 -52.5t-47 -150.5q0 -99 47 -151.5t135 -52.5q89 0 137.5 53t48.5 151q0 97 -48.5 150t-137.5 53z" />
    <glyph glyph-name="ampersand" unicode="&#x26;" horiz-adv-x="1403" 
d="M1280 674q-28 -212 -139 -387l201 -189l-146 -129l-176 170q-185 -170 -435 -170q-226 0 -364.5 106.5t-138.5 280.5q0 137 65.5 227.5t233.5 186.5q-115 121 -151.5 187t-36.5 155q0 145 115.5 249t275.5 104t272.5 -94t112.5 -228q0 -256 -301 -407l342 -324
q67 132 90 285zM897 260l-399 391q-116 -66 -163.5 -130t-47.5 -152q0 -110 82 -170t231 -60q169 0 297 121zM543 854q133 72 187.5 136t54.5 150q0 72 -55.5 118.5t-141.5 46.5q-91 0 -148 -52.5t-57 -135.5q0 -67 31.5 -118.5t128.5 -144.5z" />
    <glyph glyph-name="quotesingle" unicode="'" horiz-adv-x="553" 
d="M348 1004h-143l-31 313v188h205v-188z" />
    <glyph glyph-name="parenleft" unicode="(" horiz-adv-x="696" 
d="M635 -348h-162q-164 217 -252 476t-88 527t88 527.5t252 476.5h162q-303 -472 -303 -1008q0 -527 303 -999z" />
    <glyph glyph-name="parenright" unicode=")" horiz-adv-x="696" 
d="M61 1659h162q164 -218 252 -477t88 -527t-88 -527t-252 -476h-162q303 472 303 1008q0 527 -303 999z" />
    <glyph glyph-name="asterisk" unicode="*" horiz-adv-x="963" 
d="M534 1203l277 127l59 -172l-301 -62l205 -221l-147 -107l-148 263l-149 -265l-146 109l205 223l-297 60l59 172l273 -125l-35 301h180z" />
    <glyph glyph-name="plus" unicode="+" 
d="M522 571h-338v174h338v345h186v-345h336v-174h-336v-342h-186v342z" />
    <glyph glyph-name="comma" unicode="," horiz-adv-x="614" 
d="M158 -307v103q128 31 127 204h-96v238h238v-207q0 -144 -70.5 -232.5t-198.5 -105.5z" />
    <glyph glyph-name="hyphen" unicode="-" horiz-adv-x="1106" 
d="M184 574v174h737v-174h-737z" />
    <glyph glyph-name="period" unicode="." horiz-adv-x="614" 
d="M188 0v238h238v-238h-238z" />
    <glyph glyph-name="slash" unicode="/" horiz-adv-x="819" 
d="M571 1506h186l-510 -1690h-186z" />
    <glyph glyph-name="zero" unicode="0" 
d="M614 1465q246 0 379 -193.5t133 -549.5q0 -370 -146 -569q-135 -184 -367 -184q-240 0 -375.5 199t-135.5 554q0 356 133 549.5t379 193.5zM614 1301q-159 0 -235 -141.5t-76 -438.5q0 -301 76.5 -444.5t235.5 -143.5q310 0 310 588q0 297 -76 438.5t-235 141.5z" />
    <glyph glyph-name="one" unicode="1" 
d="M593 0v1229l-321 -166v203l323 168h193v-1434h-195z" />
    <glyph glyph-name="two" unicode="2" 
d="M123 1059q30 187 165.5 296.5t338.5 109.5q208 0 337.5 -113.5t129.5 -295.5q0 -138 -72 -257t-270 -308l-328 -311h664v-180h-930v180l467 449q156 150 212 239t56 187q0 114 -72 179t-198 65t-202 -62t-91 -178h-207z" />
    <glyph glyph-name="three" unicode="3" 
d="M100 356h209q54 -221 303 -221q145 0 228 70t83 192q0 121 -77.5 194.5t-204.5 73.5h-119v171h115q103 0 170 67.5t67 171.5q0 103 -75.5 164.5t-200.5 61.5q-117 0 -192 -53.5t-95 -151.5h-207q27 169 164.5 269t341.5 100q210 0 337.5 -102.5t127.5 -270.5
q0 -116 -68 -203t-190 -127q141 -29 224 -129.5t83 -241.5q0 -188 -140 -304t-369 -116q-217 0 -350.5 99.5t-164.5 285.5z" />
    <glyph glyph-name="four" unicode="4" 
d="M909 1434v-996h231v-168h-231v-270h-190v270h-629v182l614 982h205zM719 438v678l-410 -678h410z" />
    <glyph glyph-name="five" unicode="5" 
d="M313 348q26 -102 104.5 -157.5t196.5 -55.5q143 0 228 92t85 247q0 152 -81 238t-224 86q-173 0 -289 -130h-174l31 766h881v-166h-703l-16 -420q136 104 312 104q209 0 337.5 -133.5t128.5 -352.5q0 -220 -144 -358.5t-371 -138.5q-199 0 -339 104t-172 275h209z" />
    <glyph glyph-name="six" unicode="6" 
d="M1097 1161h-217q-43 144 -215 144q-295 0 -327 -554q121 187 343 187q201 0 323 -132t122 -349q0 -216 -134.5 -352t-348.5 -136q-247 0 -373.5 176.5t-126.5 520.5q0 394 132.5 596.5t390.5 202.5q167 0 279.5 -79.5t151.5 -224.5zM644 774q-130 0 -208 -85.5
t-78 -228.5q0 -149 78.5 -238t210.5 -89q127 0 203.5 86.5t76.5 228.5q0 151 -76 238.5t-207 87.5z" />
    <glyph glyph-name="seven" unicode="7" 
d="M480 0h-224l600 1258h-702v176h911v-176z" />
    <glyph glyph-name="eight" unicode="8" 
d="M848 764q288 -130 288 -377q0 -186 -145 -302t-377 -116q-231 0 -376.5 112.5t-145.5 292.5q0 268 281 378q-228 102 -228 329q0 176 127 280t341 104q218 0 344 -99t126 -269q0 -204 -235 -333zM571 690q-131 -39 -200.5 -117t-69.5 -185q0 -118 84.5 -187.5
t227.5 -69.5q150 0 232 67.5t82 191.5q0 146 -118 220q-67 43 -238 80zM655 815q107 40 169 114t62 162q0 97 -76.5 158.5t-195.5 61.5q-127 0 -201.5 -60t-74.5 -162q0 -119 75.5 -184.5t241.5 -89.5z" />
    <glyph glyph-name="nine" unicode="9" 
d="M163 276h218q47 -147 224 -147q152 0 230.5 132.5t93.5 418.5q-120 -185 -341 -185q-201 0 -323 131.5t-122 349.5q0 216 134.5 352.5t346.5 136.5q502 0 502 -696q0 -800 -529 -800q-167 0 -280.5 80.5t-153.5 226.5zM623 1301q-126 0 -203.5 -86.5t-77.5 -228.5
q0 -151 76 -239t207 -88q130 0 208 85.5t78 228.5q0 149 -78.5 238.5t-209.5 89.5z" />
    <glyph glyph-name="colon" unicode=":" horiz-adv-x="614" 
d="M188 0v238h238v-238h-238zM188 827v238h238v-238h-238z" />
    <glyph glyph-name="semicolon" unicode=";" horiz-adv-x="614" 
d="M189 827v238h238v-238h-238zM158 -307v103q128 31 127 204h-96v238h238v-207q0 -144 -70.5 -232.5t-198.5 -105.5z" />
    <glyph glyph-name="less" unicode="&#x3c;" 
d="M379 655l665 -284v-197l-860 389v195l860 389v-197l-665 -284v-11z" />
    <glyph glyph-name="equal" unicode="=" 
d="M184 362v174h860v-174h-860zM184 782v174h860v-174h-860z" />
    <glyph glyph-name="greater" unicode="&#x3e;" 
d="M849 666l-665 284v197l860 -389v-195l-860 -389v197l665 284v11z" />
    <glyph glyph-name="question" unicode="?" horiz-adv-x="1194" 
d="M471 0v238h236v-238h-236zM487 428q0 179 52.5 274t189.5 167q172 89 172 253q0 98 -74.5 155t-202.5 57q-138 0 -212 -57t-97 -181h-213q33 184 144 283q144 127 383 127q213 0 348 -107t135 -276q0 -132 -72 -233.5t-229 -190.5q-75 -43 -101.5 -99t-27.5 -172h-195z
" />
    <glyph glyph-name="at" unicode="@" horiz-adv-x="1855" 
d="M1116 385q-36 -71 -120.5 -120.5t-169.5 -49.5q-145 0 -230.5 97t-85.5 261q0 254 116.5 407t310.5 153q68 0 119.5 -31.5t75.5 -87.5l37 104h145l-75 -581q-7 -52 -7 -83q0 -109 99 -109t166.5 134.5t67.5 332.5q0 251 -177 398q-169 140 -438 140q-293 0 -476.5 -197
t-183.5 -512q0 -325 212 -507q185 -160 462 -160q151 0 312 53v-160q-151 -53 -330 -53q-346 0 -582 205q-262 227 -262 624q0 438 290 670q240 193 555 193q352 0 579 -194t227 -494q0 -268 -117.5 -445.5t-295.5 -177.5q-82 0 -147.5 55.5t-76.5 134.5zM955 985
q-120 0 -189.5 -111.5t-69.5 -302.5q0 -95 45.5 -149.5t124.5 -54.5q105 0 168 115.5t63 310.5q0 101 -33.5 146.5t-108.5 45.5z" />
    <glyph glyph-name="A" unicode="A" horiz-adv-x="1446" 
d="M1214 0l-145 373h-702l-148 -373h-219l606 1475h236l604 -1475h-232zM434 543h567l-280 723z" />
    <glyph glyph-name="B" unicode="B" horiz-adv-x="1335" 
d="M961 780q125 -24 204 -125.5t79 -239.5q0 -202 -145 -308.5t-419 -106.5h-526v1475h531q231 0 360 -85q154 -103 154 -305q0 -105 -68.5 -192.5t-169.5 -112.5zM363 692v-522h348q316 0 316 249q0 273 -308 273h-356zM363 1317v-465h350q131 0 203 61t72 171
q0 111 -75 172t-212 61h-338z" />
    <glyph glyph-name="C" unicode="C" horiz-adv-x="1493" 
d="M1200 520h211q-17 -239 -199 -395t-445 -156q-315 0 -495 205t-180 563q0 365 195 571q187 198 496 198q254 0 429 -141.5t197 -363.5h-211q-25 158 -133 244.5t-280 86.5q-228 0 -354 -156t-126 -439q0 -276 124.5 -434t342.5 -158q177 0 297.5 105.5t130.5 269.5z" />
    <glyph glyph-name="D" unicode="D" horiz-adv-x="1450" 
d="M154 0v1475h479q349 0 537 -190.5t188 -543.5q0 -355 -207 -551q-199 -190 -532 -190h-465zM363 1309v-1137h277q248 0 377.5 144.5t129.5 422.5q0 276 -132 423t-380 147h-272z" />
    <glyph glyph-name="E" unicode="E" horiz-adv-x="1176" 
d="M1014 664h-651v-488h711v-176h-920v1475h920v-176h-711v-463h651v-172z" />
    <glyph glyph-name="F" unicode="F" horiz-adv-x="1149" 
d="M986 623h-623v-623h-209v1475h903v-176h-694v-502h623v-174z" />
    <glyph glyph-name="G" unicode="G" horiz-adv-x="1511" 
d="M1380 0h-154l-28 176q-151 -207 -453 -207q-297 0 -475 210.5t-178 560.5t183.5 558t493.5 208q241 0 410 -129t199 -335h-205q-33 141 -137 215.5t-267 74.5q-215 0 -339.5 -158t-124.5 -432q0 -285 142 -450q130 -151 325 -151q178 0 299 106t121 263v115h-432v168h620
v-793z" />
    <glyph glyph-name="H" unicode="H" horiz-adv-x="1448" 
d="M1295 1475v-1475h-211v658h-721v-658h-209v1475h209v-641h721v641h211z" />
    <glyph glyph-name="I" unicode="I" horiz-adv-x="516" 
d="M363 1475v-1475h-209v1475h209z" />
    <glyph glyph-name="J" unicode="J" horiz-adv-x="1106" 
d="M262 414q15 -269 249 -269q116 0 179 75t63 214v1041h209v-1043q0 -223 -118.5 -343t-338.5 -120q-196 0 -324 125.5t-130 319.5h211z" />
    <glyph glyph-name="K" unicode="K" horiz-adv-x="1294" 
d="M1008 0l-645 695v-695h-209v1475h209v-656l600 656h258l-670 -705l734 -770h-277z" />
    <glyph glyph-name="L" unicode="L" horiz-adv-x="1130" 
d="M365 1475v-1289h694v-186h-905v1475h211z" />
    <glyph glyph-name="M" unicode="M" horiz-adv-x="1784" 
d="M812 0l-455 1155v-1155h-203v1475h291l469 -1229l442 1229h275v-1475h-197v1145l-426 -1145h-196z" />
    <glyph glyph-name="N" unicode="N" horiz-adv-x="1473" 
d="M1319 1475v-1475h-264l-711 1235v-1235h-190v1475h276l703 -1225v1225h186z" />
    <glyph glyph-name="O" unicode="O" horiz-adv-x="1585" 
d="M795 1506q320 0 509 -208t189 -560q0 -358 -201 -568q-192 -201 -502 -201q-319 0 -508.5 208.5t-189.5 560.5q0 359 206 570q193 198 497 198zM793 1336q-227 0 -357.5 -160t-130.5 -438q0 -279 130.5 -439t358.5 -160q225 0 355.5 160.5t130.5 438.5t-130.5 438
t-356.5 160z" />
    <glyph glyph-name="P" unicode="P" horiz-adv-x="1292" 
d="M363 526v-526h-209v1475h479q283 0 430.5 -122.5t147.5 -355.5q0 -232 -149 -351.5t-437 -119.5h-262zM363 1305v-609h266q187 0 276 73t89 226q0 150 -92 230t-265 80h-274z" />
    <glyph glyph-name="Q" unicode="Q" horiz-adv-x="1585" 
d="M1249 131l238 -297l-168 -110l-217 311q-149 -66 -311 -66q-320 0 -509.5 208.5t-189.5 560.5q0 359 206 570q193 198 497 198q320 0 509 -208t189 -560q0 -388 -244 -607zM793 1336q-227 0 -357.5 -160t-130.5 -438q0 -279 130.5 -439t358.5 -160q225 0 355.5 160.5
t130.5 438.5t-130.5 438t-356.5 160z" />
    <glyph glyph-name="R" unicode="R" horiz-adv-x="1335" 
d="M1070 0l-357 561h-350v-561h-209v1475h477q283 0 434 -120q150 -120 150 -342q0 -297 -297 -409l397 -604h-245zM363 1305v-574h279q170 0 263 74t93 209q0 291 -363 291h-272z" />
    <glyph glyph-name="S" unicode="S" horiz-adv-x="1337" 
d="M1235 1106h-215q-41 228 -368 228q-152 0 -236 -52.5t-84 -147.5t79 -147q78 -52 308 -116q295 -83 411 -184.5t116 -275.5q0 -194 -161 -318t-412 -124q-243 0 -406.5 121t-194.5 324h215q48 -273 381 -273q167 0 268 71t101 188q0 108 -83 165q-92 64 -382 144
q-247 68 -348 161.5t-101 254.5q0 173 143.5 277t383.5 104q243 0 398.5 -106t186.5 -294z" />
    <glyph glyph-name="T" unicode="T" horiz-adv-x="1235" 
d="M1214 1289h-496v-1289h-209v1289h-489v186h1194v-186z" />
    <glyph glyph-name="U" unicode="U" horiz-adv-x="1448" 
d="M352 1475v-1000q0 -155 99.5 -242.5t274.5 -87.5q176 0 275.5 87.5t99.5 242.5v1000h203v-981q0 -241 -156.5 -383t-422.5 -142t-424 142.5t-158 382.5v981h209z" />
    <glyph glyph-name="V" unicode="V" horiz-adv-x="1325" 
d="M1325 1475l-528 -1475h-260l-537 1475h221l447 -1278l452 1278h205z" />
    <glyph glyph-name="W" unicode="W" horiz-adv-x="1972" 
d="M1962 1475l-389 -1475h-242l-334 1250l-344 -1250h-256l-387 1475h213l313 -1227l338 1227h260l320 -1223l315 1223h193z" />
    <glyph glyph-name="X" unicode="X" horiz-adv-x="1335" 
d="M784 768l530 -768h-250l-395 596l-413 -596h-236l532 762l-495 713h246l374 -549l383 549h238z" />
    <glyph glyph-name="Y" unicode="Y" horiz-adv-x="1288" 
d="M541 0v586l-541 889h229l416 -709l430 709h213l-540 -889v-586h-207z" />
    <glyph glyph-name="Z" unicode="Z" horiz-adv-x="1309" 
d="M328 180h878v-180h-1124v182l897 1113h-850v180h1098v-176z" />
    <glyph glyph-name="bracketleft" unicode="[" horiz-adv-x="696" 
d="M584 -348h-430v2007h430v-164h-242v-1679h242v-164z" />
    <glyph glyph-name="backslash" unicode="\" horiz-adv-x="819" 
d="M757 -184h-186l-510 1690h186z" />
    <glyph glyph-name="bracketright" unicode="]" horiz-adv-x="696" 
d="M113 -184h242v1679h-242v164h430v-2007h-430v164z" />
    <glyph glyph-name="asciicircum" unicode="^" horiz-adv-x="1024" 
d="M266 819h-213l367 656h184l367 -656h-213l-246 457z" />
    <glyph glyph-name="underscore" unicode="_" 
d="M61 -266v174h1106v-174h-1106z" />
    <glyph glyph-name="grave" unicode="`" horiz-adv-x="586" 
d="M524 1225h-176l-287 280h254z" />
    <glyph glyph-name="a" unicode="a" horiz-adv-x="1126" 
d="M102 768q22 157 140.5 242.5t315.5 85.5q202 0 318.5 -99t116.5 -270v-727h-162l-24 145q-132 -176 -356 -176q-167 0 -268 84t-101 222q0 148 97 233t306 121l311 53v53q0 99 -63.5 152t-182.5 53q-213 0 -239 -172h-209zM796 528l-264 -47q-130 -23 -185.5 -65.5
t-55.5 -120.5q0 -160 206 -160q120 0 209.5 76.5t89.5 179.5v137z" />
    <glyph glyph-name="b" unicode="b" horiz-adv-x="1247" 
d="M143 0v1475h197v-557q126 178 355 178q219 0 344.5 -148.5t125.5 -406.5q0 -273 -136 -425q-132 -147 -347 -147q-220 0 -346 172l-31 -141h-162zM652 928q-147 0 -234.5 -105t-87.5 -281q0 -188 86 -296.5t235 -108.5q150 0 229.5 105t79.5 305q0 178 -82 279.5
t-226 101.5z" />
    <glyph glyph-name="c" unicode="c" horiz-adv-x="1135" 
d="M1053 342q-25 -168 -153 -270.5t-314 -102.5q-230 0 -367 151.5t-137 405.5q0 262 136 416t367 154q188 0 308.5 -91t151.5 -255h-218q-45 180 -239 180q-142 0 -219.5 -106.5t-77.5 -301.5q0 -181 80 -284t220 -103q209 0 247 207h215z" />
    <glyph glyph-name="d" unicode="d" horiz-adv-x="1247" 
d="M942 0l-35 150q-126 -181 -354 -181q-216 0 -343.5 151t-127.5 407q0 268 128 418.5t355 150.5q215 0 342 -166v545h197v-1475h-162zM596 928q-150 0 -229.5 -105t-79.5 -303q0 -177 83 -280t226 -103q147 0 234 105t87 282q0 189 -85 296.5t-236 107.5z" />
    <glyph glyph-name="e" unicode="e" horiz-adv-x="1186" 
d="M1081 307q-46 -160 -171.5 -249t-305.5 -89q-245 0 -383.5 149.5t-138.5 413.5q0 262 137.5 413t375.5 151q494 0 499 -607h-811q14 -171 87 -252q91 -102 240 -102q95 0 163.5 46t94.5 126h213zM291 645h602q-12 144 -87 218.5t-207 74.5q-258 0 -308 -293z" />
    <glyph glyph-name="f" unicode="f" horiz-adv-x="659" 
d="M670 1311q-100 25 -160 25q-114 0 -114 -109v-162h229v-168h-229v-897h-197v897h-158v168h158v150q0 134 81 212.5t220 78.5q71 0 170 -25v-170z" />
    <glyph glyph-name="g" unicode="g" horiz-adv-x="1247" 
d="M343 -72q35 -172 264 -172q301 0 301 277v137q-120 -139 -352 -139q-210 0 -342 147t-132 380q0 247 131 392.5t353 145.5q224 0 346 -172l31 141h161v-1042q0 -194 -134 -308.5t-360 -114.5q-411 0 -478 328h211zM597 928q-146 0 -228 -98t-82 -273q0 -162 85.5 -260
t227.5 -98q150 0 234 92.5t84 257.5q0 178 -85 278.5t-236 100.5z" />
    <glyph glyph-name="h" unicode="h" horiz-adv-x="1161" 
d="M143 0v1475h197v-531q124 152 313 152q178 0 276.5 -105.5t98.5 -296.5v-694h-197v692q0 236 -227 236q-118 0 -191 -76.5t-73 -202.5v-649h-197z" />
    <glyph glyph-name="i" unicode="i" horiz-adv-x="483" 
d="M131 1244v231h221v-231h-221zM143 0v1065h197v-1065h-197z" />
    <glyph glyph-name="j" unicode="j" horiz-adv-x="483" 
d="M-101 -213q6 -1 21 -5q62 -13 102 -13q68 0 94.5 29.5t26.5 105.5v1161h197v-1171q0 -137 -76 -215t-210 -78q-72 0 -155 24v162zM132 1244v231h221v-231h-221z" />
    <glyph glyph-name="k" unicode="k" horiz-adv-x="1065" 
d="M143 0v1475h197v-824l418 414h258l-479 -463l538 -602h-262l-473 537v-537h-197z" />
    <glyph glyph-name="l" unicode="l" horiz-adv-x="483" 
d="M340 0h-197v1475h197v-1475z" />
    <glyph glyph-name="m" unicode="m" horiz-adv-x="1792" 
d="M143 0v1065h162l21 -125q110 156 313 156q218 0 313 -168q110 168 346 168q173 0 267 -99.5t94 -283.5v-713h-197v698q0 119 -49.5 174.5t-155.5 55.5q-111 0 -184.5 -79.5t-73.5 -199.5v-649h-197v698q0 230 -204 230q-109 0 -183.5 -78.5t-74.5 -194.5v-655h-197z" />
    <glyph glyph-name="n" unicode="n" horiz-adv-x="1161" 
d="M143 0v1065h162l23 -135q124 166 325 166q178 0 276.5 -105.5t98.5 -296.5v-694h-197v692q0 236 -226 236q-116 0 -190.5 -76t-74.5 -195v-657h-197z" />
    <glyph glyph-name="o" unicode="o" horiz-adv-x="1214" 
d="M608 1096q245 0 385 -150.5t140 -412.5q0 -261 -141.5 -412.5t-384.5 -151.5q-242 0 -383.5 152.5t-141.5 413.5q0 258 142 409.5t384 151.5zM609 936q-148 0 -235 -108.5t-87 -293.5q0 -188 87 -296.5t237 -108.5q149 0 233 107t84 296q0 187 -85.5 295.5t-233.5 108.5z
" />
    <glyph glyph-name="p" unicode="p" horiz-adv-x="1247" 
d="M305 1065l31 -139q137 170 360 170q218 0 343.5 -148.5t125.5 -406.5q0 -273 -136 -424q-133 -148 -348 -148q-221 0 -341 168v-506h-197v1434h162zM652 928q-147 0 -234.5 -105t-87.5 -281q0 -188 86 -296.5t235 -108.5q150 0 229.5 105t79.5 305q0 178 -82 279.5
t-226 101.5z" />
    <glyph glyph-name="q" unicode="q" horiz-adv-x="1247" 
d="M1104 1065v-1434h-197v516q-124 -178 -354 -178q-216 0 -343.5 151t-127.5 407q0 268 128 418.5t355 150.5q225 0 348 -160l29 129h162zM596 928q-150 0 -229.5 -105t-79.5 -303q0 -177 83 -280t226 -103q147 0 234 105t87 282q0 189 -85 296.5t-236 107.5z" />
    <glyph glyph-name="r" unicode="r" horiz-adv-x="729" 
d="M143 0v1065h162l27 -158q96 189 273 189q39 0 79 -8q10 -2 34 -7v-196q-65 18 -122 18q-124 0 -190 -95.5t-66 -272.5v-535h-197z" />
    <glyph glyph-name="s" unicode="s" horiz-adv-x="1047" 
d="M956 784h-201q-38 156 -240 156q-99 0 -154.5 -34t-55.5 -96q0 -65 50.5 -98t197.5 -65q225 -49 318 -126.5t93 -215.5q0 -154 -120 -245t-323 -91q-201 0 -320.5 87.5t-139.5 248.5h201q18 -94 79.5 -137t180.5 -43q113 0 178 44t65 121q0 76 -55.5 112.5t-236.5 78.5
q-205 48 -286 117t-81 194q0 144 108.5 224t302.5 80q184 0 296 -79.5t143 -232.5z" />
    <glyph glyph-name="t" unicode="t" horiz-adv-x="659" 
d="M619 -10q-80 -21 -144 -21q-137 0 -211.5 77.5t-74.5 217.5v633h-158v168h158l12 256h185v-256h229v-168h-229v-637q0 -119 112 -119q46 0 111 14l10 3v-168z" />
    <glyph glyph-name="u" unicode="u" horiz-adv-x="1153" 
d="M330 1065v-698q0 -230 221 -230q118 0 190 76.5t72 202.5v649h197v-1065h-162l-23 123q-117 -154 -320 -154q-176 0 -274 105.5t-98 296.5v694h197z" />
    <glyph glyph-name="v" unicode="v" horiz-adv-x="1053" 
d="M1032 1065l-375 -1065h-266l-371 1065h215l295 -905l297 905h205z" />
    <glyph glyph-name="w" unicode="w" horiz-adv-x="1659" 
d="M1628 1065l-311 -1065h-227l-258 842l-254 -842h-236l-311 1065h205l229 -856l254 856h236l250 -852l227 852h196z" />
    <glyph glyph-name="x" unicode="x" horiz-adv-x="1083" 
d="M645 567l417 -567h-239l-289 412l-283 -412h-231l397 553l-372 512h235l254 -358l242 358h225z" />
    <glyph glyph-name="y" unicode="y" horiz-adv-x="1053" 
d="M186 -381v160q58 -14 101 -14q63 0 100 46.5t88 188.5h-64l-391 1065h213l301 -905l301 905h197l-371 -1079q-76 -222 -150 -303.5t-199 -81.5q-42 0 -126 18z" />
    <glyph glyph-name="z" unicode="z" horiz-adv-x="987" 
d="M292 168h633v-168h-864v186l633 713h-602v166h833v-186z" />
    <glyph glyph-name="braceleft" unicode="{" horiz-adv-x="696" 
d="M61 745q91 2 139.5 48.5t48.5 132.5v381q0 181 89.5 265t284.5 87v-154q-107 0 -147.5 -40.5t-40.5 -147.5v-359q2 -231 -174 -301q175 -70 174 -301v-358q0 -107 40.5 -147.5t147.5 -40.5v-154q-195 3 -284.5 87t-89.5 265v381q0 86 -48.5 132.5t-139.5 47.5v176z" />
    <glyph glyph-name="bar" unicode="|" horiz-adv-x="737" 
d="M457 1608v-1895h-176v1895h176z" />
    <glyph glyph-name="braceright" unicode="}" horiz-adv-x="696" 
d="M634 569q-91 -1 -139.5 -47.5t-48.5 -132.5v-381q0 -181 -89.5 -265t-284.5 -87v154q107 0 147.5 40.5t40.5 147.5v358q-2 232 174 301q-176 70 -174 301v359q0 107 -40.5 147.5t-147.5 40.5v154q196 -3 285 -87t89 -265v-381q0 -86 48.5 -132.5t139.5 -48.5v-176z" />
    <glyph glyph-name="asciitilde" unicode="~" 
d="M184 537v186q108 82 247 82q92 0 214 -62q101 -51 166 -51q123 0 233 92v-186q-108 -82 -246 -82q-94 0 -204 57q-5 2 -27 12l-16 8q-81 36 -134 36q-124 0 -233 -92z" />
    <glyph glyph-name="Adieresis" unicode="&#xc4;" horiz-adv-x="1446" 
d="M1214 0l-145 373h-702l-148 -373h-219l606 1475h236l604 -1475h-232zM434 543h567l-280 723zM383 1618v205h213v-205h-213zM846 1618v205h213v-205h-213z" />
    <glyph glyph-name="Aring" unicode="&#xc5;" horiz-adv-x="1446" 
d="M860 1428l586 -1428h-232l-145 373h-702l-148 -373h-219l584 1420q-138 64 -138 219q0 111 73.5 178.5t194.5 67.5t196 -68.5t75 -178.5q0 -139 -125 -210zM434 543h567l-280 723zM714 1768q-59 0 -94 -34.5t-35 -94.5t35 -94.5t94 -34.5q61 0 96.5 35t35.5 94t-35.5 94
t-96.5 35z" />
    <glyph glyph-name="Ccedilla" unicode="&#xc7;" horiz-adv-x="1493" 
d="M506 -303h153q7 -37 37.5 -59.5t74.5 -22.5q111 0 111 96q0 54 -44 78t-148 25l14 157q-293 26 -452.5 225t-159.5 542q0 364 195 570q186 198 496 198q254 0 429 -141.5t197 -363.5h-211q-25 158 -133 244.5t-280 86.5q-228 0 -354 -156t-126 -439q0 -276 125 -434
t343 -158q176 0 296.5 105.5t130.5 269.5h211q-17 -218 -172.5 -369t-390.5 -178v-59q186 -44 186 -200q0 -100 -72.5 -162t-190.5 -62q-108 0 -177.5 54t-87.5 153z" />
    <glyph glyph-name="Eacute" unicode="&#xc9;" horiz-adv-x="1176" 
d="M1014 664h-651v-488h711v-176h-920v1475h920v-176h-711v-463h651v-172zM682 1853h254l-286 -281h-177z" />
    <glyph glyph-name="Ntilde" unicode="&#xd1;" horiz-adv-x="1473" 
d="M1319 1475v-1475h-264l-711 1235v-1235h-190v1475h276l703 -1225v1225h186zM457 1599v166q94 68 183 68q66 0 138 -42q62 -36 106 -36q67 0 167 78v-166q-96 -68 -176 -68q-65 0 -130 39t-112 39q-75 0 -176 -78z" />
    <glyph glyph-name="Odieresis" unicode="&#xd6;" horiz-adv-x="1585" 
d="M795 1506q320 0 509 -208t189 -560q0 -358 -201 -568q-192 -201 -502 -201q-319 0 -508.5 208.5t-189.5 560.5q0 359 206 570q193 198 497 198zM793 1336q-227 0 -357.5 -160t-130.5 -438q0 -279 130.5 -439t358.5 -160q225 0 355.5 160.5t130.5 438.5t-130.5 438
t-356.5 160zM434 1618v205h213v-205h-213zM897 1618v205h213v-205h-213z" />
    <glyph glyph-name="Udieresis" unicode="&#xdc;" horiz-adv-x="1448" 
d="M352 1475v-1000q0 -155 99.5 -242.5t274.5 -87.5q176 0 275.5 87.5t99.5 242.5v1000h203v-981q0 -241 -156.5 -383t-422.5 -142t-424 142.5t-158 382.5v981h209zM383 1618v205h213v-205h-213zM845 1618v205h213v-205h-213z" />
    <glyph glyph-name="aacute" unicode="&#xe1;" horiz-adv-x="1126" 
d="M102 768q22 157 140.5 242.5t315.5 85.5q202 0 318.5 -99t116.5 -270v-727h-162l-24 145q-132 -176 -356 -176q-167 0 -268 84t-101 222q0 148 97 233t306 121l311 53v53q0 99 -63.5 152t-182.5 53q-213 0 -239 -172h-209zM796 528l-264 -47q-130 -23 -185.5 -65.5
t-55.5 -120.5q0 -160 206 -160q120 0 209.5 76.5t89.5 179.5v137zM668 1505h254l-287 -280h-176z" />
    <glyph glyph-name="agrave" unicode="&#xe0;" horiz-adv-x="1126" 
d="M102 768q22 157 140.5 242.5t315.5 85.5q202 0 318.5 -99t116.5 -270v-727h-162l-24 145q-132 -176 -356 -176q-167 0 -268 84t-101 222q0 148 97 233t306 121l311 53v53q0 99 -63.5 152t-182.5 53q-213 0 -239 -172h-209zM796 528l-264 -47q-130 -23 -185.5 -65.5
t-55.5 -120.5q0 -160 206 -160q120 0 209.5 76.5t89.5 179.5v137zM684 1225h-176l-287 280h254z" />
    <glyph glyph-name="acircumflex" unicode="&#xe2;" horiz-adv-x="1126" 
d="M102 768q22 157 140.5 242.5t315.5 85.5q202 0 318.5 -99t116.5 -270v-727h-162l-24 145q-132 -176 -356 -176q-167 0 -268 84t-101 222q0 148 97 233t306 121l311 53v53q0 99 -63.5 152t-182.5 53q-213 0 -239 -172h-209zM796 528l-264 -47q-130 -23 -185.5 -65.5
t-55.5 -120.5q0 -160 206 -160q120 0 209.5 76.5t89.5 179.5v137zM909 1225h-198l-154 168l-153 -168h-199l242 280h223z" />
    <glyph glyph-name="adieresis" unicode="&#xe4;" horiz-adv-x="1126" 
d="M102 768q22 157 140.5 242.5t315.5 85.5q202 0 318.5 -99t116.5 -270v-727h-162l-24 145q-132 -176 -356 -176q-167 0 -268 84t-101 222q0 148 97 233t306 121l311 53v53q0 99 -63.5 152t-182.5 53q-213 0 -239 -172h-209zM796 528l-264 -47q-130 -23 -185.5 -65.5
t-55.5 -120.5q0 -160 206 -160q120 0 209.5 76.5t89.5 179.5v137zM217 1270v205h213v-205h-213zM680 1270v205h213v-205h-213z" />
    <glyph glyph-name="atilde" unicode="&#xe3;" horiz-adv-x="1126" 
d="M102 768q22 157 140.5 242.5t315.5 85.5q202 0 318.5 -99t116.5 -270v-727h-162l-24 145q-132 -176 -356 -176q-167 0 -268 84t-101 222q0 148 97 233t306 121l311 53v53q0 99 -63.5 152t-182.5 53q-213 0 -239 -172h-209zM796 528l-264 -47q-130 -23 -185.5 -65.5
t-55.5 -120.5q0 -160 206 -160q120 0 209.5 76.5t89.5 179.5v137zM262 1252v166q94 67 183 67q65 0 133 -39l5 -3l10 -5l9 -5q47 -25 87 -25q66 0 167 77v-166q-94 -67 -176 -67q-66 0 -130 39q-64 38 -112 38q-75 0 -176 -77z" />
    <glyph glyph-name="aring" unicode="&#xe5;" horiz-adv-x="1126" 
d="M102 768q22 157 140.5 242.5t315.5 85.5q202 0 318.5 -99t116.5 -270v-727h-162l-24 145q-132 -176 -356 -176q-167 0 -268 84t-101 222q0 148 97 233t306 121l311 53v53q0 99 -63.5 152t-182.5 53q-213 0 -239 -172h-209zM796 528l-264 -47q-130 -23 -185.5 -65.5
t-55.5 -120.5q0 -160 206 -160q120 0 209.5 76.5t89.5 179.5v137zM561 1679q120 0 195.5 -68t75.5 -177t-75.5 -177.5t-195.5 -68.5q-121 0 -194.5 67.5t-73.5 177.5q0 111 73.5 178.5t194.5 67.5zM562 1562q-60 0 -95 -34.5t-35 -93.5q0 -60 35 -94.5t95 -34.5t95.5 35
t35.5 93q0 60 -35.5 94.5t-95.5 34.5z" />
    <glyph glyph-name="ccedilla" unicode="&#xe7;" horiz-adv-x="1135" 
d="M313 -303h154q7 -37 37.5 -59.5t74.5 -22.5q111 0 111 96q0 54 -44.5 78t-147.5 25l14 161q-206 31 -318 174.5t-112 376.5q0 262 136 416t367 154q188 0 308.5 -91t151.5 -255h-218q-45 180 -239 180q-142 0 -219.5 -106.5t-77.5 -301.5q0 -181 80 -284t220 -103
q209 0 247 207h215q-23 -152 -128.5 -250t-269.5 -119v-59q187 -44 187 -200q0 -100 -72.5 -162t-190.5 -62q-108 0 -177.5 54t-88.5 153z" />
    <glyph glyph-name="eacute" unicode="&#xe9;" horiz-adv-x="1186" 
d="M1081 307q-46 -160 -171.5 -249t-305.5 -89q-245 0 -383.5 149.5t-138.5 413.5q0 262 137.5 413t375.5 151q494 0 499 -607h-811q14 -171 87 -252q91 -102 240 -102q95 0 163.5 46t94.5 126h213zM291 645h602q-12 144 -87 218.5t-207 74.5q-258 0 -308 -293zM692 1505
h254l-286 -280h-177z" />
    <glyph glyph-name="egrave" unicode="&#xe8;" horiz-adv-x="1186" 
d="M1081 307q-46 -160 -171.5 -249t-305.5 -89q-245 0 -383.5 149.5t-138.5 413.5q0 262 137.5 413t375.5 151q494 0 499 -607h-811q14 -171 87 -252q91 -102 240 -102q95 0 163.5 46t94.5 126h213zM291 645h602q-12 144 -87 218.5t-207 74.5q-258 0 -308 -293zM705 1225
h-177l-286 280h254z" />
    <glyph glyph-name="ecircumflex" unicode="&#xea;" horiz-adv-x="1186" 
d="M1081 307q-46 -160 -171.5 -249t-305.5 -89q-245 0 -383.5 149.5t-138.5 413.5q0 262 137.5 413t375.5 151q494 0 499 -607h-811q14 -171 87 -252q91 -102 240 -102q95 0 163.5 46t94.5 126h213zM291 645h602q-12 144 -87 218.5t-207 74.5q-258 0 -308 -293zM940 1225
h-199l-153 168l-154 -168h-198l241 280h223z" />
    <glyph glyph-name="edieresis" unicode="&#xeb;" horiz-adv-x="1186" 
d="M1081 307q-46 -160 -171.5 -249t-305.5 -89q-245 0 -383.5 149.5t-138.5 413.5q0 262 137.5 413t375.5 151q494 0 499 -607h-811q14 -171 87 -252q91 -102 240 -102q95 0 163.5 46t94.5 126h213zM291 645h602q-12 144 -87 218.5t-207 74.5q-258 0 -308 -293zM246 1270
v205h213v-205h-213zM709 1270v205h213v-205h-213z" />
    <glyph glyph-name="iacute" unicode="&#xed;" horiz-adv-x="483" 
d="M144 0v1065h197v-1065h-197zM320 1505h254l-287 -280h-176z" />
    <glyph glyph-name="igrave" unicode="&#xec;" horiz-adv-x="483" 
d="M143 0v1065h197v-1065h-197zM387 1225h-176l-287 280h254z" />
    <glyph glyph-name="icircumflex" unicode="&#xee;" horiz-adv-x="483" 
d="M143 0v1065h197v-1065h-197zM596 1225h-199l-154 168l-153 -168h-199l242 280h223z" />
    <glyph glyph-name="idieresis" unicode="&#xef;" horiz-adv-x="483" 
d="M144 0v1065h197v-1065h-197zM-94 1270v205h213v-205h-213zM369 1270v205h213v-205h-213z" />
    <glyph glyph-name="ntilde" unicode="&#xf1;" horiz-adv-x="1161" 
d="M143 0v1065h162l23 -135q124 166 325 166q178 0 276.5 -105.5t98.5 -296.5v-694h-197v692q0 236 -226 236q-116 0 -190.5 -76t-74.5 -195v-657h-197zM305 1252v166q94 67 183 67q64 0 132 -39l6 -3l9 -5l10 -5q46 -25 86 -25q66 0 168 77v-166q-94 -67 -176 -67
q-66 0 -130 39q-64 38 -113 38q-75 0 -175 -77z" />
    <glyph glyph-name="oacute" unicode="&#xf3;" horiz-adv-x="1214" 
d="M608 1096q245 0 385 -150.5t140 -412.5q0 -261 -141.5 -412.5t-384.5 -151.5q-242 0 -383.5 152.5t-141.5 413.5q0 258 142 409.5t384 151.5zM609 936q-148 0 -235 -108.5t-87 -293.5q0 -188 87 -296.5t237 -108.5q149 0 233 107t84 296q0 187 -85.5 295.5t-233.5 108.5z
M696 1505h254l-286 -280h-176z" />
    <glyph glyph-name="ograve" unicode="&#xf2;" horiz-adv-x="1214" 
d="M608 1096q245 0 385 -150.5t140 -412.5q0 -261 -141.5 -412.5t-384.5 -151.5q-242 0 -383.5 152.5t-141.5 413.5q0 258 142 409.5t384 151.5zM609 936q-148 0 -235 -108.5t-87 -293.5q0 -188 87 -296.5t237 -108.5q149 0 233 107t84 296q0 187 -85.5 295.5t-233.5 108.5z
M737 1225h-176l-286 280h253z" />
    <glyph glyph-name="ocircumflex" unicode="&#xf4;" horiz-adv-x="1214" 
d="M608 1096q245 0 385 -150.5t140 -412.5q0 -261 -141.5 -412.5t-384.5 -151.5q-242 0 -383.5 152.5t-141.5 413.5q0 258 142 409.5t384 151.5zM609 936q-148 0 -235 -108.5t-87 -293.5q0 -188 87 -296.5t237 -108.5q149 0 233 107t84 296q0 187 -85.5 295.5t-233.5 108.5z
M948 1225h-198l-154 168l-154 -168h-198l241 280h224z" />
    <glyph glyph-name="odieresis" unicode="&#xf6;" horiz-adv-x="1214" 
d="M608 1096q245 0 385 -150.5t140 -412.5q0 -261 -141.5 -412.5t-384.5 -151.5q-242 0 -383.5 152.5t-141.5 413.5q0 258 142 409.5t384 151.5zM609 936q-148 0 -235 -108.5t-87 -293.5q0 -188 87 -296.5t237 -108.5q149 0 233 107t84 296q0 187 -85.5 295.5t-233.5 108.5z
M268 1270v205h213v-205h-213zM731 1270v205h213v-205h-213z" />
    <glyph glyph-name="otilde" unicode="&#xf5;" horiz-adv-x="1214" 
d="M608 1096q245 0 385 -150.5t140 -412.5q0 -261 -141.5 -412.5t-384.5 -151.5q-242 0 -383.5 152.5t-141.5 413.5q0 258 142 409.5t384 151.5zM609 936q-148 0 -235 -108.5t-87 -293.5q0 -188 87 -296.5t237 -108.5q149 0 233 107t84 296q0 187 -85.5 295.5t-233.5 108.5z
M303 1252v166q94 67 183 67q65 0 133 -39l5 -3l10 -5l9 -5q47 -25 87 -25q66 0 167 77v-166q-94 -67 -176 -67q-66 0 -130 39q-64 38 -112 38q-75 0 -176 -77z" />
    <glyph glyph-name="uacute" unicode="&#xfa;" horiz-adv-x="1153" 
d="M330 1065v-698q0 -230 221 -230q118 0 190 76.5t72 202.5v649h197v-1065h-162l-23 123q-117 -154 -320 -154q-176 0 -274 105.5t-98 296.5v694h197zM651 1505h254l-287 -280h-176z" />
    <glyph glyph-name="ugrave" unicode="&#xf9;" horiz-adv-x="1153" 
d="M330 1065v-698q0 -230 221 -230q118 0 190 76.5t72 202.5v649h197v-1065h-162l-23 123q-117 -154 -320 -154q-176 0 -274 105.5t-98 296.5v694h197zM715 1225h-176l-287 280h254z" />
    <glyph glyph-name="ucircumflex" unicode="&#xfb;" horiz-adv-x="1153" 
d="M330 1065v-698q0 -230 221 -230q118 0 190 76.5t72 202.5v649h197v-1065h-162l-23 123q-117 -154 -320 -154q-176 0 -274 105.5t-98 296.5v694h197zM926 1225h-199l-154 168l-153 -168h-199l242 280h223z" />
    <glyph glyph-name="udieresis" unicode="&#xfc;" horiz-adv-x="1153" 
d="M330 1065v-698q0 -230 221 -230q118 0 190 76.5t72 202.5v649h197v-1065h-162l-23 123q-117 -154 -320 -154q-176 0 -274 105.5t-98 296.5v694h197zM231 1270v205h213v-205h-213zM694 1270v205h213v-205h-213z" />
    <glyph glyph-name="dagger" unicode="&#x2020;" 
d="M711 1092h379v-184h-379v-908h-197v908h-377v184h377v383h197v-383z" />
    <glyph glyph-name="degree" unicode="&#xb0;" 
d="M467 1471q150 0 247 -96t97 -245q0 -147 -97.5 -243t-246.5 -96q-150 0 -247 96t-97 244t97 244t247 96zM467 1328q-79 0 -125.5 -53.5t-46.5 -144.5q0 -89 46.5 -142.5t125.5 -53.5t125.5 53.5t46.5 143.5t-46.5 143.5t-125.5 53.5z" />
    <glyph glyph-name="cent" unicode="&#xa2;" 
d="M538 -20q-191 33 -297 176.5t-106 370.5q0 233 103.5 377t299.5 184v264h182v-262q325 -50 377 -340h-217q-45 180 -239 180q-142 0 -219.5 -106.5t-77.5 -301.5q0 -181 80 -284t219 -103q209 0 247 207h215q-23 -147 -124.5 -244t-260.5 -123v-251h-182v256z" />
    <glyph glyph-name="sterling" unicode="&#xa3;" 
d="M184 795h97v274q0 184 111.5 290t305.5 106q344 0 417 -337h-207q-39 171 -215 171q-105 0 -161 -60.5t-56 -171.5v-272h395v-160h-395v-219q0 -150 -115 -236h735v-180h-973v180q158 52 158 223v232h-97v160z" />
    <glyph glyph-name="section" unicode="&#xa7;" 
d="M893 330q120 -86 120 -218q0 -138 -107.5 -218t-292.5 -80q-177 0 -291 79.5t-154 231.5h208q18 -76 80 -117.5t158 -41.5q204 0 204 137q0 69 -55 109.5t-197 76.5q-218 55 -320.5 146t-102.5 229q0 185 186 278q-112 94 -112 223q0 135 112 217.5t295 82.5
q168 0 284 -83.5t155 -230.5h-209q-39 162 -232 162q-99 0 -154.5 -37t-55.5 -103q0 -67 49.5 -107t171.5 -71q244 -62 349 -150.5t105 -232.5q0 -191 -194 -282zM764 397q137 73 137 194q0 103 -102 162q-106 61 -294 103q-23 5 -51 16q-125 -69 -125 -195q0 -81 61 -130.5
t218 -93.5q55 -16 156 -56z" />
    <glyph glyph-name="bullet" unicode="&#x2022;" horiz-adv-x="614" 
d="M129 483v338h356v-338h-356z" />
    <glyph glyph-name="paragraph" unicode="&#xb6;" 
d="M639 1475v-1843h-176v1136q-143 3 -236.5 102.5t-93.5 250.5q0 180 126 280q93 74 204 74h176zM1075 1475v-1843h-176v1843h176z" />
    <glyph glyph-name="germandbls" unicode="&#xdf;" horiz-adv-x="1235" 
d="M410 258h200q24 -123 178 -123q99 0 152 48t53 136q0 85 -41 137t-147 103q-127 60 -175 119t-48 155q0 51 20 89.5t73 92.5t73 90t20 78q0 70 -57 112.5t-150 42.5q-106 0 -163.5 -68t-57.5 -192v-1078h-197v1073q0 196 114 314.5t304 118.5q180 0 291 -86t111 -226
q0 -69 -23.5 -119.5t-82.5 -107.5q-60 -59 -74.5 -80.5t-14.5 -55.5q0 -37 33.5 -67.5t116.5 -69.5q144 -67 210 -154t66 -212q0 -154 -116 -256.5t-291 -102.5q-326 0 -377 289z" />
    <glyph glyph-name="registered" unicode="&#xae;" horiz-adv-x="1319" 
d="M747 752l-95 190h-45v-190h-102v522h152q84 0 134 -43.5t50 -117.5q0 -95 -90 -146l112 -215h-116zM607 1192v-166h47q36 0 57 23.5t21 62.5q0 80 -82 80h-43zM659 1506q227 0 371.5 -139t144.5 -357q0 -246 -172 -381q-146 -115 -344 -115q-187 0 -329 103
q-187 136 -187 393q0 246 172 381q145 115 344 115zM659 1397q-179 0 -283 -104t-104 -283t104 -283t283 -104t283 104t104 283t-104 283t-283 104z" />
    <glyph glyph-name="copyright" unicode="&#xa9;" horiz-adv-x="1810" 
d="M1264 596q-21 -128 -117 -205.5t-235 -77.5q-176 0 -282 115.5t-106 306.5q0 199 104.5 316.5t281.5 117.5q141 0 233 -69.5t115 -194.5h-166q-33 137 -181 137q-107 0 -166 -80t-59 -224q0 -140 60.5 -219t168.5 -79q75 0 124.5 41.5t60.5 114.5h164zM905 1506
q317 0 532 -182q251 -214 251 -589q0 -352 -229 -564q-218 -202 -554 -202q-348 0 -565 213t-217 556q0 372 251 586q215 182 531 182zM905 1365q-273 0 -442.5 -173.5t-169.5 -453.5q0 -300 187 -472q170 -156 425 -156q275 0 444 173.5t169 455.5q0 283 -171 454
q-171 172 -442 172z" />
    <glyph glyph-name="trademark" unicode="&#x2122;" horiz-adv-x="1720" 
d="M1072 664l-194 655v-655h-145v676h-278v-676h-158v676h-246v135h931l175 -614l163 614h247v-811h-150v655l-183 -655h-162z" />
    <glyph glyph-name="acute" unicode="&#xb4;" horiz-adv-x="586" 
d="M270 1505h254l-287 -280h-176z" />
    <glyph glyph-name="dieresis" unicode="&#xa8;" horiz-adv-x="799" 
d="M61 1270v205h213v-205h-213zM524 1270v205h213v-205h-213z" />
    <glyph glyph-name="notequal" unicode="&#x2260;" 
d="M524 362l-174 -281h-182l174 281h-158v174h265l153 246h-418v174h525l170 272h182l-170 -272h154v-174h-261l-153 -246h414v-174h-521z" />
    <glyph glyph-name="AE" unicode="&#xc6;" horiz-adv-x="2001" 
d="M1898 0h-878v373h-567l-228 -373h-225l907 1475h991v-176h-669v-463h610v-172h-610v-488h669v-176zM1020 543v754l-463 -754h463z" />
    <glyph glyph-name="Oslash" unicode="&#xd8;" horiz-adv-x="1585" 
d="M610 -8l-76 -217h-182l96 274q-356 189 -356 689q0 385 227 593q192 175 473 175q87 0 185 -23l73 197h183l-94 -256q354 -192 354 -687q0 -384 -227 -593q-192 -175 -475 -175q-81 0 -181 23zM1063 1256l-402 -1100q70 -17 133 -17q225 0 355.5 160.5t130.5 437.5
q0 360 -217 519zM522 217l397 1102q-65 17 -126 17q-227 0 -357.5 -160t-130.5 -438q0 -361 217 -521z" />
    <glyph glyph-name="infinity" unicode="&#x221e;" horiz-adv-x="1618" 
d="M809 899q113 182 326 182q167 0 269 -100t102 -264q0 -162 -104.5 -263.5t-271.5 -101.5q-195 0 -321 180q-112 -180 -324 -180q-168 0 -270 100t-102 264q0 163 104.5 264t273.5 101q191 0 318 -182zM877 700q6 -46 61 -111q76 -90 173 -90t154 58.5t57 159.5
q0 99 -54.5 158t-147.5 59q-88 0 -160.5 -69.5t-82.5 -164.5zM742 733q-6 45 -61 111q-75 90 -173 90q-97 0 -154 -58.5t-57 -159.5q0 -99 54.5 -158t146.5 -59q89 0 161.5 70t82.5 164z" />
    <glyph glyph-name="plusminus" unicode="&#xb1;" 
d="M706 748h338v-174h-338v-262h-186v262h-336v174h336v342h186v-342zM184 0v174h860v-174h-860z" />
    <glyph glyph-name="lessequal" unicode="&#x2264;" 
d="M184 0v174h860v-174h-860zM379 676l665 -223v-197l-860 328v194l860 369v-197l-665 -264v-10z" />
    <glyph glyph-name="greaterequal" unicode="&#x2265;" 
d="M184 0v174h860v-174h-860zM849 686l-665 264v197l860 -369v-194l-860 -328v197l665 223v10z" />
    <glyph glyph-name="yen" unicode="&#xa5;" 
d="M512 0v266h-287v150h287v157h-287v150h207l-416 711h229l371 -668l385 668h213l-418 -711h209v-150h-286v-157h286v-150h-286v-266h-207z" />
    <glyph glyph-name="mu" unicode="&#xb5;" horiz-adv-x="1163" 
d="M1020 1065v-1065h-162l-21 115q-117 -146 -299 -146q-107 0 -198 62v-400h-197v1434h197v-698q0 -230 222 -230q117 0 189 74.5t72 196.5v657h197z" />
    <glyph glyph-name="partialdiff" unicode="&#x2202;" horiz-adv-x="1190" 
d="M315 1538q391 -83 571 -266q210 -215 210 -619q0 -323 -135 -503.5t-378 -180.5q-227 0 -364 141.5t-137 376.5q0 219 130.5 360.5t332.5 141.5q117 0 220 -53t142 -133q-33 245 -175.5 377t-416.5 174v184zM572 825q-137 0 -213 -91.5t-76 -256.5t78.5 -254.5
t222.5 -89.5q140 0 228.5 97t88.5 251q0 160 -88.5 252t-240.5 92z" />
    <glyph glyph-name="summation" unicode="&#x2211;" 
d="M807 555l-453 -750h784v-174h-1036v170l467 754l-467 750v170h1036v-174h-784z" />
    <glyph glyph-name="product" unicode="&#x220f;" 
d="M153 0v1258h-133v176h1188v-176h-133v-1258h-211v1258h-502v-1258h-209z" />
    <glyph glyph-name="pi" unicode="&#x3c0;" horiz-adv-x="1163" 
d="M143 0v897h-133v168h1143v-168h-133v-897h-197v897h-483v-897h-197z" />
    <glyph glyph-name="integral" unicode="&#x222b;" 
d="M242 -334v168q96 -8 159 -8q115 0 115 108v1680q0 138 73.5 214.5t205.5 76.5q79 0 192 -11v-168l-11 1l-18 2l-18 1q-67 5 -111 5q-116 0 -116 -109v-1679q0 -138 -73.5 -214.5t-205.5 -76.5q-90 0 -192 10z" />
    <glyph glyph-name="ordfeminine" unicode="&#xaa;" horiz-adv-x="1024" 
d="M150 1258q20 111 118 179.5t236 68.5q153 0 247.5 -78.5t94.5 -204.5v-598h-125l-29 96q-80 -118 -255 -118q-140 0 -220 68t-80 188q0 246 332 286l205 25v43q0 154 -173 154q-153 0 -179 -109h-172zM674 1031l-164 -19q-197 -22 -197 -146q0 -118 152 -118
q86 0 147.5 52.5t61.5 125.5v105zM113 0v174h799v-174h-799z" />
    <glyph glyph-name="ordmasculine" unicode="&#xba;" horiz-adv-x="1024" 
d="M113 0v174h778v-174h-778zM515 1506q194 0 295.5 -114.5t101.5 -335.5t-101.5 -337t-296.5 -116q-193 0 -295 116.5t-102 336.5t101.5 335t296.5 115zM514 1365q-105 0 -162 -81t-57 -229q0 -151 56.5 -231t163.5 -80q106 0 162.5 80t56.5 230q0 149 -57 230t-163 81z
" />
    <glyph glyph-name="uni2126" unicode="&#x2126;" horiz-adv-x="1585" 
d="M577 0h-422v186h199q-120 64 -191 213.5t-71 339.5q0 384 227 592q192 175 474 175q319 0 509.5 -208t190.5 -557q0 -191 -73 -342t-195 -213h204v-186h-422v186q273 142 273 552q0 278 -130.5 438t-356.5 160q-227 0 -357.5 -160t-130.5 -438q0 -412 272 -552v-186z" />
    <glyph glyph-name="ae" unicode="&#xe6;" horiz-adv-x="1901" 
d="M1796 307q-44 -159 -170.5 -248.5t-305.5 -89.5q-294 0 -433 219q-64 -106 -171.5 -162.5t-244.5 -56.5q-184 0 -286.5 81.5t-102.5 227.5q0 280 391 330l324 41v86q0 98 -63.5 151.5t-180.5 53.5q-217 0 -242 -172h-209q23 158 140.5 243t315.5 85q254 0 368 -172
q145 172 387 172q240 0 366.5 -151.5t128.5 -441.5h-811q8 -177 93.5 -272.5t235.5 -95.5q93 0 161.5 46t95.5 126h213zM797 495l-277 -35q-123 -15 -176 -54.5t-53 -116.5q0 -154 204 -154q103 0 191 60q49 35 80 84.5t31 94.5v121zM1008 659h600q-12 136 -87 207.5
t-206 71.5q-252 0 -307 -279z" />
    <glyph glyph-name="oslash" unicode="&#xf8;" horiz-adv-x="1214" 
d="M766 1075l100 215h183l-131 -282q215 -154 215 -476q0 -260 -141.5 -411.5t-385.5 -151.5q-82 0 -155 21l-99 -215h-186l131 282q-215 157 -215 477q0 260 142 411t385 151q86 0 157 -21zM385 225l318 697q-44 14 -95 14q-147 0 -234 -109t-87 -293q0 -199 98 -309z
M832 840l-316 -699q48 -12 95 -12q149 0 233 106.5t84 295.5q0 195 -96 309z" />
    <glyph glyph-name="questiondown" unicode="&#xbf;" horiz-adv-x="1194" 
d="M724 1106v-238h-236v238h236zM707 678q-1 -179 -53 -274t-189 -167q-172 -90 -172 -254q0 -97 74.5 -154t202.5 -57q138 0 212 57t97 181h213q-33 -184 -145 -283q-144 -127 -382 -127q-212 0 -347.5 107t-135.5 275q0 260 301 425q75 41 101.5 97t27.5 174h195z" />
    <glyph glyph-name="exclamdown" unicode="&#xa1;" horiz-adv-x="584" 
d="M410 1106v-238h-236v238h236zM369 614l41 -983h-236l41 983h154z" />
    <glyph glyph-name="logicalnot" unicode="&#xac;" 
d="M858 230v344h-674v174h860v-518h-186z" />
    <glyph glyph-name="radical" unicode="&#x221a;" 
d="M387 0l-356 942h205l262 -717l444 1418h410v-168h-258l-479 -1475h-228z" />
    <glyph glyph-name="florin" unicode="&#x192;" horiz-adv-x="659" 
d="M670 1270q-101 25 -160 25q-114 0 -114 -109v-152h229v-168h-229v-1235h-197v1235h-158v168h158v140q0 130 82.5 210.5t217.5 80.5q64 0 146 -19q17 -4 25 -6v-170z" />
    <glyph glyph-name="approxequal" unicode="&#x2248;" 
d="M184 750v186q108 82 247 82q92 0 214 -62q101 -51 166 -51q123 0 233 92v-186q-108 -82 -246 -82q-91 0 -204 57q-8 3 -27 12l-16 8q-81 36 -134 36q-124 0 -233 -92zM184 332v186q108 82 247 82q92 0 214 -62q101 -51 166 -51q122 0 233 93v-187q-108 -82 -246 -82
q-92 0 -204 57q-7 3 -27 12q-90 44 -150 44q-125 0 -233 -92z" />
    <glyph glyph-name="Delta" unicode="&#x2206;" horiz-adv-x="1446" 
d="M0 0l606 1475h236l604 -1475h-1446zM289 176h856l-424 1090z" />
    <glyph glyph-name="guillemotleft" unicode="&#xab;" horiz-adv-x="1044" 
d="M123 645l254 420h137l-160 -426l140 -455h-138zM531 645l254 420h137l-160 -426l139 -455h-137z" />
    <glyph glyph-name="guillemotright" unicode="&#xbb;" horiz-adv-x="1044" 
d="M688 184h-137l139 455l-159 426h137l254 -420zM281 184h-138l140 455l-160 426h137l254 -420z" />
    <glyph glyph-name="ellipsis" unicode="&#x2026;" horiz-adv-x="1843" 
d="M188 0v238h238v-238h-238zM802 0v238h238v-238h-238zM1416 0v238h238v-238h-238z" />
    <glyph glyph-name="glyph172" 
 />
    <glyph glyph-name="Agrave" unicode="&#xc0;" horiz-adv-x="1446" 
d="M1214 0l-145 373h-702l-148 -373h-219l606 1475h236l604 -1475h-232zM434 543h567l-280 723zM895 1572h-176l-287 281h254z" />
    <glyph glyph-name="Atilde" unicode="&#xc3;" horiz-adv-x="1446" 
d="M1214 0l-145 373h-702l-148 -373h-219l606 1475h236l604 -1475h-232zM434 543h567l-280 723zM416 1599v166q94 68 183 68q65 0 138 -42q61 -36 105 -36q67 0 168 78v-166q-96 -68 -176 -68q-65 0 -130 39q-66 39 -113 39q-74 0 -175 -78z" />
    <glyph glyph-name="Otilde" unicode="&#xd5;" horiz-adv-x="1585" 
d="M795 1506q320 0 509 -208t189 -560q0 -358 -201 -568q-192 -201 -502 -201q-319 0 -508.5 208.5t-189.5 560.5q0 359 206 570q193 198 497 198zM793 1336q-227 0 -357.5 -160t-130.5 -438q0 -279 130.5 -439t358.5 -160q225 0 355.5 160.5t130.5 438.5t-130.5 438
t-356.5 160zM489 1599v166q95 68 184 68q65 0 138 -42q61 -36 105 -36q67 0 167 78v-166q-96 -68 -176 -68q-65 0 -130 39t-112 39q-75 0 -176 -78z" />
    <glyph glyph-name="OE" unicode="&#x152;" horiz-adv-x="2030" 
d="M1927 0h-879q-9 -2 -30 -6q-119 -25 -222 -25q-327 0 -515.5 205.5t-188.5 561.5q0 388 227 595q192 175 481 175q112 0 248 -31h879v-176h-670v-463h610v-172h-610v-488h670v-176zM1048 188v1099q-113 49 -254 49q-228 0 -358.5 -160t-130.5 -438q0 -282 129 -440.5
t360 -158.5q141 0 254 49z" />
    <glyph glyph-name="oe" unicode="&#x153;" horiz-adv-x="2023" 
d="M1919 307q-44 -159 -170.5 -248.5t-304.5 -89.5q-267 0 -412 211q-143 -211 -424 -211q-242 0 -384 152t-142 411q0 304 185 452q139 112 341 112q281 0 424 -211q67 101 171.5 156t230.5 55q243 0 369 -154t128 -453h-811q12 -172 96.5 -263t233.5 -91q92 0 160.5 46
t95.5 126h213zM608 936q-147 0 -234 -109.5t-87 -294.5t87.5 -294t235.5 -109t233 107.5t85 294.5t-86 296t-234 109zM1129 645h602q-12 143 -87 218t-206 75q-128 0 -207.5 -75.5t-101.5 -217.5z" />
    <glyph glyph-name="endash" unicode="&#x2013;" horiz-adv-x="942" 
d="M61 574v174h819v-174h-819z" />
    <glyph glyph-name="emdash" unicode="&#x2014;" horiz-adv-x="1352" 
d="M61 574v174h1229v-174h-1229z" />
    <glyph glyph-name="quotedblleft" unicode="&#x201c;" horiz-adv-x="944" 
d="M447 1475v-102q-128 -32 -127 -205h96v-238h-238v207q0 145 70 233t199 105zM797 1475v-102q-129 -32 -127 -205h96v-238h-238v207q0 144 70 232.5t199 105.5z" />
    <glyph glyph-name="quotedblright" unicode="&#x201d;" horiz-adv-x="944" 
d="M496 930v103q128 31 127 204h-96v238h238v-207q0 -144 -70.5 -232.5t-198.5 -105.5zM147 930v103q128 31 127 204h-96v238h238v-207q0 -144 -70.5 -232.5t-198.5 -105.5z" />
    <glyph glyph-name="quoteleft" unicode="&#x2018;" horiz-adv-x="594" 
d="M447 1475v-102q-128 -32 -127 -205h96v-238h-238v207q0 145 70 233t199 105z" />
    <glyph glyph-name="quoteright" unicode="&#x2019;" horiz-adv-x="594" 
d="M147 930v103q128 31 127 204h-96v238h238v-207q0 -144 -70.5 -232.5t-198.5 -105.5z" />
    <glyph glyph-name="divide" unicode="&#xf7;" 
d="M495 131v238h238v-238h-238zM495 950v238h238v-238h-238zM184 574v174h860v-174h-860z" />
    <glyph glyph-name="lozenge" unicode="&#x25ca;" 
d="M709 0h-217l-410 717l412 717h215l438 -717zM604 1291l-317 -574l317 -574l340 574z" />
    <glyph glyph-name="ydieresis" unicode="&#xff;" horiz-adv-x="1053" 
d="M186 -381v160q58 -14 101 -14q63 0 100 46.5t88 188.5h-64l-391 1065h213l301 -905l301 905h197l-371 -1079q-76 -222 -150 -303.5t-199 -81.5q-42 0 -126 18zM188 1270v205h213v-205h-213zM651 1270v205h213v-205h-213z" />
    <glyph glyph-name="Ydieresis" unicode="&#x178;" horiz-adv-x="1288" 
d="M541 0v586l-541 889h229l416 -709l430 709h213l-540 -889v-586h-207zM307 1618v205h213v-205h-213zM770 1618v205h213v-205h-213z" />
    <glyph glyph-name="fraction" unicode="&#x2044;" horiz-adv-x="467" 
d="M-295 -184l860 1802h187l-863 -1802h-184z" />
    <glyph glyph-name="Euro" unicode="&#x20ac;" 
d="M47 940h100q51 254 198 389.5t373 135.5q205 0 339 -107.5t163 -294.5h-213q-54 228 -288 228q-289 0 -359 -351h498l-41 -160h-475v-102q0 -15 2 -37h432l-41 -160h-373q49 -197 151 -273q84 -63 207 -63q226 0 287 232h216q-44 -195 -177 -301.5t-331 -106.5
q-228 0 -371 129.5t-195 382.5h-143l41 160h84v4q-2 17 -2 33v69q0 12 2 33h-125z" />
    <glyph glyph-name="guilsinglleft" unicode="&#x2039;" horiz-adv-x="637" 
d="M123 645l254 420h137l-160 -426l140 -455h-138z" />
    <glyph glyph-name="guilsinglright" unicode="&#x203a;" horiz-adv-x="637" 
d="M281 184h-138l140 455l-160 426h137l254 -420z" />
    <glyph glyph-name="daggerdbl" unicode="&#x2021;" 
d="M711 354v-354h-197v354h-377v184h377v370h-377v184h377v383h197v-383h379v-184h-379v-370h379v-184h-379z" />
    <glyph glyph-name="periodcentered" unicode="&#xb7;" horiz-adv-x="614" 
d="M188 532v238h238v-238h-238z" />
    <glyph glyph-name="quotesinglbase" unicode="&#x201a;" horiz-adv-x="594" 
d="M147 -307v103q128 31 127 204h-96v238h238v-207q0 -144 -70.5 -232.5t-198.5 -105.5z" />
    <glyph glyph-name="quotedblbase" unicode="&#x201e;" horiz-adv-x="944" 
d="M496 -307v103q128 31 127 204h-96v238h238v-207q0 -144 -70.5 -232.5t-198.5 -105.5zM147 -307v103q128 31 127 204h-96v238h238v-207q0 -144 -70.5 -232.5t-198.5 -105.5z" />
    <glyph glyph-name="perthousand" unicode="&#x2030;" horiz-adv-x="2490" 
d="M420 1465q156 0 253 -96.5t97 -250.5q0 -153 -97.5 -249t-252.5 -96t-251.5 96t-96.5 250t96.5 250t251.5 96zM420 1322q-88 0 -135 -52.5t-47 -150.5t47 -150.5t135 -52.5q89 0 137.5 53t48.5 150t-48.5 150t-137.5 53zM561 0h-196l782 1434h197zM1301 662
q156 0 253 -96.5t97 -250.5q0 -153 -97.5 -249.5t-252.5 -96.5t-251.5 96.5t-96.5 249.5q0 154 96.5 250.5t251.5 96.5zM1301 519q-88 0 -135 -52.5t-47 -150.5q0 -99 47 -151.5t135 -52.5q89 0 137.5 53t48.5 151q0 97 -48.5 150t-137.5 53zM2100 662q155 0 252.5 -96.5
t97.5 -250.5q0 -153 -97.5 -249.5t-252.5 -96.5t-252 96.5t-97 249.5q0 154 97 250.5t252 96.5zM2099 519q-88 0 -135 -52.5t-47 -150.5q0 -99 47 -151.5t135 -52.5q90 0 138.5 53t48.5 151q0 97 -48.5 150t-138.5 53z" />
    <glyph glyph-name="Acircumflex" unicode="&#xc2;" horiz-adv-x="1446" 
d="M1214 0l-145 373h-702l-148 -373h-219l606 1475h236l604 -1475h-232zM434 543h567l-280 723zM1075 1573h-198l-154 168l-154 -168h-198l241 280h224z" />
    <glyph glyph-name="Ecircumflex" unicode="&#xca;" horiz-adv-x="1176" 
d="M1014 664h-651v-488h711v-176h-920v1475h920v-176h-711v-463h651v-172zM961 1573h-199l-153 168l-154 -168h-199l242 280h223z" />
    <glyph glyph-name="Aacute" unicode="&#xc1;" horiz-adv-x="1446" 
d="M1214 0l-145 373h-702l-148 -373h-219l606 1475h236l604 -1475h-232zM434 543h567l-280 723zM762 1853h254l-287 -281h-176z" />
    <glyph glyph-name="Edieresis" unicode="&#xcb;" horiz-adv-x="1176" 
d="M1014 664h-651v-488h711v-176h-920v1475h920v-176h-711v-463h651v-172zM279 1618v205h213v-205h-213zM742 1618v205h213v-205h-213z" />
    <glyph glyph-name="Egrave" unicode="&#xc8;" horiz-adv-x="1176" 
d="M1014 664h-651v-488h711v-176h-920v1475h920v-176h-711v-463h651v-172zM781 1572h-176l-287 281h254z" />
    <glyph glyph-name="Iacute" unicode="&#xcd;" horiz-adv-x="516" 
d="M363 1475v-1475h-209v1475h209zM295 1853h254l-287 -281h-176z" />
    <glyph glyph-name="Icircumflex" unicode="&#xce;" horiz-adv-x="516" 
d="M363 1475v-1475h-209v1475h209zM613 1573h-199l-154 168l-153 -168h-199l242 280h223z" />
    <glyph glyph-name="Idieresis" unicode="&#xcf;" horiz-adv-x="516" 
d="M362 1475v-1475h-209v1475h209zM-78 1618v205h213v-205h-213zM385 1618v205h213v-205h-213z" />
    <glyph glyph-name="Igrave" unicode="&#xcc;" horiz-adv-x="516" 
d="M362 1475v-1475h-209v1475h209zM426 1572h-176l-287 281h254z" />
    <glyph glyph-name="Oacute" unicode="&#xd3;" horiz-adv-x="1585" 
d="M795 1506q320 0 509 -208t189 -560q0 -358 -201 -568q-192 -201 -502 -201q-319 0 -508.5 208.5t-189.5 560.5q0 359 206 570q193 198 497 198zM793 1336q-227 0 -357.5 -160t-130.5 -438q0 -279 130.5 -439t358.5 -160q225 0 355.5 160.5t130.5 438.5t-130.5 438
t-356.5 160zM846 1853h254l-287 -281h-176z" />
    <glyph glyph-name="Ocircumflex" unicode="&#xd4;" horiz-adv-x="1585" 
d="M795 1506q320 0 509 -208t189 -560q0 -358 -201 -568q-192 -201 -502 -201q-319 0 -508.5 208.5t-189.5 560.5q0 359 206 570q193 198 497 198zM793 1336q-227 0 -357.5 -160t-130.5 -438q0 -279 130.5 -439t358.5 -160q225 0 355.5 160.5t130.5 438.5t-130.5 438
t-356.5 160zM1130 1573h-198l-154 168l-154 -168h-198l241 280h224z" />
    <glyph glyph-name="glyph210" horiz-adv-x="614" 
 />
    <glyph glyph-name="Ograve" unicode="&#xd2;" horiz-adv-x="1585" 
d="M795 1506q320 0 509 -208t189 -560q0 -358 -201 -568q-192 -201 -502 -201q-319 0 -508.5 208.5t-189.5 560.5q0 359 206 570q193 198 497 198zM793 1336q-227 0 -357.5 -160t-130.5 -438q0 -279 130.5 -439t358.5 -160q225 0 355.5 160.5t130.5 438.5t-130.5 438
t-356.5 160zM954 1572h-176l-287 281h254z" />
    <glyph glyph-name="Uacute" unicode="&#xda;" horiz-adv-x="1448" 
d="M352 1475v-1000q0 -155 99.5 -242.5t274.5 -87.5q176 0 275.5 87.5t99.5 242.5v1000h203v-981q0 -241 -156.5 -383t-422.5 -142t-424 142.5t-158 382.5v981h209zM776 1853h254l-287 -281h-176z" />
    <glyph glyph-name="Ucircumflex" unicode="&#xdb;" horiz-adv-x="1448" 
d="M352 1475v-1000q0 -155 99.5 -242.5t274.5 -87.5q176 0 275.5 87.5t99.5 242.5v1000h203v-981q0 -241 -156.5 -383t-422.5 -142t-424 142.5t-158 382.5v981h209zM1081 1573h-199l-153 168l-154 -168h-199l242 280h223z" />
    <glyph glyph-name="Ugrave" unicode="&#xd9;" horiz-adv-x="1448" 
d="M352 1475v-1000q0 -155 99.5 -242.5t274.5 -87.5q176 0 275.5 87.5t99.5 242.5v1000h203v-981q0 -241 -156.5 -383t-422.5 -142t-424 142.5t-158 382.5v981h209zM903 1572h-176l-287 281h254z" />
    <glyph glyph-name="dotlessi" unicode="&#x131;" horiz-adv-x="483" 
d="M143 0v1065h197v-1065h-197z" />
    <glyph glyph-name="circumflex" unicode="&#x2c6;" horiz-adv-x="819" 
d="M762 1225h-199l-154 168l-153 -168h-199l242 280h223z" />
    <glyph glyph-name="tilde" unicode="&#x2dc;" horiz-adv-x="717" 
d="M61 1252v166q94 67 183 67q65 0 132 -39l6 -3l10 -5l9 -5q47 -25 87 -25q65 0 167 77v-166q-94 -67 -176 -67q-66 0 -130 39q-64 38 -113 38q-74 0 -175 -77z" />
    <glyph glyph-name="macron" unicode="&#xaf;" horiz-adv-x="676" 
d="M61 1296v168h553v-168h-553z" />
    <glyph glyph-name="breve" unicode="&#x2d8;" horiz-adv-x="676" 
d="M41 1506h172q12 -142 125 -142t125 142h172q-39 -273 -299 -273q-256 0 -295 273z" />
    <glyph glyph-name="dotaccent" unicode="&#x2d9;" horiz-adv-x="344" 
d="M61 1244v231h221v-231h-221z" />
    <glyph glyph-name="ring" unicode="&#x2da;" horiz-adv-x="662" 
d="M329 1679q120 0 195.5 -68t75.5 -177t-75.5 -177.5t-195.5 -68.5q-121 0 -194.5 67.5t-73.5 177.5q0 111 73.5 178.5t194.5 67.5zM329 1562q-60 0 -94.5 -34.5t-34.5 -93.5q0 -60 35 -94.5t94 -34.5q61 0 96.5 35t35.5 93q0 59 -35.5 94t-96.5 35z" />
    <glyph glyph-name="cedilla" unicode="&#xb8;" horiz-adv-x="623" 
d="M45 -303h154q6 -37 37 -59.5t74 -22.5q111 0 111 96q0 54 -44 78t-148 25l21 227h137v-127q186 -44 186 -200q0 -100 -72.5 -162t-190.5 -62q-108 0 -177 54t-88 153z" />
    <glyph glyph-name="hungarumlaut" unicode="&#x2dd;" horiz-adv-x="897" 
d="M260 1505h219l-262 -280h-156zM616 1505h219l-262 -280h-156z" />
    <glyph glyph-name="ogonek" unicode="&#x2db;" horiz-adv-x="653" 
d="M366 39h154q-307 -147 -307 -300q0 -114 117 -114q85 0 102 70h160q-61 -201 -272 -201q-119 0 -192 59.5t-73 156.5q0 105 86.5 196t224.5 133z" />
    <glyph glyph-name="caron" unicode="&#x2c7;" horiz-adv-x="819" 
d="M522 1225h-223l-242 280h199l153 -167l154 167h199z" />
    <glyph glyph-name="uni00A0" unicode="&#xa0;" horiz-adv-x="614" 
 />
    <glyph glyph-name="currency" unicode="&#xa4;" 
d="M330 289l-123 -123l-139 139l127 127q-72 121 -72 264q0 136 70 260l-123 125l139 140l119 -121q133 86 287 86q153 0 287 -86l118 121l140 -140l-123 -125q69 -122 69 -260q0 -145 -71 -264l127 -127l-140 -139l-123 123q-126 -82 -284 -82q-159 0 -285 82zM616 1016
q-133 0 -222 -91t-89 -229t89 -228.5t225 -90.5q130 0 217.5 92t87.5 227q0 137 -88 228.5t-220 91.5z" />
    <glyph glyph-name="brokenbar" unicode="&#xa6;" horiz-adv-x="737" 
d="M457 1608v-789h-176v789h176zM457 502v-789h-176v789h176z" />
    <glyph glyph-name="uni00AD" unicode="&#xad;" horiz-adv-x="1106" 
d="M184 574v174h737v-174h-737z" />
    <glyph glyph-name="twosuperior" unicode="&#xb2;" horiz-adv-x="846" 
d="M88 1260q20 126 111 195t236 69q143 0 230 -73.5t87 -193.5q0 -93 -56 -174.5t-209 -210.5l-163 -104h419v-166h-632v166l268 217q89 72 139 143t50 125q0 119 -136 119q-135 0 -156 -112h-188z" />
    <glyph glyph-name="threesuperior" unicode="&#xb3;" horiz-adv-x="868" 
d="M559 1081q215 -47 215 -229q0 -122 -91.5 -194t-245.5 -72q-148 0 -239 66.5t-110 189.5h178q36 -106 168 -106q75 0 116.5 32t41.5 91q0 145 -158 145h-67v135h69q129 0 129 130q0 108 -138 108q-118 0 -136 -97h-185q21 118 107 181t227 63q144 0 224.5 -63.5
t80.5 -177.5q0 -151 -186 -202z" />
    <glyph glyph-name="onesuperior" unicode="&#xb9;" horiz-adv-x="539" 
d="M444 603h-178v727l-223 -107v170l233 113h168v-903z" />
    <glyph glyph-name="onequarter" unicode="&#xbc;" horiz-adv-x="1774" 
d="M307 -184l860 1802h186l-862 -1802h-184zM503 603h-178v727l-223 -107v170l233 113h168v-903zM1538 324h133v-152h-133v-170h-162v170h-399v164l379 570h182v-582zM1134 324h242v342z" />
    <glyph glyph-name="onehalf" unicode="&#xbd;" horiz-adv-x="1866" 
d="M307 -184l860 1802h186l-862 -1802h-184zM503 603h-178v727l-223 -107v170l233 113h168v-903zM1099 659q20 126 111 195.5t236 69.5q143 0 230 -73.5t87 -193.5q0 -93 -55 -173t-209 -212l-164 -104h420v-166h-633v166l268 217q89 72 139 143t50 125q0 119 -136 119
q-134 0 -155 -113h-189z" />
    <glyph glyph-name="threequarters" unicode="&#xbe;" horiz-adv-x="1954" 
d="M487 -184l860 1802h187l-863 -1802h-184zM573 1081q215 -47 215 -229q0 -122 -91.5 -194t-245.5 -72q-148 0 -239 66.5t-110 189.5h178q36 -106 168 -106q75 0 116.5 32t41.5 91q0 145 -158 145h-67v135h69q129 0 129 130q0 108 -138 108q-118 0 -136 -97h-185
q21 118 107 181t227 63q144 0 224.5 -63.5t80.5 -177.5q0 -151 -186 -202zM1718 324h133v-152h-133v-170h-162v170h-399v164l378 570h183v-582zM1314 324h242v342z" />
    <glyph glyph-name="Eth" unicode="&#xd0;" horiz-adv-x="1450" 
d="M153 686h-102v176h102v613h479q349 0 537 -190.5t188 -544.5t-207 -550q-199 -190 -532 -190h-465v686zM362 686v-514h277q248 0 377.5 144.5t129.5 421.5t-132 424t-380 147h-272v-447h420v-176h-420z" />
    <glyph glyph-name="multiply" unicode="&#xd7;" 
d="M613 782l247 244l123 -123l-245 -244l245 -243l-123 -123l-247 244l-244 -242l-123 123l244 241l-244 242l123 123z" />
    <glyph glyph-name="Yacute" unicode="&#xdd;" horiz-adv-x="1288" 
d="M541 0v586l-541 889h229l416 -709l430 709h213l-540 -889v-586h-207zM757 1853h254l-286 -281h-176z" />
    <glyph glyph-name="Thorn" unicode="&#xde;" horiz-adv-x="1262" 
d="M363 248v-248h-209v1475h209v-238h262q278 0 432 -130.5t154 -366.5q0 -233 -154 -362.5t-432 -129.5h-262zM363 1067v-649h266q365 0 365 323q0 326 -365 326h-266z" />
    <glyph glyph-name="eth" unicode="&#xf0;" horiz-adv-x="1190" 
d="M315 1538q220 -48 375 -124l60 61h211l-140 -145q143 -116 209 -278t66 -398q0 -324 -135 -504.5t-378 -180.5q-227 0 -364 141.5t-137 376.5q0 219 130.5 360.5t332.5 141.5q117 0 220 -53t142 -133q-38 267 -204 401l-62 -65h-211l139 146q-112 48 -254 69v184z
M572 825q-137 0 -213 -91.5t-76 -256.5t78.5 -254.5t222.5 -89.5q140 0 228.5 97t88.5 251q0 160 -88.5 252t-240.5 92z" />
    <glyph glyph-name="yacute" unicode="&#xfd;" horiz-adv-x="1053" 
d="M186 -381v160q58 -14 101 -14q63 0 100 46.5t88 188.5h-64l-391 1065h213l301 -905l301 905h197l-371 -1079q-76 -222 -150 -303.5t-199 -81.5q-42 0 -126 18zM634 1505h254l-286 -280h-176z" />
    <glyph glyph-name="thorn" unicode="&#xfe;" horiz-adv-x="1247" 
d="M143 -369v1844h197v-557q124 178 354 178q219 0 345 -148.5t126 -406.5q0 -277 -141 -429q-132 -143 -342 -143q-218 0 -340 166v-504h-199zM650 928q-146 0 -233 -104.5t-87 -279.5q0 -187 86.5 -297t234.5 -110t228.5 106t80.5 302q0 182 -81.5 282.5t-228.5 100.5z
" />
    <glyph glyph-name="Amacron" unicode="&#x100;" horiz-adv-x="1446" 
d="M1214 0l-145 373h-702l-148 -373h-219l606 1475h236l604 -1475h-232zM434 543h567l-280 723zM440 1644v168h553v-168h-553z" />
    <glyph glyph-name="amacron" unicode="&#x101;" horiz-adv-x="1126" 
d="M102 768q22 157 140.5 242.5t315.5 85.5q202 0 318.5 -99t116.5 -270v-727h-162l-24 145q-132 -176 -356 -176q-167 0 -268 84t-101 222q0 148 97 233t306 121l311 53v53q0 99 -63.5 152t-182.5 53q-213 0 -239 -172h-209zM796 528l-264 -47q-130 -23 -185.5 -65.5
t-55.5 -120.5q0 -160 206 -160q120 0 209.5 76.5t89.5 179.5v137zM270 1296v168h553v-168h-553z" />
    <glyph glyph-name="Abreve" unicode="&#x102;" horiz-adv-x="1446" 
d="M1214 0l-145 373h-702l-148 -373h-219l606 1475h236l604 -1475h-232zM434 543h567l-280 723zM418 1853h172q12 -141 125 -141t125 141h172q-39 -272 -299 -272q-256 0 -295 272z" />
    <glyph glyph-name="abreve" unicode="&#x103;" horiz-adv-x="1126" 
d="M102 768q22 157 140.5 242.5t315.5 85.5q202 0 318.5 -99t116.5 -270v-727h-162l-24 145q-132 -176 -356 -176q-167 0 -268 84t-101 222q0 148 97 233t306 121l311 53v53q0 99 -63.5 152t-182.5 53q-213 0 -239 -172h-209zM796 528l-264 -47q-130 -23 -185.5 -65.5
t-55.5 -120.5q0 -160 206 -160q120 0 209.5 76.5t89.5 179.5v137zM260 1506h172q12 -142 125 -142t125 142h172q-39 -273 -298 -273q-257 0 -296 273z" />
    <glyph glyph-name="Aogonek" unicode="&#x104;" horiz-adv-x="1446" 
d="M1391 0q-111 -61 -172.5 -129.5t-61.5 -130.5q0 -115 117 -115q85 0 102 70h160q-60 -201 -272 -201q-119 0 -192 59.5t-73 156.5q0 84 56.5 160t158.5 130l-145 373h-702l-148 -373h-219l606 1475h236l604 -1475h-55zM434 543h567l-280 723z" />
    <glyph glyph-name="aogonek" unicode="&#x105;" horiz-adv-x="1126" 
d="M102 768q22 157 140.5 242.5t315.5 85.5q202 0 318.5 -99t116.5 -270v-727q-233 -130 -233 -260q0 -115 117 -115q85 0 102 70h159q-60 -201 -271 -201q-119 0 -192 59.5t-73 156.5q0 86 60.5 165t166.5 131l-22 139q-132 -176 -356 -176q-167 0 -268 84t-101 222
q0 148 97 233t306 121l311 53v53q0 99 -63.5 152t-182.5 53q-213 0 -239 -172h-209zM796 528l-264 -47q-130 -23 -185.5 -65.5t-55.5 -120.5q0 -160 205 -160q120 0 210 76t90 176v141z" />
    <glyph glyph-name="Cacute" unicode="&#x106;" horiz-adv-x="1493" 
d="M1200 520h211q-17 -239 -199 -395t-445 -156q-315 0 -495 205t-180 563q0 365 195 571q187 198 496 198q254 0 429 -141.5t197 -363.5h-211q-25 158 -133 244.5t-280 86.5q-228 0 -354 -156t-126 -439q0 -276 124.5 -434t342.5 -158q177 0 297.5 105.5t130.5 269.5z
M848 1853h254l-287 -281h-176z" />
    <glyph glyph-name="cacute" unicode="&#x107;" horiz-adv-x="1135" 
d="M1053 342q-25 -168 -153 -270.5t-314 -102.5q-230 0 -367 151.5t-137 405.5q0 262 136 416t367 154q188 0 308.5 -91t151.5 -255h-218q-45 180 -239 180q-142 0 -219.5 -106.5t-77.5 -301.5q0 -181 80 -284t220 -103q209 0 247 207h215zM696 1505h254l-286 -280h-176z
" />
    <glyph glyph-name="Ccircumflex" unicode="&#x108;" horiz-adv-x="1493" 
d="M1200 520h211q-17 -239 -199 -395t-445 -156q-315 0 -495 205t-180 563q0 365 195 571q187 198 496 198q254 0 429 -141.5t197 -363.5h-211q-25 158 -133 244.5t-280 86.5q-228 0 -354 -156t-126 -439q0 -276 124.5 -434t342.5 -158q177 0 297.5 105.5t130.5 269.5z
M1091 1573h-198l-154 168l-153 -168h-199l242 280h223z" />
    <glyph glyph-name="ccircumflex" unicode="&#x109;" horiz-adv-x="1135" 
d="M1053 342q-25 -168 -153 -270.5t-314 -102.5q-230 0 -367 151.5t-137 405.5q0 262 136 416t367 154q188 0 308.5 -91t151.5 -255h-218q-45 180 -239 180q-142 0 -219.5 -106.5t-77.5 -301.5q0 -181 80 -284t220 -103q209 0 247 207h215zM924 1225h-199l-154 168
l-153 -168h-199l242 280h223z" />
    <glyph glyph-name="Cdotaccent" unicode="&#x10a;" horiz-adv-x="1493" 
d="M1200 520h211q-17 -239 -199 -395t-445 -156q-315 0 -495 205t-180 563q0 365 195 571q187 198 496 198q254 0 429 -141.5t197 -363.5h-211q-25 158 -133 244.5t-280 86.5q-228 0 -354 -156t-126 -439q0 -276 124.5 -434t342.5 -158q177 0 297.5 105.5t130.5 269.5z
M631 1592v231h221v-231h-221z" />
    <glyph glyph-name="cdotaccent" unicode="&#x10b;" horiz-adv-x="1135" 
d="M1053 342q-25 -168 -153 -270.5t-314 -102.5q-230 0 -367 151.5t-137 405.5q0 262 136 416t367 154q188 0 308.5 -91t151.5 -255h-218q-45 180 -239 180q-142 0 -219.5 -106.5t-77.5 -301.5q0 -181 80 -284t220 -103q209 0 247 207h215zM455 1244v231h221v-231h-221z" />
    <glyph glyph-name="Ccaron" unicode="&#x10c;" horiz-adv-x="1493" 
d="M1200 520h211q-17 -239 -199 -395t-445 -156q-315 0 -495 205t-180 563q0 365 195 571q187 198 496 198q254 0 429 -141.5t197 -363.5h-211q-25 158 -133 244.5t-280 86.5q-228 0 -354 -156t-126 -439q0 -276 124.5 -434t342.5 -158q177 0 297.5 105.5t130.5 269.5z
M860 1573h-223l-242 280h199l153 -168l154 168h199z" />
    <glyph glyph-name="ccaron" unicode="&#x10d;" horiz-adv-x="1135" 
d="M1053 342q-25 -168 -153 -270.5t-314 -102.5q-230 0 -367 151.5t-137 405.5q0 262 136 416t367 154q188 0 308.5 -91t151.5 -255h-218q-45 180 -239 180q-142 0 -219.5 -106.5t-77.5 -301.5q0 -181 80 -284t220 -103q209 0 247 207h215zM668 1225h-224l-241 280h198
l154 -167l154 167h198z" />
    <glyph glyph-name="Dcaron" unicode="&#x10e;" horiz-adv-x="1450" 
d="M154 0v1475h479q349 0 537 -190.5t188 -543.5q0 -355 -207 -551q-199 -190 -532 -190h-465zM363 1309v-1137h277q248 0 377.5 144.5t129.5 422.5q0 276 -132 423t-380 147h-272zM750 1573h-223l-242 280h199l153 -168l154 168h199z" />
    <glyph glyph-name="dcaron" unicode="&#x10f;" horiz-adv-x="1470" 
d="M942 0l-35 150q-126 -181 -354 -181q-216 0 -343.5 151t-127.5 407q0 268 128 418.5t355 150.5q215 0 342 -166v545h197v-1475h-162zM596 928q-150 0 -229.5 -105t-79.5 -303q0 -177 83 -280t226 -103q147 0 234 105t87 282q0 189 -85 296.5t-236 107.5zM1200 1024v103
q128 30 127 151h-61v197h205v-162q0 -114 -74.5 -193.5t-196.5 -95.5z" />
    <glyph glyph-name="Dcroat" unicode="&#x110;" horiz-adv-x="1450" 
d="M153 686h-102v176h102v613h479q349 0 537 -190.5t188 -544.5t-207 -550q-199 -190 -532 -190h-465v686zM362 686v-514h277q248 0 377.5 144.5t129.5 421.5t-132 424t-380 147h-272v-447h420v-176h-420z" />
    <glyph glyph-name="dcroat" unicode="&#x111;" horiz-adv-x="1247" 
d="M942 0l-35 150q-126 -181 -354 -181q-216 0 -343.5 151t-127.5 407q0 268 128 418.5t355 150.5q215 0 342 -166v295h-301v147h301v103h197v-103h113v-147h-113v-1225h-162zM596 928q-150 0 -229.5 -105t-79.5 -303q0 -177 83 -280t226 -103q147 0 234 105t87 282
q0 189 -85 296.5t-236 107.5z" />
    <glyph glyph-name="Emacron" unicode="&#x112;" horiz-adv-x="1176" 
d="M1014 664h-651v-488h711v-176h-920v1475h920v-176h-711v-463h651v-172zM347 1644v168h552v-168h-552z" />
    <glyph glyph-name="emacron" unicode="&#x113;" horiz-adv-x="1186" 
d="M1081 307q-46 -160 -171.5 -249t-305.5 -89q-245 0 -383.5 149.5t-138.5 413.5q0 262 137.5 413t375.5 151q494 0 499 -607h-811q14 -171 87 -252q91 -102 240 -102q95 0 163.5 46t94.5 126h213zM291 645h602q-12 144 -87 218.5t-207 74.5q-258 0 -308 -293zM301 1296
v168h553v-168h-553z" />
    <glyph glyph-name="Ebreve" unicode="&#x114;" horiz-adv-x="1176" 
d="M1014 664h-651v-488h711v-176h-920v1475h920v-176h-711v-463h651v-172zM342 1853h172q12 -141 125 -141q114 0 125 141h172q-38 -272 -298 -272q-257 0 -296 272z" />
    <glyph glyph-name="ebreve" unicode="&#x115;" horiz-adv-x="1186" 
d="M1081 307q-46 -160 -171.5 -249t-305.5 -89q-245 0 -383.5 149.5t-138.5 413.5q0 262 137.5 413t375.5 151q494 0 499 -607h-811q14 -171 87 -252q91 -102 240 -102q95 0 163.5 46t94.5 126h213zM291 645h602q-12 144 -87 218.5t-207 74.5q-258 0 -308 -293zM295 1506
h172q12 -142 125 -142t125 142h172q-39 -273 -299 -273q-256 0 -295 273z" />
    <glyph glyph-name="Edotaccent" unicode="&#x116;" horiz-adv-x="1176" 
d="M1014 664h-651v-488h711v-176h-920v1475h920v-176h-711v-463h651v-172zM508 1592v231h221v-231h-221z" />
    <glyph glyph-name="edotaccent" unicode="&#x117;" horiz-adv-x="1186" 
d="M1081 307q-46 -160 -171.5 -249t-305.5 -89q-245 0 -383.5 149.5t-138.5 413.5q0 262 137.5 413t375.5 151q494 0 499 -607h-811q14 -171 87 -252q91 -102 240 -102q95 0 163.5 46t94.5 126h213zM291 645h602q-12 144 -87 218.5t-207 74.5q-258 0 -308 -293zM475 1244
v231h221v-231h-221z" />
    <glyph glyph-name="Eogonek" unicode="&#x118;" horiz-adv-x="1176" 
d="M1014 664h-651v-488h711v-176h-187q-109 -60 -170 -129t-61 -131q0 -115 117 -115q85 0 102 70h160q-60 -201 -272 -201q-119 0 -192 59.5t-73 156.5q0 82 56.5 159t156.5 131h-557v1475h920v-176h-711v-463h651v-172z" />
    <glyph glyph-name="eogonek" unicode="&#x119;" horiz-adv-x="1186" 
d="M571 -31q-235 16 -362 161.5t-127 400.5q0 263 137 414t376 151q494 0 499 -607h-811q14 -170 87 -252q91 -102 240 -102q95 0 163.5 46t94.5 126h213q-32 -110 -93 -179t-175 -124q-113 -55 -179 -126t-66 -138q0 -115 117 -115q85 0 102 70h159q-60 -201 -271 -201
q-119 0 -192 59.5t-73 156.5q0 146 161 259zM291 645h602q-12 144 -87 218.5t-207 74.5q-258 0 -308 -293z" />
    <glyph glyph-name="Ecaron" unicode="&#x11a;" horiz-adv-x="1176" 
d="M1014 664h-651v-488h711v-176h-920v1475h920v-176h-711v-463h651v-172zM742 1573h-223l-242 280h199l153 -168l154 168h198z" />
    <glyph glyph-name="ecaron" unicode="&#x11b;" horiz-adv-x="1186" 
d="M1081 307q-46 -160 -171.5 -249t-305.5 -89q-245 0 -383.5 149.5t-138.5 413.5q0 262 137.5 413t375.5 151q494 0 499 -607h-811q14 -171 87 -252q91 -102 240 -102q95 0 163.5 46t94.5 126h213zM291 645h602q-12 144 -87 218.5t-207 74.5q-258 0 -308 -293zM694 1225
h-223l-242 280h199l154 -167l153 167h199z" />
    <glyph glyph-name="Gcircumflex" unicode="&#x11c;" horiz-adv-x="1511" 
d="M1380 0h-154l-28 176q-151 -207 -453 -207q-297 0 -475 210.5t-178 560.5t183.5 558t493.5 208q241 0 410 -129t199 -335h-205q-33 141 -137 215.5t-267 74.5q-215 0 -339.5 -158t-124.5 -432q0 -285 142 -450q130 -151 325 -151q178 0 299 106t121 263v115h-432v168h620
v-793zM1106 1573h-199l-153 168l-154 -168h-199l242 280h223z" />
    <glyph glyph-name="gcircumflex" unicode="&#x11d;" horiz-adv-x="1247" 
d="M343 -72q35 -172 264 -172q301 0 301 277v137q-120 -139 -352 -139q-210 0 -342 147t-132 380q0 247 131 392.5t353 145.5q224 0 346 -172l31 141h161v-1042q0 -194 -134 -308.5t-360 -114.5q-411 0 -478 328h211zM597 928q-146 0 -228 -98t-82 -273q0 -162 85.5 -260
t227.5 -98q150 0 234 92.5t84 257.5q0 178 -85 278.5t-236 100.5zM971 1225h-199l-153 168l-154 -168h-199l242 280h223z" />
    <glyph glyph-name="Gbreve" unicode="&#x11e;" horiz-adv-x="1511" 
d="M1380 0h-154l-28 176q-151 -207 -453 -207q-297 0 -475 210.5t-178 560.5t183.5 558t493.5 208q241 0 410 -129t199 -335h-205q-33 141 -137 215.5t-267 74.5q-215 0 -339.5 -158t-124.5 -432q0 -285 142 -450q130 -151 325 -151q178 0 299 106t121 263v115h-432v168h620
v-793zM454 1853h173q11 -141 124 -141q114 0 125 141h172q-38 -272 -298 -272q-257 0 -296 272z" />
    <glyph glyph-name="gbreve" unicode="&#x11f;" horiz-adv-x="1247" 
d="M343 -72q35 -172 264 -172q301 0 301 277v137q-120 -139 -352 -139q-210 0 -342 147t-132 380q0 247 131 392.5t353 145.5q224 0 346 -172l31 141h161v-1042q0 -194 -134 -308.5t-360 -114.5q-411 0 -478 328h211zM597 928q-146 0 -228 -98t-82 -273q0 -162 85.5 -260
t227.5 -98q150 0 234 92.5t84 257.5q0 178 -85 278.5t-236 100.5zM309 1506h172q12 -142 125 -142t125 142h172q-39 -273 -298 -273q-257 0 -296 273z" />
    <glyph glyph-name="Gdotaccent" unicode="&#x120;" horiz-adv-x="1511" 
d="M1380 0h-154l-28 176q-151 -207 -453 -207q-297 0 -475 210.5t-178 560.5t183.5 558t493.5 208q241 0 410 -129t199 -335h-205q-33 141 -137 215.5t-267 74.5q-215 0 -339.5 -158t-124.5 -432q0 -285 142 -450q130 -151 325 -151q178 0 299 106t121 263v115h-432v168h620
v-793zM653 1592v231h221v-231h-221z" />
    <glyph glyph-name="gdotaccent" unicode="&#x121;" horiz-adv-x="1247" 
d="M343 -72q35 -172 264 -172q301 0 301 277v137q-120 -139 -352 -139q-210 0 -342 147t-132 380q0 247 131 392.5t353 145.5q224 0 346 -172l31 141h161v-1042q0 -194 -134 -308.5t-360 -114.5q-411 0 -478 328h211zM597 928q-146 0 -228 -98t-82 -273q0 -162 85.5 -260
t227.5 -98q150 0 234 92.5t84 257.5q0 178 -85 278.5t-236 100.5zM500 1244v231h221v-231h-221z" />
    <glyph glyph-name="Gcommaaccent" unicode="&#x122;" horiz-adv-x="1511" 
d="M1380 0h-154l-28 176q-151 -207 -453 -207q-297 0 -475 210.5t-178 560.5t183.5 558t493.5 208q241 0 410 -129t199 -335h-205q-33 141 -137 215.5t-267 74.5q-215 0 -339.5 -158t-124.5 -432q0 -285 142 -450q130 -151 325 -151q178 0 299 106t121 263v115h-432v168h620
v-793zM595 -604v102q124 29 127 182h-61v197h205v-162q0 -124 -75.5 -213t-195.5 -106z" />
    <glyph glyph-name="gcommaaccent" unicode="&#x123;" horiz-adv-x="1247" 
d="M343 -72q35 -172 264 -172q301 0 301 277v137q-120 -139 -352 -139q-210 0 -342 147t-132 380q0 247 131 392.5t353 145.5q224 0 346 -172l31 141h161v-1042q0 -194 -134 -308.5t-360 -114.5q-411 0 -478 328h211zM597 928q-146 0 -228 -98t-82 -273q0 -162 85.5 -260
t227.5 -98q150 0 234 92.5t84 257.5q0 178 -85 278.5t-236 100.5zM765 1639v-103q-127 -30 -126 -151h61v-197h-205v162q0 113 74.5 193t195.5 96z" />
    <glyph glyph-name="Hcircumflex" unicode="&#x124;" horiz-adv-x="1448" 
d="M1295 1475v-1475h-211v658h-721v-658h-209v1475h209v-641h721v641h211zM1078 1573h-199l-154 168l-153 -168h-199l242 280h223z" />
    <glyph glyph-name="hcircumflex" unicode="&#x125;" horiz-adv-x="1161" 
d="M143 0v1475h197v-531q124 152 313 152q178 0 276.5 -105.5t98.5 -296.5v-694h-197v692q0 236 -227 236q-118 0 -191 -76.5t-73 -202.5v-649h-197zM862 1573h-199l-153 168l-154 -168h-199l242 280h223z" />
    <glyph glyph-name="Hbar" unicode="&#x126;" horiz-adv-x="1489" 
d="M1314 1475v-195h153v-156h-153v-1124h-211v658h-720v-658h-209v1124h-154v156h154v195h209v-195h720v195h211zM383 834h720v290h-720v-290z" />
    <glyph glyph-name="hbar" unicode="&#x127;" horiz-adv-x="1161" 
d="M144 0v1225h-113v147h113v103h197v-103h300v-147h-300v-281q122 152 312 152q178 0 276.5 -105.5t98.5 -296.5v-694h-197v692q0 236 -226 236q-116 0 -190 -76t-74 -195v-657h-197z" />
    <glyph glyph-name="Itilde" unicode="&#x128;" horiz-adv-x="516" 
d="M362 1475v-1475h-209v1475h209zM-37 1599v166q94 68 183 68q65 0 138 -42q62 -36 106 -36q67 0 167 78v-166q-96 -68 -176 -68q-65 0 -130 39q-66 39 -113 39q-74 0 -175 -78z" />
    <glyph glyph-name="itilde" unicode="&#x129;" horiz-adv-x="483" 
d="M144 0v1065h197v-1065h-197zM-53 1252v166q94 67 183 67q65 0 132 -39l6 -3l10 -5l9 -5q47 -25 87 -25q65 0 167 77v-166q-94 -67 -176 -67q-66 0 -130 39q-64 38 -113 38q-74 0 -175 -77z" />
    <glyph glyph-name="Imacron" unicode="&#x12a;" horiz-adv-x="516" 
d="M363 1475v-1475h-209v1475h209zM-16 1644v168h553v-168h-553z" />
    <glyph glyph-name="imacron" unicode="&#x12b;" horiz-adv-x="483" 
d="M143 0v1065h197v-1065h-197zM-33 1296v168h553v-168h-553z" />
    <glyph glyph-name="Ibreve" unicode="&#x12c;" horiz-adv-x="516" 
d="M362 1475v-1475h-209v1475h209zM-37 1853h172q12 -141 125 -141t125 141h172q-39 -272 -299 -272q-256 0 -295 272z" />
    <glyph glyph-name="ibreve" unicode="&#x12d;" horiz-adv-x="483" 
d="M144 0v1065h197v-1065h-197zM-53 1506h172q12 -142 125 -142t125 142h172q-39 -273 -299 -273q-256 0 -295 273z" />
    <glyph glyph-name="Iogonek" unicode="&#x12e;" horiz-adv-x="516" 
d="M362 1475v-1475h-37q-110 -60 -171.5 -129t-61.5 -131q0 -115 117 -115q85 0 102 70h160q-61 -201 -272 -201q-119 0 -192 59.5t-73 156.5q0 85 58.5 163t160.5 129v1473h209z" />
    <glyph glyph-name="iogonek" unicode="&#x12f;" horiz-adv-x="483" 
d="M322 0q-111 -61 -172.5 -129.5t-61.5 -130.5q0 -115 117 -115q85 0 102 70h160q-60 -201 -272 -201q-119 0 -192 59.5t-73 156.5q0 82 56.5 159t156.5 131v1065h197v-1065h-18zM131 1244v231h221v-231h-221z" />
    <glyph glyph-name="Idotaccent" unicode="&#x130;" horiz-adv-x="516" 
d="M362 1475v-1475h-209v1475h209zM147 1592v231h221v-231h-221z" />
    <glyph glyph-name="IJ" unicode="&#x132;" horiz-adv-x="1622" 
d="M363 1475v-1475h-209v1475h209zM779 414q15 -269 249 -269q116 0 179 75t63 214v1041h209v-1043q0 -223 -118.5 -343t-338.5 -120q-197 0 -322.5 123t-131.5 322h211z" />
    <glyph glyph-name="ij" unicode="&#x133;" horiz-adv-x="967" 
d="M131 1244v231h221v-231h-221zM143 0v1065h197v-1065h-197zM382 -213q6 -1 22 -5q61 -13 102 -13q67 0 93.5 29.5t26.5 105.5v1161h197v-1171q0 -137 -76 -215t-210 -78q-72 0 -155 24v162zM615 1244v231h221v-231h-221z" />
    <glyph glyph-name="Jcircumflex" unicode="&#x134;" horiz-adv-x="1106" 
d="M262 414q15 -269 249 -269q116 0 179 75t63 214v1041h209v-1043q0 -223 -118.5 -343t-338.5 -120q-196 0 -324 125.5t-130 319.5h211zM1200 1573h-199l-153 168l-154 -168h-199l242 280h223z" />
    <glyph glyph-name="jcircumflex" unicode="&#x135;" horiz-adv-x="483" 
d="M-101 -213q7 -1 22 -5q61 -13 101 -13q68 0 94.5 29.5t26.5 105.5v1161h197v-1171q0 -137 -76 -215t-209 -78q-73 0 -156 24v162zM596 1225h-199l-154 168l-153 -168h-199l242 280h223z" />
    <glyph glyph-name="Kcommaaccent" unicode="&#x136;" horiz-adv-x="1294" 
d="M1008 0l-645 695v-695h-209v1475h209v-656l600 656h258l-670 -705l734 -770h-277zM464 -604v102q123 29 126 182h-61v197h205v-162q0 -124 -75.5 -213t-194.5 -106z" />
    <glyph glyph-name="kcommaaccent" unicode="&#x137;" horiz-adv-x="1065" 
d="M143 0v1475h197v-824l418 414h258l-479 -463l538 -602h-262l-473 537v-537h-197zM370 -604v102q124 29 127 182h-61v197h205v-162q0 -124 -75.5 -213t-195.5 -106z" />
    <glyph glyph-name="kgreenlandic" unicode="&#x138;" horiz-adv-x="1065" 
d="M143 0v1065h197v-469l436 469h240l-479 -502l538 -563h-276l-459 485v-485h-197z" />
    <glyph glyph-name="Lacute" unicode="&#x139;" horiz-adv-x="1130" 
d="M364 1475v-1289h694v-186h-905v1475h211zM307 1853h254l-287 -281h-176z" />
    <glyph glyph-name="lacute" unicode="&#x13a;" horiz-adv-x="483" 
d="M340 0h-197v1475h197v-1475zM272 1853h254l-287 -281h-176z" />
    <glyph glyph-name="Lcommaaccent" unicode="&#x13b;" horiz-adv-x="1130" 
d="M365 1475v-1289h694v-186h-905v1475h211zM440 -604v102q124 29 127 182h-61v197h205v-162q0 -124 -75.5 -213t-195.5 -106z" />
    <glyph glyph-name="lcommaaccent" unicode="&#x13c;" horiz-adv-x="483" 
d="M341 0h-197v1475h197v-1475zM74 -604v102q124 29 127 182h-61v197h204v-162q0 -124 -75 -213t-195 -106z" />
    <glyph glyph-name="Lcaron" unicode="&#x13d;" horiz-adv-x="1130" 
d="M365 1475v-1289h694v-186h-905v1475h211zM492 1024v103q128 30 126 151h-61v197h205v-162q0 -114 -74.5 -193.5t-195.5 -95.5z" />
    <glyph glyph-name="lcaron" unicode="&#x13e;" horiz-adv-x="702" 
d="M340 0h-197v1475h197v-1475zM431 1024v103q128 30 127 151h-61v197h205v-162q0 -114 -74.5 -193.5t-196.5 -95.5z" />
    <glyph glyph-name="Ldot" unicode="&#x13f;" horiz-adv-x="1130" 
d="M365 1475v-1289h694v-186h-905v1475h211zM703 652v231h221v-231h-221z" />
    <glyph glyph-name="ldot" unicode="&#x140;" horiz-adv-x="698" 
d="M340 0h-197v1475h197v-1475zM477 652v231h221v-231h-221z" />
    <glyph glyph-name="Lslash" unicode="&#x141;" horiz-adv-x="1130" 
d="M364 1475v-570l322 181v-209l-322 -181v-510h695v-186h-906v577l-102 -57v209l102 57v689h211z" />
    <glyph glyph-name="lslash" unicode="&#x142;" horiz-adv-x="524" 
d="M340 928l163 100v-192l-163 -100v-736h-197v615l-123 -74v192l123 74v668h197v-547z" />
    <glyph glyph-name="Nacute" unicode="&#x143;" horiz-adv-x="1473" 
d="M1319 1475v-1475h-264l-711 1235v-1235h-190v1475h276l703 -1225v1225h186zM826 1853h254l-287 -281h-176z" />
    <glyph glyph-name="nacute" unicode="&#x144;" horiz-adv-x="1161" 
d="M143 0v1065h162l23 -135q124 166 325 166q178 0 276.5 -105.5t98.5 -296.5v-694h-197v692q0 236 -226 236q-116 0 -190.5 -76t-74.5 -195v-657h-197zM700 1505h254l-287 -280h-176z" />
    <glyph glyph-name="Ncommaaccent" unicode="&#x145;" horiz-adv-x="1473" 
d="M1319 1475v-1475h-264l-711 1235v-1235h-190v1475h276l703 -1225v1225h186zM588 -604v102q124 29 127 182h-61v197h205v-162q0 -124 -75.5 -213t-195.5 -106z" />
    <glyph glyph-name="ncommaaccent" unicode="&#x146;" horiz-adv-x="1161" 
d="M143 0v1065h162l23 -135q124 166 325 166q178 0 276.5 -105.5t98.5 -296.5v-694h-197v692q0 236 -226 236q-116 0 -190.5 -76t-74.5 -195v-657h-197zM416 -604v102q123 29 126 182h-61v197h205v-162q0 -124 -75.5 -213t-194.5 -106z" />
    <glyph glyph-name="Ncaron" unicode="&#x147;" horiz-adv-x="1473" 
d="M879 1573h-223l-242 280h199l153 -168l154 168h199zM1319 1475v-1475h-264l-711 1235v-1235h-190v1475h276l703 -1225v1225h186z" />
    <glyph glyph-name="ncaron" unicode="&#x148;" horiz-adv-x="1161" 
d="M143 0v1065h162l23 -135q124 166 325 166q178 0 276.5 -105.5t98.5 -296.5v-694h-197v692q0 236 -226 236q-116 0 -190.5 -76t-74.5 -195v-657h-197zM716 1225h-223l-241 280h198l154 -167l153 167h199z" />
    <glyph glyph-name="napostrophe" unicode="&#x149;" horiz-adv-x="1227" 
d="M209 0v1065h162l22 -135q125 166 326 166q178 0 276.5 -105.5t98.5 -296.5v-694h-197v692q0 236 -227 236q-116 0 -190 -76t-74 -195v-657h-197zM2 1024v103q128 30 127 151h-61v197h204v-162q0 -114 -74.5 -193.5t-195.5 -95.5z" />
    <glyph glyph-name="Eng" unicode="&#x14a;" horiz-adv-x="1473" 
d="M1319 1475v-1587q0 -137 -74 -212t-210 -75q-77 0 -156 25v163q80 -18 123 -18q72 0 101.5 30.5t29.5 104.5v94h-78l-711 1235v-1235h-190v1475h276l703 -1225v1225h186z" />
    <glyph glyph-name="eng" unicode="&#x14b;" horiz-adv-x="1161" 
d="M143 0v1065h162l23 -135q124 166 325 166q178 0 276.5 -105.5t98.5 -296.5v-807q0 -136 -74.5 -211t-210.5 -75q-78 0 -155 24v164q77 -18 122 -18q66 0 93.5 30.5t27.5 104.5v786q0 236 -225 236q-115 0 -190.5 -77t-75.5 -196v-655h-197z" />
    <glyph glyph-name="Omacron" unicode="&#x14c;" horiz-adv-x="1585" 
d="M795 1506q320 0 509 -208t189 -560q0 -358 -201 -568q-192 -201 -502 -201q-319 0 -508.5 208.5t-189.5 560.5q0 359 206 570q193 198 497 198zM793 1336q-227 0 -357.5 -160t-130.5 -438q0 -279 130.5 -439t358.5 -160q225 0 355.5 160.5t130.5 438.5t-130.5 438
t-356.5 160zM498 1644v168h552v-168h-552z" />
    <glyph glyph-name="omacron" unicode="&#x14d;" horiz-adv-x="1214" 
d="M608 1096q245 0 385 -150.5t140 -412.5q0 -261 -141.5 -412.5t-384.5 -151.5q-242 0 -383.5 152.5t-141.5 413.5q0 258 142 409.5t384 151.5zM609 936q-148 0 -235 -108.5t-87 -293.5q0 -188 87 -296.5t237 -108.5q149 0 233 107t84 296q0 187 -85.5 295.5t-233.5 108.5z
M332 1296v168h553v-168h-553z" />
    <glyph glyph-name="Obreve" unicode="&#x14e;" horiz-adv-x="1585" 
d="M795 1506q320 0 509 -208t189 -560q0 -358 -201 -568q-192 -201 -502 -201q-319 0 -508.5 208.5t-189.5 560.5q0 359 206 570q193 198 497 198zM793 1336q-227 0 -357.5 -160t-130.5 -438q0 -279 130.5 -439t358.5 -160q225 0 355.5 160.5t130.5 438.5t-130.5 438
t-356.5 160zM495 1853h172q12 -141 125 -141q114 0 125 141h172q-38 -272 -298 -272q-257 0 -296 272z" />
    <glyph glyph-name="obreve" unicode="&#x14f;" horiz-adv-x="1214" 
d="M608 1096q245 0 385 -150.5t140 -412.5q0 -261 -141.5 -412.5t-384.5 -151.5q-242 0 -383.5 152.5t-141.5 413.5q0 258 142 409.5t384 151.5zM609 936q-148 0 -235 -108.5t-87 -293.5q0 -188 87 -296.5t237 -108.5q149 0 233 107t84 296q0 187 -85.5 295.5t-233.5 108.5z
M309 1506h172q12 -142 125 -142t125 142h172q-39 -273 -298 -273q-257 0 -296 273z" />
    <glyph glyph-name="Ohungarumlaut" unicode="&#x150;" horiz-adv-x="1585" 
d="M795 1506q320 0 509 -208t189 -560q0 -358 -201 -568q-192 -201 -502 -201q-319 0 -508.5 208.5t-189.5 560.5q0 359 206 570q193 198 497 198zM793 1336q-227 0 -357.5 -160t-130.5 -438q0 -279 130.5 -439t358.5 -160q225 0 355.5 160.5t130.5 438.5t-130.5 438
t-356.5 160zM710 1853h220l-263 -281h-155zM1067 1853h219l-262 -281h-156z" />
    <glyph glyph-name="ohungarumlaut" unicode="&#x151;" horiz-adv-x="1214" 
d="M608 1096q245 0 385 -150.5t140 -412.5q0 -261 -141.5 -412.5t-384.5 -151.5q-242 0 -383.5 152.5t-141.5 413.5q0 258 142 409.5t384 151.5zM609 936q-148 0 -235 -108.5t-87 -293.5q0 -188 87 -296.5t237 -108.5q149 0 233 107t84 296q0 187 -85.5 295.5t-233.5 108.5z
M543 1505h219l-262 -280h-156zM899 1505h219l-262 -280h-156z" />
    <glyph glyph-name="Racute" unicode="&#x154;" horiz-adv-x="1335" 
d="M1070 0l-357 561h-350v-561h-209v1475h477q283 0 434 -120q150 -120 150 -342q0 -297 -297 -409l397 -604h-245zM363 1305v-574h279q170 0 263 74t93 209q0 291 -363 291h-272zM672 1853h254l-287 -281h-176z" />
    <glyph glyph-name="racute" unicode="&#x155;" horiz-adv-x="729" 
d="M143 0v1065h162l27 -158q96 189 273 189q39 0 79 -8q10 -2 34 -7v-196q-65 18 -122 18q-124 0 -190 -95.5t-66 -272.5v-535h-197zM522 1505h254l-287 -280h-176z" />
    <glyph glyph-name="Rcommaaccent" unicode="&#x156;" horiz-adv-x="1335" 
d="M1070 0l-357 561h-350v-561h-209v1475h477q283 0 434 -120q150 -120 150 -342q0 -297 -297 -409l397 -604h-245zM363 1305v-574h279q170 0 263 74t93 209q0 291 -363 291h-272zM470 -604v102q123 29 127 182h-62v197h205v-162q0 -124 -75.5 -213t-194.5 -106z" />
    <glyph glyph-name="rcommaaccent" unicode="&#x157;" horiz-adv-x="729" 
d="M144 0v1065h162l26 -158q97 189 273 189q40 0 80 -8l34 -7v-196q-67 18 -123 18q-123 0 -189 -95.5t-66 -272.5v-535h-197zM74 -604v102q124 29 127 182h-61v197h204v-162q0 -124 -75 -213t-195 -106z" />
    <glyph glyph-name="Rcaron" unicode="&#x158;" horiz-adv-x="1335" 
d="M1070 0l-357 561h-350v-561h-209v1475h477q283 0 434 -120q150 -120 150 -342q0 -297 -297 -409l397 -604h-245zM363 1305v-574h279q170 0 263 74t93 209q0 291 -363 291h-272zM723 1573h-223l-242 280h199l154 -168l153 168h199z" />
    <glyph glyph-name="rcaron" unicode="&#x159;" horiz-adv-x="729" 
d="M144 0v1065h162l27 -158q96 189 273 189q39 0 79 -8l34 -7v-196q-66 18 -122 18q-124 0 -190 -95.5t-66 -272.5v-535h-197zM531 1225h-223l-242 280h199l153 -167l154 167h199z" />
    <glyph glyph-name="Sacute" unicode="&#x15a;" horiz-adv-x="1337" 
d="M1235 1106h-215q-41 228 -368 228q-152 0 -236 -52.5t-84 -147.5t79 -147q78 -52 308 -116q295 -83 411 -184.5t116 -275.5q0 -194 -161 -318t-412 -124q-243 0 -406.5 121t-194.5 324h215q48 -273 381 -273q167 0 268 71t101 188q0 108 -83 165q-92 64 -382 144
q-247 68 -348 161.5t-101 254.5q0 173 143.5 277t383.5 104q243 0 398.5 -106t186.5 -294zM731 1853h254l-286 -281h-176z" />
    <glyph glyph-name="sacute" unicode="&#x15b;" horiz-adv-x="1047" 
d="M956 784h-201q-38 156 -240 156q-99 0 -154.5 -34t-55.5 -96q0 -65 50.5 -98t197.5 -65q225 -49 318 -126.5t93 -215.5q0 -154 -120 -245t-323 -91q-201 0 -320.5 87.5t-139.5 248.5h201q18 -94 79.5 -137t180.5 -43q113 0 178 44t65 121q0 76 -55.5 112.5t-236.5 78.5
q-205 48 -286 117t-81 194q0 144 108.5 224t302.5 80q184 0 296 -79.5t143 -232.5zM604 1505h254l-287 -280h-176z" />
    <glyph glyph-name="Scircumflex" unicode="&#x15c;" horiz-adv-x="1337" 
d="M1235 1106h-215q-41 228 -368 228q-152 0 -236 -52.5t-84 -147.5t79 -147q78 -52 308 -116q295 -83 411 -184.5t116 -275.5q0 -194 -161 -318t-412 -124q-243 0 -406.5 121t-194.5 324h215q48 -273 381 -273q167 0 268 71t101 188q0 108 -83 165q-92 64 -382 144
q-247 68 -348 161.5t-101 254.5q0 173 143.5 277t383.5 104q243 0 398.5 -106t186.5 -294zM1008 1573h-199l-153 168l-154 -168h-199l242 280h223z" />
    <glyph glyph-name="scircumflex" unicode="&#x15d;" horiz-adv-x="1047" 
d="M956 784h-201q-38 156 -240 156q-99 0 -154.5 -34t-55.5 -96q0 -65 50.5 -98t197.5 -65q225 -49 318 -126.5t93 -215.5q0 -154 -120 -245t-323 -91q-201 0 -320.5 87.5t-139.5 248.5h201q18 -94 79.5 -137t180.5 -43q113 0 178 44t65 121q0 76 -55.5 112.5t-236.5 78.5
q-205 48 -286 117t-81 194q0 144 108.5 224t302.5 80q184 0 296 -79.5t143 -232.5zM872 1225h-199l-153 168l-154 -168h-199l242 280h223z" />
    <glyph glyph-name="Scedilla" unicode="&#x15e;" horiz-adv-x="1337" 
d="M402 -303h153q7 -37 37.5 -59.5t74.5 -22.5q111 0 111 96q0 54 -44 78t-148 25l14 160q-216 18 -357 135.5t-171 304.5h215q48 -272 381 -272q168 0 268.5 71t100.5 189q0 110 -90 169t-375 138q-247 68 -348 162t-101 254q0 174 143.5 277.5t383.5 103.5
q243 0 398.5 -106t186.5 -294h-215q-41 228 -368 228q-152 0 -236 -52.5t-84 -147.5t79 -147q78 -52 308 -116q295 -83 411 -184t116 -277q0 -178 -138 -298t-364 -138v-60q186 -44 186 -200q0 -100 -72.5 -162t-190.5 -62q-108 0 -177.5 54t-87.5 153z" />
    <glyph glyph-name="scedilla" unicode="&#x15f;" horiz-adv-x="1047" 
d="M256 -303h153q7 -37 37.5 -59.5t74.5 -22.5q111 0 111 96q0 54 -44 78t-148 25l14 159q-361 36 -393 332h201q18 -94 79.5 -137t180.5 -43q113 0 178 44t65 121q0 76 -55.5 112.5t-236.5 78.5q-205 48 -286 117t-81 194q0 144 108.5 224t302.5 80q184 0 296 -79.5
t143 -232.5h-201q-38 156 -240 156q-99 0 -154.5 -34t-55.5 -96q0 -65 50.5 -98t197.5 -65q225 -49 318 -126.5t93 -215.5q0 -140 -94.5 -225t-271.5 -107v-59q186 -44 186 -200q0 -100 -72.5 -162t-189.5 -62q-108 0 -178 54.5t-88 152.5z" />
    <glyph glyph-name="Scaron" unicode="&#x160;" horiz-adv-x="1337" 
d="M1235 1106h-215q-41 228 -368 228q-152 0 -236 -52.5t-84 -147.5t79 -147q78 -52 308 -116q295 -83 411 -184.5t116 -275.5q0 -194 -161 -318t-412 -124q-243 0 -406.5 121t-194.5 324h215q48 -273 381 -273q167 0 268 71t101 188q0 108 -83 165q-92 64 -382 144
q-247 68 -348 161.5t-101 254.5q0 173 143.5 277t383.5 104q243 0 398.5 -106t186.5 -294zM764 1573h-223l-242 280h199l154 -168l153 168h199z" />
    <glyph glyph-name="scaron" unicode="&#x161;" horiz-adv-x="1047" 
d="M956 784h-201q-38 156 -240 156q-99 0 -154.5 -34t-55.5 -96q0 -65 50.5 -98t197.5 -65q225 -49 318 -126.5t93 -215.5q0 -154 -120 -245t-323 -91q-201 0 -320.5 87.5t-139.5 248.5h201q18 -94 79.5 -137t180.5 -43q113 0 178 44t65 121q0 76 -55.5 112.5t-236.5 78.5
q-205 48 -286 117t-81 194q0 144 108.5 224t302.5 80q184 0 296 -79.5t143 -232.5zM639 1225h-224l-241 280h198l154 -167l153 167h199z" />
    <glyph glyph-name="Tcommaaccent" unicode="&#x162;" horiz-adv-x="1235" 
d="M1214 1289h-496v-1289h-209v1289h-489v186h1194v-186zM444 -604v102q123 29 127 182h-62v197h205v-162q0 -124 -75.5 -213t-194.5 -106z" />
    <glyph glyph-name="tcommaaccent" unicode="&#x163;" horiz-adv-x="659" 
d="M619 -10q-80 -21 -144 -21q-137 0 -211.5 77.5t-74.5 217.5v633h-158v168h158l12 256h185v-256h229v-168h-229v-637q0 -119 112 -119q46 0 111 14l10 3v-168zM180 -604v102q124 29 127 182h-61v197h205v-162q0 -124 -75.5 -213t-195.5 -106z" />
    <glyph glyph-name="Tcaron" unicode="&#x164;" horiz-adv-x="1235" 
d="M1214 1289h-496v-1289h-209v1289h-489v186h1194v-186zM727 1573h-224l-241 280h198l154 -168l154 168h198z" />
    <glyph glyph-name="tcaron" unicode="&#x165;" horiz-adv-x="772" 
d="M555 1115v98q95 17 96 86h-59v176h201v-121q0 -102 -63.5 -166t-174.5 -73zM619 -10q-80 -21 -144 -21q-137 0 -211.5 77.5t-74.5 217.5v633h-158v168h158l12 256h185v-256h229v-168h-229v-637q0 -119 112 -119q46 0 111 14l10 3v-168z" />
    <glyph glyph-name="Tbar" unicode="&#x166;" horiz-adv-x="1235" 
d="M1214 1289h-496v-376h291v-154h-291v-759h-209v759h-285v154h285v376h-489v186h1194v-186z" />
    <glyph glyph-name="tbar" unicode="&#x167;" horiz-adv-x="659" 
d="M386 897v-117h209v-147h-209v-373q0 -119 112 -119q46 0 111 14l10 3v-168q-80 -21 -144 -21q-137 0 -211.5 77.5t-74.5 217.5v369h-144v147h144v117h-158v168h158l12 256h185v-256h229v-168h-229z" />
    <glyph glyph-name="Utilde" unicode="&#x168;" horiz-adv-x="1448" 
d="M352 1475v-1000q0 -155 99.5 -242.5t274.5 -87.5q176 0 275.5 87.5t99.5 242.5v1000h203v-981q0 -241 -156.5 -383t-422.5 -142t-424 142.5t-158 382.5v981h209zM444 1599v166q94 68 183 68q66 0 138 -42q62 -36 106 -36q67 0 167 78v-166q-96 -68 -176 -68
q-65 0 -130 39t-112 39q-75 0 -176 -78z" />
    <glyph glyph-name="utilde" unicode="&#x169;" horiz-adv-x="1153" 
d="M330 1065v-698q0 -230 221 -230q118 0 190 76.5t72 202.5v649h197v-1065h-162l-23 123q-117 -154 -320 -154q-176 0 -274 105.5t-98 296.5v694h197zM264 1252v166q94 67 183 67q65 0 132 -39l6 -3l10 -5l9 -5q47 -25 87 -25q66 0 167 77v-166q-94 -67 -176 -67
q-66 0 -130 39q-64 38 -112 38q-75 0 -176 -77z" />
    <glyph glyph-name="Umacron" unicode="&#x16a;" horiz-adv-x="1448" 
d="M352 1475v-1000q0 -155 99.5 -242.5t274.5 -87.5q176 0 275.5 87.5t99.5 242.5v1000h203v-981q0 -241 -156.5 -383t-422.5 -142t-424 142.5t-158 382.5v981h209zM450 1644v168h553v-168h-553z" />
    <glyph glyph-name="umacron" unicode="&#x16b;" horiz-adv-x="1153" 
d="M330 1065v-698q0 -230 221 -230q118 0 190 76.5t72 202.5v649h197v-1065h-162l-23 123q-117 -154 -320 -154q-176 0 -274 105.5t-98 296.5v694h197zM295 1296v168h553v-168h-553z" />
    <glyph glyph-name="Ubreve" unicode="&#x16c;" horiz-adv-x="1448" 
d="M352 1475v-1000q0 -155 99.5 -242.5t274.5 -87.5q176 0 275.5 87.5t99.5 242.5v1000h203v-981q0 -241 -156.5 -383t-422.5 -142t-424 142.5t-158 382.5v981h209zM426 1853h172q11 -141 125 -141q113 0 125 141h172q-39 -272 -299 -272q-256 0 -295 272z" />
    <glyph glyph-name="ubreve" unicode="&#x16d;" horiz-adv-x="1153" 
d="M330 1065v-698q0 -230 221 -230q118 0 190 76.5t72 202.5v649h197v-1065h-162l-23 123q-117 -154 -320 -154q-176 0 -274 105.5t-98 296.5v694h197zM266 1506h172q12 -142 125 -142t125 142h172q-39 -273 -298 -273q-257 0 -296 273z" />
    <glyph glyph-name="Uring" unicode="&#x16e;" horiz-adv-x="1448" 
d="M352 1475v-1000q0 -155 99.5 -242.5t274.5 -87.5q176 0 275.5 87.5t99.5 242.5v1000h203v-981q0 -241 -156.5 -383t-422.5 -142t-424 142.5t-158 382.5v981h209zM724 2028q120 0 195.5 -68.5t75.5 -177.5t-75.5 -177.5t-195.5 -68.5q-121 0 -194.5 67.5t-73.5 178.5
t73.5 178.5t194.5 67.5zM724 1911q-59 0 -94 -34.5t-35 -94.5t34.5 -94.5t94.5 -34.5q61 0 96.5 35t35.5 94t-35.5 94t-96.5 35z" />
    <glyph glyph-name="uring" unicode="&#x16f;" horiz-adv-x="1153" 
d="M330 1065v-698q0 -230 221 -230q118 0 190 76.5t72 202.5v649h197v-1065h-162l-23 123q-117 -154 -320 -154q-176 0 -274 105.5t-98 296.5v694h197zM573 1679q120 0 195.5 -68.5t75.5 -176.5q0 -109 -75.5 -177.5t-195.5 -68.5q-121 0 -194.5 67.5t-73.5 177.5
q0 111 73.5 178.5t194.5 67.5zM573 1562q-60 0 -94.5 -34.5t-34.5 -93.5q0 -60 35 -94.5t94 -34.5q61 0 96.5 35t35.5 93q0 60 -35.5 94.5t-96.5 34.5z" />
    <glyph glyph-name="Uhungarumlaut" unicode="&#x170;" horiz-adv-x="1448" 
d="M352 1475v-1000q0 -155 99.5 -242.5t274.5 -87.5q176 0 275.5 87.5t99.5 242.5v1000h203v-981q0 -241 -156.5 -383t-422.5 -142t-424 142.5t-158 382.5v981h209zM651 1853h219l-262 -281h-156zM1007 1853h219l-262 -281h-155z" />
    <glyph glyph-name="uhungarumlaut" unicode="&#x171;" horiz-adv-x="1153" 
d="M330 1065v-698q0 -230 221 -230q118 0 190 76.5t72 202.5v649h197v-1065h-162l-23 123q-117 -154 -320 -154q-176 0 -274 105.5t-98 296.5v694h197zM518 1505h219l-262 -280h-156zM874 1505h220l-263 -280h-155z" />
    <glyph glyph-name="Uogonek" unicode="&#x172;" horiz-adv-x="1448" 
d="M729 -31q-272 3 -429 143.5t-157 381.5v981h209v-1000q0 -154 99.5 -241.5t274.5 -87.5q176 0 275.5 87.5t99.5 241.5v1000h203v-981q0 -340 -328 -486q-106 -48 -177.5 -125t-71.5 -143q0 -115 117 -115q86 0 101 70h160q-60 -201 -271 -201q-119 0 -192 59.5t-73 156.5
q0 145 160 259z" />
    <glyph glyph-name="uogonek" unicode="&#x173;" horiz-adv-x="1153" 
d="M1010 1065v-1065q-232 -127 -232 -259q0 -116 117 -116q86 0 103 70h159q-61 -195 -271 -195q-120 0 -189.5 56.5t-69.5 153.5q0 85 58 163.5t161 132.5l-21 117q-117 -154 -320 -154q-176 0 -274 105.5t-98 296.5v694h197v-698q0 -230 221 -230q118 0 190 73t72 193v662
h197z" />
    <glyph glyph-name="Wcircumflex" unicode="&#x174;" horiz-adv-x="1972" 
d="M1962 1475l-389 -1475h-242l-334 1250l-344 -1250h-256l-387 1475h213l313 -1227l338 1227h260l320 -1223l315 1223h193zM1341 1573h-198l-154 168l-154 -168h-198l241 280h224z" />
    <glyph glyph-name="wcircumflex" unicode="&#x175;" horiz-adv-x="1659" 
d="M1628 1065l-311 -1065h-227l-258 842l-254 -842h-236l-311 1065h205l229 -856l254 856h236l250 -852l227 852h196zM1182 1225h-199l-153 168l-154 -168h-199l242 280h223z" />
    <glyph glyph-name="Ycircumflex" unicode="&#x176;" horiz-adv-x="1288" 
d="M541 0v586l-541 889h229l416 -709l430 709h213l-540 -889v-586h-207zM995 1573h-199l-153 168l-154 -168h-198l241 280h223z" />
    <glyph glyph-name="ycircumflex" unicode="&#x177;" horiz-adv-x="1053" 
d="M186 -381v160q58 -14 101 -14q63 0 100 46.5t88 188.5h-64l-391 1065h213l301 -905l301 905h197l-371 -1079q-76 -222 -150 -303.5t-199 -81.5q-42 0 -126 18zM880 1225h-198l-154 168l-154 -168h-198l241 280h224z" />
    <glyph glyph-name="Zacute" unicode="&#x179;" horiz-adv-x="1309" 
d="M328 180h878v-180h-1124v182l897 1113h-850v180h1098v-176zM741 1853h254l-286 -281h-176z" />
    <glyph glyph-name="zacute" unicode="&#x17a;" horiz-adv-x="987" 
d="M292 168h633v-168h-864v186l633 713h-602v166h833v-186zM616 1505h254l-287 -280h-176z" />
    <glyph glyph-name="Zdotaccent" unicode="&#x17b;" horiz-adv-x="1309" 
d="M328 180h878v-180h-1124v182l897 1113h-850v180h1098v-176zM555 1592v231h221v-231h-221z" />
    <glyph glyph-name="zdotaccent" unicode="&#x17c;" horiz-adv-x="987" 
d="M292 168h633v-168h-864v186l633 713h-602v166h833v-186zM403 1244v231h221v-231h-221z" />
    <glyph glyph-name="Zcaron" unicode="&#x17d;" horiz-adv-x="1309" 
d="M328 180h878v-180h-1124v182l897 1113h-850v180h1098v-176zM793 1573h-224l-241 280h198l154 -168l154 168h198z" />
    <glyph glyph-name="zcaron" unicode="&#x17e;" horiz-adv-x="987" 
d="M292 168h633v-168h-864v186l633 713h-602v166h833v-186zM639 1225h-224l-241 280h198l154 -167l153 167h199z" />
    <glyph glyph-name="longs" unicode="&#x17f;" horiz-adv-x="659" 
d="M199 0v897h-158v168h158v150q0 134 81 212.5t220 78.5q71 0 170 -25v-170q-100 25 -160 25q-114 0 -114 -109v-1227h-197z" />
    <glyph glyph-name="uni018F" unicode="&#x18f;" horiz-adv-x="1493" 
d="M307 1063h-211q45 201 215.5 321.5t409.5 120.5q317 0 498 -203t181 -559q0 -353 -183.5 -563.5t-491.5 -210.5q-327 0 -495 198.5t-171 586.5h1128q-6 280 -126 428.5t-340 148.5q-310 0 -414 -268zM1175 582h-893q10 -200 129.5 -318.5t311.5 -118.5q184 0 299 111
t153 326z" />
    <glyph glyph-name="Ohorn" unicode="&#x1a0;" horiz-adv-x="1585" 
d="M1290 1312q111 34 111 148h-61v197h204v-162q0 -91 -49.5 -162.5t-136.5 -105.5q135 -201 135 -490q0 -357 -201 -567q-192 -201 -500 -201q-299 0 -485 182q-215 210 -215 586q0 360 206 571q193 197 496 197q309 0 496 -193zM792 139q227 0 357.5 160t130.5 438
t-130.5 438t-357.5 160q-226 0 -356.5 -160t-130.5 -438q0 -277 130.5 -437.5t356.5 -160.5z" />
    <glyph glyph-name="ohorn" unicode="&#x1a1;" horiz-adv-x="1215" 
d="M975 963q67 39 69 130h-62v197h205v-162q0 -164 -144 -248q90 -143 90 -348q0 -260 -142 -411.5t-385 -151.5q-241 0 -382.5 152.5t-141.5 410.5q0 261 141.5 412.5t384.5 151.5q232 0 367 -133zM287 532q0 -186 87 -294.5t236 -108.5q150 0 234 106.5t84 296.5
q0 188 -85.5 296t-234.5 108q-148 0 -234.5 -109t-86.5 -295z" />
    <glyph glyph-name="Uhorn" unicode="&#x1af;" horiz-adv-x="1448" 
d="M1304 1311q117 33 116 149h-61v197h204v-162q0 -111 -70.5 -189.5t-188.5 -97.5v-714q0 -241 -156.5 -383t-422.5 -142t-424 142.5t-158 382.5v981h209v-1000q0 -154 99.5 -242t275.5 -88q175 0 274.5 88t99.5 242v1000h203v-164z" />
    <glyph glyph-name="uhorn" unicode="&#x1b0;" horiz-adv-x="1153" 
d="M1010 949q100 36 100 144h-61v197h205v-162q0 -107 -67 -185t-177 -99v-844h-162l-23 123q-115 -154 -319 -154q-177 0 -275 105.5t-98 296.5v694h197v-698q0 -230 221 -230q118 0 190 76.5t72 202.5v649h197v-116z" />
    <glyph glyph-name="uni01CD" unicode="&#x1cd;" horiz-adv-x="1446" 
d="M1214 0l-145 373h-702l-148 -373h-219l606 1475h236l604 -1475h-232zM434 543h567l-280 723zM1075 1853h-198l-154 -167l-154 167h-198l241 -280h224z" />
    <glyph glyph-name="uni01CE" unicode="&#x1ce;" horiz-adv-x="1126" 
d="M102 768q22 157 141 242.5t316 85.5q201 0 317.5 -99t116.5 -270v-727h-161l-25 145q-131 -176 -356 -176q-167 0 -268 84t-101 221q0 149 97 234t306 121l312 53v53q0 99 -63.5 152t-182.5 53q-214 0 -240 -172h-209zM797 528l-264 -47q-131 -23 -186.5 -65.5
t-55.5 -120.5q0 -160 207 -160q120 0 209.5 76.5t89.5 179.5v137zM909 1505h-198l-154 -168l-153 168h-199l242 -280h223z" />
    <glyph glyph-name="uni01D3" unicode="&#x1d3;" horiz-adv-x="1448" 
d="M352 1475v-1000q0 -154 99.5 -242t275.5 -88q175 0 274.5 88t99.5 242v1000h203v-981q0 -241 -156.5 -383t-422.5 -142t-424 142.5t-158 382.5v981h209zM819 1573h-223l-242 280h199l153 -167l154 167h198z" />
    <glyph glyph-name="uni01FA" unicode="&#x1fa;" horiz-adv-x="1446" 
d="M825 1716h-163l204 250h240zM862 1266l584 -1266h-232l-159 373h-672l-164 -373h-219l586 1266q-121 68 -121 189q0 101 71 161t190 60q120 0 191.5 -60t71.5 -161q0 -127 -127 -189zM726 1572q-126 0 -126 -117q0 -54 34 -85.5t93 -31.5q127 0 127 117t-128 117z
M457 543h524l-260 604z" />
    <glyph glyph-name="uni01FB" unicode="&#x1fb;" horiz-adv-x="1126" 
d="M102 768q22 157 140.5 242.5t315.5 85.5q202 0 318.5 -99t116.5 -270v-727h-162l-24 145q-132 -176 -356 -176q-167 0 -268 84t-101 222q0 148 97 233t306 121l311 53v53q0 99 -63.5 152t-182.5 53q-213 0 -239 -172h-209zM796 528l-264 -47q-130 -23 -185.5 -65.5
t-55.5 -120.5q0 -160 206 -160q120 0 209.5 76.5t89.5 179.5v137zM561 1573q120 0 195.5 -61.5t75.5 -159.5t-75.5 -159.5t-195.5 -61.5q-121 0 -194.5 60.5t-73.5 160.5t73.5 160.5t194.5 60.5zM562 1468q-60 0 -95 -31t-35 -85t34.5 -85t95.5 -31q60 0 95.5 31.5
t35.5 84.5t-35.5 84.5t-95.5 31.5zM674 1861h254l-287 -253h-176z" />
    <glyph glyph-name="uni01FC" unicode="&#x1fc;" horiz-adv-x="2001" 
d="M1898 0h-878v373h-567l-228 -373h-225l907 1475h991v-176h-669v-463h610v-172h-610v-488h669v-176zM1020 543v754l-463 -754h463zM1397 1853h254l-287 -281h-176z" />
    <glyph glyph-name="uni01FD" unicode="&#x1fd;" horiz-adv-x="1901" 
d="M1796 307q-44 -159 -170.5 -248.5t-305.5 -89.5q-294 0 -433 219q-64 -106 -171.5 -162.5t-244.5 -56.5q-184 0 -286.5 81.5t-102.5 227.5q0 280 391 330l324 41v86q0 98 -63.5 151.5t-180.5 53.5q-217 0 -242 -172h-209q23 158 140.5 243t315.5 85q254 0 368 -172
q145 172 387 172q240 0 366.5 -151.5t128.5 -441.5h-811q8 -177 93.5 -272.5t235.5 -95.5q93 0 161.5 46t95.5 126h213zM797 495l-277 -35q-123 -15 -176 -54.5t-53 -116.5q0 -154 204 -154q103 0 191 60q49 35 80 84.5t31 94.5v121zM1008 659h600q-12 136 -87 207.5
t-206 71.5q-252 0 -307 -279zM1067 1505h254l-287 -280h-176z" />
    <glyph glyph-name="uni01FE" unicode="&#x1fe;" horiz-adv-x="1585" 
d="M610 -8l-76 -217h-182l96 274q-356 189 -356 689q0 385 227 593q192 175 473 175q87 0 185 -23l73 197h183l-94 -256q354 -192 354 -687q0 -384 -227 -593q-192 -175 -475 -175q-81 0 -181 23zM1063 1256l-402 -1100q70 -17 133 -17q225 0 355.5 160.5t130.5 437.5
q0 360 -217 519zM522 217l397 1102q-65 17 -126 17q-227 0 -357.5 -160t-130.5 -438q0 -361 217 -521zM852 1853h254l-287 -281h-176z" />
    <glyph glyph-name="uni01FF" unicode="&#x1ff;" horiz-adv-x="1214" 
d="M766 1075l100 215h183l-131 -282q215 -154 215 -476q0 -260 -141.5 -411.5t-385.5 -151.5q-82 0 -155 21l-99 -215h-186l131 282q-215 157 -215 477q0 260 142 411t385 151q86 0 157 -21zM385 225l318 697q-44 14 -95 14q-147 0 -234 -109t-87 -293q0 -199 98 -309z
M832 840l-316 -699q48 -12 95 -12q149 0 233 106.5t84 295.5q0 195 -96 309zM686 1505h254l-287 -280h-176z" />
    <glyph glyph-name="Scommaaccent" unicode="&#x218;" horiz-adv-x="1337" 
d="M1235 1106h-215q-41 228 -368 228q-152 0 -236 -52.5t-84 -147.5t79 -147q78 -52 308 -116q295 -83 411 -184.5t116 -275.5q0 -194 -161 -318t-412 -124q-243 0 -406.5 121t-194.5 324h215q48 -273 381 -273q167 0 268 71t101 188q0 108 -83 165q-92 64 -382 144
q-247 68 -348 161.5t-101 254.5q0 173 143.5 277t383.5 104q243 0 398.5 -106t186.5 -294zM506 -604v102q124 29 127 182h-61v197h205v-162q0 -124 -75.5 -213t-195.5 -106z" />
    <glyph glyph-name="scommaaccent" unicode="&#x219;" horiz-adv-x="1047" 
d="M956 784h-201q-38 156 -240 156q-99 0 -154.5 -34t-55.5 -96q0 -65 50.5 -98t197.5 -65q225 -49 318 -126.5t93 -215.5q0 -154 -120 -245t-323 -91q-201 0 -320.5 87.5t-139.5 248.5h201q18 -94 79.5 -137t180.5 -43q113 0 178 44t65 121q0 76 -55.5 112.5t-236.5 78.5
q-205 48 -286 117t-81 194q0 144 108.5 224t302.5 80q184 0 296 -79.5t143 -232.5zM362 -604v102q124 29 127 182h-61v197h205v-162q0 -124 -75.5 -213t-195.5 -106z" />
    <glyph glyph-name="uni021A" unicode="&#x21a;" horiz-adv-x="1235" 
d="M1214 1289h-496v-1289h-209v1289h-489v186h1194v-186zM444 -604v102q123 29 127 182h-62v197h205v-162q0 -124 -75.5 -213t-194.5 -106z" />
    <glyph glyph-name="uni021B" unicode="&#x21b;" horiz-adv-x="659" 
d="M619 -10q-80 -21 -144 -21q-137 0 -211.5 77.5t-74.5 217.5v633h-158v168h158l12 256h185v-256h229v-168h-229v-637q0 -119 112 -119q46 0 111 14l10 3v-168zM180 -604v102q124 29 127 182h-61v197h205v-162q0 -124 -75.5 -213t-195.5 -106z" />
    <glyph glyph-name="uni0237" unicode="&#x237;" horiz-adv-x="483" 
d="M-101 -213q6 -1 21 -5q62 -13 102 -13q68 0 94.5 29.5t26.5 105.5v1161h197v-1171q0 -137 -76 -215t-210 -78q-72 0 -155 24v162z" />
    <glyph glyph-name="uni0259" unicode="&#x259;" horiz-adv-x="1186" 
d="M94 758q45 156 176.5 247t313.5 91q242 0 376 -148t134 -416q0 -263 -133.5 -413t-368.5 -150q-248 0 -378 154.5t-132 451.5h809q-25 355 -313 355q-97 0 -171 -47.5t-100 -124.5h-213zM885 420h-604q14 -143 92.5 -218t214.5 -75q249 0 297 293z" />
    <glyph glyph-name="uni02C9" unicode="&#x2c9;" horiz-adv-x="676" 
d="M61 1300v160h553v-160h-553z" />
    <glyph glyph-name="hookabovecomb" unicode="&#x309;" horiz-adv-x="623" 
d="M133 1804l-72 93q123 85 249 85q118 0 191 -49t73 -129q0 -156 -187 -200v-67h-137v167q95 5 133.5 28t38.5 74t-110 51q-84 0 -179 -53z" />
    <glyph glyph-name="uni0312" unicode="&#x312;" horiz-adv-x="342" 
d="M329 1639v-103q-128 -30 -127 -151h62v-197h-205v162q0 113 74.5 193t195.5 96z" />
    <glyph glyph-name="dotbelowcomb" unicode="&#x323;" horiz-adv-x="344" 
d="M70 -369v231h221v-231h-221z" />
    <glyph glyph-name="uni037E" unicode="&#x37e;" horiz-adv-x="614" 
d="M189 827v238h238v-238h-238zM158 -307v103q128 31 127 204h-96v238h238v-207q0 -144 -70.5 -232.5t-198.5 -105.5z" />
    <glyph glyph-name="tonos" unicode="&#x384;" horiz-adv-x="422" 
d="M116 1475h244l-154 -301h-145z" />
    <glyph glyph-name="dieresistonos" unicode="&#x385;" horiz-adv-x="799" 
d="M371 1743h244l-154 -301h-145zM70 1208v205h213v-205h-213zM492 1208v205h213v-205h-213z" />
    <glyph glyph-name="Alphatonos" unicode="&#x386;" horiz-adv-x="1446" 
d="M1214 0l-145 373h-702l-148 -373h-219l606 1475h236l604 -1475h-232zM434 543h567l-280 723zM248 1475h244l-154 -301h-145z" />
    <glyph glyph-name="uni0387" unicode="&#x387;" horiz-adv-x="614" 
d="M188 532v238h238v-238h-238z" />
    <glyph glyph-name="Epsilontonos" unicode="&#x388;" horiz-adv-x="1380" 
d="M1218 664h-651v-488h711v-176h-920v1475h920v-176h-711v-463h651v-172zM24 1475h244l-154 -301h-145z" />
    <glyph glyph-name="Etatonos" unicode="&#x389;" horiz-adv-x="1632" 
d="M1478 1475v-1475h-211v658h-720v-658h-209v1475h209v-641h720v641h211zM24 1475h244l-154 -301h-145z" />
    <glyph glyph-name="Iotatonos" unicode="&#x38a;" horiz-adv-x="700" 
d="M547 1475v-1475h-209v1475h209zM24 1475h244l-154 -301h-145z" />
    <glyph glyph-name="Omicrontonos" unicode="&#x38c;" horiz-adv-x="1645" 
d="M854 1506q320 0 509 -208t189 -560q0 -358 -201 -568q-192 -201 -501 -201q-319 0 -508.5 208.5t-189.5 560.5q0 359 206 570q192 198 496 198zM852 1336q-226 0 -356.5 -160.5t-130.5 -437.5q0 -279 130.5 -439t357.5 -160q225 0 355.5 160.5t130.5 438.5t-130.5 438
t-356.5 160zM55 1475h244l-154 -301h-145z" />
    <glyph glyph-name="Upsilontonos" unicode="&#x38e;" horiz-adv-x="1563" 
d="M815 0v586l-541 889h230l416 -709l430 709h213l-541 -889v-586h-207zM-17 1475h244l-154 -301h-145z" />
    <glyph glyph-name="Omegatonos" unicode="&#x38f;" horiz-adv-x="1649" 
d="M641 0h-422v186h199q-121 64 -191.5 213t-70.5 340q0 383 227 592q191 175 473 175q319 0 509.5 -208t190.5 -557q0 -191 -72.5 -342t-195.5 -213h205v-186h-422v186q272 141 272 552q0 278 -130.5 438t-356.5 160t-356.5 -160t-130.5 -438q0 -413 272 -552v-186z
M55 1475h244l-154 -301h-145z" />
    <glyph glyph-name="iotadieresistonos" unicode="&#x390;" horiz-adv-x="483" 
d="M143 0v1065h197v-1065h-197zM227 1743h244l-154 -301h-145zM-74 1208v205h213v-205h-213zM348 1208v205h213v-205h-213z" />
    <glyph glyph-name="Alpha" unicode="&#x391;" horiz-adv-x="1446" 
d="M1214 0l-145 373h-702l-148 -373h-219l606 1475h236l604 -1475h-232zM434 543h567l-280 723z" />
    <glyph glyph-name="Beta" unicode="&#x392;" horiz-adv-x="1335" 
d="M961 780q125 -24 204 -125.5t79 -239.5q0 -202 -145 -308.5t-419 -106.5h-526v1475h531q231 0 360 -85q154 -103 154 -305q0 -105 -68.5 -192.5t-169.5 -112.5zM363 692v-522h348q316 0 316 249q0 273 -308 273h-356zM363 1317v-465h350q131 0 203 61t72 171
q0 111 -75 172t-212 61h-338z" />
    <glyph glyph-name="Gamma" unicode="&#x393;" horiz-adv-x="1016" 
d="M996 1299h-633v-1299h-209v1475h842v-176z" />
    <glyph glyph-name="uni0394" unicode="&#x394;" horiz-adv-x="1446" 
d="M0 0l606 1475h236l604 -1475h-1446zM289 176h856l-424 1090z" />
    <glyph glyph-name="Epsilon" unicode="&#x395;" horiz-adv-x="1176" 
d="M1014 664h-651v-488h711v-176h-920v1475h920v-176h-711v-463h651v-172z" />
    <glyph glyph-name="Zeta" unicode="&#x396;" horiz-adv-x="1309" 
d="M328 180h878v-180h-1124v182l897 1113h-850v180h1098v-176z" />
    <glyph glyph-name="Eta" unicode="&#x397;" horiz-adv-x="1448" 
d="M1295 1475v-1475h-211v658h-721v-658h-209v1475h209v-641h721v641h211z" />
    <glyph glyph-name="Theta" unicode="&#x398;" horiz-adv-x="1585" 
d="M1151 664h-717v172h717v-172zM795 1506q320 0 509 -208t189 -560q0 -358 -201 -568q-192 -201 -502 -201q-319 0 -508.5 208.5t-189.5 560.5q0 359 206 570q193 198 497 198zM793 1336q-227 0 -357.5 -160t-130.5 -438q0 -279 130.5 -439t358.5 -160q225 0 355.5 160.5
t130.5 438.5t-130.5 438t-356.5 160z" />
    <glyph glyph-name="Iota" unicode="&#x399;" horiz-adv-x="516" 
d="M363 1475v-1475h-209v1475h209z" />
    <glyph glyph-name="Kappa" unicode="&#x39a;" horiz-adv-x="1294" 
d="M1008 0l-645 695v-695h-209v1475h209v-656l600 656h258l-670 -705l734 -770h-277z" />
    <glyph glyph-name="Lambda" unicode="&#x39b;" horiz-adv-x="1425" 
d="M1194 0l-483 1266l-492 -1266h-219l596 1475h235l594 -1475h-231z" />
    <glyph glyph-name="Mu" unicode="&#x39c;" horiz-adv-x="1784" 
d="M812 0l-455 1155v-1155h-203v1475h291l469 -1229l442 1229h275v-1475h-197v1145l-426 -1145h-196z" />
    <glyph glyph-name="Nu" unicode="&#x39d;" horiz-adv-x="1473" 
d="M1319 1475v-1475h-264l-711 1235v-1235h-190v1475h276l703 -1225v1225h186z" />
    <glyph glyph-name="Xi" unicode="&#x39e;" horiz-adv-x="1186" 
d="M1083 0h-981v186h981v-186zM1083 1291h-981v184h981v-184zM929 658h-675v184h675v-184z" />
    <glyph glyph-name="Omicron" unicode="&#x39f;" horiz-adv-x="1585" 
d="M795 1506q320 0 509 -208t189 -560q0 -358 -201 -568q-192 -201 -502 -201q-319 0 -508.5 208.5t-189.5 560.5q0 359 206 570q193 198 497 198zM793 1336q-227 0 -357.5 -160t-130.5 -438q0 -279 130.5 -439t358.5 -160q225 0 355.5 160.5t130.5 438.5t-130.5 438
t-356.5 160z" />
    <glyph glyph-name="Pi" unicode="&#x3a0;" horiz-adv-x="1448" 
d="M1295 1475v-1475h-211v1299h-721v-1299h-209v1475h1141z" />
    <glyph glyph-name="Rho" unicode="&#x3a1;" horiz-adv-x="1292" 
d="M363 526v-526h-209v1475h479q283 0 430.5 -122.5t147.5 -355.5q0 -232 -149 -351.5t-437 -119.5h-262zM363 1305v-609h266q187 0 276 73t89 226q0 150 -92 230t-265 80h-274z" />
    <glyph glyph-name="Sigma" unicode="&#x3a3;" horiz-adv-x="1165" 
d="M322 174h772v-174h-1022v176l502 564l-502 559v176h1022v-174h-772l440 -490v-145z" />
    <glyph glyph-name="Tau" unicode="&#x3a4;" horiz-adv-x="1235" 
d="M1214 1289h-496v-1289h-209v1289h-489v186h1194v-186z" />
    <glyph glyph-name="Upsilon" unicode="&#x3a5;" horiz-adv-x="1288" 
d="M541 0v586l-541 889h229l416 -709l430 709h213l-540 -889v-586h-207z" />
    <glyph glyph-name="Phi" unicode="&#x3a6;" horiz-adv-x="1753" 
d="M981 1505v-81q286 -12 463 -164q217 -186 217 -523q0 -314 -181 -496t-499 -190v-82h-209v82q-319 8 -499.5 190.5t-180.5 496.5q0 307 181 489.5t499 196.5v81h209zM772 221v1033q-467 -23 -467 -515q0 -502 467 -518zM981 1254v-1033q467 16 467 515q0 495 -467 518z
" />
    <glyph glyph-name="Chi" unicode="&#x3a7;" horiz-adv-x="1335" 
d="M784 768l530 -768h-250l-395 596l-413 -596h-236l532 762l-495 713h246l374 -549l383 549h238z" />
    <glyph glyph-name="Psi" unicode="&#x3a8;" horiz-adv-x="1571" 
d="M332 1475v-637q0 -275 354 -320v957h209v-955q350 45 350 318v637h203v-619q0 -227 -140 -357t-413 -157v-342h-209v342q-258 24 -393 133q-170 137 -170 381v619h209z" />
    <glyph glyph-name="uni03A9" unicode="&#x3a9;" horiz-adv-x="1585" 
d="M577 0h-422v186h199q-120 64 -191 213.5t-71 339.5q0 384 227 592q192 175 474 175q319 0 509.5 -208t190.5 -557q0 -191 -73 -342t-195 -213h204v-186h-422v186q273 142 273 552q0 278 -130.5 438t-356.5 160q-227 0 -357.5 -160t-130.5 -438q0 -412 272 -552v-186z" />
    <glyph glyph-name="Iotadieresis" unicode="&#x3aa;" horiz-adv-x="516" 
d="M362 1475v-1475h-209v1475h209zM-78 1618v205h213v-205h-213zM385 1618v205h213v-205h-213z" />
    <glyph glyph-name="Upsilondieresis" unicode="&#x3ab;" horiz-adv-x="1288" 
d="M541 0v586l-541 889h229l416 -709l430 709h213l-540 -889v-586h-207zM305 1618v205h213v-205h-213zM768 1618v205h213v-205h-213z" />
    <glyph glyph-name="alphatonos" unicode="&#x3ac;" horiz-adv-x="1237" 
d="M933 0l-35 147q-125 -178 -350 -178q-215 0 -340 150.5t-125 407.5q0 267 125 418t345 151q219 0 345 -174l30 143h166v-1065h-161zM590 928q-147 0 -224.5 -104t-77.5 -301q0 -184 79.5 -285t223.5 -101q145 0 231 105t86 282q0 187 -85 295.5t-233 108.5zM557 1475h244
l-154 -301h-145z" />
    <glyph glyph-name="epsilontonos" unicode="&#x3ad;" horiz-adv-x="1094" 
d="M797 332h215q-29 -173 -154 -268t-324 -95q-223 0 -338 90q-114 89 -114 230q0 100 62.5 170t179.5 100q-100 30 -153.5 92t-53.5 149q0 137 109.5 216.5t296.5 79.5q194 0 324 -90.5t159 -245.5h-217q-44 178 -261 178q-100 0 -155 -39.5t-55 -111.5q0 -152 202 -152
h107v-170h-111q-109 0 -171 -44t-62 -123q0 -165 253 -165q120 0 180.5 46t80.5 153zM522 1475h244l-154 -301h-145z" />
    <glyph glyph-name="etatonos" unicode="&#x3ae;" horiz-adv-x="1161" 
d="M143 0v1065h162l23 -135q124 166 325 166q178 0 276.5 -105.5t98.5 -296.5v-1063h-197v1061q0 236 -225 236q-115 0 -190.5 -77t-75.5 -196v-655h-197zM542 1475h244l-154 -301h-145z" />
    <glyph glyph-name="iotatonos" unicode="&#x3af;" horiz-adv-x="483" 
d="M143 0v1065h197v-1065h-197zM219 1475h243l-153 -301h-146z" />
    <glyph glyph-name="upsilondieresistonos" unicode="&#x3b0;" horiz-adv-x="1165" 
d="M143 1065h197v-698q0 -110 64 -170t180 -60q115 0 178 60t63 170v698h197v-694q0 -192 -114.5 -297t-321.5 -105q-213 0 -328 104.5t-115 297.5v694zM571 1743h244l-154 -301h-145zM270 1208v205h213v-205h-213zM692 1208v205h213v-205h-213z" />
    <glyph glyph-name="alpha" unicode="&#x3b1;" horiz-adv-x="1237" 
d="M933 0l-35 147q-125 -178 -350 -178q-215 0 -340 150.5t-125 407.5q0 267 125 418t345 151q219 0 345 -174l30 143h166v-1065h-161zM590 928q-147 0 -224.5 -104t-77.5 -301q0 -184 79.5 -285t223.5 -101q145 0 231 105t86 282q0 187 -85 295.5t-233 108.5z" />
    <glyph glyph-name="beta" unicode="&#x3b2;" horiz-adv-x="1167" 
d="M143 -369v1434q0 212 110 326.5t313 114.5q195 0 312 -102t117 -273q0 -249 -217 -324q127 -23 212 -136.5t85 -259.5q0 -195 -118.5 -318.5t-306.5 -123.5q-204 0 -310 146v-484h-197zM551 707v170h63q82 0 131 63t49 169q0 233 -231 233q-116 0 -169.5 -64.5
t-53.5 -202.5v-688q0 -107 78.5 -180.5t192.5 -73.5q127 0 195 72t68 204q0 141 -67.5 219.5t-187.5 78.5h-68z" />
    <glyph glyph-name="gamma" unicode="&#x3b3;" horiz-adv-x="1053" 
d="M423 -369v369l-403 1065h213l293 -877l299 877h207l-412 -1065v-369h-197z" />
    <glyph glyph-name="delta" unicode="&#x3b4;" horiz-adv-x="1174" 
d="M275 1475h729v-168h-328q197 -56 306.5 -233.5t109.5 -440.5q0 -311 -137 -487.5t-378 -176.5q-225 0 -360 141.5t-135 376.5q0 219 131 360.5t334 141.5q117 0 219 -52.5t141 -133.5q-32 208 -204 350t-428 170v152zM577 825q-139 0 -216.5 -92t-77.5 -257t75.5 -254
t214.5 -89q142 0 235 98.5t93 248.5q0 154 -89.5 249.5t-234.5 95.5z" />
    <glyph glyph-name="epsilon" unicode="&#x3b5;" horiz-adv-x="1094" 
d="M797 332h215q-29 -173 -154 -268t-324 -95q-223 0 -338 90q-114 89 -114 230q0 100 62.5 170t179.5 100q-100 30 -153.5 92t-53.5 149q0 137 109.5 216.5t296.5 79.5q194 0 324 -90.5t159 -245.5h-217q-44 178 -261 178q-100 0 -155 -39.5t-55 -111.5q0 -152 202 -152
h107v-170h-111q-109 0 -171 -44t-62 -123q0 -165 253 -165q120 0 180.5 46t80.5 153z" />
    <glyph glyph-name="zeta" unicode="&#x3b6;" horiz-adv-x="918" 
d="M82 1315v160h815v-139q-275 -112 -422 -285q-190 -223 -190 -517q0 -178 75.5 -274t239.5 -129q162 -32 227.5 -91t65.5 -171q0 -140 -152 -268l-118 90q88 94 88 154q0 54 -42 82t-151 47q-206 35 -320 173t-114 354q0 283 136.5 492t396.5 322h-535z" />
    <glyph glyph-name="eta" unicode="&#x3b7;" horiz-adv-x="1161" 
d="M143 0v1065h162l23 -135q124 166 325 166q178 0 276.5 -105.5t98.5 -296.5v-1063h-197v1061q0 236 -225 236q-115 0 -190.5 -77t-75.5 -196v-655h-197z" />
    <glyph glyph-name="theta" unicode="&#x3b8;" horiz-adv-x="1208" 
d="M604 1506q250 0 386 -199t136 -565q0 -363 -138.5 -568t-384.5 -205q-244 0 -382.5 205.5t-138.5 567.5q0 366 136 565t386 199zM918 666h-629q12 -259 76 -383q78 -150 240 -150q150 0 225 127.5t88 405.5zM291 834h627q-15 247 -78 365q-78 143 -236 143
q-150 0 -225.5 -122t-87.5 -386z" />
    <glyph glyph-name="iota" unicode="&#x3b9;" horiz-adv-x="483" 
d="M143 0v1065h197v-1065h-197z" />
    <glyph glyph-name="kappa" unicode="&#x3ba;" horiz-adv-x="1065" 
d="M143 0v1065h197v-432l418 432h258l-477 -473l536 -592h-262l-473 518v-518h-197z" />
    <glyph glyph-name="lambda" unicode="&#x3bb;" horiz-adv-x="1057" 
d="M1036 0h-207l-305 905l-307 -905h-197l387 1065h62q-65 175 -102.5 226t-101.5 51q-42 0 -102 -14v159q8 2 25 6q54 13 103 13q122 0 196 -83q90 -101 174 -343z" />
    <glyph glyph-name="uni03BC" unicode="&#x3bc;" horiz-adv-x="1163" 
d="M1020 1065v-1065h-162l-21 115q-117 -146 -299 -146q-107 0 -198 62v-400h-197v1434h197v-698q0 -230 222 -230q117 0 189 74.5t72 196.5v657h197z" />
    <glyph glyph-name="nu" unicode="&#x3bd;" horiz-adv-x="1053" 
d="M1032 1065l-375 -1065h-266l-371 1065h215l295 -905l297 905h205z" />
    <glyph glyph-name="xi" unicode="&#x3be;" horiz-adv-x="1034" 
d="M92 1315v160h805v-141h-41q-250 0 -386.5 -82.5t-136.5 -232.5q0 -92 58.5 -151t149.5 -59h225v-170h-230q-102 0 -171.5 -69t-69.5 -171q0 -110 78 -173t260 -99q165 -33 242 -97t77 -167q0 -119 -176 -262l-121 90q53 56 73.5 89.5t20.5 64.5q0 55 -43 80t-178 48
q-434 76 -434 412q0 272 272 348q-96 30 -156.5 107.5t-60.5 171.5q0 114 62 186t200 117h-319z" />
    <glyph glyph-name="omicron" unicode="&#x3bf;" horiz-adv-x="1214" 
d="M608 1096q245 0 385 -150.5t140 -412.5q0 -261 -141.5 -412.5t-384.5 -151.5q-242 0 -383.5 152.5t-141.5 413.5q0 258 142 409.5t384 151.5zM609 936q-148 0 -235 -108.5t-87 -293.5q0 -188 87 -296.5t237 -108.5q149 0 233 107t84 296q0 187 -85.5 295.5t-233.5 108.5z
" />
    <glyph glyph-name="rho" unicode="&#x3c1;" horiz-adv-x="1237" 
d="M330 137v-506h-197v922q0 260 135.5 401.5t384.5 141.5q232 0 367 -149.5t135 -406.5q0 -263 -130.5 -417t-353.5 -154q-221 0 -341 168zM641 928q-154 0 -237.5 -100.5t-83.5 -285.5q0 -188 86 -296.5t235 -108.5t229 104.5t80 299.5q0 184 -81.5 285.5t-227.5 101.5z
" />
    <glyph glyph-name="uni03C2" unicode="&#x3c2;" horiz-adv-x="1126" 
d="M846 -399l-119 90q90 93 90 154q0 62 -49.5 91.5t-167.5 39.5q-248 21 -383 169.5t-135 401.5q0 246 138.5 397.5t364.5 151.5q188 0 308.5 -91t151.5 -255h-218q-45 180 -239 180q-139 0 -218 -100.5t-79 -278.5q0 -196 90 -289t309 -122q173 -24 251.5 -88t78.5 -181
q0 -111 -143 -243q-15 -13 -31 -27z" />
    <glyph glyph-name="sigma" unicode="&#x3c3;" horiz-adv-x="1214" 
d="M1012 905q121 -152 121 -374q0 -259 -142 -410.5t-384 -151.5t-383.5 152.5t-141.5 411.5q0 260 139.5 411.5t378.5 151.5q101 0 195 -31h379v-166zM758 920q-76 16 -147 16q-150 0 -237 -108t-87 -293q0 -189 87 -297.5t237 -108.5q149 0 233 106.5t84 295.5
q0 275 -170 389z" />
    <glyph glyph-name="tau" unicode="&#x3c4;" horiz-adv-x="983" 
d="M393 0v897h-362v168h921v-168h-362v-897h-197z" />
    <glyph glyph-name="upsilon" unicode="&#x3c5;" horiz-adv-x="1165" 
d="M143 1065h197v-698q0 -110 64 -170t180 -60q115 0 178 60t63 170v698h197v-694q0 -192 -114.5 -297t-321.5 -105q-213 0 -328 104.5t-115 297.5v694z" />
    <glyph glyph-name="phi" unicode="&#x3c6;" horiz-adv-x="1499" 
d="M830 -27v-342h-197v342q-289 18 -420 137.5t-131 366.5q0 260 139 588h197q-77 -198 -108 -328t-31 -254q0 -174 79 -251.5t275 -94.5v531q0 209 95 318.5t278 109.5q412 0 412 -518q0 -295 -142 -441t-446 -164zM830 135q216 14 300.5 110t84.5 330q0 187 -49 270
t-160 83q-96 0 -136 -68t-40 -229v-496z" />
    <glyph glyph-name="chi" unicode="&#x3c7;" horiz-adv-x="1083" 
d="M645 383l417 -752h-239l-289 586l-283 -586h-231l397 738l-372 696h235l254 -533l242 533h225z" />
    <glyph glyph-name="psi" unicode="&#x3c8;" horiz-adv-x="1530" 
d="M342 1065v-590q0 -277 329 -324v914h197v-914q325 50 325 324v590h193v-572q0 -223 -133.5 -356.5t-384.5 -161.5v-344h-197v342q-254 28 -391 162.5t-137 357.5v572h199z" />
    <glyph glyph-name="omega" unicode="&#x3c9;" horiz-adv-x="1538" 
d="M768 164q-89 -195 -305 -195q-188 0 -284.5 124t-96.5 366q0 282 140 606h196l-7 -19q-76 -200 -104 -323.5t-28 -260.5q0 -167 50.5 -246t157.5 -79q183 0 183 244v397h199v-397q0 -244 182 -244q209 0 209 327q0 219 -96 485q-17 48 -36 97l-7 19h196
q76 -179 108 -317.5t32 -290.5q0 -488 -386 -488q-218 0 -303 195z" />
    <glyph glyph-name="iotadieresis" unicode="&#x3ca;" horiz-adv-x="483" 
d="M144 0v1065h197v-1065h-197zM-94 1270v205h213v-205h-213zM369 1270v205h213v-205h-213z" />
    <glyph glyph-name="upsilondieresis" unicode="&#x3cb;" horiz-adv-x="1165" 
d="M143 1065h197v-698q0 -110 64 -170t180 -60q115 0 178 60t63 170v698h197v-694q0 -192 -114.5 -297t-321.5 -105q-213 0 -328 104.5t-115 297.5v694zM249 1270v205h213v-205h-213zM712 1270v205h213v-205h-213z" />
    <glyph glyph-name="omicrontonos" unicode="&#x3cc;" horiz-adv-x="1214" 
d="M608 1096q245 0 385 -150.5t140 -412.5q0 -261 -141.5 -412.5t-384.5 -151.5q-242 0 -383.5 152.5t-141.5 413.5q0 258 142 409.5t384 151.5zM609 936q-148 0 -235 -108.5t-87 -293.5q0 -188 87 -296.5t237 -108.5q149 0 233 107t84 296q0 187 -85.5 295.5t-233.5 108.5z
M596 1475h244l-154 -301h-145z" />
    <glyph glyph-name="upsilontonos" unicode="&#x3cd;" horiz-adv-x="1165" 
d="M143 1065h197v-698q0 -110 64 -170t180 -60q115 0 178 60t63 170v698h197v-694q0 -192 -114.5 -297t-321.5 -105q-213 0 -328 104.5t-115 297.5v694zM553 1475h243l-153 -301h-146z" />
    <glyph glyph-name="omegatonos" unicode="&#x3ce;" horiz-adv-x="1538" 
d="M768 164q-89 -195 -305 -195q-188 0 -284.5 124t-96.5 366q0 282 140 606h196l-7 -19q-76 -200 -104 -323.5t-28 -260.5q0 -167 50.5 -246t157.5 -79q183 0 183 244v397h199v-397q0 -244 182 -244q209 0 209 327q0 219 -96 485q-17 48 -36 97l-7 19h196
q76 -179 108 -317.5t32 -290.5q0 -488 -386 -488q-218 0 -303 195zM748 1475h243l-153 -301h-146z" />
    <glyph glyph-name="uni0400" unicode="&#x400;" horiz-adv-x="1176" 
d="M1014 664h-651v-488h711v-176h-920v1475h920v-176h-711v-463h651v-172zM779 1572h-176l-287 281h254z" />
    <glyph glyph-name="afii10023" unicode="&#x401;" horiz-adv-x="1176" 
d="M1014 664h-651v-488h711v-176h-920v1475h920v-176h-711v-463h651v-172zM279 1618v205h213v-205h-213zM742 1618v205h213v-205h-213z" />
    <glyph glyph-name="afii10051" unicode="&#x402;" horiz-adv-x="1616" 
d="M1073 -8v162q81 -19 122 -19q62 0 85.5 29t23.5 106v238q0 330 -322 330q-145 0 -235 -78t-90 -203v-557h-209v1289h-428v186h1071v-186h-434v-412q137 135 348 135q232 0 370 -138.5t138 -371.5v-242q0 -137 -76 -215t-209 -78q-75 0 -155 25z" />
    <glyph glyph-name="afii10052" unicode="&#x403;" horiz-adv-x="1016" 
d="M996 1299h-633v-1299h-209v1475h842v-176zM613 1853h254l-287 -281h-176z" />
    <glyph glyph-name="afii10053" unicode="&#x404;" horiz-adv-x="1493" 
d="M940 664h-633q19 -246 141 -382.5t324 -136.5q177 0 297.5 105.5t130.5 269.5h211q-17 -239 -199 -395t-445 -156q-316 0 -495.5 205t-179.5 564q0 364 195 570q187 198 496 198q254 0 429 -141.5t197 -363.5h-211q-25 158 -133 244.5t-279 86.5q-209 0 -330 -126
t-147 -370h631v-172z" />
    <glyph glyph-name="afii10054" unicode="&#x405;" horiz-adv-x="1337" 
d="M1235 1106h-215q-41 228 -368 228q-152 0 -236 -52.5t-84 -147.5t79 -147q78 -52 308 -116q295 -83 411 -184.5t116 -275.5q0 -194 -161 -318t-412 -124q-243 0 -406.5 121t-194.5 324h215q48 -273 381 -273q167 0 268 71t101 188q0 108 -83 165q-92 64 -382 144
q-247 68 -348 161.5t-101 254.5q0 173 143.5 277t383.5 104q243 0 398.5 -106t186.5 -294z" />
    <glyph glyph-name="afii10055" unicode="&#x406;" horiz-adv-x="516" 
d="M363 1475v-1475h-209v1475h209z" />
    <glyph glyph-name="afii10056" unicode="&#x407;" horiz-adv-x="516" 
d="M362 1475v-1475h-209v1475h209zM-78 1618v205h213v-205h-213zM385 1618v205h213v-205h-213z" />
    <glyph glyph-name="afii10057" unicode="&#x408;" horiz-adv-x="1106" 
d="M262 414q15 -269 249 -269q116 0 179 75t63 214v1041h209v-1043q0 -223 -118.5 -343t-338.5 -120q-196 0 -324 125.5t-130 319.5h211z" />
    <glyph glyph-name="afii10058" unicode="&#x409;" horiz-adv-x="2165" 
d="M1026 1299h-555l-89 -951q-17 -183 -101.5 -264.5t-260.5 -83.5v184q86 0 120 32.5t42 123.5l102 1135h951v-527h270q282 0 430 -122t148 -356q0 -231 -149 -350.5t-437 -119.5h-471v1299zM1235 778v-608h266q186 0 275.5 73t89.5 225q0 150 -92 230t-265 80h-274z" />
    <glyph glyph-name="afii10059" unicode="&#x40a;" horiz-adv-x="2142" 
d="M1213 1475v-588h270q282 0 430 -114t148 -331t-149 -329.5t-437 -112.5h-473v715h-639v-715h-209v1475h209v-588h639v588h211zM1213 717v-547h266q365 0 365 270q0 134 -92 205.5t-265 71.5h-274z" />
    <glyph glyph-name="afii10060" unicode="&#x40b;" horiz-adv-x="1616" 
d="M448 0v1289h-428v186h1071v-186h-434v-412q137 135 349 135q232 0 369.5 -138.5t137.5 -371.5v-502h-209v508q0 330 -322 330q-143 0 -234 -77t-91 -197v-564h-209z" />
    <glyph glyph-name="afii10061" unicode="&#x40c;" horiz-adv-x="1294" 
d="M686 1853h254l-286 -281h-176zM1029 0l-449 674h-217v-674h-209v1475h209v-627h227l400 627h221l-467 -705l530 -770h-245z" />
    <glyph glyph-name="uni040D" unicode="&#x40d;" horiz-adv-x="1473" 
d="M154 0v1475h205v-1119l751 1039v80h209v-1475h-209v1118l-751 -1036v-82h-205zM842 1572h-176l-287 281h254z" />
    <glyph glyph-name="afii10062" unicode="&#x40e;" horiz-adv-x="1212" 
d="M258 -12v168q7 -2 10 -3q52 -12 92 -12q77 0 117 41.5t78 159.5h-70l-485 1133h219l402 -981l389 981h202l-471 -1192q-65 -166 -149 -240t-208 -74q-44 0 -126 19zM313 1780h172q11 -99 125 -99q115 0 125 99h172q-32 -230 -299 -230q-262 0 -295 230z" />
    <glyph glyph-name="afii10145" unicode="&#x40f;" horiz-adv-x="1448" 
d="M818 0v-287h-195v287h-469v1475h209v-1299h721v1299h211v-1475h-477z" />
    <glyph glyph-name="afii10017" unicode="&#x410;" horiz-adv-x="1446" 
d="M1214 0l-145 373h-702l-148 -373h-219l606 1475h236l604 -1475h-232zM434 543h567l-280 723z" />
    <glyph glyph-name="afii10018" unicode="&#x411;" horiz-adv-x="1292" 
d="M1016 1299h-653v-351h270q283 0 430.5 -122.5t147.5 -355.5q0 -231 -149 -350.5t-437 -119.5h-471v1475h862v-176zM363 778v-608h266q187 0 276 73t89 225q0 150 -92 230t-265 80h-274z" />
    <glyph glyph-name="afii10019" unicode="&#x412;" horiz-adv-x="1335" 
d="M961 780q125 -24 204 -125.5t79 -239.5q0 -202 -145 -308.5t-419 -106.5h-526v1475h531q231 0 360 -85q154 -103 154 -305q0 -105 -68.5 -192.5t-169.5 -112.5zM363 692v-522h348q316 0 316 249q0 273 -308 273h-356zM363 1317v-465h350q131 0 203 61t72 171
q0 111 -75 172t-212 61h-338z" />
    <glyph glyph-name="afii10020" unicode="&#x413;" horiz-adv-x="1016" 
d="M996 1299h-633v-1299h-209v1475h842v-176z" />
    <glyph glyph-name="afii10021" unicode="&#x414;" horiz-adv-x="1368" 
d="M1215 1475v-1295h133v-467h-195v287h-927v-287h-195v467h80q112 74 121 297l41 998h942zM302 180h704v1119h-538l-35 -810q-9 -213 -131 -309z" />
    <glyph glyph-name="afii10022" unicode="&#x415;" horiz-adv-x="1176" 
d="M1014 664h-651v-488h711v-176h-920v1475h920v-176h-711v-463h651v-172z" />
    <glyph glyph-name="afii10024" unicode="&#x416;" horiz-adv-x="1829" 
d="M289 1475l307 -625h219v625h199v-625h217l309 625h215l-368 -707l432 -768h-240l-352 672h-213v-672h-199v672h-213l-352 -672h-240l432 768l-369 707h216z" />
    <glyph glyph-name="afii10025" unicode="&#x417;" horiz-adv-x="1262" 
d="M72 354h215q29 -116 108 -168.5t225 -52.5q160 0 249.5 72t89.5 201q0 122 -85.5 201t-217.5 79h-129v170h125q106 0 182 73.5t76 177.5q0 109 -81 172t-222 63q-277 0 -318 -205h-213q31 175 174 272t369 97q227 0 364.5 -105t137.5 -279q0 -118 -68 -207.5t-190 -132.5
q146 -32 226.5 -132t80.5 -249q0 -193 -151 -312.5t-396 -119.5q-237 0 -378.5 98.5t-172.5 286.5z" />
    <glyph glyph-name="afii10026" unicode="&#x418;" horiz-adv-x="1473" 
d="M154 0v1475h205v-1119l751 1039v80h209v-1475h-209v1118l-751 -1036v-82h-205z" />
    <glyph glyph-name="afii10027" unicode="&#x419;" horiz-adv-x="1473" 
d="M154 0v1475h205v-1119l751 1039v80h209v-1475h-209v1118l-751 -1036v-82h-205zM453 1780h172q11 -99 125 -99t125 99h172q-33 -230 -299 -230q-262 0 -295 230z" />
    <glyph glyph-name="afii10028" unicode="&#x41a;" horiz-adv-x="1294" 
d="M1029 0l-449 674h-217v-674h-209v1475h209v-627h227l400 627h221l-467 -705l530 -770h-245z" />
    <glyph glyph-name="afii10029" unicode="&#x41b;" horiz-adv-x="1389" 
d="M1235 1475v-1475h-209v1299h-547l-88 -951q-17 -182 -104.5 -264t-266.5 -84v184q86 0 120 32.5t42 123.5l102 1135h951z" />
    <glyph glyph-name="afii10030" unicode="&#x41c;" horiz-adv-x="1784" 
d="M812 0l-455 1155v-1155h-203v1475h291l469 -1229l442 1229h275v-1475h-197v1145l-426 -1145h-196z" />
    <glyph glyph-name="afii10031" unicode="&#x41d;" horiz-adv-x="1448" 
d="M1295 1475v-1475h-211v658h-721v-658h-209v1475h209v-641h721v641h211z" />
    <glyph glyph-name="afii10032" unicode="&#x41e;" horiz-adv-x="1585" 
d="M795 1506q320 0 509 -208t189 -560q0 -358 -201 -568q-192 -201 -502 -201q-319 0 -508.5 208.5t-189.5 560.5q0 359 206 570q193 198 497 198zM793 1336q-227 0 -357.5 -160t-130.5 -438q0 -279 130.5 -439t358.5 -160q225 0 355.5 160.5t130.5 438.5t-130.5 438
t-356.5 160z" />
    <glyph glyph-name="afii10033" unicode="&#x41f;" horiz-adv-x="1448" 
d="M1295 1475v-1475h-211v1299h-721v-1299h-209v1475h1141z" />
    <glyph glyph-name="afii10034" unicode="&#x420;" horiz-adv-x="1292" 
d="M363 526v-526h-209v1475h479q283 0 430.5 -122.5t147.5 -355.5q0 -232 -149 -351.5t-437 -119.5h-262zM363 1305v-609h266q187 0 276 73t89 226q0 150 -92 230t-265 80h-274z" />
    <glyph glyph-name="afii10035" unicode="&#x421;" horiz-adv-x="1493" 
d="M1200 520h211q-17 -239 -199 -395t-445 -156q-315 0 -495 205t-180 563q0 365 195 571q187 198 496 198q254 0 429 -141.5t197 -363.5h-211q-25 158 -133 244.5t-280 86.5q-228 0 -354 -156t-126 -439q0 -276 124.5 -434t342.5 -158q177 0 297.5 105.5t130.5 269.5z" />
    <glyph glyph-name="afii10036" unicode="&#x422;" horiz-adv-x="1235" 
d="M1214 1289h-496v-1289h-209v1289h-489v186h1194v-186z" />
    <glyph glyph-name="afii10037" unicode="&#x423;" horiz-adv-x="1212" 
d="M258 -12v168q7 -2 10 -3q52 -12 92 -12q77 0 117 41.5t78 159.5h-70l-485 1133h219l402 -981l389 981h202l-471 -1192q-65 -166 -149 -240t-208 -74q-44 0 -126 19z" />
    <glyph glyph-name="afii10038" unicode="&#x424;" horiz-adv-x="1753" 
d="M981 1505v-81q286 -12 463 -164q217 -186 217 -523q0 -314 -181 -496t-499 -190v-82h-209v82q-319 8 -499.5 190.5t-180.5 496.5q0 307 181 489.5t499 196.5v81h209zM772 221v1033q-467 -23 -467 -515q0 -502 467 -518zM981 1254v-1033q467 16 467 515q0 495 -467 518z
" />
    <glyph glyph-name="afii10039" unicode="&#x425;" horiz-adv-x="1335" 
d="M784 768l530 -768h-250l-395 596l-413 -596h-236l532 762l-495 713h246l374 -549l383 549h238z" />
    <glyph glyph-name="afii10040" unicode="&#x426;" horiz-adv-x="1448" 
d="M363 176h721v1299h211v-1299h133v-463h-195v287h-1079v1475h209v-1299z" />
    <glyph glyph-name="afii10041" unicode="&#x427;" horiz-adv-x="1341" 
d="M1188 1475v-1475h-209v627q-129 -164 -371 -164q-233 0 -359 132.5t-126 377.5v502h209v-508q0 -330 322 -330q143 0 234 90t91 232v516h209z" />
    <glyph glyph-name="afii10042" unicode="&#x428;" horiz-adv-x="1982" 
d="M154 0v1475h209v-1295h528v1295h201v-1295h528v1295h209v-1475h-1675z" />
    <glyph glyph-name="afii10043" unicode="&#x429;" horiz-adv-x="1982" 
d="M1829 176h133v-463h-195v287h-1613v1475h209v-1295h528v1295h201v-1295h528v1295h209v-1299z" />
    <glyph glyph-name="afii10044" unicode="&#x42a;" horiz-adv-x="1638" 
d="M499 1299h-479v176h688v-527h270q283 0 430.5 -122t147.5 -356q0 -231 -149 -350.5t-437 -119.5h-471v1299zM708 778v-608h266q187 0 276 73t89 225q0 150 -92 230t-265 80h-274z" />
    <glyph glyph-name="afii10045" unicode="&#x42b;" horiz-adv-x="1745" 
d="M154 1475h209v-527h270q283 0 430.5 -122.5t147.5 -355.5q0 -231 -149 -350.5t-437 -119.5h-471v1475zM363 778v-608h266q187 0 276 73t89 225q0 150 -92 230t-265 80h-274zM1592 1475v-1475h-209v1475h209z" />
    <glyph glyph-name="afii10046" unicode="&#x42c;" horiz-adv-x="1292" 
d="M154 1475h209v-527h270q283 0 430.5 -122.5t147.5 -355.5q0 -231 -149 -350.5t-437 -119.5h-471v1475zM363 778v-608h266q187 0 276 73t89 225q0 150 -92 230t-265 80h-274z" />
    <glyph glyph-name="afii10047" unicode="&#x42d;" horiz-adv-x="1493" 
d="M553 836h631q-53 496 -455 496q-175 0 -293 -90t-141 -241h-211q21 221 202.5 363t442.5 142q316 0 494 -201.5t178 -558.5t-180.5 -567t-487.5 -210q-270 0 -452 154.5t-199 396.5h211q10 -168 131 -271.5t308 -103.5q197 0 317 137t137 382h-633v172z" />
    <glyph glyph-name="afii10048" unicode="&#x42e;" horiz-adv-x="2089" 
d="M640 658h-277v-658h-209v1475h209v-641h279q30 304 206 481q188 191 471 191q307 0 492.5 -210t185.5 -558q0 -356 -199 -568q-188 -201 -480 -201q-290 0 -470.5 183.5t-207.5 505.5zM1317 1336q-215 0 -341 -161.5t-126 -436.5q0 -277 126 -438t342 -161
q214 0 340 161.5t126 437.5q0 275 -126 436.5t-341 161.5z" />
    <glyph glyph-name="afii10049" unicode="&#x42f;" horiz-adv-x="1348" 
d="M20 0l403 596q-284 115 -284 420q0 216 138.5 337.5t385.5 121.5h531v-1475h-209v561h-347l-372 -561h-246zM985 731v574h-326q-145 0 -226 -76t-81 -213q0 -134 79.5 -209.5t221.5 -75.5h332z" />
    <glyph glyph-name="afii10065" unicode="&#x430;" horiz-adv-x="1126" 
d="M102 768q22 157 140.5 242.5t315.5 85.5q202 0 318.5 -99t116.5 -270v-727h-162l-24 145q-132 -176 -356 -176q-167 0 -268 84t-101 222q0 148 97 233t306 121l311 53v53q0 99 -63.5 152t-182.5 53q-213 0 -239 -172h-209zM796 528l-264 -47q-130 -23 -185.5 -65.5
t-55.5 -120.5q0 -160 206 -160q120 0 209.5 76.5t89.5 179.5v137z" />
    <glyph glyph-name="afii10066" unicode="&#x431;" horiz-adv-x="1198" 
d="M750 1475h221q-1 -57 -17.5 -89.5t-57.5 -60.5q-64 -42 -335 -122q-134 -40 -194.5 -121t-87.5 -258q119 190 362 190q207 0 341 -144.5t134 -368.5q0 -233 -145 -382.5t-373 -149.5q-253 0 -384.5 163t-131.5 477q0 348 114 523q57 88 137.5 138t218.5 82
q114 27 155 52.5t43 70.5zM609 854q-143 0 -230.5 -100t-87.5 -262q0 -157 89 -260t225 -103q139 0 222.5 102t83.5 271q0 162 -81.5 257t-220.5 95z" />
    <glyph glyph-name="afii10067" unicode="&#x432;" horiz-adv-x="1057" 
d="M756 559q110 -25 169.5 -91t59.5 -164q0 -148 -109 -226t-315 -78h-418v1065h410q397 0 397 -278q0 -171 -194 -228zM340 471v-309h219q225 0 225 149q0 75 -50.5 117.5t-139.5 42.5h-254zM340 903v-270h219q190 0 190 141q0 68 -48 98.5t-154 30.5h-207z" />
    <glyph glyph-name="afii10068" unicode="&#x433;" horiz-adv-x="809" 
d="M143 0v1065h635v-168h-438v-897h-197z" />
    <glyph glyph-name="afii10069" unicode="&#x434;" horiz-adv-x="1182" 
d="M146 168q35 31 50.5 75.5t20.5 129.5l39 692h783v-897h102v-455h-182v287h-746v-287h-182v455h115zM438 897l-28 -510q-8 -133 -97 -219h529v729h-404z" />
    <glyph glyph-name="afii10070" unicode="&#x435;" horiz-adv-x="1186" 
d="M1081 307q-46 -160 -171.5 -249t-305.5 -89q-245 0 -383.5 149.5t-138.5 413.5q0 262 137.5 413t375.5 151q494 0 499 -607h-811q14 -171 87 -252q91 -102 240 -102q95 0 163.5 46t94.5 126h213zM291 645h602q-12 144 -87 218.5t-207 74.5q-258 0 -308 -293z" />
    <glyph glyph-name="afii10072" unicode="&#x436;" horiz-adv-x="1511" 
d="M269 1065l258 -428h125v428h188v-428h143l260 428h217l-309 -498l370 -567h-233l-299 471h-149v-471h-188v471h-130l-299 -471h-233l371 567l-310 498h218z" />
    <glyph glyph-name="afii10073" unicode="&#x437;" horiz-adv-x="1090" 
d="M305 750h-217q31 167 153.5 256.5t319.5 89.5q203 0 313 -86q109 -85 109 -215q0 -85 -53.5 -146t-153.5 -90q114 -26 178 -96t64 -169q0 -150 -123 -237.5t-334 -87.5q-200 0 -326.5 99t-152.5 274h215q38 -209 270 -209q120 0 185 43t65 123q0 76 -67 121t-183 45h-120
v170h116q219 0 219 148q0 73 -58.5 114t-163.5 41q-207 0 -255 -188z" />
    <glyph glyph-name="afii10074" unicode="&#x438;" horiz-adv-x="1161" 
d="M143 0v1065h193v-733l488 672v61h193v-1065h-193v733l-488 -672v-61h-193z" />
    <glyph glyph-name="afii10075" unicode="&#x439;" horiz-adv-x="1161" 
d="M143 0v1065h193v-733l488 672v61h193v-1065h-193v733l-488 -672v-61h-193zM288 1432h172q11 -99 125 -99q115 0 125 99h172q-32 -230 -299 -230q-262 0 -295 230z" />
    <glyph glyph-name="afii10076" unicode="&#x43a;" horiz-adv-x="1065" 
d="M143 0v1065h197v-428h86l354 428h236l-436 -502l495 -563h-256l-411 471h-68v-471h-197z" />
    <glyph glyph-name="afii10077" unicode="&#x43b;" horiz-adv-x="1143" 
d="M999 1065v-1065h-197v897h-401l-49 -549q-17 -181 -95 -263t-237 -85v176q73 1 103 34.5t38 121.5l64 733h774z" />
    <glyph glyph-name="afii10078" unicode="&#x43c;" horiz-adv-x="1427" 
d="M637 0l-308 782v-782h-186v1065h282l304 -799l271 799h284v-1065h-188v766l-279 -766h-180z" />
    <glyph glyph-name="afii10079" unicode="&#x43d;" horiz-adv-x="1171" 
d="M143 0v1065h197v-410h491v410h197v-1065h-197v487h-491v-487h-197z" />
    <glyph glyph-name="afii10080" unicode="&#x43e;" horiz-adv-x="1214" 
d="M608 1096q245 0 385 -150.5t140 -412.5q0 -261 -141.5 -412.5t-384.5 -151.5q-242 0 -383.5 152.5t-141.5 413.5q0 258 142 409.5t384 151.5zM609 936q-148 0 -235 -108.5t-87 -293.5q0 -188 87 -296.5t237 -108.5q149 0 233 107t84 296q0 187 -85.5 295.5t-233.5 108.5z
" />
    <glyph glyph-name="afii10081" unicode="&#x43f;" horiz-adv-x="1171" 
d="M143 0v1065h885v-1065h-197v897h-491v-897h-197z" />
    <glyph glyph-name="afii10082" unicode="&#x440;" horiz-adv-x="1247" 
d="M305 1065l31 -139q137 170 360 170q218 0 343.5 -148.5t125.5 -406.5q0 -273 -136 -424q-133 -148 -348 -148q-221 0 -341 168v-506h-197v1434h162zM652 928q-147 0 -234.5 -105t-87.5 -281q0 -188 86 -296.5t235 -108.5q150 0 229.5 105t79.5 305q0 178 -82 279.5
t-226 101.5z" />
    <glyph glyph-name="afii10083" unicode="&#x441;" horiz-adv-x="1135" 
d="M1053 342q-25 -168 -153 -270.5t-314 -102.5q-230 0 -367 151.5t-137 405.5q0 262 136 416t367 154q188 0 308.5 -91t151.5 -255h-218q-45 180 -239 180q-142 0 -219.5 -106.5t-77.5 -301.5q0 -181 80 -284t220 -103q209 0 247 207h215z" />
    <glyph glyph-name="afii10084" unicode="&#x442;" horiz-adv-x="983" 
d="M393 0v897h-362v168h921v-168h-362v-897h-197z" />
    <glyph glyph-name="afii10085" unicode="&#x443;" horiz-adv-x="1053" 
d="M186 -381v160q58 -14 101 -14q63 0 100 46.5t88 188.5h-64l-391 1065h213l301 -905l301 905h197l-371 -1079q-76 -222 -150 -303.5t-199 -81.5q-42 0 -126 18z" />
    <glyph glyph-name="afii10086" unicode="&#x444;" horiz-adv-x="1765" 
d="M784 106q-98 -137 -280 -137q-193 0 -307.5 155.5t-114.5 415.5q0 258 110 407t299 149q184 0 293 -140v519h197v-519q111 140 293 140q189 0 299 -149t110 -407q0 -272 -121 -423q-117 -148 -301 -148q-182 0 -280 137v-475h-197v475zM1230 928q-124 0 -191.5 -100.5
t-67.5 -284.5q0 -196 66.5 -301t190.5 -105q121 0 185.5 105.5t64.5 301.5q0 179 -66 281.5t-182 102.5zM536 928q-117 0 -183 -102.5t-66 -284.5q0 -194 65 -299t185 -105q125 0 191.5 105t66.5 301q0 184 -67.5 284.5t-191.5 100.5z" />
    <glyph glyph-name="afii10087" unicode="&#x445;" horiz-adv-x="1083" 
d="M645 567l417 -567h-239l-289 412l-283 -412h-231l397 553l-372 512h235l254 -358l242 358h225z" />
    <glyph glyph-name="afii10088" unicode="&#x446;" horiz-adv-x="1171" 
d="M1028 1065v-897h102v-455h-182v287h-805v1065h197v-897h491v897h197z" />
    <glyph glyph-name="afii10089" unicode="&#x447;" horiz-adv-x="1153" 
d="M330 1065v-412q0 -229 220 -229q118 0 190.5 74.5t72.5 195.5v371h197v-1065h-197v393q-115 -137 -307 -137q-177 0 -275 105.5t-98 295.5v408h197z" />
    <glyph glyph-name="afii10090" unicode="&#x448;" horiz-adv-x="1655" 
d="M143 0v1065h197v-897h389v897h197v-897h388v897h197v-1065h-1368z" />
    <glyph glyph-name="afii10091" unicode="&#x449;" horiz-adv-x="1655" 
d="M143 0v1065h197v-897h389v897h197v-897h388v897h197v-897h102v-455h-182v287h-1288z" />
    <glyph glyph-name="afii10092" unicode="&#x44a;" horiz-adv-x="1262" 
d="M543 1065v-322h198q205 0 327 -100t122 -269q0 -171 -127.5 -272.5t-341.5 -101.5h-375v897h-326v168h523zM543 592v-441h166q133 0 204.5 57.5t71.5 164.5q0 219 -266 219h-176z" />
    <glyph glyph-name="afii10093" unicode="&#x44b;" horiz-adv-x="1436" 
d="M340 1065v-322h199q204 0 326 -100t122 -269q0 -171 -127 -272.5t-342 -101.5h-375v1065h197zM340 592v-441h166q133 0 204.5 57.5t71.5 164.5q0 219 -266 219h-176zM1095 0v1065h197v-1065h-197z" />
    <glyph glyph-name="afii10094" unicode="&#x44c;" horiz-adv-x="1069" 
d="M340 1065v-322h199q204 0 326 -100t122 -269q0 -171 -127 -272.5t-342 -101.5h-375v1065h197zM340 592v-441h166q133 0 204.5 57.5t71.5 164.5q0 219 -266 219h-176z" />
    <glyph glyph-name="afii10095" unicode="&#x44d;" horiz-adv-x="1135" 
d="M297 342q19 -98 87 -152.5t173 -54.5q126 0 199.5 86t85.5 248h-350v156h346q-40 305 -277 305q-100 0 -166 -47t-88 -133h-217q26 157 155.5 251.5t319.5 94.5q227 0 357.5 -152.5t130.5 -417.5q0 -257 -132 -407t-360 -150q-190 0 -322.5 103.5t-156.5 269.5h215z" />
    <glyph glyph-name="afii10096" unicode="&#x44e;" horiz-adv-x="1636" 
d="M143 0v1065h197v-410h213q33 211 163 326t335 115q235 0 369 -150.5t134 -413.5q0 -261 -135.5 -412t-369.5 -151q-222 0 -356.5 138t-147.5 380h-205v-487h-197zM1050 936q-140 0 -220 -108t-80 -297q0 -179 70 -279q86 -123 233 -123q141 0 218.5 106t77.5 298
q0 201 -85 303q-83 100 -214 100z" />
    <glyph glyph-name="afii10097" unicode="&#x44f;" horiz-adv-x="1098" 
d="M20 0l319 407q-111 35 -173 117.5t-62 195.5q0 156 112 250.5t297 94.5h441v-1065h-197v393h-195l-311 -393h-231zM757 559v356h-221q-109 0 -168 -49t-59 -140q0 -76 47 -121.5t125 -45.5h276z" />
    <glyph glyph-name="uni0450" unicode="&#x450;" horiz-adv-x="1186" 
d="M1081 307q-46 -160 -171.5 -249t-305.5 -89q-245 0 -383.5 149.5t-138.5 413.5q0 262 137.5 413t375.5 151q494 0 499 -607h-811q14 -171 87 -252q91 -102 240 -102q95 0 163.5 46t94.5 126h213zM291 645h602q-12 144 -87 218.5t-207 74.5q-258 0 -308 -293zM731 1225
h-176l-287 280h254z" />
    <glyph glyph-name="afii10071" unicode="&#x451;" horiz-adv-x="1186" 
d="M1081 307q-46 -160 -171.5 -249t-305.5 -89q-245 0 -383.5 149.5t-138.5 413.5q0 262 137.5 413t375.5 151q494 0 499 -607h-811q14 -171 87 -252q91 -102 240 -102q95 0 163.5 46t94.5 126h213zM291 645h602q-12 144 -87 218.5t-207 74.5q-258 0 -308 -293zM254 1270
v205h213v-205h-213zM717 1270v205h213v-205h-213z" />
    <glyph glyph-name="afii10099" unicode="&#x452;" horiz-adv-x="1206" 
d="M386 1194v-250q122 152 312 152q178 0 276.5 -105.5t98.5 -296.5v-800q0 -137 -76 -215t-209 -78q-78 0 -155 24v162q77 -18 122 -18q68 0 94.5 29.5t26.5 105.5v788q0 236 -225 236q-115 0 -190 -77t-75 -196v-655h-197v1194h-158v168h158v113h197v-113h228v-168h-228z
" />
    <glyph glyph-name="afii10100" unicode="&#x453;" horiz-adv-x="809" 
d="M143 0v1065h635v-168h-438v-897h-197zM501 1505h254l-286 -280h-176z" />
    <glyph glyph-name="afii10101" unicode="&#x454;" horiz-adv-x="1135" 
d="M1053 342q-25 -168 -153 -270.5t-314 -102.5q-230 0 -367 151.5t-137 405.5q0 262 136 416t367 154q188 0 308.5 -91t151.5 -255h-218q-45 180 -239 180q-247 0 -291 -305h346v-156h-350q13 -160 90 -247t206 -87q211 0 249 207h215z" />
    <glyph glyph-name="afii10102" unicode="&#x455;" horiz-adv-x="1047" 
d="M956 784h-201q-38 156 -240 156q-99 0 -154.5 -34t-55.5 -96q0 -65 50.5 -98t197.5 -65q225 -49 318 -126.5t93 -215.5q0 -154 -120 -245t-323 -91q-201 0 -320.5 87.5t-139.5 248.5h201q18 -94 79.5 -137t180.5 -43q113 0 178 44t65 121q0 76 -55.5 112.5t-236.5 78.5
q-205 48 -286 117t-81 194q0 144 108.5 224t302.5 80q184 0 296 -79.5t143 -232.5z" />
    <glyph glyph-name="afii10103" unicode="&#x456;" horiz-adv-x="483" 
d="M131 1244v231h221v-231h-221zM143 0v1065h197v-1065h-197z" />
    <glyph glyph-name="afii10104" unicode="&#x457;" horiz-adv-x="483" 
d="M144 0v1065h197v-1065h-197zM-94 1270v205h213v-205h-213zM369 1270v205h213v-205h-213z" />
    <glyph glyph-name="afii10105" unicode="&#x458;" horiz-adv-x="483" 
d="M-101 -213q6 -1 21 -5q62 -13 102 -13q68 0 94.5 29.5t26.5 105.5v1161h197v-1171q0 -137 -76 -215t-210 -78q-72 0 -155 24v162zM132 1244v231h221v-231h-221z" />
    <glyph glyph-name="afii10106" unicode="&#x459;" horiz-adv-x="1708" 
d="M979 1065v-322h199q204 0 326 -100t122 -269q0 -171 -127.5 -272.5t-341.5 -101.5h-375v897h-381l-49 -549q-16 -179 -95.5 -262.5t-236.5 -85.5v176q72 -1 103 33t38 123l64 733h754zM979 592v-441h166q133 0 204.5 57.5t71.5 164.5q0 219 -266 219h-176z" />
    <glyph glyph-name="afii10107" unicode="&#x45a;" horiz-adv-x="1716" 
d="M143 0v1065h197v-410h450v410h197v-322h199q204 0 326 -100t122 -269q0 -171 -127 -272.5t-342 -101.5h-375v487h-450v-487h-197zM987 591v-440h166q133 0 204.5 57.5t71.5 164.5q0 218 -266 218h-176z" />
    <glyph glyph-name="afii10108" unicode="&#x45b;" horiz-adv-x="1206" 
d="M189 0v1194h-158v168h158v113h197v-113h228v-168h-228v-250q122 152 312 152q178 0 276.5 -105.5t98.5 -296.5v-694h-197v692q0 236 -225 236q-115 0 -190 -77t-75 -196v-655h-197z" />
    <glyph glyph-name="afii10109" unicode="&#x45c;" horiz-adv-x="1065" 
d="M592 1505h253l-286 -280h-176zM143 0v1065h197v-428h86l354 428h236l-436 -502l495 -563h-256l-411 471h-68v-471h-197z" />
    <glyph glyph-name="uni045D" unicode="&#x45d;" horiz-adv-x="1161" 
d="M143 0v1065h193v-733l488 672v61h193v-1065h-193v733l-488 -672v-61h-193zM708 1225h-176l-287 280h254z" />
    <glyph glyph-name="afii10110" unicode="&#x45e;" horiz-adv-x="1053" 
d="M186 -381v160q58 -14 101 -14q63 0 100 46.5t88 188.5h-64l-391 1065h213l301 -905l301 905h197l-371 -1079q-76 -222 -150 -303.5t-199 -81.5q-42 0 -126 18zM229 1432h172q10 -99 125 -99q114 0 125 99h172q-33 -230 -299 -230q-263 0 -295 230z" />
    <glyph glyph-name="afii10193" unicode="&#x45f;" horiz-adv-x="1171" 
d="M1028 1065v-1065h-351v-287h-182v287h-352v1065h197v-897h491v897h197z" />
    <glyph glyph-name="uni0462" unicode="&#x462;" horiz-adv-x="1587" 
d="M448 1289h-428v186h1071v-186h-434v-341h270q283 0 430.5 -122t147.5 -356q0 -231 -149 -350.5t-437 -119.5h-471v1289zM657 778v-608h266q187 0 276 73t89 225q0 150 -92 230t-265 80h-274z" />
    <glyph glyph-name="uni0463" unicode="&#x463;" horiz-adv-x="1069" 
d="M341 1024v-281h198q205 0 327 -100t122 -269q0 -171 -127.5 -272.5t-341.5 -101.5h-375v1024h-154v168h154v170h197v-170h229v-168h-229zM341 592v-441h166q133 0 204.5 57.5t71.5 164.5q0 219 -266 219h-176z" />
    <glyph glyph-name="uni0472" unicode="&#x472;" horiz-adv-x="1585" 
d="M795 1506q320 0 509 -208t189 -560q0 -358 -201 -568q-191 -201 -502 -201q-319 0 -508.5 209t-189.5 560q0 360 206 570q193 198 497 198zM1278 664h-971q19 -250 145.5 -387.5t338.5 -137.5t338.5 136t148.5 389zM309 836h965q-26 240 -151.5 370t-331.5 130
q-205 0 -331 -130.5t-151 -369.5z" />
    <glyph glyph-name="uni0473" unicode="&#x473;" horiz-adv-x="1214" 
d="M608 1096q245 0 385 -150.5t140 -413.5q0 -260 -141.5 -411.5t-384.5 -151.5q-242 0 -383.5 152.5t-141.5 412.5q0 259 142 410.5t384 151.5zM924 458h-633q17 -151 89 -230q91 -99 231 -99q135 0 214.5 83.5t98.5 245.5zM291 614h631q-20 150 -89 226q-87 96 -224 96
q-132 0 -213.5 -82.5t-104.5 -239.5z" />
    <glyph glyph-name="uni0474" unicode="&#x474;" horiz-adv-x="1325" 
d="M1325 1475l-528 -1475h-260l-537 1475h221l447 -1278l452 1278h205z" />
    <glyph glyph-name="uni0475" unicode="&#x475;" horiz-adv-x="1053" 
d="M1032 1065l-375 -1065h-266l-371 1065h215l295 -905l297 905h205z" />
    <glyph glyph-name="afii10050" unicode="&#x490;" horiz-adv-x="1016" 
d="M996 1761v-462h-633v-1299h-209v1475h647v286h195z" />
    <glyph glyph-name="afii10098" unicode="&#x491;" horiz-adv-x="809" 
d="M143 0v1065h453v256h182v-424h-438v-897h-197z" />
    <glyph glyph-name="uni0492" unicode="&#x492;" horiz-adv-x="1016" 
d="M995 1299h-633v-463h385v-172h-385v-664h-209v664h-184v172h184v639h842v-176z" />
    <glyph glyph-name="uni0493" unicode="&#x493;" horiz-adv-x="809" 
d="M340 897v-242h285v-168h-285v-487h-197v487h-102v168h102v410h635v-168h-438z" />
    <glyph glyph-name="uni0496" unicode="&#x496;" horiz-adv-x="1829" 
d="M289 1475l307 -625h219v625h199v-625h217l309 625h215l-369 -707l332 -592h152v-463h-195v287h-96l-352 672h-213v-672h-199v672h-213l-352 -672h-240l432 768l-369 707h216z" />
    <glyph glyph-name="uni0497" unicode="&#x497;" horiz-adv-x="1524" 
d="M269 1065l258 -428h125v428h188v-428h143l260 428h217l-309 -498l260 -399h163v-455h-182v287h-104l-299 471h-149v-471h-188v471h-130l-299 -471h-233l371 567l-310 498h218z" />
    <glyph glyph-name="uni0498" unicode="&#x498;" horiz-adv-x="1262" 
d="M348 -303h154q7 -37 37.5 -59.5t74.5 -22.5q111 0 111 96q0 54 -44.5 77.5t-147.5 24.5l14 160q-418 39 -475 381h215q29 -116 108 -168.5t225 -52.5q160 0 249.5 72t89.5 201q0 122 -85.5 201t-217.5 79h-129v170h125q106 0 182 73.5t76 177.5q0 109 -81 172t-222 63
q-277 0 -318 -205h-213q31 175 174 272t369 97q227 0 364.5 -105t137.5 -279q0 -118 -68 -207.5t-190 -132.5q146 -32 226.5 -132t80.5 -248q0 -180 -130 -296.5t-350 -134.5v-57q187 -44 187 -200q0 -100 -72.5 -162t-190.5 -62q-108 0 -177.5 54t-88.5 153z" />
    <glyph glyph-name="uni0499" unicode="&#x499;" horiz-adv-x="1090" 
d="M307 -303h154q7 -37 37.5 -59.5t74.5 -22.5q111 0 111 96q0 54 -44.5 78t-147.5 25l14 157q-371 38 -424 371h215q38 -209 270 -209q120 0 185 43t65 123q0 76 -67 121t-183 45h-120v170h116q219 0 219 148q0 73 -58.5 114t-161.5 41q-209 0 -257 -188h-217
q31 167 153.5 256.5t319.5 89.5q203 0 313 -86q109 -85 109 -215q0 -85 -53.5 -146t-153.5 -90q114 -25 178 -95.5t64 -168.5q0 -134 -95.5 -217t-273.5 -105v-59q187 -44 187 -200q0 -100 -72.5 -162t-190.5 -62q-109 0 -178 54t-88 153z" />
    <glyph glyph-name="uni049A" unicode="&#x49a;" horiz-adv-x="1294" 
d="M1210 1475l-467 -705l410 -594h131v-463h-195v287h-61l-448 674h-217v-674h-209v1475h209v-627h227l399 627h221z" />
    <glyph glyph-name="uni049B" unicode="&#x49b;" horiz-adv-x="1077" 
d="M1016 1065l-436 -502l344 -395h182v-455h-182v287h-104l-412 471h-68v-471h-197v1065h197v-428h86l355 428h235z" />
    <glyph glyph-name="uni049C" unicode="&#x49c;" horiz-adv-x="1335" 
d="M1070 0l-448 674h-31v-484h-154v484h-74v-674h-209v1475h209v-627h74v363h154v-363h27l401 627h219l-454 -699l532 -776h-246z" />
    <glyph glyph-name="uni049D" unicode="&#x49d;" horiz-adv-x="1151" 
d="M143 0v1065h197v-428h32v184h141v-172l346 416h242l-430 -502l489 -563h-262l-385 436v-327h-141v362h-32v-471h-197z" />
    <glyph glyph-name="uni04A0" unicode="&#x4a0;" horiz-adv-x="1622" 
d="M1356 0l-449 674h-217v-674h-209v1299h-479v176h688v-627h227l400 627h221l-467 -705l530 -770h-245z" />
    <glyph glyph-name="uni04A1" unicode="&#x4a1;" horiz-adv-x="1268" 
d="M346 0v897h-326v168h523v-428h86l354 428h235l-436 -502l496 -563h-256l-412 471h-67v-471h-197z" />
    <glyph glyph-name="uni04A2" unicode="&#x4a2;" horiz-adv-x="1448" 
d="M1295 1475v-1299h133v-463h-195v287h-149v658h-721v-658h-209v1475h209v-641h721v641h211z" />
    <glyph glyph-name="uni04A3" unicode="&#x4a3;" horiz-adv-x="1171" 
d="M143 0v1065h197v-410h491v410h197v-897h102v-455h-182v287h-117v487h-491v-487h-197z" />
    <glyph glyph-name="uni04AA" unicode="&#x4aa;" horiz-adv-x="1493" 
d="M774 -31q-326 3 -504 204t-178 565t195 570q186 198 496 198q254 0 429 -141.5t197 -363.5h-211q-25 158 -133 244.5t-280 86.5q-228 0 -354 -156t-126 -439q0 -276 125 -434t343 -158q176 0 296.5 105.5t130.5 269.5h211q-28 -334 -359 -495q-129 -63 -204.5 -140
t-75.5 -146q0 -114 117 -114q85 0 102 70h160q-60 -201 -272 -201q-119 0 -192 59.5t-73 156.5q0 145 160 259z" />
    <glyph glyph-name="uni04AB" unicode="&#x4ab;" horiz-adv-x="1135" 
d="M551 -29q-220 16 -344.5 163t-124.5 391q0 263 135.5 417t367.5 154q188 0 308.5 -91t151.5 -255h-218q-45 180 -239 180q-142 0 -219.5 -106.5t-77.5 -301.5q0 -181 80 -284t220 -103q209 0 247 207h215q-20 -119 -83 -199t-182 -138q-105 -51 -173 -126t-68 -140
q0 -114 117 -114q85 0 102 70h160q-60 -201 -272 -201q-119 0 -192 59.5t-73 157.5q0 147 162 260z" />
    <glyph glyph-name="uni04AE" unicode="&#x4ae;" horiz-adv-x="1288" 
d="M541 0v586l-541 889h229l416 -709l430 709h213l-540 -889v-586h-207z" />
    <glyph glyph-name="uni04AF" unicode="&#x4af;" horiz-adv-x="1053" 
d="M423 -369v369l-403 1065h213l293 -877l299 877h207l-412 -1065v-369h-197z" />
    <glyph glyph-name="uni04B0" unicode="&#x4b0;" horiz-adv-x="1288" 
d="M541 0v561h-277v172h187l-451 742h229l416 -709l430 709h213l-452 -742h186v-172h-274v-561h-207z" />
    <glyph glyph-name="uni04B1" unicode="&#x4b1;" horiz-adv-x="1053" 
d="M1032 1065l-348 -897h155v-168h-219v-369h-197v369h-209v168h146l-340 897h213l293 -877l299 877h207z" />
    <glyph glyph-name="uni04B2" unicode="&#x4b2;" horiz-adv-x="1335" 
d="M783 768l408 -592h148v-463h-195v287h-80l-395 596l-414 -596h-235l532 762l-496 713h246l375 -549l383 549h238z" />
    <glyph glyph-name="uni04B3" unicode="&#x4b3;" horiz-adv-x="1083" 
d="M645 567l293 -399h182v-455h-182v287h-115l-289 412l-283 -412h-231l397 553l-372 512h235l254 -358l242 358h225z" />
    <glyph glyph-name="uni04B6" unicode="&#x4b6;" horiz-adv-x="1341" 
d="M1188 1475v-1299h133v-463h-195v287h-147v627q-129 -164 -371 -164q-233 0 -359 132.5t-126 377.5v502h209v-508q0 -330 324 -330q143 0 233 88.5t90 229.5v520h209z" />
    <glyph glyph-name="uni04B7" unicode="&#x4b7;" horiz-adv-x="1153" 
d="M330 1065v-412q0 -229 221 -229q118 0 190 76.5t72 201.5v363h197v-897h102v-455h-182v287h-117v393q-115 -137 -307 -137q-177 0 -275 105.5t-98 295.5v408h197z" />
    <glyph glyph-name="uni04B8" unicode="&#x4b8;" horiz-adv-x="1341" 
d="M1188 1475v-1475h-209v627q-88 -111 -227 -148v-289h-154v273q-232 7 -353.5 137.5t-121.5 372.5v502h209v-508q0 -152 63.5 -230.5t202.5 -97.5v572h154v-564q105 31 166 115t61 197v516h209z" />
    <glyph glyph-name="uni04B9" unicode="&#x4b9;" horiz-adv-x="1153" 
d="M645 821v-383q81 29 124.5 98t43.5 166v363h197v-1065h-197v393q-71 -80 -168 -117v-167h-141v147q-180 3 -275.5 106t-95.5 295v408h197v-412q0 -198 174 -227v395h141z" />
    <glyph glyph-name="uni04BA" unicode="&#x4ba;" horiz-adv-x="1321" 
d="M154 0v1475h209v-613q149 150 369 150q227 0 357 -136t130 -374v-502h-209v508q0 330 -303 330q-152 0 -248 -84.5t-96 -218.5v-535h-209z" />
    <glyph glyph-name="uni04BB" unicode="&#x4bb;" horiz-adv-x="1161" 
d="M143 0v1475h197v-674q124 152 313 152q178 0 276.5 -105.5t98.5 -296.5v-551h-197v549q0 236 -227 236q-118 0 -191 -77t-73 -202v-506h-197z" />
    <glyph glyph-name="uni04C0" unicode="&#x4c0;" horiz-adv-x="516" 
d="M363 1475v-1475h-209v1475h209z" />
    <glyph glyph-name="uni04CB" unicode="&#x4cb;" horiz-adv-x="1341" 
d="M1188 1475v-1475h-147v-287h-195v463h133v451q-129 -164 -371 -164q-233 0 -359 132.5t-126 377.5v502h209v-508q0 -330 324 -330q143 0 233 88.5t90 229.5v520h209z" />
    <glyph glyph-name="uni04CC" unicode="&#x4cc;" horiz-adv-x="1153" 
d="M1010 0h-117v-287h-182v455h102v225q-115 -137 -307 -137q-177 0 -275 105.5t-98 295.5v408h197v-412q0 -229 221 -229q118 0 190 76.5t72 201.5v363h197v-1065z" />
    <glyph glyph-name="uni04CF" unicode="&#x4cf;" horiz-adv-x="483" 
d="M340 0h-197v1475h197v-1475z" />
    <glyph glyph-name="uni04D8" unicode="&#x4d8;" horiz-adv-x="1493" 
d="M307 1063h-211q45 201 215 322t408 121q317 0 499 -203t182 -558t-183.5 -565.5t-493.5 -210.5q-325 0 -493 198.5t-171 586.5h1128q-6 281 -126 429.5t-341 148.5q-309 0 -413 -269zM1175 582h-893q10 -200 129.5 -318.5t311.5 -118.5q184 0 299 111t153 326z" />
    <glyph glyph-name="afii10846" unicode="&#x4d9;" horiz-adv-x="1186" 
d="M94 758q45 157 176.5 247.5t313.5 90.5q242 0 376 -148t134 -415q0 -264 -133.5 -414t-368.5 -150q-248 0 -378 154.5t-132 452.5h809q-25 354 -313 354q-96 0 -170.5 -47t-100.5 -125h-213zM885 420h-604q14 -143 92 -218t213 -75q251 0 299 293z" />
    <glyph glyph-name="uni04E2" unicode="&#x4e2;" horiz-adv-x="1473" 
d="M154 0v1475h205v-1119l751 1039v80h209v-1475h-209v1118l-751 -1036v-82h-205zM469 1644v168h553v-168h-553z" />
    <glyph glyph-name="uni04E3" unicode="&#x4e3;" horiz-adv-x="1161" 
d="M143 0v1065h193v-733l488 672v61h193v-1065h-193v733l-488 -672v-61h-193zM307 1296v168h553v-168h-553z" />
    <glyph glyph-name="uni04E8" unicode="&#x4e8;" horiz-adv-x="1585" 
d="M795 1506q320 0 509 -208t189 -560q0 -358 -201 -568q-191 -201 -502 -201q-319 0 -508.5 209t-189.5 560q0 360 206 570q193 198 497 198zM1278 664h-971q19 -250 145.5 -387.5t338.5 -137.5t338.5 136t148.5 389zM309 836h965q-26 240 -151.5 370t-331.5 130
q-205 0 -331 -130.5t-151 -369.5z" />
    <glyph glyph-name="uni04E9" unicode="&#x4e9;" horiz-adv-x="1214" 
d="M608 1096q245 0 385 -150.5t140 -413.5q0 -260 -141.5 -411.5t-384.5 -151.5q-242 0 -383.5 152.5t-141.5 412.5q0 259 142 410.5t384 151.5zM924 458h-633q17 -151 89 -230q91 -99 231 -99q135 0 214.5 83.5t98.5 245.5zM291 614h631q-20 150 -89 226q-87 96 -224 96
q-132 0 -213.5 -82.5t-104.5 -239.5z" />
    <glyph glyph-name="uni04EE" unicode="&#x4ee;" horiz-adv-x="1212" 
d="M258 -12v168q7 -2 10 -3q52 -12 92 -12q77 0 117 41.5t78 159.5h-70l-485 1133h219l402 -981l389 981h202l-471 -1192q-65 -166 -149 -240t-208 -74q-44 0 -126 19zM346 1644v168h553v-168h-553z" />
    <glyph glyph-name="uni04EF" unicode="&#x4ef;" horiz-adv-x="1053" 
d="M186 -381v160q58 -14 101 -14q63 0 100 46.5t88 188.5h-64l-391 1065h213l301 -905l301 905h197l-371 -1079q-76 -222 -150 -303.5t-199 -81.5q-42 0 -126 18zM249 1296v168h553v-168h-553z" />
    <glyph glyph-name="uni0E00" unicode="&#xe00;" horiz-adv-x="914" 
 />
    <glyph glyph-name="uni0E01" unicode="&#xe01;" horiz-adv-x="1195" 
d="M404 0h-197v467q-5 208 142 276q-141 14 -295 15q50 121 90 180.5t102 104.5q142 104 350 104q132 0 247.5 -46.5t175.5 -123.5q53 -69 53 -179v-798h-197v791q0 77 -30 112q-77 93 -266 93q-93 0 -155 -29.5t-131 -107.5q220 -10 340 -55l-68 -102q-32 13 -53 13
q-44 0 -76 -58t-32 -138v-519z" />
    <glyph glyph-name="uni0E02" unicode="&#xe02;" horiz-adv-x="1193" 
d="M1070 1117v-827q2 -309 -369 -290h-455v137h224v281q-9 281 147 415q-22 66 -83 118t-116 52q-33 0 -69 -19h-1q66 -23 103.5 -70.5t37.5 -109.5q0 -86 -63.5 -147.5t-151.5 -61.5q-92 0 -155.5 58.5t-63.5 142.5q0 131 104.5 230.5t242.5 99.5q158 0 268 -100
q43 -39 64.5 -76t48.5 -119q-82 -81 -99 -139.5t-17 -266.5v-288h34q98 0 135 33t37 120v827h197zM276 870q-34 0 -57 -22t-23 -54t23.5 -54t57.5 -22t57 22t23 54q0 33 -23 54.5t-58 21.5z" />
    <glyph glyph-name="uni0E03" unicode="&#xe03;" horiz-adv-x="1195" 
d="M1072 1117v-817q0 -92 -16.5 -137.5t-64.5 -89.5q-47 -43 -95.5 -58t-140.5 -15h-518v137h255v354q0 178 45 281q37 85 99 132q-20 51 -50 78q-48 -24 -90 -58l-11 -9q-58 48 -118 85q-33 -13 -74 -58q71 -8 117 -58t46 -119q0 -79 -57.5 -132.5t-142.5 -53.5
q-91 0 -148 57.5t-57 149.5q0 122 95.5 220.5t242.5 128.5l14 -9l9 -6q47 -28 72 -44q53 32 88 49l24 13q83 -45 122 -90t81 -144l-14 -14q-105 -90 -96 -287v-466h66q67 0 93.5 34.5t26.5 122.5v823h197zM258 835q-31 0 -53 -21t-22 -50q0 -30 22.5 -51t53.5 -21t53 21
t22 50q0 31 -21.5 51.5t-54.5 20.5z" />
    <glyph glyph-name="uni0E04" unicode="&#xe04;" horiz-adv-x="1154" 
d="M347 0h-196v317l-54 311q-14 81 -14 123q0 146 114 256q134 129 349 129q133 0 254 -47.5t184 -125.5q29 -35 38.5 -71.5t9.5 -114.5v-777h-197v760q0 105 -42 147q-85 84 -239 84q-136 0 -228 -78q-63 -54 -63 -148q0 -28 14 -96l7 -38q91 242 274 242q92 0 155 -57
t63 -140q0 -84 -64 -141.5t-157 -57.5q-87 0 -150 59q-64 -194 -58 -536zM555 750q-32 0 -55.5 -22.5t-23.5 -54.5q0 -31 23.5 -53.5t56.5 -22.5q34 0 57.5 22.5t23.5 54.5t-24 54t-58 22z" />
    <glyph glyph-name="uni0E05" unicode="&#xe05;" horiz-adv-x="1154" 
d="M366 0h-202v154q0 48 -21 186l-47 296q-14 90 -14 124q0 93 51.5 177t137.5 131q104 57 205 62l95 -92l103 96q371 -93 357 -337v-797h-197v776q6 161 -121 207l-142 -128l-147 134q-76 -20 -121 -75.5t-45 -130.5q0 -35 12 -99l22 -119q42 113 113.5 173.5t162.5 60.5
q93 0 155.5 -56.5t62.5 -140.5q0 -85 -63 -141.5t-156 -56.5q-87 0 -148 52q-53 -149 -53 -322v-134zM570 676q-33 0 -56.5 -22.5t-23.5 -54.5q0 -31 24 -53.5t57 -22.5q32 0 56.5 23.5t24.5 53.5q0 31 -24 53.5t-58 22.5z" />
    <glyph glyph-name="uni0E06" unicode="&#xe06;" horiz-adv-x="1255" 
d="M1132 1117v-1117h-190l-15 14q-187 169 -320 245q1 -28 1 -40q0 -97 -58 -158t-149 -61q-86 0 -146.5 59.5t-60.5 144.5q0 89 63.5 150t160.5 66q-3 44 -3 73q0 249 141 378q-16 65 -62 105l-86 -68l-107 87q-27 -19 -58 -60q73 0 123.5 -49t50.5 -119
q0 -71 -54.5 -118.5t-135.5 -47.5q-82 0 -133 51t-51 133q0 115 74 210.5t211 156.5l79 -66l73 66q201 -90 234 -289q-68 -107 -87.5 -170t-19.5 -174v-118q167 -59 328 -210v926h197zM231 840q-30 0 -51.5 -20.5t-21.5 -49.5t21.5 -49.5t52.5 -20.5q30 0 52 21t22 49
q0 29 -22 49.5t-53 20.5zM397 288q-30 0 -52.5 -24.5t-22.5 -57.5t22.5 -57t52.5 -24q32 0 54 24t22 58t-22 57.5t-54 23.5z" />
    <glyph glyph-name="uni0E07" unicode="&#xe07;" horiz-adv-x="1019" 
d="M58 729l36 176q128 -45 195 -187l314 -602q103 13 96 139v445q-30 -3 -49 -3q-83 0 -148.5 63t-65.5 142q0 87 69 149.5t164 62.5q103 0 165 -66t62 -175v-599q0 -148 -68 -211t-227 -63h-129l-314 622q-31 61 -100 107zM661 987q-35 0 -60 -23.5t-25 -57.5q0 -33 25 -57
t60 -24q36 0 61.5 24t25.5 58t-25 57t-62 23z" />
    <glyph glyph-name="uni0E08" unicode="&#xe08;" horiz-adv-x="1168" 
d="M1045 0h-194q-106 261 -234 450q-70 -93 -184 -93q-98 0 -163.5 60t-65.5 149q0 88 65 148t160 60q105 0 197 -90q95 -93 222 -328v439q0 65 -24 98q-32 46 -106.5 79t-145.5 33q-162 0 -305 -118q-56 -47 -215 -205v201q111 119 168 160q146 108 331 108q262 0 414 -148
q48 -47 64 -93t16 -139v-771zM427 645q-35 0 -60.5 -24t-25.5 -57t25.5 -57t61.5 -24q35 0 60 24t25 57q0 34 -25 57.5t-61 23.5z" />
    <glyph glyph-name="uni0E09" unicode="&#xe09;" horiz-adv-x="1180" 
d="M474 0h-169v347q-77 0 -132 37q-89 59 -89 159q0 83 65.5 140.5t160.5 57.5q86 0 148 -50q77 -61 77 -148q0 -27 -29 -126q-5 -18 -5 -110v-69q69 54 112.5 75t142.5 48q62 17 83 45.5t21 96.5v270q0 64 -8 89t-36 52q-74 71 -242 71q-134 0 -236 -55.5t-298 -234.5
l-2 198q111 108 180 150q151 90 356 90q133 0 245 -37.5t175 -102.5q40 -42 51.5 -75.5t11.5 -113.5v-292q0 -72 -16.5 -102.5t-72.5 -62.5h-1q135 -54 135 -165q0 -75 -65 -128.5t-155 -53.5q-94 0 -158.5 50.5t-69.5 128.5q-129 -73 -180 -179zM307 618q-34 0 -58.5 -22.5
t-24.5 -53.5t24.5 -53.5t59.5 -22.5t60.5 22.5t25.5 52.5q0 33 -25.5 55t-61.5 22zM877 255q-33 0 -57 -20t-24 -49t23.5 -49t58.5 -20t59 20t24 49t-24.5 49t-59.5 20z" />
    <glyph glyph-name="uni0E0A" unicode="&#xe0a;" horiz-adv-x="1203" 
d="M238 0v137h240v258q-8 338 153 433q-24 73 -81.5 121.5t-121.5 48.5q-29 0 -76 -19q145 -57 145 -181q0 -80 -63.5 -135.5t-154.5 -55.5q-95 0 -155.5 58.5t-60.5 150.5q0 133 100 218q112 95 278 95q90 0 150.5 -24.5t116.5 -84.5l41 98q72 -18 96 -18q95 0 180 71
q40 32 61 92h196q-70 -184 -313 -250q116 -73 111 -224v-482q0 -113 -25 -167q-37 -79 -113 -109.5t-238 -30.5h-466zM284 890q-38 0 -65.5 -26t-27.5 -62t28 -62t66 -26t66.5 26.5t28.5 61.5q0 36 -28 62t-68 26zM709 1018q57 -66 81 -178q-5 -6 -8 -8q-117 -120 -107 -337
v-358h29q104 0 141.5 35.5t37.5 134.5v482q0 82 -13.5 119.5t-55.5 68.5q-34 25 -105 41z" />
    <glyph glyph-name="uni0E0B" unicode="&#xe0b;" horiz-adv-x="1188" 
d="M247 0v137h241v332q0 173 30.5 265t111.5 163q-22 55 -60 84q-44 -27 -103 -78l-10 10l-13 12q-52 52 -83 74q-48 -24 -95 -62q184 -9 184 -166q0 -79 -56.5 -131t-142.5 -52q-89 0 -147.5 54t-58.5 136q0 118 88 212.5t244 144.5q60 -29 100 -62q45 28 86 52l9 5l15 9
q106 -79 145 -121l73 74h53q66 6 100 23.5t67 64.5q22 31 35 82h202q-67 -202 -317 -253q121 -64 121 -199v-524q0 -78 -20 -125.5t-72 -91.5q-49 -41 -100 -55t-151 -14h-476zM254 840q-32 0 -54 -21.5t-22 -51.5q0 -29 22.5 -50.5t54.5 -21.5t54 21t22 52t-22 51.5
t-55 20.5zM763 976q18 -29 35 -78q-7 -5 -15 -14q-60 -59 -79 -115t-19 -177v-455h48q71 0 103.5 32.5t32.5 102.5v538q0 68 -22 102.5t-84 63.5z" />
    <glyph glyph-name="uni0E0C" unicode="&#xe0c;" horiz-adv-x="1528" 
d="M1405 1117v-1117h-193q-81 116 -176 192q-22 -192 -179 -192q-82 0 -138.5 58.5t-56.5 144.5q0 82 47.5 138.5t127.5 70.5q-24 76 -24 185v183q0 113 -39 152q-30 29 -89.5 48.5t-120.5 19.5q-84 0 -147 -27t-133 -93q211 -37 322 -76l15 -5l-69 -85q-95 -6 -124 -45
q-44 -56 -44 -156v-102h16q91 0 148 -57.5t57 -148.5q0 -89 -58.5 -147t-148.5 -58q-95 0 -152 60.5t-57 161.5v205q0 132 33 201t118 114q-139 15 -250 15h-32h-14q30 112 67.5 174.5t108.5 114.5q136 100 329 100q211 0 336 -82t125 -221v-343q0 -78 6 -132
q120 -75 192 -154v903h197zM854 286q-29 0 -49 -23.5t-20 -56.5t20 -56.5t49 -23.5q28 0 50 24t22 55q0 33 -21.5 57t-50.5 24zM396 281q-29 0 -48.5 -23t-19.5 -57q0 -33 20 -56.5t49 -23.5t50 24t21 56q0 34 -21 57t-51 23z" />
    <glyph glyph-name="uni0E0D" unicode="&#xe0d;" horiz-adv-x="1526" 
d="M1403 1117v-838q3 -128 -73 -203q-90 -79 -260 -76h-319v806q0 85 -42 123q-76 68 -222 68q-88 0 -148 -27.5t-119 -95.5q48 3 73 3q170 0 308 -67l-66 -75q-164 -24 -157 -240v-81q22 3 39 3q88 0 149 -57q72 -66 72 -154q0 -87 -65.5 -147.5t-159.5 -60.5
q-110 0 -170.5 67.5t-60.5 190.5v218q0 211 138 274q-85 18 -162 18q-34 0 -110 -3l-17 -1q12 93 31.5 134.5t74.5 94.5q147 142 374 142q108 0 214 -38t168 -98q55 -53 55 -156v-706h82q183 -9 176 144v838h197zM409 288q-35 0 -60 -24.5t-25 -56.5q0 -33 25.5 -57.5
t59.5 -24.5q36 0 61.5 24t25.5 58t-25.5 57.5t-61.5 23.5zM1420 -112q-47 -177 -119 -246q-99 -95 -308 -95q-122 0 -192 47q-73 50 -73 134q0 68 50.5 112.5t128.5 44.5q75 0 121 -44q54 -51 54 -111q0 -27 -23 -70q84 18 133 91q39 59 49 137h179zM905 -221
q-22 0 -38 -15.5t-16 -36.5q0 -22 16 -37t39 -15t39.5 15t16.5 37q0 21 -17 36.5t-40 15.5z" />
    <glyph glyph-name="uni0E0E" unicode="&#xe0e;" horiz-adv-x="1286" 
d="M298 414v68q0 185 143 261q-141 14 -296 15q50 121 90 180.5t102 104.5q142 104 350 104q132 0 247.5 -46.5t175.5 -123.5q53 -69 53 -180v-1303h-189q-154 124 -256 178q-61 -94 -122 -134.5t-140 -40.5q-89 0 -148 47t-59 117q0 81 77.5 131.5t200.5 50.5q41 0 101 -9
q56 77 87 166l138 -79q-36 -76 -80 -138q71 -37 193 -118v1132q0 71 -30 106q-78 93 -266 93q-93 0 -155 -29.5t-131 -107.5q219 -10 340 -55l-68 -102q-32 13 -53 13q-44 0 -76 -58t-32 -138v-263q0 -119 -51 -179q-67 -79 -181 -79q-99 0 -163 64q-62 61 -62 144
q0 87 65 149t156 62q17 0 39 -3zM587 -274q-53 4 -72 4q-54 0 -90 -19.5t-36 -49.5q0 -44 60 -44q32 0 55 18t83 91zM265 288q-34 0 -59.5 -24t-25.5 -57q0 -34 25.5 -58t61.5 -24q35 0 60.5 24.5t25.5 57.5t-26 57t-62 24z" />
    <glyph glyph-name="uni0E0F" unicode="&#xe0f;" horiz-adv-x="1287" 
d="M967 -295v1092q0 71 -30 106q-78 93 -266 93q-93 0 -155 -29.5t-131 -107.5q219 -10 340 -55l-68 -102q-32 13 -53 13q-44 0 -76 -58t-32 -138v-263q0 -119 -51 -179q-67 -79 -181 -79q-99 0 -163 64q-62 61 -62 144q0 87 65 149t156 62q17 0 39 -3v68q0 185 143 261
q-141 14 -296 15q50 121 90 180.5t102 104.5q142 104 350 104q250 0 398 -141q78 -73 78 -178v-1329h-189q-18 42 -32 60q-15 19 -39.5 36.5t-35.5 17.5q-17 0 -35.5 -24.5t-18.5 -48.5q0 -11 8 -41h-148q-21 38 -81 92q-91 -91 -215 -91q-89 0 -143 47q-53 46 -53 109
q0 64 56.5 105.5t146.5 41.5q84 0 168 -36q83 69 177 219l95 -129q-53 -88 -152 -165q23 -20 42 -39q38 82 143 82q64 0 109 -30zM467 -334q-43 20 -74 20q-22 0 -41 -12.5t-19 -25.5q0 -28 47 -28q35 0 87 46zM266 288q-34 0 -59.5 -24t-25.5 -57q0 -34 25.5 -58t61.5 -24
q35 0 60.5 24.5t25.5 57.5t-26 57t-62 24z" />
    <glyph glyph-name="uni0E10" unicode="&#xe10;" horiz-adv-x="1166" 
d="M1043 -501h-193q-92 85 -120 85t-88 -85h-115q-24 55 -59 94q-74 -95 -198 -95q-76 0 -128 41.5t-52 101.5q0 66 61 109.5t155 43.5q55 0 111 -19q25 57 45 145l138 -48q-16 -79 -61 -168q40 -40 56 -62q62 68 128 68q70 0 136 -66v98q-22 -2 -32 -2q-74 0 -128.5 49.5
t-54.5 116.5q0 63 46.5 108.5t119.5 54.5q-96 173 -168 275q-67 -109 -198 -109q-93 0 -159 58q-73 64 -73 153q0 87 67 146t165 59q104 0 190 -77.5t212 -283.5v229q0 72 -14.5 107.5t-51.5 56.5q-40 22 -165.5 38.5t-256.5 16.5q-143 0 -291 -22l-20 -3q44 120 78 178.5
t93 116.5q137 135 328 135q156 0 298 -62q77 -33 87 -33q44 0 105 74l89 -22q-77 -138 -266 -211l-15 -6q-114 114 -274 114q-77 0 -139.5 -33.5t-135.5 -115.5q95 3 148 3q156 0 297 -25t207 -64q56 -34 76 -77t20 -131v-432l-86 -83q40 -21 56 -45q30 -47 30 -134v-361z
M441 524q-35 0 -58.5 -23.5t-23.5 -57.5t24 -57.5t59 -23.5q34 0 61 25t27 56q0 33 -26.5 57t-62.5 24zM833 -31q-29 0 -48.5 -18.5t-19.5 -45.5q0 -25 20 -43t49 -18q27 0 46.5 18.5t19.5 43.5q0 27 -19.5 45t-47.5 18zM352 -335q-22 5 -35 5q-80 0 -80 -32q0 -19 26 -19
q44 0 89 46z" />
    <glyph glyph-name="uni0E11" unicode="&#xe11;" horiz-adv-x="1237" 
d="M918 951l-374 -951h-177l2 422q1 168 35.5 263t122.5 174q-3 47 -11 68t-35 51l-87 -71l-98 84q-38 -24 -73 -54q71 -9 105 -36q66 -53 66 -133q0 -71 -51.5 -118t-128.5 -47q-84 0 -139 49t-55 123q0 76 33 150t87 120q53 45 178 90l71 -50l76 51q122 -49 171 -112
t51 -174q-48 -46 -82.5 -128.5t-34.5 -153.5v-97l257 641q52 9 80 9q208 0 208 -224v-897h-197v951zM208 831q-25 0 -43 -17.5t-18 -40.5q0 -24 18 -40.5t44 -16.5q25 0 43 17t18 40q0 24 -18.5 41t-43.5 17z" />
    <glyph glyph-name="uni0E12" unicode="&#xe12;" horiz-adv-x="1520" 
d="M1396 1117v-1117h-191l-28 44q-51 81 -174 191v-75q0 -57 -10 -80q-36 -83 -161 -83q-81 0 -140 45q-84 66 -84 166q0 83 55 140t142 64v389q0 81 -25 109q-35 41 -95 61l-123 -122l-143 133q-81 -12 -132 -77t-51 -155q0 -49 33.5 -190.5t76.5 -274.5l129 161
q-62 17 -98 63t-36 109q0 79 56 131t142 52q99 0 157 -64q47 -51 47 -118q0 -48 -25 -91l-95 -125l-298 -403h-147l1 129q-23 196 -79 415q-32 121 -32 200q0 170 111 276.5t294 113.5l87 -91l81 92q154 -18 254 -93q66 -49 86.5 -85t20.5 -104v-466q109 -55 197 -149v879
h197zM806 275q-44 -27 -44 -68q0 -45 42 -69q2 16 2 27v110zM539 685q-29 0 -50 -20t-21 -48t21.5 -49t51.5 -21q29 0 50.5 20.5t21.5 48.5q0 30 -21 49.5t-53 19.5z" />
    <glyph glyph-name="uni0E13" unicode="&#xe13;" horiz-adv-x="1503" 
d="M1182 1117h197v-602q0 -85 -33 -127q121 -61 121 -187q0 -86 -60 -145t-148 -59q-76 0 -133 45.5t-74 119.5l-135 -162h-177v753q0 138 -27 173q-54 72 -204 72q-180 0 -271 -114q191 -7 249.5 -17.5t120.5 -50.5l-59 -87q-30 10 -49 10q-28 0 -59 -24.5t-49 -62.5
q-26 -51 -26 -147v-92q26 3 39 3q88 0 154 -62t66 -146q0 -89 -66 -148.5t-163 -59.5q-119 0 -183 85q-43 57 -43 187v186q-10 223 128 302q-88 7 -154 7q-40 0 -121 -12q15 103 40 149.5t95 101.5q138 108 358 108q251 0 366 -121q55 -58 55 -165v-588q62 58 174 153
q42 35 56.5 60t14.5 62v602zM398 284q-36 0 -59.5 -22.5t-23.5 -55.5t24 -56t60 -23q35 0 60.5 23.5t25.5 55.5t-25.5 55t-61.5 23zM1257 283q-32 0 -53 -23.5t-21 -58.5q0 -33 21 -56t53 -23q31 0 54.5 24t23.5 56t-23.5 56.5t-54.5 24.5z" />
    <glyph glyph-name="uni0E14" unicode="&#xe14;" horiz-adv-x="1156" 
d="M1034 0h-197v775q0 98 -53 146q-78 71 -202 71q-130 0 -220 -76.5t-90 -186.5q0 -46 14 -117l36 -187q18 -89 32 -174l160 218q-78 15 -123.5 66.5t-45.5 125.5q0 84 62 140.5t154 56.5q93 0 155 -57q64 -60 64 -143q0 -59 -62 -143l-379 -515h-159v149q-10 106 -37 238
q-57 277 -57 367q0 72 33.5 144t89.5 123q131 117 362 117q255 0 403 -157q60 -63 60 -180v-801zM558 735q-32 0 -55.5 -22.5t-23.5 -54.5q0 -31 23.5 -53.5t56.5 -22.5t56.5 22.5t23.5 53.5q0 33 -23.5 55t-57.5 22z" />
    <glyph glyph-name="uni0E15" unicode="&#xe15;" horiz-adv-x="1153" 
d="M1030 0h-197v776q7 162 -125 202l-134 -126l-148 137q-82 -23 -127 -76t-45 -127q0 -60 16 -147l52 -282q19 -96 22 -140l162 190q-71 15 -115.5 68t-44.5 122q0 86 61 143t155 57q96 0 157 -59q62 -58 62 -136q0 -74 -88 -180l-352 -422h-180v103q-2 104 -10 164
t-43 244q-30 157 -30 263q0 151 65 224q52 59 129.5 91.5t211.5 51.5l96 -94l94 96q382 -96 356 -342v-801zM560 677q-32 0 -55 -23.5t-23 -55.5q0 -33 23 -55.5t56 -22.5t56.5 22.5t23.5 55.5t-23.5 56t-57.5 23z" />
    <glyph glyph-name="uni0E16" unicode="&#xe16;" horiz-adv-x="1194" 
d="M1071 0h-197v784q0 88 -34 127q-33 38 -106.5 63.5t-149.5 25.5q-96 0 -163 -29.5t-144 -105.5q241 -27 372 -72l-62 -84q-23 1 -33 1q-65 0 -110.5 -56t-45.5 -136v-105q28 3 42 3q87 0 151.5 -62.5t64.5 -146.5q0 -87 -64.5 -147t-158.5 -60q-125 0 -192 93
q-40 56 -40 165v175q0 122 24 174q36 77 132 127q-160 20 -219 20q-18 0 -80 -3q29 102 55 150.5t82 100.5q149 142 363 142q236 0 374.5 -96.5t138.5 -261.5v-786zM435 292q-36 0 -61 -23.5t-25 -57.5t25 -58t61 -24t61.5 23.5t25.5 57.5q0 35 -25 58.5t-62 23.5z" />
    <glyph glyph-name="uni0E17" unicode="&#xe17;" horiz-adv-x="1234" 
d="M291 708q-20 -3 -39 -3q-88 0 -149 57q-72 66 -72 154q0 87 65.5 147.5t159.5 60.5q110 0 171 -67.5t61 -190.5v-358l222 614q41 8 72 8q155 0 242.5 -79.5t87.5 -219.5v-831h-197v816q0 116 -98 153l-357 -969h-169v708zM260 997q-36 0 -61.5 -24t-25.5 -58t25.5 -57.5
t61.5 -23.5q35 0 60.5 24.5t25.5 56.5q0 33 -25.5 57.5t-60.5 24.5z" />
    <glyph glyph-name="uni0E18" unicode="&#xe18;" horiz-adv-x="1159" 
d="M446 656v-519h179q81 0 109 6.5t57 32.5q48 43 48 141v221q0 70 -13 96q-32 60 -125 76q-194 33 -434 33q-67 0 -230 -11q12 84 37 132q144 273 465 273q180 0 393 -88q17 -7 25 -7q40 0 95 74l91 -24q-74 -153 -272 -215q-131 123 -342 123q-78 0 -133 -31.5
t-119 -111.5q93 6 181 6q356 0 468 -75q62 -41 86 -92.5t24 -142.5v-255q0 -103 -20 -146q-85 -163 -352 -152h-589v137h174v519h197z" />
    <glyph glyph-name="uni0E19" unicode="&#xe19;" horiz-adv-x="1235" 
d="M290 708q-21 -3 -40 -3q-87 0 -148 57q-72 66 -72 154q0 87 65.5 147.5t159.5 60.5q110 0 171 -67.5t61 -190.5v-656l46 27q81 49 254 148q77 44 102.5 70t25.5 60v602h197v-602q0 -85 -32 -127q120 -61 120 -187q0 -86 -60 -145t-146 -59q-88 0 -150.5 59.5t-62.5 142.5
q0 10 1 28q-166 -103 -329 -227h-163v708zM991 283q-32 0 -53 -23.5t-21 -58.5q0 -33 21.5 -56t52.5 -23t54 24t23 56t-23 56.5t-54 24.5zM259 997q-36 0 -61.5 -24t-25.5 -58t25.5 -57.5t61.5 -23.5q35 0 60.5 24.5t25.5 56.5q0 33 -25.5 57.5t-60.5 24.5z" />
    <glyph glyph-name="uni0E1A" unicode="&#xe1a;" horiz-adv-x="1239" 
d="M492 137h203q124 0 174 48t50 167v765h197v-800q0 -164 -95 -244q-50 -43 -114.5 -58t-195.5 -15h-589v137h173v571q-20 -3 -39 -3q-88 0 -149 57q-72 66 -72 154q0 87 65.5 147.5t159.5 60.5q110 0 171 -67.5t61 -190.5v-729zM264 997q-36 0 -61.5 -24t-25.5 -58
t25.5 -57.5t61.5 -23.5q35 0 60.5 24.5t25.5 56.5q0 33 -25.5 57.5t-60.5 24.5z" />
    <glyph glyph-name="uni0E1B" unicode="&#xe1b;" horiz-adv-x="1239" 
d="M492 137h203q124 0 174 48t50 167v1133h197v-1168q0 -164 -95 -244q-50 -43 -114.5 -58t-195.5 -15h-589v137h173v571q-21 -3 -39 -3q-88 0 -149 57q-72 66 -72 154q0 87 65.5 147.5t159.5 60.5q110 0 171 -67.5t61 -189.5v-730zM264 997q-36 0 -61.5 -24t-25.5 -58
t25.5 -57.5t61.5 -23.5q35 0 60.5 24.5t25.5 56.5q0 33 -25.5 57.5t-60.5 24.5z" />
    <glyph glyph-name="uni0E1C" unicode="&#xe1c;" horiz-adv-x="1111" 
d="M988 1117v-1117h-182q-16 43 -70 140q-95 171 -173 294q-83 -140 -164 -263q-60 -91 -104 -171h-178v777q0 178 46 239q73 96 205 96q100 0 165 -60t65 -152q0 -90 -66 -148.5t-168 -58.5q-25 0 -50 6v-376l251 377l226 -347v764h197zM368 982q-36 0 -60 -23.5t-24 -58.5
t24 -58.5t61 -23.5q35 0 61.5 24.5t26.5 57.5t-26.5 57.5t-62.5 24.5z" />
    <glyph glyph-name="uni0E1D" unicode="&#xe1d;" horiz-adv-x="1111" 
d="M988 1488v-1488h-182q-16 42 -70 140q-94 172 -173 295q-83 -142 -164 -264q-61 -91 -104 -171h-178v777q0 178 46 239q73 96 205 96q100 0 165 -60t65 -152q0 -90 -66 -148.5t-168 -58.5q-25 0 -50 6v-376l251 378l226 -348v1135h197zM368 982q-36 0 -60 -23.5
t-24 -58.5t24 -58.5t61 -23.5q35 0 61.5 24.5t26.5 57.5t-26.5 57.5t-62.5 24.5z" />
    <glyph glyph-name="uni0E1E" unicode="&#xe1e;" horiz-adv-x="1288" 
d="M494 479l72 178q85 197 85 305v19l145 84l-1 -14q-3 -51 -3 -56q0 -114 83 -303l93 -209v634h197v-1117h-198q-25 66 -84 247l-154 421q-190 -476 -234 -668h-198v708q-20 -3 -39 -3q-88 0 -149 57q-72 66 -72 154q0 87 65.5 147.5t159.5 60.5q110 0 171 -67.5t61 -190.5
v-387zM266 997q-36 0 -61.5 -24t-25.5 -58t25.5 -57.5t61.5 -23.5q35 0 60.5 24.5t25.5 56.5q0 33 -25.5 57.5t-60.5 24.5z" />
    <glyph glyph-name="uni0E1F" unicode="&#xe1f;" horiz-adv-x="1288" 
d="M494 480l72 177q85 197 85 305v19l145 84l-1 -14q-3 -51 -3 -56q0 -114 83 -302l93 -210v1010h197v-1493h-198q-25 66 -84 247l-154 421q-190 -475 -234 -668h-198v708q-21 -3 -39 -3q-88 0 -149 57q-72 66 -72 154q0 87 65.5 147.5t159.5 60.5q110 0 171 -67.5
t61 -189.5v-387zM266 997q-36 0 -61.5 -24t-25.5 -58t25.5 -57.5t61.5 -23.5q35 0 60.5 24.5t25.5 56.5q0 33 -25.5 57.5t-60.5 24.5z" />
    <glyph glyph-name="uni0E20" unicode="&#xe20;" horiz-adv-x="1286" 
d="M967 0v797q0 71 -30 106q-78 93 -266 93q-93 0 -155 -29.5t-131 -107.5q219 -10 340 -55l-68 -102q-32 13 -53 13q-44 0 -76 -58t-32 -138v-263q0 -119 -51 -179q-67 -79 -181 -79q-99 0 -163 64q-62 61 -62 144q0 87 65 149t156 62q17 0 39 -3v68q0 185 143 261
q-141 14 -296 15q50 121 90 180.5t102 104.5q142 104 350 104q250 0 398 -141q78 -73 78 -178v-828h-197zM266 288q-34 0 -59.5 -24t-25.5 -57q0 -34 25.5 -58t61.5 -24q35 0 60.5 24.5t25.5 57.5t-26 57t-62 24z" />
    <glyph glyph-name="uni0E21" unicode="&#xe21;" horiz-adv-x="1237" 
d="M520 373q257 -101 397 -196v940h197v-1117h-189q-137 86 -180 110t-216 113l-9 5q-4 -65 -24 -110q-25 -54 -81.5 -87t-126.5 -33q-99 0 -163 64q-62 61 -62 144q0 87 65 149t156 62q18 0 39 -3v294q-20 -3 -39 -3q-88 0 -149 57q-72 66 -72 154q0 87 65.5 147.5
t159.5 60.5q111 0 171.5 -67.5t60.5 -190.5v-493zM292 997q-36 0 -61.5 -24t-25.5 -58t25.5 -57.5t61.5 -23.5q35 0 60.5 24.5t25.5 56.5q0 33 -25.5 57.5t-60.5 24.5zM290 288q-34 0 -59.5 -24t-25.5 -57q0 -34 25.5 -58t61.5 -24q35 0 60.5 24.5t25.5 57.5t-26 57t-62 24z
" />
    <glyph glyph-name="uni0E22" unicode="&#xe22;" horiz-adv-x="1086" 
d="M339 702v-49q70 -44 138 -44q34 0 121 25l24 7l-51 -143q-42 -11 -98 -13q-134 -7 -134 -147v-201h234q110 0 152 46.5t42 167.5v766h197v-751q0 -167 -49 -241q-50 -76 -118 -100.5t-228 -24.5h-427v342q0 165 142 213q-89 49 -115.5 91t-26.5 135v79q0 119 51 179
q68 79 181 79q99 0 163 -64q62 -61 62 -144q0 -87 -65 -149t-156 -62q-19 0 -39 3zM370 991q-35 0 -60.5 -24.5t-25.5 -57.5t26 -57t62 -24q34 0 59.5 24t25.5 57q0 34 -25.5 58t-61.5 24z" />
    <glyph glyph-name="uni0E23" unicode="&#xe23;" horiz-adv-x="1006" 
d="M877 1131l94 -22q-49 -99 -227 -195l-13 -7q-67 62 -122 85.5t-132 23.5q-75 0 -127.5 -30t-67.5 -81q171 -4 253.5 -16t179.5 -49q109 -41 138.5 -86t29.5 -170v-306q0 -128 -40 -182q-72 -96 -205 -96q-99 0 -166.5 60.5t-67.5 149.5q0 92 66 148.5t172 56.5
q22 0 44 -5v157q0 88 -14 117t-67 50t-171.5 38t-211.5 17q-64 0 -159 -16q15 111 41 168q100 220 363 220q150 0 238 -55q50 -30 70 -30q17 0 46.5 15.5t55.5 39.5zM635 286q-35 0 -60 -24.5t-25 -57.5t25.5 -57t60.5 -24t60.5 24.5t25.5 57.5t-25.5 57t-61.5 24z" />
    <glyph glyph-name="uni0E24" unicode="&#xe24;" horiz-adv-x="1194" 
d="M1072 -503h-197v1311q0 84 -77 138q-85 60 -218 60q-192 0 -289 -137q236 -16 363 -66l-84 -78q-81 -3 -127 -60t-46 -153v-97q30 3 45 3q88 0 150.5 -61t62.5 -147q0 -89 -63.5 -149.5t-156.5 -60.5q-95 0 -165 64t-70 151v282q3 181 158 245q-163 18 -236 18
q-10 0 -60 -3q17 89 42 139.5t79 104.5q149 149 404 149q254 0 396 -130q89 -82 89 -191v-1332zM433 296q-34 0 -59 -24t-25 -57q0 -34 25 -58t61 -24q35 0 60 24t25 57q0 35 -25 58.5t-62 23.5z" />
    <glyph glyph-name="uni0E25" unicode="&#xe25;" horiz-adv-x="1160" 
d="M1037 0h-201q-15 167 -129 418q-48 104 -110.5 166t-119.5 62q-132 0 -132 -223v-42q35 24 89 24q91 0 152 -51q71 -59 71 -148q0 -88 -67 -147t-167 -59q-128 0 -189.5 89t-61.5 275q0 239 120 355q73 71 184 71q225 0 364 -286v268q0 59 -10.5 87.5t-41.5 57.5
q-41 37 -113 62.5t-138 25.5q-121 0 -226 -85q-60 -49 -220 -219l-25 -27v206q84 100 143 147q150 117 344 117q228 0 379 -122q60 -48 82.5 -92t22.5 -114v-816zM433 288q-33 0 -58 -24.5t-25 -56.5q0 -33 25 -57.5t59 -24.5q35 0 60.5 24.5t25.5 57.5t-25.5 57t-61.5 24z
" />
    <glyph glyph-name="uni0E26" unicode="&#xe26;" horiz-adv-x="1286" 
d="M967 -486v1283q0 71 -30 106q-78 93 -266 93q-93 0 -155 -29.5t-131 -107.5q219 -10 340 -55l-68 -102q-32 13 -53 13q-44 0 -76 -58t-32 -138v-263q0 -119 -51 -179q-67 -79 -181 -79q-99 0 -163 64q-62 61 -62 144q0 87 65 149t156 62q17 0 39 -3v68q0 185 143 261
q-141 14 -296 15q50 121 90 180.5t102 104.5q142 104 350 104q250 0 398 -141q78 -73 78 -178v-1314h-197zM266 288q-34 0 -59.5 -24t-25.5 -57q0 -34 25.5 -58t61.5 -24q35 0 60.5 24.5t25.5 57.5t-26 57t-62 24z" />
    <glyph glyph-name="uni0E27" unicode="&#xe27;" horiz-adv-x="1013" 
d="M71 703v213q87 107 160 154q133 85 292 85q197 0 317 -130q34 -37 42 -70t8 -131v-489q0 -118 -4 -147.5t-25 -66.5q-68 -121 -211 -121q-96 0 -162.5 61t-66.5 148q0 91 65 150.5t164 59.5q20 0 43 -4v393q0 68 -11 96.5t-49 58.5q-65 50 -134 50q-45 0 -112 -29
t-124 -73q-64 -50 -192 -208zM652 289q-35 0 -59.5 -23.5t-24.5 -57.5t25 -57.5t60 -23.5q36 0 61 24t25 57q0 35 -25 58t-62 23z" />
    <glyph glyph-name="uni0E28" unicode="&#xe28;" horiz-adv-x="1127" 
d="M980 1259l193 -28q-68 -166 -225 -263q35 -36 45.5 -70t10.5 -112v-786h-197v759q0 61 -9.5 88.5t-40.5 60.5q-82 87 -237 87q-104 0 -172 -47q-112 -79 -112 -200q0 -53 8 -99l18 -97q47 140 109.5 202.5t156.5 62.5q90 0 154 -57.5t64 -137.5q0 -84 -62 -142t-151 -58
q-90 0 -149 52q-61 -164 -66 -474h-190v273q-72 324 -72 481q0 163 127 274.5t312 111.5q181 0 336 -89q54 41 81.5 79.5t67.5 128.5zM531 693q-33 0 -57.5 -22.5t-24.5 -52.5q0 -32 24.5 -55.5t58.5 -23.5t58.5 23t24.5 56q0 31 -24.5 53t-59.5 22z" />
    <glyph glyph-name="uni0E29" unicode="&#xe29;" horiz-adv-x="1239" 
d="M1116 409v-92q0 -164 -95 -244q-50 -43 -114.5 -58t-195.5 -15h-589v137h173v571q-20 -3 -39 -3q-88 0 -149 57q-72 66 -72 154q0 87 65.5 147.5t159.5 60.5q110 0 171 -67.5t61 -190.5v-729h203q124 0 174 48t50 167v6q-55 -2 -65 -2q-334 0 -334 195q0 72 51.5 118.5
t130.5 46.5q76 0 126.5 -45.5t50.5 -114.5q0 -59 -38 -96q18 -1 26 -1q25 0 52 5v653h197v-537q23 37 40 131h145q-6 -98 -55 -178t-130 -124zM264 997q-36 0 -61.5 -24t-25.5 -58t25.5 -57.5t61.5 -23.5q35 0 60.5 24.5t25.5 56.5q0 33 -25.5 57.5t-60.5 24.5zM703 616
q-27 0 -46.5 -18.5t-19.5 -45.5q0 -26 19.5 -44.5t48.5 -18.5q28 0 47.5 18.5t19.5 44.5q0 27 -19.5 45.5t-49.5 18.5z" />
    <glyph glyph-name="uni0E2A" unicode="&#xe2a;" horiz-adv-x="1171" 
d="M990 1210h204q-46 -92 -86 -138t-117 -99q57 -64 57 -157v-816h-195q-52 248 -169 458q-100 179 -189 179q-53 0 -92 -49.5t-39 -117.5q0 -24 6 -63q31 9 67 9q102 0 166.5 -57.5t64.5 -148.5q0 -90 -66 -150t-166 -60q-111 0 -173 75q-90 107 -90 317q0 231 111 335
q73 68 190 68q125 0 215 -77t162 -244v298q0 101 -83.5 163.5t-218.5 62.5q-128 0 -224.5 -69t-271.5 -285v209q87 126 148 177q144 122 340 122q192 0 340 -99q67 57 109 157zM437 289q-35 0 -60 -24t-25 -58q0 -33 25.5 -57t60.5 -24t60 24t25 58t-25 57.5t-61 23.5z" />
    <glyph glyph-name="uni0E2B" unicode="&#xe2b;" horiz-adv-x="1238" 
d="M292 702q-20 -3 -39 -3q-88 0 -149 57q-72 66 -72 154q0 87 65.5 147.5t159.5 60.5q110 0 171 -67.5t61 -190.5v-298q103 166 277 233q-67 55 -67 138q0 78 65 131t161 53q97 0 162.5 -56t65.5 -139q0 -103 -112 -161h-1q76 -31 75 -116v-645h-197v624q0 65 -40 93
q-179 -77 -300 -273q-45 -72 -64.5 -157.5t-36.5 -286.5h-185v702zM920 994q-33 0 -57.5 -21t-24.5 -49q0 -27 24.5 -47t58.5 -20q35 0 59.5 20t24.5 48t-25 48.5t-60 20.5zM261 991q-36 0 -61.5 -24t-25.5 -58t25.5 -57.5t61.5 -23.5q35 0 60.5 24.5t25.5 56.5
q0 33 -25.5 57.5t-60.5 24.5z" />
    <glyph glyph-name="uni0E2C" unicode="&#xe2c;" horiz-adv-x="1286" 
d="M302 708q-20 -3 -39 -3q-88 0 -149 57q-72 66 -72 154q0 87 65.5 147.5t159.5 60.5q110 0 171 -67.5t61 -190.5v-501l94 194q45 87 79 203l107 49l4 -17q26 -118 92 -232l91 -159v557q-45 -8 -74 -8q-85 0 -135 44.5t-50 119.5q0 78 55 125t147 47q152 0 227 -97
q30 44 45 123h169q-33 -181 -187 -290v-1024h-191q-11 89 -24 132t-46 103l-167 294l-260 -529h-173v708zM962 1076v32q0 57 -58 57q-54 0 -54 -48q0 -47 69 -47q21 0 43 6zM271 997q-36 0 -61.5 -24t-25.5 -58t25.5 -57.5t61.5 -23.5q35 0 60.5 24.5t25.5 56.5
q0 33 -25.5 57.5t-60.5 24.5z" />
    <glyph glyph-name="uni0E2D" unicode="&#xe2d;" horiz-adv-x="1168" 
d="M31 784l36 183q168 103 285 143t246 40q242 0 359 -102q52 -45 70 -100.5t18 -167.5v-413q-4 -148 -15 -188.5t-61 -91.5q-47 -49 -105 -68t-162 -19h-523v548q0 82 8 114.5t37 64.5q73 81 187 81q95 0 160.5 -60.5t65.5 -148.5t-64.5 -147t-161.5 -59q-14 0 -35 2v-260
h259q98 0 141.5 20t60.5 73q11 32 11 147v383q0 132 -26 165q-57 71 -244 71q-110 0 -218 -41.5t-329 -168.5zM408 680q-35 0 -60 -24t-25 -57q0 -34 25 -57.5t61 -23.5t61 23.5t25 57.5t-25 57.5t-62 23.5z" />
    </font>
</defs>
</svg>
