<?xml version="1.0" standalone="no"?>
<!DOCTYPE svg PUBLIC "-//W3C//DTD SVG 1.1//EN" "http://www.w3.org/Graphics/SVG/1.1/DTD/svg11.dtd" >
<svg>
<metadata>
Created by FontForge 20120731 at Mon Mar 31 14:10:07 2014
 By tam,,,
Copyright (c) 2010 by Ralph du Carrois, Erik Spiekermann &#38; Botio Nikoltchev. All rights reserved.
</metadata>
<defs>
<font id="Wpqbkbgnlwncgqyuduzrmuemuvj" horiz-adv-x="600" >
  <font-face 
    font-family="Wpqbkbgnlwncgqyuduzrmuemuvj"
    font-weight="300"
    font-style="italic"
    font-stretch="normal"
    units-per-em="1000"
    panose-1="2 11 3 3 2 2 1 9 3 3"
    ascent="790"
    descent="-210"
    x-height="520"
    cap-height="720"
    bbox="-192 -362 1166 1000"
    underline-thickness="85"
    underline-position="-6"
    slope="-11"
    unicode-range="U+0020-FEFF"
  />
<missing-glyph horiz-adv-x="553" 
d="M37 720h479v-720h-479v720zM467 49v622h-381v-622h381z" />
    <glyph glyph-name="f_f" unicode="ff" horiz-adv-x="609" 
d="M719 674q-20 7 -38 11t-37 4q-32 0 -50 -15t-28 -39t-15.5 -54.5t-12.5 -60.5h123q-3 -12 -5.5 -24t-4.5 -23h-123l-100 -473h-54l100 473h-257q-26 -119 -50.5 -237t-49.5 -236h-54q25 118 49.5 236t50.5 237h-77l10 47h77l11 53q7 35 20.5 63.5t36 48.5t56.5 31t82 11
q41 0 82.5 -9t79.5 -26q40 43 105 43q20 0 40.5 -4t41.5 -12zM484 520l19 89q5 25 15 43q-28 14 -64.5 22.5t-74.5 8.5q-68 0 -99.5 -29t-42.5 -85l-10 -49h257z" />
    <glyph glyph-name="f_f_i" unicode="ffi" horiz-adv-x="846" 
d="M675 0l100 473h-252l-100 -473h-54l100 473h-252q-26 -119 -50.5 -237t-49.5 -236h-54q25 118 49.5 236t50.5 237h-77l10 47h77l11 53q7 35 20.5 63.5t36 48.5t56.5 31t82 11q42 0 83.5 -9t79.5 -27q45 42 131 42q38 0 68.5 -7.5t56.5 -18.5l-11 -44q-29 11 -56.5 17.5
t-56.5 6.5q-44 0 -68 -11.5t-37 -33.5t-20 -52.5t-16 -69.5h306l-110 -520h-54zM514 654q-26 12 -62 20.5t-73 8.5q-68 0 -99.5 -29t-42.5 -85l-10 -49h252q8 35 16 73.5t19 60.5z" />
    <glyph glyph-name="f_f_j" unicode="ffj" horiz-adv-x="850" 
d="M522 -135q17 -6 33 -9.5t28 -3.5q32 0 52.5 18.5t30.5 63.5l114 539h-253l-100 -473h-54l100 473h-256q-26 -119 -50.5 -237t-49.5 -236h-54q25 118 49.5 236t50.5 237h-77l10 47h77l11 53q7 35 20.5 63.5t36 48.5t56.5 31t82 11q42 0 85 -9.5t81 -28.5q46 44 132 44
q38 0 69 -7.5t57 -18.5l-12 -44q-29 11 -56 17.5t-57 6.5q-54 0 -83.5 -20.5t-40.5 -68.5q-5 -20 -8.5 -39.5t-8.5 -38.5h307q-33 -149 -63.5 -296.5t-62.5 -296.5q-27 -121 -135 -121q-19 0 -37.5 4t-32.5 11zM518 652q-26 13 -63.5 22t-75.5 9q-68 0 -99.5 -29t-42.5 -85
l-10 -49h256l18 82q4 17 7.5 28t9.5 22z" />
    <glyph glyph-name="f_f_l" unicode="ffl" horiz-adv-x="852" 
d="M379 727q48 0 89 -10t79 -28q23 22 57.5 33t83.5 11q43 0 78 -7.5t66 -16.5q14 2 27.5 5t27.5 6l-153 -720h-54l141 664q-26 9 -61.5 16t-71.5 7q-34 0 -58 -6.5t-40.5 -20t-27 -34.5t-16.5 -49l-12 -57h116l-10 -47h-116q-26 -119 -50.5 -237t-49.5 -236h-54
q25 118 49.5 236t50.5 237h-253q-26 -119 -50.5 -237t-49.5 -236h-54q25 118 49.5 236t50.5 237h-77l10 47h77l11 53q7 35 20.5 63.5t36 48.5t56.5 31t82 11zM493 581q5 20 11 38.5t15 33.5q-26 12 -62 21t-78 9q-69 0 -100 -29.5t-42 -84.5l-10 -49h253z" />
    <glyph glyph-name="f_i" unicode="fi" horiz-adv-x="540" 
d="M369 0l100 473h-252l-100 -473h-54l100 473h-77l10 47h77q9 51 20.5 91t32 67t54 41t87.5 14q37 0 68 -7.5t57 -18.5l-11 -44q-29 11 -56.5 17.5t-57.5 6.5q-53 0 -83.5 -20.5t-40.5 -68.5l-16 -78h306l-110 -520h-54z" />
    <glyph glyph-name="f_j" unicode="fj" horiz-adv-x="541" 
d="M213 -135q17 -7 33 -10t28 -3q32 0 52 18t30 63l114 541h-252l-100 -474h-54l100 474h-77l10 46h77l17 83q14 64 56.5 97t120.5 33q38 0 68.5 -7t56.5 -18l-11 -45q-29 11 -56.5 18t-56.5 7q-54 0 -84 -21t-40 -68l-17 -79h306l-126 -593q-26 -122 -130 -122
q-19 0 -38 3.5t-37 12.5z" />
    <glyph glyph-name="f_l" unicode="fl" horiz-adv-x="546" 
d="M375 0l140 664q-25 10 -60.5 17t-71.5 7q-68 0 -99 -27.5t-43 -82.5l-13 -58h116l-10 -46h-116l-100 -474h-54l100 474h-77l10 46h77l13 62q7 35 21 63t36.5 47.5t56.5 30t82 10.5q42 0 77 -7.5t66 -16.5l56 11l-153 -720h-54z" />
    <glyph glyph-name=".notdef" horiz-adv-x="553" 
d="M37 720h479v-720h-479v720zM467 49v622h-381v-622h381z" />
    <glyph glyph-name=".null" horiz-adv-x="0" 
 />
    <glyph glyph-name="nonmarkingreturn" horiz-adv-x="300" 
 />
    <glyph glyph-name="space" unicode=" " horiz-adv-x="300" 
 />
    <glyph glyph-name="exclam" unicode="!" horiz-adv-x="260" 
d="M54 0l16 80h73l-17 -80h-72zM110 226l100 494h62l-112 -494h-50z" />
    <glyph glyph-name="quotedbl" unicode="&#x22;" 
d="M217 490h-38l21 153l20 92h58l-20 -92zM356 490h-38l21 153l20 92h58l-20 -92z" />
    <glyph glyph-name="numbersign" unicode="#" 
d="M132 505h90l58 195h51l-58 -195h214l58 195h51l-58 -195h85l-10 -45h-89l-65 -220h87l-10 -45h-91l-58 -195h-51l58 195h-214l-58 -195h-51l58 195h-84l10 45h88l65 220h-86zM194 240h214l65 220h-214z" />
    <glyph glyph-name="dollar" unicode="$" 
d="M276 38q45 0 88 11t76.5 33t53.5 55t20 77q0 22 -9 41t-31 36t-59.5 31.5t-94.5 28.5q-99 23 -142 63.5t-43 96.5q0 43 18 79.5t51 63t80 42t105 18.5l25 116h51q-6 -30 -12.5 -59t-12.5 -58q44 -3 81 -17t63.5 -36.5t41.5 -53.5t15 -69h-57q-4 61 -47 95t-128 34
q-103 0 -159.5 -42t-56.5 -110q0 -21 8.5 -38t28 -31.5t52.5 -27t82 -24.5q58 -14 98 -32t64.5 -40t35 -48t10.5 -55q0 -49 -20 -90t-57.5 -71t-90 -47.5t-118.5 -19.5l-26 -125h-51l27 127q-94 8 -147.5 57.5t-53.5 134.5h56q0 -72 48.5 -109t136.5 -37z" />
    <glyph glyph-name="percent" unicode="%" horiz-adv-x="829" 
d="M296 715q30 0 57.5 -9.5t48 -28t32.5 -46t12 -64.5q0 -42 -13.5 -77t-37.5 -60t-57 -39t-73 -14q-30 0 -57 9t-47.5 27.5t-32 46t-11.5 64.5q0 48 15 84t40 59.5t57.5 35.5t66.5 12zM267 418q25 0 48.5 9t41.5 28t29 46.5t11 65.5q0 28 -8 48.5t-22 33.5t-32.5 19
t-40.5 6q-31 0 -55.5 -11.5t-41 -32t-25 -48t-8.5 -59.5q0 -56 29.5 -80.5t73.5 -24.5zM236 0h-58l480 700h57zM630 323q30 0 57.5 -9.5t48 -28t32.5 -46t12 -64.5q0 -42 -13.5 -77t-37.5 -60t-57 -39t-73 -14q-30 0 -57 9t-47.5 27.5t-32 46t-11.5 64.5q0 48 15 84t40 59.5
t57.5 35.5t66.5 12zM601 26q25 0 48.5 9t41.5 28t29 46.5t11 65.5q0 28 -8 48.5t-22 33.5t-32.5 19t-40.5 6q-31 0 -55.5 -11.5t-41 -32t-25 -48t-8.5 -59.5q0 -56 29.5 -80.5t73.5 -24.5z" />
    <glyph glyph-name="ampersand" unicode="&#x26;" horiz-adv-x="629" 
d="M612 330q-18 -54 -47.5 -109t-70.5 -103l82 -101l-43 -32l-76 95q-47 -42 -104 -68.5t-126 -26.5q-49 0 -86.5 11.5t-63 32.5t-38.5 49t-13 61q0 44 14.5 77t41 59.5t63.5 49t83 45.5q-40 51 -61.5 88t-21.5 76q0 34 14 66.5t41 58t66 41t89 15.5q40 0 70.5 -11t50.5 -29
t30.5 -42t10.5 -50q0 -31 -11.5 -59.5t-37.5 -55.5t-67 -54.5t-100 -57.5l161 -200q33 41 58 87.5t41 93.5zM233 31q54 0 103 24t90 64l-170 215q-39 -20 -71 -38.5t-55 -41t-35.5 -49.5t-12.5 -63q0 -50 37.5 -80.5t113.5 -30.5zM197 538q0 -32 19 -65.5t57 -81.5
q95 49 143.5 91.5t48.5 96.5q0 17 -6 33.5t-19.5 29.5t-34.5 21t-52 8q-38 0 -67.5 -11.5t-49 -30.5t-29.5 -43t-10 -48z" />
    <glyph glyph-name="quotesingle" unicode="'" horiz-adv-x="270" 
d="M219 490h-39l22 153l20 92h58l-20 -92z" />
    <glyph glyph-name="parenleft" unicode="(" horiz-adv-x="340" 
d="M424 810q-64 -77 -115.5 -152.5t-87.5 -155t-55.5 -165t-19.5 -181.5q0 -95 20 -176t49 -150h-45q-30 56 -54 141t-24 190q0 110 27.5 207.5t69.5 180t92.5 148.5t95.5 113h47z" />
    <glyph glyph-name="parenright" unicode=")" horiz-adv-x="340" 
d="M-29 -170q64 77 115.5 152.5t87.5 155t55.5 165t19.5 181.5q0 95 -20 176t-49 150h45q31 -56 54.5 -141t23.5 -190q0 -110 -27.5 -207.5t-69.5 -180t-92.5 -148.5t-95.5 -113h-47z" />
    <glyph glyph-name="asterisk" unicode="*" horiz-adv-x="470" 
d="M321 522l-88 -138l-41 31l105 127l-160 41l17 48l151 -60l-10 164h51l-10 -165l152 61l17 -48l-161 -41l105 -127l-41 -31z" />
    <glyph glyph-name="plus" unicode="+" 
d="M397 525l-38 -179h177l-11 -49h-177l-38 -178h-53l38 178h-176l11 49h176l38 179h53z" />
    <glyph glyph-name="comma" unicode="," horiz-adv-x="279" 
d="M137 -6q-14 -65 -50 -94t-83 -40l7 37q32 11 51 33.5t29 69.5h-26l16 80h74z" />
    <glyph glyph-name="hyphen" unicode="-" horiz-adv-x="540" 
d="M465 297h-346l11 49h346z" />
    <glyph glyph-name="period" unicode="." horiz-adv-x="285" 
d="M66 0l16 80h73l-16 -80h-73z" />
    <glyph glyph-name="slash" unicode="/" horiz-adv-x="358" 
d="M36 -90h-55l397 825h55z" />
    <glyph glyph-name="zero" unicode="0" 
d="M402 669q-52 0 -92 -25.5t-70 -67t-51 -92.5t-33.5 -102.5t-18.5 -98t-6 -77.5q0 -89 35 -132t100 -43q51 0 91 25.5t70 67t50.5 92.5t33.5 102.5t18.5 98t5.5 77.5q0 89 -34.5 132t-98.5 43zM262 -15q-41 0 -74.5 13.5t-58.5 41.5t-38.5 71t-13.5 102q0 35 6.5 86
t21.5 107t40 111t61.5 99t85.5 71.5t113 27.5q40 0 74 -13.5t59 -41.5t38.5 -71t13.5 -102q0 -36 -6.5 -86.5t-21.5 -106.5t-40 -111t-61.5 -99t-85.5 -71.5t-113 -27.5z" />
    <glyph glyph-name="one" unicode="1" 
d="M274 0l136 640l-182 -92l12 59l183 93h53l-148 -700h-54z" />
    <glyph glyph-name="two" unicode="2" 
d="M142 531q31 85 100.5 134.5t163.5 49.5q39 0 72.5 -11t58 -31t38 -48.5t13.5 -63.5q0 -44 -13.5 -80t-39 -70.5t-62.5 -69t-85 -73.5l-263 -218h356l-10 -50h-433l10 50l316 264q40 34 71.5 63.5t53 58t32.5 58t11 64.5q0 51 -34.5 80.5t-97.5 29.5q-72 0 -125 -37.5
t-74 -99.5h-59z" />
    <glyph glyph-name="three" unicode="3" 
d="M254 -14q-96 0 -150 46t-54 127h55q1 -63 39.5 -95.5t113.5 -32.5q52 0 92.5 17t68 45t42 63.5t14.5 73.5q0 57 -38 86.5t-98 29.5h-72l10 48h69q41 0 74 14.5t56.5 38t36.5 54t13 62.5q0 51 -38 78t-98 27q-72 0 -124.5 -32.5t-76.5 -92.5h-58q31 80 100.5 126t164.5 46
q40 0 74 -10t59 -29t39 -46.5t14 -62.5q0 -38 -12.5 -70.5t-35.5 -58t-54.5 -43t-68.5 -25.5q53 -8 85.5 -44t32.5 -96q0 -49 -19 -93t-54.5 -77.5t-86.5 -53.5t-115 -20z" />
    <glyph glyph-name="four" unicode="4" 
d="M548 700l-111 -521h108l-9 -47h-108l-28 -132h-54l28 132h-321l11 54l421 514h63zM383 179l93 437l-354 -437h261z" />
    <glyph glyph-name="five" unicode="5" 
d="M257 -15q-47 0 -84.5 13.5t-63 37.5t-39 56.5t-13.5 70.5h56q0 -65 41 -98.5t109 -33.5q49 0 90.5 20t72 54t47.5 78t17 91q0 65 -39 99.5t-108 34.5q-32 0 -60.5 -7.5t-52.5 -19.5t-43 -26.5t-32 -28.5h-46l93 374h401l-10 -47h-350l-68 -266q32 26 77 46t105 20
q42 0 76 -12t59 -34.5t38.5 -55.5t13.5 -75q0 -56 -20 -108t-57 -93t-90 -65.5t-120 -24.5z" />
    <glyph glyph-name="six" unicode="6" 
d="M360 455q83 0 132.5 -47t49.5 -132q0 -61 -21 -114t-58.5 -92.5t-88 -62t-108.5 -22.5q-50 0 -85.5 16t-58 44.5t-33 66.5t-10.5 82q0 34 6.5 86t22 110t41 116t63 104.5t89 75.5t119.5 29q35 0 65 -9.5t52.5 -27.5t36 -43.5t15.5 -57.5h-56q-4 44 -34 68t-82 24
q-36 0 -74 -15t-73.5 -52.5t-66.5 -101t-53 -161.5q35 52 90.5 84t119.5 32zM348 409q-43 0 -82 -17t-69 -47t-48 -70t-18 -86q0 -32 7 -60t23.5 -50t43.5 -34.5t66 -12.5q40 0 79 18t69.5 50t49.5 76.5t19 97.5q0 65 -37.5 100t-102.5 35z" />
    <glyph glyph-name="seven" unicode="7" 
d="M164 0h-64l451 651h-382l10 49h443l-10 -49z" />
    <glyph glyph-name="eight" unicode="8" 
d="M600 571q0 -45 -17 -78.5t-44 -57.5t-59.5 -39.5t-63.5 -25.5q25 -8 49 -21t43 -32t30.5 -43.5t11.5 -56.5q0 -49 -22 -91.5t-60.5 -73.5t-91 -49t-114.5 -18q-51 0 -91 13t-67.5 35.5t-42 52.5t-14.5 65q0 48 17.5 84t47 62.5t67 44t76.5 28.5q-20 7 -39 19t-34 29
t-24.5 39t-9.5 50q0 54 23 93t60 64.5t82.5 38t90.5 12.5q39 0 74.5 -9t62.5 -27t43 -45t16 -63zM492 217q0 32 -14.5 55t-38 38.5t-52.5 25t-58 15.5q-37 -8 -77 -22t-73 -37.5t-54.5 -57.5t-21.5 -82q0 -56 44 -88.5t119 -32.5q46 0 87 13.5t72 37.5t49 58.5t18 76.5z
M202 508q0 -31 13 -52t34 -34.5t46.5 -21t49.5 -11.5q35 8 71 20.5t64.5 33.5t46.5 51t18 72q0 27 -11.5 46.5t-31 32.5t-45.5 19.5t-55 6.5q-34 0 -69.5 -9.5t-64.5 -29t-47.5 -50.5t-18.5 -74z" />
    <glyph glyph-name="nine" unicode="9" 
d="M305 245q-40 0 -74 12t-58.5 35t-38 56t-13.5 76q0 59 21.5 112t58 92.5t86.5 63t107 23.5q51 0 87.5 -16t59 -44.5t33 -67.5t10.5 -84q0 -33 -6 -84t-20.5 -108.5t-39 -115.5t-62 -104.5t-89.5 -76t-121 -29.5q-35 0 -66 10t-54.5 28t-38 43.5t-15.5 57.5h55
q3 -45 37 -69t85 -24q40 0 79 17t73.5 56t64 102t49.5 155q-36 -51 -91 -83.5t-119 -32.5zM316 291q43 0 82 17.5t69 48t47.5 71.5t17.5 87q0 29 -7.5 56.5t-24 49t-43 34.5t-65.5 13q-41 0 -79.5 -17.5t-69 -49.5t-49 -76.5t-18.5 -98.5q0 -67 38.5 -101t101.5 -34z" />
    <glyph glyph-name="colon" unicode=":" horiz-adv-x="285" 
d="M66 0l16 80h73l-16 -80h-73zM159 440l17 80h73l-18 -80h-72z" />
    <glyph glyph-name="semicolon" unicode=";" horiz-adv-x="285" 
d="M159 440l17 80h73l-18 -80h-72zM137 -6q-14 -65 -50 -94t-83 -40l7 37q32 11 51 33.5t29 69.5h-26l16 80h74z" />
    <glyph glyph-name="less" unicode="&#x3c;" 
d="M183 317l313 -164l-12 -54l-364 199l10 49l448 199l-11 -60l-384 -166v-3z" />
    <glyph glyph-name="equal" unicode="=" 
d="M548 401h-406l10 49h406zM503 193h-406l10 49h406z" />
    <glyph glyph-name="greater" unicode="&#x3e;" 
d="M474 327l-313 166l11 53l364 -199l-10 -49l-448 -199l12 60l383 166z" />
    <glyph glyph-name="question" unicode="?" horiz-adv-x="520" 
d="M133 561q14 38 37.5 70t55.5 55t71.5 36t86.5 13q45 0 78 -12t55.5 -32t33.5 -47.5t11 -58.5q0 -33 -12 -60.5t-34.5 -53t-55 -51t-72.5 -54.5q-25 -18 -41 -33t-26.5 -32.5t-18 -40.5t-14.5 -58h-53q9 41 18 70t23 51.5t35.5 42t54.5 43.5q36 26 62.5 47.5t44 42.5
t26 42.5t8.5 48.5q0 41 -32.5 69.5t-95.5 28.5q-66 0 -115 -35t-72 -92h-59zM183 0l17 79h72l-16 -79h-73z" />
    <glyph glyph-name="at" unicode="@" horiz-adv-x="923" 
d="M447 152q24 0 48 9t45 26.5t37 44.5t24 63l14 71q2 12 2.5 23.5t0.5 21.5q0 54 -29 78.5t-71 24.5q-33 0 -65.5 -16t-58 -46.5t-41.5 -74.5t-16 -100q0 -63 32 -94t78 -31zM699 102q-45 0 -71 30t-27 75q-7 -14 -22 -31t-36.5 -32t-49 -25.5t-58.5 -10.5q-29 0 -56 10
t-48 30.5t-33.5 51.5t-12.5 72q0 65 19 117.5t51 89.5t74 57t89 20q18 0 36.5 -4.5t34.5 -14.5t28.5 -24.5t18.5 -33.5l23 70h40l-57 -281q-3 -15 -4.5 -26.5t-1.5 -22.5q0 -36 17.5 -54.5t47.5 -18.5q27 0 54.5 17.5t49 52t35.5 85.5t14 117q0 60 -22.5 110t-64 86
t-100.5 56t-133 20q-60 0 -128 -21t-126.5 -69t-97 -125t-38.5 -189q0 -80 28 -141t75.5 -101.5t109.5 -61t131 -20.5q45 0 85.5 7.5t71.5 17.5l4 -44q-32 -11 -75.5 -19t-91.5 -8q-75 0 -145.5 23t-125 69t-87.5 114.5t-33 160.5q0 83 20 148.5t54 116t78.5 86t94 58
t100.5 33t98 10.5q84 0 152.5 -23.5t117 -65t75 -99t26.5 -126.5q0 -71 -17 -130t-46 -101t-66.5 -65t-78.5 -23z" />
    <glyph glyph-name="A" unicode="A" horiz-adv-x="661" 
d="M555 0l-37 204h-364l-124 -204h-63l442 720h70l135 -720h-59zM182 251h328l-75 415z" />
    <glyph glyph-name="B" unicode="B" horiz-adv-x="638" 
d="M435 720q99 0 150 -38t51 -104q0 -33 -12 -65.5t-33.5 -59.5t-52.5 -47t-68 -29q55 -9 89 -45.5t34 -93.5q0 -41 -15.5 -83.5t-50.5 -77t-91.5 -56t-137.5 -21.5h-256l153 720h240zM174 356l-66 -308h203q57 0 99 16t69.5 42t41 60.5t13.5 70.5q0 55 -39 87t-114 32h-207
zM241 674l-57 -272h204q49 0 85 15.5t59.5 40.5t35 54.5t11.5 58.5q0 49 -35.5 76t-104.5 27h-198z" />
    <glyph glyph-name="C" unicode="C" horiz-adv-x="719" 
d="M340 -15q-62 0 -110.5 19t-83 55t-52.5 86.5t-18 113.5q0 44 9.5 96.5t30.5 105.5t53.5 102t78 87.5t105 61.5t133.5 23q57 0 103.5 -15t79 -44t50.5 -70.5t18 -94.5v-8h-56v6q0 91 -51.5 134t-148.5 43q-63 0 -113 -21t-89 -55.5t-66 -79t-45 -91.5t-26 -93t-8 -83
q0 -108 56.5 -169t152.5 -61q49 0 93.5 14t80.5 41t63.5 65t43.5 86h57q-16 -54 -47 -100.5t-75 -80.5t-99.5 -53.5t-119.5 -19.5z" />
    <glyph glyph-name="D" unicode="D" horiz-adv-x="684" 
d="M388 720q66 0 119.5 -17t91.5 -51t58.5 -83.5t20.5 -113.5q0 -53 -11.5 -107.5t-34.5 -105t-58 -94.5t-82 -77t-106.5 -52t-132.5 -19h-211l153 720h193zM241 673l-133 -625h151q65 0 117.5 18.5t93 50t69 72.5t47 86t27 91t8.5 86q0 109 -63 165t-168 56h-149z" />
    <glyph glyph-name="E" unicode="E" horiz-adv-x="565" 
d="M511 342h-340l-62 -293h369l-10 -49h-426l153 720h426l-11 -49h-369l-60 -281h340z" />
    <glyph glyph-name="F" unicode="F" horiz-adv-x="553" 
d="M614 720l-11 -49h-363l-63 -301h326l-10 -48h-327q-17 -81 -34 -161t-34 -161h-56l153 720h419z" />
    <glyph glyph-name="G" unicode="G" horiz-adv-x="731" 
d="M617 0h-41l17 114q-45 -61 -111.5 -95t-145.5 -34q-54 0 -101 17.5t-82.5 51.5t-55.5 85t-20 118q0 49 10.5 104t32 108t54 101t78 85t103 58.5t128.5 21.5q58 0 104 -15.5t77.5 -43.5t48.5 -67t17 -86h-57q-2 81 -52 122t-142 41q-61 0 -110 -20t-87 -54t-66 -77.5
t-46 -91t-27 -94.5t-9 -88q0 -57 16 -99.5t44 -71t66.5 -43t82.5 -14.5q48 0 93 15.5t82 43t63 65t36 82.5l20 91h-233l10 47h283z" />
    <glyph glyph-name="H" unicode="H" horiz-adv-x="685" 
d="M716 720l-153 -720h-57l73 342h-408l-73 -342h-56l153 720h56l-70 -328h408l70 328h57z" />
    <glyph glyph-name="I" unicode="I" horiz-adv-x="220" 
d="M251 720l-153 -720h-56l153 720h56z" />
    <glyph glyph-name="J" unicode="J" horiz-adv-x="524" 
d="M86 191q-2 -15 -2.5 -22.5t-0.5 -16.5q0 -59 33.5 -88.5t91.5 -29.5q72 0 120 43t65 124l110 519h57l-112 -522q-21 -100 -81.5 -156.5t-159.5 -56.5q-84 0 -131.5 44.5t-47.5 119.5q0 22 4 42h54z" />
    <glyph glyph-name="K" unicode="K" horiz-adv-x="596" 
d="M474 0l-301 354l-75 -354h-56l153 720h56l-71 -335l414 335h73l-434 -353l311 -367h-70z" />
    <glyph glyph-name="L" unicode="L" horiz-adv-x="548" 
d="M252 720l-143 -670h367l-10 -50h-424l153 720h57z" />
    <glyph glyph-name="M" unicode="M" horiz-adv-x="842" 
d="M359 0l-126 647l-136 -647h-55l153 720h80l124 -660l391 660h83l-153 -720h-54l135 642l-382 -642h-60z" />
    <glyph glyph-name="N" unicode="N" horiz-adv-x="712" 
d="M743 720l-153 -720h-61l-297 648l-137 -648h-53l153 720h65l294 -644l137 644h52z" />
    <glyph glyph-name="O" unicode="O" horiz-adv-x="753" 
d="M343 33q66 0 117 21.5t90 57.5t65.5 81.5t43.5 93t24.5 93.5t7.5 82q0 55 -15 97t-43 70.5t-66.5 43t-84.5 14.5q-66 0 -117.5 -21.5t-90.5 -57.5t-65.5 -81.5t-43 -93t-24 -93.5t-7.5 -82q0 -111 57 -168t152 -57zM340 -15q-58 0 -106.5 18t-83 53t-54 86t-19.5 117
q0 42 9 94t28.5 104.5t51.5 102.5t77.5 89t105.5 62.5t137 23.5q57 0 105 -18t83 -52.5t54.5 -85.5t19.5 -118q0 -42 -9 -93.5t-29 -104.5t-51.5 -103t-77 -89t-105.5 -62.5t-136 -23.5z" />
    <glyph glyph-name="P" unicode="P" horiz-adv-x="626" 
d="M430 720q106 0 162 -46.5t56 -129.5q0 -56 -20 -105t-58.5 -85.5t-94.5 -57.5t-128 -21h-191l-58 -275h-56l153 720h235zM241 672l-74 -348h181q58 0 102.5 17t75.5 46.5t47 68.5t16 83q0 63 -40 98t-118 35h-190z" />
    <glyph glyph-name="Q" unicode="Q" horiz-adv-x="753" 
d="M340 -15q-58 0 -106.5 18t-83 53t-54 86t-19.5 117q0 42 9 94t28.5 104.5t51.5 102.5t77.5 89t105.5 62.5t137 23.5q57 0 105 -18t83 -52.5t54.5 -85.5t19.5 -118q0 -45 -10.5 -100t-33 -111.5t-59 -108.5t-88.5 -89l79 -133l-54 -31l-71 136q-36 -18 -78.5 -28.5
t-92.5 -10.5zM343 33q66 0 117 21.5t90 57.5t65.5 81.5t43.5 93t24.5 93.5t7.5 82q0 55 -15 97t-43 70.5t-66.5 43t-84.5 14.5q-66 0 -117.5 -21.5t-90.5 -57.5t-65.5 -81.5t-43 -93t-24 -93.5t-7.5 -82q0 -111 57 -168t152 -57z" />
    <glyph glyph-name="R" unicode="R" horiz-adv-x="629" 
d="M507 0l-137 296h-209l-63 -296h-56l153 720h236q109 0 165 -44.5t56 -123.5q0 -50 -16 -90.5t-45.5 -72t-71 -53t-91.5 -32.5l144 -304h-65zM241 672l-70 -328h191q52 0 95 16.5t73 44t46.5 65t16.5 79.5q0 59 -40 91t-121 32h-191z" />
    <glyph glyph-name="S" unicode="S" horiz-adv-x="646" 
d="M292 34q60 0 106 15.5t77 41.5t47 60t16 71q0 24 -10 44t-33.5 36.5t-62.5 30.5t-97 28q-100 23 -144.5 63.5t-44.5 100.5q0 46 18.5 84.5t54 66.5t87.5 43.5t120 15.5q109 0 171.5 -48.5t67.5 -131.5h-58q0 62 -46 96.5t-137 34.5q-56 0 -97.5 -12t-69 -33.5t-41 -51
t-13.5 -63.5q0 -23 9 -40.5t29.5 -31.5t54.5 -26.5t84 -24.5q116 -28 165.5 -71.5t49.5 -108.5q0 -51 -20.5 -94.5t-59.5 -75.5t-96 -50t-130 -18q-57 0 -102.5 14t-77.5 39.5t-49 62.5t-17 82h56q0 -72 49.5 -110.5t143.5 -38.5z" />
    <glyph glyph-name="T" unicode="T" horiz-adv-x="575" 
d="M660 670h-243l-142 -670h-56l142 670h-242l11 50h541z" />
    <glyph glyph-name="U" unicode="U" horiz-adv-x="702" 
d="M313 -15q-56 0 -99 15t-72.5 42t-45 64t-15.5 80q0 27 6 56l103 478h55l-104 -487q-3 -12 -4 -23t-1 -22q0 -70 48.5 -112.5t133.5 -42.5q49 0 92 15t77.5 41.5t58.5 63t33 80.5l104 487h55l-105 -490q-11 -52 -38 -97t-67.5 -78t-94.5 -51.5t-120 -18.5z" />
    <glyph glyph-name="V" unicode="V" horiz-adv-x="627" 
d="M175 720l106 -672l392 672h59l-421 -720h-76l-115 720h55z" />
    <glyph glyph-name="W" unicode="W" horiz-adv-x="954" 
d="M1055 720l-352 -720h-74l-50 666l-332 -666h-76l-46 720h55l40 -663l332 663h77l46 -661l323 661h57z" />
    <glyph glyph-name="X" unicode="X" horiz-adv-x="613" 
d="M380 371l176 -371h-63l-153 329l-293 -329h-70l336 375l-164 345h62l142 -305l278 305h69z" />
    <glyph glyph-name="Y" unicode="Y" horiz-adv-x="623" 
d="M178 720l159 -388l329 388h62l-370 -438l-59 -282h-57l60 283l-182 437h58z" />
    <glyph glyph-name="Z" unicode="Z" horiz-adv-x="639" 
d="M90 49h462l-10 -49h-535l10 50l603 620h-448l11 50h522l-11 -48z" />
    <glyph glyph-name="bracketleft" unicode="[" horiz-adv-x="263" 
d="M148 -170h-181l208 980h182l-10 -46h-129l-189 -888h129z" />
    <glyph glyph-name="backslash" unicode="\" horiz-adv-x="333" 
d="M147 735h49l45 -825h-49z" />
    <glyph glyph-name="bracketright" unicode="]" horiz-adv-x="263" 
d="M-30 -124h130l189 888h-130l10 46h182l-209 -980h-181z" />
    <glyph glyph-name="asciicircum" unicode="^" horiz-adv-x="500" 
d="M147 400h-60l243 320h55l108 -320h-54l-89 271z" />
    <glyph glyph-name="underscore" unicode="_" horiz-adv-x="603" 
d="M508 -111h-542l11 49h542z" />
    <glyph glyph-name="grave" unicode="`" horiz-adv-x="237" 
d="M293 598h-47l-99 137h72z" />
    <glyph glyph-name="a" unicode="a" horiz-adv-x="529" 
d="M103 385q21 67 80 108.5t147 41.5q77 0 122.5 -35t45.5 -99q0 -17 -5 -40l-76 -361h-44l10 86q-32 -40 -81.5 -70.5t-118.5 -30.5q-68 0 -110 32t-42 89q0 45 17.5 78t49 56t75.5 37t97 23l162 26l9 44q3 16 3 30q0 43 -30 67t-89 24q-63 0 -106.5 -29t-59.5 -77h-56z
M199 31q32 0 65 11.5t61 31.5t48.5 48.5t28.5 62.5l21 96l-144 -23q-105 -17 -147.5 -53.5t-42.5 -93.5q0 -40 29.5 -60t80.5 -20z" />
    <glyph glyph-name="b" unicode="b" horiz-adv-x="580" 
d="M37 0l153 720h54l-64 -297q35 49 85.5 80.5t116.5 31.5q80 0 128 -48t48 -141q0 -31 -6.5 -70t-20.5 -79t-36 -78t-54 -68t-74 -48t-95 -18q-35 0 -62 9.5t-47 25t-33 36.5t-19 45l-30 -101h-44zM268 31q44 0 78.5 16.5t60.5 43t44 60.5t29.5 68.5t16.5 67.5t5 57
q0 73 -35.5 109t-98.5 36q-54 0 -97.5 -27t-74.5 -70.5t-47.5 -99t-16.5 -112.5q0 -75 36.5 -112t99.5 -37z" />
    <glyph glyph-name="c" unicode="c" horiz-adv-x="540" 
d="M486 153q-13 -36 -36.5 -67t-55 -53.5t-70.5 -35t-84 -12.5q-41 0 -75.5 12.5t-59.5 37.5t-39 61.5t-14 84.5q0 34 7 73.5t22 79t38 76t56 64.5t75.5 44.5t95.5 16.5q84 0 133 -43t49 -117h-57q0 53 -32.5 83.5t-94.5 30.5q-63 0 -108 -32t-73.5 -79t-42 -100.5
t-13.5 -96.5q0 -77 39.5 -113.5t99.5 -36.5q30 0 58.5 9t52.5 25t42 38.5t28 49.5h59z" />
    <glyph glyph-name="d" unicode="d" horiz-adv-x="580" 
d="M419 0l12 97q-36 -51 -86 -81.5t-116 -30.5q-38 0 -70 12.5t-56 36.5t-37.5 60t-13.5 84q0 33 6.5 72t21 78.5t37.5 77t54.5 66t73 46t93.5 17.5q63 0 105 -32t56 -82l63 299h54l-153 -720h-44zM342 489q-42 0 -76 -15t-60 -40.5t-44.5 -57.5t-30.5 -66.5t-17.5 -68
t-5.5 -61.5q0 -76 38 -112.5t98 -36.5q55 0 98.5 28t73.5 72t45.5 98.5t15.5 108.5q0 76 -37 113.5t-98 37.5z" />
    <glyph glyph-name="e" unicode="e" horiz-adv-x="571" 
d="M500 142q-31 -71 -95.5 -114t-148.5 -43q-44 0 -81 13t-64 39t-42 63.5t-15 87.5q0 35 7.5 75t23 78.5t39.5 73.5t57 61.5t75 42.5t94 16q42 0 77 -12t60.5 -36t40 -61t14.5 -86q0 -21 -2.5 -44t-8.5 -49h-417q-3 -16 -4 -31t-1 -29q0 -80 42 -118t110 -38q59 0 107 29.5
t74 81.5h58zM348 491q-36 0 -70 -13t-63.5 -38t-52.5 -62t-37 -86h359q2 15 3 26.5t1 23.5q0 75 -38.5 112t-101.5 37z" />
    <glyph glyph-name="f" unicode="f" horiz-adv-x="300" 
d="M409 674q-20 7 -38 11t-37 4q-71 0 -87 -79l-19 -90h122l-10 -46h-122l-100 -474h-54l100 474h-77l10 46h77l20 94q13 60 49.5 90.5t92.5 30.5q41 0 82 -16z" />
    <glyph glyph-name="g" unicode="g" horiz-adv-x="580" 
d="M75 -48q0 -53 35.5 -78t99.5 -25q78 0 131.5 42t68.5 113l24 113q-34 -45 -83.5 -72t-112.5 -27q-37 0 -70 12.5t-57.5 37t-39 60.5t-14.5 82q0 49 16.5 105.5t50.5 105.5t87 81.5t125 32.5q63 0 106.5 -31.5t57.5 -79.5l29 96h44l-111 -523q-9 -42 -30 -77.5t-53.5 -61
t-75 -39.5t-94.5 -14q-91 0 -140 39t-49 108h55zM341 489q-61 0 -104.5 -28t-71 -70t-40 -91t-12.5 -91q0 -72 37.5 -108.5t100.5 -36.5q58 0 101 26t71.5 66.5t42 90.5t13.5 97q0 74 -38 109.5t-100 35.5z" />
    <glyph glyph-name="h" unicode="h" horiz-adv-x="553" 
d="M352 489q-29 0 -60 -11.5t-57.5 -33.5t-47 -53t-28.5 -70l-68 -321h-54l153 720h54l-62 -286q36 50 86 75.5t101 25.5q70 0 110.5 -35.5t40.5 -101.5q0 -11 -1 -22t-4 -25l-74 -351h-54l74 352l3 21q2 9 2 19q0 47 -29 72t-85 25z" />
    <glyph glyph-name="i" unicode="i" horiz-adv-x="207" 
d="M168 646l16 74h65l-17 -74h-64zM36 0l110 520h54l-110 -520h-54z" />
    <glyph glyph-name="j" unicode="j" horiz-adv-x="207" 
d="M-122 -135q17 -7 33 -10t28 -3q32 0 52.5 18t30.5 63l124 587h54l-126 -593q-26 -122 -131 -122q-19 0 -37.5 3.5t-36.5 12.5zM167 646l16 74h65l-16 -74h-65z" />
    <glyph glyph-name="k" unicode="k" horiz-adv-x="488" 
d="M37 0l153 720h54l-88 -412l291 212h76l-318 -232l241 -288h-67l-230 275l-58 -275h-54z" />
    <glyph glyph-name="l" unicode="l" horiz-adv-x="208" 
d="M91 0h-54l153 720h54z" />
    <glyph glyph-name="m" unicode="m" horiz-adv-x="853" 
d="M37 0l110 520h45l-11 -81q37 51 83 73.5t91 22.5q59 0 94.5 -26t41.5 -77q39 55 90 79t99 24q66 0 104 -33t38 -96q0 -23 -6 -50l-75 -356h-54l74 354q2 13 4 24t2 22q0 46 -26 67.5t-75 21.5q-32 0 -62 -12.5t-54 -34.5t-41.5 -52t-24.5 -65l-68 -325h-54l75 354
q2 13 3.5 24t1.5 22q0 46 -25.5 67.5t-73.5 21.5q-32 0 -62 -13t-55 -35.5t-42.5 -52.5t-24.5 -65l-68 -323h-54z" />
    <glyph glyph-name="n" unicode="n" horiz-adv-x="553" 
d="M369 535q70 0 110.5 -35.5t40.5 -101.5q0 -11 -1.5 -23t-3.5 -24l-74 -351h-54l74 352l3 21q2 9 2 19q0 47 -29 72t-85 25q-29 0 -60 -11.5t-58 -33t-47 -52.5t-28 -69l-68 -323h-54l110 520h45l-12 -89q37 51 87.5 77.5t101.5 26.5z" />
    <glyph glyph-name="o" unicode="o" horiz-adv-x="573" 
d="M53 186q0 30 6.5 67.5t20.5 76t37 75.5t56.5 66t78 46.5t102.5 17.5q88 0 142.5 -51t54.5 -149q0 -30 -6.5 -67.5t-20.5 -76.5t-37 -76t-56.5 -66t-78 -46.5t-101.5 -17.5q-44 0 -80.5 13.5t-62.5 39t-40.5 63t-14.5 85.5zM351 491q-47 0 -83 -16t-63 -42t-45.5 -59
t-29.5 -67t-16 -66t-5 -56q0 -78 39.5 -117t105.5 -39q46 0 81.5 16t62.5 42t45.5 59t30 67t16.5 66t5 56q0 78 -38.5 117t-105.5 39z" />
    <glyph glyph-name="p" unicode="p" horiz-adv-x="580" 
d="M380 535q40 0 72.5 -12t56 -36t36.5 -59.5t13 -81.5q0 -32 -6.5 -71t-20.5 -79.5t-36.5 -78t-54.5 -67t-74 -47.5t-96 -18q-63 0 -104.5 33t-54.5 81l-59 -279h-54l149 700h44l-12 -97q34 49 84.5 80.5t116.5 31.5zM266 30q63 0 107.5 34t73 83t42 103t13.5 94
q0 75 -37 110t-98 35q-54 0 -97.5 -27t-74 -70.5t-47.5 -98.5t-17 -112q0 -75 37 -113t98 -38z" />
    <glyph glyph-name="q" unicode="q" horiz-adv-x="580" 
d="M229 -15q-38 0 -70.5 12.5t-56.5 36.5t-37.5 60t-13.5 84q0 30 6 68t20 77.5t36 77.5t54 68t74 48t96 18q63 0 105.5 -32t56.5 -83l30 100h44l-149 -700h-54q14 69 29 137.5t30 137.5q-35 -49 -85.5 -79.5t-114.5 -30.5zM342 489q-43 0 -77.5 -15.5t-60.5 -41.5
t-44.5 -59t-30 -67t-17 -67.5t-5.5 -59.5q0 -76 38 -112.5t99 -36.5q57 0 100.5 29t73 74t44.5 99.5t15 105.5q0 75 -37 113t-98 38z" />
    <glyph glyph-name="r" unicode="r" horiz-adv-x="341" 
d="M37 0l110 520h44l-13 -100q33 60 74.5 87.5t89.5 27.5q15 0 30 -2.5t29 -7.5l-12 -52q-14 5 -27 7.5t-28 2.5q-29 0 -57.5 -13.5t-53 -39t-43.5 -62.5t-29 -84l-60 -284h-54z" />
    <glyph glyph-name="s" unicode="s" horiz-adv-x="494" 
d="M213 29q33 0 63.5 8.5t54 25t38 40.5t14.5 56q0 21 -9 35.5t-27 25t-45.5 18t-64.5 14.5q-68 12 -105.5 43.5t-37.5 82.5q0 30 12.5 58.5t38 50t65.5 35t96 13.5q83 0 130.5 -39t47.5 -105h-54v7q-1 41 -33.5 67t-95.5 26q-41 0 -69.5 -9t-46.5 -25t-26.5 -36.5
t-8.5 -42.5q0 -32 27.5 -51t97.5 -32q87 -16 126.5 -48.5t39.5 -83.5q0 -32 -13.5 -64t-41.5 -57.5t-72 -41t-104 -15.5q-88 0 -135.5 39t-47.5 99v5q0 4 1 9h53q-1 -6 -1 -10v-5q0 -42 33.5 -67.5t99.5 -25.5z" />
    <glyph glyph-name="t" unicode="t" horiz-adv-x="302" 
d="M211 473l-77 -364q-2 -7 -3.5 -17t-1.5 -15q0 -25 15.5 -35.5t41.5 -10.5q14 0 29 2.5t36 8.5l-11 -46q-36 -11 -64 -11q-54 0 -77 24t-23 69q0 12 3 27.5t7 32.5l71 335h-75l10 47h75l30 125h51l-27 -125h121l-10 -47h-121z" />
    <glyph glyph-name="u" unicode="u" horiz-adv-x="548" 
d="M196 520l-71 -337q-5 -25 -7 -36.5t-2 -21.5q0 -48 29 -71t83 -23q34 0 65.5 13t57 36t43.5 54t26 67l67 319h54l-110 -520h-44l10 83q-38 -51 -87 -74.5t-98 -23.5q-66 0 -108 34t-42 102q0 23 6 50l74 349h54z" />
    <glyph glyph-name="v" unicode="v" horiz-adv-x="497" 
d="M550 520l-305 -520h-73l-85 520h56l73 -475l275 475h59z" />
    <glyph glyph-name="w" unicode="w" horiz-adv-x="769" 
d="M817 520l-260 -520h-65l-47 465l-237 -465h-67l-49 520h52l40 -465l237 465h68l44 -463l228 463h56z" />
    <glyph glyph-name="x" unicode="x" horiz-adv-x="511" 
d="M303 274l151 -274h-61l-129 235l-218 -235h-69l258 274l-138 246h61l117 -207l191 207h68z" />
    <glyph glyph-name="y" unicode="y" horiz-adv-x="497" 
d="M256 -4q-30 -53 -51.5 -89.5t-41 -59t-39.5 -32.5t-48 -10q-14 0 -30 3.5t-28 8.5l10 43q12 -5 25 -7.5t24 -2.5q16 0 29 7.5t26.5 25t30 46.5t39.5 71h-18l-97 520h54l86 -478l265 478h58z" />
    <glyph glyph-name="z" unicode="z" horiz-adv-x="479" 
d="M75 46h336l-9 -46h-405l11 52l428 422h-324l10 46h390l-11 -54z" />
    <glyph glyph-name="braceleft" unicode="{" horiz-adv-x="340" 
d="M86 356q41 0 72.5 25t42.5 73l47 222q7 34 20.5 59.5t34.5 42t51.5 24.5t71.5 8l-10 -46q-30 0 -50 -6t-33 -18t-20.5 -29.5t-12.5 -39.5l-46 -215q-11 -54 -43 -86.5t-74 -42.5q31 -8 49 -31t18 -61q0 -8 -1.5 -16.5t-3.5 -21.5l-46 -218q-3 -16 -4.5 -26t-1.5 -18
q0 -28 17.5 -43t63.5 -15l-10 -45q-66 0 -94.5 27t-28.5 75q0 14 2.5 29.5t5.5 29.5l45 212q3 18 3 31q0 35 -20.5 52t-55.5 17z" />
    <glyph glyph-name="bar" unicode="|" horiz-adv-x="346" 
d="M324 785l-196 -925h-50l196 925h50z" />
    <glyph glyph-name="braceright" unicode="}" horiz-adv-x="340" 
d="M309 286q-41 0 -72.5 -25t-42.5 -73l-47 -222q-15 -69 -55.5 -101.5t-122.5 -32.5l10 46q30 0 50 6t33 18t20.5 29t12.5 40l46 215q11 54 43 86.5t74 42.5q-31 8 -49 31t-18 61q0 8 1.5 16.5t3.5 21.5l46 218q6 31 6 44q0 28 -17.5 43t-63.5 15l10 45q66 0 94.5 -27
t28.5 -75q0 -14 -2.5 -29.5t-5.5 -29.5l-45 -212q-3 -18 -3 -31q0 -35 20.5 -52t55.5 -17z" />
    <glyph glyph-name="asciitilde" unicode="~" 
d="M240 331q-32 0 -63 -15t-60 -37l11 58q24 16 54 29t65 13q31 0 52 -9t39 -20t36 -20t43 -9q32 0 63.5 14.5t60.5 36.5l-12 -58q-23 -15 -53 -28t-65 -13q-31 0 -52 9t-39 20t-36.5 20t-43.5 9z" />
    <glyph glyph-name="uni00A0" unicode="&#xa0;" horiz-adv-x="300" 
 />
    <glyph glyph-name="exclamdown" unicode="&#xa1;" horiz-adv-x="260" 
d="M240 540l-16 -80h-72l16 80h72zM179 314l-99 -494h-62l111 494h50z" />
    <glyph glyph-name="cent" unicode="&#xa2;" 
d="M509 153q-12 -35 -34 -64.5t-51.5 -51.5t-66 -35.5t-78.5 -15.5l-25 -121h-51l26 123q-69 9 -111 58t-42 135q0 49 14.5 108t47 111t83.5 89.5t124 43.5l27 127h51l-27 -128q72 -8 114 -50t42 -107h-58q0 53 -32 83.5t-95 30.5t-107.5 -32t-73.5 -79t-42.5 -100.5
t-13.5 -96.5q0 -38 11 -66t30 -47t44.5 -28t54.5 -9q30 0 58 9t52 25t42 38.5t29 49.5h58z" />
    <glyph glyph-name="sterling" unicode="&#xa3;" 
d="M435 327h-214l-29 -133q-5 -23 -10 -43t-13.5 -37.5t-22.5 -33.5t-37 -31h382l-10 -49h-454l10 49q32 11 56.5 32.5t32.5 55.5l42 190h-45l10 46h45l33 154q20 94 78 141t142 47q36 0 66 -10.5t52.5 -29.5t35.5 -46t13 -60h-53q-2 45 -32.5 72.5t-84.5 27.5
q-66 0 -108 -38t-57 -108l-32 -150h214z" />
    <glyph glyph-name="currency" unicode="&#xa4;" 
d="M333 155q36 0 67.5 13.5t55.5 38t38 58.5t14 75t-14 75t-38 58.5t-55.5 38t-67.5 13.5t-68.5 -13.5t-56.5 -38t-38 -58.5t-14 -75t14 -75t38 -58.5t56.5 -38t68.5 -13.5zM332 108q-36 0 -75 12.5t-71 38.5l-64 -64l-37 37l65 66q-21 26 -33.5 61.5t-12.5 80.5
q0 44 12.5 78.5t32.5 61.5l-64 64l37 37l62 -63q32 27 71.5 40.5t76.5 13.5t76.5 -14t71.5 -41l63 64l38 -37l-65 -65q20 -27 32 -61.5t12 -77.5q0 -45 -12.5 -80t-32.5 -62l66 -66l-37 -37l-66 65q-32 -26 -71 -39t-75 -13z" />
    <glyph glyph-name="yen" unicode="&#xa5;" 
d="M480 144h-149l-30 -144h-56l30 144h-148l10 44h148l20 94h-148l10 45h122l-156 373h58l150 -366l308 366h61l-313 -373h123l-10 -45h-149l-20 -94h149z" />
    <glyph glyph-name="brokenbar" unicode="&#xa6;" horiz-adv-x="346" 
d="M324 785l-81 -385h-49l80 385h50zM210 245l-82 -385h-50l82 385h50z" />
    <glyph glyph-name="section" unicode="&#xa7;" 
d="M535 329q0 -60 -42 -100.5t-117 -63.5q31 -17 47.5 -40t16.5 -55q0 -30 -12 -59t-37 -51.5t-63 -36t-89 -13.5q-75 0 -118 34t-46 84h56q5 -37 36 -56t77 -19q38 0 65 10.5t44 27t24.5 36t7.5 37.5q0 35 -28 55.5t-82 37.5q-81 26 -120 58t-39 80q0 60 42 100.5t117 62.5
q-31 18 -47 41t-16 55q0 30 12 59t37 51.5t63 36.5t89 14q75 0 117 -34t46 -84h-57q-4 37 -34.5 55.5t-76.5 18.5q-38 0 -65 -10.5t-44 -27t-25 -36t-8 -37.5q0 -35 29 -55t82 -37q81 -26 119.5 -58.5t38.5 -80.5zM318 438q-41 -14 -69 -27.5t-45 -29.5t-24.5 -35t-7.5 -43
q0 -19 8 -33.5t24.5 -27t42 -24t61.5 -23.5l26 -9q41 13 69 27t45 30.5t24.5 35.5t7.5 43q0 38 -32.5 60.5t-103.5 46.5z" />
    <glyph glyph-name="dieresis" unicode="&#xa8;" horiz-adv-x="376" 
d="M148 650l16 70h63l-15 -70h-64zM353 650l16 70h63l-15 -70h-64z" />
    <glyph glyph-name="copyright" unicode="&#xa9;" horiz-adv-x="855" 
d="M832 360q0 -98 -32.5 -169t-84.5 -117t-118 -67.5t-133 -21.5t-133 21.5t-118 67.5t-84.5 117t-32.5 169t32.5 169t84.5 116.5t118 67.5t133 22t133 -22t118 -67.5t84.5 -116.5t32.5 -169zM784 360q0 87 -27.5 150t-72.5 104t-102.5 60.5t-117.5 19.5t-118 -19.5
t-103 -60.5t-72.5 -104t-27.5 -150t27.5 -150t72.5 -104t103 -60.5t118 -19.5t117.5 19.5t102.5 60.5t72.5 104t27.5 150zM630 283q-10 -55 -53.5 -92t-112.5 -37q-34 0 -66.5 12t-57.5 37.5t-40 64t-15 92.5q0 55 15 95t40 66.5t57 39t67 12.5q64 0 108.5 -33t54.5 -90h-49
q-8 39 -38 61t-75 22q-27 0 -51 -10.5t-42 -31.5t-28.5 -53.5t-10.5 -77.5t11 -76.5t29.5 -51.5t42.5 -29t49 -9q48 0 78.5 25.5t37.5 63.5h49z" />
    <glyph glyph-name="ordfeminine" unicode="&#xaa;" horiz-adv-x="458" 
d="M177 630q16 50 62.5 77t102.5 27t90.5 -27.5t34.5 -75.5q0 -16 -3 -31l-63 -294h-37l5 61q-23 -29 -58 -49.5t-81 -20.5q-23 0 -43.5 6.5t-36 18.5t-24.5 30t-9 42q0 40 15.5 67.5t41.5 45.5t60 28t72 16l102 16q4 15 7.5 32.5t3.5 30.5q0 30 -20 47.5t-63 17.5
q-38 0 -68.5 -17t-41.5 -48h-49zM399 526l-96 -15q-29 -5 -53.5 -12.5t-43 -21t-29 -32.5t-10.5 -46q0 -30 20.5 -45.5t57.5 -15.5q24 0 46.5 9.5t41.5 25t32 35.5t18 41zM353 0h-329l11 49h328z" />
    <glyph glyph-name="guillemotleft" unicode="&#xab;" horiz-adv-x="474" 
d="M89 315l162 205h44l-142 -207l41 -223h-40zM275 315l162 205h44l-142 -207l41 -223h-40z" />
    <glyph glyph-name="logicalnot" unicode="&#xac;" 
d="M536 346l-49 -227h-53l38 178h-353l11 49h406z" />
    <glyph glyph-name="uni00AD" unicode="&#xad;" horiz-adv-x="540" 
d="M465 297h-346l11 49h346z" />
    <glyph glyph-name="registered" unicode="&#xae;" horiz-adv-x="623" 
d="M375 254q-41 0 -83 14t-76.5 43t-56.5 74t-22 108t22 108t56.5 74t76.5 42.5t83 13.5q40 0 82.5 -13.5t77 -42.5t56.5 -74t22 -108t-22 -108t-56.5 -74t-77 -43t-82.5 -14zM375 288q37 0 73 12.5t64 38t45 64t17 90.5t-17 90.5t-45 64t-64 38t-73 12.5q-38 0 -73.5 -12.5
t-64 -38t-45.5 -64t-17 -90.5t17 -90.5t45.5 -64t64 -38t73.5 -12.5zM438 366l-58 101h-47v-101h-33v257h76q38 0 64.5 -18t26.5 -57q0 -24 -12.5 -44t-40.5 -30l63 -108h-39zM333 596v-101h46q26 0 39.5 16.5t13.5 36.5t-13 34t-43 14h-43z" />
    <glyph glyph-name="macron" unicode="&#xaf;" horiz-adv-x="302" 
d="M128 653l10 47h242l-10 -47h-242z" />
    <glyph glyph-name="degree" unicode="&#xb0;" horiz-adv-x="558" 
d="M300 670q-29 0 -51.5 -11t-38 -30t-24 -43.5t-8.5 -51.5q0 -48 27 -74t70 -26q28 0 50.5 10.5t38.5 29t24.5 43t8.5 52.5q0 48 -27.5 74.5t-69.5 26.5zM447 572q0 -35 -12 -67.5t-34.5 -57.5t-54.5 -40t-73 -15q-29 0 -55 9t-46 26.5t-32 43.5t-12 60q0 37 12.5 70
t35 57.5t54.5 39t72 14.5q29 0 55 -9t46 -27t32 -44t12 -60z" />
    <glyph glyph-name="plusminus" unicode="&#xb1;" 
d="M397 525l-38 -179h177l-11 -49h-177l-33 -159h-53l33 159h-176l11 49h176l38 179h53zM463 0h-406l10 49h406z" />
    <glyph glyph-name="twosuperior" unicode="&#xb2;" horiz-adv-x="406" 
d="M116 624q19 57 66 89t111 32q57 0 92 -26.5t35 -74.5q0 -23 -6.5 -43.5t-23 -42.5t-44.5 -47.5t-71 -58.5l-145 -111h225l-10 -47h-292l9 47l190 149q32 26 54 46t35.5 37t19.5 32.5t6 32.5q0 29 -19.5 46t-58.5 17q-45 0 -76 -20.5t-44 -56.5h-53z" />
    <glyph glyph-name="threesuperior" unicode="&#xb3;" horiz-adv-x="423" 
d="M297 745q27 0 51 -5.5t41.5 -17t28 -29t10.5 -41.5q0 -19 -6 -38.5t-19.5 -36.5t-35 -30t-52.5 -19q35 -5 57.5 -27t22.5 -59q0 -26 -9.5 -53.5t-31.5 -50.5t-56.5 -38t-83.5 -15q-69 0 -107.5 31t-36.5 84h52q2 -35 24 -53.5t69 -18.5q35 0 59.5 10.5t39.5 26.5t21.5 36
t6.5 38q0 34 -23 50t-59 16h-44l9 42h44q26 0 46 9t33 23t19.5 31.5t6.5 34.5q0 29 -21.5 42.5t-58.5 13.5q-45 0 -73.5 -18t-42.5 -50h-51q19 51 61.5 81.5t108.5 30.5z" />
    <glyph glyph-name="acute" unicode="&#xb4;" horiz-adv-x="237" 
d="M247 735h78l-157 -137h-53z" />
    <glyph glyph-name="mu" unicode="&#xb5;" horiz-adv-x="553" 
d="M124 162q-5 -25 -5 -39q0 -46 30 -69.5t84 -23.5q34 0 65.5 13t57 36t43 54t25.5 67l68 320h54l-110 -520h-45l10 83q-37 -51 -85.5 -74.5t-97.5 -23.5q-85 0 -119 60l-47 -225h-54l149 700h54z" />
    <glyph glyph-name="paragraph" unicode="&#xb6;" horiz-adv-x="565" 
d="M143 -180l121 569q-17 0 -38 7t-40 22t-32 39t-13 59q0 39 14.5 75.5t40 65t61.5 46t78 17.5h50l-192 -900h-50zM578 720l-192 -900h-50l192 900h50z" />
    <glyph glyph-name="periodcentered" unicode="&#xb7;" horiz-adv-x="285" 
d="M125 280l17 80h73l-17 -80h-73z" />
    <glyph glyph-name="cedilla" unicode="&#xb8;" horiz-adv-x="288" 
d="M191 -129q0 -20 -8.5 -40t-25 -36t-41.5 -26t-57 -10q-46 0 -74.5 22.5t-28.5 65.5h43v-4q0 -45 64 -45q34 0 58 20.5t24 50.5q0 23 -22 36.5t-75 13.5l29 97h40l-15 -65q45 -5 67 -27.5t22 -52.5z" />
    <glyph glyph-name="onesuperior" unicode="&#xb9;" horiz-adv-x="237" 
d="M179 294h-53l83 389l-118 -55l11 50l121 57h50z" />
    <glyph glyph-name="ordmasculine" unicode="&#xba;" horiz-adv-x="419" 
d="M317 694q-47 0 -78.5 -28t-51 -68t-27.5 -82.5t-8 -72.5q0 -57 25.5 -81.5t63.5 -24.5q48 0 79.5 28t50.5 67.5t27 82.5t8 73q0 57 -25 81.5t-64 24.5zM238 297q-29 0 -54 8.5t-43 26t-28.5 44.5t-10.5 65q0 23 4 54t14 63.5t26 64t40.5 56.5t58 40t77.5 15
q58 0 95.5 -34.5t37.5 -109.5q0 -24 -4 -54.5t-13.5 -63t-25 -64t-40 -56.5t-57.5 -40t-77 -15zM324 0h-320l10 49h320z" />
    <glyph glyph-name="guillemotright" unicode="&#xbb;" horiz-adv-x="474" 
d="M96 90h-44l135 223l-54 207h40l78 -205zM282 90h-44l135 223l-54 207h40l78 -205z" />
    <glyph glyph-name="onequarter" unicode="&#xbc;" horiz-adv-x="798" 
d="M90 -93l599 880h57l-600 -880h-56zM205 294h-53l83 389l-118 -55l11 50l121 57h50zM720 127h68l-8 -43h-69l-18 -83h-47l18 83h-209l10 49l269 309h53zM508 127h165l52 244z" />
    <glyph glyph-name="onehalf" unicode="&#xbd;" horiz-adv-x="881" 
d="M90 -93l599 880h57l-600 -880h-56zM205 294h-53l83 389l-118 -55l11 50l121 57h50zM567 331q19 57 66 89t111 32q57 0 92 -26.5t35 -74.5q0 -23 -6.5 -43.5t-23 -42.5t-44.5 -47.5t-71 -58.5l-145 -111h225l-10 -47h-292l9 47l190 149q32 26 54 46t35.5 37t19.5 32.5
t6 32.5q0 29 -19.5 46t-58.5 17q-45 0 -76 -20.5t-44 -56.5h-53z" />
    <glyph glyph-name="threequarters" unicode="&#xbe;" horiz-adv-x="943" 
d="M235 -93l599 880h57l-600 -880h-56zM318 745q27 0 51 -5.5t41.5 -17t28 -29t10.5 -41.5q0 -19 -6 -38.5t-19.5 -36.5t-35 -30t-52.5 -19q35 -5 57.5 -27t22.5 -59q0 -26 -9.5 -53.5t-31.5 -50.5t-56.5 -38t-83.5 -15q-69 0 -107.5 31t-36.5 84h52q2 -35 24 -53.5
t69 -18.5q35 0 59.5 10.5t39.5 26.5t21.5 36t6.5 38q0 34 -23 50t-59 16h-44l9 42h44q26 0 46 9t33 23t19.5 31.5t6.5 34.5q0 29 -21.5 42.5t-58.5 13.5q-45 0 -73.5 -18t-42.5 -50h-51q19 51 61.5 81.5t108.5 30.5zM865 127h68l-8 -43h-69l-18 -83h-47l18 83h-209l10 49
l269 309h53zM653 127h165l52 244z" />
    <glyph glyph-name="questiondown" unicode="&#xbf;" horiz-adv-x="520" 
d="M420 -21q-14 -38 -37 -70t-54.5 -55t-71.5 -36t-87 -13q-45 0 -78 11.5t-55.5 32t-33.5 47.5t-11 58q0 33 11.5 60.5t33.5 53t54.5 51t73.5 54.5q25 18 41 32.5t26.5 32.5t17.5 41t15 58h54q-9 -41 -18.5 -70t-23.5 -51.5t-35.5 -42t-54.5 -43.5q-36 -26 -62.5 -47.5
t-44 -42t-26 -42.5t-8.5 -48q0 -41 32.5 -69.5t95.5 -28.5q66 0 115.5 35t72.5 92h58zM370 540l-16 -80h-73l8 40q4 20 9 40h72z" />
    <glyph glyph-name="Agrave" unicode="&#xc0;" horiz-adv-x="661" 
d="M555 0l-37 204h-364l-124 -204h-63l442 720h70l135 -720h-59zM182 251h328l-75 415zM505 768h-47l-99 137h72z" />
    <glyph glyph-name="Aacute" unicode="&#xc1;" horiz-adv-x="661" 
d="M555 0l-37 204h-364l-124 -204h-63l442 720h70l135 -720h-59zM182 251h328l-75 415zM519 905h78l-157 -137h-53z" />
    <glyph glyph-name="Acircumflex" unicode="&#xc2;" horiz-adv-x="661" 
d="M555 0l-37 204h-364l-124 -204h-63l442 720h70l135 -720h-59zM182 251h328l-75 415zM589 768h-52l-64 104l-107 -104h-58l137 137h66z" />
    <glyph glyph-name="Atilde" unicode="&#xc3;" horiz-adv-x="661" 
d="M555 0l-37 204h-364l-124 -204h-63l442 720h70l135 -720h-59zM182 251h328l-75 415zM512 796q-21 0 -33.5 5.5t-23 11.5t-21 11.5t-27.5 5.5q-18 0 -38.5 -9.5t-46.5 -26.5l11 51q24 16 41.5 23.5t40.5 7.5q21 0 33.5 -5.5t23 -11.5t21 -11.5t27.5 -5.5q18 0 38 9.5
t46 26.5l-11 -52q-23 -15 -40.5 -22.5t-40.5 -7.5z" />
    <glyph glyph-name="Adieresis" unicode="&#xc4;" horiz-adv-x="661" 
d="M555 0l-37 204h-364l-124 -204h-63l442 720h70l135 -720h-59zM182 251h328l-75 415zM325 820l16 70h63l-15 -70h-64zM530 820l16 70h63l-15 -70h-64z" />
    <glyph glyph-name="Aring" unicode="&#xc5;" horiz-adv-x="661" 
d="M555 0l-37 204h-364l-124 -204h-63l430 701q-27 12 -42.5 36.5t-15.5 56.5q0 24 9 47t25.5 41.5t41 29.5t56.5 11q51 0 80.5 -29t29.5 -74q0 -42 -25 -78t-73 -47l131 -695h-59zM182 251h328l-75 415zM451 726q42 0 64.5 27.5t22.5 65.5q0 33 -19.5 50.5t-49.5 17.5
q-42 0 -64.5 -27t-22.5 -65q0 -33 19.5 -51t49.5 -18z" />
    <glyph glyph-name="AE" unicode="&#xc6;" horiz-adv-x="935" 
d="M191 203l-164 -203h-67l585 720h446l-11 -49h-349l-60 -281h320l-10 -48h-321l-62 -294h350l-10 -48h-406l43 203h-284zM229 251h256l89 425z" />
    <glyph glyph-name="Ccedilla" unicode="&#xc7;" horiz-adv-x="719" 
d="M481 686q-63 0 -113 -21t-89 -55.5t-66 -79t-45 -91.5t-26 -93t-8 -83q0 -108 56.5 -169t152.5 -61q49 0 93.5 14t80.5 41t63.5 65t43.5 86h57q-15 -52 -45 -97t-71 -78.5t-93.5 -54t-112.5 -23.5l-8 -35q45 -5 66.5 -27.5t21.5 -52.5q0 -20 -8.5 -40t-25 -36t-41 -26
t-56.5 -10q-46 0 -75 23t-29 65h43v-5q0 -21 17 -32.5t48 -11.5q34 0 58 20.5t24 50.5q0 23 -22 36.5t-75 13.5l19 68q-56 3 -100.5 23.5t-75.5 56t-47.5 84t-16.5 108.5q0 44 9.5 96.5t30.5 105.5t53.5 102t78 87.5t105 61.5t133.5 23q57 0 103.5 -15t79 -44t50.5 -70.5
t18 -94.5v-8h-56v6q0 91 -51.5 134t-148.5 43z" />
    <glyph glyph-name="Egrave" unicode="&#xc8;" horiz-adv-x="565" 
d="M511 342h-340l-62 -293h369l-10 -49h-426l153 720h426l-11 -49h-369l-60 -281h340zM475 768h-47l-99 137h72z" />
    <glyph glyph-name="Eacute" unicode="&#xc9;" horiz-adv-x="565" 
d="M511 342h-340l-62 -293h369l-10 -49h-426l153 720h426l-11 -49h-369l-60 -281h340zM484 905h78l-157 -137h-53z" />
    <glyph glyph-name="Ecircumflex" unicode="&#xca;" horiz-adv-x="565" 
d="M511 342h-340l-62 -293h369l-10 -49h-426l153 720h426l-11 -49h-369l-60 -281h340zM555 768h-52l-64 104l-107 -104h-58l137 137h66z" />
    <glyph glyph-name="Edieresis" unicode="&#xcb;" horiz-adv-x="565" 
d="M511 342h-340l-62 -293h369l-10 -49h-426l153 720h426l-11 -49h-369l-60 -281h340zM282 820l16 70h63l-15 -70h-64zM487 820l16 70h63l-15 -70h-64z" />
    <glyph glyph-name="Igrave" unicode="&#xcc;" horiz-adv-x="220" 
d="M251 720l-153 -720h-56l153 720h56zM284 768h-47l-99 137h72z" />
    <glyph glyph-name="Iacute" unicode="&#xcd;" horiz-adv-x="220" 
d="M251 720l-153 -720h-56l153 720h56zM301 905h78l-157 -137h-53z" />
    <glyph glyph-name="Icircumflex" unicode="&#xce;" horiz-adv-x="220" 
d="M251 720l-153 -720h-56l153 720h56zM369 768h-52l-64 104l-107 -104h-58l137 137h66z" />
    <glyph glyph-name="Idieresis" unicode="&#xcf;" horiz-adv-x="220" 
d="M251 720l-153 -720h-56l153 720h56zM103 820l16 70h63l-15 -70h-64zM308 820l16 70h63l-15 -70h-64z" />
    <glyph glyph-name="Eth" unicode="&#xd0;" horiz-adv-x="684" 
d="M388 720q66 0 119.5 -17t91.5 -51t58.5 -83.5t20.5 -113.5q0 -53 -11.5 -107.5t-34.5 -105t-58 -94.5t-82 -77t-106.5 -52t-132.5 -19h-211l75 354h-58l11 49h57l68 317h193zM241 673l-57 -270h227l-10 -49h-228l-65 -306h151q65 0 117.5 18.5t93 50t69 72.5t47 86t27 91
t8.5 86q0 109 -63 165t-168 56h-149z" />
    <glyph glyph-name="Ntilde" unicode="&#xd1;" horiz-adv-x="712" 
d="M743 720l-153 -720h-61l-297 648l-137 -648h-53l153 720h65l294 -644l137 644h52zM541 796q-21 0 -33.5 5.5t-23 11.5t-21 11.5t-27.5 5.5q-18 0 -38.5 -9.5t-46.5 -26.5l11 51q24 16 41.5 23.5t40.5 7.5q21 0 33.5 -5.5t23 -11.5t21 -11.5t27.5 -5.5q18 0 38 9.5
t46 26.5l-11 -52q-23 -15 -40.5 -22.5t-40.5 -7.5z" />
    <glyph glyph-name="Ograve" unicode="&#xd2;" horiz-adv-x="753" 
d="M343 33q66 0 117 21.5t90 57.5t65.5 81.5t43.5 93t24.5 93.5t7.5 82q0 55 -15 97t-43 70.5t-66.5 43t-84.5 14.5q-66 0 -117.5 -21.5t-90.5 -57.5t-65.5 -81.5t-43 -93t-24 -93.5t-7.5 -82q0 -111 57 -168t152 -57zM340 -15q-58 0 -106.5 18t-83 53t-54 86t-19.5 117
q0 42 9 94t28.5 104.5t51.5 102.5t77.5 89t105.5 62.5t137 23.5q57 0 105 -18t83 -52.5t54.5 -85.5t19.5 -118q0 -42 -9 -93.5t-29 -104.5t-51.5 -103t-77 -89t-105.5 -62.5t-136 -23.5zM539 768h-47l-99 137h72z" />
    <glyph glyph-name="Oacute" unicode="&#xd3;" horiz-adv-x="753" 
d="M343 33q66 0 117 21.5t90 57.5t65.5 81.5t43.5 93t24.5 93.5t7.5 82q0 55 -15 97t-43 70.5t-66.5 43t-84.5 14.5q-66 0 -117.5 -21.5t-90.5 -57.5t-65.5 -81.5t-43 -93t-24 -93.5t-7.5 -82q0 -111 57 -168t152 -57zM340 -15q-58 0 -106.5 18t-83 53t-54 86t-19.5 117
q0 42 9 94t28.5 104.5t51.5 102.5t77.5 89t105.5 62.5t137 23.5q57 0 105 -18t83 -52.5t54.5 -85.5t19.5 -118q0 -42 -9 -93.5t-29 -104.5t-51.5 -103t-77 -89t-105.5 -62.5t-136 -23.5zM570 905h78l-157 -137h-53z" />
    <glyph glyph-name="Ocircumflex" unicode="&#xd4;" horiz-adv-x="753" 
d="M343 33q66 0 117 21.5t90 57.5t65.5 81.5t43.5 93t24.5 93.5t7.5 82q0 55 -15 97t-43 70.5t-66.5 43t-84.5 14.5q-66 0 -117.5 -21.5t-90.5 -57.5t-65.5 -81.5t-43 -93t-24 -93.5t-7.5 -82q0 -111 57 -168t152 -57zM340 -15q-58 0 -106.5 18t-83 53t-54 86t-19.5 117
q0 42 9 94t28.5 104.5t51.5 102.5t77.5 89t105.5 62.5t137 23.5q57 0 105 -18t83 -52.5t54.5 -85.5t19.5 -118q0 -42 -9 -93.5t-29 -104.5t-51.5 -103t-77 -89t-105.5 -62.5t-136 -23.5zM634 768h-52l-64 104l-107 -104h-58l137 137h66z" />
    <glyph glyph-name="Otilde" unicode="&#xd5;" horiz-adv-x="753" 
d="M343 33q66 0 117 21.5t90 57.5t65.5 81.5t43.5 93t24.5 93.5t7.5 82q0 55 -15 97t-43 70.5t-66.5 43t-84.5 14.5q-66 0 -117.5 -21.5t-90.5 -57.5t-65.5 -81.5t-43 -93t-24 -93.5t-7.5 -82q0 -111 57 -168t152 -57zM340 -15q-58 0 -106.5 18t-83 53t-54 86t-19.5 117
q0 42 9 94t28.5 104.5t51.5 102.5t77.5 89t105.5 62.5t137 23.5q57 0 105 -18t83 -52.5t54.5 -85.5t19.5 -118q0 -42 -9 -93.5t-29 -104.5t-51.5 -103t-77 -89t-105.5 -62.5t-136 -23.5zM559 796q-21 0 -33.5 5.5t-23 11.5t-21 11.5t-27.5 5.5q-18 0 -38.5 -9.5t-46.5 -26.5
l11 51q24 16 41.5 23.5t40.5 7.5q21 0 33.5 -5.5t23 -11.5t21 -11.5t27.5 -5.5q18 0 38 9.5t46 26.5l-11 -52q-23 -15 -40.5 -22.5t-40.5 -7.5z" />
    <glyph glyph-name="Odieresis" unicode="&#xd6;" horiz-adv-x="753" 
d="M343 33q66 0 117 21.5t90 57.5t65.5 81.5t43.5 93t24.5 93.5t7.5 82q0 55 -15 97t-43 70.5t-66.5 43t-84.5 14.5q-66 0 -117.5 -21.5t-90.5 -57.5t-65.5 -81.5t-43 -93t-24 -93.5t-7.5 -82q0 -111 57 -168t152 -57zM340 -15q-58 0 -106.5 18t-83 53t-54 86t-19.5 117
q0 42 9 94t28.5 104.5t51.5 102.5t77.5 89t105.5 62.5t137 23.5q57 0 105 -18t83 -52.5t54.5 -85.5t19.5 -118q0 -42 -9 -93.5t-29 -104.5t-51.5 -103t-77 -89t-105.5 -62.5t-136 -23.5zM369 820l16 70h63l-15 -70h-64zM574 820l16 70h63l-15 -70h-64z" />
    <glyph glyph-name="multiply" unicode="&#xd7;" 
d="M234 483l100 -128l152 126l30 -37l-152 -125l98 -126l-40 -32l-99 127l-152 -126l-29 37l152 126l-100 125z" />
    <glyph glyph-name="Oslash" unicode="&#xd8;" horiz-adv-x="753" 
d="M340 -15q-60 0 -105 18l-65 -113h-56l77 133q-54 33 -84 92.5t-30 143.5q0 42 9 94t28.5 104.5t51.5 102.5t77.5 89t105.5 62.5t137 23.5q57 0 106 -20l61 105h56l-73 -126q52 -32 82 -90.5t30 -142.5q0 -42 -9 -93.5t-29 -104.5t-51.5 -103t-77 -89t-105.5 -62.5
t-136 -23.5zM343 33q66 0 117 21.5t90 57.5t65.5 81.5t43.5 93t24.5 93.5t7.5 82q0 66 -22 113.5t-61 74.5l-349 -603q39 -14 84 -14zM134 258q0 -69 22 -116.5t62 -73.5l349 604q-19 7 -40.5 11t-44.5 4q-66 0 -117.5 -21.5t-90.5 -57.5t-65.5 -81.5t-43 -93t-24 -93.5
t-7.5 -82z" />
    <glyph glyph-name="Ugrave" unicode="&#xd9;" horiz-adv-x="702" 
d="M313 -15q-56 0 -99 15t-72.5 42t-45 64t-15.5 80q0 27 6 56l103 478h55l-104 -487q-3 -12 -4 -23t-1 -22q0 -70 48.5 -112.5t133.5 -42.5q49 0 92 15t77.5 41.5t58.5 63t33 80.5l104 487h55l-105 -490q-11 -52 -38 -97t-67.5 -78t-94.5 -51.5t-120 -18.5zM534 768h-47
l-99 137h72z" />
    <glyph glyph-name="Uacute" unicode="&#xda;" horiz-adv-x="702" 
d="M313 -15q-56 0 -99 15t-72.5 42t-45 64t-15.5 80q0 27 6 56l103 478h55l-104 -487q-3 -12 -4 -23t-1 -22q0 -70 48.5 -112.5t133.5 -42.5q49 0 92 15t77.5 41.5t58.5 63t33 80.5l104 487h55l-105 -490q-11 -52 -38 -97t-67.5 -78t-94.5 -51.5t-120 -18.5zM541 905h78
l-157 -137h-53z" />
    <glyph glyph-name="Ucircumflex" unicode="&#xdb;" horiz-adv-x="702" 
d="M313 -15q-56 0 -99 15t-72.5 42t-45 64t-15.5 80q0 27 6 56l103 478h55l-104 -487q-3 -12 -4 -23t-1 -22q0 -70 48.5 -112.5t133.5 -42.5q49 0 92 15t77.5 41.5t58.5 63t33 80.5l104 487h55l-105 -490q-11 -52 -38 -97t-67.5 -78t-94.5 -51.5t-120 -18.5zM613 768h-52
l-64 104l-107 -104h-58l137 137h66z" />
    <glyph glyph-name="Udieresis" unicode="&#xdc;" horiz-adv-x="702" 
d="M313 -15q-56 0 -99 15t-72.5 42t-45 64t-15.5 80q0 27 6 56l103 478h55l-104 -487q-3 -12 -4 -23t-1 -22q0 -70 48.5 -112.5t133.5 -42.5q49 0 92 15t77.5 41.5t58.5 63t33 80.5l104 487h55l-105 -490q-11 -52 -38 -97t-67.5 -78t-94.5 -51.5t-120 -18.5zM344 820l16 70
h63l-15 -70h-64zM549 820l16 70h63l-15 -70h-64z" />
    <glyph glyph-name="Yacute" unicode="&#xdd;" horiz-adv-x="623" 
d="M178 720l159 -388l329 388h62l-370 -438l-59 -282h-57l60 283l-182 437h58zM512 905h78l-157 -137h-53z" />
    <glyph glyph-name="Thorn" unicode="&#xde;" horiz-adv-x="622" 
d="M402 592q106 0 161.5 -49t55.5 -130q0 -53 -19 -102t-57 -86.5t-94 -60t-130 -22.5h-191l-30 -142h-56l153 720h56l-28 -128h179zM214 544l-76 -354h182q54 0 98.5 16.5t76 45.5t49 69.5t17.5 88.5q0 63 -40.5 98.5t-117.5 35.5h-189z" />
    <glyph glyph-name="germandbls" unicode="&#xdf;" horiz-adv-x="562" 
d="M325 -15q-69 0 -108.5 31.5t-47.5 81.5h56q5 -32 32.5 -50t73.5 -18q28 0 54 10t45.5 29t31 45.5t11.5 59.5q0 30 -17 54.5t-57 48.5q-44 26 -62.5 50t-18.5 53q0 28 11 48.5t27.5 37t35.5 30.5t35.5 30t27.5 35.5t11 46.5q0 38 -27.5 59.5t-75.5 21.5q-54 0 -97 -33.5
t-60 -112.5l-115 -543h-54l115 545q19 90 72 140t142 50q31 0 58.5 -7.5t48 -22.5t32.5 -37.5t12 -52.5q0 -33 -11 -57.5t-27 -43t-35.5 -33t-35.5 -28.5t-27 -29.5t-11 -35.5q0 -21 14 -37.5t48 -36.5q52 -29 74.5 -63.5t22.5 -73.5q0 -38 -14 -72.5t-40.5 -61t-64.5 -42.5
t-85 -16z" />
    <glyph glyph-name="agrave" unicode="&#xe0;" horiz-adv-x="529" 
d="M103 385q21 67 80 108.5t147 41.5q77 0 122.5 -35t45.5 -99q0 -17 -5 -40l-76 -361h-44l10 86q-32 -40 -81.5 -70.5t-118.5 -30.5q-68 0 -110 32t-42 89q0 45 17.5 78t49 56t75.5 37t97 23l162 26l9 44q3 16 3 30q0 43 -30 67t-89 24q-63 0 -106.5 -29t-59.5 -77h-56z
M199 31q32 0 65 11.5t61 31.5t48.5 48.5t28.5 62.5l21 96l-144 -23q-105 -17 -147.5 -53.5t-42.5 -93.5q0 -40 29.5 -60t80.5 -20zM392 598h-47l-99 137h72z" />
    <glyph glyph-name="aacute" unicode="&#xe1;" horiz-adv-x="529" 
d="M103 385q21 67 80 108.5t147 41.5q77 0 122.5 -35t45.5 -99q0 -17 -5 -40l-76 -361h-44l10 86q-32 -40 -81.5 -70.5t-118.5 -30.5q-68 0 -110 32t-42 89q0 45 17.5 78t49 56t75.5 37t97 23l162 26l9 44q3 16 3 30q0 43 -30 67t-89 24q-63 0 -106.5 -29t-59.5 -77h-56z
M199 31q32 0 65 11.5t61 31.5t48.5 48.5t28.5 62.5l21 96l-144 -23q-105 -17 -147.5 -53.5t-42.5 -93.5q0 -40 29.5 -60t80.5 -20zM442 735h78l-157 -137h-53z" />
    <glyph glyph-name="acircumflex" unicode="&#xe2;" horiz-adv-x="529" 
d="M103 385q21 67 80 108.5t147 41.5q77 0 122.5 -35t45.5 -99q0 -17 -5 -40l-76 -361h-44l10 86q-32 -40 -81.5 -70.5t-118.5 -30.5q-68 0 -110 32t-42 89q0 45 17.5 78t49 56t75.5 37t97 23l162 26l9 44q3 16 3 30q0 43 -30 67t-89 24q-63 0 -106.5 -29t-59.5 -77h-56z
M199 31q32 0 65 11.5t61 31.5t48.5 48.5t28.5 62.5l21 96l-144 -23q-105 -17 -147.5 -53.5t-42.5 -93.5q0 -40 29.5 -60t80.5 -20zM493 598h-52l-64 104l-107 -104h-58l137 137h66z" />
    <glyph glyph-name="atilde" unicode="&#xe3;" horiz-adv-x="529" 
d="M103 385q21 67 80 108.5t147 41.5q77 0 122.5 -35t45.5 -99q0 -17 -5 -40l-76 -361h-44l10 86q-32 -40 -81.5 -70.5t-118.5 -30.5q-68 0 -110 32t-42 89q0 45 17.5 78t49 56t75.5 37t97 23l162 26l9 44q3 16 3 30q0 43 -30 67t-89 24q-63 0 -106.5 -29t-59.5 -77h-56z
M199 31q32 0 65 11.5t61 31.5t48.5 48.5t28.5 62.5l21 96l-144 -23q-105 -17 -147.5 -53.5t-42.5 -93.5q0 -40 29.5 -60t80.5 -20zM413 626q-21 0 -33.5 5.5t-23 11.5t-21 11.5t-27.5 5.5q-18 0 -38.5 -9.5t-46.5 -26.5l11 51q24 16 41.5 23.5t40.5 7.5q21 0 33.5 -5.5
t23 -11.5t21 -11.5t27.5 -5.5q18 0 38 9.5t46 26.5l-11 -52q-23 -15 -40.5 -22.5t-40.5 -7.5z" />
    <glyph glyph-name="adieresis" unicode="&#xe4;" horiz-adv-x="529" 
d="M103 385q21 67 80 108.5t147 41.5q77 0 122.5 -35t45.5 -99q0 -17 -5 -40l-76 -361h-44l10 86q-32 -40 -81.5 -70.5t-118.5 -30.5q-68 0 -110 32t-42 89q0 45 17.5 78t49 56t75.5 37t97 23l162 26l9 44q3 16 3 30q0 43 -30 67t-89 24q-63 0 -106.5 -29t-59.5 -77h-56z
M199 31q32 0 65 11.5t61 31.5t48.5 48.5t28.5 62.5l21 96l-144 -23q-105 -17 -147.5 -53.5t-42.5 -93.5q0 -40 29.5 -60t80.5 -20zM226 650l16 70h63l-15 -70h-64zM431 650l16 70h63l-15 -70h-64z" />
    <glyph glyph-name="aring" unicode="&#xe5;" horiz-adv-x="529" 
d="M103 385q21 67 80 108.5t147 41.5q77 0 122.5 -35t45.5 -99q0 -17 -5 -40l-76 -361h-44l10 86q-32 -40 -81.5 -70.5t-118.5 -30.5q-68 0 -110 32t-42 89q0 45 17.5 78t49 56t75.5 37t97 23l162 26l9 44q3 16 3 30q0 43 -30 67t-89 24q-63 0 -106.5 -29t-59.5 -77h-56z
M199 31q32 0 65 11.5t61 31.5t48.5 48.5t28.5 62.5l21 96l-144 -23q-105 -17 -147.5 -53.5t-42.5 -93.5q0 -40 29.5 -60t80.5 -20zM360 619q41 0 63.5 27.5t22.5 65.5q0 33 -19 50.5t-50 17.5q-41 0 -63.5 -27t-22.5 -65q0 -33 19 -51t50 -18zM358 583q-51 0 -80.5 29.5
t-29.5 74.5q0 24 9 47t25.5 41.5t41 29.5t55.5 11q51 0 80.5 -29t29.5 -74q0 -24 -8.5 -47.5t-25.5 -41.5t-41.5 -29.5t-55.5 -11.5z" />
    <glyph glyph-name="ae" unicode="&#xe6;" horiz-adv-x="927" 
d="M183 -15q-68 0 -110 32t-42 89q0 45 18 78t49.5 55.5t75.5 37t95 22.5l162 26q5 18 9 37.5t4 36.5q0 43 -30.5 67.5t-88.5 24.5q-63 0 -107 -30.5t-59 -75.5h-56q21 67 80 108.5t147 41.5q72 0 109.5 -30.5t45.5 -93.5q36 63 95 95t125 32q42 0 77.5 -12t61 -35.5
t39.5 -59.5t14 -84q0 -19 -2 -39.5t-7 -43.5h-417q-4 -21 -6 -39.5t-2 -34.5q0 -42 11.5 -71.5t32 -48t48.5 -27.5t61 -9q59 0 107 29.5t74 81.5h58q-31 -71 -95.5 -113.5t-148.5 -42.5q-73 0 -122.5 34.5t-66.5 101.5q-22 -38 -49.5 -65t-58 -43.5t-64 -24t-67.5 -7.5z
M278 258q-105 -17 -147 -54t-42 -93q0 -41 29.5 -60.5t80.5 -19.5q32 0 65 11.5t61 31.5t48 48.5t28 62.5l21 96zM703 494q-36 0 -71 -13.5t-64 -38.5t-52 -59t-35 -75h360q2 14 2.5 23.5t0.5 19.5q0 72 -38.5 107.5t-102.5 35.5z" />
    <glyph glyph-name="ccedilla" unicode="&#xe7;" horiz-adv-x="540" 
d="M249 -49q44 -5 66 -27.5t22 -52.5q0 -20 -8.5 -40t-25 -36t-41.5 -26t-57 -10q-46 0 -74.5 22.5t-28.5 65.5h43v-4q0 -45 64 -45q34 0 58 20.5t24 50.5q0 23 -22 36.5t-75 13.5l20 69q-71 7 -116.5 55.5t-45.5 137.5q0 34 7 73.5t22 79t38 76t56 64.5t75.5 44.5
t95.5 16.5q85 0 133.5 -43.5t48.5 -116.5h-57q0 53 -32.5 83.5t-94.5 30.5q-63 0 -108 -32t-73.5 -79t-42 -100.5t-13.5 -96.5q0 -77 39.5 -113.5t99.5 -36.5q30 0 58.5 9t52.5 25t42 38.5t28 49.5h59q-12 -35 -34 -64.5t-51.5 -51.5t-66 -35.5t-78.5 -15.5z" />
    <glyph glyph-name="egrave" unicode="&#xe8;" horiz-adv-x="571" 
d="M500 142q-31 -71 -95.5 -114t-148.5 -43q-44 0 -81 13t-64 39t-42 63.5t-15 87.5q0 35 7.5 75t23 78.5t39.5 73.5t57 61.5t75 42.5t94 16q42 0 77 -12t60.5 -36t40 -61t14.5 -86q0 -21 -2.5 -44t-8.5 -49h-417q-3 -16 -4 -31t-1 -29q0 -80 42 -118t110 -38q59 0 107 29.5
t74 81.5h58zM348 491q-36 0 -70 -13t-63.5 -38t-52.5 -62t-37 -86h359q2 15 3 26.5t1 23.5q0 75 -38.5 112t-101.5 37zM412 598h-47l-99 137h72z" />
    <glyph glyph-name="eacute" unicode="&#xe9;" horiz-adv-x="571" 
d="M500 142q-31 -71 -95.5 -114t-148.5 -43q-44 0 -81 13t-64 39t-42 63.5t-15 87.5q0 35 7.5 75t23 78.5t39.5 73.5t57 61.5t75 42.5t94 16q42 0 77 -12t60.5 -36t40 -61t14.5 -86q0 -21 -2.5 -44t-8.5 -49h-417q-3 -16 -4 -31t-1 -29q0 -80 42 -118t110 -38q59 0 107 29.5
t74 81.5h58zM348 491q-36 0 -70 -13t-63.5 -38t-52.5 -62t-37 -86h359q2 15 3 26.5t1 23.5q0 75 -38.5 112t-101.5 37zM462 735h78l-157 -137h-53z" />
    <glyph glyph-name="ecircumflex" unicode="&#xea;" horiz-adv-x="571" 
d="M500 142q-31 -71 -95.5 -114t-148.5 -43q-44 0 -81 13t-64 39t-42 63.5t-15 87.5q0 35 7.5 75t23 78.5t39.5 73.5t57 61.5t75 42.5t94 16q42 0 77 -12t60.5 -36t40 -61t14.5 -86q0 -21 -2.5 -44t-8.5 -49h-417q-3 -16 -4 -31t-1 -29q0 -80 42 -118t110 -38q59 0 107 29.5
t74 81.5h58zM348 491q-36 0 -70 -13t-63.5 -38t-52.5 -62t-37 -86h359q2 15 3 26.5t1 23.5q0 75 -38.5 112t-101.5 37zM509 598h-52l-64 104l-107 -104h-58l137 137h66z" />
    <glyph glyph-name="edieresis" unicode="&#xeb;" horiz-adv-x="571" 
d="M500 142q-31 -71 -95.5 -114t-148.5 -43q-44 0 -81 13t-64 39t-42 63.5t-15 87.5q0 35 7.5 75t23 78.5t39.5 73.5t57 61.5t75 42.5t94 16q42 0 77 -12t60.5 -36t40 -61t14.5 -86q0 -21 -2.5 -44t-8.5 -49h-417q-3 -16 -4 -31t-1 -29q0 -80 42 -118t110 -38q59 0 107 29.5
t74 81.5h58zM348 491q-36 0 -70 -13t-63.5 -38t-52.5 -62t-37 -86h359q2 15 3 26.5t1 23.5q0 75 -38.5 112t-101.5 37zM245 650l16 70h63l-15 -70h-64zM450 650l16 70h63l-15 -70h-64z" />
    <glyph glyph-name="igrave" unicode="&#xec;" horiz-adv-x="207" 
d="M245 598h-47l-99 137h72zM36 0l110 520h54l-110 -520h-54z" />
    <glyph glyph-name="iacute" unicode="&#xed;" horiz-adv-x="207" 
d="M266 735h78l-157 -137h-53zM36 0l110 520h54l-110 -520h-54z" />
    <glyph glyph-name="icircumflex" unicode="&#xee;" horiz-adv-x="207" 
d="M36 0l110 520h54l-110 -520h-54zM332 598h-52l-64 104l-107 -104h-58l137 137h66z" />
    <glyph glyph-name="idieresis" unicode="&#xef;" horiz-adv-x="207" 
d="M67 650l16 70h63l-15 -70h-64zM272 650l16 70h63l-15 -70h-64zM36 0l110 520h54l-110 -520h-54z" />
    <glyph glyph-name="eth" unicode="&#xf0;" horiz-adv-x="549" 
d="M261 733q42 -8 83 -23.5t77 -41.5l60 52h63l-91 -78q39 -37 62.5 -90t23.5 -128q0 -31 -5 -75.5t-18 -93t-35 -97t-56 -87t-82 -62.5t-112 -24q-85 0 -133 51.5t-48 137.5q0 57 18 112t52 97.5t82.5 69t110.5 26.5q38 0 67.5 -11t51 -29t34 -41.5t15.5 -48.5q4 20 5 39
t1 36q0 64 -19 110t-51 77l-64 -55h-63l95 81q-31 21 -66.5 33.5t-71.5 19.5zM318 433q-54 0 -94 -24t-66.5 -62t-40 -84t-13.5 -91q0 -66 34.5 -103t94.5 -37q57 0 99 26t70 64.5t42 83t14 81.5q0 31 -9 57.5t-26.5 46t-43.5 31t-61 11.5z" />
    <glyph glyph-name="ntilde" unicode="&#xf1;" horiz-adv-x="553" 
d="M369 535q70 0 110.5 -35.5t40.5 -101.5q0 -11 -1.5 -23t-3.5 -24l-74 -351h-54l74 352l3 21q2 9 2 19q0 47 -29 72t-85 25q-29 0 -60 -11.5t-58 -33t-47 -52.5t-28 -69l-68 -323h-54l110 520h45l-12 -89q37 51 87.5 77.5t101.5 26.5zM436 626q-21 0 -33.5 5.5t-23 11.5
t-21 11.5t-27.5 5.5q-18 0 -38.5 -9.5t-46.5 -26.5l11 51q24 16 41.5 23.5t40.5 7.5q21 0 33.5 -5.5t23 -11.5t21 -11.5t27.5 -5.5q18 0 38 9.5t46 26.5l-11 -52q-23 -15 -40.5 -22.5t-40.5 -7.5z" />
    <glyph glyph-name="ograve" unicode="&#xf2;" horiz-adv-x="573" 
d="M53 186q0 30 6.5 67.5t20.5 76t37 75.5t56.5 66t78 46.5t102.5 17.5q88 0 142.5 -51t54.5 -149q0 -30 -6.5 -67.5t-20.5 -76.5t-37 -76t-56.5 -66t-78 -46.5t-101.5 -17.5q-44 0 -80.5 13.5t-62.5 39t-40.5 63t-14.5 85.5zM351 491q-47 0 -83 -16t-63 -42t-45.5 -59
t-29.5 -67t-16 -66t-5 -56q0 -78 39.5 -117t105.5 -39q46 0 81.5 16t62.5 42t45.5 59t30 67t16.5 66t5 56q0 78 -38.5 117t-105.5 39zM417 598h-47l-99 137h72z" />
    <glyph glyph-name="oacute" unicode="&#xf3;" horiz-adv-x="573" 
d="M53 186q0 30 6.5 67.5t20.5 76t37 75.5t56.5 66t78 46.5t102.5 17.5q88 0 142.5 -51t54.5 -149q0 -30 -6.5 -67.5t-20.5 -76.5t-37 -76t-56.5 -66t-78 -46.5t-101.5 -17.5q-44 0 -80.5 13.5t-62.5 39t-40.5 63t-14.5 85.5zM351 491q-47 0 -83 -16t-63 -42t-45.5 -59
t-29.5 -67t-16 -66t-5 -56q0 -78 39.5 -117t105.5 -39q46 0 81.5 16t62.5 42t45.5 59t30 67t16.5 66t5 56q0 78 -38.5 117t-105.5 39zM459 735h78l-157 -137h-53z" />
    <glyph glyph-name="ocircumflex" unicode="&#xf4;" horiz-adv-x="573" 
d="M53 186q0 30 6.5 67.5t20.5 76t37 75.5t56.5 66t78 46.5t102.5 17.5q88 0 142.5 -51t54.5 -149q0 -30 -6.5 -67.5t-20.5 -76.5t-37 -76t-56.5 -66t-78 -46.5t-101.5 -17.5q-44 0 -80.5 13.5t-62.5 39t-40.5 63t-14.5 85.5zM351 491q-47 0 -83 -16t-63 -42t-45.5 -59
t-29.5 -67t-16 -66t-5 -56q0 -78 39.5 -117t105.5 -39q46 0 81.5 16t62.5 42t45.5 59t30 67t16.5 66t5 56q0 78 -38.5 117t-105.5 39zM512 598h-52l-64 104l-107 -104h-58l137 137h66z" />
    <glyph glyph-name="otilde" unicode="&#xf5;" horiz-adv-x="573" 
d="M53 186q0 30 6.5 67.5t20.5 76t37 75.5t56.5 66t78 46.5t102.5 17.5q88 0 142.5 -51t54.5 -149q0 -30 -6.5 -67.5t-20.5 -76.5t-37 -76t-56.5 -66t-78 -46.5t-101.5 -17.5q-44 0 -80.5 13.5t-62.5 39t-40.5 63t-14.5 85.5zM351 491q-47 0 -83 -16t-63 -42t-45.5 -59
t-29.5 -67t-16 -66t-5 -56q0 -78 39.5 -117t105.5 -39q46 0 81.5 16t62.5 42t45.5 59t30 67t16.5 66t5 56q0 78 -38.5 117t-105.5 39zM434 626q-21 0 -33.5 5.5t-23 11.5t-21 11.5t-27.5 5.5q-18 0 -38.5 -9.5t-46.5 -26.5l11 51q24 16 41.5 23.5t40.5 7.5q21 0 33.5 -5.5
t23 -11.5t21 -11.5t27.5 -5.5q18 0 38 9.5t46 26.5l-11 -52q-23 -15 -40.5 -22.5t-40.5 -7.5z" />
    <glyph glyph-name="odieresis" unicode="&#xf6;" horiz-adv-x="573" 
d="M53 186q0 30 6.5 67.5t20.5 76t37 75.5t56.5 66t78 46.5t102.5 17.5q88 0 142.5 -51t54.5 -149q0 -30 -6.5 -67.5t-20.5 -76.5t-37 -76t-56.5 -66t-78 -46.5t-101.5 -17.5q-44 0 -80.5 13.5t-62.5 39t-40.5 63t-14.5 85.5zM351 491q-47 0 -83 -16t-63 -42t-45.5 -59
t-29.5 -67t-16 -66t-5 -56q0 -78 39.5 -117t105.5 -39q46 0 81.5 16t62.5 42t45.5 59t30 67t16.5 66t5 56q0 78 -38.5 117t-105.5 39zM249 650l16 70h63l-15 -70h-64zM454 650l16 70h63l-15 -70h-64z" />
    <glyph glyph-name="divide" unicode="&#xf7;" 
d="M238 64l17 79h70l-18 -79h-69zM330 500l18 80h69l-17 -80h-70zM525 297h-406l11 49h406z" />
    <glyph glyph-name="oslash" unicode="&#xf8;" horiz-adv-x="573" 
d="M53 186q0 30 6.5 67.5t20.5 76t37 75.5t56.5 66t78 46.5t102.5 17.5q52 0 91 -18l75 113h53l-89 -136q31 -25 49 -65t18 -94q0 -30 -6.5 -67.5t-20.5 -76.5t-37 -76t-56.5 -66t-78 -46.5t-101.5 -17.5q-50 0 -93 19l-75 -114h-54l91 136q-32 26 -49.5 66t-17.5 94z
M351 491q-47 0 -83 -16t-63 -42t-45.5 -59t-29.5 -67t-16 -66t-5 -56q0 -76 40 -116l270 408q-30 14 -68 14zM495 335q0 78 -41 117l-270 -408q30 -15 70 -15q46 0 81.5 16t62.5 42t45.5 59t30 67t16.5 66t5 56z" />
    <glyph glyph-name="ugrave" unicode="&#xf9;" horiz-adv-x="548" 
d="M196 520l-71 -337q-5 -25 -7 -36.5t-2 -21.5q0 -48 29 -71t83 -23q34 0 65.5 13t57 36t43.5 54t26 67l67 319h54l-110 -520h-44l10 83q-38 -51 -87 -74.5t-98 -23.5q-66 0 -108 34t-42 102q0 23 6 50l74 349h54zM407 598h-47l-99 137h72z" />
    <glyph glyph-name="uacute" unicode="&#xfa;" horiz-adv-x="548" 
d="M196 520l-71 -337q-5 -25 -7 -36.5t-2 -21.5q0 -48 29 -71t83 -23q34 0 65.5 13t57 36t43.5 54t26 67l67 319h54l-110 -520h-44l10 83q-38 -51 -87 -74.5t-98 -23.5q-66 0 -108 34t-42 102q0 23 6 50l74 349h54zM441 735h78l-157 -137h-53z" />
    <glyph glyph-name="ucircumflex" unicode="&#xfb;" horiz-adv-x="548" 
d="M196 520l-71 -337q-5 -25 -7 -36.5t-2 -21.5q0 -48 29 -71t83 -23q34 0 65.5 13t57 36t43.5 54t26 67l67 319h54l-110 -520h-44l10 83q-38 -51 -87 -74.5t-98 -23.5q-66 0 -108 34t-42 102q0 23 6 50l74 349h54zM499 598h-52l-64 104l-107 -104h-58l137 137h66z" />
    <glyph glyph-name="udieresis" unicode="&#xfc;" horiz-adv-x="548" 
d="M196 520l-71 -337q-5 -25 -7 -36.5t-2 -21.5q0 -48 29 -71t83 -23q34 0 65.5 13t57 36t43.5 54t26 67l67 319h54l-110 -520h-44l10 83q-38 -51 -87 -74.5t-98 -23.5q-66 0 -108 34t-42 102q0 23 6 50l74 349h54zM234 650l16 70h63l-15 -70h-64zM439 650l16 70h63l-15 -70
h-64z" />
    <glyph glyph-name="yacute" unicode="&#xfd;" horiz-adv-x="497" 
d="M256 -4q-30 -53 -51.5 -89.5t-41 -59t-39.5 -32.5t-48 -10q-14 0 -30 3.5t-28 8.5l10 43q12 -5 25 -7.5t24 -2.5q16 0 29 7.5t26.5 25t30 46.5t39.5 71h-18l-97 520h54l86 -478l265 478h58zM413 735h78l-157 -137h-53z" />
    <glyph glyph-name="thorn" unicode="&#xfe;" horiz-adv-x="580" 
d="M268 31q65 0 110 34.5t72.5 84t40 103t12.5 92.5q0 74 -37.5 109.5t-98.5 35.5q-54 0 -97 -27t-74 -70.5t-47.5 -98.5t-16.5 -112q0 -75 37 -113t99 -38zM272 -14q-66 0 -106 32.5t-54 81.5l-60 -280h-54l192 900h54q-17 -75 -32.5 -148.5t-31.5 -148.5q34 48 84.5 80
t116.5 32q80 0 128.5 -47t48.5 -141q0 -32 -6.5 -71.5t-20.5 -79.5t-36 -78t-54 -67t-74 -47t-95 -18z" />
    <glyph glyph-name="ydieresis" unicode="&#xff;" horiz-adv-x="497" 
d="M256 -4q-30 -53 -51.5 -89.5t-41 -59t-39.5 -32.5t-48 -10q-14 0 -30 3.5t-28 8.5l10 43q12 -5 25 -7.5t24 -2.5q16 0 29 7.5t26.5 25t30 46.5t39.5 71h-18l-97 520h54l86 -478l265 478h58zM214 650l16 70h63l-15 -70h-64zM419 650l16 70h63l-15 -70h-64z" />
    <glyph glyph-name="Amacron" unicode="&#x100;" horiz-adv-x="661" 
d="M555 0l-37 204h-364l-124 -204h-63l442 720h70l135 -720h-59zM182 251h328l-75 415zM337 823l10 47h242l-10 -47h-242z" />
    <glyph glyph-name="amacron" unicode="&#x101;" horiz-adv-x="529" 
d="M103 385q21 67 80 108.5t147 41.5q77 0 122.5 -35t45.5 -99q0 -17 -5 -40l-76 -361h-44l10 86q-32 -40 -81.5 -70.5t-118.5 -30.5q-68 0 -110 32t-42 89q0 45 17.5 78t49 56t75.5 37t97 23l162 26l9 44q3 16 3 30q0 43 -30 67t-89 24q-63 0 -106.5 -29t-59.5 -77h-56z
M199 31q32 0 65 11.5t61 31.5t48.5 48.5t28.5 62.5l21 96l-144 -23q-105 -17 -147.5 -53.5t-42.5 -93.5q0 -40 29.5 -60t80.5 -20zM237 653l10 47h242l-10 -47h-242z" />
    <glyph glyph-name="Abreve" unicode="&#x102;" horiz-adv-x="661" 
d="M555 0l-37 204h-364l-124 -204h-63l442 720h70l135 -720h-59zM182 251h328l-75 415zM453 762q-54 1 -83 29t-29 78v12q0 6 2 13h46q-2 -7 -2 -13v-10q0 -30 15 -49.5t52 -19.5q45 0 70 27t36 65h48q-15 -62 -55 -96.5t-100 -35.5z" />
    <glyph glyph-name="abreve" unicode="&#x103;" horiz-adv-x="529" 
d="M103 385q21 67 80 108.5t147 41.5q77 0 122.5 -35t45.5 -99q0 -17 -5 -40l-76 -361h-44l10 86q-32 -40 -81.5 -70.5t-118.5 -30.5q-68 0 -110 32t-42 89q0 45 17.5 78t49 56t75.5 37t97 23l162 26l9 44q3 16 3 30q0 43 -30 67t-89 24q-63 0 -106.5 -29t-59.5 -77h-56z
M199 31q32 0 65 11.5t61 31.5t48.5 48.5t28.5 62.5l21 96l-144 -23q-105 -17 -147.5 -53.5t-42.5 -93.5q0 -40 29.5 -60t80.5 -20zM351 592q-54 1 -83 29t-29 78v12q0 6 2 13h46q-2 -7 -2 -13v-10q0 -30 15 -49.5t52 -19.5q45 0 70 27t36 65h48q-15 -62 -55 -96.5
t-100 -35.5z" />
    <glyph glyph-name="Aogonek" unicode="&#x104;" horiz-adv-x="661" 
d="M508 -239q-45 0 -72.5 22.5t-27.5 60.5q0 25 11 48t30.5 43.5t46 38t58.5 30.5l-36 200h-364l-124 -204h-63l442 720h70l135 -720h-11q-30 -14 -57 -30t-47 -34t-32 -39.5t-12 -45.5t15.5 -36.5t43.5 -12.5q29 0 49.5 13.5t32.5 35.5h50q-18 -43 -56.5 -66.5t-81.5 -23.5
zM182 251h328l-75 415z" />
    <glyph glyph-name="aogonek" unicode="&#x105;" horiz-adv-x="529" 
d="M441 370q3 16 3 30q0 43 -30 67t-89 24q-63 0 -106.5 -29t-59.5 -77h-56q21 67 80 108.5t147 41.5q77 0 122.5 -35t45.5 -99q0 -17 -5 -40l-76 -361q-21 -6 -47.5 -20t-50 -33.5t-40 -43.5t-16.5 -51q0 -25 16 -37.5t43 -12.5q28 0 49.5 14t32.5 35h51q-19 -42 -57 -65.5
t-82 -23.5q-45 0 -72 22t-27 60q0 26 11.5 50t32.5 45t49.5 38.5t62.5 30.5l10 78q-32 -41 -81.5 -71t-118.5 -30q-68 0 -110 32t-42 89q0 45 17.5 77.5t49 55.5t75.5 37.5t97 23.5l162 26zM422 281l-144 -23q-105 -17 -147 -54t-42 -93q0 -41 29.5 -60.5t80.5 -19.5
q32 0 65 11.5t61 31.5t48 48.5t28 62.5z" />
    <glyph glyph-name="Cacute" unicode="&#x106;" horiz-adv-x="719" 
d="M340 -15q-62 0 -110.5 19t-83 55t-52.5 86.5t-18 113.5q0 44 9.5 96.5t30.5 105.5t53.5 102t78 87.5t105 61.5t133.5 23q57 0 103.5 -15t79 -44t50.5 -70.5t18 -94.5v-8h-56v6q0 91 -51.5 134t-148.5 43q-63 0 -113 -21t-89 -55.5t-66 -79t-45 -91.5t-26 -93t-8 -83
q0 -108 56.5 -169t152.5 -61q49 0 93.5 14t80.5 41t63.5 65t43.5 86h57q-16 -54 -47 -100.5t-75 -80.5t-99.5 -53.5t-119.5 -19.5zM577 905h78l-157 -137h-53z" />
    <glyph glyph-name="cacute" unicode="&#x107;" horiz-adv-x="540" 
d="M486 153q-13 -36 -36.5 -67t-55 -53.5t-70.5 -35t-84 -12.5q-41 0 -75.5 12.5t-59.5 37.5t-39 61.5t-14 84.5q0 34 7 73.5t22 79t38 76t56 64.5t75.5 44.5t95.5 16.5q84 0 133 -43t49 -117h-57q0 53 -32.5 83.5t-94.5 30.5q-63 0 -108 -32t-73.5 -79t-42 -100.5
t-13.5 -96.5q0 -77 39.5 -113.5t99.5 -36.5q30 0 58.5 9t52.5 25t42 38.5t28 49.5h59zM464 735h78l-157 -137h-53z" />
    <glyph glyph-name="Ccircumflex" unicode="&#x108;" horiz-adv-x="719" 
d="M340 -15q-62 0 -110.5 19t-83 55t-52.5 86.5t-18 113.5q0 44 9.5 96.5t30.5 105.5t53.5 102t78 87.5t105 61.5t133.5 23q57 0 103.5 -15t79 -44t50.5 -70.5t18 -94.5v-8h-56v6q0 91 -51.5 134t-148.5 43q-63 0 -113 -21t-89 -55.5t-66 -79t-45 -91.5t-26 -93t-8 -83
q0 -108 56.5 -169t152.5 -61q49 0 93.5 14t80.5 41t63.5 65t43.5 86h57q-16 -54 -47 -100.5t-75 -80.5t-99.5 -53.5t-119.5 -19.5zM622 768h-52l-64 104l-107 -104h-58l137 137h66z" />
    <glyph glyph-name="ccircumflex" unicode="&#x109;" horiz-adv-x="540" 
d="M486 153q-13 -36 -36.5 -67t-55 -53.5t-70.5 -35t-84 -12.5q-41 0 -75.5 12.5t-59.5 37.5t-39 61.5t-14 84.5q0 34 7 73.5t22 79t38 76t56 64.5t75.5 44.5t95.5 16.5q84 0 133 -43t49 -117h-57q0 53 -32.5 83.5t-94.5 30.5q-63 0 -108 -32t-73.5 -79t-42 -100.5
t-13.5 -96.5q0 -77 39.5 -113.5t99.5 -36.5q30 0 58.5 9t52.5 25t42 38.5t28 49.5h59zM498 598h-52l-64 104l-107 -104h-58l137 137h66z" />
    <glyph glyph-name="Cdotaccent" unicode="&#x10a;" horiz-adv-x="719" 
d="M340 -15q-62 0 -110.5 19t-83 55t-52.5 86.5t-18 113.5q0 44 9.5 96.5t30.5 105.5t53.5 102t78 87.5t105 61.5t133.5 23q57 0 103.5 -15t79 -44t50.5 -70.5t18 -94.5v-8h-56v6q0 91 -51.5 134t-148.5 43q-63 0 -113 -21t-89 -55.5t-66 -79t-45 -91.5t-26 -93t-8 -83
q0 -108 56.5 -169t152.5 -61q49 0 93.5 14t80.5 41t63.5 65t43.5 86h57q-16 -54 -47 -100.5t-75 -80.5t-99.5 -53.5t-119.5 -19.5zM466 816l16 74h65l-17 -74h-64z" />
    <glyph glyph-name="cdotaccent" unicode="&#x10b;" horiz-adv-x="540" 
d="M486 153q-13 -36 -36.5 -67t-55 -53.5t-70.5 -35t-84 -12.5q-41 0 -75.5 12.5t-59.5 37.5t-39 61.5t-14 84.5q0 34 7 73.5t22 79t38 76t56 64.5t75.5 44.5t95.5 16.5q84 0 133 -43t49 -117h-57q0 53 -32.5 83.5t-94.5 30.5q-63 0 -108 -32t-73.5 -79t-42 -100.5
t-13.5 -96.5q0 -77 39.5 -113.5t99.5 -36.5q30 0 58.5 9t52.5 25t42 38.5t28 49.5h59zM339 646l16 74h65l-17 -74h-64z" />
    <glyph glyph-name="Ccaron" unicode="&#x10c;" horiz-adv-x="719" 
d="M340 -15q-62 0 -110.5 19t-83 55t-52.5 86.5t-18 113.5q0 44 9.5 96.5t30.5 105.5t53.5 102t78 87.5t105 61.5t133.5 23q57 0 103.5 -15t79 -44t50.5 -70.5t18 -94.5v-8h-56v6q0 91 -51.5 134t-148.5 43q-63 0 -113 -21t-89 -55.5t-66 -79t-45 -91.5t-26 -93t-8 -83
q0 -108 56.5 -169t152.5 -61q49 0 93.5 14t80.5 41t63.5 65t43.5 86h57q-16 -54 -47 -100.5t-75 -80.5t-99.5 -53.5t-119.5 -19.5zM370 905h51l64 -104l108 104h58q-35 -35 -69 -68.5t-68 -68.5h-66z" />
    <glyph glyph-name="ccaron" unicode="&#x10d;" horiz-adv-x="540" 
d="M486 153q-13 -36 -36.5 -67t-55 -53.5t-70.5 -35t-84 -12.5q-41 0 -75.5 12.5t-59.5 37.5t-39 61.5t-14 84.5q0 34 7 73.5t22 79t38 76t56 64.5t75.5 44.5t95.5 16.5q84 0 133 -43t49 -117h-57q0 53 -32.5 83.5t-94.5 30.5q-63 0 -108 -32t-73.5 -79t-42 -100.5
t-13.5 -96.5q0 -77 39.5 -113.5t99.5 -36.5q30 0 58.5 9t52.5 25t42 38.5t28 49.5h59zM248 735h51l64 -104l108 104h58q-35 -35 -69 -68.5t-68 -68.5h-66z" />
    <glyph glyph-name="Dcaron" unicode="&#x10e;" horiz-adv-x="684" 
d="M388 720q66 0 119.5 -17t91.5 -51t58.5 -83.5t20.5 -113.5q0 -53 -11.5 -107.5t-34.5 -105t-58 -94.5t-82 -77t-106.5 -52t-132.5 -19h-211l153 720h193zM241 673l-133 -625h151q65 0 117.5 18.5t93 50t69 72.5t47 86t27 91t8.5 86q0 109 -63 165t-168 56h-149zM301 905
h51l64 -104l108 104h58q-35 -35 -69 -68.5t-68 -68.5h-66z" />
    <glyph glyph-name="dcaron" unicode="&#x10f;" horiz-adv-x="637" 
d="M419 0l12 97q-36 -51 -86 -81.5t-116 -30.5q-38 0 -70 12.5t-56 36.5t-37.5 60t-13.5 84q0 33 6.5 72t21 78.5t37.5 77t54.5 66t73 46t93.5 17.5q63 0 105 -32t56 -82l63 299h54l-153 -720h-44zM342 489q-42 0 -76 -15t-60 -40.5t-44.5 -57.5t-30.5 -66.5t-17.5 -68
t-5.5 -61.5q0 -76 38 -112.5t98 -36.5q55 0 98.5 28t73.5 72t45.5 98.5t15.5 108.5q0 76 -37 113.5t-98 37.5zM730 644q-11 -53 -42.5 -76t-74.5 -34l7 32q26 10 41.5 27.5t23.5 52.5h-20l16 74h65z" />
    <glyph glyph-name="Dcroat" unicode="&#x110;" horiz-adv-x="684" 
d="M388 720q66 0 119.5 -17t91.5 -51t58.5 -83.5t20.5 -113.5q0 -53 -11.5 -107.5t-34.5 -105t-58 -94.5t-82 -77t-106.5 -52t-132.5 -19h-211l75 354h-58l11 49h57l68 317h193zM241 673l-57 -270h227l-10 -49h-228l-65 -306h151q65 0 117.5 18.5t93 50t69 72.5t47 86t27 91
t8.5 86q0 109 -63 165t-168 56h-149z" />
    <glyph glyph-name="dcroat" unicode="&#x111;" horiz-adv-x="580" 
d="M419 0l12 97q-36 -51 -86 -81.5t-116 -30.5q-38 0 -70 12.5t-56 36.5t-37.5 60t-13.5 84q0 33 6.5 72t21 78.5t37.5 77t54.5 66t73 46t93.5 17.5q63 0 105 -32t56 -82l41 192h-175l10 44h173l14 63h54l-14 -63h52l-9 -44h-52l-130 -613h-44zM342 489q-42 0 -76 -15
t-60 -40.5t-44.5 -57.5t-30.5 -66.5t-17.5 -68t-5.5 -61.5q0 -76 38 -112.5t98 -36.5q55 0 98.5 28t73.5 72t45.5 98.5t15.5 108.5q0 76 -37 113.5t-98 37.5z" />
    <glyph glyph-name="Emacron" unicode="&#x112;" horiz-adv-x="565" 
d="M511 342h-340l-62 -293h369l-10 -49h-426l153 720h426l-11 -49h-369l-60 -281h340zM298 823l10 47h242l-10 -47h-242z" />
    <glyph glyph-name="emacron" unicode="&#x113;" horiz-adv-x="571" 
d="M500 142q-31 -71 -95.5 -114t-148.5 -43q-44 0 -81 13t-64 39t-42 63.5t-15 87.5q0 35 7.5 75t23 78.5t39.5 73.5t57 61.5t75 42.5t94 16q42 0 77 -12t60.5 -36t40 -61t14.5 -86q0 -21 -2.5 -44t-8.5 -49h-417q-3 -16 -4 -31t-1 -29q0 -80 42 -118t110 -38q59 0 107 29.5
t74 81.5h58zM348 491q-36 0 -70 -13t-63.5 -38t-52.5 -62t-37 -86h359q2 15 3 26.5t1 23.5q0 75 -38.5 112t-101.5 37zM257 653l10 47h242l-10 -47h-242z" />
    <glyph glyph-name="Ebreve" unicode="&#x114;" horiz-adv-x="565" 
d="M511 342h-340l-62 -293h369l-10 -49h-426l153 720h426l-11 -49h-369l-60 -281h340zM416 762q-54 1 -83 29t-29 78v12q0 6 2 13h46q-2 -7 -2 -13v-10q0 -30 15 -49.5t52 -19.5q45 0 70 27t36 65h48q-15 -62 -55 -96.5t-100 -35.5z" />
    <glyph glyph-name="ebreve" unicode="&#x115;" horiz-adv-x="571" 
d="M500 142q-31 -71 -95.5 -114t-148.5 -43q-44 0 -81 13t-64 39t-42 63.5t-15 87.5q0 35 7.5 75t23 78.5t39.5 73.5t57 61.5t75 42.5t94 16q42 0 77 -12t60.5 -36t40 -61t14.5 -86q0 -21 -2.5 -44t-8.5 -49h-417q-3 -16 -4 -31t-1 -29q0 -80 42 -118t110 -38q59 0 107 29.5
t74 81.5h58zM348 491q-36 0 -70 -13t-63.5 -38t-52.5 -62t-37 -86h359q2 15 3 26.5t1 23.5q0 75 -38.5 112t-101.5 37zM373 592q-54 1 -83 29t-29 78v12q0 6 2 13h46q-2 -7 -2 -13v-10q0 -30 15 -49.5t52 -19.5q45 0 70 27t36 65h48q-15 -62 -55 -96.5t-100 -35.5z" />
    <glyph glyph-name="Edotaccent" unicode="&#x116;" horiz-adv-x="565" 
d="M511 342h-340l-62 -293h369l-10 -49h-426l153 720h426l-11 -49h-369l-60 -281h340zM385 816l16 74h65l-17 -74h-64z" />
    <glyph glyph-name="edotaccent" unicode="&#x117;" horiz-adv-x="571" 
d="M500 142q-31 -71 -95.5 -114t-148.5 -43q-44 0 -81 13t-64 39t-42 63.5t-15 87.5q0 35 7.5 75t23 78.5t39.5 73.5t57 61.5t75 42.5t94 16q42 0 77 -12t60.5 -36t40 -61t14.5 -86q0 -21 -2.5 -44t-8.5 -49h-417q-3 -16 -4 -31t-1 -29q0 -80 42 -118t110 -38q59 0 107 29.5
t74 81.5h58zM348 491q-36 0 -70 -13t-63.5 -38t-52.5 -62t-37 -86h359q2 15 3 26.5t1 23.5q0 75 -38.5 112t-101.5 37zM345 646l16 74h65l-17 -74h-64z" />
    <glyph glyph-name="Eogonek" unicode="&#x118;" horiz-adv-x="565" 
d="M299 -239q-45 0 -72.5 22.5t-27.5 60.5q0 24 10.5 46t29.5 42.5t44.5 37.5t55.5 30h-297l153 720h426l-11 -49h-369l-60 -281h340l-10 -48h-340l-62 -293h369l-10 -49h-73q-30 -14 -57.5 -30t-47.5 -34t-32 -39.5t-12 -45.5t15.5 -36.5t43.5 -12.5q29 0 49.5 13.5
t32.5 35.5h50q-18 -43 -56.5 -66.5t-81.5 -23.5z" />
    <glyph glyph-name="eogonek" unicode="&#x119;" horiz-adv-x="571" 
d="M386 -149q-18 -42 -56.5 -65.5t-81.5 -23.5q-45 0 -72.5 22t-27.5 60q0 42 29.5 78.5t77.5 63.5q-44 0 -81 13t-63.5 38.5t-41.5 63t-15 86.5q0 53 17 114t53 113t92 86.5t134 34.5q42 0 77 -12t60.5 -36t40 -61t14.5 -87q0 -40 -11 -92h-417q-6 -33 -6 -60
q0 -80 42.5 -118t110.5 -38q59 0 107 29t74 81h58q-23 -52 -66 -87t-95 -55q-69 -27 -106.5 -65t-37.5 -82q0 -25 15.5 -37.5t43.5 -12.5q29 0 50 13.5t32 35.5h50zM348 490q-73 0 -134 -50t-90 -149h360q2 15 3 27t1 24q0 75 -38.5 111.5t-101.5 36.5z" />
    <glyph glyph-name="Ecaron" unicode="&#x11a;" horiz-adv-x="565" 
d="M511 342h-340l-62 -293h369l-10 -49h-426l153 720h426l-11 -49h-369l-60 -281h340zM300 905h51l64 -104l108 104h58q-35 -35 -69 -68.5t-68 -68.5h-66z" />
    <glyph glyph-name="ecaron" unicode="&#x11b;" horiz-adv-x="571" 
d="M500 142q-31 -71 -95.5 -114t-148.5 -43q-44 0 -81 13t-64 39t-42 63.5t-15 87.5q0 35 7.5 75t23 78.5t39.5 73.5t57 61.5t75 42.5t94 16q42 0 77 -12t60.5 -36t40 -61t14.5 -86q0 -21 -2.5 -44t-8.5 -49h-417q-3 -16 -4 -31t-1 -29q0 -80 42 -118t110 -38q59 0 107 29.5
t74 81.5h58zM348 491q-36 0 -70 -13t-63.5 -38t-52.5 -62t-37 -86h359q2 15 3 26.5t1 23.5q0 75 -38.5 112t-101.5 37zM260 735h51l64 -104l108 104h58q-35 -35 -69 -68.5t-68 -68.5h-66z" />
    <glyph glyph-name="Gcircumflex" unicode="&#x11c;" horiz-adv-x="731" 
d="M617 0h-41l17 114q-45 -61 -111.5 -95t-145.5 -34q-54 0 -101 17.5t-82.5 51.5t-55.5 85t-20 118q0 49 10.5 104t32 108t54 101t78 85t103 58.5t128.5 21.5q58 0 104 -15.5t77.5 -43.5t48.5 -67t17 -86h-57q-2 81 -52 122t-142 41q-61 0 -110 -20t-87 -54t-66 -77.5
t-46 -91t-27 -94.5t-9 -88q0 -57 16 -99.5t44 -71t66.5 -43t82.5 -14.5q48 0 93 15.5t82 43t63 65t36 82.5l20 91h-233l10 47h283zM626 768h-52l-64 104l-107 -104h-58l137 137h66z" />
    <glyph glyph-name="gcircumflex" unicode="&#x11d;" horiz-adv-x="580" 
d="M75 -48q0 -53 35.5 -78t99.5 -25q78 0 131.5 42t68.5 113l24 113q-34 -45 -83.5 -72t-112.5 -27q-37 0 -70 12.5t-57.5 37t-39 60.5t-14.5 82q0 49 16.5 105.5t50.5 105.5t87 81.5t125 32.5q63 0 106.5 -31.5t57.5 -79.5l29 96h44l-111 -523q-9 -42 -30 -77.5t-53.5 -61
t-75 -39.5t-94.5 -14q-91 0 -140 39t-49 108h55zM341 489q-61 0 -104.5 -28t-71 -70t-40 -91t-12.5 -91q0 -72 37.5 -108.5t100.5 -36.5q58 0 101 26t71.5 66.5t42 90.5t13.5 97q0 74 -38 109.5t-100 35.5zM512 598h-52l-64 104l-107 -104h-58l137 137h66z" />
    <glyph glyph-name="Gbreve" unicode="&#x11e;" horiz-adv-x="731" 
d="M617 0h-41l17 114q-45 -61 -111.5 -95t-145.5 -34q-54 0 -101 17.5t-82.5 51.5t-55.5 85t-20 118q0 49 10.5 104t32 108t54 101t78 85t103 58.5t128.5 21.5q58 0 104 -15.5t77.5 -43.5t48.5 -67t17 -86h-57q-2 81 -52 122t-142 41q-61 0 -110 -20t-87 -54t-66 -77.5
t-46 -91t-27 -94.5t-9 -88q0 -57 16 -99.5t44 -71t66.5 -43t82.5 -14.5q48 0 93 15.5t82 43t63 65t36 82.5l20 91h-233l10 47h283zM492 762q-54 1 -83 29t-29 78v12q0 6 2 13h46q-2 -7 -2 -13v-10q0 -30 15 -49.5t52 -19.5q45 0 70 27t36 65h48q-15 -62 -55 -96.5
t-100 -35.5z" />
    <glyph glyph-name="gbreve" unicode="&#x11f;" horiz-adv-x="580" 
d="M75 -48q0 -53 35.5 -78t99.5 -25q78 0 131.5 42t68.5 113l24 113q-34 -45 -83.5 -72t-112.5 -27q-37 0 -70 12.5t-57.5 37t-39 60.5t-14.5 82q0 49 16.5 105.5t50.5 105.5t87 81.5t125 32.5q63 0 106.5 -31.5t57.5 -79.5l29 96h44l-111 -523q-9 -42 -30 -77.5t-53.5 -61
t-75 -39.5t-94.5 -14q-91 0 -140 39t-49 108h55zM341 489q-61 0 -104.5 -28t-71 -70t-40 -91t-12.5 -91q0 -72 37.5 -108.5t100.5 -36.5q58 0 101 26t71.5 66.5t42 90.5t13.5 97q0 74 -38 109.5t-100 35.5zM372 592q-54 1 -83 29t-29 78v12q0 6 2 13h46q-2 -7 -2 -13v-10
q0 -30 15 -49.5t52 -19.5q45 0 70 27t36 65h48q-15 -62 -55 -96.5t-100 -35.5z" />
    <glyph glyph-name="Gdotaccent" unicode="&#x120;" horiz-adv-x="731" 
d="M617 0h-41l17 114q-45 -61 -111.5 -95t-145.5 -34q-54 0 -101 17.5t-82.5 51.5t-55.5 85t-20 118q0 49 10.5 104t32 108t54 101t78 85t103 58.5t128.5 21.5q58 0 104 -15.5t77.5 -43.5t48.5 -67t17 -86h-57q-2 81 -52 122t-142 41q-61 0 -110 -20t-87 -54t-66 -77.5
t-46 -91t-27 -94.5t-9 -88q0 -57 16 -99.5t44 -71t66.5 -43t82.5 -14.5q48 0 93 15.5t82 43t63 65t36 82.5l20 91h-233l10 47h283zM462 816l16 74h65l-17 -74h-64z" />
    <glyph glyph-name="gdotaccent" unicode="&#x121;" horiz-adv-x="580" 
d="M75 -48q0 -53 35.5 -78t99.5 -25q78 0 131.5 42t68.5 113l24 113q-34 -45 -83.5 -72t-112.5 -27q-37 0 -70 12.5t-57.5 37t-39 60.5t-14.5 82q0 49 16.5 105.5t50.5 105.5t87 81.5t125 32.5q63 0 106.5 -31.5t57.5 -79.5l29 96h44l-111 -523q-9 -42 -30 -77.5t-53.5 -61
t-75 -39.5t-94.5 -14q-91 0 -140 39t-49 108h55zM341 489q-61 0 -104.5 -28t-71 -70t-40 -91t-12.5 -91q0 -72 37.5 -108.5t100.5 -36.5q58 0 101 26t71.5 66.5t42 90.5t13.5 97q0 74 -38 109.5t-100 35.5zM343 646l16 74h65l-17 -74h-64z" />
    <glyph glyph-name="Gcommaaccent" unicode="&#x122;" horiz-adv-x="731" 
d="M617 0h-41l17 114q-45 -61 -111.5 -95t-145.5 -34q-54 0 -101 17.5t-82.5 51.5t-55.5 85t-20 118q0 49 10.5 104t32 108t54 101t78 85t103 58.5t128.5 21.5q58 0 104 -15.5t77.5 -43.5t48.5 -67t17 -86h-57q-2 81 -52 122t-142 41q-61 0 -110 -20t-87 -54t-66 -77.5
t-46 -91t-27 -94.5t-9 -88q0 -57 16 -99.5t44 -71t66.5 -43t82.5 -14.5q48 0 93 15.5t82 43t63 65t36 82.5l20 91h-233l10 47h283zM324 -157q-11 -48 -41 -76t-73 -39l6 32q26 10 42.5 30t24.5 55h-19l15 74h62z" />
    <glyph glyph-name="gcommaaccent" unicode="&#x123;" horiz-adv-x="580" 
d="M75 -48q0 -53 35.5 -78t99.5 -25q78 0 131.5 42t68.5 113l24 113q-34 -45 -83.5 -72t-112.5 -27q-37 0 -70 12.5t-57.5 37t-39 60.5t-14.5 82q0 49 16.5 105.5t50.5 105.5t87 81.5t125 32.5q63 0 106.5 -31.5t57.5 -79.5l29 96h44l-111 -523q-9 -42 -30 -77.5t-53.5 -61
t-75 -39.5t-94.5 -14q-91 0 -140 39t-49 108h55zM341 489q-61 0 -104.5 -28t-71 -70t-40 -91t-12.5 -91q0 -72 37.5 -108.5t100.5 -36.5q58 0 101 26t71.5 66.5t42 90.5t13.5 97q0 74 -38 109.5t-100 35.5zM341 677q12 53 42 76t74 34l-7 -32q-26 -10 -41.5 -27.5
t-23.5 -52.5h20l-16 -74h-65z" />
    <glyph glyph-name="Hcircumflex" unicode="&#x124;" horiz-adv-x="685" 
d="M716 720l-153 -720h-57l73 342h-408l-73 -342h-56l153 720h56l-70 -328h408l70 328h57zM600 768h-52l-64 104l-107 -104h-58l137 137h66z" />
    <glyph glyph-name="hcircumflex" unicode="&#x125;" horiz-adv-x="553" 
d="M352 489q-29 0 -60 -11.5t-57.5 -33.5t-47 -53t-28.5 -70l-68 -321h-54l153 720h54l-62 -286q36 50 86 75.5t101 25.5q70 0 110.5 -35.5t40.5 -101.5q0 -11 -1 -22t-4 -25l-74 -351h-54l74 352l3 21q2 9 2 19q0 47 -29 72t-85 25zM479 768h-52l-64 104l-107 -104h-58
l137 137h66z" />
    <glyph glyph-name="Hbar" unicode="&#x126;" horiz-adv-x="691" 
d="M254 720l-24 -109h408l24 109h57l-24 -109h65l-9 -45h-65l-120 -566h-57l72 342h-408l-72 -342h-56l120 566h-65l9 45h65l24 109h56zM592 391l37 175h-408l-37 -175h408z" />
    <glyph glyph-name="hbar" unicode="&#x127;" horiz-adv-x="553" 
d="M352 489q-29 0 -60 -11.5t-57.5 -33.5t-47 -53t-28.5 -70l-68 -321h-54l130 613h-55l10 44h54l14 63h54l-14 -63h171l-9 -44h-172l-38 -179q36 50 86 75.5t101 25.5q70 0 110.5 -35.5t40.5 -101.5q0 -11 -1 -22t-4 -25l-74 -351h-54l74 352l3 21q2 9 2 19q0 47 -29 72
t-85 25z" />
    <glyph glyph-name="Itilde" unicode="&#x128;" horiz-adv-x="220" 
d="M251 720l-153 -720h-56l153 720h56zM290 796q-21 0 -33.5 5.5t-23 11.5t-21 11.5t-27.5 5.5q-18 0 -38.5 -9.5t-46.5 -26.5l11 51q24 16 41.5 23.5t40.5 7.5q21 0 33.5 -5.5t23 -11.5t21 -11.5t27.5 -5.5q18 0 38 9.5t46 26.5l-11 -52q-23 -15 -40.5 -22.5t-40.5 -7.5z
" />
    <glyph glyph-name="itilde" unicode="&#x129;" horiz-adv-x="207" 
d="M254 626q-21 0 -33.5 5.5t-23 11.5t-21 11.5t-27.5 5.5q-18 0 -38.5 -9.5t-46.5 -26.5l11 51q24 16 41.5 23.5t40.5 7.5q21 0 33.5 -5.5t23 -11.5t21 -11.5t27.5 -5.5q18 0 38 9.5t46 26.5l-11 -52q-23 -15 -40.5 -22.5t-40.5 -7.5zM36 0l110 520h54l-110 -520h-54z" />
    <glyph glyph-name="Imacron" unicode="&#x12a;" horiz-adv-x="220" 
d="M251 720l-153 -720h-56l153 720h56zM118 823l10 47h242l-10 -47h-242z" />
    <glyph glyph-name="imacron" unicode="&#x12b;" horiz-adv-x="207" 
d="M81 653l10 47h242l-10 -47h-242zM36 0l110 520h54l-110 -520h-54z" />
    <glyph glyph-name="Ibreve" unicode="&#x12c;" horiz-adv-x="220" 
d="M251 720l-153 -720h-56l153 720h56zM220 762q-54 1 -83 29t-29 78v12q0 6 2 13h46q-2 -7 -2 -13v-10q0 -30 15 -49.5t52 -19.5q45 0 70 27t36 65h48q-15 -62 -55 -96.5t-100 -35.5z" />
    <glyph glyph-name="ibreve" unicode="&#x12d;" horiz-adv-x="207" 
d="M36 0l110 520h54l-110 -520h-54zM178 592q-54 1 -83 29t-29 78v12q0 6 2 13h46q-2 -7 -2 -13v-10q0 -30 15 -49.5t52 -19.5q45 0 70 27t36 65h48q-15 -62 -55 -96.5t-100 -35.5z" />
    <glyph glyph-name="Iogonek" unicode="&#x12e;" horiz-adv-x="220" 
d="M136 -149q-18 -42 -56.5 -65.5t-80.5 -23.5q-45 0 -72.5 22t-27.5 60q0 50 40.5 91t102.5 67l153 718h56l-153 -720h-4q-30 -14 -57 -29.5t-47 -34t-32 -39.5t-12 -45q0 -25 15.5 -37.5t42.5 -12.5q29 0 49.5 13.5t32.5 35.5h50z" />
    <glyph glyph-name="iogonek" unicode="&#x12f;" horiz-adv-x="207" 
d="M130 -149q-19 -42 -57 -65.5t-81 -23.5q-45 0 -72.5 22t-27.5 60q0 25 11 48t30.5 43t45.5 37t57 30l109 518h54q-27 -128 -55.5 -260t-54.5 -260q-24 -10 -50.5 -24t-48.5 -32.5t-36.5 -41.5t-14.5 -50q0 -25 15.5 -37.5t43.5 -12.5q29 0 49.5 13.5t31.5 35.5h51z
M166 646l17 74h64l-16 -74h-65z" />
    <glyph glyph-name="Idotaccent" unicode="&#x130;" horiz-adv-x="220" 
d="M251 720l-153 -720h-56l153 720h56zM209 816l16 74h65l-17 -74h-64z" />
    <glyph glyph-name="dotlessi" unicode="&#x131;" horiz-adv-x="207" 
d="M36 0l110 520h54l-110 -520h-54z" />
    <glyph glyph-name="IJ" unicode="&#x132;" horiz-adv-x="744" 
d="M251 720l-153 -720h-56l153 720h56zM306 191q-2 -15 -2.5 -22.5t-0.5 -16.5q0 -59 33.5 -88.5t91.5 -29.5q72 0 120 43t65 124l110 519h57l-112 -522q-21 -100 -81.5 -156.5t-159.5 -56.5q-84 0 -131.5 44.5t-47.5 119.5q0 22 4 42h54z" />
    <glyph glyph-name="ij" unicode="&#x133;" horiz-adv-x="414" 
d="M168 646l16 74h65l-17 -74h-64zM36 0l110 520h54l-110 -520h-54zM85 -135q17 -7 33 -10t28 -3q32 0 52.5 18t30.5 63l124 587h54l-126 -593q-26 -122 -131 -122q-19 0 -37.5 3.5t-36.5 12.5zM374 646l16 74h65l-16 -74h-65z" />
    <glyph glyph-name="Jcircumflex" unicode="&#x134;" horiz-adv-x="524" 
d="M86 191q-2 -15 -2.5 -22.5t-0.5 -16.5q0 -59 33.5 -88.5t91.5 -29.5q72 0 120 43t65 124l110 519h57l-112 -522q-21 -100 -81.5 -156.5t-159.5 -56.5q-84 0 -131.5 44.5t-47.5 119.5q0 22 4 42h54zM668 768h-52l-64 104l-107 -104h-58l137 137h66z" />
    <glyph glyph-name="jcircumflex" unicode="&#x135;" horiz-adv-x="207" 
d="M-122 -135q17 -7 33 -10t28 -3q32 0 52.5 18t30.5 63l124 587h54l-126 -593q-26 -122 -131 -122q-19 0 -37.5 3.5t-36.5 12.5zM321 598h-52l-64 104l-107 -104h-58l137 137h66z" />
    <glyph glyph-name="Kcommaaccent" unicode="&#x136;" horiz-adv-x="596" 
d="M474 0l-301 354l-75 -354h-56l153 720h56l-71 -335l414 335h73l-434 -353l311 -367h-70zM253 -157q-11 -48 -41 -76t-73 -39l6 32q26 10 42.5 30t24.5 55h-19l15 74h62z" />
    <glyph glyph-name="kcommaaccent" unicode="&#x137;" horiz-adv-x="488" 
d="M37 0l153 720h54l-88 -412l291 212h76l-318 -232l241 -288h-67l-230 275l-58 -275h-54zM209 -157q-11 -48 -41 -76t-73 -39l6 32q26 10 42.5 30t24.5 55h-19l15 74h62z" />
    <glyph glyph-name="kgreenlandic" unicode="&#x138;" horiz-adv-x="488" 
d="M37 0l110 520h54l-50 -236l305 236h67l-319 -246l242 -274h-74l-228 254l-53 -254h-54z" />
    <glyph glyph-name="Lacute" unicode="&#x139;" horiz-adv-x="548" 
d="M252 720l-143 -670h367l-10 -50h-424l153 720h57zM309 905h78l-157 -137h-53z" />
    <glyph glyph-name="lacute" unicode="&#x13a;" horiz-adv-x="208" 
d="M91 0h-54l153 720h54zM301 905h78l-157 -137h-53z" />
    <glyph glyph-name="Lcommaaccent" unicode="&#x13b;" horiz-adv-x="548" 
d="M252 720l-143 -670h367l-10 -50h-424l153 720h57zM243 -157q-11 -48 -41 -76t-73 -39l6 32q26 10 42.5 30t24.5 55h-19l15 74h62z" />
    <glyph glyph-name="lcommaaccent" unicode="&#x13c;" horiz-adv-x="208" 
d="M91 0h-54l153 720h54zM61 -157q-11 -48 -41 -76t-73 -39l6 32q26 10 42.5 30t24.5 55h-19l15 74h62z" />
    <glyph glyph-name="Lcaron" unicode="&#x13d;" horiz-adv-x="548" 
d="M252 720l-143 -670h367l-10 -50h-424l153 720h57zM407 644q-11 -53 -42.5 -76t-74.5 -34l7 32q26 10 41.5 27.5t23.5 52.5h-20l16 74h65z" />
    <glyph glyph-name="lcaron" unicode="&#x13e;" horiz-adv-x="265" 
d="M91 0h-54l153 720h54zM360 644q-11 -53 -42.5 -76t-74.5 -34l7 32q26 10 41.5 27.5t23.5 52.5h-20l16 74h65z" />
    <glyph glyph-name="Ldot" unicode="&#x13f;" horiz-adv-x="548" 
d="M252 720l-143 -670h367l-10 -50h-424l153 720h57zM376 341l16 74h65l-17 -74h-64z" />
    <glyph glyph-name="ldot" unicode="&#x140;" horiz-adv-x="235" 
d="M91 0h-54l153 720h54zM219 340l16 74h65l-17 -74h-64z" />
    <glyph glyph-name="Lslash" unicode="&#x141;" horiz-adv-x="548" 
d="M252 720l-67 -314l176 93l-13 -59l-176 -93l-63 -297h367l-10 -50h-424l66 314l-65 -34l13 59l65 34l74 347h57z" />
    <glyph glyph-name="lslash" unicode="&#x142;" horiz-adv-x="214" 
d="M181 425l88 49l-12 -56l-88 -49l-78 -369h-54l71 335l-82 -45l12 56l82 45l70 329h54z" />
    <glyph glyph-name="Nacute" unicode="&#x143;" horiz-adv-x="712" 
d="M743 720l-153 -720h-61l-297 648l-137 -648h-53l153 720h65l294 -644l137 644h52zM557 905h78l-157 -137h-53z" />
    <glyph glyph-name="nacute" unicode="&#x144;" horiz-adv-x="553" 
d="M369 535q70 0 110.5 -35.5t40.5 -101.5q0 -11 -1.5 -23t-3.5 -24l-74 -351h-54l74 352l3 21q2 9 2 19q0 47 -29 72t-85 25q-29 0 -60 -11.5t-58 -33t-47 -52.5t-28 -69l-68 -323h-54l110 520h45l-12 -89q37 51 87.5 77.5t101.5 26.5zM454 735h78l-157 -137h-53z" />
    <glyph glyph-name="Ncommaaccent" unicode="&#x145;" horiz-adv-x="712" 
d="M743 720l-153 -720h-61l-297 648l-137 -648h-53l153 720h65l294 -644l137 644h52zM319 -157q-11 -48 -41 -76t-73 -39l6 32q26 10 42.5 30t24.5 55h-19l15 74h62z" />
    <glyph glyph-name="ncommaaccent" unicode="&#x146;" horiz-adv-x="553" 
d="M369 535q70 0 110.5 -35.5t40.5 -101.5q0 -11 -1.5 -23t-3.5 -24l-74 -351h-54l74 352l3 21q2 9 2 19q0 47 -29 72t-85 25q-29 0 -60 -11.5t-58 -33t-47 -52.5t-28 -69l-68 -323h-54l110 520h45l-12 -89q37 51 87.5 77.5t101.5 26.5zM241 -157q-11 -48 -41 -76t-73 -39
l6 32q26 10 42.5 30t24.5 55h-19l15 74h62z" />
    <glyph glyph-name="Ncaron" unicode="&#x147;" horiz-adv-x="712" 
d="M743 720l-153 -720h-61l-297 648l-137 -648h-53l153 720h65l294 -644l137 644h52zM368 905h51l64 -104l108 104h58q-35 -35 -69 -68.5t-68 -68.5h-66z" />
    <glyph glyph-name="ncaron" unicode="&#x148;" horiz-adv-x="553" 
d="M369 535q70 0 110.5 -35.5t40.5 -101.5q0 -11 -1.5 -23t-3.5 -24l-74 -351h-54l74 352l3 21q2 9 2 19q0 47 -29 72t-85 25q-29 0 -60 -11.5t-58 -33t-47 -52.5t-28 -69l-68 -323h-54l110 520h45l-12 -89q37 51 87.5 77.5t101.5 26.5zM261 735h51l64 -104l108 104h58
q-35 -35 -69 -68.5t-68 -68.5h-66z" />
    <glyph glyph-name="napostrophe" unicode="&#x149;" horiz-adv-x="553" 
d="M369 535q70 0 110.5 -35.5t40.5 -101.5q0 -11 -1.5 -23t-3.5 -24l-74 -351h-54l74 352l3 21q2 9 2 19q0 47 -29 72t-85 25q-29 0 -60 -11.5t-58 -33t-47 -52.5t-28 -69l-68 -323h-54l110 520h45l-12 -89q37 51 87.5 77.5t101.5 26.5zM185 644q-11 -53 -42.5 -76
t-74.5 -34l7 32q26 10 41.5 27.5t23.5 52.5h-20l16 74h65z" />
    <glyph glyph-name="Eng" unicode="&#x14a;" horiz-adv-x="712" 
d="M743 720l-169 -793q-26 -122 -130 -122q-19 0 -37.5 3.5t-36.5 12.5l9 44q17 -7 33 -10t28 -3q32 0 53 18t30 63l13 67h-7l-297 648l-137 -648h-53l153 720h65l294 -644l137 644h52z" />
    <glyph glyph-name="eng" unicode="&#x14b;" horiz-adv-x="553" 
d="M369 535q70 0 110.5 -35.5t40.5 -101.5q0 -11 -1.5 -23t-3.5 -24l-90 -424q-26 -122 -131 -122q-19 0 -37.5 3.5t-36.5 12.5l9 44q17 -7 33.5 -10t28.5 -3q32 0 52 18t30 63l88 419l3 21q2 9 2 19q0 47 -29 72t-85 25q-29 0 -60 -11.5t-58 -33t-47 -52.5t-28 -69
l-68 -323h-54l110 520h45l-12 -89q37 51 87.5 77.5t101.5 26.5z" />
    <glyph glyph-name="Omacron" unicode="&#x14c;" horiz-adv-x="753" 
d="M343 33q66 0 117 21.5t90 57.5t65.5 81.5t43.5 93t24.5 93.5t7.5 82q0 55 -15 97t-43 70.5t-66.5 43t-84.5 14.5q-66 0 -117.5 -21.5t-90.5 -57.5t-65.5 -81.5t-43 -93t-24 -93.5t-7.5 -82q0 -111 57 -168t152 -57zM340 -15q-58 0 -106.5 18t-83 53t-54 86t-19.5 117
q0 42 9 94t28.5 104.5t51.5 102.5t77.5 89t105.5 62.5t137 23.5q57 0 105 -18t83 -52.5t54.5 -85.5t19.5 -118q0 -42 -9 -93.5t-29 -104.5t-51.5 -103t-77 -89t-105.5 -62.5t-136 -23.5zM385 823l10 47h242l-10 -47h-242z" />
    <glyph glyph-name="omacron" unicode="&#x14d;" horiz-adv-x="573" 
d="M53 186q0 30 6.5 67.5t20.5 76t37 75.5t56.5 66t78 46.5t102.5 17.5q88 0 142.5 -51t54.5 -149q0 -30 -6.5 -67.5t-20.5 -76.5t-37 -76t-56.5 -66t-78 -46.5t-101.5 -17.5q-44 0 -80.5 13.5t-62.5 39t-40.5 63t-14.5 85.5zM351 491q-47 0 -83 -16t-63 -42t-45.5 -59
t-29.5 -67t-16 -66t-5 -56q0 -78 39.5 -117t105.5 -39q46 0 81.5 16t62.5 42t45.5 59t30 67t16.5 66t5 56q0 78 -38.5 117t-105.5 39zM263 653l10 47h242l-10 -47h-242z" />
    <glyph glyph-name="Obreve" unicode="&#x14e;" horiz-adv-x="753" 
d="M343 33q66 0 117 21.5t90 57.5t65.5 81.5t43.5 93t24.5 93.5t7.5 82q0 55 -15 97t-43 70.5t-66.5 43t-84.5 14.5q-66 0 -117.5 -21.5t-90.5 -57.5t-65.5 -81.5t-43 -93t-24 -93.5t-7.5 -82q0 -111 57 -168t152 -57zM340 -15q-58 0 -106.5 18t-83 53t-54 86t-19.5 117
q0 42 9 94t28.5 104.5t51.5 102.5t77.5 89t105.5 62.5t137 23.5q57 0 105 -18t83 -52.5t54.5 -85.5t19.5 -118q0 -42 -9 -93.5t-29 -104.5t-51.5 -103t-77 -89t-105.5 -62.5t-136 -23.5zM507 762q-54 1 -83 29t-29 78v12q0 6 2 13h46q-2 -7 -2 -13v-10q0 -30 15 -49.5
t52 -19.5q45 0 70 27t36 65h48q-15 -62 -55 -96.5t-100 -35.5z" />
    <glyph glyph-name="obreve" unicode="&#x14f;" horiz-adv-x="573" 
d="M53 186q0 30 6.5 67.5t20.5 76t37 75.5t56.5 66t78 46.5t102.5 17.5q88 0 142.5 -51t54.5 -149q0 -30 -6.5 -67.5t-20.5 -76.5t-37 -76t-56.5 -66t-78 -46.5t-101.5 -17.5q-44 0 -80.5 13.5t-62.5 39t-40.5 63t-14.5 85.5zM351 491q-47 0 -83 -16t-63 -42t-45.5 -59
t-29.5 -67t-16 -66t-5 -56q0 -78 39.5 -117t105.5 -39q46 0 81.5 16t62.5 42t45.5 59t30 67t16.5 66t5 56q0 78 -38.5 117t-105.5 39zM374 592q-54 1 -83 29t-29 78v12q0 6 2 13h46q-2 -7 -2 -13v-10q0 -30 15 -49.5t52 -19.5q45 0 70 27t36 65h48q-15 -62 -55 -96.5
t-100 -35.5z" />
    <glyph glyph-name="Ohungarumlaut" unicode="&#x150;" horiz-adv-x="753" 
d="M343 33q66 0 117 21.5t90 57.5t65.5 81.5t43.5 93t24.5 93.5t7.5 82q0 55 -15 97t-43 70.5t-66.5 43t-84.5 14.5q-66 0 -117.5 -21.5t-90.5 -57.5t-65.5 -81.5t-43 -93t-24 -93.5t-7.5 -82q0 -111 57 -168t152 -57zM340 -15q-58 0 -106.5 18t-83 53t-54 86t-19.5 117
q0 42 9 94t28.5 104.5t51.5 102.5t77.5 89t105.5 62.5t137 23.5q57 0 105 -18t83 -52.5t54.5 -85.5t19.5 -118q0 -42 -9 -93.5t-29 -104.5t-51.5 -103t-77 -89t-105.5 -62.5t-136 -23.5zM494 905h69l-133 -137h-47zM653 905h70l-134 -137h-47z" />
    <glyph glyph-name="ohungarumlaut" unicode="&#x151;" horiz-adv-x="573" 
d="M53 186q0 30 6.5 67.5t20.5 76t37 75.5t56.5 66t78 46.5t102.5 17.5q88 0 142.5 -51t54.5 -149q0 -30 -6.5 -67.5t-20.5 -76.5t-37 -76t-56.5 -66t-78 -46.5t-101.5 -17.5q-44 0 -80.5 13.5t-62.5 39t-40.5 63t-14.5 85.5zM351 491q-47 0 -83 -16t-63 -42t-45.5 -59
t-29.5 -67t-16 -66t-5 -56q0 -78 39.5 -117t105.5 -39q46 0 81.5 16t62.5 42t45.5 59t30 67t16.5 66t5 56q0 78 -38.5 117t-105.5 39zM379 735h69l-133 -137h-47zM538 735h70l-134 -137h-47z" />
    <glyph glyph-name="OE" unicode="&#x152;" horiz-adv-x="946" 
d="M340 -12q-58 0 -106 17.5t-83 52t-54.5 85.5t-19.5 117q0 44 9.5 96t29.5 105t52.5 102.5t78 87.5t106 61t137.5 23q34 0 57 -3.5t51 -11.5h404l-10 -49h-350l-60 -281h321l-11 -48h-320l-62 -293h349l-10 -49h-406q-24 -5 -48.5 -8.5t-54.5 -3.5zM486 687
q-67 0 -118.5 -21.5t-91 -56.5t-66.5 -80t-44 -92.5t-24.5 -94t-7.5 -83.5q0 -55 15 -97t42.5 -70t66 -42t85.5 -14q26 0 55.5 4t55.5 12l132 619q-24 9 -48.5 12.5t-51.5 3.5z" />
    <glyph glyph-name="oe" unicode="&#x153;" horiz-adv-x="996" 
d="M921 142q-31 -71 -95.5 -114t-148.5 -43q-76 0 -126 38t-63 110q-40 -75 -101 -111.5t-136 -36.5q-44 0 -80.5 13.5t-62.5 39t-40.5 63t-14.5 85.5q0 30 6.5 67.5t20.5 76t37 75.5t56.5 66t78 46.5t102.5 17.5q72 0 121 -36.5t61 -111.5q40 73 101 110.5t134 37.5
q42 0 77 -12t60.5 -36t40 -61t14.5 -86q0 -21 -2.5 -44t-8.5 -49h-417q-6 -32 -6 -60q0 -80 42.5 -118t110.5 -38q59 0 107 29.5t74 81.5h58zM351 491q-47 0 -83 -16t-63 -42t-45.5 -59t-29.5 -67t-16 -66t-5 -56q0 -78 39.5 -117t105.5 -39q40 0 76.5 14.5t67 43.5t53 72.5
t34.5 100.5q9 42 9 77q0 78 -39 116t-104 38zM769 491q-73 0 -134 -50.5t-90 -148.5h360q2 15 3 26.5t1 23.5q0 75 -38.5 112t-101.5 37z" />
    <glyph glyph-name="Racute" unicode="&#x154;" horiz-adv-x="629" 
d="M507 0l-137 296h-209l-63 -296h-56l153 720h236q109 0 165 -44.5t56 -123.5q0 -50 -16 -90.5t-45.5 -72t-71 -53t-91.5 -32.5l144 -304h-65zM241 672l-70 -328h191q52 0 95 16.5t73 44t46.5 65t16.5 79.5q0 59 -40 91t-121 32h-191zM495 905h78l-157 -137h-53z" />
    <glyph glyph-name="racute" unicode="&#x155;" horiz-adv-x="341" 
d="M37 0l110 520h44l-13 -100q33 60 74.5 87.5t89.5 27.5q15 0 30 -2.5t29 -7.5l-12 -52q-14 5 -27 7.5t-28 2.5q-29 0 -57.5 -13.5t-53 -39t-43.5 -62.5t-29 -84l-60 -284h-54zM376 735h78l-157 -137h-53z" />
    <glyph glyph-name="Rcommaaccent" unicode="&#x156;" horiz-adv-x="629" 
d="M507 0l-137 296h-209l-63 -296h-56l153 720h236q109 0 165 -44.5t56 -123.5q0 -50 -16 -90.5t-45.5 -72t-71 -53t-91.5 -32.5l144 -304h-65zM241 672l-70 -328h191q52 0 95 16.5t73 44t46.5 65t16.5 79.5q0 59 -40 91t-121 32h-191zM261 -157q-11 -48 -41 -76t-73 -39
l6 32q26 10 42.5 30t24.5 55h-19l15 74h62z" />
    <glyph glyph-name="rcommaaccent" unicode="&#x157;" horiz-adv-x="341" 
d="M37 0l110 520h44l-13 -100q33 60 74.5 87.5t89.5 27.5q15 0 30 -2.5t29 -7.5l-12 -52q-14 5 -27 7.5t-28 2.5q-29 0 -57.5 -13.5t-53 -39t-43.5 -62.5t-29 -84l-60 -284h-54zM67 -157q-11 -48 -41 -76t-73 -39l6 32q26 10 42.5 30t24.5 55h-19l15 74h62z" />
    <glyph glyph-name="Rcaron" unicode="&#x158;" horiz-adv-x="629" 
d="M507 0l-137 296h-209l-63 -296h-56l153 720h236q109 0 165 -44.5t56 -123.5q0 -50 -16 -90.5t-45.5 -72t-71 -53t-91.5 -32.5l144 -304h-65zM241 672l-70 -328h191q52 0 95 16.5t73 44t46.5 65t16.5 79.5q0 59 -40 91t-121 32h-191zM295 905h51l64 -104l108 104h58
q-35 -35 -69 -68.5t-68 -68.5h-66z" />
    <glyph glyph-name="rcaron" unicode="&#x159;" horiz-adv-x="341" 
d="M37 0l110 520h44l-13 -100q33 60 74.5 87.5t89.5 27.5q15 0 30 -2.5t29 -7.5l-12 -52q-14 5 -27 7.5t-28 2.5q-29 0 -57.5 -13.5t-53 -39t-43.5 -62.5t-29 -84l-60 -284h-54zM169 735h51l64 -104l108 104h58q-35 -35 -69 -68.5t-68 -68.5h-66z" />
    <glyph glyph-name="Sacute" unicode="&#x15a;" horiz-adv-x="646" 
d="M292 34q60 0 106 15.5t77 41.5t47 60t16 71q0 24 -10 44t-33.5 36.5t-62.5 30.5t-97 28q-100 23 -144.5 63.5t-44.5 100.5q0 46 18.5 84.5t54 66.5t87.5 43.5t120 15.5q109 0 171.5 -48.5t67.5 -131.5h-58q0 62 -46 96.5t-137 34.5q-56 0 -97.5 -12t-69 -33.5t-41 -51
t-13.5 -63.5q0 -23 9 -40.5t29.5 -31.5t54.5 -26.5t84 -24.5q116 -28 165.5 -71.5t49.5 -108.5q0 -51 -20.5 -94.5t-59.5 -75.5t-96 -50t-130 -18q-57 0 -102.5 14t-77.5 39.5t-49 62.5t-17 82h56q0 -72 49.5 -110.5t143.5 -38.5zM522 905h78l-157 -137h-53z" />
    <glyph glyph-name="sacute" unicode="&#x15b;" horiz-adv-x="494" 
d="M213 29q33 0 63.5 8.5t54 25t38 40.5t14.5 56q0 21 -9 35.5t-27 25t-45.5 18t-64.5 14.5q-68 12 -105.5 43.5t-37.5 82.5q0 30 12.5 58.5t38 50t65.5 35t96 13.5q83 0 130.5 -39t47.5 -105h-54v7q-1 41 -33.5 67t-95.5 26q-41 0 -69.5 -9t-46.5 -25t-26.5 -36.5
t-8.5 -42.5q0 -32 27.5 -51t97.5 -32q87 -16 126.5 -48.5t39.5 -83.5q0 -32 -13.5 -64t-41.5 -57.5t-72 -41t-104 -15.5q-88 0 -135.5 39t-47.5 99v5q0 4 1 9h53q-1 -6 -1 -10v-5q0 -42 33.5 -67.5t99.5 -25.5zM421 735h78l-157 -137h-53z" />
    <glyph glyph-name="Scircumflex" unicode="&#x15c;" horiz-adv-x="646" 
d="M292 34q60 0 106 15.5t77 41.5t47 60t16 71q0 24 -10 44t-33.5 36.5t-62.5 30.5t-97 28q-100 23 -144.5 63.5t-44.5 100.5q0 46 18.5 84.5t54 66.5t87.5 43.5t120 15.5q109 0 171.5 -48.5t67.5 -131.5h-58q0 62 -46 96.5t-137 34.5q-56 0 -97.5 -12t-69 -33.5t-41 -51
t-13.5 -63.5q0 -23 9 -40.5t29.5 -31.5t54.5 -26.5t84 -24.5q116 -28 165.5 -71.5t49.5 -108.5q0 -51 -20.5 -94.5t-59.5 -75.5t-96 -50t-130 -18q-57 0 -102.5 14t-77.5 39.5t-49 62.5t-17 82h56q0 -72 49.5 -110.5t143.5 -38.5zM577 768h-52l-64 104l-107 -104h-58
l137 137h66z" />
    <glyph glyph-name="scircumflex" unicode="&#x15d;" horiz-adv-x="494" 
d="M213 29q33 0 63.5 8.5t54 25t38 40.5t14.5 56q0 21 -9 35.5t-27 25t-45.5 18t-64.5 14.5q-68 12 -105.5 43.5t-37.5 82.5q0 30 12.5 58.5t38 50t65.5 35t96 13.5q83 0 130.5 -39t47.5 -105h-54v7q-1 41 -33.5 67t-95.5 26q-41 0 -69.5 -9t-46.5 -25t-26.5 -36.5
t-8.5 -42.5q0 -32 27.5 -51t97.5 -32q87 -16 126.5 -48.5t39.5 -83.5q0 -32 -13.5 -64t-41.5 -57.5t-72 -41t-104 -15.5q-88 0 -135.5 39t-47.5 99v5q0 4 1 9h53q-1 -6 -1 -10v-5q0 -42 33.5 -67.5t99.5 -25.5zM468 598h-52l-64 104l-107 -104h-58l137 137h66z" />
    <glyph glyph-name="Scedilla" unicode="&#x15e;" horiz-adv-x="646" 
d="M352 -131q0 23 -21.5 36.5t-74.5 13.5l19 67q-109 5 -170.5 55.5t-61.5 141.5h56q0 -73 50 -111t143 -38q60 0 106 15t77 40.5t47 59.5t16 73q0 24 -10 44t-33.5 36.5t-62.5 30.5t-97 28q-100 23 -144.5 63.5t-44.5 100.5q0 46 18.5 84.5t54 66.5t87.5 43.5t120 15.5
q53 0 97 -12.5t75.5 -35.5t49 -56.5t17.5 -75.5h-58q0 60 -46 95.5t-137 35.5q-56 0 -97.5 -12t-69 -33.5t-41 -51t-13.5 -63.5q0 -23 9 -40.5t29.5 -31.5t54.5 -26.5t84 -24.5q116 -28 165.5 -71.5t49.5 -108.5q0 -48 -18.5 -90t-54 -73.5t-87.5 -50.5t-118 -23l-7 -35
q44 -5 66 -27.5t22 -52.5q0 -20 -8.5 -40t-25 -36t-41.5 -26t-57 -10q-46 0 -74.5 22.5t-28.5 65.5h43v-4q0 -45 64 -45q34 0 58 20.5t24 50.5z" />
    <glyph glyph-name="scedilla" unicode="&#x15f;" horiz-adv-x="494" 
d="M316 -129q0 -20 -8.5 -40t-25 -36t-41.5 -26t-57 -10q-46 0 -74.5 22.5t-28.5 65.5h43v-4q0 -45 64 -45q34 0 58 20.5t24 50.5q0 23 -22 36.5t-75 13.5l20 67q-80 4 -123 42t-43 95v5q0 4 1 9h53q-1 -6 -1 -10v-5q0 -42 33.5 -67.5t99.5 -25.5q33 0 63.5 8.5t54 25
t38 40.5t14.5 56q0 21 -9 35.5t-27 25t-45.5 18t-64.5 14.5q-68 12 -105.5 43.5t-37.5 82.5q0 30 12.5 58.5t38 50t65.5 35t96 13.5q83 0 130.5 -39t47.5 -105h-54v7q-1 41 -33.5 67t-95.5 26q-41 0 -69.5 -9t-46.5 -25t-26.5 -36.5t-8.5 -42.5q0 -32 27.5 -51t97.5 -32
q87 -16 126.5 -48.5t39.5 -83.5q0 -31 -12 -61t-37.5 -55t-64 -41.5t-92.5 -19.5l-8 -35q45 -5 67 -27.5t22 -52.5z" />
    <glyph glyph-name="Scaron" unicode="&#x160;" horiz-adv-x="646" 
d="M292 34q60 0 106 15.5t77 41.5t47 60t16 71q0 24 -10 44t-33.5 36.5t-62.5 30.5t-97 28q-100 23 -144.5 63.5t-44.5 100.5q0 46 18.5 84.5t54 66.5t87.5 43.5t120 15.5q109 0 171.5 -48.5t67.5 -131.5h-58q0 62 -46 96.5t-137 34.5q-56 0 -97.5 -12t-69 -33.5t-41 -51
t-13.5 -63.5q0 -23 9 -40.5t29.5 -31.5t54.5 -26.5t84 -24.5q116 -28 165.5 -71.5t49.5 -108.5q0 -51 -20.5 -94.5t-59.5 -75.5t-96 -50t-130 -18q-57 0 -102.5 14t-77.5 39.5t-49 62.5t-17 82h56q0 -72 49.5 -110.5t143.5 -38.5zM322 905h51l64 -104l108 104h58
q-35 -35 -69 -68.5t-68 -68.5h-66z" />
    <glyph glyph-name="scaron" unicode="&#x161;" horiz-adv-x="494" 
d="M213 29q33 0 63.5 8.5t54 25t38 40.5t14.5 56q0 21 -9 35.5t-27 25t-45.5 18t-64.5 14.5q-68 12 -105.5 43.5t-37.5 82.5q0 30 12.5 58.5t38 50t65.5 35t96 13.5q83 0 130.5 -39t47.5 -105h-54v7q-1 41 -33.5 67t-95.5 26q-41 0 -69.5 -9t-46.5 -25t-26.5 -36.5
t-8.5 -42.5q0 -32 27.5 -51t97.5 -32q87 -16 126.5 -48.5t39.5 -83.5q0 -32 -13.5 -64t-41.5 -57.5t-72 -41t-104 -15.5q-88 0 -135.5 39t-47.5 99v5q0 4 1 9h53q-1 -6 -1 -10v-5q0 -42 33.5 -67.5t99.5 -25.5zM216 735h51l64 -104l108 104h58q-35 -35 -69 -68.5t-68 -68.5
h-66z" />
    <glyph glyph-name="Tcommaaccent" unicode="&#x162;" horiz-adv-x="575" 
d="M660 670h-243l-142 -670h-56l142 670h-242l11 50h541zM247 -157q-11 -48 -41 -76t-73 -39l6 32q26 10 42.5 30t24.5 55h-19l15 74h62z" />
    <glyph glyph-name="tcommaaccent" unicode="&#x163;" horiz-adv-x="302" 
d="M211 473l-77 -364q-2 -7 -3.5 -17t-1.5 -15q0 -25 15.5 -35.5t41.5 -10.5q14 0 29 2.5t36 8.5l-11 -46q-36 -11 -64 -11q-54 0 -77 24t-23 69q0 12 3 27.5t7 32.5l71 335h-75l10 47h75l30 125h51l-27 -125h121l-10 -47h-121zM125 -157q-11 -48 -41 -76t-73 -39l6 32
q26 10 42.5 30t24.5 55h-19l15 74h62z" />
    <glyph glyph-name="Tcaron" unicode="&#x164;" horiz-adv-x="575" 
d="M660 670h-243l-142 -670h-56l142 670h-242l11 50h541zM290 905h51l64 -104l108 104h58q-35 -35 -69 -68.5t-68 -68.5h-66z" />
    <glyph glyph-name="tcaron" unicode="&#x165;" horiz-adv-x="338" 
d="M434 660q-11 -50 -39.5 -76t-73.5 -37l7 32q27 9 40 25.5t19 44.5h-20l15 71h65zM211 473l-77 -364q-2 -7 -3.5 -17t-1.5 -15q0 -25 15.5 -35.5t41.5 -10.5q14 0 29 2.5t36 8.5l-11 -46q-36 -11 -64 -11q-54 0 -77 24t-23 69q0 12 3 27.5t7 32.5l71 335h-75l10 47h75
l30 125h51l-27 -125h121l-10 -47h-121z" />
    <glyph glyph-name="Tbar" unicode="&#x166;" horiz-adv-x="575" 
d="M660 670h-243l-51 -239h130l-10 -45h-129l-82 -386h-56l81 386h-128l9 45h129l51 239h-242l11 50h541z" />
    <glyph glyph-name="tbar" unicode="&#x167;" horiz-adv-x="302" 
d="M211 473l-20 -92h111l-9 -44h-111l-48 -228q-2 -7 -3.5 -17t-1.5 -15q0 -25 15.5 -35.5t41.5 -10.5q14 0 29 2.5t36 8.5l-11 -46q-36 -11 -64 -11q-54 0 -77 24t-23 69q0 12 3 27.5t7 32.5l42 199h-68l9 44h68l20 92h-75l10 47h75l30 125h51l-27 -125h121l-10 -47h-121z
" />
    <glyph glyph-name="Utilde" unicode="&#x168;" horiz-adv-x="702" 
d="M313 -15q-56 0 -99 15t-72.5 42t-45 64t-15.5 80q0 27 6 56l103 478h55l-104 -487q-3 -12 -4 -23t-1 -22q0 -70 48.5 -112.5t133.5 -42.5q49 0 92 15t77.5 41.5t58.5 63t33 80.5l104 487h55l-105 -490q-11 -52 -38 -97t-67.5 -78t-94.5 -51.5t-120 -18.5zM533 796
q-21 0 -33.5 5.5t-23 11.5t-21 11.5t-27.5 5.5q-18 0 -38.5 -9.5t-46.5 -26.5l11 51q24 16 41.5 23.5t40.5 7.5q21 0 33.5 -5.5t23 -11.5t21 -11.5t27.5 -5.5q18 0 38 9.5t46 26.5l-11 -52q-23 -15 -40.5 -22.5t-40.5 -7.5z" />
    <glyph glyph-name="utilde" unicode="&#x169;" horiz-adv-x="548" 
d="M196 520l-71 -337q-5 -25 -7 -36.5t-2 -21.5q0 -48 29 -71t83 -23q34 0 65.5 13t57 36t43.5 54t26 67l67 319h54l-110 -520h-44l10 83q-38 -51 -87 -74.5t-98 -23.5q-66 0 -108 34t-42 102q0 23 6 50l74 349h54zM416 626q-21 0 -33.5 5.5t-23 11.5t-21 11.5t-27.5 5.5
q-18 0 -38.5 -9.5t-46.5 -26.5l11 51q24 16 41.5 23.5t40.5 7.5q21 0 33.5 -5.5t23 -11.5t21 -11.5t27.5 -5.5q18 0 38 9.5t46 26.5l-11 -52q-23 -15 -40.5 -22.5t-40.5 -7.5z" />
    <glyph glyph-name="Umacron" unicode="&#x16a;" horiz-adv-x="702" 
d="M313 -15q-56 0 -99 15t-72.5 42t-45 64t-15.5 80q0 27 6 56l103 478h55l-104 -487q-3 -12 -4 -23t-1 -22q0 -70 48.5 -112.5t133.5 -42.5q49 0 92 15t77.5 41.5t58.5 63t33 80.5l104 487h55l-105 -490q-11 -52 -38 -97t-67.5 -78t-94.5 -51.5t-120 -18.5zM360 823l10 47
h242l-10 -47h-242z" />
    <glyph glyph-name="umacron" unicode="&#x16b;" horiz-adv-x="548" 
d="M196 520l-71 -337q-5 -25 -7 -36.5t-2 -21.5q0 -48 29 -71t83 -23q34 0 65.5 13t57 36t43.5 54t26 67l67 319h54l-110 -520h-44l10 83q-38 -51 -87 -74.5t-98 -23.5q-66 0 -108 34t-42 102q0 23 6 50l74 349h54zM244 653l10 47h242l-10 -47h-242z" />
    <glyph glyph-name="Ubreve" unicode="&#x16c;" horiz-adv-x="702" 
d="M313 -15q-56 0 -99 15t-72.5 42t-45 64t-15.5 80q0 27 6 56l103 478h55l-104 -487q-3 -12 -4 -23t-1 -22q0 -70 48.5 -112.5t133.5 -42.5q49 0 92 15t77.5 41.5t58.5 63t33 80.5l104 487h55l-105 -490q-11 -52 -38 -97t-67.5 -78t-94.5 -51.5t-120 -18.5zM475 762
q-54 1 -83 29t-29 78v12q0 6 2 13h46q-2 -7 -2 -13v-10q0 -30 15 -49.5t52 -19.5q45 0 70 27t36 65h48q-15 -62 -55 -96.5t-100 -35.5z" />
    <glyph glyph-name="ubreve" unicode="&#x16d;" horiz-adv-x="548" 
d="M196 520l-71 -337q-5 -25 -7 -36.5t-2 -21.5q0 -48 29 -71t83 -23q34 0 65.5 13t57 36t43.5 54t26 67l67 319h54l-110 -520h-44l10 83q-38 -51 -87 -74.5t-98 -23.5q-66 0 -108 34t-42 102q0 23 6 50l74 349h54zM361 592q-54 1 -83 29t-29 78v12q0 6 2 13h46
q-2 -7 -2 -13v-10q0 -30 15 -49.5t52 -19.5q45 0 70 27t36 65h48q-15 -62 -55 -96.5t-100 -35.5z" />
    <glyph glyph-name="Uring" unicode="&#x16e;" horiz-adv-x="702" 
d="M313 -15q-56 0 -99 15t-72.5 42t-45 64t-15.5 80q0 27 6 56l103 478h55l-104 -487q-3 -12 -4 -23t-1 -22q0 -70 48.5 -112.5t133.5 -42.5q49 0 92 15t77.5 41.5t58.5 63t33 80.5l104 487h55l-105 -490q-11 -52 -38 -97t-67.5 -78t-94.5 -51.5t-120 -18.5zM479 789
q41 0 63.5 27.5t22.5 65.5q0 33 -19 50.5t-50 17.5q-41 0 -63.5 -27t-22.5 -65q0 -33 19 -51t50 -18zM477 753q-51 0 -80.5 29.5t-29.5 74.5q0 24 9 47t25.5 41.5t41 29.5t55.5 11q51 0 80.5 -29t29.5 -74q0 -24 -8.5 -47.5t-25.5 -41.5t-41.5 -29.5t-55.5 -11.5z" />
    <glyph glyph-name="uring" unicode="&#x16f;" horiz-adv-x="548" 
d="M196 520l-71 -337q-5 -25 -7 -36.5t-2 -21.5q0 -48 29 -71t83 -23q34 0 65.5 13t57 36t43.5 54t26 67l67 319h54l-110 -520h-44l10 83q-38 -51 -87 -74.5t-98 -23.5q-66 0 -108 34t-42 102q0 23 6 50l74 349h54zM369 619q41 0 63.5 27.5t22.5 65.5q0 33 -19 50.5
t-50 17.5q-41 0 -63.5 -27t-22.5 -65q0 -33 19 -51t50 -18zM367 583q-51 0 -80.5 29.5t-29.5 74.5q0 24 9 47t25.5 41.5t41 29.5t55.5 11q51 0 80.5 -29t29.5 -74q0 -24 -8.5 -47.5t-25.5 -41.5t-41.5 -29.5t-55.5 -11.5z" />
    <glyph glyph-name="Uhungarumlaut" unicode="&#x170;" horiz-adv-x="702" 
d="M313 -15q-56 0 -99 15t-72.5 42t-45 64t-15.5 80q0 27 6 56l103 478h55l-104 -487q-3 -12 -4 -23t-1 -22q0 -70 48.5 -112.5t133.5 -42.5q49 0 92 15t77.5 41.5t58.5 63t33 80.5l104 487h55l-105 -490q-11 -52 -38 -97t-67.5 -78t-94.5 -51.5t-120 -18.5zM462 905h69
l-133 -137h-47zM621 905h70l-134 -137h-47z" />
    <glyph glyph-name="uhungarumlaut" unicode="&#x171;" horiz-adv-x="548" 
d="M196 520l-71 -337q-5 -25 -7 -36.5t-2 -21.5q0 -48 29 -71t83 -23q34 0 65.5 13t57 36t43.5 54t26 67l67 319h54l-110 -520h-44l10 83q-38 -51 -87 -74.5t-98 -23.5q-66 0 -108 34t-42 102q0 23 6 50l74 349h54zM366 735h69l-133 -137h-47zM525 735h70l-134 -137h-47z
" />
    <glyph glyph-name="Uogonek" unicode="&#x172;" horiz-adv-x="702" 
d="M329 -239q-45 0 -72.5 22.5t-27.5 60.5q0 42 30 78.5t79 63.5q-6 0 -12 -0.5t-12 -0.5q-56 0 -99.5 15t-73 42t-44.5 64t-15 81q0 26 6 55l102 478h56l-104 -487q-5 -25 -5 -45q0 -69 48.5 -111.5t132.5 -42.5q49 0 92.5 14.5t78 41t58 63t32.5 80.5l104 487h55
l-105 -490q-17 -78 -69 -138.5t-133 -88.5q-32 -11 -60 -26.5t-49 -35t-33.5 -42.5t-12.5 -48q0 -24 15.5 -36.5t43.5 -12.5q29 0 49.5 13.5t32.5 35.5h50q-18 -43 -56.5 -66.5t-81.5 -23.5z" />
    <glyph glyph-name="uogonek" unicode="&#x173;" horiz-adv-x="548" 
d="M62 121q0 23 6 50l74 349h54l-71 -337q-5 -25 -7 -36.5t-2 -21.5q0 -48 29 -71t83 -23q34 0 65.5 13t57 36t43.5 54t26 67l67 319h54l-110 -520q-26 -11 -52.5 -26.5t-47.5 -34t-34.5 -41t-13.5 -47.5q0 -24 15.5 -36.5t42.5 -12.5q29 0 50 13.5t33 35.5h50
q-19 -43 -57 -66.5t-82 -23.5q-45 0 -72 22.5t-27 60.5q0 51 42.5 93.5t108.5 68.5l10 77q-38 -51 -87 -74.5t-98 -23.5q-66 0 -108 34t-42 102z" />
    <glyph glyph-name="Wcircumflex" unicode="&#x174;" horiz-adv-x="954" 
d="M1055 720l-352 -720h-74l-50 666l-332 -666h-76l-46 720h55l40 -663l332 663h77l46 -661l323 661h57zM735 768h-52l-64 104l-107 -104h-58l137 137h66z" />
    <glyph glyph-name="wcircumflex" unicode="&#x175;" horiz-adv-x="769" 
d="M817 520l-260 -520h-65l-47 465l-237 -465h-67l-49 520h52l40 -465l237 465h68l44 -463l228 463h56zM613 598h-52l-64 104l-107 -104h-58l137 137h66z" />
    <glyph glyph-name="Ycircumflex" unicode="&#x176;" horiz-adv-x="623" 
d="M178 720l159 -388l329 388h62l-370 -438l-59 -282h-57l60 283l-182 437h58zM569 768h-52l-64 104l-107 -104h-58l137 137h66z" />
    <glyph glyph-name="ycircumflex" unicode="&#x177;" horiz-adv-x="497" 
d="M256 -4q-30 -53 -51.5 -89.5t-41 -59t-39.5 -32.5t-48 -10q-14 0 -30 3.5t-28 8.5l10 43q12 -5 25 -7.5t24 -2.5q16 0 29 7.5t26.5 25t30 46.5t39.5 71h-18l-97 520h54l86 -478l265 478h58zM468 598h-52l-64 104l-107 -104h-58l137 137h66z" />
    <glyph glyph-name="Ydieresis" unicode="&#x178;" horiz-adv-x="623" 
d="M178 720l159 -388l329 388h62l-370 -438l-59 -282h-57l60 283l-182 437h58zM303 820l16 70h63l-15 -70h-64zM508 820l16 70h63l-15 -70h-64z" />
    <glyph glyph-name="Zacute" unicode="&#x179;" horiz-adv-x="639" 
d="M90 49h462l-10 -49h-535l10 50l603 620h-448l11 50h522l-11 -48zM517 905h78l-157 -137h-53z" />
    <glyph glyph-name="zacute" unicode="&#x17a;" horiz-adv-x="479" 
d="M75 46h336l-9 -46h-405l11 52l428 422h-324l10 46h390l-11 -54zM418 735h78l-157 -137h-53z" />
    <glyph glyph-name="Zdotaccent" unicode="&#x17b;" horiz-adv-x="639" 
d="M90 49h462l-10 -49h-535l10 50l603 620h-448l11 50h522l-11 -48zM417 816l16 74h65l-17 -74h-64z" />
    <glyph glyph-name="zdotaccent" unicode="&#x17c;" horiz-adv-x="479" 
d="M75 46h336l-9 -46h-405l11 52l428 422h-324l10 46h390l-11 -54zM310 646l16 74h65l-17 -74h-64z" />
    <glyph glyph-name="Zcaron" unicode="&#x17d;" horiz-adv-x="639" 
d="M90 49h462l-10 -49h-535l10 50l603 620h-448l11 50h522l-11 -48zM334 905h51l64 -104l108 104h58q-35 -35 -69 -68.5t-68 -68.5h-66z" />
    <glyph glyph-name="zcaron" unicode="&#x17e;" horiz-adv-x="479" 
d="M75 46h336l-9 -46h-405l11 52l428 422h-324l10 46h390l-11 -54zM221 735h51l64 -104l108 104h58q-35 -35 -69 -68.5t-68 -68.5h-66z" />
    <glyph glyph-name="longs" unicode="&#x17f;" horiz-adv-x="300" 
d="M64 0l100 474h-77l10 46h77l20 94q13 60 49.5 90.5t92.5 30.5q41 0 82 -16l-9 -45q-20 7 -38 11t-37 4q-71 0 -87 -79l-129 -610h-54z" />
    <glyph glyph-name="florin" unicode="&#x192;" horiz-adv-x="300" 
d="M409 674q-20 7 -38 11t-37 4q-71 0 -87 -79l-19 -90h122l-10 -46h-122l-139 -654h-54l139 654h-77l10 46h77l20 94q13 60 49.5 90.5t92.5 30.5q41 0 82 -16z" />
    <glyph glyph-name="Aringacute" unicode="&#x1fa;" horiz-adv-x="663" 
d="M496 844h-47l119 113h72zM466 820q48 0 75.5 -24.5t27.5 -60.5q0 -44 -26.5 -76.5t-75.5 -44.5l148 -617h-57l-48 203h-347l-133 -203h-63l414 624q-26 10 -40.5 31t-14.5 47q0 19 8 40t24.5 39t43 30t64.5 12zM462 788q-25 0 -42.5 -8.5t-29 -22t-16.5 -29.5t-5 -30
q0 -26 16.5 -40.5t46.5 -14.5q25 0 43 8.5t29.5 21.5t16.5 29t5 31q0 55 -64 55zM193 247h309l-81 348z" />
    <glyph glyph-name="aringacute" unicode="&#x1fb;" horiz-adv-x="529" 
d="M103 385q21 67 80 108.5t147 41.5q77 0 122.5 -35t45.5 -99q0 -17 -5 -40l-76 -361h-44l10 86q-32 -40 -81.5 -70.5t-118.5 -30.5q-68 0 -110 32t-42 89q0 45 17.5 78t49 56t75.5 37t97 23l162 26l9 44q3 16 3 30q0 43 -30 67t-89 24q-63 0 -106.5 -29t-59.5 -77h-56z
M199 31q32 0 65 11.5t61 31.5t48.5 48.5t28.5 62.5l21 96l-144 -23q-105 -17 -147.5 -53.5t-42.5 -93.5q0 -40 29.5 -60t80.5 -20zM343 583.115q41 0 63.5 24.751q22.5 24.75 22.5 58.9512q0 29.7012 -19 45.4512q-19 15.751 -50 15.751q-41 0 -63.5 -24.3008t-22.5 -58.502
q0 -29.7012 19 -45.9014t50 -16.2002zM341 550.714q-51 0 -80.5 26.5508t-29.5 67.0518q0 21.6006 9 42.3018q9 20.7002 25.5 37.3506t41 26.5508t55.5 9.90039q51 0 80.5 -26.1006t29.5 -66.6016q0 -21.6006 -8.5 -42.752q-8.5 -21.1504 -25.5 -37.3506t-41.5 -26.5508
t-55.5 -10.3506zM464 899.518h78l-157 -123.303h-53z" />
    <glyph glyph-name="AEacute" unicode="&#x1fc;" horiz-adv-x="935" 
d="M191 203l-164 -203h-67l585 720h446l-11 -49h-349l-60 -281h320l-10 -48h-321l-62 -294h350l-10 -48h-406l43 203h-284zM229 251h256l89 425zM825 905h78l-157 -137h-53z" />
    <glyph glyph-name="aeacute" unicode="&#x1fd;" horiz-adv-x="927" 
d="M183 -15q-68 0 -110 32t-42 89q0 45 18 78t49.5 55.5t75.5 37t95 22.5l162 26q5 18 9 37.5t4 36.5q0 43 -30.5 67.5t-88.5 24.5q-63 0 -107 -30.5t-59 -75.5h-56q21 67 80 108.5t147 41.5q72 0 109.5 -30.5t45.5 -93.5q36 63 95 95t125 32q42 0 77.5 -12t61 -35.5
t39.5 -59.5t14 -84q0 -19 -2 -39.5t-7 -43.5h-417q-4 -21 -6 -39.5t-2 -34.5q0 -42 11.5 -71.5t32 -48t48.5 -27.5t61 -9q59 0 107 29.5t74 81.5h58q-31 -71 -95.5 -113.5t-148.5 -42.5q-73 0 -122.5 34.5t-66.5 101.5q-22 -38 -49.5 -65t-58 -43.5t-64 -24t-67.5 -7.5z
M278 258q-105 -17 -147 -54t-42 -93q0 -41 29.5 -60.5t80.5 -19.5q32 0 65 11.5t61 31.5t48 48.5t28 62.5l21 96zM703 494q-36 0 -71 -13.5t-64 -38.5t-52 -59t-35 -75h360q2 14 2.5 23.5t0.5 19.5q0 72 -38.5 107.5t-102.5 35.5zM625 735h78l-157 -137h-53z" />
    <glyph glyph-name="Oslashacute" unicode="&#x1fe;" horiz-adv-x="753" 
d="M340 -15q-60 0 -105 18l-65 -113h-56l77 133q-54 33 -84 92.5t-30 143.5q0 42 9 94t28.5 104.5t51.5 102.5t77.5 89t105.5 62.5t137 23.5q57 0 106 -20l61 105h56l-73 -126q52 -32 82 -90.5t30 -142.5q0 -42 -9 -93.5t-29 -104.5t-51.5 -103t-77 -89t-105.5 -62.5
t-136 -23.5zM343 33q66 0 117 21.5t90 57.5t65.5 81.5t43.5 93t24.5 93.5t7.5 82q0 66 -22 113.5t-61 74.5l-349 -603q39 -14 84 -14zM134 258q0 -69 22 -116.5t62 -73.5l349 604q-19 7 -40.5 11t-44.5 4q-66 0 -117.5 -21.5t-90.5 -57.5t-65.5 -81.5t-43 -93t-24 -93.5
t-7.5 -82zM583 905h78l-157 -137h-53z" />
    <glyph glyph-name="oslashacute" unicode="&#x1ff;" horiz-adv-x="573" 
d="M53 186q0 30 6.5 67.5t20.5 76t37 75.5t56.5 66t78 46.5t102.5 17.5q52 0 91 -18l75 113h53l-89 -136q31 -25 49 -65t18 -94q0 -30 -6.5 -67.5t-20.5 -76.5t-37 -76t-56.5 -66t-78 -46.5t-101.5 -17.5q-50 0 -93 19l-75 -114h-54l91 136q-32 26 -49.5 66t-17.5 94z
M351 491q-47 0 -83 -16t-63 -42t-45.5 -59t-29.5 -67t-16 -66t-5 -56q0 -76 40 -116l270 408q-30 14 -68 14zM495 335q0 78 -41 117l-270 -408q30 -15 70 -15q46 0 81.5 16t62.5 42t45.5 59t30 67t16.5 66t5 56zM463 735h78l-157 -137h-53z" />
    <glyph glyph-name="Scommaaccent" unicode="&#x218;" horiz-adv-x="646" 
d="M292 34q60 0 106 15.5t77 41.5t47 60t16 71q0 24 -10 44t-33.5 36.5t-62.5 30.5t-97 28q-100 23 -144.5 63.5t-44.5 100.5q0 46 18.5 84.5t54 66.5t87.5 43.5t120 15.5q109 0 171.5 -48.5t67.5 -131.5h-58q0 62 -46 96.5t-137 34.5q-56 0 -97.5 -12t-69 -33.5t-41 -51
t-13.5 -63.5q0 -23 9 -40.5t29.5 -31.5t54.5 -26.5t84 -24.5q116 -28 165.5 -71.5t49.5 -108.5q0 -51 -20.5 -94.5t-59.5 -75.5t-96 -50t-130 -18q-57 0 -102.5 14t-77.5 39.5t-49 62.5t-17 82h56q0 -72 49.5 -110.5t143.5 -38.5zM293 -157q-11 -48 -41 -76t-73 -39l6 32
q26 10 42.5 30t24.5 55h-19l15 74h62z" />
    <glyph glyph-name="scommaaccent" unicode="&#x219;" horiz-adv-x="494" 
d="M213 29q33 0 63.5 8.5t54 25t38 40.5t14.5 56q0 21 -9 35.5t-27 25t-45.5 18t-64.5 14.5q-68 12 -105.5 43.5t-37.5 82.5q0 30 12.5 58.5t38 50t65.5 35t96 13.5q83 0 130.5 -39t47.5 -105h-54v7q-1 41 -33.5 67t-95.5 26q-41 0 -69.5 -9t-46.5 -25t-26.5 -36.5
t-8.5 -42.5q0 -32 27.5 -51t97.5 -32q87 -16 126.5 -48.5t39.5 -83.5q0 -32 -13.5 -64t-41.5 -57.5t-72 -41t-104 -15.5q-88 0 -135.5 39t-47.5 99v5q0 4 1 9h53q-1 -6 -1 -10v-5q0 -42 33.5 -67.5t99.5 -25.5zM214 -157q-11 -48 -41 -76t-73 -39l6 32q26 10 42.5 30
t24.5 55h-19l15 74h62z" />
    <glyph glyph-name="uni021A" unicode="&#x21a;" horiz-adv-x="575" 
d="M660 670h-243l-142 -670h-56l142 670h-242l11 50h541zM247 -157q-11 -48 -41 -76t-73 -39l6 32q26 10 42.5 30t24.5 55h-19l15 74h62z" />
    <glyph glyph-name="uni021B" unicode="&#x21b;" horiz-adv-x="302" 
d="M211 473l-77 -364q-2 -7 -3.5 -17t-1.5 -15q0 -25 15.5 -35.5t41.5 -10.5q14 0 29 2.5t36 8.5l-11 -46q-36 -11 -64 -11q-54 0 -77 24t-23 69q0 12 3 27.5t7 32.5l71 335h-75l10 47h75l30 125h51l-27 -125h121l-10 -47h-121zM125 -157q-11 -48 -41 -76t-73 -39l6 32
q26 10 42.5 30t24.5 55h-19l15 74h62z" />
    <glyph glyph-name="dotlessj" unicode="&#x237;" horiz-adv-x="207" 
d="M-122 -135q17 -7 33 -10t28 -3q32 0 52.5 18t30.5 63l124 587h54l-126 -593q-26 -122 -131 -122q-19 0 -37.5 3.5t-36.5 12.5z" />
    <glyph glyph-name="circumflex" unicode="&#x2c6;" horiz-adv-x="337" 
d="M396 598h-52l-64 104l-107 -104h-58l137 137h66z" />
    <glyph glyph-name="caron" unicode="&#x2c7;" horiz-adv-x="337" 
d="M144 735h51l64 -104l108 104h58q-35 -35 -69 -68.5t-68 -68.5h-66z" />
    <glyph glyph-name="uni02C9" unicode="&#x2c9;" horiz-adv-x="302" 
d="M128 653l10 46h242l-10 -46h-242z" />
    <glyph glyph-name="breve" unicode="&#x2d8;" horiz-adv-x="320" 
d="M252 592q-54 1 -83 29t-29 78v12q0 6 2 13h46q-2 -7 -2 -13v-10q0 -30 15 -49.5t52 -19.5q45 0 70 27t36 65h48q-15 -62 -55 -96.5t-100 -35.5z" />
    <glyph glyph-name="dotaccent" unicode="&#x2d9;" horiz-adv-x="125" 
d="M127 646l16 74h65l-17 -74h-64z" />
    <glyph glyph-name="ring" unicode="&#x2da;" horiz-adv-x="300" 
d="M248 619q41 0 63.5 27.5t22.5 65.5q0 33 -19 50.5t-50 17.5q-41 0 -63.5 -27t-22.5 -65q0 -33 19 -51t50 -18zM246 583q-51 0 -80.5 29.5t-29.5 74.5q0 24 9 47t25.5 41.5t41 29.5t55.5 11q51 0 80.5 -29t29.5 -74q0 -24 -8.5 -47.5t-25.5 -41.5t-41.5 -29.5t-55.5 -11.5
z" />
    <glyph glyph-name="ogonek" unicode="&#x2db;" horiz-adv-x="297" 
d="M58 -239q-45 0 -72.5 22.5t-27.5 60.5q0 28 14.5 54.5t39.5 49.5t59.5 41t73.5 30h53q-36 -14 -71 -31.5t-62 -38.5t-43.5 -45.5t-16.5 -52.5q0 -24 15.5 -36.5t43.5 -12.5q29 0 49.5 13.5t32.5 35.5h50q-18 -43 -56.5 -66.5t-81.5 -23.5z" />
    <glyph glyph-name="tilde" unicode="&#x2dc;" horiz-adv-x="325" 
d="M312 626q-21 0 -33.5 5.5t-23 11.5t-21 11.5t-27.5 5.5q-18 0 -38.5 -9.5t-46.5 -26.5l11 51q24 16 41.5 23.5t40.5 7.5q21 0 33.5 -5.5t23 -11.5t21 -11.5t27.5 -5.5q18 0 38 9.5t46 26.5l-11 -52q-23 -15 -40.5 -22.5t-40.5 -7.5z" />
    <glyph glyph-name="hungarumlaut" unicode="&#x2dd;" horiz-adv-x="369" 
d="M227 735h69l-133 -137h-47zM386 735h70l-134 -137h-47z" />
    <glyph glyph-name="uni0312" unicode="&#x312;" horiz-adv-x="133" 
d="M137 677q12 53 42 76t74 34l-7 -32q-26 -10 -41.5 -27.5t-23.5 -52.5h20l-16 -74h-65z" />
    <glyph glyph-name="dotbelowcomb" unicode="&#x323;" horiz-adv-x="125" 
d="M-47 -180l15 74h64l-15 -74h-64z" />
    <glyph glyph-name="uni037E" unicode="&#x37e;" horiz-adv-x="285" 
d="M159 440l17 80h73l-18 -80h-72zM137 -6q-14 -65 -50 -94t-83 -40l7 37q32 11 51 33.5t29 69.5h-26l16 80h74z" />
    <glyph glyph-name="tonos" unicode="&#x384;" horiz-adv-x="157" 
d="M171 720h69l-86 -147h-43z" />
    <glyph glyph-name="dieresistonos" unicode="&#x385;" horiz-adv-x="328" 
d="M344 641l15 70h63l-15 -70h-63zM126 641l15 70h63l-15 -70h-63zM322 878h69l-85 -147h-43z" />
    <glyph glyph-name="Alphatonos" unicode="&#x386;" horiz-adv-x="661" 
d="M555 0l-37 204h-364l-124 -204h-63l442 720h70l135 -720h-59zM182 251h328l-75 415zM274 720h69l-86 -147h-43z" />
    <glyph glyph-name="anoteleia" unicode="&#x387;" horiz-adv-x="285" 
d="M125 280l17 80h73l-17 -80h-73z" />
    <glyph glyph-name="Epsilontonos" unicode="&#x388;" horiz-adv-x="609" 
d="M555 342h-340l-62 -293h369l-10 -49h-426l153 720h426l-11 -49h-369l-60 -281h340zM126 720h69l-86 -147h-43z" />
    <glyph glyph-name="Etatonos" unicode="&#x389;" horiz-adv-x="726" 
d="M757 720l-153 -720h-57l73 342h-408l-73 -342h-56l153 720h56l-70 -328h408l70 328h57zM123 720h69l-86 -147h-43z" />
    <glyph glyph-name="Iotatonos" unicode="&#x38a;" horiz-adv-x="261" 
d="M292 720l-153 -720h-56l153 720h56zM123 720h69l-86 -147h-43z" />
    <glyph glyph-name="Omicrontonos" unicode="&#x38c;" horiz-adv-x="762" 
d="M351 33q66 0 117 21.5t90 57.5t65.5 81.5t43.5 93t24.5 93.5t7.5 82q0 55 -15 97t-43 70.5t-66.5 43t-84.5 14.5q-66 0 -117.5 -21.5t-90.5 -57.5t-65.5 -81.5t-43 -93t-24 -93.5t-7.5 -82q0 -111 57 -168t152 -57zM348 -15q-58 0 -106.5 18t-83 53t-54 86t-19.5 117
q0 42 9 94t28.5 104.5t51.5 102.5t77.5 89t105.5 62.5t137 23.5q57 0 105 -18t83 -52.5t54.5 -85.5t19.5 -118q0 -42 -9 -93.5t-29 -104.5t-51.5 -103t-77 -89t-105.5 -62.5t-136 -23.5zM139 720h69l-86 -147h-43z" />
    <glyph glyph-name="Upsilontonos" unicode="&#x38e;" horiz-adv-x="709" 
d="M264 720l159 -388l329 388h62l-370 -438l-59 -282h-57l60 283l-182 437h58zM106 720h69l-86 -147h-43z" />
    <glyph glyph-name="Omegatonos" unicode="&#x38f;" horiz-adv-x="762" 
d="M416 51q52 5 93.5 28t73 57t53.5 76.5t36 86.5t20.5 87t6.5 77q0 110 -57 167t-151 57q-62 0 -112 -20.5t-88.5 -54t-67 -78t-46.5 -93t-26.5 -97t-8.5 -91.5q0 -51 12 -85.5t33 -57.5t48.5 -36.5t59.5 -22.5l-10 -51h-227l10 51h142q-59 23 -92 79.5t-33 134.5
q0 46 10 99t31.5 105.5t54.5 100.5t78.5 84.5t104 58.5t130.5 22q54 0 102 -17t83.5 -50.5t56.5 -84.5t21 -118q0 -61 -14 -124t-42.5 -119.5t-72 -101.5t-101.5 -69h116l-11 -51h-227zM139 720h69l-86 -147h-43z" />
    <glyph glyph-name="iotadieresistonos" unicode="&#x390;" horiz-adv-x="207" 
d="M36 0l110 520h54l-110 -520h-54zM286 641l15 70h63l-15 -70h-63zM68 641l15 70h63l-15 -70h-63zM264 878h69l-85 -147h-43z" />
    <glyph glyph-name="Alpha" unicode="&#x391;" horiz-adv-x="661" 
d="M555 0l-37 204h-364l-124 -204h-63l442 720h70l135 -720h-59zM182 251h328l-75 415z" />
    <glyph glyph-name="Beta" unicode="&#x392;" horiz-adv-x="638" 
d="M435 720q99 0 150 -38t51 -104q0 -33 -12 -65.5t-33.5 -59.5t-52.5 -47t-68 -29q55 -9 89 -45.5t34 -93.5q0 -41 -15.5 -83.5t-50.5 -77t-91.5 -56t-137.5 -21.5h-256l153 720h240zM174 356l-66 -308h203q57 0 99 16t69.5 42t41 60.5t13.5 70.5q0 55 -39 87t-114 32h-207
zM241 674l-57 -272h204q49 0 85 15.5t59.5 40.5t35 54.5t11.5 58.5q0 49 -35.5 76t-104.5 27h-198z" />
    <glyph glyph-name="Gamma" unicode="&#x393;" horiz-adv-x="488" 
d="M584 720l-11 -49h-333q-35 -169 -70.5 -336t-71.5 -335h-56l153 720h389z" />
    <glyph glyph-name="uni0394" unicode="&#x394;" horiz-adv-x="661" 
d="M-33 0l442 720h70l135 -720h-647zM59 48h487l-111 619z" />
    <glyph glyph-name="Epsilon" unicode="&#x395;" horiz-adv-x="565" 
d="M511 342h-340l-62 -293h369l-10 -49h-426l153 720h426l-11 -49h-369l-60 -281h340z" />
    <glyph glyph-name="Zeta" unicode="&#x396;" horiz-adv-x="639" 
d="M90 49h462l-10 -49h-535l10 50l603 620h-448l11 50h522l-11 -48z" />
    <glyph glyph-name="Eta" unicode="&#x397;" horiz-adv-x="685" 
d="M716 720l-153 -720h-57l73 342h-408l-73 -342h-56l153 720h56l-70 -328h408l70 328h57z" />
    <glyph glyph-name="Theta" unicode="&#x398;" horiz-adv-x="753" 
d="M590 342h-362l10 48h362zM343 33q66 0 117 21.5t90 57.5t65.5 81.5t43.5 93t24.5 93.5t7.5 82q0 55 -15 97t-43 70.5t-66.5 43t-84.5 14.5q-66 0 -117.5 -21.5t-90.5 -57.5t-65.5 -81.5t-43 -93t-24 -93.5t-7.5 -82q0 -111 57 -168t152 -57zM340 -15q-58 0 -106.5 18
t-83 53t-54 86t-19.5 117q0 42 9 94t28.5 104.5t51.5 102.5t77.5 89t105.5 62.5t137 23.5q57 0 105 -18t83 -52.5t54.5 -85.5t19.5 -118q0 -42 -9 -93.5t-29 -104.5t-51.5 -103t-77 -89t-105.5 -62.5t-136 -23.5z" />
    <glyph glyph-name="Iota" unicode="&#x399;" horiz-adv-x="220" 
d="M251 720l-153 -720h-56l153 720h56z" />
    <glyph glyph-name="Kappa" unicode="&#x39a;" horiz-adv-x="596" 
d="M474 0l-301 354l-75 -354h-56l153 720h56l-71 -335l414 335h73l-434 -353l311 -367h-70z" />
    <glyph glyph-name="Lambda" unicode="&#x39b;" horiz-adv-x="651" 
d="M543 0l-114 666l-401 -666h-61l437 720h70l130 -720h-61z" />
    <glyph glyph-name="Mu" unicode="&#x39c;" horiz-adv-x="842" 
d="M359 0l-126 647l-136 -647h-55l153 720h80l124 -660l391 660h83l-153 -720h-54l135 642l-382 -642h-60z" />
    <glyph glyph-name="Nu" unicode="&#x39d;" horiz-adv-x="712" 
d="M743 720l-153 -720h-61l-297 648l-137 -648h-53l153 720h65l294 -644l137 644h52z" />
    <glyph glyph-name="Xi" unicode="&#x39e;" horiz-adv-x="586" 
d="M27 52h472l-10 -52h-472zM630 668h-471l11 52h472zM159 334l10 51h330l-10 -51h-330z" />
    <glyph glyph-name="Omicron" unicode="&#x39f;" horiz-adv-x="753" 
d="M343 33q66 0 117 21.5t90 57.5t65.5 81.5t43.5 93t24.5 93.5t7.5 82q0 55 -15 97t-43 70.5t-66.5 43t-84.5 14.5q-66 0 -117.5 -21.5t-90.5 -57.5t-65.5 -81.5t-43 -93t-24 -93.5t-7.5 -82q0 -111 57 -168t152 -57zM340 -15q-58 0 -106.5 18t-83 53t-54 86t-19.5 117
q0 42 9 94t28.5 104.5t51.5 102.5t77.5 89t105.5 62.5t137 23.5q57 0 105 -18t83 -52.5t54.5 -85.5t19.5 -118q0 -42 -9 -93.5t-29 -104.5t-51.5 -103t-77 -89t-105.5 -62.5t-136 -23.5z" />
    <glyph glyph-name="Pi" unicode="&#x3a0;" horiz-adv-x="685" 
d="M716 720l-153 -720h-57l142 670h-408l-142 -670h-56l153 720h521z" />
    <glyph glyph-name="Rho" unicode="&#x3a1;" horiz-adv-x="626" 
d="M430 720q106 0 162 -46.5t56 -129.5q0 -56 -20 -105t-58.5 -85.5t-94.5 -57.5t-128 -21h-191l-58 -275h-56l153 720h235zM241 672l-74 -348h181q58 0 102.5 17t75.5 46.5t47 68.5t16 83q0 63 -40 98t-118 35h-190z" />
    <glyph glyph-name="Sigma" unicode="&#x3a3;" horiz-adv-x="562" 
d="M409 379l-9 -41l-321 -290h414l-10 -48h-484l9 49l346 315l-214 306l11 50h485l-11 -49h-423z" />
    <glyph glyph-name="Tau" unicode="&#x3a4;" horiz-adv-x="575" 
d="M660 670h-243l-142 -670h-56l142 670h-242l11 50h541z" />
    <glyph glyph-name="Upsilon" unicode="&#x3a5;" horiz-adv-x="623" 
d="M178 720l159 -388l329 388h62l-370 -438l-59 -282h-57l60 283l-182 437h58z" />
    <glyph glyph-name="Phi" unicode="&#x3a6;" horiz-adv-x="796" 
d="M540 724l-5 -26q55 -1 101.5 -20t80.5 -53t53 -81.5t19 -106.5q0 -46 -10.5 -94t-32 -94t-54 -87t-77 -72t-101 -49.5t-124.5 -19.5l-5 -26h-56l5 26q-55 1 -101.5 20t-80.5 53t-53 81.5t-19 106.5q0 69 23.5 142t72.5 133.5t124 100t178 40.5l6 26h56zM732 440
q0 50 -15.5 89t-43 66t-65.5 41.5t-83 15.5l-124 -584q81 1 143 34.5t103.5 86.5t63 119t21.5 132zM136 280q0 -51 15.5 -90t43.5 -66t66 -41t83 -15l124 583q-81 -1 -143 -34.5t-104 -86t-63.5 -118.5t-21.5 -132z" />
    <glyph glyph-name="Chi" unicode="&#x3a7;" horiz-adv-x="613" 
d="M380 371l176 -371h-63l-153 329l-293 -329h-70l336 375l-164 345h62l142 -305l278 305h69z" />
    <glyph glyph-name="Psi" unicode="&#x3a8;" horiz-adv-x="738" 
d="M236 720l-66 -308q-3 -14 -4 -24.5t-1 -18.5q0 -32 13.5 -56.5t38.5 -41.5t59.5 -27t75.5 -12l104 488h56l-104 -488q100 5 168.5 48.5t85.5 122.5l67 317h55l-67 -318q-11 -53 -39 -92.5t-69.5 -67t-95 -42.5t-115.5 -17l-39 -183h-56l39 183q-52 4 -95 18t-73.5 37.5
t-47 56.5t-16.5 74q0 11 1.5 22.5t3.5 23.5l65 305h56z" />
    <glyph glyph-name="uni03A9" unicode="&#x3a9;" horiz-adv-x="753" 
d="M407 51q52 5 93.5 28t73 57t53.5 76.5t36 86.5t20.5 87t6.5 77q0 110 -57 167t-151 57q-62 0 -112 -20.5t-88.5 -54t-67 -78t-46.5 -93t-26.5 -97t-8.5 -91.5q0 -51 12 -85.5t33 -57.5t48.5 -36.5t59.5 -22.5l-10 -51h-227l10 51h142q-59 23 -92 79.5t-33 134.5
q0 46 10 99t31.5 105.5t54.5 100.5t78.5 84.5t104 58.5t130.5 22q54 0 102 -17t83.5 -50.5t56.5 -84.5t21 -118q0 -61 -14 -124t-42.5 -119.5t-72 -101.5t-101.5 -69h116l-11 -51h-227z" />
    <glyph glyph-name="Iotadieresis" unicode="&#x3aa;" horiz-adv-x="220" 
d="M251 720l-153 -720h-56l153 720h56zM103 820l16 70h63l-15 -70h-64zM308 820l16 70h63l-15 -70h-64z" />
    <glyph glyph-name="Upsilondieresis" unicode="&#x3ab;" horiz-adv-x="623" 
d="M178 720l159 -388l329 388h62l-370 -438l-59 -282h-57l60 283l-182 437h58zM302 820l16 70h63l-15 -70h-64zM507 820l16 70h63l-15 -70h-64z" />
    <glyph glyph-name="alphatonos" unicode="&#x3ac;" horiz-adv-x="575" 
d="M414 0l12 97q-33 -48 -84.5 -80t-115.5 -32q-37 0 -69 12.5t-55 36.5t-36.5 60t-13.5 84q0 29 6 67t20 78t36 78t53 67.5t72.5 48t93.5 18.5q63 0 105 -32.5t56 -80.5l30 98h44l-110 -520h-44zM339 489q-62 0 -105.5 -33t-72 -81t-41.5 -101.5t-13 -95.5q0 -75 37 -111
t96 -36q55 0 98 28t73 72t45.5 99t15.5 108q0 76 -36.5 113.5t-96.5 37.5zM398 720h69l-86 -147h-43z" />
    <glyph glyph-name="epsilontonos" unicode="&#x3ad;" horiz-adv-x="487" 
d="M354 720h69l-86 -147h-43zM297 490q-66 0 -105 -32.5t-39 -83.5q0 -35 29 -57.5t75 -22.5h46l-10 -48h-48q-37 0 -67.5 -10t-52 -28t-33.5 -42t-12 -51q0 -41 33 -63t94 -22q60 0 108 30.5t70 87.5h58q-26 -72 -87.5 -117.5t-154.5 -45.5q-86 0 -131 34t-45 91t40 103
t117 61q-41 13 -62 39t-21 61t14.5 64.5t40.5 51t63 33.5t82 12t79.5 -12t57.5 -32.5t35 -49t12 -61.5h-55q0 52 -33.5 81t-97.5 29z" />
    <glyph glyph-name="etatonos" unicode="&#x3ae;" horiz-adv-x="553" 
d="M369 535q70 0 110.5 -35.5t40.5 -101.5q0 -11 -1.5 -23t-3.5 -24l-113 -531h-54l113 532l3 21q2 9 2 19q0 47 -29 72t-85 25q-29 0 -60 -11.5t-58 -33t-47 -52.5t-28 -69l-68 -323h-54l110 520h45l-12 -89q37 51 87.5 77.5t101.5 26.5zM389 720h69l-86 -147h-43z" />
    <glyph glyph-name="iotatonos" unicode="&#x3af;" horiz-adv-x="207" 
d="M222 720h69l-86 -147h-43zM36 0l110 520h54l-110 -520h-54z" />
    <glyph glyph-name="upsilondieresistonos" unicode="&#x3b0;" horiz-adv-x="547" 
d="M236 -15q-83 0 -127 37.5t-44 104.5q0 11 1 22.5t4 24.5l73 346h54l-73 -347q-5 -25 -5 -43q0 -48 29.5 -73.5t91.5 -25.5q74 0 118 37t58 102l74 350h54l-76 -359q-19 -87 -77 -131.5t-155 -44.5zM456 641l15 70h63l-15 -70h-63zM238 641l15 70h63l-15 -70h-63zM434 878
h69l-85 -147h-43z" />
    <glyph glyph-name="alpha" unicode="&#x3b1;" horiz-adv-x="575" 
d="M414 0l12 97q-33 -48 -84.5 -80t-115.5 -32q-37 0 -69 12.5t-55 36.5t-36.5 60t-13.5 84q0 29 6 67t20 78t36 78t53 67.5t72.5 48t93.5 18.5q63 0 105 -32.5t56 -80.5l30 98h44l-110 -520h-44zM339 489q-62 0 -105.5 -33t-72 -81t-41.5 -101.5t-13 -95.5q0 -75 37 -111
t96 -36q55 0 98 28t73 72t45.5 99t15.5 108q0 76 -36.5 113.5t-96.5 37.5z" />
    <glyph glyph-name="beta" unicode="&#x3b2;" horiz-adv-x="552" 
d="M540 594q0 -36 -12.5 -68t-34.5 -58.5t-52.5 -46t-66.5 -30.5q22 -5 43 -17t37.5 -31t26.5 -44.5t10 -57.5q0 -38 -13.5 -82.5t-42 -83t-73 -64.5t-106.5 -26q-54 0 -93.5 27t-54.5 72l-56 -264h-54l147 691q23 108 78 166t151 58q80 0 123 -39.5t43 -101.5zM128 181
q-3 -14 -3 -27q0 -24 8.5 -46t25 -39.5t40 -27.5t52.5 -10q46 0 81 20.5t58 51.5t34.5 68.5t11.5 71.5q0 31 -10.5 54t-27.5 38.5t-39 23t-46 7.5h-42l10 48h40q25 0 54 12.5t53 35.5t40 56t16 74q0 42 -28.5 70t-85.5 28q-66 0 -109 -44t-63 -139z" />
    <glyph glyph-name="gamma" unicode="&#x3b3;" horiz-adv-x="497" 
d="M142 -180l39 180l-94 520h56l75 -467l273 467h59l-315 -520l-39 -180h-54z" />
    <glyph glyph-name="delta" unicode="&#x3b4;" horiz-adv-x="545" 
d="M257 720h321l-11 -46h-205q38 -10 70 -32t54.5 -55t35 -76.5t12.5 -97.5q0 -33 -5 -77.5t-18 -92t-35 -94t-56 -83t-81 -59t-110 -22.5q-84 0 -131.5 51t-47.5 136q0 63 20 118.5t55.5 97.5t83.5 66.5t105 24.5q39 0 69 -11t50.5 -29t32.5 -41.5t15 -48.5q6 36 6 66
q0 65 -21.5 112t-55.5 78.5t-76.5 50t-84.5 26.5zM319 433q-51 0 -91 -22.5t-67.5 -59.5t-42 -84t-14.5 -96q0 -63 32.5 -101t95.5 -38q60 0 103 27.5t71 67t41 83t13 75.5q0 30 -9 57t-26.5 47t-44 32t-61.5 12z" />
    <glyph glyph-name="epsilon" unicode="&#x3b5;" horiz-adv-x="487" 
d="M297 490q-66 0 -105 -32.5t-39 -83.5q0 -35 29 -57.5t75 -22.5h46l-10 -48h-48q-37 0 -67.5 -10t-52 -28t-33.5 -42t-12 -51q0 -41 33 -63t94 -22q60 0 108 30.5t70 87.5h58q-26 -72 -87.5 -117.5t-154.5 -45.5q-86 0 -131 34t-45 91t40 103t117 61q-41 13 -62 39t-21 61
t14.5 64.5t40.5 51t63 33.5t82 12t79.5 -12t57.5 -32.5t35 -49t12 -61.5h-55q0 52 -33.5 81t-97.5 29z" />
    <glyph glyph-name="zeta" unicode="&#x3b6;" horiz-adv-x="452" 
d="M522 682q-89 -24 -167 -71.5t-136.5 -112t-92.5 -141.5t-34 -159q0 -68 37.5 -104t110.5 -53q37 -9 61.5 -19t39 -21.5t20.5 -24t6 -26.5q0 -23 -9.5 -44t-23.5 -39t-31 -33.5t-33 -28.5l-29 27q28 23 50.5 50.5t22.5 53.5q0 20 -20.5 34t-74.5 26q-182 39 -182 198
q0 84 31.5 160.5t84.5 139.5t121.5 109.5t143.5 70.5h-274l10 46h376z" />
    <glyph glyph-name="eta" unicode="&#x3b7;" horiz-adv-x="553" 
d="M369 535q70 0 110.5 -35.5t40.5 -101.5q0 -11 -1.5 -23t-3.5 -24l-113 -531h-54l113 532l3 21q2 9 2 19q0 47 -29 72t-85 25q-29 0 -60 -11.5t-58 -33t-47 -52.5t-28 -69l-68 -323h-54l110 520h45l-12 -89q37 51 87.5 77.5t101.5 26.5z" />
    <glyph glyph-name="theta" unicode="&#x3b8;" horiz-adv-x="576" 
d="M254 31q84 0 149 76.5t101 232.5h-369q-7 -37 -10.5 -69t-3.5 -61q0 -91 34 -135t99 -44zM394 689q-84 0 -148.5 -75t-100.5 -227h369q7 34 9.5 64t2.5 56q0 91 -34 136.5t-98 45.5zM250 -15q-81 0 -132 58t-51 178q0 38 7 91t22.5 110t41 113t62.5 100.5t86 72t112 27.5
q81 0 132 -58.5t51 -177.5q0 -40 -7 -93.5t-23.5 -110.5t-42 -113t-62 -99.5t-85.5 -70.5t-111 -27z" />
    <glyph glyph-name="iota" unicode="&#x3b9;" horiz-adv-x="207" 
d="M36 0l110 520h54l-110 -520h-54z" />
    <glyph glyph-name="kappa" unicode="&#x3ba;" horiz-adv-x="488" 
d="M37 0l110 520h54l-49 -229l297 229h74l-319 -248l242 -272h-68l-232 259l-55 -259h-54z" />
    <glyph glyph-name="lambda" unicode="&#x3bb;" horiz-adv-x="508" 
d="M450 0h-53l-69 478l-292 -478h-58l320 520h24q-8 60 -15 94t-16 51t-20 21t-25 4q-12 0 -27.5 -3.5t-34.5 -9.5l10 45q17 7 33.5 10t28.5 3q24 0 41.5 -6.5t31 -28t24.5 -63.5t21 -113z" />
    <glyph glyph-name="uni03BC" unicode="&#x3bc;" horiz-adv-x="553" 
d="M124 162q-5 -25 -5 -39q0 -46 30 -69.5t84 -23.5q34 0 65.5 13t57 36t43 54t25.5 67l68 320h54l-110 -520h-45l10 83q-37 -51 -85.5 -74.5t-97.5 -23.5q-85 0 -119 60l-47 -225h-54l149 700h54z" />
    <glyph glyph-name="nu" unicode="&#x3bd;" horiz-adv-x="497" 
d="M550 520l-305 -520h-73l-85 520h56l73 -475l275 475h59z" />
    <glyph glyph-name="xi" unicode="&#x3be;" horiz-adv-x="458" 
d="M222 -12q-101 20 -150 63.5t-49 106.5q0 86 54 138t143 66q-53 10 -80 40t-27 76q0 71 51.5 123.5t147.5 72.5h-167q3 11 5.5 23t4.5 23h368l-8 -39h-17q-83 0 -145.5 -16t-104.5 -43.5t-63 -64t-21 -76.5q0 -45 36.5 -71.5t96.5 -26.5h57q-2 -12 -4.5 -24t-5.5 -24h-59
q-47 0 -85 -13t-65 -36.5t-42 -55.5t-15 -70q0 -48 37.5 -77.5t122.5 -49.5q39 -9 64.5 -18.5t41.5 -20t22.5 -23t6.5 -27.5q0 -41 -28.5 -74t-70.5 -65l-27 27q28 23 49.5 49.5t21.5 50.5q0 18 -19.5 31.5t-76.5 24.5z" />
    <glyph glyph-name="omicron" unicode="&#x3bf;" horiz-adv-x="573" 
d="M53 186q0 30 6.5 67.5t20.5 76t37 75.5t56.5 66t78 46.5t102.5 17.5q88 0 142.5 -51t54.5 -149q0 -30 -6.5 -67.5t-20.5 -76.5t-37 -76t-56.5 -66t-78 -46.5t-101.5 -17.5q-44 0 -80.5 13.5t-62.5 39t-40.5 63t-14.5 85.5zM351 491q-47 0 -83 -16t-63 -42t-45.5 -59
t-29.5 -67t-16 -66t-5 -56q0 -78 39.5 -117t105.5 -39q46 0 81.5 16t62.5 42t45.5 59t30 67t16.5 66t5 56q0 78 -38.5 117t-105.5 39z" />
    <glyph glyph-name="pi" unicode="&#x3c0;" horiz-adv-x="596" 
d="M69 0l100 473h-76l10 47h530l-10 -47h-76l-100 -473h-54l100 473h-270l-100 -473h-54z" />
    <glyph glyph-name="rho" unicode="&#x3c1;" horiz-adv-x="579" 
d="M94 278q26 123 95 190t177 67q42 0 77 -12.5t60 -37t39 -60.5t14 -84q0 -30 -6.5 -67.5t-20 -77t-36 -77.5t-54 -68t-74 -48t-96.5 -18q-66 0 -106 34t-52 83l-61 -282h-54zM362 489q-46 0 -80.5 -15.5t-60.5 -41t-43 -58t-27 -66.5t-14.5 -66.5t-4.5 -58.5
q0 -75 35.5 -113.5t97.5 -38.5q44 0 78.5 16.5t61 43t44.5 60.5t29.5 68.5t16.5 66.5t5 56q0 75 -38 111t-100 36z" />
    <glyph glyph-name="sigma1" unicode="&#x3c2;" horiz-adv-x="530" 
d="M55 202q0 32 7 69t21.5 74t37.5 71t55.5 60.5t74.5 42.5t95 16q42 0 75.5 -11.5t57 -32.5t36.5 -50.5t13 -65.5h-57q0 53 -32.5 83.5t-94.5 30.5q-63 0 -107.5 -31t-72 -75t-40.5 -94t-13 -87q0 -66 39.5 -105t125.5 -56q40 -8 67.5 -17t45 -19.5t25 -24t7.5 -31.5
q0 -23 -9 -43t-23.5 -38t-32 -34t-33.5 -29l-27 27q27 23 47.5 50.5t20.5 53.5q0 22 -23.5 34.5t-85.5 24.5q-97 19 -148.5 69t-51.5 138z" />
    <glyph glyph-name="sigma" unicode="&#x3c3;" horiz-adv-x="573" 
d="M53 185q0 51 17 112.5t53 114t92 88t135 35.5q25 0 53.5 -4t49.5 -11h194l-10 -48l-136 5q22 -26 34.5 -64t12.5 -84q0 -76 -23 -139t-63 -108.5t-94.5 -71t-117.5 -25.5q-44 0 -80 13t-62 38.5t-40.5 62.5t-14.5 86zM349 490q-56 0 -100.5 -28t-75 -71.5t-47 -97.5
t-16.5 -105q0 -80 38.5 -119.5t104.5 -39.5q48 0 91.5 22t76.5 62t52.5 97t19.5 126q0 47 -13.5 83.5t-42.5 59.5q-17 5 -41.5 8t-46.5 3z" />
    <glyph glyph-name="tau" unicode="&#x3c4;" horiz-adv-x="474" 
d="M170 0l100 473h-195l10 47h445l-10 -47h-196l-100 -473h-54z" />
    <glyph glyph-name="upsilon" unicode="&#x3c5;" horiz-adv-x="547" 
d="M236 -15q-83 0 -127 37.5t-44 104.5q0 11 1 22.5t4 24.5l73 346h54l-73 -347q-5 -25 -5 -43q0 -48 29.5 -73.5t91.5 -25.5q74 0 118 37t58 102l74 350h54l-76 -359q-19 -87 -77 -131.5t-155 -44.5z" />
    <glyph glyph-name="phi" unicode="&#x3c6;" horiz-adv-x="751" 
d="M360 299q25 116 75.5 176t141.5 60q67 0 106 -40t39 -125q0 -44 -12 -101q-14 -68 -41.5 -120.5t-71 -88t-105.5 -54.5t-144 -21l-35 -165h-54l35 167q-115 5 -176 47t-61 129q0 42 11.5 86t30 89.5t43 91t51.5 90.5h56q-63 -106 -99.5 -196t-36.5 -156t45.5 -99.5
t144.5 -37.5zM357 31q66 2 116.5 17t86.5 45t59 74.5t36 104.5q12 58 12 100q0 62 -24.5 89.5t-69.5 27.5q-30 0 -54 -10.5t-44 -35t-36 -65t-29 -100.5z" />
    <glyph glyph-name="chi" unicode="&#x3c7;" horiz-adv-x="511" 
d="M283 187l132 -367h-60l-112 322l-237 -322h-67l279 370l-121 330h60l101 -287l210 287h66z" />
    <glyph glyph-name="psi" unicode="&#x3c8;" horiz-adv-x="718" 
d="M198 520l-66 -312q-2 -12 -3 -21.5t-1 -18.5q0 -62 45.5 -95.5t127.5 -38.5l103 486h54l-103 -486q46 3 86.5 15.5t71.5 34t52 52.5t30 71l66 313h54l-66 -313q-23 -106 -103.5 -161.5t-201.5 -60.5l-35 -164h-54l36 166q-99 7 -158 54t-59 127q0 12 1 24t4 25l64 303h55
z" />
    <glyph glyph-name="omega" unicode="&#x3c9;" horiz-adv-x="766" 
d="M502 -15q-63 0 -97 32t-37 93q-27 -61 -72 -93t-108 -32q-61 0 -97.5 37.5t-36.5 115.5q0 46 10.5 92.5t29.5 94.5t44 96.5t55 98.5h56q-63 -105 -101.5 -198t-38.5 -183q0 -58 24.5 -83t66.5 -25q55 0 97.5 39t57.5 111l41 199h53l-40 -192q-7 -32 -7 -57q0 -48 25 -74
t70 -26q38 0 70.5 21.5t56.5 63t38 101t14 135.5q0 41 -4.5 81.5t-11.5 86.5h52q8 -43 12 -85t4 -85q0 -83 -16 -150.5t-45 -115t-71 -73.5t-94 -26z" />
    <glyph glyph-name="iotadieresis" unicode="&#x3ca;" horiz-adv-x="207" 
d="M67 650l16 70h63l-15 -70h-64zM272 650l16 70h63l-15 -70h-64zM36 0l110 520h54l-110 -520h-54z" />
    <glyph glyph-name="upsilondieresis" unicode="&#x3cb;" horiz-adv-x="547" 
d="M236 -15q-83 0 -127 37.5t-44 104.5q0 11 1 22.5t4 24.5l73 346h54l-73 -347q-5 -25 -5 -43q0 -48 29.5 -73.5t91.5 -25.5q74 0 118 37t58 102l74 350h54l-76 -359q-19 -87 -77 -131.5t-155 -44.5zM235 650l16 70h63l-15 -70h-64zM440 650l16 70h63l-15 -70h-64z" />
    <glyph glyph-name="omicrontonos" unicode="&#x3cc;" horiz-adv-x="573" 
d="M53 186q0 30 6.5 67.5t20.5 76t37 75.5t56.5 66t78 46.5t102.5 17.5q88 0 142.5 -51t54.5 -149q0 -30 -6.5 -67.5t-20.5 -76.5t-37 -76t-56.5 -66t-78 -46.5t-101.5 -17.5q-44 0 -80.5 13.5t-62.5 39t-40.5 63t-14.5 85.5zM351 491q-47 0 -83 -16t-63 -42t-45.5 -59
t-29.5 -67t-16 -66t-5 -56q0 -78 39.5 -117t105.5 -39q46 0 81.5 16t62.5 42t45.5 59t30 67t16.5 66t5 56q0 78 -38.5 117t-105.5 39zM408 720h69l-86 -147h-43z" />
    <glyph glyph-name="upsilontonos" unicode="&#x3cd;" horiz-adv-x="547" 
d="M380 720h69l-86 -147h-43zM236 -15q-83 0 -127 37.5t-44 104.5q0 11 1 22.5t4 24.5l73 346h54l-73 -347q-5 -25 -5 -43q0 -48 29.5 -73.5t91.5 -25.5q74 0 118 37t58 102l74 350h54l-76 -359q-19 -87 -77 -131.5t-155 -44.5z" />
    <glyph glyph-name="omegatonos" unicode="&#x3ce;" horiz-adv-x="766" 
d="M502 -15q-63 0 -97 32t-37 93q-27 -61 -72 -93t-108 -32q-61 0 -97.5 37.5t-36.5 115.5q0 46 10.5 92.5t29.5 94.5t44 96.5t55 98.5h56q-63 -105 -101.5 -198t-38.5 -183q0 -58 24.5 -83t66.5 -25q55 0 97.5 39t57.5 111l41 199h53l-40 -192q-7 -32 -7 -57q0 -48 25 -74
t70 -26q38 0 70.5 21.5t56.5 63t38 101t14 135.5q0 41 -4.5 81.5t-11.5 86.5h52q8 -43 12 -85t4 -85q0 -83 -16 -150.5t-45 -115t-71 -73.5t-94 -26zM502 720h69l-86 -147h-43z" />
    <glyph glyph-name="uni0400" unicode="&#x400;" horiz-adv-x="565" 
d="M511 342h-340l-62 -293h369l-10 -49h-426l153 720h426l-11 -49h-369l-60 -281h340zM455 768h-47l-99 137h72z" />
    <glyph glyph-name="afii10023" unicode="&#x401;" horiz-adv-x="565" 
d="M511 342h-340l-62 -293h369l-10 -49h-426l153 720h426l-11 -49h-369l-60 -281h340zM282 820l16 70h63l-15 -70h-64zM487 820l16 70h63l-15 -70h-64z" />
    <glyph glyph-name="afii10051" unicode="&#x402;" horiz-adv-x="785" 
d="M708 129q-17 -76 -47 -110t-89 -34q-20 0 -38.5 3.5t-36.5 11.5l9 44q17 -6 33.5 -9.5t28.5 -3.5q32 0 51 18.5t29 63.5l29 130q6 30 6 55q0 125 -157 125q-43 0 -79.5 -13t-65.5 -36.5t-48.5 -57t-28.5 -74.5l-52 -242h-57l143 669h-219l11 51h495l-11 -51h-220
l-64 -301q39 52 93.5 78t121.5 26q91 0 142.5 -43t51.5 -127q0 -28 -8 -66z" />
    <glyph glyph-name="afii10052" unicode="&#x403;" horiz-adv-x="488" 
d="M584 720l-11 -49h-333q-35 -169 -70.5 -336t-71.5 -335h-56l153 720h389zM452 905h78l-157 -137h-53z" />
    <glyph glyph-name="afii10053" unicode="&#x404;" horiz-adv-x="719" 
d="M343 -15q-61 0 -110 19t-83 55t-52.5 86.5t-18.5 113.5q0 44 9.5 96.5t30.5 105.5t53.5 102t78 87.5t105 61.5t133.5 23q118 0 185 -61t67 -171h-57q0 183 -199 183q-72 0 -127 -26.5t-95.5 -69t-67 -95.5t-40.5 -105h345l-11 -48h-344q-8 -46 -8 -79q0 -54 15 -96.5
t42 -72t66 -45.5t87 -16q99 0 173.5 54.5t106.5 151.5h58q-16 -54 -47.5 -100.5t-75.5 -80.5t-99.5 -53.5t-119.5 -19.5z" />
    <glyph glyph-name="afii10054" unicode="&#x405;" horiz-adv-x="646" 
d="M292 34q60 0 106 15.5t77 41.5t47 60t16 71q0 24 -10 44t-33.5 36.5t-62.5 30.5t-97 28q-100 23 -144.5 63.5t-44.5 100.5q0 46 18.5 84.5t54 66.5t87.5 43.5t120 15.5q109 0 171.5 -48.5t67.5 -131.5h-58q0 62 -46 96.5t-137 34.5q-56 0 -97.5 -12t-69 -33.5t-41 -51
t-13.5 -63.5q0 -23 9 -40.5t29.5 -31.5t54.5 -26.5t84 -24.5q116 -28 165.5 -71.5t49.5 -108.5q0 -51 -20.5 -94.5t-59.5 -75.5t-96 -50t-130 -18q-57 0 -102.5 14t-77.5 39.5t-49 62.5t-17 82h56q0 -72 49.5 -110.5t143.5 -38.5z" />
    <glyph glyph-name="afii10055" unicode="&#x406;" horiz-adv-x="220" 
d="M251 720l-153 -720h-56l153 720h56z" />
    <glyph glyph-name="afii10056" unicode="&#x407;" horiz-adv-x="220" 
d="M251 720l-153 -720h-56l153 720h56zM85 820l16 70h63l-15 -70h-64zM290 820l16 70h63l-15 -70h-64z" />
    <glyph glyph-name="afii10057" unicode="&#x408;" horiz-adv-x="521" 
d="M84 191q-2 -15 -2.5 -22.5t-0.5 -16.5q0 -59 33.5 -88.5t91.5 -29.5q72 0 120 43t65 124l110 519h57l-112 -522q-21 -100 -81.5 -156.5t-159.5 -56.5q-84 0 -131.5 44.5t-47.5 119.5q0 22 4 42h54z" />
    <glyph glyph-name="afii10058" unicode="&#x409;" horiz-adv-x="1037" 
d="M703 48q67 0 112.5 20t73.5 51.5t40.5 70t12.5 74.5q0 63 -41.5 97.5t-120.5 34.5h-186l-75 -348h184zM662 720q-14 -70 -29 -138.5t-30 -137.5h178q107 0 163.5 -47t56.5 -130q0 -48 -17.5 -95.5t-54 -86t-94 -62t-137.5 -23.5h-245l142 670h-299l-160 -535
q-11 -36 -23.5 -61t-30.5 -41t-43 -24t-60 -9l11 53q16 0 29 2.5t23.5 11t18.5 23.5t16 40l178 590h407z" />
    <glyph glyph-name="afii10059" unicode="&#x40a;" horiz-adv-x="1065" 
d="M804 421q106 0 165 -46.5t59 -123.5q0 -45 -18 -90t-55.5 -80.5t-94.5 -58t-134 -22.5h-246l79 372h-382l-79 -372h-56l153 720h56l-64 -299h382l64 299h57l-64 -299h178zM615 373l-68 -325h183q66 0 112 20t74 50.5t40.5 65.5t12.5 65q0 58 -42.5 91t-123.5 33h-188z
" />
    <glyph glyph-name="afii10060" unicode="&#x40b;" horiz-adv-x="785" 
d="M196 0l142 670h-219l11 50h495l-11 -50h-219l-65 -302q39 52 93.5 78t121.5 26q91 0 142.5 -43t51.5 -127q0 -32 -7 -66l-51 -236h-57l53 243q6 30 6 55q0 125 -157 125q-43 0 -79.5 -13t-65.5 -36.5t-48.5 -57t-28.5 -74.5l-52 -242h-56z" />
    <glyph glyph-name="afii10061" unicode="&#x40c;" horiz-adv-x="596" 
d="M472 905h78l-157 -137h-53zM477 0l-232 344h-74l-73 -344h-56l153 720h56l-70 -328h70l347 328h67l-372 -352l249 -368h-65z" />
    <glyph glyph-name="uni040D" unicode="&#x40d;" horiz-adv-x="687" 
d="M662 720h55l-153 -720h-55l127 597l-533 -560l-8 -37h-53l153 720h53l-128 -598l533 561zM485 768h-47l-99 137h72z" />
    <glyph glyph-name="afii10062" unicode="&#x40e;" horiz-adv-x="558" 
d="M394 764q-25 0 -46.5 5.5t-37.5 16.5t-25.5 28.5t-9.5 42.5v6q0 5 1 13h45v-12q0 -60 75 -60q83 0 103 72h49q-17 -60 -57.5 -85.5t-96.5 -26.5zM313 161q-29 -46 -50.5 -79.5t-42 -55t-42 -31.5t-50.5 -10q-12 0 -26 3t-24 7l10 45q20 -7 41 -7q16 0 29.5 6.5t28 22.5
t31.5 42.5t40 65.5h-18l-120 550h56l109 -507l320 507h59z" />
    <glyph glyph-name="afii10145" unicode="&#x40f;" horiz-adv-x="685" 
d="M328 0l-30 -140h-52l30 140h-234l153 720h56l-142 -670h408l142 670h57l-153 -720h-235z" />
    <glyph glyph-name="afii10017" unicode="&#x410;" horiz-adv-x="661" 
d="M555 0l-37 204h-364l-124 -204h-63l442 720h70l135 -720h-59zM182 251h328l-75 415z" />
    <glyph glyph-name="afii10018" unicode="&#x411;" horiz-adv-x="626" 
d="M370 444q106 0 162.5 -47t56.5 -130q0 -48 -17 -95.5t-54 -86t-94 -62t-137 -23.5h-245l153 720h399l-11 -49h-343l-48 -227h178zM182 396q-18 -88 -36.5 -174t-37.5 -174h183q67 0 112.5 20t74 51.5t41 70t12.5 74.5q0 63 -42 97.5t-120 34.5h-187z" />
    <glyph glyph-name="afii10019" unicode="&#x412;" horiz-adv-x="638" 
d="M435 720q99 0 150 -38t51 -104q0 -33 -12 -65.5t-33.5 -59.5t-52.5 -47t-68 -29q55 -9 89 -45.5t34 -93.5q0 -41 -15.5 -83.5t-50.5 -77t-91.5 -56t-137.5 -21.5h-256l153 720h240zM174 356l-66 -308h203q57 0 99 16t69.5 42t41 60.5t13.5 70.5q0 55 -39 87t-114 32h-207
zM241 674l-57 -272h204q49 0 85 15.5t59.5 40.5t35 54.5t11.5 58.5q0 49 -35.5 76t-104.5 27h-198z" />
    <glyph glyph-name="afii10020" unicode="&#x413;" horiz-adv-x="488" 
d="M584 720l-11 -49h-333q-35 -169 -70.5 -336t-71.5 -335h-56l153 720h389z" />
    <glyph glyph-name="afii10021" unicode="&#x414;" horiz-adv-x="626" 
d="M656 720l-142 -670h54l-40 -190h-52l30 140h-479q-8 -35 -15 -70l-14 -70h-51l39 190h40q38 20 60.5 67t39.5 113l125 490h405zM457 50l132 620h-296l-120 -476q-14 -57 -37 -90t-55 -54h376z" />
    <glyph glyph-name="afii10022" unicode="&#x415;" horiz-adv-x="565" 
d="M511 342h-340l-62 -293h369l-10 -49h-426l153 720h426l-11 -49h-369l-60 -281h340z" />
    <glyph glyph-name="afii10024" unicode="&#x416;" horiz-adv-x="843" 
d="M210 720l120 -327h108l69 327h55l-70 -327h106l255 327h62l-276 -354l152 -366h-59l-141 343h-110l-72 -343h-55l73 343h-108l-281 -343h-66l309 378l-126 342h55z" />
    <glyph glyph-name="afii10025" unicode="&#x417;" horiz-adv-x="596" 
d="M262 -15q-106 0 -162 46.5t-56 127.5h57q0 -63 41 -95.5t123 -32.5q60 0 103 20t70.5 50.5t40.5 67t13 69.5q0 56 -37 87t-102 31h-77l10 48h74q38 0 71.5 14t59 38t40.5 56.5t15 68.5q0 51 -37.5 79t-106.5 28q-79 0 -132.5 -32.5t-78.5 -92.5h-61q30 78 100.5 125
t176.5 47q91 0 144 -41t53 -109q0 -40 -13.5 -74t-37 -61t-55 -45t-68.5 -26q54 -8 87 -45.5t33 -95.5q0 -36 -14.5 -80.5t-48 -82.5t-88.5 -64t-137 -26z" />
    <glyph glyph-name="afii10026" unicode="&#x418;" horiz-adv-x="687" 
d="M662 720h55l-153 -720h-55l127 597l-533 -560l-8 -37h-53l153 720h53l-128 -598l533 561z" />
    <glyph glyph-name="afii10027" unicode="&#x419;" horiz-adv-x="687" 
d="M467 764q-25 0 -46.5 5.5t-37.5 16.5t-25.5 28.5t-9.5 42.5v6q0 5 1 13h45v-12q0 -60 75 -60q83 0 103 72h49q-17 -60 -57.5 -85.5t-96.5 -26.5zM662 720h55l-153 -720h-55l127 597l-533 -560l-8 -37h-53l153 720h53l-128 -598l533 561z" />
    <glyph glyph-name="afii10028" unicode="&#x41a;" horiz-adv-x="596" 
d="M477 0l-232 344h-74l-73 -344h-56l153 720h56l-70 -328h70l347 328h67l-372 -352l249 -368h-65z" />
    <glyph glyph-name="afii10029" unicode="&#x41b;" horiz-adv-x="639" 
d="M516 0h-56l142 670h-306l-160 -535q-11 -36 -23.5 -61t-30.5 -41t-43 -24t-60 -9l11 53q16 0 29 2.5t23.5 11t18.5 23.5t16 40l178 590h414z" />
    <glyph glyph-name="afii10030" unicode="&#x41c;" horiz-adv-x="842" 
d="M359 0l-126 647l-136 -647h-55l153 720h80l124 -660l391 660h83l-153 -720h-54l135 642l-382 -642h-60z" />
    <glyph glyph-name="afii10031" unicode="&#x41d;" horiz-adv-x="685" 
d="M716 720l-153 -720h-57l73 342h-408l-73 -342h-56l153 720h56l-70 -328h408l70 328h57z" />
    <glyph glyph-name="afii10032" unicode="&#x41e;" horiz-adv-x="753" 
d="M343 33q66 0 117 21.5t90 57.5t65.5 81.5t43.5 93t24.5 93.5t7.5 82q0 55 -15 97t-43 70.5t-66.5 43t-84.5 14.5q-66 0 -117.5 -21.5t-90.5 -57.5t-65.5 -81.5t-43 -93t-24 -93.5t-7.5 -82q0 -111 57 -168t152 -57zM340 -15q-58 0 -106.5 18t-83 53t-54 86t-19.5 117
q0 42 9 94t28.5 104.5t51.5 102.5t77.5 89t105.5 62.5t137 23.5q57 0 105 -18t83 -52.5t54.5 -85.5t19.5 -118q0 -42 -9 -93.5t-29 -104.5t-51.5 -103t-77 -89t-105.5 -62.5t-136 -23.5z" />
    <glyph glyph-name="afii10033" unicode="&#x41f;" horiz-adv-x="685" 
d="M716 720l-153 -720h-57l142 670h-408l-142 -670h-56l153 720h521z" />
    <glyph glyph-name="afii10034" unicode="&#x420;" horiz-adv-x="626" 
d="M430 720q106 0 162 -46.5t56 -129.5q0 -56 -20 -105t-58.5 -85.5t-94.5 -57.5t-128 -21h-191l-58 -275h-56l153 720h235zM241 672l-74 -348h181q58 0 102.5 17t75.5 46.5t47 68.5t16 83q0 63 -40 98t-118 35h-190z" />
    <glyph glyph-name="afii10035" unicode="&#x421;" horiz-adv-x="719" 
d="M340 -15q-62 0 -110.5 19t-83 55t-52.5 86.5t-18 113.5q0 44 9.5 96.5t30.5 105.5t53.5 102t78 87.5t105 61.5t133.5 23q57 0 103.5 -15t79 -44t50.5 -70.5t18 -94.5v-8h-56v6q0 91 -51.5 134t-148.5 43q-63 0 -113 -21t-89 -55.5t-66 -79t-45 -91.5t-26 -93t-8 -83
q0 -108 56.5 -169t152.5 -61q49 0 93.5 14t80.5 41t63.5 65t43.5 86h57q-16 -54 -47 -100.5t-75 -80.5t-99.5 -53.5t-119.5 -19.5z" />
    <glyph glyph-name="afii10036" unicode="&#x422;" horiz-adv-x="575" 
d="M660 670h-243l-142 -670h-56l142 670h-242l11 50h541z" />
    <glyph glyph-name="afii10037" unicode="&#x423;" horiz-adv-x="558" 
d="M313 161q-29 -46 -50.5 -79.5t-42 -55t-42 -31.5t-50.5 -10q-12 0 -26 3t-24 7l10 45q20 -7 41 -7q16 0 29.5 6.5t28 22.5t31.5 42.5t40 65.5h-18l-120 550h56l109 -507l320 507h59z" />
    <glyph glyph-name="afii10038" unicode="&#x424;" horiz-adv-x="796" 
d="M540 724l-5 -26q55 -1 101.5 -20t80.5 -53t53 -81.5t19 -106.5q0 -46 -10.5 -94t-32 -94t-54 -87t-77 -72t-101 -49.5t-124.5 -19.5l-5 -26h-56l5 26q-55 1 -101.5 20t-80.5 53t-53 81.5t-19 106.5q0 69 23.5 142t72.5 133.5t124 100t178 40.5l6 26h56zM732 440
q0 50 -15.5 89t-43 66t-65.5 41.5t-83 15.5l-124 -584q81 1 143 34.5t103.5 86.5t63 119t21.5 132zM136 280q0 -51 15.5 -90t43.5 -66t66 -41t83 -15l124 583q-81 -1 -143 -34.5t-104 -86t-63.5 -118.5t-21.5 -132z" />
    <glyph glyph-name="afii10039" unicode="&#x425;" horiz-adv-x="613" 
d="M380 371l176 -371h-63l-153 329l-293 -329h-70l336 375l-164 345h62l142 -305l278 305h69z" />
    <glyph glyph-name="afii10040" unicode="&#x426;" horiz-adv-x="685" 
d="M195 720h56l-143 -671h408l143 671h57l-143 -671h55l-41 -189h-52l30 140h-523z" />
    <glyph glyph-name="afii10041" unicode="&#x427;" horiz-adv-x="634" 
d="M665 720l-153 -720h-57l75 352q-39 -52 -93.5 -78t-120.5 -26q-91 0 -142.5 44t-51.5 129q0 28 8 66l50 233h56l-52 -243q-6 -30 -6 -55q0 -125 157 -125q42 0 79 13t66 36.5t48.5 57t28.5 74.5l51 242h57z" />
    <glyph glyph-name="afii10042" unicode="&#x428;" horiz-adv-x="981" 
d="M1012 720l-153 -720h-817l153 720h56l-143 -670h325l143 670h55l-143 -670h325l142 670h57z" />
    <glyph glyph-name="afii10043" unicode="&#x429;" horiz-adv-x="981" 
d="M1012 720l-143 -671h55l-41 -189h-52l30 140h-819l153 720h56l-143 -670h325l143 670h55l-143 -670h325l142 670h57z" />
    <glyph glyph-name="afii10044" unicode="&#x42a;" horiz-adv-x="803" 
d="M218 0l143 671h-249l11 49h305l-59 -276h178q106 0 162.5 -47t56.5 -130q0 -48 -17 -95.5t-54 -86t-94 -62t-137 -23.5h-246zM468 48q67 0 112.5 20t74 51.5t41 70t12.5 74.5q0 63 -42 97.5t-121 34.5h-186q-19 -88 -37.5 -174t-36.5 -174h183z" />
    <glyph glyph-name="afii10045" unicode="&#x42b;" horiz-adv-x="775" 
d="M805 720l-153 -720h-56l153 720h56zM291 48q67 0 112.5 20t74 51.5t41 70t12.5 74.5q0 63 -42 97.5t-120 34.5h-187l-74 -348h183zM42 0l153 720h56l-59 -276h178q106 0 162.5 -47t56.5 -130q0 -48 -17 -95.5t-54 -86t-94 -62t-137 -23.5h-245z" />
    <glyph glyph-name="afii10046" unicode="&#x42c;" horiz-adv-x="626" 
d="M291 48q67 0 112.5 20t74 51.5t41 70t12.5 74.5q0 63 -42 97.5t-120 34.5h-187l-74 -348h183zM42 0l153 720h56l-59 -276h178q106 0 162.5 -47t56.5 -130q0 -48 -17 -95.5t-54 -86t-94 -62t-137 -23.5h-245z" />
    <glyph glyph-name="afii10047" unicode="&#x42d;" horiz-adv-x="719" 
d="M314 -15q-62 0 -110 17t-80.5 47t-49 71t-16.5 89v15q0 7 2 15h56q-2 -7 -2 -13v-12q0 -85 54 -133t151 -48q62 0 114 23t93 64.5t70 98t45 123.5h-349l10 48h348q4 20 5.5 39.5t1.5 36.5q0 55 -15 96.5t-42 69t-64.5 41t-83.5 13.5q-97 0 -171 -46.5t-110 -136.5h-58
q19 54 53 97t78.5 73t98.5 46t113 16q58 0 106 -17.5t82 -51t52.5 -83.5t18.5 -116q0 -49 -10 -104t-30.5 -108.5t-53 -102t-77 -86t-102 -59.5t-128.5 -22z" />
    <glyph glyph-name="afii10048" unicode="&#x42e;" horiz-adv-x="1013" 
d="M609 -15q-57 0 -103.5 18t-79.5 53t-51 86t-18 117q0 19 1.5 39.5t5.5 43.5h-193l-72 -342h-57l153 720h57l-71 -328h193q15 60 44.5 121.5t75.5 110.5t110.5 80t150.5 31q57 0 103.5 -18t80 -52.5t51.5 -85.5t18 -118q0 -42 -9 -93.5t-28.5 -104.5t-51 -103t-75.5 -89
t-102.5 -62.5t-132.5 -23.5zM613 33q63 0 112.5 21.5t87 57.5t64 81.5t43 93t24 93.5t7.5 82q0 111 -54 168t-145 57q-64 0 -113.5 -21.5t-87 -57.5t-63.5 -81.5t-42.5 -93t-24 -93.5t-7.5 -82q0 -111 53 -168t146 -57z" />
    <glyph glyph-name="afii10049" unicode="&#x42f;" horiz-adv-x="640" 
d="M-23 0l264 306q-22 7 -43.5 19.5t-38 31t-27 43.5t-10.5 58q0 44 16.5 90.5t51 84.5t86.5 62.5t124 24.5h271l-153 -720h-56l62 295h-225l-253 -295h-69zM181 462q0 -57 38 -87.5t99 -30.5h216l70 328h-213q-48 0 -87 -18.5t-66.5 -48t-42 -67t-14.5 -76.5z" />
    <glyph glyph-name="afii10065" unicode="&#x430;" horiz-adv-x="529" 
d="M103 385q21 67 80 108.5t147 41.5q77 0 122.5 -35t45.5 -99q0 -17 -5 -40l-76 -361h-44l10 86q-32 -40 -81.5 -70.5t-118.5 -30.5q-68 0 -110 32t-42 89q0 45 17.5 78t49 56t75.5 37t97 23l162 26l9 44q3 16 3 30q0 43 -30 67t-89 24q-63 0 -106.5 -29t-59.5 -77h-56z
M199 31q32 0 65 11.5t61 31.5t48.5 48.5t28.5 62.5l21 96l-144 -23q-105 -17 -147.5 -53.5t-42.5 -93.5q0 -40 29.5 -60t80.5 -20z" />
    <glyph glyph-name="afii10066" unicode="&#x431;" horiz-adv-x="571" 
d="M68 293q15 71 35 130.5t51.5 105.5t77 77.5t110.5 46.5q42 10 70.5 17.5t47 15t27.5 15.5t11 19h63q-5 -23 -20 -38.5t-40 -26.5t-59.5 -20.5t-77.5 -19.5q-45 -11 -79 -29t-61 -47t-48 -71.5t-40 -101.5q38 57 95.5 89t121.5 32q42 0 76.5 -13.5t59 -38.5t38.5 -60.5
t14 -79.5q0 -53 -19 -108t-56 -100t-91.5 -73.5t-124.5 -28.5q-43 0 -79 12.5t-61.5 38t-39.5 64t-14 90.5q0 22 3 46.5t9 56.5zM344 442q-53 0 -96 -21t-74 -56.5t-48 -82t-17 -96.5q0 -72 37.5 -114.5t105.5 -42.5q50 0 92.5 22.5t73.5 60t48.5 85t17.5 98.5q0 69 -37 108
t-103 39z" />
    <glyph glyph-name="afii10067" unicode="&#x432;" horiz-adv-x="503" 
d="M37 0l110 520h189q72 0 114 -27.5t42 -78.5q0 -58 -38.5 -94t-95.5 -50q42 -9 70.5 -36t28.5 -69q0 -28 -10.5 -57.5t-35.5 -53.5t-66.5 -39t-103.5 -15h-204zM241 46q46 0 76.5 10t49.5 26.5t27 38t8 43.5q0 40 -33 61.5t-79 21.5h-147l-43 -201h141zM293 294
q25 0 51 7.5t46.5 22t33.5 35.5t13 49q0 65 -106 65h-140l-38 -179h140z" />
    <glyph glyph-name="afii10068" unicode="&#x433;" horiz-adv-x="384" 
d="M37 0l110 520h288l-10 -47h-234l-100 -473h-54z" />
    <glyph glyph-name="afii10069" unicode="&#x434;" horiz-adv-x="538" 
d="M31 47q9 6 16 12t13.5 15t12.5 21.5t11 32.5l104 392h342l-100 -473h43q-11 -47 -20 -93t-20 -94h-50l30 140h-384l-30 -140h-49l38 187h43zM140 135q-10 -36 -25.5 -55t-34.5 -33h296l90 426h-238z" />
    <glyph glyph-name="afii10070" unicode="&#x435;" horiz-adv-x="571" 
d="M500 142q-31 -71 -95.5 -114t-148.5 -43q-44 0 -81 13t-64 39t-42 63.5t-15 87.5q0 35 7.5 75t23 78.5t39.5 73.5t57 61.5t75 42.5t94 16q42 0 77 -12t60.5 -36t40 -61t14.5 -86q0 -21 -2.5 -44t-8.5 -49h-417q-3 -16 -4 -31t-1 -29q0 -80 42 -118t110 -38q59 0 107 29.5
t74 81.5h58zM348 491q-36 0 -70 -13t-63.5 -38t-52.5 -62t-37 -86h359q2 15 3 26.5t1 23.5q0 75 -38.5 112t-101.5 37z" />
    <glyph glyph-name="afii10072" unicode="&#x436;" horiz-adv-x="710" 
d="M162 520l108 -217h82l46 217h51l-46 -217h81l198 217h62l-221 -243l145 -277h-60l-133 256h-82l-54 -256h-51l53 256h-78l-234 -256h-67l260 286l-117 234h57z" />
    <glyph glyph-name="afii10073" unicode="&#x437;" horiz-adv-x="486" 
d="M313 491q-65 0 -110 -31t-66 -84h-58q27 73 88 116t149 43q75 0 117.5 -32t42.5 -84q0 -28 -10.5 -52t-29 -43t-44 -33t-54.5 -21q42 -9 72.5 -36.5t30.5 -72.5q0 -34 -14.5 -65.5t-42.5 -56t-70 -39.5t-97 -15q-89 0 -135.5 44.5t-46.5 114.5v9h55v-7q0 -52 31.5 -83.5
t97.5 -31.5q40 0 71 10.5t52 28t32 41t11 49.5q0 41 -34.5 64t-85.5 23h-50l10 48h48q27 0 53.5 8.5t47.5 24t34 37.5t13 49q0 35 -26.5 56t-81.5 21z" />
    <glyph glyph-name="afii10074" unicode="&#x438;" horiz-adv-x="553" 
d="M37 0l110 520h53l-87 -414l374 390l6 24h53l-110 -520h-53l87 413l-375 -389l-5 -24h-53z" />
    <glyph glyph-name="afii10075" unicode="&#x439;" horiz-adv-x="553" 
d="M371 594q-25 0 -46.5 5.5t-37.5 16.5t-25.5 28.5t-9.5 42.5v6q0 5 1 13h45v-12q0 -60 75 -60q83 0 103 72h49q-17 -60 -57.5 -85.5t-96.5 -26.5zM37 0l110 520h53l-87 -414l374 390l6 24h53l-110 -520h-53l87 413l-375 -389l-5 -24h-53z" />
    <glyph glyph-name="afii10076" unicode="&#x43a;" horiz-adv-x="488" 
d="M37 0l110 520h54l-46 -217h48l249 217h71l-279 -244l202 -276h-64l-188 256h-49l-54 -256h-54z" />
    <glyph glyph-name="afii10077" unicode="&#x43b;" horiz-adv-x="523" 
d="M352 0l100 473h-236l-101 -350q-10 -33 -21.5 -56.5t-27.5 -38t-37.5 -21.5t-51.5 -7l11 48q12 0 21.5 2t18.5 9.5t17 22.5t16 42l116 396h339l-110 -520h-54z" />
    <glyph glyph-name="afii10078" unicode="&#x43c;" horiz-adv-x="655" 
d="M261 0l-77 451l-95 -451h-52l110 520h78l76 -454l263 454h84l-110 -520h-53l94 445l-261 -445h-57z" />
    <glyph glyph-name="afii10079" unicode="&#x43d;" horiz-adv-x="558" 
d="M37 0l110 520h54l-48 -225h296l48 225h54l-110 -520h-54l52 248h-296l-52 -248h-54z" />
    <glyph glyph-name="afii10080" unicode="&#x43e;" horiz-adv-x="573" 
d="M53 186q0 30 6.5 67.5t20.5 76t37 75.5t56.5 66t78 46.5t102.5 17.5q88 0 142.5 -51t54.5 -149q0 -30 -6.5 -67.5t-20.5 -76.5t-37 -76t-56.5 -66t-78 -46.5t-101.5 -17.5q-44 0 -80.5 13.5t-62.5 39t-40.5 63t-14.5 85.5zM351 491q-47 0 -83 -16t-63 -42t-45.5 -59
t-29.5 -67t-16 -66t-5 -56q0 -78 39.5 -117t105.5 -39q46 0 81.5 16t62.5 42t45.5 59t30 67t16.5 66t5 56q0 78 -38.5 117t-105.5 39z" />
    <glyph glyph-name="afii10081" unicode="&#x43f;" horiz-adv-x="558" 
d="M37 0l110 520h404l-110 -520h-54l100 473h-296l-100 -473h-54z" />
    <glyph glyph-name="afii10082" unicode="&#x440;" horiz-adv-x="580" 
d="M380 535q40 0 72.5 -12t56 -36t36.5 -59.5t13 -81.5q0 -32 -6.5 -71t-20.5 -79.5t-36.5 -78t-54.5 -67t-74 -47.5t-96 -18q-63 0 -104.5 33t-54.5 81l-59 -279h-54l149 700h44l-12 -97q34 49 84.5 80.5t116.5 31.5zM266 30q63 0 107.5 34t73 83t42 103t13.5 94
q0 75 -37 110t-98 35q-54 0 -97.5 -27t-74 -70.5t-47.5 -98.5t-17 -112q0 -75 37 -113t98 -38z" />
    <glyph glyph-name="afii10083" unicode="&#x441;" horiz-adv-x="540" 
d="M486 153q-13 -36 -36.5 -67t-55 -53.5t-70.5 -35t-84 -12.5q-41 0 -75.5 12.5t-59.5 37.5t-39 61.5t-14 84.5q0 34 7 73.5t22 79t38 76t56 64.5t75.5 44.5t95.5 16.5q84 0 133 -43t49 -117h-57q0 53 -32.5 83.5t-94.5 30.5q-63 0 -108 -32t-73.5 -79t-42 -100.5
t-13.5 -96.5q0 -77 39.5 -113.5t99.5 -36.5q30 0 58.5 9t52.5 25t42 38.5t28 49.5h59z" />
    <glyph glyph-name="afii10084" unicode="&#x442;" horiz-adv-x="474" 
d="M170 0l100 473h-195l10 47h445l-10 -47h-196l-100 -473h-54z" />
    <glyph glyph-name="afii10085" unicode="&#x443;" horiz-adv-x="497" 
d="M256 -4q-30 -53 -51.5 -89.5t-41 -59t-39.5 -32.5t-48 -10q-14 0 -30 3.5t-28 8.5l10 43q12 -5 25 -7.5t24 -2.5q16 0 29 7.5t26.5 25t30 46.5t39.5 71h-18l-97 520h54l86 -478l265 478h58z" />
    <glyph glyph-name="afii10086" unicode="&#x444;" horiz-adv-x="837" 
d="M558 720l-62 -289q30 45 73.5 74.5t97.5 29.5q66 0 107 -45.5t41 -135.5q0 -52 -15.5 -116t-47 -120.5t-80 -94.5t-115.5 -38q-56 0 -88.5 30.5t-43.5 80.5l-59 -276h-54l57 266q-30 -45 -72 -73t-93 -28q-33 0 -60.5 12.5t-48 36.5t-32 59.5t-11.5 82.5q0 51 14.5 113.5
t45 117t77.5 91.5t113 37q57 0 92 -33t46 -82l64 300h54zM310 489q-53 0 -91 -32.5t-63 -80t-36.5 -102t-11.5 -99.5q0 -74 30 -109.5t78 -35.5q52 0 90 33t63 81.5t37 103.5t12 99q0 38 -9 65t-24 44t-34.5 25t-40.5 8zM553 30q52 0 91 34t65 83.5t38.5 105.5t12.5 100
q0 70 -29.5 103t-77.5 33q-53 0 -92 -33.5t-64.5 -82.5t-37.5 -104.5t-12 -99.5q0 -70 28.5 -104.5t77.5 -34.5z" />
    <glyph glyph-name="afii10087" unicode="&#x445;" horiz-adv-x="511" 
d="M303 274l151 -274h-61l-129 235l-218 -235h-69l258 274l-138 246h61l117 -207l191 207h68z" />
    <glyph glyph-name="afii10088" unicode="&#x446;" horiz-adv-x="558" 
d="M551 520l-101 -473h43l-39 -187h-51l30 140h-396l110 520h54l-101 -473h296l101 473h54z" />
    <glyph glyph-name="afii10089" unicode="&#x447;" horiz-adv-x="545" 
d="M192 520l-41 -193q-3 -14 -4 -24.5t-1 -19.5q0 -49 29 -72.5t82 -23.5q33 0 64.5 13t57 35t44 52t26.5 65l35 168h54l-110 -520h-54l50 237q-36 -48 -85 -72t-97 -24q-32 0 -59.5 8.5t-47.5 26t-31.5 43t-11.5 59.5q0 24 6 51l40 191h54z" />
    <glyph glyph-name="afii10090" unicode="&#x448;" horiz-adv-x="807" 
d="M800 520l-110 -520h-653l110 520h54l-101 -473h246l101 473h54l-101 -473h245l101 473h54z" />
    <glyph glyph-name="afii10091" unicode="&#x449;" horiz-adv-x="807" 
d="M800 520l-101 -473h43l-39 -187h-51l30 140h-645l110 520h54l-101 -473h246l101 473h54l-101 -473h245l101 473h54z" />
    <glyph glyph-name="afii10092" unicode="&#x44a;" horiz-adv-x="629" 
d="M321 520l-38 -178h119q46 0 80 -10.5t56.5 -29.5t33 -44t10.5 -53q0 -35 -12.5 -71.5t-42 -66t-79 -48.5t-123.5 -19h-168l100 473h-187l10 47h241zM273 297l-53 -252h108q61 0 100 15.5t60.5 39.5t29.5 52t8 53q0 27 -11 44.5t-29.5 28t-42 15t-48.5 4.5h-122z" />
    <glyph glyph-name="afii10093" unicode="&#x44b;" horiz-adv-x="640" 
d="M469 0l110 520h54l-110 -520h-54zM282 342q46 0 80 -10.5t56.5 -29.5t33 -44t10.5 -53q0 -35 -12.5 -71.5t-42 -66t-79 -48.5t-123.5 -19h-168l110 520h54l-38 -178h119zM208 45q61 0 100 15.5t60.5 39.5t29.5 52t8 53q0 27 -11 44.5t-29.5 28t-42 15t-48.5 4.5h-122
l-53 -252h108z" />
    <glyph glyph-name="afii10094" unicode="&#x44c;" horiz-adv-x="509" 
d="M282 342q46 0 80 -10.5t56.5 -29.5t33 -44t10.5 -53q0 -35 -12.5 -71.5t-42 -66t-79 -48.5t-123.5 -19h-168l110 520h54l-38 -178h119zM208 45q61 0 100 15.5t60.5 39.5t29.5 52t8 53q0 27 -11 44.5t-29.5 28t-42 15t-48.5 4.5h-122l-53 -252h108z" />
    <glyph glyph-name="afii10095" unicode="&#x44d;" horiz-adv-x="540" 
d="M100 153q0 -56 36.5 -89t99.5 -33q77 0 133 54.5t79 159.5h-226l10 46h225q3 28 3 52q0 75 -33.5 110.5t-92.5 35.5q-66 0 -116 -30.5t-71 -83.5h-60q29 73 94.5 116.5t156.5 43.5q81 0 129.5 -49.5t48.5 -145.5q0 -53 -14.5 -115t-47.5 -115.5t-87.5 -89t-134.5 -35.5
q-45 0 -80 13t-59.5 36t-37.5 53.5t-13 65.5h58z" />
    <glyph glyph-name="afii10096" unicode="&#x44e;" horiz-adv-x="777" 
d="M465 -15q-88 0 -138.5 52t-50.5 149q0 27 6 62h-139l-52 -248h-54l110 520h54l-48 -225h139q12 43 33.5 85.5t55 77t80 56t107.5 21.5q88 0 137.5 -52t49.5 -149q0 -30 -6.5 -67.5t-20 -76.5t-36 -75.5t-55 -65.5t-75 -46.5t-97.5 -17.5zM467 29q44 0 78 16t60 42t44 59
t29.5 67t16.5 65.5t5 55.5q0 78 -35 117.5t-101 39.5q-44 0 -78.5 -16t-60.5 -42t-43.5 -59t-28.5 -67t-16 -66t-5 -56q0 -78 35 -117t100 -39z" />
    <glyph glyph-name="afii10097" unicode="&#x44f;" horiz-adv-x="527" 
d="M-23 0l209 210q-39 12 -64.5 43t-25.5 76q0 28 10 61t36 62t72 48.5t117 19.5h189l-110 -520h-54l42 202h-151l-203 -202h-67zM152 331q0 -38 25 -60t70 -22h161l48 227h-128q-53 0 -87.5 -14.5t-54 -36t-27 -47t-7.5 -47.5z" />
    <glyph glyph-name="uni0450" unicode="&#x450;" horiz-adv-x="571" 
d="M500 142q-31 -71 -95.5 -114t-148.5 -43q-44 0 -81 13t-64 39t-42 63.5t-15 87.5q0 35 7.5 75t23 78.5t39.5 73.5t57 61.5t75 42.5t94 16q42 0 77 -12t60.5 -36t40 -61t14.5 -86q0 -21 -2.5 -44t-8.5 -49h-417q-3 -16 -4 -31t-1 -29q0 -80 42 -118t110 -38q59 0 107 29.5
t74 81.5h58zM348 491q-36 0 -70 -13t-63.5 -38t-52.5 -62t-37 -86h359q2 15 3 26.5t1 23.5q0 75 -38.5 112t-101.5 37zM408 598h-47l-99 137h72z" />
    <glyph glyph-name="afii10071" unicode="&#x451;" horiz-adv-x="571" 
d="M500 142q-31 -71 -95.5 -114t-148.5 -43q-44 0 -81 13t-64 39t-42 63.5t-15 87.5q0 35 7.5 75t23 78.5t39.5 73.5t57 61.5t75 42.5t94 16q42 0 77 -12t60.5 -36t40 -61t14.5 -86q0 -21 -2.5 -44t-8.5 -49h-417q-3 -16 -4 -31t-1 -29q0 -80 42 -118t110 -38q59 0 107 29.5
t74 81.5h58zM348 491q-36 0 -70 -13t-63.5 -38t-52.5 -62t-37 -86h359q2 15 3 26.5t1 23.5q0 75 -38.5 112t-101.5 37zM246 650l16 70h63l-15 -70h-64zM451 650l16 70h63l-15 -70h-64z" />
    <glyph glyph-name="afii10099" unicode="&#x452;" horiz-adv-x="560" 
d="M521 350q-22 -106 -44.5 -211.5t-45.5 -211.5q-26 -122 -130 -122q-40 0 -75 16l9 44q17 -6 33.5 -9.5t28.5 -3.5q32 0 52 18.5t30 63.5q23 104 44.5 208t44.5 210q2 12 3 21t1 18q0 46 -29.5 72t-83.5 26q-30 0 -61 -12t-58 -33.5t-47 -52.5t-28 -69l-68 -322h-54
l129 608h-61l10 47h61l14 65h54l-14 -65h160l-10 -47h-160l-38 -176q35 51 85.5 77t101.5 26q70 0 111 -36t41 -101q0 -23 -6 -48z" />
    <glyph glyph-name="afii10100" unicode="&#x453;" horiz-adv-x="384" 
d="M363 735h78l-157 -137h-53zM37 0l110 520h288l-10 -47h-234l-100 -473h-54z" />
    <glyph glyph-name="afii10101" unicode="&#x454;" horiz-adv-x="540" 
d="M486 153q-13 -36 -36.5 -67t-55 -53.5t-70.5 -35t-84 -12.5q-41 0 -75.5 12.5t-59.5 37.5t-39 61.5t-14 84.5q0 34 7 73.5t22 79t38 76t56 64.5t75.5 44.5t95.5 16.5q42 0 75.5 -11.5t57 -32.5t36.5 -50.5t13 -65.5h-57q0 53 -32.5 83.5t-94.5 30.5q-45 0 -81 -17
t-63.5 -45t-46.5 -63.5t-30 -72.5h226q-2 -12 -4.5 -23t-4.5 -23h-227q-4 -17 -5 -33t-1 -31q0 -77 39.5 -113.5t99.5 -36.5q30 0 58.5 9t52.5 25t42 38.5t28 49.5h59z" />
    <glyph glyph-name="afii10102" unicode="&#x455;" horiz-adv-x="494" 
d="M213 29q33 0 63.5 8.5t54 25t38 40.5t14.5 56q0 21 -9 35.5t-27 25t-45.5 18t-64.5 14.5q-68 12 -105.5 43.5t-37.5 82.5q0 30 12.5 58.5t38 50t65.5 35t96 13.5q83 0 130.5 -39t47.5 -105h-54v7q-1 41 -33.5 67t-95.5 26q-41 0 -69.5 -9t-46.5 -25t-26.5 -36.5
t-8.5 -42.5q0 -32 27.5 -51t97.5 -32q87 -16 126.5 -48.5t39.5 -83.5q0 -32 -13.5 -64t-41.5 -57.5t-72 -41t-104 -15.5q-88 0 -135.5 39t-47.5 99v5q0 4 1 9h53q-1 -6 -1 -10v-5q0 -42 33.5 -67.5t99.5 -25.5z" />
    <glyph glyph-name="afii10103" unicode="&#x456;" horiz-adv-x="207" 
d="M168 646l16 74h65l-17 -74h-64zM36 0l110 520h54l-110 -520h-54z" />
    <glyph glyph-name="afii10104" unicode="&#x457;" horiz-adv-x="207" 
d="M67 650l16 70h63l-15 -70h-64zM272 650l16 70h63l-15 -70h-64zM36 0l110 520h54l-110 -520h-54z" />
    <glyph glyph-name="afii10105" unicode="&#x458;" horiz-adv-x="207" 
d="M-122 -135q17 -7 33 -10t28 -3q32 0 52.5 18t30.5 63l124 587h54l-126 -593q-26 -122 -131 -122q-19 0 -37.5 3.5t-36.5 12.5zM167 646l16 74h65l-16 -74h-65z" />
    <glyph glyph-name="afii10106" unicode="&#x459;" horiz-adv-x="800" 
d="M115 123q-10 -33 -21.5 -56.5t-27.5 -38t-37.5 -21.5t-51.5 -7l11 48q12 0 21.5 2t18.5 9.5t17 22.5t16 42l116 396h314l-37 -178h119q46 0 80 -10.5t56.5 -29.5t33 -44t10.5 -54q0 -35 -12.5 -71t-42.5 -65.5t-79.5 -48.5t-123.5 -19h-167l99 473h-211zM444 297
l-54 -253h109q62 0 101 16.5t60.5 41t29 53t7.5 52.5q0 40 -30 65t-101 25h-122z" />
    <glyph glyph-name="afii10107" unicode="&#x45a;" horiz-adv-x="832" 
d="M531 45q61 0 100 15.5t60.5 39.5t29.5 52t8 53q0 27 -11 44.5t-29.5 28t-42 15t-48.5 4.5h-122l-53 -252h108zM360 0l52 248h-269l-52 -248h-54l110 520h54l-48 -225h269l48 225h54l-38 -178h119q46 0 80 -10.5t56.5 -29.5t33 -44t10.5 -53q0 -35 -12.5 -71.5t-42 -66
t-79 -48.5t-123.5 -19h-168z" />
    <glyph glyph-name="afii10108" unicode="&#x45b;" horiz-adv-x="557" 
d="M356 489q-29 0 -60 -11.5t-58 -33.5t-47.5 -53t-28.5 -70l-67 -321h-54l128 609h-61l11 46h60l15 65h54l-15 -65h161l-11 -46h-160l-37 -175q35 50 85 75.5t101 25.5q70 0 111 -35.5t41 -101.5q0 -11 -1 -22t-4 -25l-74 -351h-54l74 352l3 21q2 9 2 19q0 47 -29 72
t-85 25z" />
    <glyph glyph-name="afii10109" unicode="&#x45c;" horiz-adv-x="488" 
d="M405 735h78l-157 -137h-53zM37 0l110 520h54l-46 -217h48l249 217h71l-279 -244l202 -276h-64l-188 256h-49l-54 -256h-54z" />
    <glyph glyph-name="uni045D" unicode="&#x45d;" horiz-adv-x="553" 
d="M37 0l110 520h53l-87 -414l374 390l6 24h53l-110 -520h-53l87 413l-375 -389l-5 -24h-53zM374 598h-47l-99 137h72z" />
    <glyph glyph-name="afii10110" unicode="&#x45e;" horiz-adv-x="497" 
d="M256 -4q-30 -53 -51.5 -89.5t-41 -59t-39.5 -32.5t-48 -10q-14 0 -30 3.5t-28 8.5l10 43q12 -5 25 -7.5t24 -2.5q16 0 29 7.5t26.5 25t30 46.5t39.5 71h-18l-97 520h54l86 -478l265 478h58zM344 594q-25 0 -46.5 5.5t-37.5 16.5t-25.5 28.5t-9.5 42.5v6q0 5 1 13h45v-12
q0 -60 75 -60q83 0 103 72h49q-17 -60 -57.5 -85.5t-96.5 -26.5z" />
    <glyph glyph-name="afii10193" unicode="&#x45f;" horiz-adv-x="558" 
d="M551 520l-110 -520h-177l-30 -140h-50l30 140h-177l110 520h54l-100 -472h296l100 472h54z" />
    <glyph glyph-name="afii10146" unicode="&#x462;" horiz-adv-x="780" 
d="M195 0l142 669h-218l11 51h495q-3 -13 -6 -25.5t-5 -25.5h-220l-48 -225h178q106 0 162.5 -47t56.5 -130q0 -48 -17 -95.5t-54 -86t-94 -62t-137 -23.5h-246zM445 48q67 0 112.5 20t74 51.5t41 70t12.5 74.5q0 63 -42 97.5t-121 34.5h-186l-74 -348h183z" />
    <glyph glyph-name="afii10194" unicode="&#x463;" horiz-adv-x="509" 
d="M208 45q61 0 100 15.5t60.5 39.5t29.5 52t8 53q0 27 -11 44.5t-29.5 28t-42 15t-48.5 4.5h-122l-53 -252h108zM37 0l105 492h-77l10 47h76l24 112h54l-24 -112h120l-10 -47h-120l-32 -150h119q46 0 80 -10.5t56.5 -29.5t33 -44t10.5 -53q0 -35 -12.5 -71.5t-42 -66
t-79 -48.5t-123.5 -19h-168z" />
    <glyph glyph-name="afii10147" unicode="&#x472;" horiz-adv-x="753" 
d="M340 -15q-58 0 -106.5 18t-83 53t-54 86t-19.5 117q0 42 9 94t28.5 104.5t51.5 102.5t77.5 89t105.5 62.5t137 23.5q57 0 105 -18t83 -52.5t54.5 -85.5t19.5 -118q0 -42 -9 -93.5t-29 -104.5t-51.5 -103t-77 -89t-105.5 -62.5t-136 -23.5zM343 33q75 0 131.5 28t97 72.5
t65.5 99.5t38 109h-533q-5 -23 -6.5 -44t-1.5 -40q0 -111 57 -168t152 -57zM482 687q-74 0 -129 -26.5t-95 -69t-65.5 -95t-39.5 -104.5h532q6 39 6 70q0 55 -15 97t-43 70.5t-66.5 43t-84.5 14.5z" />
    <glyph glyph-name="afii10195" unicode="&#x473;" horiz-adv-x="573" 
d="M53 186q0 30 6.5 67.5t20.5 76t37 75.5t56.5 66t78 46.5t102.5 17.5q88 0 142.5 -51t54.5 -149q0 -30 -6.5 -67.5t-20.5 -76.5t-37 -76t-56.5 -66t-78 -46.5t-101.5 -17.5q-44 0 -80.5 13.5t-62.5 39t-40.5 63t-14.5 85.5zM254 29q51 0 89.5 19.5t66 50.5t45 69t26.5 75
h-367q-2 -16 -3.5 -30.5t-1.5 -27.5q0 -78 39.5 -117t105.5 -39zM351 491q-50 0 -88 -18.5t-65.5 -47.5t-45.5 -65.5t-28 -72.5h367q2 14 3 25.5t1 22.5q0 78 -38.5 117t-105.5 39z" />
    <glyph glyph-name="afii10148" unicode="&#x474;" horiz-adv-x="627" 
d="M175 720l106 -672l392 672h59l-421 -720h-76l-115 720h55z" />
    <glyph glyph-name="afii10196" unicode="&#x475;" horiz-adv-x="497" 
d="M550 520l-305 -520h-73l-85 520h56l73 -475l275 475h59z" />
    <glyph glyph-name="afii10050" unicode="&#x490;" horiz-adv-x="488" 
d="M532 720l29 140h52l-40 -189h-333l-142 -671h-56l153 720h337z" />
    <glyph glyph-name="afii10098" unicode="&#x491;" horiz-adv-x="384" 
d="M37 0l110 520h238l29 135h50l-39 -182h-234l-100 -473h-54z" />
    <glyph glyph-name="uni0492" unicode="&#x492;" horiz-adv-x="488" 
d="M574 671h-333l-60 -281h212l-10 -48h-212l-73 -342h-56l72 342h-90l10 48h90l71 330h389z" />
    <glyph glyph-name="uni0493" unicode="&#x493;" horiz-adv-x="384" 
d="M191 473l-38 -178h153l-10 -47h-153l-52 -248h-54l52 248h-50l10 47h50l48 225h288l-10 -47h-234z" />
    <glyph glyph-name="uni0496" unicode="&#x496;" horiz-adv-x="841" 
d="M210 720l118 -327h110l69 327h55l-70 -327h104l257 327h62l-276 -351l132 -319h53l-40 -190h-52l30 140h-31l-139 343h-111l-72 -343h-55l73 343h-106l-282 -343h-67l310 375l-127 345h55z" />
    <glyph glyph-name="uni0497" unicode="&#x497;" horiz-adv-x="712" 
d="M163 520l107 -217h82l46 217h51l-46 -217h80l199 217h62l-220 -241l120 -232h49l-40 -187h-50l30 140h-25l-131 256h-84l-54 -256h-51l53 256h-75l-237 -256h-67l261 283l-118 237h58z" />
    <glyph glyph-name="uni0498" unicode="&#x498;" horiz-adv-x="596" 
d="M368 -129q0 -20 -8.5 -40t-25 -36t-41 -26t-56.5 -10q-47 0 -76 23t-29 65h44v-5q0 -44 64 -44q19 0 34.5 6.5t26 16.5t16 22.5t5.5 25.5q0 23 -22 36.5t-75 13.5l20 67q-97 5 -149 50t-52 123h57q0 -63 41 -95.5t123 -32.5q60 0 103 20t70.5 50.5t40.5 67t13 69.5
q0 56 -37 87t-102 31h-77l10 48h74q38 0 71.5 14t59 38t40.5 56.5t15 68.5q0 51 -37.5 79t-106.5 28q-79 0 -132.5 -32.5t-78.5 -92.5h-61q30 78 100.5 125t176.5 47q91 0 144 -41t53 -109q0 -40 -13.5 -74t-37 -61t-55 -45t-68.5 -26q54 -8 87 -45.5t33 -95.5
q0 -35 -13.5 -77t-44 -79t-81 -64t-124.5 -32l-7 -35q44 -5 66 -27.5t22 -52.5z" />
    <glyph glyph-name="uni0499" unicode="&#x499;" horiz-adv-x="486" 
d="M312 490q-65 0 -110 -31t-65 -84h-58q26 73 87.5 116.5t148.5 43.5q75 0 118 -32.5t43 -83.5q0 -29 -10.5 -53t-29.5 -42.5t-44 -32.5t-55 -21q42 -9 73 -36.5t31 -72.5q0 -33 -13.5 -63.5t-39.5 -54.5t-64.5 -39.5t-89.5 -17.5l-7 -35q44 -5 66 -27.5t22 -52.5
q0 -20 -8.5 -40t-25 -36t-41 -26t-56.5 -10q-47 0 -76 22.5t-29 65.5h44v-4q0 -21 16.5 -33t47.5 -12q35 0 58.5 20.5t23.5 50.5q0 23 -22 36.5t-75 13.5l20 68q-78 7 -117.5 49t-39.5 108v9h54v-8q0 -51 31.5 -83t97.5 -32q40 0 71 10.5t52 28t32 41t11 50.5q0 38 -34.5 62
t-85.5 24h-49l10 48h47q27 0 54 8.5t48 24t34 38t13 49.5q0 35 -27 55.5t-82 20.5z" />
    <glyph glyph-name="uni049A" unicode="&#x49a;" horiz-adv-x="596" 
d="M293 367l218 -318h53l-40 -189h-53l30 140h-24l-232 343h-74l-73 -343h-56l153 720h56l-70 -328h70l347 328h67z" />
    <glyph glyph-name="uni049B" unicode="&#x49b;" horiz-adv-x="490" 
d="M37 0l110 520h54l-46 -217h48l249 217h71l-278 -242l167 -231h54l-39 -187h-51l30 140h-24l-186 256h-51l-54 -256h-54z" />
    <glyph glyph-name="uni049C" unicode="&#x49c;" horiz-adv-x="621" 
d="M166 73l57 271h-52l-73 -344h-56l153 720h56l-70 -328h52l42 199h45l-42 -198l346 327h67l-372 -352l249 -368h-65l-232 344h-4l-56 -271h-45z" />
    <glyph glyph-name="uni049D" unicode="&#x49d;" horiz-adv-x="514" 
d="M250 401l-21 -98h3l247 217h71l-277 -244l200 -276h-64l-186 256h-4l-43 -203h-42l43 203h-32l-54 -256h-54l110 520h54l-46 -217h32l21 98h42z" />
    <glyph glyph-name="uni04A0" unicode="&#x4a0;" horiz-adv-x="770" 
d="M651 0l-232 344h-74l-73 -344h-56l142 671h-248l10 49h305l-70 -328h70l347 328h67l-372 -352l249 -368h-65z" />
    <glyph glyph-name="uni04A1" unicode="&#x4a1;" horiz-adv-x="608" 
d="M157 0l100 473h-187l10 47h241l-46 -217h48l249 217h71l-279 -244l202 -276h-64l-188 256h-49l-54 -256h-54z" />
    <glyph glyph-name="uni04A2" unicode="&#x4a2;" horiz-adv-x="685" 
d="M716 720l-142 -670h54l-40 -190h-53l30 140h-59l73 342h-408l-73 -342h-56l153 720h56l-70 -328h408l70 328h57z" />
    <glyph glyph-name="uni04A3" unicode="&#x4a3;" horiz-adv-x="558" 
d="M37 0l110 520h54l-48 -225h296l48 225h54l-101 -473h43l-39 -187h-51l30 140h-46l52 248h-296l-52 -248h-54z" />
    <glyph glyph-name="uni04AA" unicode="&#x4aa;" horiz-adv-x="719" 
d="M485 -149q-19 -42 -57 -65.5t-82 -23.5q-45 0 -72 22t-27 60q0 42 29.5 78.5t77.5 63.5q-3 0 -5.5 -0.5t-5.5 -0.5q-62 0 -111.5 19t-84 54.5t-53 86.5t-18.5 114q0 44 9.5 96.5t30.5 105.5t53.5 102t78 87.5t105 61.5t133.5 23q56 0 102 -14.5t79 -43t51.5 -70
t18.5 -94.5v-10h-57v8q0 88 -51.5 131.5t-147.5 43.5q-63 0 -113 -21t-89 -55.5t-66 -79t-45 -91.5t-26 -93t-8 -83q0 -108 56.5 -169t152.5 -61q49 0 93.5 14t80.5 41t63.5 65t43.5 86h57q-25 -88 -86.5 -150.5t-149.5 -88.5q-26 -8 -52.5 -23t-48.5 -35t-36 -43t-14 -47
q0 -25 15.5 -37.5t42.5 -12.5q29 0 50 13.5t33 35.5h50z" />
    <glyph glyph-name="uni04AB" unicode="&#x4ab;" horiz-adv-x="540" 
d="M228 -239q-45 0 -72.5 22.5t-27.5 60.5q0 42 29 78.5t77 62.5q-40 1 -73.5 14t-57.5 38t-37.5 61t-13.5 83q0 34 7 73.5t22 79t38 76t56 64.5t75.5 44.5t95.5 16.5q84 0 133 -43t49 -117h-57q0 53 -32.5 83.5t-94.5 30.5q-63 0 -108 -32t-73.5 -79t-42 -100.5
t-13.5 -96.5q0 -77 39.5 -113.5t99.5 -36.5q30 0 58.5 9t52.5 25t42 38.5t28 49.5h59q-21 -57 -61.5 -95.5t-107.5 -61.5q-24 -8 -49 -22.5t-45.5 -33.5t-34 -42t-13.5 -47t15.5 -36.5t43.5 -12.5q29 0 49.5 13.5t32.5 35.5h50q-18 -43 -56.5 -66.5t-81.5 -23.5z" />
    <glyph glyph-name="uni04AE" unicode="&#x4ae;" horiz-adv-x="623" 
d="M178 720l159 -388l329 388h62l-370 -438l-59 -282h-57l60 283l-182 437h58z" />
    <glyph glyph-name="uni04AF" unicode="&#x4af;" horiz-adv-x="497" 
d="M142 -180l39 180l-94 520h56l75 -467l273 467h59l-315 -520l-39 -180h-54z" />
    <glyph glyph-name="uni04B0" unicode="&#x4b0;" horiz-adv-x="623" 
d="M178 720l159 -388l329 388h62q-85 -100 -169 -199.5t-169 -199.5h124l-11 -48h-147l-57 -273h-57l58 273h-146l10 48h123q-42 100 -83.5 199.5t-83.5 199.5h58z" />
    <glyph glyph-name="uni04B1" unicode="&#x4b1;" horiz-adv-x="497" 
d="M142 -180l39 180h-112l9 47h95l-86 473h56l75 -467l273 467h59l-287 -473h92l-9 -47h-111l-39 -180h-54z" />
    <glyph glyph-name="uni04B2" unicode="&#x4b2;" horiz-adv-x="612" 
d="M380 371l152 -321h52l-40 -190h-52l29 140h-28l-153 329l-293 -329h-70l336 375l-164 345h62l142 -305l278 305h69z" />
    <glyph glyph-name="uni04B3" unicode="&#x4b3;" horiz-adv-x="511" 
d="M303 274l126 -227h49l-39 -187h-50l29 140h-25l-129 235l-218 -235h-69l258 274l-138 246h61l117 -207l191 207h68z" />
    <glyph glyph-name="uni04B8" unicode="&#x4b8;" horiz-adv-x="634" 
d="M266 72l38 176q-86 2 -134.5 46t-48.5 126q0 29 8 67l51 233h56l-52 -242q-7 -32 -7 -56q0 -60 35 -90.5t102 -34.5l63 294h43l-62 -293q76 7 128.5 55.5t69.5 123.5l52 243h57l-153 -720h-57l75 352q-34 -46 -80 -71.5t-103 -30.5l-37 -178h-44z" />
    <glyph glyph-name="uni04B9" unicode="&#x4b9;" horiz-adv-x="545" 
d="M333 401l-45 -211q28 5 54.5 19.5t48 36t37 48.5t21.5 58l35 168h54l-110 -520h-54l50 237q-30 -39 -68.5 -62.5t-77.5 -30.5l-19 -91h-43l18 88q-62 2 -102 36.5t-40 100.5q0 24 6 51l40 191h54l-41 -195q-3 -12 -4 -22.5t-1 -19.5q0 -45 25 -69t73 -27l46 214h43z" />
    <glyph glyph-name="uni04BA" unicode="&#x4ba;" horiz-adv-x="631" 
d="M42 0l153 720h57l-75 -352q39 52 93.5 78t120.5 26q91 0 143 -43t52 -127q0 -28 -8 -66l-51 -236h-56l52 243q6 30 6 55q0 63 -38 94t-118 31q-43 0 -79.5 -13t-65.5 -36.5t-48.5 -57t-28.5 -74.5l-52 -242h-57z" />
    <glyph glyph-name="uni04BB" unicode="&#x4bb;" horiz-adv-x="553" 
d="M37 0l153 720h54l-80 -372q35 50 85 76t101 26q70 0 111 -36t41 -101q0 -20 -5 -48l-56 -265h-54l56 267l3 21q2 9 2 18q0 47 -29 72.5t-85 25.5q-29 0 -60 -12t-58 -33.5t-47.5 -52.5t-28.5 -70l-49 -236h-54z" />
    <glyph glyph-name="uni04C0" unicode="&#x4c0;" horiz-adv-x="220" 
d="M251 720l-153 -720h-56l153 720h56z" />
    <glyph glyph-name="uni04CB" unicode="&#x4cb;" horiz-adv-x="634" 
d="M665 720l-143 -670h55l-41 -190h-52l30 140h-59l75 352q-39 -52 -93.5 -78t-120.5 -26q-91 0 -142.5 44t-51.5 129q0 28 8 66l50 233h56l-52 -243q-4 -17 -5 -29.5t-1 -25.5q0 -125 157 -125q42 0 79 13t66 36.5t48.5 57t28.5 74.5l51 242h57z" />
    <glyph glyph-name="uni04CC" unicode="&#x4cc;" horiz-adv-x="545" 
d="M192 520l-41 -195q-3 -12 -4 -22.5t-1 -19.5q0 -49 29 -72.5t82 -23.5q33 0 64.5 13t57 35t44 52t26.5 65l35 168h54l-100 -473h42l-39 -187h-51l30 140h-46l50 237q-36 -48 -85 -72t-97 -24q-32 0 -59.5 8.5t-47.5 26t-31.5 43t-11.5 59.5q0 24 6 51l40 191h54z" />
    <glyph glyph-name="uni04CF" unicode="&#x4cf;" horiz-adv-x="208" 
d="M91 0h-54l153 720h54z" />
    <glyph glyph-name="uni04D8" unicode="&#x4d8;" horiz-adv-x="719" 
d="M313 -15q-121 0 -183.5 65t-62.5 195q0 26 3 54.5t8 58.5h566q7 32 9.5 59.5t2.5 53.5q0 107 -52.5 161t-146.5 54q-102 0 -171 -42.5t-109 -124.5h-59q44 106 133 161t210 55q57 0 104 -17t80.5 -50.5t51.5 -83t18 -113.5q0 -52 -11 -108.5t-33 -110.5t-55.5 -102.5
t-78 -85t-100.5 -58t-124 -21.5zM317 33q53 0 101.5 19t89 55t72 87.5t51.5 115.5h-502q-7 -38 -7 -74q0 -103 51.5 -153t143.5 -50z" />
    <glyph glyph-name="afii10846" unicode="&#x4d9;" horiz-adv-x="571" 
d="M99 378q31 71 95 114t148 43q44 0 81 -13.5t64 -39.5t42 -64t15 -88q0 -45 -15 -104.5t-49.5 -113t-90 -90.5t-137.5 -37q-42 0 -77.5 12t-62 36t-41 61.5t-14.5 88.5q0 38 11 90h416q6 31 6 60q0 80 -42 118t-111 38q-59 0 -107 -29.5t-74 -81.5h-57zM250 29
q73 0 134.5 50.5t89.5 148.5h-360q-2 -14 -3 -26.5t-1 -25.5q0 -74 38 -110.5t102 -36.5z" />
    <glyph glyph-name="uni04E2" unicode="&#x4e2;" horiz-adv-x="687" 
d="M351 823l10 47h242l-10 -47h-242zM662 720h55l-153 -720h-55l127 597l-533 -560l-8 -37h-53l153 720h53l-128 -598l533 561z" />
    <glyph glyph-name="uni04E3" unicode="&#x4e3;" horiz-adv-x="553" 
d="M253 653l10 47h242l-10 -47h-242zM37 0l110 520h53l-87 -414l374 390l6 24h53l-110 -520h-53l87 413l-375 -389l-5 -24h-53z" />
    <glyph glyph-name="uni04E8" unicode="&#x4e8;" horiz-adv-x="753" 
d="M340 -15q-58 0 -106.5 18t-83 53t-54 86t-19.5 117q0 42 9 94t28.5 104.5t51.5 102.5t77.5 89t105.5 62.5t137 23.5q57 0 105 -18t83 -52.5t54.5 -85.5t19.5 -118q0 -42 -9 -93.5t-29 -104.5t-51.5 -103t-77 -89t-105.5 -62.5t-136 -23.5zM343 33q75 0 131.5 28t97 72.5
t65.5 99.5t38 109h-533q-5 -23 -6.5 -44t-1.5 -40q0 -111 57 -168t152 -57zM482 687q-74 0 -129 -26.5t-95 -69t-65.5 -95t-39.5 -104.5h532q6 39 6 70q0 55 -15 97t-43 70.5t-66.5 43t-84.5 14.5z" />
    <glyph glyph-name="uni04E9" unicode="&#x4e9;" horiz-adv-x="573" 
d="M53 186q0 30 6.5 67.5t20.5 76t37 75.5t56.5 66t78 46.5t102.5 17.5q88 0 142.5 -51t54.5 -149q0 -30 -6.5 -67.5t-20.5 -76.5t-37 -76t-56.5 -66t-78 -46.5t-101.5 -17.5q-44 0 -80.5 13.5t-62.5 39t-40.5 63t-14.5 85.5zM254 29q51 0 89.5 19.5t66 50.5t45 69t26.5 75
h-367q-2 -16 -3.5 -30.5t-1.5 -27.5q0 -78 39.5 -117t105.5 -39zM351 491q-50 0 -88 -18.5t-65.5 -47.5t-45.5 -65.5t-28 -72.5h367q2 14 3 25.5t1 22.5q0 78 -38.5 117t-105.5 39z" />
    <glyph glyph-name="uni04EE" unicode="&#x4ee;" horiz-adv-x="558" 
d="M284 823l10 47h242l-10 -47h-242zM313 161q-29 -46 -50.5 -79.5t-42 -55t-42 -31.5t-50.5 -10q-12 0 -26 3t-24 7l10 45q20 -7 41 -7q16 0 29.5 6.5t28 22.5t31.5 42.5t40 65.5h-18l-120 550h56l109 -507l320 507h59z" />
    <glyph glyph-name="uni04EF" unicode="&#x4ef;" horiz-adv-x="497" 
d="M256 -4q-30 -53 -51.5 -89.5t-41 -59t-39.5 -32.5t-48 -10q-14 0 -30 3.5t-28 8.5l10 43q12 -5 25 -7.5t24 -2.5q16 0 29 7.5t26.5 25t30 46.5t39.5 71h-18l-97 520h54l86 -478l265 478h58zM225 653l10 47h242l-10 -47h-242z" />
    <glyph glyph-name="Wgrave" unicode="&#x1e80;" horiz-adv-x="954" 
d="M1055 720l-352 -720h-74l-50 666l-332 -666h-76l-46 720h55l40 -663l332 663h77l46 -661l323 661h57zM619 768h-47l-99 137h72z" />
    <glyph glyph-name="wgrave" unicode="&#x1e81;" horiz-adv-x="769" 
d="M817 520l-260 -520h-65l-47 465l-237 -465h-67l-49 520h52l40 -465l237 465h68l44 -463l228 463h56zM490 598h-47l-99 137h72z" />
    <glyph glyph-name="Wacute" unicode="&#x1e82;" horiz-adv-x="954" 
d="M1055 720l-352 -720h-74l-50 666l-332 -666h-76l-46 720h55l40 -663l332 663h77l46 -661l323 661h57zM704 905h78l-157 -137h-53z" />
    <glyph glyph-name="wacute" unicode="&#x1e83;" horiz-adv-x="769" 
d="M817 520l-260 -520h-65l-47 465l-237 -465h-67l-49 520h52l40 -465l237 465h68l44 -463l228 463h56zM575 735h78l-157 -137h-53z" />
    <glyph glyph-name="Wdieresis" unicode="&#x1e84;" horiz-adv-x="954" 
d="M1055 720l-352 -720h-74l-50 666l-332 -666h-76l-46 720h55l40 -663l332 663h77l46 -661l323 661h57zM475 820l16 70h63l-15 -70h-64zM680 820l16 70h63l-15 -70h-64z" />
    <glyph glyph-name="wdieresis" unicode="&#x1e85;" horiz-adv-x="769" 
d="M817 520l-260 -520h-65l-47 465l-237 -465h-67l-49 520h52l40 -465l237 465h68l44 -463l228 463h56zM345 650l16 70h63l-15 -70h-64zM550 650l16 70h63l-15 -70h-64z" />
    <glyph glyph-name="Ygrave" unicode="&#x1ef2;" horiz-adv-x="623" 
d="M178 720l159 -388l329 388h62l-370 -438l-59 -282h-57l60 283l-182 437h58zM454 768h-47l-99 137h72z" />
    <glyph glyph-name="ygrave" unicode="&#x1ef3;" horiz-adv-x="497" 
d="M256 -4q-30 -53 -51.5 -89.5t-41 -59t-39.5 -32.5t-48 -10q-14 0 -30 3.5t-28 8.5l10 43q12 -5 25 -7.5t24 -2.5q16 0 29 7.5t26.5 25t30 46.5t39.5 71h-18l-97 520h54l86 -478l265 478h58zM341 598h-47l-99 137h72z" />
    <glyph glyph-name="uni2007" unicode="&#x2007;" 
 />
    <glyph glyph-name="uni2008" unicode="&#x2008;" horiz-adv-x="285" 
 />
    <glyph glyph-name="uni200B" unicode="&#x200b;" horiz-adv-x="0" 
 />
    <glyph glyph-name="figuredash" unicode="&#x2012;" horiz-adv-x="558" 
d="M505 297h-406l11 49h406z" />
    <glyph glyph-name="endash" unicode="&#x2013;" horiz-adv-x="418" 
d="M431 297h-400l11 49h400z" />
    <glyph glyph-name="emdash" unicode="&#x2014;" horiz-adv-x="618" 
d="M631 297h-600l11 49h600z" />
    <glyph glyph-name="afii00208" unicode="&#x2015;" horiz-adv-x="418" 
d="M431 297h-400l11 49h400z" />
    <glyph glyph-name="underscoredbl" unicode="&#x2017;" horiz-adv-x="603" 
d="M508 -111h-542l11 49h542zM489 -209h-542l11 49h542z" />
    <glyph glyph-name="quoteleft" unicode="&#x2018;" horiz-adv-x="276" 
d="M182 584q14 66 49 95t84 41l-7 -37q-31 -10 -50 -33t-30 -70h27l-16 -79h-74z" />
    <glyph glyph-name="quoteright" unicode="&#x2019;" horiz-adv-x="276" 
d="M272 637q-14 -66 -49 -95.5t-84 -40.5l7 37q31 10 50 33t30 69h-27l16 80h74z" />
    <glyph glyph-name="quotesinglbase" unicode="&#x201a;" horiz-adv-x="276" 
d="M136 -3q-7 -33 -19.5 -56.5t-29.5 -39.5t-38.5 -25.5t-45.5 -15.5l7 37q31 11 50 33.5t30 69.5h-27l16 80h74z" />
    <glyph glyph-name="quotereversed" unicode="&#x201b;" horiz-adv-x="276" 
d="M195 720h74l-17 -80h-26q-2 -12 -3.5 -22.5t-1.5 -19.5q0 -26 10 -40t30 -22l-8 -36q-37 13 -58 39t-21 68q0 9 1.5 19t3.5 21z" />
    <glyph glyph-name="quotedblleft" unicode="&#x201c;" horiz-adv-x="417" 
d="M156 584q14 66 49 95.5t84 40.5l-7 -37q-31 -10 -50 -33t-30 -69h27l-16 -80h-74zM295 584q14 66 49 95.5t84 40.5l-7 -37q-31 -10 -50 -33t-30 -69h27l-16 -80h-74z" />
    <glyph glyph-name="quotedblright" unicode="&#x201d;" horiz-adv-x="415" 
d="M411 637q-14 -66 -49 -95.5t-84 -40.5l7 37q31 10 50 33t30 69h-27l16 80h74zM272 637q-14 -66 -49 -95.5t-84 -40.5l7 37q31 10 50 33t30 69h-27l16 80h74z" />
    <glyph glyph-name="quotedblbase" unicode="&#x201e;" horiz-adv-x="415" 
d="M275 -3q-7 -33 -19.5 -56.5t-29.5 -39.5t-38.5 -25.5t-45.5 -15.5l7 37q31 11 50 33.5t30 69.5h-27l16 80h74zM136 -3q-7 -33 -19.5 -56.5t-29.5 -39.5t-38.5 -25.5t-45.5 -15.5l7 37q31 11 50 33.5t30 69.5h-27l16 80h74z" />
    <glyph glyph-name="dagger" unicode="&#x2020;" 
d="M439 720l-44 -205h197l-11 -51h-197l-98 -464h-54l98 464h-196l10 51h197l44 205h54z" />
    <glyph glyph-name="daggerdbl" unicode="&#x2021;" 
d="M439 720l-40 -191h196l-10 -51h-197l-52 -241h197l-11 -51h-197l-39 -186h-54l39 186h-197l12 51h196l52 241h-197l11 51h197l40 191h54z" />
    <glyph glyph-name="bullet" unicode="&#x2022;" horiz-adv-x="296" 
d="M95 253l28 130h132l-27 -130h-133z" />
    <glyph glyph-name="ellipsis" unicode="&#x2026;" horiz-adv-x="680" 
d="M66 0l16 80h67l-16 -80h-67zM267 0l16 80h67l-16 -80h-67zM467 0l16 80h67l-16 -80h-67z" />
    <glyph glyph-name="perthousand" unicode="&#x2030;" horiz-adv-x="1201" 
d="M296 715q30 0 57.5 -9.5t48 -28t32.5 -46t12 -64.5q0 -42 -13.5 -77t-37.5 -60t-57 -39t-73 -14q-30 0 -57 9t-47.5 27.5t-32 46t-11.5 64.5q0 48 15 84t40 59.5t57.5 35.5t66.5 12zM267 418q25 0 48.5 9t41.5 28t29 46.5t11 65.5q0 28 -8 48.5t-22 33.5t-32.5 19
t-40.5 6q-31 0 -55.5 -11.5t-41 -32t-25 -48t-8.5 -59.5q0 -56 29.5 -80.5t73.5 -24.5zM236 0h-58l480 700h57zM630 323q30 0 57.5 -9.5t48 -28t32.5 -46t12 -64.5q0 -42 -13.5 -77t-37.5 -60t-57 -39t-73 -14q-30 0 -57 9t-47.5 27.5t-32 46t-11.5 64.5q0 48 15 84t40 59.5
t57.5 35.5t66.5 12zM601 26q25 0 48.5 9t41.5 28t29 46.5t11 65.5q0 28 -8 48.5t-22 33.5t-32.5 19t-40.5 6q-31 0 -55.5 -11.5t-41 -32t-25 -48t-8.5 -59.5q0 -56 29.5 -80.5t73.5 -24.5zM1012 323q31 0 58 -9.5t47.5 -28t32.5 -46t12 -64.5q0 -42 -13.5 -77t-37.5 -60
t-57 -39t-73 -14q-30 0 -57 9t-47.5 27.5t-32 46t-11.5 64.5q0 48 15.5 84t40.5 59.5t57 35.5t66 12zM984 26q25 0 48.5 9t41.5 28t29 46.5t11 65.5q0 28 -8 48.5t-22 33.5t-33 19t-41 6q-31 0 -55 -11.5t-40.5 -32t-25 -48t-8.5 -59.5q0 -56 29.5 -80.5t73.5 -24.5z" />
    <glyph glyph-name="minute" unicode="&#x2032;" horiz-adv-x="270" 
d="M209 490h-39l42 153l20 92h58l-20 -92z" />
    <glyph glyph-name="second" unicode="&#x2033;" 
d="M207 490h-38l41 153l20 92h58l-20 -92zM346 490h-38l41 153l20 92h58l-20 -92z" />
    <glyph glyph-name="guilsinglleft" unicode="&#x2039;" horiz-adv-x="289" 
d="M89 315l162 205h44l-142 -207l41 -223h-40z" />
    <glyph glyph-name="guilsinglright" unicode="&#x203a;" horiz-adv-x="289" 
d="M96 90h-44l135 223l-54 207h40l78 -205z" />
    <glyph glyph-name="exclamdbl" unicode="&#x203c;" horiz-adv-x="520" 
d="M54 0l16 80h73l-17 -80h-72zM110 226l100 494h62l-112 -494h-50zM314 0l16 80h73l-17 -80h-72zM370 226l100 494h62l-112 -494h-50z" />
    <glyph glyph-name="uni203E" unicode="&#x203e;" horiz-adv-x="603" 
d="M650 601h-542l11 49h542z" />
    <glyph glyph-name="fraction" unicode="&#x2044;" horiz-adv-x="237" 
d="M-161 -93l599 880h57l-600 -880h-56z" />
    <glyph glyph-name="uni2070" unicode="&#x2070;" horiz-adv-x="424" 
d="M214 284q-59 0 -94 35t-35 110q0 48 11.5 103.5t37 103t65.5 78.5t97 31t93 -34t36 -110q0 -48 -11.5 -104t-37 -103t-65.5 -78.5t-97 -31.5zM215 328q45 0 76 29.5t50 72.5t27 90t8 83q0 98 -82 98q-45 0 -76 -29t-49.5 -71t-26.5 -90t-8 -85q0 -98 81 -98z" />
    <glyph glyph-name="uni2074" unicode="&#x2074;" horiz-adv-x="429" 
d="M329 420h68l-8 -43h-69l-18 -83h-47l18 83h-209l10 49l269 309h53zM117 420h165l52 244z" />
    <glyph glyph-name="uni2075" unicode="&#x2075;" horiz-adv-x="422" 
d="M426 692h-220l-37 -142q20 15 44.5 24.5t59.5 9.5q58 0 92.5 -27.5t34.5 -82.5q0 -29 -10.5 -62.5t-33.5 -62t-59 -47t-86 -18.5q-33 0 -59.5 9.5t-44.5 25t-27.5 36.5t-9.5 45h53q1 -32 23 -52t66 -20q36 0 62 14t42.5 35t24 46t7.5 47q0 74 -86 74q-38 0 -64.5 -13
t-46.5 -31h-42l59 235h268z" />
    <glyph glyph-name="uni2076" unicode="&#x2076;" horiz-adv-x="415" 
d="M302 745q51 0 85 -24.5t36 -66.5h-50q-3 22 -23 35.5t-52 13.5q-24 0 -45.5 -8.5t-40.5 -29t-36 -55.5t-30 -88q21 30 54.5 45t74.5 15q55 0 86.5 -29.5t31.5 -79.5q0 -32 -11.5 -65.5t-34 -61t-56.5 -45t-79 -17.5q-34 0 -58.5 10.5t-40.5 28.5t-23.5 42.5t-7.5 51.5
q0 37 9 82q16 74 38.5 122t50 75.5t58.5 38t64 10.5zM257 539q-33 0 -57 -11.5t-39 -29.5t-22 -40.5t-7 -43.5q0 -15 4 -30.5t13.5 -28t25.5 -20.5t40 -8q33 0 57 13.5t39 33.5t22 44.5t7 46.5q0 35 -21 54.5t-62 19.5z" />
    <glyph glyph-name="uni2077" unicode="&#x2077;" horiz-adv-x="394" 
d="M85 294l286 396h-241l10 45h290l-10 -46l-275 -395h-60z" />
    <glyph glyph-name="uni2078" unicode="&#x2078;" horiz-adv-x="432" 
d="M299 745q26 0 50.5 -5t43.5 -16t30.5 -28t11.5 -41q0 -43 -29 -76.5t-86 -51.5q15 -6 30 -14t27 -20t19.5 -27.5t7.5 -36.5t-10 -46t-32 -47t-57.5 -37t-87.5 -15q-69 0 -108.5 28.5t-39.5 76.5q0 44 33.5 82t95.5 57q-25 10 -46 29.5t-21 51.5q0 23 9.5 47.5t30 44
t52.5 32t76 12.5zM299 704q-30 0 -52 -8t-36.5 -20.5t-21 -29t-6.5 -33.5t7 -29.5t19 -21t26.5 -13.5t29.5 -8q22 6 43.5 14t38 21t26.5 30t10 41q0 29 -23.5 43t-60.5 14zM253 513q-62 -18 -95.5 -47.5t-33.5 -70.5q0 -29 24 -48t71 -19q60 0 95 28.5t35 73.5
q0 19 -8.5 32.5t-22 23.5t-30.5 16t-35 11z" />
    <glyph glyph-name="uni2079" unicode="&#x2079;" horiz-adv-x="415" 
d="M290 745q66 0 98 -33t32 -96q0 -19 -2.5 -39.5t-7.5 -44.5q-16 -73 -38 -121t-49.5 -76t-59.5 -39.5t-68 -11.5q-50 0 -83.5 25t-35.5 67h54q2 -23 20 -36t50 -13q26 0 48.5 8.5t42 29t35.5 55t29 87.5q-47 -60 -124 -60q-57 0 -90.5 30t-33.5 84q0 31 11 64t34 59.5
t57 43.5t81 17zM286 701q-33 0 -56.5 -12.5t-39 -32t-22.5 -44t-7 -47.5q0 -37 21 -56t60 -19q35 0 59 13t39 32.5t22 42.5t7 44q0 33 -18 56t-65 23z" />
    <glyph glyph-name="uni207F" unicode="&#x207f;" horiz-adv-x="409" 
d="M298 726q54 0 84 -26.5t30 -74.5q0 -19 -4 -36l-51 -238h-44l51 236q3 16 3 30q0 32 -19 51t-61 19q-24 0 -46.5 -9t-41.5 -25.5t-32.5 -39t-18.5 -48.5l-46 -214h-44l77 364h36l-7 -59q28 34 61.5 52t72.5 18z" />
    <glyph glyph-name="franc" unicode="&#x20a3;" horiz-adv-x="576" 
d="M273 652l-62 -285h319l-11 -47h-318l-26 -125h211l-10 -46h-211l-32 -152h-56l33 152h-68l10 46h67l108 505h409l-10 -48h-353z" />
    <glyph glyph-name="lira" unicode="&#x20a4;" horiz-adv-x="556" 
d="M413 715q35 0 65.5 -10.5t53 -29t36 -45.5t13.5 -60h-52q-2 45 -32.5 72.5t-84.5 27.5q-66 0 -109 -38t-57 -108l-15 -71h209l-9 -45h-210l-24 -115h189l-10 -45h-189l-20 -93q-7 -31 -25 -58.5t-50 -47.5h382l-10 -49h-454l10 49q37 12 61.5 39t33.5 69l20 91h-48l10 45
h47l25 115h-48l10 45h48l15 71q20 94 77.5 142.5t141.5 48.5z" />
    <glyph glyph-name="peseta" unicode="&#x20a7;" horiz-adv-x="893" 
d="M825 310q0 35 -20 56t-65 21q-30 0 -49.5 -7.5t-31.5 -20t-17 -28.5t-5 -32q0 -24 18 -38.5t63 -25.5q61 -15 87.5 -44t26.5 -67q0 -28 -10 -53t-30.5 -44t-52 -30.5t-74.5 -11.5q-29 0 -50 5.5t-35 14.5q-23 -11 -41.5 -15.5t-37.5 -4.5q-39 0 -58 18.5t-19 50.5
q0 13 3 27l61 292h-60q-35 -41 -91.5 -67.5t-135.5 -26.5h-73l-60 -279h-55l149 700h130q94 0 146.5 -45t52.5 -126q0 -31 -10 -60.5t-25 -55.5h41l25 100h42l-21 -100h127q30 12 74 12q60 0 94 -31t34 -84h-47zM216 327q58 0 100 18.5t68 48t38.5 65.5t12.5 71q0 59 -38 91
t-107 32h-82l-70 -326h78zM687 201q-47 11 -72.5 34.5t-25.5 61.5q0 19 5.5 39t19.5 37h-79l-62 -293q-3 -14 -3 -23q0 -33 36 -33q11 0 22 1.5t25 6.5q-11 17 -14.5 37t-3.5 38h44q0 -39 19 -61.5t70 -22.5q32 0 54.5 8.5t36.5 22t20 31t6 34.5q0 29 -23 50t-75 32z" />
    <glyph glyph-name="Euro" unicode="&#x20ac;" 
d="M114 300q6 48 20 101h-69l21 46h62q18 52 44.5 100.5t63.5 85.5t84.5 59.5t106.5 22.5q42 0 79.5 -11.5t65 -33.5t43.5 -55.5t16 -76.5h-56q-1 67 -42.5 98t-102.5 31q-49 0 -88 -18t-69 -48.5t-51.5 -70.5t-36.5 -83h296l-21 -46h-289q-8 -26 -12.5 -52t-7.5 -49h259
q-5 -12 -11 -23t-11 -23h-240q-1 -11 -1.5 -20t-0.5 -18q0 -90 34 -136.5t112 -46.5q28 0 57.5 6t56.5 21t50 39.5t39 62.5h58q-33 -86 -101 -131.5t-161 -45.5q-104 0 -153 63t-49 179v12q0 6 1 15h-77l22 46h59z" />
    <glyph glyph-name="afii61248" unicode="&#x2105;" horiz-adv-x="932" 
d="M157 -93l599 880h57l-600 -880h-56zM414 461q-20 -52 -66.5 -86.5t-113.5 -34.5q-64 0 -104 35t-40 103q0 38 12.5 81.5t38.5 80.5t66 61.5t96 24.5q65 0 102.5 -30.5t35.5 -83.5h-47q1 38 -23 57t-70 19q-44 0 -75.5 -21t-51 -52.5t-28.5 -68t-9 -67.5q0 -52 27.5 -76.5
t72.5 -24.5q48 0 79 22.5t47 60.5h51zM774 375q67 0 107.5 -35t40.5 -104q0 -39 -12 -82.5t-37.5 -80t-67 -60.5t-99.5 -24q-69 0 -109 36.5t-40 103.5q0 40 12 83.5t38 79.5t67 59.5t100 23.5zM773 338q-47 0 -79 -20t-52 -50.5t-29 -66.5t-9 -69q0 -52 26.5 -79t75.5 -27
q46 0 78.5 20.5t52.5 51t29 67t9 69.5q0 51 -26 77.5t-76 26.5z" />
    <glyph glyph-name="afii61289" unicode="&#x2113;" horiz-adv-x="464" 
d="M509 635q0 -40 -18.5 -88.5t-59 -103t-104.5 -113t-156 -118.5q0 -52 6.5 -86.5t18.5 -55.5t30 -29.5t42 -8.5q20 0 40.5 5t37.5 16l9 -45q-22 -11 -43.5 -17t-53.5 -6q-60 0 -97 47.5t-41 148.5q-18 -11 -36.5 -21.5t-38.5 -21.5l12 53q17 10 32.5 19t31.5 19
q2 47 11 103t25 112.5t39 109t53 92.5t68 64.5t84 24.5q53 0 80.5 -27.5t27.5 -72.5zM173 264q143 99 214 196t71 173q0 31 -16 45.5t-43 14.5q-34 0 -62.5 -21t-52.5 -55.5t-43 -79.5t-33 -92.5t-23 -94.5t-12 -86z" />
    <glyph glyph-name="afii61352" unicode="&#x2116;" horiz-adv-x="1131" 
d="M743 720l-153 -720h-62l-296 648l-137 -648h-53l153 720h64l295 -644l137 644h52zM1028 694q-47 0 -78.5 -28t-51 -68t-27.5 -82.5t-8 -72.5q0 -57 25.5 -81.5t63.5 -24.5q48 0 79.5 28t50.5 67.5t27 82.5t8 73q0 57 -25 81.5t-64 24.5zM949 297q-29 0 -54 8.5t-43 26
t-28.5 44.5t-10.5 65q0 23 4 54t14 63.5t26 64t40.5 56.5t58 40t77.5 15q58 0 95.5 -34.5t37.5 -109.5q0 -24 -4 -54.5t-13.5 -63t-25 -64t-40 -56.5t-57.5 -40t-77 -15zM1035 0h-320l10 49h320z" />
    <glyph glyph-name="trademark" unicode="&#x2122;" horiz-adv-x="826" 
d="M638 324l-127 348v-348h-42v356h-145v-356h-44v356h-144v40h402l123 -341l119 341h68v-396h-44v348l-122 -348h-44z" />
    <glyph glyph-name="Omega" unicode="&#x2126;" horiz-adv-x="753" 
d="M407 51q52 5 93.5 28t73 57t53.5 76.5t36 86.5t20.5 87t6.5 77q0 110 -57 167t-151 57q-62 0 -112 -20.5t-88.5 -54t-67 -78t-46.5 -93t-26.5 -97t-8.5 -91.5q0 -51 12 -85.5t33 -57.5t48.5 -36.5t59.5 -22.5l-10 -51h-227l10 51h142q-59 23 -92 79.5t-33 134.5
q0 46 10 99t31.5 105.5t54.5 100.5t78.5 84.5t104 58.5t130.5 22q54 0 102 -17t83.5 -50.5t56.5 -84.5t21 -118q0 -61 -14 -124t-42.5 -119.5t-72 -101.5t-101.5 -69h116l-11 -51h-227z" />
    <glyph glyph-name="estimated" unicode="&#x212e;" horiz-adv-x="945" 
d="M251 339v-218q16 -24 44.5 -42t63.5 -30t73.5 -18.5t73.5 -6.5t72.5 6t72 18.5t64.5 31t51 42.5h58q-55 -64 -134.5 -100.5t-184.5 -36.5q-86 0 -159.5 27t-127.5 75t-84.5 114.5t-30.5 145.5t31.5 146t86.5 116.5t128 77.5t156 28q80 0 153 -27.5t128.5 -77t88.5 -118.5
t33 -153h-657zM760 574q-42 46 -104 74t-150 28t-152.5 -27t-102.5 -74v-196h509v195z" />
    <glyph glyph-name="onethird" unicode="&#x2153;" horiz-adv-x="879" 
d="M90 -93l599 880h57l-600 -880h-56zM205 294h-53l83 389l-118 -55l11 50l121 57h50zM738 445q27 0 51 -5.5t41.5 -17t28 -29t10.5 -41.5q0 -19 -6 -38.5t-19.5 -36.5t-35 -30t-52.5 -19q35 -5 57.5 -27t22.5 -59q0 -26 -9.5 -53.5t-31.5 -50.5t-56.5 -38t-83.5 -15
q-69 0 -107.5 31t-36.5 84h52q2 -35 24 -53.5t69 -18.5q35 0 59.5 10.5t39.5 26.5t21.5 36t6.5 38q0 34 -23 50t-59 16h-44l9 42h44q26 0 46 9t33 23t19.5 31.5t6.5 34.5q0 29 -21.5 42.5t-58.5 13.5q-45 0 -73.5 -18t-42.5 -50h-51q19 51 61.5 81.5t108.5 30.5z" />
    <glyph glyph-name="twothirds" unicode="&#x2154;" horiz-adv-x="1015" 
d="M226 -93l599 880h57l-600 -880h-56zM153 624q19 57 66 89t111 32q57 0 92 -26.5t35 -74.5q0 -23 -6.5 -43.5t-23 -42.5t-44.5 -47.5t-71 -58.5l-145 -111h225l-10 -47h-292l9 47l190 149q32 26 54 46t35.5 37t19.5 32.5t6 32.5q0 29 -19.5 46t-58.5 17q-45 0 -76 -20.5
t-44 -56.5h-53zM874 445q27 0 51 -5.5t41.5 -17t28 -29t10.5 -41.5q0 -19 -6 -38.5t-19.5 -36.5t-35 -30t-52.5 -19q35 -5 57.5 -27t22.5 -59q0 -26 -9.5 -53.5t-31.5 -50.5t-56.5 -38t-83.5 -15q-69 0 -107.5 31t-36.5 84h52q2 -35 24 -53.5t69 -18.5q35 0 59.5 10.5
t39.5 26.5t21.5 36t6.5 38q0 34 -23 50t-59 16h-44l9 42h44q26 0 46 9t33 23t19.5 31.5t6.5 34.5q0 29 -21.5 42.5t-58.5 13.5q-45 0 -73.5 -18t-42.5 -50h-51q19 51 61.5 81.5t108.5 30.5z" />
    <glyph glyph-name="oneeighth" unicode="&#x215b;" horiz-adv-x="886" 
d="M90 -93l599 880h57l-600 -880h-56zM205 294h-53l83 389l-118 -55l11 50l121 57h50zM740 446q26 0 50.5 -5t43.5 -16t30.5 -28t11.5 -41q0 -43 -29 -76.5t-86 -51.5q15 -6 30 -14t27 -20t19.5 -27.5t7.5 -36.5t-10 -46t-32 -47t-57.5 -37t-87.5 -15q-69 0 -108.5 28.5
t-39.5 76.5q0 44 33.5 82t95.5 57q-25 10 -46 29.5t-21 51.5q0 23 9.5 47.5t30 44t52.5 32t76 12.5zM740 405q-30 0 -52 -8t-36.5 -20.5t-21 -29t-6.5 -33.5t7 -29.5t19 -21t26.5 -13.5t29.5 -8q22 6 43.5 14t38 21t26.5 30t10 41q0 29 -23.5 43t-60.5 14zM694 214
q-62 -18 -95.5 -47.5t-33.5 -70.5q0 -29 24 -48t71 -19q60 0 95 28.5t35 73.5q0 19 -8.5 32.5t-22 23.5t-30.5 16t-35 11z" />
    <glyph glyph-name="threeeighths" unicode="&#x215c;" horiz-adv-x="1031" 
d="M235 -93l599 880h57l-600 -880h-56zM318 745q27 0 51 -5.5t41.5 -17t28 -29t10.5 -41.5q0 -19 -6 -38.5t-19.5 -36.5t-35 -30t-52.5 -19q35 -5 57.5 -27t22.5 -59q0 -26 -9.5 -53.5t-31.5 -50.5t-56.5 -38t-83.5 -15q-69 0 -107.5 31t-36.5 84h52q2 -35 24 -53.5
t69 -18.5q35 0 59.5 10.5t39.5 26.5t21.5 36t6.5 38q0 34 -23 50t-59 16h-44l9 42h44q26 0 46 9t33 23t19.5 31.5t6.5 34.5q0 29 -21.5 42.5t-58.5 13.5q-45 0 -73.5 -18t-42.5 -50h-51q19 51 61.5 81.5t108.5 30.5zM885 446q26 0 50.5 -5t43.5 -16t30.5 -28t11.5 -41
q0 -43 -29 -76.5t-86 -51.5q15 -6 30 -14t27 -20t19.5 -27.5t7.5 -36.5t-10 -46t-32 -47t-57.5 -37t-87.5 -15q-69 0 -108.5 28.5t-39.5 76.5q0 44 33.5 82t95.5 57q-25 10 -46 29.5t-21 51.5q0 23 9.5 47.5t30 44t52.5 32t76 12.5zM885 405q-30 0 -52 -8t-36.5 -20.5
t-21 -29t-6.5 -33.5t7 -29.5t19 -21t26.5 -13.5t29.5 -8q22 6 43.5 14t38 21t26.5 30t10 41q0 29 -23.5 43t-60.5 14zM839 214q-62 -18 -95.5 -47.5t-33.5 -70.5q0 -29 24 -48t71 -19q60 0 95 28.5t35 73.5q0 19 -8.5 32.5t-22 23.5t-30.5 16t-35 11z" />
    <glyph glyph-name="fiveeighths" unicode="&#x215d;" horiz-adv-x="1020" 
d="M224 -93l599 880h57l-600 -880h-56zM874 446q26 0 50.5 -5t43.5 -16t30.5 -28t11.5 -41q0 -43 -29 -76.5t-86 -51.5q15 -6 30 -14t27 -20t19.5 -27.5t7.5 -36.5t-10 -46t-32 -47t-57.5 -37t-87.5 -15q-69 0 -108.5 28.5t-39.5 76.5q0 44 33.5 82t95.5 57q-25 10 -46 29.5
t-21 51.5q0 23 9.5 47.5t30 44t52.5 32t76 12.5zM874 405q-30 0 -52 -8t-36.5 -20.5t-21 -29t-6.5 -33.5t7 -29.5t19 -21t26.5 -13.5t29.5 -8q22 6 43.5 14t38 21t26.5 30t10 41q0 29 -23.5 43t-60.5 14zM828 214q-62 -18 -95.5 -47.5t-33.5 -70.5q0 -29 24 -48t71 -19
q60 0 95 28.5t35 73.5q0 19 -8.5 32.5t-22 23.5t-30.5 16t-35 11zM446 692h-220l-37 -142q20 15 44.5 24.5t59.5 9.5q58 0 92.5 -27.5t34.5 -82.5q0 -29 -10.5 -62.5t-33.5 -62t-59 -47t-86 -18.5q-33 0 -59.5 9.5t-44.5 25t-27.5 36.5t-9.5 45h53q1 -32 23 -52t66 -20
q36 0 62 14t42.5 35t24 46t7.5 47q0 74 -86 74q-38 0 -64.5 -13t-46.5 -31h-42l59 235h268z" />
    <glyph glyph-name="seveneighths" unicode="&#x215e;" horiz-adv-x="905" 
d="M109 -93l599 880h57l-600 -880h-56zM759 446q26 0 50.5 -5t43.5 -16t30.5 -28t11.5 -41q0 -43 -29 -76.5t-86 -51.5q15 -6 30 -14t27 -20t19.5 -27.5t7.5 -36.5t-10 -46t-32 -47t-57.5 -37t-87.5 -15q-69 0 -108.5 28.5t-39.5 76.5q0 44 33.5 82t95.5 57q-25 10 -46 29.5
t-21 51.5q0 23 9.5 47.5t30 44t52.5 32t76 12.5zM759 405q-30 0 -52 -8t-36.5 -20.5t-21 -29t-6.5 -33.5t7 -29.5t19 -21t26.5 -13.5t29.5 -8q22 6 43.5 14t38 21t26.5 30t10 41q0 29 -23.5 43t-60.5 14zM713 214q-62 -18 -95.5 -47.5t-33.5 -70.5q0 -29 24 -48t71 -19
q60 0 95 28.5t35 73.5q0 19 -8.5 32.5t-22 23.5t-30.5 16t-35 11zM90 294l286 396h-241l10 45h290l-10 -46l-275 -395h-60z" />
    <glyph glyph-name="arrowleft" unicode="&#x2190;" 
d="M103 391h477v-49h-477l178 -228h-65l-196 253l196 253h65z" />
    <glyph glyph-name="arrowup" unicode="&#x2191;" 
d="M326 565v-478h-52v478l-227 -175v61l253 196l253 -196v-61z" />
    <glyph glyph-name="arrowright" unicode="&#x2192;" 
d="M496 342h-476v49h476l-177 229h65l196 -253l-196 -253h-65z" />
    <glyph glyph-name="arrowdown" unicode="&#x2193;" 
d="M274 167v480h52v-480l227 177v-61l-253 -196l-253 196v61z" />
    <glyph glyph-name="arrowboth" unicode="&#x2194;" horiz-adv-x="900" 
d="M796 342h-693l178 -228h-65l-196 253l196 253h65l-178 -229h693l-177 229h65l196 -253l-196 -253h-65z" />
    <glyph glyph-name="arrowupdn" unicode="&#x2195;" 
d="M274 17v698l-227 -175v61l253 196l253 -196v-61l-227 175v-698l227 177v-61l-253 -196l-253 196v61z" />
    <glyph glyph-name="uni2196" unicode="&#x2196;" 
d="M175 528l341 -340l-37 -37l-337 337l-36 -284l-44 43l40 318l318 40l42 -41z" />
    <glyph glyph-name="uni2197" unicode="&#x2197;" 
d="M435 488l-336 -337l-37 37l341 340l-288 36l43 41l318 -40l40 -318l-44 -43z" />
    <glyph glyph-name="uni2198" unicode="&#x2198;" 
d="M403 228l-341 340l37 37l336 -338l37 284l44 -42l-40 -318l-318 -40l-43 40z" />
    <glyph glyph-name="uni2199" unicode="&#x2199;" 
d="M142 267l337 338l37 -37l-341 -340l287 -37l-42 -40l-318 40l-40 318l44 42z" />
    <glyph glyph-name="arrowupdnbse" unicode="&#x21a8;" 
d="M581 -195h-542v49h542v-49zM274 17v698l-227 -175v61l253 196l253 -196v-61l-227 175v-698l227 177v-61l-253 -196l-253 196v61z" />
    <glyph glyph-name="partialdiff" unicode="&#x2202;" horiz-adv-x="549" 
d="M261 733q53 -11 103 -32t89 -58t62.5 -90.5t23.5 -128.5q0 -31 -5 -75.5t-18 -93t-35 -97t-56 -87t-82 -62.5t-112 -24q-85 0 -133 51.5t-48 137.5q0 57 18 112t52 97.5t82.5 69t110.5 26.5q38 0 67.5 -11t51 -29t34 -41.5t15.5 -48.5q4 20 5 39t1 36q0 66 -19.5 112.5
t-52.5 77.5t-76.5 49t-91.5 27zM318 433q-54 0 -94 -24t-66.5 -62t-40 -84t-13.5 -91q0 -66 34.5 -103t94.5 -37q57 0 99 26t70 64.5t42 83t14 81.5q0 31 -9 57.5t-26.5 46t-43.5 31t-61 11.5z" />
    <glyph glyph-name="Delta" unicode="&#x2206;" horiz-adv-x="661" 
d="M-33 0l442 720h70l135 -720h-647zM59 48h487l-111 619z" />
    <glyph glyph-name="product" unicode="&#x220f;" 
d="M55 0l138 652h-61l10 48h531l-10 -48h-62l-138 -652h-56l138 652h-296l-138 -652h-56z" />
    <glyph glyph-name="summation" unicode="&#x2211;" horiz-adv-x="629" 
d="M332 273l-162 399l10 48h513l-11 -48h-452l165 -406l-326 -391h444l-11 -48h-512l10 48z" />
    <glyph glyph-name="minus" unicode="&#x2212;" 
d="M525 297h-406l11 49h406z" />
    <glyph glyph-name="uni2215" unicode="&#x2215;" horiz-adv-x="270" 
d="M-133 -90h-59l657 880h60z" />
    </font>
</defs>
</svg>
