<?xml version="1.0" standalone="no"?>
<!DOCTYPE svg PUBLIC "-//W3C//DTD SVG 1.1//EN" "http://www.w3.org/Graphics/SVG/1.1/DTD/svg11.dtd" >
<svg>
<metadata>
Created by FontForge 20120731 at Mon Mar 31 14:10:17 2014
 By tam,,,
(URW)++,Copyright 2013 by (URW)++ Design &#38; Development
</metadata>
<defs>
<font id="CiscoSansME-Regular" horiz-adv-x="1229" >
  <font-face 
    font-family="CiscoSansME"
    font-weight="400"
    font-stretch="normal"
    units-per-em="2048"
    panose-1="0 0 0 0 0 0 0 0 0 0"
    ascent="1536"
    descent="-512"
    x-height="1065"
    cap-height="1475"
    bbox="-295 -628 2526 2028"
    underline-thickness="297"
    underline-position="813"
    unicode-range="U+0020-FEFF"
  />
<missing-glyph horiz-adv-x="614" 
d="M61 0v1475h492v-1475h-492zM492 61v1353h-370v-1353h370z" />
    <glyph glyph-name="uniE800" unicode="&#x651;&#x64b;" horiz-adv-x="0" 
d="M258 1271h112q-14 -70 -14 -115q0 -54 30 -54q24 0 31.5 22.5t7.5 90.5v37h88v-37q0 -68 7.5 -90.5t31.5 -22.5q30 0 30 52q0 46 -14 117h112q20 -79 20 -135q0 -161 -127 -161q-34 0 -62.5 15t-41.5 40q-13 -25 -41.5 -40t-62.5 -15q-127 0 -127 162q0 56 20 134z
M305 1327l-35 109l366 134l35 -109zM298 1526l-35 109l362 131l36 -108z" />
    <glyph glyph-name="uniFC5E" unicode="&#x651;&#x64c;" horiz-adv-x="0" arabic-form="isolated" 
d="M258 1271h112q-14 -72 -14 -114q0 -55 30 -55q23 0 31 23t8 90v37h88v-37q0 -68 8 -90.5t31 -22.5q30 0 30 51q0 45 -14 118h112q20 -74 20 -134q0 -162 -126 -162q-35 0 -63.5 15t-41.5 40q-13 -25 -41.5 -40t-63.5 -15q-126 0 -126 162q0 50 20 134zM187 1516l25 112
q79 -18 109 -47q30 -30 30 -92q0 -10 -2 -26q14 -2 19 -2q39 0 76 10q-57 42 -57 116t42.5 118.5t113.5 44.5q78 0 117 -53q34 -46 34 -112q0 -108 -80 -173q-45 -36 -118.5 -58t-150.5 -22q-34 0 -75 6l-25 49q8 46 8 70q0 49 -66 59zM560 1516q22 35 22 59
q0 25 -13.5 42.5t-33.5 17.5q-38 0 -38 -46q0 -63 63 -73z" />
    <glyph glyph-name="uniFC5F" unicode="&#x651;&#x64d;" horiz-adv-x="0" arabic-form="isolated" 
d="M242 1692h112q-14 -71 -14 -115q0 -54 30 -54q24 0 31.5 22t7.5 91v37h88v-37q0 -69 7.5 -91t31.5 -22q30 0 30 52q0 46 -14 117h112q20 -79 20 -135q0 -161 -127 -161q-34 0 -62.5 15t-41.5 40q-13 -25 -41.5 -40t-62.5 -15q-127 0 -127 162q0 56 20 134zM305 902
l-35 109l366 135l35 -109zM298 1101l-36 109l363 132l35 -109z" />
    <glyph glyph-name="uniFC60" unicode="&#x651;&#x64e;" horiz-adv-x="0" arabic-form="isolated" 
d="M257 1271h112q-14 -70 -14 -115q0 -54 30 -54q24 0 31.5 22.5t7.5 90.5v37h88v-37q0 -68 7.5 -90.5t31.5 -22.5q30 0 30 52q0 46 -14 117h112q20 -79 20 -135q0 -161 -127 -161q-34 0 -62.5 15t-41.5 40q-13 -25 -41.5 -40t-62.5 -15q-127 0 -127 162q0 56 20 134z
M294 1324l-39 118l382 137l39 -118z" />
    <glyph glyph-name="uniFC61" unicode="&#x651;&#x64f;" horiz-adv-x="0" arabic-form="isolated" 
d="M258 1271h112q-14 -70 -14 -115q0 -54 30 -54q24 0 31.5 22.5t7.5 90.5v37h88v-37q0 -68 7.5 -90.5t31.5 -22.5q30 0 30 52q0 46 -14 117h112q20 -79 20 -135q0 -161 -127 -161q-34 0 -62.5 15t-41.5 40q-13 -25 -41.5 -40t-62.5 -15q-127 0 -127 162q0 56 20 134z
M404 1471q-56 36 -56 112q0 72 42.5 115.5t113.5 43.5q78 0 117 -52q34 -46 34 -110q0 -106 -84.5 -170.5t-223.5 -64.5q-44 0 -94 10l3 118q46 -8 79 -8q19 0 69 6zM521 1512q22 26 22 57q0 25 -13.5 42t-33.5 17q-38 0 -38 -45q0 -61 63 -71z" />
    <glyph glyph-name="uniFC62" unicode="&#x651;&#x650;" horiz-adv-x="0" arabic-form="isolated" 
d="M248 1596h112q-14 -69 -14 -114q0 -54 30 -54q24 0 31.5 22t7.5 90v37h88v-37q0 -68 7.5 -90t31.5 -22q30 0 30 51q0 48 -14 117h112q20 -77 20 -135q0 -160 -127 -160q-34 0 -62.5 15t-41.5 39q-13 -24 -41.5 -39t-62.5 -15q-127 0 -127 162q0 57 20 133zM294 985
l-38 118l382 137l38 -118z" />
    <glyph glyph-name="uniFEF5" unicode="&#xfedf;&#xfe82;" horiz-adv-x="1183" arabic-form="isolated" 
d="M192 0v406q0 110 29.5 182t102.5 138q51 47 136 106q39 27 72 52q-204 171 -413 264l96 178q263 -146 464 -337q58 100 78.5 191.5t20.5 248.5v76h182v-73q0 -174 -37.5 -305t-119.5 -240q102 -106 144.5 -204.5t42.5 -229.5v-227q0 -111 -36 -156q-57 -70 -175 -70h-587
zM368 209h349q52 0 74.5 19t22.5 63v168q0 95 -34.5 169t-114.5 151q-18 -13 -84 -62q-96 -71 -126.5 -97.5t-52.5 -58.5q-34 -50 -34 -144v-208zM146 1494l129 230q63 -67 101 -90t88 -23q44 0 78.5 21.5t76.5 75.5l73 -50q-45 -107 -101 -155t-136 -48q-98 0 -168 70
l-52 -88z" />
    <glyph glyph-name="uniFEF6" unicode="&#xfee0;&#xfe82;" horiz-adv-x="1272" arabic-form="final" 
d="M642 211l-518 927l161 109l523 -988q29 28 39.5 67t10.5 123v1056h176v-1130q0 -65 9.5 -94.5t35.5 -45.5q40 -26 135 -26h64v-209h-71q-214 0 -274 85q-90 -89 -345 -85h-178q-196 0 -264 41q-94 57 -94 212q0 65 16 152l167 -26q-9 -43 -9 -77q0 -61 54 -79
q42 -14 123 -14h177q21 0 62 2zM110 1494l129 230q61 -67 100 -90t89 -23q44 0 78.5 21.5t76.5 75.5l73 -50q-45 -107 -101 -155t-136 -48q-98 0 -168 70l-52 -88z" />
    <glyph glyph-name="uniFEF7" unicode="&#xfedf;&#xfe84;" horiz-adv-x="1183" arabic-form="isolated" 
d="M192 0v406q0 110 29.5 182t102.5 138q51 47 136 106q39 27 72 52q-204 171 -413 264l96 178q263 -146 464 -337q58 100 78.5 191.5t20.5 248.5v76h182v-73q0 -174 -37.5 -305t-119.5 -240q102 -106 144.5 -204.5t42.5 -229.5v-227q0 -111 -36 -156q-57 -70 -175 -70h-587
zM368 209h349q52 0 74.5 19t22.5 63v168q0 95 -34.5 169t-114.5 151q-18 -13 -84 -62q-96 -71 -126.5 -97.5t-52.5 -58.5q-34 -50 -34 -144v-208zM219 1396l-8 120l125 21q-8 6 -11 10q-33 30 -42.5 47.5t-9.5 49.5q0 137 167 137q77 0 169 -19l-10 -115q-63 13 -103 13
q-80 0 -80 -50q0 -44 63 -53q22 -4 135 -4l6 -116q-150 -2 -185 -5.5t-216 -35.5z" />
    <glyph glyph-name="uniFEF8" unicode="&#xfee0;&#xfe84;" horiz-adv-x="1272" arabic-form="final" 
d="M657 211l-518 927l161 109l523 -988q29 28 39.5 67t10.5 123v1056h176v-1130q0 -65 9.5 -94.5t35.5 -45.5q40 -26 135 -26h64v-209h-71q-214 0 -274 85q-90 -89 -345 -85h-178q-196 0 -264 41q-94 57 -94 212q0 65 16 152l167 -26q-9 -43 -9 -77q0 -61 54 -79
q42 -14 123 -14h177q21 0 62 2zM229 1396l-8 120l125 21q-7 6 -11 10q-32 29 -41.5 47t-9.5 50q0 137 167 137q77 0 168 -19l-9 -115q-63 13 -103 13q-80 0 -80 -50q0 -44 63 -53q21 -4 134 -4l6 -116q-150 -2 -185 -5.5t-216 -35.5z" />
    <glyph glyph-name="uniFEF9" unicode="&#xfedf;&#xfe88;" horiz-adv-x="1183" arabic-form="isolated" 
d="M192 0v406q0 143 55 232q27 45 59 74t140 109q96 72 122 90q-140 121 -224.5 182.5t-218.5 139.5l100 185q268 -175 475 -391q80 141 78 402v76h183v-73q0 -326 -140 -517q74 -93 106 -157q63 -128 63 -305v-227q0 -112 -35 -156q-56 -70 -176 -70h-587zM368 209h349
q52 0 74.5 19t22.5 63v168q0 94 -26 163t-101 175q-28 -23 -109 -81q-135 -96 -172.5 -150t-37.5 -149v-208zM268 -503l-7 120l124 21q-7 7 -11 10q-32 30 -41.5 48t-9.5 50q0 136 167 136q77 0 168 -19l-9 -115q-63 13 -103 13q-80 0 -80 -50q0 -43 63 -53q19 -3 135 -4
l6 -115q-154 -3 -187.5 -6.5t-214.5 -35.5z" />
    <glyph glyph-name="uniFEFA" unicode="&#xfee0;&#xfe88;" horiz-adv-x="1272" arabic-form="final" 
d="M664 211l-537 1089l161 96l536 -1136q29 28 39 67t10 122v1056h176v-1130q0 -65 9.5 -94.5t35.5 -45.5q40 -26 135 -26h64v-209h-71q-214 0 -274 85q-90 -89 -345 -85h-178q-196 0 -264 41q-94 57 -94 212q0 65 16 152l167 -26q-9 -43 -9 -77q0 -61 54 -79
q42 -14 123 -14h177q34 0 69 2zM347 -503l-8 120l125 21q-8 7 -11 10q-33 30 -42.5 47.5t-9.5 50.5q0 136 167 136q78 0 169 -19l-9 -115q-64 13 -104 13q-80 0 -80 -50q0 -43 63 -53q19 -3 135 -4l6 -115q-153 -3 -187 -6.5t-214 -35.5z" />
    <glyph glyph-name="uniFEFB" unicode="&#xfedf;&#xfe8e;" horiz-adv-x="1183" arabic-form="isolated" 
d="M192 0v406q0 143 55 232q27 45 59 74t140 109q96 72 122 90q-140 121 -224.5 182.5t-218.5 139.5l100 185q268 -175 475 -391q80 141 78 402v76h183v-73q0 -326 -140 -517q74 -93 106 -157q63 -128 63 -305v-227q0 -112 -35 -156q-56 -70 -176 -70h-587zM368 209h349
q52 0 74.5 19t22.5 63v168q0 94 -26 163t-101 175q-28 -23 -109 -81q-135 -96 -172.5 -150t-37.5 -149v-208z" />
    <glyph glyph-name="uniFEFC" unicode="&#xfee0;&#xfe8e;" horiz-adv-x="1272" arabic-form="final" 
d="M664 211l-537 1089l161 96l536 -1136q29 28 39 67t10 122v1056h176v-1130q0 -65 9.5 -94.5t35.5 -45.5q40 -26 135 -26h64v-209h-71q-214 0 -274 85q-90 -89 -345 -85h-178q-196 0 -264 41q-94 57 -94 212q0 65 16 152l167 -26q-9 -43 -9 -77q0 -61 54 -79
q42 -14 123 -14h177q34 0 69 2z" />
    <glyph glyph-name="arabic06" unicode="&#xfe8e;&#x652;" horiz-adv-x="613" 
d="M634 0h-101q-174 0 -246 74q-73 76 -73 271v963h176v-918q0 -70 7.5 -101t29.5 -49q38 -31 132 -31h75v-209zM305 1788q79 0 126.5 -51.5t47.5 -138.5q0 -86 -48 -137.5t-128 -51.5q-81 0 -129 51t-48 138q0 88 48 139t131 51zM301 1682q-82 0 -82 -84q0 -83 84 -83
q83 0 83 83q0 84 -85 84z" />
    <glyph glyph-name="arabic03" unicode="&#xfedf;&#xfe8e;&#x64b;" horiz-adv-x="1183" 
d="M192 0v406q0 110 29.5 182t102.5 138q51 47 136 106q39 27 72 52q-204 171 -413 264l96 178q263 -146 464 -337q58 100 78.5 191.5t20.5 248.5v76h182v-73q0 -174 -37.5 -305t-119.5 -240q102 -106 144.5 -204.5t42.5 -229.5v-227q0 -111 -36 -156q-57 -70 -175 -70h-587
zM368 209h349q52 0 74.5 19t22.5 63v168q0 95 -34.5 169t-114.5 151q-18 -13 -84 -62q-96 -71 -126.5 -97.5t-52.5 -58.5q-34 -50 -34 -144v-208zM296 1381l-38 92l366 135l38 -93zM276 1562l-38 93l363 132l38 -93z" />
    <glyph glyph-name="arabic07" unicode="&#xfedf;&#xfe8e;&#x652;" horiz-adv-x="1183" 
d="M192 0v406q0 110 29.5 182t102.5 138q51 47 136 106q39 27 72 52q-204 171 -413 264l96 178q266 -144 464 -329q58 99 78.5 188.5t20.5 243.5v76h182v-73q0 -174 -37.5 -305t-119.5 -240q102 -106 144.5 -204.5t42.5 -229.5v-227q0 -111 -36 -156q-57 -70 -175 -70h-587z
M368 209h349q52 0 74.5 19t22.5 63v168q0 95 -34.5 169t-114.5 151q-18 -13 -84 -62q-96 -71 -126.5 -97.5t-52.5 -58.5q-34 -50 -34 -144v-208zM436 1773q79 0 126.5 -51.5t47.5 -138.5q0 -86 -48 -137.5t-129 -51.5q-80 0 -128 51t-48 138q0 88 48 139t131 51zM432 1667
q-82 0 -82 -83q0 -84 83 -84q84 0 84 83q0 84 -85 84z" />
    <glyph glyph-name="arabic12" unicode="&#xfee2;&#x64d;" horiz-adv-x="1556" 
d="M1295 79q-92 -81 -298 -81q-218 0 -302 64q-75 56 -75 159q0 73 40 143q36 62 36 89q0 82 -135 82q-114 0 -182 -78q-73 -84 -73 -227q0 -169 118 -290q63 -64 179 -132l-60 -216q-178 92 -284 235q-130 174 -130 407q0 237 128 379q113 124 311 124q154 0 240 -70
q67 -55 67 -144q0 -56 -44 -127q-42 -66 -42 -101q0 -47 48.5 -68t156.5 -21q129 0 165 26q41 30 41 97q0 97 -86.5 187.5t-313.5 231.5l59 206q475 -305 511 -564q24 -107 59 -144t111 -37h36v-209h-58q-85 0 -134.5 17.5t-88.5 61.5zM882 -593l-35 109l366 134l35 -109z
M875 -394l-35 109l362 132l36 -109z" />
    <glyph glyph-name="arabic10" unicode="&#xfee2;&#x650;" horiz-adv-x="1556" 
d="M1295 79q-92 -81 -298 -81q-218 0 -302 64q-75 56 -75 159q0 73 40 143q36 62 36 89q0 82 -135 82q-114 0 -182 -78q-73 -84 -73 -227q0 -169 118 -290q63 -64 179 -132l-60 -216q-178 92 -284 235q-130 174 -130 407q0 237 128 379q113 124 311 124q154 0 240 -70
q67 -55 67 -144q0 -56 -44 -127q-42 -66 -42 -101q0 -47 48.5 -68t156.5 -21q129 0 165 26q41 30 41 97q0 97 -86.5 187.5t-313.5 231.5l59 206q475 -305 511 -564q24 -107 59 -144t111 -37h36v-209h-58q-85 0 -134.5 17.5t-88.5 61.5zM893 -446l-38 119l382 137l38 -119z
" />
    <glyph glyph-name="arabic08" unicode="&#xfee0;&#xfe8e;&#x652;" horiz-adv-x="1272" 
d="M653 211l-518 927l161 109l523 -988q29 28 39.5 67t10.5 123v1056h176v-1130q0 -65 9.5 -94.5t35.5 -45.5q40 -26 135 -26h64v-209h-71q-214 0 -274 85q-90 -89 -345 -85h-178q-196 0 -264 41q-94 57 -94 212q0 65 16 152l167 -26q-9 -43 -9 -77q0 -61 54 -79
q42 -14 123 -14h177q21 0 62 2zM393 1748q79 0 126.5 -51.5t47.5 -137.5q0 -87 -48 -138.5t-128 -51.5q-81 0 -129 51t-48 138q0 88 48 139t131 51zM389 1642q-82 0 -82 -84q0 -83 84 -83q83 0 83 83q0 84 -85 84z" />
    <glyph glyph-name="arabic04" unicode="&#xfee0;&#xfe8e;&#x64b;" horiz-adv-x="1272" 
d="M625 211l-518 927l161 109l523 -988q29 28 39.5 67t10.5 123v1056h176v-1130q0 -65 9.5 -94.5t35.5 -45.5q40 -26 135 -26h64v-209h-71q-214 0 -274 85q-90 -89 -345 -85h-178q-196 0 -264 41q-94 57 -94 212q0 65 16 152l167 -26q-9 -43 -9 -77q0 -61 54 -79
q42 -14 123 -14h177q21 0 62 2zM176 1535l-37 93l363 131l37 -92zM196 1353l-37 93l366 135l37 -93z" />
    <glyph glyph-name="arabic11" unicode="&#x645;&#x64d;" horiz-adv-x="1545" 
d="M882 -593l-35 109l366 134l35 -109zM875 -394l-35 109l362 132l36 -109zM603 -192l-60 -216q-178 92 -284 235q-129 175 -129 407q0 237 128 379q113 124 311 124q154 0 240 -70q67 -55 67 -144q0 -56 -44 -127q-42 -66 -42 -101q0 -47 48.5 -68t156.5 -21q128 0 164 26
q41 30 41 97q0 97 -86.5 187.5t-312.5 231.5l59 205q269 -172 393 -325t124 -312q0 -168 -87 -242q-90 -76 -294 -76q-216 0 -300 64q-75 56 -75 159q0 73 40 143q36 62 36 89q0 82 -135 82q-114 0 -182 -78q-73 -84 -73 -227q0 -169 118 -290q62 -64 178 -132z" />
    <glyph glyph-name="arabic09" unicode="&#x645;&#x650;" horiz-adv-x="1545" 
d="M893 -446l-38 119l382 137l38 -119zM603 -192l-60 -216q-178 92 -284 235q-129 175 -129 407q0 237 128 379q113 124 311 124q154 0 240 -70q67 -55 67 -144q0 -56 -44 -127q-42 -66 -42 -101q0 -47 48.5 -68t156.5 -21q128 0 164 26q41 30 41 97q0 97 -86.5 187.5
t-312.5 231.5l59 205q269 -172 393 -325t124 -312q0 -168 -87 -242q-90 -76 -294 -76q-216 0 -300 64q-75 56 -75 159q0 73 40 143q36 62 36 89q0 82 -135 82q-114 0 -182 -78q-73 -84 -73 -227q0 -169 118 -290q62 -64 178 -132z" />
    <glyph glyph-name="arabic01" unicode="&#x627;&#x64b;" horiz-adv-x="604" 
d="M215 0v1308h176v-1308h-176zM139 1381l-37 92l366 135l37 -93zM120 1562l-38 93l363 132l37 -93z" />
    <glyph glyph-name="arabic05" unicode="&#x627;&#x652;" horiz-adv-x="604" 
d="M214 0v1308h176v-1308h-176zM305 1788q79 0 126.5 -51.5t47.5 -138.5q0 -86 -48 -137.5t-128 -51.5q-81 0 -129 51t-48 138q0 88 48 139t131 51zM301 1682q-82 0 -82 -84q0 -83 84 -83q83 0 83 83q0 84 -85 84z" />
    <glyph glyph-name="arabic02" unicode="&#xfe8e;&#x64b;" horiz-adv-x="613" 
d="M634 0h-101q-174 0 -246 74q-73 76 -73 271v963h176v-918q0 -70 7.5 -101t29.5 -49q38 -31 132 -31h75v-209zM139 1381l-37 92l366 135l37 -93zM120 1562l-38 93l363 132l37 -93z" />
    <glyph glyph-name="uniFB56" unicode="&#x67e;" horiz-adv-x="1700" arabic-form="isolated" 
d="M223 750l166 -67q-61 -140 -61 -252q0 -133 97 -182q80 -40 288 -40h378q91 0 139 11.5t77 40.5q51 53 51 154q0 150 -89 347l175 94q92 -234 92 -441q0 -229 -95.5 -322t-331.5 -93h-397q-166 0 -266 20t-164 67q-132 95 -132 307q0 170 73 356zM660 -342v199h155v-199
h-155zM885 -342v199h155v-199h-155zM772 -592v194h157v-194h-157z" />
    <glyph glyph-name="uniFB57" unicode="&#x67e;" horiz-adv-x="1712" arabic-form="final" 
d="M223 750l166 -68q-61 -140 -61 -251q0 -133 98 -182q79 -40 287 -40h409q121 0 162 33q18 14 23.5 34.5t5.5 73.5v291h176v-291q0 -57 7.5 -79t31.5 -36q43 -26 152 -26h53v-209h-59q-117 0 -175 14.5t-98 53.5q-40 -39 -97.5 -53.5t-175.5 -14.5h-416q-166 0 -266 20
t-164 67q-132 95 -132 307q0 169 73 356zM663 -342v199h155v-199h-155zM888 -342v199h155v-199h-155zM774 -592v194h157v-194h-157z" />
    <glyph glyph-name="uniFB58" unicode="&#x67e;" horiz-adv-x="613" arabic-form="initial" 
d="M-20 0v209h52q82 0 124.5 11t67.5 39q45 50 45 146q0 152 -91 357l177 94q92 -239 92 -450q0 -224 -91.5 -315t-318.5 -91h-57zM117 -342v199h155v-199h-155zM342 -342v199h155v-199h-155zM228 -592v194h157v-194h-157z" />
    <glyph glyph-name="uniFB59" unicode="&#x67e;" horiz-adv-x="623" arabic-form="medial" 
d="M-20 0v209h53q117 0 154 30.5t37 127.5v274h176v-274q0 -61 8 -87t32 -42q42 -29 151 -29h53v-209h-59q-118 0 -175.5 14.5t-97.5 53.5q-40 -39 -97.5 -53.5t-175.5 -14.5h-59zM122 -342v199h155v-199h-155zM347 -342v199h155v-199h-155zM233 -592v194h157v-194h-157z
" />
    <glyph glyph-name="uniFB6A" unicode="&#x6a4;" horiz-adv-x="1926" arabic-form="isolated" 
d="M223 749l165 -66q-60 -139 -60 -252q0 -133 97 -182q79 -40 287 -40h599q138 0 191 31.5t71 123.5h-130q-213 0 -285 44q-95 58 -95 252q0 103 24 207t64 175q86 153 251 153q191 0 275 -173q79 -162 79 -511q0 -188 -17.5 -273.5t-67.5 -137.5q-73 -77 -210 -94
q-51 -6 -132 -6h-619q-165 0 -265 20t-163 67q-132 95 -132 307q0 167 73 355zM1579 539v25q0 168 -28 269q-22 78 -61.5 122t-87.5 44q-86 0 -130 -124q-32 -89 -32 -190q0 -98 41 -122t207 -24h91zM1318 1567v193h155v-193h-155zM1205 1304v201h155v-201h-155zM1431 1304
v201h155v-201h-155z" />
    <glyph glyph-name="uniFB6B" unicode="&#x6a4;" horiz-adv-x="1950" arabic-form="final" 
d="M223 750l165 -67q-60 -141 -60 -252q0 -133 97 -182q79 -40 287 -40h423q-45 67 -45 196q0 211 86 339q47 70 104 102t135 32q180 0 281 -171q37 -64 59.5 -157t22.5 -186q0 -60 -18 -91t-72 -64h283v-209h-282q-132 0 -199.5 8.5t-121.5 30.5q-108 -39 -367 -39h-291
q-165 0 -265 20t-163 67q-132 95 -132 307q0 168 73 356zM1417 209q103 0 144 27t41 95q0 139 -59 245q-56 102 -132 102q-64 0 -103 -80.5t-39 -212.5q0 -94 32.5 -132.5t115.5 -43.5zM1238 1025v206h155v-206h-155zM1463 1025v206h155v-206h-155zM1350 1294v199h155v-199
h-155z" />
    <glyph glyph-name="uniFB6C" unicode="&#x6a4;" horiz-adv-x="1039" arabic-form="initial" 
d="M-20 0v209h444q139 0 192.5 31.5t70.5 123.5h-130q-214 0 -285 44q-95 58 -95 252q0 103 24 206.5t64 175.5q86 153 251 153q119 0 201 -74q89 -80 123 -245q30 -144 30 -363q0 -189 -17.5 -275t-67.5 -138q-73 -77 -210 -94q-51 -6 -133 -6h-462zM693 539v25
q0 168 -28 269q-22 78 -61.5 122t-87.5 44q-86 0 -130 -124q-32 -89 -32 -190q0 -98 41 -122t207 -24h91zM319 1304v201h155v-201h-155zM544 1304v201h155v-201h-155zM431 1567v193h155v-193h-155z" />
    <glyph glyph-name="uniFB6D" unicode="&#x6a4;" horiz-adv-x="1031" arabic-form="medial" 
d="M-20 0v209h236q-45 67 -45 197q0 210 86 338q46 70 103.5 102t135.5 32q114 0 200 -73q76 -66 119.5 -183t43.5 -257q0 -61 -17.5 -91.5t-72.5 -64.5h283v-209h-282q-132 0 -199 8t-121 31q-108 -39 -368 -39h-102zM498 209q103 0 144.5 27t41.5 95q0 138 -59 245
q-56 102 -132 102q-79 0 -117 -113q-26 -78 -26 -180q0 -93 32.5 -132t115.5 -44zM431 1294v199h155v-199h-155zM319 1025v206h155v-206h-155zM544 1025v206h155v-206h-155z" />
    <glyph glyph-name="uniFB7A" unicode="&#x686;" horiz-adv-x="1277" arabic-form="isolated" 
d="M211 659v209h85q136 0 253.5 -35t262.5 -119q149 -86 202 -105t154 -21v-194q-249 -5 -352 -15.5t-208 -41.5q-333 -98 -333 -367q0 -300 428 -300q223 0 446 67l63 -187q-176 -48 -278.5 -63.5t-239.5 -15.5q-299 0 -453 134q-143 125 -143 349q0 203 121 343
q146 167 489 226q-15 9 -87 52q-139 84 -312 84h-98zM552 18v177h155v-177h-155zM777 18v177h155v-177h-155zM663 -203v171h157v-171h-157z" />
    <glyph glyph-name="uniFB7B" unicode="&#x686;" horiz-adv-x="1376" arabic-form="final" 
d="M872 377q-203 -17 -344 -74q-253 -103 -253 -332q0 -296 429 -296q222 0 445 66l63 -191q-177 -48 -278.5 -63.5t-239.5 -15.5q-299 0 -452 134q-144 125 -144 347q0 194 118 327q144 163 494 221q-30 18 -89 57q-84 57 -153.5 79.5t-158.5 22.5h-98v209h85
q136 0 253 -38t264 -129q152 -95 203.5 -115t151.5 -22v-177q-103 -2 -185 -4q15 -93 41 -124q40 -50 157 -50h216v-209h-119q-242 0 -328 101q-69 73 -78 251v25zM484 -9v177h142v-177h-142zM688 -9v177h141v-177h-141zM578 -230v172h157v-172h-157z" />
    <glyph glyph-name="uniFB7C" unicode="&#x686;" horiz-adv-x="1224" arabic-form="initial" 
d="M-20 0v209h72q206 0 400 75q152 59 336 168q-58 21 -192 102q-176 105 -375 105h-99v209h103q124 0 241.5 -36.5t256.5 -117.5q148 -86 209 -103q50 -14 147 -18v-183q-189 -137 -479 -281q-261 -129 -550 -129h-70zM374 -342v199h155v-199h-155zM599 -342v199h155v-199
h-155zM485 -592v194h157v-194h-157z" />
    <glyph glyph-name="uniFB7D" unicode="&#x686;" horiz-adv-x="1306" arabic-form="medial" 
d="M-20 0v209h72q206 0 400 75q152 59 336 168q-58 21 -192 102q-176 105 -375 105h-99v209h103q124 0 241.5 -36.5t256.5 -117.5q148 -86 209 -103q50 -14 147 -18v-183l-25 -19q-89 -67 -148 -104q16 -7 18 -9l36 -36q20 -20 50.5 -26.5t101.5 -6.5h215v-209h-186
q-330 -8 -393 204q-223 -119 -367.5 -161.5t-330.5 -42.5h-70zM374 -342v199h155v-199h-155zM599 -342v199h155v-199h-155zM485 -592v194h157v-194h-157z" />
    <glyph glyph-name="uniFB8A" unicode="&#x698;" horiz-adv-x="678" arabic-form="isolated" 
d="M151 -448l-122 155q150 109 208 173q97 105 97 238q0 144 -97 452l182 66q92 -322 92 -533q0 -164 -78.5 -284.5t-281.5 -266.5zM226 1084v200h155v-200h-155zM113 816v206h155v-206h-155zM338 816v206h155v-206h-155z" />
    <glyph glyph-name="uniFB8B" unicode="&#x698;" horiz-adv-x="683" arabic-form="final" 
d="M502 0q-20 -108 -75 -188q-85 -122 -276 -260l-122 155q153 113 208 173q97 106 97 238q0 142 -97 452l181 67q69 -248 87 -428h198v-209h-201zM226 1084v200h155v-200h-155zM113 816v206h155v-206h-155zM338 816v206h155v-206h-155z" />
    <glyph glyph-name="uniFB8E" unicode="&#x6a9;" horiz-adv-x="1736" arabic-form="isolated" 
d="M224 750l165 -67q-61 -141 -61 -252q0 -133 98 -182q79 -40 287 -40h464q137 0 186 29q56 32 56 118q0 87 -70 177q-73 96 -243 200q-104 64 -187 97v204l556 455l111 -141l-500 -398q196 -108 318 -219q192 -173 192 -404q0 -209 -133 -280q-51 -27 -113.5 -37
t-179.5 -10h-459q-166 0 -265.5 20t-163.5 67q-132 95 -132 307q0 169 74 356z" />
    <glyph glyph-name="uniFB8F" unicode="&#x6a9;" horiz-adv-x="1774" arabic-form="final" 
d="M1500 71q-54 -41 -124.5 -56t-205.5 -15h-459q-166 0 -265.5 20t-163.5 67q-132 95 -132 307q0 169 74 356l165 -67q-61 -141 -61 -252q0 -133 98 -182q79 -40 287 -40h463q138 0 187 29q56 32 56 118q0 87 -70 177q-73 96 -243 200q-104 64 -187 97v204l556 455
l110 -141l-499 -398q243 -135 359.5 -259.5t144.5 -277.5q21 -117 55.5 -160.5t105.5 -43.5h44v-209h-70q-92 0 -140.5 15.5t-84.5 55.5z" />
    <glyph glyph-name="uniFB90" unicode="&#x6a9;" horiz-adv-x="959" arabic-form="initial" 
d="M-20 0v209h420q137 0 186 29q56 32 56 118q0 69 -47.5 145.5t-127.5 138.5q-166 126 -325 190v204l557 455l110 -141l-499 -398q196 -109 317 -219q192 -173 192 -404q0 -209 -133 -280q-51 -27 -113.5 -37t-178.5 -10h-414z" />
    <glyph glyph-name="uniFB91" unicode="&#x6a9;" horiz-adv-x="998" arabic-form="medial" 
d="M724 71q-52 -40 -123.5 -55.5t-206.5 -15.5h-414v209h420q137 0 187 29q56 32 56 118q0 69 -47.5 145.5t-128.5 138.5q-166 127 -325 190v204l557 455l110 -141l-499 -398q242 -134 359 -259t144 -278q21 -117 55.5 -160.5t106.5 -43.5h44v-209h-70q-92 0 -139 15t-86 56
z" />
    <glyph glyph-name="uniFB92" unicode="&#x6af;" horiz-adv-x="1736" arabic-form="isolated" 
d="M224 750l165 -67q-61 -141 -61 -252q0 -133 98 -182q79 -40 287 -40h464q137 0 186 29q56 32 56 118q0 87 -70 177q-73 96 -243 200q-104 64 -187 97v204l556 455l111 -141l-500 -398q196 -108 318 -219q192 -173 192 -404q0 -209 -133 -280q-51 -27 -113.5 -37
t-179.5 -10h-459q-166 0 -265.5 20t-163.5 67q-132 95 -132 307q0 169 74 356zM842 1133l-88 112l540 433l89 -113z" />
    <glyph glyph-name="uniFB93" unicode="&#x6af;" horiz-adv-x="1774" arabic-form="final" 
d="M1500 71q-54 -41 -124.5 -56t-205.5 -15h-459q-166 0 -265.5 20t-163.5 67q-132 95 -132 307q0 169 74 356l165 -67q-61 -141 -61 -252q0 -133 98 -182q79 -40 287 -40h463q138 0 187 29q56 32 56 118q0 87 -70 177q-73 96 -243 200q-104 64 -187 97v204l556 455
l110 -141l-499 -398q243 -135 359.5 -259.5t144.5 -277.5q21 -117 55.5 -160.5t105.5 -43.5h44v-209h-70q-92 0 -140.5 15.5t-84.5 55.5zM842 1133l-88 112l540 433l89 -113z" />
    <glyph glyph-name="uniFB94" unicode="&#x6af;" horiz-adv-x="959" arabic-form="initial" 
d="M-23 0v209h420q137 0 187 29q56 32 56 118q0 69 -47.5 145.5t-128.5 138.5q-166 127 -325 190v204l557 455l110 -141l-499 -398q194 -108 318 -219q192 -173 192 -404q0 -209 -134 -280q-50 -27 -113 -37t-179 -10h-414zM62 1133l-88 112l541 433l88 -113z" />
    <glyph glyph-name="uniFB95" unicode="&#x6af;" horiz-adv-x="998" arabic-form="medial" 
d="M721 71q-54 -41 -124.5 -56t-205.5 -15h-414v209h421q137 0 187 29q56 32 56 118q0 69 -47.5 145.5t-128.5 138.5q-165 126 -325 190v204l556 455l110 -141l-498 -398q240 -134 357.5 -259t145.5 -278q21 -117 55 -160.5t106 -43.5h44v-209h-70q-92 0 -141.5 15.5
t-83.5 55.5zM62 1133l-88 112l541 433l88 -113z" />
    <glyph glyph-name="uniFBE8" unicode="&#x649;" horiz-adv-x="612" arabic-form="initial" 
d="M-20 0v209h52q82 0 124.5 11t67.5 39q45 50 45 146q0 151 -91 357l177 94q92 -241 92 -450q0 -224 -92 -315t-318 -91h-57z" />
    <glyph glyph-name="uniFBE9" unicode="&#x649;" horiz-adv-x="623" arabic-form="medial" 
d="M-20 0v209h53q117 0 154 30.5t37 127.5v274h176v-274q0 -61 8 -87t32 -42q42 -29 151 -29h53v-209h-59q-118 0 -175.5 14.5t-97.5 53.5q-40 -39 -97.5 -53.5t-175.5 -14.5h-59z" />
    <glyph glyph-name="uniFBFC" unicode="&#x6cc;" horiz-adv-x="1540" arabic-form="isolated" 
d="M305 748l162 -79q-59 -100 -94.5 -215t-35.5 -204q0 -157 94.5 -219.5t330.5 -62.5q249 0 352 37t103 126q0 49 -30.5 82t-105.5 63q-187 76 -238 117q-94 73 -94 191q0 140 99.5 218t279.5 78q109 0 230 -28l-31 -198q-130 26 -236 26q-167 0 -167 -92q0 -45 35 -76
t128 -69q128 -52 164.5 -71.5t74.5 -58.5q63 -62 63 -180q0 -184 -112 -268q-72 -55 -197 -80.5t-317 -25.5q-240 0 -362 53q-240 103 -240 422q0 258 144 514z" />
    <glyph glyph-name="uniFBFD" unicode="&#x6cc;" horiz-adv-x="1417" arabic-form="final" 
d="M305 747l161 -78q-58 -97 -94 -213.5t-36 -207.5q0 -153 95 -219q54 -38 137.5 -53.5t232.5 -15.5q416 0 416 111q0 50 -64.5 70.5t-269.5 37.5v190q196 -19 275 -41.5t173 -85.5q29 -20 48.5 -26t58.5 -7v-209h-60q-24 -89 -94 -137q-149 -104 -512 -104
q-343 0 -489 131q-123 109 -123 333q0 271 145 524z" />
    <glyph glyph-name="uniFBFE" unicode="&#x6cc;" horiz-adv-x="612" arabic-form="initial" 
d="M-20 0v209h52q82 0 124.5 11t67.5 39q45 50 45 146q0 151 -91 357l177 94q92 -241 92 -450q0 -224 -92 -315t-318 -91h-57zM66 -364v207h161v-207h-161zM297 -364v207h161v-207h-161z" />
    <glyph glyph-name="uniFBFF" unicode="&#x6cc;" horiz-adv-x="623" arabic-form="medial" 
d="M-20 0v209h53q117 0 154 30.5t37 127.5v274h176v-274q0 -61 8 -87t32 -42q42 -29 151 -29h53v-209h-59q-118 0 -175.5 14.5t-97.5 53.5q-40 -39 -97.5 -53.5t-175.5 -14.5h-59zM116 -364v207h161v-207h-161zM347 -364v207h161v-207h-161z" />
    <glyph glyph-name="uniFE70" unicode="&#xfe70;" horiz-adv-x="0" arabic-form="isolated" 
d="M305 902l-35 109l365 135l36 -109zM297 1101l-35 109l363 132l35 -109z" />
    <glyph glyph-name="uniFE71" unicode="&#xfe71;" horiz-adv-x="622" arabic-form="medial" 
d="M-20 0v209h663v-209h-663zM150 902l-35 109l366 135l35 -109zM143 1101l-35 109l362 132l35 -109z" />
    <glyph glyph-name="uniFE72" unicode="&#xfe72;" horiz-adv-x="0" arabic-form="isolated" 
d="M187 1128l25 112q80 -18 109 -47q30 -31 30 -92q0 -10 -2 -27q15 -1 20 -1q37 0 75 10q-57 42 -57 115q0 75 42.5 119.5t113.5 44.5q77 0 117 -53q34 -47 34 -112q0 -109 -80 -173q-46 -36 -119 -58t-149 -22q-34 0 -76 6l-25 48q8 47 8 71q0 49 -66 59zM560 1127l3 6
q19 31 19 54q0 25 -13.5 42.5t-32.5 17.5q-39 0 -39 -46q0 -63 63 -74z" />
    <glyph glyph-name="uniFE74" unicode="&#xfe74;" horiz-adv-x="0" arabic-form="isolated" 
d="M305 -555l-35 109l365 134l36 -109zM297 -356l-35 109l363 132l35 -109z" />
    <glyph glyph-name="uniFE76" unicode="&#xfe76;" horiz-adv-x="0" arabic-form="isolated" 
d="M295 985l-39 118l382 137l39 -118z" />
    <glyph glyph-name="uniFE77" unicode="&#xfe77;" horiz-adv-x="622" arabic-form="medial" 
d="M-20 0v209h663v-209h-663zM140 985l-38 118l382 137l38 -118z" />
    <glyph glyph-name="uniFE78" unicode="&#xfe78;" horiz-adv-x="0" arabic-form="isolated" 
d="M403 1075q-56 36 -56 112q0 73 42.5 116t113.5 43q78 0 117 -52q34 -46 34 -110q0 -106 -84.5 -170.5t-223.5 -64.5q-44 0 -94 10l4 119q48 -9 78 -9q15 0 69 6zM520 1116q22 28 22 58q0 24 -13.5 41t-33.5 17q-38 0 -38 -45q0 -61 63 -71z" />
    <glyph glyph-name="uniFE79" unicode="&#xfe79;" horiz-adv-x="622" arabic-form="medial" 
d="M-20 0v209h663v-209h-663zM262 1075q-56 36 -56 112q0 73 42 116t114 43q78 0 117 -52q34 -46 34 -110q0 -106 -84.5 -170.5t-223.5 -64.5q-44 0 -94 10l4 119q48 -9 78 -9q15 0 69 6zM379 1116q22 27 22 57q0 25 -13.5 42t-33.5 17q-38 0 -38 -45q0 -61 63 -71z" />
    <glyph glyph-name="uniFE7A" unicode="&#xfe7a;" horiz-adv-x="0" arabic-form="isolated" 
d="M295 -378l-39 118l382 137l39 -118z" />
    <glyph glyph-name="uniFE7B" unicode="&#xfe7b;" horiz-adv-x="622" arabic-form="medial" 
d="M-20 0v209h663v-209h-663zM140 -378l-38 118l382 137l38 -118z" />
    <glyph glyph-name="uniFE7C" unicode="&#xfe7c;" horiz-adv-x="0" arabic-form="isolated" 
d="M258 1271h112q-14 -70 -14 -115q0 -54 30 -54q24 0 31.5 22.5t7.5 90.5v37h88v-37q0 -68 7.5 -90.5t31.5 -22.5q30 0 30 52q0 46 -14 117h112q20 -79 20 -135q0 -161 -127 -161q-34 0 -62.5 15t-41.5 40q-13 -25 -41.5 -40t-62.5 -15q-127 0 -127 162q0 56 20 134z" />
    <glyph glyph-name="uniFE7D" unicode="&#xfe7d;" horiz-adv-x="622" arabic-form="medial" 
d="M101 1271h112q-14 -73 -14 -113q0 -56 30 -56q23 0 31 22.5t8 90.5v37h88v-37q0 -68 7.5 -90.5t30.5 -22.5q31 0 31 49q0 54 -14 120h112q20 -78 20 -135q0 -161 -127 -161q-34 0 -62.5 15t-41.5 40q-13 -25 -41.5 -40t-62.5 -15q-127 0 -127 162q0 54 20 134zM-20 0v209
h663v-209h-663z" />
    <glyph glyph-name="uniFE7E" unicode="&#xfe7e;" horiz-adv-x="0" arabic-form="isolated" 
d="M475 1320q79 0 126.5 -52t47.5 -138t-48 -137.5t-128 -51.5q-81 0 -129 51t-48 138q0 88 48 139t131 51zM471 1214q-82 0 -82 -84q0 -83 84 -83q83 0 83 83q0 84 -85 84z" />
    <glyph glyph-name="uniFE7F" unicode="&#xfe7f;" horiz-adv-x="622" arabic-form="medial" 
d="M-20 0v209h663v-209h-663zM314 1320q79 0 126.5 -52t47.5 -138q0 -87 -47.5 -138t-128.5 -51t-129 51t-48 138q0 88 48 139t131 51zM310 1214q-82 0 -82 -84q0 -83 83 -83q84 0 84 83q0 84 -85 84z" />
    <glyph glyph-name="uniFE80" unicode="&#x621;" horiz-adv-x="615" arabic-form="isolated" 
d="M4 -62v197l189 33q-57 35 -78.5 73.5t-21.5 106.5q0 250 272 250q123 0 243 -31l-28 -170q-96 24 -163 24q-147 0 -147 -109q0 -83 91 -106q42 -11 168 -11h92v-195q-221 -3 -300 -10.5t-317 -51.5z" />
    <glyph glyph-name="uniFE81" unicode="&#x622;" horiz-adv-x="604" arabic-form="isolated" 
d="M214 0v1308h176v-1308h-176zM12 1494l130 230q61 -66 99.5 -89t89.5 -23q80 0 154 96l73 -50q-45 -107 -101 -154.5t-136 -47.5q-97 0 -168 69l-52 -88z" />
    <glyph glyph-name="uniFE82" unicode="&#x622;" horiz-adv-x="613" arabic-form="final" 
d="M634 0h-101q-174 0 -246 74q-73 76 -73 271v963h176v-918q0 -70 7.5 -101t29.5 -49q38 -31 132 -31h75v-209zM12 1494l130 230q61 -66 99.5 -89t89.5 -23q80 0 154 96l73 -50q-45 -107 -101 -154.5t-136 -47.5q-97 0 -168 69l-52 -88z" />
    <glyph glyph-name="uniFE83" unicode="&#x623;" horiz-adv-x="604" arabic-form="isolated" 
d="M214 0v1308h176v-1308h-176zM101 1396l-8 120l125 21q-8 6 -12 10q-32 29 -41.5 47t-9.5 50q0 137 167 137q77 0 169 -19l-10 -115q-63 13 -103 13q-80 0 -80 -50q0 -44 63 -53q22 -4 135 -4l6 -116q-150 -2 -185.5 -5.5t-215.5 -35.5z" />
    <glyph glyph-name="uniFE84" unicode="&#x623;" horiz-adv-x="613" arabic-form="final" 
d="M634 0h-101q-174 0 -246 74q-73 76 -73 271v963h176v-918q0 -70 7.5 -101t29.5 -49q38 -31 132 -31h75v-209zM101 1396l-8 120l125 21q-8 6 -12 10q-32 29 -41.5 47t-9.5 50q0 137 167 137q77 0 169 -19l-10 -115q-63 13 -103 13q-80 0 -80 -50q0 -44 63 -53
q22 -4 135 -4l6 -116q-150 -2 -185.5 -5.5t-215.5 -35.5z" />
    <glyph glyph-name="uniFE85" unicode="&#x624;" horiz-adv-x="1011" arabic-form="isolated" 
d="M633 0h-105q-215 0 -289 50q-91 63 -91 270q0 106 24.5 215t64.5 183q45 84 104 122q60 39 148 39q351 0 351 -651q0 -242 -78 -389q-41 -77 -96.5 -134.5t-181.5 -152.5l-122 155q126 99 183.5 161.5t87.5 131.5zM663 209q1 35 1 51q0 148 -31 252q-50 168 -146 168
q-69 0 -115.5 -92.5t-46.5 -229.5q0 -117 67 -137q38 -12 181 -12h90zM247 974l-7 120l124 21q-7 6 -11 10q-31 29 -41 47.5t-10 49.5q0 137 168 137q75 0 167 -19l-9 -115q-64 13 -102 13q-81 0 -81 -50q0 -44 63 -53q20 -4 135 -4l6 -116q-154 -2 -187.5 -5.5
t-214.5 -35.5z" />
    <glyph glyph-name="uniFE86" unicode="&#x624;" horiz-adv-x="1021" arabic-form="final" 
d="M820 0q-25 -129 -97.5 -226t-238.5 -222l-122 155q127 99 184.5 161.5t86.5 131.5h-104q-216 0 -289 50q-91 63 -91 270q0 106 24 215t65 183q45 84 104 122q60 39 147 39q191 0 275 -186q76 -167 76 -452v-32h202v-209h-222zM663 209q1 34 1 51q0 145 -31 252
q-23 79 -61.5 123.5t-83.5 44.5q-69 0 -115.5 -92.5t-46.5 -229.5q0 -117 66 -137q38 -12 181 -12h90zM262 974l-8 120l124 21q-7 6 -11 10q-32 30 -41.5 47.5t-9.5 49.5q0 137 168 137q75 0 167 -19l-9 -115q-64 13 -101 13q-82 0 -82 -50q0 -44 63 -53q20 -4 135 -4
l6 -116q-153 -2 -187 -5.5t-214 -35.5z" />
    <glyph glyph-name="uniFE87" unicode="&#x625;" horiz-adv-x="604" arabic-form="isolated" 
d="M214 0v1505h176v-1505h-176zM101 -503l-8 120l124 21q-7 7 -11 10q-33 31 -42 48t-9 49q0 137 168 137q76 0 168 -19l-10 -115q-63 13 -103 13q-80 0 -80 -50q0 -43 63 -53q19 -3 135 -4l6 -115q-153 -3 -187 -6.5t-214 -35.5z" />
    <glyph glyph-name="uniFE88" unicode="&#x625;" horiz-adv-x="613" arabic-form="final" 
d="M634 0h-101q-174 0 -246 74q-73 76 -73 271v1160h176v-1115q0 -71 7.5 -101.5t29.5 -47.5q39 -32 133 -32h74v-209zM101 -503l-8 120l125 21q-8 7 -12 10q-32 30 -41.5 47.5t-9.5 49.5q0 137 168 137q76 0 168 -19l-10 -115q-63 13 -103 13q-80 0 -80 -50q0 -43 63 -53
q19 -3 135 -4l6 -115q-153 -3 -187 -6.5t-214 -35.5z" />
    <glyph glyph-name="uniFE89" unicode="&#x626;" horiz-adv-x="1541" arabic-form="isolated" 
d="M305 748l162 -79q-59 -100 -94.5 -215t-35.5 -204q0 -157 94.5 -219.5t330.5 -62.5q249 0 352 37t103 126q0 49 -30.5 82t-105.5 63q-187 76 -238 117q-94 73 -94 191q0 140 99.5 218t279.5 78q109 0 230 -28l-31 -198q-130 26 -236 26q-167 0 -167 -92q0 -45 35 -76
t128 -69q128 -52 164.5 -71.5t74.5 -58.5q63 -62 63 -180q0 -184 -112 -268q-72 -55 -197 -80.5t-317 -25.5q-240 0 -362 53q-240 103 -240 422q0 258 144 514zM486 939l-8 120l125 20q-7 7 -11 10q-33 31 -42 48.5t-9 49.5q0 137 168 137q77 0 167 -19l-9 -115
q-63 13 -103 13q-80 0 -80 -50q0 -44 62 -54q22 -3 136 -3l5 -116q-148 -2 -180.5 -5.5t-220.5 -35.5z" />
    <glyph glyph-name="uniFE8A" unicode="&#x626;" horiz-adv-x="1417" arabic-form="final" 
d="M305 747l161 -78q-58 -97 -94 -213.5t-36 -207.5q0 -153 95 -219q54 -38 137.5 -53.5t232.5 -15.5q416 0 416 111q0 50 -64.5 70.5t-269.5 37.5v190q196 -19 275 -41.5t173 -85.5q29 -20 48.5 -26t58.5 -7v-209h-60q-24 -89 -94 -137q-149 -104 -512 -104
q-343 0 -489 131q-123 109 -123 333q0 271 145 524zM710 598l-8 120l125 21q-8 7 -11 10q-33 30 -42.5 47.5t-9.5 49.5q0 137 168 137q77 0 168 -19l-9 -115q-62 13 -103 13q-81 0 -81 -50q0 -43 63 -53q22 -3 135 -4l6 -115q-150 -2 -185 -6t-216 -36z" />
    <glyph glyph-name="uniFE8B" unicode="&#x626;" horiz-adv-x="612" arabic-form="initial" 
d="M-20 0v209h52q82 0 124.5 11t67.5 39q45 50 45 146q0 151 -91 357l177 94q92 -241 92 -450q0 -224 -92 -315t-318 -91h-57zM50 957l-8 120l125 21q-7 7 -11 10q-33 30 -42 47.5t-9 49.5q0 137 168 137q76 0 167 -19l-9 -115q-62 13 -103 13q-80 0 -80 -50q0 -44 63 -53
q21 -3 135 -4l5 -116q-150 -2 -185 -5.5t-216 -35.5z" />
    <glyph glyph-name="uniFE8C" unicode="&#x626;" horiz-adv-x="623" arabic-form="medial" 
d="M-20 0v209h53q117 0 154 30.5t37 127.5v274h176v-274q0 -61 8 -87t32 -42q42 -29 151 -29h53v-209h-59q-118 0 -175.5 14.5t-97.5 53.5q-40 -39 -97.5 -53.5t-175.5 -14.5h-59zM108 818l-8 120l125 20q-8 7 -11 11q-33 29 -42.5 47.5t-9.5 49.5q0 137 168 137
q76 0 168 -19l-9 -115q-62 13 -103 13q-81 0 -81 -50q0 -44 63 -53q23 -4 135 -4l6 -116q-153 -2 -187 -5.5t-214 -35.5z" />
    <glyph glyph-name="uniFE8D" unicode="&#x627;" horiz-adv-x="604" arabic-form="isolated" 
d="M214 0v1505h176v-1505h-176z" />
    <glyph glyph-name="uniFE8E" unicode="&#x627;" horiz-adv-x="613" arabic-form="final" 
d="M634 0h-101q-174 0 -246 74q-73 76 -73 271v1160h176v-1115q0 -70 7.5 -101t29.5 -48q38 -32 133 -32h74v-209z" />
    <glyph glyph-name="uniFE8F" unicode="&#x628;" horiz-adv-x="1700" arabic-form="isolated" 
d="M223 750l166 -67q-61 -140 -61 -252q0 -133 97 -182q80 -40 288 -40h378q91 0 139 11.5t77 40.5q51 53 51 154q0 150 -89 347l175 94q92 -234 92 -441q0 -229 -95.5 -322t-331.5 -93h-398q-166 0 -265.5 20t-163.5 67q-132 95 -132 307q0 170 73 356zM767 -363v205h174
v-205h-174z" />
    <glyph glyph-name="uniFE90" unicode="&#x628;" horiz-adv-x="1712" arabic-form="final" 
d="M223 750l166 -68q-61 -140 -61 -251q0 -133 98 -182q79 -40 287 -40h409q121 0 162 33q18 14 23.5 34.5t5.5 73.5v291h176v-291q0 -57 7.5 -79t31.5 -36q43 -26 152 -26h53v-209h-59q-117 0 -175 14.5t-98 53.5q-40 -39 -97.5 -53.5t-175.5 -14.5h-417q-166 0 -266 20
t-163 67q-132 95 -132 307q0 169 73 356zM767 -363v205h174v-205h-174z" />
    <glyph glyph-name="uniFE91" unicode="&#x628;" horiz-adv-x="612" arabic-form="initial" 
d="M-20 0v209h52q82 0 124.5 11t67.5 39q45 50 45 146q0 151 -91 357l177 94q92 -241 92 -450q0 -224 -92 -315t-318 -91h-57zM225 -363v205h174v-205h-174z" />
    <glyph glyph-name="uniFE92" unicode="&#x628;" horiz-adv-x="623" arabic-form="medial" 
d="M-20 0v209h53q117 0 154 30.5t37 127.5v274h176v-274q0 -61 8 -87t32 -42q42 -29 151 -29h53v-209h-59q-118 0 -175.5 14.5t-97.5 53.5q-40 -39 -97.5 -53.5t-175.5 -14.5h-59zM225 -363v205h174v-205h-174z" />
    <glyph glyph-name="uniFE93" unicode="&#x629;" horiz-adv-x="1022" arabic-form="isolated" 
d="M512 880q106 0 175 -48.5t113 -154.5q73 -172 73 -366q0 -174 -83.5 -247t-283.5 -73q-187 0 -270 71q-86 74 -86 248q0 194 72 367q44 105 114 154t176 49zM511 683q-94 0 -138 -98q-18 -41 -32 -115.5t-14 -127.5q0 -81 41 -112t147 -31q110 0 148 37q33 33 33 105
q0 61 -16 139.5t-37 118.5q-43 84 -132 84zM315 1023v206h161v-206h-161zM546 1023v206h161v-206h-161z" />
    <glyph glyph-name="uniFE94" unicode="&#x629;" horiz-adv-x="1053" arabic-form="final" 
d="M654 1033l176 40v-708q0 -59 7.5 -86t29.5 -42q39 -28 132 -28h74v-209h-101q-173 0 -245 74q-73 76 -73 271v372q-142 -17 -217 -51q-61 -28 -96.5 -81.5t-35.5 -116.5q0 -88 75.5 -131t267.5 -65l-81 -170q-185 26 -278 76q-94 50 -131 126q-30 61 -30 149
q0 172 104 287q124 136 422 168v125zM328 1178v206h161v-206h-161zM559 1178v206h161v-206h-161z" />
    <glyph glyph-name="uniFE95" unicode="&#x62a;" horiz-adv-x="1700" arabic-form="isolated" 
d="M223 750l166 -67q-61 -140 -61 -252q0 -133 97 -182q80 -40 288 -40h377q92 0 140 11.5t76 40.5q52 53 52 154q0 150 -89 347l175 94q92 -234 92 -441q0 -229 -95.5 -322t-331.5 -93h-398q-166 0 -265.5 20t-163.5 67q-132 95 -132 307q0 170 73 356zM647 1047v206h161
v-206h-161zM878 1047v206h161v-206h-161z" />
    <glyph glyph-name="uniFE96" unicode="&#x62a;" horiz-adv-x="1712" arabic-form="final" 
d="M223 750l166 -68q-61 -140 -61 -251q0 -133 98 -182q79 -40 287 -40h409q121 0 162 33q18 14 23.5 34.5t5.5 73.5v291h176v-291q0 -57 7.5 -79t31.5 -36q43 -26 152 -26h53v-209h-59q-117 0 -175 14.5t-98 53.5q-40 -39 -97.5 -53.5t-175.5 -14.5h-417q-166 0 -266 20
t-163 67q-132 95 -132 307q0 169 73 356zM647 1047v206h161v-206h-161zM878 1047v206h161v-206h-161z" />
    <glyph glyph-name="uniFE97" unicode="&#x62a;" horiz-adv-x="612" arabic-form="initial" 
d="M-20 0v209h52q82 0 124.5 11t67.5 39q45 50 45 146q0 151 -91 357l177 94q92 -241 92 -450q0 -224 -92 -315t-318 -91h-57zM52 1007v210h161v-210h-161zM283 1007v210h161v-210h-161z" />
    <glyph glyph-name="uniFE98" unicode="&#x62a;" horiz-adv-x="623" arabic-form="medial" 
d="M-20 0v209h53q117 0 154 30.5t37 127.5v274h176v-274q0 -61 8 -87t32 -42q42 -29 151 -29h53v-209h-59q-118 0 -175.5 14.5t-97.5 53.5q-40 -39 -97.5 -53.5t-175.5 -14.5h-59zM116 847v206h161v-206h-161zM347 847v206h161v-206h-161z" />
    <glyph glyph-name="uniFE99" unicode="&#x62b;" horiz-adv-x="1700" arabic-form="isolated" 
d="M223 750l166 -67q-61 -140 -61 -252q0 -133 97 -182q80 -40 288 -40h378q91 0 139 11.5t77 40.5q51 53 51 154q0 150 -89 347l175 94q92 -234 92 -441q0 -229 -95.5 -322t-331.5 -93h-398q-166 0 -265.5 20t-163.5 67q-132 95 -132 307q0 170 73 356zM766 1294v199h155
v-199h-155zM653 1025v206h155v-206h-155zM878 1025v206h155v-206h-155z" />
    <glyph glyph-name="uniFE9A" unicode="&#x62b;" horiz-adv-x="1712" arabic-form="final" 
d="M223 750l166 -68q-61 -140 -61 -251q0 -133 98 -182q79 -40 287 -40h409q121 0 162 33q18 14 23.5 34.5t5.5 73.5v291h176v-291q0 -57 7.5 -79t31.5 -36q43 -26 152 -26h53v-209h-59q-117 0 -175 14.5t-98 53.5q-40 -39 -97.5 -53.5t-175.5 -14.5h-417q-166 0 -266 20
t-163 67q-132 95 -132 307q0 169 73 356zM766 1294v199h155v-199h-155zM653 1025v206h155v-206h-155zM878 1025v206h155v-206h-155z" />
    <glyph glyph-name="uniFE9B" unicode="&#x62b;" horiz-adv-x="612" arabic-form="initial" 
d="M-20 0v209h52q82 0 124.5 11t67.5 39q45 50 45 146q0 151 -91 357l177 94q92 -241 92 -450q0 -224 -92 -315t-318 -91h-57zM56 991v207h156v-207h-156zM284 991v207h156v-207h-156zM171 1260v199h155v-199h-155z" />
    <glyph glyph-name="uniFE9C" unicode="&#x62b;" horiz-adv-x="623" arabic-form="medial" 
d="M-20 0v209h53q117 0 154 30.5t37 127.5v274h176v-274q0 -61 8 -87t32 -42q42 -29 151 -29h53v-209h-59q-118 0 -175.5 14.5t-97.5 53.5q-40 -39 -97.5 -53.5t-175.5 -14.5h-59zM234 1092v199h155v-199h-155zM122 823v206h155v-206h-155zM347 823v206h155v-206h-155z" />
    <glyph glyph-name="uniFE9D" unicode="&#x62c;" horiz-adv-x="1277" arabic-form="isolated" 
d="M211 659v209h85q136 0 253.5 -35t262.5 -119q149 -86 202 -105t154 -21v-194q-249 -5 -352 -15.5t-208 -41.5q-333 -98 -333 -366q0 -296 428 -296q223 0 446 66l63 -191q-176 -48 -278.5 -63.5t-239.5 -15.5q-299 0 -453 134q-143 125 -143 349q0 203 121 343
q146 167 489 226q-15 9 -87 52q-139 84 -312 84h-98zM673 -97v206h174v-206h-174z" />
    <glyph glyph-name="uniFE9E" unicode="&#x62c;" horiz-adv-x="1376" arabic-form="final" 
d="M815 371q-540 -65 -540 -400q0 -296 428 -296q222 0 446 66l63 -191q-177 -48 -279 -63.5t-239 -15.5q-299 0 -453 134q-143 125 -143 347q0 194 118 327q144 163 494 221q-30 18 -89 57q-84 57 -153.5 79.5t-158.5 22.5h-98v209h85q136 0 252.5 -38t263.5 -129
q152 -95 204 -115t152 -22v-177q-187 -3 -241 -6q16 -92 40 -122q41 -50 158 -50h272v-209h-175q-243 0 -329 101q-69 73 -78 251v19zM562 -125v205h174v-205h-174z" />
    <glyph glyph-name="uniFE9F" unicode="&#x62c;" horiz-adv-x="1224" arabic-form="initial" 
d="M-20 0v209h72q206 0 400 75q152 59 336 168q-58 21 -192 102q-176 105 -375 105h-99v209h103q124 0 241.5 -36.5t256.5 -117.5q148 -86 209 -103q50 -14 147 -18v-183q-189 -137 -479 -281q-261 -129 -550 -129h-70zM442 -363v205h174v-205h-174z" />
    <glyph glyph-name="uniFEA0" unicode="&#x62c;" horiz-adv-x="1306" arabic-form="medial" 
d="M442 -363v205h174v-205h-174zM-20 0v209h72q206 0 400 75q152 59 336 168q-58 21 -192 102q-176 105 -375 105h-99v209h103q124 0 241.5 -36.5t256.5 -117.5q148 -86 209 -103q50 -14 147 -18v-183l-25 -19q-89 -67 -148 -104q16 -7 18 -9l36 -36q20 -20 50.5 -26.5
t101.5 -6.5h215v-209h-186q-330 -8 -393 204q-223 -119 -367.5 -161.5t-330.5 -42.5h-70z" />
    <glyph glyph-name="uniFEA1" unicode="&#x62d;" horiz-adv-x="1277" arabic-form="isolated" 
d="M211 659v209h85q136 0 253.5 -35t262.5 -119q149 -86 202 -105t154 -21v-194q-249 -5 -352 -15.5t-208 -41.5q-333 -98 -333 -366q0 -296 428 -296q223 0 446 66l63 -191q-176 -48 -278.5 -63.5t-239.5 -15.5q-299 0 -453 134q-143 125 -143 349q0 203 121 343
q146 167 489 226q-15 9 -87 52q-139 84 -312 84h-98z" />
    <glyph glyph-name="uniFEA2" unicode="&#x62d;" horiz-adv-x="1376" arabic-form="final" 
d="M815 371q-540 -65 -540 -400q0 -296 428 -296q222 0 446 66l63 -191q-177 -48 -279 -63.5t-239 -15.5q-299 0 -453 134q-143 125 -143 347q0 194 118 327q144 163 494 221q-30 18 -89 57q-84 57 -153.5 79.5t-158.5 22.5h-98v209h85q136 0 252.5 -38t263.5 -129
q152 -95 204 -115t152 -22v-177q-187 -3 -241 -6q16 -92 40 -122q41 -50 158 -50h272v-209h-175q-243 0 -329 101q-69 73 -78 251v19z" />
    <glyph glyph-name="uniFEA3" unicode="&#x62d;" horiz-adv-x="1224" arabic-form="initial" 
d="M-20 0v209h72q206 0 400 75q152 59 336 168q-58 21 -192 102q-176 105 -375 105h-99v209h103q124 0 241.5 -36.5t256.5 -117.5q148 -86 209 -103q50 -14 147 -18v-183q-189 -137 -479 -281q-261 -129 -550 -129h-70z" />
    <glyph glyph-name="uniFEA4" unicode="&#x62d;" horiz-adv-x="1306" arabic-form="medial" 
d="M-20 0v209h72q206 0 400 75q152 59 336 168q-58 21 -192 102q-176 105 -375 105h-99v209h103q124 0 241.5 -36.5t256.5 -117.5q148 -86 209 -103q50 -14 147 -18v-183l-25 -19q-89 -67 -148 -104q16 -7 18 -9l36 -36q20 -20 50.5 -26.5t101.5 -6.5h215v-209h-186
q-330 -8 -393 204q-223 -119 -367.5 -161.5t-330.5 -42.5h-70z" />
    <glyph glyph-name="uniFEA5" unicode="&#x62e;" horiz-adv-x="1277" arabic-form="isolated" 
d="M211 659v209h85q136 0 253.5 -35t262.5 -119q149 -86 202 -105t154 -21v-194q-249 -5 -352 -15.5t-208 -41.5q-333 -98 -333 -366q0 -296 428 -296q223 0 446 66l63 -191q-176 -48 -278.5 -63.5t-239.5 -15.5q-299 0 -453 134q-143 125 -143 349q0 203 121 343
q146 167 489 226q-15 9 -87 52q-139 84 -312 84h-98zM646 1047v206h174v-206h-174z" />
    <glyph glyph-name="uniFEA6" unicode="&#x62e;" horiz-adv-x="1376" arabic-form="final" 
d="M815 371q-540 -65 -540 -400q0 -296 428 -296q222 0 446 66l63 -191q-177 -48 -279 -63.5t-239 -15.5q-299 0 -453 134q-143 125 -143 347q0 194 118 327q144 163 494 221q-30 18 -89 57q-84 57 -153.5 79.5t-158.5 22.5h-98v209h85q136 0 252.5 -38t263.5 -129
q152 -95 204 -115t152 -22v-177q-187 -3 -241 -6q16 -92 40 -122q41 -50 158 -50h272v-209h-175q-243 0 -329 101q-69 73 -78 251v19zM646 1047v206h174v-206h-174z" />
    <glyph glyph-name="uniFEA7" unicode="&#x62e;" horiz-adv-x="1224" arabic-form="initial" 
d="M-20 0v209h72q206 0 400 75q152 59 336 168q-58 21 -192 102q-176 105 -375 105h-99v209h103q124 0 241.5 -36.5t256.5 -117.5q148 -86 209 -103q50 -14 147 -18v-183q-189 -137 -479 -281q-261 -129 -550 -129h-70zM505 1047v206h174v-206h-174z" />
    <glyph glyph-name="uniFEA8" unicode="&#x62e;" horiz-adv-x="1306" arabic-form="medial" 
d="M505 1047v206h174v-206h-174zM-20 0v209h72q206 0 400 75q152 59 336 168q-58 21 -192 102q-176 105 -375 105h-99v209h103q124 0 241.5 -36.5t256.5 -117.5q148 -86 209 -103q50 -14 147 -18v-183l-25 -19q-89 -67 -148 -104q16 -7 18 -9l36 -36q20 -20 50.5 -26.5
t101.5 -6.5h215v-209h-186q-330 -8 -393 204q-223 -119 -367.5 -161.5t-330.5 -42.5h-70z" />
    <glyph glyph-name="uniFEA9" unicode="&#x62f;" horiz-adv-x="1240" arabic-form="isolated" 
d="M132 420l166 -27q-10 -42 -10 -91q0 -53 38.5 -73t141.5 -20h254q98 0 135.5 21t37.5 77q0 114 -123 269q-96 120 -314 283l121 183q114 -82 184 -148t142 -162q166 -218 166 -440q0 -202 -126 -260q-68 -32 -223 -32h-254q-192 0 -260 41q-94 57 -94 210q0 88 18 169z
" />
    <glyph glyph-name="uniFEAA" unicode="&#x62f;" horiz-adv-x="1250" arabic-form="final" 
d="M998 66q-41 -37 -100.5 -51.5t-175.5 -14.5h-255q-191 0 -259 41q-94 57 -94 210q0 90 17 169l167 -27q-10 -42 -10 -91q0 -53 38.5 -73t140.5 -20h255q98 0 135.5 21t37.5 77q0 115 -124 269q-96 120 -313 283l121 183q194 -137 326 -310q66 -87 99.5 -158t55.5 -170
q27 -120 60.5 -157.5t113.5 -37.5h36v-209h-57q-84 0 -132.5 15t-82.5 51z" />
    <glyph glyph-name="uniFEAB" unicode="&#x630;" horiz-adv-x="1240" arabic-form="isolated" 
d="M132 420l166 -27q-10 -42 -10 -91q0 -53 38.5 -73t141.5 -20h254q98 0 135.5 21t37.5 77q0 114 -124 269q-96 121 -313 283l121 183q114 -82 184 -148t142 -162q166 -218 166 -440q0 -202 -126 -260q-68 -32 -223 -32h-254q-192 0 -260 41q-94 57 -94 210q0 88 18 169z
M458 1180v206h174v-206h-174z" />
    <glyph glyph-name="uniFEAC" unicode="&#x630;" horiz-adv-x="1245" arabic-form="final" 
d="M996 64q-41 -36 -99.5 -50t-173.5 -14h-255q-192 0 -260 41q-94 57 -94 210q0 90 18 169l167 -27q-11 -42 -11 -91q0 -53 39 -73t141 -20h255q97 0 134.5 21t37.5 77q0 114 -123 269q-97 121 -313 283l121 183q195 -137 326 -310q70 -94 105.5 -170t49.5 -166
q17 -107 53.5 -147t115.5 -40h36v-209h-57q-83 0 -130 14t-83 50zM458 1180v206h174v-206h-174z" />
    <glyph glyph-name="uniFEAD" unicode="&#x631;" horiz-adv-x="678" arabic-form="isolated" 
d="M151 -448l-122 155q150 109 208 173q97 105 97 238q0 144 -97 452l182 66q92 -322 92 -533q0 -164 -78.5 -284.5t-281.5 -266.5z" />
    <glyph glyph-name="uniFEAE" unicode="&#x631;" horiz-adv-x="683" arabic-form="final" 
d="M502 0q-20 -108 -75 -188q-85 -122 -276 -260l-122 155q153 113 208 173q97 106 97 238q0 142 -97 452l181 67q69 -248 87 -428h198v-209h-201z" />
    <glyph glyph-name="uniFEAF" unicode="&#x632;" horiz-adv-x="678" arabic-form="isolated" 
d="M151 -448l-122 155q150 109 208 173q97 105 97 238q0 144 -97 452l182 66q92 -322 92 -533q0 -164 -78.5 -284.5t-281.5 -266.5zM195 831v205h174v-205h-174z" />
    <glyph glyph-name="uniFEB0" unicode="&#x632;" horiz-adv-x="683" arabic-form="final" 
d="M502 0q-20 -108 -75 -188q-85 -122 -276 -260l-122 155q153 113 208 173q97 106 97 238q0 142 -97 452l181 67q69 -248 87 -428h198v-209h-201zM195 831v205h174v-205h-174z" />
    <glyph glyph-name="uniFEB1" unicode="&#x633;" horiz-adv-x="2467" arabic-form="isolated" 
d="M305 752l163 -77q-134 -293 -134 -506q0 -146 84 -231q87 -86 296 -86q199 0 306 62q172 99 172 355q0 98 -29 294l188 31q9 -90 15 -227q2 -66 8.5 -89.5t26.5 -39.5q36 -28 105 -28q82 0 110.5 32t28.5 125v180h176v-180q0 -61 6.5 -86t25.5 -42q35 -29 109 -29
q89 0 125 36t36 124q0 137 -69 319l177 86q70 -226 70 -407q0 -212 -81 -291q-80 -79 -262 -79q-159 0 -225 70q-69 -70 -230 -70q-90 0 -161 33q-39 -141 -113 -221q-80 -88 -198 -127.5t-300 -39.5q-213 0 -331 58q-242 118 -242 465q0 290 147 586z" />
    <glyph glyph-name="uniFEB2" unicode="&#x633;" horiz-adv-x="2499" arabic-form="final" 
d="M305 752l163 -77q-134 -293 -134 -506q0 -146 84 -230q87 -86 295 -86q286 0 397 139q82 103 82 277q0 99 -28 294l187 31q10 -95 15 -229q2 -65 8.5 -88t26.5 -39q35 -28 106 -28q81 0 109.5 32t28.5 125v180h176v-180q0 -61 6.5 -86t25.5 -42q35 -29 107 -29
q82 0 111 32.5t29 124.5v223h176v-223q0 -61 8 -87t32 -42q42 -29 150 -29h53v-209h-59q-118 0 -177.5 15t-94.5 53q-62 -70 -225 -70q-171 0 -230 70q-60 -70 -224 -70q-107 0 -167 33q-32 -135 -127 -230q-84 -84 -196 -120.5t-284 -36.5q-217 0 -335 58
q-242 117 -242 464q0 289 147 586z" />
    <glyph glyph-name="uniFEB3" unicode="&#x633;" horiz-adv-x="1510" arabic-form="initial" 
d="M-20 0v209h53q117 0 154 30.5t37 127.5v223h176v-223q0 -61 7 -86.5t28 -42.5q35 -28 105 -28q81 0 109.5 32t28.5 125v180h176v-180q0 -61 6.5 -86.5t25.5 -41.5q35 -30 109 -30q89 0 125 36t36 124q0 135 -69 320l177 86q70 -225 70 -407q0 -212 -81 -291
q-80 -79 -263 -79q-165 0 -224 70q-60 -70 -230 -70q-162 0 -224 70q-35 -38 -94.5 -53t-178.5 -15h-59z" />
    <glyph glyph-name="uniFEB4" unicode="&#x633;" horiz-adv-x="1532" arabic-form="medial" 
d="M-20 0v209h53q117 0 154 30.5t37 127.5v223h176v-223q0 -61 7 -86.5t28 -42.5q35 -28 105 -28q81 0 109.5 32t28.5 125v180h176v-180q0 -60 6.5 -85.5t25.5 -42.5q35 -29 107 -29q82 0 111 32.5t29 124.5v223h176v-223q0 -61 8 -87t32 -42q42 -29 151 -29h53v-209h-59
q-118 0 -178 15t-95 53q-62 -70 -224 -70q-171 0 -231 70q-60 -70 -230 -70q-162 0 -224 70q-35 -38 -94.5 -53t-178.5 -15h-59z" />
    <glyph glyph-name="uniFEB5" unicode="&#x634;" horiz-adv-x="2467" arabic-form="isolated" 
d="M305 752l163 -77q-134 -293 -134 -506q0 -146 84 -231q87 -86 296 -86q199 0 306 62q172 99 172 355q0 98 -29 294l188 31q9 -90 15 -227q2 -66 8.5 -89.5t26.5 -39.5q36 -28 105 -28q82 0 110.5 32t28.5 125v180h176v-180q0 -61 6.5 -86t25.5 -42q35 -29 109 -29
q89 0 125 36t36 124q0 137 -69 319l177 86q70 -226 70 -407q0 -212 -81 -291q-80 -79 -262 -79q-159 0 -225 70q-69 -70 -230 -70q-90 0 -161 33q-39 -141 -113 -221q-80 -88 -198 -127.5t-300 -39.5q-213 0 -331 58q-242 118 -242 465q0 290 147 586zM1656 1040v200h155
v-200h-155zM1543 772v206h155v-206h-155zM1768 772v206h155v-206h-155z" />
    <glyph glyph-name="uniFEB6" unicode="&#x634;" horiz-adv-x="2499" arabic-form="final" 
d="M305 752l163 -77q-134 -293 -134 -506q0 -146 84 -230q87 -86 295 -86q286 0 397 139q82 103 82 277q0 99 -28 294l187 31q10 -95 15 -229q2 -65 8.5 -88t26.5 -39q35 -28 106 -28q81 0 109.5 32t28.5 125v180h176v-180q0 -61 6.5 -86t25.5 -42q35 -29 107 -29
q82 0 111 32.5t29 124.5v223h176v-223q0 -61 8 -87t32 -42q42 -29 150 -29h53v-209h-59q-118 0 -177.5 15t-94.5 53q-62 -70 -225 -70q-171 0 -230 70q-60 -70 -224 -70q-107 0 -167 33q-32 -135 -127 -230q-84 -84 -196 -120.5t-284 -36.5q-217 0 -335 58
q-242 117 -242 464q0 289 147 586zM1656 1040v200h155v-200h-155zM1543 772v206h155v-206h-155zM1768 772v206h155v-206h-155z" />
    <glyph glyph-name="uniFEB7" unicode="&#x634;" horiz-adv-x="1510" arabic-form="initial" 
d="M-20 0v209h53q117 0 154 30.5t37 127.5v223h176v-223q0 -61 7 -86.5t28 -42.5q35 -28 105 -28q81 0 109.5 32t28.5 125v180h176v-180q0 -61 6.5 -86.5t25.5 -41.5q35 -30 109 -30q89 0 125 36t36 124q0 135 -69 320l177 86q70 -225 70 -407q0 -212 -81 -291
q-80 -79 -263 -79q-165 0 -224 70q-60 -70 -230 -70q-162 0 -224 70q-35 -38 -94.5 -53t-178.5 -15h-59zM689 1040v200h155v-200h-155zM577 772v206h155v-206h-155zM801 772v206h155v-206h-155z" />
    <glyph glyph-name="uniFEB8" unicode="&#x634;" horiz-adv-x="1532" arabic-form="medial" 
d="M-20 0v209h53q117 0 154 30.5t37 127.5v223h176v-223q0 -61 7 -86.5t28 -42.5q35 -28 105 -28q81 0 109.5 32t28.5 125v180h176v-180q0 -60 6.5 -85.5t25.5 -42.5q35 -29 107 -29q82 0 111 32.5t29 124.5v223h176v-223q0 -61 8 -87t32 -42q42 -29 151 -29h53v-209h-59
q-118 0 -178 15t-95 53q-62 -70 -224 -70q-171 0 -231 70q-60 -70 -230 -70q-162 0 -224 70q-35 -38 -94.5 -53t-178.5 -15h-59zM689 1040v200h155v-200h-155zM577 772v206h155v-206h-155zM801 772v206h155v-206h-155z" />
    <glyph glyph-name="uniFEB9" unicode="&#x635;" horiz-adv-x="2505" arabic-form="isolated" 
d="M305 752l163 -77q-134 -294 -134 -506q0 -146 84 -231q87 -86 296 -86q199 0 306 61q172 100 172 350q0 105 -38 315l189 38q12 -76 19 -188q88 114 119 149.5t93 93.5q99 94 184 134t182 40q196 0 315 -170q86 -123 86 -311q0 -244 -187 -321q-106 -43 -387 -43h-432
q-35 -121 -124 -211q-78 -79 -195 -113q-116 -33 -283 -33q-214 0 -333 58q-242 118 -242 465q0 289 147 586zM1368 209h448q211 0 282 40q64 35 64 120q0 95 -75 181q-78 91 -196 91q-121 0 -256.5 -112t-266.5 -320z" />
    <glyph glyph-name="uniFEBA" unicode="&#x635;" horiz-adv-x="2505" arabic-form="final" 
d="M2195 62q-65 -36 -156 -49t-272 -13h-431q-35 -121 -124 -211q-79 -79 -196 -113q-116 -33 -283 -33q-214 0 -333 58q-242 118 -242 465q0 290 148 586l162 -77q-134 -292 -134 -506q0 -146 85 -231q86 -86 295 -86q287 0 397 140q82 104 82 271q0 102 -39 315l189 38
q13 -76 20 -188q87 114 118 149.5t93 93.5q100 94 184.5 134t181.5 40q197 0 316 -170q86 -122 86 -308q0 -60 -13 -116q46 -42 149 -42h48v-209h-63q-196 0 -268 62zM1369 209h447q212 0 283 40q64 35 64 120q0 95 -75 181q-78 91 -196 91q-122 0 -257.5 -112t-265.5 -320z
" />
    <glyph glyph-name="uniFEBB" unicode="&#x635;" horiz-adv-x="1671" arabic-form="initial" 
d="M-20 0v209h53q117 0 154 30.5t37 127.5v153h176v-103q0 -70 8 -84q18 -33 22 -51q14 20 79 113q154 224 288 328q157 122 308 122q199 0 317 -170q86 -124 86 -301q0 -155 -63 -239q-73 -99 -255 -124q-82 -11 -257 -11h-348q-118 0 -175.5 14.5t-97.5 53.5
q-40 -39 -97.5 -53.5t-175.5 -14.5h-59zM535 209h447q211 0 283 40q28 16 45.5 48.5t17.5 71.5q0 95 -75 182q-78 90 -196 90q-121 0 -257.5 -113t-264.5 -319z" />
    <glyph glyph-name="uniFEBC" unicode="&#x635;" horiz-adv-x="1671" arabic-form="medial" 
d="M1361 63q-66 -37 -156.5 -50t-271.5 -13h-348q-118 0 -175.5 14.5t-97.5 53.5q-40 -39 -97.5 -53.5t-175.5 -14.5h-59v209h53q117 0 154 30.5t37 127.5v153h176v-103q0 -70 8 -84q18 -33 22 -51q14 20 79 113q154 224 288 328q157 122 308 122q199 0 317 -170
q86 -124 86 -299q0 -67 -13 -124q44 -43 149 -43h48v-209h-63q-196 0 -268 63zM535 209h447q211 0 283 40q28 16 45.5 48.5t17.5 71.5q0 95 -75 182q-78 90 -196 90q-121 0 -257.5 -112.5t-264.5 -319.5z" />
    <glyph glyph-name="uniFEBD" unicode="&#x636;" horiz-adv-x="2505" arabic-form="isolated" 
d="M305 752l163 -77q-134 -294 -134 -506q0 -146 84 -231q87 -86 296 -86q199 0 306 61q172 100 172 350q0 105 -38 315l189 38q12 -76 19 -188q88 114 119 149.5t93 93.5q99 94 184 134t182 40q196 0 315 -170q86 -123 86 -311q0 -244 -187 -321q-106 -43 -387 -43h-432
q-35 -121 -124 -211q-78 -79 -195 -113q-116 -33 -283 -33q-214 0 -333 58q-242 118 -242 465q0 289 147 586zM1368 209h448q211 0 282 40q64 35 64 120q0 95 -75 181q-78 91 -196 91q-121 0 -256.5 -112t-266.5 -320zM1751 1047v206h174v-206h-174z" />
    <glyph glyph-name="uniFEBE" unicode="&#x636;" horiz-adv-x="2505" arabic-form="final" 
d="M2195 62q-65 -36 -156 -49t-272 -13h-431q-35 -121 -124 -211q-79 -79 -196 -113q-116 -33 -283 -33q-214 0 -333 58q-242 118 -242 465q0 290 148 586l162 -77q-134 -292 -134 -506q0 -146 85 -231q86 -86 295 -86q287 0 397 140q82 104 82 271q0 102 -39 315l189 38
q13 -76 20 -188q87 114 118 149.5t93 93.5q100 94 184.5 134t181.5 40q197 0 316 -170q86 -122 86 -308q0 -60 -13 -116q46 -42 149 -42h48v-209h-63q-196 0 -268 62zM1369 209h447q212 0 283 40q64 35 64 120q0 95 -75 181q-78 91 -196 91q-122 0 -257.5 -112t-265.5 -320z
M1751 1047v206h174v-206h-174z" />
    <glyph glyph-name="uniFEBF" unicode="&#x636;" horiz-adv-x="1671" arabic-form="initial" 
d="M-20 0v209h53q117 0 154 30.5t37 127.5v153h176v-103q0 -70 8 -84q18 -33 22 -51q14 20 79 113q154 224 288 328q157 122 308 122q199 0 317 -170q86 -124 86 -301q0 -155 -63 -239q-73 -99 -255 -124q-82 -11 -257 -11h-348q-118 0 -175.5 14.5t-97.5 53.5
q-40 -39 -97.5 -53.5t-175.5 -14.5h-59zM535 209h447q211 0 283 40q28 16 45.5 48.5t17.5 71.5q0 95 -75 182q-78 90 -196 90q-121 0 -257.5 -113t-264.5 -319zM918 1047v206h174v-206h-174z" />
    <glyph glyph-name="uniFEC0" unicode="&#x636;" horiz-adv-x="1671" arabic-form="medial" 
d="M1361 63q-66 -37 -156.5 -50t-271.5 -13h-348q-118 0 -175.5 14.5t-97.5 53.5q-40 -39 -97.5 -53.5t-175.5 -14.5h-59v209h53q117 0 154 30.5t37 127.5v153h176v-103q0 -70 8 -84q18 -33 22 -51q14 20 79 113q154 224 288 328q157 122 308 122q199 0 317 -170
q86 -124 86 -299q0 -67 -13 -124q44 -43 149 -43h48v-209h-63q-196 0 -268 63zM535 209h447q211 0 283 40q28 16 45.5 48.5t17.5 71.5q0 95 -75 182q-78 90 -196 90q-121 0 -257.5 -112.5t-264.5 -319.5zM918 1047v206h174v-206h-174z" />
    <glyph glyph-name="uniFEC1" unicode="&#x637;" horiz-adv-x="1531" arabic-form="isolated" 
d="M214 209v1296h176v-1073l30 39q80 102 129 153.5t118 105.5q146 115 298 115q198 0 316 -170q86 -124 86 -300q0 -156 -63 -240q-73 -99 -255 -124q-82 -11 -257 -11h-646l-134 209h202zM393 209h448q211 0 282 40q64 35 64 120q0 95 -75 181q-78 91 -196 91
q-121 0 -258.5 -113.5t-264.5 -318.5z" />
    <glyph glyph-name="uniFEC2" unicode="&#x637;" horiz-adv-x="1531" arabic-form="final" 
d="M1220 63q-66 -37 -156.5 -50t-271.5 -13h-646l-134 209h202v1296h176v-1073l30 39q80 102 129 153.5t118 105.5q146 115 298 115q198 0 316 -170q86 -124 86 -296q0 -63 -13 -127q43 -43 149 -43h48v-209h-63q-196 0 -268 63zM393 209h448q211 0 282 40q64 35 64 120
q0 95 -75 181q-78 91 -196 91q-121 0 -258.5 -113.5t-264.5 -318.5z" />
    <glyph glyph-name="uniFEC3" unicode="&#x637;" horiz-adv-x="1531" arabic-form="initial" 
d="M-20 0v209h235v1296h176v-1073l30 39q80 102 129 153.5t118 105.5q146 115 298 115q198 0 316 -170q86 -124 86 -300q0 -156 -63 -240q-73 -99 -255 -124q-82 -11 -257 -11h-813zM394 209h448q211 0 282 40q64 35 64 120q0 95 -75 181q-78 91 -196 91q-121 0 -256.5 -112
t-266.5 -320z" />
    <glyph glyph-name="uniFEC4" unicode="&#x637;" horiz-adv-x="1531" arabic-form="medial" 
d="M1221 63q-66 -37 -156.5 -50t-271.5 -13h-813v209h235v1296h176v-1073l30 39q80 102 129 153.5t118 105.5q146 115 298 115q198 0 316 -170q86 -124 86 -296q0 -63 -13 -127q43 -43 149 -43h48v-209h-63q-196 0 -268 63zM394 209h448q211 0 282 40q64 35 64 120
q0 95 -75 181q-78 91 -196 91q-121 0 -256.5 -112t-266.5 -320z" />
    <glyph glyph-name="uniFEC5" unicode="&#x638;" horiz-adv-x="1531" arabic-form="isolated" 
d="M214 209v1296h176v-1073l30 39q80 102 129 153.5t118 105.5q146 115 298 115q198 0 316 -170q86 -124 86 -300q0 -156 -63 -240q-73 -99 -255 -124q-82 -11 -257 -11h-646l-134 209h202zM393 209h448q211 0 282 40q64 35 64 120q0 95 -75 181q-78 91 -196 91
q-121 0 -258.5 -113.5t-264.5 -318.5zM840 1060v205h174v-205h-174z" />
    <glyph glyph-name="uniFEC6" unicode="&#x638;" horiz-adv-x="1531" arabic-form="final" 
d="M1220 63q-66 -37 -156.5 -50t-271.5 -13h-646l-134 209h202v1296h176v-1073l30 39q80 102 129 153.5t118 105.5q146 115 298 115q198 0 316 -170q86 -124 86 -296q0 -63 -13 -127q43 -43 149 -43h48v-209h-63q-196 0 -268 63zM393 209h448q211 0 282 40q64 35 64 120
q0 95 -75 181q-78 91 -196 91q-121 0 -258.5 -113.5t-264.5 -318.5zM840 1060v205h174v-205h-174z" />
    <glyph glyph-name="uniFEC7" unicode="&#x638;" horiz-adv-x="1531" arabic-form="initial" 
d="M-20 0v209h235v1296h176v-1073l30 39q80 102 129 153.5t118 105.5q146 115 298 115q198 0 316 -170q86 -124 86 -300q0 -156 -63 -240q-73 -99 -255 -124q-82 -11 -257 -11h-813zM394 209h448q211 0 282 40q64 35 64 120q0 95 -75 181q-78 91 -196 91q-121 0 -256.5 -112
t-266.5 -320zM841 1060v205h174v-205h-174z" />
    <glyph glyph-name="uniFEC8" unicode="&#x638;" horiz-adv-x="1531" arabic-form="medial" 
d="M1221 63q-66 -37 -156.5 -50t-271.5 -13h-813v209h235v1296h176v-1073l30 39q80 102 129 153.5t118 105.5q146 115 298 115q198 0 316 -170q86 -124 86 -296q0 -63 -13 -127q43 -43 149 -43h48v-209h-63q-196 0 -268 63zM394 209h448q211 0 282 40q64 35 64 120
q0 95 -75 181q-78 91 -196 91q-121 0 -256.5 -112t-266.5 -320zM851 1060v205h174v-205h-174z" />
    <glyph glyph-name="uniFEC9" unicode="&#x639;" horiz-adv-x="1166" arabic-form="isolated" 
d="M429 267q-181 65 -181 261q0 171 103.5 260.5t299.5 89.5q192 0 361 -75l-68 -194q-90 38 -149.5 51.5t-132.5 13.5q-238 0 -238 -160q0 -169 265 -169q45 0 200 11q50 3 134 8v-178q-335 -9 -487 -57q-227 -72 -227 -248q0 -108 83.5 -157t265.5 -49q223 0 414 67
l62 -191q-242 -80 -476 -80q-269 0 -402 110q-124 102 -124 285q0 141 76 243t221 158z" />
    <glyph glyph-name="uniFECA" unicode="&#x639;" horiz-adv-x="1143" arabic-form="final" 
d="M199 593v199q243 86 405 86q164 0 257 -75q94 -76 94 -224q0 -105 -55.5 -185.5t-186.5 -164.5q15 -3 47 -13q23 -7 68 -7h363v-209h-389q-139 0 -213.5 20.5t-119.5 72.5q-80 -38 -115 -63q-75 -56 -75 -149q0 -206 342 -206q218 0 437 66l63 -191
q-174 -48 -273.5 -63.5t-234.5 -15.5q-256 0 -389 109q-121 99 -121 281q0 130 64 213t225 160q-10 45 -13 157q-1 74 -7 102.5t-25 47.5q-38 40 -148 52zM367 653q102 -29 138 -73q40 -50 40 -161v-116q61 29 132 81q102 76 102 166q0 140 -209 140q-86 0 -203 -37z" />
    <glyph glyph-name="uniFECB" unicode="&#x639;" horiz-adv-x="1102" arabic-form="initial" 
d="M-20 0v209h384q-87 47 -125 95q-66 84 -66 204q0 172 107 272q104 98 300 98q184 0 357 -81l-68 -194q-147 71 -281 71q-239 0 -239 -182q0 -88 58.5 -147.5t180.5 -95.5q136 -40 428 -40l-85 -209h-951z" />
    <glyph glyph-name="uniFECC" unicode="&#x639;" horiz-adv-x="1142" arabic-form="medial" 
d="M-20 0v209h82q115 0 172 9.5t149 45.5q-3 47 -4 135q-1 66 -7.5 94.5t-24.5 47.5q-38 40 -149 52v199q243 86 406 86q164 0 257 -75q94 -76 94 -224q0 -106 -55.5 -186t-186.5 -164q15 -3 43 -13q20 -7 72 -7h363v-209h-389q-250 -3 -328 88q-115 -48 -209.5 -68
t-207.5 -20h-77zM366 653q103 -29 139 -73q40 -50 40 -161v-116q61 29 132 81q102 75 102 165q0 141 -208 141q-87 0 -205 -37z" />
    <glyph glyph-name="uniFECD" unicode="&#x63a;" horiz-adv-x="1166" arabic-form="isolated" 
d="M429 267q-181 65 -181 261q0 171 103.5 260.5t299.5 89.5q192 0 361 -75l-68 -194q-90 38 -149.5 51.5t-132.5 13.5q-238 0 -238 -160q0 -169 265 -169q45 0 200 11q50 3 134 8v-178q-335 -9 -487 -57q-227 -72 -227 -248q0 -108 83.5 -157t265.5 -49q223 0 414 67
l62 -191q-242 -80 -476 -80q-269 0 -402 110q-124 102 -124 285q0 141 76 243t221 158zM562 1047v206h174v-206h-174z" />
    <glyph glyph-name="uniFECE" unicode="&#x63a;" horiz-adv-x="1143" arabic-form="final" 
d="M199 593v199q243 86 405 86q164 0 257 -75q94 -76 94 -224q0 -105 -55.5 -185.5t-186.5 -164.5q15 -3 47 -13q23 -7 68 -7h363v-209h-389q-139 0 -213.5 20.5t-119.5 72.5q-80 -38 -115 -63q-75 -56 -75 -149q0 -206 342 -206q218 0 437 66l63 -191
q-174 -48 -273.5 -63.5t-234.5 -15.5q-256 0 -389 109q-121 99 -121 281q0 130 64 213t225 160q-10 45 -13 157q-1 74 -7 102.5t-25 47.5q-38 40 -148 52zM367 653q102 -29 138 -73q40 -50 40 -161v-116q61 29 132 81q102 76 102 166q0 140 -209 140q-86 0 -203 -37z
M507 1047v206h174v-206h-174z" />
    <glyph glyph-name="uniFECF" unicode="&#x63a;" horiz-adv-x="1102" arabic-form="initial" 
d="M-20 0v209h384q-87 47 -125 95q-66 84 -66 204q0 172 107 272q104 98 300 98q184 0 357 -81l-68 -194q-147 71 -281 71q-239 0 -239 -182q0 -88 58.5 -147.5t180.5 -95.5q136 -40 428 -40l-85 -209h-951zM474 1047v206h174v-206h-174z" />
    <glyph glyph-name="uniFED0" unicode="&#x63a;" horiz-adv-x="1142" arabic-form="medial" 
d="M-20 0v209h82q115 0 172 9.5t149 45.5q-3 47 -4 135q-1 66 -7.5 94.5t-24.5 47.5q-38 40 -149 52v199q243 86 406 86q164 0 257 -75q94 -76 94 -224q0 -106 -55.5 -186t-186.5 -164q15 -3 43 -13q20 -7 72 -7h363v-209h-389q-250 -2 -329 88q-209 -88 -416 -88h-77z
M366 653q103 -29 139 -73q40 -50 40 -161v-116q61 29 132 81q102 75 102 165q0 141 -208 141q-87 0 -205 -37zM508 1047v206h174v-206h-174z" />
    <glyph glyph-name="uniFED1" unicode="&#x641;" horiz-adv-x="1926" arabic-form="isolated" 
d="M223 749l165 -66q-60 -139 -60 -252q0 -133 97 -182q79 -40 287 -40h599q138 0 191 31.5t71 123.5h-130q-213 0 -285 44q-95 58 -95 252q0 103 24 207t64 175q86 153 251 153q191 0 275 -173q79 -162 79 -511q0 -188 -17.5 -273.5t-67.5 -137.5q-73 -77 -210 -94
q-51 -6 -132 -6h-619q-165 0 -265 20t-163 67q-132 95 -132 307q0 167 73 355zM1579 539v25q0 168 -28 269q-22 78 -61.5 122t-87.5 44q-86 0 -130 -124q-32 -89 -32 -190q0 -98 41 -122t207 -24h91zM1315 1333v206h174v-206h-174z" />
    <glyph glyph-name="uniFED2" unicode="&#x641;" horiz-adv-x="1950" arabic-form="final" 
d="M223 750l165 -67q-60 -141 -60 -252q0 -133 97 -182q79 -40 287 -40h423q-45 67 -45 196q0 211 86 339q47 70 104 102t135 32q180 0 281 -171q37 -64 59.5 -157t22.5 -186q0 -60 -18 -91t-72 -64h283v-209h-282q-132 0 -199.5 8.5t-121.5 30.5q-108 -39 -367 -39h-291
q-165 0 -265 20t-163 67q-132 95 -132 307q0 168 73 356zM1417 209q103 0 144 27t41 95q0 139 -59 245q-56 102 -132 102q-64 0 -103 -80.5t-39 -212.5q0 -94 32.5 -132.5t115.5 -43.5zM1327 1047v206h174v-206h-174z" />
    <glyph glyph-name="uniFED3" unicode="&#x641;" horiz-adv-x="1039" arabic-form="initial" 
d="M-20 0v209h444q139 0 192.5 31.5t70.5 123.5h-130q-214 0 -285 44q-95 58 -95 252q0 103 24 206.5t64 175.5q86 153 251 153q119 0 201 -74q89 -80 123 -245q30 -144 30 -363q0 -189 -17.5 -275t-67.5 -138q-73 -77 -210 -94q-51 -6 -133 -6h-462zM693 539v25
q0 168 -28 269q-22 78 -61.5 122t-87.5 44q-86 0 -130 -124q-32 -89 -32 -190q0 -98 41 -122t207 -24h91zM428 1333v206h174v-206h-174z" />
    <glyph glyph-name="uniFED4" unicode="&#x641;" horiz-adv-x="1031" arabic-form="medial" 
d="M-20 0v209h236q-45 67 -45 197q0 210 86 338q46 70 103.5 102t135.5 32q114 0 200 -73q76 -66 119.5 -183t43.5 -257q0 -61 -17.5 -91.5t-72.5 -64.5h283v-209h-282q-132 0 -199 8t-121 31q-108 -39 -368 -39h-102zM498 209q103 0 144.5 27t41.5 95q0 138 -59 245
q-56 102 -132 102q-79 0 -117 -113q-26 -78 -26 -180q0 -93 32.5 -132t115.5 -44zM408 1047v206h174v-206h-174z" />
    <glyph glyph-name="uniFED5" unicode="&#x642;" horiz-adv-x="1584" arabic-form="isolated" 
d="M308 752l163 -77q-134 -287 -134 -517q0 -157 86 -244q93 -95 330 -95q211 0 338 87q58 40 89 94h-79q-215 0 -289 50q-91 63 -91 271q0 106 24 215t63 181q46 83 106 121q59 39 146 39q353 0 353 -655q0 -277 -134 -430q-85 -99 -210 -139q-117 -37 -309 -37
q-231 0 -355 61q-244 121 -244 476q0 295 147 599zM1236 209q1 33 1 46q0 153 -31 256q-50 168 -146 168q-69 0 -115.5 -92.5t-46.5 -228.5q0 -117 67 -137q38 -12 181 -12h90zM866 1047v206h161v-206h-161zM1097 1047v206h161v-206h-161z" />
    <glyph glyph-name="uniFED6" unicode="&#x642;" horiz-adv-x="1589" arabic-form="final" 
d="M1388 0q-32 -119 -109 -208q-86 -99 -210 -138q-119 -38 -310 -38q-231 0 -355 61q-244 121 -244 476q0 296 148 599l163 -77q-135 -286 -135 -517q0 -157 86 -244q93 -95 331 -95q211 0 337 87q59 40 89 94h-78q-216 0 -289 50q-91 63 -91 271q0 106 24 215t63 181
q46 83 106 121q59 39 146 39q193 0 277 -186q35 -77 55.5 -199.5t20.5 -253.5q0 -6 -1 -29h197v-209h-221zM1235 209q1 30 1 46q0 153 -31 256q-50 168 -146 168q-68 0 -114.5 -92.5t-46.5 -228.5q0 -117 67 -137q37 -12 180 -12h90zM866 1047v206h161v-206h-161zM1097 1047
v206h161v-206h-161z" />
    <glyph glyph-name="uniFED7" unicode="&#x642;" horiz-adv-x="1039" arabic-form="initial" 
d="M-20 0v209h444q139 0 192.5 31.5t70.5 123.5h-130q-214 0 -285 44q-95 58 -95 252q0 103 24 206.5t64 175.5q86 153 251 153q119 0 201 -74q89 -80 123 -245q30 -144 30 -363q0 -189 -17.5 -275t-67.5 -138q-73 -77 -210 -94q-51 -6 -133 -6h-462zM693 539v25
q0 168 -28 269q-22 78 -61.5 122t-87.5 44q-86 0 -130 -124q-32 -89 -32 -190q0 -98 41 -122t207 -24h91zM320 1333v206h161v-206h-161zM551 1333v206h161v-206h-161z" />
    <glyph glyph-name="uniFED8" unicode="&#x642;" horiz-adv-x="1031" arabic-form="medial" 
d="M-20 0v209h236q-45 67 -45 197q0 210 86 338q46 70 103.5 102t135.5 32q114 0 200 -73q76 -66 119.5 -183t43.5 -257q0 -61 -17.5 -91.5t-72.5 -64.5h283v-209h-282q-132 0 -199 8t-121 31q-108 -39 -368 -39h-102zM498 209q103 0 144.5 27t41.5 95q0 138 -59 245
q-56 102 -132 102q-79 0 -117 -113q-26 -78 -26 -180q0 -93 32.5 -132t115.5 -44zM305 1047v206h161v-206h-161zM536 1047v206h161v-206h-161z" />
    <glyph glyph-name="uniFED9" unicode="&#x643;" horiz-adv-x="1772" arabic-form="isolated" 
d="M223 750l165 -67q-61 -139 -61 -252q0 -133 98 -182q79 -40 287 -40h444q146 0 190 36t44 156v1104h176v-1142q0 -204 -86 -283.5t-305 -79.5h-465q-165 0 -265 20t-164 67q-132 95 -132 307q0 169 74 356zM637 621h95q0 -66 9.5 -86.5t39.5 -20.5q20 0 29.5 13t31.5 68
q24 61 56 85.5t87 24.5q83 0 115.5 -47.5t33.5 -171.5h-94q0 91 -49 91q-35 0 -60 -64q-20 -55 -33 -76q-34 -50 -113 -50q-86 0 -116.5 49t-31.5 185z" />
    <glyph glyph-name="uniFEDA" unicode="&#x643;" horiz-adv-x="1789" arabic-form="final" 
d="M224 750l165 -67q-61 -140 -61 -252q0 -133 98 -182q79 -40 287 -40h487q117 0 154 30.5t37 127.5v1138h176v-1138q0 -61 8 -87t32 -42q42 -29 150 -29h53v-209h-58q-119 0 -176 14t-97 53q-38 -39 -95.5 -53t-177.5 -14h-495q-166 0 -265.5 20t-163.5 67
q-132 95 -132 307q0 168 74 356zM637 621h95q0 -66 9.5 -86.5t39.5 -20.5q20 0 29.5 13t31.5 68q24 61 56 85.5t87 24.5q83 0 115.5 -47.5t33.5 -171.5h-94q0 91 -49 91q-35 0 -59 -64q-21 -55 -34 -76q-34 -50 -113 -50q-86 0 -116.5 49t-31.5 185z" />
    <glyph glyph-name="uniFEDB" unicode="&#x643;" horiz-adv-x="959" arabic-form="initial" 
d="M-20 0v209h420q137 0 186 29q56 32 56 118q0 69 -47.5 145.5t-127.5 138.5q-166 126 -325 190v204l557 455l110 -141l-499 -398q196 -109 317 -219q192 -173 192 -404q0 -209 -133 -280q-51 -27 -113.5 -37t-178.5 -10h-414z" />
    <glyph glyph-name="uniFEDC" unicode="&#x643;" horiz-adv-x="998" arabic-form="medial" 
d="M724 71q-52 -40 -123.5 -55.5t-206.5 -15.5h-414v209h420q137 0 187 29q56 32 56 118q0 69 -47.5 145.5t-128.5 138.5q-166 127 -325 190v204l557 455l110 -141l-499 -398q242 -134 358 -258t145 -279q23 -116 55 -160q34 -44 107 -44h44v-209h-70q-92 0 -139 15t-86 56z
" />
    <glyph glyph-name="uniFEDD" unicode="&#x644;" horiz-adv-x="1581" arabic-form="isolated" 
d="M308 753l163 -78q-134 -291 -134 -515q0 -147 88 -225q94 -83 305 -83q328 0 421 184q44 89 44 275v1194h176v-1177q0 -310 -83 -450q-82 -139 -250 -195q-118 -40 -303 -40q-211 0 -330 57q-244 116 -244 457q0 290 147 596z" />
    <glyph glyph-name="uniFEDE" unicode="&#x644;" horiz-adv-x="1594" arabic-form="final" 
d="M308 753l163 -78q-71 -160 -102.5 -280.5t-31.5 -235.5q0 -147 88 -225q94 -83 305 -83q328 0 421 185q44 88 44 275v1194h176v-1117q0 -117 37 -147q39 -32 133 -32h74v-209h-70q-119 0 -199 33q-32 -138 -110 -220q-89 -92 -205.5 -131.5t-298.5 -39.5q-208 0 -326 57
q-245 117 -245 457q0 291 147 597z" />
    <glyph glyph-name="uniFEDF" unicode="&#x644;" horiz-adv-x="613" arabic-form="initial" 
d="M-20 0v209h78q93 0 131 35q22 20 28.5 51t6.5 117v1093h176v-1160q0 -192 -71 -268.5t-248 -76.5h-101z" />
    <glyph glyph-name="uniFEE0" unicode="&#x644;" horiz-adv-x="623" arabic-form="medial" 
d="M-20 0v209h53q117 0 154 30.5t37 127.5v1138h176v-1138q0 -61 8 -87t32 -42q42 -29 151 -29h53v-209h-59q-118 0 -175.5 14.5t-97.5 53.5q-40 -39 -97.5 -53.5t-175.5 -14.5h-59z" />
    <glyph glyph-name="uniFEE1" unicode="&#x645;" horiz-adv-x="1545" arabic-form="isolated" 
d="M603 -192l-60 -216q-178 92 -284 235q-129 175 -129 407q0 237 128 379q113 124 311 124q154 0 240 -70q67 -55 67 -144q0 -56 -44 -127q-42 -66 -42 -101q0 -47 48.5 -68t156.5 -21q128 0 164 26q41 30 41 97q0 97 -86.5 187.5t-312.5 231.5l59 205q269 -172 393 -325
t124 -312q0 -168 -87 -242q-90 -76 -294 -76q-216 0 -300 64q-75 56 -75 159q0 73 40 143q36 62 36 89q0 82 -135 82q-114 0 -182 -78q-73 -84 -73 -227q0 -169 118 -290q62 -64 178 -132z" />
    <glyph glyph-name="uniFEE2" unicode="&#x645;" horiz-adv-x="1556" arabic-form="final" 
d="M1295 79q-92 -81 -298 -81q-218 0 -302 64q-75 56 -75 159q0 73 40 143q36 62 36 89q0 82 -135 82q-114 0 -182 -78q-73 -84 -73 -227q0 -169 118 -290q63 -64 179 -132l-60 -216q-178 92 -284 235q-130 174 -130 407q0 237 128 379q113 124 311 124q154 0 240 -70
q67 -55 67 -144q0 -56 -44 -127q-42 -66 -42 -101q0 -47 48.5 -68t156.5 -21q129 0 165 26q41 30 41 97q0 97 -86.5 187.5t-313.5 231.5l59 206q475 -305 511 -564q22 -105 58 -143t112 -38h36v-209h-58q-85 0 -134.5 17.5t-88.5 61.5z" />
    <glyph glyph-name="uniFEE3" unicode="&#x645;" horiz-adv-x="1116" arabic-form="initial" 
d="M-20 0v209h57q74 0 111.5 39t87.5 170l76 199l150 -83l-52 -137q-30 -78 -30 -108q0 -45 44 -64t146 -19q117 0 159 24.5t42 93.5q0 100 -81.5 186t-318.5 236l60 208q264 -169 390.5 -324.5t126.5 -312.5q0 -170 -87 -243q-90 -76 -297 -76q-210 0 -293 65
q-82 -63 -216 -63h-75z" />
    <glyph glyph-name="uniFEE4" unicode="&#x645;" horiz-adv-x="1127" arabic-form="medial" 
d="M852 66q-92 -68 -287 -68q-211 0 -294 65q-82 -63 -216 -63h-75v209h57q74 0 111.5 39t87.5 170l76 199l150 -83l-52 -137q-30 -78 -30 -108q0 -45 44 -64t146 -19q117 0 159 24.5t42 93.5q0 100 -81.5 186t-318.5 236l59 208q276 -176 406 -342q83 -106 113 -247
q19 -90 53.5 -123t108.5 -33h37v-209h-70q-88 0 -138.5 15t-87.5 51z" />
    <glyph glyph-name="uniFEE5" unicode="&#x646;" horiz-adv-x="1546" arabic-form="isolated" 
d="M305 752l163 -77q-73 -166 -103.5 -284t-30.5 -232q0 -143 86 -225q89 -83 302 -83q285 0 396 140q82 103 82 273q0 171 -72 539l191 57q57 -362 57 -574q0 -315 -132 -471q-98 -114 -257 -148q-115 -25 -248 -25q-217 0 -336 57q-245 117 -245 457q0 291 147 596z
M716 1047v206h174v-206h-174z" />
    <glyph glyph-name="uniFEE6" unicode="&#x646;" horiz-adv-x="1559" arabic-form="final" 
d="M1352 41q-30 -136 -108 -226q-100 -115 -257 -148q-115 -25 -248 -25q-217 0 -336 57q-245 116 -245 457q0 292 147 596l163 -77q-73 -165 -103.5 -283t-30.5 -233q0 -143 86 -225q89 -83 302 -83q286 0 397 140q82 103 82 273t-73 539l191 57q45 -285 55 -485
q4 -67 10.5 -93.5t23.5 -42.5q30 -30 116 -30h55v-209h-59q-108 0 -168 41zM716 1047v206h174v-206h-174z" />
    <glyph glyph-name="uniFEE7" unicode="&#x646;" horiz-adv-x="612" arabic-form="initial" 
d="M-20 0v209h52q82 0 124.5 11t67.5 39q45 50 45 146q0 151 -91 357l177 94q92 -241 92 -450q0 -224 -92 -315t-318 -91h-57zM161 1038v205h174v-205h-174z" />
    <glyph glyph-name="uniFEE8" unicode="&#x646;" horiz-adv-x="623" arabic-form="medial" 
d="M-20 0v209h53q117 0 154 30.5t37 127.5v274h176v-274q0 -61 8 -87t32 -42q42 -29 151 -29h53v-209h-59q-118 0 -175.5 14.5t-97.5 53.5q-40 -39 -97.5 -53.5t-175.5 -14.5h-59zM225 847v206h174v-206h-174z" />
    <glyph glyph-name="uniFEE9" unicode="&#x647;" horiz-adv-x="1022" arabic-form="isolated" 
d="M512 880q106 0 175 -48.5t113 -154.5q73 -172 73 -366q0 -174 -83.5 -247t-283.5 -73q-187 0 -270 71q-86 74 -86 248q0 194 72 367q44 105 114 154t176 49zM511 683q-94 0 -138 -98q-18 -41 -32 -115.5t-14 -127.5q0 -81 41 -112t147 -31q110 0 148 37q33 33 33 105
q0 61 -16 139.5t-37 118.5q-43 84 -132 84z" />
    <glyph glyph-name="uniFEEA" unicode="&#x647;" horiz-adv-x="1053" arabic-form="final" 
d="M654 1050l176 40v-725q0 -59 7.5 -86t29.5 -42q39 -28 132 -28h74v-209h-101q-173 0 -245 74q-73 76 -73 271v372q-142 -17 -217 -51q-61 -28 -96.5 -81.5t-35.5 -116.5q0 -88 75.5 -131t267.5 -65l-81 -170q-185 26 -278 76q-94 50 -131 126q-30 61 -30 149
q0 172 104 287q124 136 422 168v142z" />
    <glyph glyph-name="uniFEEB" unicode="&#x647;" horiz-adv-x="1369" arabic-form="initial" 
d="M-20 0v209h287q-82 93 -82 222q0 192 150 286l-103 46l58 198l494 -227q181 -82 235 -110t97 -62q121 -96 121 -250q0 -175 -136 -257q-91 -55 -377 -55h-744zM493 637q-71 0 -112.5 -57.5t-41.5 -156.5q0 -97 42 -155t112 -58q71 0 112.5 58t41.5 156t-41.5 155.5
t-112.5 57.5zM718 209h65q171 0 213 15q66 24 66 95q0 55 -50 91.5t-237 118.5q26 -59 26 -120q0 -116 -83 -200z" />
    <glyph glyph-name="uniFEEC" unicode="&#x647;" horiz-adv-x="1048" arabic-form="medial" 
d="M703 -260q-42 80 -42 157q0 79 36.5 151t95.5 111q77 50 214 50h62v-209h-43q-106 0 -150 -22q-65 -34 -65 -131q0 -56 22 -87.5t99 -82.5l-61 -137q-558 89 -671 460h-220v209h189q-11 86 -11 150q0 238 98 380q96 139 259 139q141 0 215.5 -92t74.5 -265
q0 -279 -126 -414q-54 -57 -117 -80t-180 -27q35 -95 110 -156t211 -104zM345 209h72q117 0 162 67q53 78 53 246q0 157 -127 157q-78 0 -119 -79q-53 -101 -53 -261q0 -53 12 -130z" />
    <glyph glyph-name="uniFEED" unicode="&#x648;" horiz-adv-x="1011" arabic-form="isolated" 
d="M633 0h-105q-215 0 -289 50q-91 63 -91 270q0 106 24.5 215t64.5 183q45 84 104 122q60 39 148 39q351 0 351 -651q0 -242 -78 -389q-41 -77 -96.5 -134.5t-181.5 -152.5l-122 155q126 99 183.5 161.5t87.5 131.5zM663 209q1 35 1 51q0 148 -31 252q-50 168 -146 168
q-69 0 -115.5 -92.5t-46.5 -229.5q0 -117 67 -137q38 -12 181 -12h90z" />
    <glyph glyph-name="uniFEEE" unicode="&#x648;" horiz-adv-x="1021" arabic-form="final" 
d="M820 0q-25 -129 -97.5 -226t-238.5 -222l-122 155q127 99 184.5 161.5t86.5 131.5h-104q-216 0 -289 50q-91 63 -91 270q0 106 24 215t65 183q45 84 104 122q60 39 147 39q191 0 275 -186q76 -167 76 -452v-32h202v-209h-222zM663 209q1 34 1 51q0 145 -31 252
q-23 79 -61.5 123.5t-83.5 44.5q-69 0 -115.5 -92.5t-46.5 -229.5q0 -117 66 -137q38 -12 181 -12h90z" />
    <glyph glyph-name="uniFEEF" unicode="&#x649;" horiz-adv-x="1540" arabic-form="isolated" 
d="M305 748l162 -79q-59 -100 -94.5 -215t-35.5 -204q0 -157 94.5 -219.5t330.5 -62.5q249 0 352 37t103 126q0 49 -30.5 82t-105.5 63q-187 76 -238 117q-94 73 -94 191q0 140 99.5 218t279.5 78q109 0 230 -28l-31 -198q-130 26 -236 26q-167 0 -167 -92q0 -45 35 -76
t128 -69q128 -52 164.5 -71.5t74.5 -58.5q63 -62 63 -180q0 -184 -112 -268q-72 -55 -197 -80.5t-317 -25.5q-240 0 -362 53q-240 103 -240 422q0 258 144 514z" />
    <glyph glyph-name="uniFEF0" unicode="&#x649;" horiz-adv-x="1417" arabic-form="final" 
d="M305 747l161 -78q-58 -97 -94 -213.5t-36 -207.5q0 -153 95 -219q54 -38 137.5 -53.5t232.5 -15.5q416 0 416 111q0 50 -64.5 70.5t-269.5 37.5v190q196 -19 275 -41.5t173 -85.5q29 -20 48.5 -26t58.5 -7v-209h-60q-24 -89 -94 -137q-149 -104 -512 -104
q-343 0 -489 131q-123 109 -123 333q0 271 145 524z" />
    <glyph glyph-name="uniFEF1" unicode="&#x64a;" horiz-adv-x="1540" arabic-form="isolated" 
d="M305 748l162 -79q-59 -99 -94.5 -211t-35.5 -197q0 -134 78 -191q51 -37 130.5 -52.5t214.5 -15.5q255 0 356 31t101 110q0 47 -30.5 78.5t-104.5 60.5q-187 74 -239 114q-94 72 -94 188q0 140 99.5 218t279.5 78q109 0 230 -28l-31 -198q-130 26 -236 26
q-167 0 -167 -92q0 -44 34.5 -74t128.5 -68q130 -52 165.5 -70.5t73.5 -56.5q63 -62 63 -176q0 -174 -112 -251q-73 -51 -198.5 -75t-318.5 -24q-237 0 -358 50q-241 98 -241 402q0 250 144 503zM579 -529v206h161v-206h-161zM810 -529v206h161v-206h-161z" />
    <glyph glyph-name="uniFEF2" unicode="&#x64a;" horiz-adv-x="1417" arabic-form="final" 
d="M305 747l161 -78q-57 -91 -93.5 -204t-36.5 -200q0 -144 95 -206q60 -40 138 -51q103 -14 232 -14q215 0 315.5 20.5t100.5 64.5q0 45 -66 64.5t-268 35.5v190q196 -19 275.5 -41.5t172.5 -85.5q29 -20 48 -26t59 -7v-209h-60q-21 -53 -39.5 -76t-57.5 -45
q-156 -86 -503 -86q-238 0 -370 52q-165 65 -220 212q-28 76 -28 184q0 261 145 506zM575 -529v206h161v-206h-161zM807 -529v206h161v-206h-161z" />
    <glyph glyph-name="uniFEF3" unicode="&#x64a;" horiz-adv-x="612" arabic-form="initial" 
d="M-20 0v209h52q82 0 124.5 11t67.5 39q45 50 45 146q0 151 -91 357l177 94q92 -241 92 -450q0 -224 -92 -315t-318 -91h-57zM66 -364v207h161v-207h-161zM297 -364v207h161v-207h-161z" />
    <glyph glyph-name="uniFEF4" unicode="&#x64a;" horiz-adv-x="623" arabic-form="medial" 
d="M-20 0v209h53q117 0 154 30.5t37 127.5v274h176v-274q0 -61 8 -87t32 -42q42 -29 151 -29h53v-209h-59q-118 0 -175.5 14.5t-97.5 53.5q-40 -39 -97.5 -53.5t-175.5 -14.5h-59zM116 -364v207h161v-207h-161zM347 -364v207h161v-207h-161z" />
    <glyph glyph-name=".notdef" horiz-adv-x="614" 
d="M61 0v1475h492v-1475h-492zM492 61v1353h-370v-1353h370z" />
    <glyph glyph-name="glyph1" horiz-adv-x="0" 
 />
    <glyph glyph-name="glyph2" horiz-adv-x="614" 
 />
    <glyph glyph-name="space" unicode=" " horiz-adv-x="614" 
 />
    <glyph glyph-name="exclam" unicode="!" horiz-adv-x="584" 
d="M174 0v238h236v-238h-236zM215 492l-41 983h236l-41 -983h-154z" />
    <glyph glyph-name="quotedbl" unicode="&#x22;" 
d="M338 1004h-143l-31 313v188h205v-188zM665 1004h-143l-31 313v188h205v-188z" />
    <glyph glyph-name="numbersign" unicode="#" 
d="M82 1065h174l33 369h172l-33 -369h432l33 369h172l-33 -369h156v-154h-170l-33 -388h162v-154h-176l-31 -369h-172l31 369h-432l-31 -369h-172l31 369h-154v154h168l33 388h-160v154zM381 523h432l33 388h-432z" />
    <glyph glyph-name="dollar" unicode="$" 
d="M528 -24q-201 23 -325.5 133.5t-151.5 289.5h215q45 -258 356 -258q174 0 261 72q85 70 85 177q0 109 -93 170q-90 58 -347 126q-225 59 -325.5 155t-100.5 251q0 153 112.5 250t313.5 118v240h182v-240q204 -23 315.5 -117t141.5 -266h-215q-23 112 -107 163.5
t-243 51.5q-154 0 -223 -54q-68 -53 -68 -134q0 -92 71 -144q81 -58 293 -113q263 -67 382.5 -174t119.5 -275q0 -171 -128 -287t-339 -137v-250h-182v252z" />
    <glyph glyph-name="percent" unicode="%" horiz-adv-x="1722" 
d="M420 1465q156 0 253 -96.5t97 -250.5q0 -153 -97.5 -249t-252.5 -96t-251.5 96t-96.5 250t96.5 250t251.5 96zM420 1322q-88 0 -135 -52.5t-47 -150.5t47 -150.5t135 -52.5q89 0 137.5 53t48.5 150q0 110 -55 157q-54 46 -131 46zM561 0h-196l782 1434h197zM1301 662
q156 0 253 -96.5t97 -250.5q0 -153 -97.5 -249.5t-252.5 -96.5t-251.5 96.5t-96.5 249.5q0 154 96.5 250.5t251.5 96.5zM1301 519q-88 0 -135 -52.5t-47 -150.5q0 -101 44 -148q51 -56 138 -56q89 0 137.5 53t48.5 151q0 109 -55 157q-53 46 -131 46z" />
    <glyph glyph-name="ampersand" unicode="&#x26;" horiz-adv-x="1403" 
d="M1280 674q-28 -212 -139 -387l201 -189l-146 -129l-176 170q-185 -170 -435 -170q-226 0 -364.5 106.5t-138.5 280.5q0 137 65.5 227.5t233.5 186.5q-115 121 -151.5 187t-36.5 155q0 145 115.5 249t275.5 104q168 0 280 -100q105 -95 105 -222q0 -256 -301 -407
l342 -324q67 132 90 285zM897 260l-399 391q-116 -66 -163.5 -130t-47.5 -152q0 -110 82 -170t231 -60q169 0 297 121zM543 854q133 72 187.5 136t54.5 150q0 72 -55.5 118.5t-141.5 46.5q-91 0 -148 -52.5t-57 -135.5q0 -67 31.5 -118.5t128.5 -144.5z" />
    <glyph glyph-name="quotesingle" unicode="'" horiz-adv-x="553" 
d="M348 1004h-143l-31 313v188h205v-188z" />
    <glyph glyph-name="parenleft" unicode="(" horiz-adv-x="696" 
d="M635 -348h-162q-164 217 -252 476.5t-88 526.5q0 268 88 527.5t252 476.5h162q-303 -472 -303 -1008q0 -527 303 -999z" />
    <glyph glyph-name="parenright" unicode=")" horiz-adv-x="696" 
d="M61 1659h162q164 -218 252 -477t88 -527q0 -267 -88 -526.5t-252 -476.5h-162q303 472 303 1008q0 527 -303 999z" />
    <glyph glyph-name="asterisk" unicode="*" horiz-adv-x="963" 
d="M534 1203l277 127l59 -172l-301 -62l205 -221l-147 -107l-148 263l-149 -265l-146 109l205 223l-297 60l59 172l273 -125l-35 300h180z" />
    <glyph glyph-name="plus" unicode="+" 
d="M522 571h-338v174h338v345h186v-345h336v-174h-336v-342h-186v342z" />
    <glyph glyph-name="comma" unicode="," horiz-adv-x="614" 
d="M158 -307v102q67 16 96.5 63.5t30.5 141.5h-96v238h237v-207q0 -145 -70 -233.5t-198 -104.5z" />
    <glyph glyph-name="hyphen" unicode="-" horiz-adv-x="1106" 
d="M184 574v174h737v-174h-737z" />
    <glyph glyph-name="period" unicode="." horiz-adv-x="614" 
d="M188 0v238h238v-238h-238z" />
    <glyph glyph-name="slash" unicode="/" horiz-adv-x="819" 
d="M571 1505h186l-510 -1689h-186z" />
    <glyph glyph-name="zero" unicode="0" 
d="M614 1300q-159 0 -235 -141.5t-76 -438.5q0 -301 77 -445q76 -142 235 -142q158 0 234 144.5t76 442.5q0 302 -77 441q-76 139 -234 139zM614 1465q246 0 379 -193.5t133 -549.5q0 -370 -146 -569q-135 -184 -367 -184q-240 0 -375.5 199t-135.5 554q0 377 147 569
q135 174 365 174z" />
    <glyph glyph-name="one" unicode="1" 
d="M593 0v1229l-321 -166v203l323 168h193v-1434h-195z" />
    <glyph glyph-name="two" unicode="2" 
d="M123 1059q30 187 165.5 296.5t338.5 109.5q208 0 337.5 -113.5t129.5 -295.5q0 -138 -72.5 -257.5t-269.5 -307.5l-328 -311h664v-180h-930v180l467 449q156 149 212 238.5t56 187.5q0 114 -72 179t-198 65t-202 -62t-91 -178h-207z" />
    <glyph glyph-name="three" unicode="3" 
d="M100 356h209q54 -221 303 -221q145 0 228 70t83 192q0 121 -77.5 195t-204.5 74h-119v170h115q103 0 170 67.5t67 171.5q0 102 -75.5 164t-200.5 62q-117 0 -192 -53.5t-95 -151.5h-207q27 168 164.5 268.5t340.5 100.5q210 0 338 -102.5t128 -270.5q0 -115 -68 -202.5
t-190 -127.5q141 -29 224 -129t83 -242q0 -188 -140 -304t-369 -116q-217 0 -350.5 99.5t-164.5 285.5z" />
    <glyph glyph-name="four" unicode="4" 
d="M909 1434v-996h232v-168h-232v-270h-190v270h-629v182l615 982h204zM719 438v678l-410 -678h410z" />
    <glyph glyph-name="five" unicode="5" 
d="M313 348q25 -101 104 -157t197 -56q143 0 228 92t85 247q0 158 -84 242q-83 83 -221 83q-175 0 -289 -131h-174l31 766h881v-166h-703l-16 -420q131 105 312 105q209 0 337.5 -134t128.5 -352q0 -220 -144 -359t-371 -139q-199 0 -339 104t-172 275h209z" />
    <glyph glyph-name="six" unicode="6" 
d="M1097 1161h-217q-43 144 -215 144q-295 0 -327 -554q58 90 147 138.5t196 48.5q201 0 323 -132t122 -349q0 -232 -152 -368q-133 -120 -331 -120q-246 0 -373 176t-127 521q0 436 162 637q130 162 361 162q167 0 279.5 -79.5t151.5 -224.5zM644 774q-130 0 -208 -85.5
t-78 -228.5t68 -225q84 -102 221 -102q127 0 203.5 86.5t76.5 228.5q0 151 -76 238.5t-207 87.5z" />
    <glyph glyph-name="seven" unicode="7" 
d="M479 0h-223l600 1258h-702v176h911v-176z" />
    <glyph glyph-name="eight" unicode="8" 
d="M848 764q288 -130 288 -377q0 -186 -145 -302t-377 -116q-234 0 -378 114t-144 291q0 130 72 227t209 151q-110 49 -169 134.5t-59 194.5q0 176 127 280t341 104q218 0 344 -99t126 -269q0 -204 -235 -333zM571 690q-131 -39 -200.5 -117t-69.5 -185q0 -118 84.5 -187.5
t227.5 -69.5q150 0 232 67.5t82 191.5q0 146 -118 220q-40 26 -87.5 42t-150.5 38zM655 815q107 40 169 114t62 162q0 97 -76.5 158.5t-195.5 61.5q-127 0 -201.5 -60t-74.5 -162q0 -139 113 -211q67 -43 204 -63z" />
    <glyph glyph-name="nine" unicode="9" 
d="M163 276h218q47 -147 224 -147q152 0 230.5 132.5t93.5 418.5q-120 -185 -341 -185q-201 0 -323 131.5t-122 349.5q0 219 138 356q135 133 343 133q502 0 502 -696q0 -800 -529 -800q-167 0 -280.5 80.5t-153.5 226.5zM623 1301q-126 0 -203.5 -86.5t-77.5 -228.5
q0 -151 76 -239t207 -88q130 0 208 85.5t78 228.5q0 142 -68 226q-83 102 -220 102z" />
    <glyph glyph-name="colon" unicode=":" horiz-adv-x="614" 
d="M188 0v238h238v-238h-238zM188 827v238h238v-238h-238z" />
    <glyph glyph-name="semicolon" unicode=";" horiz-adv-x="614" 
d="M189 827v238h238v-238h-238zM158 -307v102q67 16 96.5 63.5t30.5 141.5h-96v238h237v-207q0 -145 -70 -233.5t-198 -104.5z" />
    <glyph glyph-name="less" unicode="&#x3c;" 
d="M379 655l665 -284v-197l-860 389v195l860 389v-197l-665 -284v-11z" />
    <glyph glyph-name="equal" unicode="=" 
d="M184 362v174h860v-174h-860zM184 782v174h860v-174h-860z" />
    <glyph glyph-name="greater" unicode="&#x3e;" 
d="M850 666l-666 284v197l860 -389v-195l-860 -389v197l666 284v11z" />
    <glyph glyph-name="question" unicode="?" horiz-adv-x="1194" 
d="M471 0v238h236v-238h-236zM487 428q0 179 52.5 274t189.5 167q90 47 131 107t41 146q0 98 -74.5 155t-202.5 57q-138 0 -212 -57t-97 -181h-213q33 184 144 283q144 127 383 127q219 0 353 -112q130 -108 130 -271q0 -132 -72 -233.5t-229 -190.5q-75 -43 -101.5 -99
t-27.5 -172h-195z" />
    <glyph glyph-name="at" unicode="@" horiz-adv-x="1855" 
d="M1116 385q-36 -71 -120.5 -120.5t-168.5 -49.5q-146 0 -231.5 96.5t-85.5 260.5q0 254 116.5 407t310.5 153q69 0 120.5 -31t75.5 -87l37 104h145l-76 -582q-6 -47 -6 -83q0 -109 98 -109q99 0 166.5 134.5t67.5 332.5q0 251 -177 399q-169 140 -438 140
q-124 0 -237.5 -41.5t-199.5 -117.5q-223 -199 -223 -550q0 -325 212 -507q185 -160 462 -160q157 0 312 53v-160q-151 -53 -329 -53q-167 0 -318 53t-265 152q-262 227 -262 624q0 213 74.5 385t215.5 285q240 193 555 193q156 0 301.5 -46t253.5 -129q251 -194 251 -513
q0 -262 -113 -440q-118 -183 -299 -183q-82 0 -147.5 55t-77.5 135zM956 985q-120 0 -190 -111.5t-70 -302.5q0 -95 45.5 -149.5t124.5 -54.5q106 0 169 115.5t63 310.5q0 101 -33.5 146.5t-108.5 45.5z" />
    <glyph glyph-name="A" unicode="A" horiz-adv-x="1446" 
d="M1214 0l-145 373h-702l-148 -373h-219l606 1475h236l604 -1475h-232zM434 543h567l-280 723z" />
    <glyph glyph-name="B" unicode="B" horiz-adv-x="1335" 
d="M961 780q125 -24 204 -125.5t79 -239.5q0 -202 -145 -308.5t-419 -106.5h-526v1475h531q231 0 360 -85q154 -103 154 -305q0 -105 -68.5 -192.5t-169.5 -112.5zM363 692v-522h348q316 0 316 249q0 273 -308 273h-356zM363 1317v-465h350q131 0 203 61t72 171
q0 111 -75 172t-212 61h-338z" />
    <glyph glyph-name="C" unicode="C" horiz-adv-x="1493" 
d="M1200 520h211q-15 -217 -170 -368q-189 -183 -474 -183q-315 0 -495 205t-180 563q0 365 195 571q187 198 496 198q254 0 429 -141.5t197 -363.5h-211q-23 141 -110 223q-115 108 -303 108q-228 0 -354 -156t-126 -439q0 -281 129 -439q125 -153 338 -153
q177 0 297.5 105.5t130.5 269.5z" />
    <glyph glyph-name="D" unicode="D" horiz-adv-x="1450" 
d="M154 0v1475h479q349 0 537 -190.5t188 -543.5q0 -355 -207 -551q-199 -190 -532 -190h-465zM363 1309v-1137h277q244 0 375 142q132 144 132 425q0 276 -132 423t-380 147h-272z" />
    <glyph glyph-name="E" unicode="E" horiz-adv-x="1176" 
d="M1014 664h-651v-488h711v-176h-920v1475h920v-176h-711v-463h651v-172z" />
    <glyph glyph-name="F" unicode="F" horiz-adv-x="1149" 
d="M985 623h-622v-623h-209v1475h903v-176h-694v-502h622v-174z" />
    <glyph glyph-name="G" unicode="G" horiz-adv-x="1511" 
d="M1380 0h-153l-29 176q-151 -207 -452 -207q-297 0 -475.5 210.5t-178.5 560.5q0 364 198 573q182 193 479 193q242 0 410.5 -128.5t198.5 -335.5h-204q-34 141 -138 215.5t-266 74.5q-216 0 -340.5 -158t-124.5 -432q0 -285 142 -450q130 -151 325 -151q179 0 299.5 106
t120.5 263v115h-432v168h620v-793z" />
    <glyph glyph-name="H" unicode="H" horiz-adv-x="1448" 
d="M1295 1475v-1475h-211v658h-721v-658h-209v1475h209v-641h721v641h211z" />
    <glyph glyph-name="I" unicode="I" horiz-adv-x="516" 
d="M363 1475v-1475h-209v1475h209z" />
    <glyph glyph-name="J" unicode="J" horiz-adv-x="1106" 
d="M262 414q15 -269 249 -269q116 0 179 75t63 214v1041h209v-1043q0 -223 -119 -343q-118 -120 -338 -120q-213 0 -343 145q-109 123 -111 300h211z" />
    <glyph glyph-name="K" unicode="K" horiz-adv-x="1294" 
d="M1008 0l-645 695v-695h-209v1475h209v-656l600 656h258l-670 -705l734 -770h-277z" />
    <glyph glyph-name="L" unicode="L" horiz-adv-x="1130" 
d="M365 1475v-1289h694v-186h-905v1475h211z" />
    <glyph glyph-name="M" unicode="M" horiz-adv-x="1784" 
d="M812 0l-455 1155v-1155h-203v1475h291l469 -1229l442 1229h275v-1475h-197v1145l-426 -1145h-196z" />
    <glyph glyph-name="N" unicode="N" horiz-adv-x="1473" 
d="M1319 1475v-1475h-264l-711 1235v-1235h-190v1475h276l703 -1225v1225h186z" />
    <glyph glyph-name="O" unicode="O" horiz-adv-x="1585" 
d="M795 1506q308 0 495 -194q203 -210 203 -574q0 -358 -201 -568q-192 -201 -502 -201q-296 0 -483 182q-215 210 -215 587q0 359 206 570q193 198 497 198zM793 1336q-227 0 -357.5 -160t-130.5 -438q0 -279 130.5 -439t358.5 -160q225 0 355.5 160.5t130.5 438.5
t-130.5 438t-356.5 160z" />
    <glyph glyph-name="P" unicode="P" horiz-adv-x="1292" 
d="M363 526v-526h-209v1475h479q254 0 400 -100q178 -121 178 -378q0 -228 -146 -349q-148 -122 -440 -122h-262zM363 1305v-609h266q196 0 281 77q84 76 84 222q0 150 -92 230t-265 80h-274z" />
    <glyph glyph-name="Q" unicode="Q" horiz-adv-x="1585" 
d="M1249 131l238 -297l-168 -110l-217 311q-149 -66 -311 -66q-297 0 -484 182q-215 210 -215 587q0 359 206 570q193 198 497 198q308 0 495 -194q203 -210 203 -574q0 -388 -244 -607zM793 1336q-227 0 -357.5 -160t-130.5 -438q0 -279 130.5 -439t358.5 -160
q225 0 355.5 160.5t130.5 438.5t-130.5 438t-356.5 160z" />
    <glyph glyph-name="R" unicode="R" horiz-adv-x="1335" 
d="M1070 0l-357 561h-350v-561h-209v1475h477q283 0 434 -120q150 -120 150 -342q0 -146 -75.5 -250t-221.5 -159l397 -604h-245zM363 1305v-574h279q170 0 263 74t93 209q0 291 -363 291h-272z" />
    <glyph glyph-name="S" unicode="S" horiz-adv-x="1337" 
d="M1235 1106h-215q-41 228 -368 228q-152 0 -236 -52.5t-84 -147.5q0 -52 18 -85.5t61 -61.5q78 -52 308 -116q295 -83 411 -184.5t116 -275.5q0 -194 -161 -318t-412 -124q-243 0 -406.5 121t-194.5 324h215q23 -134 120 -203.5t261 -69.5q167 0 268 71t101 188
q0 58 -19.5 96.5t-63.5 68.5q-92 64 -382 144q-247 68 -348 161.5t-101 254.5q0 173 143.5 277t383.5 104q243 0 398.5 -106t186.5 -294z" />
    <glyph glyph-name="T" unicode="T" horiz-adv-x="1235" 
d="M1214 1289h-496v-1289h-209v1289h-489v186h1194v-186z" />
    <glyph glyph-name="U" unicode="U" horiz-adv-x="1448" 
d="M352 1475v-1000q0 -155 99.5 -242.5t274.5 -87.5q182 0 279 91q96 91 96 239v1000h203v-981q0 -241 -156.5 -383t-422.5 -142t-424 143q-158 142 -158 382v981h209z" />
    <glyph glyph-name="V" unicode="V" horiz-adv-x="1325" 
d="M1325 1475l-528 -1475h-260l-537 1475h221l447 -1278l452 1278h205z" />
    <glyph glyph-name="W" unicode="W" horiz-adv-x="1972" 
d="M1962 1475l-389 -1475h-242l-334 1250l-344 -1250h-256l-387 1475h213l313 -1227l338 1227h260l320 -1223l315 1223h193z" />
    <glyph glyph-name="X" unicode="X" horiz-adv-x="1335" 
d="M784 768l530 -768h-250l-395 596l-413 -596h-236l532 762l-495 713h246l374 -549l383 549h238z" />
    <glyph glyph-name="Y" unicode="Y" horiz-adv-x="1288" 
d="M541 0v586l-541 889h229l416 -709l430 709h213l-540 -889v-586h-207z" />
    <glyph glyph-name="Z" unicode="Z" horiz-adv-x="1309" 
d="M328 180h878v-180h-1124v182l897 1113h-850v180h1098v-176z" />
    <glyph glyph-name="bracketleft" unicode="[" horiz-adv-x="696" 
d="M584 -348h-430v2007h430v-164h-242v-1679h242v-164z" />
    <glyph glyph-name="backslash" unicode="\" horiz-adv-x="819" 
d="M757 -184h-186l-510 1689h186z" />
    <glyph glyph-name="bracketright" unicode="]" horiz-adv-x="696" 
d="M113 -184h242v1679h-242v164h430v-2007h-430v164z" />
    <glyph glyph-name="asciicircum" unicode="^" horiz-adv-x="1024" 
d="M266 819h-213l367 656h184l367 -656h-213l-246 457z" />
    <glyph glyph-name="underscore" unicode="_" 
d="M61 -266v174h1106v-174h-1106z" />
    <glyph glyph-name="grave" unicode="`" horiz-adv-x="586" 
d="M524 1225h-176l-287 280h254z" />
    <glyph glyph-name="a" unicode="a" horiz-adv-x="1126" 
d="M103 768q22 157 140.5 242.5t315.5 85.5q202 0 318 -99t116 -270v-727h-161l-25 145q-132 -176 -355 -176q-168 0 -269 83.5t-101 222.5q0 148 97 233t307 121l311 53v53q0 99 -63.5 152t-182.5 53q-213 0 -239 -172h-209zM797 528l-264 -47q-131 -23 -186.5 -65.5
t-55.5 -120.5q0 -160 206 -160q121 0 210.5 76.5t89.5 179.5v137z" />
    <glyph glyph-name="b" unicode="b" horiz-adv-x="1247" 
d="M143 0v1475h197v-557q126 178 355 178q219 0 344.5 -148.5t125.5 -406.5q0 -273 -136 -425q-132 -147 -347 -147q-220 0 -346 172l-31 -141h-162zM652 928q-147 0 -234.5 -105t-87.5 -281q0 -191 88 -298q87 -107 233 -107q150 0 229.5 105t79.5 305q0 178 -82 279.5
t-226 101.5z" />
    <glyph glyph-name="c" unicode="c" horiz-adv-x="1135" 
d="M1053 342q-25 -168 -153 -270.5t-314 -102.5q-230 0 -367 151.5t-137 405.5q0 262 136 416t367 154q188 0 308.5 -91t151.5 -255h-218q-45 180 -239 180q-142 0 -219.5 -106.5t-77.5 -301.5q0 -181 80 -284t220 -103q101 0 164.5 53.5t82.5 153.5h215z" />
    <glyph glyph-name="d" unicode="d" horiz-adv-x="1247" 
d="M942 0l-35 150q-126 -181 -354 -181q-216 0 -343.5 151t-127.5 407q0 275 135 427q127 142 348 142q215 0 342 -166v545h197v-1475h-162zM596 928q-150 0 -229.5 -105t-79.5 -303q0 -177 83 -280t226 -103q147 0 234 105t87 282q0 193 -87 298q-87 106 -234 106z" />
    <glyph glyph-name="e" unicode="e" horiz-adv-x="1186" 
d="M1081 307q-46 -160 -171.5 -249t-305.5 -89q-245 0 -383.5 149.5t-138.5 413.5q0 269 145 422q136 142 368 142q244 0 370 -153t129 -454h-811q14 -171 87 -252q91 -102 240 -102q95 0 163.5 46t94.5 126h213zM291 645h602q-11 138 -77 207q-80 86 -217 86
q-127 0 -205 -74t-103 -219z" />
    <glyph glyph-name="f" unicode="f" horiz-adv-x="659" 
d="M670 1311q-100 25 -160 25q-54 0 -84 -29t-30 -80v-162h229v-168h-229v-897h-197v897h-158v168h158v150q0 133 81.5 212t219.5 79q71 0 170 -25v-170z" />
    <glyph glyph-name="g" unicode="g" horiz-adv-x="1247" 
d="M342 -72q35 -172 264 -172q147 0 224 70.5t77 206.5v137q-119 -139 -351 -139q-210 0 -342 147t-132 380q0 247 131 392.5t352 145.5t346 -172l32 141h161v-1042q0 -194 -134 -308.5t-361 -114.5q-203 0 -324 83t-154 245h211zM597 928q-146 0 -228 -98t-82 -273
q0 -162 85.5 -260t226.5 -98q150 0 234.5 93t84.5 257q0 185 -90 283q-88 96 -231 96z" />
    <glyph glyph-name="h" unicode="h" horiz-adv-x="1161" 
d="M143 0v1475h197v-531q124 152 313 152q178 0 276.5 -105.5t98.5 -296.5v-694h-197v692q0 236 -227 236q-118 0 -191 -76.5t-73 -202.5v-649h-197z" />
    <glyph glyph-name="i" unicode="i" horiz-adv-x="483" 
d="M131 1243v232h221v-232h-221zM143 0v1065h197v-1065h-197z" />
    <glyph glyph-name="j" unicode="j" horiz-adv-x="483" 
d="M-100 -213q6 -1 21 -5q62 -13 102 -13q67 0 93.5 29.5t26.5 105.5v1161h197v-1171q0 -137 -76 -215t-209 -78q-72 0 -155 24v162zM132 1243v232h221v-232h-221z" />
    <glyph glyph-name="k" unicode="k" horiz-adv-x="1065" 
d="M143 0v1475h197v-824l418 414h258l-479 -463l538 -602h-262l-473 537v-537h-197z" />
    <glyph glyph-name="l" unicode="l" horiz-adv-x="483" 
d="M340 0h-197v1475h197v-1475z" />
    <glyph glyph-name="m" unicode="m" horiz-adv-x="1792" 
d="M143 0v1065h162l21 -125q110 156 313 156q218 0 313 -168q110 168 346 168q173 0 267 -99.5t94 -283.5v-713h-197v698q0 119 -49.5 174.5t-155.5 55.5q-111 0 -184.5 -79.5t-73.5 -199.5v-649h-197v698q0 118 -50 174t-154 56q-109 0 -183.5 -78.5t-74.5 -194.5v-655
h-197z" />
    <glyph glyph-name="n" unicode="n" horiz-adv-x="1161" 
d="M143 0v1065h162l23 -135q124 166 325 166q178 0 276.5 -105.5t98.5 -296.5v-694h-197v692q0 236 -226 236q-116 0 -190.5 -76t-74.5 -195v-657h-197z" />
    <glyph glyph-name="o" unicode="o" horiz-adv-x="1214" 
d="M608 1096q245 0 385 -150.5t140 -412.5q0 -270 -151 -422q-141 -142 -375 -142q-242 0 -383.5 152.5t-141.5 413.5q0 258 142 409q141 152 384 152zM609 936q-148 0 -235 -108.5t-87 -293.5q0 -188 87 -296.5t237 -108.5q149 0 233 107t84 296q0 187 -85.5 295.5
t-233.5 108.5z" />
    <glyph glyph-name="p" unicode="p" horiz-adv-x="1247" 
d="M305 1065l31 -139q137 170 360 170q218 0 343.5 -148.5t125.5 -406.5q0 -273 -136 -424q-133 -148 -348 -148q-221 0 -341 168v-506h-197v1434h162zM652 928q-147 0 -234.5 -105t-87.5 -281q0 -191 88 -298q87 -107 233 -107q150 0 229.5 105t79.5 305q0 178 -82 279.5
t-226 101.5z" />
    <glyph glyph-name="q" unicode="q" horiz-adv-x="1247" 
d="M1104 1065v-1434h-197v516q-124 -178 -354 -178q-216 0 -343.5 151t-127.5 407q0 276 135 427q128 142 348 142q225 0 348 -160l29 129h162zM596 928q-150 0 -229.5 -105t-79.5 -303q0 -177 83 -280t226 -103q147 0 234 105t87 282q0 193 -87 298q-87 106 -234 106z" />
    <glyph glyph-name="r" unicode="r" horiz-adv-x="729" 
d="M143 0v1065h162l27 -158q51 100 115 144.5t158 44.5q39 0 79 -8q10 -2 34 -7v-196q-65 18 -122 18q-124 0 -190 -95.5t-66 -272.5v-535h-197z" />
    <glyph glyph-name="s" unicode="s" horiz-adv-x="1047" 
d="M956 784h-201q-38 156 -240 156q-99 0 -154.5 -34t-55.5 -96q0 -65 50.5 -98t197.5 -65q225 -49 318 -126.5t93 -215.5q0 -154 -120 -245t-323 -91q-201 0 -320.5 87.5t-139.5 248.5h201q18 -94 79.5 -137t180.5 -43q113 0 178 44t65 121q0 81 -75 123q-50 29 -217 68
q-171 40 -246 88q-121 78 -121 223q0 144 108.5 224t302.5 80q184 0 296 -79.5t143 -232.5z" />
    <glyph glyph-name="t" unicode="t" horiz-adv-x="659" 
d="M619 -10q-79 -21 -144 -21q-136 0 -211 77.5t-75 217.5v633h-158v168h158l12 256h185v-256h229v-168h-229v-637q0 -119 112 -119q46 0 111 14l10 3v-168z" />
    <glyph glyph-name="u" unicode="u" horiz-adv-x="1153" 
d="M330 1065v-698q0 -230 221 -230q118 0 190 76.5t72 202.5v649h197v-1065h-162l-23 123q-117 -154 -320 -154q-176 0 -274 105.5t-98 296.5v694h197z" />
    <glyph glyph-name="v" unicode="v" horiz-adv-x="1053" 
d="M1032 1065l-375 -1065h-266l-371 1065h215l295 -905l297 905h205z" />
    <glyph glyph-name="w" unicode="w" horiz-adv-x="1659" 
d="M1628 1065l-311 -1065h-227l-258 842l-254 -842h-236l-311 1065h205l229 -856l254 856h236l250 -852l227 852h196z" />
    <glyph glyph-name="x" unicode="x" horiz-adv-x="1083" 
d="M645 567l417 -567h-239l-289 412l-283 -412h-231l397 553l-372 512h235l254 -358l242 358h225z" />
    <glyph glyph-name="y" unicode="y" horiz-adv-x="1053" 
d="M186 -381v160q58 -14 101 -14q63 0 101 47.5t87 187.5h-64l-391 1065h213l301 -905l301 905h197l-371 -1079q-67 -195 -122 -269q-86 -116 -227 -116q-45 0 -101 12q-17 4 -25 6z" />
    <glyph glyph-name="z" unicode="z" horiz-adv-x="987" 
d="M293 168h632v-168h-864v186l633 713h-602v166h833v-186z" />
    <glyph glyph-name="braceleft" unicode="{" horiz-adv-x="696" 
d="M61 745q91 2 139.5 48.5t48.5 132.5v381q0 181 89.5 265t285.5 87v-154q-108 0 -148.5 -40.5t-40.5 -147.5v-359q0 -121 -41.5 -193t-132.5 -108q91 -35 132.5 -107t41.5 -194v-358q0 -107 40.5 -147.5t148.5 -40.5v-154q-186 2 -271 73q-104 87 -104 279v381
q0 86 -48.5 132.5t-139.5 47.5v176z" />
    <glyph glyph-name="bar" unicode="|" horiz-adv-x="737" 
d="M457 1608v-1895h-176v1895h176z" />
    <glyph glyph-name="braceright" unicode="}" horiz-adv-x="696" 
d="M635 569q-91 -1 -140 -47.5t-49 -132.5v-381q0 -181 -89.5 -265t-284.5 -87v154q107 0 147.5 40.5t40.5 147.5v358q0 122 41.5 193.5t132.5 107.5q-91 37 -132.5 108.5t-41.5 192.5v359q0 107 -40.5 147.5t-147.5 40.5v154q195 -3 284.5 -87t89.5 -265v-381
q0 -86 49 -132.5t140 -48.5v-176z" />
    <glyph glyph-name="asciitilde" unicode="~" 
d="M184 537v186q108 82 247 82q92 0 214 -62q59 -29 93.5 -40t71.5 -11q124 0 234 92v-186q-50 -38 -116 -60t-131 -22q-93 0 -204 57q-4 2 -26 12l-16 8q-81 36 -134 36q-124 0 -233 -92z" />
    <glyph glyph-name="Adieresis" unicode="&#xc4;" horiz-adv-x="1446" 
d="M1214 0l-145 373h-702l-148 -373h-219l606 1475h236l604 -1475h-232zM434 543h567l-280 723zM383 1618v205h213v-205h-213zM846 1618v205h213v-205h-213z" />
    <glyph glyph-name="Aring" unicode="&#xc5;" horiz-adv-x="1446" 
d="M860 1428l586 -1428h-232l-145 373h-702l-148 -373h-219l584 1420q-67 31 -102.5 87.5t-35.5 131.5q0 111 73.5 178.5t194.5 67.5t196 -68.5t75 -178.5q0 -139 -125 -210zM434 543h567l-280 723zM714 1768q-59 0 -94 -34.5t-35 -94.5t35 -94.5t94 -34.5q61 0 96.5 35
t35.5 94t-35.5 94t-96.5 35z" />
    <glyph glyph-name="Ccedilla" unicode="&#xc7;" horiz-adv-x="1493" 
d="M506 -303h154q6 -37 37 -59.5t74 -22.5q52 0 81.5 25.5t29.5 70.5q0 54 -44 78t-148 25l15 157q-274 24 -431 200q-182 204 -182 567q0 364 195 570q187 198 496 198q254 0 429 -141t197 -364h-211q-22 141 -110 223q-115 108 -303 108q-228 0 -354 -156t-126 -439
q0 -281 129 -439q125 -153 339 -153q176 0 296.5 105.5t130.5 269.5h211q-17 -218 -172.5 -369t-390.5 -178v-59q186 -44 186 -200q0 -100 -72.5 -162t-190.5 -62q-108 0 -177 54t-88 153z" />
    <glyph glyph-name="Eacute" unicode="&#xc9;" horiz-adv-x="1176" 
d="M1014 664h-651v-488h711v-176h-920v1475h920v-176h-711v-463h651v-172zM682 1853h254l-286 -280h-177z" />
    <glyph glyph-name="Ntilde" unicode="&#xd1;" horiz-adv-x="1473" 
d="M1319 1475v-1475h-264l-711 1235v-1235h-190v1475h276l703 -1225v1225h186zM457 1599v166q94 68 183 68q66 0 138 -42q62 -36 106 -36q38 0 73.5 16.5t93.5 61.5v-166q-56 -40 -92.5 -54t-83.5 -14q-64 0 -130 39q-15 9 -24 14q-9 4 -13 6q-35 19 -76 19q-74 0 -175 -78z
" />
    <glyph glyph-name="Odieresis" unicode="&#xd6;" horiz-adv-x="1585" 
d="M795 1506q308 0 495 -194q203 -210 203 -574q0 -358 -201 -568q-192 -201 -502 -201q-296 0 -483 182q-215 210 -215 587q0 359 206 570q193 198 497 198zM793 1336q-227 0 -357.5 -160t-130.5 -438q0 -279 130.5 -439t358.5 -160q225 0 355.5 160.5t130.5 438.5
t-130.5 438t-356.5 160zM434 1618v205h213v-205h-213zM897 1618v205h213v-205h-213z" />
    <glyph glyph-name="Udieresis" unicode="&#xdc;" horiz-adv-x="1448" 
d="M352 1475v-1000q0 -155 99.5 -242.5t274.5 -87.5q182 0 279 91q96 91 96 239v1000h203v-981q0 -241 -156.5 -383t-422.5 -142t-424 143q-158 142 -158 382v981h209zM383 1618v205h213v-205h-213zM845 1618v205h213v-205h-213z" />
    <glyph glyph-name="aacute" unicode="&#xe1;" horiz-adv-x="1126" 
d="M103 768q22 157 140.5 242.5t315.5 85.5q202 0 318 -99t116 -270v-727h-161l-25 145q-132 -176 -355 -176q-168 0 -269 83.5t-101 222.5q0 148 97 233t307 121l311 53v53q0 99 -63.5 152t-182.5 53q-213 0 -239 -172h-209zM797 528l-264 -47q-131 -23 -186.5 -65.5
t-55.5 -120.5q0 -160 206 -160q121 0 210.5 76.5t89.5 179.5v137zM668 1505h254l-287 -280h-176z" />
    <glyph glyph-name="agrave" unicode="&#xe0;" horiz-adv-x="1126" 
d="M103 768q22 157 140.5 242.5t315.5 85.5q202 0 318 -99t116 -270v-727h-161l-25 145q-132 -176 -355 -176q-168 0 -269 83.5t-101 222.5q0 148 97 233t307 121l311 53v53q0 99 -63.5 152t-182.5 53q-213 0 -239 -172h-209zM797 528l-264 -47q-131 -23 -186.5 -65.5
t-55.5 -120.5q0 -160 206 -160q121 0 210.5 76.5t89.5 179.5v137zM684 1225h-176l-287 280h254z" />
    <glyph glyph-name="acircumflex" unicode="&#xe2;" horiz-adv-x="1126" 
d="M103 768q22 157 140.5 242.5t315.5 85.5q202 0 318 -99t116 -270v-727h-161l-25 145q-132 -176 -355 -176q-168 0 -269 83.5t-101 222.5q0 148 97 233t307 121l311 53v53q0 99 -63.5 152t-182.5 53q-213 0 -239 -172h-209zM797 528l-264 -47q-131 -23 -186.5 -65.5
t-55.5 -120.5q0 -160 206 -160q121 0 210.5 76.5t89.5 179.5v137zM909 1225h-198l-154 168l-153 -168h-199l242 280h223z" />
    <glyph glyph-name="adieresis" unicode="&#xe4;" horiz-adv-x="1126" 
d="M103 768q22 157 140.5 242.5t315.5 85.5q202 0 318 -99t116 -270v-727h-161l-25 145q-132 -176 -355 -176q-168 0 -269 83.5t-101 222.5q0 148 97 233t307 121l311 53v53q0 99 -63.5 152t-182.5 53q-213 0 -239 -172h-209zM797 528l-264 -47q-131 -23 -186.5 -65.5
t-55.5 -120.5q0 -160 206 -160q121 0 210.5 76.5t89.5 179.5v137zM217 1270v205h213v-205h-213zM680 1270v205h213v-205h-213z" />
    <glyph glyph-name="atilde" unicode="&#xe3;" horiz-adv-x="1126" 
d="M103 768q22 157 140.5 242.5t315.5 85.5q202 0 318 -99t116 -270v-727h-161l-25 145q-132 -176 -355 -176q-168 0 -269 83.5t-101 222.5q0 148 97 233t307 121l311 53v53q0 99 -63.5 152t-182.5 53q-213 0 -239 -172h-209zM797 528l-264 -47q-131 -23 -186.5 -65.5
t-55.5 -120.5q0 -160 206 -160q121 0 210.5 76.5t89.5 179.5v137zM262 1252v166q94 67 183 67q65 0 132 -39l6 -3l10 -5l9 -5q47 -25 87 -25q39 0 73 16t94 61v-166q-54 -38 -91.5 -52.5t-84.5 -14.5q-66 0 -130 39q-64 38 -112 38q-75 0 -176 -77z" />
    <glyph glyph-name="aring" unicode="&#xe5;" horiz-adv-x="1126" 
d="M103 768q22 157 140.5 242.5t315.5 85.5q202 0 318 -99t116 -270v-727h-161l-25 145q-132 -176 -355 -176q-168 0 -269 83.5t-101 222.5q0 148 97 233t307 121l311 53v53q0 99 -63.5 152t-182.5 53q-213 0 -239 -172h-209zM797 528l-264 -47q-131 -23 -186.5 -65.5
t-55.5 -120.5q0 -160 206 -160q121 0 210.5 76.5t89.5 179.5v137zM562 1563q-60 0 -95 -34.5t-35 -94.5t35 -94.5t95 -34.5t95.5 35t35.5 94t-35.5 94t-95.5 35zM561 1679q120 0 195.5 -68t75.5 -177t-75.5 -177.5t-195.5 -68.5q-121 0 -194.5 67.5t-73.5 177.5
q0 111 73.5 178.5t194.5 67.5z" />
    <glyph glyph-name="ccedilla" unicode="&#xe7;" horiz-adv-x="1135" 
d="M313 -303h154q6 -37 36.5 -59.5t74.5 -22.5q52 0 81.5 25.5t29.5 70.5q0 54 -44 78t-148 25l15 161q-188 28 -296 149q-134 150 -134 402q0 262 136 416t367 154q188 0 308.5 -91t150.5 -255h-217q-45 180 -239 180q-142 0 -219.5 -106.5t-77.5 -301.5q0 -181 80 -284
t220 -103q101 0 164.5 53.5t81.5 153.5h215q-23 -152 -128 -250t-269 -119v-59q97 -23 141.5 -71t44.5 -129q0 -100 -72.5 -162t-190.5 -62q-108 0 -177 54t-88 153z" />
    <glyph glyph-name="eacute" unicode="&#xe9;" horiz-adv-x="1186" 
d="M1081 307q-46 -160 -171.5 -249t-305.5 -89q-245 0 -383.5 149.5t-138.5 413.5q0 269 145 422q136 142 368 142q244 0 370 -153t129 -454h-811q14 -171 87 -252q91 -102 240 -102q95 0 163.5 46t94.5 126h213zM291 645h602q-11 138 -77 207q-80 86 -217 86
q-127 0 -205 -74t-103 -219zM692 1505h254l-286 -280h-177z" />
    <glyph glyph-name="egrave" unicode="&#xe8;" horiz-adv-x="1186" 
d="M1081 307q-46 -160 -171.5 -249t-305.5 -89q-245 0 -383.5 149.5t-138.5 413.5q0 269 145 422q136 142 368 142q244 0 370 -153t129 -454h-811q14 -171 87 -252q91 -102 240 -102q95 0 163.5 46t94.5 126h213zM291 645h602q-11 138 -77 207q-80 86 -217 86
q-127 0 -205 -74t-103 -219zM705 1225h-177l-286 280h254z" />
    <glyph glyph-name="ecircumflex" unicode="&#xea;" horiz-adv-x="1186" 
d="M1081 307q-46 -160 -171.5 -249t-305.5 -89q-245 0 -383.5 149.5t-138.5 413.5q0 269 145 422q136 142 368 142q244 0 370 -153t129 -454h-811q14 -171 87 -252q91 -102 240 -102q95 0 163.5 46t94.5 126h213zM291 645h602q-11 138 -77 207q-80 86 -217 86
q-127 0 -205 -74t-103 -219zM940 1225h-199l-153 168l-154 -168h-198l241 280h223z" />
    <glyph glyph-name="edieresis" unicode="&#xeb;" horiz-adv-x="1186" 
d="M1081 307q-46 -160 -171.5 -249t-305.5 -89q-245 0 -383.5 149.5t-138.5 413.5q0 269 145 422q136 142 368 142q244 0 370 -153t129 -454h-811q14 -171 87 -252q91 -102 240 -102q95 0 163.5 46t94.5 126h213zM291 645h602q-11 138 -77 207q-80 86 -217 86
q-127 0 -205 -74t-103 -219zM246 1270v205h213v-205h-213zM709 1270v205h213v-205h-213z" />
    <glyph glyph-name="iacute" unicode="&#xed;" horiz-adv-x="483" 
d="M144 0v1065h197v-1065h-197zM320 1505h254l-287 -280h-176z" />
    <glyph glyph-name="igrave" unicode="&#xec;" horiz-adv-x="483" 
d="M143 0v1065h197v-1065h-197zM387 1225h-176l-287 280h254z" />
    <glyph glyph-name="icircumflex" unicode="&#xee;" horiz-adv-x="483" 
d="M143 0v1065h197v-1065h-197zM596 1225h-199l-154 168l-153 -168h-199l242 280h223z" />
    <glyph glyph-name="idieresis" unicode="&#xef;" horiz-adv-x="483" 
d="M144 0v1065h197v-1065h-197zM-94 1270v205h213v-205h-213zM369 1270v205h213v-205h-213z" />
    <glyph glyph-name="ntilde" unicode="&#xf1;" horiz-adv-x="1161" 
d="M143 0v1065h162l23 -135q124 166 325 166q178 0 276.5 -105.5t98.5 -296.5v-694h-197v692q0 236 -226 236q-116 0 -190.5 -76t-74.5 -195v-657h-197zM305 1252v166q94 67 183 67q65 0 132 -39l6 -3l10 -5l9 -5q47 -25 87 -25q39 0 73 16t94 61v-166q-54 -38 -91.5 -52.5
t-84.5 -14.5q-66 0 -130 39q-64 38 -112 38q-75 0 -176 -77z" />
    <glyph glyph-name="oacute" unicode="&#xf3;" horiz-adv-x="1214" 
d="M608 1096q245 0 385 -150.5t140 -412.5q0 -270 -151 -422q-141 -142 -375 -142q-242 0 -383.5 152.5t-141.5 413.5q0 258 142 409q141 152 384 152zM609 936q-148 0 -235 -108.5t-87 -293.5q0 -188 87 -296.5t237 -108.5q149 0 233 107t84 296q0 187 -85.5 295.5
t-233.5 108.5zM696 1505h254l-286 -280h-176z" />
    <glyph glyph-name="ograve" unicode="&#xf2;" horiz-adv-x="1214" 
d="M608 1096q245 0 385 -150.5t140 -412.5q0 -270 -151 -422q-141 -142 -375 -142q-242 0 -383.5 152.5t-141.5 413.5q0 258 142 409q141 152 384 152zM609 936q-148 0 -235 -108.5t-87 -293.5q0 -188 87 -296.5t237 -108.5q149 0 233 107t84 296q0 187 -85.5 295.5
t-233.5 108.5zM737 1225h-176l-286 280h253z" />
    <glyph glyph-name="ocircumflex" unicode="&#xf4;" horiz-adv-x="1214" 
d="M608 1096q245 0 385 -150.5t140 -412.5q0 -270 -151 -422q-141 -142 -375 -142q-242 0 -383.5 152.5t-141.5 413.5q0 258 142 409q141 152 384 152zM609 936q-148 0 -235 -108.5t-87 -293.5q0 -188 87 -296.5t237 -108.5q149 0 233 107t84 296q0 187 -85.5 295.5
t-233.5 108.5zM948 1225h-198l-154 168l-154 -168h-198l241 280h224z" />
    <glyph glyph-name="odieresis" unicode="&#xf6;" horiz-adv-x="1214" 
d="M608 1096q245 0 385 -150.5t140 -412.5q0 -270 -151 -422q-141 -142 -375 -142q-242 0 -383.5 152.5t-141.5 413.5q0 258 142 409q141 152 384 152zM609 936q-148 0 -235 -108.5t-87 -293.5q0 -188 87 -296.5t237 -108.5q149 0 233 107t84 296q0 187 -85.5 295.5
t-233.5 108.5zM268 1270v205h213v-205h-213zM731 1270v205h213v-205h-213z" />
    <glyph glyph-name="otilde" unicode="&#xf5;" horiz-adv-x="1214" 
d="M608 1096q245 0 385 -150.5t140 -412.5q0 -270 -151 -422q-141 -142 -375 -142q-242 0 -383.5 152.5t-141.5 413.5q0 258 142 409q141 152 384 152zM609 936q-148 0 -235 -108.5t-87 -293.5q0 -188 87 -296.5t237 -108.5q149 0 233 107t84 296q0 187 -85.5 295.5
t-233.5 108.5zM303 1252v166q94 67 183 67q65 0 132 -39l6 -3l10 -5l9 -5q47 -25 87 -25q39 0 73 16t94 61v-166q-54 -38 -91.5 -52.5t-84.5 -14.5q-66 0 -130 39q-64 38 -113 38q-74 0 -175 -77z" />
    <glyph glyph-name="uacute" unicode="&#xfa;" horiz-adv-x="1153" 
d="M330 1065v-698q0 -230 221 -230q118 0 190 76.5t72 202.5v649h197v-1065h-162l-23 123q-117 -154 -320 -154q-176 0 -274 105.5t-98 296.5v694h197zM651 1505h254l-287 -280h-176z" />
    <glyph glyph-name="ugrave" unicode="&#xf9;" horiz-adv-x="1153" 
d="M330 1065v-698q0 -230 221 -230q118 0 190 76.5t72 202.5v649h197v-1065h-162l-23 123q-117 -154 -320 -154q-176 0 -274 105.5t-98 296.5v694h197zM715 1225h-176l-287 280h254z" />
    <glyph glyph-name="ucircumflex" unicode="&#xfb;" horiz-adv-x="1153" 
d="M330 1065v-698q0 -230 221 -230q118 0 190 76.5t72 202.5v649h197v-1065h-162l-23 123q-117 -154 -320 -154q-176 0 -274 105.5t-98 296.5v694h197zM926 1225h-199l-154 168l-153 -168h-199l242 280h223z" />
    <glyph glyph-name="udieresis" unicode="&#xfc;" horiz-adv-x="1153" 
d="M330 1065v-698q0 -230 221 -230q118 0 190 76.5t72 202.5v649h197v-1065h-162l-23 123q-117 -154 -320 -154q-176 0 -274 105.5t-98 296.5v694h197zM231 1270v205h213v-205h-213zM694 1270v205h213v-205h-213z" />
    <glyph glyph-name="dagger" unicode="&#x2020;" 
d="M711 1092h378v-184h-378v-908h-197v908h-377v184h377v383h197v-383z" />
    <glyph glyph-name="degree" unicode="&#xb0;" 
d="M467 1327q-79 0 -125.5 -53.5t-46.5 -143.5t46.5 -143t125.5 -53t125.5 53.5t46.5 142.5q0 90 -46.5 143.5t-125.5 53.5zM465 1475q149 0 245.5 -96.5t96.5 -246.5q0 -148 -97 -244.5t-245 -96.5q-149 0 -245.5 96.5t-96.5 245.5t96.5 245.5t245.5 96.5z" />
    <glyph glyph-name="cent" unicode="&#xa2;" 
d="M538 -20q-191 33 -297 176.5t-106 370.5q0 233 103.5 377t299.5 184v264h182v-262q159 -24 255.5 -111t121.5 -229h-217q-45 180 -239 180q-142 0 -219.5 -106.5t-77.5 -302.5q0 -180 79.5 -283t219.5 -103q102 0 165.5 53.5t81.5 153.5h215q-23 -147 -124.5 -243.5
t-260.5 -122.5v-252h-182v256z" />
    <glyph glyph-name="sterling" unicode="&#xa3;" 
d="M184 795h97v274q0 184 111.5 290t306.5 106q168 0 274 -86t141 -251h-206q-21 89 -72.5 130t-142.5 41q-104 0 -160.5 -60.5t-56.5 -171.5v-272h395v-160h-395v-219q0 -150 -115 -236h735v-180h-973v180q158 51 158 223v232h-97v160z" />
    <glyph glyph-name="section" unicode="&#xa7;" 
d="M893 330q120 -86 120 -218q0 -138 -107.5 -218t-292.5 -80q-177 0 -291 79.5t-154 231.5h208q18 -76 80 -117.5t158 -41.5q98 0 151 35.5t53 101.5q0 69 -55 109.5t-197 76.5q-218 55 -320.5 146t-102.5 229q0 185 186 278q-112 94 -112 223q0 135 112 217.5t295 82.5
q168 0 284 -83.5t155 -230.5h-209q-19 79 -78.5 120.5t-153.5 41.5q-99 0 -154.5 -37t-55.5 -103q0 -67 49.5 -107t171.5 -71q244 -62 349 -150.5t105 -232.5q0 -191 -194 -282zM764 397q137 73 137 194q0 56 -23.5 93t-78.5 69q-106 61 -294 103q-23 5 -51 16
q-125 -69 -125 -195q0 -78 51 -122q65 -56 228 -102q55 -16 156 -56z" />
    <glyph glyph-name="bullet" unicode="&#x2022;" horiz-adv-x="614" 
d="M129 483v338h356v-338h-356z" />
    <glyph glyph-name="paragraph" unicode="&#xb6;" 
d="M639 1475v-1844h-176v1137q-106 2 -194 65q-136 98 -136 288q0 180 126 280q93 74 204 74h176zM1075 1475v-1844h-176v1844h176z" />
    <glyph glyph-name="germandbls" unicode="&#xdf;" horiz-adv-x="1235" 
d="M410 258h200q24 -123 178 -123q99 0 152 48t53 136q0 85 -41 137t-147 103q-127 60 -175 119t-48 155q0 51 20 89.5t73 92.5t73 90t20 78q0 70 -57 112.5t-150 42.5q-106 0 -163.5 -68t-57.5 -192v-1078h-197v1073q0 196 114 314.5t304 118.5q180 0 291 -86t111 -226
q0 -69 -23.5 -119.5t-82.5 -107.5q-60 -59 -74.5 -80.5t-14.5 -55.5q0 -37 33.5 -67.5t116.5 -69.5q144 -67 210 -154t66 -212q0 -154 -116 -256.5t-291 -102.5q-326 0 -377 289z" />
    <glyph glyph-name="registered" unicode="&#xae;" horiz-adv-x="1319" 
d="M659 1506q199 0 344 -115q172 -135 172 -381t-172 -381q-146 -115 -344 -115q-187 0 -329 103q-187 136 -187 393q0 246 172 381q145 115 344 115zM659 1397q-179 0 -283 -104t-104 -283t104 -283t283 -104t283 104t104 283t-104 283t-283 104zM746 752l-94 190h-45v-190
h-102v522h151q85 0 134.5 -43.5t49.5 -117.5q0 -95 -90 -146l113 -215h-117zM607 1192v-166h47q35 0 56 23.5t21 62.5q0 80 -81 80h-43z" />
    <glyph glyph-name="copyright" unicode="&#xa9;" horiz-adv-x="1810" 
d="M905 1506q317 0 532 -182q251 -214 251 -589q0 -352 -229 -564q-105 -97 -248.5 -149.5t-305.5 -52.5q-316 0 -531 182q-251 213 -251 587q0 372 251 586q215 182 531 182zM905 1365q-273 0 -442.5 -173.5t-169.5 -453.5q0 -300 187 -472q170 -156 425 -156
q275 0 444 173.5t169 455.5q0 283 -171 454q-171 172 -442 172zM1264 596q-21 -128 -117 -205.5t-235 -77.5q-147 0 -252 87q-136 114 -136 335t123 336q106 98 263 98q141 0 233 -69.5t115 -194.5h-166q-33 137 -181 137q-106 0 -165.5 -80t-59.5 -224q0 -140 60.5 -219
t168.5 -79q75 0 124.5 41.5t60.5 114.5h164z" />
    <glyph glyph-name="trademark" unicode="&#x2122;" horiz-adv-x="1720" 
d="M1073 664l-195 655v-655h-145v676h-278v-676h-158v676h-246v135h932l174 -614l164 614h246v-811h-150v655l-182 -655h-162z" />
    <glyph glyph-name="acute" unicode="&#xb4;" horiz-adv-x="586" 
d="M270 1505h254l-287 -280h-176z" />
    <glyph glyph-name="dieresis" unicode="&#xa8;" horiz-adv-x="799" 
d="M61 1270v205h213v-205h-213zM524 1270v205h213v-205h-213z" />
    <glyph glyph-name="notequal" unicode="&#x2260;" 
d="M524 362l-174 -280h-182l174 280h-158v174h264l154 246h-418v174h525l170 273h182l-170 -273h154v-174h-260l-154 -246h414v-174h-521z" />
    <glyph glyph-name="AE" unicode="&#xc6;" horiz-adv-x="2001" 
d="M1898 0h-878v373h-567l-228 -373h-225l907 1475h991v-176h-669v-463h610v-172h-610v-488h669v-176zM1020 543v754l-463 -754h463z" />
    <glyph glyph-name="Oslash" unicode="&#xd8;" horiz-adv-x="1585" 
d="M610 -8l-76 -217h-182l96 274q-356 189 -356 689q0 385 227 593q92 84 215 129.5t258 45.5q87 0 185 -23l73 196h183l-94 -255q175 -95 264.5 -268.5t89.5 -418.5q0 -385 -227 -593q-92 -84 -215.5 -129.5t-259.5 -45.5q-81 0 -181 23zM1063 1256l-402 -1100
q70 -17 133 -17q225 0 355.5 160.5t130.5 437.5q0 360 -217 519zM522 217l397 1102q-65 17 -126 17q-227 0 -357.5 -160t-130.5 -438q0 -361 217 -521z" />
    <glyph glyph-name="infinity" unicode="&#x221e;" horiz-adv-x="1618" 
d="M809 899q113 182 326 182q186 0 286 -118q85 -100 85 -246q0 -162 -104.5 -263.5t-271.5 -101.5q-95 0 -177.5 46.5t-143.5 133.5q-112 -180 -324 -180q-187 0 -287 118q-85 100 -85 246q0 163 104.5 264t273.5 101q92 0 174.5 -47t143.5 -135zM877 700q6 -46 61 -111
q76 -90 173 -90t154 58.5t57 159.5q0 99 -54.5 158t-147.5 59q-88 0 -160.5 -69.5t-82.5 -164.5zM742 733q-6 45 -61 111q-75 90 -173 90q-97 0 -154 -58.5t-57 -159.5q0 -99 54.5 -158t146.5 -59q89 0 161.5 70t82.5 164z" />
    <glyph glyph-name="plusminus" unicode="&#xb1;" 
d="M706 748h338v-174h-338v-263h-186v263h-336v174h336v342h186v-342zM184 0v174h860v-174h-860z" />
    <glyph glyph-name="lessequal" unicode="&#x2264;" 
d="M184 0v174h860v-174h-860zM379 676l665 -223v-197l-860 328v194l860 369v-197l-665 -264v-10z" />
    <glyph glyph-name="greaterequal" unicode="&#x2265;" 
d="M184 0v174h860v-174h-860zM850 686l-666 264v197l860 -369v-194l-860 -328v197l666 223v10z" />
    <glyph glyph-name="yen" unicode="&#xa5;" 
d="M512 0v266h-287v150h287v157h-287v150h207l-416 711h229l371 -668l385 668h213l-418 -711h209v-150h-286v-157h286v-150h-286v-266h-207z" />
    <glyph glyph-name="mu" unicode="&#xb5;" horiz-adv-x="1163" 
d="M1020 1065v-1065h-162l-21 115q-117 -146 -299 -146q-107 0 -198 62v-400h-197v1434h197v-698q0 -230 222 -230q117 0 189 74.5t72 196.5v657h197z" />
    <glyph glyph-name="partialdiff" unicode="&#x2202;" horiz-adv-x="1190" 
d="M315 1538q390 -83 570 -266q210 -215 210 -619q0 -329 -139 -509q-136 -175 -373 -175q-227 0 -364 141.5t-137 376.5q0 225 135 365q133 137 327 137q117 0 220.5 -53t142.5 -133q-34 245 -176 377t-416 174v184zM572 825q-137 0 -213 -91.5t-76 -256.5t78.5 -254.5
t222.5 -89.5q140 0 228.5 97t88.5 251q0 160 -88.5 252t-240.5 92z" />
    <glyph glyph-name="summation" unicode="&#x2211;" 
d="M806 555l-452 -750h784v-174h-1036v170l467 754l-467 750v170h1036v-174h-784z" />
    <glyph glyph-name="product" unicode="&#x220f;" 
d="M153 0v1258h-133v176h1188v-176h-133v-1258h-211v1258h-502v-1258h-209z" />
    <glyph glyph-name="pi" unicode="&#x3c0;" horiz-adv-x="1163" 
d="M143 0v897h-133v168h1143v-168h-133v-897h-197v897h-483v-897h-197z" />
    <glyph glyph-name="integral" unicode="&#x222b;" 
d="M242 -334v168q99 -8 159 -8t87.5 25.5t27.5 82.5v1680q0 138 73.5 214.5t205.5 76.5q79 0 192 -11v-168l-12 1l-18 2l-17 1q-67 5 -112 5q-60 0 -87.5 -26t-27.5 -83v-1679q0 -138 -73.5 -214.5t-205.5 -76.5q-85 0 -192 10z" />
    <glyph glyph-name="ordfeminine" unicode="&#xaa;" horiz-adv-x="1024" 
d="M150 1257q20 111 118 180t236 69q153 0 247.5 -78.5t94.5 -205.5v-597h-125l-29 96q-36 -55 -104.5 -87t-150.5 -32q-140 0 -220 68t-80 188q0 247 332 287l205 24v43q0 154 -173 154q-152 0 -179 -109h-172zM113 0v174h799v-174h-799zM674 1030l-164 -18
q-196 -22 -196 -146q0 -118 152 -118q85 0 146.5 52.5t61.5 125.5v104z" />
    <glyph glyph-name="ordmasculine" unicode="&#xba;" horiz-adv-x="1024" 
d="M113 0v174h778v-174h-778zM515 1506q194 0 295.5 -114.5t101.5 -335.5t-101.5 -337t-296.5 -116q-193 0 -295 116.5t-102 336.5t101.5 335t296.5 115zM514 1365q-105 0 -162 -81t-57 -229q0 -151 52 -224q62 -87 168 -87t162.5 80t56.5 230q0 149 -57 230t-163 81z" />
    <glyph glyph-name="uni2126" unicode="&#x2126;" horiz-adv-x="1585" 
d="M577 0h-422v186h199q-121 64 -191.5 213.5t-70.5 339.5q0 384 227 592q92 84 215 129.5t258 45.5q138 0 260.5 -44.5t212.5 -126.5q227 -208 227 -594q0 -191 -72.5 -342t-195.5 -213h205v-186h-422v186q272 142 272 552q0 278 -130.5 438t-356.5 160t-356.5 -160.5
t-130.5 -437.5q0 -412 272 -552v-186z" />
    <glyph glyph-name="ae" unicode="&#xe6;" horiz-adv-x="1901" 
d="M1796 307q-44 -159 -170 -248.5t-306 -89.5q-294 0 -433 219q-64 -106 -171 -162.5t-245 -56.5q-184 0 -286.5 81.5t-102.5 227.5q0 280 391 330l324 41v86q0 98 -63.5 151.5t-180.5 53.5q-217 0 -241 -172h-209q20 143 116 224q125 104 339 104q255 0 368 -172
q145 172 387 172q240 0 366.5 -151.5t129.5 -441.5h-811q8 -177 93 -272.5t235 -95.5q93 0 162 46t95 126h213zM797 495l-276 -35q-124 -15 -177 -54.5t-53 -116.5q0 -74 52.5 -114t151.5 -40q103 0 191 60q49 35 80 84.5t31 94.5v121zM1008 659h600q-11 130 -76 196
q-80 83 -216 83q-252 0 -308 -279z" />
    <glyph glyph-name="oslash" unicode="&#xf8;" horiz-adv-x="1214" 
d="M766 1075l100 215h183l-131 -282q215 -154 215 -476q0 -270 -151 -421q-142 -142 -376 -142q-82 0 -155 21l-99 -215h-186l131 282q-215 157 -215 477q0 260 142 411t385 151q86 0 157 -21zM385 225l318 697q-44 14 -95 14q-147 0 -234 -109t-87 -293q0 -199 98 -309z
M832 840l-316 -699q48 -12 95 -12q149 0 233 106.5t84 295.5q0 195 -96 309z" />
    <glyph glyph-name="questiondown" unicode="&#xbf;" horiz-adv-x="1194" 
d="M724 1106v-238h-236v238h236zM707 678q-1 -179 -53 -274t-189 -167q-90 -47 -131 -107t-41 -147q0 -97 74.5 -154t202.5 -57q138 0 212 57t97 181h213q-33 -184 -145 -283q-144 -127 -382 -127q-219 0 -353 112q-130 108 -130 270q0 260 301 425q75 41 101.5 97t27.5 174
h195z" />
    <glyph glyph-name="exclamdown" unicode="&#xa1;" horiz-adv-x="584" 
d="M410 1106v-238h-236v238h236zM369 614l41 -983h-236l41 983h154z" />
    <glyph glyph-name="logicalnot" unicode="&#xac;" 
d="M858 229v345h-674v174h860v-519h-186z" />
    <glyph glyph-name="radical" unicode="&#x221a;" 
d="M387 0l-356 942h205l262 -717l444 1418h410v-168h-258l-479 -1475h-228z" />
    <glyph glyph-name="florin" unicode="&#x192;" horiz-adv-x="659" 
d="M670 1270q-101 25 -160 25q-54 0 -84 -28.5t-30 -80.5v-152h229v-168h-229v-1235h-197v1235h-158v168h158v140q0 130 82.5 210.5t217.5 80.5q64 0 146 -19q17 -4 25 -6v-170z" />
    <glyph glyph-name="approxequal" unicode="&#x2248;" 
d="M184 750v186q108 82 247 82q92 0 214 -62q101 -51 165 -51q124 0 234 92v-186q-50 -38 -116 -60t-131 -22q-90 0 -204 57q-7 3 -26 12l-16 8q-81 36 -134 36q-124 0 -233 -92zM184 332v186q108 82 247 82q92 0 214 -62q58 -29 93 -40t72 -11q123 0 234 93v-187
q-108 -82 -247 -82q-91 0 -204 57q-6 3 -26 12q-90 44 -150 44q-125 0 -233 -92z" />
    <glyph glyph-name="Delta" unicode="&#x2206;" horiz-adv-x="1446" 
d="M0 0l606 1475h236l604 -1475h-1446zM289 176h856l-424 1090z" />
    <glyph glyph-name="guillemotleft" unicode="&#xab;" horiz-adv-x="1044" 
d="M123 645l254 420h137l-160 -426l140 -455h-138zM531 645l254 420h137l-160 -426l139 -455h-137z" />
    <glyph glyph-name="guillemotright" unicode="&#xbb;" horiz-adv-x="1044" 
d="M688 184h-137l139 455l-159 426h137l254 -420zM281 184h-138l140 455l-160 426h137l254 -420z" />
    <glyph glyph-name="ellipsis" unicode="&#x2026;" horiz-adv-x="1843" 
d="M188 0v238h238v-238h-238zM802 0v238h238v-238h-238zM1416 0v238h238v-238h-238z" />
    <glyph glyph-name="glyph172" 
 />
    <glyph glyph-name="Agrave" unicode="&#xc0;" horiz-adv-x="1446" 
d="M1214 0l-145 373h-702l-148 -373h-219l606 1475h236l604 -1475h-232zM434 543h567l-280 723zM895 1573h-176l-287 280h254z" />
    <glyph glyph-name="Atilde" unicode="&#xc3;" horiz-adv-x="1446" 
d="M1214 0l-145 373h-702l-148 -373h-219l606 1475h236l604 -1475h-232zM434 543h567l-280 723zM416 1599v166q94 68 183 68q39 0 67 -8.5t71 -33.5q62 -36 106 -36q38 0 73.5 16.5t93.5 61.5v-166q-57 -40 -93 -54t-83 -14q-65 0 -130 39q-66 39 -113 39q-74 0 -175 -78z
" />
    <glyph glyph-name="Otilde" unicode="&#xd5;" horiz-adv-x="1585" 
d="M795 1506q308 0 495 -194q203 -210 203 -574q0 -358 -201 -568q-192 -201 -502 -201q-296 0 -483 182q-215 210 -215 587q0 359 206 570q193 198 497 198zM793 1336q-227 0 -357.5 -160t-130.5 -438q0 -279 130.5 -439t358.5 -160q225 0 355.5 160.5t130.5 438.5
t-130.5 438t-356.5 160zM489 1599v166q94 68 183 68q39 0 67 -8.5t71 -33.5q62 -36 106 -36q38 0 73.5 16.5t93.5 61.5v-166q-57 -40 -93 -54t-83 -14q-65 0 -130 39t-113 39q-74 0 -175 -78z" />
    <glyph glyph-name="OE" unicode="&#x152;" horiz-adv-x="2030" 
d="M1927 0h-879q-9 -2 -30 -6q-119 -25 -222 -25q-327 0 -515.5 205.5t-188.5 561.5q0 388 227 595q192 175 481 175q112 0 248 -31h879v-176h-670v-463h611v-172h-611v-488h670v-176zM1048 188v1099q-113 49 -254 49q-228 0 -358.5 -160t-130.5 -438q0 -282 129 -440.5
t360 -158.5q141 0 254 49z" />
    <glyph glyph-name="oe" unicode="&#x153;" horiz-adv-x="2023" 
d="M1919 307q-44 -159 -170.5 -248.5t-304.5 -89.5q-267 0 -412 211q-143 -211 -424 -211q-201 0 -341 112q-185 148 -185 451q0 304 185 452q139 112 341 112q281 0 424 -211q67 101 171.5 156t230.5 55q243 0 369 -154t128 -453h-811q12 -172 96.5 -263t233.5 -91
q92 0 160.5 46t95.5 126h213zM608 936q-147 0 -234 -109.5t-87 -294.5t87.5 -294t235.5 -109t233 107.5t85 294.5t-86 296t-234 109zM1129 645h602q-12 138 -77 207q-81 86 -216 86q-128 0 -207.5 -75.5t-101.5 -217.5z" />
    <glyph glyph-name="endash" unicode="&#x2013;" 
d="M184 574v174h860v-174h-860z" />
    <glyph glyph-name="emdash" unicode="&#x2014;" horiz-adv-x="1352" 
d="M61 574v174h1229v-174h-1229z" />
    <glyph glyph-name="quotedblleft" unicode="&#x201c;" horiz-adv-x="944" 
d="M446 1475v-103q-67 -16 -96 -63.5t-30 -141.5h96v-237h-238v206q0 145 70 233.5t198 105.5zM796 1475v-103q-67 -16 -96 -63.5t-30 -141.5h96v-237h-238v206q0 145 70 233.5t198 105.5z" />
    <glyph glyph-name="quotedblright" unicode="&#x201d;" horiz-adv-x="944" 
d="M497 930v102q67 16 96.5 63.5t30.5 141.5h-96v238h237v-207q0 -145 -70 -233.5t-198 -104.5zM147 930v102q67 16 96.5 63.5t30.5 141.5h-96v238h237v-207q0 -145 -70 -233.5t-198 -104.5z" />
    <glyph glyph-name="quoteleft" unicode="&#x2018;" horiz-adv-x="594" 
d="M446 1475v-103q-67 -16 -96 -63.5t-30 -141.5h96v-237h-238v206q0 145 70 233.5t198 105.5z" />
    <glyph glyph-name="quoteright" unicode="&#x2019;" horiz-adv-x="594" 
d="M147 930v102q67 16 96.5 63.5t30.5 141.5h-96v238h237v-207q0 -145 -70 -233.5t-198 -104.5z" />
    <glyph glyph-name="divide" unicode="&#xf7;" 
d="M495 131v238h238v-238h-238zM495 950v238h238v-238h-238zM184 574v174h860v-174h-860z" />
    <glyph glyph-name="lozenge" unicode="&#x25ca;" 
d="M709 0h-217l-410 717l412 717h215l438 -717zM604 1291l-317 -574l317 -574l340 574z" />
    <glyph glyph-name="ydieresis" unicode="&#xff;" horiz-adv-x="1053" 
d="M186 -381v160q58 -14 101 -14q63 0 101 47.5t87 187.5h-64l-391 1065h213l301 -905l301 905h197l-371 -1079q-67 -195 -122 -269q-86 -116 -227 -116q-45 0 -101 12q-17 4 -25 6zM188 1270v205h213v-205h-213zM651 1270v205h213v-205h-213z" />
    <glyph glyph-name="Ydieresis" unicode="&#x178;" horiz-adv-x="1288" 
d="M541 0v586l-541 889h229l416 -709l430 709h213l-540 -889v-586h-207zM307 1618v205h213v-205h-213zM770 1618v205h213v-205h-213z" />
    <glyph glyph-name="fraction" unicode="&#x2044;" horiz-adv-x="467" 
d="M-295 -184l860 1802h187l-863 -1802h-184z" />
    <glyph glyph-name="Euro" unicode="&#x20ac;" 
d="M47 940h100q49 246 186 378q152 147 385 147q205 0 339 -107.5t163 -294.5h-213q-54 228 -288 228q-149 0 -236 -85.5t-123 -265.5h498l-41 -160h-475v-102q0 -15 2 -37h432l-41 -160h-373q27 -107 57 -162q97 -174 301 -174q226 0 287 232h216q-44 -195 -177 -301.5
t-331 -106.5q-228 0 -371 129.5t-195 382.5h-143l41 160h84v4q-2 17 -2 33v69q0 12 2 33h-125z" />
    <glyph glyph-name="guilsinglleft" unicode="&#x2039;" horiz-adv-x="637" 
d="M123 645l254 420h137l-160 -426l140 -455h-138z" />
    <glyph glyph-name="guilsinglright" unicode="&#x203a;" horiz-adv-x="637" 
d="M281 184h-138l140 455l-160 426h137l254 -420z" />
    <glyph glyph-name="fi" unicode="&#xfb01;" horiz-adv-x="1092" 
d="M793 1291q-147 34 -224 34q-91 0 -132 -30.5t-41 -98.5v-131h552v-1065h-197v897h-355v-897h-197v897h-158v168h158v119q0 147 89.5 229t250.5 82q107 0 254 -34v-170z" />
    <glyph glyph-name="fl" unicode="&#xfb02;" horiz-adv-x="1122" 
d="M782 0v1295q-125 30 -213 30q-91 0 -132 -30.5t-41 -98.5v-131h208v-168h-208v-897h-197v897h-158v168h158v119q0 148 89.5 229.5t252.5 81.5q106 0 243 -32l195 12v-1475h-197z" />
    <glyph glyph-name="daggerdbl" unicode="&#x2021;" 
d="M711 354v-354h-197v354h-377v184h377v370h-377v184h377v383h197v-383h378v-184h-378v-370h378v-184h-378z" />
    <glyph glyph-name="periodcentered" unicode="&#xb7;" horiz-adv-x="614" 
d="M188 532v238h238v-238h-238z" />
    <glyph glyph-name="quotesinglbase" unicode="&#x201a;" horiz-adv-x="594" 
d="M147 -307v102q67 16 96.5 63.5t30.5 141.5h-96v238h237v-207q0 -145 -70 -233.5t-198 -104.5z" />
    <glyph glyph-name="quotedblbase" unicode="&#x201e;" horiz-adv-x="944" 
d="M497 -307v102q67 16 96.5 63.5t30.5 141.5h-96v238h237v-207q0 -145 -70 -233.5t-198 -104.5zM147 -307v102q67 16 96.5 63.5t30.5 141.5h-96v238h237v-207q0 -145 -70 -233.5t-198 -104.5z" />
    <glyph glyph-name="perthousand" unicode="&#x2030;" horiz-adv-x="2490" 
d="M420 1465q156 0 253 -96.5t97 -250.5q0 -153 -97.5 -249t-252.5 -96t-251.5 96t-96.5 250t96.5 250t251.5 96zM420 1322q-88 0 -135 -52.5t-47 -150.5t47 -150.5t135 -52.5q89 0 137.5 53t48.5 150q0 110 -55 157q-54 46 -131 46zM561 0h-196l782 1434h197zM1301 662
q156 0 253 -96.5t97 -250.5q0 -153 -97.5 -249.5t-252.5 -96.5t-251.5 96.5t-96.5 249.5q0 154 96.5 250.5t251.5 96.5zM1301 519q-88 0 -135 -52.5t-47 -150.5q0 -101 44 -148q51 -56 138 -56q89 0 137.5 53t48.5 151q0 109 -55 157q-53 46 -131 46zM2100 662
q155 0 252.5 -96.5t97.5 -250.5q0 -153 -97.5 -249.5t-252.5 -96.5t-252 96.5t-97 249.5q0 154 97 250.5t252 96.5zM2099 519q-88 0 -135 -52.5t-47 -150.5q0 -101 44 -148q52 -56 138 -56q90 0 138.5 53t48.5 151q0 109 -55 157q-54 46 -132 46z" />
    <glyph glyph-name="Acircumflex" unicode="&#xc2;" horiz-adv-x="1446" 
d="M1214 0l-145 373h-702l-148 -373h-219l606 1475h236l604 -1475h-232zM434 543h567l-280 723zM1075 1573h-198l-154 168l-154 -168h-198l241 280h224z" />
    <glyph glyph-name="Ecircumflex" unicode="&#xca;" horiz-adv-x="1176" 
d="M1014 664h-651v-488h711v-176h-920v1475h920v-176h-711v-463h651v-172zM961 1573h-199l-153 168l-154 -168h-199l242 280h223z" />
    <glyph glyph-name="Aacute" unicode="&#xc1;" horiz-adv-x="1446" 
d="M1214 0l-145 373h-702l-148 -373h-219l606 1475h236l604 -1475h-232zM434 543h567l-280 723zM762 1853h254l-287 -280h-176z" />
    <glyph glyph-name="Edieresis" unicode="&#xcb;" horiz-adv-x="1176" 
d="M1014 664h-651v-488h711v-176h-920v1475h920v-176h-711v-463h651v-172zM279 1618v205h213v-205h-213zM742 1618v205h213v-205h-213z" />
    <glyph glyph-name="Egrave" unicode="&#xc8;" horiz-adv-x="1176" 
d="M1014 664h-651v-488h711v-176h-920v1475h920v-176h-711v-463h651v-172zM781 1573h-176l-287 280h254z" />
    <glyph glyph-name="Iacute" unicode="&#xcd;" horiz-adv-x="516" 
d="M363 1475v-1475h-209v1475h209zM295 1853h254l-287 -280h-176z" />
    <glyph glyph-name="Icircumflex" unicode="&#xce;" horiz-adv-x="516" 
d="M363 1475v-1475h-209v1475h209zM613 1573h-199l-154 168l-153 -168h-199l242 280h223z" />
    <glyph glyph-name="Idieresis" unicode="&#xcf;" horiz-adv-x="516" 
d="M362 1475v-1475h-209v1475h209zM-78 1618v205h213v-205h-213zM385 1618v205h213v-205h-213z" />
    <glyph glyph-name="Igrave" unicode="&#xcc;" horiz-adv-x="516" 
d="M362 1475v-1475h-209v1475h209zM426 1573h-176l-287 280h254z" />
    <glyph glyph-name="Oacute" unicode="&#xd3;" horiz-adv-x="1585" 
d="M795 1506q308 0 495 -194q203 -210 203 -574q0 -358 -201 -568q-192 -201 -502 -201q-296 0 -483 182q-215 210 -215 587q0 359 206 570q193 198 497 198zM793 1336q-227 0 -357.5 -160t-130.5 -438q0 -279 130.5 -439t358.5 -160q225 0 355.5 160.5t130.5 438.5
t-130.5 438t-356.5 160zM846 1853h254l-287 -280h-176z" />
    <glyph glyph-name="Ocircumflex" unicode="&#xd4;" horiz-adv-x="1585" 
d="M795 1506q308 0 495 -194q203 -210 203 -574q0 -358 -201 -568q-192 -201 -502 -201q-296 0 -483 182q-215 210 -215 587q0 359 206 570q193 198 497 198zM793 1336q-227 0 -357.5 -160t-130.5 -438q0 -279 130.5 -439t358.5 -160q225 0 355.5 160.5t130.5 438.5
t-130.5 438t-356.5 160zM1130 1573h-198l-154 168l-154 -168h-198l241 280h224z" />
    <glyph glyph-name="glyph210" horiz-adv-x="614" 
 />
    <glyph glyph-name="Ograve" unicode="&#xd2;" horiz-adv-x="1585" 
d="M795 1506q308 0 495 -194q203 -210 203 -574q0 -358 -201 -568q-192 -201 -502 -201q-296 0 -483 182q-215 210 -215 587q0 359 206 570q193 198 497 198zM793 1336q-227 0 -357.5 -160t-130.5 -438q0 -279 130.5 -439t358.5 -160q225 0 355.5 160.5t130.5 438.5
t-130.5 438t-356.5 160zM954 1573h-176l-287 280h254z" />
    <glyph glyph-name="Uacute" unicode="&#xda;" horiz-adv-x="1448" 
d="M352 1475v-1000q0 -155 99.5 -242.5t274.5 -87.5q182 0 279 91q96 91 96 239v1000h203v-981q0 -241 -156.5 -383t-422.5 -142t-424 143q-158 142 -158 382v981h209zM776 1853h254l-287 -280h-176z" />
    <glyph glyph-name="Ucircumflex" unicode="&#xdb;" horiz-adv-x="1448" 
d="M352 1475v-1000q0 -155 99.5 -242.5t274.5 -87.5q182 0 279 91q96 91 96 239v1000h203v-981q0 -241 -156.5 -383t-422.5 -142t-424 143q-158 142 -158 382v981h209zM1081 1573h-199l-153 168l-154 -168h-199l242 280h223z" />
    <glyph glyph-name="Ugrave" unicode="&#xd9;" horiz-adv-x="1448" 
d="M352 1475v-1000q0 -155 99.5 -242.5t274.5 -87.5q182 0 279 91q96 91 96 239v1000h203v-981q0 -241 -156.5 -383t-422.5 -142t-424 143q-158 142 -158 382v981h209zM903 1573h-176l-287 280h254z" />
    <glyph glyph-name="dotlessi" unicode="&#x131;" horiz-adv-x="483" 
d="M143 0v1065h197v-1065h-197z" />
    <glyph glyph-name="circumflex" unicode="&#x2c6;" horiz-adv-x="819" 
d="M762 1225h-199l-154 168l-153 -168h-199l242 280h223z" />
    <glyph glyph-name="tilde" unicode="&#x2dc;" horiz-adv-x="717" 
d="M61 1252v166q94 67 183 67q65 0 132 -39l6 -3l10 -5l9 -5q47 -25 87 -25q39 0 73 16t94 61v-166q-54 -38 -91.5 -52.5t-84.5 -14.5q-66 0 -130 39q-64 38 -113 38q-74 0 -175 -77z" />
    <glyph glyph-name="macron" unicode="&#xaf;" horiz-adv-x="676" 
d="M61 1296v168h553v-168h-553z" />
    <glyph glyph-name="breve" unicode="&#x2d8;" horiz-adv-x="676" 
d="M41 1505h172q6 -74 36 -107.5t89 -33.5t89 33.5t36 107.5h172q-40 -272 -299 -272q-255 0 -295 272z" />
    <glyph glyph-name="dotaccent" unicode="&#x2d9;" horiz-adv-x="344" 
d="M61 1243v232h221v-232h-221z" />
    <glyph glyph-name="ring" unicode="&#x2da;" horiz-adv-x="662" 
d="M329 1563q-60 0 -94.5 -34.5t-34.5 -94.5t34.5 -94.5t94.5 -34.5t95.5 35t35.5 94t-35.5 94t-95.5 35zM329 1679q120 0 195.5 -68t75.5 -177t-75.5 -177.5t-195.5 -68.5q-121 0 -194.5 67.5t-73.5 177.5q0 111 73.5 178.5t194.5 67.5z" />
    <glyph glyph-name="cedilla" unicode="&#xb8;" horiz-adv-x="623" 
d="M45 -303h154q6 -37 36.5 -59.5t74.5 -22.5q52 0 81.5 25.5t29.5 70.5q0 54 -44 78t-148 25l21 227h137v-127q186 -44 186 -200q0 -100 -72.5 -162t-190.5 -62q-108 0 -177 54t-88 153z" />
    <glyph glyph-name="hungarumlaut" unicode="&#x2dd;" horiz-adv-x="897" 
d="M260 1505h219l-262 -280h-156zM616 1505h219l-262 -280h-156z" />
    <glyph glyph-name="ogonek" unicode="&#x2db;" horiz-adv-x="653" 
d="M366 39h154q-146 -70 -226.5 -148t-80.5 -152q0 -114 117 -114q85 0 102 70h160q-61 -201 -272 -201q-119 0 -192 59.5t-73 157.5q0 104 86.5 195.5t224.5 132.5z" />
    <glyph glyph-name="caron" unicode="&#x2c7;" horiz-adv-x="819" 
d="M522 1225h-223l-242 280h199l153 -167l154 167h199z" />
    <glyph glyph-name="uni00A0" unicode="&#xa0;" horiz-adv-x="614" 
 />
    <glyph glyph-name="currency" unicode="&#xa4;" 
d="M617 1016q-134 0 -222.5 -91.5t-88.5 -228.5t89 -228t224 -91q130 0 217.5 91.5t87.5 227.5q0 137 -88 228.5t-219 91.5zM330 289l-123 -123l-139 139l127 127q-72 121 -72 264q0 136 70 260l-123 125l139 140l119 -121q133 86 287 86q153 0 287 -86l118 121l140 -140
l-123 -125q69 -122 69 -260q0 -145 -71 -264l127 -127l-140 -139l-123 123q-126 -82 -284 -82q-159 0 -285 82z" />
    <glyph glyph-name="brokenbar" unicode="&#xa6;" horiz-adv-x="737" 
d="M457 1608v-789h-176v789h176zM457 502v-789h-176v789h176z" />
    <glyph glyph-name="uni00AD" unicode="&#xad;" horiz-adv-x="1106" 
d="M184 574v174h737v-174h-737z" />
    <glyph glyph-name="twosuperior" unicode="&#xb2;" horiz-adv-x="846" 
d="M88 1260q20 126 110.5 195t235.5 69q143 0 230 -73.5t87 -193.5q0 -93 -57 -176t-207 -208l-164 -105h420v-166h-632v166l268 217q91 74 148 156q40 57 40 112q0 119 -136 119q-134 0 -155 -112h-188z" />
    <glyph glyph-name="threesuperior" unicode="&#xb3;" horiz-adv-x="868" 
d="M559 1082q112 -25 164 -80t52 -150q0 -122 -91.5 -194t-246.5 -72q-148 0 -239 67t-110 189h178q37 -106 168 -106q75 0 117 32.5t42 90.5q0 145 -159 145h-67v135h69q130 0 130 130q0 108 -139 108q-118 0 -136 -97h-185q21 118 107.5 181t227.5 63q143 0 224 -63.5
t81 -177.5q0 -151 -187 -201z" />
    <glyph glyph-name="onesuperior" unicode="&#xb9;" horiz-adv-x="539" 
d="M444 602h-178v728l-223 -107v170l233 112h168v-903z" />
    <glyph glyph-name="onequarter" unicode="&#xbc;" horiz-adv-x="1774" 
d="M307 -184l860 1802h186l-862 -1802h-184zM503 602h-178v728l-223 -107v170l233 112h168v-903zM1538 324h133v-152h-133v-170h-162v170h-400v164l380 569h182v-581zM1134 324h242v342z" />
    <glyph glyph-name="onehalf" unicode="&#xbd;" horiz-adv-x="1866" 
d="M307 -184l860 1802h186l-862 -1802h-184zM503 602h-178v728l-223 -107v170l233 112h168v-903zM1100 659q19 126 110 195t236 69q143 0 230 -73.5t87 -193.5q0 -93 -56 -174t-208 -210l-164 -104h420v-166h-633v166l268 217q91 73 149 155q40 56 40 112q0 119 -136 119
q-134 0 -155 -112h-188z" />
    <glyph glyph-name="threequarters" unicode="&#xbe;" horiz-adv-x="1954" 
d="M487 -184l860 1802h186l-862 -1802h-184zM573 1082q112 -25 164 -80t52 -150q0 -122 -91.5 -194t-246.5 -72q-148 0 -239 67t-110 189h178q37 -106 168 -106q75 0 117 32.5t42 90.5q0 145 -159 145h-67v135h69q130 0 130 130q0 108 -139 108q-118 0 -136 -97h-185
q21 118 107.5 181t227.5 63q143 0 224 -63.5t81 -177.5q0 -151 -187 -201zM1718 324h133v-152h-133v-170h-162v170h-399v164l378 569h183v-581zM1314 324h242v342z" />
    <glyph glyph-name="Eth" unicode="&#xd0;" horiz-adv-x="1450" 
d="M153 686h-102v176h102v613h479q349 0 537 -190.5t188 -544.5t-207 -550q-199 -190 -532 -190h-465v686zM362 686v-514h277q244 0 375 142q132 144 132 424q0 277 -132 424t-379 147h-273v-447h420v-176h-420z" />
    <glyph glyph-name="multiply" unicode="&#xd7;" 
d="M613 782l247 244l123 -123l-245 -244l245 -243l-123 -123l-247 244l-244 -242l-123 123l244 241l-244 242l123 123z" />
    <glyph glyph-name="Yacute" unicode="&#xdd;" horiz-adv-x="1288" 
d="M541 0v586l-541 889h229l416 -709l430 709h213l-540 -889v-586h-207zM757 1853h254l-286 -280h-176z" />
    <glyph glyph-name="Thorn" unicode="&#xde;" horiz-adv-x="1262" 
d="M363 248v-248h-209v1475h209v-238h262q278 0 432 -130.5t154 -366.5q0 -233 -154 -362.5t-432 -129.5h-262zM363 1067v-649h266q365 0 365 323q0 161 -92.5 243.5t-272.5 82.5h-266z" />
    <glyph glyph-name="eth" unicode="&#xf0;" horiz-adv-x="1190" 
d="M315 1538q219 -48 375 -124l59 61h211l-139 -145q143 -116 208.5 -278t65.5 -398q0 -330 -139 -510q-136 -175 -373 -175q-227 0 -364 141.5t-137 376.5q0 225 135 365q133 137 327 137q117 0 220 -53t143 -133q-36 268 -205 401l-61 -65h-211l139 146q-113 48 -254 69
v184zM572 825q-137 0 -213 -91.5t-76 -256.5t78.5 -254.5t222.5 -89.5q140 0 228.5 97t88.5 251q0 160 -88.5 252t-240.5 92z" />
    <glyph glyph-name="yacute" unicode="&#xfd;" horiz-adv-x="1053" 
d="M186 -381v160q58 -14 101 -14q63 0 101 47.5t87 187.5h-64l-391 1065h213l301 -905l301 905h197l-371 -1079q-67 -195 -122 -269q-86 -116 -227 -116q-45 0 -101 12q-17 4 -25 6zM634 1505h254l-287 -280h-176z" />
    <glyph glyph-name="thorn" unicode="&#xfe;" horiz-adv-x="1247" 
d="M143 -369v1844h197v-557q124 178 354 178q219 0 345 -148.5t126 -406.5q0 -277 -141 -429q-132 -143 -342 -143q-218 0 -340 166v-504h-199zM650 928q-146 0 -233 -104.5t-87 -279.5q0 -187 86.5 -297t234.5 -110t228.5 106t80.5 302q0 182 -81.5 282.5t-228.5 100.5z
" />
    <glyph glyph-name="Amacron" unicode="&#x100;" horiz-adv-x="1446" 
d="M1214 0l-145 373h-702l-148 -373h-219l606 1475h236l604 -1475h-232zM434 543h567l-280 723zM440 1644v168h553v-168h-553z" />
    <glyph glyph-name="amacron" unicode="&#x101;" horiz-adv-x="1126" 
d="M103 768q22 157 140.5 242.5t315.5 85.5q202 0 318 -99t116 -270v-727h-161l-25 145q-132 -176 -355 -176q-168 0 -269 83.5t-101 222.5q0 148 97 233t307 121l311 53v53q0 99 -63.5 152t-182.5 53q-213 0 -239 -172h-209zM797 528l-264 -47q-131 -23 -186.5 -65.5
t-55.5 -120.5q0 -160 206 -160q121 0 210.5 76.5t89.5 179.5v137zM270 1296v168h553v-168h-553z" />
    <glyph glyph-name="Abreve" unicode="&#x102;" horiz-adv-x="1446" 
d="M1214 0l-145 373h-702l-148 -373h-219l606 1475h236l604 -1475h-232zM434 543h567l-280 723zM418 1853h172q6 -74 35.5 -107.5t89.5 -33.5q59 0 89 33.5t36 107.5h172q-39 -272 -299 -272q-256 0 -295 272z" />
    <glyph glyph-name="abreve" unicode="&#x103;" horiz-adv-x="1126" 
d="M103 768q22 157 140.5 242.5t315.5 85.5q202 0 318 -99t116 -270v-727h-161l-25 145q-132 -176 -355 -176q-168 0 -269 83.5t-101 222.5q0 148 97 233t307 121l311 53v53q0 99 -63.5 152t-182.5 53q-213 0 -239 -172h-209zM797 528l-264 -47q-131 -23 -186.5 -65.5
t-55.5 -120.5q0 -160 206 -160q121 0 210.5 76.5t89.5 179.5v137zM260 1505h172q6 -74 36 -107.5t89 -33.5t89 33.5t36 107.5h172q-40 -272 -298 -272q-256 0 -296 272z" />
    <glyph glyph-name="Aogonek" unicode="&#x104;" horiz-adv-x="1446" 
d="M1391 0q-111 -61 -172.5 -129.5t-61.5 -130.5q0 -115 117 -115q85 0 102 70h160q-60 -201 -272 -201q-119 0 -192 59.5t-73 156.5q0 84 56.5 160t158.5 130l-145 373h-702l-148 -373h-219l606 1475h236l604 -1475h-55zM434 543h567l-280 723z" />
    <glyph glyph-name="aogonek" unicode="&#x105;" horiz-adv-x="1126" 
d="M103 768q22 157 140.5 242.5t315.5 85.5q202 0 318 -99t116 -270v-727q-112 -63 -172.5 -130.5t-60.5 -129.5q0 -115 117 -115q85 0 102 70h159q-60 -201 -271 -201q-119 0 -192 59.5t-73 156.5q0 86 60.5 165t167.5 131l-23 139q-132 -176 -355 -176q-168 0 -269 83.5
t-101 222.5q0 148 97 233t307 121l311 53v53q0 99 -63.5 152t-182.5 53q-213 0 -239 -172h-209zM797 528l-264 -47q-131 -23 -186.5 -65.5t-55.5 -120.5q0 -160 205 -160q120 0 210.5 76t90.5 176v141z" />
    <glyph glyph-name="Cacute" unicode="&#x106;" horiz-adv-x="1493" 
d="M1200 520h211q-15 -217 -170 -368q-189 -183 -474 -183q-315 0 -495 205t-180 563q0 365 195 571q187 198 496 198q254 0 429 -141.5t197 -363.5h-211q-23 141 -110 223q-115 108 -303 108q-228 0 -354 -156t-126 -439q0 -281 129 -439q125 -153 338 -153
q177 0 297.5 105.5t130.5 269.5zM848 1853h254l-287 -280h-176z" />
    <glyph glyph-name="cacute" unicode="&#x107;" horiz-adv-x="1135" 
d="M1053 342q-25 -168 -153 -270.5t-314 -102.5q-230 0 -367 151.5t-137 405.5q0 262 136 416t367 154q188 0 308.5 -91t151.5 -255h-218q-45 180 -239 180q-142 0 -219.5 -106.5t-77.5 -301.5q0 -181 80 -284t220 -103q101 0 164.5 53.5t82.5 153.5h215zM696 1505h254
l-286 -280h-176z" />
    <glyph glyph-name="Ccircumflex" unicode="&#x108;" horiz-adv-x="1493" 
d="M1200 520h211q-15 -217 -170 -368q-189 -183 -474 -183q-315 0 -495 205t-180 563q0 365 195 571q187 198 496 198q254 0 429 -141.5t197 -363.5h-211q-23 141 -110 223q-115 108 -303 108q-228 0 -354 -156t-126 -439q0 -281 129 -439q125 -153 338 -153
q177 0 297.5 105.5t130.5 269.5zM1091 1573h-198l-154 168l-153 -168h-199l242 280h223z" />
    <glyph glyph-name="ccircumflex" unicode="&#x109;" horiz-adv-x="1135" 
d="M1053 342q-25 -168 -153 -270.5t-314 -102.5q-230 0 -367 151.5t-137 405.5q0 262 136 416t367 154q188 0 308.5 -91t151.5 -255h-218q-45 180 -239 180q-142 0 -219.5 -106.5t-77.5 -301.5q0 -181 80 -284t220 -103q101 0 164.5 53.5t82.5 153.5h215zM924 1225h-199
l-154 168l-153 -168h-199l242 280h223z" />
    <glyph glyph-name="Cdotaccent" unicode="&#x10a;" horiz-adv-x="1493" 
d="M1200 520h211q-15 -217 -170 -368q-189 -183 -474 -183q-315 0 -495 205t-180 563q0 365 195 571q187 198 496 198q254 0 429 -141.5t197 -363.5h-211q-23 141 -110 223q-115 108 -303 108q-228 0 -354 -156t-126 -439q0 -281 129 -439q125 -153 338 -153
q177 0 297.5 105.5t130.5 269.5zM631 1591v232h221v-232h-221z" />
    <glyph glyph-name="cdotaccent" unicode="&#x10b;" horiz-adv-x="1135" 
d="M1053 342q-25 -168 -153 -270.5t-314 -102.5q-230 0 -367 151.5t-137 405.5q0 262 136 416t367 154q188 0 308.5 -91t151.5 -255h-218q-45 180 -239 180q-142 0 -219.5 -106.5t-77.5 -301.5q0 -181 80 -284t220 -103q101 0 164.5 53.5t82.5 153.5h215zM455 1243v232h221
v-232h-221z" />
    <glyph glyph-name="Ccaron" unicode="&#x10c;" horiz-adv-x="1493" 
d="M1200 520h211q-15 -217 -170 -368q-189 -183 -474 -183q-315 0 -495 205t-180 563q0 365 195 571q187 198 496 198q254 0 429 -141.5t197 -363.5h-211q-23 141 -110 223q-115 108 -303 108q-228 0 -354 -156t-126 -439q0 -281 129 -439q125 -153 338 -153
q177 0 297.5 105.5t130.5 269.5zM860 1573h-223l-242 280h199l153 -168l154 168h199z" />
    <glyph glyph-name="ccaron" unicode="&#x10d;" horiz-adv-x="1135" 
d="M1053 342q-25 -168 -153 -270.5t-314 -102.5q-230 0 -367 151.5t-137 405.5q0 262 136 416t367 154q188 0 308.5 -91t151.5 -255h-218q-45 180 -239 180q-142 0 -219.5 -106.5t-77.5 -301.5q0 -181 80 -284t220 -103q101 0 164.5 53.5t82.5 153.5h215zM668 1225h-224
l-241 280h198l154 -167l154 167h198z" />
    <glyph glyph-name="Dcaron" unicode="&#x10e;" horiz-adv-x="1450" 
d="M154 0v1475h479q349 0 537 -190.5t188 -543.5q0 -355 -207 -551q-199 -190 -532 -190h-465zM363 1309v-1137h277q244 0 375 142q132 144 132 425q0 276 -132 423t-380 147h-272zM750 1573h-223l-242 280h199l153 -168l154 168h199z" />
    <glyph glyph-name="dcaron" unicode="&#x10f;" horiz-adv-x="1470" 
d="M942 0l-35 150q-126 -181 -354 -181q-216 0 -343.5 151t-127.5 407q0 275 135 427q127 142 348 142q215 0 342 -166v545h197v-1475h-162zM596 928q-150 0 -229.5 -105t-79.5 -303q0 -177 83 -280t226 -103q147 0 234 105t87 282q0 193 -87 298q-87 106 -234 106z
M1200 1024v102q67 16 96.5 51t30.5 101h-61v197h205v-162q0 -114 -74.5 -193.5t-196.5 -95.5z" />
    <glyph glyph-name="Dcroat" unicode="&#x110;" horiz-adv-x="1450" 
d="M153 686h-102v176h102v613h479q349 0 537 -190.5t188 -544.5t-207 -550q-199 -190 -532 -190h-465v686zM362 686v-514h277q244 0 375 142q132 144 132 424q0 277 -132 424t-379 147h-273v-447h420v-176h-420z" />
    <glyph glyph-name="dcroat" unicode="&#x111;" horiz-adv-x="1247" 
d="M942 0l-35 150q-126 -181 -354 -181q-216 0 -343.5 151t-127.5 407q0 276 135 427q128 142 348 142q215 0 342 -166v295h-301v147h301v103h197v-103h113v-147h-113v-1225h-162zM596 928q-150 0 -229.5 -105t-79.5 -303q0 -177 83 -280t226 -103q147 0 234 105t87 282
q0 193 -87 298q-87 106 -234 106z" />
    <glyph glyph-name="Emacron" unicode="&#x112;" horiz-adv-x="1176" 
d="M1014 664h-651v-488h711v-176h-920v1475h920v-176h-711v-463h651v-172zM347 1644v168h552v-168h-552z" />
    <glyph glyph-name="emacron" unicode="&#x113;" horiz-adv-x="1186" 
d="M1081 307q-46 -160 -171.5 -249t-305.5 -89q-245 0 -383.5 149.5t-138.5 413.5q0 269 145 422q136 142 368 142q244 0 370 -153t129 -454h-811q14 -171 87 -252q91 -102 240 -102q95 0 163.5 46t94.5 126h213zM291 645h602q-11 138 -77 207q-80 86 -217 86
q-127 0 -205 -74t-103 -219zM301 1296v168h553v-168h-553z" />
    <glyph glyph-name="Ebreve" unicode="&#x114;" horiz-adv-x="1176" 
d="M1014 664h-651v-488h711v-176h-920v1475h920v-176h-711v-463h651v-172zM342 1853h172q7 -74 36.5 -107.5t88.5 -33.5q60 0 89.5 33.5t35.5 107.5h172q-38 -272 -298 -272q-257 0 -296 272z" />
    <glyph glyph-name="ebreve" unicode="&#x115;" horiz-adv-x="1186" 
d="M1081 307q-46 -160 -171.5 -249t-305.5 -89q-245 0 -383.5 149.5t-138.5 413.5q0 269 145 422q136 142 368 142q244 0 370 -153t129 -454h-811q14 -171 87 -252q91 -102 240 -102q95 0 163.5 46t94.5 126h213zM291 645h602q-11 138 -77 207q-80 86 -217 86
q-127 0 -205 -74t-103 -219zM295 1505h172q6 -74 36 -107.5t89 -33.5t89 33.5t36 107.5h172q-40 -272 -299 -272q-255 0 -295 272z" />
    <glyph glyph-name="Edotaccent" unicode="&#x116;" horiz-adv-x="1176" 
d="M1014 664h-651v-488h711v-176h-920v1475h920v-176h-711v-463h651v-172zM508 1591v232h221v-232h-221z" />
    <glyph glyph-name="edotaccent" unicode="&#x117;" horiz-adv-x="1186" 
d="M1081 307q-46 -160 -171.5 -249t-305.5 -89q-245 0 -383.5 149.5t-138.5 413.5q0 269 145 422q136 142 368 142q244 0 370 -153t129 -454h-811q14 -171 87 -252q91 -102 240 -102q95 0 163.5 46t94.5 126h213zM291 645h602q-11 138 -77 207q-80 86 -217 86
q-127 0 -205 -74t-103 -219zM475 1243v232h221v-232h-221z" />
    <glyph glyph-name="Eogonek" unicode="&#x118;" horiz-adv-x="1176" 
d="M1014 664h-651v-488h711v-176h-187q-109 -60 -170 -129t-61 -131q0 -115 117 -115q85 0 102 70h160q-30 -98 -99.5 -149.5t-172.5 -51.5q-119 0 -192 59.5t-73 156.5q0 82 56.5 159t156.5 131h-557v1475h920v-176h-711v-463h651v-172z" />
    <glyph glyph-name="eogonek" unicode="&#x119;" horiz-adv-x="1186" 
d="M571 -31q-235 16 -362 161.5t-127 400.5q0 271 145 423q137 142 368 142q244 0 370 -153t129 -454h-811q14 -171 87 -252q91 -102 240 -102q95 0 163.5 46t94.5 126h213q-32 -110 -92.5 -179t-175.5 -124q-113 -54 -179 -125.5t-66 -138.5q0 -115 117 -115q84 0 102 70
h159q-60 -201 -271 -201q-119 0 -192 59.5t-73 156.5q0 146 161 259zM291 645h602q-11 138 -77 207q-80 86 -217 86q-127 0 -205 -74t-103 -219z" />
    <glyph glyph-name="Ecaron" unicode="&#x11a;" horiz-adv-x="1176" 
d="M1014 664h-651v-488h711v-176h-920v1475h920v-176h-711v-463h651v-172zM742 1573h-223l-242 280h199l153 -168l154 168h198z" />
    <glyph glyph-name="ecaron" unicode="&#x11b;" horiz-adv-x="1186" 
d="M1081 307q-46 -160 -171.5 -249t-305.5 -89q-245 0 -383.5 149.5t-138.5 413.5q0 269 145 422q136 142 368 142q244 0 370 -153t129 -454h-811q14 -171 87 -252q91 -102 240 -102q95 0 163.5 46t94.5 126h213zM291 645h602q-11 138 -77 207q-80 86 -217 86
q-127 0 -205 -74t-103 -219zM694 1225h-223l-242 280h199l154 -167l153 167h199z" />
    <glyph glyph-name="Gcircumflex" unicode="&#x11c;" horiz-adv-x="1511" 
d="M1380 0h-153l-29 176q-151 -207 -452 -207q-297 0 -475.5 210.5t-178.5 560.5q0 364 198 573q182 193 479 193q242 0 410.5 -128.5t198.5 -335.5h-204q-34 141 -138 215.5t-266 74.5q-216 0 -340.5 -158t-124.5 -432q0 -285 142 -450q130 -151 325 -151q179 0 299.5 106
t120.5 263v115h-432v168h620v-793zM1106 1573h-199l-153 168l-154 -168h-199l242 280h223z" />
    <glyph glyph-name="gcircumflex" unicode="&#x11d;" horiz-adv-x="1247" 
d="M342 -72q35 -172 264 -172q147 0 224 70.5t77 206.5v137q-119 -139 -351 -139q-210 0 -342 147t-132 380q0 247 131 392.5t352 145.5t346 -172l32 141h161v-1042q0 -194 -134 -308.5t-361 -114.5q-203 0 -324 83t-154 245h211zM597 928q-146 0 -228 -98t-82 -273
q0 -162 85.5 -260t226.5 -98q150 0 234.5 93t84.5 257q0 185 -90 283q-88 96 -231 96zM971 1225h-199l-153 168l-154 -168h-199l242 280h223z" />
    <glyph glyph-name="Gbreve" unicode="&#x11e;" horiz-adv-x="1511" 
d="M1380 0h-153l-29 176q-151 -207 -452 -207q-297 0 -475.5 210.5t-178.5 560.5q0 364 198 573q182 193 479 193q242 0 410.5 -128.5t198.5 -335.5h-204q-34 141 -138 215.5t-266 74.5q-216 0 -340.5 -158t-124.5 -432q0 -285 142 -450q130 -151 325 -151q179 0 299.5 106
t120.5 263v115h-432v168h620v-793zM454 1853h173q6 -74 35.5 -107.5t88.5 -33.5q60 0 89.5 33.5t35.5 107.5h172q-38 -272 -298 -272q-257 0 -296 272z" />
    <glyph glyph-name="gbreve" unicode="&#x11f;" horiz-adv-x="1247" 
d="M342 -72q35 -172 264 -172q147 0 224 70.5t77 206.5v137q-119 -139 -351 -139q-210 0 -342 147t-132 380q0 247 131 392.5t352 145.5t346 -172l32 141h161v-1042q0 -194 -134 -308.5t-361 -114.5q-203 0 -324 83t-154 245h211zM597 928q-146 0 -228 -98t-82 -273
q0 -162 85.5 -260t226.5 -98q150 0 234.5 93t84.5 257q0 185 -90 283q-88 96 -231 96zM309 1505h172q7 -74 36.5 -107.5t88.5 -33.5t89 33.5t36 107.5h172q-40 -272 -298 -272q-256 0 -296 272z" />
    <glyph glyph-name="Gdotaccent" unicode="&#x120;" horiz-adv-x="1511" 
d="M1380 0h-153l-29 176q-151 -207 -452 -207q-297 0 -475.5 210.5t-178.5 560.5q0 364 198 573q182 193 479 193q242 0 410.5 -128.5t198.5 -335.5h-204q-34 141 -138 215.5t-266 74.5q-216 0 -340.5 -158t-124.5 -432q0 -285 142 -450q130 -151 325 -151q179 0 299.5 106
t120.5 263v115h-432v168h620v-793zM653 1591v232h221v-232h-221z" />
    <glyph glyph-name="gdotaccent" unicode="&#x121;" horiz-adv-x="1247" 
d="M342 -72q35 -172 264 -172q147 0 224 70.5t77 206.5v137q-119 -139 -351 -139q-210 0 -342 147t-132 380q0 247 131 392.5t352 145.5t346 -172l32 141h161v-1042q0 -194 -134 -308.5t-361 -114.5q-203 0 -324 83t-154 245h211zM597 928q-146 0 -228 -98t-82 -273
q0 -162 85.5 -260t226.5 -98q150 0 234.5 93t84.5 257q0 185 -90 283q-88 96 -231 96zM500 1243v232h221v-232h-221z" />
    <glyph glyph-name="Gcommaaccent" unicode="&#x122;" horiz-adv-x="1511" 
d="M1380 0h-153l-29 176q-151 -207 -452 -207q-297 0 -475.5 210.5t-178.5 560.5q0 364 198 573q182 193 479 193q242 0 410.5 -128.5t198.5 -335.5h-204q-34 141 -138 215.5t-266 74.5q-216 0 -340.5 -158t-124.5 -432q0 -285 142 -450q130 -151 325 -151q179 0 299.5 106
t120.5 263v115h-432v168h620v-793zM596 -604v103q59 14 92 61.5t35 120.5h-62v196h205v-161q0 -124 -75.5 -213t-194.5 -107z" />
    <glyph glyph-name="gcommaaccent" unicode="&#x123;" horiz-adv-x="1247" 
d="M342 -72q35 -172 264 -172q147 0 224 70.5t77 206.5v137q-119 -139 -351 -139q-210 0 -342 147t-132 380q0 247 131 392.5t352 145.5t346 -172l32 141h161v-1042q0 -194 -134 -308.5t-361 -114.5q-203 0 -324 83t-154 245h211zM597 928q-146 0 -228 -98t-82 -273
q0 -162 85.5 -260t226.5 -98q150 0 234.5 93t84.5 257q0 185 -90 283q-88 96 -231 96zM766 1638v-102q-67 -16 -96.5 -51t-30.5 -101h61v-196h-204v161q0 114 74.5 193.5t195.5 95.5z" />
    <glyph glyph-name="Hcircumflex" unicode="&#x124;" horiz-adv-x="1448" 
d="M1295 1475v-1475h-211v658h-721v-658h-209v1475h209v-641h721v641h211zM1078 1573h-199l-154 168l-153 -168h-199l242 280h223z" />
    <glyph glyph-name="hcircumflex" unicode="&#x125;" horiz-adv-x="1161" 
d="M143 0v1475h197v-531q124 152 313 152q178 0 276.5 -105.5t98.5 -296.5v-694h-197v692q0 236 -227 236q-118 0 -191 -76.5t-73 -202.5v-649h-197zM862 1573h-199l-153 168l-154 -168h-199l242 280h223z" />
    <glyph glyph-name="Hbar" unicode="&#x126;" horiz-adv-x="1489" 
d="M1314 1475v-195h154v-156h-154v-1124h-211v658h-720v-658h-209v1124h-154v156h154v195h209v-195h720v195h211zM383 834h720v290h-720v-290z" />
    <glyph glyph-name="hbar" unicode="&#x127;" horiz-adv-x="1161" 
d="M144 0v1225h-113v147h113v103h197v-103h300v-147h-300v-281q122 152 312 152q178 0 276.5 -105.5t98.5 -296.5v-694h-197v692q0 236 -226 236q-116 0 -190 -76t-74 -195v-657h-197z" />
    <glyph glyph-name="Itilde" unicode="&#x128;" horiz-adv-x="516" 
d="M362 1475v-1475h-209v1475h209zM-37 1599v166q94 68 183 68q39 0 67 -8.5t71 -33.5q62 -36 106 -36q38 0 73.5 16.5t93.5 61.5v-166q-56 -40 -92.5 -54t-83.5 -14q-65 0 -130 39q-66 39 -113 39q-74 0 -175 -78z" />
    <glyph glyph-name="itilde" unicode="&#x129;" horiz-adv-x="483" 
d="M144 0v1065h197v-1065h-197zM-53 1252v166q94 67 183 67q65 0 132 -39l6 -3l10 -5l9 -5q47 -25 87 -25q39 0 73 16t94 61v-166q-54 -38 -91.5 -52.5t-84.5 -14.5q-66 0 -130 39q-64 38 -113 38q-74 0 -175 -77z" />
    <glyph glyph-name="Imacron" unicode="&#x12a;" horiz-adv-x="516" 
d="M363 1475v-1475h-209v1475h209zM-16 1644v168h553v-168h-553z" />
    <glyph glyph-name="imacron" unicode="&#x12b;" horiz-adv-x="483" 
d="M143 0v1065h197v-1065h-197zM-33 1296v168h553v-168h-553z" />
    <glyph glyph-name="Ibreve" unicode="&#x12c;" horiz-adv-x="516" 
d="M362 1475v-1475h-209v1475h209zM-37 1853h172q6 -74 36 -107.5t89 -33.5t89 33.5t36 107.5h172q-39 -272 -299 -272q-256 0 -295 272z" />
    <glyph glyph-name="ibreve" unicode="&#x12d;" horiz-adv-x="483" 
d="M144 0v1065h197v-1065h-197zM-53 1505h172q6 -74 36 -107.5t89 -33.5t89 33.5t36 107.5h172q-40 -272 -299 -272q-255 0 -295 272z" />
    <glyph glyph-name="Iogonek" unicode="&#x12e;" horiz-adv-x="516" 
d="M362 1475v-1475h-37q-110 -61 -171.5 -129.5t-61.5 -130.5q0 -115 117 -115q85 0 102 70h160q-61 -201 -272 -201q-119 0 -192 59.5t-73 156.5q0 85 58 163t161 129v1473h209z" />
    <glyph glyph-name="iogonek" unicode="&#x12f;" horiz-adv-x="483" 
d="M322 0q-111 -61 -172.5 -129.5t-61.5 -130.5q0 -115 117 -115q85 0 102 70h160q-60 -201 -272 -201q-119 0 -192 59.5t-73 156.5q0 82 56.5 159t156.5 131v1065h197v-1065h-18zM131 1243v232h221v-232h-221z" />
    <glyph glyph-name="Idotaccent" unicode="&#x130;" horiz-adv-x="516" 
d="M362 1475v-1475h-209v1475h209zM147 1591v232h221v-232h-221z" />
    <glyph glyph-name="IJ" unicode="&#x132;" horiz-adv-x="1622" 
d="M363 1475v-1475h-209v1475h209zM779 414q15 -269 249 -269q116 0 179 75t63 214v1041h209v-1043q0 -222 -119 -343q-118 -120 -338 -120q-197 0 -322.5 123t-131.5 322h211z" />
    <glyph glyph-name="ij" unicode="&#x133;" horiz-adv-x="967" 
d="M131 1243v232h221v-232h-221zM143 0v1065h197v-1065h-197zM383 -213q6 -1 21 -5q61 -13 102 -13q67 0 93.5 29.5t26.5 105.5v1161h197v-1171q0 -137 -76 -215t-209 -78q-72 0 -155 24v162zM615 1243v232h221v-232h-221z" />
    <glyph glyph-name="Jcircumflex" unicode="&#x134;" horiz-adv-x="1106" 
d="M262 414q15 -269 249 -269q116 0 179 75t63 214v1041h209v-1043q0 -223 -119 -343q-118 -120 -338 -120q-213 0 -343 145q-109 123 -111 300h211zM1200 1573h-199l-153 168l-154 -168h-199l242 280h223z" />
    <glyph glyph-name="jcircumflex" unicode="&#x135;" horiz-adv-x="483" 
d="M-101 -213q6 -1 21 -5q62 -13 102 -13q68 0 94.5 29.5t26.5 105.5v1161h197v-1171q0 -137 -76 -215t-210 -78q-72 0 -155 24v162zM596 1225h-199l-154 168l-153 -168h-199l242 280h223z" />
    <glyph glyph-name="Kcommaaccent" unicode="&#x136;" horiz-adv-x="1294" 
d="M1008 0l-645 695v-695h-209v1475h209v-656l600 656h258l-670 -705l734 -770h-277zM463 -604v103q124 29 127 182h-61v196h205v-161q0 -124 -75.5 -213t-195.5 -107z" />
    <glyph glyph-name="kcommaaccent" unicode="&#x137;" horiz-adv-x="1065" 
d="M143 0v1475h197v-824l418 414h258l-479 -463l538 -602h-262l-473 537v-537h-197zM370 -604v103q124 29 127 182h-61v196h205v-161q0 -125 -75.5 -213.5t-195.5 -106.5z" />
    <glyph glyph-name="kgreenlandic" unicode="&#x138;" horiz-adv-x="1065" 
d="M143 0v1065h197v-469l436 469h240l-479 -502l538 -563h-276l-459 485v-485h-197z" />
    <glyph glyph-name="Lacute" unicode="&#x139;" horiz-adv-x="1130" 
d="M364 1475v-1289h695v-186h-906v1475h211zM307 1853h254l-287 -280h-176z" />
    <glyph glyph-name="lacute" unicode="&#x13a;" horiz-adv-x="483" 
d="M340 0h-197v1475h197v-1475zM272 1853h254l-287 -280h-176z" />
    <glyph glyph-name="Lcommaaccent" unicode="&#x13b;" horiz-adv-x="1130" 
d="M365 1475v-1289h694v-186h-905v1475h211zM441 -604v103q59 14 92 61.5t35 120.5h-62v196h205v-161q0 -124 -75.5 -213t-194.5 -107z" />
    <glyph glyph-name="lcommaaccent" unicode="&#x13c;" horiz-adv-x="483" 
d="M341 0h-197v1475h197v-1475zM74 -604v103q124 29 127 182h-61v196h204v-161q0 -125 -75 -214t-195 -106z" />
    <glyph glyph-name="Lcaron" unicode="&#x13d;" horiz-adv-x="1130" 
d="M365 1475v-1289h694v-186h-905v1475h211zM492 1024v102q67 16 96 51t30 101h-61v197h205v-162q0 -114 -74.5 -193.5t-195.5 -95.5z" />
    <glyph glyph-name="lcaron" unicode="&#x13e;" horiz-adv-x="702" 
d="M340 0h-197v1475h197v-1475zM432 1024v102q67 16 96 51t30 101h-61v197h205v-162q0 -114 -74.5 -193.5t-195.5 -95.5z" />
    <glyph glyph-name="Ldot" unicode="&#x13f;" horiz-adv-x="1130" 
d="M365 1475v-1289h694v-186h-905v1475h211zM703 651v232h221v-232h-221z" />
    <glyph glyph-name="ldot" unicode="&#x140;" horiz-adv-x="698" 
d="M340 0h-197v1475h197v-1475zM477 651v232h221v-232h-221z" />
    <glyph glyph-name="Lslash" unicode="&#x141;" horiz-adv-x="1130" 
d="M364 1475v-570l322 181v-209l-322 -181v-510h695v-186h-906v577l-102 -57v209l102 57v689h211z" />
    <glyph glyph-name="lslash" unicode="&#x142;" horiz-adv-x="524" 
d="M340 928l163 100v-192l-163 -100v-736h-197v615l-123 -74v192l123 74v668h197v-547z" />
    <glyph glyph-name="Nacute" unicode="&#x143;" horiz-adv-x="1473" 
d="M1319 1475v-1475h-264l-711 1235v-1235h-190v1475h276l703 -1225v1225h186zM826 1853h254l-287 -280h-176z" />
    <glyph glyph-name="nacute" unicode="&#x144;" horiz-adv-x="1161" 
d="M143 0v1065h162l23 -135q124 166 325 166q178 0 276.5 -105.5t98.5 -296.5v-694h-197v692q0 236 -226 236q-116 0 -190.5 -76t-74.5 -195v-657h-197zM700 1505h254l-287 -280h-176z" />
    <glyph glyph-name="Ncommaaccent" unicode="&#x145;" horiz-adv-x="1473" 
d="M1319 1475v-1475h-264l-711 1235v-1235h-190v1475h276l703 -1225v1225h186zM588 -604v103q124 29 128 182h-62v196h205v-161q0 -124 -75.5 -213t-195.5 -107z" />
    <glyph glyph-name="ncommaaccent" unicode="&#x146;" horiz-adv-x="1161" 
d="M143 0v1065h162l23 -135q124 166 325 166q178 0 276.5 -105.5t98.5 -296.5v-694h-197v692q0 236 -226 236q-116 0 -190.5 -76t-74.5 -195v-657h-197zM415 -604v103q124 29 127 182h-61v196h205v-161q0 -124 -75.5 -213t-195.5 -107z" />
    <glyph glyph-name="Ncaron" unicode="&#x147;" horiz-adv-x="1473" 
d="M879 1573h-223l-242 280h199l153 -168l154 168h199zM1319 1475v-1475h-264l-711 1235v-1235h-190v1475h276l703 -1225v1225h186z" />
    <glyph glyph-name="ncaron" unicode="&#x148;" horiz-adv-x="1161" 
d="M143 0v1065h162l23 -135q124 166 325 166q178 0 276.5 -105.5t98.5 -296.5v-694h-197v692q0 236 -226 236q-116 0 -190.5 -76t-74.5 -195v-657h-197zM716 1225h-223l-241 280h198l154 -167l153 167h199z" />
    <glyph glyph-name="napostrophe" unicode="&#x149;" horiz-adv-x="1227" 
d="M209 0v1065h162l23 -135q124 166 325 166q178 0 276.5 -105.5t98.5 -296.5v-694h-197v692q0 236 -226 236q-116 0 -190.5 -76t-74.5 -195v-657h-197zM2 1024v102q67 16 96.5 51t30.5 101h-61v197h204v-162q0 -114 -74.5 -193.5t-195.5 -95.5z" />
    <glyph glyph-name="Eng" unicode="&#x14a;" horiz-adv-x="1473" 
d="M1319 1475v-1588q0 -136 -74 -211t-210 -75q-79 0 -156 24v164q77 -18 123 -18q72 0 101.5 30.5t29.5 104.5v94h-78l-711 1235v-1235h-190v1475h276l703 -1225v1225h186z" />
    <glyph glyph-name="eng" unicode="&#x14b;" horiz-adv-x="1161" 
d="M143 0v1065h162l23 -135q124 166 325 166q178 0 276.5 -105.5t98.5 -296.5v-807q0 -136 -74.5 -211t-210.5 -75q-78 0 -156 24v164q77 -18 123 -18q66 0 93.5 30.5t27.5 104.5v786q0 236 -226 236q-115 0 -190 -77t-75 -196v-655h-197z" />
    <glyph glyph-name="Omacron" unicode="&#x14c;" horiz-adv-x="1585" 
d="M795 1506q308 0 495 -194q203 -210 203 -574q0 -358 -201 -568q-192 -201 -502 -201q-296 0 -483 182q-215 210 -215 587q0 359 206 570q193 198 497 198zM793 1336q-227 0 -357.5 -160t-130.5 -438q0 -279 130.5 -439t358.5 -160q225 0 355.5 160.5t130.5 438.5
t-130.5 438t-356.5 160zM498 1644v168h552v-168h-552z" />
    <glyph glyph-name="omacron" unicode="&#x14d;" horiz-adv-x="1214" 
d="M608 1096q245 0 385 -150.5t140 -412.5q0 -270 -151 -422q-141 -142 -375 -142q-242 0 -383.5 152.5t-141.5 413.5q0 258 142 409q141 152 384 152zM609 936q-148 0 -235 -108.5t-87 -293.5q0 -188 87 -296.5t237 -108.5q149 0 233 107t84 296q0 187 -85.5 295.5
t-233.5 108.5zM332 1296v168h553v-168h-553z" />
    <glyph glyph-name="Obreve" unicode="&#x14e;" horiz-adv-x="1585" 
d="M795 1506q308 0 495 -194q203 -210 203 -574q0 -358 -201 -568q-192 -201 -502 -201q-296 0 -483 182q-215 210 -215 587q0 359 206 570q193 198 497 198zM793 1336q-227 0 -357.5 -160t-130.5 -438q0 -279 130.5 -439t358.5 -160q225 0 355.5 160.5t130.5 438.5
t-130.5 438t-356.5 160zM495 1853h172q7 -74 36.5 -107.5t88.5 -33.5q60 0 89.5 33.5t35.5 107.5h172q-38 -272 -298 -272q-257 0 -296 272z" />
    <glyph glyph-name="obreve" unicode="&#x14f;" horiz-adv-x="1214" 
d="M608 1096q245 0 385 -150.5t140 -412.5q0 -270 -151 -422q-141 -142 -375 -142q-242 0 -383.5 152.5t-141.5 413.5q0 258 142 409q141 152 384 152zM609 936q-148 0 -235 -108.5t-87 -293.5q0 -188 87 -296.5t237 -108.5q149 0 233 107t84 296q0 187 -85.5 295.5
t-233.5 108.5zM309 1505h172q7 -74 36.5 -107.5t88.5 -33.5t89 33.5t36 107.5h172q-40 -272 -298 -272q-256 0 -296 272z" />
    <glyph glyph-name="Ohungarumlaut" unicode="&#x150;" horiz-adv-x="1585" 
d="M795 1506q308 0 495 -194q203 -210 203 -574q0 -358 -201 -568q-192 -201 -502 -201q-296 0 -483 182q-215 210 -215 587q0 359 206 570q193 198 497 198zM793 1336q-227 0 -357.5 -160t-130.5 -438q0 -279 130.5 -439t358.5 -160q225 0 355.5 160.5t130.5 438.5
t-130.5 438t-356.5 160zM710 1853h220l-263 -280h-155zM1067 1853h219l-262 -280h-156z" />
    <glyph glyph-name="ohungarumlaut" unicode="&#x151;" horiz-adv-x="1214" 
d="M608 1096q245 0 385 -150.5t140 -412.5q0 -270 -151 -422q-141 -142 -375 -142q-242 0 -383.5 152.5t-141.5 413.5q0 258 142 409q141 152 384 152zM609 936q-148 0 -235 -108.5t-87 -293.5q0 -188 87 -296.5t237 -108.5q149 0 233 107t84 296q0 187 -85.5 295.5
t-233.5 108.5zM543 1505h219l-262 -280h-156zM899 1505h219l-262 -280h-156z" />
    <glyph glyph-name="Racute" unicode="&#x154;" horiz-adv-x="1335" 
d="M1070 0l-357 561h-350v-561h-209v1475h477q283 0 434 -120q150 -120 150 -342q0 -146 -75.5 -250t-221.5 -159l397 -604h-245zM363 1305v-574h279q170 0 263 74t93 209q0 291 -363 291h-272zM672 1853h254l-287 -280h-176z" />
    <glyph glyph-name="racute" unicode="&#x155;" horiz-adv-x="729" 
d="M143 0v1065h162l27 -158q51 100 115 144.5t158 44.5q39 0 79 -8q10 -2 34 -7v-196q-65 18 -122 18q-124 0 -190 -95.5t-66 -272.5v-535h-197zM522 1505h254l-287 -280h-176z" />
    <glyph glyph-name="Rcommaaccent" unicode="&#x156;" horiz-adv-x="1335" 
d="M1070 0l-357 561h-350v-561h-209v1475h477q283 0 434 -120q150 -120 150 -342q0 -146 -75.5 -250t-221.5 -159l397 -604h-245zM363 1305v-574h279q170 0 263 74t93 209q0 291 -363 291h-272zM469 -604v103q124 29 128 182h-62v196h205v-161q0 -124 -75.5 -213
t-195.5 -107z" />
    <glyph glyph-name="rcommaaccent" unicode="&#x157;" horiz-adv-x="729" 
d="M144 0v1065h162l27 -158q51 100 115 144.5t158 44.5q39 0 79 -8l34 -7v-196q-66 18 -122 18q-124 0 -190 -95.5t-66 -272.5v-535h-197zM74 -604v103q124 29 127 182h-61v196h204v-161q0 -125 -75 -214t-195 -106z" />
    <glyph glyph-name="Rcaron" unicode="&#x158;" horiz-adv-x="1335" 
d="M1070 0l-357 561h-350v-561h-209v1475h477q283 0 434 -120q150 -120 150 -342q0 -146 -75.5 -250t-221.5 -159l397 -604h-245zM363 1305v-574h279q170 0 263 74t93 209q0 291 -363 291h-272zM723 1573h-223l-242 280h199l154 -168l153 168h199z" />
    <glyph glyph-name="rcaron" unicode="&#x159;" horiz-adv-x="729" 
d="M144 0v1065h162l27 -158q51 100 115 144.5t158 44.5q39 0 79 -8l34 -7v-196q-66 18 -122 18q-124 0 -190 -95.5t-66 -272.5v-535h-197zM531 1225h-223l-242 280h199l153 -167l154 167h199z" />
    <glyph glyph-name="Sacute" unicode="&#x15a;" horiz-adv-x="1337" 
d="M1235 1106h-215q-41 228 -368 228q-152 0 -236 -52.5t-84 -147.5q0 -52 18 -85.5t61 -61.5q78 -52 308 -116q295 -83 411 -184.5t116 -275.5q0 -194 -161 -318t-412 -124q-243 0 -406.5 121t-194.5 324h215q23 -134 120 -203.5t261 -69.5q167 0 268 71t101 188
q0 58 -19.5 96.5t-63.5 68.5q-92 64 -382 144q-247 68 -348 161.5t-101 254.5q0 173 143.5 277t383.5 104q243 0 398.5 -106t186.5 -294zM731 1853h254l-286 -280h-176z" />
    <glyph glyph-name="sacute" unicode="&#x15b;" horiz-adv-x="1047" 
d="M956 784h-201q-38 156 -240 156q-99 0 -154.5 -34t-55.5 -96q0 -65 50.5 -98t197.5 -65q225 -49 318 -126.5t93 -215.5q0 -154 -120 -245t-323 -91q-201 0 -320.5 87.5t-139.5 248.5h201q18 -94 79.5 -137t180.5 -43q113 0 178 44t65 121q0 81 -75 123q-50 29 -217 68
q-171 40 -246 88q-121 78 -121 223q0 144 108.5 224t302.5 80q184 0 296 -79.5t143 -232.5zM604 1505h254l-287 -280h-176z" />
    <glyph glyph-name="Scircumflex" unicode="&#x15c;" horiz-adv-x="1337" 
d="M1235 1106h-215q-41 228 -368 228q-152 0 -236 -52.5t-84 -147.5q0 -52 18 -85.5t61 -61.5q78 -52 308 -116q295 -83 411 -184.5t116 -275.5q0 -194 -161 -318t-412 -124q-243 0 -406.5 121t-194.5 324h215q23 -134 120 -203.5t261 -69.5q167 0 268 71t101 188
q0 58 -19.5 96.5t-63.5 68.5q-92 64 -382 144q-247 68 -348 161.5t-101 254.5q0 173 143.5 277t383.5 104q243 0 398.5 -106t186.5 -294zM1008 1573h-199l-153 168l-154 -168h-199l242 280h223z" />
    <glyph glyph-name="scircumflex" unicode="&#x15d;" horiz-adv-x="1047" 
d="M956 784h-201q-38 156 -240 156q-99 0 -154.5 -34t-55.5 -96q0 -65 50.5 -98t197.5 -65q225 -49 318 -126.5t93 -215.5q0 -154 -120 -245t-323 -91q-201 0 -320.5 87.5t-139.5 248.5h201q18 -94 79.5 -137t180.5 -43q113 0 178 44t65 121q0 81 -75 123q-50 29 -217 68
q-171 40 -246 88q-121 78 -121 223q0 144 108.5 224t302.5 80q184 0 296 -79.5t143 -232.5zM872 1225h-199l-153 168l-154 -168h-199l242 280h223z" />
    <glyph glyph-name="Scedilla" unicode="&#x15e;" horiz-adv-x="1337" 
d="M402 -303h153q7 -37 37.5 -59.5t74.5 -22.5q52 0 81.5 25.5t29.5 70.5q0 54 -44.5 78t-147.5 25l14 160q-216 18 -357 135.5t-171 304.5h215q23 -134 120 -203t261 -69q167 0 268 71t101 189q0 61 -22.5 101t-75.5 72q-94 59 -367 134q-247 68 -348 162t-101 254
q0 174 143.5 277.5t383.5 103.5q243 0 398.5 -106t186.5 -294h-215q-41 228 -368 228q-152 0 -236 -52.5t-84 -147.5q0 -52 18 -85.5t61 -61.5q78 -52 308 -116q295 -83 411 -184t116 -277q0 -178 -138.5 -298t-363.5 -138v-60q186 -44 186 -200q0 -100 -72.5 -162
t-190.5 -62q-108 0 -177.5 54t-87.5 153z" />
    <glyph glyph-name="scedilla" unicode="&#x15f;" horiz-adv-x="1047" 
d="M256 -303h153q7 -37 37.5 -59.5t74.5 -22.5q52 0 81.5 25.5t29.5 70.5q0 54 -44.5 78t-147.5 25l14 159q-177 18 -277 102.5t-116 229.5h201q18 -94 79.5 -137t180.5 -43q114 0 179 44t65 121q0 85 -83 128q-50 26 -210 63l-17 4q-177 42 -254 102q-96 75 -96 205
q0 144 108.5 224t302.5 80q184 0 296 -79.5t143 -232.5h-201q-38 156 -240 156q-100 0 -155 -34t-55 -96q0 -65 51 -98.5t197 -64.5q225 -48 318.5 -126t93.5 -216q0 -140 -94.5 -225t-272.5 -107v-59q186 -44 186 -200q0 -100 -72.5 -162t-190.5 -62q-107 0 -177 54.5
t-88 152.5z" />
    <glyph glyph-name="Scaron" unicode="&#x160;" horiz-adv-x="1337" 
d="M1235 1106h-215q-41 228 -368 228q-152 0 -236 -52.5t-84 -147.5q0 -52 18 -85.5t61 -61.5q78 -52 308 -116q295 -83 411 -184.5t116 -275.5q0 -194 -161 -318t-412 -124q-243 0 -406.5 121t-194.5 324h215q23 -134 120 -203.5t261 -69.5q167 0 268 71t101 188
q0 58 -19.5 96.5t-63.5 68.5q-92 64 -382 144q-247 68 -348 161.5t-101 254.5q0 173 143.5 277t383.5 104q243 0 398.5 -106t186.5 -294zM764 1573h-223l-242 280h199l154 -168l153 168h199z" />
    <glyph glyph-name="scaron" unicode="&#x161;" horiz-adv-x="1047" 
d="M956 784h-201q-38 156 -240 156q-99 0 -154.5 -34t-55.5 -96q0 -65 50.5 -98t197.5 -65q225 -49 318 -126.5t93 -215.5q0 -154 -120 -245t-323 -91q-201 0 -320.5 87.5t-139.5 248.5h201q18 -94 79.5 -137t180.5 -43q113 0 178 44t65 121q0 81 -75 123q-50 29 -217 68
q-171 40 -246 88q-121 78 -121 223q0 144 108.5 224t302.5 80q184 0 296 -79.5t143 -232.5zM639 1225h-224l-241 280h198l154 -167l153 167h199z" />
    <glyph glyph-name="Tcommaaccent" unicode="&#x162;" horiz-adv-x="1235" 
d="M1214 1289h-496v-1289h-209v1289h-489v186h1194v-186zM444 -604v103q59 14 92 61.5t35 120.5h-62v196h205v-161q0 -124 -75.5 -213t-194.5 -107z" />
    <glyph glyph-name="tcommaaccent" unicode="&#x163;" horiz-adv-x="659" 
d="M619 -10q-79 -21 -144 -21q-136 0 -211 77.5t-75 217.5v633h-158v168h158l12 256h185v-256h229v-168h-229v-637q0 -119 112 -119q46 0 111 14l10 3v-168zM181 -604v103q123 29 126 182h-61v196h205v-161q0 -124 -75 -213t-195 -107z" />
    <glyph glyph-name="Tcaron" unicode="&#x164;" horiz-adv-x="1235" 
d="M1214 1289h-496v-1289h-209v1289h-489v186h1194v-186zM727 1573h-224l-241 280h198l154 -168l154 168h198z" />
    <glyph glyph-name="tcaron" unicode="&#x165;" horiz-adv-x="772" 
d="M555 1114v98q94 16 97 86h-60v177h201v-121q0 -103 -63.5 -167t-174.5 -73zM619 -10q-79 -21 -144 -21q-136 0 -211 77.5t-75 217.5v633h-158v168h158l12 256h185v-256h229v-168h-229v-637q0 -119 112 -119q46 0 111 14l10 3v-168z" />
    <glyph glyph-name="Tbar" unicode="&#x166;" horiz-adv-x="1235" 
d="M1214 1289h-496v-376h291v-154h-291v-759h-209v759h-284v154h284v376h-489v186h1194v-186z" />
    <glyph glyph-name="tbar" unicode="&#x167;" horiz-adv-x="659" 
d="M386 897v-117h208v-147h-208v-373q0 -119 112 -119q44 0 110 14l11 3v-168q-81 -21 -145 -21q-135 0 -210 77.5t-75 217.5v369h-144v147h144v117h-158v168h158l12 256h185v-256h229v-168h-229z" />
    <glyph glyph-name="Utilde" unicode="&#x168;" horiz-adv-x="1448" 
d="M352 1475v-1000q0 -155 99.5 -242.5t274.5 -87.5q182 0 279 91q96 91 96 239v1000h203v-981q0 -241 -156.5 -383t-422.5 -142t-424 143q-158 142 -158 382v981h209zM444 1599v166q94 68 183 68q39 0 67 -8.5t71 -33.5q62 -36 106 -36q38 0 73.5 16.5t93.5 61.5v-166
q-56 -40 -92.5 -54t-83.5 -14q-65 0 -130 39t-112 39q-75 0 -176 -78z" />
    <glyph glyph-name="utilde" unicode="&#x169;" horiz-adv-x="1153" 
d="M330 1065v-698q0 -230 221 -230q118 0 190 76.5t72 202.5v649h197v-1065h-162l-23 123q-117 -154 -320 -154q-176 0 -274 105.5t-98 296.5v694h197zM264 1252v166q94 67 183 67q65 0 132 -39l6 -3l10 -5l9 -5q47 -25 87 -25q39 0 73 16t94 61v-166q-54 -38 -91.5 -52.5
t-84.5 -14.5q-66 0 -130 39q-64 38 -112 38q-76 0 -176 -77z" />
    <glyph glyph-name="Umacron" unicode="&#x16a;" horiz-adv-x="1448" 
d="M352 1475v-1000q0 -155 99.5 -242.5t274.5 -87.5q182 0 279 91q96 91 96 239v1000h203v-981q0 -241 -156.5 -383t-422.5 -142t-424 143q-158 142 -158 382v981h209zM450 1644v168h553v-168h-553z" />
    <glyph glyph-name="umacron" unicode="&#x16b;" horiz-adv-x="1153" 
d="M330 1065v-698q0 -230 221 -230q118 0 190 76.5t72 202.5v649h197v-1065h-162l-23 123q-117 -154 -320 -154q-176 0 -274 105.5t-98 296.5v694h197zM295 1296v168h553v-168h-553z" />
    <glyph glyph-name="Ubreve" unicode="&#x16c;" horiz-adv-x="1448" 
d="M352 1475v-1000q0 -155 99.5 -242.5t274.5 -87.5q182 0 279 91q96 91 96 239v1000h203v-981q0 -241 -156.5 -383t-422.5 -142t-424 143q-158 142 -158 382v981h209zM426 1853h172q6 -74 35.5 -107.5t89.5 -33.5q59 0 88.5 33.5t36.5 107.5h172q-39 -272 -299 -272
q-257 0 -295 272z" />
    <glyph glyph-name="ubreve" unicode="&#x16d;" horiz-adv-x="1153" 
d="M330 1065v-698q0 -230 221 -230q118 0 190 76.5t72 202.5v649h197v-1065h-162l-23 123q-117 -154 -320 -154q-176 0 -274 105.5t-98 296.5v694h197zM266 1505h172q6 -74 36 -107.5t89 -33.5t89 33.5t36 107.5h172q-40 -272 -298 -272q-256 0 -296 272z" />
    <glyph glyph-name="Uring" unicode="&#x16e;" horiz-adv-x="1448" 
d="M352 1475v-1000q0 -155 99.5 -242.5t274.5 -87.5q182 0 279 91q96 91 96 239v1000h203v-981q0 -241 -156.5 -383t-422.5 -142t-424 143q-158 142 -158 382v981h209zM724 1911q-59 0 -93.5 -34.5t-34.5 -94.5t34.5 -94.5t93.5 -34.5q60 0 95.5 35t35.5 94t-35.5 94
t-95.5 35zM724 2028q120 0 195.5 -68.5t75.5 -177.5t-75.5 -177.5t-195.5 -68.5q-121 0 -194.5 67.5t-73.5 178.5t73.5 178.5t194.5 67.5z" />
    <glyph glyph-name="uring" unicode="&#x16f;" horiz-adv-x="1153" 
d="M330 1065v-698q0 -230 221 -230q118 0 190 76.5t72 202.5v649h197v-1065h-162l-23 123q-117 -154 -320 -154q-176 0 -274 105.5t-98 296.5v694h197zM574 1563q-60 0 -94.5 -34.5t-34.5 -94.5t34.5 -94.5t94.5 -34.5t95.5 35t35.5 94t-35.5 94t-95.5 35zM573 1679
q120 0 195.5 -68.5t75.5 -176.5q0 -109 -75.5 -177.5t-195.5 -68.5q-121 0 -194.5 67.5t-73.5 177.5q0 111 73.5 178.5t194.5 67.5z" />
    <glyph glyph-name="Uhungarumlaut" unicode="&#x170;" horiz-adv-x="1448" 
d="M352 1475v-1000q0 -155 99.5 -242.5t274.5 -87.5q182 0 279 91q96 91 96 239v1000h203v-981q0 -241 -156.5 -383t-422.5 -142t-424 143q-158 142 -158 382v981h209zM651 1853h219l-262 -280h-156zM1007 1853h219l-262 -280h-155z" />
    <glyph glyph-name="uhungarumlaut" unicode="&#x171;" horiz-adv-x="1153" 
d="M330 1065v-698q0 -230 221 -230q118 0 190 76.5t72 202.5v649h197v-1065h-162l-23 123q-117 -154 -320 -154q-176 0 -274 105.5t-98 296.5v694h197zM518 1505h219l-262 -280h-156zM874 1505h220l-263 -280h-155z" />
    <glyph glyph-name="Uogonek" unicode="&#x172;" horiz-adv-x="1448" 
d="M729 -31q-260 3 -413 130q-173 143 -173 395v981h209v-1000q0 -154 99.5 -241.5t274.5 -87.5q182 0 279 91q96 90 96 238v1000h203v-981q0 -340 -328 -486q-106 -48 -177.5 -125t-71.5 -143q0 -115 117 -115q86 0 101 70h160q-29 -98 -98.5 -149.5t-172.5 -51.5
q-119 0 -192 59.5t-73 156.5q0 145 160 259z" />
    <glyph glyph-name="uogonek" unicode="&#x173;" horiz-adv-x="1153" 
d="M1010 1065v-1065q-111 -61 -171.5 -128.5t-60.5 -130.5q0 -116 117 -116q86 0 103 70h159q-61 -195 -271 -195q-120 0 -189.5 56.5t-69.5 153.5q0 85 58 163.5t161 132.5l-21 117q-117 -154 -320 -154q-176 0 -274 105.5t-98 296.5v694h197v-698q0 -230 221 -230
q118 0 190 73t72 193v662h197z" />
    <glyph glyph-name="Wcircumflex" unicode="&#x174;" horiz-adv-x="1972" 
d="M1962 1475l-389 -1475h-242l-334 1250l-344 -1250h-256l-387 1475h213l313 -1227l338 1227h260l320 -1223l315 1223h193zM1341 1573h-198l-154 168l-154 -168h-198l241 280h224z" />
    <glyph glyph-name="wcircumflex" unicode="&#x175;" horiz-adv-x="1659" 
d="M1628 1065l-311 -1065h-227l-258 842l-254 -842h-236l-311 1065h205l229 -856l254 856h236l250 -852l227 852h196zM1182 1225h-199l-153 168l-154 -168h-199l242 280h223z" />
    <glyph glyph-name="Ycircumflex" unicode="&#x176;" horiz-adv-x="1288" 
d="M541 0v586l-541 889h229l416 -709l430 709h213l-540 -889v-586h-207zM995 1573h-199l-153 168l-154 -168h-198l241 280h223z" />
    <glyph glyph-name="ycircumflex" unicode="&#x177;" horiz-adv-x="1053" 
d="M186 -381v160q58 -14 101 -14q63 0 101 47.5t87 187.5h-64l-391 1065h213l301 -905l301 905h197l-371 -1079q-67 -195 -122 -269q-86 -116 -227 -116q-45 0 -101 12q-17 4 -25 6zM880 1225h-199l-153 168l-154 -168h-198l241 280h223z" />
    <glyph glyph-name="Zacute" unicode="&#x179;" horiz-adv-x="1309" 
d="M328 180h878v-180h-1124v182l897 1113h-850v180h1098v-176zM741 1853h254l-286 -280h-176z" />
    <glyph glyph-name="zacute" unicode="&#x17a;" horiz-adv-x="987" 
d="M293 168h632v-168h-864v186l633 713h-602v166h833v-186zM616 1505h254l-287 -280h-176z" />
    <glyph glyph-name="Zdotaccent" unicode="&#x17b;" horiz-adv-x="1309" 
d="M328 180h878v-180h-1124v182l897 1113h-850v180h1098v-176zM555 1591v232h221v-232h-221z" />
    <glyph glyph-name="zdotaccent" unicode="&#x17c;" horiz-adv-x="987" 
d="M293 168h632v-168h-864v186l633 713h-602v166h833v-186zM403 1243v232h221v-232h-221z" />
    <glyph glyph-name="Zcaron" unicode="&#x17d;" horiz-adv-x="1309" 
d="M328 180h878v-180h-1124v182l897 1113h-850v180h1098v-176zM793 1573h-224l-241 280h198l154 -168l154 168h198z" />
    <glyph glyph-name="zcaron" unicode="&#x17e;" horiz-adv-x="987" 
d="M293 168h632v-168h-864v186l633 713h-602v166h833v-186zM639 1225h-224l-241 280h198l154 -167l153 167h199z" />
    <glyph glyph-name="longs" unicode="&#x17f;" horiz-adv-x="659" 
d="M199 0v897h-158v168h158v150q0 133 81.5 212t219.5 79q71 0 170 -25v-170q-100 25 -160 25q-54 0 -84 -29t-30 -80v-1227h-197z" />
    <glyph glyph-name="uni018F" unicode="&#x18f;" horiz-adv-x="1493" 
d="M307 1063h-211q45 201 215 322t408 121q312 0 494 -197q187 -203 187 -564q0 -353 -184 -566q-182 -210 -493 -210q-325 0 -493 198.5t-171 586.5h1128q-6 274 -119 420q-123 158 -348 158q-309 0 -413 -269zM1175 582h-893q10 -200 129.5 -318.5t311.5 -118.5
q184 0 299 111t153 326z" />
    <glyph glyph-name="Scommaaccent" unicode="&#x218;" horiz-adv-x="1337" 
d="M1235 1106h-215q-41 228 -368 228q-152 0 -236 -52.5t-84 -147.5q0 -52 18 -85.5t61 -61.5q78 -52 308 -116q295 -83 411 -184.5t116 -275.5q0 -194 -161 -318t-412 -124q-243 0 -406.5 121t-194.5 324h215q23 -134 120 -203.5t261 -69.5q167 0 268 71t101 188
q0 58 -19.5 96.5t-63.5 68.5q-92 64 -382 144q-247 68 -348 161.5t-101 254.5q0 173 143.5 277t383.5 104q243 0 398.5 -106t186.5 -294zM506 -604v103q124 29 128 182h-62v196h205v-161q0 -124 -75.5 -213t-195.5 -107z" />
    <glyph glyph-name="scommaaccent" unicode="&#x219;" horiz-adv-x="1047" 
d="M956 784h-201q-38 156 -240 156q-99 0 -154.5 -34t-55.5 -96q0 -65 50.5 -98t197.5 -65q225 -49 318 -126.5t93 -215.5q0 -154 -120 -245t-323 -91q-201 0 -320.5 87.5t-139.5 248.5h201q18 -94 79.5 -137t180.5 -43q113 0 178 44t65 121q0 81 -75 123q-50 29 -217 68
q-171 40 -246 88q-121 78 -121 223q0 144 108.5 224t302.5 80q184 0 296 -79.5t143 -232.5zM362 -604v103q124 29 127 182h-61v196h204v-161q0 -125 -75 -213.5t-195 -106.5z" />
    <glyph glyph-name="uni021A" unicode="&#x21a;" horiz-adv-x="1235" 
d="M1214 1289h-496v-1289h-209v1289h-489v186h1194v-186zM444 -604v103q59 14 92 61.5t35 120.5h-62v196h205v-161q0 -124 -75.5 -213t-194.5 -107z" />
    <glyph glyph-name="uni021B" unicode="&#x21b;" horiz-adv-x="659" 
d="M619 -10q-79 -21 -144 -21q-136 0 -211 77.5t-75 217.5v633h-158v168h158l12 256h185v-256h229v-168h-229v-637q0 -119 112 -119q46 0 111 14l10 3v-168zM181 -604v103q123 29 126 182h-61v196h205v-161q0 -124 -75 -213t-195 -107z" />
    <glyph glyph-name="uni0259" unicode="&#x259;" horiz-adv-x="1186" 
d="M94 758q45 157 176.5 247.5t313.5 90.5q242 0 376 -148t134 -415q0 -273 -140 -421q-135 -143 -362 -143q-248 0 -378 154.5t-132 452.5h809q-25 354 -313 354q-96 0 -170.5 -47t-100.5 -125h-213zM885 420h-604q13 -138 82 -207q85 -86 223 -86q251 0 299 293z" />
    <glyph glyph-name="uni02C9" unicode="&#x2c9;" horiz-adv-x="676" 
d="M61 1296v168h553v-168h-553z" />
    <glyph glyph-name="tonos" unicode="&#x384;" horiz-adv-x="422" 
d="M116 1475h244l-154 -301h-145z" />
    <glyph glyph-name="dieresistonos" unicode="&#x385;" horiz-adv-x="799" 
d="M371 1743h244l-154 -301h-145zM70 1208v205h213v-205h-213zM492 1208v205h213v-205h-213z" />
    <glyph glyph-name="Alphatonos" unicode="&#x386;" horiz-adv-x="1446" 
d="M1214 0l-145 373h-702l-148 -373h-219l606 1475h236l604 -1475h-232zM434 543h567l-280 723zM248 1475h244l-154 -301h-145z" />
    <glyph glyph-name="uni0387" unicode="&#x387;" horiz-adv-x="614" 
d="M188 532v238h238v-238h-238z" />
    <glyph glyph-name="Epsilontonos" unicode="&#x388;" horiz-adv-x="1380" 
d="M1218 664h-651v-488h711v-176h-920v1475h920v-176h-711v-463h651v-172zM24 1475h244l-154 -301h-145z" />
    <glyph glyph-name="Etatonos" unicode="&#x389;" horiz-adv-x="1632" 
d="M1478 1475v-1475h-211v658h-720v-658h-209v1475h209v-641h720v641h211zM24 1475h244l-154 -301h-145z" />
    <glyph glyph-name="Iotatonos" unicode="&#x38a;" horiz-adv-x="700" 
d="M547 1475v-1475h-209v1475h209zM24 1475h244l-154 -301h-145z" />
    <glyph glyph-name="Omicrontonos" unicode="&#x38c;" horiz-adv-x="1645" 
d="M852 1335q-226 0 -356.5 -160t-130.5 -438t130.5 -438t357.5 -160q225 0 355.5 160.5t130.5 437.5q0 278 -130.5 438t-356.5 160zM854 1506q308 0 495 -194q203 -209 203 -574q0 -358 -201 -568q-192 -201 -501 -201q-297 0 -483 182q-215 210 -215 587q0 359 206 570
q192 198 496 198zM55 1475h244l-154 -301h-145z" />
    <glyph glyph-name="Upsilontonos" unicode="&#x38e;" horiz-adv-x="1563" 
d="M815 0v586l-541 889h230l416 -709l430 709h213l-541 -889v-586h-207zM-17 1475h244l-154 -301h-145z" />
    <glyph glyph-name="Omegatonos" unicode="&#x38f;" horiz-adv-x="1649" 
d="M641 0h-422v186h199q-121 65 -191.5 213.5t-70.5 339.5q0 384 227 592q92 84 215 129.5t258 45.5q138 0 260.5 -44.5t212.5 -126.5q227 -208 227 -594q0 -191 -72.5 -341.5t-195.5 -213.5h205v-186h-422v186q272 141 272 552q0 278 -130.5 438t-356.5 160t-356.5 -160
t-130.5 -438q0 -413 272 -552v-186zM55 1475h244l-154 -301h-145z" />
    <glyph glyph-name="iotadieresistonos" unicode="&#x390;" horiz-adv-x="483" 
d="M143 0v1065h197v-1065h-197zM227 1743h244l-154 -301h-145zM-74 1208v205h213v-205h-213zM348 1208v205h213v-205h-213z" />
    <glyph glyph-name="Alpha" unicode="&#x391;" horiz-adv-x="1446" 
d="M1214 0l-145 373h-702l-148 -373h-219l606 1475h236l604 -1475h-232zM434 543h567l-280 723z" />
    <glyph glyph-name="Beta" unicode="&#x392;" horiz-adv-x="1335" 
d="M961 780q125 -24 204 -125.5t79 -239.5q0 -202 -145 -308.5t-419 -106.5h-526v1475h531q231 0 360 -85q154 -103 154 -305q0 -105 -68.5 -192.5t-169.5 -112.5zM363 692v-522h348q316 0 316 249q0 273 -308 273h-356zM363 1317v-465h350q131 0 203 61t72 171
q0 111 -75 172t-212 61h-338z" />
    <glyph glyph-name="Gamma" unicode="&#x393;" horiz-adv-x="1016" 
d="M996 1299h-633v-1299h-209v1475h842v-176z" />
    <glyph glyph-name="uni0394" unicode="&#x394;" horiz-adv-x="1446" 
d="M0 0l606 1475h236l604 -1475h-1446zM289 176h856l-424 1090z" />
    <glyph glyph-name="Epsilon" unicode="&#x395;" horiz-adv-x="1176" 
d="M1014 664h-651v-488h711v-176h-920v1475h920v-176h-711v-463h651v-172z" />
    <glyph glyph-name="Zeta" unicode="&#x396;" horiz-adv-x="1309" 
d="M328 180h878v-180h-1124v182l897 1113h-850v180h1098v-176z" />
    <glyph glyph-name="Eta" unicode="&#x397;" horiz-adv-x="1448" 
d="M1295 1475v-1475h-211v658h-721v-658h-209v1475h209v-641h721v641h211z" />
    <glyph glyph-name="Theta" unicode="&#x398;" horiz-adv-x="1585" 
d="M1151 664h-717v172h717v-172zM795 1506q308 0 495 -194q203 -210 203 -574q0 -358 -201 -568q-192 -201 -502 -201q-296 0 -483 182q-215 210 -215 587q0 359 206 570q193 198 497 198zM793 1336q-227 0 -357.5 -160t-130.5 -438q0 -279 130.5 -439t358.5 -160
q225 0 355.5 160.5t130.5 438.5t-130.5 438t-356.5 160z" />
    <glyph glyph-name="Iota" unicode="&#x399;" horiz-adv-x="516" 
d="M363 1475v-1475h-209v1475h209z" />
    <glyph glyph-name="Kappa" unicode="&#x39a;" horiz-adv-x="1294" 
d="M1008 0l-645 695v-695h-209v1475h209v-656l600 656h258l-670 -705l734 -770h-277z" />
    <glyph glyph-name="Lambda" unicode="&#x39b;" horiz-adv-x="1425" 
d="M1194 0l-483 1266l-492 -1266h-219l596 1475h235l594 -1475h-231z" />
    <glyph glyph-name="Mu" unicode="&#x39c;" horiz-adv-x="1784" 
d="M812 0l-455 1155v-1155h-203v1475h291l469 -1229l442 1229h275v-1475h-197v1145l-426 -1145h-196z" />
    <glyph glyph-name="Nu" unicode="&#x39d;" horiz-adv-x="1473" 
d="M1319 1475v-1475h-264l-711 1235v-1235h-190v1475h276l703 -1225v1225h186z" />
    <glyph glyph-name="Xi" unicode="&#x39e;" horiz-adv-x="1186" 
d="M1083 0h-981v186h981v-186zM1083 1291h-981v184h981v-184zM929 658h-675v184h675v-184z" />
    <glyph glyph-name="Omicron" unicode="&#x39f;" horiz-adv-x="1585" 
d="M793 1335q-227 0 -357.5 -160t-130.5 -438t130.5 -438t358.5 -160q225 0 355.5 160.5t130.5 437.5q0 278 -130.5 438t-356.5 160zM795 1506q308 0 495 -194q203 -210 203 -574q0 -358 -201 -568q-192 -201 -502 -201q-296 0 -483 182q-215 210 -215 587q0 359 206 570
q193 198 497 198z" />
    <glyph glyph-name="Pi" unicode="&#x3a0;" horiz-adv-x="1448" 
d="M1295 1475v-1475h-211v1299h-721v-1299h-209v1475h1141z" />
    <glyph glyph-name="Rho" unicode="&#x3a1;" horiz-adv-x="1292" 
d="M363 526v-526h-209v1475h479q254 0 400 -100q178 -121 178 -378q0 -228 -146 -349q-148 -122 -440 -122h-262zM363 1305v-609h266q196 0 281 77q84 76 84 222q0 150 -92 230t-265 80h-274z" />
    <glyph glyph-name="Sigma" unicode="&#x3a3;" horiz-adv-x="1165" 
d="M322 174h772v-174h-1022v176l502 564l-502 559v176h1022v-174h-772l440 -490v-145z" />
    <glyph glyph-name="Tau" unicode="&#x3a4;" horiz-adv-x="1235" 
d="M1214 1289h-496v-1289h-209v1289h-489v186h1194v-186z" />
    <glyph glyph-name="Upsilon" unicode="&#x3a5;" horiz-adv-x="1288" 
d="M541 0v586l-541 889h229l416 -709l430 709h213l-540 -889v-586h-207z" />
    <glyph glyph-name="Phi" unicode="&#x3a6;" horiz-adv-x="1753" 
d="M981 1505v-81q286 -12 463 -164q217 -186 217 -523q0 -314 -181 -496t-499 -190v-82h-209v82q-294 7 -471 165q-209 185 -209 522q0 307 181 489.5t499 196.5v81h209zM772 221v1033q-467 -23 -467 -515q0 -502 467 -518zM981 1254v-1033q467 16 467 515q0 250 -115.5 378
t-351.5 140z" />
    <glyph glyph-name="Chi" unicode="&#x3a7;" horiz-adv-x="1335" 
d="M784 768l530 -768h-250l-395 596l-413 -596h-236l532 762l-495 713h246l374 -549l383 549h238z" />
    <glyph glyph-name="Psi" unicode="&#x3a8;" horiz-adv-x="1571" 
d="M332 1475v-637q4 -283 354 -320v957h209v-955q350 45 350 318v637h203v-619q0 -227 -140 -357t-413 -157v-342h-209v342q-258 24 -393 133q-170 137 -170 381v619h209z" />
    <glyph glyph-name="uni03A9" unicode="&#x3a9;" horiz-adv-x="1585" 
d="M577 0h-422v186h199q-121 64 -191.5 213.5t-70.5 339.5q0 384 227 592q92 84 215 129.5t258 45.5q138 0 260.5 -44.5t212.5 -126.5q227 -208 227 -594q0 -191 -72.5 -342t-195.5 -213h205v-186h-422v186q272 142 272 552q0 278 -130.5 438t-356.5 160t-356.5 -160.5
t-130.5 -437.5q0 -412 272 -552v-186z" />
    <glyph glyph-name="Iotadieresis" unicode="&#x3aa;" horiz-adv-x="516" 
d="M362 1475v-1475h-209v1475h209zM-78 1618v205h213v-205h-213zM385 1618v205h213v-205h-213z" />
    <glyph glyph-name="Upsilondieresis" unicode="&#x3ab;" horiz-adv-x="1288" 
d="M541 0v586l-541 889h229l416 -709l430 709h213l-540 -889v-586h-207zM305 1618v205h213v-205h-213zM768 1618v205h213v-205h-213z" />
    <glyph glyph-name="alphatonos" unicode="&#x3ac;" horiz-adv-x="1237" 
d="M933 0l-35 147q-125 -178 -350 -178q-215 0 -340 150.5t-125 407.5q0 267 125 418t345 151q219 0 345 -174l30 143h166v-1065h-161zM590 928q-147 0 -224.5 -104t-77.5 -301q0 -175 69 -270q83 -116 234 -116q145 0 231 105t86 282q0 193 -88 298q-88 106 -230 106z
M557 1475h244l-154 -301h-145z" />
    <glyph glyph-name="epsilontonos" unicode="&#x3ad;" horiz-adv-x="1094" 
d="M797 332h215q-29 -173 -154 -268t-324 -95q-223 0 -338 90q-114 89 -114 230q0 100 63 170.5t179 99.5q-100 30 -153.5 92t-53.5 149q0 137 109.5 216.5t297.5 79.5q193 0 323 -90.5t159 -245.5h-217q-44 178 -261 178q-100 0 -155 -39.5t-55 -111.5q0 -152 203 -152h106
v-170h-111q-109 0 -171 -44t-62 -123q0 -165 253 -165q120 0 181 46t80 153zM522 1475h244l-154 -301h-145z" />
    <glyph glyph-name="etatonos" unicode="&#x3ae;" horiz-adv-x="1161" 
d="M143 0v1065h162l23 -135q124 166 325 166q178 0 276.5 -105.5t98.5 -296.5v-1063h-197v1061q0 236 -225 236q-115 0 -190.5 -77t-75.5 -196v-655h-197zM542 1475h244l-154 -301h-145z" />
    <glyph glyph-name="iotatonos" unicode="&#x3af;" horiz-adv-x="483" 
d="M143 0v1065h197v-1065h-197zM219 1475h243l-153 -301h-146z" />
    <glyph glyph-name="upsilondieresistonos" unicode="&#x3b0;" horiz-adv-x="1165" 
d="M143 1065h197v-698q0 -118 70 -175q68 -55 174 -55q115 0 178 60t63 170v698h197v-694q0 -192 -114.5 -297t-321.5 -105q-213 0 -328 104.5t-115 297.5v694zM571 1743h244l-154 -301h-145zM270 1208v205h213v-205h-213zM692 1208v205h213v-205h-213z" />
    <glyph glyph-name="alpha" unicode="&#x3b1;" horiz-adv-x="1237" 
d="M933 0l-35 147q-125 -178 -350 -178q-215 0 -340 150.5t-125 407.5q0 267 125 418t345 151q219 0 345 -174l30 143h166v-1065h-161zM590 928q-147 0 -224.5 -104t-77.5 -301q0 -175 69 -270q83 -116 234 -116q145 0 231 105t86 282q0 193 -88 298q-88 106 -230 106z" />
    <glyph glyph-name="beta" unicode="&#x3b2;" horiz-adv-x="1167" 
d="M143 -369v1434q0 211 111 326q110 115 312 115q195 0 312 -102t117 -273q0 -122 -55 -204.5t-162 -119.5q127 -23 212 -136.5t85 -259.5q0 -195 -118.5 -318.5t-306.5 -123.5q-205 0 -310 146v-484h-197zM551 707v170h63q82 0 131 63t49 169q0 113 -59.5 173t-171.5 60
q-116 0 -169.5 -64.5t-53.5 -201.5v-689q0 -107 78.5 -180.5t192.5 -73.5q127 0 195 72t68 205q0 148 -72 223q-70 74 -183 74h-68z" />
    <glyph glyph-name="gamma" unicode="&#x3b3;" horiz-adv-x="1053" 
d="M423 -369v369l-403 1065h213l293 -877l299 877h207l-412 -1065v-369h-197z" />
    <glyph glyph-name="delta" unicode="&#x3b4;" horiz-adv-x="1174" 
d="M275 1475h729v-168h-328q197 -56 306.5 -233.5t109.5 -440.5q0 -311 -137 -487.5t-378 -176.5q-225 0 -360 141.5t-135 376.5q0 222 134 364q131 138 331 138q117 0 219.5 -52.5t141.5 -133.5q-32 208 -204.5 350t-428.5 170v152zM578 825q-140 0 -217.5 -92t-77.5 -257
t75.5 -254t215.5 -89q142 0 235 98.5t93 248.5q0 154 -89.5 249.5t-234.5 95.5z" />
    <glyph glyph-name="epsilon" unicode="&#x3b5;" horiz-adv-x="1094" 
d="M797 332h215q-29 -173 -154 -268t-324 -95q-223 0 -338 90q-114 89 -114 230q0 100 63 170.5t179 99.5q-100 30 -153.5 92t-53.5 149q0 137 109.5 216.5t297.5 79.5q193 0 323 -90.5t159 -245.5h-217q-44 178 -261 178q-100 0 -155 -39.5t-55 -111.5q0 -152 203 -152h106
v-170h-111q-109 0 -171 -44t-62 -123q0 -165 253 -165q120 0 181 46t80 153z" />
    <glyph glyph-name="zeta" unicode="&#x3b6;" horiz-adv-x="918" 
d="M82 1315v160h815v-139q-276 -112 -422 -285q-190 -223 -190 -517q0 -178 75.5 -274t239.5 -129q162 -32 227.5 -91t65.5 -171q0 -140 -152 -268l-118 90q88 92 88 154q0 54 -42 82t-151 47q-206 35 -320 173t-114 354q0 283 136.5 492t396.5 322h-535z" />
    <glyph glyph-name="eta" unicode="&#x3b7;" horiz-adv-x="1161" 
d="M143 0v1065h162l23 -135q124 166 325 166q178 0 276.5 -105.5t98.5 -296.5v-1063h-197v1061q0 236 -225 236q-115 0 -190.5 -77t-75.5 -196v-655h-197z" />
    <glyph glyph-name="theta" unicode="&#x3b8;" horiz-adv-x="1208" 
d="M604 1506q250 0 386 -199t136 -565q0 -381 -152 -587q-137 -186 -371 -186q-244 0 -382.5 205.5t-138.5 567.5q0 387 153 588q133 176 369 176zM918 666h-629q12 -259 76 -383q78 -150 240 -150q150 0 225 127.5t88 405.5zM291 834h627q-15 247 -78 365q-78 143 -236 143
q-150 0 -225.5 -122t-87.5 -386z" />
    <glyph glyph-name="iota" unicode="&#x3b9;" horiz-adv-x="483" 
d="M143 0v1065h197v-1065h-197z" />
    <glyph glyph-name="kappa" unicode="&#x3ba;" horiz-adv-x="1065" 
d="M143 0v1065h197v-432l418 432h258l-477 -473l536 -592h-262l-473 518v-518h-197z" />
    <glyph glyph-name="lambda" unicode="&#x3bb;" horiz-adv-x="1057" 
d="M1035 0h-206l-306 905l-307 -905h-196l387 1065h61q-63 174 -101 225.5t-103 51.5q-45 0 -101 -15v160q8 2 25 6q54 13 102 13q123 0 197 -83q89 -101 174 -344z" />
    <glyph glyph-name="uni03BC" unicode="&#x3bc;" horiz-adv-x="1163" 
d="M1020 1065v-1065h-162l-21 115q-117 -146 -299 -146q-107 0 -198 62v-400h-197v1434h197v-698q0 -230 222 -230q117 0 189 74.5t72 196.5v657h197z" />
    <glyph glyph-name="nu" unicode="&#x3bd;" horiz-adv-x="1053" 
d="M1032 1065l-375 -1065h-266l-371 1065h215l295 -905l297 905h205z" />
    <glyph glyph-name="xi" unicode="&#x3be;" horiz-adv-x="1034" 
d="M92 1315v160h805v-142h-41q-251 0 -387 -82t-136 -232q0 -92 58.5 -151t149.5 -59h225v-170h-229q-103 0 -172.5 -69t-69.5 -171q0 -110 78 -173t260 -99q165 -33 242 -97t77 -167q0 -64 -40.5 -124.5t-135.5 -137.5l-121 90q53 55 73.5 89t20.5 65q0 55 -43 80t-178 48
q-434 76 -434 412q0 272 273 348q-97 30 -157.5 107.5t-60.5 171.5q0 114 62.5 186t200.5 117h-320z" />
    <glyph glyph-name="omicron" unicode="&#x3bf;" horiz-adv-x="1214" 
d="M608 1096q245 0 385 -150.5t140 -412.5q0 -270 -151 -422q-141 -142 -375 -142q-242 0 -383.5 152.5t-141.5 413.5q0 258 142 409q141 152 384 152zM609 936q-148 0 -235 -108.5t-87 -293.5q0 -188 87 -296.5t237 -108.5q149 0 233 107t84 296q0 187 -85.5 295.5
t-233.5 108.5z" />
    <glyph glyph-name="rho" unicode="&#x3c1;" horiz-adv-x="1237" 
d="M330 137v-506h-197v922q0 260 135.5 401.5t384.5 141.5q232 0 367 -149.5t135 -406.5q0 -272 -136 -423q-133 -148 -348 -148q-221 0 -341 168zM641 928q-154 0 -237.5 -100.5t-83.5 -285.5q0 -174 72 -277q89 -128 249 -128q149 0 229 104.5t80 299.5q0 184 -81.5 285.5
t-227.5 101.5z" />
    <glyph glyph-name="uni03C2" unicode="&#x3c2;" horiz-adv-x="1126" 
d="M846 -399l-119 90q50 52 70 86t20 68q0 62 -49.5 91.5t-167.5 39.5q-248 21 -383 169.5t-135 401.5q0 246 138 397q140 152 365 152q188 0 308.5 -91t151.5 -255h-218q-45 180 -239 180q-139 0 -218 -100.5t-79 -278.5q0 -196 90 -289t309 -122q169 -23 242 -80
q88 -69 88 -189q0 -60 -32.5 -115.5t-110.5 -127.5q-15 -13 -31 -27z" />
    <glyph glyph-name="sigma" unicode="&#x3c3;" horiz-adv-x="1214" 
d="M1012 905q121 -151 121 -374q0 -268 -151 -420q-141 -142 -375 -142q-242 0 -383.5 152.5t-141.5 411.5q0 271 151 423q139 140 367 140q101 0 195 -31h379v-166zM758 920q-75 16 -147 16q-149 0 -236.5 -108t-87.5 -293q0 -189 87 -297.5t237 -108.5q149 0 233 106.5
t84 295.5q0 134 -43.5 233.5t-126.5 155.5z" />
    <glyph glyph-name="tau" unicode="&#x3c4;" horiz-adv-x="983" 
d="M393 0v897h-362v168h922v-168h-363v-897h-197z" />
    <glyph glyph-name="upsilon" unicode="&#x3c5;" horiz-adv-x="1165" 
d="M143 1065h197v-698q0 -118 70 -175q68 -55 174 -55q115 0 178 60t63 170v698h197v-694q0 -192 -114.5 -297t-321.5 -105q-213 0 -328 104.5t-115 297.5v694z" />
    <glyph glyph-name="phi" unicode="&#x3c6;" horiz-adv-x="1499" 
d="M830 -27v-342h-197v342q-289 18 -420 137.5t-131 366.5q0 260 139 588h197q-77 -198 -108 -328t-31 -254q0 -174 79 -251.5t275 -94.5v531q0 209 95 318.5t278 109.5q412 0 412 -518q0 -295 -142 -441t-446 -164zM830 135q216 14 300.5 110t84.5 330q0 187 -49 270
t-160 83q-96 0 -136 -68t-40 -229v-496z" />
    <glyph glyph-name="chi" unicode="&#x3c7;" horiz-adv-x="1083" 
d="M645 383l417 -752h-239l-289 586l-283 -586h-231l397 738l-372 696h235l254 -533l242 533h225z" />
    <glyph glyph-name="psi" unicode="&#x3c8;" horiz-adv-x="1530" 
d="M342 1065v-590q0 -137 83.5 -219t245.5 -105v914h197v-914q159 25 242 107.5t83 216.5v590h193v-572q0 -223 -133.5 -356.5t-384.5 -161.5v-344h-197v342q-254 28 -391 162.5t-137 357.5v572h199z" />
    <glyph glyph-name="omega" unicode="&#x3c9;" horiz-adv-x="1538" 
d="M768 164q-89 -195 -305 -195q-188 0 -284.5 124t-96.5 366q0 149 33 291.5t107 314.5h196l-7 -19q-76 -200 -104 -323.5t-28 -260.5q0 -167 50.5 -246t157.5 -79q183 0 183 244v397h199v-397q0 -244 182 -244q108 0 158.5 79.5t50.5 247.5q0 219 -96 485q-17 48 -36 97
l-7 19h196q76 -179 108 -317.5t32 -290.5q0 -488 -386 -488q-218 0 -303 195z" />
    <glyph glyph-name="iotadieresis" unicode="&#x3ca;" horiz-adv-x="483" 
d="M144 0v1065h197v-1065h-197zM-94 1270v205h213v-205h-213zM369 1270v205h213v-205h-213z" />
    <glyph glyph-name="upsilondieresis" unicode="&#x3cb;" horiz-adv-x="1165" 
d="M143 1065h197v-698q0 -118 70 -175q68 -55 174 -55q115 0 178 60t63 170v698h197v-694q0 -192 -114.5 -297t-321.5 -105q-213 0 -328 104.5t-115 297.5v694zM249 1270v205h213v-205h-213zM712 1270v205h213v-205h-213z" />
    <glyph glyph-name="omicrontonos" unicode="&#x3cc;" horiz-adv-x="1214" 
d="M608 1096q245 0 385 -150.5t140 -412.5q0 -270 -151 -422q-141 -142 -375 -142q-242 0 -383.5 152.5t-141.5 413.5q0 258 142 409q141 152 384 152zM609 936q-148 0 -235 -108.5t-87 -293.5q0 -188 87 -296.5t237 -108.5q149 0 233 107t84 296q0 187 -85.5 295.5
t-233.5 108.5zM596 1475h244l-154 -301h-145z" />
    <glyph glyph-name="upsilontonos" unicode="&#x3cd;" horiz-adv-x="1165" 
d="M143 1065h197v-698q0 -118 70 -175q68 -55 174 -55q115 0 178 60t63 170v698h197v-694q0 -192 -114.5 -297t-321.5 -105q-213 0 -328 104.5t-115 297.5v694zM553 1475h243l-153 -301h-146z" />
    <glyph glyph-name="omegatonos" unicode="&#x3ce;" horiz-adv-x="1538" 
d="M768 164q-89 -195 -305 -195q-188 0 -284.5 124t-96.5 366q0 149 33 291.5t107 314.5h196l-7 -19q-76 -200 -104 -323.5t-28 -260.5q0 -167 50.5 -246t157.5 -79q183 0 183 244v397h199v-397q0 -244 182 -244q108 0 158.5 79.5t50.5 247.5q0 219 -96 485q-17 48 -36 97
l-7 19h196q76 -179 108 -317.5t32 -290.5q0 -488 -386 -488q-218 0 -303 195zM748 1475h243l-153 -301h-146z" />
    <glyph glyph-name="uni0400" unicode="&#x400;" horiz-adv-x="1176" 
d="M1014 664h-651v-488h711v-176h-920v1475h920v-176h-711v-463h651v-172zM779 1573h-176l-287 280h254z" />
    <glyph glyph-name="afii10023" unicode="&#x401;" horiz-adv-x="1176" 
d="M1014 664h-651v-488h711v-176h-920v1475h920v-176h-711v-463h651v-172zM279 1618v205h213v-205h-213zM742 1618v205h213v-205h-213z" />
    <glyph glyph-name="afii10051" unicode="&#x402;" horiz-adv-x="1616" 
d="M1073 -8v162q5 -2 8 -2q71 -17 114 -17q62 0 85.5 29t23.5 106v238q0 330 -322 330q-144 0 -234.5 -78t-90.5 -203v-557h-209v1289h-428v186h1071v-186h-434v-412q139 135 348 135q232 0 370 -138.5t138 -371.5v-242q0 -137 -76 -215t-209 -78q-76 0 -155 25z" />
    <glyph glyph-name="afii10052" unicode="&#x403;" horiz-adv-x="1016" 
d="M996 1299h-633v-1299h-209v1475h842v-176zM613 1853h254l-287 -280h-176z" />
    <glyph glyph-name="afii10053" unicode="&#x404;" horiz-adv-x="1493" 
d="M940 664h-633q18 -237 133 -372q124 -147 332 -147q177 0 297.5 105.5t130.5 269.5h211q-15 -217 -170 -368q-189 -183 -474 -183q-316 0 -495.5 205t-179.5 564q0 364 195 570q187 198 496 198q254 0 429 -141t197 -364h-211q-22 141 -110 223q-115 108 -302 108
q-230 0 -360 -161q-93 -116 -117 -335h631v-172z" />
    <glyph glyph-name="afii10054" unicode="&#x405;" horiz-adv-x="1337" 
d="M1235 1106h-215q-41 228 -368 228q-152 0 -236 -52.5t-84 -147.5q0 -52 18 -85.5t61 -61.5q78 -52 308 -116q295 -83 411 -184.5t116 -275.5q0 -194 -161 -318t-412 -124q-243 0 -406.5 121t-194.5 324h215q23 -134 120 -203.5t261 -69.5q167 0 268 71t101 188
q0 58 -19.5 96.5t-63.5 68.5q-92 64 -382 144q-247 68 -348 161.5t-101 254.5q0 173 143.5 277t383.5 104q243 0 398.5 -106t186.5 -294z" />
    <glyph glyph-name="afii10055" unicode="&#x406;" horiz-adv-x="516" 
d="M363 1475v-1475h-209v1475h209z" />
    <glyph glyph-name="afii10056" unicode="&#x407;" horiz-adv-x="516" 
d="M362 1475v-1475h-209v1475h209zM-78 1618v205h213v-205h-213zM385 1618v205h213v-205h-213z" />
    <glyph glyph-name="afii10057" unicode="&#x408;" horiz-adv-x="1106" 
d="M262 414q15 -269 249 -269q116 0 179 75t63 214v1041h209v-1043q0 -223 -119 -343q-118 -120 -338 -120q-213 0 -343 145q-109 123 -111 300h211z" />
    <glyph glyph-name="afii10058" unicode="&#x409;" horiz-adv-x="2165" 
d="M1026 1299h-555l-88 -951q-17 -183 -101.5 -264.5t-261.5 -83.5v184q86 0 120 32.5t42 123.5l102 1135h951v-527h270q282 0 430 -122t148 -356q0 -227 -146 -348q-148 -122 -440 -122h-471v1299zM1235 778v-608h266q196 0 281 77q84 76 84 221q0 150 -92 230t-265 80
h-274z" />
    <glyph glyph-name="afii10059" unicode="&#x40a;" horiz-adv-x="2142" 
d="M1213 1475v-588h270q282 0 430 -114q148 -113 148 -331q0 -217 -149 -329.5t-437 -112.5h-473v715h-639v-715h-209v1475h209v-588h639v588h211zM1213 717v-547h266q195 0 281 71q84 69 84 199q0 134 -92 205.5t-265 71.5h-274z" />
    <glyph glyph-name="afii10060" unicode="&#x40b;" horiz-adv-x="1616" 
d="M448 0v1289h-428v186h1071v-186h-434v-412q137 135 349 135q232 0 369.5 -138.5t137.5 -371.5v-502h-209v508q0 330 -322 330q-143 0 -234 -77t-91 -197v-564h-209z" />
    <glyph glyph-name="afii10061" unicode="&#x40c;" horiz-adv-x="1294" 
d="M686 1853h254l-286 -280h-176zM1029 0l-449 674h-217v-674h-209v1475h209v-627h227l400 627h221l-467 -705l530 -770h-245z" />
    <glyph glyph-name="uni040D" unicode="&#x40d;" horiz-adv-x="1473" 
d="M154 0v1475h205v-1119l751 1039v80h209v-1475h-209v1118l-751 -1036v-82h-205zM842 1573h-176l-287 280h254z" />
    <glyph glyph-name="afii10062" unicode="&#x40e;" horiz-adv-x="1212" 
d="M258 -12v168q7 -2 10 -3q52 -12 92 -12q77 0 117 41.5t78 159.5h-70l-485 1133h219l402 -981l389 981h202l-471 -1192q-65 -166 -149 -240t-208 -74q-44 0 -126 19zM313 1780h172q11 -98 125 -98q115 0 125 98h172q-32 -229 -299 -229q-128 0 -203.5 59t-91.5 170z" />
    <glyph glyph-name="afii10145" unicode="&#x40f;" horiz-adv-x="1448" 
d="M818 0v-287h-195v287h-469v1475h209v-1299h721v1299h211v-1475h-477z" />
    <glyph glyph-name="afii10017" unicode="&#x410;" horiz-adv-x="1446" 
d="M1214 0l-145 373h-702l-148 -373h-219l606 1475h236l604 -1475h-232zM434 543h567l-280 723z" />
    <glyph glyph-name="afii10018" unicode="&#x411;" horiz-adv-x="1292" 
d="M1016 1299h-653v-351h270q282 0 429 -122q149 -122 149 -356q0 -227 -146 -348q-148 -122 -440 -122h-471v1475h862v-176zM363 778v-608h266q195 0 281 77q84 75 84 221q0 150 -92 230t-265 80h-274z" />
    <glyph glyph-name="afii10019" unicode="&#x412;" horiz-adv-x="1335" 
d="M961 780q125 -24 204 -125.5t79 -239.5q0 -202 -145 -308.5t-419 -106.5h-526v1475h531q231 0 360 -85q154 -103 154 -305q0 -105 -68.5 -192.5t-169.5 -112.5zM363 692v-522h348q316 0 316 249q0 273 -308 273h-356zM363 1317v-465h350q131 0 203 61t72 171
q0 111 -75 172t-212 61h-338z" />
    <glyph glyph-name="afii10020" unicode="&#x413;" horiz-adv-x="1016" 
d="M996 1299h-633v-1299h-209v1475h842v-176z" />
    </font>
</defs>
</svg>
