<?xml version="1.0" standalone="no"?>
<!DOCTYPE svg PUBLIC "-//W3C//DTD SVG 1.1//EN" "http://www.w3.org/Graphics/SVG/1.1/DTD/svg11.dtd" >
<svg>
    <metadata>
        Created by FontForge 20120731 at Mon Mar 31 14:10:06 2014
        By tam,,,
        Copyright (c) 2010 by Ralph du Carrois, Erik Spiekermann &#38; Botio Nikoltchev. All rights reserved.
    </metadata>
    <defs>
        <font id="CiscoSansBoldOblique" horiz-adv-x="600" >
            <font-face
                font-family="CiscoSansBold"
                font-weight="700"
                font-style="italic"
                font-stretch="normal"
                units-per-em="1000"
                panose-1="2 11 8 3 2 2 1 9 3 3"
                ascent="790"
                descent="-210"
                x-height="520"
                cap-height="720"
                bbox="-205 -362 1267 1000"
                underline-thickness="85"
                underline-position="-6"
                slope="-11"
                unicode-range="U+0020-FEFF"
            />
            <missing-glyph horiz-adv-x="601"
               d="M15 720h571v-720h-571v720zM463 123v474h-325v-474h325z" />
            <glyph glyph-name="f_f" unicode="ff" horiz-adv-x="697"
           d="M619 412l-87 -412h-156l87 412h-166l-87 -412h-156l87 412h-79l23 108h79l8 38q10 48 28 80t44 51.5t59 27.5t74 8q45 0 95.5 -6.5t97.5 -24.5q26 21 59.5 31t71.5 10t67 -5.5t51 -11.5l-23 -110q-23 6 -44 9.5t-35 3.5q-29 0 -44.5 -12.5t-21.5 -44.5l-9 -44h109
l-23 -108h-109zM494 558q2 11 5 20.5t6 19.5q-23 5 -50 9t-47 4q-42 0 -58 -13t-23 -44l-7 -34h166z" />
            <glyph glyph-name="f_f_i" unicode="ffi" horiz-adv-x="948"
           d="M738 735q51 0 92.5 -6t63.5 -12l-23 -110q-12 3 -27 5.5t-31 4.5t-31.5 3t-27.5 1q-29 0 -47.5 -4.5t-30 -13t-18 -21t-9.5 -28.5l-7 -34h321l-110 -520h-156l87 412h-165l-87 -412h-156l87 412h-166l-87 -412h-156l87 412h-79l23 108h79l8 38q19 89 66 128t136 39
q48 0 101 -7t102 -29q64 46 161 46zM320 520h166l6 28q3 14 6 26t8 23q-23 6 -52.5 10t-49.5 4q-21 0 -34.5 -3t-21.5 -10t-13 -17.5t-8 -26.5z" />
            <glyph glyph-name="f_f_j" unicode="ffj" horiz-adv-x="949"
           d="M569 -67q16 -6 33.5 -9.5t28.5 -3.5q26 0 40.5 12.5t20.5 41.5l93 438h-166l-87 -412h-156l87 412h-166l-87 -412h-156l87 412h-79l23 108h79l8 38q10 48 28 80t44 51.5t59 27.5t74 8q45 0 94.5 -7.5t96.5 -27.5q13 11 27.5 19.5t33.5 14t43 8.5t56 3q24 0 49 -2t47.5 -5
t41 -7t29.5 -8l-23 -110q-12 4 -27 7t-31 5.5t-31 4t-25 1.5q-51 0 -75.5 -13t-31.5 -45l-9 -43h322l-118 -554q-16 -75 -63.5 -118t-132.5 -43q-11 0 -25.5 1.5t-29 4t-27.5 6t-22 7.5zM494 558q2 11 5 20.5t6 19.5q-23 5 -47.5 9t-44.5 4q-42 0 -60.5 -12.5t-25.5 -44.5
l-7 -34h166z" />
            <glyph glyph-name="f_f_l" unicode="ffl" horiz-adv-x="959"
           d="M727 735q41 0 77 -3.5t59 -8.5l154 6l-154 -729h-156l130 613q-21 4 -49.5 6t-46.5 2q-40 0 -61.5 -14t-28.5 -46l-9 -41h109l-23 -108h-109l-87 -412h-156l87 412h-166l-87 -412h-156l87 412h-79l23 108h79l8 38q10 48 28 80t44 51.5t59 27.5t74 8q45 0 94.5 -6.5
t96.5 -26.5q26 21 62.5 32t96.5 11zM494 558q2 11 5 20.5t6 19.5q-23 5 -50 9t-47 4q-42 0 -58 -13t-23 -44l-7 -34h166z" />
            <glyph glyph-name="f_i" unicode="fi" horiz-adv-x="626"
           d="M549 603q-12 4 -27.5 7t-32.5 5.5t-33.5 4t-28.5 1.5q-27 0 -44.5 -4t-29 -12.5t-17.5 -21t-9 -29.5l-7 -34h321l-110 -520h-156l87 412h-165l-87 -412h-156l87 412h-79l23 108h79l8 38q20 96 74.5 136.5t149.5 40.5q25 0 52 -2t51 -5t43 -7t30 -8z" />
            <glyph glyph-name="f_j" unicode="fj" horiz-adv-x="626"
           d="M246 -67q16 -6 33.5 -9.5t28.5 -3.5q26 0 40.5 12.5t20.5 41.5l93 438h-165l-87 -412h-156l87 412h-79l23 108h79l8 38q20 96 74.5 136.5t149.5 40.5q25 0 52 -2t51 -5t43 -7t30 -8l-23 -110q-12 4 -27.5 7t-32.5 5.5t-33.5 4t-28.5 1.5q-27 0 -44.5 -4t-29 -12.5
t-17.5 -21t-9 -29.5l-7 -34h321l-118 -554q-16 -75 -63.5 -118t-132.5 -43q-11 0 -25.5 1.5t-29 4t-27.5 6t-22 7.5z" />
            <glyph glyph-name="f_l" unicode="fl" horiz-adv-x="637"
           d="M385 0l129 609q-21 5 -47 8.5t-44 3.5q-50 0 -70 -17.5t-26 -49.5l-5 -25h99l-23 -108h-99l-89 -421h-156l89 421h-79l23 108h79l7 29q23 95 75 136t141 41q20 0 42 -1.5t42 -4t37.5 -5t29.5 -5.5l155 10l-154 -729h-156z" />
            <glyph glyph-name=".notdef" horiz-adv-x="601"
           d="M15 720h571v-720h-571v720zM463 123v474h-325v-474h325z" />
            <glyph glyph-name=".null" horiz-adv-x="0"
            />
            <glyph glyph-name="nonmarkingreturn" horiz-adv-x="260"
            />
            <glyph glyph-name="space" unicode=" " horiz-adv-x="260"
            />
            <glyph glyph-name="exclam" unicode="!" horiz-adv-x="310"
           d="M92 240l80 495h198l-130 -495h-148zM26 0l33 157h177l-33 -157h-177z" />
            <glyph glyph-name="quotedbl" unicode="&#x22;"
           d="M255 490h-100l17 153l20 92h130l-20 -92zM435 490h-100l17 153l20 92h130l-20 -92z" />
            <glyph glyph-name="numbersign" unicode="#"
           d="M134 540h70l48 160h129l-48 -160h115l48 160h129l-48 -160h57l-23 -110h-67l-48 -160h61l-23 -110h-70l-48 -160h-129l48 160h-115l-48 -160h-129l48 160h-57l23 110h66l48 160h-60zM252 270h115l48 160h-115z" />
            <glyph glyph-name="dollar" unicode="$"
           d="M617 228q0 -49 -16.5 -92t-53 -75t-93.5 -52t-138 -24l-25 -120h-129l26 127q-54 10 -90 32.5t-57 51t-29.5 60t-8.5 61.5q0 3 0.5 6.5t0.5 7.5h159q0 -47 30.5 -78.5t103.5 -31.5q31 0 57.5 5.5t45.5 16.5t30 29t11 42q0 22 -12.5 38t-34 28t-50.5 21t-62 17
q-38 9 -74.5 23.5t-65.5 37t-46.5 54t-17.5 75.5q0 58 18.5 98.5t53 67t83.5 40.5t109 19l25 117h129l-26 -120h-4q52 -8 87 -26.5t56.5 -43t31 -54t9.5 -58.5v-13h-157q0 24 -9.5 40t-25 26t-36.5 14.5t-44 4.5q-24 0 -46.5 -2.5t-39.5 -11t-27 -23.5t-10 -40
q0 -35 32 -55.5t97 -35.5q49 -12 91.5 -27.5t74 -39.5t49.5 -57.5t18 -79.5z" />
            <glyph glyph-name="percent" unicode="%" horiz-adv-x="799"
           d="M251 0h-124l490 700h124zM272 715q78 0 121 -39.5t43 -108.5q0 -42 -13 -77t-37 -60t-59 -39t-80 -14q-78 0 -120.5 39t-42.5 107q0 88 49 140t139 52zM269 637q-36 0 -57.5 -28t-21.5 -85q0 -69 59 -69q38 0 59.5 30.5t21.5 79.5q0 72 -61 72zM782 176
q0 -42 -12.5 -77.5t-36.5 -61t-59.5 -39.5t-80.5 -14q-78 0 -120.5 39t-42.5 107q0 43 13 78.5t37.5 61t59.5 39t79 13.5q78 0 120.5 -39t42.5 -107zM676 174q0 35 -15.5 52.5t-44.5 17.5q-35 0 -57.5 -27t-22.5 -83q0 -72 61 -72q38 0 58.5 31.5t20.5 80.5z" />
            <glyph glyph-name="ampersand" unicode="&#x26;" horiz-adv-x="685"
           d="M676 335q-15 -44 -38 -89.5t-55 -87.5l68 -80l-121 -93l-55 65q-42 -30 -92.5 -47.5t-107.5 -17.5q-63 0 -108.5 14t-75 38t-43.5 56t-14 68t12 64.5t34 52t53.5 44t71.5 41.5q-32 34 -48 70t-16 78q0 35 11.5 71t39.5 65.5t75 48.5t118 19q53 0 91 -13t62 -34t35.5 -47
t11.5 -53q0 -39 -15 -70t-40 -56t-57.5 -46t-67.5 -40l90 -94q12 23 21.5 46t17.5 46zM296 98q27 0 56 10t51 28l-123 135q-42 -27 -57.5 -48t-15.5 -52q0 -36 24 -54.5t65 -18.5zM295 548q-2 -5 -2 -11v-10q0 -20 9 -39.5t31 -42.5q31 18 51 32.5t32 28t16.5 27t4.5 29.5
q0 26 -16 40.5t-45 14.5q-37 0 -55.5 -17.5t-25.5 -51.5z" />
            <glyph glyph-name="quotesingle" unicode="'" horiz-adv-x="270"
           d="M249 490h-100l17 153l20 92h130l-20 -92z" />
            <glyph glyph-name="parenleft" unicode="(" horiz-adv-x="340"
           d="M116 -170q-27 57 -48.5 140.5t-21.5 186.5q0 102 26.5 198t67.5 180t90 154t95 121h132q-70 -91 -120 -176.5t-82.5 -167.5t-48 -161.5t-15.5 -158.5q0 -75 14 -152.5t43 -163.5h-132z" />
            <glyph glyph-name="parenright" unicode=")" horiz-adv-x="340"
           d="M279 810q13 -29 26 -64.5t23 -77.5t16 -89t6 -98q0 -102 -26.5 -197.5t-68 -179.5t-91 -154t-94.5 -120h-131q78 108 129 197.5t81.5 168.5t42.5 151t12 145q0 75 -14 153t-43 165h132z" />
            <glyph glyph-name="asterisk" unicode="*" horiz-adv-x="470"
           d="M307 475l-50 -119l-112 82l92 88l-130 10l44 132l112 -60l-30 127h138l-23 -129l115 62l44 -132l-131 -10l93 -88l-112 -82z" />
            <glyph glyph-name="plus" unicode="+"
           d="M439 542l-34 -158h156l-26 -123h-156l-34 -159h-129l34 159h-155l26 123h155l34 158h129z" />
            <glyph glyph-name="comma" unicode="," horiz-adv-x="270"
           d="M195 10q-12 -58 -38.5 -94t-60 -57t-70 -30t-68.5 -12l15 78q40 8 68 34t38 71h-63l33 157h177z" />
            <glyph glyph-name="hyphen" unicode="-" horiz-adv-x="540"
           d="M475 261h-380l26 123h380z" />
            <glyph glyph-name="period" unicode="." horiz-adv-x="289"
           d="M16 0l33 157h177l-33 -157h-177z" />
            <glyph glyph-name="slash" unicode="/" horiz-adv-x="340"
           d="M78 -90h-137l377 825h138z" />
            <glyph glyph-name="zero" unicode="0"
           d="M286 91q32 0 57.5 21.5t44.5 57t32.5 79.5t21.5 89t12 86t4 71q0 63 -21 89t-55 26q-31 0 -56 -21t-44.5 -55.5t-33 -78.5t-22.5 -89t-13 -87.5t-4 -74.5q0 -63 21 -88t56 -25zM276 -15q-50 0 -91 15.5t-70.5 47t-46 78t-16.5 109.5q0 36 5 86t18.5 103.5t37 105.5
t61.5 93t91.5 66.5t126.5 25.5q49 0 90.5 -15t70.5 -46t45.5 -77t16.5 -109q0 -33 -5.5 -82t-19.5 -102.5t-38 -107t-62 -96t-90.5 -69t-123.5 -26.5z" />
            <glyph glyph-name="one" unicode="1"
           d="M336 550l-178 -82l31 147l179 85h155l-148 -700h-156z" />
            <glyph glyph-name="two" unicode="2"
           d="M111 508q18 51 48.5 89.5t69 64.5t84 39.5t93.5 13.5q47 0 87.5 -13t70 -36.5t46 -56t16.5 -70.5q0 -17 -3 -33q-8 -40 -24 -70.5t-44.5 -61.5t-72 -67t-106.5 -86l-117 -94h276l-26 -127h-485l26 127l205 166q60 48 100.5 81.5t65 59.5t35 48t10.5 48q0 32 -20.5 50.5
t-55.5 18.5t-65 -22t-51 -69h-163z" />
            <glyph glyph-name="three" unicode="3"
           d="M274 98q24 0 45.5 7.5t38 23.5t26.5 40.5t10 59.5q0 42 -26.5 64t-74.5 22h-61l23 107h73q20 0 41 7t38.5 20.5t28.5 34t11 48.5q0 32 -21.5 51.5t-51.5 19.5q-68 0 -98 -69h-152q30 83 99.5 132t173.5 49q42 0 80 -10t67.5 -30.5t46.5 -50t17 -68.5q0 -36 -14.5 -66.5
t-39 -54t-57.5 -38.5t-70 -21q28 -3 51.5 -16.5t40.5 -34t26.5 -46.5t9.5 -54q0 -16 -3 -32q-19 -99 -96 -153.5t-195 -54.5q-52 0 -94 13t-72 36t-46.5 54.5t-16.5 69.5v10q0 6 1 11h155v-8q0 -33 22 -53t64 -20z" />
            <glyph glyph-name="four" unicode="4"
           d="M600 700l-96 -453h79l-24 -115h-79l-28 -132h-148l28 132h-303l28 132l383 436h160zM356 247l52 244l-206 -244h154z" />
            <glyph glyph-name="five" unicode="5"
           d="M211 180q0 -42 22.5 -62t60.5 -20q26 0 49 13t39.5 36t26 54.5t9.5 68.5q0 48 -24 71t-66 23q-20 0 -47.5 -11.5t-50.5 -31.5h-123l98 379h418l-23 -110h-278l-42 -157q29 16 59.5 24.5t59.5 8.5q40 0 74 -13t58 -37t37.5 -57.5t13.5 -75.5q0 -69 -25 -124t-67 -94
t-97.5 -59.5t-116.5 -20.5q-48 0 -88 12t-69 34.5t-45 56t-16 77.5q0 4 0.5 7.5t0.5 7.5h152z" />
            <glyph glyph-name="six" unicode="6"
           d="M239 400q30 33 73.5 55.5t91.5 22.5q84 0 131.5 -51.5t47.5 -136.5q0 -69 -23.5 -125.5t-65.5 -96.5t-99 -61.5t-123 -21.5q-103 0 -161 65.5t-58 183.5q0 51 12 113q24 118 63 190t86 111.5t99.5 53t103.5 13.5q94 0 152 -40t66 -113h-169q-3 24 -21 36t-46 12
q-21 0 -41.5 -9.5t-41 -33.5t-40 -64.5t-37.5 -102.5zM347 368q-30 0 -56 -14t-45 -37.5t-29.5 -53.5t-10.5 -62q0 -18 4 -37t14 -34.5t25.5 -25t39.5 -9.5q27 0 51.5 14t43 38.5t29 59t10.5 75.5q0 86 -76 86z" />
            <glyph glyph-name="seven" unicode="7"
           d="M251 0h-169l388 582h-327l25 118h485l-26 -122z" />
            <glyph glyph-name="eight" unicode="8"
           d="M398 715q37 0 77 -8.5t73 -27t54.5 -48.5t21.5 -72q0 -36 -13 -65t-34.5 -52t-49 -40t-55.5 -29q18 -11 35.5 -26.5t31 -35t21.5 -43t8 -50.5q0 -54 -21 -97.5t-59.5 -73.5t-93 -46t-121.5 -16q-57 0 -102 13t-76.5 36.5t-48 56t-16.5 70.5q0 44 13 76t36 55.5t54 40.5
t67 31q-35 22 -57.5 52.5t-22.5 78.5q0 61 23.5 103t62.5 68t89 37.5t103 11.5zM283 94q19 0 40.5 7t39 22t29 38t11.5 54q0 23 -9 39.5t-23 28t-31 19t-34 13.5q-17 -8 -36 -19t-35.5 -28t-27 -40.5t-10.5 -54.5q0 -21 8 -36t20.5 -24.5t28 -14t29.5 -4.5zM389 617
q-15 0 -34.5 -4.5t-37.5 -16t-30 -31.5t-12 -51q0 -20 8 -35.5t20.5 -27t28 -19t29.5 -11.5q19 9 38.5 20.5t35 26.5t25 34.5t9.5 43.5q0 19 -8.5 32.5t-20.5 22t-26 12.5t-25 4z" />
            <glyph glyph-name="nine" unicode="9"
           d="M268 222q-48 0 -82.5 14t-57 39.5t-33 60.5t-10.5 76q0 81 26.5 138t70 94t98 54t111.5 17q50 0 91.5 -14.5t71 -44.5t46 -75.5t16.5 -106.5q0 -45 -7 -98.5t-23.5 -108t-43 -105.5t-66 -90t-93 -63t-122.5 -24q-49 0 -89.5 12t-70 33.5t-47 52.5t-19.5 70h169
q0 -32 19 -47.5t51 -15.5q21 0 40.5 9t38.5 32.5t37.5 63t36.5 100.5q-29 -31 -69.5 -52t-89.5 -21zM380 605q-34 0 -59.5 -15t-42 -39.5t-24.5 -56.5t-8 -65q0 -47 21.5 -72t62.5 -25q32 0 56.5 15t41.5 39.5t25.5 56t8.5 64.5q0 19 -4 37t-13.5 31.5t-25.5 21.5t-39 8z
" />
            <glyph glyph-name="colon" unicode=":" horiz-adv-x="289"
           d="M16 0l33 157h177l-33 -157h-177zM93 363l33 157h177l-33 -157h-177z" />
            <glyph glyph-name="semicolon" unicode=";" horiz-adv-x="289"
           d="M93 363l33 157h177l-33 -157h-177zM195 10q-12 -58 -38.5 -94t-60 -57t-70 -30t-68.5 -12l15 78q40 8 68 34t38 71h-63l33 157h177z" />
            <glyph glyph-name="less" unicode="&#x3c;"
           d="M121 382l484 210l-31 -151l-307 -117l-1 -7l257 -117l-32 -145l-395 210z" />
            <glyph glyph-name="equal" unicode="="
           d="M557 363h-440l26 123h440zM513 158h-440l26 123h440z" />
            <glyph glyph-name="greater" unicode="&#x3e;"
           d="M536 265l-485 -210l32 151l307 117l1 7l-257 117l31 145l396 -210z" />
            <glyph glyph-name="question" unicode="?" horiz-adv-x="548"
           d="M118 535q11 41 36 77.5t60.5 63.5t80 43t95.5 16q48 0 86.5 -11t65 -30.5t40.5 -46.5t14 -58q0 -35 -9.5 -63t-30 -56t-53 -59.5t-77.5 -73.5q-26 -23 -35.5 -50t-16.5 -57h-157q7 33 13.5 57.5t17 45.5t27 41.5t43.5 46.5q35 34 56 57t32.5 40t15.5 30t4 27
q0 21 -14.5 32t-36.5 11q-26 0 -48.5 -20t-39.5 -63h-169zM160 0l33 157h177l-33 -157h-177z" />
            <glyph glyph-name="at" unicode="@" horiz-adv-x="915"
           d="M679 95q-49 0 -76.5 26.5t-29.5 60.5q-7 -12 -20.5 -26t-32 -25t-42 -18.5t-49.5 -7.5q-38 0 -66 13t-46 36t-26.5 53.5t-8.5 66.5q0 65 20 116.5t53 87.5t74.5 55.5t83.5 19.5q28 0 50 -12t28 -31l21 36h102l-53 -264q-5 -25 -7 -39.5t-2 -19.5q0 -22 9 -28.5t23 -6.5
q21 0 39 17t31 48t20 74.5t7 96.5q0 103 -58.5 156.5t-185.5 53.5q-51 0 -108 -17t-105.5 -58t-80 -109t-31.5 -169q0 -75 23 -126.5t62 -83t90 -45.5t107 -14q53 0 90.5 8.5t69.5 18.5l20 -98q-32 -11 -80 -21.5t-115 -10.5q-78 0 -150.5 23t-129 69t-90 116t-33.5 163
q0 84 20.5 151t55.5 117.5t81.5 86t98.5 58t106.5 32.5t105.5 10q81 0 149.5 -20.5t118.5 -60t78 -98t28 -133.5q0 -77 -20 -138t-53.5 -103t-76.5 -64.5t-89 -22.5zM461 199q23 0 44 22t32 73l11 53q5 26 6.5 37.5t1.5 20.5q0 20 -8 38t-33 18q-18 0 -36.5 -12t-33 -36.5
t-23.5 -61.5t-9 -88q0 -25 9.5 -44.5t38.5 -19.5z" />
            <glyph glyph-name="A" unicode="A" horiz-adv-x="701"
           d="M489 0l-16 165h-256l-86 -165h-171l409 720h187l105 -720h-172zM274 275h189l-29 307z" />
            <glyph glyph-name="B" unicode="B" horiz-adv-x="647"
           d="M403 720q135 0 199 -40t64 -115q0 -40 -14.5 -71t-39.5 -54t-57 -38t-67 -21q60 -13 98.5 -52.5t38.5 -97.5q0 -54 -18.5 -96.5t-58.5 -72.5t-103 -46t-152 -16h-273l153 720h230zM256 324l-45 -214h103q69 0 104.5 32.5t35.5 95.5q0 41 -26.5 63.5t-74.5 22.5h-97z
M317 610l-39 -182h92q58 0 91 29.5t33 78.5q0 35 -27 54.5t-71 19.5h-79z" />
            <glyph glyph-name="C" unicode="C" horiz-adv-x="741"
           d="M370 103q69 0 114 38.5t69 123.5h171q-46 -139 -136.5 -209.5t-236.5 -70.5q-137 0 -212 75.5t-75 212.5q0 47 8.5 100t27.5 104.5t50.5 98t77.5 82t108.5 56.5t143.5 21q57 0 108.5 -15.5t90.5 -45.5t62 -74t23 -102v-13h-168q0 68 -34.5 100.5t-92.5 32.5
q-45 0 -79 -18t-59.5 -47t-43 -66t-28 -76t-15 -76t-4.5 -65q0 -45 10 -76.5t28 -51.5t41.5 -29.5t50.5 -9.5z" />
            <glyph glyph-name="D" unicode="D" horiz-adv-x="729"
           d="M420 720q73 0 131.5 -17.5t99.5 -51.5t63 -84.5t22 -117.5q0 -40 -6.5 -88.5t-23.5 -98.5t-47.5 -97t-78.5 -83.5t-115.5 -59t-158.5 -22.5h-286l153 720h247zM316 604l-104 -487h108q49 0 86.5 16t64.5 42.5t45 60.5t29 69.5t15.5 69.5t4.5 61q0 85 -43.5 126.5
t-115.5 41.5h-90z" />
            <glyph glyph-name="E" unicode="E" horiz-adv-x="581"
           d="M541 305h-289l-39 -184h318l-25 -121h-486l153 720h486l-27 -123h-318l-37 -176h289z" />
            <glyph glyph-name="F" unicode="F" horiz-adv-x="547"
           d="M507 291h-258l-61 -291h-168l153 720h457l-26 -121h-289l-41 -192h258z" />
            <glyph glyph-name="G" unicode="G" horiz-adv-x="749"
           d="M659 0h-108l-10 67q-40 -36 -91.5 -59t-123.5 -23q-55 0 -103 18.5t-83 54.5t-55.5 89t-20.5 122q0 38 7 87t24.5 101t48.5 102t79 89t116 63t159 24q61 0 110.5 -15t85 -43.5t55 -69.5t19.5 -93h-167q-3 54 -37.5 79t-88.5 25q-46 0 -81 -18.5t-61 -48t-44 -67.5
t-29 -76.5t-15.5 -75t-4.5 -63.5q0 -86 38.5 -126t98.5 -40q35 0 66 10t56 28.5t42 44t24 55.5l11 51h-170l23 109h315z" />
            <glyph glyph-name="H" unicode="H" horiz-adv-x="723"
           d="M776 720l-153 -720h-167l64 304h-268l-64 -304h-168l153 720h168l-63 -296h268l63 296h167z" />
            <glyph glyph-name="I" unicode="I" horiz-adv-x="288"
           d="M341 720l-153 -720h-168l153 720h168z" />
            <glyph glyph-name="J" unicode="J" horiz-adv-x="565"
           d="M185 213q-3 -15 -3 -28q0 -23 7 -38t18 -25t24 -14t26 -4q16 0 30.5 4.5t27 16.5t22.5 33.5t17 54.5l108 507h161l-107 -500q-26 -121 -88.5 -178t-178.5 -57q-42 0 -82.5 10.5t-72 34t-51 61.5t-19.5 94v13q0 7 1 15h160z" />
            <glyph glyph-name="K" unicode="K" horiz-adv-x="716"
           d="M469 0l-214 321l-67 -321h-168l153 720h168l-65 -302l311 302h204l-375 -352l260 -368h-207z" />
            <glyph glyph-name="L" unicode="L" horiz-adv-x="598"
           d="M341 720l-127 -594h350l-26 -126h-518l153 720h168z" />
            <glyph glyph-name="M" unicode="M" horiz-adv-x="893"
           d="M335 0l-68 495l-105 -495h-142l153 720h188l75 -562l309 562h201l-153 -720h-152l105 496l-274 -496h-137z" />
            <glyph glyph-name="N" unicode="N" horiz-adv-x="721"
           d="M774 720l-153 -720h-173l-175 521l-109 -521h-144l153 720h186l166 -499l106 499h143z" />
            <glyph glyph-name="O" unicode="O" horiz-adv-x="784"
           d="M388 104q63 0 107 34t71.5 85t40.5 110t13 109q0 48 -13 81.5t-34.5 54t-48.5 30t-55 9.5q-43 0 -77 -16t-60 -43t-44 -62t-29.5 -72.5t-17 -75.5t-5.5 -71q0 -48 13.5 -81t35 -53.5t48.5 -29.5t55 -9zM371 -15q-57 0 -112.5 17.5t-98.5 54t-69.5 92.5t-26.5 133
q0 49 9 101.5t29.5 102.5t53 95.5t79 79.5t108 54t139.5 20q57 0 112.5 -18t99 -54.5t70.5 -93t27 -134.5q0 -43 -8 -93t-27 -100t-50 -96.5t-77.5 -82t-110.5 -57t-147 -21.5z" />
            <glyph glyph-name="P" unicode="P" horiz-adv-x="666"
           d="M424 720q141 0 207.5 -54.5t66.5 -147.5q0 -139 -90 -208t-256 -69h-113l-51 -241h-168l153 720h251zM316 605l-53 -249h107q70 0 112 42t42 111q0 50 -32 73t-91 23h-85z" />
            <glyph glyph-name="Q" unicode="Q" horiz-adv-x="784"
           d="M371 -15q-57 0 -112.5 17.5t-98.5 54t-69.5 92.5t-26.5 133q0 49 9 101.5t29.5 102.5t53 95.5t79 79.5t108 54t139.5 20q57 0 112.5 -18t99 -54.5t70.5 -93t27 -134.5q0 -44 -8.5 -96t-29 -103t-54 -98.5t-83.5 -82.5l81 -118l-155 -95l-61 155q-25 -5 -52.5 -8.5
t-57.5 -3.5zM388 104q63 0 107 34t71.5 85t40.5 110t13 109q0 48 -13 81.5t-34.5 54t-48.5 30t-55 9.5q-43 0 -77 -16t-60 -43t-44 -62t-29.5 -72.5t-17 -75.5t-5.5 -71q0 -48 13.5 -81t35 -53.5t48.5 -29.5t55 -9z" />
            <glyph glyph-name="R" unicode="R" horiz-adv-x="683"
           d="M443 0l-105 263h-95l-55 -263h-168l153 720h255q133 0 202.5 -50t69.5 -138q0 -94 -54 -153.5t-145 -87.5l137 -291h-195zM316 604l-48 -225h109q30 0 56.5 8.5t46.5 25.5t32 43.5t12 61.5q0 43 -30 64.5t-85 21.5h-93z" />
            <glyph glyph-name="S" unicode="S" horiz-adv-x="644"
           d="M312 -15q-68 0 -121 15t-90 43t-56.5 68t-19.5 89v12h159v-6q0 -45 34.5 -74.5t103.5 -29.5q66 0 103 22.5t37 70.5q0 23 -8.5 40t-27.5 30.5t-50 24.5t-76 22q-38 9 -73.5 24.5t-63 39.5t-44 56.5t-16.5 76.5q0 107 72.5 166.5t228.5 59.5q129 0 199.5 -53t70.5 -147
h-157v6q0 38 -34.5 58.5t-86.5 20.5q-61 0 -89 -19t-28 -60q0 -38 32.5 -61.5t98.5 -40.5q44 -11 84.5 -28.5t72 -43t50.5 -61t19 -82.5q0 -53 -17 -96.5t-55.5 -75.5t-100.5 -49.5t-151 -17.5z" />
            <glyph glyph-name="T" unicode="T" horiz-adv-x="603"
           d="M684 594h-214l-126 -594h-168l126 594h-211l27 126h593z" />
            <glyph glyph-name="U" unicode="U" horiz-adv-x="713"
           d="M333 720l-104 -484q-2 -8 -3 -15.5t-1 -15.5q0 -48 33 -74.5t90 -26.5q131 0 156 120l106 496h161l-103 -485q-26 -121 -106.5 -185.5t-226.5 -64.5q-64 0 -115 14t-87 41t-55.5 65.5t-19.5 86.5q0 26 6 55l101 473h168z" />
            <glyph glyph-name="V" unicode="V" horiz-adv-x="661"
           d="M774 720l-383 -720h-201l-77 720h166l36 -589l290 589h169z" />
            <glyph glyph-name="W" unicode="W" horiz-adv-x="985"
           d="M1098 720l-314 -720h-198l-16 556l-246 -556h-191l-20 720h164v-532l235 532h187l17 -535l218 535h164z" />
            <glyph glyph-name="X" unicode="X" horiz-adv-x="701"
           d="M485 377l171 -377h-184l-109 247l-200 -247h-198l328 376l-159 344h183l97 -222l187 222h188z" />
            <glyph glyph-name="Y" unicode="Y" horiz-adv-x="668"
           d="M215 0l61 287l-163 433h173l95 -293l233 293h167l-347 -433l-61 -287h-158z" />
            <glyph glyph-name="Z" unicode="Z" horiz-adv-x="620"
           d="M205 119h369l-25 -119h-564l25 121l476 480h-355l26 119h551l-26 -118z" />
            <glyph glyph-name="bracketleft" unicode="[" horiz-adv-x="340"
           d="M233 -170h-250l209 980h250l-22 -103h-114l-165 -774h114z" />
            <glyph glyph-name="backslash" unicode="\" horiz-adv-x="340"
           d="M116 735h138l26 -825h-138z" />
            <glyph glyph-name="bracketright" unicode="]" horiz-adv-x="340"
           d="M-25 -67h114l165 774h-114l22 103h250l-209 -980h-249z" />
            <glyph glyph-name="asciicircum" unicode="^" horiz-adv-x="520"
           d="M223 400h-152l227 320h150l91 -320h-146l-43 199z" />
            <glyph glyph-name="underscore" unicode="_" horiz-adv-x="544"
           d="M472 -149h-543l26 123h543z" />
            <glyph glyph-name="grave" unicode="`" horiz-adv-x="330"
           d="M383 583h-116l-119 137h164z" />
            <glyph glyph-name="a" unicode="a" horiz-adv-x="580"
           d="M83 370q35 78 103 121.5t173 43.5q48 0 86 -11.5t64.5 -32.5t41 -50.5t14.5 -65.5q0 -22 -4 -41l-71 -334h-122l-8 54q-32 -29 -78.5 -49t-108.5 -20q-69 0 -110 34.5t-41 97.5q0 39 13 70t41.5 55.5t75 41.5t113.5 28l139 22l2 9q3 13 3.5 19t0.5 11q0 29 -19 45t-53 16
q-38 0 -61 -17.5t-34 -46.5h-160zM241 92q53 0 89 29.5t44 70.5l12 57l-99 -19q-63 -12 -84.5 -33t-21.5 -54q0 -23 15.5 -37t44.5 -14z" />
            <glyph glyph-name="b" unicode="b" horiz-adv-x="636"
           d="M15 0l153 720h156l-54 -252q34 29 74 48t87 19q43 0 79 -14.5t62 -42t40 -66t14 -86.5q0 -32 -6 -69.5t-20 -75.5t-36.5 -73.5t-55.5 -62.5t-77 -43.5t-100 -16.5q-48 0 -90.5 21t-64.5 53l-39 -59h-122zM368 421q-45 0 -75 -25t-47 -60t-24 -71.5t-7 -59.5q0 -52 27 -79
t75 -27q46 0 74.5 24.5t45 58.5t22.5 69.5t6 58.5q0 57 -26.5 84t-70.5 27z" />
            <glyph glyph-name="c" unicode="c" horiz-adv-x="590"
           d="M556 173q-17 -40 -41 -74.5t-57 -59.5t-77.5 -39.5t-102.5 -14.5q-121 0 -179 54.5t-58 150.5q0 52 14.5 112t50.5 112t96.5 86.5t152.5 34.5q52 0 96 -12.5t75.5 -36t49.5 -55.5t19 -71h-164q-2 32 -26.5 50.5t-54.5 18.5q-45 0 -73.5 -26t-45 -62t-22.5 -74t-6 -62
q0 -56 24.5 -85t59.5 -29t59 19.5t46 62.5h164z" />
            <glyph glyph-name="d" unicode="d" horiz-adv-x="635"
           d="M418 0l-14 57q-35 -32 -77.5 -52t-92.5 -20q-44 0 -80 15.5t-61.5 43t-39 67t-13.5 87.5q0 54 17 113.5t53 109t91 82t131 32.5q51 0 91 -18.5t61 -49.5l53 253h156l-153 -720h-122zM451 317q0 30 -8.5 50t-22 32t-31.5 17t-36 5q-47 0 -77 -23.5t-47 -57t-23 -69.5
t-6 -60q0 -56 26.5 -84t71.5 -28q31 0 54.5 12t40 30.5t28 42.5t18 48.5t9.5 46.5t3 38z" />
            <glyph glyph-name="e" unicode="e" horiz-adv-x="602"
           d="M558 151q-17 -36 -39 -66.5t-54.5 -52.5t-76 -34.5t-101.5 -12.5q-53 0 -98 15.5t-77 45t-50 71t-18 93.5q0 24 5 57t17.5 69.5t34.5 72t57 63.5t84 45.5t115 17.5q52 0 95 -13.5t73.5 -40.5t47.5 -68.5t17 -96.5q0 -41 -11 -94h-379q-1 -5 -1 -10v-10q0 -54 28 -81
t75 -27q37 0 60.5 15.5t36.5 41.5h159zM350 437q-42 0 -76 -28.5t-55 -95.5h219q3 18 3 34q0 48 -24 69t-67 21z" />
            <glyph glyph-name="f" unicode="f" horiz-adv-x="380"
           d="M479 604q-48 17 -79 17q-33 0 -49 -12.5t-22 -44.5l-9 -44h114l-23 -108h-114l-87 -412h-156l87 412h-79l23 108h79l8 38q10 48 26.5 81.5t42 55t61 31t83.5 9.5q38 0 66 -6t51 -14z" />
            <glyph glyph-name="g" unicode="g" horiz-adv-x="625"
           d="M160 -32q8 -30 30.5 -42t69.5 -12q49 0 77 25t40 79l11 49q-32 -25 -69.5 -38.5t-75.5 -13.5q-43 0 -79 15t-62.5 43t-41 67.5t-14.5 87.5q0 71 22.5 128t61.5 96.5t91 61t112 21.5q45 0 87.5 -17.5t64.5 -48.5l37 51h118l-105 -492q-23 -105 -95 -164t-197 -59
q-121 0 -181.5 40.5t-60.5 112.5v10h159zM452 315q0 53 -27.5 79.5t-71.5 26.5q-41 0 -69 -18t-46 -45t-26 -59.5t-8 -61.5q0 -53 27.5 -80.5t72.5 -27.5q44 0 72.5 20t45 48.5t23.5 61t7 56.5z" />
            <glyph glyph-name="h" unicode="h" horiz-adv-x="601"
           d="M168 720h156l-53 -247q31 28 71.5 45t84.5 17q76 0 117.5 -40t41.5 -111q0 -28 -6 -58l-69 -326h-156l69 324q4 17 4 33q0 35 -19.5 51.5t-50.5 16.5q-42 0 -76 -29t-45 -83l-66 -313h-156z" />
            <glyph glyph-name="i" unicode="i" horiz-adv-x="286"
           d="M143 587l29 133h168l-29 -133h-168zM25 0l110 520h156l-110 -520h-156z" />
            <glyph glyph-name="j" unicode="j" horiz-adv-x="277"
           d="M-109 -67q16 -6 33.5 -9.5t28.5 -3.5q26 0 40.5 12.5t20.5 41.5l116 546h156l-118 -554q-16 -75 -63.5 -118t-132.5 -43q-11 0 -25.5 1.5t-29 4t-27.5 6t-22 7.5zM138 587l29 133h168l-29 -133h-168z" />
            <glyph glyph-name="k" unicode="k" horiz-adv-x="585"
           d="M15 0l153 720h156l-83 -387l209 187h189l-258 -228l174 -292h-192l-142 239l-50 -239h-156z" />
            <glyph glyph-name="l" unicode="l" horiz-adv-x="266"
           d="M171 0h-156l153 720h156z" />
            <glyph glyph-name="m" unicode="m" horiz-adv-x="921"
           d="M15 0l110 520h110l14 -57q34 32 76.5 52t89.5 20q53 0 93.5 -17t57.5 -55q35 32 80 52t99 20q35 0 64.5 -9t51 -27t33.5 -46t12 -66q0 -14 -2 -28.5t-5 -30.5l-69 -328h-156l70 335q3 13 3 27q0 30 -17 46.5t-49 16.5q-47 0 -75.5 -30.5t-38.5 -76.5l-67 -318h-156
l70 335q3 13 3 27q0 30 -17 46.5t-49 16.5q-42 0 -72 -28t-39 -72l-69 -325h-156z" />
            <glyph glyph-name="n" unicode="n" horiz-adv-x="601"
           d="M125 520h129l3 -57q37 35 81.5 53.5t88.5 18.5q76 0 117.5 -40t41.5 -111q0 -28 -6 -58l-69 -326h-156l69 324q4 16 4 33q0 35 -19.5 51.5t-50.5 16.5q-42 0 -76 -29t-45 -83l-66 -313h-156z" />
            <glyph glyph-name="o" unicode="o" horiz-adv-x="620"
           d="M359 535q56 0 101.5 -15t78 -43t50 -69t17.5 -93q0 -29 -5 -64.5t-18 -72.5t-35.5 -71.5t-58 -61.5t-85 -43.5t-115.5 -16.5q-57 0 -102.5 15t-77.5 43.5t-49 69.5t-17 94q0 31 5 67.5t18 73t35.5 70t57.5 60t84.5 42t115.5 15.5zM350 430q-34 0 -58 -13t-40 -34
t-26 -46.5t-15 -50.5t-6.5 -47t-1.5 -35q0 -59 28 -86.5t70 -27.5q33 0 56.5 13t40 34t26.5 47t15 52t7 49t2 37q0 58 -27.5 83t-70.5 25z" />
            <glyph glyph-name="p" unicode="p" horiz-adv-x="635"
           d="M327 -15q-43 0 -83.5 17.5t-62.5 46.5l-49 -229h-156l149 700h118l18 -61q35 34 76 55t95 21q43 0 79 -15t61 -43t39 -67t14 -87q0 -73 -22.5 -135t-62 -107t-94.5 -70.5t-119 -25.5zM368 421q-47 0 -77 -26t-47 -61.5t-23.5 -72t-6.5 -57.5q0 -55 29 -80t74 -25
q42 0 70.5 21.5t45.5 53.5t24.5 68.5t7.5 67.5q0 56 -26.5 83.5t-70.5 27.5z" />
            <glyph glyph-name="q" unicode="q" horiz-adv-x="635"
           d="M650 520l-149 -700h-156l49 228q-34 -29 -74 -46t-86 -17q-44 0 -80 15.5t-61.5 44t-39 68.5t-13.5 88q0 27 5.5 62t18 72t34.5 73t54.5 64t77.5 45.5t104 17.5q54 0 94.5 -21t60.5 -56l43 62h118zM351 421q-48 0 -77.5 -23t-46 -55.5t-22 -67.5t-5.5 -60
q0 -57 26.5 -86.5t71.5 -29.5t75 22t47 53.5t24 67.5t7 65q0 56 -27.5 85t-72.5 29z" />
            <glyph glyph-name="r" unicode="r" horiz-adv-x="397"
           d="M15 0l110 520h130v-79q31 46 69.5 70t86.5 24q17 0 32.5 -2t25.5 -5l-31 -145q-14 5 -29.5 7.5t-35.5 2.5q-51 0 -94.5 -43.5t-62.5 -133.5l-45 -216h-156z" />
            <glyph glyph-name="s" unicode="s" horiz-adv-x="523"
           d="M252 91q45 0 64 12.5t19 36.5q0 11 -5 20.5t-17.5 18.5t-34 17t-54.5 16q-32 8 -60.5 20t-49.5 30.5t-33.5 44t-12.5 59.5q0 80 54 124.5t180 44.5q51 0 92 -11t70.5 -31.5t45 -50t15.5 -66.5h-157q0 24 -18 38.5t-56 14.5q-36 0 -50.5 -10.5t-14.5 -31.5q0 -18 20 -35.5
t76 -33.5q34 -9 65.5 -21.5t55.5 -30t38.5 -42t14.5 -58.5q0 -86 -58 -133.5t-193 -47.5q-52 0 -95 11.5t-73.5 32t-47 49t-16.5 63.5v6h157q0 -25 21 -40.5t58 -15.5z" />
            <glyph glyph-name="t" unicode="t" horiz-adv-x="368"
           d="M313 3q-22 -8 -46 -13t-48 -5q-68 0 -106 31.5t-38 90.5q0 11 1.5 21.5t3.5 21.5l56 262h-79l23 108h79l37 125h146l-27 -125h107l-23 -108h-107l-58 -272q-1 -4 -1 -11q0 -17 11.5 -25t31.5 -8q9 0 26 4t34 9z" />
            <glyph glyph-name="u" unicode="u" horiz-adv-x="596"
           d="M276 520l-71 -336q-3 -14 -3 -24q0 -32 19.5 -48.5t52.5 -16.5q40 0 72 29.5t43 83.5l66 312h156l-110 -520h-129l-4 55q-34 -33 -75.5 -51.5t-91.5 -18.5q-76 0 -116.5 40t-40.5 111q0 30 7 61l69 323h156z" />
            <glyph glyph-name="v" unicode="v" horiz-adv-x="566"
           d="M631 520l-290 -520h-197l-69 520h163l28 -405l198 405h167z" />
            <glyph glyph-name="w" unicode="w" horiz-adv-x="860"
           d="M920 520l-253 -520h-195v380l-173 -380h-189l-30 520h155v-391l175 391h186l-1 -393l173 393h152z" />
            <glyph glyph-name="x" unicode="x" horiz-adv-x="574"
           d="M388 276l141 -276h-180l-69 161l-142 -161h-173l252 274l-132 246h175l63 -136l120 136h169z" />
            <glyph glyph-name="y" unicode="y" horiz-adv-x="571"
           d="M636 520l-304 -541q-29 -51 -53 -84.5t-49 -53.5t-53 -28t-64 -8q-20 0 -46 4t-46 11l24 109q23 -8 37.5 -10.5t28.5 -2.5q26 0 47 19.5t38 64.5h-44l-77 520h161l29 -406l210 406h161z" />
            <glyph glyph-name="z" unicode="z" horiz-adv-x="507"
           d="M206 115h255l-24 -115h-457l25 121l329 284h-250l24 115h449l-26 -121z" />
            <glyph glyph-name="braceleft" unicode="{" horiz-adv-x="340"
           d="M57 388q44 0 69 23t34 65l33 157q13 62 35.5 97.5t55 53t74.5 22t94 4.5l-23 -108q-22 0 -38 -2t-27.5 -9t-19 -22t-13.5 -41l-33 -155q-8 -35 -20 -60t-27.5 -42t-35.5 -28t-42 -18q30 -11 49 -33t19 -64q0 -23 -6 -51l-35 -165q-5 -23 -5 -36q0 -28 17.5 -35t52.5 -8
l-22 -103q-44 0 -78.5 5t-59 19t-37.5 38t-13 63q0 31 9 72l33 157q3 15 3 29q0 28 -16.5 43.5t-51.5 15.5z" />
            <glyph glyph-name="bar" unicode="|" horiz-adv-x="340"
           d="M364 785l-196 -925h-136l196 925h136z" />
            <glyph glyph-name="braceright" unicode="}" horiz-adv-x="340"
           d="M338 252q-44 0 -69.5 -23t-33.5 -65l-33 -157q-13 -62 -35.5 -97.5t-55 -53t-74.5 -22t-94 -4.5l23 108q22 0 38 2t27.5 9t19 22t13.5 41l33 155q7 35 19.5 59.5t28 42t35 28.5t42.5 18q-30 11 -49 33t-19 64q0 21 6 51l35 165q4 19 4 35q0 29 -17 36t-52 8l22 103
q43 0 78 -5t59 -19t37 -38.5t13 -63.5q0 -15 -1.5 -33t-6.5 -38l-33 -157q-2 -8 -3 -15t-1 -14q0 -28 17 -43.5t52 -15.5z" />
            <glyph glyph-name="asciitilde" unicode="~"
           d="M400 237q-31 0 -53 8.5t-41.5 19t-38 19t-42.5 8.5q-38 0 -73 -15.5t-61 -34.5l27 127q22 15 59 27.5t79 12.5q31 0 53.5 -8.5t42 -19t38 -19t42.5 -8.5q38 0 72.5 15.5t60.5 34.5l-27 -127q-22 -15 -59 -27.5t-79 -12.5z" />
            <glyph glyph-name="uni00A0" unicode="&#xa0;" horiz-adv-x="260"
            />
            <glyph glyph-name="exclamdown" unicode="&#xa1;" horiz-adv-x="310"
           d="M255 315l-80 -495h-198l130 495h148zM320 555l-33 -157h-177l33 157h177z" />
            <glyph glyph-name="cent" unicode="&#xa2;"
           d="M557 173q-16 -36 -36.5 -67.5t-48.5 -56t-64.5 -40.5t-83.5 -21l-26 -123h-129l26 129q-78 17 -115.5 67.5t-37.5 128.5q0 48 12.5 104.5t43.5 106t83 86t130 45.5l27 128h129l-29 -134q72 -17 114 -60.5t44 -105.5h-164q-2 32 -26.5 50.5t-54.5 18.5q-45 0 -73.5 -26
t-45 -62t-22.5 -74t-6 -62q0 -56 24.5 -85t59.5 -29t59 19.5t46 62.5h164z" />
            <glyph glyph-name="sterling" unicode="&#xa3;"
           d="M298 395h202l-19 -93h-203l-16 -72q-8 -36 -26 -61.5t-42 -42.5h337l-26 -126h-499l26 126q34 10 46.5 33.5t21.5 64.5l17 78h-55l19 93h55l24 105q25 110 87.5 162.5t175.5 52.5q50 0 89.5 -13t66.5 -36t41.5 -54.5t14.5 -67.5v-9h-150q-3 63 -71 63q-35 0 -59 -23.5
t-36 -81.5z" />
            <glyph glyph-name="currency" unicode="&#xa4;"
           d="M144 216q-28 53 -28 124q0 35 7 65t20 56l-58 58l88 88l55 -56q29 17 63.5 26t66.5 9t67 -9t64 -26l56 56l88 -88l-58 -58q13 -26 20 -56t7 -65q0 -37 -7.5 -67.5t-21.5 -56.5l60 -59l-88 -88l-58 58q-29 -17 -63 -25t-66 -8q-31 0 -64.5 8t-62.5 25l-58 -58l-88 88z
M479 340q0 57 -33 91.5t-87 34.5t-87 -34.5t-33 -91.5t33 -91.5t87 -34.5t87 34.5t33 91.5z" />
            <glyph glyph-name="yen" unicode="&#xa5;"
           d="M181 0l27 130h-125l20 93h125l10 47h-125l20 93h80l-129 337h171l88 -283l220 283h169l-271 -337h80l-20 -93h-125l-10 -47h125l-20 -93h-125l-27 -130h-158z" />
            <glyph glyph-name="brokenbar" unicode="&#xa6;" horiz-adv-x="340"
           d="M364 785l-81 -385h-136l81 385h136zM250 245l-82 -385h-136l82 385h136z" />
            <glyph glyph-name="section" unicode="&#xa7;"
           d="M226 441q-26 19 -40.5 48t-14.5 62q0 25 8 54t31.5 53t67 40t115.5 16q48 0 84 -13.5t60.5 -35.5t36.5 -48.5t12 -52.5v-8q0 -4 -1 -8h-139q0 25 -17.5 43.5t-46.5 18.5q-26 0 -40.5 -11t-14.5 -34q0 -20 20.5 -34.5t58.5 -31.5q33 -14 61 -29.5t49 -34.5t32.5 -43.5
t11.5 -57.5q0 -51 -33.5 -89.5t-99.5 -61.5q24 -17 38.5 -46.5t14.5 -58.5t-11.5 -58.5t-38.5 -54.5t-71 -40.5t-110 -15.5q-95 0 -146 41t-51 102q0 5 0.5 10.5t1.5 10.5h139q0 -25 19.5 -42.5t51.5 -17.5q26 0 42 11t16 35q0 19 -18 33t-61 33q-28 12 -55.5 27t-49 34
t-34.5 43.5t-13 57.5q0 59 33 94.5t102 59.5zM312 398q-63 -41 -63 -94q0 -23 18.5 -41t70.5 -37q10 6 21.5 15t21 20t15.5 25.5t6 31.5q0 23 -19 42.5t-71 37.5z" />
            <glyph glyph-name="dieresis" unicode="&#xa8;" horiz-adv-x="438"
           d="M115 592l28 128h148l-28 -128h-148zM345 592l28 128h148l-28 -128h-148z" />
            <glyph glyph-name="copyright" unicode="&#xa9;" horiz-adv-x="843"
           d="M185 360q0 -75 24 -130t63.5 -91t90 -54t102.5 -18t102.5 18t90 54t63.5 91t24 130t-24 130t-63.5 91t-90 54t-102.5 18t-102.5 -18t-90 -54t-63.5 -91t-24 -130zM847 360q0 -99 -34 -169.5t-88.5 -116.5t-122.5 -67.5t-137 -21.5t-137 21.5t-122.5 67.5t-88.5 116.5
t-34 169.5t34 169.5t88.5 116.5t122.5 67.5t137 21.5t137 -21.5t122.5 -67.5t88.5 -116.5t34 -169.5zM673 293q-8 -31 -23.5 -57.5t-40.5 -46t-59.5 -30.5t-80.5 -11q-96 0 -151 51.5t-55 158.5q0 103 55.5 160.5t152.5 57.5q81 0 134.5 -37.5t66.5 -98.5h-128q-6 24 -25 39
t-44 15q-39 0 -62 -31.5t-23 -106.5q0 -66 23 -96t58 -30q53 0 74 63h128z" />
            <glyph glyph-name="ordfeminine" unicode="&#xaa;" horiz-adv-x="525"
           d="M171 603q22 62 77.5 97t132.5 35q72 0 115.5 -34.5t43.5 -92.5q0 -16 -3 -32l-57 -269h-97l-12 43q-24 -23 -55 -39t-71 -16q-22 0 -44.5 6t-41 19t-30.5 33.5t-12 49.5q0 41 18 69.5t47.5 47.5t67 29t75.5 15l71 8l5 21q1 5 1 14q0 20 -12.5 28.5t-26.5 8.5
q-38 0 -56 -41h-136zM419 0h-384l26 123h384zM307 391q26 0 41.5 16.5t20.5 37.5l10 48l-45 -6q-42 -5 -57.5 -20.5t-15.5 -37.5q0 -17 12 -27.5t34 -10.5z" />
            <glyph glyph-name="guillemotleft" unicode="&#xab;" horiz-adv-x="545"
           d="M71 315l173 205h117l-137 -208l36 -222h-110zM280 315l173 205h117l-137 -208l36 -222h-110z" />
            <glyph glyph-name="logicalnot" unicode="&#xac;"
           d="M561 384l-60 -282h-129l34 159h-311l26 123h440z" />
            <glyph glyph-name="uni00AD" unicode="&#xad;" horiz-adv-x="540"
           d="M475 261h-380l26 123h380z" />
            <glyph glyph-name="registered" unicode="&#xae;" horiz-adv-x="624"
           d="M632 476q0 -69 -23.5 -118t-61.5 -80.5t-85 -46t-93 -14.5q-47 0 -93.5 14.5t-83.5 46t-60.5 80.5t-23.5 118t23.5 118t60.5 80.5t83.5 46t93.5 14.5q46 0 93 -14.5t85 -46t61.5 -80.5t23.5 -118zM185 476q0 -54 16 -91.5t41.5 -61.5t58.5 -34.5t68 -10.5q34 0 67.5 10.5
t60 34.5t42.5 61.5t16 91.5t-16 91.5t-42.5 61.5t-60 34.5t-67.5 10.5q-35 0 -68 -10.5t-58.5 -34.5t-41.5 -61.5t-16 -91.5zM425 351l-58 97h-34v-97h-62v264h98q46 0 79 -18.5t33 -64.5q0 -32 -15 -49t-38 -25l71 -107h-74zM333 572v-82h39q14 0 29.5 8.5t15.5 33.5
q0 13 -4.5 20.5t-11 12t-15 6t-16.5 1.5h-37z" />
            <glyph glyph-name="macron" unicode="&#xaf;" horiz-adv-x="330"
           d="M119 608l24 112h270l-24 -112h-270z" />
            <glyph glyph-name="degree" unicode="&#xb0;" horiz-adv-x="540"
           d="M289 623q-30 0 -47 -23t-17 -64q0 -29 13.5 -42t35.5 -13q25 0 44.5 19t19.5 64q0 31 -13 45t-36 14zM458 573q0 -44 -16.5 -78.5t-43.5 -59.5t-62 -38t-73 -13q-33 0 -61.5 9.5t-49.5 28t-33.5 46t-12.5 62.5q0 45 16 80.5t43 59.5t62 37t73 13q33 0 62 -10t50 -28.5
t33.5 -46t12.5 -62.5z" />
            <glyph glyph-name="plusminus" unicode="&#xb1;"
           d="M439 542l-34 -158h156l-26 -123h-156l-21 -99h-129l21 99h-155l26 123h155l34 158h129zM480 0h-440l26 123h440z" />
            <glyph glyph-name="twosuperior" unicode="&#xb2;" horiz-adv-x="420"
           d="M103 605q23 65 74.5 102.5t126.5 37.5q68 0 107 -30.5t39 -77.5q0 -22 -6.5 -42.5t-24 -43t-49 -48.5t-80.5 -60l-76 -53h186l-20 -96h-331l20 94l133 96q42 30 68 51t39.5 37t18 27.5t4.5 23.5q0 15 -10.5 24t-29.5 9q-23 0 -41 -11.5t-28 -39.5h-120z" />
            <glyph glyph-name="threesuperior" unicode="&#xb3;" horiz-adv-x="427"
           d="M304 745q31 0 58.5 -6.5t47.5 -19.5t31.5 -31.5t11.5 -43.5q0 -15 -6 -32.5t-19.5 -34t-35.5 -30t-54 -19.5q40 -8 61 -31t21 -56q0 -26 -10.5 -54t-33.5 -50.5t-60 -37t-90 -14.5q-47 0 -78 12t-49 31t-25.5 43t-7.5 48h119q-2 -20 8.5 -33.5t38.5 -13.5q34 0 50 19.5
t16 48.5q0 24 -16 33.5t-39 9.5h-32l17 80h34q17 0 29.5 6t20.5 16t12 22t4 23q0 16 -10 22.5t-26 6.5q-43 0 -57 -40h-117q20 58 67 92t119 34z" />
            <glyph glyph-name="acute" unicode="&#xb4;" horiz-adv-x="330"
           d="M239 720h174l-179 -137h-126z" />
            <glyph glyph-name="mu" unicode="&#xb5;" horiz-adv-x="601"
           d="M281 520l-71 -336q-3 -14 -3 -24q0 -32 19.5 -48.5t52.5 -16.5q40 0 72 29.5t43 83.5l66 312h156l-110 -520h-129l-4 55q-34 -33 -75.5 -51.5t-91.5 -18.5q-21 0 -39 3l-35 -167h-156l149 699h156z" />
            <glyph glyph-name="paragraph" unicode="&#xb6;" horiz-adv-x="675"
           d="M470 720l-192 -900h-146l105 495q-21 0 -45.5 11.5t-46.5 34.5t-36.5 57t-14.5 79q0 69 22 112.5t56 68t74.5 33.5t77.5 9h146zM733 720l-192 -900h-146l192 900h146z" />
            <glyph glyph-name="periodcentered" unicode="&#xb7;" horiz-adv-x="270"
           d="M68 248l30 142h158l-30 -142h-158z" />
            <glyph glyph-name="cedilla" unicode="&#xb8;" horiz-adv-x="358"
           d="M193 -40q32 -9 49.5 -32t17.5 -54q0 -29 -11.5 -53.5t-31.5 -42t-49 -27t-63 -9.5q-67 0 -106 30.5t-39 81.5v9h100q0 -14 9.5 -27.5t38.5 -13.5q24 0 36 11t12 28q0 18 -18 29t-56 11l39 124h86z" />
            <glyph glyph-name="onesuperior" unicode="&#xb9;" horiz-adv-x="283"
           d="M245 283h-121l70 327l-116 -46l23 106l131 54h107z" />
            <glyph glyph-name="ordmasculine" unicode="&#xba;" horiz-adv-x="524"
           d="M422 0h-399l26 123h399zM304 295q-35 0 -69 8t-61 27.5t-43.5 53.5t-16.5 85q0 44 11.5 91t39.5 86t75 64t117 25q34 0 68 -7t61 -26t43.5 -51.5t16.5 -83.5q0 -43 -10.5 -90.5t-38 -88t-74.5 -67t-119 -26.5zM349 641q-29 0 -46.5 -18.5t-27.5 -45.5t-13.5 -57.5
t-3.5 -54.5q0 -76 55 -76q27 0 44.5 18.5t27.5 46t14 58.5t4 56q0 39 -13.5 56t-40.5 17z" />
            <glyph glyph-name="guillemotright" unicode="&#xbb;" horiz-adv-x="545"
           d="M360 90h-117l130 222l-49 208h110l92 -205zM151 90h-117l130 222l-49 208h110l92 -205z" />
            <glyph glyph-name="onequarter" unicode="&#xbc;" horiz-adv-x="879"
           d="M90 -93l610 880h128l-609 -880h-129zM271 283h-121l70 327l-116 -46l23 106l131 54h107zM810 168h56l-18 -86h-56l-17 -81h-109l17 81h-198l20 93l227 267h137zM608 168h93l41 161z" />
            <glyph glyph-name="onehalf" unicode="&#xbd;" horiz-adv-x="951"
           d="M90 -93l610 880h128l-609 -880h-129zM271 283h-121l70 327l-116 -46l23 106l131 54h107zM594 312q23 65 74.5 102.5t126.5 37.5q68 0 107 -30.5t39 -77.5q0 -22 -6.5 -42.5t-24 -43t-49 -48.5t-80.5 -60l-76 -53h186l-20 -96h-331l20 94l133 96q42 30 68 51t39.5 37
t18 27.5t4.5 23.5q0 15 -10.5 24t-29.5 9q-23 0 -41 -11.5t-28 -39.5h-120z" />
            <glyph glyph-name="threequarters" unicode="&#xbe;" horiz-adv-x="987"
           d="M198 -93l610 880h128l-609 -880h-129zM328 745q31 0 58.5 -6.5t47.5 -19.5t31.5 -31.5t11.5 -43.5q0 -15 -6 -32.5t-19.5 -34t-35.5 -30t-54 -19.5q40 -8 61 -31t21 -56q0 -26 -10.5 -54t-33.5 -50.5t-60 -37t-90 -14.5q-47 0 -78 12t-49 31t-25.5 43t-7.5 48h119
q-2 -20 8.5 -33.5t38.5 -13.5q34 0 50 19.5t16 48.5q0 24 -16 33.5t-39 9.5h-32l17 80h34q17 0 29.5 6t20.5 16t12 22t4 23q0 16 -10 22.5t-26 6.5q-43 0 -57 -40h-117q20 58 67 92t119 34zM918 168h56l-18 -86h-56l-17 -81h-109l17 81h-198l20 93l227 267h137zM716 168h93
l41 161z" />
            <glyph glyph-name="questiondown" unicode="&#xbf;" horiz-adv-x="548"
           d="M464 5q-11 -41 -36 -77.5t-60.5 -63.5t-80 -43t-95.5 -16q-48 0 -86.5 11t-65 30.5t-40.5 46t-14 58.5q0 35 9.5 63t30.5 55.5t53 59.5t77 74q23 22 34 49.5t18 57.5h157q-7 -33 -14 -58t-17.5 -46t-27 -41.5t-42.5 -45.5q-35 -34 -56 -57t-32.5 -40t-15.5 -30.5
t-4 -26.5q0 -21 14.5 -32t36.5 -11q26 0 48.5 20t39.5 63h169zM422 540l-33 -157h-177l33 157h177z" />
            <glyph glyph-name="Agrave" unicode="&#xc0;" horiz-adv-x="701"
           d="M489 0l-16 165h-256l-86 -165h-171l409 720h187l105 -720h-172zM274 275h189l-29 307zM584 773h-116l-119 137h164z" />
            <glyph glyph-name="Aacute" unicode="&#xc1;" horiz-adv-x="701"
           d="M489 0l-16 165h-256l-86 -165h-171l409 720h187l105 -720h-172zM274 275h189l-29 307zM480 910h174l-179 -137h-126z" />
            <glyph glyph-name="Acircumflex" unicode="&#xc2;" horiz-adv-x="701"
           d="M489 0l-16 165h-256l-86 -165h-171l409 720h187l105 -720h-172zM274 275h189l-29 307zM431 788h-164l165 137h140l105 -137h-155l-33 59z" />
            <glyph glyph-name="Atilde" unicode="&#xc3;" horiz-adv-x="701"
           d="M489 0l-16 165h-256l-86 -165h-171l409 720h187l105 -720h-172zM274 275h189l-29 307zM536 782q-22 0 -37.5 6t-28.5 13t-26 13t-30 6t-42 -10.5t-51 -27.5l24 110q25 16 50 24.5t46 8.5q22 0 37.5 -6t28.5 -13t26 -13t30 -6t40 10.5t49 27.5l-24 -110q-25 -16 -48 -24.5
t-44 -8.5z" />
            <glyph glyph-name="Adieresis" unicode="&#xc4;" horiz-adv-x="701"
           d="M489 0l-16 165h-256l-86 -165h-171l409 720h187l105 -720h-172zM274 275h189l-29 307zM282 782l28 128h148l-28 -128h-148zM512 782l28 128h148l-28 -128h-148z" />
            <glyph glyph-name="Aring" unicode="&#xc5;" horiz-adv-x="701"
           d="M489 0l-16 165h-256l-86 -165h-171l395 696q-23 28 -23 69q0 27 10.5 52t30.5 44t48 30t64 11q63 0 95 -32t32 -77q0 -32 -13.5 -59t-38.5 -46l101 -688h-172zM274 275h189l-29 307zM466 728q18 0 32.5 15t14.5 46q0 20 -10 30.5t-26 10.5q-20 0 -33.5 -17t-13.5 -44
q0 -20 10 -30.5t26 -10.5z" />
            <glyph glyph-name="AE" unicode="&#xc6;" horiz-adv-x="961"
           d="M248 165l-113 -165h-175l501 720h578l-27 -123h-288l-37 -176h259l-25 -116h-259l-39 -184h288l-25 -121h-456l35 165h-217zM323 275h165l73 346z" />
            <glyph glyph-name="Ccedilla" unicode="&#xc7;" horiz-adv-x="741"
           d="M366 -40q32 -9 49.5 -32t17.5 -54q0 -29 -11.5 -53.5t-31.5 -42t-49 -27t-63 -9.5q-67 0 -106 30.5t-39 81.5v9h100q0 -14 9.5 -27.5t38.5 -13.5q24 0 36 11t12 28q0 18 -18 29t-56 11l28 90q-106 17 -162.5 90t-56.5 192q0 47 8.5 100t27.5 104.5t50.5 98t77.5 82
t108.5 56.5t143.5 21q57 0 108.5 -15.5t90.5 -45.5t62 -74t23 -102v-13h-168q0 68 -34.5 100.5t-92.5 32.5q-45 0 -79 -18t-59.5 -47t-43 -66t-28 -76t-15 -76t-4.5 -65q0 -45 10 -76.5t28 -51.5t41.5 -29.5t50.5 -9.5q69 0 114 38.5t69 123.5h171q-45 -134 -130.5 -204.5
t-222.5 -75.5z" />
            <glyph glyph-name="Egrave" unicode="&#xc8;" horiz-adv-x="581"
           d="M541 305h-289l-39 -184h318l-25 -121h-486l153 720h486l-27 -123h-318l-37 -176h289zM529 773h-116l-119 137h164z" />
            <glyph glyph-name="Eacute" unicode="&#xc9;" horiz-adv-x="581"
           d="M541 305h-289l-39 -184h318l-25 -121h-486l153 720h486l-27 -123h-318l-37 -176h289zM463 910h174l-179 -137h-126z" />
            <glyph glyph-name="Ecircumflex" unicode="&#xca;" horiz-adv-x="581"
           d="M541 305h-289l-39 -184h318l-25 -121h-486l153 720h486l-27 -123h-318l-37 -176h289zM387 788h-164l165 137h140l105 -137h-155l-33 59z" />
            <glyph glyph-name="Edieresis" unicode="&#xcb;" horiz-adv-x="581"
           d="M541 305h-289l-39 -184h318l-25 -121h-486l153 720h486l-27 -123h-318l-37 -176h289zM237 782l28 128h148l-28 -128h-148zM467 782l28 128h148l-28 -128h-148z" />
            <glyph glyph-name="Igrave" unicode="&#xcc;" horiz-adv-x="288"
           d="M341 720l-153 -720h-168l153 720h168zM386 773h-116l-119 137h164z" />
            <glyph glyph-name="Iacute" unicode="&#xcd;" horiz-adv-x="288"
           d="M341 720l-153 -720h-168l153 720h168zM274 910h174l-179 -137h-126z" />
            <glyph glyph-name="Icircumflex" unicode="&#xce;" horiz-adv-x="288"
           d="M341 720l-153 -720h-168l153 720h168zM231 788h-164l165 137h140l105 -137h-155l-33 59z" />
            <glyph glyph-name="Idieresis" unicode="&#xcf;" horiz-adv-x="288"
           d="M341 720l-153 -720h-168l153 720h168zM82 782l28 128h148l-28 -128h-148zM312 782l28 128h148l-28 -128h-148z" />
            <glyph glyph-name="Eth" unicode="&#xd0;" horiz-adv-x="729"
           d="M420 720q73 0 131.5 -17.5t99.5 -51.5t63 -84.5t22 -117.5q0 -40 -6.5 -88.5t-23.5 -98.5t-47.5 -97t-78.5 -83.5t-115.5 -59t-158.5 -22.5h-286l67 315h-51l27 126h51l59 279h247zM316 604l-35 -163h129l-27 -126h-129l-42 -198h108q49 0 86.5 16t64.5 42.5t45 60.5
t29 69.5t15.5 69.5t4.5 61q0 85 -43.5 126.5t-115.5 41.5h-90z" />
            <glyph glyph-name="Ntilde" unicode="&#xd1;" horiz-adv-x="721"
           d="M774 720l-153 -720h-173l-175 521l-109 -521h-144l153 720h186l166 -499l106 499h143zM550 782q-22 0 -37.5 6t-28.5 13t-26 13t-30 6t-42 -10.5t-51 -27.5l24 110q25 16 50 24.5t46 8.5q22 0 37.5 -6t28.5 -13t26 -13t30 -6t40 10.5t49 27.5l-24 -110q-25 -16 -48 -24.5
t-44 -8.5z" />
            <glyph glyph-name="Ograve" unicode="&#xd2;" horiz-adv-x="784"
           d="M388 104q63 0 107 34t71.5 85t40.5 110t13 109q0 48 -13 81.5t-34.5 54t-48.5 30t-55 9.5q-43 0 -77 -16t-60 -43t-44 -62t-29.5 -72.5t-17 -75.5t-5.5 -71q0 -48 13.5 -81t35 -53.5t48.5 -29.5t55 -9zM371 -15q-57 0 -112.5 17.5t-98.5 54t-69.5 92.5t-26.5 133
q0 49 9 101.5t29.5 102.5t53 95.5t79 79.5t108 54t139.5 20q57 0 112.5 -18t99 -54.5t70.5 -93t27 -134.5q0 -43 -8 -93t-27 -100t-50 -96.5t-77.5 -82t-110.5 -57t-147 -21.5zM613 773h-116l-119 137h164z" />
            <glyph glyph-name="Oacute" unicode="&#xd3;" horiz-adv-x="784"
           d="M388 104q63 0 107 34t71.5 85t40.5 110t13 109q0 48 -13 81.5t-34.5 54t-48.5 30t-55 9.5q-43 0 -77 -16t-60 -43t-44 -62t-29.5 -72.5t-17 -75.5t-5.5 -71q0 -48 13.5 -81t35 -53.5t48.5 -29.5t55 -9zM371 -15q-57 0 -112.5 17.5t-98.5 54t-69.5 92.5t-26.5 133
q0 49 9 101.5t29.5 102.5t53 95.5t79 79.5t108 54t139.5 20q57 0 112.5 -18t99 -54.5t70.5 -93t27 -134.5q0 -43 -8 -93t-27 -100t-50 -96.5t-77.5 -82t-110.5 -57t-147 -21.5zM549 910h174l-179 -137h-126z" />
            <glyph glyph-name="Ocircumflex" unicode="&#xd4;" horiz-adv-x="784"
           d="M388 104q63 0 107 34t71.5 85t40.5 110t13 109q0 48 -13 81.5t-34.5 54t-48.5 30t-55 9.5q-43 0 -77 -16t-60 -43t-44 -62t-29.5 -72.5t-17 -75.5t-5.5 -71q0 -48 13.5 -81t35 -53.5t48.5 -29.5t55 -9zM371 -15q-57 0 -112.5 17.5t-98.5 54t-69.5 92.5t-26.5 133
q0 49 9 101.5t29.5 102.5t53 95.5t79 79.5t108 54t139.5 20q57 0 112.5 -18t99 -54.5t70.5 -93t27 -134.5q0 -43 -8 -93t-27 -100t-50 -96.5t-77.5 -82t-110.5 -57t-147 -21.5zM477 788h-164l165 137h140l105 -137h-155l-33 59z" />
            <glyph glyph-name="Otilde" unicode="&#xd5;" horiz-adv-x="784"
           d="M388 104q63 0 107 34t71.5 85t40.5 110t13 109q0 48 -13 81.5t-34.5 54t-48.5 30t-55 9.5q-43 0 -77 -16t-60 -43t-44 -62t-29.5 -72.5t-17 -75.5t-5.5 -71q0 -48 13.5 -81t35 -53.5t48.5 -29.5t55 -9zM371 -15q-57 0 -112.5 17.5t-98.5 54t-69.5 92.5t-26.5 133
q0 49 9 101.5t29.5 102.5t53 95.5t79 79.5t108 54t139.5 20q57 0 112.5 -18t99 -54.5t70.5 -93t27 -134.5q0 -43 -8 -93t-27 -100t-50 -96.5t-77.5 -82t-110.5 -57t-147 -21.5zM582 782q-22 0 -37.5 6t-28.5 13t-26 13t-30 6t-42 -10.5t-51 -27.5l24 110q25 16 50 24.5
t46 8.5q22 0 37.5 -6t28.5 -13t26 -13t30 -6t40 10.5t49 27.5l-24 -110q-25 -16 -48 -24.5t-44 -8.5z" />
            <glyph glyph-name="Odieresis" unicode="&#xd6;" horiz-adv-x="784"
           d="M388 104q63 0 107 34t71.5 85t40.5 110t13 109q0 48 -13 81.5t-34.5 54t-48.5 30t-55 9.5q-43 0 -77 -16t-60 -43t-44 -62t-29.5 -72.5t-17 -75.5t-5.5 -71q0 -48 13.5 -81t35 -53.5t48.5 -29.5t55 -9zM371 -15q-57 0 -112.5 17.5t-98.5 54t-69.5 92.5t-26.5 133
q0 49 9 101.5t29.5 102.5t53 95.5t79 79.5t108 54t139.5 20q57 0 112.5 -18t99 -54.5t70.5 -93t27 -134.5q0 -43 -8 -93t-27 -100t-50 -96.5t-77.5 -82t-110.5 -57t-147 -21.5zM328 782l28 128h148l-28 -128h-148zM558 782l28 128h148l-28 -128h-148z" />
            <glyph glyph-name="multiply" unicode="&#xd7;"
           d="M248 521l88 -112l136 112l69 -87l-136 -112l88 -112l-95 -79l-89 112l-135 -112l-69 87l136 112l-88 112z" />
            <glyph glyph-name="Oslash" unicode="&#xd8;" horiz-adv-x="784"
           d="M371 -15q-25 0 -50 3t-48 10l-61 -108h-119l85 152q-51 35 -82.5 94.5t-31.5 145.5q0 49 9 101.5t29.5 102.5t53 95.5t79 79.5t108 54t139.5 20q51 0 101 -15l59 100h119l-85 -144q51 -37 83 -96.5t32 -144.5q0 -43 -8 -93t-27 -100t-50 -96.5t-77.5 -82t-110.5 -57
t-147 -21.5zM236 277q0 -39 8.5 -68t23.5 -49l256 447q-26 10 -55 10q-43 0 -77 -16t-60 -43t-44 -62t-29.5 -72.5t-17 -75.5t-5.5 -71zM388 104q63 0 107 34t71.5 85t40.5 110t13 109q0 39 -8.5 68t-23.5 50l-256 -447q27 -9 56 -9z" />
            <glyph glyph-name="Ugrave" unicode="&#xd9;" horiz-adv-x="713"
           d="M333 720l-104 -484q-2 -8 -3 -15.5t-1 -15.5q0 -48 33 -74.5t90 -26.5q131 0 156 120l106 496h161l-103 -485q-26 -121 -106.5 -185.5t-226.5 -64.5q-64 0 -115 14t-87 41t-55.5 65.5t-19.5 86.5q0 26 6 55l101 473h168zM555 773h-116l-119 137h164z" />
            <glyph glyph-name="Uacute" unicode="&#xda;" horiz-adv-x="713"
           d="M333 720l-104 -484q-2 -8 -3 -15.5t-1 -15.5q0 -48 33 -74.5t90 -26.5q131 0 156 120l106 496h161l-103 -485q-26 -121 -106.5 -185.5t-226.5 -64.5q-64 0 -115 14t-87 41t-55.5 65.5t-19.5 86.5q0 26 6 55l101 473h168zM542 910h174l-179 -137h-126z" />
            <glyph glyph-name="Ucircumflex" unicode="&#xdb;" horiz-adv-x="713"
           d="M333 720l-104 -484q-2 -8 -3 -15.5t-1 -15.5q0 -48 33 -74.5t90 -26.5q131 0 156 120l106 496h161l-103 -485q-26 -121 -106.5 -185.5t-226.5 -64.5q-64 0 -115 14t-87 41t-55.5 65.5t-19.5 86.5q0 26 6 55l101 473h168zM440 788h-164l165 137h140l105 -137h-155l-33 59z
" />
            <glyph glyph-name="Udieresis" unicode="&#xdc;" horiz-adv-x="713"
           d="M333 720l-104 -484q-2 -8 -3 -15.5t-1 -15.5q0 -48 33 -74.5t90 -26.5q131 0 156 120l106 496h161l-103 -485q-26 -121 -106.5 -185.5t-226.5 -64.5q-64 0 -115 14t-87 41t-55.5 65.5t-19.5 86.5q0 26 6 55l101 473h168zM291 782l28 128h148l-28 -128h-148zM521 782
l28 128h148l-28 -128h-148z" />
            <glyph glyph-name="Yacute" unicode="&#xdd;" horiz-adv-x="668"
           d="M215 0l61 287l-163 433h173l95 -293l233 293h167l-347 -433l-61 -287h-158zM513 910h174l-179 -137h-126z" />
            <glyph glyph-name="Thorn" unicode="&#xde;" horiz-adv-x="666"
           d="M341 720l-25 -115h84q141 0 207.5 -54.5t66.5 -147.5q0 -139 -90 -208t-256 -69h-113l-27 -126h-168l153 720h168zM292 490l-53 -249h107q70 0 112 42t42 111q0 50 -32 73t-91 23h-85z" />
            <glyph glyph-name="germandbls" unicode="&#xdf;" horiz-adv-x="647"
           d="M395 -15q-96 0 -139 42t-43 110v10h157q0 -2 -0.5 -5t-0.5 -5q0 -20 9.5 -32.5t28.5 -12.5q22 0 39.5 22.5t17.5 63.5q0 21 -10.5 37t-33.5 31q-39 26 -56 54t-17 59q0 40 18.5 66t40.5 47.5t40.5 42.5t18.5 51q0 24 -20.5 41.5t-58.5 17.5q-45 0 -69.5 -27t-36.5 -84
l-37 -171l-92 -343h-136l110 522q11 51 29 90.5t49.5 67t79.5 41.5t119 14q48 0 89 -11t71 -31t47 -47t17 -60q0 -29 -10.5 -51t-26.5 -39t-34.5 -30t-34.5 -25.5t-26.5 -25.5t-10.5 -29q0 -11 8.5 -24t31.5 -28q106 -70 106 -160q0 -42 -16 -77t-46 -60t-73.5 -38.5
t-98.5 -13.5z" />
            <glyph glyph-name="agrave" unicode="&#xe0;" horiz-adv-x="580"
           d="M83 370q35 78 103 121.5t173 43.5q48 0 86 -11.5t64.5 -32.5t41 -50.5t14.5 -65.5q0 -22 -4 -41l-71 -334h-122l-8 54q-32 -29 -78.5 -49t-108.5 -20q-69 0 -110 34.5t-41 97.5q0 39 13 70t41.5 55.5t75 41.5t113.5 28l139 22l2 9q3 13 3.5 19t0.5 11q0 29 -19 45t-53 16
q-38 0 -61 -17.5t-34 -46.5h-160zM241 92q53 0 89 29.5t44 70.5l12 57l-99 -19q-63 -12 -84.5 -33t-21.5 -54q0 -23 15.5 -37t44.5 -14zM455 583h-116l-119 137h164z" />
            <glyph glyph-name="aacute" unicode="&#xe1;" horiz-adv-x="580"
           d="M83 370q35 78 103 121.5t173 43.5q48 0 86 -11.5t64.5 -32.5t41 -50.5t14.5 -65.5q0 -22 -4 -41l-71 -334h-122l-8 54q-32 -29 -78.5 -49t-108.5 -20q-69 0 -110 34.5t-41 97.5q0 39 13 70t41.5 55.5t75 41.5t113.5 28l139 22l2 9q3 13 3.5 19t0.5 11q0 29 -19 45t-53 16
q-38 0 -61 -17.5t-34 -46.5h-160zM241 92q53 0 89 29.5t44 70.5l12 57l-99 -19q-63 -12 -84.5 -33t-21.5 -54q0 -23 15.5 -37t44.5 -14zM436 720h174l-179 -137h-126z" />
            <glyph glyph-name="acircumflex" unicode="&#xe2;" horiz-adv-x="580"
           d="M83 370q35 78 103 121.5t173 43.5q48 0 86 -11.5t64.5 -32.5t41 -50.5t14.5 -65.5q0 -22 -4 -41l-71 -334h-122l-8 54q-32 -29 -78.5 -49t-108.5 -20q-69 0 -110 34.5t-41 97.5q0 39 13 70t41.5 55.5t75 41.5t113.5 28l139 22l2 9q3 13 3.5 19t0.5 11q0 29 -19 45t-53 16
q-38 0 -61 -17.5t-34 -46.5h-160zM241 92q53 0 89 29.5t44 70.5l12 57l-99 -19q-63 -12 -84.5 -33t-21.5 -54q0 -23 15.5 -37t44.5 -14zM339 598h-164l165 137h140l105 -137h-155l-33 59z" />
            <glyph glyph-name="atilde" unicode="&#xe3;" horiz-adv-x="580"
           d="M83 370q35 78 103 121.5t173 43.5q48 0 86 -11.5t64.5 -32.5t41 -50.5t14.5 -65.5q0 -22 -4 -41l-71 -334h-122l-8 54q-32 -29 -78.5 -49t-108.5 -20q-69 0 -110 34.5t-41 97.5q0 39 13 70t41.5 55.5t75 41.5t113.5 28l139 22l2 9q3 13 3.5 19t0.5 11q0 29 -19 45t-53 16
q-38 0 -61 -17.5t-34 -46.5h-160zM241 92q53 0 89 29.5t44 70.5l12 57l-99 -19q-63 -12 -84.5 -33t-21.5 -54q0 -23 15.5 -37t44.5 -14zM433 592q-22 0 -37.5 6t-28.5 13t-26 13t-30 6t-42 -10.5t-51 -27.5l24 110q25 16 50 24.5t46 8.5q22 0 37.5 -6t28.5 -13t26 -13t30 -6
t40 10.5t49 27.5l-24 -110q-25 -16 -48 -24.5t-44 -8.5z" />
            <glyph glyph-name="adieresis" unicode="&#xe4;" horiz-adv-x="580"
           d="M83 370q35 78 103 121.5t173 43.5q48 0 86 -11.5t64.5 -32.5t41 -50.5t14.5 -65.5q0 -22 -4 -41l-71 -334h-122l-8 54q-32 -29 -78.5 -49t-108.5 -20q-69 0 -110 34.5t-41 97.5q0 39 13 70t41.5 55.5t75 41.5t113.5 28l139 22l2 9q3 13 3.5 19t0.5 11q0 29 -19 45t-53 16
q-38 0 -61 -17.5t-34 -46.5h-160zM241 92q53 0 89 29.5t44 70.5l12 57l-99 -19q-63 -12 -84.5 -33t-21.5 -54q0 -23 15.5 -37t44.5 -14zM181 592l28 128h148l-28 -128h-148zM411 592l28 128h148l-28 -128h-148z" />
            <glyph glyph-name="aring" unicode="&#xe5;" horiz-adv-x="580"
           d="M83 370q35 78 103 121.5t173 43.5q48 0 86 -11.5t64.5 -32.5t41 -50.5t14.5 -65.5q0 -22 -4 -41l-71 -334h-122l-8 54q-32 -29 -78.5 -49t-108.5 -20q-69 0 -110 34.5t-41 97.5q0 39 13 70t41.5 55.5t75 41.5t113.5 28l139 22l2 9q3 13 3.5 19t0.5 11q0 29 -19 45t-53 16
q-38 0 -61 -17.5t-34 -46.5h-160zM241 92q53 0 89 29.5t44 70.5l12 57l-99 -19q-63 -12 -84.5 -33t-21.5 -54q0 -23 15.5 -37t44.5 -14zM392 649q18 0 32.5 15t14.5 46q0 20 -10 30.5t-26 10.5q-20 0 -33.5 -17t-13.5 -44q0 -20 10 -30.5t26 -10.5zM384 577
q-63 0 -94.5 31.5t-31.5 77.5q0 27 10.5 52t30.5 44t48 30t64 11q63 0 95 -32t32 -77q0 -28 -10.5 -53t-30.5 -43.5t-48.5 -29.5t-64.5 -11z" />
            <glyph glyph-name="ae" unicode="&#xe6;" horiz-adv-x="943"
           d="M899 151q-17 -36 -39 -66.5t-54.5 -52.5t-76 -34.5t-101.5 -12.5q-75 0 -131.5 30t-85.5 84q-48 -60 -99 -87t-120 -27q-83 0 -126.5 34.5t-43.5 96.5q0 39 13 70.5t42 56t75.5 41.5t113.5 28l139 22l4 19q1 5 1.5 10t0.5 10q0 29 -19 45t-53 16q-38 0 -61 -17.5
t-34 -46.5h-160q35 78 103 121.5t173 43.5q52 0 92.5 -13.5t67.5 -38.5q36 25 80 38.5t98 13.5q52 0 95 -13.5t73.5 -40.5t47.5 -68.5t17 -96.5q0 -41 -11 -94h-379q-1 -5 -1 -10v-10q0 -54 28 -81t75 -27q37 0 60.5 15.5t36.5 41.5h159zM688 437q-42 0 -74.5 -28.5
t-53.5 -95.5h219q3 18 3 34q0 48 -25.5 69t-68.5 21zM242 92q53 0 89 29.5t44 70.5l12 57l-99 -19q-63 -12 -84.5 -33t-21.5 -54q0 -23 15.5 -37t44.5 -14z" />
            <glyph glyph-name="ccedilla" unicode="&#xe7;" horiz-adv-x="590"
           d="M295 -40q32 -9 49.5 -32t17.5 -54q0 -29 -11.5 -53.5t-31.5 -42t-49 -27t-63 -9.5q-67 0 -106 30.5t-39 81.5v9h100q0 -14 9.5 -27.5t38.5 -13.5q24 0 36 11t12 28q0 18 -18 29t-56 11l28 89q-88 14 -129.5 66.5t-41.5 133.5q0 52 14.5 112t50.5 112t96.5 86.5
t152.5 34.5q52 0 96 -12.5t75.5 -36t49.5 -55.5t19 -71h-164q-2 32 -26.5 50.5t-54.5 18.5q-45 0 -73.5 -26t-45 -62t-22.5 -74t-6 -62q0 -56 24.5 -85t59.5 -29t59 19.5t46 62.5h164q-17 -38 -39 -71t-53 -58t-71.5 -40t-92.5 -18z" />
            <glyph glyph-name="egrave" unicode="&#xe8;" horiz-adv-x="602"
           d="M558 151q-17 -36 -39 -66.5t-54.5 -52.5t-76 -34.5t-101.5 -12.5q-53 0 -98 15.5t-77 45t-50 71t-18 93.5q0 24 5 57t17.5 69.5t34.5 72t57 63.5t84 45.5t115 17.5q52 0 95 -13.5t73.5 -40.5t47.5 -68.5t17 -96.5q0 -41 -11 -94h-379q-1 -5 -1 -10v-10q0 -54 28 -81
t75 -27q37 0 60.5 15.5t36.5 41.5h159zM350 437q-42 0 -76 -28.5t-55 -95.5h219q3 18 3 34q0 48 -24 69t-67 21zM460 583h-116l-119 137h164z" />
            <glyph glyph-name="eacute" unicode="&#xe9;" horiz-adv-x="602"
           d="M558 151q-17 -36 -39 -66.5t-54.5 -52.5t-76 -34.5t-101.5 -12.5q-53 0 -98 15.5t-77 45t-50 71t-18 93.5q0 24 5 57t17.5 69.5t34.5 72t57 63.5t84 45.5t115 17.5q52 0 95 -13.5t73.5 -40.5t47.5 -68.5t17 -96.5q0 -41 -11 -94h-379q-1 -5 -1 -10v-10q0 -54 28 -81
t75 -27q37 0 60.5 15.5t36.5 41.5h159zM350 437q-42 0 -76 -28.5t-55 -95.5h219q3 18 3 34q0 48 -24 69t-67 21zM443 720h174l-179 -137h-126z" />
            <glyph glyph-name="ecircumflex" unicode="&#xea;" horiz-adv-x="602"
           d="M558 151q-17 -36 -39 -66.5t-54.5 -52.5t-76 -34.5t-101.5 -12.5q-53 0 -98 15.5t-77 45t-50 71t-18 93.5q0 24 5 57t17.5 69.5t34.5 72t57 63.5t84 45.5t115 17.5q52 0 95 -13.5t73.5 -40.5t47.5 -68.5t17 -96.5q0 -41 -11 -94h-379q-1 -5 -1 -10v-10q0 -54 28 -81
t75 -27q37 0 60.5 15.5t36.5 41.5h159zM350 437q-42 0 -76 -28.5t-55 -95.5h219q3 18 3 34q0 48 -24 69t-67 21zM341 598h-164l165 137h140l105 -137h-155l-33 59z" />
            <glyph glyph-name="edieresis" unicode="&#xeb;" horiz-adv-x="602"
           d="M558 151q-17 -36 -39 -66.5t-54.5 -52.5t-76 -34.5t-101.5 -12.5q-53 0 -98 15.5t-77 45t-50 71t-18 93.5q0 24 5 57t17.5 69.5t34.5 72t57 63.5t84 45.5t115 17.5q52 0 95 -13.5t73.5 -40.5t47.5 -68.5t17 -96.5q0 -41 -11 -94h-379q-1 -5 -1 -10v-10q0 -54 28 -81
t75 -27q37 0 60.5 15.5t36.5 41.5h159zM350 437q-42 0 -76 -28.5t-55 -95.5h219q3 18 3 34q0 48 -24 69t-67 21zM191 592l28 128h148l-28 -128h-148zM421 592l28 128h148l-28 -128h-148z" />
            <glyph glyph-name="igrave" unicode="&#xec;" horiz-adv-x="286"
           d="M25 0l110 520h156l-110 -520h-156zM331 583h-116l-119 137h164z" />
            <glyph glyph-name="iacute" unicode="&#xed;" horiz-adv-x="286"
           d="M25 0l110 520h156l-110 -520h-156zM250 720h174l-179 -137h-126z" />
            <glyph glyph-name="icircumflex" unicode="&#xee;" horiz-adv-x="286"
           d="M25 0l110 520h156l-110 -520h-156zM189 598h-164l165 137h140l105 -137h-155l-33 59z" />
            <glyph glyph-name="idieresis" unicode="&#xef;" horiz-adv-x="286"
           d="M25 0l110 520h156l-110 -520h-156zM40 592l28 128h148l-28 -128h-148zM270 592l28 128h148l-28 -128h-148z" />
            <glyph glyph-name="eth" unicode="&#xf0;" horiz-adv-x="590"
           d="M220 753q51 -7 102 -23.5t96 -42.5l40 33h143l-108 -89q45 -45 72.5 -104t27.5 -135q0 -35 -6 -79t-20.5 -89t-39 -88t-61 -76.5t-86 -54t-115.5 -20.5q-42 0 -82.5 12.5t-72.5 38.5t-51.5 66t-19.5 96q0 53 15 104t47 91.5t81.5 65t117.5 24.5q19 0 39.5 -4.5t39.5 -12
t33.5 -18t22.5 -23.5v10q0 37 -10.5 65.5t-28.5 50.5l-19 -16h-143l89 74q-29 14 -61 24t-64 17zM327 370q-38 0 -63 -17t-39.5 -43t-20.5 -56t-6 -56q0 -47 21.5 -73.5t63.5 -26.5q36 0 61 19t40 46.5t22 58t7 52.5q0 43 -23 69.5t-63 26.5z" />
            <glyph glyph-name="ntilde" unicode="&#xf1;" horiz-adv-x="601"
           d="M125 520h129l3 -57q37 35 81.5 53.5t88.5 18.5q76 0 117.5 -40t41.5 -111q0 -28 -6 -58l-69 -326h-156l69 324q4 16 4 33q0 35 -19.5 51.5t-50.5 16.5q-42 0 -76 -29t-45 -83l-66 -313h-156zM456 592q-22 0 -37.5 6t-28.5 13t-26 13t-30 6t-42 -10.5t-51 -27.5l24 110
q25 16 50 24.5t46 8.5q22 0 37.5 -6t28.5 -13t26 -13t30 -6t40 10.5t49 27.5l-24 -110q-25 -16 -48 -24.5t-44 -8.5z" />
            <glyph glyph-name="ograve" unicode="&#xf2;" horiz-adv-x="620"
           d="M359 535q56 0 101.5 -15t78 -43t50 -69t17.5 -93q0 -29 -5 -64.5t-18 -72.5t-35.5 -71.5t-58 -61.5t-85 -43.5t-115.5 -16.5q-57 0 -102.5 15t-77.5 43.5t-49 69.5t-17 94q0 31 5 67.5t18 73t35.5 70t57.5 60t84.5 42t115.5 15.5zM350 430q-34 0 -58 -13t-40 -34
t-26 -46.5t-15 -50.5t-6.5 -47t-1.5 -35q0 -59 28 -86.5t70 -27.5q33 0 56.5 13t40 34t26.5 47t15 52t7 49t2 37q0 58 -27.5 83t-70.5 25zM466 583h-116l-119 137h164z" />
            <glyph glyph-name="oacute" unicode="&#xf3;" horiz-adv-x="620"
           d="M359 535q56 0 101.5 -15t78 -43t50 -69t17.5 -93q0 -29 -5 -64.5t-18 -72.5t-35.5 -71.5t-58 -61.5t-85 -43.5t-115.5 -16.5q-57 0 -102.5 15t-77.5 43.5t-49 69.5t-17 94q0 31 5 67.5t18 73t35.5 70t57.5 60t84.5 42t115.5 15.5zM350 430q-34 0 -58 -13t-40 -34
t-26 -46.5t-15 -50.5t-6.5 -47t-1.5 -35q0 -59 28 -86.5t70 -27.5q33 0 56.5 13t40 34t26.5 47t15 52t7 49t2 37q0 58 -27.5 83t-70.5 25zM419 720h174l-179 -137h-126z" />
            <glyph glyph-name="ocircumflex" unicode="&#xf4;" horiz-adv-x="620"
           d="M359 535q56 0 101.5 -15t78 -43t50 -69t17.5 -93q0 -29 -5 -64.5t-18 -72.5t-35.5 -71.5t-58 -61.5t-85 -43.5t-115.5 -16.5q-57 0 -102.5 15t-77.5 43.5t-49 69.5t-17 94q0 31 5 67.5t18 73t35.5 70t57.5 60t84.5 42t115.5 15.5zM350 430q-34 0 -58 -13t-40 -34
t-26 -46.5t-15 -50.5t-6.5 -47t-1.5 -35q0 -59 28 -86.5t70 -27.5q33 0 56.5 13t40 34t26.5 47t15 52t7 49t2 37q0 58 -27.5 83t-70.5 25zM335 598h-164l165 137h140l105 -137h-155l-33 59z" />
            <glyph glyph-name="otilde" unicode="&#xf5;" horiz-adv-x="620"
           d="M359 535q56 0 101.5 -15t78 -43t50 -69t17.5 -93q0 -29 -5 -64.5t-18 -72.5t-35.5 -71.5t-58 -61.5t-85 -43.5t-115.5 -16.5q-57 0 -102.5 15t-77.5 43.5t-49 69.5t-17 94q0 31 5 67.5t18 73t35.5 70t57.5 60t84.5 42t115.5 15.5zM350 430q-34 0 -58 -13t-40 -34
t-26 -46.5t-15 -50.5t-6.5 -47t-1.5 -35q0 -59 28 -86.5t70 -27.5q33 0 56.5 13t40 34t26.5 47t15 52t7 49t2 37q0 58 -27.5 83t-70.5 25zM440 592q-22 0 -37.5 6t-28.5 13t-26 13t-30 6t-42 -10.5t-51 -27.5l24 110q25 16 50 24.5t46 8.5q22 0 37.5 -6t28.5 -13t26 -13
t30 -6t40 10.5t49 27.5l-24 -110q-25 -16 -48 -24.5t-44 -8.5z" />
            <glyph glyph-name="odieresis" unicode="&#xf6;" horiz-adv-x="620"
           d="M359 535q56 0 101.5 -15t78 -43t50 -69t17.5 -93q0 -29 -5 -64.5t-18 -72.5t-35.5 -71.5t-58 -61.5t-85 -43.5t-115.5 -16.5q-57 0 -102.5 15t-77.5 43.5t-49 69.5t-17 94q0 31 5 67.5t18 73t35.5 70t57.5 60t84.5 42t115.5 15.5zM350 430q-34 0 -58 -13t-40 -34
t-26 -46.5t-15 -50.5t-6.5 -47t-1.5 -35q0 -59 28 -86.5t70 -27.5q33 0 56.5 13t40 34t26.5 47t15 52t7 49t2 37q0 58 -27.5 83t-70.5 25zM186 592l28 128h148l-28 -128h-148zM416 592l28 128h148l-28 -128h-148z" />
            <glyph glyph-name="divide" unicode="&#xf7;"
           d="M194 62l30 142h158l-30 -142h-158zM274 441l30 142h158l-30 -142h-158zM535 261h-440l26 123h440z" />
            <glyph glyph-name="oslash" unicode="&#xf8;" horiz-adv-x="620"
           d="M359 535q47 0 89 -11l71 106h119l-102 -152q34 -28 52 -69t18 -94q0 -29 -5 -64.5t-18 -72.5t-35.5 -71.5t-58 -61.5t-85 -43.5t-115.5 -16.5q-46 0 -87 11v-1l-70 -105h-121l101 150q-33 29 -51 71t-18 96q0 31 5 67.5t18 73t35.5 70t57.5 60t84.5 42t115.5 15.5z
M350 430q-34 0 -58 -13t-40 -34t-26 -46.5t-15 -50.5t-6.5 -47t-1.5 -35q0 -33 9 -55l181 273q-21 8 -43 8zM448 322q0 14 -2 26t-5 22l-181 -273q17 -7 41 -7q33 0 56.5 13t40 34t26.5 47t15 52t7 49t2 37z" />
            <glyph glyph-name="ugrave" unicode="&#xf9;" horiz-adv-x="596"
           d="M276 520l-71 -336q-3 -14 -3 -24q0 -32 19.5 -48.5t52.5 -16.5q40 0 72 29.5t43 83.5l66 312h156l-110 -520h-129l-4 55q-34 -33 -75.5 -51.5t-91.5 -18.5q-76 0 -116.5 40t-40.5 111q0 30 7 61l69 323h156zM447 583h-116l-119 137h164z" />
            <glyph glyph-name="uacute" unicode="&#xfa;" horiz-adv-x="596"
           d="M276 520l-71 -336q-3 -14 -3 -24q0 -32 19.5 -48.5t52.5 -16.5q40 0 72 29.5t43 83.5l66 312h156l-110 -520h-129l-4 55q-34 -33 -75.5 -51.5t-91.5 -18.5q-76 0 -116.5 40t-40.5 111q0 30 7 61l69 323h156zM437 720h174l-179 -137h-126z" />
            <glyph glyph-name="ucircumflex" unicode="&#xfb;" horiz-adv-x="596"
           d="M276 520l-71 -336q-3 -14 -3 -24q0 -32 19.5 -48.5t52.5 -16.5q40 0 72 29.5t43 83.5l66 312h156l-110 -520h-129l-4 55q-34 -33 -75.5 -51.5t-91.5 -18.5q-76 0 -116.5 40t-40.5 111q0 30 7 61l69 323h156zM340 598h-164l165 137h140l105 -137h-155l-33 59z" />
            <glyph glyph-name="udieresis" unicode="&#xfc;" horiz-adv-x="596"
           d="M276 520l-71 -336q-3 -14 -3 -24q0 -32 19.5 -48.5t52.5 -16.5q40 0 72 29.5t43 83.5l66 312h156l-110 -520h-129l-4 55q-34 -33 -75.5 -51.5t-91.5 -18.5q-76 0 -116.5 40t-40.5 111q0 30 7 61l69 323h156zM192 592l28 128h148l-28 -128h-148zM422 592l28 128h148
l-28 -128h-148z" />
            <glyph glyph-name="yacute" unicode="&#xfd;" horiz-adv-x="571"
           d="M636 520l-304 -541q-29 -51 -53 -84.5t-49 -53.5t-53 -28t-64 -8q-20 0 -46 4t-46 11l24 109q23 -8 37.5 -10.5t28.5 -2.5q26 0 47 19.5t38 64.5h-44l-77 520h161l29 -406l210 406h161zM420 720h174l-179 -137h-126z" />
            <glyph glyph-name="thorn" unicode="&#xfe;" horiz-adv-x="636"
           d="M-24 -180l192 900h156l-54 -252q34 29 74 48t87 19q43 0 79 -14.5t62 -42t40 -66t14 -86.5q0 -32 -6 -69.5t-20 -75.5t-36.5 -73.5t-55.5 -62.5t-77 -43.5t-100 -16.5q-45 0 -85.5 18.5t-63.5 47.5l-50 -231h-156zM368 421q-45 0 -75 -25t-47 -60t-24 -71.5t-7 -59.5
q0 -52 27 -79t75 -27q46 0 74.5 24.5t45 58.5t22.5 69.5t6 58.5q0 57 -26.5 84t-70.5 27z" />
            <glyph glyph-name="ydieresis" unicode="&#xff;" horiz-adv-x="571"
           d="M636 520l-304 -541q-29 -51 -53 -84.5t-49 -53.5t-53 -28t-64 -8q-20 0 -46 4t-46 11l24 109q23 -8 37.5 -10.5t28.5 -2.5q26 0 47 19.5t38 64.5h-44l-77 520h161l29 -406l210 406h161zM182 592l28 128h148l-28 -128h-148zM412 592l28 128h148l-28 -128h-148z" />
            <glyph glyph-name="Amacron" unicode="&#x100;" horiz-adv-x="701"
           d="M489 0l-16 165h-256l-86 -165h-171l409 720h187l105 -720h-172zM274 275h189l-29 307zM339 798l24 112h270l-24 -112h-270z" />
            <glyph glyph-name="amacron" unicode="&#x101;" horiz-adv-x="580"
           d="M83 370q35 78 103 121.5t173 43.5q48 0 86 -11.5t64.5 -32.5t41 -50.5t14.5 -65.5q0 -22 -4 -41l-71 -334h-122l-8 54q-32 -29 -78.5 -49t-108.5 -20q-69 0 -110 34.5t-41 97.5q0 39 13 70t41.5 55.5t75 41.5t113.5 28l139 22l2 9q3 13 3.5 19t0.5 11q0 29 -19 45t-53 16
q-38 0 -61 -17.5t-34 -46.5h-160zM241 92q53 0 89 29.5t44 70.5l12 57l-99 -19q-63 -12 -84.5 -33t-21.5 -54q0 -23 15.5 -37t44.5 -14zM249 608l24 112h270l-24 -112h-270z" />
            <glyph glyph-name="Abreve" unicode="&#x102;" horiz-adv-x="701"
           d="M489 0l-16 165h-256l-86 -165h-171l409 720h187l105 -720h-172zM274 275h189l-29 307zM471 925q-2 -5 -2 -10v-9q0 -30 25 -30q14 0 23 11.5t16 37.5h124q-24 -72 -69.5 -102.5t-105.5 -30.5q-63 0 -99.5 30.5t-36.5 86.5v7q0 4 1 9h124z" />
            <glyph glyph-name="abreve" unicode="&#x103;" horiz-adv-x="580"
           d="M83 370q35 78 103 121.5t173 43.5q48 0 86 -11.5t64.5 -32.5t41 -50.5t14.5 -65.5q0 -22 -4 -41l-71 -334h-122l-8 54q-32 -29 -78.5 -49t-108.5 -20q-69 0 -110 34.5t-41 97.5q0 39 13 70t41.5 55.5t75 41.5t113.5 28l139 22l2 9q3 13 3.5 19t0.5 11q0 29 -19 45t-53 16
q-38 0 -61 -17.5t-34 -46.5h-160zM241 92q53 0 89 29.5t44 70.5l12 57l-99 -19q-63 -12 -84.5 -33t-21.5 -54q0 -23 15.5 -37t44.5 -14zM378 735q-2 -5 -2 -10v-9q0 -30 25 -30q14 0 23 11.5t16 37.5h124q-24 -72 -69.5 -102.5t-105.5 -30.5q-63 0 -99.5 30.5t-36.5 86.5v7
q0 4 1 9h124z" />
            <glyph glyph-name="Aogonek" unicode="&#x104;" horiz-adv-x="701"
           d="M642 -137q-23 -48 -64.5 -79t-109.5 -31q-54 0 -88 29t-34 74q0 53 40.5 89.5t101.5 59.5l-15 160h-256l-86 -165h-171l409 720h187l105 -720h-85q-21 -9 -42 -21t-37.5 -26t-26.5 -31.5t-10 -38.5q0 -19 11 -30.5t28 -11.5q25 0 36 22h107zM274 275h189l-29 307z" />
            <glyph glyph-name="aogonek" unicode="&#x105;" horiz-adv-x="580"
           d="M512 -137q-23 -48 -64.5 -79t-109.5 -31q-54 0 -88 29t-34 74q0 27 11.5 50t31.5 42t47.5 34t59.5 27l-6 45q-32 -29 -78.5 -49t-108.5 -20q-69 0 -110 34.5t-41 97.5q0 39 13 70t41.5 55.5t75 41.5t113.5 28l139 22l2 9q3 13 3.5 19t0.5 11q0 29 -19 45t-53 16
q-38 0 -61 -17.5t-34 -46.5h-160q35 78 103 121.5t173 43.5q48 0 86 -11.5t64.5 -32.5t41 -50.5t14.5 -65.5q0 -22 -4 -41l-71 -334h-44q-21 -9 -42 -21t-37.5 -26t-26.5 -31.5t-10 -38.5q0 -19 11 -30.5t28 -11.5q25 0 36 22h107zM241 92q53 0 89 29.5t44 70.5l12 57
l-99 -19q-63 -12 -84.5 -33t-21.5 -54q0 -23 15.5 -37t44.5 -14z" />
            <glyph glyph-name="Cacute" unicode="&#x106;" horiz-adv-x="741"
           d="M370 103q69 0 114 38.5t69 123.5h171q-46 -139 -136.5 -209.5t-236.5 -70.5q-137 0 -212 75.5t-75 212.5q0 47 8.5 100t27.5 104.5t50.5 98t77.5 82t108.5 56.5t143.5 21q57 0 108.5 -15.5t90.5 -45.5t62 -74t23 -102v-13h-168q0 68 -34.5 100.5t-92.5 32.5
q-45 0 -79 -18t-59.5 -47t-43 -66t-28 -76t-15 -76t-4.5 -65q0 -45 10 -76.5t28 -51.5t41.5 -29.5t50.5 -9.5zM563 910h174l-179 -137h-126z" />
            <glyph glyph-name="cacute" unicode="&#x107;" horiz-adv-x="590"
           d="M556 173q-17 -40 -41 -74.5t-57 -59.5t-77.5 -39.5t-102.5 -14.5q-121 0 -179 54.5t-58 150.5q0 52 14.5 112t50.5 112t96.5 86.5t152.5 34.5q52 0 96 -12.5t75.5 -36t49.5 -55.5t19 -71h-164q-2 32 -26.5 50.5t-54.5 18.5q-45 0 -73.5 -26t-45 -62t-22.5 -74t-6 -62
q0 -56 24.5 -85t59.5 -29t59 19.5t46 62.5h164zM444 720h174l-179 -137h-126z" />
            <glyph glyph-name="Ccircumflex" unicode="&#x108;" horiz-adv-x="741"
           d="M370 103q69 0 114 38.5t69 123.5h171q-46 -139 -136.5 -209.5t-236.5 -70.5q-137 0 -212 75.5t-75 212.5q0 47 8.5 100t27.5 104.5t50.5 98t77.5 82t108.5 56.5t143.5 21q57 0 108.5 -15.5t90.5 -45.5t62 -74t23 -102v-13h-168q0 68 -34.5 100.5t-92.5 32.5
q-45 0 -79 -18t-59.5 -47t-43 -66t-28 -76t-15 -76t-4.5 -65q0 -45 10 -76.5t28 -51.5t41.5 -29.5t50.5 -9.5zM469 788h-164l165 137h140l105 -137h-155l-33 59z" />
            <glyph glyph-name="ccircumflex" unicode="&#x109;" horiz-adv-x="590"
           d="M556 173q-17 -40 -41 -74.5t-57 -59.5t-77.5 -39.5t-102.5 -14.5q-121 0 -179 54.5t-58 150.5q0 52 14.5 112t50.5 112t96.5 86.5t152.5 34.5q52 0 96 -12.5t75.5 -36t49.5 -55.5t19 -71h-164q-2 32 -26.5 50.5t-54.5 18.5q-45 0 -73.5 -26t-45 -62t-22.5 -74t-6 -62
q0 -56 24.5 -85t59.5 -29t59 19.5t46 62.5h164zM337 598h-164l165 137h140l105 -137h-155l-33 59z" />
            <glyph glyph-name="Cdotaccent" unicode="&#x10a;" horiz-adv-x="741"
           d="M370 103q69 0 114 38.5t69 123.5h171q-46 -139 -136.5 -209.5t-236.5 -70.5q-137 0 -212 75.5t-75 212.5q0 47 8.5 100t27.5 104.5t50.5 98t77.5 82t108.5 56.5t143.5 21q57 0 108.5 -15.5t90.5 -45.5t62 -74t23 -102v-13h-168q0 68 -34.5 100.5t-92.5 32.5
q-45 0 -79 -18t-59.5 -47t-43 -66t-28 -76t-15 -76t-4.5 -65q0 -45 10 -76.5t28 -51.5t41.5 -29.5t50.5 -9.5zM419 777l29 133h168l-29 -133h-168z" />
            <glyph glyph-name="cdotaccent" unicode="&#x10b;" horiz-adv-x="590"
           d="M556 173q-17 -40 -41 -74.5t-57 -59.5t-77.5 -39.5t-102.5 -14.5q-121 0 -179 54.5t-58 150.5q0 52 14.5 112t50.5 112t96.5 86.5t152.5 34.5q52 0 96 -12.5t75.5 -36t49.5 -55.5t19 -71h-164q-2 32 -26.5 50.5t-54.5 18.5q-45 0 -73.5 -26t-45 -62t-22.5 -74t-6 -62
q0 -56 24.5 -85t59.5 -29t59 19.5t46 62.5h164zM298 587l29 133h168l-29 -133h-168z" />
            <glyph glyph-name="Ccaron" unicode="&#x10c;" horiz-adv-x="741"
           d="M370 103q69 0 114 38.5t69 123.5h171q-46 -139 -136.5 -209.5t-236.5 -70.5q-137 0 -212 75.5t-75 212.5q0 47 8.5 100t27.5 104.5t50.5 98t77.5 82t108.5 56.5t143.5 21q57 0 108.5 -15.5t90.5 -45.5t62 -74t23 -102v-13h-168q0 68 -34.5 100.5t-92.5 32.5
q-45 0 -79 -18t-59.5 -47t-43 -66t-28 -76t-15 -76t-4.5 -65q0 -45 10 -76.5t28 -51.5t41.5 -29.5t50.5 -9.5zM509 866l59 59h164l-165 -137h-140l-105 137h155z" />
            <glyph glyph-name="ccaron" unicode="&#x10d;" horiz-adv-x="590"
           d="M556 173q-17 -40 -41 -74.5t-57 -59.5t-77.5 -39.5t-102.5 -14.5q-121 0 -179 54.5t-58 150.5q0 52 14.5 112t50.5 112t96.5 86.5t152.5 34.5q52 0 96 -12.5t75.5 -36t49.5 -55.5t19 -71h-164q-2 32 -26.5 50.5t-54.5 18.5q-45 0 -73.5 -26t-45 -62t-22.5 -74t-6 -62
q0 -56 24.5 -85t59.5 -29t59 19.5t46 62.5h164zM393 676l59 59h164l-165 -137h-140l-105 137h155z" />
            <glyph glyph-name="Dcaron" unicode="&#x10e;" horiz-adv-x="729"
           d="M420 720q73 0 131.5 -17.5t99.5 -51.5t63 -84.5t22 -117.5q0 -40 -6.5 -88.5t-23.5 -98.5t-47.5 -97t-78.5 -83.5t-115.5 -59t-158.5 -22.5h-286l153 720h247zM316 604l-104 -487h108q49 0 86.5 16t64.5 42.5t45 60.5t29 69.5t15.5 69.5t4.5 61q0 85 -43.5 126.5
t-115.5 41.5h-90zM471 866l59 59h164l-165 -137h-140l-105 137h155z" />
            <glyph glyph-name="dcaron" unicode="&#x10f;" horiz-adv-x="826"
           d="M418 0l-14 57q-35 -32 -77.5 -52t-92.5 -20q-44 0 -80 15.5t-61.5 43t-39 67t-13.5 87.5q0 54 17 113.5t53 109t91 82t131 32.5q51 0 91 -18.5t61 -49.5l53 253h156l-153 -720h-122zM451 317q0 30 -8.5 50t-22 32t-31.5 17t-36 5q-47 0 -77 -23.5t-47 -57t-23 -69.5
t-6 -60q0 -56 26.5 -84t71.5 -28q31 0 54.5 12t40 30.5t28 42.5t18 48.5t9.5 46.5t3 38zM880 596q-11 -49 -32.5 -80.5t-49.5 -50.5t-60.5 -29t-65.5 -16l14 68q39 12 61.5 34.5t30.5 60.5h-48l30 137h147z" />
            <glyph glyph-name="Dcroat" unicode="&#x110;" horiz-adv-x="729"
           d="M420 720q73 0 131.5 -17.5t99.5 -51.5t63 -84.5t22 -117.5q0 -40 -6.5 -88.5t-23.5 -98.5t-47.5 -97t-78.5 -83.5t-115.5 -59t-158.5 -22.5h-286l67 315h-51l27 126h51l59 279h247zM316 604l-35 -163h129l-27 -126h-129l-42 -198h108q49 0 86.5 16t64.5 42.5t45 60.5
t29 69.5t15.5 69.5t4.5 61q0 85 -43.5 126.5t-115.5 41.5h-90z" />
            <glyph glyph-name="dcroat" unicode="&#x111;" horiz-adv-x="635"
           d="M418 0l-14 57q-35 -32 -77.5 -52t-92.5 -20q-44 0 -80 15.5t-61.5 43t-39 67t-13.5 87.5q0 54 17 113.5t53 109t91 82t131 32.5q51 0 91 -18.5t61 -49.5l21 103h-122l22 106h123l9 44h156l-10 -44h40l-22 -106h-40l-121 -570h-122zM451 317q0 30 -8.5 50t-22 32t-31.5 17
t-36 5q-47 0 -77 -23.5t-47 -57t-23 -69.5t-6 -60q0 -56 26.5 -84t71.5 -28q46 0 76 25t47 60t23.5 72t6.5 61z" />
            <glyph glyph-name="Emacron" unicode="&#x112;" horiz-adv-x="581"
           d="M541 305h-289l-39 -184h318l-25 -121h-486l153 720h486l-27 -123h-318l-37 -176h289zM297 798l24 112h270l-24 -112h-270z" />
            <glyph glyph-name="emacron" unicode="&#x113;" horiz-adv-x="602"
           d="M558 151q-17 -36 -39 -66.5t-54.5 -52.5t-76 -34.5t-101.5 -12.5q-53 0 -98 15.5t-77 45t-50 71t-18 93.5q0 24 5 57t17.5 69.5t34.5 72t57 63.5t84 45.5t115 17.5q52 0 95 -13.5t73.5 -40.5t47.5 -68.5t17 -96.5q0 -41 -11 -94h-379q-1 -5 -1 -10v-10q0 -54 28 -81
t75 -27q37 0 60.5 15.5t36.5 41.5h159zM350 437q-42 0 -76 -28.5t-55 -95.5h219q3 18 3 34q0 48 -24 69t-67 21zM257 608l24 112h270l-24 -112h-270z" />
            <glyph glyph-name="Ebreve" unicode="&#x114;" horiz-adv-x="581"
           d="M541 305h-289l-39 -184h318l-25 -121h-486l153 720h486l-27 -123h-318l-37 -176h289zM420 925q-2 -5 -2 -10v-9q0 -30 25 -30q14 0 23 11.5t16 37.5h124q-24 -72 -69.5 -102.5t-105.5 -30.5q-63 0 -99.5 30.5t-36.5 86.5v7q0 4 1 9h124z" />
            <glyph glyph-name="ebreve" unicode="&#x115;" horiz-adv-x="602"
           d="M558 151q-17 -36 -39 -66.5t-54.5 -52.5t-76 -34.5t-101.5 -12.5q-53 0 -98 15.5t-77 45t-50 71t-18 93.5q0 24 5 57t17.5 69.5t34.5 72t57 63.5t84 45.5t115 17.5q52 0 95 -13.5t73.5 -40.5t47.5 -68.5t17 -96.5q0 -41 -11 -94h-379q-1 -5 -1 -10v-10q0 -54 28 -81
t75 -27q37 0 60.5 15.5t36.5 41.5h159zM350 437q-42 0 -76 -28.5t-55 -95.5h219q3 18 3 34q0 48 -24 69t-67 21zM370 735q-2 -5 -2 -10v-9q0 -30 25 -30q14 0 23 11.5t16 37.5h124q-24 -72 -69.5 -102.5t-105.5 -30.5q-63 0 -99.5 30.5t-36.5 86.5v7q0 4 1 9h124z" />
            <glyph glyph-name="Edotaccent" unicode="&#x116;" horiz-adv-x="581"
           d="M541 305h-289l-39 -184h318l-25 -121h-486l153 720h486l-27 -123h-318l-37 -176h289zM348 777l29 133h168l-29 -133h-168z" />
            <glyph glyph-name="edotaccent" unicode="&#x117;" horiz-adv-x="602"
           d="M558 151q-17 -36 -39 -66.5t-54.5 -52.5t-76 -34.5t-101.5 -12.5q-53 0 -98 15.5t-77 45t-50 71t-18 93.5q0 24 5 57t17.5 69.5t34.5 72t57 63.5t84 45.5t115 17.5q52 0 95 -13.5t73.5 -40.5t47.5 -68.5t17 -96.5q0 -41 -11 -94h-379q-1 -5 -1 -10v-10q0 -54 28 -81
t75 -27q37 0 60.5 15.5t36.5 41.5h159zM350 437q-42 0 -76 -28.5t-55 -95.5h219q3 18 3 34q0 48 -24 69t-67 21zM302 587l29 133h168l-29 -133h-168z" />
            <glyph glyph-name="Eogonek" unicode="&#x118;" horiz-adv-x="581"
           d="M445 -137q-23 -48 -64.5 -79t-109.5 -31q-54 0 -88 29t-34 74q0 50 36.5 85t92.5 59h-258l153 720h486l-27 -123h-318l-37 -176h289l-25 -116h-289l-39 -184h318l-25 -121h-127q-21 -9 -42 -21t-37.5 -26t-26.5 -31.5t-10 -38.5q0 -19 11 -30.5t28 -11.5q25 0 36 22h107z
" />
            <glyph glyph-name="eogonek" unicode="&#x119;" horiz-adv-x="602"
           d="M463 -137q-23 -48 -64.5 -79t-109.5 -31q-54 0 -88 29t-34 74q0 43 27 75t71 55q-49 3 -89.5 20t-70 46t-45.5 69t-16 89q0 24 5 57t17.5 69.5t34.5 72t57 63.5t84 45.5t115 17.5q52 0 95 -13.5t73.5 -40.5t47.5 -68.5t17 -96.5q0 -41 -11 -94h-379q-1 -5 -1 -10v-10
q0 -54 28 -81t75 -27q37 0 60.5 15.5t36.5 41.5h159q-14 -29 -28.5 -52t-33 -41t-42.5 -32t-56 -26q-18 -7 -39 -18t-38 -26t-28.5 -33.5t-11.5 -39.5q0 -19 11 -30.5t28 -11.5q25 0 36 22h107zM350 437q-42 0 -76 -28.5t-55 -95.5h219q3 18 3 34q0 48 -24 69t-67 21z" />
            <glyph glyph-name="Ecaron" unicode="&#x11a;" horiz-adv-x="581"
           d="M541 305h-289l-39 -184h318l-25 -121h-486l153 720h486l-27 -123h-318l-37 -176h289zM448 866l59 59h164l-165 -137h-140l-105 137h155z" />
            <glyph glyph-name="ecaron" unicode="&#x11b;" horiz-adv-x="602"
           d="M558 151q-17 -36 -39 -66.5t-54.5 -52.5t-76 -34.5t-101.5 -12.5q-53 0 -98 15.5t-77 45t-50 71t-18 93.5q0 24 5 57t17.5 69.5t34.5 72t57 63.5t84 45.5t115 17.5q52 0 95 -13.5t73.5 -40.5t47.5 -68.5t17 -96.5q0 -41 -11 -94h-379q-1 -5 -1 -10v-10q0 -54 28 -81
t75 -27q37 0 60.5 15.5t36.5 41.5h159zM350 437q-42 0 -76 -28.5t-55 -95.5h219q3 18 3 34q0 48 -24 69t-67 21zM402 676l59 59h164l-165 -137h-140l-105 137h155z" />
            <glyph glyph-name="Gcircumflex" unicode="&#x11c;" horiz-adv-x="749"
           d="M659 0h-108l-10 67q-40 -36 -91.5 -59t-123.5 -23q-55 0 -103 18.5t-83 54.5t-55.5 89t-20.5 122q0 38 7 87t24.5 101t48.5 102t79 89t116 63t159 24q61 0 110.5 -15t85 -43.5t55 -69.5t19.5 -93h-167q-3 54 -37.5 79t-88.5 25q-46 0 -81 -18.5t-61 -48t-44 -67.5
t-29 -76.5t-15.5 -75t-4.5 -63.5q0 -86 38.5 -126t98.5 -40q35 0 66 10t56 28.5t42 44t24 55.5l11 51h-170l23 109h315zM453 788h-164l165 137h140l105 -137h-155l-33 59z" />
            <glyph glyph-name="gcircumflex" unicode="&#x11d;" horiz-adv-x="625"
           d="M160 -32q8 -30 30.5 -42t69.5 -12q49 0 77 25t40 79l11 49q-32 -25 -69.5 -38.5t-75.5 -13.5q-43 0 -79 15t-62.5 43t-41 67.5t-14.5 87.5q0 71 22.5 128t61.5 96.5t91 61t112 21.5q45 0 87.5 -17.5t64.5 -48.5l37 51h118l-105 -492q-23 -105 -95 -164t-197 -59
q-121 0 -181.5 40.5t-60.5 112.5v10h159zM452 315q0 53 -27.5 79.5t-71.5 26.5q-41 0 -69 -18t-46 -45t-26 -59.5t-8 -61.5q0 -53 27.5 -80.5t72.5 -27.5q44 0 72.5 20t45 48.5t23.5 61t7 56.5zM356 598h-164l165 137h140l105 -137h-155l-33 59z" />
            <glyph glyph-name="Gbreve" unicode="&#x11e;" horiz-adv-x="749"
           d="M659 0h-108l-10 67q-40 -36 -91.5 -59t-123.5 -23q-55 0 -103 18.5t-83 54.5t-55.5 89t-20.5 122q0 38 7 87t24.5 101t48.5 102t79 89t116 63t159 24q61 0 110.5 -15t85 -43.5t55 -69.5t19.5 -93h-167q-3 54 -37.5 79t-88.5 25q-46 0 -81 -18.5t-61 -48t-44 -67.5
t-29 -76.5t-15.5 -75t-4.5 -63.5q0 -86 38.5 -126t98.5 -40q35 0 66 10t56 28.5t42 44t24 55.5l11 51h-170l23 109h315zM500 925q-2 -5 -2 -10v-9q0 -30 25 -30q14 0 23 11.5t16 37.5h124q-24 -72 -69.5 -102.5t-105.5 -30.5q-63 0 -99.5 30.5t-36.5 86.5v7q0 4 1 9h124z
" />
            <glyph glyph-name="gbreve" unicode="&#x11f;" horiz-adv-x="625"
           d="M160 -32q8 -30 30.5 -42t69.5 -12q49 0 77 25t40 79l11 49q-32 -25 -69.5 -38.5t-75.5 -13.5q-43 0 -79 15t-62.5 43t-41 67.5t-14.5 87.5q0 71 22.5 128t61.5 96.5t91 61t112 21.5q45 0 87.5 -17.5t64.5 -48.5l37 51h118l-105 -492q-23 -105 -95 -164t-197 -59
q-121 0 -181.5 40.5t-60.5 112.5v10h159zM452 315q0 53 -27.5 79.5t-71.5 26.5q-41 0 -69 -18t-46 -45t-26 -59.5t-8 -61.5q0 -53 27.5 -80.5t72.5 -27.5q44 0 72.5 20t45 48.5t23.5 61t7 56.5zM400 735q-2 -5 -2 -10v-9q0 -30 25 -30q14 0 23 11.5t16 37.5h124
q-24 -72 -69.5 -102.5t-105.5 -30.5q-63 0 -99.5 30.5t-36.5 86.5v7q0 4 1 9h124z" />
            <glyph glyph-name="Gdotaccent" unicode="&#x120;" horiz-adv-x="749"
           d="M659 0h-108l-10 67q-40 -36 -91.5 -59t-123.5 -23q-55 0 -103 18.5t-83 54.5t-55.5 89t-20.5 122q0 38 7 87t24.5 101t48.5 102t79 89t116 63t159 24q61 0 110.5 -15t85 -43.5t55 -69.5t19.5 -93h-167q-3 54 -37.5 79t-88.5 25q-46 0 -81 -18.5t-61 -48t-44 -67.5
t-29 -76.5t-15.5 -75t-4.5 -63.5q0 -86 38.5 -126t98.5 -40q35 0 66 10t56 28.5t42 44t24 55.5l11 51h-170l23 109h315zM428 777l29 133h168l-29 -133h-168z" />
            <glyph glyph-name="gdotaccent" unicode="&#x121;" horiz-adv-x="625"
           d="M160 -32q8 -30 30.5 -42t69.5 -12q49 0 77 25t40 79l11 49q-32 -25 -69.5 -38.5t-75.5 -13.5q-43 0 -79 15t-62.5 43t-41 67.5t-14.5 87.5q0 71 22.5 128t61.5 96.5t91 61t112 21.5q45 0 87.5 -17.5t64.5 -48.5l37 51h118l-105 -492q-23 -105 -95 -164t-197 -59
q-121 0 -181.5 40.5t-60.5 112.5v10h159zM452 315q0 53 -27.5 79.5t-71.5 26.5q-41 0 -69 -18t-46 -45t-26 -59.5t-8 -61.5q0 -53 27.5 -80.5t72.5 -27.5q44 0 72.5 20t45 48.5t23.5 61t7 56.5zM309 587l29 133h168l-29 -133h-168z" />
            <glyph glyph-name="Gcommaaccent" unicode="&#x122;" horiz-adv-x="749"
           d="M659 0h-108l-10 67q-40 -36 -91.5 -59t-123.5 -23q-55 0 -103 18.5t-83 54.5t-55.5 89t-20.5 122q0 38 7 87t24.5 101t48.5 102t79 89t116 63t159 24q61 0 110.5 -15t85 -43.5t55 -69.5t19.5 -93h-167q-3 54 -37.5 79t-88.5 25q-46 0 -81 -18.5t-61 -48t-44 -67.5
t-29 -76.5t-15.5 -75t-4.5 -63.5q0 -86 38.5 -126t98.5 -40q35 0 66 10t56 28.5t42 44t24 55.5l11 51h-170l23 109h315zM365 -185q-11 -49 -32.5 -80.5t-49.5 -50.5t-60 -29t-65 -16l14 68q38 12 60.5 34.5t30.5 60.5h-48l30 137h147z" />
            <glyph glyph-name="gcommaaccent" unicode="&#x123;" horiz-adv-x="625"
           d="M160 -32q8 -30 30.5 -42t69.5 -12q49 0 77 25t40 79l11 49q-32 -25 -69.5 -38.5t-75.5 -13.5q-43 0 -79 15t-62.5 43t-41 67.5t-14.5 87.5q0 71 22.5 128t61.5 96.5t91 61t112 21.5q45 0 87.5 -17.5t64.5 -48.5l37 51h118l-105 -492q-23 -105 -95 -164t-197 -59
q-121 0 -181.5 40.5t-60.5 112.5v10h159zM452 315q0 53 -27.5 79.5t-71.5 26.5q-41 0 -69 -18t-46 -45t-26 -59.5t-8 -61.5q0 -53 27.5 -80.5t72.5 -27.5q44 0 72.5 20t45 48.5t23.5 61t7 56.5zM347 693q10 49 31.5 80.5t50 50.5t61 29t65.5 16l-14 -68q-39 -12 -61.5 -34.5
t-30.5 -60.5h48l-30 -137h-147z" />
            <glyph glyph-name="Hcircumflex" unicode="&#x124;" horiz-adv-x="723"
           d="M776 720l-153 -720h-167l64 304h-268l-64 -304h-168l153 720h168l-63 -296h268l63 296h167zM446 788h-164l165 137h140l105 -137h-155l-33 59z" />
            <glyph glyph-name="hcircumflex" unicode="&#x125;" horiz-adv-x="601"
           d="M168 720h156l-53 -247q31 28 71.5 45t84.5 17q76 0 117.5 -40t41.5 -111q0 -28 -6 -58l-69 -326h-156l69 324q4 17 4 33q0 35 -19.5 51.5t-50.5 16.5q-42 0 -76 -29t-45 -83l-66 -313h-156zM351 788h-164l165 137h140l105 -137h-155l-33 59z" />
            <glyph glyph-name="Hbar" unicode="&#x126;" horiz-adv-x="723"
           d="M776 720l-18 -84h45l-24 -111h-45l-111 -525h-167l64 304h-268l-64 -304h-168l111 525h-45l24 111h45l18 84h168l-18 -84h268l18 84h167zM278 424h268l21 101h-268z" />
            <glyph glyph-name="hbar" unicode="&#x127;" horiz-adv-x="601"
           d="M136 570h-40l22 106h40l10 44h156l-10 -44h132l-22 -106h-132l-21 -97q31 28 71.5 45t84.5 17q76 0 117.5 -40t41.5 -111q0 -28 -6 -58l-69 -326h-156l69 324q4 17 4 33q0 35 -19.5 51.5t-50.5 16.5q-42 0 -76 -29t-45 -83l-66 -313h-156z" />
            <glyph glyph-name="Itilde" unicode="&#x128;" horiz-adv-x="288"
           d="M341 720l-153 -720h-168l153 720h168zM334 782q-22 0 -37.5 6t-28.5 13t-26 13t-30 6t-42 -10.5t-51 -27.5l24 110q25 16 50 24.5t46 8.5q22 0 37.5 -6t28.5 -13t26 -13t30 -6t40 10.5t49 27.5l-24 -110q-25 -16 -48 -24.5t-44 -8.5z" />
            <glyph glyph-name="itilde" unicode="&#x129;" horiz-adv-x="286"
           d="M25 0l110 520h156l-110 -520h-156zM294 592q-22 0 -37.5 6t-28.5 13t-26 13t-30 6t-42 -10.5t-51 -27.5l24 110q25 16 50 24.5t46 8.5q22 0 37.5 -6t28.5 -13t26 -13t30 -6t40 10.5t49 27.5l-24 -110q-25 -16 -48 -24.5t-44 -8.5z" />
            <glyph glyph-name="Imacron" unicode="&#x12a;" horiz-adv-x="288"
           d="M341 720l-153 -720h-168l153 720h168zM139 798l24 112h270l-24 -112h-270z" />
            <glyph glyph-name="imacron" unicode="&#x12b;" horiz-adv-x="286"
           d="M25 0l110 520h156l-110 -520h-156zM98 608l24 112h270l-24 -112h-270z" />
            <glyph glyph-name="Ibreve" unicode="&#x12c;" horiz-adv-x="288"
           d="M341 720l-153 -720h-168l153 720h168zM255 925q-2 -5 -2 -10v-9q0 -30 25 -30q14 0 23 11.5t16 37.5h124q-24 -72 -69.5 -102.5t-105.5 -30.5q-63 0 -99.5 30.5t-36.5 86.5v7q0 4 1 9h124z" />
            <glyph glyph-name="ibreve" unicode="&#x12d;" horiz-adv-x="286"
           d="M25 0l110 520h156l-110 -520h-156zM216 735q-2 -5 -2 -10v-9q0 -30 25 -30q14 0 23 11.5t16 37.5h124q-24 -72 -69.5 -102.5t-105.5 -30.5q-63 0 -99.5 30.5t-36.5 86.5v7q0 4 1 9h124z" />
            <glyph glyph-name="Iogonek" unicode="&#x12e;" horiz-adv-x="288"
           d="M180 -137q-23 -48 -64.5 -79t-109.5 -31q-54 0 -88 29t-34 74q0 52 39 88t97 59l153 717h168l-153 -720h-74q-21 -9 -42 -21t-37.5 -26t-26.5 -31.5t-10 -38.5q0 -19 11 -30.5t28 -11.5q25 0 36 22h107z" />
            <glyph glyph-name="iogonek" unicode="&#x12f;" horiz-adv-x="286"
           d="M174 -137q-23 -48 -64.5 -79t-109.5 -31q-54 0 -88 29t-34 74q0 27 11.5 50t31.5 41.5t47 33.5t58 27l109 512h156l-110 -520h-73q-21 -9 -42 -21t-37.5 -26t-26.5 -31.5t-10 -38.5q0 -19 11 -30.5t28 -11.5q25 0 36 22h107zM143 587l29 133h168l-29 -133h-168z" />
            <glyph glyph-name="Idotaccent" unicode="&#x130;" horiz-adv-x="288"
           d="M341 720l-153 -720h-168l153 720h168zM184 777l29 133h168l-29 -133h-168z" />
            <glyph glyph-name="dotlessi" unicode="&#x131;" horiz-adv-x="286"
           d="M25 0l110 520h156l-110 -520h-156z" />
            <glyph glyph-name="IJ" unicode="&#x132;" horiz-adv-x="853"
           d="M341 720l-153 -720h-168l153 720h168zM473 213q-3 -15 -3 -28q0 -23 7 -38t18 -25t24 -14t26 -4q16 0 30.5 4.5t27 16.5t22.5 33.5t17 54.5l108 507h161l-107 -500q-26 -121 -88.5 -178t-178.5 -57q-42 0 -82.5 10.5t-72 34t-51 61.5t-19.5 94v13q0 7 1 15h160z" />
            <glyph glyph-name="ij" unicode="&#x133;" horiz-adv-x="563"
           d="M143 587l29 133h168l-29 -133h-168zM25 0l110 520h156l-110 -520h-156zM177 -67q16 -6 33.5 -9.5t28.5 -3.5q26 0 40.5 12.5t20.5 41.5l116 546h156l-118 -554q-16 -75 -63.5 -118t-132.5 -43q-11 0 -25.5 1.5t-29 4t-27.5 6t-22 7.5zM424 587l29 133h168l-29 -133h-168z
" />
            <glyph glyph-name="Jcircumflex" unicode="&#x134;" horiz-adv-x="565"
           d="M185 213q-3 -15 -3 -28q0 -23 7 -38t18 -25t24 -14t26 -4q16 0 30.5 4.5t27 16.5t22.5 33.5t17 54.5l108 507h161l-107 -500q-26 -121 -88.5 -178t-178.5 -57q-42 0 -82.5 10.5t-72 34t-51 61.5t-19.5 94v13q0 7 1 15h160zM510 788h-164l165 137h140l105 -137h-155
l-33 59z" />
            <glyph glyph-name="jcircumflex" unicode="&#x135;" horiz-adv-x="277"
           d="M-109 -67q16 -6 33.5 -9.5t28.5 -3.5q26 0 40.5 12.5t20.5 41.5l116 546h156l-118 -554q-16 -75 -63.5 -118t-132.5 -43q-11 0 -25.5 1.5t-29 4t-27.5 6t-22 7.5zM173 598h-164l165 137h140l105 -137h-155l-33 59z" />
            <glyph glyph-name="Kcommaaccent" unicode="&#x136;" horiz-adv-x="716"
           d="M469 0l-214 321l-67 -321h-168l153 720h168l-65 -302l311 302h204l-375 -352l260 -368h-207zM319 -185q-11 -49 -32.5 -80.5t-49.5 -50.5t-60 -29t-65 -16l14 68q38 12 60.5 34.5t30.5 60.5h-48l30 137h147z" />
            <glyph glyph-name="kcommaaccent" unicode="&#x137;" horiz-adv-x="585"
           d="M15 0l153 720h156l-83 -387l209 187h189l-258 -228l174 -292h-192l-142 239l-50 -239h-156zM277 -185q-11 -49 -32.5 -80.5t-49.5 -50.5t-60 -29t-65 -16l14 68q38 12 60.5 34.5t30.5 60.5h-48l30 137h147z" />
            <glyph glyph-name="kgreenlandic" unicode="&#x138;" horiz-adv-x="585"
           d="M15 0l110 520h156l-41 -195l217 195h182l-260 -227l176 -293h-200l-135 231l-49 -231h-156z" />
            <glyph glyph-name="Lacute" unicode="&#x139;" horiz-adv-x="598"
           d="M341 720l-127 -594h350l-26 -126h-518l153 720h168zM318 910h174l-179 -137h-126z" />
            <glyph glyph-name="lacute" unicode="&#x13a;" horiz-adv-x="266"
           d="M171 0h-156l153 720h156zM271 910h174l-179 -137h-126z" />
            <glyph glyph-name="Lcommaaccent" unicode="&#x13b;" horiz-adv-x="598"
           d="M341 720l-127 -594h350l-26 -126h-518l153 720h168zM298 -185q-11 -49 -32.5 -80.5t-49.5 -50.5t-60 -29t-65 -16l14 68q38 12 60.5 34.5t30.5 60.5h-48l30 137h147z" />
            <glyph glyph-name="lcommaaccent" unicode="&#x13c;" horiz-adv-x="266"
           d="M171 0h-156l153 720h156zM126 -185q-11 -49 -32.5 -80.5t-49.5 -50.5t-60 -29t-65 -16l14 68q38 12 60.5 34.5t30.5 60.5h-48l30 137h147z" />
            <glyph glyph-name="Lcaron" unicode="&#x13d;" horiz-adv-x="598"
           d="M341 720l-127 -594h350l-26 -126h-518l153 720h168zM533 596q-11 -49 -32.5 -80.5t-49.5 -50.5t-60.5 -29t-65.5 -16l14 68q39 12 61.5 34.5t30.5 60.5h-48l30 137h147z" />
            <glyph glyph-name="lcaron" unicode="&#x13e;" horiz-adv-x="435"
           d="M171 0h-156l153 720h156zM489 596q-11 -49 -32.5 -80.5t-49.5 -50.5t-60.5 -29t-65.5 -16l14 68q39 12 61.5 34.5t30.5 60.5h-48l30 137h147z" />
            <glyph glyph-name="Ldot" unicode="&#x13f;" horiz-adv-x="598"
           d="M341 720l-127 -594h350l-26 -126h-518l153 720h168zM380 312l29 133h168l-29 -133h-168z" />
            <glyph glyph-name="ldot" unicode="&#x140;" horiz-adv-x="440"
           d="M171 0h-156l153 720h156zM293 312l29 133h168l-29 -133h-168z" />
            <glyph glyph-name="Lslash" unicode="&#x141;" horiz-adv-x="609"
           d="M352 720l-46 -214l125 66l-30 -142l-125 -66l-51 -238h350l-26 -126h-518l56 264l-69 -36l30 142l69 36l67 314h168z" />
            <glyph glyph-name="lslash" unicode="&#x142;" horiz-adv-x="277"
           d="M280 511l57 31l-31 -144l-56 -31l-78 -367h-156l57 269l-47 -25l31 144l46 25l66 307h156z" />
            <glyph glyph-name="Nacute" unicode="&#x143;" horiz-adv-x="721"
           d="M774 720l-153 -720h-173l-175 521l-109 -521h-144l153 720h186l166 -499l106 499h143zM545 910h174l-179 -137h-126z" />
            <glyph glyph-name="nacute" unicode="&#x144;" horiz-adv-x="601"
           d="M125 520h129l3 -57q37 35 81.5 53.5t88.5 18.5q76 0 117.5 -40t41.5 -111q0 -28 -6 -58l-69 -326h-156l69 324q4 16 4 33q0 35 -19.5 51.5t-50.5 16.5q-42 0 -76 -29t-45 -83l-66 -313h-156zM459 720h174l-179 -137h-126z" />
            <glyph glyph-name="Ncommaaccent" unicode="&#x145;" horiz-adv-x="721"
           d="M774 720l-153 -720h-173l-175 521l-109 -521h-144l153 720h186l166 -499l106 499h143zM355 -185q-11 -49 -32.5 -80.5t-49.5 -50.5t-60 -29t-65 -16l14 68q38 12 60.5 34.5t30.5 60.5h-48l30 137h147z" />
            <glyph glyph-name="ncommaaccent" unicode="&#x146;" horiz-adv-x="601"
           d="M125 520h129l3 -57q37 35 81.5 53.5t88.5 18.5q76 0 117.5 -40t41.5 -111q0 -28 -6 -58l-69 -326h-156l69 324q4 16 4 33q0 35 -19.5 51.5t-50.5 16.5q-42 0 -76 -29t-45 -83l-66 -313h-156zM297 -185q-11 -49 -32.5 -80.5t-49.5 -50.5t-60 -29t-65 -16l14 68
q38 12 60.5 34.5t30.5 60.5h-48l30 137h147z" />
            <glyph glyph-name="Ncaron" unicode="&#x147;" horiz-adv-x="721"
           d="M774 720l-153 -720h-173l-175 521l-109 -521h-144l153 720h186l166 -499l106 499h143zM513 866l59 59h164l-165 -137h-140l-105 137h155z" />
            <glyph glyph-name="ncaron" unicode="&#x148;" horiz-adv-x="601"
           d="M125 520h129l3 -57q37 35 81.5 53.5t88.5 18.5q76 0 117.5 -40t41.5 -111q0 -28 -6 -58l-69 -326h-156l69 324q4 16 4 33q0 35 -19.5 51.5t-50.5 16.5q-42 0 -76 -29t-45 -83l-66 -313h-156zM415 676l59 59h164l-165 -137h-140l-105 137h155z" />
            <glyph glyph-name="napostrophe" unicode="&#x149;" horiz-adv-x="697"
           d="M221 520h129l3 -57q37 35 81.5 53.5t88.5 18.5q76 0 117.5 -40t41.5 -111q0 -28 -6 -58l-69 -326h-156l69 324q4 16 4 33q0 35 -19.5 51.5t-50.5 16.5q-42 0 -76 -29t-45 -83l-66 -313h-156zM238.653 602.207q-10.4502 -46.5508 -30.875 -76.4756
q-20.4258 -29.9258 -47.0254 -47.9756q-26.6006 -18.0508 -57.4766 -27.5508q-30.875 -9.5 -62.2256 -15.2002l13.3008 64.6006q37.0498 11.4004 58.4258 32.7754q21.375 21.376 28.9746 57.4766h-45.6006l28.501 130.151h139.651z" />
            <glyph glyph-name="Eng" unicode="&#x14a;" horiz-adv-x="721"
           d="M774 720l-160 -753q-16 -75 -64 -118.5t-133 -43.5q-11 0 -25.5 1.5t-29 4t-27.5 6t-22 7.5l23 109q16 -6 33.5 -9.5t28.5 -3.5q29 0 48.5 12.5t25.5 41.5l5 26h-29l-175 521l-109 -521h-144l153 720h186l166 -499l106 499h143z" />
            <glyph glyph-name="eng" unicode="&#x14b;" horiz-adv-x="601"
           d="M125 520h129l3 -57q37 35 81.5 53.5t88.5 18.5q76 0 117.5 -40t41.5 -111q0 -28 -6 -58l-76 -360q-16 -75 -64 -118t-133 -43q-11 0 -25.5 1.5t-29 4t-27.5 6t-22 7.5l23 109q16 -6 33.5 -9.5t28.5 -3.5q26 0 40 12.5t21 41.5l75 350q4 16 4 33q0 35 -19.5 51.5
t-50.5 16.5q-42 0 -76 -29t-45 -83l-66 -313h-156z" />
            <glyph glyph-name="Omacron" unicode="&#x14c;" horiz-adv-x="784"
           d="M388 104q63 0 107 34t71.5 85t40.5 110t13 109q0 48 -13 81.5t-34.5 54t-48.5 30t-55 9.5q-43 0 -77 -16t-60 -43t-44 -62t-29.5 -72.5t-17 -75.5t-5.5 -71q0 -48 13.5 -81t35 -53.5t48.5 -29.5t55 -9zM371 -15q-57 0 -112.5 17.5t-98.5 54t-69.5 92.5t-26.5 133
q0 49 9 101.5t29.5 102.5t53 95.5t79 79.5t108 54t139.5 20q57 0 112.5 -18t99 -54.5t70.5 -93t27 -134.5q0 -43 -8 -93t-27 -100t-50 -96.5t-77.5 -82t-110.5 -57t-147 -21.5zM386 798l24 112h270l-24 -112h-270z" />
            <glyph glyph-name="omacron" unicode="&#x14d;" horiz-adv-x="620"
           d="M359 535q56 0 101.5 -15t78 -43t50 -69t17.5 -93q0 -29 -5 -64.5t-18 -72.5t-35.5 -71.5t-58 -61.5t-85 -43.5t-115.5 -16.5q-57 0 -102.5 15t-77.5 43.5t-49 69.5t-17 94q0 31 5 67.5t18 73t35.5 70t57.5 60t84.5 42t115.5 15.5zM350 430q-34 0 -58 -13t-40 -34
t-26 -46.5t-15 -50.5t-6.5 -47t-1.5 -35q0 -59 28 -86.5t70 -27.5q33 0 56.5 13t40 34t26.5 47t15 52t7 49t2 37q0 58 -27.5 83t-70.5 25zM264 608l24 112h270l-24 -112h-270z" />
            <glyph glyph-name="Obreve" unicode="&#x14e;" horiz-adv-x="784"
           d="M388 104q63 0 107 34t71.5 85t40.5 110t13 109q0 48 -13 81.5t-34.5 54t-48.5 30t-55 9.5q-43 0 -77 -16t-60 -43t-44 -62t-29.5 -72.5t-17 -75.5t-5.5 -71q0 -48 13.5 -81t35 -53.5t48.5 -29.5t55 -9zM371 -15q-57 0 -112.5 17.5t-98.5 54t-69.5 92.5t-26.5 133
q0 49 9 101.5t29.5 102.5t53 95.5t79 79.5t108 54t139.5 20q57 0 112.5 -18t99 -54.5t70.5 -93t27 -134.5q0 -43 -8 -93t-27 -100t-50 -96.5t-77.5 -82t-110.5 -57t-147 -21.5zM489 925q-2 -5 -2 -10v-9q0 -30 25 -30q14 0 23 11.5t16 37.5h124q-24 -72 -69.5 -102.5
t-105.5 -30.5q-63 0 -99.5 30.5t-36.5 86.5v7q0 4 1 9h124z" />
            <glyph glyph-name="obreve" unicode="&#x14f;" horiz-adv-x="620"
           d="M359 535q56 0 101.5 -15t78 -43t50 -69t17.5 -93q0 -29 -5 -64.5t-18 -72.5t-35.5 -71.5t-58 -61.5t-85 -43.5t-115.5 -16.5q-57 0 -102.5 15t-77.5 43.5t-49 69.5t-17 94q0 31 5 67.5t18 73t35.5 70t57.5 60t84.5 42t115.5 15.5zM350 430q-34 0 -58 -13t-40 -34
t-26 -46.5t-15 -50.5t-6.5 -47t-1.5 -35q0 -59 28 -86.5t70 -27.5q33 0 56.5 13t40 34t26.5 47t15 52t7 49t2 37q0 58 -27.5 83t-70.5 25zM379 735q-2 -5 -2 -10v-9q0 -30 25 -30q14 0 23 11.5t16 37.5h124q-24 -72 -69.5 -102.5t-105.5 -30.5q-63 0 -99.5 30.5t-36.5 86.5
v7q0 4 1 9h124z" />
            <glyph glyph-name="Ohungarumlaut" unicode="&#x150;" horiz-adv-x="784"
           d="M388 104q63 0 107 34t71.5 85t40.5 110t13 109q0 48 -13 81.5t-34.5 54t-48.5 30t-55 9.5q-43 0 -77 -16t-60 -43t-44 -62t-29.5 -72.5t-17 -75.5t-5.5 -71q0 -48 13.5 -81t35 -53.5t48.5 -29.5t55 -9zM371 -15q-57 0 -112.5 17.5t-98.5 54t-69.5 92.5t-26.5 133
q0 49 9 101.5t29.5 102.5t53 95.5t79 79.5t108 54t139.5 20q57 0 112.5 -18t99 -54.5t70.5 -93t27 -134.5q0 -43 -8 -93t-27 -100t-50 -96.5t-77.5 -82t-110.5 -57t-147 -21.5zM480 925h169l-179 -137h-121zM700 925h169l-179 -137h-121z" />
            <glyph glyph-name="ohungarumlaut" unicode="&#x151;" horiz-adv-x="620"
           d="M359 535q56 0 101.5 -15t78 -43t50 -69t17.5 -93q0 -29 -5 -64.5t-18 -72.5t-35.5 -71.5t-58 -61.5t-85 -43.5t-115.5 -16.5q-57 0 -102.5 15t-77.5 43.5t-49 69.5t-17 94q0 31 5 67.5t18 73t35.5 70t57.5 60t84.5 42t115.5 15.5zM350 430q-34 0 -58 -13t-40 -34
t-26 -46.5t-15 -50.5t-6.5 -47t-1.5 -35q0 -59 28 -86.5t70 -27.5q33 0 56.5 13t40 34t26.5 47t15 52t7 49t2 37q0 58 -27.5 83t-70.5 25zM355 735h169l-179 -137h-121zM575 735h169l-179 -137h-121z" />
            <glyph glyph-name="OE" unicode="&#x152;" horiz-adv-x="943"
           d="M903 305h-269l-39 -184h298l-25 -121h-427q-21 -7 -46.5 -11t-54.5 -4q-57 0 -108 16.5t-88.5 51t-59.5 87.5t-22 127q0 49 9.5 103t30 106t53.5 99t80.5 82.5t110.5 56.5t143 21q28 0 58 -4t53 -11h421l-27 -123h-298l-37 -176h269zM369 104q14 0 28 1.5t28 6.5l106 497
q-11 3 -25.5 5.5t-27.5 2.5q-47 0 -83.5 -17t-63.5 -45t-46 -64t-31 -74.5t-17 -76.5t-5 -69q0 -45 11.5 -77t30.5 -52t43.5 -29t51.5 -9z" />
            <glyph glyph-name="oe" unicode="&#x153;" horiz-adv-x="996"
           d="M952 151q-17 -36 -39 -66.5t-54.5 -52.5t-76 -34.5t-101.5 -12.5q-57 0 -103.5 20t-78.5 55q-39 -35 -91.5 -55t-118.5 -20q-57 0 -102.5 15t-77.5 43.5t-49 69.5t-17 94q0 29 5 64.5t17.5 72t35 71t58 61t84.5 43t116 16.5q60 0 108 -21t80 -56q40 35 91.5 56t112.5 21
q52 0 95 -13.5t73.5 -40.5t47.5 -68.5t17 -96.5q0 -41 -11 -94h-379q-1 -5 -1 -10v-10q0 -54 28 -81t75 -27q37 0 60.5 15.5t36.5 41.5h159zM353 430q-50 0 -79.5 -24.5t-45.5 -59.5t-20.5 -74t-4.5 -68q0 -59 26 -86.5t68 -27.5q27 0 49 7.5t39.5 26.5t31 50t23.5 79
q4 20 6 37t2 32q0 58 -26.5 83t-68.5 25zM741 437q-42 0 -74.5 -28.5t-53.5 -95.5h219q3 18 3 34q0 48 -25.5 69t-68.5 21z" />
            <glyph glyph-name="Racute" unicode="&#x154;" horiz-adv-x="683"
           d="M443 0l-105 263h-95l-55 -263h-168l153 720h255q133 0 202.5 -50t69.5 -138q0 -94 -54 -153.5t-145 -87.5l137 -291h-195zM316 604l-48 -225h109q30 0 56.5 8.5t46.5 25.5t32 43.5t12 61.5q0 43 -30 64.5t-85 21.5h-93zM485 910h174l-179 -137h-126z" />
            <glyph glyph-name="racute" unicode="&#x155;" horiz-adv-x="397"
           d="M15 0l110 520h130v-79q31 46 69.5 70t86.5 24q17 0 32.5 -2t25.5 -5l-31 -145q-14 5 -29.5 7.5t-35.5 2.5q-51 0 -94.5 -43.5t-62.5 -133.5l-45 -216h-156zM363 720h174l-179 -137h-126z" />
            <glyph glyph-name="Rcommaaccent" unicode="&#x156;" horiz-adv-x="683"
           d="M443 0l-105 263h-95l-55 -263h-168l153 720h255q133 0 202.5 -50t69.5 -138q0 -94 -54 -153.5t-145 -87.5l137 -291h-195zM316 604l-48 -225h109q30 0 56.5 8.5t46.5 25.5t32 43.5t12 61.5q0 43 -30 64.5t-85 21.5h-93zM326 -185q-11 -49 -32.5 -80.5t-49.5 -50.5
t-60 -29t-65 -16l14 68q38 12 60.5 34.5t30.5 60.5h-48l30 137h147z" />
            <glyph glyph-name="rcommaaccent" unicode="&#x157;" horiz-adv-x="397"
           d="M15 0l110 520h130v-79q31 46 69.5 70t86.5 24q17 0 32.5 -2t25.5 -5l-31 -145q-14 5 -29.5 7.5t-35.5 2.5q-51 0 -94.5 -43.5t-62.5 -133.5l-45 -216h-156zM125 -185q-11 -49 -32.5 -80.5t-49.5 -50.5t-60 -29t-65 -16l14 68q38 12 60.5 34.5t30.5 60.5h-48l30 137h147z
" />
            <glyph glyph-name="Rcaron" unicode="&#x158;" horiz-adv-x="683"
           d="M443 0l-105 263h-95l-55 -263h-168l153 720h255q133 0 202.5 -50t69.5 -138q0 -94 -54 -153.5t-145 -87.5l137 -291h-195zM316 604l-48 -225h109q30 0 56.5 8.5t46.5 25.5t32 43.5t12 61.5q0 43 -30 64.5t-85 21.5h-93zM444 866l59 59h164l-165 -137h-140l-105 137h155z
" />
            <glyph glyph-name="rcaron" unicode="&#x159;" horiz-adv-x="397"
           d="M15 0l110 520h130v-79q31 46 69.5 70t86.5 24q17 0 32.5 -2t25.5 -5l-31 -145q-14 5 -29.5 7.5t-35.5 2.5q-51 0 -94.5 -43.5t-62.5 -133.5l-45 -216h-156zM319 676l59 59h164l-165 -137h-140l-105 137h155z" />
            <glyph glyph-name="Sacute" unicode="&#x15a;" horiz-adv-x="644"
           d="M312 -15q-68 0 -121 15t-90 43t-56.5 68t-19.5 89v12h159v-6q0 -45 34.5 -74.5t103.5 -29.5q66 0 103 22.5t37 70.5q0 23 -8.5 40t-27.5 30.5t-50 24.5t-76 22q-38 9 -73.5 24.5t-63 39.5t-44 56.5t-16.5 76.5q0 107 72.5 166.5t228.5 59.5q129 0 199.5 -53t70.5 -147
h-157v6q0 38 -34.5 58.5t-86.5 20.5q-61 0 -89 -19t-28 -60q0 -38 32.5 -61.5t98.5 -40.5q44 -11 84.5 -28.5t72 -43t50.5 -61t19 -82.5q0 -53 -17 -96.5t-55.5 -75.5t-100.5 -49.5t-151 -17.5zM445 910h174l-179 -137h-126z" />
            <glyph glyph-name="sacute" unicode="&#x15b;" horiz-adv-x="523"
           d="M252 91q45 0 64 12.5t19 36.5q0 11 -5 20.5t-17.5 18.5t-34 17t-54.5 16q-32 8 -60.5 20t-49.5 30.5t-33.5 44t-12.5 59.5q0 80 54 124.5t180 44.5q51 0 92 -11t70.5 -31.5t45 -50t15.5 -66.5h-157q0 24 -18 38.5t-56 14.5q-36 0 -50.5 -10.5t-14.5 -31.5q0 -18 20 -35.5
t76 -33.5q34 -9 65.5 -21.5t55.5 -30t38.5 -42t14.5 -58.5q0 -86 -58 -133.5t-193 -47.5q-52 0 -95 11.5t-73.5 32t-47 49t-16.5 63.5v6h157q0 -25 21 -40.5t58 -15.5zM356 720h174l-179 -137h-126z" />
            <glyph glyph-name="Scircumflex" unicode="&#x15c;" horiz-adv-x="644"
           d="M312 -15q-68 0 -121 15t-90 43t-56.5 68t-19.5 89v12h159v-6q0 -45 34.5 -74.5t103.5 -29.5q66 0 103 22.5t37 70.5q0 23 -8.5 40t-27.5 30.5t-50 24.5t-76 22q-38 9 -73.5 24.5t-63 39.5t-44 56.5t-16.5 76.5q0 107 72.5 166.5t228.5 59.5q129 0 199.5 -53t70.5 -147
h-157v6q0 38 -34.5 58.5t-86.5 20.5q-61 0 -89 -19t-28 -60q0 -38 32.5 -61.5t98.5 -40.5q44 -11 84.5 -28.5t72 -43t50.5 -61t19 -82.5q0 -53 -17 -96.5t-55.5 -75.5t-100.5 -49.5t-151 -17.5zM367 788h-164l165 137h140l105 -137h-155l-33 59z" />
            <glyph glyph-name="scircumflex" unicode="&#x15d;" horiz-adv-x="523"
           d="M252 91q45 0 64 12.5t19 36.5q0 11 -5 20.5t-17.5 18.5t-34 17t-54.5 16q-32 8 -60.5 20t-49.5 30.5t-33.5 44t-12.5 59.5q0 80 54 124.5t180 44.5q51 0 92 -11t70.5 -31.5t45 -50t15.5 -66.5h-157q0 24 -18 38.5t-56 14.5q-36 0 -50.5 -10.5t-14.5 -31.5q0 -18 20 -35.5
t76 -33.5q34 -9 65.5 -21.5t55.5 -30t38.5 -42t14.5 -58.5q0 -86 -58 -133.5t-193 -47.5q-52 0 -95 11.5t-73.5 32t-47 49t-16.5 63.5v6h157q0 -25 21 -40.5t58 -15.5zM283 598h-164l165 137h140l105 -137h-155l-33 59z" />
            <glyph glyph-name="Scedilla" unicode="&#x15e;" horiz-adv-x="644"
           d="M344 -40q32 -9 49.5 -32t17.5 -54q0 -29 -11.5 -53.5t-31.5 -42t-49 -27t-63 -9.5q-67 0 -106 30.5t-39 81.5v9h100q0 -14 9.5 -27.5t38.5 -13.5q24 0 36 11t12 28q0 18 -18 29t-56 11l27 87q-112 11 -173.5 67t-61.5 145v12h159v-6q0 -45 34.5 -74.5t103.5 -29.5
q66 0 103 22.5t37 70.5q0 23 -8.5 40t-27.5 30.5t-50 24.5t-76 22q-38 9 -73.5 24.5t-63 39.5t-44 56.5t-16.5 76.5q0 107 72.5 166.5t228.5 59.5q129 0 199.5 -53t70.5 -147h-157v6q0 38 -34.5 58.5t-86.5 20.5q-61 0 -89 -19t-28 -60q0 -38 32.5 -61.5t98.5 -40.5
q44 -11 84.5 -28.5t72 -43t50.5 -61t19 -82.5q0 -50 -15.5 -92t-49.5 -73t-88.5 -50t-133.5 -23z" />
            <glyph glyph-name="scedilla" unicode="&#x15f;" horiz-adv-x="523"
           d="M274 -40q32 -9 49.5 -32t17.5 -54q0 -29 -11.5 -53.5t-31.5 -42t-49 -27t-63 -9.5q-67 0 -106 30.5t-39 81.5v9h100q0 -14 9.5 -27.5t38.5 -13.5q24 0 36 11t12 28q0 18 -18 29t-56 11l27 88q-80 11 -127 51.5t-47 100.5v6h157q0 -25 21 -40.5t58 -15.5q45 0 64 12.5
t19 36.5q0 11 -5 20.5t-17.5 18.5t-34 17t-54.5 16q-32 8 -60.5 20t-49.5 30.5t-33.5 44t-12.5 59.5q0 80 54 124.5t180 44.5q51 0 92 -11t70.5 -31.5t45 -50t15.5 -66.5h-157q0 24 -18 38.5t-56 14.5q-36 0 -50.5 -10.5t-14.5 -31.5q0 -18 20 -35.5t76 -33.5
q34 -9 65.5 -21.5t55.5 -30t38.5 -42t14.5 -58.5q0 -81 -51 -128t-169 -52z" />
            <glyph glyph-name="Scaron" unicode="&#x160;" horiz-adv-x="644"
           d="M312 -15q-68 0 -121 15t-90 43t-56.5 68t-19.5 89v12h159v-6q0 -45 34.5 -74.5t103.5 -29.5q66 0 103 22.5t37 70.5q0 23 -8.5 40t-27.5 30.5t-50 24.5t-76 22q-38 9 -73.5 24.5t-63 39.5t-44 56.5t-16.5 76.5q0 107 72.5 166.5t228.5 59.5q129 0 199.5 -53t70.5 -147
h-157v6q0 38 -34.5 58.5t-86.5 20.5q-61 0 -89 -19t-28 -60q0 -38 32.5 -61.5t98.5 -40.5q44 -11 84.5 -28.5t72 -43t50.5 -61t19 -82.5q0 -53 -17 -96.5t-55.5 -75.5t-100.5 -49.5t-151 -17.5zM431 866l59 59h164l-165 -137h-140l-105 137h155z" />
            <glyph glyph-name="scaron" unicode="&#x161;" horiz-adv-x="523"
           d="M252 91q45 0 64 12.5t19 36.5q0 11 -5 20.5t-17.5 18.5t-34 17t-54.5 16q-32 8 -60.5 20t-49.5 30.5t-33.5 44t-12.5 59.5q0 80 54 124.5t180 44.5q51 0 92 -11t70.5 -31.5t45 -50t15.5 -66.5h-157q0 24 -18 38.5t-56 14.5q-36 0 -50.5 -10.5t-14.5 -31.5q0 -18 20 -35.5
t76 -33.5q34 -9 65.5 -21.5t55.5 -30t38.5 -42t14.5 -58.5q0 -86 -58 -133.5t-193 -47.5q-52 0 -95 11.5t-73.5 32t-47 49t-16.5 63.5v6h157q0 -25 21 -40.5t58 -15.5zM331 676l59 59h164l-165 -137h-140l-105 137h155z" />
            <glyph glyph-name="Tcommaaccent" unicode="&#x162;" horiz-adv-x="603"
           d="M684 594h-214l-126 -594h-168l126 594h-211l27 126h593zM293 -185q-11 -49 -32.5 -80.5t-49.5 -50.5t-60 -29t-65 -16l14 68q38 12 60.5 34.5t30.5 60.5h-48l30 137h147z" />
            <glyph glyph-name="tcommaaccent" unicode="&#x163;" horiz-adv-x="368"
           d="M313 3q-22 -8 -46 -13t-48 -5q-68 0 -106 31.5t-38 90.5q0 11 1.5 21.5t3.5 21.5l56 262h-79l23 108h79l37 125h146l-27 -125h107l-23 -108h-107l-58 -272q-1 -4 -1 -11q0 -17 11.5 -25t31.5 -8q9 0 26 4t34 9zM181 -185q-11 -49 -32.5 -80.5t-49.5 -50.5t-60 -29
t-65 -16l14 68q38 12 60.5 34.5t30.5 60.5h-48l30 137h147z" />
            <glyph glyph-name="Tcaron" unicode="&#x164;" horiz-adv-x="603"
           d="M684 594h-214l-126 -594h-168l126 594h-211l27 126h593zM439 866l59 59h164l-165 -137h-140l-105 137h155z" />
            <glyph glyph-name="tcaron" unicode="&#x165;" horiz-adv-x="368"
           d="M528 645q-18 -93 -156 -102l12 55q16 3 29 11.5t16 22.5h-29l20 97h125zM313 3q-22 -8 -46 -13t-48 -5q-68 0 -106 31.5t-38 90.5q0 11 1.5 21.5t3.5 21.5l56 262h-79l23 108h79l37 125h146l-27 -125h107l-23 -108h-107l-58 -272q-1 -4 -1 -11q0 -17 11.5 -25t31.5 -8
q9 0 26 4t34 9z" />
            <glyph glyph-name="Tbar" unicode="&#x166;" horiz-adv-x="603"
           d="M419 354l-75 -354h-168l75 354h-112l23 111h112l28 129h-211l27 126h593l-27 -126h-214l-28 -129h112l-23 -111h-112z" />
            <glyph glyph-name="tbar" unicode="&#x167;" horiz-adv-x="368"
           d="M313 3q-22 -8 -46 -13t-48 -5q-68 0 -106 31.5t-38 90.5q0 11 1.5 21.5t3.5 21.5l26 125h-66l22 105h67l7 32h-79l23 108h79l37 125h146l-27 -125h107l-23 -108h-107l-7 -32h87l-22 -105h-87l-28 -131q-2 -8 -2 -15q0 -17 11.5 -25t31.5 -8q12 0 27.5 4t32.5 9z" />
            <glyph glyph-name="Utilde" unicode="&#x168;" horiz-adv-x="713"
           d="M333 720l-104 -484q-2 -8 -3 -15.5t-1 -15.5q0 -48 33 -74.5t90 -26.5q131 0 156 120l106 496h161l-103 -485q-26 -121 -106.5 -185.5t-226.5 -64.5q-64 0 -115 14t-87 41t-55.5 65.5t-19.5 86.5q0 26 6 55l101 473h168zM545 782q-22 0 -37.5 6t-28.5 13t-26 13t-30 6
t-42 -10.5t-51 -27.5l24 110q25 16 50 24.5t46 8.5q22 0 37.5 -6t28.5 -13t26 -13t30 -6t40 10.5t49 27.5l-24 -110q-25 -16 -48 -24.5t-44 -8.5z" />
            <glyph glyph-name="utilde" unicode="&#x169;" horiz-adv-x="596"
           d="M276 520l-71 -336q-3 -14 -3 -24q0 -32 19.5 -48.5t52.5 -16.5q40 0 72 29.5t43 83.5l66 312h156l-110 -520h-129l-4 55q-34 -33 -75.5 -51.5t-91.5 -18.5q-76 0 -116.5 40t-40.5 111q0 30 7 61l69 323h156zM449 592q-22 0 -37.5 6t-28.5 13t-26 13t-30 6t-42 -10.5
t-51 -27.5l24 110q25 16 50 24.5t46 8.5q22 0 37.5 -6t28.5 -13t26 -13t30 -6t40 10.5t49 27.5l-24 -110q-25 -16 -48 -24.5t-44 -8.5z" />
            <glyph glyph-name="Umacron" unicode="&#x16a;" horiz-adv-x="713"
           d="M333 720l-104 -484q-2 -8 -3 -15.5t-1 -15.5q0 -48 33 -74.5t90 -26.5q131 0 156 120l106 496h161l-103 -485q-26 -121 -106.5 -185.5t-226.5 -64.5q-64 0 -115 14t-87 41t-55.5 65.5t-19.5 86.5q0 26 6 55l101 473h168zM349 798l24 112h270l-24 -112h-270z" />
            <glyph glyph-name="umacron" unicode="&#x16b;" horiz-adv-x="596"
           d="M276 520l-71 -336q-3 -14 -3 -24q0 -32 19.5 -48.5t52.5 -16.5q40 0 72 29.5t43 83.5l66 312h156l-110 -520h-129l-4 55q-34 -33 -75.5 -51.5t-91.5 -18.5q-76 0 -116.5 40t-40.5 111q0 30 7 61l69 323h156zM251 608l24 112h270l-24 -112h-270z" />
            <glyph glyph-name="Ubreve" unicode="&#x16c;" horiz-adv-x="713"
           d="M333 720l-104 -484q-2 -8 -3 -15.5t-1 -15.5q0 -48 33 -74.5t90 -26.5q131 0 156 120l106 496h161l-103 -485q-26 -121 -106.5 -185.5t-226.5 -64.5q-64 0 -115 14t-87 41t-55.5 65.5t-19.5 86.5q0 26 6 55l101 473h168zM480 925q-2 -5 -2 -10v-9q0 -30 25 -30
q14 0 23 11.5t16 37.5h124q-24 -72 -69.5 -102.5t-105.5 -30.5q-63 0 -99.5 30.5t-36.5 86.5v7q0 4 1 9h124z" />
            <glyph glyph-name="ubreve" unicode="&#x16d;" horiz-adv-x="596"
           d="M276 520l-71 -336q-3 -14 -3 -24q0 -32 19.5 -48.5t52.5 -16.5q40 0 72 29.5t43 83.5l66 312h156l-110 -520h-129l-4 55q-34 -33 -75.5 -51.5t-91.5 -18.5q-76 0 -116.5 40t-40.5 111q0 30 7 61l69 323h156zM375 735q-2 -5 -2 -10v-9q0 -30 25 -30q14 0 23 11.5t16 37.5
h124q-24 -72 -69.5 -102.5t-105.5 -30.5q-63 0 -99.5 30.5t-36.5 86.5v7q0 4 1 9h124z" />
            <glyph glyph-name="Uring" unicode="&#x16e;" horiz-adv-x="713"
           d="M333 720l-104 -484q-2 -8 -3 -15.5t-1 -15.5q0 -48 33 -74.5t90 -26.5q131 0 156 120l106 496h161l-103 -485q-26 -121 -106.5 -185.5t-226.5 -64.5q-64 0 -115 14t-87 41t-55.5 65.5t-19.5 86.5q0 26 6 55l101 473h168zM488 809q18 0 32.5 15t14.5 46q0 20 -10 30.5
t-26 10.5q-20 0 -33.5 -17t-13.5 -44q0 -20 10 -30.5t26 -10.5zM480 737q-63 0 -94.5 31.5t-31.5 77.5q0 27 10.5 52t30.5 44t48 30t64 11q63 0 95 -32t32 -77q0 -28 -10.5 -53t-30.5 -43.5t-48.5 -29.5t-64.5 -11z" />
            <glyph glyph-name="uring" unicode="&#x16f;" horiz-adv-x="596"
           d="M276 520l-71 -336q-3 -14 -3 -24q0 -32 19.5 -48.5t52.5 -16.5q40 0 72 29.5t43 83.5l66 312h156l-110 -520h-129l-4 55q-34 -33 -75.5 -51.5t-91.5 -18.5q-76 0 -116.5 40t-40.5 111q0 30 7 61l69 323h156zM394 649q18 0 32.5 15t14.5 46q0 20 -10 30.5t-26 10.5
q-20 0 -33.5 -17t-13.5 -44q0 -20 10 -30.5t26 -10.5zM386 577q-63 0 -94.5 31.5t-31.5 77.5q0 27 10.5 52t30.5 44t48 30t64 11q63 0 95 -32t32 -77q0 -28 -10.5 -53t-30.5 -43.5t-48.5 -29.5t-64.5 -11z" />
            <glyph glyph-name="Uhungarumlaut" unicode="&#x170;" horiz-adv-x="713"
           d="M333 720l-104 -484q-2 -8 -3 -15.5t-1 -15.5q0 -48 33 -74.5t90 -26.5q131 0 156 120l106 496h161l-103 -485q-26 -121 -106.5 -185.5t-226.5 -64.5q-64 0 -115 14t-87 41t-55.5 65.5t-19.5 86.5q0 26 6 55l101 473h168zM428 925h169l-179 -137h-121zM648 925h169
l-179 -137h-121z" />
            <glyph glyph-name="uhungarumlaut" unicode="&#x171;" horiz-adv-x="596"
           d="M276 520l-71 -336q-3 -14 -3 -24q0 -32 19.5 -48.5t52.5 -16.5q40 0 72 29.5t43 83.5l66 312h156l-110 -520h-129l-4 55q-34 -33 -75.5 -51.5t-91.5 -18.5q-76 0 -116.5 40t-40.5 111q0 30 7 61l69 323h156zM329 735h169l-179 -137h-121zM549 735h169l-179 -137h-121z
" />
            <glyph glyph-name="Uogonek" unicode="&#x172;" horiz-adv-x="713"
           d="M532 -137q-23 -48 -64.5 -79t-109.5 -31q-54 0 -88 29t-34 74q0 43 27 74.5t70 54.5q-63 0 -114 14.5t-87 41t-55 65t-19 86.5q0 26 6 55l101 473h168l-104 -484q-2 -8 -3 -15.5t-1 -15.5q0 -48 33 -74.5t90 -26.5q131 0 156 120l106 496h161l-103 -485q-17 -78 -58 -134
t-116 -89q-23 -10 -48.5 -22.5t-46.5 -28t-35 -35t-14 -43.5q0 -19 11 -30.5t28 -11.5q25 0 36 22h107z" />
            <glyph glyph-name="uogonek" unicode="&#x173;" horiz-adv-x="596"
           d="M523 -137q-23 -48 -64.5 -79t-109.5 -31q-54 0 -88 29t-34 74q0 27 11 49t30.5 41t45.5 33.5t57 26.5l-3 49q-34 -33 -75.5 -51.5t-91.5 -18.5q-76 0 -116.5 40t-40.5 111q0 30 7 61l69 323h156l-71 -336q-3 -14 -3 -24q0 -32 19.5 -48.5t52.5 -16.5q40 0 72 29.5
t43 83.5l66 312h156l-110 -520h-44q-21 -9 -42 -21t-37.5 -26t-26.5 -31.5t-10 -38.5q0 -19 11 -30.5t28 -11.5q25 0 36 22h107z" />
            <glyph glyph-name="Wcircumflex" unicode="&#x174;" horiz-adv-x="985"
           d="M1098 720l-314 -720h-198l-16 556l-246 -556h-191l-20 720h164v-532l235 532h187l17 -535l218 535h164zM577 788h-164l165 137h140l105 -137h-155l-33 59z" />
            <glyph glyph-name="wcircumflex" unicode="&#x175;" horiz-adv-x="860"
           d="M920 520l-253 -520h-195v380l-173 -380h-189l-30 520h155v-391l175 391h186l-1 -393l173 393h152zM477 598h-164l165 137h140l105 -137h-155l-33 59z" />
            <glyph glyph-name="Ycircumflex" unicode="&#x176;" horiz-adv-x="668"
           d="M215 0l61 287l-163 433h173l95 -293l233 293h167l-347 -433l-61 -287h-158zM423 788h-164l165 137h140l105 -137h-155l-33 59z" />
            <glyph glyph-name="ycircumflex" unicode="&#x177;" horiz-adv-x="571"
           d="M636 520l-304 -541q-29 -51 -53 -84.5t-49 -53.5t-53 -28t-64 -8q-20 0 -46 4t-46 11l24 109q23 -8 37.5 -10.5t28.5 -2.5q26 0 47 19.5t38 64.5h-44l-77 520h161l29 -406l210 406h161zM329 598h-164l165 137h140l105 -137h-155l-33 59z" />
            <glyph glyph-name="Ydieresis" unicode="&#x178;" horiz-adv-x="668"
           d="M215 0l61 287l-163 433h173l95 -293l233 293h167l-347 -433l-61 -287h-158zM274 782l28 128h148l-28 -128h-148zM504 782l28 128h148l-28 -128h-148z" />
            <glyph glyph-name="Zacute" unicode="&#x179;" horiz-adv-x="620"
           d="M205 119h369l-25 -119h-564l25 121l476 480h-355l26 119h551l-26 -118zM492 910h174l-179 -137h-126z" />
            <glyph glyph-name="zacute" unicode="&#x17a;" horiz-adv-x="507"
           d="M206 115h255l-24 -115h-457l25 121l329 284h-250l24 115h449l-26 -121zM407 720h174l-179 -137h-126z" />
            <glyph glyph-name="Zdotaccent" unicode="&#x17b;" horiz-adv-x="620"
           d="M205 119h369l-25 -119h-564l25 121l476 480h-355l26 119h551l-26 -118zM354 777l29 133h168l-29 -133h-168z" />
            <glyph glyph-name="zdotaccent" unicode="&#x17c;" horiz-adv-x="507"
           d="M206 115h255l-24 -115h-457l25 121l329 284h-250l24 115h449l-26 -121zM260 587l29 133h168l-29 -133h-168z" />
            <glyph glyph-name="Zcaron" unicode="&#x17d;" horiz-adv-x="620"
           d="M205 119h369l-25 -119h-564l25 121l476 480h-355l26 119h551l-26 -118zM454 866l59 59h164l-165 -137h-140l-105 137h155z" />
            <glyph glyph-name="zcaron" unicode="&#x17e;" horiz-adv-x="507"
           d="M206 115h255l-24 -115h-457l25 121l329 284h-250l24 115h449l-26 -121zM368 676l59 59h164l-165 -137h-140l-105 137h155z" />
            <glyph glyph-name="longs" unicode="&#x17f;" horiz-adv-x="380"
           d="M54 0l87 412h-79l23 108h79l8 38q10 48 26.5 81.5t42 55t61 31t83.5 9.5q38 0 66 -6t51 -14l-23 -111q-48 17 -79 17q-33 0 -48.5 -12.5t-22.5 -44.5l-119 -564h-156z" />
            <glyph glyph-name="florin" unicode="&#x192;" horiz-adv-x="376"
           d="M475 584q-48 17 -79 17q-33 0 -49 -12.5t-22 -44.5l-9 -44h114l-23 -108h-114l-121 -572h-156l121 572h-79l23 108h79l8 38q10 48 26.5 81.5t42 55t61 31t83.5 9.5q38 0 66 -6t51 -14z" />
            <glyph glyph-name="Aringacute" unicode="&#x1fa;" horiz-adv-x="727"
           d="M558 825h-109l117 132h160zM493 808q62 0 92 -30t30 -70q0 -29 -15 -55t-48 -46l137 -610h-171l-25 167h-260l-96 -167h-179l398 615q-14 12 -21.5 30t-7.5 36q0 19 8.5 42t28 42.5t51 32.5t78.5 13zM480 736q-15 0 -25.5 -6t-16.5 -14.5t-8.5 -18.5t-2.5 -18
q0 -15 9 -24t26 -9q26 0 39.5 19.5t13.5 39.5q0 31 -35 31zM299 280h178l-37 240z" />
            <glyph glyph-name="aringacute" unicode="&#x1fb;" horiz-adv-x="580"
           d="M83 370q35 78 103 121.5t173 43.5q48 0 86 -11.5t64.5 -32.5t41 -50.5t14.5 -65.5q0 -22 -4 -41l-71 -334h-122l-8 54q-32 -29 -78.5 -49t-108.5 -20q-69 0 -110 34.5t-41 97.5q0 39 13 70t41.5 55.5t75 41.5t113.5 28l139 22l2 9q3 13 3.5 19t0.5 11q0 29 -19 45t-53 16
q-38 0 -61 -17.5t-34 -46.5h-160zM241 92q53 0 89 29.5t44 70.5l12 57l-99 -19q-63 -12 -84.5 -33t-21.5 -54q0 -23 15.5 -37t44.5 -14zM369 614.116q18 0 32.5 13.5t14.5 41.4014q0 18 -10 27.4502t-26 9.4502q-20 0 -33.5 -15.2998q-13.5 -15.3008 -13.5 -39.6016
q0 -18 10 -27.4502t26 -9.4502zM361 549.314q-63 0 -94.5 28.3506t-31.5 69.752q0 24.3008 10.5 46.8008q10.5 22.501 30.5 39.6016t48 27.001q28 9.89941 64 9.89941q63 0 95 -28.8008t32 -69.3018q0 -25.2002 -10.5 -47.7012q-10.5 -22.5 -30.5 -39.1514
q-20 -16.6504 -48.5 -26.5498q-28.5 -9.90039 -64.5 -9.90039zM460 908.018h174l-179 -123.304h-126z" />
            <glyph glyph-name="AEacute" unicode="&#x1fc;" horiz-adv-x="961"
           d="M248 165l-113 -165h-175l501 720h578l-27 -123h-288l-37 -176h259l-25 -116h-259l-39 -184h288l-25 -121h-456l35 165h-217zM323 275h165l73 346zM789 910h174l-179 -137h-126z" />
            <glyph glyph-name="aeacute" unicode="&#x1fd;" horiz-adv-x="943"
           d="M899 151q-17 -36 -39 -66.5t-54.5 -52.5t-76 -34.5t-101.5 -12.5q-75 0 -131.5 30t-85.5 84q-48 -60 -99 -87t-120 -27q-83 0 -126.5 34.5t-43.5 96.5q0 39 13 70.5t42 56t75.5 41.5t113.5 28l139 22l4 19q1 5 1.5 10t0.5 10q0 29 -19 45t-53 16q-38 0 -61 -17.5
t-34 -46.5h-160q35 78 103 121.5t173 43.5q52 0 92.5 -13.5t67.5 -38.5q36 25 80 38.5t98 13.5q52 0 95 -13.5t73.5 -40.5t47.5 -68.5t17 -96.5q0 -41 -11 -94h-379q-1 -5 -1 -10v-10q0 -54 28 -81t75 -27q37 0 60.5 15.5t36.5 41.5h159zM688 437q-42 0 -74.5 -28.5
t-53.5 -95.5h219q3 18 3 34q0 48 -25.5 69t-68.5 21zM242 92q53 0 89 29.5t44 70.5l12 57l-99 -19q-63 -12 -84.5 -33t-21.5 -54q0 -23 15.5 -37t44.5 -14zM610 720h174l-179 -137h-126z" />
            <glyph glyph-name="Oslashacute" unicode="&#x1fe;" horiz-adv-x="784"
           d="M371 -15q-25 0 -50 3t-48 10l-61 -108h-119l85 152q-51 35 -82.5 94.5t-31.5 145.5q0 49 9 101.5t29.5 102.5t53 95.5t79 79.5t108 54t139.5 20q51 0 101 -15l59 100h119l-85 -144q51 -37 83 -96.5t32 -144.5q0 -43 -8 -93t-27 -100t-50 -96.5t-77.5 -82t-110.5 -57
t-147 -21.5zM236 277q0 -39 8.5 -68t23.5 -49l256 447q-26 10 -55 10q-43 0 -77 -16t-60 -43t-44 -62t-29.5 -72.5t-17 -75.5t-5.5 -71zM388 104q63 0 107 34t71.5 85t40.5 110t13 109q0 39 -8.5 68t-23.5 50l-256 -447q27 -9 56 -9zM530 910h174l-179 -137h-126z" />
            <glyph glyph-name="oslashacute" unicode="&#x1ff;" horiz-adv-x="620"
           d="M359 535q47 0 89 -11l71 106h119l-102 -152q34 -28 52 -69t18 -94q0 -29 -5 -64.5t-18 -72.5t-35.5 -71.5t-58 -61.5t-85 -43.5t-115.5 -16.5q-46 0 -87 11v-1l-70 -105h-121l101 150q-33 29 -51 71t-18 96q0 31 5 67.5t18 73t35.5 70t57.5 60t84.5 42t115.5 15.5z
M350 430q-34 0 -58 -13t-40 -34t-26 -46.5t-15 -50.5t-6.5 -47t-1.5 -35q0 -33 9 -55l181 273q-21 8 -43 8zM448 322q0 14 -2 26t-5 22l-181 -273q17 -7 41 -7q33 0 56.5 13t40 34t26.5 47t15 52t7 49t2 37zM414 720h174l-179 -137h-126z" />
            <glyph glyph-name="Scommaaccent" unicode="&#x218;" horiz-adv-x="644"
           d="M312 -15q-68 0 -121 15t-90 43t-56.5 68t-19.5 89v12h159v-6q0 -45 34.5 -74.5t103.5 -29.5q66 0 103 22.5t37 70.5q0 23 -8.5 40t-27.5 30.5t-50 24.5t-76 22q-38 9 -73.5 24.5t-63 39.5t-44 56.5t-16.5 76.5q0 107 72.5 166.5t228.5 59.5q129 0 199.5 -53t70.5 -147
h-157v6q0 38 -34.5 58.5t-86.5 20.5q-61 0 -89 -19t-28 -60q0 -38 32.5 -61.5t98.5 -40.5q44 -11 84.5 -28.5t72 -43t50.5 -61t19 -82.5q0 -53 -17 -96.5t-55.5 -75.5t-100.5 -49.5t-151 -17.5zM361 -185q-11 -49 -32.5 -80.5t-49.5 -50.5t-60 -29t-65 -16l14 68
q38 12 60.5 34.5t30.5 60.5h-48l30 137h147z" />
            <glyph glyph-name="scommaaccent" unicode="&#x219;" horiz-adv-x="523"
           d="M252 91q45 0 64 12.5t19 36.5q0 11 -5 20.5t-17.5 18.5t-34 17t-54.5 16q-32 8 -60.5 20t-49.5 30.5t-33.5 44t-12.5 59.5q0 80 54 124.5t180 44.5q51 0 92 -11t70.5 -31.5t45 -50t15.5 -66.5h-157q0 24 -18 38.5t-56 14.5q-36 0 -50.5 -10.5t-14.5 -31.5q0 -18 20 -35.5
t76 -33.5q34 -9 65.5 -21.5t55.5 -30t38.5 -42t14.5 -58.5q0 -86 -58 -133.5t-193 -47.5q-52 0 -95 11.5t-73.5 32t-47 49t-16.5 63.5v6h157q0 -25 21 -40.5t58 -15.5zM280 -185q-11 -49 -32.5 -80.5t-49.5 -50.5t-60 -29t-65 -16l14 68q38 12 60.5 34.5t30.5 60.5h-48
l30 137h147z" />
            <glyph glyph-name="uni021A" unicode="&#x21a;" horiz-adv-x="603"
           d="M684 594h-214l-126 -594h-168l126 594h-211l27 126h593zM293 -185q-11 -49 -32.5 -80.5t-49.5 -50.5t-60 -29t-65 -16l14 68q38 12 60.5 34.5t30.5 60.5h-48l30 137h147z" />
            <glyph glyph-name="uni021B" unicode="&#x21b;" horiz-adv-x="368"
           d="M313 3q-22 -8 -46 -13t-48 -5q-68 0 -106 31.5t-38 90.5q0 11 1.5 21.5t3.5 21.5l56 262h-79l23 108h79l37 125h146l-27 -125h107l-23 -108h-107l-58 -272q-1 -4 -1 -11q0 -17 11.5 -25t31.5 -8q9 0 26 4t34 9zM181 -185q-11 -49 -32.5 -80.5t-49.5 -50.5t-60 -29
t-65 -16l14 68q38 12 60.5 34.5t30.5 60.5h-48l30 137h147z" />
            <glyph glyph-name="dotlessj" unicode="&#x237;" horiz-adv-x="277"
           d="M-109 -67q16 -6 33.5 -9.5t28.5 -3.5q26 0 40.5 12.5t20.5 41.5l116 546h156l-118 -554q-16 -75 -63.5 -118t-132.5 -43q-11 0 -25.5 1.5t-29 4t-27.5 6t-22 7.5z" />
            <glyph glyph-name="circumflex" unicode="&#x2c6;" horiz-adv-x="470"
           d="M280 598h-164l165 137h140l105 -137h-155l-33 59z" />
            <glyph glyph-name="caron" unicode="&#x2c7;" horiz-adv-x="470"
           d="M333 676l59 59h164l-165 -137h-140l-105 137h155z" />
            <glyph glyph-name="uni02C9" unicode="&#x2c9;" horiz-adv-x="330"
           d="M120 612l23 108h270l-23 -108h-270z" />
            <glyph glyph-name="breve" unicode="&#x2d8;" horiz-adv-x="370"
           d="M270 735q-2 -5 -2 -10v-9q0 -30 25 -30q14 0 23 11.5t16 37.5h124q-24 -72 -69.5 -102.5t-105.5 -30.5q-63 0 -99.5 30.5t-36.5 86.5v7q0 4 1 9h124z" />
            <glyph glyph-name="dotaccent" unicode="&#x2d9;" horiz-adv-x="228"
           d="M114 587l29 133h168l-29 -133h-168z" />
            <glyph glyph-name="ring" unicode="&#x2da;" horiz-adv-x="320"
           d="M262 649q18 0 32.5 15t14.5 46q0 20 -10 30.5t-26 10.5q-20 0 -33.5 -17t-13.5 -44q0 -20 10 -30.5t26 -10.5zM254 577q-63 0 -94.5 31.5t-31.5 77.5q0 27 10.5 52t30.5 44t48 30t64 11q63 0 95 -32t32 -77q0 -28 -10.5 -53t-30.5 -43.5t-48.5 -29.5t-64.5 -11z" />
            <glyph glyph-name="ogonek" unicode="&#x2db;" horiz-adv-x="355"
           d="M255 -137q-23 -48 -64.5 -79t-109.5 -31q-54 0 -88 29t-34 74q0 31 14.5 56t39.5 45t58 35.5t71 27.5h95q-23 -9 -51.5 -21.5t-53.5 -29t-42 -38t-17 -48.5q0 -19 11 -30.5t28 -11.5q25 0 36 22h107z" />
            <glyph glyph-name="tilde" unicode="&#x2dc;" horiz-adv-x="360"
           d="M330 592q-22 0 -37.5 6t-28.5 13t-26 13t-30 6t-42 -10.5t-51 -27.5l24 110q25 16 50 24.5t46 8.5q22 0 37.5 -6t28.5 -13t26 -13t30 -6t40 10.5t49 27.5l-24 -110q-25 -16 -48 -24.5t-44 -8.5z" />
            <glyph glyph-name="hungarumlaut" unicode="&#x2dd;" horiz-adv-x="550"
           d="M247 735h169l-179 -137h-121zM467 735h169l-179 -137h-121z" />
            <glyph glyph-name="uni0312" unicode="&#x312;" horiz-adv-x="231"
           d="M137 693q10 49 31.5 80.5t50 50.5t61 29t65.5 16l-14 -68q-39 -12 -61.5 -34.5t-30.5 -60.5h48l-30 -137h-147z" />
            <glyph glyph-name="dotbelowcomb" unicode="&#x323;" horiz-adv-x="228"
           d="M-48 -180l28 133h168l-29 -133h-167z" />
            <glyph glyph-name="uni037E" unicode="&#x37e;" horiz-adv-x="289"
           d="M93 363l33 157h177l-33 -157h-177zM195 10q-12 -58 -38.5 -94t-60 -57t-70 -30t-68.5 -12l15 78q40 8 68 34t38 71h-63l33 157h177z" />
            <glyph glyph-name="tonos" unicode="&#x384;" horiz-adv-x="251"
           d="M165 720h169l-102 -147h-121z" />
            <glyph glyph-name="dieresistonos" unicode="&#x385;" horiz-adv-x="508"
           d="M115 592l28 128h148l-28 -128h-148zM415 592l28 128h148l-28 -128h-148zM364 883h169l-101 -147h-121z" />
            <glyph glyph-name="Alphatonos" unicode="&#x386;" horiz-adv-x="701"
           d="M489 0l-16 165h-256l-86 -165h-171l409 720h187l105 -720h-172zM274 275h189l-29 307zM151 720h169l-102 -147h-121z" />
            <glyph glyph-name="anoteleia" unicode="&#x387;" horiz-adv-x="270"
           d="M68 248l30 142h158l-30 -142h-158z" />
            <glyph glyph-name="Epsilontonos" unicode="&#x388;" horiz-adv-x="581"
           d="M541 305h-289l-39 -184h318l-25 -121h-486l153 720h486l-27 -123h-318l-37 -176h289zM-25 720h169l-102 -147h-121z" />
            <glyph glyph-name="Etatonos" unicode="&#x389;" horiz-adv-x="723"
           d="M776 720l-153 -720h-167l64 304h-268l-64 -304h-168l153 720h168l-63 -296h268l63 296h167zM-26 720h169l-102 -147h-121z" />
            <glyph glyph-name="Iotatonos" unicode="&#x38a;" horiz-adv-x="288"
           d="M341 720l-153 -720h-168l153 720h168zM-26 720h169l-102 -147h-121z" />
            <glyph glyph-name="Omicrontonos" unicode="&#x38c;" horiz-adv-x="827"
           d="M97 720h169l-102 -147h-121zM431 104q63 0 107 34t71.5 85t40.5 110t13 109q0 48 -13 81.5t-34.5 54t-48.5 30t-55 9.5q-43 0 -77 -16t-60 -43t-44 -62t-29.5 -72.5t-17 -75.5t-5.5 -71q0 -48 13.5 -81t35 -53.5t48.5 -29.5t55 -9zM414 -15q-57 0 -112.5 17.5t-98.5 54
t-69.5 92.5t-26.5 133q0 49 9 101.5t29.5 102.5t53 95.5t79 79.5t108 54t139.5 20q57 0 112.5 -18t99 -54.5t70.5 -93t27 -134.5q0 -43 -8 -93t-27 -100t-50 -96.5t-77.5 -82t-110.5 -57t-147 -21.5z" />
            <glyph glyph-name="Upsilontonos" unicode="&#x38e;" horiz-adv-x="668"
           d="M215 0l61 287l-163 433h173l95 -293l233 293h167l-347 -433l-61 -287h-158zM-75 720h169l-102 -147h-121z" />
            <glyph glyph-name="Omegatonos" unicode="&#x38f;" horiz-adv-x="827"
           d="M484 121q30 1 55 17.5t45 43t34.5 60t24 68.5t14.5 69t5 61q0 48 -12.5 81.5t-32.5 54.5t-46 31t-54 10q-70 0 -116.5 -37.5t-74.5 -92.5t-40 -116.5t-12 -109.5q0 -39 8 -65.5t20 -43t27 -24t29 -7.5l-25 -121h-260l25 121h85q-28 34 -49.5 85t-21.5 108q0 29 6 71.5
t22.5 89t46 93.5t75.5 84t111 60t153 23q60 0 115.5 -17t98 -52.5t68.5 -90.5t26 -130q0 -59 -12 -106t-33 -86t-49.5 -71t-60.5 -61h62l-25 -121h-261l25 121h4zM95 720h169l-102 -147h-121z" />
            <glyph glyph-name="iotadieresistonos" unicode="&#x390;" horiz-adv-x="286"
           d="M25 0l110 520h156l-110 -520h-156zM5 592l28 128h148l-28 -128h-148zM305 592l28 128h148l-28 -128h-148zM254 883h169l-101 -147h-121z" />
            <glyph glyph-name="Alpha" unicode="&#x391;" horiz-adv-x="701"
           d="M489 0l-16 165h-256l-86 -165h-171l409 720h187l105 -720h-172zM274 275h189l-29 307z" />
            <glyph glyph-name="Beta" unicode="&#x392;" horiz-adv-x="647"
           d="M403 720q135 0 199 -40t64 -115q0 -40 -14.5 -71t-39.5 -54t-57 -38t-67 -21q60 -13 98.5 -52.5t38.5 -97.5q0 -54 -18.5 -96.5t-58.5 -72.5t-103 -46t-152 -16h-273l153 720h230zM256 324l-45 -214h103q69 0 104.5 32.5t35.5 95.5q0 41 -26.5 63.5t-74.5 22.5h-97z
M317 610l-39 -182h92q58 0 91 29.5t33 78.5q0 35 -27 54.5t-71 19.5h-79z" />
            <glyph glyph-name="Gamma" unicode="&#x393;" horiz-adv-x="507"
           d="M588 594h-274l-126 -594h-168l153 720h442z" />
            <glyph glyph-name="uni0394" unicode="&#x394;" horiz-adv-x="701"
           d="M-79 0l409 720h187l105 -720h-701zM150 110h290l-44 472z" />
            <glyph glyph-name="Epsilon" unicode="&#x395;" horiz-adv-x="581"
           d="M541 305h-289l-39 -184h318l-25 -121h-486l153 720h486l-27 -123h-318l-37 -176h289z" />
            <glyph glyph-name="Zeta" unicode="&#x396;" horiz-adv-x="620"
           d="M205 119h369l-25 -119h-564l25 121l476 480h-355l26 119h551l-26 -118z" />
            <glyph glyph-name="Eta" unicode="&#x397;" horiz-adv-x="723"
           d="M776 720l-153 -720h-167l64 304h-268l-64 -304h-168l153 720h168l-63 -296h268l63 296h167z" />
            <glyph glyph-name="Theta" unicode="&#x398;" horiz-adv-x="784"
           d="M536 305h-241l25 116h241zM388 104q63 0 107 34t71.5 85t40.5 110t13 109q0 48 -13 81.5t-34.5 54t-48.5 30t-55 9.5q-43 0 -77 -16t-60 -43t-44 -62t-29.5 -72.5t-17 -75.5t-5.5 -71q0 -48 13.5 -81t35 -53.5t48.5 -29.5t55 -9zM371 -15q-57 0 -112.5 17.5t-98.5 54
t-69.5 92.5t-26.5 133q0 49 9 101.5t29.5 102.5t53 95.5t79 79.5t108 54t139.5 20q57 0 112.5 -18t99 -54.5t70.5 -93t27 -134.5q0 -43 -8 -93t-27 -100t-50 -96.5t-77.5 -82t-110.5 -57t-147 -21.5z" />
            <glyph glyph-name="Iota" unicode="&#x399;" horiz-adv-x="288"
           d="M341 720l-153 -720h-168l153 720h168z" />
            <glyph glyph-name="Kappa" unicode="&#x39a;" horiz-adv-x="716"
           d="M469 0l-214 321l-67 -321h-168l153 720h168l-65 -302l311 302h204l-375 -352l260 -368h-207z" />
            <glyph glyph-name="Lambda" unicode="&#x39b;" horiz-adv-x="693"
           d="M480 0l-50 582l-298 -582h-172l404 720h187l100 -720h-171z" />
            <glyph glyph-name="Mu" unicode="&#x39c;" horiz-adv-x="893"
           d="M335 0l-68 495l-105 -495h-142l153 720h188l75 -562l309 562h201l-153 -720h-152l105 496l-274 -496h-137z" />
            <glyph glyph-name="Nu" unicode="&#x39d;" horiz-adv-x="721"
           d="M774 720l-153 -720h-173l-175 521l-109 -521h-144l153 720h186l166 -499l106 499h143z" />
            <glyph glyph-name="Xi" unicode="&#x39e;" horiz-adv-x="580"
           d="M505 0h-510l26 126h510zM631 595h-510l27 125h510zM494 302h-360l26 122h360z" />
            <glyph glyph-name="Omicron" unicode="&#x39f;" horiz-adv-x="784"
           d="M388 104q63 0 107 34t71.5 85t40.5 110t13 109q0 48 -13 81.5t-34.5 54t-48.5 30t-55 9.5q-43 0 -77 -16t-60 -43t-44 -62t-29.5 -72.5t-17 -75.5t-5.5 -71q0 -48 13.5 -81t35 -53.5t48.5 -29.5t55 -9zM371 -15q-57 0 -112.5 17.5t-98.5 54t-69.5 92.5t-26.5 133
q0 49 9 101.5t29.5 102.5t53 95.5t79 79.5t108 54t139.5 20q57 0 112.5 -18t99 -54.5t70.5 -93t27 -134.5q0 -43 -8 -93t-27 -100t-50 -96.5t-77.5 -82t-110.5 -57t-147 -21.5z" />
            <glyph glyph-name="Pi" unicode="&#x3a0;" horiz-adv-x="723"
           d="M776 720l-153 -720h-167l127 600h-268l-127 -600h-168l153 720h603z" />
            <glyph glyph-name="Rho" unicode="&#x3a1;" horiz-adv-x="666"
           d="M424 720q141 0 207.5 -54.5t66.5 -147.5q0 -139 -90 -208t-256 -69h-113l-51 -241h-168l153 720h251zM316 605l-53 -249h107q70 0 112 42t42 111q0 50 -32 73t-91 23h-85z" />
            <glyph glyph-name="Sigma" unicode="&#x3a3;" horiz-adv-x="614"
           d="M440 325l-216 -206h335l-25 -119h-544l25 118l271 248l-168 239l25 115h531l-26 -119h-331l139 -205z" />
            <glyph glyph-name="Tau" unicode="&#x3a4;" horiz-adv-x="603"
           d="M684 594h-214l-126 -594h-168l126 594h-211l27 126h593z" />
            <glyph glyph-name="Upsilon" unicode="&#x3a5;" horiz-adv-x="668"
           d="M215 0l61 287l-163 433h173l95 -293l233 293h167l-347 -433l-61 -287h-158z" />
            <glyph glyph-name="Phi" unicode="&#x3a6;" horiz-adv-x="938"
           d="M669 735l-9 -40q56 -1 107.5 -18t91 -50t63 -83t23.5 -117q0 -78 -26 -151t-79.5 -128.5t-133.5 -89t-188 -33.5l-9 -40h-168l9 40q-56 1 -107.5 18t-90.5 51t-62 84.5t-23 118.5q0 67 21.5 137.5t71 128.5t131 95t201.5 37l9 40h168zM773 424q0 40 -11.5 68.5t-30.5 47
t-44 27.5t-52 10l-92 -433q66 0 110.5 29.5t71 72.5t37.5 91.5t11 86.5zM467 577q-65 0 -109 -29t-70.5 -71t-38 -90.5t-11.5 -87.5q0 -40 11 -69t29.5 -47.5t43.5 -28t53 -10.5z" />
            <glyph glyph-name="Chi" unicode="&#x3a7;" horiz-adv-x="701"
           d="M485 377l171 -377h-184l-109 247l-200 -247h-198l328 376l-159 344h183l97 -222l187 222h188z" />
            <glyph glyph-name="Psi" unicode="&#x3a8;" horiz-adv-x="785"
           d="M323 720l-68 -316q-3 -15 -3 -28q0 -35 21 -59t63 -35l93 438h160l-94 -441q57 11 88 39t42 76l70 326h153l-67 -315q-23 -110 -99 -173.5t-213 -75.5l-33 -156h-160l34 161q-104 17 -161 68.5t-57 132.5q0 26 6 53l65 305h160z" />
            <glyph glyph-name="uni03A9" unicode="&#x3a9;" horiz-adv-x="781"
           d="M439 121q30 1 55 17.5t45 43t34.5 60t24 68.5t14.5 69t5 61q0 48 -12.5 81.5t-32.5 54.5t-46 31t-54 10q-70 0 -116.5 -37.5t-74.5 -92.5t-40 -116.5t-12 -109.5q0 -39 8 -65.5t20 -43t27 -24t29 -7.5l-25 -121h-260l25 121h85q-28 34 -49.5 85t-21.5 108q0 29 6 71.5
t22.5 89t46 93.5t75.5 84t111 60t153 23q60 0 115.5 -17t98 -52.5t68.5 -90.5t26 -130q0 -59 -12 -106t-33 -86t-49.5 -71t-60.5 -61h62l-25 -121h-261l25 121h4z" />
            <glyph glyph-name="Iotadieresis" unicode="&#x3aa;" horiz-adv-x="288"
           d="M341 720l-153 -720h-168l153 720h168zM82 782l28 128h148l-28 -128h-148zM312 782l28 128h148l-28 -128h-148z" />
            <glyph glyph-name="Upsilondieresis" unicode="&#x3ab;" horiz-adv-x="668"
           d="M215 0l61 287l-163 433h173l95 -293l233 293h167l-347 -433l-61 -287h-158zM270 782l28 128h148l-28 -128h-148zM500 782l28 128h148l-28 -128h-148z" />
            <glyph glyph-name="alphatonos" unicode="&#x3ac;" horiz-adv-x="630"
           d="M413 0l-14 57q-35 -32 -77 -52t-92 -20q-43 0 -78 15.5t-60 43t-38.5 66.5t-13.5 87q0 55 16 114.5t50.5 109t88.5 82t130 32.5q54 0 96 -18.5t62 -53.5l39 57h123l-110 -520h-122zM350 421q-40 0 -68.5 -20.5t-46.5 -51.5t-26.5 -68t-8.5 -69q0 -57 27 -85t69 -28
q43 0 72 22.5t46.5 55t24.5 69.5t7 67q0 31 -8.5 52t-22 33.5t-31 17.5t-34.5 5zM382 720h169l-102 -147h-121z" />
            <glyph glyph-name="epsilontonos" unicode="&#x3ad;" horiz-adv-x="556"
           d="M277 535q52 0 97 -12.5t78 -35t52 -54.5t19 -70h-164q-3 31 -27.5 48.5t-55.5 17.5q-35 0 -53.5 -15.5t-18.5 -42.5q0 -21 16.5 -36t52.5 -15h46l-22 -103h-38q-57 0 -86.5 -19.5t-29.5 -51.5q0 -25 19.5 -40t50.5 -15q37 0 63.5 19t47.5 60h164q-17 -40 -41.5 -74
t-59 -58.5t-80 -38.5t-103.5 -14q-53 0 -95 11.5t-70.5 31.5t-43.5 47.5t-15 59.5q0 30 11.5 55.5t32.5 44t51 29.5t67 12q-45 7 -69 37.5t-24 71.5q0 33 13.5 60.5t41.5 47.5t71 31t102 11zM305 720h169l-102 -147h-121z" />
            <glyph glyph-name="etatonos" unicode="&#x3ae;" horiz-adv-x="601"
           d="M330 720h169l-102 -147h-121zM125 520h129l3 -57q37 35 81.5 53.5t88.5 18.5q76 0 117.5 -40t41.5 -111q0 -28 -6 -58l-108 -506h-156l108 504q4 16 4 33q0 35 -19.5 51.5t-50.5 16.5q-42 0 -76 -29t-45 -83l-66 -313h-156z" />
            <glyph glyph-name="iotatonos" unicode="&#x3af;" horiz-adv-x="286"
           d="M25 0l110 520h156l-110 -520h-156zM219 720h169l-102 -147h-121z" />
            <glyph glyph-name="upsilondieresistonos" unicode="&#x3b0;" horiz-adv-x="591"
           d="M267 -15q-49 0 -90 11.5t-70.5 33.5t-46 54t-16.5 74q0 12 1 24t4 25l67 313h156l-69 -326q-3 -14 -3 -26q0 -32 20 -52.5t61 -20.5q46 0 66 18t29 60l74 347h156l-74 -353q-20 -94 -89 -138t-176 -44zM152 592l28 128h148l-28 -128h-148zM452 592l28 128h148l-28 -128
h-148zM401 883h169l-101 -147h-121z" />
            <glyph glyph-name="alpha" unicode="&#x3b1;" horiz-adv-x="630"
           d="M413 0l-14 57q-35 -32 -77 -52t-92 -20q-43 0 -78 15.5t-60 43t-38.5 66.5t-13.5 87q0 55 16 114.5t50.5 109t88.5 82t130 32.5q54 0 96 -18.5t62 -53.5l39 57h123l-110 -520h-122zM350 421q-40 0 -68.5 -20.5t-46.5 -51.5t-26.5 -68t-8.5 -69q0 -57 27 -85t69 -28
q43 0 72 22.5t46.5 55t24.5 69.5t7 67q0 31 -8.5 52t-22 33.5t-31 17.5t-34.5 5z" />
            <glyph glyph-name="beta" unicode="&#x3b2;" horiz-adv-x="593"
           d="M322 -15q-53 0 -88 18t-52 50l-50 -233h-156l150 712q22 103 84 153t178 50q54 0 96 -12t71.5 -34t44.5 -51.5t15 -64.5q0 -36 -14.5 -65.5t-39 -52t-57 -37t-68.5 -20.5q27 -3 49.5 -17.5t39.5 -36.5t26.5 -50t9.5 -58t-11 -72.5t-38 -82.5t-73 -68t-117 -28zM310 334
l25 113h22q15 0 32 7t31 20.5t23 34t9 47.5q0 32 -21.5 50.5t-53.5 18.5q-42 0 -63 -20.5t-32 -73.5l-56 -276q-4 -20 -6 -37t-2 -31q0 -50 22 -69t56 -19q30 0 50.5 16t33.5 39.5t18.5 49.5t5.5 47q0 42 -21.5 62.5t-55.5 20.5h-17z" />
            <glyph glyph-name="gamma" unicode="&#x3b3;" horiz-adv-x="566"
           d="M126 -180l39 180l-90 520h163l32 -388l194 388h167l-310 -520l-39 -180h-156z" />
            <glyph glyph-name="delta" unicode="&#x3b4;" horiz-adv-x="590"
           d="M260 720h368l-23 -104h-156q30 -12 55.5 -37t44 -58.5t29 -74.5t10.5 -85q0 -28 -5.5 -67t-19 -80.5t-36.5 -82.5t-58 -73.5t-82.5 -52.5t-111.5 -20q-56 0 -100 16t-74 44.5t-46 68t-16 86.5q0 34 11.5 82.5t40.5 93t79.5 76t127.5 31.5q42 0 78.5 -15.5t57.5 -41.5
q-1 42 -16 77.5t-41 62.5t-61 43.5t-75 21.5zM323 370q-37 0 -61 -19.5t-38.5 -47t-20 -57.5t-5.5 -52q0 -48 24 -72t65 -24q34 0 57.5 21t38.5 50t22 59.5t7 49.5q0 44 -25.5 68t-63.5 24z" />
            <glyph glyph-name="epsilon" unicode="&#x3b5;" horiz-adv-x="556"
           d="M316 535q52 0 97 -12.5t78 -35t52 -54.5t19 -70h-164q-3 31 -27.5 48.5t-55.5 17.5q-35 0 -53.5 -15.5t-18.5 -42.5q0 -21 16.5 -36t52.5 -15h46l-22 -103h-38q-57 0 -86.5 -19.5t-29.5 -51.5q0 -25 19.5 -40t50.5 -15q37 0 63.5 19t47.5 60h164q-17 -40 -41.5 -74
t-59 -58.5t-80 -38.5t-103.5 -14q-53 0 -95 11.5t-70.5 31.5t-43.5 47.5t-15 59.5q0 30 11.5 55.5t32.5 44t51 29.5t67 12q-45 7 -69 37.5t-24 71.5q0 33 13.5 60.5t41.5 47.5t71 31t102 11z" />
            <glyph glyph-name="zeta" unicode="&#x3b6;" horiz-adv-x="516"
           d="M570 632q-103 -42 -171.5 -92t-110 -101.5t-59 -102t-17.5 -95.5q0 -54 30 -94t90 -58q66 -20 94.5 -46.5t28.5 -66.5q0 -25 -11.5 -51t-31 -51.5t-46 -50t-57.5 -46.5l-78 76q23 19 41 38.5t18 44.5q0 17 -12.5 26.5t-38.5 17.5q-98 27 -146.5 84.5t-48.5 141.5
q0 64 19.5 119.5t58 104.5t97 93.5t136.5 88.5h-228l23 108h439z" />
            <glyph glyph-name="eta" unicode="&#x3b7;" horiz-adv-x="601"
           d="M125 520h129l3 -57q37 35 81.5 53.5t88.5 18.5q76 0 117.5 -40t41.5 -111q0 -28 -6 -58l-108 -506h-156l108 504q4 16 4 33q0 35 -19.5 51.5t-50.5 16.5q-42 0 -76 -29t-45 -83l-66 -313h-156z" />
            <glyph glyph-name="theta" unicode="&#x3b8;" horiz-adv-x="602"
           d="M271 -15q-99 0 -157.5 66t-58.5 192q0 26 4.5 72.5t17.5 101t37 111.5t62.5 103t94.5 75t132 29q49 0 89 -16.5t68 -48.5t43.5 -80.5t15.5 -111.5q0 -24 -4.5 -70t-17.5 -100.5t-37 -112t-62.5 -104t-94.5 -76.5t-132 -30zM286 91q22 0 42 11t37.5 36.5t33.5 67t31 102.5
h-208q-5 -31 -8 -56.5t-3 -46.5q0 -63 20.5 -88.5t54.5 -25.5zM388 630q-23 0 -42.5 -11.5t-36.5 -37t-33 -66.5t-31 -100h208q9 57 9 97q0 64 -20 91t-54 27z" />
            <glyph glyph-name="iota" unicode="&#x3b9;" horiz-adv-x="286"
           d="M25 0l110 520h156l-110 -520h-156z" />
            <glyph glyph-name="kappa" unicode="&#x3ba;" horiz-adv-x="585"
           d="M15 0l110 520h156l-44 -207l220 207h182l-262 -244l178 -276h-196l-141 225l-47 -225h-156z" />
            <glyph glyph-name="lambda" unicode="&#x3bb;" horiz-adv-x="571"
           d="M370 0l-38 406l-201 -406h-166l294 520h47q0 59 -11 81.5t-38 22.5q-10 0 -25 -1.5t-41 -7.5l23 109q47 11 87 11q36 0 60.5 -8.5t42 -31t28.5 -62t20 -102.5l74 -531h-156z" />
            <glyph glyph-name="uni03BC" unicode="&#x3bc;" horiz-adv-x="601"
           d="M281 520l-71 -336q-3 -14 -3 -24q0 -32 19.5 -48.5t52.5 -16.5q40 0 72 29.5t43 83.5l66 312h156l-110 -520h-129l-4 55q-34 -33 -75.5 -51.5t-91.5 -18.5q-21 0 -39 3l-35 -167h-156l149 699h156z" />
            <glyph glyph-name="nu" unicode="&#x3bd;" horiz-adv-x="566"
           d="M631 520l-290 -520h-197l-69 520h163l28 -405l198 405h167z" />
            <glyph glyph-name="xi" unicode="&#x3be;" horiz-adv-x="542"
           d="M199 358q-44 10 -66 39t-22 68q0 56 38.5 92.5t121.5 54.5h-138l23 108h433l-19 -88h-30q-60 0 -110 -10.5t-85 -30.5t-54.5 -48t-19.5 -62q0 -32 25 -53t84 -21h73l-24 -113h-77q-47 0 -77 -9t-47 -23t-23.5 -31.5t-6.5 -34.5q0 -21 9.5 -37t26.5 -28.5t40 -22t50 -16.5
q75 -20 105.5 -47.5t30.5 -68.5q0 -25 -11.5 -51t-31 -51.5t-46 -50t-57.5 -46.5l-77 76q22 18 40 40t18 42q0 17 -16.5 28t-61.5 19q-90 17 -138 64t-48 118q0 37 12.5 70.5t35 59.5t53.5 43t67 21z" />
            <glyph glyph-name="omicron" unicode="&#x3bf;" horiz-adv-x="620"
           d="M359 535q56 0 101.5 -15t78 -43t50 -69t17.5 -93q0 -29 -5 -64.5t-18 -72.5t-35.5 -71.5t-58 -61.5t-85 -43.5t-115.5 -16.5q-57 0 -102.5 15t-77.5 43.5t-49 69.5t-17 94q0 31 5 67.5t18 73t35.5 70t57.5 60t84.5 42t115.5 15.5zM350 430q-34 0 -58 -13t-40 -34
t-26 -46.5t-15 -50.5t-6.5 -47t-1.5 -35q0 -59 28 -86.5t70 -27.5q33 0 56.5 13t40 34t26.5 47t15 52t7 49t2 37q0 58 -27.5 83t-70.5 25z" />
            <glyph glyph-name="pi" unicode="&#x3c0;" horiz-adv-x="590"
           d="M582 412l-87 -412h-156l87 412h-168l-87 -412h-156l87 412h-50l23 108h580l-23 -108h-50z" />
            <glyph glyph-name="rho" unicode="&#x3c1;" horiz-adv-x="630"
           d="M73 299q13 60 35 104.5t56.5 73.5t83 43.5t113.5 14.5q59 0 106.5 -16t81 -45.5t51.5 -70.5t18 -91q0 -24 -6 -58t-19.5 -70t-35.5 -72t-55 -64t-78 -45.5t-103 -17.5q-44 0 -83.5 16t-62.5 48l-48 -229h-156zM354 421q-42 0 -70 -23.5t-44.5 -57.5t-23.5 -70.5t-7 -62.5
q0 -59 27.5 -83.5t67.5 -24.5q44 0 74 23.5t48 56.5t26 69t8 62q0 57 -30 84t-76 27z" />
            <glyph glyph-name="sigma1" unicode="&#x3c2;" horiz-adv-x="590"
           d="M242 -22q-101 17 -151 76.5t-50 153.5q0 66 18.5 125t56 104t95.5 71.5t138 26.5q54 0 99.5 -12.5t78 -36t50.5 -55.5t18 -71h-164q-2 32 -27 50.5t-57 18.5q-44 0 -72 -21.5t-43.5 -52.5t-21 -65t-5.5 -59q0 -52 28 -88t92 -51q84 -20 120 -49t36 -74q0 -25 -11 -50
t-30.5 -49.5t-46.5 -48t-58 -44.5l-77 76q22 18 39.5 38t17.5 43q0 17 -17.5 27t-55.5 17z" />
            <glyph glyph-name="sigma" unicode="&#x3c3;" horiz-adv-x="620"
           d="M594 411q7 -17 10 -41.5t3 -51.5q0 -53 -15 -111.5t-52 -108t-98.5 -81.5t-155.5 -32q-119 0 -182 58t-63 160q0 52 14.5 110.5t51 107.5t99.5 81.5t160 32.5q29 0 61 -3.5t55 -11.5h193l-24 -112zM351 430q-47 0 -75.5 -26.5t-45 -63t-22 -75t-5.5 -63.5q0 -58 26.5 -85
t70.5 -27q45 0 73.5 25t45 62t23 77.5t6.5 72.5q0 35 -8.5 59t-23.5 36q-11 4 -29.5 6t-35.5 2z" />
            <glyph glyph-name="tau" unicode="&#x3c4;" horiz-adv-x="489"
           d="M80 520h469l-23 -107h-157l-87 -413h-156l87 413h-156z" />
            <glyph glyph-name="upsilon" unicode="&#x3c5;" horiz-adv-x="591"
           d="M267 -15q-49 0 -90 11.5t-70.5 33.5t-46 54t-16.5 74q0 12 1 24t4 25l67 313h156l-69 -326q-3 -14 -3 -26q0 -32 20 -52.5t61 -20.5q46 0 66 18t29 60l74 347h156l-74 -353q-20 -94 -89 -138t-176 -44z" />
            <glyph glyph-name="phi" unicode="&#x3c6;" horiz-adv-x="787"
           d="M258 -10q-115 14 -167 64.5t-52 136.5q0 49 11 94.5t29 87t40.5 78.5t45.5 69h156q-22 -31 -43.5 -68.5t-39 -77t-28 -78t-10.5 -72.5q0 -83 85 -108l41 194q13 61 32 103.5t48.5 69.5t70 39.5t96.5 12.5q93 0 148.5 -48t55.5 -144q0 -37 -9 -82q-15 -72 -44 -122.5
t-72.5 -82.5t-102.5 -48.5t-134 -20.5l-36 -167h-156zM441 108q40 4 68.5 14.5t48 29t32.5 47t21 67.5q9 43 9 74q0 43 -15 62t-39 19q-14 0 -26 -4.5t-22.5 -18.5t-20 -40.5t-18.5 -71.5z" />
            <glyph glyph-name="chi" unicode="&#x3c7;" horiz-adv-x="574"
           d="M367 176l123 -356h-178l-54 241l-162 -241h-169l268 354l-110 346h172l44 -236l144 236h167z" />
            <glyph glyph-name="psi" unicode="&#x3c8;" horiz-adv-x="785"
           d="M272 520l-60 -281q-3 -14 -3 -26q0 -37 23 -63t71 -38l87 408h152l-88 -413q63 9 97 36t45 76l64 301h145l-64 -300q-24 -110 -99.5 -166.5t-213.5 -66.5l-35 -167h-152l36 171q-109 17 -164 72.5t-55 137.5q0 14 2 29t5 30l55 260h152z" />
            <glyph glyph-name="omega" unicode="&#x3c9;" horiz-adv-x="787"
           d="M750 520q10 -31 15.5 -74.5t5.5 -94.5q0 -79 -11.5 -146t-39 -116t-74 -76.5t-116.5 -27.5q-41 0 -69.5 9.5t-47 25.5t-28 36.5t-12.5 42.5q-8 -19 -23 -39t-37.5 -36.5t-53.5 -27.5t-71 -11q-34 0 -63 13t-50 36.5t-32.5 56t-11.5 72.5q0 44 13 92.5t33.5 96t46 91
t51.5 77.5h156q-27 -35 -52.5 -81t-45.5 -93t-32 -91.5t-12 -75.5q0 -33 14 -58.5t45 -25.5q29 0 49 28.5t28 69.5l39 187h139l-39 -187q-3 -15 -3 -28q0 -31 14.5 -50.5t39.5 -19.5t42 14.5t28 38t17 53t9 58.5t3.5 54.5t0.5 41.5q0 49 -5.5 91t-15.5 74h156z" />
            <glyph glyph-name="iotadieresis" unicode="&#x3ca;" horiz-adv-x="286"
           d="M25 0l110 520h156l-110 -520h-156zM40 592l28 128h148l-28 -128h-148zM270 592l28 128h148l-28 -128h-148z" />
            <glyph glyph-name="upsilondieresis" unicode="&#x3cb;" horiz-adv-x="591"
           d="M267 -15q-49 0 -90 11.5t-70.5 33.5t-46 54t-16.5 74q0 12 1 24t4 25l67 313h156l-69 -326q-3 -14 -3 -26q0 -32 20 -52.5t61 -20.5q46 0 66 18t29 60l74 347h156l-74 -353q-20 -94 -89 -138t-176 -44zM187 592l28 128h148l-28 -128h-148zM417 592l28 128h148l-28 -128
h-148z" />
            <glyph glyph-name="omicrontonos" unicode="&#x3cc;" horiz-adv-x="620"
           d="M359 535q56 0 101.5 -15t78 -43t50 -69t17.5 -93q0 -29 -5 -64.5t-18 -72.5t-35.5 -71.5t-58 -61.5t-85 -43.5t-115.5 -16.5q-57 0 -102.5 15t-77.5 43.5t-49 69.5t-17 94q0 31 5 67.5t18 73t35.5 70t57.5 60t84.5 42t115.5 15.5zM350 430q-34 0 -58 -13t-40 -34
t-26 -46.5t-15 -50.5t-6.5 -47t-1.5 -35q0 -59 28 -86.5t70 -27.5q33 0 56.5 13t40 34t26.5 47t15 52t7 49t2 37q0 58 -27.5 83t-70.5 25zM381 720h169l-102 -147h-121z" />
            <glyph glyph-name="upsilontonos" unicode="&#x3cd;" horiz-adv-x="591"
           d="M267 -15q-49 0 -90 11.5t-70.5 33.5t-46 54t-16.5 74q0 12 1 24t4 25l67 313h156l-69 -326q-3 -14 -3 -26q0 -32 20 -52.5t61 -20.5q46 0 66 18t29 60l74 347h156l-74 -353q-20 -94 -89 -138t-176 -44zM367 720h169l-102 -147h-121z" />
            <glyph glyph-name="omegatonos" unicode="&#x3ce;" horiz-adv-x="787"
           d="M750 520q10 -31 15.5 -74.5t5.5 -94.5q0 -79 -11.5 -146t-39 -116t-74 -76.5t-116.5 -27.5q-41 0 -69.5 9.5t-47 25.5t-28 36.5t-12.5 42.5q-8 -19 -23 -39t-37.5 -36.5t-53.5 -27.5t-71 -11q-34 0 -63 13t-50 36.5t-32.5 56t-11.5 72.5q0 44 13 92.5t33.5 96t46 91
t51.5 77.5h156q-27 -35 -52.5 -81t-45.5 -93t-32 -91.5t-12 -75.5q0 -33 14 -58.5t45 -25.5q29 0 49 28.5t28 69.5l39 187h139l-39 -187q-3 -15 -3 -28q0 -31 14.5 -50.5t39.5 -19.5t42 14.5t28 38t17 53t9 58.5t3.5 54.5t0.5 41.5q0 49 -5.5 91t-15.5 74h156zM470 720h169
l-102 -147h-121z" />
            <glyph glyph-name="uni0400" unicode="&#x400;" horiz-adv-x="581"
           d="M541 305h-289l-39 -184h318l-25 -121h-486l153 720h486l-27 -123h-318l-37 -176h289zM488 773h-116l-119 137h164z" />
            <glyph glyph-name="afii10023" unicode="&#x401;" horiz-adv-x="581"
           d="M541 305h-289l-39 -184h318l-25 -121h-486l153 720h486l-27 -123h-318l-37 -176h289zM236 782l28 128h148l-28 -128h-148zM466 782l28 128h148l-28 -128h-148z" />
            <glyph glyph-name="afii10051" unicode="&#x402;" horiz-adv-x="809"
           d="M156 0l126 594h-191l27 126h553l-27 -126h-194l-35 -166q43 37 89.5 57t95.5 20q91 0 139 -49t48 -140q0 -10 -1 -22t-4 -30.5t-8 -46.5t-14 -71q-16 -75 -69.5 -118t-138.5 -43q-11 0 -25.5 1.5t-29 4t-27.5 6t-22 7.5l23 109q16 -6 33.5 -9.5t28.5 -3.5q26 0 40.5 12.5
t20.5 41.5l20 96q5 28 5 47q0 42 -20 65.5t-64 23.5q-29 0 -54 -10t-45.5 -28t-35.5 -42t-22 -51l-54 -255h-168z" />
            <glyph glyph-name="afii10052" unicode="&#x403;" horiz-adv-x="507"
           d="M588 594h-274l-126 -594h-168l153 720h442zM428 910h174l-179 -137h-126z" />
            <glyph glyph-name="afii10053" unicode="&#x404;" horiz-adv-x="740"
           d="M368 103q71 0 114.5 38.5t67.5 123.5h171q-46 -139 -133.5 -209.5t-233.5 -70.5q-62 0 -115 19.5t-92 57t-61 92.5t-22 125q0 45 8 96t26.5 101.5t49 97.5t76 82.5t107 57t142.5 21.5q61 0 114 -15.5t92 -45.5t61.5 -74t22.5 -101v-14h-168q0 68 -37 100.5t-95 32.5
q-67 0 -116.5 -46.5t-81.5 -150.5h232l-25 -116h-232q-3 -24 -3 -45q0 -43 10.5 -73t28.5 -48.5t41.5 -27t50.5 -8.5z" />
            <glyph glyph-name="afii10054" unicode="&#x405;" horiz-adv-x="644"
           d="M312 -15q-68 0 -121 15t-90 43t-56.5 68t-19.5 89v12h159v-6q0 -45 34.5 -74.5t103.5 -29.5q66 0 103 22.5t37 70.5q0 23 -8.5 40t-27.5 30.5t-50 24.5t-76 22q-38 9 -73.5 24.5t-63 39.5t-44 56.5t-16.5 76.5q0 107 72.5 166.5t228.5 59.5q129 0 199.5 -53t70.5 -147
h-157v6q0 38 -34.5 58.5t-86.5 20.5q-61 0 -89 -19t-28 -60q0 -38 32.5 -61.5t98.5 -40.5q44 -11 84.5 -28.5t72 -43t50.5 -61t19 -82.5q0 -53 -17 -96.5t-55.5 -75.5t-100.5 -49.5t-151 -17.5z" />
            <glyph glyph-name="afii10055" unicode="&#x406;" horiz-adv-x="288"
           d="M341 720l-153 -720h-168l153 720h168z" />
            <glyph glyph-name="afii10056" unicode="&#x407;" horiz-adv-x="288"
           d="M341 720l-153 -720h-168l153 720h168zM82 782l28 128h148l-28 -128h-148zM312 782l28 128h148l-28 -128h-148z" />
            <glyph glyph-name="afii10057" unicode="&#x408;" horiz-adv-x="565"
           d="M185 213q-3 -15 -3 -28q0 -23 7 -38t18 -25t24 -14t26 -4q16 0 30.5 4.5t27 16.5t22.5 33.5t17 54.5l108 507h161l-107 -500q-26 -121 -88.5 -178t-178.5 -57q-42 0 -82.5 10.5t-72 34t-51 61.5t-19.5 94v13q0 7 1 15h160z" />
            <glyph glyph-name="afii10058" unicode="&#x409;" horiz-adv-x="1075"
           d="M782 479q141 0 207.5 -54.5t66.5 -147.5q0 -139 -90 -208t-256 -69h-281l128 605h-207l-126 -422q-15 -50 -34.5 -85t-48.5 -57t-72 -31.5t-104 -9.5l23 110q18 0 31.5 2.5t23 11t17 23.5t15.5 39l160 534h515l-52 -241h84zM674 364l-53 -249h107q70 0 112 42t42 111
q0 50 -32 73t-91 23h-85z" />
            <glyph glyph-name="afii10059" unicode="&#x40a;" horiz-adv-x="1081"
           d="M757 720l-56 -261h82q144 0 211.5 -49.5t67.5 -138.5q0 -136 -91.5 -203.5t-258.5 -67.5h-276l73 344h-248l-73 -344h-168l153 720h168l-56 -261h248l56 261h168zM677 344l-49 -229h111q67 0 107.5 36.5t40.5 102.5q0 46 -34 68t-92 22h-84z" />
            <glyph glyph-name="afii10060" unicode="&#x40b;" horiz-adv-x="809"
           d="M157 0l126 594h-192l27 126h553l-27 -126h-193l-36 -166q43 37 90 57t96 20q91 0 139 -49t48 -139q0 -42 -10 -88l-48 -229h-168l53 250q5 28 5 47q0 42 -20 65.5t-64 23.5q-30 0 -56.5 -11.5t-47.5 -31t-35.5 -45.5t-20.5 -55l-51 -243h-168z" />
            <glyph glyph-name="afii10061" unicode="&#x40c;" horiz-adv-x="716"
           d="M484 0l-164 305h-68l-64 -305h-168l153 720h168l-64 -299h64l263 299h187l-322 -356l207 -364h-192zM512 910h174l-179 -137h-126z" />
            <glyph glyph-name="uni040D" unicode="&#x40d;" horiz-adv-x="723"
           d="M776 720l-153 -720h-167l92 434l-347 -370l-13 -64h-168l153 720h168l-93 -433l347 370l14 63h167zM549 773h-116l-119 137h164z" />
            <glyph glyph-name="afii10062" unicode="&#x40e;" horiz-adv-x="618"
           d="M404 168q-30 -51 -55.5 -86t-51.5 -56.5t-56 -31t-70 -9.5q-38 0 -78 15l25 115q23 -8 36 -9.5t23 -1.5q25 0 43 17.5t36 56.5h-50l-93 542h160l54 -426l235 426h169zM443 764q-31 0 -59 6t-49 18.5t-33.5 32t-12.5 48.5q0 2 0.5 5t0.5 6h124v-4q0 -16 11 -22t25 -6t27 7
t19 25h124q-22 -63 -69.5 -89.5t-107.5 -26.5z" />
            <glyph glyph-name="afii10145" unicode="&#x40f;" horiz-adv-x="722"
           d="M400 0l-30 -140h-161l30 140h-219l153 720h168l-128 -598h267l128 598h167l-153 -720h-222z" />
            <glyph glyph-name="afii10017" unicode="&#x410;" horiz-adv-x="701"
           d="M489 0l-16 165h-256l-86 -165h-171l409 720h187l105 -720h-172zM274 275h189l-29 307z" />
            <glyph glyph-name="afii10018" unicode="&#x411;" horiz-adv-x="666"
           d="M373 479q141 0 207.5 -54.5t66.5 -147.5q0 -139 -90 -208t-256 -69h-281l153 720h452l-26 -121h-284l-26 -120h84zM265 364l-53 -249h107q70 0 112 42t42 111q0 50 -32 73t-91 23h-85z" />
            <glyph glyph-name="afii10019" unicode="&#x412;" horiz-adv-x="647"
           d="M403 720q135 0 199 -40t64 -115q0 -40 -14.5 -71t-39.5 -54t-57 -38t-67 -21q60 -13 98.5 -52.5t38.5 -97.5q0 -54 -18.5 -96.5t-58.5 -72.5t-103 -46t-152 -16h-273l153 720h230zM256 324l-45 -214h103q69 0 104.5 32.5t35.5 95.5q0 41 -26.5 63.5t-74.5 22.5h-97z
M317 610l-39 -182h92q58 0 91 29.5t33 78.5q0 35 -27 54.5t-71 19.5h-79z" />
            <glyph glyph-name="afii10020" unicode="&#x413;" horiz-adv-x="507"
           d="M588 594h-274l-126 -594h-168l153 720h442z" />
            <glyph glyph-name="afii10021" unicode="&#x414;" horiz-adv-x="674"
           d="M718 720l-129 -605h74l-54 -255h-149l30 140h-396l-30 -140h-148l53 255h56q25 15 43.5 45t31.5 81l122 479h496zM248 237q-13 -49 -34 -75.5t-49 -46.5h270l104 490h-196z" />
            <glyph glyph-name="afii10022" unicode="&#x415;" horiz-adv-x="581"
           d="M541 305h-289l-39 -184h318l-25 -121h-486l153 720h486l-27 -123h-318l-37 -176h289z" />
            <glyph glyph-name="afii10024" unicode="&#x416;" horiz-adv-x="986"
           d="M326 720l92 -299h40l64 299h168l-64 -299h41l209 299h185l-262 -347l147 -373h-187l-108 305h-50l-64 -305h-168l64 305h-58l-220 -305h-195l308 393l-117 327h175z" />
            <glyph glyph-name="afii10025" unicode="&#x417;" horiz-adv-x="601"
           d="M286 102q53 0 87.5 35t34.5 98q0 45 -30 67.5t-80 22.5h-65l22 107h84q56 0 89 31t33 79q0 34 -26 57t-68 23q-84 0 -113 -71h-162q15 41 40.5 75t62.5 58t86 37.5t110 13.5q48 0 92 -12t77 -34t53 -53.5t20 -70.5q0 -68 -50.5 -117t-138.5 -62q32 -5 57 -20.5t42 -38
t26 -50.5t9 -57q0 -47 -20 -89.5t-59 -75t-97 -51.5t-134 -19q-58 0 -103.5 13.5t-77 37.5t-48.5 56t-17 70v10q0 5 1 10h165v-7q0 -32 22.5 -52.5t75.5 -20.5z" />
            <glyph glyph-name="afii10026" unicode="&#x418;" horiz-adv-x="723"
           d="M776 720l-153 -720h-167l92 434l-347 -370l-13 -64h-168l153 720h168l-93 -433l347 370l14 63h167z" />
            <glyph glyph-name="afii10027" unicode="&#x419;" horiz-adv-x="723"
           d="M776 720l-153 -720h-167l92 434l-347 -370l-13 -64h-168l153 720h168l-93 -433l347 370l14 63h167zM492 764q-31 0 -59 6t-49 18.5t-33.5 32t-12.5 48.5q0 2 0.5 5t0.5 6h124v-4q0 -16 11 -22t25 -6t27 7t19 25h124q-22 -63 -69.5 -89.5t-107.5 -26.5z" />
            <glyph glyph-name="afii10028" unicode="&#x41a;" horiz-adv-x="716"
           d="M484 0l-164 305h-68l-64 -305h-168l153 720h168l-64 -299h64l263 299h187l-322 -356l207 -364h-192z" />
            <glyph glyph-name="afii10029" unicode="&#x41b;" horiz-adv-x="683"
           d="M736 720l-153 -720h-154l128 605h-207l-126 -422q-15 -50 -34.5 -85t-48.5 -57t-72 -31.5t-104 -9.5l23 110q18 0 31.5 2.5t23 11t17 23.5t15.5 39l160 534h501z" />
            <glyph glyph-name="afii10030" unicode="&#x41c;" horiz-adv-x="893"
           d="M335 0l-68 495l-105 -495h-142l153 720h188l75 -562l309 562h201l-153 -720h-152l105 496l-274 -496h-137z" />
            <glyph glyph-name="afii10031" unicode="&#x41d;" horiz-adv-x="723"
           d="M776 720l-153 -720h-167l64 304h-268l-64 -304h-168l153 720h168l-63 -296h268l63 296h167z" />
            <glyph glyph-name="afii10032" unicode="&#x41e;" horiz-adv-x="784"
           d="M388 104q63 0 107 34t71.5 85t40.5 110t13 109q0 48 -13 81.5t-34.5 54t-48.5 30t-55 9.5q-43 0 -77 -16t-60 -43t-44 -62t-29.5 -72.5t-17 -75.5t-5.5 -71q0 -48 13.5 -81t35 -53.5t48.5 -29.5t55 -9zM371 -15q-57 0 -112.5 17.5t-98.5 54t-69.5 92.5t-26.5 133
q0 49 9 101.5t29.5 102.5t53 95.5t79 79.5t108 54t139.5 20q57 0 112.5 -18t99 -54.5t70.5 -93t27 -134.5q0 -43 -8 -93t-27 -100t-50 -96.5t-77.5 -82t-110.5 -57t-147 -21.5z" />
            <glyph glyph-name="afii10033" unicode="&#x41f;" horiz-adv-x="723"
           d="M776 720l-153 -720h-167l127 600h-268l-127 -600h-168l153 720h603z" />
            <glyph glyph-name="afii10034" unicode="&#x420;" horiz-adv-x="666"
           d="M424 720q141 0 207.5 -54.5t66.5 -147.5q0 -139 -90 -208t-256 -69h-113l-51 -241h-168l153 720h251zM316 605l-53 -249h107q70 0 112 42t42 111q0 50 -32 73t-91 23h-85z" />
            <glyph glyph-name="afii10035" unicode="&#x421;" horiz-adv-x="741"
           d="M370 103q69 0 114 38.5t69 123.5h171q-46 -139 -136.5 -209.5t-236.5 -70.5q-137 0 -212 75.5t-75 212.5q0 47 8.5 100t27.5 104.5t50.5 98t77.5 82t108.5 56.5t143.5 21q57 0 108.5 -15.5t90.5 -45.5t62 -74t23 -102v-13h-168q0 68 -34.5 100.5t-92.5 32.5
q-45 0 -79 -18t-59.5 -47t-43 -66t-28 -76t-15 -76t-4.5 -65q0 -45 10 -76.5t28 -51.5t41.5 -29.5t50.5 -9.5z" />
            <glyph glyph-name="afii10036" unicode="&#x422;" horiz-adv-x="603"
           d="M684 594h-214l-126 -594h-168l126 594h-211l27 126h593z" />
            <glyph glyph-name="afii10037" unicode="&#x423;" horiz-adv-x="618"
           d="M404 168q-30 -51 -55.5 -86t-51.5 -56.5t-56 -31t-70 -9.5q-38 0 -78 15l25 115q23 -8 36 -9.5t23 -1.5q25 0 43 17.5t36 56.5h-50l-93 542h160l54 -426l235 426h169z" />
            <glyph glyph-name="afii10038" unicode="&#x424;" horiz-adv-x="938"
           d="M669 735l-9 -40q56 -1 107.5 -18t91 -50t63 -83t23.5 -117q0 -78 -26 -151t-79.5 -128.5t-133.5 -89t-188 -33.5l-9 -40h-168l9 40q-56 1 -107.5 18t-90.5 51t-62 84.5t-23 118.5q0 67 21.5 137.5t71 128.5t131 95t201.5 37l9 40h168zM773 424q0 40 -11.5 68.5t-30.5 47
t-44 27.5t-52 10l-92 -433q66 0 110.5 29.5t71 72.5t37.5 91.5t11 86.5zM467 577q-65 0 -109 -29t-70.5 -71t-38 -90.5t-11.5 -87.5q0 -40 11 -69t29.5 -47.5t43.5 -28t53 -10.5z" />
            <glyph glyph-name="afii10039" unicode="&#x425;" horiz-adv-x="701"
           d="M485 377l171 -377h-184l-109 247l-200 -247h-198l328 376l-159 344h183l97 -222l187 222h188z" />
            <glyph glyph-name="afii10040" unicode="&#x426;" horiz-adv-x="732"
           d="M213 122h268l128 598h167l-128 -598h80l-55 -262h-161l30 140h-522l153 720h168z" />
            <glyph glyph-name="afii10041" unicode="&#x427;" horiz-adv-x="668"
           d="M721 720l-153 -720h-168l62 292q-40 -35 -85.5 -56t-90.5 -21q-97 0 -146.5 48t-49.5 139q0 43 10 89l48 229h168l-54 -250q-6 -29 -6 -52q0 -39 19.5 -61.5t62.5 -22.5q33 0 60 12.5t48 33t35.5 47.5t20.5 57l51 236h168z" />
            <glyph glyph-name="afii10042" unicode="&#x428;" horiz-adv-x="968"
           d="M20 0l153 720h168l-128 -598h173l128 598h167l-128 -598h173l128 598h167l-153 -720h-848z" />
            <glyph glyph-name="afii10043" unicode="&#x429;" horiz-adv-x="977"
           d="M20 0l153 720h168l-128 -598h173l128 598h167l-128 -598h173l128 598h167l-128 -598h80l-55 -262h-161l30 140h-767z" />
            <glyph glyph-name="afii10044" unicode="&#x42a;" horiz-adv-x="825"
           d="M532 479q141 0 207.5 -54.5t66.5 -147.5q0 -139 -90 -208t-256 -69h-281l126 594h-209l27 126h377l-52 -241h84zM424 364l-53 -249h107q70 0 112 42t42 111q0 50 -32 73t-91 23h-85z" />
            <glyph glyph-name="afii10045" unicode="&#x42b;" horiz-adv-x="913"
           d="M373 479q141 0 207.5 -54.5t66.5 -147.5q0 -139 -90 -208t-256 -69h-281l153 720h168l-52 -241h84zM265 364l-53 -249h107q70 0 112 42t42 111q0 50 -32 73t-91 23h-85zM966 720l-153 -720h-168l153 720h168z" />
            <glyph glyph-name="afii10046" unicode="&#x42c;" horiz-adv-x="666"
           d="M373 479q141 0 207.5 -54.5t66.5 -147.5q0 -139 -90 -208t-256 -69h-281l153 720h168l-52 -241h84zM265 364l-53 -249h107q70 0 112 42t42 111q0 50 -32 73t-91 23h-85z" />
            <glyph glyph-name="afii10047" unicode="&#x42d;" horiz-adv-x="741"
           d="M341 421h231q2 11 2 20v19q0 41 -10.5 71t-28.5 49.5t-43 28.5t-55 9q-58 0 -97.5 -32.5t-68.5 -100.5h-168q45 122 131 186t212 64q69 0 124.5 -19.5t95 -57t61 -91.5t21.5 -122q0 -24 -2.5 -49.5t-8.5 -53.5q-20 -93 -55.5 -160t-85 -111t-112 -65t-135.5 -21
q-68 0 -123.5 15.5t-94.5 46.5t-60.5 77t-21.5 107q0 8 0.5 17t1.5 17h171q-3 -20 -3 -35q0 -66 38 -96.5t101 -30.5q59 0 107.5 46t81.5 156h-231z" />
            <glyph glyph-name="afii10048" unicode="&#x42e;" horiz-adv-x="1061"
           d="M657 -15q-57 0 -111 18.5t-95 56t-66 93t-25 130.5v21h-108l-64 -304h-168l153 720h168l-63 -296h103q24 91 64.5 151t91.5 95.5t110 50t121 14.5q56 0 110 -17.5t96 -54.5t68 -93t26 -133q0 -40 -7.5 -88.5t-25 -99t-48 -98t-76 -84.5t-108.5 -59.5t-146 -22.5zM674 104
q42 0 75 17.5t57.5 46.5t41.5 65.5t28 74.5t15.5 74t4.5 63q0 47 -12 80t-32 53.5t-45.5 29.5t-51.5 9q-43 0 -76 -18t-58 -47.5t-42 -66.5t-28 -75t-15.5 -74t-4.5 -63q0 -47 12.5 -79t32.5 -52t46 -29t52 -9z" />
            <glyph glyph-name="afii10049" unicode="&#x42f;" horiz-adv-x="684"
           d="M-35 0l243 297q-44 23 -70.5 61t-26.5 95q0 49 16.5 97t54 85.5t99 61t151.5 23.5h305l-153 -720h-168l56 263h-98l-212 -263h-197zM288 470q0 -40 27.5 -65.5t73.5 -25.5h107l48 225h-105q-40 0 -68.5 -10.5t-47 -28.5t-27 -42.5t-8.5 -52.5z" />
            <glyph glyph-name="afii10065" unicode="&#x430;" horiz-adv-x="580"
           d="M83 370q35 78 103 121.5t173 43.5q48 0 86 -11.5t64.5 -32.5t41 -50.5t14.5 -65.5q0 -22 -4 -41l-71 -334h-122l-8 54q-32 -29 -78.5 -49t-108.5 -20q-69 0 -110 34.5t-41 97.5q0 39 13 70t41.5 55.5t75 41.5t113.5 28l139 22l2 9q3 13 3.5 19t0.5 11q0 29 -19 45t-53 16
q-38 0 -61 -17.5t-34 -46.5h-160zM241 92q53 0 89 29.5t44 70.5l12 57l-99 -19q-63 -12 -84.5 -33t-21.5 -54q0 -23 15.5 -37t44.5 -14z" />
            <glyph glyph-name="afii10066" unicode="&#x431;" horiz-adv-x="609"
           d="M663 720q-12 -56 -73.5 -86.5t-171.5 -55.5q-71 -17 -112 -52.5t-67 -99.5q15 15 34.5 27.5t40 21.5t41.5 14t40 5q42 0 78.5 -15t62.5 -42.5t41 -66t15 -84.5q0 -49 -16 -102t-52.5 -97.5t-97.5 -73t-151 -28.5q-116 0 -173.5 58.5t-57.5 164.5q0 32 4.5 73.5t17 87
t33.5 91t55 84.5t82 68t113 42q66 13 103.5 28.5t42.5 37.5h168zM341 388q-40 0 -67.5 -19.5t-44 -48t-23.5 -62t-7 -61.5q0 -53 25.5 -80t66.5 -27q40 0 66.5 20t43 49t23.5 63t7 61q0 53 -25.5 79t-64.5 26z" />
            <glyph glyph-name="afii10067" unicode="&#x432;" horiz-adv-x="575"
           d="M15 0l110 520h230q115 0 166 -31t51 -87q0 -53 -39 -86.5t-107 -42.5q54 -8 83 -41.5t29 -71.5q0 -72 -64.5 -116t-206.5 -44h-252zM216 217l-24 -109h91q51 0 75 15.5t24 44.5q0 23 -16 36t-42 13h-108zM257 412l-19 -92h102q29 0 49 13.5t20 39.5q0 17 -16 28t-49 11
h-87z" />
            <glyph glyph-name="afii10068" unicode="&#x433;" horiz-adv-x="422"
           d="M482 520l-23 -107h-201l-87 -413h-156l110 520h357z" />
            <glyph glyph-name="afii10069" unicode="&#x434;" horiz-adv-x="623"
           d="M33 108q8 6 15.5 13.5t14 18.5t13 27t12.5 40l82 313h458l-88 -412h69l-52 -248h-149l30 140h-334l-30 -140h-148l51 248h56zM243 208q-10 -37 -28.5 -59.5t-45.5 -40.5h216l65 304h-155z" />
            <glyph glyph-name="afii10070" unicode="&#x435;" horiz-adv-x="602"
           d="M558 151q-17 -36 -39 -66.5t-54.5 -52.5t-76 -34.5t-101.5 -12.5q-53 0 -98 15.5t-77 45t-50 71t-18 93.5q0 24 5 57t17.5 69.5t34.5 72t57 63.5t84 45.5t115 17.5q52 0 95 -13.5t73.5 -40.5t47.5 -68.5t17 -96.5q0 -41 -11 -94h-379q-1 -5 -1 -10v-10q0 -54 28 -81
t75 -27q37 0 60.5 15.5t36.5 41.5h159zM350 437q-42 0 -76 -28.5t-55 -95.5h219q3 18 3 34q0 48 -24 69t-67 21z" />
            <glyph glyph-name="afii10072" unicode="&#x436;" horiz-adv-x="816"
           d="M251 520l73 -196h34l42 196h156l-42 -196h38l149 196h162l-188 -240l101 -280h-170l-68 217h-46l-46 -217h-156l46 217h-50l-156 -217h-170l222 300l-89 220h158z" />
            <glyph glyph-name="afii10073" unicode="&#x437;" horiz-adv-x="556"
           d="M351 535q100 0 152.5 -37t52.5 -92q0 -50 -37 -85t-108 -45q53 -7 80.5 -39t27.5 -76q0 -39 -17 -71.5t-49.5 -55.5t-79.5 -36t-107 -13q-55 0 -97 14t-71 38.5t-44 58.5t-16 74h164q4 -43 23.5 -61t54.5 -18q32 0 55 19t23 51q0 23 -20.5 39.5t-67.5 16.5h-28l22 103h36
q42 0 67.5 16.5t25.5 45.5q0 19 -16.5 33t-45.5 14q-32 0 -58 -17.5t-41 -48.5h-164q15 37 41 68.5t62 54.5t81 36t99 13z" />
            <glyph glyph-name="afii10074" unicode="&#x438;"
           d="M15 0l110 520h156l-60 -277l232 243l7 34h155l-110 -520h-155l59 276l-232 -245l-6 -31h-156z" />
            <glyph glyph-name="afii10075" unicode="&#x439;"
           d="M15 0l110 520h156l-60 -277l232 243l7 34h155l-110 -520h-155l59 276l-232 -245l-6 -31h-156zM392 574q-31 0 -59 6t-49 18.5t-33.5 32t-12.5 48.5q0 2 0.5 5t0.5 6h124v-4q0 -16 11 -22t25 -6t27 7t19 25h124q-22 -63 -69.5 -89.5t-107.5 -26.5z" />
            <glyph glyph-name="afii10076" unicode="&#x43a;" horiz-adv-x="585"
           d="M15 0l110 520h156l-42 -196h34l195 196h171l-244 -248l160 -272h-182l-123 217h-33l-46 -217h-156z" />
            <glyph glyph-name="afii10077" unicode="&#x43b;" horiz-adv-x="615"
           d="M630 520l-110 -520h-155l87 413h-155l-69 -236q-15 -51 -35.5 -85t-51 -54.5t-72.5 -29t-99 -8.5l23 112q19 0 33 3.5t24 12t17 23t14 37.5l100 332h449z" />
            <glyph glyph-name="afii10078" unicode="&#x43c;" horiz-adv-x="714"
           d="M261 30l-34 300l-70 -330h-142l110 520h191l37 -325l168 325h208l-110 -520h-152l70 331l-158 -301h-118z" />
            <glyph glyph-name="afii10079" unicode="&#x43d;" horiz-adv-x="601"
           d="M281 520l-40 -187h179l40 187h156l-110 -520h-156l48 226h-179l-48 -226h-156l110 520h156z" />
            <glyph glyph-name="afii10080" unicode="&#x43e;" horiz-adv-x="620"
           d="M359 535q56 0 101.5 -15t78 -43t50 -69t17.5 -93q0 -29 -5 -64.5t-18 -72.5t-35.5 -71.5t-58 -61.5t-85 -43.5t-115.5 -16.5q-57 0 -102.5 15t-77.5 43.5t-49 69.5t-17 94q0 31 5 67.5t18 73t35.5 70t57.5 60t84.5 42t115.5 15.5zM350 430q-34 0 -58 -13t-40 -34
t-26 -46.5t-15 -50.5t-6.5 -47t-1.5 -35q0 -59 28 -86.5t70 -27.5q33 0 56.5 13t40 34t26.5 47t15 52t7 49t2 37q0 58 -27.5 83t-70.5 25z" />
            <glyph glyph-name="afii10081" unicode="&#x43f;" horiz-adv-x="601"
           d="M616 520l-110 -520h-156l87 413h-179l-87 -413h-156l110 520h491z" />
            <glyph glyph-name="afii10082" unicode="&#x440;" horiz-adv-x="635"
           d="M327 -15q-43 0 -83.5 17.5t-62.5 46.5l-49 -229h-156l149 700h118l18 -61q35 34 76 55t95 21q43 0 79 -15t61 -43t39 -67t14 -87q0 -73 -22.5 -135t-62 -107t-94.5 -70.5t-119 -25.5zM368 421q-47 0 -77 -26t-47 -61.5t-23.5 -72t-6.5 -57.5q0 -55 29 -80t74 -25
q42 0 70.5 21.5t45.5 53.5t24.5 68.5t7.5 67.5q0 56 -26.5 83.5t-70.5 27.5z" />
            <glyph glyph-name="afii10083" unicode="&#x441;" horiz-adv-x="590"
           d="M556 173q-17 -40 -41 -74.5t-57 -59.5t-77.5 -39.5t-102.5 -14.5q-121 0 -179 54.5t-58 150.5q0 52 14.5 112t50.5 112t96.5 86.5t152.5 34.5q52 0 96 -12.5t75.5 -36t49.5 -55.5t19 -71h-164q-2 32 -26.5 50.5t-54.5 18.5q-45 0 -73.5 -26t-45 -62t-22.5 -74t-6 -62
q0 -56 24.5 -85t59.5 -29t59 19.5t46 62.5h164z" />
            <glyph glyph-name="afii10084" unicode="&#x442;" horiz-adv-x="489"
           d="M80 520h469l-23 -107h-157l-87 -413h-156l87 413h-156z" />
            <glyph glyph-name="afii10085" unicode="&#x443;" horiz-adv-x="571"
           d="M636 520l-304 -541q-29 -51 -53 -84.5t-49 -53.5t-53 -28t-64 -8q-20 0 -46 4t-46 11l24 109q23 -8 37.5 -10.5t28.5 -2.5q26 0 47 19.5t38 64.5h-44l-77 520h161l29 -406l210 406h161z" />
            <glyph glyph-name="afii10086" unicode="&#x444;" horiz-adv-x="934"
           d="M644 -15q-18 0 -37 4t-37 11t-33 17t-25 22l-46 -219h-156l46 217q-30 -24 -63 -38t-68 -14q-41 0 -74.5 15.5t-57.5 44.5t-37.5 69.5t-13.5 90.5q0 23 4.5 56t16 70t31.5 73.5t50.5 65.5t73 47t98.5 18q18 0 37 -4t37.5 -11.5t34 -18t25.5 -23.5l52 242h156l-51 -237
q30 24 65.5 38t72.5 14q40 0 73.5 -14.5t56.5 -41.5t36 -65.5t13 -86.5q0 -49 -14.5 -108.5t-47.5 -111.5t-86.5 -87t-131.5 -35zM421 319q0 51 -23 76.5t-59 25.5q-41 0 -68 -23t-42.5 -55t-21.5 -66.5t-6 -58.5q0 -57 24.5 -88t61.5 -31t62.5 25t41.5 59.5t23 72t7 63.5z
M542 199q0 -53 22 -76.5t57 -23.5q38 0 65 22t44.5 55t26 70.5t8.5 67.5q0 54 -23.5 80.5t-59.5 26.5q-40 0 -66.5 -25.5t-43 -61t-23.5 -73t-7 -62.5z" />
            <glyph glyph-name="afii10087" unicode="&#x445;" horiz-adv-x="574"
           d="M388 276l141 -276h-180l-69 161l-142 -161h-173l252 274l-132 246h175l63 -136l120 136h169z" />
            <glyph glyph-name="afii10088" unicode="&#x446;" horiz-adv-x="611"
           d="M528 108h70l-52 -248h-149l30 140h-412l110 520h156l-88 -413h179l88 413h156z" />
            <glyph glyph-name="afii10089" unicode="&#x447;" horiz-adv-x="595"
           d="M275 520l-44 -210q-3 -14 -3 -24q0 -32 19.5 -48.5t52.5 -16.5q41 0 72.5 29.5t42.5 83.5l39 186h156l-109 -520h-156l36 168q-71 -57 -154 -57q-76 0 -116.5 40t-40.5 111q0 30 7 61l42 197h156z" />
            <glyph glyph-name="afii10090" unicode="&#x448;" horiz-adv-x="809"
           d="M15 0l110 520h156l-88 -412h115l88 412h156l-88 -412h116l88 412h156l-110 -520h-699z" />
            <glyph glyph-name="afii10091" unicode="&#x449;" horiz-adv-x="819"
           d="M15 0l110 520h156l-88 -412h115l88 412h156l-88 -412h116l88 412h156l-88 -412h70l-52 -248h-149l30 140h-620z" />
            <glyph glyph-name="afii10092" unicode="&#x44a;" horiz-adv-x="680"
           d="M364 375h97q90 0 138.5 -43t48.5 -113q0 -53 -19 -93.5t-53.5 -68.5t-84.5 -42.5t-111 -14.5h-251l86 413h-158l23 107h315zM343 277l-37 -177h61q54 0 86.5 26.5t32.5 77.5q0 34 -22 53.5t-67 19.5h-54z" />
            <glyph glyph-name="afii10093" unicode="&#x44b;" horiz-adv-x="796"
           d="M281 520l-31 -145h97q90 0 138.5 -43t48.5 -113q0 -53 -19 -93.5t-53.5 -68.5t-84.5 -42.5t-111 -14.5h-251l110 520h156zM229 277l-37 -177h61q54 0 86.5 26.5t32.5 77.5q0 34 -22 53.5t-67 19.5h-54zM545 0l110 520h156l-110 -520h-156z" />
            <glyph glyph-name="afii10094" unicode="&#x44c;" horiz-adv-x="566"
           d="M281 520l-31 -145h97q90 0 138.5 -43t48.5 -113q0 -53 -19 -93.5t-53.5 -68.5t-84.5 -42.5t-111 -14.5h-251l110 520h156zM229 277l-37 -177h61q54 0 86.5 26.5t32.5 77.5q0 34 -22 53.5t-67 19.5h-54z" />
            <glyph glyph-name="afii10095" unicode="&#x44d;" horiz-adv-x="591"
           d="M191 173q4 -43 29.5 -62.5t60.5 -19.5q40 0 69 31t49 100h-146l19 91h143q0 5 0.5 9.5t0.5 9.5q0 53 -25 75t-62 22q-33 0 -58.5 -19.5t-40.5 -49.5h-163q15 36 40.5 68t60.5 56t80 37.5t100 13.5q52 0 94.5 -16t72.5 -45.5t46.5 -71t16.5 -91.5q0 -73 -22 -133
t-62.5 -103t-98.5 -66.5t-131 -23.5q-59 0 -103 14.5t-73.5 39.5t-45 59.5t-16.5 74.5h165z" />
            <glyph glyph-name="afii10096" unicode="&#x44e;" horiz-adv-x="851"
           d="M281 520l-40 -187h77q32 104 102 153t183 49q54 0 97.5 -14.5t74.5 -42.5t48 -68.5t17 -92.5q0 -53 -14 -111.5t-49.5 -107.5t-94.5 -81t-149 -32q-113 0 -174.5 55.5t-61.5 160.5v25h-78l-48 -226h-156l110 520h156zM592 430q-46 0 -73 -27t-41 -64t-18 -76.5t-4 -63.5
q0 -56 23.5 -82.5t65.5 -26.5q43 0 70 26t42 63.5t20.5 78.5t5.5 70q0 54 -24 78t-67 24z" />
            <glyph glyph-name="afii10097" unicode="&#x44f;" horiz-adv-x="584"
           d="M-20 0l179 188q-43 19 -66.5 53t-23.5 79q0 102 68.5 151t196.5 49h265l-110 -520h-156l37 175h-53l-159 -175h-178zM391 274l31 147h-88q-50 0 -76 -20.5t-26 -62.5q0 -28 20.5 -46t63.5 -18h75z" />
            <glyph glyph-name="uni0450" unicode="&#x450;" horiz-adv-x="602"
           d="M558 151q-17 -36 -39 -66.5t-54.5 -52.5t-76 -34.5t-101.5 -12.5q-53 0 -98 15.5t-77 45t-50 71t-18 93.5q0 24 5 57t17.5 69.5t34.5 72t57 63.5t84 45.5t115 17.5q52 0 95 -13.5t73.5 -40.5t47.5 -68.5t17 -96.5q0 -41 -11 -94h-379q-1 -5 -1 -10v-10q0 -54 28 -81
t75 -27q37 0 60.5 15.5t36.5 41.5h159zM350 437q-42 0 -76 -28.5t-55 -95.5h219q3 18 3 34q0 48 -24 69t-67 21zM448 583h-116l-119 137h164z" />
            <glyph glyph-name="afii10071" unicode="&#x451;" horiz-adv-x="602"
           d="M558 151q-17 -36 -39 -66.5t-54.5 -52.5t-76 -34.5t-101.5 -12.5q-53 0 -98 15.5t-77 45t-50 71t-18 93.5q0 24 5 57t17.5 69.5t34.5 72t57 63.5t84 45.5t115 17.5q52 0 95 -13.5t73.5 -40.5t47.5 -68.5t17 -96.5q0 -41 -11 -94h-379q-1 -5 -1 -10v-10q0 -54 28 -81
t75 -27q37 0 60.5 15.5t36.5 41.5h159zM350 437q-42 0 -76 -28.5t-55 -95.5h219q3 18 3 34q0 48 -24 69t-67 21zM197 592l28 128h148l-28 -128h-148zM427 592l28 128h148l-28 -128h-148z" />
            <glyph glyph-name="afii10099" unicode="&#x452;" horiz-adv-x="601"
           d="M136 570h-40l22 106h40l10 44h156l-10 -44h132l-22 -106h-132l-21 -97q31 28 71.5 45t84.5 17q76 0 117.5 -40t41.5 -111q0 -28 -6 -58l-77 -360q-16 -75 -63 -118t-132 -43q-11 0 -25.5 1.5t-29 4t-27.5 6t-22 7.5l23 109q16 -6 33.5 -9.5t28.5 -3.5q26 0 40.5 12.5
t20.5 41.5l74 350q4 17 4 33q0 35 -19.5 51.5t-50.5 16.5q-42 0 -76 -29t-45 -83l-66 -313h-156z" />
            <glyph glyph-name="afii10100" unicode="&#x453;" horiz-adv-x="422"
           d="M482 520l-23 -107h-201l-87 -413h-156l110 520h357zM358 720h174l-179 -137h-126z" />
            <glyph glyph-name="afii10101" unicode="&#x454;" horiz-adv-x="590"
           d="M556 173q-18 -40 -41.5 -74.5t-56 -59.5t-76.5 -39.5t-102 -14.5q-55 0 -99.5 15.5t-75.5 44t-47.5 69t-16.5 90.5q0 28 5.5 63.5t18.5 72.5t35.5 72t57.5 62.5t82.5 44t111.5 16.5q52 0 96.5 -12.5t77 -36t51 -55.5t18.5 -71h-164q-2 32 -27.5 50.5t-55.5 18.5
q-41 0 -69.5 -26.5t-51.5 -89.5h143l-19 -91h-146q-1 -8 -1.5 -15t-0.5 -13q0 -53 26 -78t61 -25t57.5 19.5t44.5 62.5h164z" />
            <glyph glyph-name="afii10102" unicode="&#x455;" horiz-adv-x="523"
           d="M252 91q45 0 64 12.5t19 36.5q0 11 -5 20.5t-17.5 18.5t-34 17t-54.5 16q-32 8 -60.5 20t-49.5 30.5t-33.5 44t-12.5 59.5q0 80 54 124.5t180 44.5q51 0 92 -11t70.5 -31.5t45 -50t15.5 -66.5h-157q0 24 -18 38.5t-56 14.5q-36 0 -50.5 -10.5t-14.5 -31.5q0 -18 20 -35.5
t76 -33.5q34 -9 65.5 -21.5t55.5 -30t38.5 -42t14.5 -58.5q0 -86 -58 -133.5t-193 -47.5q-52 0 -95 11.5t-73.5 32t-47 49t-16.5 63.5v6h157q0 -25 21 -40.5t58 -15.5z" />
            <glyph glyph-name="afii10103" unicode="&#x456;" horiz-adv-x="286"
           d="M143 587l29 133h168l-29 -133h-168zM25 0l110 520h156l-110 -520h-156z" />
            <glyph glyph-name="afii10104" unicode="&#x457;" horiz-adv-x="286"
           d="M25 0l110 520h156l-110 -520h-156zM40 592l28 128h148l-28 -128h-148zM270 592l28 128h148l-28 -128h-148z" />
            <glyph glyph-name="afii10105" unicode="&#x458;" horiz-adv-x="277"
           d="M-109 -67q16 -6 33.5 -9.5t28.5 -3.5q26 0 40.5 12.5t20.5 41.5l116 546h156l-118 -554q-16 -75 -63.5 -118t-132.5 -43q-11 0 -25.5 1.5t-29 4t-27.5 6t-22 7.5zM138 587l29 133h168l-29 -133h-168z" />
            <glyph glyph-name="afii10106" unicode="&#x459;" horiz-adv-x="912"
           d="M627 520l-31 -145h97q90 0 138.5 -43t48.5 -113q0 -53 -19 -93.5t-53.5 -68.5t-84.5 -42.5t-111 -14.5h-251l87 413h-151l-69 -236q-15 -51 -35.5 -85t-51 -54.5t-72.5 -29t-99 -8.5l23 112q19 0 33 3.5t24 12t17 23t14 37.5l100 332h446zM575 277l-37 -177h61
q54 0 86.5 26.5t32.5 77.5q0 34 -22 53.5t-67 19.5h-54z" />
            <glyph glyph-name="afii10107" unicode="&#x45a;" horiz-adv-x="891"
           d="M606 520l-31 -145h97q90 0 138.5 -43t48.5 -113q0 -53 -19 -93.5t-53.5 -68.5t-84.5 -42.5t-111 -14.5h-251l48 226h-169l-48 -226h-156l110 520h156l-40 -187h169l40 187h156zM554 277l-37 -177h61q54 0 86.5 26.5t32.5 77.5q0 34 -22 53.5t-67 19.5h-54z" />
            <glyph glyph-name="afii10108" unicode="&#x45b;" horiz-adv-x="601"
           d="M136 570h-40l22 106h40l10 44h156l-10 -44h132l-22 -106h-132l-21 -97q31 28 71.5 45t84.5 17q76 0 117.5 -40t41.5 -111q0 -28 -6 -58l-69 -326h-156l69 324q4 17 4 33q0 35 -19.5 51.5t-50.5 16.5q-42 0 -76 -29t-45 -83l-66 -313h-156z" />
            <glyph glyph-name="afii10109" unicode="&#x45c;" horiz-adv-x="585"
           d="M15 0l110 520h156l-42 -196h34l195 196h171l-244 -248l160 -272h-182l-123 217h-33l-46 -217h-156zM419 720h174l-179 -137h-126z" />
            <glyph glyph-name="uni045D" unicode="&#x45d;"
           d="M15 0l110 520h156l-60 -277l232 243l7 34h155l-110 -520h-155l59 276l-232 -245l-6 -31h-156zM447 583h-116l-119 137h164z" />
            <glyph glyph-name="afii10110" unicode="&#x45e;" horiz-adv-x="571"
           d="M636 520l-304 -541q-29 -51 -53 -84.5t-49 -53.5t-53 -28t-64 -8q-20 0 -46 4t-46 11l24 109q23 -8 37.5 -10.5t28.5 -2.5q26 0 47 19.5t38 64.5h-44l-77 520h161l29 -406l210 406h161zM382 574q-31 0 -59 6t-49 18.5t-33.5 32t-12.5 48.5q0 2 0.5 5t0.5 6h124v-4
q0 -16 11 -22t25 -6t27 7t19 25h124q-22 -63 -69.5 -89.5t-107.5 -26.5z" />
            <glyph glyph-name="afii10193" unicode="&#x45f;" horiz-adv-x="601"
           d="M335 0l-30 -140h-149l30 140h-171l110 520h156l-88 -412h179l88 412h156l-110 -520h-171z" />
            <glyph glyph-name="afii10146" unicode="&#x462;" horiz-adv-x="803"
           d="M510 479q141 0 207.5 -54.5t66.5 -147.5q0 -139 -90 -208t-256 -69h-281l126 594h-192l27 126h553l-27 -126h-193l-25 -115h84zM402 364l-53 -249h107q70 0 112 42t42 111q0 50 -32 73t-91 23h-85z" />
            <glyph glyph-name="afii10194" unicode="&#x463;" horiz-adv-x="566"
           d="M271 474l-21 -99h97q90 0 138.5 -43t48.5 -113q0 -53 -19 -93.5t-53.5 -68.5t-84.5 -42.5t-111 -14.5h-251l100 474h-79l23 108h79l18 83h156l-18 -83h107l-23 -108h-107zM229 277l-37 -177h61q54 0 86.5 26.5t32.5 77.5q0 34 -22 53.5t-67 19.5h-54z" />
            <glyph glyph-name="afii10147" unicode="&#x472;" horiz-adv-x="784"
           d="M371 -15q-57 0 -112.5 17.5t-98.5 54t-69.5 92.5t-26.5 133q0 49 9 101.5t29.5 102.5t53 95.5t79 79.5t108 54t139.5 20q57 0 112.5 -18t99 -54.5t70.5 -93t27 -134.5q0 -43 -8 -93t-27 -100t-50 -96.5t-77.5 -82t-110.5 -57t-147 -21.5zM388 104q43 0 77 16.5t60 44.5
t44.5 64t29.5 75h-362q-1 -8 -1 -15v-12q0 -48 13.5 -81t35 -53.5t48.5 -29.5t55 -9zM469 617q-43 0 -77 -16t-60 -43t-44 -62t-30 -72h361q1 5 1 9v9q0 48 -13 81.5t-34.5 54t-48.5 30t-55 9.5z" />
            <glyph glyph-name="afii10195" unicode="&#x473;" horiz-adv-x="620"
           d="M359 535q56 0 101.5 -15t78 -43t50 -69t17.5 -93q0 -29 -5 -64.5t-18 -72.5t-35.5 -71.5t-58 -61.5t-85 -43.5t-115.5 -16.5q-57 0 -102.5 15t-77.5 43.5t-49 69.5t-17 94q0 31 5 67.5t18 73t35.5 70t57.5 60t84.5 42t115.5 15.5zM301 90q30 0 52.5 11.5t38.5 30t26.5 42
t16.5 47.5h-231q-1 -5 -1 -10v-7q0 -59 28 -86.5t70 -27.5zM350 430q-30 0 -52 -10t-38 -26.5t-26.5 -38t-16.5 -43.5h231v10q0 58 -27.5 83t-70.5 25z" />
            <glyph glyph-name="afii10148" unicode="&#x474;" horiz-adv-x="661"
           d="M774 720l-383 -720h-201l-77 720h166l36 -589l290 589h169z" />
            <glyph glyph-name="afii10196" unicode="&#x475;" horiz-adv-x="566"
           d="M631 520l-290 -520h-197l-69 520h163l28 -405l198 405h167z" />
            <glyph glyph-name="afii10050" unicode="&#x490;" horiz-adv-x="507"
           d="M643 856l-55 -262h-274l-126 -594h-168l153 720h281l28 136h161z" />
            <glyph glyph-name="afii10098" unicode="&#x491;" horiz-adv-x="422"
           d="M333 520l31 145h149l-54 -252h-201l-87 -413h-156l110 520h208z" />
            <glyph glyph-name="uni0492" unicode="&#x492;" horiz-adv-x="537"
           d="M618 594h-274l-37 -173h152l-25 -116h-152l-64 -305h-168l64 305h-90l25 116h90l64 299h442z" />
            <glyph glyph-name="uni0493" unicode="&#x493;" horiz-adv-x="422"
           d="M482 520l-23 -107h-201l-19 -93h110l-23 -107h-110l-45 -213h-156l45 213h-49l23 107h49l42 200h357z" />
            <glyph glyph-name="uni0496" unicode="&#x496;" horiz-adv-x="986"
           d="M326 720l92 -299h40l64 299h168l-64 -299h41l209 299h185l-262 -347l99 -251h78l-55 -262h-161l29 140h-30l-108 305h-50l-64 -305h-168l64 305h-58l-220 -305h-195l308 393l-117 327h175z" />
            <glyph glyph-name="uni0497" unicode="&#x497;" horiz-adv-x="826"
           d="M251 520l73 -196h34l42 196h156l-42 -196h38l149 196h162l-188 -240l62 -172h79l-52 -248h-149l29 140h-38l-68 217h-46l-46 -217h-156l46 217h-50l-156 -217h-170l222 300l-89 220h158z" />
            <glyph glyph-name="uni0498" unicode="&#x498;" horiz-adv-x="619"
           d="M322 -40q32 -9 49.5 -32t17.5 -54q0 -29 -11.5 -53.5t-31.5 -42t-49 -27t-63 -9.5q-67 0 -106 30.5t-39 81.5v9h100q0 -14 9.5 -27.5t38.5 -13.5q24 0 36 11t12 28q0 18 -18 29t-56 11l27 87q-96 10 -148 58t-52 116v10q0 5 1 10h165v-7q0 -32 22.5 -52.5t75.5 -20.5
t87.5 35t34.5 98q0 45 -30 67.5t-80 22.5h-65l22 107h84q56 0 89 31t33 79q0 34 -26 57t-68 23q-84 0 -113 -71h-162q15 41 40.5 75t62.5 58t86 37.5t110 13.5q48 0 92 -12t77 -34t53 -53.5t20 -70.5q0 -68 -50.5 -117t-138.5 -62q32 -5 57 -20.5t42 -38t26 -50.5t9 -57
q0 -44 -17 -83.5t-50.5 -71t-83.5 -52t-115 -26.5z" />
            <glyph glyph-name="uni0499" unicode="&#x499;" horiz-adv-x="556"
           d="M303 -40q32 -9 49.5 -32t17.5 -54q0 -29 -11.5 -53.5t-31.5 -42t-49 -27t-63 -9.5q-67 0 -106 30.5t-39 81.5v9h100q0 -14 9.5 -27.5t38.5 -13.5q24 0 36 11t12 28q0 18 -18 29t-56 11l27 87q-87 11 -133.5 61t-47.5 121h164q4 -43 23.5 -61t54.5 -18q32 0 55 19t23 51
q0 23 -20.5 39.5t-67.5 16.5h-28l22 103h36q42 0 67.5 16.5t25.5 45.5q0 19 -16.5 33t-45.5 14q-32 0 -58 -17.5t-41 -48.5h-164q15 37 41 68.5t62 54.5t81 36t99 13q100 0 152.5 -37t52.5 -92q0 -50 -37 -85t-108 -45q53 -7 80.5 -39t27.5 -76q0 -72 -55 -118.5t-155 -55.5
z" />
            <glyph glyph-name="uni049A" unicode="&#x49a;" horiz-adv-x="716"
           d="M469 364l137 -242h100l-55 -262h-161l29 140h-35l-164 305h-68l-64 -305h-168l153 720h168l-64 -299h64l263 299h187z" />
            <glyph glyph-name="uni049B" unicode="&#x49b;" horiz-adv-x="597"
           d="M15 0l110 520h156l-42 -196h34l195 196h171l-244 -248l96 -164h101l-52 -248h-149l29 140h-47l-123 217h-33l-46 -217h-156z" />
            <glyph glyph-name="uni049C" unicode="&#x49c;" horiz-adv-x="760"
           d="M415 591l-37 -170h7l263 299h187l-322 -356l207 -364h-192l-164 305h-10l-45 -212h-79l45 212h-23l-64 -305h-168l153 720h168l-64 -299h22l37 170h79z" />
            <glyph glyph-name="uni049D" unicode="&#x49d;" horiz-adv-x="611"
           d="M350 401l-16 -75l157 194h174l-219 -248l135 -272h-182l-92 202l-31 -149h-73l35 164h-21l-46 -217h-156l110 520h156l-42 -196h21l17 77h73z" />
            <glyph glyph-name="uni04A0" unicode="&#x4a0;" horiz-adv-x="875"
           d="M436 421h64l263 299h187l-322 -356l207 -364h-192l-164 305h-68l-64 -305h-168l126 594h-209l27 126h377z" />
            <glyph glyph-name="uni04A1" unicode="&#x4a1;" horiz-adv-x="699"
           d="M129 0l87 413h-159l23 107h315l-42 -196h34l195 196h171l-244 -248l160 -272h-182l-123 217h-33l-46 -217h-156z" />
            <glyph glyph-name="uni04A2" unicode="&#x4a2;" horiz-adv-x="732"
           d="M776 720l-128 -598h80l-55 -262h-161l30 140h-86l64 304h-268l-64 -304h-168l153 720h168l-63 -296h268l63 296h167z" />
            <glyph glyph-name="uni04A3" unicode="&#x4a3;" horiz-adv-x="611"
           d="M281 520l-40 -187h179l40 187h156l-88 -412h70l-52 -248h-149l30 140h-77l48 226h-179l-48 -226h-156l110 520h156z" />
            <glyph glyph-name="uni04AA" unicode="&#x4aa;" horiz-adv-x="741"
           d="M524 18q-23 -9 -51 -21.5t-52.5 -28.5t-41 -37t-16.5 -48q0 -19 11 -30.5t28 -11.5q25 0 36 22h107q-23 -48 -64.5 -79t-109.5 -31q-54 0 -88 29t-34 74q0 43 27 74.5t70 54.5q-135 2 -208.5 76.5t-73.5 211.5q0 47 8.5 100t27.5 104.5t50.5 98t77.5 82t108.5 56.5
t143.5 21q57 0 108.5 -15.5t90.5 -45.5t62 -74t23 -102v-13h-168q0 68 -34.5 100.5t-92.5 32.5q-45 0 -79 -18t-59.5 -47t-43 -66t-28 -76t-15 -76t-4.5 -65q0 -45 10 -76.5t28 -51.5t41.5 -29.5t50.5 -9.5q69 0 114 38.5t69 123.5h171q-16 -52 -39.5 -93t-50.5 -72
t-55.5 -51.5t-54.5 -30.5z" />
            <glyph glyph-name="uni04AB" unicode="&#x4ab;" horiz-adv-x="590"
           d="M447 -137q-23 -48 -64.5 -79t-109.5 -31q-54 0 -88 29t-34 74q0 44 27.5 75.5t71.5 54.5q-107 7 -158 60t-51 144q0 52 14.5 112t50.5 112t96.5 86.5t152.5 34.5q52 0 96 -12.5t75.5 -36t49.5 -55.5t19 -71h-164q-2 32 -26.5 50.5t-54.5 18.5q-45 0 -73.5 -26t-45 -62
t-22.5 -74t-6 -62q0 -56 24.5 -85t59.5 -29t59 19.5t46 62.5h164q-11 -24 -24 -47t-33.5 -45t-49 -42.5t-70.5 -39.5q-21 -10 -41.5 -21.5t-36.5 -25.5t-26 -31t-10 -38q0 -19 11 -30.5t28 -11.5q25 0 36 22h107z" />
            <glyph glyph-name="uni04AE" unicode="&#x4ae;" horiz-adv-x="668"
           d="M215 0l61 287l-163 433h173l95 -293l233 293h167l-347 -433l-61 -287h-158z" />
            <glyph glyph-name="uni04AF" unicode="&#x4af;" horiz-adv-x="566"
           d="M126 -180l39 180l-90 520h163l32 -388l194 388h167l-310 -520l-39 -180h-156z" />
            <glyph glyph-name="uni04B0" unicode="&#x4b0;" horiz-adv-x="668"
           d="M215 0l54 256h-123l25 116h73l-131 348h173l95 -293l233 293h167l-279 -348h79l-25 -116h-129l-54 -256h-158z" />
            <glyph glyph-name="uni04B1" unicode="&#x4b1;" horiz-adv-x="566"
           d="M126 -180l39 180h-91l22 108h50l-71 412h163l32 -388l194 388h167l-246 -412h56l-22 -108h-98l-39 -180h-156z" />
            <glyph glyph-name="uni04B2" unicode="&#x4b2;" horiz-adv-x="709"
           d="M482 384l118 -262h89l-55 -262h-161l29 140h-43l-104 244l-205 -244h-185l334 373l-165 347h193l96 -215l188 215h178z" />
            <glyph glyph-name="uni04B3" unicode="&#x4b3;" horiz-adv-x="574"
           d="M388 276l86 -168h107l-52 -248h-149l29 140h-60l-69 161l-142 -161h-173l252 274l-132 246h175l63 -136l120 136h169z" />
            <glyph glyph-name="uni04B8" unicode="&#x4b8;" horiz-adv-x="668"
           d="M439 591l-53 -250q46 16 75.5 55.5t40.5 87.5l51 236h168l-153 -720h-168l62 292q-47 -42 -100 -62l-29 -137h-79l26 122q-94 2 -142 50t-48 137q0 43 10 89l48 229h168l-54 -250q-6 -29 -6 -52q0 -31 12 -51.5t38 -28.5l54 253h79z" />
            <glyph glyph-name="uni04B9" unicode="&#x4b9;" horiz-adv-x="595"
           d="M275 520l-44 -210q-3 -14 -3 -24q0 -45 37 -59l37 174h73l-37 -173q27 11 47.5 37.5t29.5 68.5l39 186h156l-109 -520h-156l36 168q-32 -26 -64 -39l-16 -76h-73l12 58h-13q-76 0 -116.5 40t-40.5 111q0 30 7 61l42 197h156z" />
            <glyph glyph-name="uni04BA" unicode="&#x4ba;" horiz-adv-x="673"
           d="M20 0l153 720h168l-63 -292q43 37 90 57t96 20q91 0 139 -49t48 -139q0 -42 -10 -88l-48 -229h-168l53 250q5 28 5 47q0 42 -20 65.5t-64 23.5q-30 0 -56.5 -11.5t-47.5 -31t-35.5 -45.5t-20.5 -55l-51 -243h-168z" />
            <glyph glyph-name="uni04BB" unicode="&#x4bb;" horiz-adv-x="601"
           d="M168 720h156l-66 -307q31 28 71.5 45t84.5 17q76 0 117.5 -40t41.5 -111q0 -28 -6 -58l-56 -266h-156l56 264q4 16 4 33q0 35 -19.5 51.5t-50.5 16.5q-42 0 -76 -29t-45 -83l-53 -253h-156z" />
            <glyph glyph-name="uni04C0" unicode="&#x4c0;" horiz-adv-x="288"
           d="M341 720l-153 -720h-168l153 720h168z" />
            <glyph glyph-name="uni04CB" unicode="&#x4cb;" horiz-adv-x="678"
           d="M721 720l-127 -598h79l-55 -262h-161l29 140h-86l62 292q-40 -35 -85.5 -56t-90.5 -21q-97 0 -146.5 48t-49.5 139q0 43 10 89l48 229h168l-54 -250q-6 -29 -6 -52q0 -39 19.5 -61.5t62.5 -22.5q33 0 60 12.5t48 33t35.5 47.5t20.5 57l51 236h168z" />
            <glyph glyph-name="uni04CC" unicode="&#x4cc;" horiz-adv-x="605"
           d="M275 520l-44 -210q-3 -14 -3 -24q0 -32 19.5 -48.5t52.5 -16.5q41 0 72.5 29.5t42.5 83.5l39 186h156l-87 -412h70l-52 -248h-149l29 140h-76l36 168q-71 -57 -154 -57q-76 0 -116.5 40t-40.5 111q0 30 7 61l42 197h156z" />
            <glyph glyph-name="uni04CF" unicode="&#x4cf;" horiz-adv-x="266"
           d="M171 0h-156l153 720h156z" />
            <glyph glyph-name="uni04D8" unicode="&#x4d8;" horiz-adv-x="746"
           d="M357 -15q-65 0 -117.5 16.5t-89.5 51.5t-57 90.5t-20 133.5q0 50 9 112h494q3 20 5 37.5t2 33.5q0 41 -10 70.5t-27.5 49t-41 29t-51.5 9.5q-60 0 -98 -29t-62 -76h-168q53 109 135.5 165.5t210.5 56.5q65 0 117 -20.5t89 -58t56.5 -90.5t19.5 -119q0 -48 -9.5 -101
t-30 -104t-52 -98t-75.5 -82t-101 -56t-128 -21zM365 103q58 0 105 40.5t76 129.5h-302q-2 -13 -3 -24.5t-1 -22.5q0 -64 32.5 -93.5t92.5 -29.5z" />
            <glyph glyph-name="afii10846" unicode="&#x4d9;" horiz-adv-x="607"
           d="M79 369q16 36 39.5 66.5t56.5 52.5t77.5 34.5t103.5 12.5q53 0 97 -17t75.5 -47t48.5 -72t17 -93q0 -49 -16 -105.5t-53 -104.5t-98 -79.5t-152 -31.5q-52 0 -94 13t-72 40t-46 67.5t-16 95.5q0 22 2.5 46.5t8.5 50.5h378q1 6 1 12v11q0 55 -27 80t-72 25
q-37 0 -62.5 -15.5t-37.5 -41.5h-159zM285 83q44 0 77 28t55 96h-220q-3 -20 -3 -35q0 -47 24 -68t67 -21z" />
            <glyph glyph-name="uni04E2" unicode="&#x4e2;" horiz-adv-x="723"
           d="M776 720l-153 -720h-167l92 434l-347 -370l-13 -64h-168l153 720h168l-93 -433l347 370l14 63h167zM356 798l24 112h270l-24 -112h-270z" />
            <glyph glyph-name="uni04E3" unicode="&#x4e3;"
           d="M15 0l110 520h156l-60 -277l232 243l7 34h155l-110 -520h-155l59 276l-232 -245l-6 -31h-156zM256 608l24 112h270l-24 -112h-270z" />
            <glyph glyph-name="uni04E8" unicode="&#x4e8;" horiz-adv-x="784"
           d="M371 -15q-57 0 -112.5 17.5t-98.5 54t-69.5 92.5t-26.5 133q0 49 9 101.5t29.5 102.5t53 95.5t79 79.5t108 54t139.5 20q57 0 112.5 -18t99 -54.5t70.5 -93t27 -134.5q0 -43 -8 -93t-27 -100t-50 -96.5t-77.5 -82t-110.5 -57t-147 -21.5zM388 104q43 0 77 16.5t60 44.5
t44.5 64t29.5 75h-362q-1 -8 -1 -15v-12q0 -48 13.5 -81t35 -53.5t48.5 -29.5t55 -9zM469 617q-43 0 -77 -16t-60 -43t-44 -62t-30 -72h361q1 5 1 9v9q0 48 -13 81.5t-34.5 54t-48.5 30t-55 9.5z" />
            <glyph glyph-name="uni04E9" unicode="&#x4e9;" horiz-adv-x="620"
           d="M359 535q56 0 101.5 -15t78 -43t50 -69t17.5 -93q0 -29 -5 -64.5t-18 -72.5t-35.5 -71.5t-58 -61.5t-85 -43.5t-115.5 -16.5q-57 0 -102.5 15t-77.5 43.5t-49 69.5t-17 94q0 31 5 67.5t18 73t35.5 70t57.5 60t84.5 42t115.5 15.5zM301 90q30 0 52.5 11.5t38.5 30t26.5 42
t16.5 47.5h-231q-1 -5 -1 -10v-7q0 -59 28 -86.5t70 -27.5zM350 430q-30 0 -52 -10t-38 -26.5t-26.5 -38t-16.5 -43.5h231v10q0 58 -27.5 83t-70.5 25z" />
            <glyph glyph-name="uni04EE" unicode="&#x4ee;" horiz-adv-x="618"
           d="M404 168q-30 -51 -55.5 -86t-51.5 -56.5t-56 -31t-70 -9.5q-38 0 -78 15l25 115q23 -8 36 -9.5t23 -1.5q25 0 43 17.5t36 56.5h-50l-93 542h160l54 -426l235 426h169zM311 798l24 112h270l-24 -112h-270z" />
            <glyph glyph-name="uni04EF" unicode="&#x4ef;" horiz-adv-x="571"
           d="M636 520l-304 -541q-29 -51 -53 -84.5t-49 -53.5t-53 -28t-64 -8q-20 0 -46 4t-46 11l24 109q23 -8 37.5 -10.5t28.5 -2.5q26 0 47 19.5t38 64.5h-44l-77 520h161l29 -406l210 406h161zM243 608l24 112h270l-24 -112h-270z" />
            <glyph glyph-name="Wgrave" unicode="&#x1e80;" horiz-adv-x="985"
           d="M1098 720l-314 -720h-198l-16 556l-246 -556h-191l-20 720h164v-532l235 532h187l17 -535l218 535h164zM670 773h-116l-119 137h164z" />
            <glyph glyph-name="wgrave" unicode="&#x1e81;" horiz-adv-x="860"
           d="M920 520l-253 -520h-195v380l-173 -380h-189l-30 520h155v-391l175 391h186l-1 -393l173 393h152zM577 583h-116l-119 137h164z" />
            <glyph glyph-name="Wacute" unicode="&#x1e82;" horiz-adv-x="985"
           d="M1098 720l-314 -720h-198l-16 556l-246 -556h-191l-20 720h164v-532l235 532h187l17 -535l218 535h164zM681 910h174l-179 -137h-126z" />
            <glyph glyph-name="wacute" unicode="&#x1e83;" horiz-adv-x="860"
           d="M920 520l-253 -520h-195v380l-173 -380h-189l-30 520h155v-391l175 391h186l-1 -393l173 393h152zM583 720h174l-179 -137h-126z" />
            <glyph glyph-name="Wdieresis" unicode="&#x1e84;" horiz-adv-x="985"
           d="M1098 720l-314 -720h-198l-16 556l-246 -556h-191l-20 720h164v-532l235 532h187l17 -535l218 535h164zM422 782l28 128h148l-28 -128h-148zM652 782l28 128h148l-28 -128h-148z" />
            <glyph glyph-name="wdieresis" unicode="&#x1e85;" horiz-adv-x="860"
           d="M920 520l-253 -520h-195v380l-173 -380h-189l-30 520h155v-391l175 391h186l-1 -393l173 393h152zM323 592l28 128h148l-28 -128h-148zM553 592l28 128h148l-28 -128h-148z" />
            <glyph glyph-name="Ygrave" unicode="&#x1ef2;" horiz-adv-x="668"
           d="M215 0l61 287l-163 433h173l95 -293l233 293h167l-347 -433l-61 -287h-158zM521 773h-116l-119 137h164z" />
            <glyph glyph-name="ygrave" unicode="&#x1ef3;" horiz-adv-x="571"
           d="M636 520l-304 -541q-29 -51 -53 -84.5t-49 -53.5t-53 -28t-64 -8q-20 0 -46 4t-46 11l24 109q23 -8 37.5 -10.5t28.5 -2.5q26 0 47 19.5t38 64.5h-44l-77 520h161l29 -406l210 406h161zM415 583h-116l-119 137h164z" />
            <glyph glyph-name="uni2007" unicode="&#x2007;"
            />
            <glyph glyph-name="uni2008" unicode="&#x2008;" horiz-adv-x="289"
            />
            <glyph glyph-name="uni200B" unicode="&#x200b;" horiz-adv-x="0"
            />
            <glyph glyph-name="figuredash" unicode="&#x2012;" horiz-adv-x="540"
           d="M466 261h-440l26 123h440z" />
            <glyph glyph-name="endash" unicode="&#x2013;" horiz-adv-x="400"
           d="M415 261h-400l26 123h400z" />
            <glyph glyph-name="emdash" unicode="&#x2014;"
           d="M615 261h-600l26 123h600z" />
            <glyph glyph-name="afii00208" unicode="&#x2015;" horiz-adv-x="400"
           d="M415 261h-400l26 123h400z" />
            <glyph glyph-name="underscoredbl" unicode="&#x2017;" horiz-adv-x="544"
           d="M495 -322h-543l26 123h543zM530 -149h-543l26 123h543z" />
            <glyph glyph-name="quoteleft" unicode="&#x2018;" horiz-adv-x="270"
           d="M108 527q12 58 38.5 94t60 57t70.5 30t70 12l-17 -78q-39 -8 -67.5 -34t-37.5 -71h63l-34 -157h-177z" />
            <glyph glyph-name="quoteright" unicode="&#x2019;" horiz-adv-x="270"
           d="M315 573q-12 -58 -39 -94t-60.5 -57t-70 -30t-69.5 -12l17 78q39 8 67 34t38 71h-63l34 157h177z" />
            <glyph glyph-name="quotesinglbase" unicode="&#x201a;" horiz-adv-x="270"
           d="M195 10q-12 -58 -38.5 -94t-60 -57t-70 -30t-68.5 -12l15 78q40 8 68 34t38 71h-63l33 157h177z" />
            <glyph glyph-name="quotereversed" unicode="&#x201b;" horiz-adv-x="270"
           d="M151 720h177l-34 -157h-63q-3 -15 -3 -28q0 -32 17 -51t47 -26l-17 -78q-26 6 -53.5 17.5t-50.5 31t-37.5 48t-14.5 68.5q0 11 1 23t4 25z" />
            <glyph glyph-name="quotedblleft" unicode="&#x201c;" horiz-adv-x="507"
           d="M345 527q12 58 38.5 94t60 57t70.5 30t70 12l-17 -78q-39 -8 -67.5 -34t-37.5 -71h63l-34 -157h-177zM125 527q12 58 38.5 94t60 57t70.5 30t70 12l-17 -78q-39 -8 -67.5 -34t-37.5 -71h63l-34 -157h-177z" />
            <glyph glyph-name="quotedblright" unicode="&#x201d;" horiz-adv-x="507"
           d="M535 573q-12 -58 -38.5 -94t-60 -57t-70.5 -30t-70 -12l17 78q39 8 67 34t38 71h-63l34 157h177zM315 573q-12 -58 -39 -94t-60.5 -57t-70 -30t-69.5 -12l17 78q39 8 67 34t38 71h-63l34 157h177z" />
            <glyph glyph-name="quotedblbase" unicode="&#x201e;" horiz-adv-x="490"
           d="M415 10q-12 -58 -38.5 -94t-60 -57t-70 -30t-69.5 -12l16 78q40 8 68 34t38 71h-63l33 157h177zM195 10q-12 -58 -38.5 -94t-60 -57t-70 -30t-68.5 -12l15 78q40 8 68 34t38 71h-63l33 157h177z" />
            <glyph glyph-name="dagger" unicode="&#x2020;" horiz-adv-x="560"
           d="M467 720l-39 -180h176l-26 -123h-176l-88 -417h-129l88 417h-175l26 123h175l39 180h129z" />
            <glyph glyph-name="daggerdbl" unicode="&#x2021;" horiz-adv-x="540"
           d="M447 720l-32 -149h176l-26 -123h-176l-38 -176h176l-26 -123h-176l-31 -149h-129l31 149h-175l26 123h175l38 176h-175l26 123h175l32 149h129z" />
            <glyph glyph-name="bullet" unicode="&#x2022;" horiz-adv-x="335"
           d="M53 206l48 225h235l-48 -225h-235z" />
            <glyph glyph-name="ellipsis" unicode="&#x2026;" horiz-adv-x="867"
           d="M265 0l33 157h177l-33 -157h-177zM-23 0l33 157h177l-33 -157h-177zM554 0l33 157h177l-33 -157h-177z" />
            <glyph glyph-name="perthousand" unicode="&#x2030;" horiz-adv-x="1189"
           d="M251 0h-124l490 700h124zM436 567q0 -42 -13 -77t-37 -60t-59 -39t-80 -14q-78 0 -120.5 39t-42.5 107q0 88 49 140t139 52q78 0 121 -39.5t43 -108.5zM330 565q0 72 -61 72q-36 0 -57.5 -28t-21.5 -85q0 -69 59 -69q38 0 59.5 30.5t21.5 79.5zM786 174q0 -42 -13 -77
t-37 -60t-59 -39t-80 -14q-78 0 -120.5 39t-42.5 107q0 88 49 140t139 52q78 0 121 -39.5t43 -108.5zM680 172q0 72 -61 72q-36 0 -57.5 -28t-21.5 -85q0 -69 59 -69q38 0 59.5 30.5t21.5 79.5zM1176 174q0 -42 -13 -77t-37 -60t-59 -39t-80 -14q-78 0 -120.5 39t-42.5 107
q0 88 49 140t139 52q78 0 121 -39.5t43 -108.5zM1070 172q0 72 -61 72q-36 0 -57.5 -28t-21.5 -85q0 -69 59 -69q38 0 59.5 30.5t21.5 79.5z" />
            <glyph glyph-name="minute" unicode="&#x2032;" horiz-adv-x="270"
           d="M239 490h-100l37 153l20 92h130l-20 -92z" />
            <glyph glyph-name="second" unicode="&#x2033;"
           d="M245 490h-100l37 153l20 92h130l-20 -92zM425 490h-100l37 153l20 92h130l-20 -92z" />
            <glyph glyph-name="guilsinglleft" unicode="&#x2039;" horiz-adv-x="336"
           d="M71 315l173 205h117l-137 -208l36 -222h-110z" />
            <glyph glyph-name="guilsinglright" unicode="&#x203a;" horiz-adv-x="336"
           d="M151 90h-117l130 222l-49 208h110l92 -205z" />
            <glyph glyph-name="exclamdbl" unicode="&#x203c;" horiz-adv-x="620"
           d="M92 240l80 495h198l-130 -495h-148zM26 0l33 157h177l-33 -157h-177zM402 240l80 495h198l-130 -495h-148zM336 0l33 157h177l-33 -157h-177z" />
            <glyph glyph-name="uni203E" unicode="&#x203e;" horiz-adv-x="544"
           d="M617 559h-543l26 123h543z" />
            <glyph glyph-name="fraction" unicode="&#x2044;" horiz-adv-x="232"
           d="M-201 -93l610 880h128l-609 -880h-129z" />
            <glyph glyph-name="uni2070" unicode="&#x2070;" horiz-adv-x="430"
           d="M224 284q-70 0 -108.5 36.5t-38.5 111.5q0 50 11.5 105.5t38.5 101.5t70 76t106 30q69 0 108.5 -35t39.5 -114q0 -49 -12 -104t-38.5 -101t-70 -76.5t-106.5 -30.5zM233 369q28 0 48 28.5t32.5 67.5t18 78.5t5.5 61.5q0 32 -10.5 44t-28.5 12q-29 0 -49 -25.5t-33 -62.5
t-19 -78t-6 -71q0 -32 11 -43.5t31 -11.5z" />
            <glyph glyph-name="uni2074" unicode="&#x2074;" horiz-adv-x="437"
           d="M379 461h56l-18 -86h-56l-17 -81h-109l17 81h-198l20 93l227 267h137zM177 461h93l41 161z" />
            <glyph glyph-name="uni2075" unicode="&#x2075;" horiz-adv-x="424"
           d="M436 649h-181l-21 -75q19 12 36.5 16t37.5 4q53 0 84.5 -25.5t31.5 -81.5q0 -33 -11 -68.5t-35 -65.5t-62.5 -49.5t-93.5 -19.5q-81 0 -119.5 37t-37.5 94h116q-1 -19 9.5 -31t35.5 -12q21 0 35.5 10t23 25t12.5 32.5t4 33.5q0 23 -11.5 32t-33.5 9q-11 0 -25.5 -4.5
t-31.5 -18.5h-98l64 244h290z" />
            <glyph glyph-name="uni2076" unicode="&#x2076;" horiz-adv-x="428"
           d="M311 745q68 0 106 -28.5t40 -79.5h-114q-2 11 -10 18.5t-28 7.5q-26 0 -50 -23.5t-43 -83.5q20 18 46.5 27t53.5 9q55 0 85.5 -30t30.5 -80q0 -34 -11.5 -69t-36 -63.5t-62.5 -47t-90 -18.5q-73 0 -114 38.5t-41 103.5q0 17 2.5 38t6.5 42q14 66 37.5 111.5t53 74t65 41
t73.5 12.5zM263 506q-21 0 -35 -9.5t-22 -23t-11 -28.5t-3 -27q0 -23 11 -35.5t31 -12.5q21 0 34.5 9.5t22 23.5t11.5 30.5t3 31.5q0 41 -42 41z" />
            <glyph glyph-name="uni2077" unicode="&#x2077;" horiz-adv-x="391"
           d="M64 294l249 352h-202l20 89h316l-19 -88l-230 -353h-134z" />
            <glyph glyph-name="uni2078" unicode="&#x2078;" horiz-adv-x="434"
           d="M306 745q31 0 58 -6.5t47.5 -19.5t32 -32t11.5 -43q0 -35 -24 -67.5t-84 -50.5q37 -12 57.5 -35.5t20.5 -58.5q0 -22 -10.5 -48t-34.5 -48t-62 -37t-93 -15q-79 0 -121.5 32t-42.5 83q0 38 27.5 73.5t92.5 55.5q-29 13 -45.5 36t-16.5 50q0 22 9.5 45.5t31.5 42.5
t57.5 31t88.5 12zM299 667q-35 0 -50 -19.5t-15 -42.5q0 -39 46 -52q24 12 41 29.5t17 51.5q0 17 -11.5 25t-27.5 8zM249 496q-35 -19 -48 -40.5t-13 -41.5t11 -32.5t34 -12.5q33 0 51 18.5t18 48.5q0 23 -14.5 36.5t-38.5 23.5z" />
            <glyph glyph-name="uni2079" unicode="&#x2079;" horiz-adv-x="428"
           d="M298 745q71 0 112 -31t41 -105q0 -17 -2 -36.5t-7 -42.5q-28 -131 -85.5 -188.5t-146.5 -57.5q-69 0 -107.5 29.5t-41.5 79.5h123q0 -12 10.5 -19t26.5 -7q31 0 51.5 24t40.5 83q-22 -19 -46.5 -28t-50.5 -9q-55 0 -87.5 30.5t-32.5 82.5q0 33 11.5 68t36 63t63 46
t91.5 18zM290 658q-20 0 -34 -9t-22.5 -22.5t-12 -30t-3.5 -31.5q0 -24 11.5 -33t31.5 -9q22 0 35.5 10.5t21.5 25t11 30.5t3 27q0 25 -11.5 33.5t-30.5 8.5z" />
            <glyph glyph-name="uni207F" unicode="&#x207f;" horiz-adv-x="423"
           d="M336 726q51 0 81 -24t30 -75q0 -21 -6 -46l-49 -230h-125l50 233q2 10 2 14q0 16 -9.5 25.5t-29.5 9.5q-26 0 -45.5 -16.5t-27.5 -50.5l-46 -215h-125l77 364h107v-37q52 48 116 48z" />
            <glyph glyph-name="franc" unicode="&#x20a3;" horiz-adv-x="597"
           d="M349 577l-34 -164h251l-25 -118h-251l-14 -67h156l-23 -108h-156l-26 -120h-167l25 120h-49l23 108h49l99 472h448l-26 -123h-280z" />
            <glyph glyph-name="lira" unicode="&#x20a4;" horiz-adv-x="607"
           d="M483 525q2 38 -13.5 55t-46.5 17q-36 0 -57.5 -24t-32.5 -73l-7 -35h171l-20 -98h-172l-11 -51h148l-22 -104h-148l-3 -13q-5 -24 -20.5 -42t-44.5 -30h329l-27 -127h-496l26 124q33 9 50.5 27.5t22.5 42.5l4 18h-51l22 104h51l11 51h-51l21 98h51l8 36q23 108 88 161
t171 53q46 0 83.5 -13t63.5 -38t38.5 -60t9.5 -79h-146z" />
            <glyph glyph-name="peseta" unicode="&#x20a7;" horiz-adv-x="1082"
           d="M933 296q2 42 -44 42q-23 0 -35.5 -11t-12.5 -31q0 -13 13.5 -21.5t47.5 -18.5q69 -20 95.5 -49t26.5 -66q0 -26 -9 -54t-31.5 -50.5t-61 -37t-97.5 -14.5q-32 0 -57 6t-44 17q-36 -15 -62 -19t-47 -4q-31 0 -52.5 8t-35 21t-19.5 30t-6 35q0 8 1.5 17.5t3.5 15.5l44 207
h-75q-37 -29 -90 -46t-128 -17h-30l-55 -256h-160l149 700h163q118 0 183 -47.5t65 -133.5q0 -32 -6.5 -56t-17.5 -50h22l32 100h114l-21 -100h116q34 12 86 12q36 0 65.5 -9t50 -26t31.5 -41t10 -53h-122zM276 374q39 0 65 10t42 27.5t23 39.5t7 46q0 44 -25.5 64t-70.5 20
h-20l-44 -207h23zM896 122q0 14 -11.5 24.5t-47.5 20.5q-69 19 -97 46.5t-28 63.5q0 19 5 42h-40l-44 -205q-1 -3 -2 -8.5t-1 -9.5q0 -9 5.5 -14t19.5 -5q8 0 16 2q-3 10 -4 20t-1 21h122q0 -25 11.5 -36.5t37.5 -11.5q25 0 42 13.5t17 36.5z" />
            <glyph glyph-name="Euro" unicode="&#x20ac;"
           d="M342 103q74 0 104 70h152q-15 -41 -40 -75.5t-59 -59.5t-77.5 -39t-95.5 -14q-35 0 -76 12t-78 40.5t-63 76t-30 118.5h-66l39 94h30q3 25 9 56h-46l39 94h35q18 46 45 89t66 76.5t91 53.5t120 20q50 0 91.5 -13.5t71.5 -37.5t46.5 -57.5t16.5 -72.5v-10h-152
q0 35 -23.5 54.5t-60.5 19.5q-51 0 -86 -35.5t-58 -86.5h196l-39 -94h-188q-3 -14 -5.5 -28t-4.5 -28h174l-39 -94h-142q0 -37 8 -62t21.5 -40t32.5 -21t41 -6z" />
            <glyph glyph-name="afii61248" unicode="&#x2105;" horiz-adv-x="972"
           d="M129 -93l610 880h128l-609 -880h-129zM460 484q-23 -66 -72 -105t-128 -39q-85 0 -127.5 40t-42.5 109q0 37 12 78.5t39 76.5t71 58.5t109 23.5q77 0 119.5 -36t40.5 -98h-126q1 25 -11.5 34.5t-33.5 9.5q-25 0 -42.5 -14.5t-28.5 -36.5t-16 -48t-5 -49q0 -27 12 -42.5
t38 -15.5q23 0 38 12.5t25 41.5h129zM791 376q79 0 125 -37t46 -107q0 -40 -12 -83t-39 -78t-71.5 -58t-110.5 -23q-81 0 -126.5 38.5t-45.5 107.5q0 41 12 83.5t39 77.5t72 57t111 22zM782 287q-29 0 -48 -15t-30 -36.5t-15.5 -46.5t-4.5 -45q0 -31 13.5 -48t41.5 -17
q29 0 48 15t30 37.5t15 47.5t4 46q0 29 -13.5 45.5t-40.5 16.5z" />
            <glyph glyph-name="afii61289" unicode="&#x2113;" horiz-adv-x="519"
           d="M557 610q0 -43 -15 -91t-51.5 -99t-97 -104.5t-150.5 -108.5q0 -34 5 -55.5t13.5 -34t21 -17t28.5 -4.5q18 0 41 7.5t40 19.5l24 -101q-27 -15 -57.5 -26t-74.5 -11q-65 0 -108.5 38t-54.5 117q-20 -11 -42 -20.5t-45 -20.5l26 121q31 15 60 30q3 53 13 109.5t26.5 110
t40.5 102t56.5 84.5t73.5 57.5t91 21.5q34 0 59.5 -9.5t42.5 -26.5t25.5 -40t8.5 -49zM253 333q55 40 90.5 78.5t56 72.5t28.5 62.5t8 49.5q0 17 -9.5 26.5t-23.5 9.5q-29 0 -53 -27.5t-43 -70.5t-32.5 -96.5t-21.5 -104.5z" />
            <glyph glyph-name="afii61352" unicode="&#x2116;" horiz-adv-x="1245"
           d="M774 720l-153 -720h-173l-175 521l-109 -521h-144l153 720h186l166 -499l106 499h143zM1143 0h-399l26 123h399zM1025 295q-35 0 -69 8t-61 27.5t-43.5 53.5t-16.5 85q0 44 11.5 91t39.5 86t75 64t117 25q34 0 68 -7t61 -26t43.5 -51.5t16.5 -83.5q0 -43 -10.5 -90.5
t-38 -88t-74.5 -67t-119 -26.5zM1070 641q-29 0 -46.5 -18.5t-27.5 -45.5t-13.5 -57.5t-3.5 -54.5q0 -76 55 -76q27 0 44.5 18.5t27.5 46t14 58.5t4 56q0 39 -13.5 56t-40.5 17z" />
            <glyph glyph-name="trademark" unicode="&#x2122;" horiz-adv-x="840"
           d="M617 324l-75 240v-240h-111v300h-96v-300h-117v300h-120v96h495l75 -250l65 250h170v-396h-113v240l-74 -240h-99z" />
            <glyph glyph-name="Omega" unicode="&#x2126;" horiz-adv-x="781"
           d="M439 121q30 1 55 17.5t45 43t34.5 60t24 68.5t14.5 69t5 61q0 48 -12.5 81.5t-32.5 54.5t-46 31t-54 10q-70 0 -116.5 -37.5t-74.5 -92.5t-40 -116.5t-12 -109.5q0 -39 8 -65.5t20 -43t27 -24t29 -7.5l-25 -121h-260l25 121h85q-28 34 -49.5 85t-21.5 108q0 29 6 71.5
t22.5 89t46 93.5t75.5 84t111 60t153 23q60 0 115.5 -17t98 -52.5t68.5 -90.5t26 -130q0 -59 -12 -106t-33 -86t-49.5 -71t-60.5 -61h62l-25 -121h-261l25 121h4z" />
            </font>
</defs>
</svg>
