<?xml version="1.0" standalone="no"?>
<!DOCTYPE svg PUBLIC "-//W3C//DTD SVG 1.1//EN" "http://www.w3.org/Graphics/SVG/1.1/DTD/svg11.dtd" >
<svg>
<metadata>
Created by FontForge 20120731 at Mon Mar 31 14:10:07 2014
 By tam,,,
Copyright (c) 2010-2013 by Ralph du Carrois, Erik Spiekermann &#38; Botio Nikoltchev. All rights reserved.
</metadata>
<defs>
<font id="CiscoSansTT-CondensedBold" horiz-adv-x="560" >
  <font-face 
    font-family="CiscoSansTT Condensed"
    font-weight="700"
    font-stretch="condensed"
    units-per-em="1000"
    panose-1="2 11 8 6 2 2 0 2 3 3"
    ascent="790"
    descent="-210"
    x-height="520"
    cap-height="720"
    bbox="-152 -362 1038 1000"
    underline-thickness="85"
    underline-position="-6"
    unicode-range="U+0020-FEFF"
  />
<missing-glyph horiz-adv-x="529" 
d="M42 720h445v-720h-445v720zM364 123v474h-199v-474h199z" />
    <glyph glyph-name="f_f" unicode="ff" horiz-adv-x="618" 
d="M511 412v-412h-154v412h-135v-412h-154v412h-69v108h69v28q0 48 14 81.5t37.5 55t54.5 31t64 9.5q40 0 77.5 -6.5t86.5 -24.5q20 21 49 31t62 10q37 0 65.5 -5.5t49.5 -11.5v-110q-21 6 -39.5 9.5t-30.5 3.5q-26 0 -36.5 -12.5t-10.5 -44.5v-44h93v-108h-93zM357 520v58
q0 10 1 20q-22 5 -42.5 9t-32.5 4q-35 0 -48 -12.5t-13 -44.5v-34h135z" />
    <glyph glyph-name="f_f_i" unicode="ffi" horiz-adv-x="847" 
d="M548 735q49 0 89 -6t61 -12v-110q-21 6 -52.5 10t-53.5 4q-27 0 -43 -4.5t-24.5 -13t-11 -21t-2.5 -28.5v-34h294v-520h-155v412h-139v-412h-154v412h-135v-412h-154v412h-69v108h69v28q0 89 45 133t121 44q42 0 83 -7t94 -27q50 44 137 44zM222 520h135v28q0 14 0.5 26
t2.5 23q-21 6 -45 10t-36 4q-35 0 -46 -12.5t-11 -44.5v-34z" />
    <glyph glyph-name="f_f_j" unicode="ffj" horiz-adv-x="848" 
d="M560 735q46 0 82 -6t57 -12v-110q-11 3 -25 5.5t-28.5 4.5t-27.5 3t-21 1q-47 0 -66.5 -13t-19.5 -45v-43h295v-549q0 -75 -41 -120.5t-119 -45.5q-23 0 -48.5 4t-42.5 11v109q14 -5 29.5 -7t24.5 -2q23 0 32.5 12.5t9.5 41.5v438h-140v-412h-154v412h-135v-412h-154v412
h-69v108h69v28q0 48 14 81.5t37.5 55t54.5 31t64 9.5q39 0 75.5 -6.5t85.5 -24.5q20 21 59 31t102 10zM357 598q-21 5 -42 9t-32 4q-35 0 -48 -12.5t-13 -44.5v-34h135v78z" />
    <glyph glyph-name="f_f_l" unicode="ffl" horiz-adv-x="854" 
d="M539 735q38 0 69 -3.5t52 -8.5l152 6v-729h-155v613q-18 4 -39 6t-35 2q-32 0 -52 -14t-20 -46v-41h97v-108h-97v-412h-154v412h-135v-412h-154v412h-69v108h69v28q0 48 14 81.5t37.5 55t54.5 31t64 9.5q39 0 75.5 -6.5t85.5 -24.5q20 21 51.5 31t88.5 10zM357 598
q-21 5 -42 9t-32 4q-35 0 -48 -12.5t-13 -44.5v-34h135v78z" />
    <glyph glyph-name="f_i" unicode="fi" horiz-adv-x="558" 
d="M409 607q-21 6 -52.5 10t-53.5 4q-27 0 -43 -4t-24.5 -12.5t-11 -21t-2.5 -29.5v-34h294v-520h-155v412h-139v-412h-154v412h-69v108h69v28q0 96 51 141.5t140 45.5q49 0 89 -6t61 -12v-110z" />
    <glyph glyph-name="f_j" unicode="fj" horiz-adv-x="558" 
d="M361 412h-139v-412h-154v412h-69v108h69v28q0 48 14.5 83t40.5 58.5t61.5 34.5t77.5 11q46 0 86 -6t61 -12v-110q-11 3 -25 5.5t-28.5 4.5t-27.5 3t-22 1q-52 0 -68 -16.5t-16 -50.5v-34h294v-549q0 -75 -41 -120.5t-119 -45.5q-23 0 -48.5 4t-42.5 11v109q14 -5 29.5 -7
t24.5 -2q23 0 32.5 12.5t9.5 41.5v438z" />
    <glyph glyph-name="f_l" unicode="fl" horiz-adv-x="565" 
d="M368 0v613q-18 4 -39 6t-35 2q-24 0 -38.5 -4.5t-22 -13t-9.5 -21t-2 -28.5v-35h85v-108h-85v-411h-154v411h-69v108h69v29q0 48 13.5 83t37.5 58.5t57.5 34.5t73.5 11q38 0 69 -3.5t52 -8.5l152 6v-729h-155z" />
    <glyph glyph-name=".notdef" horiz-adv-x="529" 
d="M42 720h445v-720h-445v720zM364 123v474h-199v-474h199z" />
    <glyph glyph-name=".null" horiz-adv-x="0" 
 />
    <glyph glyph-name="nonmarkingreturn" horiz-adv-x="210" 
 />
    <glyph glyph-name="space" unicode=" " horiz-adv-x="210" 
 />
    <glyph glyph-name="exclam" unicode="!" horiz-adv-x="275" 
d="M61 240l-22 480h197l-22 -480h-153zM50 0v157h174v-157h-174z" />
    <glyph glyph-name="quotedbl" unicode="&#x22;" horiz-adv-x="462" 
d="M172 490h-96l-13 153v92h122v-92zM334 490h-96l-13 153v92h122v-92z" />
    <glyph glyph-name="numbersign" unicode="#" 
d="M80 540h55l12 160h122l-11 -160h74l12 160h122l-11 -160h42v-110h-52l-11 -160h46v-110h-54l-12 -160h-123l12 160h-75l-11 -160h-123l12 160h-43v110h51l12 160h-46v110zM237 270h74l12 160h-75z" />
    <glyph glyph-name="dollar" unicode="$" 
d="M525 201q0 -97 -47 -148.5t-140 -65.5v-122h-124v124q-80 12 -125 65.5t-55 156.5h155q11 -110 96 -110q36 0 56.5 20.5t20.5 62.5q0 21 -5 37.5t-18 30t-35.5 24.5t-58.5 22q-51 15 -87.5 33.5t-59.5 44t-34 59t-11 78.5q0 85 42 135.5t119 61.5v120h124v-118
q75 -11 118 -61.5t53 -135.5h-153q-7 46 -26.5 65.5t-47.5 19.5q-32 0 -48 -19t-16 -51q0 -36 18.5 -58t69.5 -39q60 -19 101.5 -41.5t67.5 -50t38 -62t12 -78.5z" />
    <glyph glyph-name="percent" unicode="%" horiz-adv-x="677" 
d="M256 0h-116l280 700h116zM316 546q0 -77 -35 -123t-117 -46t-117 46t-35 123t35 123t117 46t117 -46t35 -123zM216 546q0 46 -10.5 68.5t-41.5 22.5t-41.5 -22.5t-10.5 -68.5t10.5 -68.5t41.5 -22.5t41.5 22.5t10.5 68.5zM665 154q0 -77 -35 -123t-117 -46t-117 46
t-35 123t35 123t117 46t117 -46t35 -123zM565 154q0 46 -10.5 68.5t-41.5 22.5t-41.5 -22.5t-10.5 -68.5t10.5 -68.5t41.5 -22.5t41.5 22.5t10.5 68.5z" />
    <glyph glyph-name="ampersand" unicode="&#x26;" horiz-adv-x="589" 
d="M562 325q-5 -44 -16 -83.5t-30 -81.5l71 -82l-97 -93l-54 65q-29 -30 -73 -47.5t-90 -17.5q-66 0 -111.5 14.5t-74 40t-41 60t-12.5 75.5q0 27 4.5 50.5t16.5 46t32 44.5t51 47q-45 47 -65.5 88.5t-20.5 92.5q0 37 11.5 68.5t36 54t62 35.5t89.5 13q97 0 146 -42.5
t49 -118.5q0 -28 -6 -52.5t-19 -48.5t-35 -48t-53 -49l74 -93q5 20 7.5 39.5t4.5 41.5zM279 98q43 0 70 38l-116 135q-18 -23 -23.5 -41.5t-5.5 -43.5q0 -45 21.5 -66.5t53.5 -21.5zM200 544q0 -26 9.5 -48t34.5 -51q16 16 27 28.5t17.5 24.5t9 25t2.5 28q0 35 -13 50.5
t-36 15.5q-25 0 -38 -17t-13 -56z" />
    <glyph glyph-name="quotesingle" unicode="'" horiz-adv-x="232" 
d="M164 490h-96l-13 153v92h122v-92z" />
    <glyph glyph-name="parenleft" unicode="(" horiz-adv-x="293" 
d="M164 320q0 -58 6 -116t20 -118t37 -123.5t58 -132.5h-132q-23 39 -46.5 92t-42.5 116t-31.5 134t-12.5 148q0 76 12.5 147.5t31.5 134.5t42.5 116t46.5 92h132q-35 -69 -58 -132.5t-37 -123.5t-20 -118t-6 -116z" />
    <glyph glyph-name="parenright" unicode=")" horiz-adv-x="293" 
d="M129 320q0 58 -6 116t-20 118t-37 123.5t-58 132.5h132q22 -39 46 -92t43 -116t31.5 -134.5t12.5 -147.5q0 -77 -12.5 -148t-31.5 -134t-43 -116t-46 -92h-132q35 69 58 132.5t37 123.5t20 118t6 116z" />
    <glyph glyph-name="asterisk" unicode="*" horiz-adv-x="470" 
d="M234 475l-50 -119l-112 82l92 88l-130 10l44 132l112 -60l-30 127h138l-23 -129l115 62l44 -132l-131 -10l93 -88l-112 -82z" />
    <glyph glyph-name="plus" unicode="+" 
d="M345 527v-143h128v-123h-128v-144h-131v144h-127v123h127v143h131z" />
    <glyph glyph-name="comma" unicode="," horiz-adv-x="270" 
d="M233 30q0 -58 -18.5 -97t-47.5 -64t-64 -37t-67 -15v78q38 8 60.5 34t22.5 71h-63v157h177v-127z" />
    <glyph glyph-name="hyphen" unicode="-" horiz-adv-x="464" 
d="M399 261h-334v123h334v-123z" />
    <glyph glyph-name="period" unicode="." horiz-adv-x="289" 
d="M56 0v157h177v-157h-177z" />
    <glyph glyph-name="slash" unicode="/" horiz-adv-x="272" 
d="M125 -90h-135l158 825h134z" />
    <glyph glyph-name="zero" unicode="0" 
d="M279 91q19 0 33.5 11.5t23.5 41t13.5 79t4.5 125.5t-4.5 126.5t-14 80.5t-23.5 42.5t-33 12.5t-33 -12.5t-23 -42.5t-13.5 -80.5t-4.5 -126.5t4.5 -125.5t13.5 -79t23 -41t33 -11.5zM281 -15q-59 0 -103 20.5t-73.5 64.5t-44.5 113t-15 165q0 98 15 167.5t44.5 114t73 65
t101.5 20.5t102.5 -20.5t74 -65t44.5 -114t15 -167.5q0 -190 -61 -276.5t-173 -86.5z" />
    <glyph glyph-name="one" unicode="1" 
d="M272 561l-139 -82v136l139 85h155v-700h-155v561z" />
    <glyph glyph-name="two" unicode="2" 
d="M56 508q14 102 78 154.5t158 52.5q102 0 157 -50.5t55 -135.5q0 -35 -7 -66t-26 -65.5t-52.5 -77.5t-85.5 -103l-79 -90h245v-127h-428v127l130 161q49 60 77.5 98.5t43.5 64t19.5 43.5t4.5 37q0 68 -59 68q-61 0 -79 -91h-152z" />
    <glyph glyph-name="three" unicode="3" 
d="M275 98q30 0 49 23.5t19 74.5q0 60 -22 89.5t-77 29.5h-53v107h64q36 0 58 27t22 73q0 43 -13.5 62t-39.5 19q-25 0 -38.5 -16.5t-20.5 -52.5h-148q11 83 66.5 132t149.5 49q98 0 149.5 -46.5t51.5 -129.5q0 -28 -10 -55t-27 -49.5t-41.5 -38t-51.5 -20.5q28 -5 54 -20
t45.5 -39t30.5 -54.5t11 -63.5q0 -51 -16 -91t-45 -67.5t-70 -41.5t-92 -14q-52 0 -93 14.5t-70 40t-44.5 61t-16.5 78.5h154q2 -36 16.5 -58.5t48.5 -22.5z" />
    <glyph glyph-name="four" unicode="4" 
d="M454 700v-453h57v-115h-57v-132h-146v132h-259v132l251 436h154zM308 247v241l-131 -241h131z" />
    <glyph glyph-name="five" unicode="5" 
d="M204 180q9 -82 65 -82q34 0 54 31t20 103q0 38 -5 63.5t-15 40.5t-23.5 21.5t-31.5 6.5q-20 0 -37.5 -11.5t-31.5 -31.5h-119l17 379h358v-110h-219l-11 -156q20 15 44.5 23.5t50.5 8.5q83 0 133 -57.5t50 -170.5q0 -58 -16.5 -104.5t-46.5 -79.5t-72.5 -51t-93.5 -18
q-94 0 -150.5 50.5t-67.5 144.5h148z" />
    <glyph glyph-name="six" unicode="6" 
d="M333 478q40 0 74 -15.5t58 -45.5t37.5 -73.5t13.5 -99.5q0 -63 -16 -111.5t-46 -81t-72 -49.5t-94 -17q-125 0 -184.5 81.5t-59.5 260.5q0 102 17 175t49 120.5t78 70t105 22.5q89 0 142.5 -40t74.5 -113h-167q-10 48 -51 48q-17 0 -31.5 -8t-26 -30.5t-20 -62
t-12.5 -101.5q20 32 53.5 51t77.5 19zM207 231q0 -73 21.5 -104.5t56.5 -31.5q33 0 54 32.5t21 106.5q0 40 -4.5 66t-13.5 41t-22.5 21t-31.5 6q-36 0 -58.5 -34t-22.5 -103z" />
    <glyph glyph-name="seven" unicode="7" 
d="M275 0h-153l228 582h-286v118h431v-122z" />
    <glyph glyph-name="eight" unicode="8" 
d="M498 537q0 -105 -98 -164q58 -36 84.5 -80t26.5 -101q0 -46 -14 -84t-42.5 -65.5t-71.5 -42.5t-101 -15t-102 14.5t-73 41t-44 63.5t-15 82q0 70 24 110.5t83 67.5q-52 30 -73.5 67.5t-21.5 95.5q0 86 55.5 137t166.5 51q49 0 88.5 -13t68 -36t44 -56t15.5 -73zM347 192
q0 47 -20 75.5t-65 47.5q-26 -17 -38 -46t-12 -77t18 -73t48 -25q31 0 50 25.5t19 72.5zM211 532q0 -42 19 -69t57 -42q60 37 60 111q0 42 -18.5 63.5t-46.5 21.5q-34 0 -52.5 -21t-18.5 -64z" />
    <glyph glyph-name="nine" unicode="9" 
d="M227 222q-41 0 -74.5 15.5t-57.5 45.5t-37.5 73.5t-13.5 99.5q0 63 16 111.5t46 81t72 49.5t94 17q124 0 184 -81.5t60 -260.5q0 -103 -15.5 -176.5t-46.5 -120.5t-77.5 -69t-109.5 -22q-89 0 -142.5 40t-74.5 113h167q10 -48 51 -48q18 0 33 8t26.5 30.5t19 62
t11.5 101.5q-20 -32 -53.5 -51t-77.5 -19zM353 469q0 73 -21.5 104.5t-56.5 31.5q-33 0 -54 -32.5t-21 -106.5q0 -40 4.5 -66t13.5 -41t22.5 -21t31.5 -6q36 0 58.5 34t22.5 103z" />
    <glyph glyph-name="colon" unicode=":" horiz-adv-x="289" 
d="M56 0v157h177v-157h-177zM56 363v157h177v-157h-177z" />
    <glyph glyph-name="semicolon" unicode=";" horiz-adv-x="270" 
d="M56 363v157h177v-157h-177zM233 30q0 -58 -18.5 -97t-47.5 -64t-64 -37t-67 -15v78q38 8 60.5 34t22.5 71h-63v157h177v-127z" />
    <glyph glyph-name="less" unicode="&#x3c;" 
d="M87 382l386 210v-148l-228 -117v-7l228 -117v-148l-386 210v117z" />
    <glyph glyph-name="equal" unicode="=" 
d="M473 363h-386v123h386v-123zM473 158h-386v123h386v-123z" />
    <glyph glyph-name="greater" unicode="&#x3e;" 
d="M473 265l-386 -210v148l229 117v7l-229 117v148l386 -210v-117z" />
    <glyph glyph-name="question" unicode="?" horiz-adv-x="459" 
d="M38 535q0 42 15.5 78.5t42.5 63.5t64.5 42.5t82.5 15.5q90 0 139.5 -46t49.5 -124q0 -23 -2.5 -42t-9 -39.5t-19.5 -45.5t-34 -60q-14 -24 -22 -39t-12 -29.5t-5 -32.5t-1 -47h-156q0 47 1.5 77t5.5 51t12 36.5t20 35.5q17 27 28 47t17.5 36t9 29.5t2.5 28.5
q0 26 -7 36.5t-18 10.5q-8 0 -14.5 -3t-11 -12t-8 -25.5t-5.5 -42.5h-165zM163 0v157h173v-157h-173z" />
    <glyph glyph-name="at" unicode="@" horiz-adv-x="790" 
d="M571 95q-45 0 -71.5 26.5t-29.5 60.5q-5 -12 -16 -26t-26.5 -25t-35 -18.5t-41.5 -7.5q-40 0 -66.5 14.5t-42.5 40t-23 60t-7 73.5q0 60 15 108.5t40 82t57 51.5t66 18q23 0 43 -10.5t30 -27.5l14 31h99l-28 -250q-2 -16 -3.5 -37t-1.5 -27q0 -26 7 -35t18 -9
q13 0 27.5 9.5t25.5 33t18.5 63.5t7.5 100q0 124 -57.5 182t-172.5 58q-61 0 -110.5 -20.5t-85 -60.5t-54.5 -99.5t-19 -138.5t20.5 -136.5t56 -94.5t84.5 -54.5t106 -17.5q46 0 78.5 7.5t59.5 17.5l32 -96q-26 -11 -68.5 -21.5t-108.5 -10.5q-80 0 -148.5 25.5t-119.5 76.5
t-80 127t-29 177q0 100 27.5 178.5t78 132t121.5 81.5t159 28q78 0 141 -23t108 -66.5t69 -106.5t24 -143q0 -72 -15 -128t-40.5 -94.5t-60 -58.5t-72.5 -20zM375 199q17 0 29.5 21t20.5 73q3 21 5.5 45.5t2.5 43.5q0 47 -7 63t-24 16t-29.5 -19t-20.5 -47t-11.5 -61
t-3.5 -61q0 -47 10.5 -60.5t27.5 -13.5z" />
    <glyph glyph-name="A" unicode="A" horiz-adv-x="601" 
d="M427 0l-37 165h-190l-37 -165h-163l206 720h186l209 -720h-174zM229 275h132l-66 307z" />
    <glyph glyph-name="B" unicode="B" horiz-adv-x="555" 
d="M246 720q141 0 201 -47t60 -144q0 -50 -31 -90.5t-86 -57.5q70 -15 107 -58.5t37 -112.5q0 -52 -14 -91.5t-45.5 -65.5t-82.5 -39.5t-124 -13.5h-222v720h200zM213 324v-214h58q48 0 70.5 23.5t22.5 81.5q0 57 -24 83t-64 26h-63zM213 610v-182h46q38 0 60 24t22 72
q0 41 -22.5 63.5t-60.5 22.5h-45z" />
    <glyph glyph-name="C" unicode="C" horiz-adv-x="641" 
d="M332 103q54 0 79.5 38.5t31.5 123.5h170q-17 -137 -85.5 -208.5t-191.5 -71.5q-146 0 -224.5 90.5t-78.5 286.5q0 186 75 279.5t221 93.5q110 0 184.5 -64t94.5 -186h-167q-11 68 -37 100.5t-72 32.5q-62 0 -93 -60t-31 -196q0 -71 8.5 -120.5t24.5 -80.5t39 -44.5
t52 -13.5z" />
    <glyph glyph-name="D" unicode="D" horiz-adv-x="634" 
d="M285 720q156 0 236 -86.5t80 -272.5q0 -189 -80 -275t-232 -86h-243v720h239zM213 604v-487h73q67 0 107 58t40 186q0 66 -11 112t-31 75.5t-47 42.5t-60 13h-71z" />
    <glyph glyph-name="E" unicode="E" horiz-adv-x="502" 
d="M452 305h-239v-184h264v-121h-431v720h431v-123h-264v-176h239v-116z" />
    <glyph glyph-name="F" unicode="F" horiz-adv-x="466" 
d="M419 291h-206v-291h-167v720h399v-121h-232v-192h206v-116z" />
    <glyph glyph-name="G" unicode="G" horiz-adv-x="648" 
d="M610 0h-101l-22 77q-31 -46 -74 -69t-103 -23t-111 23t-88 70t-57.5 118t-20.5 167q0 94 21.5 164t61 116.5t96.5 69t129 22.5q109 0 180 -58t89 -163h-166q-8 54 -35.5 79t-67.5 25q-32 0 -56.5 -12.5t-41.5 -42t-26 -78.5t-9 -122q0 -71 9.5 -120.5t26.5 -80.5t42 -45
t57 -14q59 0 93 38.5t34 99.5v51h-135v109h275v-401z" />
    <glyph glyph-name="H" unicode="H" horiz-adv-x="626" 
d="M580 720v-720h-165v304h-202v-304h-167v720h167v-296h202v296h165z" />
    <glyph glyph-name="I" unicode="I" horiz-adv-x="259" 
d="M213 720v-720h-167v720h167z" />
    <glyph glyph-name="J" unicode="J" horiz-adv-x="494" 
d="M172 198q3 -53 21 -73.5t43 -20.5q26 0 41.5 23t15.5 89v504h159v-492q0 -56 -11.5 -101t-37 -76.5t-65.5 -48.5t-97 -17q-98 0 -156.5 53.5t-69.5 159.5h157z" />
    <glyph glyph-name="K" unicode="K" horiz-adv-x="645" 
d="M447 0l-234 323v-323h-167v720h167v-307l214 307h184l-251 -338l287 -382h-200z" />
    <glyph glyph-name="L" unicode="L" horiz-adv-x="510" 
d="M213 720v-594h285v-126h-452v720h167z" />
    <glyph glyph-name="M" unicode="M" horiz-adv-x="787" 
d="M327 0l-132 473v-473h-149v720h198l152 -539l150 539h195v-720h-150v474l-132 -474h-132z" />
    <glyph glyph-name="N" unicode="N" horiz-adv-x="620" 
d="M574 720v-720h-167l-220 492v-492h-141v720h181l206 -480v480h141z" />
    <glyph glyph-name="O" unicode="O" horiz-adv-x="678" 
d="M339 104q28 0 53 13.5t43.5 44t29.5 79t11 119.5q0 69 -10.5 118t-29.5 80t-44 45t-53 14q-27 0 -52 -13t-43.5 -43t-30 -79.5t-11.5 -122.5q0 -69 11 -117.5t30 -79t44 -44.5t52 -14zM339 -15q-67 0 -123.5 23t-97 69.5t-63 116.5t-22.5 165q0 93 22 163.5t62.5 117.5
t96.5 71t125 24q67 0 123.5 -23t97 -69.5t63 -117t22.5 -165.5q0 -93 -23.5 -163.5t-64.5 -117.5t-97 -70.5t-121 -23.5z" />
    <glyph glyph-name="P" unicode="P" horiz-adv-x="584" 
d="M273 720q76 0 130 -14.5t88 -44.5t49.5 -75t15.5 -105q0 -120 -66.5 -180t-208.5 -60h-68v-241h-167v720h227zM213 605v-249h70q46 0 73.5 31.5t27.5 93.5q0 66 -29 95t-83 29h-59z" />
    <glyph glyph-name="Q" unicode="Q" horiz-adv-x="687" 
d="M339 -15q-67 0 -123.5 23t-97 69.5t-63 116.5t-22.5 165q0 93 22 163.5t62.5 117.5t96.5 71t125 24q67 0 123.5 -23t97 -69.5t63 -117t22.5 -165.5q0 -101 -26.5 -173.5t-73.5 -120.5l109 -127l-129 -98l-105 154q-20 -5 -40 -7.5t-41 -2.5zM339 104q28 0 53 13.5
t43.5 44t29.5 79t11 119.5q0 69 -10.5 118t-29.5 80t-44 45t-53 14q-27 0 -52 -13t-43.5 -43t-30 -79.5t-11.5 -122.5q0 -69 11 -117.5t30 -79t44 -44.5t52 -14z" />
    <glyph glyph-name="R" unicode="R" horiz-adv-x="598" 
d="M409 0l-150 263h-46v-263h-167v720h213q79 0 135 -15t91.5 -43.5t52 -71.5t16.5 -98q0 -73 -32 -123t-107 -78l180 -291h-186zM213 604v-225h52q115 0 115 115q0 62 -27 86t-93 24h-47z" />
    <glyph glyph-name="S" unicode="S" horiz-adv-x="587" 
d="M308 -15q-68 0 -118 16t-85 45.5t-55 71.5t-26 94h155q3 -24 11.5 -44t23.5 -34.5t37 -23t53 -8.5q55 0 77.5 20t22.5 63q0 18 -6 34t-22 30.5t-42.5 28.5t-68.5 29q-63 22 -104.5 46t-67 52t-36 61.5t-10.5 75.5q0 43 14.5 79t45 61t78 39t113.5 14q112 0 177 -53
t77 -147h-153q-5 41 -30.5 63t-67.5 22q-48 0 -67 -18t-19 -55q0 -35 23.5 -58t87.5 -44q69 -23 116.5 -49t76 -55t41 -63t12.5 -74q0 -48 -15 -88t-47 -69.5t-82 -45.5t-120 -16z" />
    <glyph glyph-name="T" unicode="T" horiz-adv-x="519" 
d="M516 594h-174v-594h-167v594h-172v126h513v-126z" />
    <glyph glyph-name="U" unicode="U" horiz-adv-x="619" 
d="M209 720v-490q0 -61 23.5 -93.5t77.5 -32.5t80.5 32.5t26.5 93.5v490h160v-479q0 -121 -66.5 -188.5t-201.5 -67.5q-134 0 -200.5 67.5t-66.5 188.5v479h167z" />
    <glyph glyph-name="V" unicode="V" horiz-adv-x="573" 
d="M573 720l-188 -720h-198l-187 720h171l120 -582l122 582h160z" />
    <glyph glyph-name="W" unicode="W" horiz-adv-x="864" 
d="M861 720l-128 -720h-198l-105 540l-97 -540h-187l-143 720h168l84 -529l89 529h182l104 -532l72 532h159z" />
    <glyph glyph-name="X" unicode="X" horiz-adv-x="621" 
d="M400 382l218 -382h-196l-124 244l-119 -244h-176l218 375l-205 345h191l112 -215l110 215h167z" />
    <glyph glyph-name="Y" unicode="Y" horiz-adv-x="588" 
d="M216 0v287l-216 433h178l121 -288l132 288h157l-216 -433v-287h-156z" />
    <glyph glyph-name="Z" unicode="Z" horiz-adv-x="526" 
d="M183 119h323v-119h-490v121l327 480h-312v119h479v-118z" />
    <glyph glyph-name="bracketleft" unicode="[" horiz-adv-x="292" 
d="M275 -170h-229v980h229v-103h-97v-774h97v-103z" />
    <glyph glyph-name="backslash" unicode="\" horiz-adv-x="272" 
d="M-10 735h135l157 -825h-134z" />
    <glyph glyph-name="bracketright" unicode="]" horiz-adv-x="292" 
d="M17 -67h97v774h-97v103h229v-980h-229v103z" />
    <glyph glyph-name="asciicircum" unicode="^" horiz-adv-x="419" 
d="M149 400h-144l130 320h150l129 -320h-143l-61 196z" />
    <glyph glyph-name="underscore" unicode="_" horiz-adv-x="449" 
d="M459 -149h-469v123h469v-123z" />
    <glyph glyph-name="grave" unicode="`" horiz-adv-x="299" 
d="M273 583h-116l-131 137h161z" />
    <glyph glyph-name="a" unicode="a" horiz-adv-x="509" 
d="M38 373q20 78 76 120t150 42q100 0 153.5 -49.5t53.5 -148.5v-337h-120l-19 54q-22 -29 -58 -49t-89 -20q-34 0 -63 11t-50 31.5t-32.5 50.5t-11.5 68q0 30 9 56.5t31 48.5t57 38t88 24l103 16v28q0 42 -14.5 59.5t-43.5 17.5q-51 0 -63 -61h-157zM232 92q44 0 64 29.5
t20 70.5v51l-63 -12q-42 -8 -57 -29t-15 -49q0 -61 51 -61z" />
    <glyph glyph-name="b" unicode="b" horiz-adv-x="555" 
d="M42 0v720h155v-246q24 29 58 45t74 16q92 0 145 -63.5t53 -193.5q0 -71 -15 -126t-42 -92t-65 -56t-84 -19q-39 0 -75 18.5t-59 50.5l-25 -54h-120zM369 264q0 45 -6 75t-17 48.5t-27 26t-37 7.5q-42 0 -67 -35t-25 -120q0 -48 6 -80t17.5 -51.5t28.5 -27.5t39 -8
q41 0 64.5 37t23.5 128z" />
    <glyph glyph-name="c" unicode="c" horiz-adv-x="519" 
d="M497 173q-9 -41 -25.5 -75t-44 -59.5t-67 -39.5t-93.5 -14q-123 0 -181 67.5t-58 204.5q0 134 60 206t176 72q49 0 88.5 -12.5t69.5 -36t49 -55.5t26 -71h-161q-5 33 -24 51t-44 18q-19 0 -34 -8t-25 -28.5t-15.5 -54t-5.5 -84.5q0 -87 21 -124.5t59 -37.5q31 0 47 19.5
t21 61.5h161z" />
    <glyph glyph-name="d" unicode="d" horiz-adv-x="555" 
d="M393 0l-26 57q-24 -32 -58 -52t-73 -20q-45 0 -83.5 17.5t-66 51.5t-43 84t-15.5 116q0 70 15 122.5t42 87.5t64 53t81 18q41 0 73 -15.5t55 -44.5v245h155v-720h-120zM183 258q0 -44 6 -74.5t18 -49.5t29 -27t39 -8q20 0 36 8.5t27.5 27.5t17.5 49.5t6 74.5q0 45 -7 76
t-19 50t-28.5 27.5t-34.5 8.5q-21 0 -37.5 -8.5t-28 -27.5t-18 -50t-6.5 -77z" />
    <glyph glyph-name="e" unicode="e" horiz-adv-x="526" 
d="M498 147q-13 -73 -67 -117.5t-151 -44.5q-122 0 -187 69.5t-65 205.5q0 137 61.5 206t177.5 69q56 0 100.5 -18t75 -56t46.5 -97.5t16 -141.5h-320q5 -72 28.5 -100t65.5 -28q55 0 64 53h155zM264 437q-35 0 -55.5 -27.5t-25.5 -96.5h163q-2 72 -23 98t-59 26z" />
    <glyph glyph-name="f" unicode="f" horiz-adv-x="347" 
d="M357 608q-21 6 -38.5 9.5t-28.5 3.5q-34 0 -45 -14t-11 -43v-44h99v-108h-99v-412h-154v412h-69v108h69v38q0 87 39 132t124 45q36 0 64.5 -5.5t49.5 -11.5v-110z" />
    <glyph glyph-name="g" unicode="g" horiz-adv-x="543" 
d="M192 -36q7 -26 23.5 -38t53.5 -12q39 0 58 24t19 80v44q-24 -23 -53 -35t-59 -12q-45 0 -83 17t-65.5 49.5t-42.5 80t-15 108.5q0 64 15 113.5t42 83t64 51t81 17.5q36 0 71 -16t58 -45l27 46h115v-494q0 -103 -56.5 -162t-177.5 -59q-58 0 -99.5 11t-69.5 32t-43 50.5
t-19 65.5h156zM183 271q0 -79 23.5 -110.5t68.5 -31.5q40 0 63.5 32.5t23.5 109.5q0 43 -6 71.5t-17.5 46t-28 25t-37.5 7.5q-43 0 -66.5 -34.5t-23.5 -115.5z" />
    <glyph glyph-name="h" unicode="h" horiz-adv-x="529" 
d="M42 720h155v-247q25 32 55.5 47t72.5 15q79 0 122.5 -49.5t43.5 -149.5v-336h-155v329q0 56 -15 76t-44 20q-35 0 -57.5 -26.5t-22.5 -85.5v-313h-155v720z" />
    <glyph glyph-name="i" unicode="i" horiz-adv-x="239" 
d="M33 587v133h169v-133h-169zM42 0v520h155v-520h-155z" />
    <glyph glyph-name="j" unicode="j" horiz-adv-x="245" 
d="M-48 -71q14 -5 29.5 -7t24.5 -2q21 0 31.5 12.5t10.5 41.5v546h155v-549q0 -75 -40.5 -120.5t-119.5 -45.5q-23 0 -48.5 4t-42.5 11v109zM39 587v133h169v-133h-169z" />
    <glyph glyph-name="k" unicode="k" horiz-adv-x="526" 
d="M42 0v720h155v-394l148 194h169l-174 -217l196 -303h-189l-150 252v-252h-155z" />
    <glyph glyph-name="l" unicode="l" horiz-adv-x="239" 
d="M197 0h-155v720h155v-720z" />
    <glyph glyph-name="m" unicode="m" horiz-adv-x="807" 
d="M42 0v520h128l13 -54q23 34 56 51.5t80 17.5q46 0 78 -17t55 -55q26 36 62.5 54t87.5 18q82 0 124.5 -48t42.5 -149v-338h-155v342q0 48 -15 65.5t-45 17.5q-34 0 -53 -25t-19 -82v-318h-155v342q0 48 -14.5 65.5t-45.5 17.5q-30 0 -50 -24.5t-20 -75.5v-325h-155z" />
    <glyph glyph-name="n" unicode="n" horiz-adv-x="529" 
d="M42 520h128l13 -55q29 38 62.5 54t80.5 16q78 0 121.5 -49.5t43.5 -149.5v-336h-155v329q0 56 -15 76t-44 20q-35 0 -57.5 -26.5t-22.5 -85.5v-313h-155v520z" />
    <glyph glyph-name="o" unicode="o" horiz-adv-x="542" 
d="M28 262q0 137 59 205t184 68q121 0 182 -67t61 -206q0 -136 -59 -206.5t-184 -70.5q-243 0 -243 277zM188 262q0 -51 5 -84t15.5 -52.5t26.5 -27.5t37 -8q22 0 38 7t26 26t14.5 52.5t4.5 86.5q0 51 -5 83.5t-15.5 51.5t-26.5 26t-37 7q-22 0 -37.5 -7t-25.5 -26
t-15 -51.5t-5 -83.5z" />
    <glyph glyph-name="p" unicode="p" horiz-adv-x="555" 
d="M187 464q27 35 64.5 53t77.5 18q92 0 145 -63.5t53 -193.5q0 -71 -15 -126t-42 -92t-65 -56t-84 -19q-39 0 -71.5 17t-52.5 43v-225h-155v700h115zM369 264q0 45 -6 75t-17 48.5t-27 26t-37 7.5q-42 0 -67 -35t-25 -120q0 -48 6 -80t18 -51.5t29 -27.5t39 -8q41 0 64 37
t23 128z" />
    <glyph glyph-name="q" unicode="q" horiz-adv-x="555" 
d="M358 48q-20 -27 -52 -45t-70 -18q-45 0 -83.5 17.5t-66 51.5t-43 84t-15.5 116q0 70 15 122.5t42 87.5t64 53t81 18q90 0 137 -72l31 57h115v-700h-155v228zM183 258q0 -44 6 -74.5t18 -49.5t29 -27t39 -8q20 0 36 8.5t27.5 27.5t17.5 49.5t6 74.5q0 45 -7 76t-19 50
t-28.5 27.5t-34.5 8.5q-21 0 -37.5 -8.5t-28 -27.5t-18 -50t-6.5 -77z" />
    <glyph glyph-name="r" unicode="r" horiz-adv-x="357" 
d="M42 0v520h129l16 -79q37 94 119 94q14 0 27.5 -2t23.5 -5v-145q-12 5 -26.5 7.5t-33.5 2.5q-42 0 -71 -44.5t-29 -132.5v-216h-155z" />
    <glyph glyph-name="s" unicode="s" horiz-adv-x="490" 
d="M247 91q32 0 45 12t13 34q0 10 -3.5 19t-14 17.5t-29.5 16.5t-50 17q-48 14 -80.5 30t-52 36.5t-28 46t-8.5 58.5q0 35 11.5 64t35.5 49.5t62 32t92 11.5q94 0 151.5 -42t69.5 -117h-155q-8 53 -65 53q-26 0 -37 -10.5t-11 -28.5q0 -11 3 -19.5t12.5 -16t27 -15
t46.5 -16.5q54 -18 89 -36t55 -38.5t28 -45t8 -54.5q0 -77 -51.5 -120.5t-166.5 -43.5q-100 0 -156.5 45t-67.5 117h157q8 -56 70 -56z" />
    <glyph glyph-name="t" unicode="t" horiz-adv-x="332" 
d="M321 -1q-18 -6 -42.5 -10t-47.5 -4q-76 0 -115.5 40t-39.5 120v267h-69v108h69l10 125h144v-125h91v-108h-91v-272q0 -22 10 -33t33 -11q7 0 22 2.5t26 6.5v-106z" />
    <glyph glyph-name="u" unicode="u" horiz-adv-x="524" 
d="M193 520v-344q0 -45 16 -63t48 -18q28 0 49 28t21 85v312h155v-520h-128l-14 55q-23 -33 -57 -51.5t-79 -18.5q-166 0 -166 194v341h155z" />
    <glyph glyph-name="v" unicode="v" horiz-adv-x="506" 
d="M503 520l-154 -520h-193l-153 520h167l88 -398l85 398h160z" />
    <glyph glyph-name="w" unicode="w" horiz-adv-x="757" 
d="M750 520l-120 -520h-194l-55 375l-70 -375h-188l-116 520h160l58 -386l69 386h186l56 -388l69 388h145z" />
    <glyph glyph-name="x" unicode="x" horiz-adv-x="510" 
d="M338 276l169 -276h-180l-80 161l-83 -161h-161l167 274l-159 246h176l70 -136l69 136h159z" />
    <glyph glyph-name="y" unicode="y" horiz-adv-x="512" 
d="M509 520l-163 -531q-16 -51 -32.5 -86t-37 -56.5t-46 -31.5t-59.5 -10q-20 0 -41 3t-39 8v109q23 -6 37.5 -7.5t22.5 -1.5q24 0 36.5 19.5t17.5 64.5h-43l-159 520h164l88 -399l99 399h155z" />
    <glyph glyph-name="z" unicode="z" horiz-adv-x="445" 
d="M192 115h227v-115h-405v121l242 284h-225v115h400v-121z" />
    <glyph glyph-name="braceleft" unicode="{" horiz-adv-x="293" 
d="M8 378q40 0 54.5 23t14.5 65v157q0 62 14.5 99t41.5 56.5t64.5 25.5t83.5 6v-103q-16 0 -28.5 -2.5t-21 -11t-13 -24t-4.5 -41.5v-160q0 -35 -6 -60t-17 -42t-26.5 -28t-34.5 -18q19 -7 34.5 -18t26.5 -28.5t17 -42t6 -59.5v-160q0 -26 4.5 -41.5t13 -24t21 -11
t28.5 -2.5v-103q-46 0 -83.5 6t-64.5 25.5t-41.5 56.5t-14.5 99v157q0 42 -14.5 65t-54.5 23v116z" />
    <glyph glyph-name="bar" unicode="|" horiz-adv-x="286" 
d="M210 785v-925h-134v925h134z" />
    <glyph glyph-name="braceright" unicode="}" horiz-adv-x="293" 
d="M285 262q-41 0 -55.5 -23t-14.5 -65v-157q0 -62 -14.5 -99t-41 -56.5t-64 -25.5t-83.5 -6v103q16 0 28.5 2.5t21 11t13 24t4.5 41.5v160q0 35 6 59.5t17 42t26.5 28.5t34.5 18q-19 7 -34.5 18t-26.5 28t-17 42t-6 60v160q0 26 -4.5 41.5t-13 24t-21 11t-28.5 2.5v103
q46 0 83.5 -6t64 -25.5t41 -56.5t14.5 -99v-157q0 -42 14.5 -65t55.5 -23v-116z" />
    <glyph glyph-name="asciitilde" unicode="~" 
d="M358 237q-26 0 -47 8.5t-40 19t-37 19t-38 8.5q-33 0 -61.5 -15.5t-47.5 -34.5v127q16 15 46.5 27.5t68.5 12.5q27 0 48 -8.5t40 -19t37 -19t38 -8.5q32 0 60.5 15.5t47.5 34.5v-127q-16 -15 -46.5 -27.5t-68.5 -12.5z" />
    <glyph glyph-name="uni00A0" unicode="&#xa0;" horiz-adv-x="210" 
 />
    <glyph glyph-name="exclamdown" unicode="&#xa1;" horiz-adv-x="275" 
d="M215 300l22 -480h-199l22 480h155zM224 540v-157h-174v157h174z" />
    <glyph glyph-name="cent" unicode="&#xa2;" 
d="M220 -135v126q-90 16 -132.5 82t-42.5 184q0 115 44 184.5t131 87.5v131h125v-131q70 -15 113.5 -59.5t55.5 -109.5h-161q-5 33 -24 51t-44 18q-19 0 -34 -8t-25 -28.5t-15.5 -54t-5.5 -84.5q0 -87 21 -124.5t59 -37.5q31 0 47 19.5t21 61.5h161q-8 -35 -21 -65
t-33.5 -53.5t-48.5 -40t-66 -23.5v-126h-125z" />
    <glyph glyph-name="sterling" unicode="&#xa3;" 
d="M262 395h171v-93h-173v-72q0 -35 -10 -59.5t-34 -44.5h285v-126h-442v126q25 8 32.5 22t7.5 49v105h-59v93h59v95q0 110 47.5 167.5t155.5 57.5q46 0 84.5 -12.5t66.5 -36t45 -57t21 -74.5h-146q-7 35 -21.5 49t-35.5 14q-26 0 -40 -23t-14 -87v-93z" />
    <glyph glyph-name="currency" unicode="&#xa4;" 
d="M92 216q-22 53 -22 124q0 35 5.5 65t15.5 56l-49 58l83 88l46 -56q25 17 53.5 26t54.5 9t55 -9t54 -26l47 56l83 -88l-49 -58q20 -52 20 -121q0 -71 -22 -124l50 -59l-82 -88l-49 58q-51 -33 -107 -33q-26 0 -53.5 8t-51.5 25l-49 -58l-83 88zM372 340q0 57 -24.5 94
t-67.5 37t-67.5 -37t-24.5 -94t24.5 -94.5t67.5 -37.5t67.5 37.5t24.5 94.5z" />
    <glyph glyph-name="yen" unicode="&#xa5;" 
d="M203 0v130h-103v93h103v47h-103v93h62l-172 337h178l117 -277l128 277h157l-171 -337h62v-93h-103v-47h103v-93h-103v-130h-155z" />
    <glyph glyph-name="brokenbar" unicode="&#xa6;" horiz-adv-x="286" 
d="M210 785v-385h-134v385h134zM210 245v-385h-134v385h134z" />
    <glyph glyph-name="section" unicode="&#xa7;" 
d="M477 323q0 -94 -68 -137q32 -26 46 -58t14 -73q0 -68 -43.5 -107t-142.5 -39q-84 0 -137 42t-59 117h153q8 -53 41 -53q17 0 25.5 10.5t8.5 28.5q0 11 -2 20t-9 17.5t-20 16.5t-35 16q-75 28 -120.5 72.5t-45.5 104.5q0 45 16 79t49 56q-32 25 -46 56t-14 71
q0 67 44 109.5t138 42.5q81 0 135 -42t62 -117h-150q-8 53 -42 53q-14 0 -23.5 -10.5t-9.5 -28.5q0 -11 2.5 -20t10 -17.5t21 -16.5t35.5 -16q75 -28 120.5 -72.5t45.5 -104.5zM320 299q0 55 -65 84q-15 -20 -15 -58q0 -28 15.5 -47.5t49.5 -36.5q15 19 15 58z" />
    <glyph glyph-name="dieresis" unicode="&#xa8;" horiz-adv-x="394" 
d="M26 592v128h142v-128h-142zM225 592v128h143v-128h-143z" />
    <glyph glyph-name="copyright" unicode="&#xa9;" horiz-adv-x="713" 
d="M120 360q0 -75 19.5 -130t52.5 -91t75.5 -54t89.5 -18q45 0 87.5 18t75.5 54t53 91t20 130t-20 130t-53 91t-75.5 54t-87.5 18q-46 0 -89 -18t-76 -54t-52.5 -91t-19.5 -130zM685 360q0 -99 -28.5 -169.5t-75 -116.5t-105 -67.5t-119.5 -21.5t-120 21.5t-105.5 67.5
t-75 116.5t-28.5 169.5t28.5 169.5t75 116.5t105.5 67.5t120 21.5t119.5 -21.5t105 -67.5t75 -116.5t28.5 -169.5zM547 293q-7 -31 -21 -57.5t-36 -46t-53.5 -30.5t-73.5 -11q-97 0 -141.5 51.5t-44.5 158.5q0 103 46 160.5t140 57.5q78 0 125 -37.5t59 -98.5h-127
q-5 24 -18.5 39t-33.5 15q-35 0 -50 -31.5t-15 -106.5q0 -66 13.5 -96t45.5 -30q20 0 33.5 15.5t24.5 47.5h127z" />
    <glyph glyph-name="ordfeminine" unicode="&#xaa;" horiz-adv-x="460" 
d="M75 603q8 62 52 97t116 35q78 0 120.5 -40.5t42.5 -112.5v-275h-96l-21 43q-17 -23 -41 -39t-58 -16q-21 0 -43.5 6.5t-41.5 22t-31.5 41t-12.5 62.5q0 33 13.5 56.5t35 40t49.5 26t58 14.5l49 8v21q0 29 -6 40t-18 11q-26 0 -33 -41h-134zM399 0h-328v123h328v-123z
M236 391q18 0 24 16.5t6 37.5v48l-22 -6q-29 -7 -36.5 -21.5t-7.5 -34.5q0 -19 9.5 -29.5t26.5 -10.5z" />
    <glyph glyph-name="guillemotleft" unicode="&#xab;" horiz-adv-x="482" 
d="M34 315l113 205h118l-86 -208l77 -222h-118zM217 315l113 205h118l-85 -208l76 -222h-118z" />
    <glyph glyph-name="logicalnot" unicode="&#xac;" 
d="M473 384v-282h-130v159h-256v123h386z" />
    <glyph glyph-name="uni00AD" unicode="&#xad;" horiz-adv-x="464" 
d="M399 261h-334v123h334v-123z" />
    <glyph glyph-name="registered" unicode="&#xae;" horiz-adv-x="530" 
d="M494 494q0 -64 -20 -109.5t-52 -75t-73.5 -43t-84.5 -13.5q-44 0 -85 13t-72.5 41.5t-51 73.5t-19.5 110q0 64 19.5 110t51 76t72.5 44t85 14q43 0 84.5 -14t73.5 -43t52 -74.5t20 -109.5zM107 491q0 -49 12.5 -83t33.5 -55t49.5 -30t61.5 -9q32 0 61 9.5t50.5 31t34 56
t12.5 83.5t-12.5 83.5t-34 56t-50.5 31t-61 9.5q-33 0 -61.5 -10t-49.5 -32t-33.5 -57t-12.5 -84zM315 372l-52 89h-30v-89h-53v242h85q19 0 36.5 -4t30.5 -13t20.5 -23.5t7.5 -35.5q0 -29 -14.5 -45.5t-32.5 -23.5l61 -97h-59zM233 575v-76h36q10 0 23.5 8t13.5 31
t-13.5 30t-25.5 7h-34z" />
    <glyph glyph-name="macron" unicode="&#xaf;" horiz-adv-x="284" 
d="M26 608v112h232v-112h-232z" />
    <glyph glyph-name="degree" unicode="&#xb0;" horiz-adv-x="582" 
d="M173 552q0 -38 9.5 -54.5t29.5 -16.5t29 16.5t9 54.5t-9 54.5t-29 16.5t-29.5 -16.5t-9.5 -54.5zM365 552q0 -40 -12 -71.5t-32.5 -53t-48.5 -32.5t-60 -11t-60 11t-48.5 32.5t-32.5 53t-12 71.5t12 71.5t32.5 53t48.5 32.5t60 11t60 -11t48.5 -32.5t32.5 -53t12 -71.5z
" />
    <glyph glyph-name="plusminus" unicode="&#xb1;" 
d="M345 527v-143h128v-123h-128v-99h-131v99h-127v123h127v143h131zM473 0h-386v123h386v-123z" />
    <glyph glyph-name="twosuperior" unicode="&#xb2;" horiz-adv-x="371" 
d="M30 605q9 64 52 102t111 38q70 0 109 -35t39 -92q0 -22 -5 -41.5t-18 -40t-34 -43.5t-52 -51l-55 -52h161v-96h-296v94l94 94q27 27 44.5 47t27 36t13 28.5t3.5 24.5q0 37 -33 37q-17 0 -28 -11t-15 -39h-118z" />
    <glyph glyph-name="threesuperior" unicode="&#xb3;" horiz-adv-x="375" 
d="M194 745q66 0 104 -29.5t38 -86.5q0 -34 -19.5 -62t-61.5 -39q44 -11 67 -39.5t23 -71.5q0 -63 -41 -97.5t-113 -34.5q-74 0 -115 37t-46 97h116q2 -22 11.5 -34.5t30.5 -12.5q18 0 28 13.5t10 36.5q0 35 -16 48t-37 13h-27v80h29q17 0 30 11.5t13 42.5q0 23 -8.5 32.5
t-21.5 9.5q-17 0 -24.5 -10.5t-9.5 -29.5h-113q8 58 48 92t105 34z" />
    <glyph glyph-name="acute" unicode="&#xb4;" horiz-adv-x="299" 
d="M113 720h160l-131 -137h-116z" />
    <glyph glyph-name="mu" unicode="&#xb5;" horiz-adv-x="528" 
d="M197 520v-353q0 -40 16.5 -56t47.5 -16q28 0 49 28t21 85v312h155v-520h-128l-14 55q-23 -33 -57 -51.5t-79 -18.5h-11v-165h-155v700h155z" />
    <glyph glyph-name="paragraph" unicode="&#xb6;" horiz-adv-x="606" 
d="M323 720v-900h-146v495q-33 0 -62.5 13.5t-52 39.5t-35.5 64t-13 86q0 49 13 86.5t35 63t51.5 39t63.5 13.5h146zM566 720v-900h-146v900h146z" />
    <glyph glyph-name="periodcentered" unicode="&#xb7;" horiz-adv-x="270" 
d="M56 248v142h158v-142h-158z" />
    <glyph glyph-name="cedilla" unicode="&#xb8;" horiz-adv-x="327" 
d="M299 -139q0 -51 -34 -85t-95 -34q-129 0 -141 121h95q1 -41 42 -41q36 0 36 36q0 20 -15.5 31.5t-51.5 11.5l11 124h81v-65q36 -9 54 -34.5t18 -64.5z" />
    <glyph glyph-name="onesuperior" unicode="&#xb9;" horiz-adv-x="255" 
d="M224 283h-116v327l-92 -46v106l106 54h102v-441z" />
    <glyph glyph-name="ordmasculine" unicode="&#xba;" horiz-adv-x="459" 
d="M41 517q0 66 16.5 108.5t43 66.5t60.5 33.5t69 9.5t68.5 -9t60 -33t43 -66.5t16.5 -109.5t-16 -110t-42.5 -68t-60.5 -34.5t-69 -9.5q-36 0 -70 10t-60.5 35t-42.5 68t-16 109zM185 517q0 -68 8.5 -98t37.5 -30q27 0 36 30t9 98t-9.5 96t-36.5 28q-28 0 -36.5 -28
t-8.5 -96zM407 0h-350v123h350v-123z" />
    <glyph glyph-name="guillemotright" unicode="&#xbb;" horiz-adv-x="482" 
d="M344 90h-118l77 222l-86 208h118l113 -205zM161 90h-118l76 222l-85 208h118l113 -205z" />
    <glyph glyph-name="onequarter" unicode="&#xbc;" horiz-adv-x="864" 
d="M137 -90l422 880h120l-422 -880h-120zM258 283h-116v327l-92 -46v106l106 54h102v-441zM769 168h45v-86h-45v-81h-106v81h-174v93l144 267h136v-274zM591 168h72l7 161z" />
    <glyph glyph-name="onehalf" unicode="&#xbd;" horiz-adv-x="890" 
d="M137 -90l422 880h120l-422 -880h-120zM258 283h-116v327l-92 -46v106l106 54h102v-441zM529 312q9 64 52 102t111 38q70 0 109 -35t39 -92q0 -22 -5 -41.5t-18 -40t-34 -43.5t-52 -51l-55 -52h161v-96h-296v94l94 94q27 27 44.5 47t27 36t13 28.5t3.5 24.5q0 37 -33 37
q-17 0 -28 -11t-15 -39h-118z" />
    <glyph glyph-name="threequarters" unicode="&#xbe;" horiz-adv-x="940" 
d="M213 -90l422 880h120l-422 -880h-120zM214 745q66 0 104 -29.5t38 -86.5q0 -34 -19.5 -62t-61.5 -39q44 -11 67 -39.5t23 -71.5q0 -63 -41 -97.5t-113 -34.5q-74 0 -115 37t-46 97h116q2 -22 11.5 -34.5t30.5 -12.5q18 0 28 13.5t10 36.5q0 35 -16 48t-37 13h-27v80h29
q17 0 30 11.5t13 42.5q0 23 -8.5 32.5t-21.5 9.5q-17 0 -24.5 -10.5t-9.5 -29.5h-113q8 58 48 92t105 34zM845 168h45v-86h-45v-81h-106v81h-174v93l144 267h136v-274zM667 168h72l7 161z" />
    <glyph glyph-name="questiondown" unicode="&#xbf;" horiz-adv-x="459" 
d="M422 5q0 -42 -15.5 -78.5t-42.5 -63.5t-64.5 -42.5t-82.5 -15.5q-90 0 -139.5 46t-49.5 124q0 23 2.5 42t9 39.5t19.5 45.5t34 60q14 24 22 39t12 29.5t5 32.5t1 47h156q0 -47 -1.5 -77t-5.5 -51t-12 -37t-20 -35q-17 -27 -28 -47t-17.5 -36t-9 -29.5t-2.5 -28.5
q0 -26 7 -36.5t18 -10.5q8 0 14.5 3t11 12t8 25.5t5.5 42.5h165zM297 540v-157h-173v157h173z" />
    <glyph glyph-name="Agrave" unicode="&#xc0;" horiz-adv-x="601" 
d="M427 0l-37 165h-190l-37 -165h-163l206 720h186l209 -720h-174zM229 275h132l-66 307zM416 773h-116l-131 137h161z" />
    <glyph glyph-name="Aacute" unicode="&#xc1;" horiz-adv-x="601" 
d="M427 0l-37 165h-190l-37 -165h-163l206 720h186l209 -720h-174zM229 275h132l-66 307zM272 910h160l-131 -137h-116z" />
    <glyph glyph-name="Acircumflex" unicode="&#xc2;" horiz-adv-x="601" 
d="M427 0l-37 165h-190l-37 -165h-163l206 720h186l209 -720h-174zM229 275h132l-66 307zM266 773h-149l112 137h131l112 -137h-148l-29 69z" />
    <glyph glyph-name="Atilde" unicode="&#xc3;" horiz-adv-x="601" 
d="M427 0l-37 165h-190l-37 -165h-163l206 720h186l209 -720h-174zM229 275h132l-66 307zM354 782q-18 0 -33 6t-28.5 13t-26.5 13t-27 6t-34 -10.5t-39 -27.5v110q19 16 39.5 24.5t37.5 8.5q18 0 33 -6t28.5 -13t26.5 -13t27 -6t32.5 10.5t36.5 27.5v-110q-38 -33 -73 -33z
" />
    <glyph glyph-name="Adieresis" unicode="&#xc4;" horiz-adv-x="601" 
d="M427 0l-37 165h-190l-37 -165h-163l206 720h186l209 -720h-174zM229 275h132l-66 307zM125 782v128h142v-128h-142zM324 782v128h143v-128h-143z" />
    <glyph glyph-name="Aring" unicode="&#xc5;" horiz-adv-x="601" 
d="M419 779q0 -45 -23 -79l205 -700h-174l-37 165h-190l-37 -165h-163l201 697q-26 32 -26 82q0 25 7.5 47.5t22.5 39t38 26.5t54 10t54 -10t38 -26.5t22.5 -39t7.5 -47.5zM229 275h132l-66 307zM270 779q0 -26 6 -38.5t22 -12.5t21.5 12.5t5.5 38.5t-6 38.5t-22 12.5
q-15 0 -21 -12.5t-6 -38.5z" />
    <glyph glyph-name="AE" unicode="&#xc6;" horiz-adv-x="821" 
d="M796 0h-401v165h-171l-57 -165h-167l273 720h523v-123h-234v-176h209v-116h-209v-184h234v-121zM395 275v346l-125 -346h125z" />
    <glyph glyph-name="Ccedilla" unicode="&#xc7;" horiz-adv-x="641" 
d="M440 -139q0 -51 -34 -85t-95 -34q-129 0 -141 121h95q1 -41 42 -41q36 0 36 36q0 20 -15.5 31.5t-51.5 11.5l7 87q-121 15 -185.5 105.5t-64.5 268.5q0 186 75 279.5t221 93.5q110 0 184.5 -64t94.5 -186h-167q-11 68 -37 100.5t-72 32.5q-62 0 -93 -60t-31 -196
q0 -71 8.5 -120.5t24.5 -80.5t39 -44.5t52 -13.5q54 0 79.5 38.5t31.5 123.5h170q-16 -128 -76.5 -198.5t-168.5 -80.5v-26q36 -9 54 -34.5t18 -64.5z" />
    <glyph glyph-name="Egrave" unicode="&#xc8;" horiz-adv-x="502" 
d="M452 305h-239v-184h264v-121h-431v720h431v-123h-264v-176h239v-116zM357 773h-116l-131 137h161z" />
    <glyph glyph-name="Eacute" unicode="&#xc9;" horiz-adv-x="502" 
d="M452 305h-239v-184h264v-121h-431v720h431v-123h-264v-176h239v-116zM265 910h160l-131 -137h-116z" />
    <glyph glyph-name="Ecircumflex" unicode="&#xca;" horiz-adv-x="502" 
d="M452 305h-239v-184h264v-121h-431v720h431v-123h-264v-176h239v-116zM233 773h-149l112 137h131l112 -137h-148l-29 69z" />
    <glyph glyph-name="Edieresis" unicode="&#xcb;" horiz-adv-x="502" 
d="M452 305h-239v-184h264v-121h-431v720h431v-123h-264v-176h239v-116zM88 782v128h142v-128h-142zM287 782v128h143v-128h-143z" />
    <glyph glyph-name="Igrave" unicode="&#xcc;" horiz-adv-x="259" 
d="M213 720v-720h-167v720h167zM246 773h-116l-131 137h161z" />
    <glyph glyph-name="Iacute" unicode="&#xcd;" horiz-adv-x="259" 
d="M213 720v-720h-167v720h167zM104 910h160l-131 -137h-116z" />
    <glyph glyph-name="Icircumflex" unicode="&#xce;" horiz-adv-x="259" 
d="M213 720v-720h-167v720h167zM102 773h-149l112 137h131l112 -137h-148l-29 69z" />
    <glyph glyph-name="Idieresis" unicode="&#xcf;" horiz-adv-x="259" 
d="M213 720v-720h-167v720h167zM-40 782v128h142v-128h-142zM159 782v128h143v-128h-143z" />
    <glyph glyph-name="Eth" unicode="&#xd0;" horiz-adv-x="634" 
d="M285 720q156 0 236 -86.5t80 -272.5q0 -189 -80 -275t-232 -86h-243v315h-43v126h43v279h239zM213 604v-163h85v-126h-85v-198h73q67 0 107 58t40 186q0 66 -11 112t-31 75.5t-47 42.5t-60 13h-71z" />
    <glyph glyph-name="Ntilde" unicode="&#xd1;" horiz-adv-x="620" 
d="M574 720v-720h-167l-220 492v-492h-141v720h181l206 -480v480h141zM364 782q-18 0 -33 6t-28.5 13t-26.5 13t-27 6t-34 -10.5t-39 -27.5v110q19 16 39.5 24.5t37.5 8.5q18 0 33 -6t28.5 -13t26.5 -13t27 -6t32.5 10.5t36.5 27.5v-110q-38 -33 -73 -33z" />
    <glyph glyph-name="Ograve" unicode="&#xd2;" horiz-adv-x="678" 
d="M339 104q28 0 53 13.5t43.5 44t29.5 79t11 119.5q0 69 -10.5 118t-29.5 80t-44 45t-53 14q-27 0 -52 -13t-43.5 -43t-30 -79.5t-11.5 -122.5q0 -69 11 -117.5t30 -79t44 -44.5t52 -14zM339 -15q-67 0 -123.5 23t-97 69.5t-63 116.5t-22.5 165q0 93 22 163.5t62.5 117.5
t96.5 71t125 24q67 0 123.5 -23t97 -69.5t63 -117t22.5 -165.5q0 -93 -23.5 -163.5t-64.5 -117.5t-97 -70.5t-121 -23.5zM434 773h-116l-131 137h161z" />
    <glyph glyph-name="Oacute" unicode="&#xd3;" horiz-adv-x="678" 
d="M339 104q28 0 53 13.5t43.5 44t29.5 79t11 119.5q0 69 -10.5 118t-29.5 80t-44 45t-53 14q-27 0 -52 -13t-43.5 -43t-30 -79.5t-11.5 -122.5q0 -69 11 -117.5t30 -79t44 -44.5t52 -14zM339 -15q-67 0 -123.5 23t-97 69.5t-63 116.5t-22.5 165q0 93 22 163.5t62.5 117.5
t96.5 71t125 24q67 0 123.5 -23t97 -69.5t63 -117t22.5 -165.5q0 -93 -23.5 -163.5t-64.5 -117.5t-97 -70.5t-121 -23.5zM341 910h160l-131 -137h-116z" />
    <glyph glyph-name="Ocircumflex" unicode="&#xd4;" horiz-adv-x="678" 
d="M339 104q28 0 53 13.5t43.5 44t29.5 79t11 119.5q0 69 -10.5 118t-29.5 80t-44 45t-53 14q-27 0 -52 -13t-43.5 -43t-30 -79.5t-11.5 -122.5q0 -69 11 -117.5t30 -79t44 -44.5t52 -14zM339 -15q-67 0 -123.5 23t-97 69.5t-63 116.5t-22.5 165q0 93 22 163.5t62.5 117.5
t96.5 71t125 24q67 0 123.5 -23t97 -69.5t63 -117t22.5 -165.5q0 -93 -23.5 -163.5t-64.5 -117.5t-97 -70.5t-121 -23.5zM313 773h-149l112 137h131l112 -137h-148l-29 69z" />
    <glyph glyph-name="Otilde" unicode="&#xd5;" horiz-adv-x="678" 
d="M339 104q28 0 53 13.5t43.5 44t29.5 79t11 119.5q0 69 -10.5 118t-29.5 80t-44 45t-53 14q-27 0 -52 -13t-43.5 -43t-30 -79.5t-11.5 -122.5q0 -69 11 -117.5t30 -79t44 -44.5t52 -14zM339 -15q-67 0 -123.5 23t-97 69.5t-63 116.5t-22.5 165q0 93 22 163.5t62.5 117.5
t96.5 71t125 24q67 0 123.5 -23t97 -69.5t63 -117t22.5 -165.5q0 -93 -23.5 -163.5t-64.5 -117.5t-97 -70.5t-121 -23.5zM397 782q-18 0 -33 6t-28.5 13t-26.5 13t-27 6t-34 -10.5t-39 -27.5v110q19 16 39.5 24.5t37.5 8.5q18 0 33 -6t28.5 -13t26.5 -13t27 -6t32.5 10.5
t36.5 27.5v-110q-38 -33 -73 -33z" />
    <glyph glyph-name="Odieresis" unicode="&#xd6;" horiz-adv-x="678" 
d="M339 104q28 0 53 13.5t43.5 44t29.5 79t11 119.5q0 69 -10.5 118t-29.5 80t-44 45t-53 14q-27 0 -52 -13t-43.5 -43t-30 -79.5t-11.5 -122.5q0 -69 11 -117.5t30 -79t44 -44.5t52 -14zM339 -15q-67 0 -123.5 23t-97 69.5t-63 116.5t-22.5 165q0 93 22 163.5t62.5 117.5
t96.5 71t125 24q67 0 123.5 -23t97 -69.5t63 -117t22.5 -165.5q0 -93 -23.5 -163.5t-64.5 -117.5t-97 -70.5t-121 -23.5zM171 782v128h142v-128h-142zM370 782v128h143v-128h-143z" />
    <glyph glyph-name="multiply" unicode="&#xd7;" 
d="M88 217l104 105l-104 105l87 87l105 -104l105 104l87 -87l-104 -105l104 -105l-87 -87l-105 104l-105 -104z" />
    <glyph glyph-name="Oslash" unicode="&#xd8;" horiz-adv-x="678" 
d="M339 -15q-36 0 -67 6l-29 -101h-113l42 141q-65 42 -102 123.5t-37 204.5q0 93 22 163.5t62.5 117.5t96.5 71t125 24q34 0 67 -6l29 91h113l-43 -131q65 -42 102.5 -123.5t37.5 -205.5q0 -93 -23.5 -163.5t-64.5 -117.5t-97 -70.5t-121 -23.5zM202 359q0 -69 11 -117.5
t30 -79.5l129 450q-17 5 -33 5q-27 0 -52 -13t-43.5 -43t-30 -79.5t-11.5 -122.5zM339 104q28 0 53 13.5t43.5 44t29.5 79t11 119.5q0 70 -11 118.5t-30 79.5l-129 -449q14 -5 33 -5z" />
    <glyph glyph-name="Ugrave" unicode="&#xd9;" horiz-adv-x="619" 
d="M209 720v-490q0 -61 23.5 -93.5t77.5 -32.5t80.5 32.5t26.5 93.5v490h160v-479q0 -121 -66.5 -188.5t-201.5 -67.5q-134 0 -200.5 67.5t-66.5 188.5v479h167zM372 773h-116l-131 137h161z" />
    <glyph glyph-name="Uacute" unicode="&#xda;" horiz-adv-x="619" 
d="M209 720v-490q0 -61 23.5 -93.5t77.5 -32.5t80.5 32.5t26.5 93.5v490h160v-479q0 -121 -66.5 -188.5t-201.5 -67.5q-134 0 -200.5 67.5t-66.5 188.5v479h167zM348 910h160l-131 -137h-116z" />
    <glyph glyph-name="Ucircumflex" unicode="&#xdb;" horiz-adv-x="619" 
d="M209 720v-490q0 -61 23.5 -93.5t77.5 -32.5t80.5 32.5t26.5 93.5v490h160v-479q0 -121 -66.5 -188.5t-201.5 -67.5q-134 0 -200.5 67.5t-66.5 188.5v479h167zM280 773h-149l112 137h131l112 -137h-148l-29 69z" />
    <glyph glyph-name="Udieresis" unicode="&#xdc;" horiz-adv-x="619" 
d="M209 720v-490q0 -61 23.5 -93.5t77.5 -32.5t80.5 32.5t26.5 93.5v490h160v-479q0 -121 -66.5 -188.5t-201.5 -67.5q-134 0 -200.5 67.5t-66.5 188.5v479h167zM139 782v128h142v-128h-142zM338 782v128h143v-128h-143z" />
    <glyph glyph-name="Yacute" unicode="&#xdd;" horiz-adv-x="588" 
d="M216 0v287l-216 433h178l121 -288l132 288h157l-216 -433v-287h-156zM313 910h160l-131 -137h-116z" />
    <glyph glyph-name="Thorn" unicode="&#xde;" horiz-adv-x="590" 
d="M213 720v-115h64q279 0 279 -240q0 -119 -68.5 -179t-203.5 -60h-71v-126h-167v720h167zM213 490v-249h73q43 0 70.5 32t27.5 92q0 62 -29 93.5t-76 31.5h-66z" />
    <glyph glyph-name="germandbls" unicode="&#xdf;" horiz-adv-x="571" 
d="M385 -15q-47 0 -80.5 8.5t-55 26.5t-34 44.5t-17.5 62.5h146q2 -20 10 -27.5t22 -7.5t23 14.5t9 46.5q0 26 -12 47.5t-43 44.5q-44 33 -61.5 65t-17.5 77q0 32 9.5 52.5t21.5 38t21.5 36.5t9.5 49q0 28 -19 45t-49 17q-38 0 -54.5 -25.5t-16.5 -85.5v-171l-29 -343h-126
v512q0 49 15 90t44 70.5t72 46t99 16.5q51 0 91.5 -11.5t69 -33t44 -51.5t15.5 -66q0 -37 -14 -61.5t-31.5 -42.5t-31.5 -33.5t-14 -35.5q0 -19 9 -34.5t30 -30.5q66 -48 93 -91.5t27 -91.5q0 -78 -43.5 -122.5t-131.5 -44.5z" />
    <glyph glyph-name="agrave" unicode="&#xe0;" horiz-adv-x="509" 
d="M38 373q20 78 76 120t150 42q100 0 153.5 -49.5t53.5 -148.5v-337h-120l-19 54q-22 -29 -58 -49t-89 -20q-34 0 -63 11t-50 31.5t-32.5 50.5t-11.5 68q0 30 9 56.5t31 48.5t57 38t88 24l103 16v28q0 42 -14.5 59.5t-43.5 17.5q-51 0 -63 -61h-157zM232 92q44 0 64 29.5
t20 70.5v51l-63 -12q-42 -8 -57 -29t-15 -49q0 -61 51 -61zM333 598h-116l-131 137h161z" />
    <glyph glyph-name="aacute" unicode="&#xe1;" horiz-adv-x="509" 
d="M38 373q20 78 76 120t150 42q100 0 153.5 -49.5t53.5 -148.5v-337h-120l-19 54q-22 -29 -58 -49t-89 -20q-34 0 -63 11t-50 31.5t-32.5 50.5t-11.5 68q0 30 9 56.5t31 48.5t57 38t88 24l103 16v28q0 42 -14.5 59.5t-43.5 17.5q-51 0 -63 -61h-157zM232 92q44 0 64 29.5
t20 70.5v51l-63 -12q-42 -8 -57 -29t-15 -49q0 -61 51 -61zM283 735h160l-131 -137h-116z" />
    <glyph glyph-name="acircumflex" unicode="&#xe2;" horiz-adv-x="509" 
d="M38 373q20 78 76 120t150 42q100 0 153.5 -49.5t53.5 -148.5v-337h-120l-19 54q-22 -29 -58 -49t-89 -20q-34 0 -63 11t-50 31.5t-32.5 50.5t-11.5 68q0 30 9 56.5t31 48.5t57 38t88 24l103 16v28q0 42 -14.5 59.5t-43.5 17.5q-51 0 -63 -61h-157zM232 92q44 0 64 29.5
t20 70.5v51l-63 -12q-42 -8 -57 -29t-15 -49q0 -61 51 -61zM232 598h-149l112 137h131l112 -137h-148l-29 69z" />
    <glyph glyph-name="atilde" unicode="&#xe3;" horiz-adv-x="509" 
d="M38 373q20 78 76 120t150 42q100 0 153.5 -49.5t53.5 -148.5v-337h-120l-19 54q-22 -29 -58 -49t-89 -20q-34 0 -63 11t-50 31.5t-32.5 50.5t-11.5 68q0 30 9 56.5t31 48.5t57 38t88 24l103 16v28q0 42 -14.5 59.5t-43.5 17.5q-51 0 -63 -61h-157zM232 92q44 0 64 29.5
t20 70.5v51l-63 -12q-42 -8 -57 -29t-15 -49q0 -61 51 -61zM304 592q-18 0 -33 6t-28.5 13t-26.5 13t-27 6t-34 -10.5t-39 -27.5v110q19 16 39.5 24.5t37.5 8.5q18 0 33 -6t28.5 -13t26.5 -13t27 -6t32.5 10.5t36.5 27.5v-110q-38 -33 -73 -33z" />
    <glyph glyph-name="adieresis" unicode="&#xe4;" horiz-adv-x="509" 
d="M38 373q20 78 76 120t150 42q100 0 153.5 -49.5t53.5 -148.5v-337h-120l-19 54q-22 -29 -58 -49t-89 -20q-34 0 -63 11t-50 31.5t-32.5 50.5t-11.5 68q0 30 9 56.5t31 48.5t57 38t88 24l103 16v28q0 42 -14.5 59.5t-43.5 17.5q-51 0 -63 -61h-157zM232 92q44 0 64 29.5
t20 70.5v51l-63 -12q-42 -8 -57 -29t-15 -49q0 -61 51 -61zM79 592v128h142v-128h-142zM278 592v128h143v-128h-143z" />
    <glyph glyph-name="aring" unicode="&#xe5;" horiz-adv-x="509" 
d="M38 373q20 78 76 120t150 42q100 0 153.5 -49.5t53.5 -148.5v-337h-120l-19 54q-22 -29 -58 -49t-89 -20q-34 0 -63 11t-50 31.5t-32.5 50.5t-11.5 68q0 30 9 56.5t31 48.5t57 38t88 24l103 16v28q0 42 -14.5 59.5t-43.5 17.5q-51 0 -63 -61h-157zM232 92q44 0 64 29.5
t20 70.5v51l-63 -12q-42 -8 -57 -29t-15 -49q0 -61 51 -61zM228 700q0 -26 6 -38.5t22 -12.5t21.5 12.5t5.5 38.5t-6 38.5t-22 12.5q-15 0 -21 -12.5t-6 -38.5zM377 700q0 -25 -7.5 -47.5t-22.5 -39t-38 -26.5t-54 -10t-54 10t-38 26.5t-22.5 39t-7.5 47.5t7.5 47.5t22.5 39
t38 26.5t54 10t54 -10t38 -26.5t22.5 -39t7.5 -47.5z" />
    <glyph glyph-name="ae" unicode="&#xe6;" horiz-adv-x="814" 
d="M788 151q-7 -36 -22.5 -66.5t-42.5 -52.5t-67.5 -34.5t-97.5 -12.5q-72 0 -118 29t-76 80q-9 -23 -23.5 -42.5t-35 -34.5t-48 -23.5t-64.5 -8.5q-78 0 -121.5 41.5t-43.5 123.5q0 30 7 55.5t27.5 46t57 36.5t95.5 27l101 19v23q0 77 -59 77q-33 0 -45.5 -17.5
t-17.5 -46.5h-157q20 78 74 121.5t151 43.5q43 0 80 -16.5t66 -43.5q27 29 61 44.5t85 15.5q117 0 178 -76.5t61 -236.5h-320q4 -34 10.5 -58.5t17.5 -40t27 -22.5t39 -7q31 0 45.5 15.5t19.5 41.5h156zM550 437q-38 0 -56.5 -28.5t-22.5 -95.5h163q-2 66 -22 95t-62 29z
M316 249l-61 -18q-44 -13 -59 -30t-15 -44q0 -33 14 -49t37 -16q24 0 40 8.5t26 23t14 33t4 39.5v53z" />
    <glyph glyph-name="ccedilla" unicode="&#xe7;" horiz-adv-x="519" 
d="M497 173q-8 -37 -22.5 -68.5t-37.5 -56t-55.5 -40.5t-76.5 -21v-27q36 -9 54 -34.5t18 -64.5q0 -51 -34 -85t-95 -34q-129 0 -141 121h95q1 -41 42 -41q36 0 36 36q0 20 -15.5 31.5t-51.5 11.5l7 87q-99 12 -145.5 79t-46.5 190q0 134 60 206t176 72q49 0 88.5 -12.5
t69.5 -36t49 -55.5t26 -71h-161q-5 33 -24 51t-44 18q-19 0 -34 -8t-25 -28.5t-15.5 -54t-5.5 -84.5q0 -87 21 -124.5t59 -37.5q31 0 47 19.5t21 61.5h161z" />
    <glyph glyph-name="egrave" unicode="&#xe8;" horiz-adv-x="526" 
d="M498 147q-13 -73 -67 -117.5t-151 -44.5q-122 0 -187 69.5t-65 205.5q0 137 61.5 206t177.5 69q56 0 100.5 -18t75 -56t46.5 -97.5t16 -141.5h-320q5 -72 28.5 -100t65.5 -28q55 0 64 53h155zM264 437q-35 0 -55.5 -27.5t-25.5 -96.5h163q-2 72 -23 98t-59 26zM335 598
h-116l-131 137h161z" />
    <glyph glyph-name="eacute" unicode="&#xe9;" horiz-adv-x="526" 
d="M498 147q-13 -73 -67 -117.5t-151 -44.5q-122 0 -187 69.5t-65 205.5q0 137 61.5 206t177.5 69q56 0 100.5 -18t75 -56t46.5 -97.5t16 -141.5h-320q5 -72 28.5 -100t65.5 -28q55 0 64 53h155zM264 437q-35 0 -55.5 -27.5t-25.5 -96.5h163q-2 72 -23 98t-59 26zM288 735
h160l-131 -137h-116z" />
    <glyph glyph-name="ecircumflex" unicode="&#xea;" horiz-adv-x="526" 
d="M498 147q-13 -73 -67 -117.5t-151 -44.5q-122 0 -187 69.5t-65 205.5q0 137 61.5 206t177.5 69q56 0 100.5 -18t75 -56t46.5 -97.5t16 -141.5h-320q5 -72 28.5 -100t65.5 -28q55 0 64 53h155zM264 437q-35 0 -55.5 -27.5t-25.5 -96.5h163q-2 72 -23 98t-59 26zM234 599
h-149l112 137h131l112 -137h-148l-29 69z" />
    <glyph glyph-name="edieresis" unicode="&#xeb;" horiz-adv-x="526" 
d="M498 147q-13 -73 -67 -117.5t-151 -44.5q-122 0 -187 69.5t-65 205.5q0 137 61.5 206t177.5 69q56 0 100.5 -18t75 -56t46.5 -97.5t16 -141.5h-320q5 -72 28.5 -100t65.5 -28q55 0 64 53h155zM264 437q-35 0 -55.5 -27.5t-25.5 -96.5h163q-2 72 -23 98t-59 26zM86 592
v128h142v-128h-142zM285 592v128h143v-128h-143z" />
    <glyph glyph-name="igrave" unicode="&#xec;" horiz-adv-x="239" 
d="M221 598h-116l-131 137h161zM42 0v520h155v-520h-155z" />
    <glyph glyph-name="iacute" unicode="&#xed;" horiz-adv-x="239" 
d="M107 735h160l-131 -137h-116zM42 0v520h155v-520h-155z" />
    <glyph glyph-name="icircumflex" unicode="&#xee;" horiz-adv-x="239" 
d="M42 0v520h155v-520h-155zM92 598h-149l112 137h131l112 -137h-148l-29 69z" />
    <glyph glyph-name="idieresis" unicode="&#xef;" horiz-adv-x="239" 
d="M-26 592v128h121v-128h-121zM142 592v128h123v-128h-123zM42 0v520h155v-520h-155z" />
    <glyph glyph-name="eth" unicode="&#xf0;" horiz-adv-x="510" 
d="M67 753q52 -5 103 -19t98 -39l24 25h135l-77 -80q60 -53 97 -130t37 -183q0 -168 -53 -255t-170 -87q-233 0 -233 253q0 56 11 101t33.5 77t56.5 49.5t81 17.5q27 0 54.5 -13.5t41.5 -33.5q-12 69 -43 112l-13 -13h-135l72 76q-48 24 -120 39v103zM256 370
q-18 0 -31.5 -6.5t-22 -22.5t-12.5 -42.5t-4 -65.5q0 -42 4 -68.5t13 -41.5t22.5 -20t32.5 -5q16 0 28.5 6.5t21 24t13 48t4.5 78.5q0 63 -18 89t-51 26z" />
    <glyph glyph-name="ntilde" unicode="&#xf1;" horiz-adv-x="529" 
d="M42 520h128l13 -55q29 38 62.5 54t80.5 16q78 0 121.5 -49.5t43.5 -149.5v-336h-155v329q0 56 -15 76t-44 20q-35 0 -57.5 -26.5t-22.5 -85.5v-313h-155v520zM325 592q-18 0 -33 6t-28.5 13t-26.5 13t-27 6t-34 -10.5t-39 -27.5v110q19 16 39.5 24.5t37.5 8.5q18 0 33 -6
t28.5 -13t26.5 -13t27 -6t32.5 10.5t36.5 27.5v-110q-38 -33 -73 -33z" />
    <glyph glyph-name="ograve" unicode="&#xf2;" horiz-adv-x="542" 
d="M28 262q0 137 59 205t184 68q121 0 182 -67t61 -206q0 -136 -59 -206.5t-184 -70.5q-243 0 -243 277zM188 262q0 -51 5 -84t15.5 -52.5t26.5 -27.5t37 -8q22 0 38 7t26 26t14.5 52.5t4.5 86.5q0 51 -5 83.5t-15.5 51.5t-26.5 26t-37 7q-22 0 -37.5 -7t-25.5 -26
t-15 -51.5t-5 -83.5zM349 598h-116l-131 137h161z" />
    <glyph glyph-name="oacute" unicode="&#xf3;" horiz-adv-x="542" 
d="M28 262q0 137 59 205t184 68q121 0 182 -67t61 -206q0 -136 -59 -206.5t-184 -70.5q-243 0 -243 277zM188 262q0 -51 5 -84t15.5 -52.5t26.5 -27.5t37 -8q22 0 38 7t26 26t14.5 52.5t4.5 86.5q0 51 -5 83.5t-15.5 51.5t-26.5 26t-37 7q-22 0 -37.5 -7t-25.5 -26
t-15 -51.5t-5 -83.5zM271 735h160l-131 -137h-116z" />
    <glyph glyph-name="ocircumflex" unicode="&#xf4;" horiz-adv-x="542" 
d="M28 262q0 137 59 205t184 68q121 0 182 -67t61 -206q0 -136 -59 -206.5t-184 -70.5q-243 0 -243 277zM188 262q0 -51 5 -84t15.5 -52.5t26.5 -27.5t37 -8q22 0 38 7t26 26t14.5 52.5t4.5 86.5q0 51 -5 83.5t-15.5 51.5t-26.5 26t-37 7q-22 0 -37.5 -7t-25.5 -26
t-15 -51.5t-5 -83.5zM244 598h-149l112 137h131l112 -137h-148l-29 69z" />
    <glyph glyph-name="otilde" unicode="&#xf5;" horiz-adv-x="542" 
d="M28 262q0 137 59 205t184 68q121 0 182 -67t61 -206q0 -136 -59 -206.5t-184 -70.5q-243 0 -243 277zM188 262q0 -51 5 -84t15.5 -52.5t26.5 -27.5t37 -8q22 0 38 7t26 26t14.5 52.5t4.5 86.5q0 51 -5 83.5t-15.5 51.5t-26.5 26t-37 7q-22 0 -37.5 -7t-25.5 -26
t-15 -51.5t-5 -83.5zM330 592q-18 0 -33 6t-28.5 13t-26.5 13t-27 6t-34 -10.5t-39 -27.5v110q19 16 39.5 24.5t37.5 8.5q18 0 33 -6t28.5 -13t26.5 -13t27 -6t32.5 10.5t36.5 27.5v-110q-38 -33 -73 -33z" />
    <glyph glyph-name="odieresis" unicode="&#xf6;" horiz-adv-x="542" 
d="M28 262q0 137 59 205t184 68q121 0 182 -67t61 -206q0 -136 -59 -206.5t-184 -70.5q-243 0 -243 277zM188 262q0 -51 5 -84t15.5 -52.5t26.5 -27.5t37 -8q22 0 38 7t26 26t14.5 52.5t4.5 86.5q0 51 -5 83.5t-15.5 51.5t-26.5 26t-37 7q-22 0 -37.5 -7t-25.5 -26
t-15 -51.5t-5 -83.5zM101 592v128h142v-128h-142zM300 592v128h143v-128h-143z" />
    <glyph glyph-name="divide" unicode="&#xf7;" 
d="M204 62v142h151v-142h-151zM204 441v142h151v-142h-151zM473 261h-386v123h386v-123z" />
    <glyph glyph-name="oslash" unicode="&#xf8;" horiz-adv-x="542" 
d="M28 262q0 137 59 205t184 68q15 0 29 -1t28 -3l39 99h113l-56 -137q90 -66 90 -231q0 -136 -59 -206.5t-184 -70.5q-15 0 -29 1.5t-28 3.5l-38 -100h-114l55 138q-89 65 -89 234zM188 262q0 -38 2.5 -65t8.5 -47l98 277q-12 3 -26 3q-22 0 -37.5 -7t-25.5 -26t-15 -51.5
t-5 -83.5zM355 262q0 70 -10 106l-98 -276q6 -2 12 -2h13q22 0 38 7t26 26t14.5 52.5t4.5 86.5z" />
    <glyph glyph-name="ugrave" unicode="&#xf9;" horiz-adv-x="524" 
d="M193 520v-344q0 -45 16 -63t48 -18q28 0 49 28t21 85v312h155v-520h-128l-14 55q-23 -33 -57 -51.5t-79 -18.5q-166 0 -166 194v341h155zM318 598h-116l-131 137h161z" />
    <glyph glyph-name="uacute" unicode="&#xfa;" horiz-adv-x="524" 
d="M193 520v-344q0 -45 16 -63t48 -18q28 0 49 28t21 85v312h155v-520h-128l-14 55q-23 -33 -57 -51.5t-79 -18.5q-166 0 -166 194v341h155zM287 735h160l-131 -137h-116z" />
    <glyph glyph-name="ucircumflex" unicode="&#xfb;" horiz-adv-x="524" 
d="M193 520v-344q0 -45 16 -63t48 -18q28 0 49 28t21 85v312h155v-520h-128l-14 55q-23 -33 -57 -51.5t-79 -18.5q-166 0 -166 194v341h155zM230 598h-149l112 137h131l112 -137h-148l-29 69z" />
    <glyph glyph-name="udieresis" unicode="&#xfc;" horiz-adv-x="524" 
d="M193 520v-344q0 -45 16 -63t48 -18q28 0 49 28t21 85v312h155v-520h-128l-14 55q-23 -33 -57 -51.5t-79 -18.5q-166 0 -166 194v341h155zM90 592v128h142v-128h-142zM289 592v128h143v-128h-143z" />
    <glyph glyph-name="yacute" unicode="&#xfd;" horiz-adv-x="512" 
d="M509 520l-163 -531q-16 -51 -32.5 -86t-37 -56.5t-46 -31.5t-59.5 -10q-20 0 -41 3t-39 8v109q23 -6 37.5 -7.5t22.5 -1.5q24 0 36.5 19.5t17.5 64.5h-43l-159 520h164l88 -399l99 399h155zM269 735h160l-131 -137h-116z" />
    <glyph glyph-name="thorn" unicode="&#xfe;" horiz-adv-x="555" 
d="M42 -180v900h155v-246q24 29 58 45t74 16q92 0 145 -63.5t53 -193.5q0 -71 -15 -126t-42 -92t-65 -56t-84 -19q-35 0 -68 15t-56 41v-221h-155zM369 264q0 45 -6 75t-17 48.5t-27 26t-37 7.5q-42 0 -67 -35t-25 -120q0 -48 6 -80t17.5 -51.5t28.5 -27.5t39 -8
q41 0 64.5 37t23.5 128z" />
    <glyph glyph-name="ydieresis" unicode="&#xff;" horiz-adv-x="512" 
d="M509 520l-163 -531q-16 -51 -32.5 -86t-37 -56.5t-46 -31.5t-59.5 -10q-20 0 -41 3t-39 8v109q23 -6 37.5 -7.5t22.5 -1.5q24 0 36.5 19.5t17.5 64.5h-43l-159 520h164l88 -399l99 399h155zM85 592v128h142v-128h-142zM284 592v128h143v-128h-143z" />
    <glyph glyph-name="Amacron" unicode="&#x100;" horiz-adv-x="601" 
d="M427 0l-37 165h-190l-37 -165h-163l206 720h186l209 -720h-174zM229 275h132l-66 307zM179 798v112h232v-112h-232z" />
    <glyph glyph-name="amacron" unicode="&#x101;" horiz-adv-x="509" 
d="M38 373q20 78 76 120t150 42q100 0 153.5 -49.5t53.5 -148.5v-337h-120l-19 54q-22 -29 -58 -49t-89 -20q-34 0 -63 11t-50 31.5t-32.5 50.5t-11.5 68q0 30 9 56.5t31 48.5t57 38t88 24l103 16v28q0 42 -14.5 59.5t-43.5 17.5q-51 0 -63 -61h-157zM232 92q44 0 64 29.5
t20 70.5v51l-63 -12q-42 -8 -57 -29t-15 -49q0 -61 51 -61zM147 608v112h232v-112h-232z" />
    <glyph glyph-name="Abreve" unicode="&#x102;" horiz-adv-x="601" 
d="M427 0l-37 165h-190l-37 -165h-163l206 720h186l209 -720h-174zM229 275h132l-66 307zM277 910q1 -26 5 -37.5t15 -11.5q10 0 14.5 11.5t4.5 37.5h118q-8 -72 -45.5 -102.5t-91.5 -30.5q-64 0 -97.5 35t-39.5 98h117z" />
    <glyph glyph-name="abreve" unicode="&#x103;" horiz-adv-x="509" 
d="M38 373q20 78 76 120t150 42q100 0 153.5 -49.5t53.5 -148.5v-337h-120l-19 54q-22 -29 -58 -49t-89 -20q-34 0 -63 11t-50 31.5t-32.5 50.5t-11.5 68q0 30 9 56.5t31 48.5t57 38t88 24l103 16v28q0 42 -14.5 59.5t-43.5 17.5q-51 0 -63 -61h-157zM232 92q44 0 64 29.5
t20 70.5v51l-63 -12q-42 -8 -57 -29t-15 -49q0 -61 51 -61zM239 735q1 -26 5 -37.5t15 -11.5q10 0 14.5 11.5t4.5 37.5h118q-8 -72 -45.5 -102.5t-91.5 -30.5q-64 0 -97.5 35t-39.5 98h117z" />
    <glyph glyph-name="Aogonek" unicode="&#x104;" horiz-adv-x="601" 
d="M589 -137q-11 -51 -44.5 -80.5t-92.5 -29.5q-63 0 -95.5 29t-32.5 85q0 43 26.5 80t74.5 61l-35 157h-190l-37 -165h-163l206 720h186l209 -720h-96q-42 -28 -60 -55.5t-18 -57.5q0 -24 9 -35t24 -11q21 0 27 22h102zM229 275h132l-66 307z" />
    <glyph glyph-name="aogonek" unicode="&#x105;" horiz-adv-x="509" 
d="M512 -137q-11 -51 -44.5 -80.5t-92.5 -29.5q-63 0 -95.5 29t-32.5 85q0 43 26.5 80t74.5 61l-16 46q-22 -29 -58 -49t-89 -20q-34 0 -63 11t-50 31.5t-32.5 50.5t-11.5 68q0 30 9 56.5t31 48.5t57 38t88 24l103 16v28q0 42 -14.5 59.5t-43.5 17.5q-51 0 -63 -61h-157
q20 78 76 120t150 42q100 0 153.5 -49.5t53.5 -148.5v-337h-43q-42 -28 -60 -55.5t-18 -57.5q0 -24 9 -35t24 -11q21 0 27 22h102zM232 92q44 0 64 29.5t20 70.5v51l-63 -12q-42 -8 -57 -29t-15 -49q0 -61 51 -61z" />
    <glyph glyph-name="Cacute" unicode="&#x106;" horiz-adv-x="641" 
d="M332 103q54 0 79.5 38.5t31.5 123.5h170q-17 -137 -85.5 -208.5t-191.5 -71.5q-146 0 -224.5 90.5t-78.5 286.5q0 186 75 279.5t221 93.5q110 0 184.5 -64t94.5 -186h-167q-11 68 -37 100.5t-72 32.5q-62 0 -93 -60t-31 -196q0 -71 8.5 -120.5t24.5 -80.5t39 -44.5
t52 -13.5zM358 910h160l-131 -137h-116z" />
    <glyph glyph-name="cacute" unicode="&#x107;" horiz-adv-x="519" 
d="M497 173q-9 -41 -25.5 -75t-44 -59.5t-67 -39.5t-93.5 -14q-123 0 -181 67.5t-58 204.5q0 134 60 206t176 72q49 0 88.5 -12.5t69.5 -36t49 -55.5t26 -71h-161q-5 33 -24 51t-44 18q-19 0 -34 -8t-25 -28.5t-15.5 -54t-5.5 -84.5q0 -87 21 -124.5t59 -37.5q31 0 47 19.5
t21 61.5h161zM288 735h160l-131 -137h-116z" />
    <glyph glyph-name="Ccircumflex" unicode="&#x108;" horiz-adv-x="641" 
d="M332 103q54 0 79.5 38.5t31.5 123.5h170q-17 -137 -85.5 -208.5t-191.5 -71.5q-146 0 -224.5 90.5t-78.5 286.5q0 186 75 279.5t221 93.5q110 0 184.5 -64t94.5 -186h-167q-11 68 -37 100.5t-72 32.5q-62 0 -93 -60t-31 -196q0 -71 8.5 -120.5t24.5 -80.5t39 -44.5
t52 -13.5zM309 773h-149l112 137h131l112 -137h-148l-29 69z" />
    <glyph glyph-name="ccircumflex" unicode="&#x109;" horiz-adv-x="519" 
d="M497 173q-9 -41 -25.5 -75t-44 -59.5t-67 -39.5t-93.5 -14q-123 0 -181 67.5t-58 204.5q0 134 60 206t176 72q49 0 88.5 -12.5t69.5 -36t49 -55.5t26 -71h-161q-5 33 -24 51t-44 18q-19 0 -34 -8t-25 -28.5t-15.5 -54t-5.5 -84.5q0 -87 21 -124.5t59 -37.5q31 0 47 19.5
t21 61.5h161zM227 598h-149l112 137h131l112 -137h-148l-29 69z" />
    <glyph glyph-name="Cdotaccent" unicode="&#x10a;" horiz-adv-x="641" 
d="M332 103q54 0 79.5 38.5t31.5 123.5h170q-17 -137 -85.5 -208.5t-191.5 -71.5q-146 0 -224.5 90.5t-78.5 286.5q0 186 75 279.5t221 93.5q110 0 184.5 -64t94.5 -186h-167q-11 68 -37 100.5t-72 32.5q-62 0 -93 -60t-31 -196q0 -71 8.5 -120.5t24.5 -80.5t39 -44.5
t52 -13.5zM245 777v133h169v-133h-169z" />
    <glyph glyph-name="cdotaccent" unicode="&#x10b;" horiz-adv-x="519" 
d="M497 173q-9 -41 -25.5 -75t-44 -59.5t-67 -39.5t-93.5 -14q-123 0 -181 67.5t-58 204.5q0 134 60 206t176 72q49 0 88.5 -12.5t69.5 -36t49 -55.5t26 -71h-161q-5 33 -24 51t-44 18q-19 0 -34 -8t-25 -28.5t-15.5 -54t-5.5 -84.5q0 -87 21 -124.5t59 -37.5q31 0 47 19.5
t21 61.5h161zM177 587v133h169v-133h-169z" />
    <glyph glyph-name="Ccaron" unicode="&#x10c;" horiz-adv-x="641" 
d="M332 103q54 0 79.5 38.5t31.5 123.5h170q-17 -137 -85.5 -208.5t-191.5 -71.5q-146 0 -224.5 90.5t-78.5 286.5q0 186 75 279.5t221 93.5q110 0 184.5 -64t94.5 -186h-167q-11 68 -37 100.5t-72 32.5q-62 0 -93 -60t-31 -196q0 -71 8.5 -120.5t24.5 -80.5t39 -44.5
t52 -13.5zM321 841l29 69h148l-112 -137h-131l-112 137h149z" />
    <glyph glyph-name="ccaron" unicode="&#x10d;" horiz-adv-x="519" 
d="M497 173q-9 -41 -25.5 -75t-44 -59.5t-67 -39.5t-93.5 -14q-123 0 -181 67.5t-58 204.5q0 134 60 206t176 72q49 0 88.5 -12.5t69.5 -36t49 -55.5t26 -71h-161q-5 33 -24 51t-44 18q-19 0 -34 -8t-25 -28.5t-15.5 -54t-5.5 -84.5q0 -87 21 -124.5t59 -37.5q31 0 47 19.5
t21 61.5h161zM262 666l29 69h148l-112 -137h-131l-112 137h149z" />
    <glyph glyph-name="Dcaron" unicode="&#x10e;" horiz-adv-x="634" 
d="M285 720q156 0 236 -86.5t80 -272.5q0 -189 -80 -275t-232 -86h-243v720h239zM213 604v-487h73q67 0 107 58t40 186q0 66 -11 112t-31 75.5t-47 42.5t-60 13h-71zM294 841l29 69h148l-112 -137h-131l-112 137h149z" />
    <glyph glyph-name="dcaron" unicode="&#x10f;" horiz-adv-x="699" 
d="M393 0l-26 57q-24 -32 -58 -52t-73 -20q-45 0 -83.5 17.5t-66 51.5t-43 84t-15.5 116q0 70 15 122.5t42 87.5t64 53t81 18q41 0 73 -15.5t55 -44.5v245h155v-720h-120zM183 258q0 -44 6 -74.5t18 -49.5t29 -27t39 -8q20 0 36 8.5t27.5 27.5t17.5 49.5t6 74.5q0 45 -7 76
t-19 50t-28.5 27.5t-34.5 8.5q-21 0 -37.5 -8.5t-28 -27.5t-18 -50t-6.5 -77zM716 616q0 -49 -15 -83.5t-39 -57.5t-55 -36t-62 -19v68q36 12 54 34.5t18 60.5h-48v137h147v-104z" />
    <glyph glyph-name="Dcroat" unicode="&#x110;" horiz-adv-x="634" 
d="M285 720q156 0 236 -86.5t80 -272.5q0 -189 -80 -275t-232 -86h-243v315h-43v126h43v279h239zM213 604v-163h85v-126h-85v-198h73q67 0 107 58t40 186q0 66 -11 112t-31 75.5t-47 42.5t-60 13h-71z" />
    <glyph glyph-name="dcroat" unicode="&#x111;" horiz-adv-x="555" 
d="M393 0l-26 57q-24 -32 -58 -52t-73 -20q-45 0 -83.5 17.5t-66 51.5t-43 84t-15.5 116q0 70 15 122.5t42 87.5t64 53t81 18q41 0 73 -15.5t55 -44.5v95h-89v106h89v44h155v-44h37v-106h-37v-570h-120zM183 258q0 -44 6 -74.5t18 -49.5t29 -27t39 -8q20 0 36 8.5t27.5 27.5
t17.5 49.5t6 74.5q0 45 -7 76t-19 50t-28.5 27.5t-34.5 8.5q-21 0 -37.5 -8.5t-28 -27.5t-18 -50t-6.5 -77z" />
    <glyph glyph-name="Emacron" unicode="&#x112;" horiz-adv-x="502" 
d="M452 305h-239v-184h264v-121h-431v720h431v-123h-264v-176h239v-116zM144 798v112h232v-112h-232z" />
    <glyph glyph-name="emacron" unicode="&#x113;" horiz-adv-x="526" 
d="M498 147q-13 -73 -67 -117.5t-151 -44.5q-122 0 -187 69.5t-65 205.5q0 137 61.5 206t177.5 69q56 0 100.5 -18t75 -56t46.5 -97.5t16 -141.5h-320q5 -72 28.5 -100t65.5 -28q55 0 64 53h155zM264 437q-35 0 -55.5 -27.5t-25.5 -96.5h163q-2 72 -23 98t-59 26zM152 608
v112h232v-112h-232z" />
    <glyph glyph-name="Ebreve" unicode="&#x114;" horiz-adv-x="502" 
d="M452 305h-239v-184h264v-121h-431v720h431v-123h-264v-176h239v-116zM243 910q1 -26 5 -37.5t15 -11.5q10 0 14.5 11.5t4.5 37.5h118q-8 -72 -45.5 -102.5t-91.5 -30.5q-64 0 -97.5 35t-39.5 98h117z" />
    <glyph glyph-name="ebreve" unicode="&#x115;" horiz-adv-x="526" 
d="M498 147q-13 -73 -67 -117.5t-151 -44.5q-122 0 -187 69.5t-65 205.5q0 137 61.5 206t177.5 69q56 0 100.5 -18t75 -56t46.5 -97.5t16 -141.5h-320q5 -72 28.5 -100t65.5 -28q55 0 64 53h155zM264 437q-35 0 -55.5 -27.5t-25.5 -96.5h163q-2 72 -23 98t-59 26zM243 720
q1 -26 5 -37.5t15 -11.5q10 0 14.5 11.5t4.5 37.5h118q-8 -72 -45.5 -102.5t-91.5 -30.5q-64 0 -97.5 35t-39.5 98h117z" />
    <glyph glyph-name="Edotaccent" unicode="&#x116;" horiz-adv-x="502" 
d="M452 305h-239v-184h264v-121h-431v720h431v-123h-264v-176h239v-116zM180 777v133h169v-133h-169z" />
    <glyph glyph-name="edotaccent" unicode="&#x117;" horiz-adv-x="526" 
d="M498 147q-13 -73 -67 -117.5t-151 -44.5q-122 0 -187 69.5t-65 205.5q0 137 61.5 206t177.5 69q56 0 100.5 -18t75 -56t46.5 -97.5t16 -141.5h-320q5 -72 28.5 -100t65.5 -28q55 0 64 53h155zM264 437q-35 0 -55.5 -27.5t-25.5 -96.5h163q-2 72 -23 98t-59 26zM179 587
v133h169v-133h-169z" />
    <glyph glyph-name="Eogonek" unicode="&#x118;" horiz-adv-x="502" 
d="M446 -137q-11 -51 -44.5 -80.5t-92.5 -29.5q-63 0 -95.5 29t-32.5 85q0 40 22 74t64 59h-221v720h431v-123h-264v-176h239v-116h-239v-184h264v-121h-115q-42 -28 -60 -55.5t-18 -57.5q0 -24 9 -35t24 -11q21 0 27 22h102z" />
    <glyph glyph-name="eogonek" unicode="&#x119;" horiz-adv-x="526" 
d="M498 147q-8 -47 -33 -82t-67 -56q-50 -29 -71.5 -59.5t-21.5 -62.5q0 -24 9 -35t24 -11q21 0 27 22h102q-11 -51 -44.5 -80.5t-92.5 -29.5q-63 0 -95.5 29t-32.5 85q0 34 16.5 64t47.5 54q-115 5 -176.5 74t-61.5 201q0 137 61.5 206t177.5 69q56 0 100.5 -18t75 -56
t46.5 -97.5t16 -141.5h-320q5 -72 28.5 -100t65.5 -28q55 0 64 53h155zM264 437q-35 0 -55.5 -27.5t-25.5 -96.5h163q-2 72 -23 98t-59 26z" />
    <glyph glyph-name="Ecaron" unicode="&#x11a;" horiz-adv-x="502" 
d="M452 305h-239v-184h264v-121h-431v720h431v-123h-264v-176h239v-116zM268 841l29 69h148l-112 -137h-131l-112 137h149z" />
    <glyph glyph-name="ecaron" unicode="&#x11b;" horiz-adv-x="526" 
d="M498 147q-13 -73 -67 -117.5t-151 -44.5q-122 0 -187 69.5t-65 205.5q0 137 61.5 206t177.5 69q56 0 100.5 -18t75 -56t46.5 -97.5t16 -141.5h-320q5 -72 28.5 -100t65.5 -28q55 0 64 53h155zM264 437q-35 0 -55.5 -27.5t-25.5 -96.5h163q-2 72 -23 98t-59 26zM269 666
l29 69h148l-112 -137h-131l-112 137h149z" />
    <glyph glyph-name="Gcircumflex" unicode="&#x11c;" horiz-adv-x="648" 
d="M610 0h-101l-22 77q-31 -46 -74 -69t-103 -23t-111 23t-88 70t-57.5 118t-20.5 167q0 94 21.5 164t61 116.5t96.5 69t129 22.5q109 0 180 -58t89 -163h-166q-8 54 -35.5 79t-67.5 25q-32 0 -56.5 -12.5t-41.5 -42t-26 -78.5t-9 -122q0 -71 9.5 -120.5t26.5 -80.5t42 -45
t57 -14q59 0 93 38.5t34 99.5v51h-135v109h275v-401zM288 773h-149l112 137h131l112 -137h-148l-29 69z" />
    <glyph glyph-name="gcircumflex" unicode="&#x11d;" horiz-adv-x="543" 
d="M192 -36q7 -26 23.5 -38t53.5 -12q39 0 58 24t19 80v44q-24 -23 -53 -35t-59 -12q-45 0 -83 17t-65.5 49.5t-42.5 80t-15 108.5q0 64 15 113.5t42 83t64 51t81 17.5q36 0 71 -16t58 -45l27 46h115v-494q0 -103 -56.5 -162t-177.5 -59q-58 0 -99.5 11t-69.5 32t-43 50.5
t-19 65.5h156zM183 271q0 -79 23.5 -110.5t68.5 -31.5q40 0 63.5 32.5t23.5 109.5q0 43 -6 71.5t-17.5 46t-28 25t-37.5 7.5q-43 0 -66.5 -34.5t-23.5 -115.5zM242 598h-149l112 137h131l112 -137h-148l-29 69z" />
    <glyph glyph-name="Gbreve" unicode="&#x11e;" horiz-adv-x="648" 
d="M610 0h-101l-22 77q-31 -46 -74 -69t-103 -23t-111 23t-88 70t-57.5 118t-20.5 167q0 94 21.5 164t61 116.5t96.5 69t129 22.5q109 0 180 -58t89 -163h-166q-8 54 -35.5 79t-67.5 25q-32 0 -56.5 -12.5t-41.5 -42t-26 -78.5t-9 -122q0 -71 9.5 -120.5t26.5 -80.5t42 -45
t57 -14q59 0 93 38.5t34 99.5v51h-135v109h275v-401zM306 910q1 -26 5 -37.5t15 -11.5q10 0 14.5 11.5t4.5 37.5h118q-8 -72 -45.5 -102.5t-91.5 -30.5q-64 0 -97.5 35t-39.5 98h117z" />
    <glyph glyph-name="gbreve" unicode="&#x11f;" horiz-adv-x="543" 
d="M192 -36q7 -26 23.5 -38t53.5 -12q39 0 58 24t19 80v44q-24 -23 -53 -35t-59 -12q-45 0 -83 17t-65.5 49.5t-42.5 80t-15 108.5q0 64 15 113.5t42 83t64 51t81 17.5q36 0 71 -16t58 -45l27 46h115v-494q0 -103 -56.5 -162t-177.5 -59q-58 0 -99.5 11t-69.5 32t-43 50.5
t-19 65.5h156zM183 271q0 -79 23.5 -110.5t68.5 -31.5q40 0 63.5 32.5t23.5 109.5q0 43 -6 71.5t-17.5 46t-28 25t-37.5 7.5q-43 0 -66.5 -34.5t-23.5 -115.5zM253 735q1 -26 5 -37.5t15 -11.5q10 0 14.5 11.5t4.5 37.5h118q-8 -72 -45.5 -102.5t-91.5 -30.5q-64 0 -97.5 35
t-39.5 98h117z" />
    <glyph glyph-name="Gdotaccent" unicode="&#x120;" horiz-adv-x="648" 
d="M610 0h-101l-22 77q-31 -46 -74 -69t-103 -23t-111 23t-88 70t-57.5 118t-20.5 167q0 94 21.5 164t61 116.5t96.5 69t129 22.5q109 0 180 -58t89 -163h-166q-8 54 -35.5 79t-67.5 25q-32 0 -56.5 -12.5t-41.5 -42t-26 -78.5t-9 -122q0 -71 9.5 -120.5t26.5 -80.5t42 -45
t57 -14q59 0 93 38.5t34 99.5v51h-135v109h275v-401zM252 777v133h169v-133h-169z" />
    <glyph glyph-name="gdotaccent" unicode="&#x121;" horiz-adv-x="543" 
d="M192 -36q7 -26 23.5 -38t53.5 -12q39 0 58 24t19 80v44q-24 -23 -53 -35t-59 -12q-45 0 -83 17t-65.5 49.5t-42.5 80t-15 108.5q0 64 15 113.5t42 83t64 51t81 17.5q36 0 71 -16t58 -45l27 46h115v-494q0 -103 -56.5 -162t-177.5 -59q-58 0 -99.5 11t-69.5 32t-43 50.5
t-19 65.5h156zM183 271q0 -79 23.5 -110.5t68.5 -31.5q40 0 63.5 32.5t23.5 109.5q0 43 -6 71.5t-17.5 46t-28 25t-37.5 7.5q-43 0 -66.5 -34.5t-23.5 -115.5zM183 587v133h169v-133h-169z" />
    <glyph glyph-name="Gcommaaccent" unicode="&#x122;" horiz-adv-x="648" 
d="M610 0h-101l-22 77q-31 -46 -74 -69t-103 -23t-111 23t-88 70t-57.5 118t-20.5 167q0 94 21.5 164t61 116.5t96.5 69t129 22.5q109 0 180 -58t89 -163h-166q-8 54 -35.5 79t-67.5 25q-32 0 -56.5 -12.5t-41.5 -42t-26 -78.5t-9 -122q0 -71 9.5 -120.5t26.5 -80.5t42 -45
t57 -14q59 0 93 38.5t34 99.5v51h-135v109h275v-401zM391 -144q0 -45 -12.5 -76t-33.5 -51t-48 -31.5t-57 -17.5v68q34 12 44.5 28.5t10.5 46.5h-37v117h133v-84z" />
    <glyph glyph-name="gcommaaccent" unicode="&#x123;" horiz-adv-x="543" 
d="M192 -36q7 -26 23.5 -38t53.5 -12q39 0 58 24t19 80v44q-24 -23 -53 -35t-59 -12q-45 0 -83 17t-65.5 49.5t-42.5 80t-15 108.5q0 64 15 113.5t42 83t64 51t81 17.5q36 0 71 -16t58 -45l27 46h115v-494q0 -103 -56.5 -162t-177.5 -59q-58 0 -99.5 11t-69.5 32t-43 50.5
t-19 65.5h156zM183 271q0 -79 23.5 -110.5t68.5 -31.5q40 0 63.5 32.5t23.5 109.5q0 43 -6 71.5t-17.5 46t-28 25t-37.5 7.5q-43 0 -66.5 -34.5t-23.5 -115.5zM219 653q0 45 12.5 76t33.5 51t48 31.5t57 17.5v-68q-34 -12 -44.5 -28.5t-10.5 -46.5h37v-117h-133v84z" />
    <glyph glyph-name="Hcircumflex" unicode="&#x124;" horiz-adv-x="626" 
d="M580 720v-720h-165v304h-202v-304h-167v720h167v-296h202v296h165zM284 773h-149l112 137h131l112 -137h-148l-29 69z" />
    <glyph glyph-name="hcircumflex" unicode="&#x125;" horiz-adv-x="529" 
d="M42 720h155v-247q25 32 55.5 47t72.5 15q79 0 122.5 -49.5t43.5 -149.5v-336h-155v329q0 56 -15 76t-44 20q-35 0 -57.5 -26.5t-22.5 -85.5v-313h-155v720zM206 773h-149l112 137h131l112 -137h-148l-29 69z" />
    <glyph glyph-name="Hbar" unicode="&#x126;" horiz-adv-x="637" 
d="M586 720v-84h38v-111h-38v-525h-166v304h-201v-304h-168v525h-38v111h38v84h168v-84h201v84h166zM219 424h201v101h-201v-101z" />
    <glyph glyph-name="hbar" unicode="&#x127;" horiz-adv-x="529" 
d="M42 570h-29v106h29v44h155v-44h113v-106h-113v-97q25 32 55.5 47t72.5 15q79 0 122.5 -49.5t43.5 -149.5v-336h-155v329q0 56 -15 76t-44 20q-35 0 -57.5 -26.5t-22.5 -85.5v-313h-155v570z" />
    <glyph glyph-name="Itilde" unicode="&#x128;" horiz-adv-x="259" 
d="M213 720v-720h-167v720h167zM188 782q-18 0 -33 6t-28.5 13t-26.5 13t-27 6t-34 -10.5t-39 -27.5v110q19 16 39.5 24.5t37.5 8.5q18 0 33 -6t28.5 -13t26.5 -13t27 -6t32.5 10.5t36.5 27.5v-110q-38 -33 -73 -33z" />
    <glyph glyph-name="itilde" unicode="&#x129;" horiz-adv-x="239" 
d="M178 592q-18 0 -33 6t-28.5 13t-26.5 13t-27 6t-34 -10.5t-39 -27.5v110q19 16 39.5 24.5t37.5 8.5q18 0 33 -6t28.5 -13t26.5 -13t27 -6t32.5 10.5t36.5 27.5v-110q-38 -33 -73 -33zM42 0v520h155v-520h-155z" />
    <glyph glyph-name="Imacron" unicode="&#x12a;" horiz-adv-x="259" 
d="M213 720v-720h-167v720h167zM16 798v112h232v-112h-232z" />
    <glyph glyph-name="imacron" unicode="&#x12b;" horiz-adv-x="239" 
d="M4 608v112h232v-112h-232zM42 0v520h155v-520h-155z" />
    <glyph glyph-name="Ibreve" unicode="&#x12c;" horiz-adv-x="259" 
d="M213 720v-720h-167v720h167zM111 910q1 -26 5 -37.5t15 -11.5q10 0 14.5 11.5t4.5 37.5h118q-8 -72 -45.5 -102.5t-91.5 -30.5q-64 0 -97.5 35t-39.5 98h117z" />
    <glyph glyph-name="ibreve" unicode="&#x12d;" horiz-adv-x="239" 
d="M42 0v520h155v-520h-155zM101 720q1 -26 5 -37.5t15 -11.5q10 0 14.5 11.5t4.5 37.5h118q-8 -72 -45.5 -102.5t-91.5 -30.5q-64 0 -97.5 35t-39.5 98h117z" />
    <glyph glyph-name="Iogonek" unicode="&#x12e;" horiz-adv-x="259" 
d="M219 -137q-11 -51 -44.5 -80.5t-92.5 -29.5q-63 0 -95.5 29t-32.5 85q0 41 24 76.5t68 59.5v717h167v-720h-78q-42 -28 -60 -55.5t-18 -57.5q0 -24 9 -35t24 -11q21 0 27 22h102z" />
    <glyph glyph-name="iogonek" unicode="&#x12f;" horiz-adv-x="239" 
d="M201 -137q-11 -51 -44.5 -80.5t-92.5 -29.5q-63 0 -95.5 29t-32.5 85q0 45 28 82t78 62v509h155v-520h-80q-42 -28 -60 -55.5t-18 -57.5q0 -24 9 -35t24 -11q21 0 27 22h102zM36 587v133h169v-133h-169z" />
    <glyph glyph-name="Idotaccent" unicode="&#x130;" horiz-adv-x="259" 
d="M213 720v-720h-167v720h167zM43 777v133h169v-133h-169z" />
    <glyph glyph-name="dotlessi" unicode="&#x131;" horiz-adv-x="239" 
d="M42 0v520h155v-520h-155z" />
    <glyph glyph-name="IJ" unicode="&#x132;" horiz-adv-x="753" 
d="M213 720v-720h-167v720h167zM431 198q3 -53 21 -73.5t43 -20.5q26 0 41.5 23t15.5 89v504h159v-492q0 -56 -11.5 -101t-37 -76.5t-65.5 -48.5t-97 -17q-98 0 -156.5 53.5t-69.5 159.5h157z" />
    <glyph glyph-name="ij" unicode="&#x133;" horiz-adv-x="484" 
d="M33 587v133h169v-133h-169zM42 0v520h155v-520h-155zM191 -71q14 -5 29.5 -7t24.5 -2q21 0 31.5 12.5t10.5 41.5v546h155v-549q0 -75 -40.5 -120.5t-119.5 -45.5q-23 0 -48.5 4t-42.5 11v109zM278 587v133h169v-133h-169z" />
    <glyph glyph-name="Jcircumflex" unicode="&#x134;" horiz-adv-x="494" 
d="M172 198q3 -53 21 -73.5t43 -20.5q26 0 41.5 23t15.5 89v504h159v-492q0 -56 -11.5 -101t-37 -76.5t-65.5 -48.5t-97 -17q-98 0 -156.5 53.5t-69.5 159.5h157zM341 773h-149l112 137h131l112 -137h-148l-29 69z" />
    <glyph glyph-name="jcircumflex" unicode="&#x135;" horiz-adv-x="245" 
d="M-48 -71q14 -5 29.5 -7t24.5 -2q23 0 32.5 12.5t9.5 41.5v546h155v-549q0 -75 -40.5 -120.5t-119.5 -45.5q-23 0 -48.5 4t-42.5 11v109zM85 598h-149l112 137h131l112 -137h-148l-29 69z" />
    <glyph glyph-name="Kcommaaccent" unicode="&#x136;" horiz-adv-x="644" 
d="M447 0l-234 323v-323h-167v720h167v-307l214 307h184l-251 -338l287 -382h-200zM430 -144q0 -45 -12.5 -76t-33.5 -51t-48 -31.5t-57 -17.5v68q34 12 44.5 28.5t10.5 46.5h-37v117h133v-84z" />
    <glyph glyph-name="kcommaaccent" unicode="&#x137;" horiz-adv-x="526" 
d="M42 0v720h155v-394l148 194h169l-174 -217l196 -303h-189l-150 252v-252h-155zM323 -144q0 -45 -12.5 -76t-33.5 -51t-48 -31.5t-57 -17.5v68q34 12 44.5 28.5t10.5 46.5h-37v117h133v-84z" />
    <glyph glyph-name="kgreenlandic" unicode="&#x138;" horiz-adv-x="526" 
d="M42 0v520h155v-218l154 218h163l-177 -235l199 -285h-181l-158 246v-246h-155z" />
    <glyph glyph-name="Lacute" unicode="&#x139;" horiz-adv-x="510" 
d="M213 720v-594h285v-126h-452v720h167zM146 910h160l-131 -137h-116z" />
    <glyph glyph-name="lacute" unicode="&#x13a;" horiz-adv-x="239" 
d="M197 0h-155v720h155v-720zM104 910h160l-131 -137h-116z" />
    <glyph glyph-name="Lcommaaccent" unicode="&#x13b;" horiz-adv-x="510" 
d="M213 720v-594h285v-126h-452v720h167zM336 -144q0 -45 -12.5 -76t-33.5 -51t-48 -31.5t-57 -17.5v68q34 12 44.5 28.5t10.5 46.5h-37v117h133v-84z" />
    <glyph glyph-name="lcommaaccent" unicode="&#x13c;" horiz-adv-x="239" 
d="M197 0h-155v720h155v-720zM191 -144q0 -45 -12.5 -76t-33.5 -51t-48 -31.5t-57 -17.5v68q34 12 44.5 28.5t10.5 46.5h-37v117h133v-84z" />
    <glyph glyph-name="Lcaron" unicode="&#x13d;" horiz-adv-x="510" 
d="M213 720v-594h285v-126h-452v720h167zM417 616q0 -49 -15 -83.5t-39 -57.5t-55 -36t-62 -19v68q36 12 54 34.5t18 60.5h-48v137h147v-104z" />
    <glyph glyph-name="lcaron" unicode="&#x13e;" horiz-adv-x="369" 
d="M197 0h-155v720h155v-720zM394 616q0 -49 -15 -83.5t-39 -57.5t-55 -36t-62 -19v68q36 12 54 34.5t18 60.5h-48v137h147v-104z" />
    <glyph glyph-name="Ldot" unicode="&#x13f;" horiz-adv-x="510" 
d="M213 720v-594h285v-126h-452v720h167zM302.4 312v133h152.104v-133h-152.104z" />
    <glyph glyph-name="ldot" unicode="&#x140;" horiz-adv-x="417" 
d="M197 0h-155v720h155v-720zM253.4 312v133h152.104v-133h-152.104z" />
    <glyph glyph-name="Lslash" unicode="&#x141;" horiz-adv-x="520" 
d="M223 720v-202l80 54v-142l-80 -54v-250h285v-126h-452v265l-56 -37v142l56 37v313h167z" />
    <glyph glyph-name="lslash" unicode="&#x142;" horiz-adv-x="219" 
d="M187 520l31 22v-144l-31 -22v-376h-155v266l-31 -22v144l31 22v310h155v-200z" />
    <glyph glyph-name="Nacute" unicode="&#x143;" horiz-adv-x="620" 
d="M574 720v-720h-167l-220 492v-492h-141v720h181l206 -480v480h141zM340 910h160l-131 -137h-116z" />
    <glyph glyph-name="nacute" unicode="&#x144;" horiz-adv-x="529" 
d="M42 520h128l13 -55q29 38 62.5 54t80.5 16q78 0 121.5 -49.5t43.5 -149.5v-336h-155v329q0 56 -15 76t-44 20q-35 0 -57.5 -26.5t-22.5 -85.5v-313h-155v520zM305 735h160l-131 -137h-116z" />
    <glyph glyph-name="Ncommaaccent" unicode="&#x145;" horiz-adv-x="620" 
d="M574 720v-720h-167l-220 492v-492h-141v720h181l206 -480v480h141zM380 -144q0 -45 -12.5 -76t-33.5 -51t-48 -31.5t-57 -17.5v68q34 12 44.5 28.5t10.5 46.5h-37v117h133v-84z" />
    <glyph glyph-name="ncommaaccent" unicode="&#x146;" horiz-adv-x="529" 
d="M42 520h128l13 -55q29 38 62.5 54t80.5 16q78 0 121.5 -49.5t43.5 -149.5v-336h-155v329q0 56 -15 76t-44 20q-35 0 -57.5 -26.5t-22.5 -85.5v-313h-155v520zM339 -144q0 -45 -12.5 -76t-33.5 -51t-48 -31.5t-57 -17.5v68q34 12 44.5 28.5t10.5 46.5h-37v117h133v-84z
" />
    <glyph glyph-name="Ncaron" unicode="&#x147;" horiz-adv-x="620" 
d="M574 720v-720h-167l-220 492v-492h-141v720h181l206 -480v480h141zM323 841l29 69h148l-112 -137h-131l-112 137h149z" />
    <glyph glyph-name="ncaron" unicode="&#x148;" horiz-adv-x="529" 
d="M42 520h128l13 -55q29 38 62.5 54t80.5 16q78 0 121.5 -49.5t43.5 -149.5v-336h-155v329q0 56 -15 76t-44 20q-35 0 -57.5 -26.5t-22.5 -85.5v-313h-155v520zM281 666l29 69h148l-112 -137h-131l-112 137h149z" />
    <glyph glyph-name="napostrophe" unicode="&#x149;" horiz-adv-x="646" 
d="M159 520h128l13 -55q29 38 62.5 54t80.5 16q78 0 121.5 -49.5t43.5 -149.5v-336h-155v329q0 56 -15 76t-44 20q-35 0 -57.5 -26.5t-22.5 -85.5v-313h-155v520zM163.952 616.207q0 -46.5498 -14.25 -79.3252t-37.0508 -54.626q-22.7998 -21.8506 -52.25 -34.2002
q-29.4502 -12.3506 -58.9014 -18.0508v64.6006q34.2012 11.4004 51.3008 32.7754q17.1006 21.376 17.1006 57.4766h-45.6006v130.151h139.651v-98.8018z" />
    <glyph glyph-name="Eng" unicode="&#x14a;" horiz-adv-x="620" 
d="M574 720v-749q0 -75 -40.5 -120.5t-119.5 -45.5q-23 0 -48.5 4t-42.5 11v109q14 -5 29.5 -7t24.5 -2q32 0 44 12.5t12 41.5v26h-26l-220 492v-492h-141v720h181l206 -480v480h141z" />
    <glyph glyph-name="eng" unicode="&#x14b;" horiz-adv-x="529" 
d="M42 520h128l13 -55q29 38 62.5 54t80.5 16q78 0 121.5 -49.5t43.5 -149.5v-365q0 -75 -40.5 -120.5t-119.5 -45.5q-23 0 -48.5 4t-42.5 11v109q14 -5 29.5 -7t24.5 -2q21 0 31.5 12.5t10.5 41.5v355q0 56 -15 76t-44 20q-35 0 -57.5 -26.5t-22.5 -85.5v-313h-155v520z
" />
    <glyph glyph-name="Omacron" unicode="&#x14c;" horiz-adv-x="678" 
d="M339 104q28 0 53 13.5t43.5 44t29.5 79t11 119.5q0 69 -10.5 118t-29.5 80t-44 45t-53 14q-27 0 -52 -13t-43.5 -43t-30 -79.5t-11.5 -122.5q0 -69 11 -117.5t30 -79t44 -44.5t52 -14zM339 -15q-67 0 -123.5 23t-97 69.5t-63 116.5t-22.5 165q0 93 22 163.5t62.5 117.5
t96.5 71t125 24q67 0 123.5 -23t97 -69.5t63 -117t22.5 -165.5q0 -93 -23.5 -163.5t-64.5 -117.5t-97 -70.5t-121 -23.5zM226 798v112h232v-112h-232z" />
    <glyph glyph-name="omacron" unicode="&#x14d;" horiz-adv-x="542" 
d="M28 262q0 137 59 205t184 68q121 0 182 -67t61 -206q0 -136 -59 -206.5t-184 -70.5q-243 0 -243 277zM188 262q0 -51 5 -84t15.5 -52.5t26.5 -27.5t37 -8q22 0 38 7t26 26t14.5 52.5t4.5 86.5q0 51 -5 83.5t-15.5 51.5t-26.5 26t-37 7q-22 0 -37.5 -7t-25.5 -26
t-15 -51.5t-5 -83.5zM155 608v112h232v-112h-232z" />
    <glyph glyph-name="Obreve" unicode="&#x14e;" horiz-adv-x="678" 
d="M339 104q28 0 53 13.5t43.5 44t29.5 79t11 119.5q0 69 -10.5 118t-29.5 80t-44 45t-53 14q-27 0 -52 -13t-43.5 -43t-30 -79.5t-11.5 -122.5q0 -69 11 -117.5t30 -79t44 -44.5t52 -14zM339 -15q-67 0 -123.5 23t-97 69.5t-63 116.5t-22.5 165q0 93 22 163.5t62.5 117.5
t96.5 71t125 24q67 0 123.5 -23t97 -69.5t63 -117t22.5 -165.5q0 -93 -23.5 -163.5t-64.5 -117.5t-97 -70.5t-121 -23.5zM319 910q1 -26 5 -37.5t15 -11.5q10 0 14.5 11.5t4.5 37.5h118q-8 -72 -45.5 -102.5t-91.5 -30.5q-64 0 -97.5 35t-39.5 98h117z" />
    <glyph glyph-name="obreve" unicode="&#x14f;" horiz-adv-x="542" 
d="M28 262q0 137 59 205t184 68q121 0 182 -67t61 -206q0 -136 -59 -206.5t-184 -70.5q-243 0 -243 277zM188 262q0 -51 5 -84t15.5 -52.5t26.5 -27.5t37 -8q22 0 38 7t26 26t14.5 52.5t4.5 86.5q0 51 -5 83.5t-15.5 51.5t-26.5 26t-37 7q-22 0 -37.5 -7t-25.5 -26
t-15 -51.5t-5 -83.5zM251 720q1 -26 5 -37.5t15 -11.5q10 0 14.5 11.5t4.5 37.5h118q-8 -72 -45.5 -102.5t-91.5 -30.5q-64 0 -97.5 35t-39.5 98h117z" />
    <glyph glyph-name="Ohungarumlaut" unicode="&#x150;" horiz-adv-x="678" 
d="M339 104q28 0 53 13.5t43.5 44t29.5 79t11 119.5q0 69 -10.5 118t-29.5 80t-44 45t-53 14q-27 0 -52 -13t-43.5 -43t-30 -79.5t-11.5 -122.5q0 -69 11 -117.5t30 -79t44 -44.5t52 -14zM339 -15q-67 0 -123.5 23t-97 69.5t-63 116.5t-22.5 165q0 93 22 163.5t62.5 117.5
t96.5 71t125 24q67 0 123.5 -23t97 -69.5t63 -117t22.5 -165.5q0 -93 -23.5 -163.5t-64.5 -117.5t-97 -70.5t-121 -23.5zM270 910h167l-135 -137h-120zM475 910h167l-135 -137h-120z" />
    <glyph glyph-name="ohungarumlaut" unicode="&#x151;" horiz-adv-x="542" 
d="M28 262q0 137 59 205t184 68q121 0 182 -67t61 -206q0 -136 -59 -206.5t-184 -70.5q-243 0 -243 277zM188 262q0 -51 5 -84t15.5 -52.5t26.5 -27.5t37 -8q22 0 38 7t26 26t14.5 52.5t4.5 86.5q0 51 -5 83.5t-15.5 51.5t-26.5 26t-37 7q-22 0 -37.5 -7t-25.5 -26
t-15 -51.5t-5 -83.5zM196 735h167l-135 -137h-120zM401 735h167l-135 -137h-120z" />
    <glyph glyph-name="OE" unicode="&#x152;" horiz-adv-x="797" 
d="M747 305h-221v-184h246v-121h-366q-16 -7 -37.5 -11t-41.5 -4q-62 0 -116 19t-93.5 63t-62 115.5t-22.5 176.5q0 103 24.5 174.5t65 116.5t94 65t111.5 20q18 0 41.5 -4t43.5 -11h359v-123h-246v-176h221v-116zM336 104q13 0 23 5v503q-4 2 -10.5 3.5t-11.5 1.5
q-26 0 -50.5 -13t-43 -43t-30 -79.5t-11.5 -122.5t12 -122t31 -78.5t43 -42t48 -12.5z" />
    <glyph glyph-name="oe" unicode="&#x153;" horiz-adv-x="848" 
d="M822 151q-7 -36 -22.5 -66.5t-42.5 -52.5t-67 -34.5t-97 -12.5q-54 0 -92 19.5t-67 54.5q-28 -35 -65 -54.5t-98 -19.5q-131 0 -187 70.5t-56 206.5q0 67 12.5 118t41 85.5t75 52t114.5 17.5q60 0 97 -19t64 -52q28 33 65 52t92 19q117 0 177.5 -76.5t60.5 -236.5h-320
q4 -34 10 -58.5t16.5 -40t27 -22.5t41.5 -7q31 0 45.5 15.5t19.5 41.5h155zM188 262q0 -47 3.5 -79.5t13 -53t25.5 -30t42 -9.5q25 0 41.5 8.5t25.5 28.5t12.5 53t3.5 82q0 48 -3.5 80t-12.5 51.5t-25.5 28t-42.5 8.5q-27 0 -43.5 -8.5t-25.5 -28.5t-11.5 -52t-2.5 -79z
M584 437q-40 0 -57 -28.5t-21 -95.5h162q-2 66 -20.5 95t-63.5 29z" />
    <glyph glyph-name="Racute" unicode="&#x154;" horiz-adv-x="598" 
d="M409 0l-150 263h-46v-263h-167v720h213q79 0 135 -15t91.5 -43.5t52 -71.5t16.5 -98q0 -73 -32 -123t-107 -78l180 -291h-186zM213 604v-225h52q115 0 115 115q0 62 -27 86t-93 24h-47zM293 910h160l-131 -137h-116z" />
    <glyph glyph-name="racute" unicode="&#x155;" horiz-adv-x="357" 
d="M42 0v520h129l16 -79q37 94 119 94q14 0 27.5 -2t23.5 -5v-145q-12 5 -26.5 7.5t-33.5 2.5q-42 0 -71 -44.5t-29 -132.5v-216h-155zM220 735h160l-131 -137h-116z" />
    <glyph glyph-name="Rcommaaccent" unicode="&#x156;" horiz-adv-x="598" 
d="M409 0l-150 263h-46v-263h-167v720h213q79 0 135 -15t91.5 -43.5t52 -71.5t16.5 -98q0 -73 -32 -123t-107 -78l180 -291h-186zM213 604v-225h52q115 0 115 115q0 62 -27 86t-93 24h-47zM365 -144q0 -45 -12.5 -76t-33.5 -51t-48 -31.5t-57 -17.5v68q34 12 44.5 28.5
t10.5 46.5h-37v117h133v-84z" />
    <glyph glyph-name="rcommaaccent" unicode="&#x157;" horiz-adv-x="357" 
d="M42 0v520h129l16 -79q37 94 119 94q14 0 27.5 -2t23.5 -5v-145q-12 5 -26.5 7.5t-33.5 2.5q-42 0 -71 -44.5t-29 -132.5v-216h-155zM190 -144q0 -45 -12.5 -76t-33.5 -51t-48 -31.5t-57 -17.5v68q34 12 44.5 28.5t10.5 46.5h-37v117h133v-84z" />
    <glyph glyph-name="Rcaron" unicode="&#x158;" horiz-adv-x="598" 
d="M409 0l-150 263h-46v-263h-167v720h213q79 0 135 -15t91.5 -43.5t52 -71.5t16.5 -98q0 -73 -32 -123t-107 -78l180 -291h-186zM213 604v-225h52q115 0 115 115q0 62 -27 86t-93 24h-47zM266 841l29 69h148l-112 -137h-131l-112 137h149z" />
    <glyph glyph-name="rcaron" unicode="&#x159;" horiz-adv-x="357" 
d="M42 0v520h129l16 -79q37 94 119 94q14 0 27.5 -2t23.5 -5v-145q-12 5 -26.5 7.5t-33.5 2.5q-42 0 -71 -44.5t-29 -132.5v-216h-155zM196 666l29 69h148l-112 -137h-131l-112 137h149z" />
    <glyph glyph-name="Sacute" unicode="&#x15a;" horiz-adv-x="587" 
d="M308 -15q-68 0 -118 16t-85 45.5t-55 71.5t-26 94h155q3 -24 11.5 -44t23.5 -34.5t37 -23t53 -8.5q55 0 77.5 20t22.5 63q0 18 -6 34t-22 30.5t-42.5 28.5t-68.5 29q-63 22 -104.5 46t-67 52t-36 61.5t-10.5 75.5q0 43 14.5 79t45 61t78 39t113.5 14q112 0 177 -53
t77 -147h-153q-5 41 -30.5 63t-67.5 22q-48 0 -67 -18t-19 -55q0 -35 23.5 -58t87.5 -44q69 -23 116.5 -49t76 -55t41 -63t12.5 -74q0 -48 -15 -88t-47 -69.5t-82 -45.5t-120 -16zM317 910h160l-131 -137h-116z" />
    <glyph glyph-name="sacute" unicode="&#x15b;" horiz-adv-x="490" 
d="M247 91q32 0 45 12t13 34q0 10 -3.5 19t-14 17.5t-29.5 16.5t-50 17q-48 14 -80.5 30t-52 36.5t-28 46t-8.5 58.5q0 35 11.5 64t35.5 49.5t62 32t92 11.5q94 0 151.5 -42t69.5 -117h-155q-8 53 -65 53q-26 0 -37 -10.5t-11 -28.5q0 -11 3 -19.5t12.5 -16t27 -15
t46.5 -16.5q54 -18 89 -36t55 -38.5t28 -45t8 -54.5q0 -77 -51.5 -120.5t-166.5 -43.5q-100 0 -156.5 45t-67.5 117h157q8 -56 70 -56zM252 735h160l-131 -137h-116z" />
    <glyph glyph-name="Scircumflex" unicode="&#x15c;" horiz-adv-x="587" 
d="M308 -15q-68 0 -118 16t-85 45.5t-55 71.5t-26 94h155q3 -24 11.5 -44t23.5 -34.5t37 -23t53 -8.5q55 0 77.5 20t22.5 63q0 18 -6 34t-22 30.5t-42.5 28.5t-68.5 29q-63 22 -104.5 46t-67 52t-36 61.5t-10.5 75.5q0 43 14.5 79t45 61t78 39t113.5 14q112 0 177 -53
t77 -147h-153q-5 41 -30.5 63t-67.5 22q-48 0 -67 -18t-19 -55q0 -35 23.5 -58t87.5 -44q69 -23 116.5 -49t76 -55t41 -63t12.5 -74q0 -48 -15 -88t-47 -69.5t-82 -45.5t-120 -16zM266 773h-149l112 137h131l112 -137h-148l-29 69z" />
    <glyph glyph-name="scircumflex" unicode="&#x15d;" horiz-adv-x="490" 
d="M247 91q32 0 45 12t13 34q0 10 -3.5 19t-14 17.5t-29.5 16.5t-50 17q-48 14 -80.5 30t-52 36.5t-28 46t-8.5 58.5q0 35 11.5 64t35.5 49.5t62 32t92 11.5q94 0 151.5 -42t69.5 -117h-155q-8 53 -65 53q-26 0 -37 -10.5t-11 -28.5q0 -11 3 -19.5t12.5 -16t27 -15
t46.5 -16.5q54 -18 89 -36t55 -38.5t28 -45t8 -54.5q0 -77 -51.5 -120.5t-166.5 -43.5q-100 0 -156.5 45t-67.5 117h157q8 -56 70 -56zM216 598h-149l112 137h131l112 -137h-148l-29 69z" />
    <glyph glyph-name="Scedilla" unicode="&#x15e;" horiz-adv-x="587" 
d="M421 -139q0 -51 -34 -85t-95 -34q-129 0 -141 121h95q1 -41 42 -41q36 0 36 36q0 20 -15.5 31.5t-51.5 11.5l7 86q-113 10 -171 69.5t-69 155.5h155q3 -24 11.5 -44t23.5 -34.5t37 -23t53 -8.5q55 0 77.5 20t22.5 63q0 18 -6 34t-22 30.5t-42.5 28.5t-68.5 29
q-63 22 -104.5 46t-67 52t-36 61.5t-10.5 75.5q0 43 14.5 79t45 61t78 39t113.5 14q112 0 177 -53t77 -147h-153q-5 41 -30.5 63t-67.5 22q-48 0 -67 -18t-19 -55q0 -35 23.5 -58t87.5 -44q69 -23 116.5 -49t76 -55t41 -63t12.5 -74q0 -44 -13 -82t-40 -66.5t-69.5 -46.5
t-100.5 -22v-27q36 -9 54 -34.5t18 -64.5z" />
    <glyph glyph-name="scedilla" unicode="&#x15f;" horiz-adv-x="490" 
d="M247 91q32 0 45 12t13 34q0 10 -3.5 19t-14 17.5t-29.5 16.5t-50 17q-48 14 -80.5 30t-52 36.5t-28 46t-8.5 58.5q0 35 11.5 64t35.5 49.5t62 32t92 11.5q94 0 151.5 -42t69.5 -117h-155q-8 53 -65 53q-26 0 -37 -10.5t-11 -28.5q0 -11 3 -19.5t12.5 -16t27 -15
t46.5 -16.5q54 -18 89 -36t55 -38.5t28 -45t8 -54.5q0 -68 -38.5 -109.5t-124.5 -51.5v-28q36 -9 54 -34.5t18 -64.5q0 -51 -34 -85t-95 -34q-129 0 -141 121h95q1 -41 42 -41q36 0 36 36q0 20 -15.5 31.5t-51.5 11.5l7 85q-87 7 -135.5 50.5t-58.5 110.5h157q8 -56 70 -56z
" />
    <glyph glyph-name="Scaron" unicode="&#x160;" horiz-adv-x="587" 
d="M308 -15q-68 0 -118 16t-85 45.5t-55 71.5t-26 94h155q3 -24 11.5 -44t23.5 -34.5t37 -23t53 -8.5q55 0 77.5 20t22.5 63q0 18 -6 34t-22 30.5t-42.5 28.5t-68.5 29q-63 22 -104.5 46t-67 52t-36 61.5t-10.5 75.5q0 43 14.5 79t45 61t78 39t113.5 14q112 0 177 -53
t77 -147h-153q-5 41 -30.5 63t-67.5 22q-48 0 -67 -18t-19 -55q0 -35 23.5 -58t87.5 -44q69 -23 116.5 -49t76 -55t41 -63t12.5 -74q0 -48 -15 -88t-47 -69.5t-82 -45.5t-120 -16zM303 841l29 69h148l-112 -137h-131l-112 137h149z" />
    <glyph glyph-name="scaron" unicode="&#x161;" horiz-adv-x="490" 
d="M247 91q32 0 45 12t13 34q0 10 -3.5 19t-14 17.5t-29.5 16.5t-50 17q-48 14 -80.5 30t-52 36.5t-28 46t-8.5 58.5q0 35 11.5 64t35.5 49.5t62 32t92 11.5q94 0 151.5 -42t69.5 -117h-155q-8 53 -65 53q-26 0 -37 -10.5t-11 -28.5q0 -11 3 -19.5t12.5 -16t27 -15
t46.5 -16.5q54 -18 89 -36t55 -38.5t28 -45t8 -54.5q0 -77 -51.5 -120.5t-166.5 -43.5q-100 0 -156.5 45t-67.5 117h157q8 -56 70 -56zM233 666l29 69h148l-112 -137h-131l-112 137h149z" />
    <glyph glyph-name="Tcommaaccent" unicode="&#x162;" horiz-adv-x="519" 
d="M516 594h-174v-594h-167v594h-172v126h513v-126zM330 -144q0 -45 -12.5 -76t-33.5 -51t-48 -31.5t-57 -17.5v68q34 12 44.5 28.5t10.5 46.5h-37v117h133v-84z" />
    <glyph glyph-name="tcommaaccent" unicode="&#x163;" horiz-adv-x="332" 
d="M321 -1q-18 -6 -42.5 -10t-47.5 -4q-76 0 -115.5 40t-39.5 120v267h-69v108h69l10 125h144v-125h91v-108h-91v-272q0 -22 10 -33t33 -11q7 0 22 2.5t26 6.5v-106zM239 -144q0 -45 -12.5 -76t-33.5 -51t-48 -31.5t-57 -17.5v68q34 12 44.5 28.5t10.5 46.5h-37v117h133v-84
z" />
    <glyph glyph-name="Tcaron" unicode="&#x164;" horiz-adv-x="519" 
d="M516 594h-174v-594h-167v594h-172v126h513v-126zM260 841l29 69h148l-112 -137h-131l-112 137h149z" />
    <glyph glyph-name="tcaron" unicode="&#x165;" horiz-adv-x="385" 
d="M382 665q0 -49 -29 -83t-92 -39v55q16 2 22.5 9t6.5 25h-24v97h116v-64zM321 -1q-18 -6 -42.5 -10t-47.5 -4q-76 0 -115.5 40t-39.5 120v267h-69v108h69l10 125h144v-125h91v-108h-91v-272q0 -22 10 -33t33 -11q7 0 22 2.5t26 6.5v-106z" />
    <glyph glyph-name="Tbar" unicode="&#x166;" horiz-adv-x="519" 
d="M342 354v-354h-167v354h-87v111h87v129h-172v126h513v-126h-174v-129h86v-111h-86z" />
    <glyph glyph-name="tbar" unicode="&#x167;" horiz-adv-x="332" 
d="M321 -1q-18 -6 -42.5 -10t-47.5 -4q-71 0 -113 41t-42 119v130h-57v105h57v32h-69v108h69l10 125h144v-125h91v-108h-91v-32h70v-105h-70v-135q0 -22 12.5 -33t30.5 -11q7 0 22 2.5t26 6.5v-106z" />
    <glyph glyph-name="Utilde" unicode="&#x168;" horiz-adv-x="619" 
d="M209 720v-490q0 -61 23.5 -93.5t77.5 -32.5t80.5 32.5t26.5 93.5v490h160v-479q0 -121 -66.5 -188.5t-201.5 -67.5q-134 0 -200.5 67.5t-66.5 188.5v479h167zM364 782q-18 0 -33 6t-28.5 13t-26.5 13t-27 6t-34 -10.5t-39 -27.5v110q19 16 39.5 24.5t37.5 8.5q18 0 33 -6
t28.5 -13t26.5 -13t27 -6t32.5 10.5t36.5 27.5v-110q-38 -33 -73 -33z" />
    <glyph glyph-name="utilde" unicode="&#x169;" horiz-adv-x="524" 
d="M193 520v-344q0 -45 16 -63t48 -18q28 0 49 28t21 85v312h155v-520h-128l-14 55q-23 -33 -57 -51.5t-79 -18.5q-166 0 -166 194v341h155zM323 592q-18 0 -33 6t-28.5 13t-26.5 13t-27 6t-34 -10.5t-39 -27.5v110q19 16 39.5 24.5t37.5 8.5q18 0 33 -6t28.5 -13t26.5 -13
t27 -6t32.5 10.5t36.5 27.5v-110q-38 -33 -73 -33z" />
    <glyph glyph-name="Umacron" unicode="&#x16a;" horiz-adv-x="619" 
d="M209 720v-490q0 -61 23.5 -93.5t77.5 -32.5t80.5 32.5t26.5 93.5v490h160v-479q0 -121 -66.5 -188.5t-201.5 -67.5q-134 0 -200.5 67.5t-66.5 188.5v479h167zM193 798v112h232v-112h-232z" />
    <glyph glyph-name="umacron" unicode="&#x16b;" horiz-adv-x="524" 
d="M193 520v-344q0 -45 16 -63t48 -18q28 0 49 28t21 85v312h155v-520h-128l-14 55q-23 -33 -57 -51.5t-79 -18.5q-166 0 -166 194v341h155zM146 608v112h232v-112h-232z" />
    <glyph glyph-name="Ubreve" unicode="&#x16c;" horiz-adv-x="619" 
d="M209 720v-490q0 -61 23.5 -93.5t77.5 -32.5t80.5 32.5t26.5 93.5v490h160v-479q0 -121 -66.5 -188.5t-201.5 -67.5q-134 0 -200.5 67.5t-66.5 188.5v479h167zM290 910q1 -26 5 -37.5t15 -11.5q10 0 14.5 11.5t4.5 37.5h118q-8 -72 -45.5 -102.5t-91.5 -30.5
q-64 0 -97.5 35t-39.5 98h117z" />
    <glyph glyph-name="ubreve" unicode="&#x16d;" horiz-adv-x="524" 
d="M193 520v-344q0 -45 16 -63t48 -18q28 0 49 28t21 85v312h155v-520h-128l-14 55q-23 -33 -57 -51.5t-79 -18.5q-166 0 -166 194v341h155zM235 735q1 -26 5 -37.5t15 -11.5q10 0 14.5 11.5t4.5 37.5h118q-8 -72 -45.5 -102.5t-91.5 -30.5q-64 0 -97.5 35t-39.5 98h117z
" />
    <glyph glyph-name="Uring" unicode="&#x16e;" horiz-adv-x="619" 
d="M209 720v-490q0 -61 23.5 -93.5t77.5 -32.5t80.5 32.5t26.5 93.5v490h160v-479q0 -121 -66.5 -188.5t-201.5 -67.5q-134 0 -200.5 67.5t-66.5 188.5v479h167zM282 877q0 -26 6 -38.5t22 -12.5t21.5 12.5t5.5 38.5t-6 38.5t-22 12.5q-15 0 -21 -12.5t-6 -38.5zM431 877
q0 -25 -7.5 -47.5t-22.5 -39t-38 -26.5t-54 -10t-54 10t-38 26.5t-22.5 39t-7.5 47.5t7.5 47.5t22.5 39t38 26.5t54 10t54 -10t38 -26.5t22.5 -39t7.5 -47.5z" />
    <glyph glyph-name="uring" unicode="&#x16f;" horiz-adv-x="524" 
d="M193 520v-344q0 -45 16 -63t48 -18q28 0 49 28t21 85v312h155v-520h-128l-14 55q-23 -33 -57 -51.5t-79 -18.5q-166 0 -166 194v341h155zM228 700q0 -26 6 -38.5t22 -12.5t21.5 12.5t5.5 38.5t-6 38.5t-22 12.5q-15 0 -21 -12.5t-6 -38.5zM377 700q0 -25 -7.5 -47.5
t-22.5 -39t-38 -26.5t-54 -10t-54 10t-38 26.5t-22.5 39t-7.5 47.5t7.5 47.5t22.5 39t38 26.5t54 10t54 -10t38 -26.5t22.5 -39t7.5 -47.5z" />
    <glyph glyph-name="Uhungarumlaut" unicode="&#x170;" horiz-adv-x="619" 
d="M209 720v-490q0 -61 23.5 -93.5t77.5 -32.5t80.5 32.5t26.5 93.5v490h160v-479q0 -121 -66.5 -188.5t-201.5 -67.5q-134 0 -200.5 67.5t-66.5 188.5v479h167zM221 910h167l-135 -137h-120zM426 910h167l-135 -137h-120z" />
    <glyph glyph-name="uhungarumlaut" unicode="&#x171;" horiz-adv-x="524" 
d="M193 520v-344q0 -45 16 -63t48 -18q28 0 49 28t21 85v312h155v-520h-128l-14 55q-23 -33 -57 -51.5t-79 -18.5q-166 0 -166 194v341h155zM169 735h167l-135 -137h-120zM374 735h167l-135 -137h-120z" />
    <glyph glyph-name="Uogonek" unicode="&#x172;" horiz-adv-x="619" 
d="M516 -137q-11 -51 -44.5 -80.5t-92.5 -29.5q-63 0 -95.5 29t-32.5 85q0 34 16.5 64t47.5 54h-6q-134 0 -200.5 67.5t-66.5 188.5v479h167v-490q0 -61 23.5 -93.5t77.5 -32.5t80.5 32.5t26.5 93.5v490h160v-479q0 -162 -119 -226q-57 -30 -80.5 -61.5t-23.5 -66.5
q0 -24 9 -35t24 -11q21 0 27 22h102z" />
    <glyph glyph-name="uogonek" unicode="&#x173;" horiz-adv-x="524" 
d="M193 520v-344q0 -45 16 -63t48 -18q28 0 49 28t21 85v312h155v-520h-44q-42 -28 -60 -55.5t-18 -57.5q0 -24 9 -35t24 -11q21 0 27 22h102q-11 -51 -44.5 -80.5t-92.5 -29.5q-63 0 -95.5 29t-32.5 85q0 42 25 78t70 60l-12 50q-23 -33 -57 -51.5t-79 -18.5
q-166 0 -166 194v341h155z" />
    <glyph glyph-name="Wcircumflex" unicode="&#x174;" horiz-adv-x="864" 
d="M861 720l-128 -720h-198l-105 540l-97 -540h-187l-143 720h168l84 -529l89 529h182l104 -532l72 532h159zM403 773h-149l112 137h131l112 -137h-148l-29 69z" />
    <glyph glyph-name="wcircumflex" unicode="&#x175;" horiz-adv-x="757" 
d="M750 520l-120 -520h-194l-55 375l-70 -375h-188l-116 520h160l58 -386l69 386h186l56 -388l69 388h145zM352 598h-149l112 137h131l112 -137h-148l-29 69z" />
    <glyph glyph-name="Ycircumflex" unicode="&#x176;" horiz-adv-x="588" 
d="M216 0v287l-216 433h178l121 -288l132 288h157l-216 -433v-287h-156zM265 773h-149l112 137h131l112 -137h-148l-29 69z" />
    <glyph glyph-name="ycircumflex" unicode="&#x177;" horiz-adv-x="512" 
d="M509 520l-163 -531q-16 -51 -32.5 -86t-37 -56.5t-46 -31.5t-59.5 -10q-20 0 -41 3t-39 8v109q23 -6 37.5 -7.5t22.5 -1.5q24 0 36.5 19.5t17.5 64.5h-43l-159 520h164l88 -399l99 399h155zM227 583h-149l112 137h131l112 -137h-148l-29 69z" />
    <glyph glyph-name="Ydieresis" unicode="&#x178;" horiz-adv-x="588" 
d="M216 0v287l-216 433h178l121 -288l132 288h157l-216 -433v-287h-156zM128 782v128h142v-128h-142zM327 782v128h143v-128h-143z" />
    <glyph glyph-name="Zacute" unicode="&#x179;" horiz-adv-x="526" 
d="M183 119h323v-119h-490v121l327 480h-312v119h479v-118zM290 910h160l-131 -137h-116z" />
    <glyph glyph-name="zacute" unicode="&#x17a;" horiz-adv-x="445" 
d="M192 115h227v-115h-405v121l242 284h-225v115h400v-121zM257 735h160l-131 -137h-116z" />
    <glyph glyph-name="Zdotaccent" unicode="&#x17b;" horiz-adv-x="526" 
d="M183 119h323v-119h-490v121l327 480h-312v119h479v-118zM180 777v133h169v-133h-169z" />
    <glyph glyph-name="zdotaccent" unicode="&#x17c;" horiz-adv-x="445" 
d="M192 115h227v-115h-405v121l242 284h-225v115h400v-121zM140 587v133h169v-133h-169z" />
    <glyph glyph-name="Zcaron" unicode="&#x17d;" horiz-adv-x="526" 
d="M183 119h323v-119h-490v121l327 480h-312v119h479v-118zM267 841l29 69h148l-112 -137h-131l-112 137h149z" />
    <glyph glyph-name="zcaron" unicode="&#x17e;" horiz-adv-x="445" 
d="M192 115h227v-115h-405v121l242 284h-225v115h400v-121zM237 666l29 69h148l-112 -137h-131l-112 137h149z" />
    <glyph glyph-name="longs" unicode="&#x17f;" horiz-adv-x="347" 
d="M80 0v412h-69v108h69v38q0 87 39 132t124 45q36 0 64.5 -5.5t49.5 -11.5v-110q-21 6 -38.5 9.5t-28.5 3.5q-34 0 -45 -14t-11 -43v-564h-154z" />
    <glyph glyph-name="florin" unicode="&#x192;" 
d="M453 588q-21 6 -38.5 9.5t-28.5 3.5q-36 0 -46 -14t-10 -43v-44h99v-108h-99v-572h-154v572h-69v108h69v38q0 87 39.5 132t123.5 45q36 0 64.5 -5.5t49.5 -11.5v-110z" />
    <glyph glyph-name="Aringacute" unicode="&#x1fa;" horiz-adv-x="626" 
d="M372 828h-109l83 132h160zM313 811q67 0 99.5 -34.5t32.5 -82.5q0 -25 -9 -46.5t-29 -36.5l221 -611h-174l-46 163h-200l-45 -163h-165l220 612q-20 15 -29 36t-9 46q0 48 32 82.5t101 34.5zM313 739q-35 0 -35 -45t35 -45q34 0 34 45t-34 45zM237 270h143l-71 254z" />
    <glyph glyph-name="aringacute" unicode="&#x1fb;" horiz-adv-x="509" 
d="M38 373q20 78 76 120t150 42q100 0 153.5 -49.5t53.5 -148.5v-337h-120l-19 54q-22 -29 -58 -49t-89 -20q-34 0 -63 11t-50 31.5t-32.5 50.5t-11.5 68q0 30 9 56.5t31 48.5t57 38t88 24l103 16v28q0 42 -14.5 59.5t-43.5 17.5q-51 0 -63 -61h-157zM232 92q44 0 64 29.5
t20 70.5v51l-63 -12q-42 -8 -57 -29t-15 -49q0 -61 51 -61zM237 660.018q0 -23.4014 6 -34.6514t22 -11.25t21.5 11.25t5.5 34.6514q0 23.4004 -6 34.6504t-22 11.25q-15 0 -21 -11.25t-6 -34.6504zM386 660.018q0 -22.501 -7.5 -42.752q-7.5 -20.25 -22.5 -35.1006
t-38 -23.8506t-54 -9t-54 9t-38 23.8506t-22.5 35.1006q-7.5 20.251 -7.5 42.752q0 22.5 7.5 42.751q7.5 20.25 22.5 35.1006t38 23.8506t54 9t54 -9t38 -23.8506t22.5 -35.1006q7.5 -20.251 7.5 -42.751zM285 908.018h160l-131 -123.304h-116z" />
    <glyph glyph-name="AEacute" unicode="&#x1fc;" horiz-adv-x="821" 
d="M796 0h-401v165h-171l-57 -165h-167l273 720h523v-123h-234v-176h209v-116h-209v-184h234v-121zM395 275v346l-125 -346h125zM518 903h160l-131 -137h-116z" />
    <glyph glyph-name="aeacute" unicode="&#x1fd;" horiz-adv-x="814" 
d="M788 151q-7 -36 -22.5 -66.5t-42.5 -52.5t-67.5 -34.5t-97.5 -12.5q-72 0 -118 29t-76 80q-9 -23 -23.5 -42.5t-35 -34.5t-48 -23.5t-64.5 -8.5q-78 0 -121.5 41.5t-43.5 123.5q0 30 7 55.5t27.5 46t57 36.5t95.5 27l101 19v23q0 77 -59 77q-33 0 -45.5 -17.5
t-17.5 -46.5h-157q20 78 74 121.5t151 43.5q43 0 80 -16.5t66 -43.5q27 29 61 44.5t85 15.5q117 0 178 -76.5t61 -236.5h-320q4 -34 10.5 -58.5t17.5 -40t27 -22.5t39 -7q31 0 45.5 15.5t19.5 41.5h156zM550 437q-38 0 -56.5 -28.5t-22.5 -95.5h163q-2 66 -22 95t-62 29z
M316 249l-61 -18q-44 -13 -59 -30t-15 -44q0 -33 14 -49t37 -16q24 0 40 8.5t26 23t14 33t4 39.5v53zM440 720h160l-131 -137h-116z" />
    <glyph glyph-name="Oslashacute" unicode="&#x1fe;" horiz-adv-x="678" 
d="M339 -15q-36 0 -67 6l-29 -101h-113l42 141q-65 42 -102 123.5t-37 204.5q0 93 22 163.5t62.5 117.5t96.5 71t125 24q34 0 67 -6l29 91h113l-43 -131q65 -42 102.5 -123.5t37.5 -205.5q0 -93 -23.5 -163.5t-64.5 -117.5t-97 -70.5t-121 -23.5zM202 359q0 -69 11 -117.5
t30 -79.5l129 450q-17 5 -33 5q-27 0 -52 -13t-43.5 -43t-30 -79.5t-11.5 -122.5zM339 104q28 0 53 13.5t43.5 44t29.5 79t11 119.5q0 70 -11 118.5t-30 79.5l-129 -449q14 -5 33 -5zM322 910h160l-131 -137h-116z" />
    <glyph glyph-name="oslashacute" unicode="&#x1ff;" horiz-adv-x="542" 
d="M28 262q0 137 59 205t184 68q15 0 29 -1t28 -3l39 99h113l-56 -137q90 -66 90 -231q0 -136 -59 -206.5t-184 -70.5q-15 0 -29 1.5t-28 3.5l-38 -100h-114l55 138q-89 65 -89 234zM188 262q0 -38 2.5 -65t8.5 -47l98 277q-12 3 -26 3q-22 0 -37.5 -7t-25.5 -26t-15 -51.5
t-5 -83.5zM355 262q0 70 -10 106l-98 -276q6 -2 12 -2h13q22 0 38 7t26 26t14.5 52.5t4.5 86.5zM244 720h160l-131 -137h-116z" />
    <glyph glyph-name="Scommaaccent" unicode="&#x218;" horiz-adv-x="587" 
d="M308 -15q-68 0 -118 16t-85 45.5t-55 71.5t-26 94h155q3 -24 11.5 -44t23.5 -34.5t37 -23t53 -8.5q55 0 77.5 20t22.5 63q0 18 -6 34t-22 30.5t-42.5 28.5t-68.5 29q-63 22 -104.5 46t-67 52t-36 61.5t-10.5 75.5q0 43 14.5 79t45 61t78 39t113.5 14q112 0 177 -53
t77 -147h-153q-5 41 -30.5 63t-67.5 22q-48 0 -67 -18t-19 -55q0 -35 23.5 -58t87.5 -44q69 -23 116.5 -49t76 -55t41 -63t12.5 -74q0 -48 -15 -88t-47 -69.5t-82 -45.5t-120 -16zM381 -144q0 -45 -12.5 -76t-33.5 -51t-48 -31.5t-57 -17.5v68q34 12 44.5 28.5t10.5 46.5
h-37v117h133v-84z" />
    <glyph glyph-name="scommaaccent" unicode="&#x219;" horiz-adv-x="490" 
d="M247 91q32 0 45 12t13 34q0 10 -3.5 19t-14 17.5t-29.5 16.5t-50 17q-48 14 -80.5 30t-52 36.5t-28 46t-8.5 58.5q0 35 11.5 64t35.5 49.5t62 32t92 11.5q94 0 151.5 -42t69.5 -117h-155q-8 53 -65 53q-26 0 -37 -10.5t-11 -28.5q0 -11 3 -19.5t12.5 -16t27 -15
t46.5 -16.5q54 -18 89 -36t55 -38.5t28 -45t8 -54.5q0 -77 -51.5 -120.5t-166.5 -43.5q-100 0 -156.5 45t-67.5 117h157q8 -56 70 -56zM305 -144q0 -45 -12.5 -76t-33.5 -51t-48 -31.5t-57 -17.5v68q34 12 44.5 28.5t10.5 46.5h-37v117h133v-84z" />
    <glyph glyph-name="uni021A" unicode="&#x21a;" horiz-adv-x="519" 
d="M516 594h-174v-594h-167v594h-172v126h513v-126zM330 -144q0 -45 -12.5 -76t-33.5 -51t-48 -31.5t-57 -17.5v68q34 12 44.5 28.5t10.5 46.5h-37v117h133v-84z" />
    <glyph glyph-name="uni021B" unicode="&#x21b;" horiz-adv-x="332" 
d="M321 -1q-18 -6 -42.5 -10t-47.5 -4q-76 0 -115.5 40t-39.5 120v267h-69v108h69l10 125h144v-125h91v-108h-91v-272q0 -22 10 -33t33 -11q7 0 22 2.5t26 6.5v-106zM239 -144q0 -45 -12.5 -76t-33.5 -51t-48 -31.5t-57 -17.5v68q34 12 44.5 28.5t10.5 46.5h-37v117h133v-84
z" />
    <glyph glyph-name="dotlessj" unicode="&#x237;" horiz-adv-x="245" 
d="M-48 -71q14 -5 29.5 -7t24.5 -2q23 0 32.5 12.5t9.5 41.5v546h155v-549q0 -75 -40.5 -120.5t-119.5 -45.5q-23 0 -48.5 4t-42.5 11v109z" />
    <glyph glyph-name="circumflex" unicode="&#x2c6;" horiz-adv-x="427" 
d="M185 583h-149l112 137h131l112 -137h-148l-29 69z" />
    <glyph glyph-name="caron" unicode="&#x2c7;" horiz-adv-x="427" 
d="M214 651l29 69h148l-112 -137h-131l-112 137h149z" />
    <glyph glyph-name="uni02C9" unicode="&#x2c9;" horiz-adv-x="284" 
d="M26 612v108h232v-108h-232z" />
    <glyph glyph-name="breve" unicode="&#x2d8;" horiz-adv-x="332" 
d="M146 720q1 -26 5 -37.5t15 -11.5q10 0 14.5 11.5t4.5 37.5h118q-8 -72 -45.5 -102.5t-91.5 -30.5q-64 0 -97.5 35t-39.5 98h117z" />
    <glyph glyph-name="dotaccent" unicode="&#x2d9;" horiz-adv-x="221" 
d="M26 587v133h169v-133h-169z" />
    <glyph glyph-name="ring" unicode="&#x2da;" horiz-adv-x="274" 
d="M110 700q0 -26 6 -38.5t22 -12.5t21.5 12.5t5.5 38.5t-6 38.5t-22 12.5q-15 0 -21 -12.5t-6 -38.5zM259 700q0 -25 -7.5 -47.5t-22.5 -39t-38 -26.5t-54 -10t-54 10t-38 26.5t-22.5 39t-7.5 47.5t7.5 47.5t22.5 39t38 26.5t54 10t54 -10t38 -26.5t22.5 -39t7.5 -47.5z
" />
    <glyph glyph-name="ogonek" unicode="&#x2db;" horiz-adv-x="318" 
d="M292 -137q-11 -51 -44.5 -80.5t-92.5 -29.5q-63 0 -95.5 29t-32.5 85q0 48 33 88.5t93 64.5h89q-60 -33 -86 -65.5t-26 -67.5q0 -24 9 -35t24 -11q21 0 27 22h102z" />
    <glyph glyph-name="tilde" unicode="&#x2dc;" horiz-adv-x="313" 
d="M214 592q-18 0 -33 6t-28.5 13t-26.5 13t-27 6t-34 -10.5t-39 -27.5v110q19 16 39.5 24.5t37.5 8.5q18 0 33 -6t28.5 -13t26.5 -13t27 -6t32.5 10.5t36.5 27.5v-110q-38 -33 -73 -33z" />
    <glyph glyph-name="hungarumlaut" unicode="&#x2dd;" horiz-adv-x="512" 
d="M114 720h167l-135 -137h-120zM319 720h167l-135 -137h-120z" />
    <glyph glyph-name="uni0312" unicode="&#x312;" horiz-adv-x="231" 
d="M39 653q0 45 12.5 76t33.5 51t48 31.5t57 17.5v-68q-34 -12 -44.5 -28.5t-10.5 -46.5h37v-117h-133v84z" />
    <glyph glyph-name="dotbelowcomb" unicode="&#x323;" horiz-adv-x="228" 
d="M30 -180v133h168v-133h-168z" />
    <glyph glyph-name="uni037E" unicode="&#x37e;" horiz-adv-x="270" 
d="M56 363v157h177v-157h-177zM233 30q0 -58 -18.5 -97t-47.5 -64t-64 -37t-67 -15v78q38 8 60.5 34t22.5 71h-63v157h177v-127z" />
    <glyph glyph-name="tonos" unicode="&#x384;" horiz-adv-x="232" 
d="M43 720h163l-59 -147h-121z" />
    <glyph glyph-name="dieresistonos" unicode="&#x385;" horiz-adv-x="477" 
d="M24 592v128h142v-128h-142zM314 592v128h143v-128h-143zM199 883h162l-58 -147h-122z" />
    <glyph glyph-name="Alphatonos" unicode="&#x386;" horiz-adv-x="601" 
d="M427 0l-37 165h-190l-37 -165h-163l206 720h186l209 -720h-174zM229 275h132l-66 307zM4 720h163l-59 -147h-121z" />
    <glyph glyph-name="anoteleia" unicode="&#x387;" horiz-adv-x="270" 
d="M56 248v142h158v-142h-158z" />
    <glyph glyph-name="Epsilontonos" unicode="&#x388;" horiz-adv-x="642" 
d="M593 305h-239v-184h264v-121h-431v720h431v-123h-264v-176h239v-116zM4 720h163l-59 -147h-121z" />
    <glyph glyph-name="Etatonos" unicode="&#x389;" horiz-adv-x="772" 
d="M725 720v-720h-165v304h-202v-304h-167v720h167v-296h202v296h165zM4 720h163l-59 -147h-121z" />
    <glyph glyph-name="Iotatonos" unicode="&#x38a;" horiz-adv-x="405" 
d="M358 720v-720h-167v720h167zM4 720h163l-59 -147h-121z" />
    <glyph glyph-name="Omicrontonos" unicode="&#x38c;" horiz-adv-x="768" 
d="M429 104q28 0 53 13.5t43.5 44t29.5 79t11 119.5q0 69 -10.5 118t-29.5 80t-44 45t-53 14q-27 0 -52 -13t-43.5 -43t-30 -79.5t-11.5 -122.5q0 -69 11 -117.5t30 -79t44 -44.5t52 -14zM429 -15q-67 0 -123.5 23t-97 69.5t-63 116.5t-22.5 165q0 93 22 163.5t62.5 117.5
t96.5 71t125 24q67 0 123.5 -23t97 -69.5t63 -117t22.5 -165.5q0 -93 -23.5 -163.5t-64.5 -117.5t-97 -70.5t-121 -23.5zM20 720h163l-59 -147h-121z" />
    <glyph glyph-name="Upsilontonos" unicode="&#x38e;" horiz-adv-x="753" 
d="M381 0v287l-216 433h178l121 -288l132 288h157l-216 -433v-287h-156zM-13 720h163l-59 -147h-121z" />
    <glyph glyph-name="Omegatonos" unicode="&#x38f;" horiz-adv-x="769" 
d="M467 121q13 0 30 10.5t32.5 37.5t26.5 73t11 116q0 73 -11 122.5t-29.5 80t-43.5 43.5t-53 13q-29 0 -54 -13t-43.5 -43.5t-29 -80.5t-10.5 -123q0 -69 11.5 -114.5t27 -72.5t32.5 -38t29 -11v-121h-242v121h72q-45 36 -72 96.5t-27 149.5q0 95 23 164.5t63.5 114.5
t96.5 67t123 22t123.5 -21t97 -65.5t63 -114t22.5 -166.5q0 -79 -26 -140.5t-75 -106.5h76v-121h-244v121zM20 720h163l-59 -147h-121z" />
    <glyph glyph-name="iotadieresistonos" unicode="&#x390;" horiz-adv-x="239" 
d="M78 883h162l-58 -147h-122zM-26 592v128h121v-128h-121zM142 592v128h123v-128h-123zM42 0v520h155v-520h-155z" />
    <glyph glyph-name="Alpha" unicode="&#x391;" horiz-adv-x="601" 
d="M427 0l-37 165h-190l-37 -165h-163l206 720h186l209 -720h-174zM229 275h132l-66 307z" />
    <glyph glyph-name="Beta" unicode="&#x392;" horiz-adv-x="555" 
d="M246 720q141 0 201 -47t60 -144q0 -50 -31 -90.5t-86 -57.5q70 -15 107 -58.5t37 -112.5q0 -52 -14 -91.5t-45.5 -65.5t-82.5 -39.5t-124 -13.5h-222v720h200zM213 324v-214h58q48 0 70.5 23.5t22.5 81.5q0 57 -24 83t-64 26h-63zM213 610v-182h46q38 0 60 24t22 72
q0 41 -22.5 63.5t-60.5 22.5h-45z" />
    <glyph glyph-name="Gamma" unicode="&#x393;" horiz-adv-x="440" 
d="M437 594h-224v-594h-167v720h391v-126z" />
    <glyph glyph-name="uni0394" unicode="&#x394;" horiz-adv-x="601" 
d="M0 0l206 720h186l209 -720h-601zM192 110h206l-103 467z" />
    <glyph glyph-name="Epsilon" unicode="&#x395;" horiz-adv-x="502" 
d="M452 305h-239v-184h264v-121h-431v720h431v-123h-264v-176h239v-116z" />
    <glyph glyph-name="Zeta" unicode="&#x396;" horiz-adv-x="526" 
d="M183 119h323v-119h-490v121l327 480h-312v119h479v-118z" />
    <glyph glyph-name="Eta" unicode="&#x397;" horiz-adv-x="626" 
d="M580 720v-720h-165v304h-202v-304h-167v720h167v-296h202v296h165z" />
    <glyph glyph-name="Theta" unicode="&#x398;" horiz-adv-x="678" 
d="M423 305h-169v116h169v-116zM339 104q28 0 53 13.5t43.5 44t29.5 79t11 119.5q0 69 -10.5 118t-29.5 80t-44 45t-53 14q-27 0 -52 -13t-43.5 -43t-30 -79.5t-11.5 -122.5q0 -69 11 -117.5t30 -79t44 -44.5t52 -14zM339 -15q-67 0 -123.5 23t-97 69.5t-63 116.5t-22.5 165
q0 93 22 163.5t62.5 117.5t96.5 71t125 24q67 0 123.5 -23t97 -69.5t63 -117t22.5 -165.5q0 -93 -23.5 -163.5t-64.5 -117.5t-97 -70.5t-121 -23.5z" />
    <glyph glyph-name="Iota" unicode="&#x399;" horiz-adv-x="259" 
d="M213 720v-720h-167v720h167z" />
    <glyph glyph-name="Kappa" unicode="&#x39a;" horiz-adv-x="644" 
d="M447 0l-234 323v-323h-167v720h167v-307l214 307h184l-251 -338l287 -382h-200z" />
    <glyph glyph-name="Lambda" unicode="&#x39b;" horiz-adv-x="593" 
d="M418 0l-127 576l-128 -576h-163l202 720h186l205 -720h-175z" />
    <glyph glyph-name="Mu" unicode="&#x39c;" horiz-adv-x="775" 
d="M316 0l-132 473v-473h-149v720h198l152 -539l150 539h195v-720h-150v474l-132 -474h-132z" />
    <glyph glyph-name="Nu" unicode="&#x39d;" horiz-adv-x="620" 
d="M574 720v-720h-167l-220 492v-492h-141v720h181l206 -480v480h141z" />
    <glyph glyph-name="Xi" unicode="&#x39e;" horiz-adv-x="499" 
d="M474 0h-449v128h449v-128zM474 593h-449v127h449v-127zM410 301h-320v124h320v-124z" />
    <glyph glyph-name="Omicron" unicode="&#x39f;" horiz-adv-x="678" 
d="M339 104q28 0 53 13.5t43.5 44t29.5 79t11 119.5q0 69 -10.5 118t-29.5 80t-44 45t-53 14q-27 0 -52 -13t-43.5 -43t-30 -79.5t-11.5 -122.5q0 -69 11 -117.5t30 -79t44 -44.5t52 -14zM339 -15q-67 0 -123.5 23t-97 69.5t-63 116.5t-22.5 165q0 93 22 163.5t62.5 117.5
t96.5 71t125 24q67 0 123.5 -23t97 -69.5t63 -117t22.5 -165.5q0 -93 -23.5 -163.5t-64.5 -117.5t-97 -70.5t-121 -23.5z" />
    <glyph glyph-name="Pi" unicode="&#x3a0;" horiz-adv-x="626" 
d="M580 720v-720h-165v600h-202v-600h-167v720h534z" />
    <glyph glyph-name="Rho" unicode="&#x3a1;" horiz-adv-x="584" 
d="M273 720q76 0 130 -14.5t88 -44.5t49.5 -75t15.5 -105q0 -120 -66.5 -180t-208.5 -60h-68v-241h-167v720h227zM213 605v-249h70q46 0 73.5 31.5t27.5 93.5q0 66 -29 95t-83 29h-59z" />
    <glyph glyph-name="Sigma" unicode="&#x3a3;" horiz-adv-x="535" 
d="M355 325l-156 -206h310v-119h-483v118l178 241l-178 246v115h468v-119h-286l148 -205z" />
    <glyph glyph-name="Tau" unicode="&#x3a4;" horiz-adv-x="519" 
d="M516 594h-174v-594h-167v594h-172v126h513v-126z" />
    <glyph glyph-name="Upsilon" unicode="&#x3a5;" horiz-adv-x="588" 
d="M216 0v287l-216 433h178l121 -288l132 288h157l-216 -433v-287h-156z" />
    <glyph glyph-name="Phi" unicode="&#x3a6;" horiz-adv-x="838" 
d="M335 25q-71 2 -127 27t-95 69.5t-59.5 105.5t-20.5 136q0 78 21.5 139t61 103.5t95.5 65t125 24.5v40h167v-40q69 -2 124.5 -24.5t95 -65t61 -103.5t21.5 -139q0 -75 -21 -136t-60 -105.5t-95 -69.5t-126 -27v-40h-167v40h-1zM639 363q0 57 -11 97t-29.5 65.5t-43 37.5
t-52.5 14v-433q29 1 54 14.5t43 40.5t28.5 67.5t10.5 96.5zM199 363q0 -56 10.5 -96.5t28.5 -67.5t43 -40.5t54 -14.5v433q-28 -2 -52.5 -14t-43 -37.5t-29.5 -65.5t-11 -97z" />
    <glyph glyph-name="Chi" unicode="&#x3a7;" horiz-adv-x="621" 
d="M400 382l218 -382h-196l-124 244l-119 -244h-176l218 375l-205 345h191l112 -215l110 215h167z" />
    <glyph glyph-name="Psi" unicode="&#x3a8;" horiz-adv-x="682" 
d="M198 720v-321q0 -50 14 -80t54 -39v440h157v-439q38 11 53.5 40t15.5 78v321h150v-310q0 -105 -54 -171t-165 -80v-159h-157v158q-115 14 -170.5 79.5t-55.5 172.5v310h158z" />
    <glyph glyph-name="uni03A9" unicode="&#x3a9;" horiz-adv-x="678" 
d="M376 121q13 0 30 10.5t32.5 37.5t26.5 73t11 116q0 73 -11 122.5t-29.5 80t-43.5 43.5t-53 13q-29 0 -54 -13t-43.5 -43.5t-29 -80.5t-10.5 -123q0 -69 11.5 -114.5t27 -72.5t32.5 -38t29 -11v-121h-242v121h72q-45 36 -72 96.5t-27 149.5q0 95 23 164.5t63.5 114.5
t96.5 67t123 22t123.5 -21t97 -65.5t63 -114t22.5 -166.5q0 -79 -26 -140.5t-75 -106.5h76v-121h-244v121z" />
    <glyph glyph-name="Iotadieresis" unicode="&#x3aa;" horiz-adv-x="259" 
d="M213 720v-720h-167v720h167zM-40 782v128h142v-128h-142zM159 782v128h143v-128h-143z" />
    <glyph glyph-name="Upsilondieresis" unicode="&#x3ab;" horiz-adv-x="588" 
d="M216 0v287l-216 433h178l121 -288l132 288h157l-216 -433v-287h-156zM123 782v128h142v-128h-142zM322 782v128h143v-128h-143z" />
    <glyph glyph-name="alphatonos" unicode="&#x3ac;" horiz-adv-x="550" 
d="M389 0l-26 57q-24 -32 -58 -52t-76 -20q-46 0 -83 18.5t-63.5 53t-40.5 85t-14 113.5q0 69 15 121.5t41.5 87.5t63 53t78.5 18q47 0 79.5 -18t56.5 -52l26 55h120v-520h-119zM183 256q0 -46 6.5 -76t17.5 -48t27 -25.5t36 -7.5q43 0 65.5 36t22.5 124q0 45 -6.5 76
t-18.5 50t-28 27.5t-35 8.5q-38 0 -62.5 -37t-24.5 -128zM230 720h163l-59 -147h-121z" />
    <glyph glyph-name="epsilontonos" unicode="&#x3ad;" horiz-adv-x="485" 
d="M191 720h163l-59 -147h-121zM231 535q101 0 160 -47t72 -125h-161q-3 32 -20 50t-46 18q-20 0 -32 -14.5t-12 -36.5q0 -29 16 -44.5t46 -15.5h38v-103h-27q-45 0 -64 -19t-19 -46q0 -57 52 -57q28 0 44 16.5t24 58.5h161q-9 -41 -27 -74.5t-46 -58.5t-67 -38.5t-91 -13.5
q-53 0 -92.5 12.5t-65.5 34t-39 51.5t-13 65q0 52 31 86.5t83 41.5q-48 10 -74.5 41.5t-26.5 79.5q0 28 12.5 53t37 44t61 30t85.5 11z" />
    <glyph glyph-name="etatonos" unicode="&#x3ae;" horiz-adv-x="529" 
d="M42 520h128l13 -55q29 38 62.5 54t80.5 16q78 0 121.5 -49.5t43.5 -149.5v-516h-155v509q0 56 -15 76t-44 20q-35 0 -57.5 -26.5t-22.5 -85.5v-313h-155v520zM218 720h163l-59 -147h-121z" />
    <glyph glyph-name="iotatonos" unicode="&#x3af;" horiz-adv-x="239" 
d="M79 720h163l-59 -147h-121zM42 0v520h155v-520h-155z" />
    <glyph glyph-name="upsilondieresistonos" unicode="&#x3b0;" horiz-adv-x="518" 
d="M261 -15q-121 0 -172 51.5t-51 150.5v333h155v-337q0 -51 16.5 -69.5t50.5 -18.5q36 0 51 18.5t15 69.5v337h154v-333q0 -97 -53.5 -149.5t-165.5 -52.5zM42 592v128h142v-128h-142zM332 592v128h143v-128h-143zM217 883h162l-58 -147h-122z" />
    <glyph glyph-name="alpha" unicode="&#x3b1;" horiz-adv-x="550" 
d="M389 0l-26 57q-24 -32 -58 -52t-76 -20q-46 0 -83 18.5t-63.5 53t-40.5 85t-14 113.5q0 69 15 121.5t41.5 87.5t63 53t78.5 18q47 0 79.5 -18t56.5 -52l26 55h120v-520h-119zM183 256q0 -46 6.5 -76t17.5 -48t27 -25.5t36 -7.5q43 0 65.5 36t22.5 124q0 45 -6.5 76
t-18.5 50t-28 27.5t-35 8.5q-38 0 -62.5 -37t-24.5 -128z" />
    <glyph glyph-name="beta" unicode="&#x3b2;" horiz-adv-x="518" 
d="M321 -15q-45 0 -76 18t-48 50v-233h-155v692q0 104 53.5 163.5t162.5 59.5q112 0 163.5 -45.5t51.5 -129.5q0 -29 -8.5 -55.5t-24.5 -48.5t-39.5 -37.5t-51.5 -20.5q28 -5 53 -20q25 -16 43.5 -40.5t29 -56t10.5 -67.5q0 -115 -42 -172t-122 -57zM326 218q0 34 -4.5 56.5
t-13 36t-20 18.5t-26.5 5h-18v113h16q25 0 42 23t17 71q0 44 -17.5 64t-43.5 20q-32 0 -46.5 -22t-14.5 -81v-258q0 -90 20.5 -127.5t49.5 -37.5q28 0 43.5 25t15.5 94z" />
    <glyph glyph-name="gamma" unicode="&#x3b3;" horiz-adv-x="506" 
d="M176 -180v180l-173 520h168l88 -383l84 383h160l-172 -520v-180h-155z" />
    <glyph glyph-name="delta" unicode="&#x3b4;" horiz-adv-x="512" 
d="M131 720h320v-104h-125q30 -15 58.5 -44.5t50.5 -70t35.5 -89.5t13.5 -102q0 -166 -55.5 -245.5t-170.5 -79.5q-116 0 -173 62t-57 183q0 128 50 190.5t132 62.5q29 0 54.5 -12.5t42.5 -35.5q-9 42 -26.5 76t-41 59.5t-51.5 40.5t-57 20v89zM255 370q-32 0 -50.5 -30.5
t-18.5 -109.5q0 -40 5 -65.5t15 -40.5t23.5 -20.5t31.5 -5.5q15 0 27 7t20.5 24.5t12.5 47t4 74.5q0 65 -19.5 92t-50.5 27z" />
    <glyph glyph-name="epsilon" unicode="&#x3b5;" horiz-adv-x="485" 
d="M231 535q101 0 160 -47t72 -125h-161q-3 32 -20 50t-46 18q-20 0 -32 -14.5t-12 -36.5q0 -29 16 -44.5t46 -15.5h38v-103h-27q-45 0 -64 -19t-19 -46q0 -57 52 -57q28 0 44 16.5t24 58.5h161q-9 -41 -27 -74.5t-46 -58.5t-67 -38.5t-91 -13.5q-53 0 -92.5 12.5t-65.5 34
t-39 51.5t-13 65q0 52 31 86.5t83 41.5q-48 10 -74.5 41.5t-26.5 79.5q0 28 12.5 53t37 44t61 30t85.5 11z" />
    <glyph glyph-name="zeta" unicode="&#x3b6;" horiz-adv-x="453" 
d="M408 632q-63 -33 -105.5 -73t-67.5 -84.5t-35.5 -92.5t-10.5 -98q0 -70 27.5 -120t94.5 -73q71 -24 101.5 -58t30.5 -88q0 -21 -8.5 -43t-23 -44t-33 -43t-39.5 -38l-93 76q13 16 24.5 33t11.5 37q0 43 -41 56q-114 36 -163.5 108t-49.5 182q0 51 10 97t32.5 88t58 81
t86.5 77h-184v108h377v-88z" />
    <glyph glyph-name="eta" unicode="&#x3b7;" horiz-adv-x="529" 
d="M42 520h128l13 -55q29 38 62.5 54t80.5 16q78 0 121.5 -49.5t43.5 -149.5v-516h-155v509q0 56 -15 76t-44 20q-35 0 -57.5 -26.5t-22.5 -85.5v-313h-155v520z" />
    <glyph glyph-name="theta" unicode="&#x3b8;" horiz-adv-x="521" 
d="M261 -15q-116 0 -174.5 91t-58.5 282q0 195 58 286t175 91q116 0 174 -91t58 -286q0 -191 -58.5 -282t-173.5 -91zM262 91q18 0 30.5 11t21 36.5t13 67t6.5 102.5h-145q2 -61 7.5 -102.5t14.5 -67t21.5 -36.5t30.5 -11zM261 630q-18 0 -30.5 -11.5t-21.5 -37t-14 -66.5
t-7 -100h145q-2 59 -7.5 100t-14 66.5t-21 37t-29.5 11.5z" />
    <glyph glyph-name="iota" unicode="&#x3b9;" horiz-adv-x="239" 
d="M42 0v520h155v-520h-155z" />
    <glyph glyph-name="kappa" unicode="&#x3ba;" horiz-adv-x="526" 
d="M42 0v520h155v-218l154 218h163l-177 -235l199 -285h-181l-158 246v-246h-155z" />
    <glyph glyph-name="lambda" unicode="&#x3bb;" horiz-adv-x="511" 
d="M349 0l-97 399l-88 -399h-161l157 520h50q-7 59 -19 81.5t-37 22.5q-8 0 -22 -1.5t-37 -7.5v109q18 5 39 8t40 3q35 0 59.5 -8.5t43 -31t35 -62t35.5 -102.5l161 -531h-159z" />
    <glyph glyph-name="uni03BC" unicode="&#x3bc;" horiz-adv-x="528" 
d="M197 520v-353q0 -40 16.5 -56t47.5 -16q28 0 49 28t21 85v312h155v-520h-128l-14 55q-23 -33 -57 -51.5t-79 -18.5h-11v-165h-155v700h155z" />
    <glyph glyph-name="nu" unicode="&#x3bd;" horiz-adv-x="506" 
d="M503 520l-154 -520h-193l-153 520h167l88 -398l85 398h160z" />
    <glyph glyph-name="xi" unicode="&#x3be;" horiz-adv-x="464" 
d="M26 192q0 33 8.5 62t23.5 51t34.5 36t41.5 17q-48 11 -73 42.5t-25 79.5t26.5 81.5t85.5 50.5h-112v108h372v-88h-29q-85 0 -134.5 -36.5t-49.5 -105.5q0 -19 4 -34t14.5 -26t29.5 -17t48 -6h56v-113h-46q-34 0 -56.5 -6.5t-35.5 -18t-18 -27.5t-5 -34q0 -37 25 -66
t88 -49q40 -12 67 -26.5t43 -32.5t23 -40t7 -49q0 -21 -9.5 -43t-24 -44t-32 -43t-34.5 -38l-91 76q13 16 23 35t10 37q0 21 -14 34.5t-56 22.5q-91 20 -138 75.5t-47 134.5z" />
    <glyph glyph-name="omicron" unicode="&#x3bf;" horiz-adv-x="542" 
d="M28 262q0 137 59 205t184 68q121 0 182 -67t61 -206q0 -136 -59 -206.5t-184 -70.5q-243 0 -243 277zM188 262q0 -51 5 -84t15.5 -52.5t26.5 -27.5t37 -8q22 0 38 7t26 26t14.5 52.5t4.5 86.5q0 51 -5 83.5t-15.5 51.5t-26.5 26t-37 7q-22 0 -37.5 -7t-25.5 -26
t-15 -51.5t-5 -83.5z" />
    <glyph glyph-name="pi" unicode="&#x3c0;" horiz-adv-x="514" 
d="M472 412v-412h-155v412h-120v-412h-155v412h-38v108h506v-108h-38z" />
    <glyph glyph-name="rho" unicode="&#x3c1;" horiz-adv-x="551" 
d="M39 283q0 130 57 191t179 61q57 0 103 -18t78.5 -53t49.5 -85.5t17 -114.5q0 -67 -15 -119t-41 -87.5t-63 -54t-80 -18.5q-40 0 -72.5 15t-57.5 43v-223h-155v463zM189 266q0 -47 6.5 -79t18.5 -51.5t29.5 -28t38.5 -8.5q20 0 36 8.5t27.5 28t17.5 51t6 77.5
q0 88 -24 122.5t-69 34.5q-40 0 -63.5 -35.5t-23.5 -119.5z" />
    <glyph glyph-name="sigma1" unicode="&#x3c2;" horiz-adv-x="519" 
d="M28 256q0 139 60.5 209t174.5 70q97 0 158.5 -46.5t75.5 -128.5h-161q-4 32 -21.5 50.5t-48.5 18.5q-19 0 -33.5 -8t-24.5 -28t-15 -54.5t-5 -87.5q0 -37 5.5 -63t18.5 -44t35 -30t54 -21q47 -13 78.5 -27t51 -32t27.5 -39.5t8 -49.5q0 -42 -28.5 -87t-70.5 -81l-92 76
q12 16 23 33t11 37q0 21 -13.5 33.5t-51.5 20.5q-57 12 -98 31.5t-67.5 51.5t-38.5 80t-12 116z" />
    <glyph glyph-name="sigma" unicode="&#x3c3;" horiz-adv-x="542" 
d="M477 412q18 -32 27.5 -67.5t9.5 -82.5q0 -136 -59 -206.5t-184 -70.5q-121 0 -182 67.5t-61 209.5q0 273 239 273q53 0 95 -15h169v-112zM188 262q0 -51 5 -84t15 -52.5t26 -27.5t38 -8q23 0 39 7.5t25.5 27t14 52.5t4.5 83q0 66 -11 106t-30 56q-10 4 -19.5 6t-23.5 2
q-22 0 -38 -7t-26 -25.5t-14.5 -51.5t-4.5 -84z" />
    <glyph glyph-name="tau" unicode="&#x3c4;" horiz-adv-x="424" 
d="M7 520h410v-107h-128v-413h-155v413h-127v107z" />
    <glyph glyph-name="upsilon" unicode="&#x3c5;" horiz-adv-x="518" 
d="M261 -15q-121 0 -172 51.5t-51 150.5v333h155v-337q0 -51 16.5 -69.5t50.5 -18.5q36 0 51 18.5t15 69.5v337h154v-333q0 -97 -53.5 -149.5t-165.5 -52.5z" />
    <glyph glyph-name="phi" unicode="&#x3c6;" horiz-adv-x="693" 
d="M257 -12q-67 5 -111 24t-70.5 51.5t-37 79.5t-10.5 109q0 75 13.5 144t35.5 124h152q-21 -58 -34 -128.5t-13 -136.5q0 -63 19 -97t56 -46v178q0 131 48 188t149 57q102 0 156.5 -61.5t54.5 -198.5q0 -74 -17.5 -126t-50.5 -86t-80 -51.5t-105 -23.5v-168h-155v168z
M412 110q52 11 75 49.5t23 116.5q0 82 -13.5 113.5t-39.5 31.5q-11 0 -19.5 -6t-14 -21t-8.5 -41t-3 -67v-176z" />
    <glyph glyph-name="chi" unicode="&#x3c7;" horiz-adv-x="510" 
d="M338 176l169 -356h-186l-74 241l-83 -241h-161l167 354l-159 346h180l66 -236l69 236h159z" />
    <glyph glyph-name="psi" unicode="&#x3c8;" horiz-adv-x="692" 
d="M188 520v-291q0 -98 86 -120v411h150v-410q88 23 88 119v291h142v-280q0 -106 -57.5 -171t-172.5 -80v-169h-150v168q-118 14 -177 79t-59 173v280h150z" />
    <glyph glyph-name="omega" unicode="&#x3c9;" horiz-adv-x="690" 
d="M413 380v-187q0 -53 14.5 -75.5t33.5 -22.5q23 0 35 23.5t12 81.5q0 102 -18 182t-43 138h155q24 -55 42 -136.5t18 -182.5q0 -51 -12.5 -91.5t-34.5 -68t-52 -42t-64 -14.5q-67 0 -106 31t-48 83q-9 -52 -48 -83t-106 -31q-35 0 -64.5 14.5t-51.5 42t-34.5 68
t-12.5 91.5q0 101 18 182.5t42 136.5h155q-25 -58 -43 -138t-18 -182q0 -58 12 -81.5t35 -23.5q19 0 33.5 22.5t14.5 75.5v187h136z" />
    <glyph glyph-name="iotadieresis" unicode="&#x3ca;" horiz-adv-x="239" 
d="M-26 592v128h121v-128h-121zM142 592v128h123v-128h-123zM42 0v520h155v-520h-155z" />
    <glyph glyph-name="upsilondieresis" unicode="&#x3cb;" horiz-adv-x="518" 
d="M261 -15q-121 0 -172 51.5t-51 150.5v333h155v-337q0 -51 16.5 -69.5t50.5 -18.5q36 0 51 18.5t15 69.5v337h154v-333q0 -97 -53.5 -149.5t-165.5 -52.5zM88 592v128h142v-128h-142zM287 592v128h143v-128h-143z" />
    <glyph glyph-name="omicrontonos" unicode="&#x3cc;" horiz-adv-x="542" 
d="M28 262q0 137 59 205t184 68q121 0 182 -67t61 -206q0 -136 -59 -206.5t-184 -70.5q-243 0 -243 277zM188 262q0 -51 5 -84t15.5 -52.5t26.5 -27.5t37 -8q22 0 38 7t26 26t14.5 52.5t4.5 86.5q0 51 -5 83.5t-15.5 51.5t-26.5 26t-37 7q-22 0 -37.5 -7t-25.5 -26
t-15 -51.5t-5 -83.5zM222 720h163l-59 -147h-121z" />
    <glyph glyph-name="upsilontonos" unicode="&#x3cd;" horiz-adv-x="518" 
d="M226 720h163l-59 -147h-121zM261 -15q-121 0 -172 51.5t-51 150.5v333h155v-337q0 -51 16.5 -69.5t50.5 -18.5q36 0 51 18.5t15 69.5v337h154v-333q0 -97 -53.5 -149.5t-165.5 -52.5z" />
    <glyph glyph-name="omegatonos" unicode="&#x3ce;" horiz-adv-x="690" 
d="M413 380v-187q0 -53 14.5 -75.5t33.5 -22.5q23 0 35 23.5t12 81.5q0 102 -18 182t-43 138h155q24 -55 42 -136.5t18 -182.5q0 -51 -12.5 -91.5t-34.5 -68t-52 -42t-64 -14.5q-67 0 -106 31t-48 83q-9 -52 -48 -83t-106 -31q-35 0 -64.5 14.5t-51.5 42t-34.5 68
t-12.5 91.5q0 101 18 182.5t42 136.5h155q-25 -58 -43 -138t-18 -182q0 -58 12 -81.5t35 -23.5q19 0 33.5 22.5t14.5 75.5v187h136zM306 720h163l-59 -147h-121z" />
    <glyph glyph-name="uni0400" unicode="&#x400;" horiz-adv-x="502" 
d="M452 305h-239v-184h264v-121h-431v720h431v-123h-264v-176h239v-116zM334 773h-116l-131 137h161z" />
    <glyph glyph-name="afii10023" unicode="&#x401;" horiz-adv-x="502" 
d="M452 305h-239v-184h264v-121h-431v720h431v-123h-264v-176h239v-116zM87 782v128h142v-128h-142zM286 782v128h143v-128h-143z" />
    <glyph glyph-name="afii10051" unicode="&#x402;" horiz-adv-x="703" 
d="M161 0v594h-158v126h486v-126h-161v-164q63 75 157 75q46 0 81 -14t58.5 -44.5t35.5 -79t12 -118.5v-98q0 -75 -40.5 -120.5t-119.5 -45.5q-23 0 -48.5 4t-42.5 11v109q14 -5 29.5 -7t24.5 -2q14 0 22 12.5t8 41.5v106q0 38 -4 62.5t-13 38.5t-23 19.5t-33 5.5
q-28 0 -47.5 -12.5t-32 -33.5t-18.5 -48t-6 -56v-236h-167z" />
    <glyph glyph-name="afii10052" unicode="&#x403;" horiz-adv-x="440" 
d="M437 594h-224v-594h-167v720h391v-126zM235 910h160l-131 -137h-116z" />
    <glyph glyph-name="afii10053" unicode="&#x404;" horiz-adv-x="641" 
d="M337 103q23 0 41.5 8t31.5 27t21.5 50t11.5 77h170q-17 -139 -88 -209.5t-203 -70.5q-65 0 -118.5 22.5t-91.5 69t-58.5 117.5t-20.5 168q0 184 74 278.5t217 94.5q54 0 101.5 -16.5t84.5 -48t62 -78t36 -107.5h-167q-14 74 -42.5 103.5t-70.5 29.5q-24 0 -44 -9.5
t-35 -32.5t-25 -60.5t-14 -94.5h173v-116h-173q5 -61 16 -100.5t27.5 -62t37.5 -31t46 -8.5z" />
    <glyph glyph-name="afii10054" unicode="&#x405;" horiz-adv-x="587" 
d="M308 -15q-68 0 -118 16t-85 45.5t-55 71.5t-26 94h155q3 -24 11.5 -44t23.5 -34.5t37 -23t53 -8.5q55 0 77.5 20t22.5 63q0 18 -6 34t-22 30.5t-42.5 28.5t-68.5 29q-63 22 -104.5 46t-67 52t-36 61.5t-10.5 75.5q0 43 14.5 79t45 61t78 39t113.5 14q112 0 177 -53
t77 -147h-153q-5 41 -30.5 63t-67.5 22q-48 0 -67 -18t-19 -55q0 -35 23.5 -58t87.5 -44q69 -23 116.5 -49t76 -55t41 -63t12.5 -74q0 -48 -15 -88t-47 -69.5t-82 -45.5t-120 -16z" />
    <glyph glyph-name="afii10055" unicode="&#x406;" horiz-adv-x="259" 
d="M213 720v-720h-167v720h167z" />
    <glyph glyph-name="afii10056" unicode="&#x407;" horiz-adv-x="259" 
d="M213 720v-720h-167v720h167zM-40 782v128h142v-128h-142zM159 782v128h143v-128h-143z" />
    <glyph glyph-name="afii10057" unicode="&#x408;" horiz-adv-x="494" 
d="M172 198q3 -53 21 -73.5t43 -20.5q26 0 41.5 23t15.5 89v504h159v-492q0 -56 -11.5 -101t-37 -76.5t-65.5 -48.5t-97 -17q-98 0 -156.5 53.5t-69.5 159.5h157z" />
    <glyph glyph-name="afii10058" unicode="&#x409;" horiz-adv-x="931" 
d="M560 479h60q151 0 217 -58t66 -181q0 -121 -66.5 -180.5t-208.5 -59.5h-235v613h-153l-31 -419q-4 -50 -14.5 -86.5t-34 -60.5t-61.5 -35.5t-96 -11.5v110q14 0 24.5 2.5t17 11t10.5 23.5t6 39l39 534h460v-241zM560 364v-249h70q45 0 73 31t28 94q0 66 -28 95t-82 29
h-61z" />
    <glyph glyph-name="afii10059" unicode="&#x40a;" horiz-adv-x="942" 
d="M571 720v-261h63q149 0 214.5 -53t65.5 -167q0 -55 -15.5 -99t-48.5 -75t-84.5 -48t-123.5 -17h-238v344h-191v-344h-167v720h167v-261h191v261h167zM571 344v-229h72q43 0 71 31.5t28 91.5q0 56 -27 81t-80 25h-64z" />
    <glyph glyph-name="afii10060" unicode="&#x40b;" horiz-adv-x="703" 
d="M161 0v594h-158v126h486v-126h-161v-164q32 36 72.5 55.5t85.5 19.5q47 0 82 -13t58 -43t34.5 -79t11.5 -121v-249h-167v266q0 36 -4 59t-13 36.5t-22.5 19t-32.5 5.5q-49 0 -77 -39t-28 -111v-236h-167z" />
    <glyph glyph-name="afii10061" unicode="&#x40c;" horiz-adv-x="645" 
d="M324 910h160l-131 -137h-116zM455 0l-186 305h-50v-305h-167v720h167v-299h42l182 299h170l-214 -337l248 -383h-192z" />
    <glyph glyph-name="uni040D" unicode="&#x40d;" horiz-adv-x="622" 
d="M576 720v-720h-166v431l-196 -367v-64h-168v720h168v-431l196 368v63h166zM384 773h-116l-131 137h161z" />
    <glyph glyph-name="afii10062" unicode="&#x40e;" horiz-adv-x="541" 
d="M370 179q-15 -48 -31 -84t-36 -60.5t-46.5 -37t-63.5 -12.5q-21 0 -44 4.5t-41 9.5v119q43 -12 64 -12q18 0 31 16.5t18 55.5h-57l-164 542h164l107 -419l108 419h162zM288 764q-30 0 -56 6.5t-45.5 20.5t-32 35.5t-15.5 53.5h120q2 -18 11.5 -25t17.5 -7t17 7t11 25h121
q-5 -32 -19 -54t-34 -35.5t-45 -20t-51 -6.5z" />
    <glyph glyph-name="afii10145" unicode="&#x40f;" horiz-adv-x="625" 
d="M392 0v-140h-161v140h-185v720h167v-598h201v598h165v-720h-187z" />
    <glyph glyph-name="afii10017" unicode="&#x410;" horiz-adv-x="601" 
d="M427 0l-37 165h-190l-37 -165h-163l206 720h186l209 -720h-174zM229 275h132l-66 307z" />
    <glyph glyph-name="afii10018" unicode="&#x411;" horiz-adv-x="584" 
d="M445 599h-232v-120h60q76 0 130 -14.5t88 -44.5t49.5 -75t15.5 -105q0 -121 -66.5 -180.5t-208.5 -59.5h-235v720h399v-121zM213 364v-249h70q46 0 73.5 31.5t27.5 93.5q0 66 -28 95t-82 29h-61z" />
    <glyph glyph-name="afii10019" unicode="&#x412;" horiz-adv-x="555" 
d="M246 720q141 0 201 -47t60 -144q0 -50 -31 -90.5t-86 -57.5q70 -15 107 -58.5t37 -112.5q0 -52 -14 -91.5t-45.5 -65.5t-82.5 -39.5t-124 -13.5h-222v720h200zM213 324v-214h58q48 0 70.5 23.5t22.5 81.5q0 57 -24 83t-64 26h-63zM213 610v-182h46q38 0 60 24t22 72
q0 41 -22.5 63.5t-60.5 22.5h-45z" />
    <glyph glyph-name="afii10020" unicode="&#x413;" horiz-adv-x="440" 
d="M437 594h-224v-594h-167v720h391v-126z" />
    <glyph glyph-name="afii10021" unicode="&#x414;" horiz-adv-x="604" 
d="M553 720v-605h66v-255h-146v140h-341v-140h-147v255h54q18 15 26.5 45t10.5 81l17 479h460zM223 247q-2 -49 -16 -81t-36 -51h231v490h-165z" />
    <glyph glyph-name="afii10022" unicode="&#x415;" horiz-adv-x="502" 
d="M452 305h-239v-184h264v-121h-431v720h431v-123h-264v-176h239v-116z" />
    <glyph glyph-name="afii10024" unicode="&#x416;" horiz-adv-x="879" 
d="M198 720l138 -299h19v299h169v-299h18l139 299h165l-166 -337l201 -383h-184l-144 305h-29v-305h-169v305h-30l-143 -305h-184l201 383l-166 337h165z" />
    <glyph glyph-name="afii10025" unicode="&#x417;" horiz-adv-x="534" 
d="M263 101q41 0 60 29t19 80q0 60 -22.5 87.5t-73.5 27.5h-68v107h79q35 0 56 27t21 73q0 38 -18 63t-54 25q-35 0 -52.5 -17t-24.5 -52h-159q6 41 24 75t48.5 58t73.5 37.5t99 13.5q45 0 86.5 -12t73 -36t50.5 -59t19 -81q0 -58 -34 -103t-97 -58q31 -5 57.5 -21t45.5 -40
t30 -54.5t11 -63.5q0 -49 -17.5 -90t-49.5 -70t-78 -45.5t-103 -16.5q-55 0 -99.5 15.5t-76.5 42t-50 62.5t-21 77h163q1 -18 5.5 -33t13.5 -25.5t24.5 -16.5t38.5 -6z" />
    <glyph glyph-name="afii10026" unicode="&#x418;" horiz-adv-x="622" 
d="M576 720v-720h-166v431l-196 -367v-64h-168v720h168v-431l196 368v63h166z" />
    <glyph glyph-name="afii10027" unicode="&#x419;" horiz-adv-x="622" 
d="M305 764q-30 0 -56 6.5t-45.5 20.5t-32 35.5t-15.5 53.5h120q2 -18 11.5 -25t17.5 -7t17 7t11 25h121q-5 -32 -19 -54t-34 -35.5t-45 -20t-51 -6.5zM576 720v-720h-166v431l-196 -367v-64h-168v720h168v-431l196 368v63h166z" />
    <glyph glyph-name="afii10028" unicode="&#x41a;" horiz-adv-x="639" 
d="M449 0l-186 305h-50v-305h-167v720h167v-299h42l182 299h170l-214 -337l248 -383h-192z" />
    <glyph glyph-name="afii10029" unicode="&#x41b;" horiz-adv-x="589" 
d="M543 720v-720h-150v605h-157l-30 -411q-4 -50 -14.5 -86.5t-33 -60.5t-60 -35.5t-95.5 -11.5v110q14 0 24.5 2.5t17 11t10.5 23.5t6 39l39 534h443z" />
    <glyph glyph-name="afii10030" unicode="&#x41c;" horiz-adv-x="775" 
d="M316 0l-132 473v-473h-149v720h198l152 -539l150 539h195v-720h-150v474l-132 -474h-132z" />
    <glyph glyph-name="afii10031" unicode="&#x41d;" horiz-adv-x="626" 
d="M580 720v-720h-165v304h-202v-304h-167v720h167v-296h202v296h165z" />
    <glyph glyph-name="afii10032" unicode="&#x41e;" horiz-adv-x="678" 
d="M339 104q28 0 53 13.5t43.5 44t29.5 79t11 119.5q0 69 -10.5 118t-29.5 80t-44 45t-53 14q-27 0 -52 -13t-43.5 -43t-30 -79.5t-11.5 -122.5q0 -69 11 -117.5t30 -79t44 -44.5t52 -14zM339 -15q-67 0 -123.5 23t-97 69.5t-63 116.5t-22.5 165q0 93 22 163.5t62.5 117.5
t96.5 71t125 24q67 0 123.5 -23t97 -69.5t63 -117t22.5 -165.5q0 -93 -23.5 -163.5t-64.5 -117.5t-97 -70.5t-121 -23.5z" />
    <glyph glyph-name="afii10033" unicode="&#x41f;" horiz-adv-x="626" 
d="M580 720v-720h-165v600h-202v-600h-167v720h534z" />
    <glyph glyph-name="afii10034" unicode="&#x420;" horiz-adv-x="584" 
d="M273 720q76 0 130 -14.5t88 -44.5t49.5 -75t15.5 -105q0 -120 -66.5 -180t-208.5 -60h-68v-241h-167v720h227zM213 605v-249h70q46 0 73.5 31.5t27.5 93.5q0 66 -29 95t-83 29h-59z" />
    <glyph glyph-name="afii10035" unicode="&#x421;" horiz-adv-x="641" 
d="M332 103q54 0 79.5 38.5t31.5 123.5h170q-17 -137 -85.5 -208.5t-191.5 -71.5q-146 0 -224.5 90.5t-78.5 286.5q0 186 75 279.5t221 93.5q110 0 184.5 -64t94.5 -186h-167q-11 68 -37 100.5t-72 32.5q-62 0 -93 -60t-31 -196q0 -71 8.5 -120.5t24.5 -80.5t39 -44.5
t52 -13.5z" />
    <glyph glyph-name="afii10036" unicode="&#x422;" horiz-adv-x="519" 
d="M516 594h-174v-594h-167v594h-172v126h513v-126z" />
    <glyph glyph-name="afii10037" unicode="&#x423;" horiz-adv-x="541" 
d="M370 179q-15 -48 -31 -84t-36 -60.5t-46.5 -37t-63.5 -12.5q-21 0 -44 4.5t-41 9.5v119q43 -12 64 -12q18 0 31 16.5t18 55.5h-57l-164 542h164l107 -419l108 419h162z" />
    <glyph glyph-name="afii10038" unicode="&#x424;" horiz-adv-x="838" 
d="M335 25q-71 2 -127 27t-95 69.5t-59.5 105.5t-20.5 136q0 78 21.5 139t61 103.5t95.5 65t125 24.5v40h167v-40q69 -2 124.5 -24.5t95 -65t61 -103.5t21.5 -139q0 -75 -21 -136t-60 -105.5t-95 -69.5t-126 -27v-40h-167v40h-1zM639 363q0 57 -11 97t-29.5 65.5t-43 37.5
t-52.5 14v-433q29 1 54 14.5t43 40.5t28.5 67.5t10.5 96.5zM199 363q0 -56 10.5 -96.5t28.5 -67.5t43 -40.5t54 -14.5v433q-28 -2 -52.5 -14t-43 -37.5t-29.5 -65.5t-11 -97z" />
    <glyph glyph-name="afii10039" unicode="&#x425;" horiz-adv-x="621" 
d="M400 382l218 -382h-196l-124 244l-119 -244h-176l218 375l-205 345h191l112 -215l110 215h167z" />
    <glyph glyph-name="afii10040" unicode="&#x426;" horiz-adv-x="639" 
d="M213 122h202v598h165v-598h74v-262h-161v140h-447v720h167v-598z" />
    <glyph glyph-name="afii10041" unicode="&#x427;" horiz-adv-x="578" 
d="M532 720v-720h-167v289q-29 -36 -67.5 -55t-81.5 -19q-48 0 -84.5 13.5t-61 43.5t-37 78.5t-12.5 117.5v252h167v-262q0 -38 4 -62t13 -38t23.5 -19t35.5 -5q42 0 71.5 38.5t29.5 111.5v236h167z" />
    <glyph glyph-name="afii10042" unicode="&#x428;" horiz-adv-x="832" 
d="M46 0v720h167v-598h120v598h167v-598h120v598h166v-720h-740z" />
    <glyph glyph-name="afii10043" unicode="&#x429;" horiz-adv-x="845" 
d="M46 0v720h167v-598h120v598h167v-598h120v598h166v-598h74v-262h-162v140h-652z" />
    <glyph glyph-name="afii10044" unicode="&#x42a;" horiz-adv-x="719" 
d="M10 720h338v-241h60q151 0 217 -58t66 -181q0 -121 -66.5 -180.5t-208.5 -59.5h-235v594h-171v126zM348 364v-249h70q45 0 73 31t28 94q0 66 -28 95t-82 29h-61z" />
    <glyph glyph-name="afii10045" unicode="&#x42b;" horiz-adv-x="806" 
d="M760 720v-720h-167v720h167zM213 479h60q151 0 217 -58t66 -181q0 -121 -66.5 -180.5t-208.5 -59.5h-235v720h167v-241zM213 364v-249h70q45 0 73 31t28 94q0 66 -28 95t-82 29h-61z" />
    <glyph glyph-name="afii10046" unicode="&#x42c;" horiz-adv-x="584" 
d="M213 479h60q151 0 217 -58t66 -181q0 -121 -66.5 -180.5t-208.5 -59.5h-235v720h167v-241zM213 364v-249h70q45 0 73 31t28 94q0 66 -28 95t-82 29h-61z" />
    <glyph glyph-name="afii10047" unicode="&#x42d;" horiz-adv-x="641" 
d="M258 421h172q-5 104 -34 150.5t-81 46.5q-47 0 -73.5 -32.5t-40.5 -100.5h-167q10 61 35.5 107.5t62.5 78t84.5 48t102.5 16.5q143 0 216 -94.5t73 -278.5q0 -185 -76.5 -281t-212.5 -96q-132 0 -203 70.5t-88 209.5h171q5 -85 34.5 -123.5t86.5 -38.5q26 0 46 11t34 35
t21.5 62.5t8.5 93.5h-172v116z" />
    <glyph glyph-name="afii10048" unicode="&#x42e;" horiz-adv-x="925" 
d="M595 -15q-58 0 -108.5 20.5t-89.5 60.5t-65 99.5t-33 138.5h-86v-304h-167v720h167v-296h88q9 78 35 136t65 97t88 58.5t105 19.5q62 0 116 -22.5t94.5 -69t64 -117t23.5 -166.5q0 -92 -22.5 -162t-62 -117t-94 -71.5t-118.5 -24.5zM597 104q27 0 50 14.5t40 45.5
t26.5 79.5t9.5 116.5q0 69 -10 118t-27.5 80t-41 45t-49.5 14q-28 0 -51.5 -14.5t-41 -45.5t-27 -80t-9.5 -118q0 -71 11 -119.5t29 -78.5t41.5 -43.5t49.5 -13.5z" />
    <glyph glyph-name="afii10049" unicode="&#x42f;" horiz-adv-x="597" 
d="M3 0l159 296q-54 24 -86 69.5t-32 124.5q0 51 17.5 93.5t51 72.5t83 47t113.5 17h242v-720h-168v263h-75l-129 -263h-176zM218 485q0 -49 24 -77.5t77 -28.5h64v225h-52q-60 0 -86.5 -29.5t-26.5 -89.5z" />
    <glyph glyph-name="afii10065" unicode="&#x430;" horiz-adv-x="509" 
d="M38 373q20 78 76 120t150 42q100 0 153.5 -49.5t53.5 -148.5v-337h-120l-19 54q-22 -29 -58 -49t-89 -20q-34 0 -63 11t-50 31.5t-32.5 50.5t-11.5 68q0 30 9 56.5t31 48.5t57 38t88 24l103 16v28q0 42 -14.5 59.5t-43.5 17.5q-51 0 -63 -61h-157zM232 92q44 0 64 29.5
t20 70.5v51l-63 -12q-42 -8 -57 -29t-15 -49q0 -61 51 -61z" />
    <glyph glyph-name="afii10066" unicode="&#x431;" horiz-adv-x="531" 
d="M28 294q0 85 15 148.5t40.5 107t59 68.5t70.5 35q60 16 90.5 30.5t30.5 36.5h165q0 -28 -14 -49t-39.5 -37.5t-60 -29.5t-75.5 -26q-58 -18 -89 -51t-41 -95q21 29 54.5 45.5t71.5 16.5q40 0 75.5 -16.5t62.5 -48.5t43 -79t16 -108q0 -128 -62 -192.5t-178 -64.5
t-175.5 73t-59.5 236zM186 242q0 -44 5.5 -73t15.5 -46.5t24.5 -25t33.5 -7.5q20 0 35 7t25 24.5t15 46.5t5 74q0 42 -5.5 70.5t-16 45t-24.5 23.5t-32 7q-38 0 -59.5 -32t-21.5 -114z" />
    <glyph glyph-name="afii10067" unicode="&#x432;" horiz-adv-x="513" 
d="M42 0v520h211q61 0 104 -9t69 -26.5t38 -41.5t12 -54q0 -39 -27.5 -72.5t-78.5 -43.5q54 -6 87.5 -40.5t33.5 -80.5q0 -35 -13 -63t-41.5 -48t-73.5 -30.5t-108 -10.5h-213zM196 217v-109h65q38 0 55.5 16t17.5 41q0 23 -13.5 37.5t-40.5 14.5h-84zM196 412v-92h77
q21 0 33.5 13.5t12.5 34.5q0 19 -13.5 31.5t-42.5 12.5h-67z" />
    <glyph glyph-name="afii10068" unicode="&#x433;" horiz-adv-x="372" 
d="M365 520v-107h-168v-413h-155v520h323z" />
    <glyph glyph-name="afii10069" unicode="&#x434;" horiz-adv-x="555" 
d="M38 108q6 6 11 13.5t8.5 18.5t6 27t3.5 40l11 313h421v-412h66v-248h-149v140h-277v-140h-149v248h48zM220 214q-2 -37 -15.5 -63t-35.5 -43h176v304h-119z" />
    <glyph glyph-name="afii10070" unicode="&#x435;" horiz-adv-x="526" 
d="M498 147q-13 -73 -67 -117.5t-151 -44.5q-122 0 -187 69.5t-65 205.5q0 137 61.5 206t177.5 69q56 0 100.5 -18t75 -56t46.5 -97.5t16 -141.5h-320q5 -72 28.5 -100t65.5 -28q55 0 64 53h155zM264 437q-35 0 -55.5 -27.5t-25.5 -96.5h163q-2 72 -23 98t-59 26z" />
    <glyph glyph-name="afii10072" unicode="&#x436;" horiz-adv-x="725" 
d="M176 520l90 -196h20v196h156v-196h16l91 196h159l-115 -231l132 -289h-173l-83 217h-27v-217h-156v217h-31l-82 -217h-173l132 289l-115 231h159z" />
    <glyph glyph-name="afii10073" unicode="&#x437;" horiz-adv-x="484" 
d="M257 535q49 0 85.5 -11t60 -30t35 -44t11.5 -53q0 -47 -25.5 -79t-75.5 -42q54 -7 84 -42t30 -86q0 -35 -13 -65t-39.5 -52t-67 -34t-94.5 -12q-52 0 -91.5 13.5t-67.5 38t-44.5 58.5t-22.5 75h161q5 -43 21.5 -61t44.5 -18q24 0 38.5 16.5t14.5 47.5q0 32 -18.5 47
t-61.5 15h-13v103h24q59 0 59 58q0 26 -13 38.5t-34 12.5q-27 0 -42 -17t-20 -49h-161q7 37 25.5 68.5t48 54.5t70 36t91.5 13z" />
    <glyph glyph-name="afii10074" unicode="&#x438;" horiz-adv-x="527" 
d="M42 0v520h156v-283l133 249v34h154v-520h-154v281l-133 -250v-31h-156z" />
    <glyph glyph-name="afii10075" unicode="&#x439;" horiz-adv-x="527" 
d="M261 594q-30 0 -56 6.5t-45.5 20.5t-32 35.5t-15.5 53.5h120q2 -18 11.5 -25t17.5 -7t17 7t11 25h121q-5 -32 -19 -54t-34 -35.5t-45 -20t-51 -6.5zM42 0v520h156v-283l133 249v34h154v-520h-154v281l-133 -250v-31h-156z" />
    <glyph glyph-name="afii10076" unicode="&#x43a;" horiz-adv-x="526" 
d="M42 0v520h155v-196h25l132 196h160l-159 -239l181 -281h-183l-130 217h-26v-217h-155z" />
    <glyph glyph-name="afii10077" unicode="&#x43b;" horiz-adv-x="549" 
d="M507 520v-520h-154v413h-119l-14 -219q-3 -51 -16.5 -87.5t-39 -60.5t-63.5 -35t-92 -11v112q31 0 45.5 15.5t17.5 60.5l24 332h411z" />
    <glyph glyph-name="afii10078" unicode="&#x43c;" horiz-adv-x="620" 
d="M248 30l-66 293v-323h-140v520h190l76 -320l74 320h196v-520h-152v323l-66 -293h-112z" />
    <glyph glyph-name="afii10079" unicode="&#x43d;" horiz-adv-x="527" 
d="M197 520v-187h133v187h155v-520h-155v226h-133v-226h-155v520h155z" />
    <glyph glyph-name="afii10080" unicode="&#x43e;" horiz-adv-x="542" 
d="M28 262q0 137 59 205t184 68q121 0 182 -67t61 -206q0 -136 -59 -206.5t-184 -70.5q-243 0 -243 277zM188 262q0 -51 5 -84t15.5 -52.5t26.5 -27.5t37 -8q22 0 38 7t26 26t14.5 52.5t4.5 86.5q0 51 -5 83.5t-15.5 51.5t-26.5 26t-37 7q-22 0 -37.5 -7t-25.5 -26
t-15 -51.5t-5 -83.5z" />
    <glyph glyph-name="afii10081" unicode="&#x43f;" horiz-adv-x="527" 
d="M485 520v-520h-155v413h-133v-413h-155v520h443z" />
    <glyph glyph-name="afii10082" unicode="&#x440;" horiz-adv-x="555" 
d="M187 464q27 35 64.5 53t77.5 18q92 0 145 -63.5t53 -193.5q0 -71 -15 -126t-42 -92t-65 -56t-84 -19q-39 0 -71.5 17t-52.5 43v-225h-155v700h115zM369 264q0 45 -6 75t-17 48.5t-27 26t-37 7.5q-42 0 -67 -35t-25 -120q0 -48 6 -80t18 -51.5t29 -27.5t39 -8q41 0 64 37
t23 128z" />
    <glyph glyph-name="afii10083" unicode="&#x441;" horiz-adv-x="519" 
d="M497 173q-9 -41 -25.5 -75t-44 -59.5t-67 -39.5t-93.5 -14q-123 0 -181 67.5t-58 204.5q0 134 60 206t176 72q49 0 88.5 -12.5t69.5 -36t49 -55.5t26 -71h-161q-5 33 -24 51t-44 18q-19 0 -34 -8t-25 -28.5t-15.5 -54t-5.5 -84.5q0 -87 21 -124.5t59 -37.5q31 0 47 19.5
t21 61.5h161z" />
    <glyph glyph-name="afii10084" unicode="&#x442;" horiz-adv-x="424" 
d="M7 520h410v-107h-128v-413h-155v413h-127v107z" />
    <glyph glyph-name="afii10085" unicode="&#x443;" horiz-adv-x="512" 
d="M509 520l-163 -531q-16 -51 -32.5 -86t-37 -56.5t-46 -31.5t-59.5 -10q-20 0 -41 3t-39 8v109q23 -6 37.5 -7.5t22.5 -1.5q24 0 36.5 19.5t17.5 64.5h-43l-159 520h164l88 -399l99 399h155z" />
    <glyph glyph-name="afii10086" unicode="&#x444;" horiz-adv-x="827" 
d="M596 -15q-58 0 -105 50v-215h-155v215q-48 -50 -104 -50q-44 0 -81 18t-64.5 54t-43 89t-15.5 122q0 132 53.5 199.5t142.5 67.5q67 0 112 -50v235h155v-235q22 24 52 37t63 13q43 0 78.5 -16.5t61 -50t39.5 -83.5t14 -117q0 -69 -15.5 -122t-42.5 -88.5t-64.5 -54
t-80.5 -18.5zM645 266q0 45 -5.5 74.5t-15.5 47.5t-25.5 25.5t-34.5 7.5q-35 0 -59 -35.5t-24 -123.5q0 -47 5.5 -78.5t15.5 -50.5t24 -26.5t32 -7.5q19 0 35 8.5t27.5 28.5t18 51.5t6.5 78.5zM183 266q0 -47 6.5 -78.5t18 -51.5t27.5 -28.5t35 -8.5q18 0 32 7.5t24 26.5
t15.5 50.5t5.5 78.5q0 44 -6.5 74.5t-18 49t-26.5 27t-32 8.5q-20 0 -35 -7.5t-25 -25.5t-15.5 -47.5t-5.5 -74.5z" />
    <glyph glyph-name="afii10087" unicode="&#x445;" horiz-adv-x="510" 
d="M338 276l169 -276h-180l-80 161l-83 -161h-161l167 274l-159 246h176l70 -136l69 136h159z" />
    <glyph glyph-name="afii10088" unicode="&#x446;" horiz-adv-x="542" 
d="M485 108h67v-248h-149v140h-361v520h155v-413h133v413h155v-412z" />
    <glyph glyph-name="afii10089" unicode="&#x447;" horiz-adv-x="518" 
d="M187 520v-218q0 -45 16 -63t48 -18q28 0 49 28t21 85v186h155v-520h-155v166q-25 -29 -54.5 -42t-68.5 -13q-166 0 -166 194v215h155z" />
    <glyph glyph-name="afii10090" unicode="&#x448;" horiz-adv-x="696" 
d="M42 0v520h155v-412h73v412h155v-412h74v412h155v-520h-612z" />
    <glyph glyph-name="afii10091" unicode="&#x449;" horiz-adv-x="711" 
d="M654 108h67v-248h-149v140h-530v520h155v-412h73v412h155v-412h74v412h155v-412z" />
    <glyph glyph-name="afii10092" unicode="&#x44a;" horiz-adv-x="603" 
d="M299 520v-145h93q88 0 135.5 -49.5t47.5 -136.5q0 -86 -53 -137.5t-153 -51.5h-225v413h-135v107h290zM299 277v-177h38q38 0 59 24t21 65q0 88 -77 88h-41z" />
    <glyph glyph-name="afii10093" unicode="&#x44b;" horiz-adv-x="717" 
d="M520 0v520h155v-520h-155zM197 520v-145h93q88 0 135.5 -49.5t47.5 -136.5q0 -86 -53 -137.5t-153 -51.5h-225v520h155zM197 277v-177h38q38 0 59 24t21 65q0 88 -77 88h-41z" />
    <glyph glyph-name="afii10094" unicode="&#x44c;" horiz-adv-x="501" 
d="M197 520v-145h93q88 0 135.5 -49.5t47.5 -136.5q0 -86 -53 -137.5t-153 -51.5h-225v520h155zM197 277v-177h38q38 0 59 24t21 65q0 88 -77 88h-41z" />
    <glyph glyph-name="afii10095" unicode="&#x44d;" horiz-adv-x="519" 
d="M185 173q10 -48 28 -65t47 -17q32 0 50.5 28.5t19.5 102.5h-117v91h114q-3 65 -20 90.5t-51 25.5q-33 0 -51 -19.5t-23 -49.5h-160q7 36 25 68t47.5 56t71 37.5t94.5 13.5q113 0 172 -72.5t59 -203.5q0 -130 -57.5 -202t-174.5 -72q-109 0 -165 50t-72 138h163z" />
    <glyph glyph-name="afii10096" unicode="&#x44e;" horiz-adv-x="749" 
d="M197 520v-187h62q15 100 71 151t157 51q117 0 175.5 -69t58.5 -204q0 -137 -58 -207t-176 -70q-104 0 -163.5 61t-69.5 180h-57v-226h-155v520h155zM412 262q0 -94 17.5 -133t58.5 -39q42 0 58.5 38.5t16.5 133.5q0 48 -4 80t-13 51.5t-23.5 28t-35.5 8.5t-35.5 -8.5
t-23 -28.5t-12.5 -52t-4 -79z" />
    <glyph glyph-name="afii10097" unicode="&#x44f;" horiz-adv-x="529" 
d="M10 0l127 193q-49 20 -72 57.5t-23 89.5q0 42 12 75.5t39.5 56.5t71 35.5t106.5 12.5h216v-520h-156v175h-48l-104 -175h-169zM331 274v147h-41q-47 0 -67.5 -19.5t-20.5 -54.5t20 -54t70 -19h39z" />
    <glyph glyph-name="uni0450" unicode="&#x450;" horiz-adv-x="526" 
d="M498 147q-13 -73 -67 -117.5t-151 -44.5q-122 0 -187 69.5t-65 205.5q0 137 61.5 206t177.5 69q56 0 100.5 -18t75 -56t46.5 -97.5t16 -141.5h-320q5 -72 28.5 -100t65.5 -28q55 0 64 53h155zM264 437q-35 0 -55.5 -27.5t-25.5 -96.5h163q-2 72 -23 98t-59 26zM326 583
h-116l-131 137h161z" />
    <glyph glyph-name="afii10071" unicode="&#x451;" horiz-adv-x="526" 
d="M498 147q-13 -73 -67 -117.5t-151 -44.5q-122 0 -187 69.5t-65 205.5q0 137 61.5 206t177.5 69q56 0 100.5 -18t75 -56t46.5 -97.5t16 -141.5h-320q5 -72 28.5 -100t65.5 -28q55 0 64 53h155zM264 437q-35 0 -55.5 -27.5t-25.5 -96.5h163q-2 72 -23 98t-59 26zM92 592
v128h142v-128h-142zM291 592v128h143v-128h-143z" />
    <glyph glyph-name="afii10099" unicode="&#x452;" horiz-adv-x="529" 
d="M42 570h-29v106h29v44h155v-44h113v-106h-113v-97q25 32 55.5 47t72.5 15q79 0 122.5 -49.5t43.5 -149.5v-365q0 -75 -40.5 -120.5t-119.5 -45.5q-23 0 -48.5 4t-42.5 11v109q14 -5 29.5 -7t24.5 -2q21 0 31.5 12.5t10.5 41.5v355q0 56 -15 76t-44 20q-35 0 -57.5 -26.5
t-22.5 -85.5v-313h-155v570z" />
    <glyph glyph-name="afii10100" unicode="&#x453;" horiz-adv-x="372" 
d="M217 735h160l-131 -137h-116zM365 520v-107h-168v-413h-155v520h323z" />
    <glyph glyph-name="afii10101" unicode="&#x454;" horiz-adv-x="519" 
d="M497 173q-7 -41 -24 -75.5t-44.5 -59.5t-66.5 -39t-89 -14q-124 0 -184.5 66.5t-60.5 203.5q0 133 61 206.5t173 73.5q100 0 160.5 -48.5t74.5 -126.5h-161q-5 32 -21 50.5t-48 18.5q-36 0 -53 -26.5t-22 -89.5h114v-91h-117q2 -69 21.5 -100t57.5 -31q30 0 45.5 19.5
t22.5 62.5h161z" />
    <glyph glyph-name="afii10102" unicode="&#x455;" horiz-adv-x="490" 
d="M247 91q32 0 45 12t13 34q0 10 -3.5 19t-14 17.5t-29.5 16.5t-50 17q-48 14 -80.5 30t-52 36.5t-28 46t-8.5 58.5q0 35 11.5 64t35.5 49.5t62 32t92 11.5q94 0 151.5 -42t69.5 -117h-155q-8 53 -65 53q-26 0 -37 -10.5t-11 -28.5q0 -11 3 -19.5t12.5 -16t27 -15
t46.5 -16.5q54 -18 89 -36t55 -38.5t28 -45t8 -54.5q0 -77 -51.5 -120.5t-166.5 -43.5q-100 0 -156.5 45t-67.5 117h157q8 -56 70 -56z" />
    <glyph glyph-name="afii10103" unicode="&#x456;" horiz-adv-x="235" 
 />
    <glyph glyph-name="afii10104" unicode="&#x457;" horiz-adv-x="239" 
d="M-26 592v128h121v-128h-121zM142 592v128h123v-128h-123zM42 0v520h155v-520h-155z" />
    <glyph glyph-name="afii10105" unicode="&#x458;" horiz-adv-x="245" 
d="M-48 -71q14 -5 29.5 -7t24.5 -2q21 0 31.5 12.5t10.5 41.5v546h155v-549q0 -75 -40.5 -120.5t-119.5 -45.5q-23 0 -48.5 4t-42.5 11v109zM39 587v133h169v-133h-169z" />
    <glyph glyph-name="afii10106" unicode="&#x459;" horiz-adv-x="811" 
d="M507 520v-145h93q88 0 135.5 -49.5t47.5 -136.5q0 -86 -53 -137.5t-153 -51.5h-225v413h-118l-14 -219q-7 -102 -57.5 -148t-153.5 -46v112q33 0 46.5 15.5t16.5 60.5l24 332h411zM507 277v-177h38q38 0 59 24t21 65q0 88 -77 88h-41z" />
    <glyph glyph-name="afii10107" unicode="&#x45a;" horiz-adv-x="784" 
d="M480 520v-145h93q88 0 135.5 -49.5t47.5 -136.5q0 -86 -53 -137.5t-153 -51.5h-225v226h-128v-226h-155v520h155v-187h128v187h155zM480 277v-177h38q38 0 59 24t21 65q0 88 -77 88h-41z" />
    <glyph glyph-name="afii10108" unicode="&#x45b;" horiz-adv-x="529" 
d="M42 570h-29v106h29v44h155v-44h113v-106h-113v-97q25 32 55.5 47t72.5 15q79 0 122.5 -49.5t43.5 -149.5v-336h-155v329q0 56 -15 76t-44 20q-35 0 -57.5 -26.5t-22.5 -85.5v-313h-155v570z" />
    <glyph glyph-name="afii10109" unicode="&#x45c;" horiz-adv-x="526" 
d="M276 735h160l-131 -137h-116zM42 0v520h155v-196h25l132 196h160l-159 -239l181 -281h-183l-130 217h-26v-217h-155z" />
    <glyph glyph-name="uni045D" unicode="&#x45d;" horiz-adv-x="527" 
d="M42 0v520h156v-283l133 249v34h154v-520h-154v281l-133 -250v-31h-156zM337 583h-116l-131 137h161z" />
    <glyph glyph-name="afii10110" unicode="&#x45e;" horiz-adv-x="512" 
d="M509 520l-163 -531q-16 -51 -32.5 -86t-37 -56.5t-46 -31.5t-59.5 -10q-20 0 -41 3t-39 8v109q23 -6 37.5 -7.5t22.5 -1.5q24 0 36.5 19.5t17.5 64.5h-43l-159 520h164l88 -399l99 399h155zM259 594q-30 0 -56 6.5t-45.5 20.5t-32 35.5t-15.5 53.5h120q2 -18 11.5 -25
t17.5 -7t17 7t11 25h121q-5 -32 -19 -54t-34 -35.5t-45 -20t-51 -6.5z" />
    <glyph glyph-name="afii10193" unicode="&#x45f;" horiz-adv-x="527" 
d="M338 0v-140h-149v140h-147v520h155v-412h133v412h155v-520h-147z" />
    <glyph glyph-name="afii10146" unicode="&#x462;" horiz-adv-x="699" 
d="M489 594h-161v-115h60q151 0 217 -58t66 -181q0 -121 -66.5 -180.5t-208.5 -59.5h-235v594h-158v126h486v-126zM328 364v-249h70q45 0 73 31t28 94q0 66 -28 95t-82 29h-61z" />
    <glyph glyph-name="afii10194" unicode="&#x463;" horiz-adv-x="535" 
d="M231 474v-99h93q88 0 135.5 -49.5t47.5 -136.5q0 -86 -53 -137.5t-153 -51.5h-225v474h-69v108h69v88h155v-88h90v-108h-90zM231 277v-177h38q38 0 59 24t21 65q0 88 -77 88h-41z" />
    <glyph glyph-name="afii10147" unicode="&#x472;" horiz-adv-x="678" 
d="M339 -15q-67 0 -123.5 23t-97 69.5t-63 116.5t-22.5 165q0 93 22 163.5t62.5 117.5t96.5 71t125 24q67 0 123.5 -23t97 -69.5t63 -117t22.5 -165.5q0 -93 -23.5 -163.5t-64.5 -117.5t-97 -70.5t-121 -23.5zM339 104q25 0 47.5 10.5t40.5 34.5t30 62t16 93h-269
q4 -54 16.5 -92t30.5 -62t41 -35t47 -11zM339 617q-24 0 -46 -10t-40 -32.5t-30.5 -59.5t-17.5 -91h268q-10 103 -47 148t-87 45z" />
    <glyph glyph-name="afii10195" unicode="&#x473;" horiz-adv-x="542" 
d="M28 262q0 137 59 205t184 68q121 0 182 -67t61 -206q0 -136 -59 -206.5t-184 -70.5q-243 0 -243 277zM272 90q20 0 34.5 5.5t24.5 20t15.5 40t7.5 65.5h-165q2 -38 8 -63.5t16.5 -40.5t25 -21t33.5 -6zM271 430q-19 0 -33 -5t-24.5 -18.5t-16.5 -36.5t-8 -58h164
q-2 35 -8.5 58t-16.5 36.5t-24.5 18.5t-32.5 5z" />
    <glyph glyph-name="afii10148" unicode="&#x474;" horiz-adv-x="573" 
d="M573 720l-188 -720h-198l-187 720h171l120 -582l122 582h160z" />
    <glyph glyph-name="afii10196" unicode="&#x475;" horiz-adv-x="506" 
d="M503 520l-154 -520h-193l-153 520h167l88 -398l85 398h160z" />
    <glyph glyph-name="afii10050" unicode="&#x490;" horiz-adv-x="440" 
d="M437 856v-262h-224v-594h-167v720h230v136h161z" />
    <glyph glyph-name="afii10098" unicode="&#x491;" horiz-adv-x="372" 
d="M216 520v145h149v-252h-168v-413h-155v520h174z" />
    <glyph glyph-name="uni0492" unicode="&#x492;" horiz-adv-x="477" 
d="M474 594h-224v-173h118v-116h-118v-305h-167v305h-78v116h78v299h391v-126z" />
    <glyph glyph-name="uni0493" unicode="&#x493;" horiz-adv-x="372" 
d="M365 520v-107h-168v-93h84v-107h-84v-213h-155v213h-42v107h42v200h323z" />
    <glyph glyph-name="uni0496" unicode="&#x496;" horiz-adv-x="883" 
d="M198 720l138 -299h19v299h169v-299h18l139 299h165l-166 -337l137 -261h61v-262h-161v140h-20l-144 305h-29v-305h-169v305h-30l-143 -305h-184l201 383l-166 337h165z" />
    <glyph glyph-name="uni0497" unicode="&#x497;" horiz-adv-x="728" 
d="M176 520l90 -196h20v196h156v-196h16l91 196h159l-115 -231l82 -181h63v-248h-149v140h-37l-83 217h-27v-217h-156v217h-31l-82 -217h-173l132 289l-115 231h159z" />
    <glyph glyph-name="uni0498" unicode="&#x498;" horiz-adv-x="534" 
d="M392 -139q0 -51 -34 -85t-95 -34q-129 0 -141 121h95q1 -41 42 -41q36 0 36 36q0 20 -15.5 31.5t-51.5 11.5l7 86q-49 4 -88 20.5t-67 42.5t-44 59.5t-18 72.5h163q1 -18 5.5 -33t13.5 -25.5t24.5 -16.5t38.5 -6q41 0 60 29t19 80q0 60 -22.5 87.5t-73.5 27.5h-68v107h79
q35 0 56 27t21 73q0 38 -18 63t-54 25q-35 0 -52.5 -17t-24.5 -52h-159q6 41 24 75t48.5 58t73.5 37.5t99 13.5q45 0 86.5 -12t73 -36t50.5 -59t19 -81q0 -58 -34 -103t-97 -58q31 -5 57.5 -21t45.5 -40t30 -54.5t11 -63.5q0 -43 -13.5 -80t-38 -65t-60.5 -47t-81 -26v-29
q36 -9 54 -34.5t18 -64.5z" />
    <glyph glyph-name="uni0499" unicode="&#x499;" horiz-adv-x="484" 
d="M378 -139q0 -51 -34 -85t-95 -34q-129 0 -141 121h95q1 -41 42 -41q36 0 36 36q0 20 -15.5 31.5t-51.5 11.5l7 85q-91 8 -139.5 57.5t-59.5 126.5h161q5 -43 21.5 -61t44.5 -18q24 0 38.5 16.5t14.5 47.5q0 32 -18.5 47t-61.5 15h-13v103h24q59 0 59 58q0 26 -13 38.5
t-34 12.5q-27 0 -42 -17t-20 -49h-161q7 37 25.5 68.5t48 54.5t70 36t91.5 13q49 0 85.5 -11t60 -30t35 -44t11.5 -53q0 -47 -25.5 -79t-75.5 -42q54 -7 84 -42t30 -86q0 -61 -38.5 -104t-117.5 -55v-29q36 -9 54 -34.5t18 -64.5z" />
    <glyph glyph-name="uni049A" unicode="&#x49a;" horiz-adv-x="650" 
d="M484 0h-35l-186 305h-50v-305h-167v720h167v-299h42l182 299h170l-214 -337l169 -261h83v-262h-161v140z" />
    <glyph glyph-name="uni049B" unicode="&#x49b;" horiz-adv-x="526" 
d="M42 0v520h155v-196h25l132 196h160l-159 -239l111 -173h83v-248h-149v140h-47l-130 217h-26v-217h-155z" />
    <glyph glyph-name="uni049C" unicode="&#x49c;" horiz-adv-x="690" 
d="M213 720v-299h23v170h69v-170h1l182 299h170l-214 -337l248 -383h-192l-186 305h-9v-212h-69v212h-23v-305h-167v720h167z" />
    <glyph glyph-name="uni049D" unicode="&#x49d;" horiz-adv-x="586" 
d="M413 0l-130 217h-5v-164h-64v164h-17v-217h-155v520h155v-196h17v77h64v-77h4l132 196h160l-159 -239l181 -281h-183z" />
    <glyph glyph-name="uni04A0" unicode="&#x4a0;" horiz-adv-x="780" 
d="M590 0l-186 305h-50v-305h-167v594h-177v126h344v-299h42l182 299h170l-214 -337l248 -383h-192z" />
    <glyph glyph-name="uni04A1" unicode="&#x4a1;" horiz-adv-x="630" 
d="M146 0v413h-137v107h292v-196h25l132 196h160l-159 -239l181 -281h-183l-130 217h-26v-217h-155z" />
    <glyph glyph-name="uni04A2" unicode="&#x4a2;" horiz-adv-x="639" 
d="M580 720v-598h74v-262h-161v140h-78v304h-202v-304h-167v720h167v-296h202v296h165z" />
    <glyph glyph-name="uni04A3" unicode="&#x4a3;" horiz-adv-x="542" 
d="M197 520v-187h133v187h155v-412h67v-248h-149v140h-73v226h-133v-226h-155v520h155z" />
    <glyph glyph-name="uni04AA" unicode="&#x4aa;" horiz-adv-x="641" 
d="M530 -137q-11 -51 -44.5 -80.5t-92.5 -29.5q-63 0 -95.5 29t-32.5 85q0 34 16.5 64t47.5 54q-71 1 -126.5 24t-93 69t-57 116.5t-19.5 167.5q0 186 75 279.5t221 93.5q110 0 184.5 -64t94.5 -186h-167q-11 68 -37 100.5t-72 32.5q-62 0 -93 -60t-31 -196
q0 -71 8.5 -120.5t24.5 -80.5t39 -44.5t52 -13.5q54 0 79.5 38.5t31.5 123.5h170q-11 -89 -44 -151t-89 -94q-60 -33 -86 -65.5t-26 -67.5q0 -24 9 -35t24 -11q21 0 27 22h102z" />
    <glyph glyph-name="uni04AB" unicode="&#x4ab;" horiz-adv-x="519" 
d="M450 -137q-11 -51 -44.5 -80.5t-92.5 -29.5q-63 0 -95.5 29t-32.5 85q0 34 16.5 64t47.5 54q-114 5 -167.5 72.5t-53.5 199.5q0 134 60 206t176 72q49 0 88.5 -12.5t69.5 -36t49 -55.5t26 -71h-161q-5 33 -24 51t-44 18q-19 0 -34 -8t-25 -28.5t-15.5 -54t-5.5 -84.5
q0 -87 21 -124.5t59 -37.5q31 0 47 19.5t21 61.5h161q-13 -59 -42.5 -103.5t-83.5 -66.5q-45 -29 -64 -57t-19 -59q0 -24 9 -35t24 -11q21 0 27 22h102z" />
    <glyph glyph-name="uni04AE" unicode="&#x4ae;" horiz-adv-x="588" 
d="M216 0v287l-216 433h178l121 -288l132 288h157l-216 -433v-287h-156z" />
    <glyph glyph-name="uni04AF" unicode="&#x4af;" horiz-adv-x="506" 
d="M176 -180v180l-173 520h168l88 -383l84 383h160l-172 -520v-180h-155z" />
    <glyph glyph-name="uni04B0" unicode="&#x4b0;" horiz-adv-x="588" 
d="M216 0v256h-101v116h56l-171 348h178l121 -289l132 289h157l-171 -348h64v-116h-109v-256h-156z" />
    <glyph glyph-name="uni04B1" unicode="&#x4b1;" horiz-adv-x="506" 
d="M503 520l-133 -412h42v-108h-81v-180h-155v180h-74v108h34l-133 412h168l88 -385l84 385h160z" />
    <glyph glyph-name="uni04B2" unicode="&#x4b2;" horiz-adv-x="628" 
d="M462 0h-40l-124 244l-119 -244h-176l218 375l-205 345h191l112 -215l110 215h167l-196 -338l148 -260h75v-262h-161v140z" />
    <glyph glyph-name="uni04B3" unicode="&#x4b3;" horiz-adv-x="524" 
d="M338 276l103 -168h93v-248h-149v140h-58l-80 161l-83 -161h-161l167 274l-159 246h176l70 -136l69 136h159z" />
    <glyph glyph-name="uni04B8" unicode="&#x4b8;" horiz-adv-x="578" 
d="M532 720v-720h-167v289q-27 -31 -56 -49v-147h-70v123q-6 -1 -12 -1h-11q-48 0 -84.5 13.5t-61 43.5t-37 78.5t-12.5 117.5v252h167v-262q0 -64 11.5 -90.5t39.5 -31.5v255h70v-244q25 16 40.5 50.5t15.5 86.5v236h167z" />
    <glyph glyph-name="uni04B9" unicode="&#x4b9;" horiz-adv-x="518" 
d="M187 520v-218q0 -63 33 -76v175h64v-169q16 12 26.5 37.5t10.5 64.5v186h155v-520h-155v166q-19 -22 -37 -33v-80h-64v59q-5 -1 -11 -1h-11q-166 0 -166 194v215h155z" />
    <glyph glyph-name="uni04BA" unicode="&#x4ba;" horiz-adv-x="588" 
d="M46 0v720h167v-290q32 36 70 55.5t84 19.5q47 0 82.5 -13.5t59.5 -44t36 -79.5t12 -119v-249h-167v262q0 37 -4.5 61t-13.5 38t-23 19.5t-32 5.5q-48 0 -76 -37t-28 -113v-236h-167z" />
    <glyph glyph-name="uni04BB" unicode="&#x4bb;" horiz-adv-x="529" 
d="M42 720h155v-305q20 28 49 44t77 16q85 0 126.5 -51t41.5 -148v-276h-155v270q0 51 -13 73t-45 22q-41 0 -61 -31t-20 -83v-251h-155v720z" />
    <glyph glyph-name="uni04C0" unicode="&#x4c0;" horiz-adv-x="259" 
d="M213 720v-720h-167v720h167z" />
    <glyph glyph-name="uni04CB" unicode="&#x4cb;" horiz-adv-x="591" 
d="M445 0h-80v289q-29 -36 -67.5 -55t-81.5 -19q-48 0 -84.5 13.5t-61 43.5t-37 78.5t-12.5 117.5v252h167v-262q0 -38 4 -62t13 -38t23.5 -19t35.5 -5q42 0 71.5 38.5t29.5 111.5v236h167v-598h74v-262h-161v140z" />
    <glyph glyph-name="uni04CC" unicode="&#x4cc;" horiz-adv-x="533" 
d="M187 520v-218q0 -45 16 -63t48 -18q28 0 49 28t21 85v186h155v-412h67v-248h-149v140h-73v166q-25 -29 -54.5 -42t-68.5 -13q-166 0 -166 194v215h155z" />
    <glyph glyph-name="uni04CF" unicode="&#x4cf;" horiz-adv-x="247" 
d="M201 0h-155v720h155v-720z" />
    <glyph glyph-name="uni04D8" unicode="&#x4d8;" horiz-adv-x="636" 
d="M328 -15q-70 0 -123.5 22.5t-91 71t-58.5 125t-27 185.5h405q-1 121 -31.5 175t-82.5 54q-50 0 -76.5 -28.5t-34.5 -76.5h-167q29 109 98 165.5t183 56.5q131 0 206 -93t75 -274q0 -189 -72 -286t-203 -97zM324 103q43 0 71 39t33 131h-213q3 -51 11.5 -83.5t22.5 -52
t32.5 -27t42.5 -7.5z" />
    <glyph glyph-name="afii10846" unicode="&#x4d9;" horiz-adv-x="533" 
d="M33 369q7 36 24 66.5t46 52.5t70.5 34.5t98.5 12.5q54 0 97.5 -19t73.5 -55t46 -87t16 -114q0 -135 -59.5 -205t-176.5 -70q-125 0 -183 76.5t-58 236.5h319q-2 68 -21 98t-61 30q-36 0 -53 -15.5t-23 -41.5h-156zM269 83q38 0 56.5 28t23.5 96h-163q2 -66 20.5 -95
t62.5 -29z" />
    <glyph glyph-name="uni04E2" unicode="&#x4e2;" horiz-adv-x="622" 
d="M195 798v112h232v-112h-232zM576 720v-720h-166v431l-196 -367v-64h-168v720h168v-431l196 368v63h166z" />
    <glyph glyph-name="uni04E3" unicode="&#x4e3;" horiz-adv-x="527" 
d="M149 608v112h232v-112h-232zM42 0v520h156v-283l133 249v34h154v-520h-154v281l-133 -250v-31h-156z" />
    <glyph glyph-name="uni04E8" unicode="&#x4e8;" horiz-adv-x="678" 
d="M339 -15q-67 0 -123.5 23t-97 69.5t-63 116.5t-22.5 165q0 93 22 163.5t62.5 117.5t96.5 71t125 24q67 0 123.5 -23t97 -69.5t63 -117t22.5 -165.5q0 -93 -23.5 -163.5t-64.5 -117.5t-97 -70.5t-121 -23.5zM339 104q25 0 47.5 10.5t40.5 34.5t30 62t16 93h-269
q4 -54 16.5 -92t30.5 -62t41 -35t47 -11zM339 617q-24 0 -46 -10t-40 -32.5t-30.5 -59.5t-17.5 -91h268q-10 103 -47 148t-87 45z" />
    <glyph glyph-name="uni04E9" unicode="&#x4e9;" horiz-adv-x="542" 
d="M28 262q0 137 59 205t184 68q121 0 182 -67t61 -206q0 -136 -59 -206.5t-184 -70.5q-243 0 -243 277zM272 90q20 0 34.5 5.5t24.5 20t15.5 40t7.5 65.5h-165q2 -38 8 -63.5t16.5 -40.5t25 -21t33.5 -6zM271 430q-19 0 -33 -5t-24.5 -18.5t-16.5 -36.5t-8 -58h164
q-2 35 -8.5 58t-16.5 36.5t-24.5 18.5t-32.5 5z" />
    <glyph glyph-name="uni04EE" unicode="&#x4ee;" horiz-adv-x="541" 
d="M370 179q-15 -48 -31 -84t-36 -60.5t-46.5 -37t-63.5 -12.5q-21 0 -44 4.5t-41 9.5v119q43 -12 64 -12q18 0 31 16.5t18 55.5h-57l-164 542h164l107 -419l108 419h162zM161 798v112h232v-112h-232z" />
    <glyph glyph-name="uni04EF" unicode="&#x4ef;" horiz-adv-x="512" 
d="M509 520l-163 -531q-16 -51 -32.5 -86t-37 -56.5t-46 -31.5t-59.5 -10q-20 0 -41 3t-39 8v109q23 -6 37.5 -7.5t22.5 -1.5q24 0 36.5 19.5t17.5 64.5h-43l-159 520h164l88 -399l99 399h155zM143 608v112h232v-112h-232z" />
    <glyph glyph-name="Wgrave" unicode="&#x1e80;" horiz-adv-x="864" 
d="M861 720l-128 -720h-198l-105 540l-97 -540h-187l-143 720h168l84 -529l89 529h182l104 -532l72 532h159zM505 773h-116l-131 137h161z" />
    <glyph glyph-name="wgrave" unicode="&#x1e81;" horiz-adv-x="757" 
d="M750 520l-120 -520h-194l-55 375l-70 -375h-188l-116 520h160l58 -386l69 386h186l56 -388l69 388h145zM452 583h-116l-131 137h161z" />
    <glyph glyph-name="Wacute" unicode="&#x1e82;" horiz-adv-x="864" 
d="M861 720l-128 -720h-198l-105 540l-97 -540h-187l-143 720h168l84 -529l89 529h182l104 -532l72 532h159zM455 910h160l-131 -137h-116z" />
    <glyph glyph-name="wacute" unicode="&#x1e83;" horiz-adv-x="757" 
d="M750 520l-120 -520h-194l-55 375l-70 -375h-188l-116 520h160l58 -386l69 386h186l56 -388l69 388h145zM402 720h160l-131 -137h-116z" />
    <glyph glyph-name="Wdieresis" unicode="&#x1e84;" horiz-adv-x="864" 
d="M861 720l-128 -720h-198l-105 540l-97 -540h-187l-143 720h168l84 -529l89 529h182l104 -532l72 532h159zM261 782v128h142v-128h-142zM460 782v128h143v-128h-143z" />
    <glyph glyph-name="wdieresis" unicode="&#x1e85;" horiz-adv-x="757" 
d="M750 520l-120 -520h-194l-55 375l-70 -375h-188l-116 520h160l58 -386l69 386h186l56 -388l69 388h145zM207 592v128h142v-128h-142zM406 592v128h143v-128h-143z" />
    <glyph glyph-name="Ygrave" unicode="&#x1ef2;" horiz-adv-x="588" 
d="M216 0v287l-216 433h178l121 -288l132 288h157l-216 -433v-287h-156zM367 773h-116l-131 137h161z" />
    <glyph glyph-name="ygrave" unicode="&#x1ef3;" horiz-adv-x="512" 
d="M509 520l-163 -531q-16 -51 -32.5 -86t-37 -56.5t-46 -31.5t-59.5 -10q-20 0 -41 3t-39 8v109q23 -6 37.5 -7.5t22.5 -1.5q24 0 36.5 19.5t17.5 64.5h-43l-159 520h164l88 -399l99 399h155zM327 583h-116l-131 137h161z" />
    <glyph glyph-name="uni2007" unicode="&#x2007;" 
 />
    <glyph glyph-name="uni2008" unicode="&#x2008;" horiz-adv-x="289" 
 />
    <glyph glyph-name="uni200B" unicode="&#x200b;" horiz-adv-x="0" 
 />
    <glyph glyph-name="figuredash" unicode="&#x2012;" horiz-adv-x="444" 
d="M416 261h-386v123h386v-123z" />
    <glyph glyph-name="endash" unicode="&#x2013;" horiz-adv-x="344" 
d="M344 261h-344v123h344v-123z" />
    <glyph glyph-name="emdash" unicode="&#x2014;" horiz-adv-x="516" 
d="M516 261h-516v123h516v-123z" />
    <glyph glyph-name="afii00208" unicode="&#x2015;" horiz-adv-x="344" 
d="M344 298h-344v123h344v-123z" />
    <glyph glyph-name="underscoredbl" unicode="&#x2017;" horiz-adv-x="449" 
d="M459 -322h-469v123h469v-123zM459 -149h-469v123h469v-123z" />
    <glyph glyph-name="quoteleft" unicode="&#x2018;" horiz-adv-x="270" 
d="M37 507q0 58 18.5 97t47.5 64t64 37t67 15v-78q-38 -8 -60.5 -34t-22.5 -71h63v-157h-177v127z" />
    <glyph glyph-name="quoteright" unicode="&#x2019;" horiz-adv-x="270" 
d="M233 593q0 -58 -18.5 -97t-47.5 -64t-64 -37t-67 -15v78q38 8 60.5 34t22.5 71h-63v157h177v-127z" />
    <glyph glyph-name="quotesinglbase" unicode="&#x201a;" horiz-adv-x="270" 
d="M233 30q0 -58 -18.5 -97t-47.5 -64t-64 -37t-67 -15v78q38 8 60.5 34t22.5 71h-63v157h177v-127z" />
    <glyph glyph-name="quotereversed" unicode="&#x201b;" horiz-adv-x="270" 
d="M36 720h177v-157h-63q0 -45 22.5 -71t60.5 -34v-78q-32 3 -67 15t-64 37t-47.5 64t-18.5 97v127z" />
    <glyph glyph-name="quotedblleft" unicode="&#x201c;" horiz-adv-x="507" 
d="M274 507q0 58 18.5 97t47.5 64t64 37t67 15v-78q-38 -8 -60.5 -34t-22.5 -71h63v-157h-177v127zM54 507q0 58 18.5 97t47.5 64t64 37t67 15v-78q-38 -8 -60.5 -34t-22.5 -71h63v-157h-177v127z" />
    <glyph glyph-name="quotedblright" unicode="&#x201d;" horiz-adv-x="507" 
d="M453 593q0 -58 -18.5 -97t-47.5 -64t-64 -37t-67 -15v78q38 8 60.5 34t22.5 71h-63v157h177v-127zM233 593q0 -58 -18.5 -97t-47.5 -64t-64 -37t-67 -15v78q38 8 60.5 34t22.5 71h-63v157h177v-127z" />
    <glyph glyph-name="quotedblbase" unicode="&#x201e;" horiz-adv-x="490" 
d="M453 30q0 -58 -18.5 -97t-47.5 -64t-64 -37t-67 -15v78q38 8 60.5 34t22.5 71h-63v157h177v-127zM233 30q0 -58 -18.5 -97t-47.5 -64t-64 -37t-67 -15v78q38 8 60.5 34t22.5 71h-63v157h177v-127z" />
    <glyph glyph-name="dagger" unicode="&#x2020;" 
d="M347 720v-180h142v-123h-142v-417h-135v417h-141v123h141v180h135z" />
    <glyph glyph-name="daggerdbl" unicode="&#x2021;" 
d="M347 720v-149h142v-123h-142v-176h142v-123h-142v-149h-135v149h-141v123h141v176h-141v123h141v149h135z" />
    <glyph glyph-name="bullet" unicode="&#x2022;" horiz-adv-x="335" 
d="M50 206v225h235v-225h-235z" />
    <glyph glyph-name="ellipsis" unicode="&#x2026;" horiz-adv-x="867" 
d="M345 0v157h177v-157h-177zM56 0v157h177v-157h-177zM634 0v157h177v-157h-177z" />
    <glyph glyph-name="perthousand" unicode="&#x2030;" horiz-adv-x="1013" 
d="M996 154q0 -77 -35 -123t-117 -46t-117 46t-35 123t35 123t117 46t117 -46t35 -123zM896 154q0 46 -10.5 68.5t-41.5 22.5t-41.5 -22.5t-10.5 -68.5t10.5 -68.5t41.5 -22.5t41.5 22.5t10.5 68.5zM256 0h-116l280 700h116zM316 546q0 -77 -35 -123t-117 -46t-117 46
t-35 123t35 123t117 46t117 -46t35 -123zM216 546q0 46 -10.5 68.5t-41.5 22.5t-41.5 -22.5t-10.5 -68.5t10.5 -68.5t41.5 -22.5t41.5 22.5t10.5 68.5zM665 154q0 -77 -35 -123t-117 -46t-117 46t-35 123t35 123t117 46t117 -46t35 -123zM565 154q0 46 -10.5 68.5
t-41.5 22.5t-41.5 -22.5t-10.5 -68.5t10.5 -68.5t41.5 -22.5t41.5 22.5t10.5 68.5z" />
    <glyph glyph-name="minute" unicode="&#x2032;" horiz-adv-x="232" 
d="M154 490h-96l7 153v92h122v-92z" />
    <glyph glyph-name="second" unicode="&#x2033;" horiz-adv-x="462" 
d="M162 490h-96l7 153v92h122v-92zM324 490h-96l7 153v92h122v-92z" />
    <glyph glyph-name="guilsinglleft" unicode="&#x2039;" horiz-adv-x="299" 
d="M34 315l113 205h118l-86 -208l77 -222h-118z" />
    <glyph glyph-name="guilsinglright" unicode="&#x203a;" horiz-adv-x="299" 
d="M160 90h-117l76 222l-85 208h118l113 -205z" />
    <glyph glyph-name="exclamdbl" unicode="&#x203c;" horiz-adv-x="550" 
d="M61 240l-22 480h197l-22 -480h-153zM50 0v157h174v-157h-174zM336 240l-22 480h197l-22 -480h-153zM325 0v157h174v-157h-174z" />
    <glyph glyph-name="uni203E" unicode="&#x203e;" horiz-adv-x="449" 
d="M459 559h-469v123h469v-123z" />
    <glyph glyph-name="fraction" unicode="&#x2044;" horiz-adv-x="232" 
d="M-152 -90l422 880h120l-422 -880h-120z" />
    <glyph glyph-name="uni2070" unicode="&#x2070;" horiz-adv-x="380" 
d="M190 284q-78 0 -119 56.5t-41 174.5q0 121 42 175.5t118 54.5t117.5 -54t41.5 -176q0 -117 -40.5 -174t-118.5 -57zM190 369q11 0 19.5 6.5t14.5 23t9 44.5t3 72q0 43 -3 71.5t-9 45t-14.5 23t-19.5 6.5t-19.5 -6.5t-14.5 -23t-9 -45t-3 -71.5q0 -44 3 -72t9 -44.5
t14.5 -23t19.5 -6.5z" />
    <glyph glyph-name="uni2074" unicode="&#x2074;" horiz-adv-x="386" 
d="M310 461h45v-86h-45v-81h-106v81h-174v93l144 267h136v-274zM132 461h72l7 161z" />
    <glyph glyph-name="uni2075" unicode="&#x2075;" horiz-adv-x="373" 
d="M317 649h-153l-4 -75q15 12 29.5 16t31.5 4q54 0 87.5 -36t33.5 -114q0 -34 -10 -63t-29.5 -50.5t-48.5 -34t-66 -12.5q-72 0 -111 37t-47 94h113q2 -19 11.5 -31t27.5 -12q20 0 31 15.5t11 54.5q0 42 -11 57t-32 15q-7 0 -17.5 -3t-20.5 -20h-95l11 244h258v-86z" />
    <glyph glyph-name="uni2076" unicode="&#x2076;" horiz-adv-x="379" 
d="M199 745q62 0 99 -28.5t48 -79.5h-117q-2 11 -9 17.5t-21 6.5q-20 0 -33 -22.5t-18 -82.5q15 20 36 28t44 8q55 0 88 -40t33 -108q0 -78 -42 -119t-111 -41q-78 0 -122 50.5t-44 163.5q0 66 12.5 113t35 77t53.5 43.5t68 13.5zM194 506q-23 0 -32.5 -20t-9.5 -51
q0 -40 13 -52.5t28 -12.5q20 0 29.5 15.5t9.5 51.5t-9.5 52.5t-28.5 16.5z" />
    <glyph glyph-name="uni2077" unicode="&#x2077;" horiz-adv-x="347" 
d="M62 294l144 352h-176v89h287v-88l-135 -353h-120z" />
    <glyph glyph-name="uni2078" unicode="&#x2078;" horiz-adv-x="383" 
d="M192 745q65 0 106 -31t41 -87q0 -30 -17 -56.5t-49 -43.5q37 -16 58 -43t21 -67q0 -28 -10 -52t-30.5 -42t-50.5 -28.5t-69 -10.5t-69.5 10t-51 27.5t-31 40.5t-10.5 50q0 44 18.5 71t58.5 41q-33 16 -49 38.5t-16 58.5q0 58 39 91t111 33zM192 667q-17 0 -27.5 -11
t-10.5 -34q0 -30 10.5 -44.5t33.5 -22.5q9 8 19 22.5t10 43.5q0 23 -10.5 34.5t-24.5 11.5zM182 494q-14 -11 -23 -27.5t-9 -45.5q0 -23 10 -37.5t30 -14.5q21 0 32 14.5t11 37.5q0 31 -13.5 46.5t-37.5 26.5z" />
    <glyph glyph-name="uni2079" unicode="&#x2079;" horiz-adv-x="379" 
d="M185 745q40 0 70.5 -11t51.5 -36t31.5 -66t10.5 -100q0 -131 -42 -189.5t-123 -58.5q-64 0 -103 29.5t-50 79.5h121q1 -11 9.5 -18t21.5 -7q22 0 33.5 22t16.5 83q-15 -20 -36.5 -28t-44.5 -8q-54 0 -88 38t-34 110q0 73 41.5 116.5t113.5 43.5zM186 658q-19 0 -30 -15
t-11 -50q0 -42 11.5 -56t30.5 -14q23 0 32 20t9 50q0 41 -12.5 53t-29.5 12z" />
    <glyph glyph-name="uni207F" unicode="&#x207f;" horiz-adv-x="374" 
d="M237 726q54 0 84 -34t30 -111v-230h-124v233q0 28 -7.5 38.5t-24.5 10.5q-20 0 -32 -14t-12 -47v-221h-123v364h106l8 -36q19 26 42.5 36.5t52.5 10.5z" />
    <glyph glyph-name="franc" unicode="&#x20a3;" horiz-adv-x="542" 
d="M267 577v-164h197v-118h-197v-67h102v-108h-102v-120h-167v120h-50v108h49v472h393v-123h-225z" />
    <glyph glyph-name="lira" unicode="&#x20a4;" horiz-adv-x="559" 
d="M306 715q90 0 144 -49t59 -137h-143q-4 38 -16.5 52.5t-34.5 14.5q-26 0 -39.5 -20.5t-13.5 -71.5v-39h152v-98h-152v-51h128v-104h-138v-13q0 -23 -10 -42t-30 -30h290v-127h-442v124q22 7 34 22t12 44v22h-50v104h50v51h-50v98h50v36q0 214 200 214z" />
    <glyph glyph-name="peseta" unicode="&#x20a7;" horiz-adv-x="1082" 
d="M881 256q44 -12 73 -25.5t46.5 -30.5t24.5 -37t7 -45q0 -61 -42 -97t-134 -36q-30 0 -55.5 5.5t-45.5 15.5q-34 -14 -62 -17.5t-48 -3.5q-62 0 -93.5 33t-31.5 94v207h-85q-68 -63 -204 -63h-21v-256h-160v700h177q137 0 205 -51.5t68 -167.5q0 -34 -9 -68h29l7 100h118
v-100h124q34 12 84 12q72 0 118.5 -35t57.5 -94h-122q-4 20 -16.5 31t-36.5 11q-40 0 -40 -32q0 -17 12.5 -28t54.5 -22zM858 72q49 0 49 41q0 19 -13 31t-55 23q-43 11 -72 24t-46 29t-24.5 35t-7.5 43v10q0 6 1 11h-45v-205q0 -20 7 -28.5t23 -8.5q8 0 13 1q-8 21 -11 42
h123q5 -25 18.5 -36.5t39.5 -11.5zM233 374q53 0 81.5 25t28.5 82q0 58 -29.5 79t-83.5 21h-20v-207h23z" />
    <glyph glyph-name="Euro" unicode="&#x20ac;" 
d="M360 326l-16 -94h-110q5 -38 12.5 -63t18.5 -39.5t25 -20.5t32 -6q58 0 67 70h147q-5 -41 -22 -75.5t-44.5 -59.5t-65.5 -39t-84 -14q-49 0 -88 13.5t-69 43.5t-51.5 77t-34.5 113h-54l16 94h28q-1 12 -1 15v23q0 4 1 18h-44l16 94h37q20 120 75.5 179.5t152.5 59.5
q46 0 84.5 -14.5t68 -40t48 -60.5t24.5 -76h-148q-5 35 -23 54.5t-46 19.5q-32 0 -49 -28t-25 -94h145l-16 -94h-139q-1 -14 -1 -18v-23q0 -3 1 -15h132z" />
    <glyph glyph-name="afii61248" unicode="&#x2105;" horiz-adv-x="920" 
d="M177 -90l422 880h120l-422 -880h-120zM385 484q-12 -65 -51 -104.5t-115 -39.5q-87 0 -128 47.5t-41 142.5q0 93 44 144.5t129 51.5q70 0 110.5 -36t50.5 -98h-124q-4 25 -13.5 34.5t-24.5 9.5q-23 0 -34 -22t-11 -85q0 -54 10.5 -76.5t33.5 -22.5q19 0 28 12.5t11 41.5
h125zM692 376q85 0 131.5 -47.5t46.5 -144.5q0 -95 -46 -144.5t-132 -49.5t-131.5 49.5t-45.5 144.5q0 97 45.5 144.5t131.5 47.5zM692 287q-27 0 -38 -23.5t-11 -79.5q0 -57 11 -81t40 -24q28 0 39 23.5t11 81.5q0 57 -12 80t-40 23z" />
    <glyph glyph-name="afii61289" unicode="&#x2113;" horiz-adv-x="519" 
d="M329 96q19 0 39.5 6t35.5 16l43 -96q-23 -15 -51.5 -26t-76.5 -11q-69 0 -118.5 37t-74.5 115q-18 -11 -37 -21l-39 -19v119q15 8 29 15.5t27 15.5q-1 13 -1.5 27t-0.5 28q0 115 12 197t37.5 134.5t66.5 77t98 24.5q40 0 69 -13t47 -35.5t26.5 -52t8.5 -62.5
q0 -41 -12 -85.5t-39.5 -91t-72 -94t-108.5 -93.5q6 -34 14.5 -56t20 -34.5t26 -17t31.5 -4.5zM228 336q35 33 57.5 64.5t35.5 62t18 59t5 54.5q0 56 -38 56q-40 0 -59 -70.5t-19 -205.5v-20z" />
    <glyph glyph-name="afii61352" unicode="&#x2116;" horiz-adv-x="1079" 
d="M574 720v-720h-167l-220 492v-492h-141v720h181l206 -480v480h141zM661 517q0 66 16.5 108.5t43 66.5t60.5 33.5t69 9.5t68.5 -9t60 -33t43 -66.5t16.5 -109.5t-16 -110t-42.5 -68t-60.5 -34.5t-69 -9.5q-36 0 -70 10t-60.5 35t-42.5 68t-16 109zM805 517q0 -68 8.5 -98
t37.5 -30q27 0 36 30t9 98t-9.5 96t-36.5 28q-28 0 -36.5 -28t-8.5 -96zM1027 0h-350v123h350v-123z" />
    <glyph glyph-name="trademark" unicode="&#x2122;" horiz-adv-x="730" 
d="M458 324l-57 236v-236h-110v300h-68v-300h-115v300h-103v96h440l61 -245l50 245h164v-396h-111v236l-59 -236h-92z" />
    <glyph glyph-name="Omega" unicode="&#x2126;" horiz-adv-x="678" 
d="M376 121q13 0 30 10.5t32.5 37.5t26.5 73t11 116q0 73 -11 122.5t-29.5 80t-43.5 43.5t-53 13q-29 0 -54 -13t-43.5 -43.5t-29 -80.5t-10.5 -123q0 -69 11.5 -114.5t27 -72.5t32.5 -38t29 -11v-121h-242v121h72q-45 36 -72 96.5t-27 149.5q0 95 23 164.5t63.5 114.5
t96.5 67t123 22t123.5 -21t97 -65.5t63 -114t22.5 -166.5q0 -79 -26 -140.5t-75 -106.5h76v-121h-244v121z" />
    <glyph glyph-name="estimated" unicode="&#x212e;" horiz-adv-x="945" 
d="M218 339v-218q16 -24 44.5 -42t63.5 -30t73.5 -18.5t73.5 -6.5t72.5 6t72 18.5t64.5 31t51 42.5h58q-55 -64 -134.5 -100.5t-184.5 -36.5q-86 0 -159.5 27t-127.5 75t-84.5 114.5t-30.5 145.5t31.5 146t86.5 116.5t128 77.5t156 28q80 0 153 -27.5t128.5 -77t88.5 -118.5
t33 -153h-657zM727 574q-42 46 -104 74t-150 28t-152.5 -27t-102.5 -74v-196h509v195z" />
    <glyph glyph-name="onethird" unicode="&#x2153;" horiz-adv-x="874" 
d="M137 -90l422 880h120l-422 -880h-120zM258 283h-116v327l-92 -46v106l106 54h102v-441zM673 445q66 0 104 -29.5t38 -86.5q0 -34 -19.5 -62t-61.5 -39q44 -11 67 -39.5t23 -71.5q0 -63 -41 -97.5t-113 -34.5q-74 0 -115 37t-46 97h116q2 -22 11.5 -34.5t30.5 -12.5
q18 0 28 13.5t10 36.5q0 35 -16 48t-37 13h-27v80h29q17 0 30 11.5t13 42.5q0 23 -8.5 32.5t-21.5 9.5q-17 0 -24.5 -10.5t-9.5 -29.5h-113q8 58 48 92t105 34z" />
    <glyph glyph-name="twothirds" unicode="&#x2154;" horiz-adv-x="950" 
d="M213 -90l422 880h120l-422 -880h-120zM50 605q9 64 52 102t111 38q70 0 109 -35t39 -92q0 -22 -5 -41.5t-18 -40t-34 -43.5t-52 -51l-55 -52h161v-96h-296v94l94 94q27 27 44.5 47t27 36t13 28.5t3.5 24.5q0 37 -33 37q-17 0 -28 -11t-15 -39h-118zM749 445
q66 0 104 -29.5t38 -86.5q0 -34 -19.5 -62t-61.5 -39q44 -11 67 -39.5t23 -71.5q0 -63 -41 -97.5t-113 -34.5q-74 0 -115 37t-46 97h116q2 -22 11.5 -34.5t30.5 -12.5q18 0 28 13.5t10 36.5q0 35 -16 48t-37 13h-27v80h29q17 0 30 11.5t13 42.5q0 23 -8.5 32.5t-21.5 9.5
q-17 0 -24.5 -10.5t-9.5 -29.5h-113q8 58 48 92t105 34z" />
    <glyph glyph-name="oneeighth" unicode="&#x215b;" horiz-adv-x="891" 
d="M137 -90l422 880h120l-422 -880h-120zM258 283h-116v327l-92 -46v106l106 54h102v-441zM681 447q65 0 106 -31t41 -87q0 -30 -17 -56.5t-49 -43.5q37 -16 58 -43t21 -67q0 -28 -10 -52t-30.5 -42t-50.5 -28.5t-69 -10.5t-69.5 10t-51 27.5t-31 40.5t-10.5 50
q0 44 18.5 71t58.5 41q-33 16 -49 38.5t-16 58.5q0 58 39 91t111 33zM681 369q-17 0 -27.5 -11t-10.5 -34q0 -30 10.5 -44.5t33.5 -22.5q9 8 19 22.5t10 43.5q0 23 -10.5 34.5t-24.5 11.5zM671 196q-14 -11 -23 -27.5t-9 -45.5q0 -23 10 -37.5t30 -14.5q21 0 32 14.5
t11 37.5q0 31 -13.5 46.5t-37.5 26.5z" />
    <glyph glyph-name="threeeighths" unicode="&#x215c;" horiz-adv-x="967" 
d="M213 -90l422 880h120l-422 -880h-120zM757 447q65 0 106 -31t41 -87q0 -30 -17 -56.5t-49 -43.5q37 -16 58 -43t21 -67q0 -28 -10 -52t-30.5 -42t-50.5 -28.5t-69 -10.5t-69.5 10t-51 27.5t-31 40.5t-10.5 50q0 44 18.5 71t58.5 41q-33 16 -49 38.5t-16 58.5q0 58 39 91
t111 33zM757 369q-17 0 -27.5 -11t-10.5 -34q0 -30 10.5 -44.5t33.5 -22.5q9 8 19 22.5t10 43.5q0 23 -10.5 34.5t-24.5 11.5zM747 196q-14 -11 -23 -27.5t-9 -45.5q0 -23 10 -37.5t30 -14.5q21 0 32 14.5t11 37.5q0 31 -13.5 46.5t-37.5 26.5zM214 745q66 0 104 -29.5
t38 -86.5q0 -34 -19.5 -62t-61.5 -39q44 -11 67 -39.5t23 -71.5q0 -63 -41 -97.5t-113 -34.5q-74 0 -115 37t-46 97h116q2 -22 11.5 -34.5t30.5 -12.5q18 0 28 13.5t10 36.5q0 35 -16 48t-37 13h-27v80h29q17 0 30 11.5t13 42.5q0 23 -8.5 32.5t-21.5 9.5q-17 0 -24.5 -10.5
t-9.5 -29.5h-113q8 58 48 92t105 34z" />
    <glyph glyph-name="fiveeighths" unicode="&#x215d;" horiz-adv-x="967" 
d="M213 -90l422 880h120l-422 -880h-120zM757 447q65 0 106 -31t41 -87q0 -30 -17 -56.5t-49 -43.5q37 -16 58 -43t21 -67q0 -28 -10 -52t-30.5 -42t-50.5 -28.5t-69 -10.5t-69.5 10t-51 27.5t-31 40.5t-10.5 50q0 44 18.5 71t58.5 41q-33 16 -49 38.5t-16 58.5q0 58 39 91
t111 33zM757 369q-17 0 -27.5 -11t-10.5 -34q0 -30 10.5 -44.5t33.5 -22.5q9 8 19 22.5t10 43.5q0 23 -10.5 34.5t-24.5 11.5zM747 196q-14 -11 -23 -27.5t-9 -45.5q0 -23 10 -37.5t30 -14.5q21 0 32 14.5t11 37.5q0 31 -13.5 46.5t-37.5 26.5zM337 649h-153l-4 -75
q15 12 29.5 16t31.5 4q54 0 87.5 -36t33.5 -114q0 -34 -10 -63t-29.5 -50.5t-48.5 -34t-66 -12.5q-72 0 -111 37t-47 94h113q2 -19 11.5 -31t27.5 -12q20 0 31 15.5t11 54.5q0 42 -11 57t-32 15q-7 0 -17.5 -3t-20.5 -20h-95l11 244h258v-86z" />
    <glyph glyph-name="seveneighths" unicode="&#x215e;" horiz-adv-x="887" 
d="M133 -90l422 880h120l-422 -880h-120zM677 447q65 0 106 -31t41 -87q0 -30 -17 -56.5t-49 -43.5q37 -16 58 -43t21 -67q0 -28 -10 -52t-30.5 -42t-50.5 -28.5t-69 -10.5t-69.5 10t-51 27.5t-31 40.5t-10.5 50q0 44 18.5 71t58.5 41q-33 16 -49 38.5t-16 58.5q0 58 39 91
t111 33zM677 369q-17 0 -27.5 -11t-10.5 -34q0 -30 10.5 -44.5t33.5 -22.5q9 8 19 22.5t10 43.5q0 23 -10.5 34.5t-24.5 11.5zM667 196q-14 -11 -23 -27.5t-9 -45.5q0 -23 10 -37.5t30 -14.5q21 0 32 14.5t11 37.5q0 31 -13.5 46.5t-37.5 26.5zM82 294l144 352h-176v89h287
v-88l-135 -353h-120z" />
    <glyph glyph-name="arrowleft" unicode="&#x2190;" horiz-adv-x="600" 
d="M222 426h358v-118h-358l151 -194h-157l-196 253l196 253h157z" />
    <glyph glyph-name="arrowup" unicode="&#x2191;" horiz-adv-x="600" 
d="M364 446v-359h-128v359l-189 -147v152l253 196l253 -196v-152z" />
    <glyph glyph-name="arrowright" unicode="&#x2192;" horiz-adv-x="600" 
d="M378 308h-358v118h358l-151 194h157l196 -253l-196 -253h-157z" />
    <glyph glyph-name="arrowdown" unicode="&#x2193;" horiz-adv-x="600" 
d="M236 288v359h128v-359l189 147v-152l-253 -196l-253 196v152z" />
    <glyph glyph-name="arrowboth" unicode="&#x2194;" horiz-adv-x="900" 
d="M222 426h456l-151 194h157l196 -253l-196 -253h-157l151 194h-456l151 -194h-157l-196 253l196 253h157z" />
    <glyph glyph-name="arrowupdn" unicode="&#x2195;" horiz-adv-x="600" 
d="M364 596v-458l189 147v-152l-253 -196l-253 196v152l189 -147v458l-189 -147v152l253 196l253 -196v-152z" />
    <glyph glyph-name="uni2196" unicode="&#x2196;" horiz-adv-x="600" 
d="M288 471l256 -256l-92 -92l-248 248l-29 -232l-113 108l40 318l318 40l107 -104z" />
    <glyph glyph-name="uni2197" unicode="&#x2197;" horiz-adv-x="600" 
d="M402 371l-248 -248l-92 92l256 256l-239 30l107 104l318 -40l40 -318l-113 -108z" />
    <glyph glyph-name="uni2198" unicode="&#x2198;" horiz-adv-x="600" 
d="M318 256l-256 257l92 92l248 -248l29 232l113 -108l-40 -318l-318 -40l-107 104z" />
    <glyph glyph-name="uni2199" unicode="&#x2199;" horiz-adv-x="600" 
d="M204 357l248 248l92 -92l-256 -256l239 -30l-107 -104l-318 40l-40 318l113 108z" />
    <glyph glyph-name="arrowupdnbse" unicode="&#x21a8;" horiz-adv-x="600" 
d="M364 596v-458l189 147v-152l-253 -196l-253 196v152l189 -147v458l-189 -147v152l253 196l253 -196v-152zM534 -232h-469v123h469v-123z" />
    <glyph glyph-name="partialdiff" unicode="&#x2202;" horiz-adv-x="512" 
d="M67 753q76 -7 151 -35t134 -80t95.5 -129t36.5 -182q0 -168 -53 -255t-170 -87q-233 0 -233 253q0 56 11 101t33.5 77t56.5 49.5t81 17.5q27 0 54.5 -13.5t41.5 -33.5q-8 47 -25 82t-45.5 60.5t-70 42.5t-98.5 29v103zM256 370q-18 0 -31.5 -6.5t-22 -22.5t-12.5 -42.5
t-4 -65.5q0 -42 4 -68.5t13 -41.5t22.5 -20t32.5 -5q16 0 28.5 6.5t21 24t13 48t4.5 78.5q0 63 -18 89t-51 26z" />
    <glyph glyph-name="Delta" unicode="&#x2206;" horiz-adv-x="601" 
d="M0 0l206 720h186l209 -720h-601zM192 110h206l-103 467z" />
    <glyph glyph-name="product" unicode="&#x220f;" horiz-adv-x="517" 
d="M502 578h-38v-578h-153v578h-104v-578h-154v578h-38v122h487v-122z" />
    <glyph glyph-name="summation" unicode="&#x2211;" horiz-adv-x="516" 
d="M163 604l163 -329l-163 -331h338v-114h-488v114l168 331l-168 329v116h488v-116h-338z" />
    <glyph glyph-name="minus" unicode="&#x2212;" 
d="M473 261h-386v123h386v-123z" />
    <glyph glyph-name="uni2215" unicode="&#x2215;" horiz-adv-x="232" 
d="M-5 -90h-108l345 880h108z" />
    <glyph glyph-name="uni2219" unicode="&#x2219;" horiz-adv-x="270" 
d="M56 248v142h158v-142h-158z" />
    <glyph glyph-name="radical" unicode="&#x221a;" horiz-adv-x="540" 
d="M145 0l-162 460h152l87 -291l162 633h232v-112h-113l-203 -690h-155z" />
    <glyph glyph-name="infinity" unicode="&#x221e;" horiz-adv-x="600" 
d="M168 533q41 0 73.5 -23t56.5 -63q26 43 62 64.5t74 21.5q43 0 75 -14.5t53 -39t31.5 -58t10.5 -71.5t-10.5 -71.5t-31.5 -58t-53.5 -39t-76.5 -14.5q-42 0 -73.5 22.5t-55.5 62.5q-27 -42 -63.5 -63.5t-74.5 -21.5q-43 0 -74.5 14.5t-52.5 39t-31.5 58t-10.5 71.5
t10.5 71.5t31.5 58t53.5 39t76.5 14.5zM425 274q17 0 29 19t12 57t-12.5 57t-26.5 19q-16 0 -34.5 -16t-35.5 -61q4 -30 24.5 -52.5t43.5 -22.5zM175 426q-17 0 -29 -19t-12 -57t12.5 -57t26.5 -19q16 0 34 16t35 61q-4 30 -24 52.5t-43 22.5z" />
    <glyph glyph-name="orthogonal" unicode="&#x221f;" horiz-adv-x="735" 
d="M206 144h479v-144h-635v660h156v-516z" />
    <glyph glyph-name="intersection" unicode="&#x2229;" horiz-adv-x="600" 
d="M300 579q48 0 90 -18t73.5 -49.5t49.5 -73.5t18 -90v-310h-138v310q0 51 -24 81t-69 30t-69 -30t-24 -81v-310h-138v310q0 48 18 90t49.5 73.5t73.5 49.5t90 18z" />
    <glyph glyph-name="integral" unicode="&#x222b;" horiz-adv-x="516" 
d="M64 -52q10 -1 17.5 -2t14.5 -1.5t14 -0.5h17q25 0 39 12.5t14 44.5v752q0 48 13.5 81.5t36 55t52 31t62.5 9.5q22 0 37 -0.5t27 -1t22 -1.5t22 -2v-113q-21 2 -32.5 3t-30.5 1q-26 0 -40 -12.5t-14 -44.5v-752q0 -48 -13.5 -81.5t-36 -55t-52 -31t-62.5 -9.5
q-22 0 -37 0.5t-26.5 1t-21.5 1.5t-22 2v113z" />
    <glyph glyph-name="approxequal" unicode="&#x2248;" 
d="M358 341q-26 0 -47 8.5t-40 19t-37 19t-38 8.5q-33 0 -61.5 -15.5t-47.5 -34.5v127q16 15 46.5 27.5t68.5 12.5q27 0 48 -8.5t40 -19t37 -19t38 -8.5q32 0 60.5 15.5t47.5 34.5v-127q-16 -15 -46.5 -27.5t-68.5 -12.5zM358 137q-26 0 -47 8.5t-40 19t-37 19t-38 8.5
q-33 0 -61.5 -15.5t-47.5 -34.5v127q16 15 46.5 27.5t68.5 12.5q27 0 48 -8.5t40 -19t37 -19t38 -8.5q32 0 60.5 15.5t47.5 34.5v-127q-16 -15 -46.5 -27.5t-68.5 -12.5z" />
    <glyph glyph-name="notequal" unicode="&#x2260;" 
d="M474 158h-215l-54 -118h-125l54 118h-47v123h116l32 82h-148v123h215l52 114h125l-52 -114h47v-123h-115l-32 -82h147v-123z" />
    <glyph glyph-name="equivalence" unicode="&#x2261;" 
d="M473 158h-386v123h386v-123zM473 -47h-386v123h386v-123zM473 363h-386v123h386v-123z" />
    <glyph glyph-name="lessequal" unicode="&#x2264;" 
d="M87 412l386 180v-143l-216 -89v-7l216 -65v-143l-386 150v117zM473 0h-386v123h386v-123z" />
    <glyph glyph-name="greaterequal" unicode="&#x2265;" 
d="M473 295l-386 -150v143l217 65v7l-217 89v143l386 -180v-117zM87 123h386v-123h-386v123z" />
    <glyph glyph-name="dotmath" unicode="&#x22c5;" horiz-adv-x="270" 
d="M56 248v142h158v-142h-158z" />
    <glyph glyph-name="star" unicode="&#x22c6;" horiz-adv-x="600" 
d="M300 738l131 -126l182 -25l-17 -182l94 -157l-153 -100l-64 -170l-173 56l-174 -56l-64 170l-152 100l93 157l-16 182l181 25z" />
    <glyph glyph-name="house" unicode="&#x2302;" horiz-adv-x="722" 
d="M672 370v-370h-622v370l311 277zM185 117h352v215l-176 153l-176 -153v-215z" />
    <glyph glyph-name="revlogicalnot" unicode="&#x2310;" 
d="M472 380v-118h-258v-159h-126v277h384z" />
    <glyph glyph-name="integraltp" unicode="&#x2320;" horiz-adv-x="489" 
d="M341 931q35 0 59 -2.5t48 -7.5v-115q-26 5 -40.5 6t-26.5 1q-23 0 -34 -11.5t-11 -39.5v-972h-154v974q0 81 42 124t117 43z" />
    <glyph glyph-name="integralbt" unicode="&#x2321;" horiz-adv-x="489" 
d="M336 -2q0 -81 -42 -124t-117 -43q-35 0 -59 2.5t-48 7.5v115q26 -5 40 -6t27 -1q23 0 34 11.5t11 39.5v930h154v-932z" />
    <glyph glyph-name="SF100000" unicode="&#x2500;" 
d="M-5 395h570v-86h-570v86z" />
    <glyph glyph-name="SF110000" unicode="&#x2502;" 
d="M237 1000h86v-1362h-86v1362z" />
    <glyph glyph-name="SF010000" unicode="&#x250c;" 
d="M237 395h328v-86h-242v-671h-86v757z" />
    <glyph glyph-name="SF030000" unicode="&#x2510;" 
d="M-5 395h328v-757h-86v671h-242v86z" />
    <glyph glyph-name="SF020000" unicode="&#x2514;" 
d="M237 1000h86v-605h242v-86h-328v691z" />
    <glyph glyph-name="SF040000" unicode="&#x2518;" 
d="M-5 395h242v605h86v-691h-328v86z" />
    <glyph glyph-name="SF080000" unicode="&#x251c;" 
d="M237 1000h86v-605h242v-86h-242v-671h-86v1362z" />
    <glyph glyph-name="SF090000" unicode="&#x2524;" 
d="M-5 395h242v605h86v-1362h-86v671h-242v86z" />
    <glyph glyph-name="SF060000" unicode="&#x252c;" 
d="M-5 395h570v-86h-242v-671h-86v671h-242v86z" />
    <glyph glyph-name="SF070000" unicode="&#x2534;" 
d="M-5 395h242v605h86v-605h242v-86h-570v86z" />
    <glyph glyph-name="SF050000" unicode="&#x253c;" 
d="M-5 395h242v605h86v-605h242v-86h-242v-671h-86v671h-242v86z" />
    <glyph glyph-name="SF430000" unicode="&#x2550;" 
d="M-5 309h570v-86h-570v86zM565 395h-570v86h570v-86z" />
    <glyph glyph-name="SF240000" unicode="&#x2551;" 
d="M323 -362v1362h86v-1362h-86zM151 1000h86v-1362h-86v1362z" />
    <glyph glyph-name="SF510000" unicode="&#x2552;" 
d="M565 395h-242v-86h242v-86h-242v-585h-86v843h328v-86z" />
    <glyph glyph-name="SF520000" unicode="&#x2553;" 
d="M323 -362v671h-86v-671h-86v757h414v-86h-156v-671h-86z" />
    <glyph glyph-name="SF390000" unicode="&#x2554;" 
d="M151 481h414v-86h-328v-757h-86v843zM323 -362v671h242v-86h-156v-585h-86z" />
    <glyph glyph-name="SF220000" unicode="&#x2555;" 
d="M-5 309h242v86h-242v86h328v-843h-86v585h-242v86z" />
    <glyph glyph-name="SF210000" unicode="&#x2556;" 
d="M-5 395h414v-757h-86v671h-86v-671h-86v671h-156v86z" />
    <glyph glyph-name="SF250000" unicode="&#x2557;" 
d="M323 -362v757h-328v86h414v-843h-86zM-5 309h242v-671h-86v585h-156v86z" />
    <glyph glyph-name="SF500000" unicode="&#x2558;" 
d="M565 395h-242v-86h242v-86h-328v777h86v-519h242v-86z" />
    <glyph glyph-name="SF490000" unicode="&#x2559;" 
d="M151 1000h86v-605h86v605h86v-605h156v-86h-414v691z" />
    <glyph glyph-name="SF380000" unicode="&#x255a;" 
d="M565 309v-86h-414v777h86v-691h328zM565 395h-242v605h86v-519h156v-86z" />
    <glyph glyph-name="SF280000" unicode="&#x255b;" 
d="M-5 309h242v86h-242v86h242v519h86v-777h-328v86z" />
    <glyph glyph-name="SF270000" unicode="&#x255c;" 
d="M-5 395h156v605h86v-605h86v605h86v-691h-414v86z" />
    <glyph glyph-name="SF260000" unicode="&#x255d;" 
d="M-5 309h328v691h86v-777h-414v86zM151 1000h86v-605h-242v86h156v519z" />
    <glyph glyph-name="SF360000" unicode="&#x255e;" 
d="M565 395h-242v-86h242v-86h-242v-585h-86v1362h86v-519h242v-86z" />
    <glyph glyph-name="SF370000" unicode="&#x255f;" 
d="M323 -362v1362h86v-605h156v-86h-156v-671h-86zM151 1000h86v-1362h-86v1362z" />
    <glyph glyph-name="SF420000" unicode="&#x2560;" 
d="M151 1000h86v-1362h-86v1362zM323 -362v671h242v-86h-156v-585h-86zM565 395h-242v605h86v-519h156v-86z" />
    <glyph glyph-name="SF190000" unicode="&#x2561;" 
d="M-5 309h242v86h-242v86h242v519h86v-1362h-86v585h-242v86z" />
    <glyph glyph-name="SF200000" unicode="&#x2562;" 
d="M151 -362v671h-156v86h156v605h86v-1362h-86zM323 -362v1362h86v-1362h-86z" />
    <glyph glyph-name="SF230000" unicode="&#x2563;" 
d="M323 -362v1362h86v-1362h-86zM-5 309h242v-671h-86v585h-156v86zM151 1000h86v-605h-242v86h156v519z" />
    <glyph glyph-name="SF470000" unicode="&#x2564;" 
d="M-5 309h570v-86h-242v-585h-86v585h-242v86zM565 395h-570v86h570v-86z" />
    <glyph glyph-name="SF480000" unicode="&#x2565;" 
d="M-5 395h570v-86h-156v-671h-86v671h-86v-671h-86v671h-156v86z" />
    <glyph glyph-name="SF410000" unicode="&#x2566;" 
d="M-5 309h242v-671h-86v585h-156v86zM323 -362v671h242v-86h-156v-585h-86zM565 395h-570v86h570v-86z" />
    <glyph glyph-name="SF450000" unicode="&#x2567;" 
d="M565 395h-570v86h242v519h86v-519h242v-86zM-5 309h570v-86h-570v86z" />
    <glyph glyph-name="SF460000" unicode="&#x2568;" 
d="M-5 395h156v605h86v-605h86v605h86v-605h156v-86h-570v86z" />
    <glyph glyph-name="SF400000" unicode="&#x2569;" 
d="M565 395h-242v605h86v-519h156v-86zM151 1000h86v-605h-242v86h156v519zM-5 309h570v-86h-570v86z" />
    <glyph glyph-name="SF540000" unicode="&#x256a;" 
d="M565 395h-242v-86h242v-86h-242v-585h-86v585h-242v86h242v86h-242v86h242v519h86v-519h242v-86z" />
    <glyph glyph-name="SF530000" unicode="&#x256b;" 
d="M-5 395h156v605h86v-605h86v605h86v-605h156v-86h-156v-671h-86v671h-86v-671h-86v671h-156v86z" />
    <glyph glyph-name="SF440000" unicode="&#x256c;" 
d="M-5 309h242v-671h-86v585h-156v86zM323 -362v671h242v-86h-156v-585h-86zM565 395h-242v605h86v-519h156v-86zM151 1000h86v-605h-242v86h156v519z" />
    <glyph glyph-name="upblock" unicode="&#x2580;" 
d="M560 319h-560v681h560v-681z" />
    <glyph glyph-name="dnblock" unicode="&#x2584;" 
d="M0 319h560v-681h-560v681z" />
    <glyph glyph-name="block" unicode="&#x2588;" 
d="M0 1000h560v-1362h-560v1362z" />
    <glyph glyph-name="lfblock" unicode="&#x258c;" 
d="M0 1000h280v-1362h-280v1362z" />
    <glyph glyph-name="rtblock" unicode="&#x2590;" 
d="M280 -362v1362h280v-1362h-280z" />
    <glyph glyph-name="ltshade" unicode="&#x2591;" 
d="M448 -292v-68h-56v68h56zM336 -156v-68h-56v68h56zM112 252v-68h-56v68h56zM336 116v-68h-56v68h56zM336 252v-68h-56v68h56zM336 388v-68h-56v68h56zM336 524v-68h-56v68h56zM336 660v-68h-56v68h56zM336 796v-68h-56v68h56zM336 932v-68h-56v68h56zM448 -20v-68h-56v68
h56zM112 -156v-68h-56v68h56zM112 524v-68h-56v68h56zM112 116v-68h-56v68h56zM336 -20v-68h-56v68h56zM112 388v-68h-56v68h56zM224 -20v-68h-56v68h56zM112 660v-68h-56v68h56zM112 796v-68h-56v68h56zM112 932v-68h-56v68h56zM112 -292v-68h-56v68h56zM224 932v-68h-56
v68h56zM224 796v-68h-56v68h56zM224 660v-68h-56v68h56zM224 524v-68h-56v68h56zM224 388v-68h-56v68h56zM448 524v-68h-56v68h56zM224 116v-68h-56v68h56zM112 -20v-68h-56v68h56zM224 -156v-68h-56v68h56zM336 -292v-68h-56v68h56zM448 932v-68h-56v68h56zM448 796v-68
h-56v68h56zM448 660v-68h-56v68h56zM224 252v-68h-56v68h56zM448 388v-68h-56v68h56zM448 252v-68h-56v68h56zM448 116v-68h-56v68h56zM224 -292v-68h-56v68h56zM448 -156v-68h-56v68h56zM560 -292v-68h-56v68h56zM560 -156v-68h-56v68h56zM560 -20v-68h-56v68h56zM560 116
v-68h-56v68h56zM560 252v-68h-56v68h56zM560 388v-68h-56v68h56zM560 524v-68h-56v68h56zM560 660v-68h-56v68h56zM560 796v-68h-56v68h56zM560 932v-68h-56v68h56z" />
    <glyph glyph-name="shade" unicode="&#x2592;" 
d="M503 -292h-55v-68h-57v68h-55v-68h-57v68h-55v-68h-57v68h-55v-68h-57v68h-55v69h55v67h-55v69h55v67h-55v69h55v67h-55v69h55v67h-55v69h55v67h-55v69h55v67h-55v69h55v67h-55v69h55v67h-55v69h55v67h-55v68h56v-67h55v67h57v-67h55v67h57v-67h55v67h57v-67h55v67h57
v-67h56v-69h-56v-67h56v-69h-56v-67h56v-69h-56v-67h56v-69h-56v-67h56v-69h-56v-67h56v-69h-56v-67h56v-69h-56v-67h56v-69h-56v-67h56v-69h-56v-67h56v-69h-57v68zM392 -291h55v67h-55v-67zM168 -291h55v67h-55v-67zM448 -223h55v67h-55v-67zM224 -223h55v67h-55v-67z
M280 797h55v67h-55v-67zM112 729h55v67h-55v-67zM112 -87h55v67h-55v-67zM392 253h55v67h-55v-67zM280 -155h55v67h-55v-67zM392 -19h55v67h-55v-67zM280 -291h55v67h-55v-67zM336 865h55v67h-55v-67zM448 -87h55v67h-55v-67zM168 253h55v67h-55v-67zM56 525h55v67h-55v-67z
M280 661h55v67h-55v-67zM168 -19h55v67h-55v-67zM56 -155h55v67h-55v-67zM336 49h55v67h-55v-67zM56 661h55v67h-55v-67zM280 253h55v67h-55v-67zM280 525h55v67h-55v-67zM392 525h55v67h-55v-67zM112 865h55v67h-55v-67zM168 797h55v67h-55v-67zM168 661h55v67h-55v-67z
M392 389h55v67h-55v-67zM280 117h55v67h-55v-67zM448 321h55v67h-55v-67zM336 185h55v67h-55v-67zM56 117h55v67h-55v-67zM392 797h55v67h-55v-67zM336 -87h55v67h-55v-67zM56 -19h55v67h-55v-67zM224 49h55v67h-55v-67zM224 729h55v67h-55v-67zM224 185h55v67h-55v-67z
M112 49h55v67h-55v-67zM448 185h55v67h-55v-67zM224 321h55v67h-55v-67zM224 457h55v67h-55v-67zM448 865h55v67h-55v-67zM280 -19h55v67h-55v-67zM112 321h55v67h-55v-67zM336 593h55v67h-55v-67zM224 593h55v67h-55v-67zM56 797h55v67h-55v-67zM448 457h55v67h-55v-67z
M112 185h55v67h-55v-67zM168 389h55v67h-55v-67zM336 321h55v67h-55v-67zM448 49h55v67h-55v-67zM168 -155h55v67h-55v-67zM56 389h55v67h-55v-67zM224 -87h55v67h-55v-67zM448 593h55v67h-55v-67zM224 865h55v67h-55v-67zM392 661h55v67h-55v-67zM56 253h55v67h-55v-67z
M168 525h55v67h-55v-67zM336 457h55v67h-55v-67zM392 117h55v67h-55v-67zM112 457h55v67h-55v-67zM448 729h55v67h-55v-67zM280 389h55v67h-55v-67zM336 729h55v67h-55v-67zM168 117h55v67h-55v-67zM112 -223h55v67h-55v-67zM336 -223h55v67h-55v-67zM56 -291h55v67h-55v-67
zM112 593h55v67h-55v-67zM392 -155h55v67h-55v-67z" />
    <glyph glyph-name="dkshade" unicode="&#x2593;" 
d="M56 -360h-56v1360h560v-68h-56v-68h56v-68h-56v-68h56v-68h-56v-68h56v-68h-56v-68h56v-68h-56v-68h56v-68h-56v-68h56v-68h-56v-68h56v-68h-56v-68h56v-68h-56v-68h56v-68h-56v-68h-56v68h-56v-68h-56v68h-56v-68h-56v68h-56v-68h-56v68h-56v-68zM392 48h56v68h-56v-68z
M392 184h56v68h-56v-68zM392 320h56v68h-56v-68zM168 184h56v68h-56v-68zM392 592h56v68h-56v-68zM392 728h56v68h-56v-68zM392 864h56v68h-56v-68zM168 -224h56v68h-56v-68zM56 -88h56v68h-56v-68zM168 48h56v68h-56v-68zM392 456h56v68h-56v-68zM168 320h56v68h-56v-68z
M168 456h56v68h-56v-68zM168 592h56v68h-56v-68zM168 728h56v68h-56v-68zM168 864h56v68h-56v-68zM56 864h56v68h-56v-68zM56 728h56v68h-56v-68zM56 592h56v68h-56v-68zM168 -88h56v68h-56v-68zM56 320h56v68h-56v-68zM280 -88h56v68h-56v-68zM56 48h56v68h-56v-68zM56 456
h56v68h-56v-68zM56 -224h56v68h-56v-68zM392 -88h56v68h-56v-68zM280 864h56v68h-56v-68zM280 728h56v68h-56v-68zM280 592h56v68h-56v-68zM280 456h56v68h-56v-68zM280 320h56v68h-56v-68zM280 184h56v68h-56v-68zM280 48h56v68h-56v-68zM56 184h56v68h-56v-68zM280 -224
h56v68h-56v-68zM392 -224h56v68h-56v-68z" />
    <glyph glyph-name="filledbox" unicode="&#x25a0;" 
d="M26 508h508v-508h-508v508z" />
    <glyph glyph-name="H22073" unicode="&#x25a1;" 
d="M26 508h508v-508h-508v508zM448 86v336h-336v-336h336z" />
    <glyph glyph-name="H18543" unicode="&#x25aa;" 
d="M133 254h267v-254h-267v254z" />
    <glyph glyph-name="H18551" unicode="&#x25ab;" 
d="M133 254h267v-254h-267v254zM314 86v82h-95v-82h95z" />
    <glyph glyph-name="filledrect" unicode="&#x25ac;" 
d="M26 254h508v-254h-508v254z" />
    <glyph glyph-name="uni25AF" unicode="&#x25af;" horiz-adv-x="529" 
d="M42 720h445v-720h-445v720zM364 123v474h-199v-474h199z" />
    <glyph glyph-name="triagup" unicode="&#x25b2;" horiz-adv-x="600" 
d="M570 0h-540l270 540z" />
    <glyph glyph-name="triagrt" unicode="&#x25ba;" horiz-adv-x="600" 
d="M30 540l540 -270l-540 -270v540z" />
    <glyph glyph-name="triagdn" unicode="&#x25bc;" horiz-adv-x="600" 
d="M570 540l-270 -540l-270 540h540z" />
    <glyph glyph-name="triaglf" unicode="&#x25c4;" horiz-adv-x="600" 
d="M570 540v-540l-540 270z" />
    <glyph glyph-name="lozenge" unicode="&#x25ca;" 
d="M344 0h-139l-148 350l149 350h138l159 -350zM276 565l-76 -215l76 -215l84 215z" />
    <glyph glyph-name="circle" unicode="&#x25cb;" 
d="M26 254q0 52 20 98.5t54.5 81t80.5 54.5t99 20q52 0 98.5 -20t81 -54.5t54.5 -81t20 -98.5q0 -53 -20 -99t-54.5 -80.5t-81 -54.5t-98.5 -20q-53 0 -99 20t-80.5 54.5t-54.5 80.5t-20 99zM112 254q0 -35 13 -65.5t36 -53.5t53.5 -36t65.5 -13q34 0 65 13t53.5 36t36 53.5
t13.5 65.5q0 34 -13.5 65t-36 53.5t-53.5 36t-65 13.5q-35 0 -65.5 -13.5t-53.5 -36t-36 -53.5t-13 -65z" />
    <glyph glyph-name="H18533" unicode="&#x25cf;" 
d="M26 254q0 52 20 98.5t54.5 81t80.5 54.5t99 20q52 0 98.5 -20t81 -54.5t54.5 -81t20 -98.5q0 -53 -20 -99t-54.5 -80.5t-81 -54.5t-98.5 -20q-53 0 -99 20t-80.5 54.5t-54.5 80.5t-20 99z" />
    <glyph glyph-name="invbullet" unicode="&#x25d8;" horiz-adv-x="600" 
d="M570 540v-540h-540v540h540zM70 270q0 -48 18 -89.5t49.5 -73t73 -49.5t89.5 -18q47 0 89 18t73.5 49.5t49.5 73t18 89.5q0 47 -18 89t-49.5 73.5t-73.5 49.5t-89 18q-48 0 -89.5 -18t-73 -49.5t-49.5 -73.5t-18 -89z" />
    <glyph glyph-name="invcircle" unicode="&#x25d9;" 
d="M26 508h508v-508h-508v508zM69 254q0 -44 16.5 -82.5t45 -67t67 -45t82.5 -16.5q43 0 81.5 16.5t67.5 45t45.5 67t16.5 82.5q0 43 -16.5 81.5t-45.5 67.5t-67.5 45.5t-81.5 16.5q-44 0 -82.5 -16.5t-67 -45.5t-45 -67.5t-16.5 -81.5zM155 254q0 25 10 48t27 40t39.5 27
t48.5 10q25 0 48 -10t40 -27t27 -40t10 -48q0 -26 -10 -48.5t-27 -39.5t-40 -27t-48 -10q-26 0 -48.5 10t-39.5 27t-27 39.5t-10 48.5z" />
    <glyph glyph-name="openbullet" unicode="&#x25e6;" horiz-adv-x="600" 
d="M70 270q0 47 18 89t49.5 73.5t73 49.5t89.5 18q47 0 89 -18t73.5 -49.5t49.5 -73.5t18 -89q0 -48 -18 -89.5t-49.5 -73t-73.5 -49.5t-89 -18q-48 0 -89.5 18t-73 49.5t-49.5 73t-18 89.5zM157 270q0 -30 11 -56t30.5 -45.5t45.5 -30.5t56 -11q29 0 55 11t45.5 30.5
t31 45.5t11.5 56q0 29 -11.5 55t-31 45.5t-45.5 31t-55 11.5q-30 0 -56 -11.5t-45.5 -31t-30.5 -45.5t-11 -55z" />
    <glyph glyph-name="smileface" unicode="&#x263a;" horiz-adv-x="748" 
d="M50 324q0 67 25.5 126t69 102.5t102.5 69t127 25.5q67 0 126 -25.5t103 -69t69.5 -102.5t25.5 -126q0 -68 -25.5 -127t-69.5 -102.5t-103 -69t-126 -25.5q-68 0 -127 25.5t-102.5 69t-69 102.5t-25.5 127zM130 324q0 -52 18.5 -98t51.5 -80.5t77.5 -54.5t96.5 -20
q51 0 95.5 20t77.5 54.5t52 80.5t19 98q0 51 -19 97t-52 80t-77.5 54t-95.5 20q-52 0 -96.5 -20t-77.5 -54t-51.5 -80t-18.5 -97zM333 415q0 -24 -16 -40t-41 -16q-26 0 -42 16t-16 40q0 23 16 38.5t42 15.5q25 0 41 -15.5t16 -38.5zM525 415q0 -24 -16 -40t-41 -16
q-26 0 -42 16t-16 40q0 23 16 38.5t42 15.5q25 0 41 -15.5t16 -38.5zM374 127q-36 0 -65.5 13t-52 34.5t-36.5 51t-18 62.5h59q6 -19 15 -36t22 -30t31.5 -21t44.5 -8q25 0 44 8t32 21t22 30t15 36h59q-4 -33 -18 -62.5t-36.5 -51t-52 -34.5t-65.5 -13z" />
    <glyph glyph-name="invsmileface" unicode="&#x263b;" horiz-adv-x="748" 
d="M374 647q67 0 126 -25.5t103 -69t69.5 -102.5t25.5 -126q0 -68 -25.5 -127t-69.5 -102.5t-103 -69t-126 -25.5q-68 0 -127 25.5t-102.5 69t-69 102.5t-25.5 127q0 67 25.5 126t69 102.5t102.5 69t127 25.5zM270 475q-26 0 -42 -15.5t-16 -38.5q0 -24 16 -40t42 -16
q25 0 41 16t16 40q0 23 -16 38.5t-41 15.5zM474 475q-26 0 -42 -15.5t-16 -38.5q0 -24 16 -40t42 -16q25 0 41 16t16 40q0 23 -16 38.5t-41 15.5zM491 282q-12 -40 -39 -67.5t-78 -27.5t-78 27.5t-39 67.5h-58q4 -33 18.5 -62.5t37.5 -51t53 -34.5t66 -13t66 13t53 34.5
t37.5 51t18.5 62.5h-58z" />
    <glyph glyph-name="sun" unicode="&#x263c;" horiz-adv-x="735" 
d="M547 273q-6 -27 -21 -51l97 -97l-63 -64l-98 97q-22 -13 -50 -21v-137h-90v136q-28 6 -52 21l-96 -96l-63 64l94 95q-16 26 -22 53h-133v90h132q8 31 22 53l-93 94l63 64l94 -94q13 8 26.5 13.5t27.5 8.5v133h90v-134q29 -8 52 -22l96 95l63 -64l-96 -96q15 -24 21 -51
h137v-90h-138zM365 214q44 0 73 30.5t29 74.5t-29 74.5t-73 30.5t-73 -30.5t-29 -74.5t29 -74.5t73 -30.5z" />
    <glyph glyph-name="female" unicode="&#x2640;" horiz-adv-x="485" 
d="M387 186v-74h-103v-112h-82v112h-103v74h103v88q-33 7 -60.5 23t-48 40t-32 54.5t-11.5 65.5q0 40 15 75t41 60.5t61 40t75 14.5t75 -14.5t61.5 -40t41.5 -60.5t15 -75q0 -35 -11.5 -65t-32 -54t-48 -40t-59.5 -22v-90h103zM129 457q0 -51 31 -83.5t82 -32.5t82.5 32.5
t31.5 83.5t-31.5 84.5t-82.5 33.5t-82 -33.5t-31 -84.5z" />
    <glyph glyph-name="male" unicode="&#x2642;" horiz-adv-x="678" 
d="M550 324l-4 62q-1 5 -1 9v10q0 23 7 52l-4 2l-151 -154q18 -24 28 -53t10 -61q0 -40 -15 -75t-41.5 -60.5t-61.5 -40t-75 -14.5t-75 14.5t-61 40t-41 60.5t-15 75t15 75t41 60.5t61 40t75 14.5q52 0 93 -23l157 154l-2 3q-10 -1 -17.5 -1.5t-15.5 -0.5t-16 0.5t-19 1.5
l-65 3l11 70l245 -12l15 -241zM242 74q51 0 82.5 32.5t31.5 83.5t-31.5 84.5t-82.5 33.5t-82 -33.5t-31 -84.5t31 -83.5t82 -32.5z" />
    <glyph glyph-name="spade" unicode="&#x2660;" horiz-adv-x="652" 
d="M554 78l48 -78h-552l48 78h187l19 162q-25 -42 -58 -60.5t-78 -18.5q-54 0 -86 34t-32 92q0 40 19 79.5t55 82t87 91t115 107.5q64 -59 115 -107.5t87 -91t55 -82t19 -79.5q0 -58 -32 -92t-86 -34q-45 0 -78 18.5t-58 60.5l19 -162h187z" />
    <glyph glyph-name="club" unicode="&#x2663;" horiz-adv-x="652" 
d="M554 78l48 -78h-552l48 78h187l19 162q-25 -42 -56 -60.5t-73 -18.5q-27 0 -50 9t-39.5 25.5t-26 40t-9.5 51.5q0 66 29.5 103t86.5 37q27 0 42 -3t38 -14q-12 10 -23 21q-12 12 -21 26.5t-14.5 33t-5.5 42.5q0 58 39.5 86t104.5 28t104.5 -28t39.5 -86q0 -24 -5.5 -42.5
t-14.5 -33t-21 -26t-23 -21.5q22 11 37.5 14t42.5 3q57 0 86.5 -37t29.5 -103q0 -28 -9.5 -51.5t-26 -40t-39.5 -25.5t-50 -9q-43 0 -74 18.5t-55 60.5l19 -162h187z" />
    <glyph glyph-name="heart" unicode="&#x2665;" horiz-adv-x="700" 
d="M350 0q-63 56 -118 113t-95.5 113.5t-63.5 112.5t-23 109q0 30 9.5 57t27.5 47.5t43.5 32.5t58.5 12q62 0 98 -32.5t63 -90.5q27 58 63 90.5t98 32.5q33 0 58.5 -12t43.5 -32.5t27.5 -47.5t9.5 -57q0 -53 -23.5 -108.5t-64 -112.5t-95 -114t-117.5 -113z" />
    <glyph glyph-name="diamond" unicode="&#x2666;" horiz-adv-x="570" 
d="M50 320l235 328l235 -328l-235 -333z" />
    <glyph glyph-name="musicalnote" unicode="&#x266a;" horiz-adv-x="529" 
d="M381 598q54 -36 76 -68t22 -80q0 -27 -6.5 -50.5t-15.5 -43.5l-35 15q0 36 -3 61.5t-11 44t-21.5 32.5t-33.5 27l-28 18v-458q0 -18 -11 -37t-30.5 -35t-47 -26t-60.5 -10q-59 0 -92.5 24t-33.5 66q0 45 38.5 73.5t101.5 28.5q20 0 36.5 -3.5t28.5 -8.5v467h70z" />
    <glyph glyph-name="musicalnotedbl" unicode="&#x266b;" horiz-adv-x="714" 
d="M664 151q0 -18 -11 -37t-30.5 -35t-47 -26t-60.5 -10q-59 0 -92.5 24t-33.5 66q0 45 38.5 73.5t101.5 28.5q20 0 37 -3.5t28 -8.5v367l-269 -68v-431q0 -18 -11 -37t-31 -35t-47 -26t-60 -10q-59 0 -92.5 24t-33.5 66q0 45 38.5 73.5t101.5 28.5q20 0 36.5 -3.5
t28.5 -8.5v421l409 106v-539z" />
    <glyph glyph-name="uniFB00" unicode="&#xfb00;" horiz-adv-x="618" 
d="M511 412v-412h-154v412h-135v-412h-154v412h-69v108h69v28q0 48 14 81.5t37.5 55t54.5 31t64 9.5q40 0 77.5 -6.5t86.5 -24.5q20 21 49 31t62 10q37 0 65.5 -5.5t49.5 -11.5v-110q-21 6 -39.5 9.5t-30.5 3.5q-26 0 -36.5 -12.5t-10.5 -44.5v-44h93v-108h-93zM357 520v58
q0 10 1 20q-22 5 -42.5 9t-32.5 4q-35 0 -48 -12.5t-13 -44.5v-34h135z" />
    <glyph glyph-name="fi" unicode="&#xfb01;" horiz-adv-x="558" 
d="M409 607q-21 6 -52.5 10t-53.5 4q-27 0 -43 -4t-24.5 -12.5t-11 -21t-2.5 -29.5v-34h294v-520h-155v412h-139v-412h-154v412h-69v108h69v28q0 96 51 141.5t140 45.5q49 0 89 -6t61 -12v-110z" />
    <glyph glyph-name="fl" unicode="&#xfb02;" horiz-adv-x="565" 
d="M368 0v613q-18 4 -39 6t-35 2q-24 0 -38.5 -4.5t-22 -13t-9.5 -21t-2 -28.5v-35h85v-108h-85v-411h-154v411h-69v108h69v29q0 48 13.5 83t37.5 58.5t57.5 34.5t73.5 11q38 0 69 -3.5t52 -8.5l152 6v-729h-155z" />
    <glyph glyph-name="uniFB03" unicode="&#xfb03;" horiz-adv-x="847" 
d="M548 735q49 0 89 -6t61 -12v-110q-21 6 -52.5 10t-53.5 4q-27 0 -43 -4.5t-24.5 -13t-11 -21t-2.5 -28.5v-34h294v-520h-155v412h-139v-412h-154v412h-135v-412h-154v412h-69v108h69v28q0 89 45 133t121 44q42 0 83 -7t94 -27q50 44 137 44zM222 520h135v28q0 14 0.5 26
t2.5 23q-21 6 -45 10t-36 4q-35 0 -46 -12.5t-11 -44.5v-34z" />
    <glyph glyph-name="uniFB04" unicode="&#xfb04;" horiz-adv-x="854" 
d="M539 735q38 0 69 -3.5t52 -8.5l152 6v-729h-155v613q-18 4 -39 6t-35 2q-32 0 -52 -14t-20 -46v-41h97v-108h-97v-412h-154v412h-135v-412h-154v412h-69v108h69v28q0 48 14 81.5t37.5 55t54.5 31t64 9.5q39 0 75.5 -6.5t85.5 -24.5q20 21 51.5 31t88.5 10zM357 598
q-21 5 -42 9t-32 4q-35 0 -48 -12.5t-13 -44.5v-34h135v78z" />
    <glyph glyph-name="uniFEFF" unicode="&#xfeff;" horiz-adv-x="0" 
 />
    <glyph glyph-name="i.latn_TRK" horiz-adv-x="235" 
d="M33 587v133h169v-133h-169zM42 0v520h151v-520h-151z" />
    <glyph glyph-name="Ldot.latn_CAT" horiz-adv-x="510" 
d="M213 720v-594h285v-126h-452v720h167zM302.4 312v133h152.104v-133h-152.104z" />
    <glyph glyph-name="ldot.latn_CAT" horiz-adv-x="417" 
d="M197 0h-155v720h155v-720zM253.4 312v133h152.104v-133h-152.104z" />
    <glyph glyph-name="zero.lf" horiz-adv-x="535" 
d="M268 91q19 0 33.5 11.5t23.5 41t13.5 79t4.5 125.5t-4.5 126.5t-14 80.5t-23.5 42.5t-33 12.5t-33 -12.5t-23 -42.5t-13.5 -80.5t-4.5 -126.5t4.5 -125.5t13.5 -79t23 -41t33 -11.5zM270 -15q-59 0 -103 20.5t-73.5 64.5t-44.5 113t-15 165q0 98 15 167.5t44.5 114t73 65
t101.5 20.5t102.5 -20.5t74 -65t44.5 -114t15 -167.5q0 -190 -61 -276.5t-173 -86.5z" />
    <glyph glyph-name="one.lf" horiz-adv-x="508" 
d="M94 0v115h109v446l-139 -82v136l139 85h155v-585h109v-115h-373z" />
    <glyph glyph-name="two.lf" horiz-adv-x="519" 
d="M23 508q14 102 78 154.5t158 52.5q102 0 157 -50.5t55 -135.5q0 -35 -7 -66t-26 -65.5t-52.5 -77.5t-85.5 -103l-79 -90h245v-127h-428v127l130 161q49 60 77.5 98.5t43.5 64t19.5 43.5t4.5 37q0 68 -59 68q-61 0 -79 -91h-152z" />
    <glyph glyph-name="three.lf" horiz-adv-x="468" 
d="M217 98q30 0 49 23.5t19 74.5q0 60 -22 89.5t-77 29.5h-53v107h64q36 0 58 27t22 73q0 43 -13.5 62t-39.5 19q-25 0 -38.5 -16.5t-20.5 -52.5h-148q11 83 66.5 132t149.5 49q98 0 149.5 -46.5t51.5 -129.5q0 -28 -10 -55t-27 -49.5t-41.5 -38t-51.5 -20.5q28 -5 54 -20
t45.5 -39t30.5 -54.5t11 -63.5q0 -51 -16 -91t-45 -67.5t-70 -41.5t-92 -14q-52 0 -93 14.5t-70 40t-44.5 61t-16.5 78.5h154q2 -36 16.5 -58.5t48.5 -22.5z" />
    <glyph glyph-name="four.lf" horiz-adv-x="514" 
d="M421 445v-198h74v-115h-74v-132h-146v132h-245v123l148 445h134l-138 -453h101v59l37 139h109z" />
    <glyph glyph-name="five.lf" horiz-adv-x="509" 
d="M174 180q9 -82 65 -82q34 0 54 31t20 103q0 38 -5 63.5t-15 40.5t-23.5 21.5t-31.5 6.5q-20 0 -37.5 -11.5t-31.5 -31.5h-119l17 379h358v-110h-219l-11 -156q20 15 44.5 23.5t50.5 8.5q83 0 133 -57.5t50 -170.5q0 -58 -16.5 -104.5t-46.5 -79.5t-72.5 -51t-93.5 -18
q-94 0 -150.5 50.5t-67.5 144.5h148z" />
    </font>
</defs>
</svg>
