<?xml version="1.0" standalone="no"?>
<!DOCTYPE svg PUBLIC "-//W3C//DTD SVG 1.1//EN" "http://www.w3.org/Graphics/SVG/1.1/DTD/svg11.dtd" >
<svg>
<metadata>
Created by FontForge 20120731 at Mon Mar 31 14:10:07 2014
 By tam,,,
Copyright (c) 2010-2013 by Ralph du Carrois, Erik Spiekermann &#38; Botio Nikoltchev. All rights reserved.
</metadata>
<defs>
<font id="CiscoSansTTCondensedLight" horiz-adv-x="560" >
  <font-face 
    font-family="CiscoSansTT Condensed Light"
    font-weight="350"
    font-stretch="condensed"
    units-per-em="1000"
    panose-1="2 11 5 6 2 2 0 2 3 3"
    ascent="790"
    descent="-210"
    x-height="520"
    cap-height="720"
    bbox="-130 -362 1007 1000"
    underline-thickness="85"
    underline-position="-6"
    unicode-range="U+0020-FEFF"
  />
<missing-glyph horiz-adv-x="485" 
d="M60 720h365v-720h-365v720zM358 67v586h-231v-586h231z" />
    <glyph glyph-name="f_f" unicode="ff" horiz-adv-x="537" 
d="M542 659q-19 6 -37 9t-30 3q-26 0 -40 -15.5t-14 -50.5v-85h99v-64h-99v-456h-73v456h-189v-456h-73v456h-66v64h66v45q0 33 8 62.5t26 51.5t46 34.5t67 12.5q37 0 72.5 -9t69.5 -23q32 41 87 41q22 0 42.5 -3.5t37.5 -8.5v-64zM159 520h189v81q0 11 1 21.5t3 20.5
q-22 9 -50 16t-58 7q-48 0 -66.5 -25t-18.5 -72v-49z" />
    <glyph glyph-name="f_f_i" unicode="ffi" horiz-adv-x="737" 
d="M602 0v456h-181v-456h-74v456h-188v-456h-73v456h-66v64h66v45q0 33 8 62.5t25.5 51.5t45 34.5t67.5 12.5q38 0 76 -10t74 -24q17 20 44 31.5t65 11.5q34 0 64.5 -6t47.5 -12v-64q-19 6 -47 12t-52 6q-44 0 -63.5 -17.5t-19.5 -58.5v-75h255v-520h-74zM347 591q0 27 6 50
q-22 10 -50 17.5t-59 7.5q-48 0 -66.5 -25t-18.5 -72v-49h188v71z" />
    <glyph glyph-name="f_f_j" unicode="ffj" horiz-adv-x="737" 
d="M497 -121q14 -4 28.5 -6.5t24.5 -2.5q26 0 39 15t13 59v512h-181v-456h-74v456h-188v-456h-73v456h-66v64h66v45q0 33 8 62.5t26 51.5t46 34.5t67 12.5q38 0 75 -10t72 -24q17 20 44.5 31.5t68.5 11.5q33 0 63 -6t47 -12v-64q-19 6 -47 12t-52 6q-42 0 -62.5 -17.5
t-20.5 -58.5v-75h255v-583q0 -27 -6.5 -51t-20.5 -41.5t-35.5 -28t-52.5 -10.5q-14 0 -30.5 2t-33.5 9v62zM347 591q0 27 6 50q-23 10 -50.5 17.5t-58.5 7.5q-48 0 -66.5 -25t-18.5 -72v-49h188v71z" />
    <glyph glyph-name="f_f_l" unicode="ffl" horiz-adv-x="744" 
d="M611 0v653q-23 8 -51.5 13t-50.5 5q-47 0 -67.5 -21t-20.5 -66v-64h95v-64h-95v-456h-73v456h-189v-456h-73v456h-66v64h66v45q0 33 8 62.5t26 51.5t46 34.5t67 12.5q38 0 75.5 -10t72.5 -25q17 21 45.5 32.5t70.5 11.5q30 0 61.5 -5.5t53.5 -12.5l72 6v-723h-73z
M348 580q0 17 1.5 32t5.5 29q-23 11 -51.5 18t-59.5 7q-48 0 -66.5 -25t-18.5 -72v-49h189v60z" />
    <glyph glyph-name="f_i" unicode="fi" horiz-adv-x="475" 
d="M341 0v456h-182v-456h-73v456h-66v64h66v71q0 64 36 104t108 40q33 0 63.5 -6t48.5 -12v-64q-20 6 -47.5 12t-52.5 6q-43 0 -63 -17.5t-20 -58.5v-75h256v-520h-74z" />
    <glyph glyph-name="f_j" unicode="fj" horiz-adv-x="475" 
d="M236 -121q14 -4 28.5 -6.5t24.5 -2.5q25 0 38.5 15t13.5 59v512h-182v-456h-73v456h-66v64h66v71q0 63 36 103.5t108 40.5q33 0 63.5 -6t48.5 -12v-64q-20 6 -48 12t-52 6q-43 0 -63 -17.5t-20 -58.5v-75h256v-583q0 -27 -6.5 -51t-20.5 -41.5t-36 -28t-52 -10.5
q-14 0 -31 2t-33 9v62z" />
    <glyph glyph-name="f_l" unicode="fl" horiz-adv-x="482" 
d="M348 0v654q-22 7 -50.5 12.5t-50.5 5.5q-49 0 -68.5 -21t-19.5 -66v-65h94v-64h-94v-456h-73v456h-66v64h66v60q0 34 8.5 62.5t26.5 49.5t46 32.5t67 11.5q31 0 62.5 -6t53.5 -12l72 6v-724h-74z" />
    <glyph glyph-name=".notdef" horiz-adv-x="485" 
d="M60 720h365v-720h-365v720zM358 67v586h-231v-586h231z" />
    <glyph glyph-name=".null" horiz-adv-x="0" 
 />
    <glyph glyph-name="nonmarkingreturn" horiz-adv-x="252" 
 />
    <glyph glyph-name="space" unicode=" " horiz-adv-x="252" 
 />
    <glyph glyph-name="exclam" unicode="!" horiz-adv-x="238" 
d="M84 233l-10 487h88l-10 -487h-68zM74 0v97h90v-97h-90z" />
    <glyph glyph-name="quotedbl" unicode="&#x22;" horiz-adv-x="453" 
d="M140 490h-51l-11 153v92h73v-92zM272 490h-51l-11 153v92h72v-92z" />
    <glyph glyph-name="numbersign" unicode="#" 
d="M71 512h73l14 188h65l-15 -188h168l15 188h64l-14 -188h65v-59h-71l-14 -206h68v-59h-73l-14 -188h-65l14 188h-168l-13 -188h-65l14 188h-65v59h70l14 206h-67v59zM188 247h168l15 206h-168z" />
    <glyph glyph-name="dollar" unicode="$" 
d="M249 -11q-170 18 -195 201h79q10 -67 47 -102t104 -35q72 0 107 37t35 95q0 27 -6.5 49t-25.5 40.5t-53 35t-89 33.5q-94 29 -134 75.5t-40 118.5q0 35 10 65t31 53.5t53.5 38t76.5 19.5v117h66v-117q83 -10 128.5 -56t56.5 -125h-77q-10 57 -45 87t-98 30
q-65 0 -94 -30.5t-29 -76.5q0 -23 5 -42t20 -35.5t43 -31t75 -28.5q111 -34 158 -87t47 -129q0 -38 -11.5 -72.5t-35 -61.5t-59 -44.5t-84.5 -22.5v-123h-66v124z" />
    <glyph glyph-name="percent" unicode="%" horiz-adv-x="711" 
d="M237 0h-68l301 700h69zM95 546q0 -61 23 -87.5t61 -26.5t61.5 26.5t23.5 87.5t-23.5 87.5t-61.5 26.5t-61 -26.5t-23 -87.5zM323 546q0 -42 -11 -74t-30.5 -53t-45.5 -31.5t-57 -10.5q-62 0 -103 42t-41 127q0 42 11 74t30.5 53t45.5 31.5t57 10.5t57 -10.5t45.5 -31.5
t30.5 -53t11 -74zM447 154q0 -61 23 -87.5t61 -26.5t61.5 26.5t23.5 87.5t-23.5 87.5t-61.5 26.5t-61 -26.5t-23 -87.5zM676 154q0 -42 -11 -74t-30.5 -53t-46 -31.5t-57.5 -10.5q-62 0 -103 42t-41 127q0 42 11 74t30.5 53t45.5 31.5t57 10.5t57.5 -10.5t46 -31.5t30.5 -53
t11 -74z" />
    <glyph glyph-name="ampersand" unicode="&#x26;" horiz-adv-x="564" 
d="M521 329q-5 -50 -19.5 -101t-39.5 -97l85 -98l-51 -48l-77 91q-33 -42 -77 -66.5t-103 -24.5q-103 0 -154.5 50t-51.5 132q0 37 8.5 66t25 53t39.5 44.5t52 40.5q-22 27 -39 49.5t-28 43.5t-17 42t-6 45q0 31 10 60.5t30 52.5t50.5 37t72.5 14t73 -13.5t51.5 -35
t30 -49.5t9.5 -56q0 -67 -37.5 -116.5t-95.5 -86.5l150 -180q17 37 27 78t15 82zM243 49q42 0 74 20t57 53l-171 204q-44 -32 -68.5 -67t-24.5 -87q0 -57 33 -90t100 -33zM138 552q0 -18 4.5 -34t13.5 -33t24 -37t36 -45q56 38 83 74t27 82q0 16 -4.5 33t-15.5 31t-29 22.5
t-45 8.5t-45 -9t-29 -23.5t-15.5 -33t-4.5 -36.5z" />
    <glyph glyph-name="quotesingle" unicode="'" horiz-adv-x="232" 
d="M142 490h-51l-11 153v92h73v-92z" />
    <glyph glyph-name="parenleft" unicode="(" horiz-adv-x="292" 
d="M131 320q0 -78 10 -146t27.5 -129t41 -114t51.5 -101h-62q-25 38 -50 89t-45 113t-32.5 134.5t-12.5 153.5t12.5 153.5t32.5 134.5t45 113t50 89h62q-28 -48 -51.5 -101t-41 -114t-27.5 -129t-10 -146z" />
    <glyph glyph-name="parenright" unicode=")" horiz-adv-x="292" 
d="M160 320q0 78 -10 146t-27 129t-40.5 114t-51.5 101h62q25 -38 50 -89t45 -113t32.5 -134.5t12.5 -153.5t-12.5 -153.5t-32.5 -134.5t-45 -113t-50 -89h-62q28 48 51.5 101t40.5 114t27 129t10 146z" />
    <glyph glyph-name="asterisk" unicode="*" horiz-adv-x="451" 
d="M225 513l-77 -134l-55 42l98 118l-145 35l22 66l136 -61l-14 156h69l-13 -156l137 61l23 -66l-147 -35l98 -118l-56 -41z" />
    <glyph glyph-name="plus" unicode="+" 
d="M315 515v-160h144v-67h-144v-159h-69v159h-145v67h145v160h69z" />
    <glyph glyph-name="comma" unicode="," horiz-adv-x="289" 
d="M193 11q0 -38 -9.5 -65.5t-26 -46t-37.5 -29.5t-44 -15v43q28 8 43.5 31t15.5 71h-37v97h95v-86z" />
    <glyph glyph-name="hyphen" unicode="-" horiz-adv-x="463" 
d="M384 289h-306v67h306v-67z" />
    <glyph glyph-name="period" unicode="." horiz-adv-x="292" 
d="M99 0v97h94v-97h-94z" />
    <glyph glyph-name="slash" unicode="/" horiz-adv-x="316" 
d="M95 -90h-69l195 825h69z" />
    <glyph glyph-name="zero" unicode="0" 
d="M280 48q70 0 103.5 73.5t33.5 229.5q0 155 -33.5 228t-103.5 73q-71 0 -104 -73t-33 -228q0 -156 33.5 -229.5t103.5 -73.5zM280 -15q-49 0 -88.5 21.5t-67 66t-42 113.5t-14.5 165q0 97 15.5 166t43 113t66.5 64.5t87 20.5q47 0 86 -20.5t67 -65t43.5 -113.5t15.5 -165
q0 -95 -15 -164t-42.5 -114t-67 -66.5t-87.5 -21.5z" />
    <glyph glyph-name="one" unicode="1" 
d="M312 0v624l-138 -88v76l141 88h70v-700h-73z" />
    <glyph glyph-name="two" unicode="2" 
d="M80 524q6 42 23 77.5t44 60.5t63 39t78 14q43 0 78 -13.5t60.5 -38t39.5 -60.5t14 -81q0 -35 -8 -65.5t-24.5 -62t-42.5 -65.5t-63 -77l-158 -183h293v-69h-386v69l204 240q28 33 49 60t34.5 52t20 49t6.5 51q0 60 -29 95.5t-89 35.5q-57 0 -90.5 -34.5t-39.5 -93.5h-77z
" />
    <glyph glyph-name="three" unicode="3" 
d="M280 -14q-93 0 -146.5 48.5t-64.5 131.5h76q10 -57 42.5 -87.5t92.5 -30.5q66 0 100.5 38.5t34.5 104.5q0 37 -10 64.5t-27 45.5t-40 26.5t-50 8.5h-56v65h55q46 0 78.5 33t32.5 95q0 61 -33 92t-86 31q-57 0 -88.5 -30t-39.5 -83h-75q11 81 64.5 128.5t141.5 47.5
q40 0 75 -11.5t61 -34t40.5 -56t14.5 -78.5q0 -60 -31.5 -103t-82.5 -60q27 -5 51 -19.5t42 -37.5t28.5 -54t10.5 -70q0 -46 -14.5 -83.5t-41.5 -64.5t-66 -42t-89 -15z" />
    <glyph glyph-name="four" unicode="4" 
d="M405 700v-504h90v-64h-90v-132h-72v132h-268v71l263 497h77zM333 196v385l-200 -385h200z" />
    <glyph glyph-name="five" unicode="5" 
d="M277 -15q-45 0 -81 14t-62 38.5t-42.5 57.5t-22.5 71h76q10 -54 42.5 -86t89.5 -32q63 0 100.5 47.5t37.5 132.5q0 83 -35 127t-101 44q-45 0 -75.5 -21t-50.5 -52h-61l13 374h354v-63h-286l-9 -237q23 25 54.5 42t78.5 17q88 0 141 -58.5t53 -174.5q0 -51 -14.5 -95.5
t-42.5 -76.5t-67.5 -50.5t-89.5 -18.5z" />
    <glyph glyph-name="six" unicode="6" 
d="M392 572q-10 38 -33.5 60t-68.5 22q-30 0 -55 -14t-44 -48.5t-30.5 -92.5t-14.5 -145q23 51 62 77t90 26q44 0 79 -17t59 -47.5t37 -74t13 -95.5q0 -59 -16 -103.5t-43 -74.5t-63.5 -45t-77.5 -15q-57 0 -97 23.5t-66 67t-38 105.5t-12 140q0 118 18 194t48 120.5
t69.5 62t82.5 17.5q71 0 118.5 -38.5t62.5 -104.5h-80zM284 394q-63 0 -96.5 -46.5t-33.5 -118.5q0 -35 7 -68t22 -58t40 -40t61 -15q57 0 92.5 44.5t35.5 125.5q0 84 -32.5 130t-95.5 46z" />
    <glyph glyph-name="seven" unicode="7" 
d="M225 0h-77l245 633h-304v67h382v-67z" />
    <glyph glyph-name="eight" unicode="8" 
d="M476 539q0 -34 -10 -60.5t-26 -46.5t-36 -34.5t-40 -24.5q24 -11 47.5 -26.5t42.5 -38.5t31 -53.5t12 -69.5q0 -44 -14.5 -80.5t-42.5 -63t-68.5 -41.5t-91.5 -15q-52 0 -92.5 15t-68 41t-42 61.5t-14.5 76.5q0 42 11 73.5t28.5 54t40.5 37.5t47 24q-20 9 -39 23
t-34 33.5t-24 46t-9 61.5q0 47 15.5 81.5t42.5 57t62.5 33.5t75.5 11q39 0 74.5 -10t62.5 -31.5t43 -55t16 -79.5zM419 185q0 42 -14 70t-36.5 45.5t-49.5 27.5t-53 16q-23 -7 -45.5 -19t-40 -31t-28.5 -46t-11 -64q0 -60 35.5 -98.5t102.5 -38.5q66 0 103 37.5t37 100.5z
M156 537q0 -40 13 -66t32.5 -42t42.5 -24t44 -12q21 8 42 19.5t37 29t26 40.5t10 55q0 59 -35.5 89t-87.5 30q-25 0 -47.5 -7t-39.5 -21.5t-27 -37t-10 -53.5z" />
    <glyph glyph-name="nine" unicode="9" 
d="M165 129q10 -39 35 -61t70 -22q30 0 55 14t43.5 48t30 92t14.5 145q-23 -51 -62 -76.5t-88 -25.5q-89 0 -139.5 61.5t-50.5 173.5q0 54 15.5 98t42.5 75t64 47.5t80 16.5q57 0 97.5 -23t65.5 -66.5t36.5 -105.5t11.5 -141q0 -116 -17 -192t-46.5 -121t-69.5 -63t-85 -18
q-72 0 -119.5 39t-63.5 105h80zM276 306q63 0 96 46.5t33 118.5q0 36 -6.5 68.5t-22 57.5t-40.5 40t-61 15q-58 0 -92.5 -44.5t-34.5 -125.5q0 -86 33.5 -131t94.5 -45z" />
    <glyph glyph-name="colon" unicode=":" horiz-adv-x="292" 
d="M99 0v97h94v-97h-94zM99 423v97h94v-97h-94z" />
    <glyph glyph-name="semicolon" unicode=";" horiz-adv-x="292" 
d="M99 423v97h94v-97h-94zM193 11q0 -38 -9.5 -65.5t-26 -46t-37.5 -29.5t-44 -15v43q28 8 43.5 31t15.5 71h-37v97h95v-86z" />
    <glyph glyph-name="less" unicode="&#x3c;" 
d="M176 324v-3l283 -153v-76l-358 195v71l358 195v-76z" />
    <glyph glyph-name="equal" unicode="=" 
d="M459 392h-358v67h358v-67zM459 185h-358v67h358v-67z" />
    <glyph glyph-name="greater" unicode="&#x3e;" 
d="M384 321v3l-283 153v76l358 -195v-71l-358 -195v76z" />
    <glyph glyph-name="question" unicode="?" horiz-adv-x="468" 
d="M44 549q11 87 63 136.5t141 49.5q45 0 80 -13.5t58.5 -37t36 -55.5t12.5 -68q0 -29 -6 -54.5t-19.5 -50t-35 -49.5t-53.5 -53q-16 -15 -26 -28.5t-15 -30.5t-7 -38t-2 -51h-74q0 42 3.5 72t12.5 53t24.5 42.5t39.5 39.5q45 37 62.5 71t17.5 77q0 48 -28 78.5t-83 30.5
q-56 0 -85 -32t-37 -89h-80zM190 0v97h90v-97h-90z" />
    <glyph glyph-name="at" unicode="@" horiz-adv-x="786" 
d="M573 99q-21 0 -37.5 8.5t-28.5 22.5t-19 32t-8 36q-5 -13 -16 -29t-27.5 -29.5t-38 -23t-46.5 -9.5q-28 0 -53 10t-43.5 32t-29.5 55t-11 80q0 60 13.5 109.5t37 85.5t56 56t70.5 20q30 0 57 -16t41 -48l13 57h54l-32 -284q-2 -12 -2 -21v-17q0 -35 12.5 -52.5
t35.5 -17.5q42 0 71.5 63t29.5 178q0 63 -19 114.5t-54 87.5t-84.5 56t-110.5 20q-47 0 -98.5 -19t-94 -61.5t-70 -111t-27.5 -168.5q0 -86 24.5 -150t65.5 -106.5t94 -63.5t110 -21q39 0 73 7.5t60 18.5l7 -61q-26 -11 -63.5 -18.5t-80.5 -7.5q-68 0 -133 25t-115.5 75
t-81 126t-30.5 177q0 115 34 195t87 129.5t116.5 72t122.5 22.5q70 0 132 -23.5t107.5 -67.5t72 -106t26.5 -140q0 -65 -13 -119.5t-35.5 -94.5t-53.5 -62.5t-67 -22.5zM365 165q48 0 78.5 56t30.5 171q0 51 -19 78.5t-56 27.5q-26 0 -47.5 -15.5t-36.5 -43t-23.5 -67
t-8.5 -87.5q0 -63 22 -91.5t60 -28.5z" />
    <glyph glyph-name="A" unicode="A" horiz-adv-x="586" 
d="M498 0l-62 193h-290l-63 -193h-80l245 720h91l244 -720h-85zM168 258h246l-122 384z" />
    <glyph glyph-name="B" unicode="B" horiz-adv-x="552" 
d="M272 720q112 0 165.5 -48t53.5 -133q0 -26 -8 -51t-22.5 -46.5t-35.5 -37.5t-48 -23q61 -11 98.5 -58t37.5 -116q0 -47 -14 -85t-43.5 -65t-74.5 -42t-107 -15h-209v720h207zM143 347v-282h140q75 0 112 36.5t37 105.5q0 66 -37 103t-107 37h-145zM143 659v-250h141
q63 0 95.5 35.5t32.5 92.5q0 58 -33.5 90t-99.5 32h-136z" />
    <glyph glyph-name="C" unicode="C" horiz-adv-x="623" 
d="M325 -15q-67 0 -119.5 25t-89 72.5t-56 116.5t-19.5 158q0 94 21 165t58.5 118.5t89.5 71t114 23.5q51 0 96.5 -17t80 -48t57 -75t27.5 -99h-78q-13 89 -61 131t-122 42q-92 0 -147.5 -76t-55.5 -236q0 -76 15 -133t42 -95.5t64 -57.5t81 -19q82 0 129.5 49.5t55.5 144.5
h78q-4 -57 -24 -105t-54 -82.5t-80 -54t-103 -19.5z" />
    <glyph glyph-name="D" unicode="D" horiz-adv-x="601" 
d="M250 720q71 0 128.5 -22t98 -66.5t62 -112t21.5 -158.5q0 -87 -22.5 -154t-63.5 -113t-98.5 -70t-128.5 -24h-182v720h185zM143 656v-590h108q52 0 94.5 18t72.5 55t46.5 92t16.5 130q0 76 -16.5 131.5t-47 92t-73 54t-93.5 17.5h-108z" />
    <glyph glyph-name="E" unicode="E" horiz-adv-x="489" 
d="M420 333h-277v-266h303v-67h-381v720h381v-67h-303v-254h277v-66z" />
    <glyph glyph-name="F" unicode="F" horiz-adv-x="475" 
d="M436 720v-67h-293v-273h264v-67h-264v-313h-78v720h371z" />
    <glyph glyph-name="G" unicode="G" horiz-adv-x="631" 
d="M575 0h-55l-10 103q-29 -56 -77.5 -87t-116.5 -31q-60 0 -110.5 24t-87 71t-57 117.5t-20.5 162.5q0 93 21 163t58.5 117t89 71t113.5 24q53 0 96.5 -16t75.5 -45t52.5 -69t28.5 -88h-78q-30 152 -174 152q-45 0 -82.5 -19t-64 -57t-41.5 -96.5t-15 -136.5
q0 -77 15.5 -135t43 -96.5t65 -58t81.5 -19.5q40 0 73.5 14.5t57 40t36.5 61t13 77.5v74h-184v64h253v-382z" />
    <glyph glyph-name="H" unicode="H" horiz-adv-x="600" 
d="M535 720v-720h-79v332h-313v-332h-78v720h78v-321h313v321h79z" />
    <glyph glyph-name="I" unicode="I" horiz-adv-x="207" 
d="M143 720v-720h-78v720h78z" />
    <glyph glyph-name="J" unicode="J" horiz-adv-x="460" 
d="M102 184q1 -65 30 -98.5t82 -33.5q51 0 80 37t29 117v514h76v-514q0 -107 -48 -164t-138 -57q-89 0 -138 54t-51 145h78z" />
    <glyph glyph-name="K" unicode="K" horiz-adv-x="540" 
d="M431 0l-288 349v-349h-78v720h78v-330l275 330h88l-291 -345l318 -375h-102z" />
    <glyph glyph-name="L" unicode="L" horiz-adv-x="479" 
d="M143 720v-650h305v-70h-383v720h78z" />
    <glyph glyph-name="M" unicode="M" horiz-adv-x="738" 
d="M337 0l-200 595v-595h-72v720h104l206 -618l197 618h101v-720h-73v590l-189 -590h-74z" />
    <glyph glyph-name="N" unicode="N" horiz-adv-x="613" 
d="M549 720v-720h-91l-323 614v-614h-70v720h97l318 -609v609h69z" />
    <glyph glyph-name="O" unicode="O" horiz-adv-x="657" 
d="M329 50q93 0 150 77.5t57 232.5q0 152 -56 231t-152 79q-97 0 -152 -79t-55 -231q0 -154 57.5 -232t150.5 -78zM329 -15q-64 0 -117 24.5t-91 72t-59 117.5t-21 161t21 161t59.5 117.5t91 72t115.5 24.5q61 0 113.5 -24t91.5 -71.5t61 -117.5t22 -162q0 -90 -21.5 -159.5
t-59.5 -117.5t-90.5 -73t-115.5 -25z" />
    <glyph glyph-name="P" unicode="P" horiz-adv-x="543" 
d="M264 720q118 0 181 -57.5t63 -165.5q0 -52 -16.5 -94.5t-48 -72.5t-78 -46.5t-105.5 -16.5h-117v-267h-78v720h199zM143 655v-323h121q81 0 122 44.5t41 120.5q0 79 -41 118.5t-117 39.5h-126z" />
    <glyph glyph-name="Q" unicode="Q" horiz-adv-x="657" 
d="M329 -15q-64 0 -117 24.5t-91 72t-59 117.5t-21 161t21 161t59.5 117.5t91 72t115.5 24.5q61 0 113.5 -24t91.5 -71.5t61 -117.5t22 -162q0 -105 -28 -181t-79 -124l104 -136l-64 -43l-94 141q-56 -32 -126 -32zM329 50q93 0 150 77.5t57 232.5q0 152 -56 231t-152 79
q-97 0 -152 -79t-55 -231q0 -154 57.5 -232t150.5 -78z" />
    <glyph glyph-name="R" unicode="R" horiz-adv-x="551" 
d="M451 0l-169 285h-142v-285h-78v720h173q45 0 84 -6q91 -14 138.5 -68.5t47.5 -141.5q0 -70 -37.5 -124.5t-109.5 -78.5l182 -301h-89zM140 655v-305h124q80 0 120 41t40 113q0 73 -41.5 112t-116.5 39h-126z" />
    <glyph glyph-name="S" unicode="S" 
d="M284 51q81 0 120 35.5t39 100.5q0 28 -8 50.5t-29.5 42.5t-59.5 38t-97 36q-102 32 -147.5 79.5t-45.5 121.5q0 39 14 72t42 57t69.5 37.5t97.5 13.5q100 0 162.5 -49.5t75.5 -137.5h-78q-10 57 -49 89t-111 32q-75 0 -109.5 -29.5t-34.5 -81.5q0 -26 6.5 -46t24.5 -37
t49.5 -32t81.5 -30q62 -20 105 -42.5t69.5 -49.5t38 -59.5t11.5 -71.5q0 -46 -15.5 -84t-45.5 -65t-74.5 -41.5t-102.5 -14.5q-112 0 -174.5 55.5t-76.5 152.5h79q11 -72 54.5 -107t118.5 -35z" />
    <glyph glyph-name="T" unicode="T" horiz-adv-x="505" 
d="M494 650h-203v-650h-78v650h-202v70h483v-70z" />
    <glyph glyph-name="U" unicode="U" horiz-adv-x="605" 
d="M303 -15q-60 0 -105 18.5t-76 52.5t-46.5 81t-15.5 103v480h78v-487q0 -85 43 -133t122 -48q80 0 123 48t43 133v487h76v-480q0 -57 -16 -103.5t-47 -80.5t-76 -52.5t-103 -18.5z" />
    <glyph glyph-name="V" unicode="V" horiz-adv-x="549" 
d="M85 720l191 -640l194 640h76l-222 -720h-98l-223 720h82z" />
    <glyph glyph-name="W" unicode="W" horiz-adv-x="826" 
d="M819 720l-162 -720h-95l-147 626l-148 -626h-96l-164 720h80l137 -619l146 619h96l143 -617l137 617h73z" />
    <glyph glyph-name="X" unicode="X" horiz-adv-x="550" 
d="M319 375l220 -375h-93l-172 309l-176 -309h-87l222 371l-206 349h91l161 -285l166 285h85z" />
    <glyph glyph-name="Y" unicode="Y" horiz-adv-x="543" 
d="M88 720l184 -365l189 365h79l-231 -436v-284h-76v285l-230 435h85z" />
    <glyph glyph-name="Z" unicode="Z" horiz-adv-x="545" 
d="M118 68h384v-68h-467v69l390 583h-371v68h456v-66z" />
    <glyph glyph-name="bracketleft" unicode="[" horiz-adv-x="259" 
d="M223 -170h-174v980h174v-63h-105v-854h105v-63z" />
    <glyph glyph-name="backslash" unicode="\" horiz-adv-x="306" 
d="M21 735h69l195 -825h-69z" />
    <glyph glyph-name="bracketright" unicode="]" horiz-adv-x="259" 
d="M36 -107h106v854h-106v63h175v-980h-175v63z" />
    <glyph glyph-name="asciicircum" unicode="^" horiz-adv-x="458" 
d="M120 400h-76l149 320h71l150 -320h-76l-109 246z" />
    <glyph glyph-name="underscore" unicode="_" horiz-adv-x="508" 
d="M487 -121h-466v67h466v-67z" />
    <glyph glyph-name="grave" unicode="`" horiz-adv-x="231" 
d="M206 598h-64l-116 137h92z" />
    <glyph glyph-name="a" unicode="a" horiz-adv-x="467" 
d="M46 380q8 72 57.5 113.5t130.5 41.5q85 0 131 -46.5t46 -128.5v-360h-60l-10 79q-20 -38 -57.5 -66t-96.5 -28q-72 0 -111.5 39.5t-39.5 105.5q0 69 39.5 113.5t133.5 59.5l128 20v42q0 111 -105 111q-51 0 -77.5 -24.5t-31.5 -71.5h-77zM337 264l-108 -17
q-66 -11 -91.5 -38.5t-25.5 -72.5q0 -88 93 -88q26 0 50 10.5t42 29t29 44.5t11 56v76z" />
    <glyph glyph-name="b" unicode="b" horiz-adv-x="513" 
d="M60 0v720h74v-283q24 45 61 71.5t91 26.5q89 0 140 -68.5t51 -201.5q0 -137 -53.5 -208.5t-144.5 -71.5q-57 0 -91.5 26.5t-56.5 70.5l-12 -82h-59zM400 267q0 109 -35.5 157t-98.5 48q-61 0 -99.5 -50t-38.5 -159q0 -106 35 -160.5t102 -54.5q66 0 100.5 53t34.5 166z
" />
    <glyph glyph-name="c" unicode="c" horiz-adv-x="474" 
d="M438 160q-5 -37 -20 -69t-39.5 -55.5t-58.5 -37t-76 -13.5q-96 0 -152 67.5t-56 203.5q0 135 55.5 207t151.5 72q80 0 130.5 -44t61.5 -120h-79q-18 101 -111 101q-63 0 -97.5 -53t-34.5 -166q0 -106 36.5 -155.5t96.5 -49.5q51 0 78.5 30t35.5 82h78z" />
    <glyph glyph-name="d" unicode="d" horiz-adv-x="513" 
d="M394 0l-13 86q-23 -45 -58.5 -73t-92.5 -28q-43 0 -78.5 17.5t-61 51.5t-40 84.5t-14.5 117.5q0 140 54.5 209.5t142.5 69.5q49 0 85.5 -23.5t60.5 -68.5v277h74v-720h-59zM113 255q0 -105 36 -156t99 -51t100 53t37 156q0 106 -36 160.5t-101 54.5q-64 0 -99.5 -52
t-35.5 -165z" />
    <glyph glyph-name="e" unicode="e" horiz-adv-x="496" 
d="M451 146q-16 -71 -65 -116t-132 -45q-99 0 -158.5 69t-59.5 206q0 67 15 118.5t43 86.5t66.5 52.5t86.5 17.5t86.5 -17t66 -53t42.5 -91t15 -131h-346q5 -103 43 -149.5t103 -46.5q50 0 78.5 27t37.5 72h78zM248 475q-59 0 -93.5 -43t-41.5 -129h269q-5 87 -39 129.5
t-95 42.5z" />
    <glyph glyph-name="f" unicode="f" horiz-adv-x="276" 
d="M281 659q-38 12 -67 12q-55 0 -55 -66v-85h101v-64h-101v-456h-73v456h-66v64h66v81q0 64 30.5 99t88.5 35q22 0 40.5 -3.5t35.5 -8.5v-64z" />
    <glyph glyph-name="g" unicode="g" horiz-adv-x="512" 
d="M132 -42q8 -46 36.5 -70t82.5 -24q67 0 97 38.5t30 107.5v90q-25 -41 -60 -62t-85 -21q-42 0 -78.5 16.5t-62.5 49t-41 80t-15 109.5t14 111t40 82.5t62.5 51.5t81.5 18q51 0 88 -24.5t60 -68.5l11 78h59v-507q0 -94 -50 -151t-150 -57q-91 0 -138.5 40.5t-58.5 112.5h77
zM113 271q0 -92 37 -141.5t98 -49.5q65 0 101 46.5t36 144.5q0 101 -35.5 151t-101.5 50q-63 0 -99 -49t-36 -152z" />
    <glyph glyph-name="h" unicode="h" horiz-adv-x="485" 
d="M60 0v720h74v-272q46 87 138 87q74 0 115.5 -47.5t41.5 -143.5v-344h-74v343q0 68 -25 98.5t-76 30.5t-85.5 -39.5t-34.5 -113.5v-319h-74z" />
    <glyph glyph-name="i" unicode="i" horiz-adv-x="195" 
d="M60 0v520h74v-520h-74zM57 627v93h82v-93h-82z" />
    <glyph glyph-name="j" unicode="j" horiz-adv-x="194" 
d="M-46 -121q14 -5 29 -7.5t25 -2.5q30 0 41 16t11 58v577h73v-581q0 -62 -27.5 -98t-85.5 -36q-14 0 -31.5 3t-34.5 9v62zM57 627v93h81v-93h-81z" />
    <glyph glyph-name="k" unicode="k" horiz-adv-x="442" 
d="M60 0v720h74v-411l194 211h90l-209 -224l234 -296h-93l-216 274v-274h-74z" />
    <glyph glyph-name="l" unicode="l" horiz-adv-x="195" 
d="M134 0h-74v720h74v-720z" />
    <glyph glyph-name="m" unicode="m" horiz-adv-x="748" 
d="M60 0v520h61l8 -74q23 46 57.5 67.5t76.5 21.5q48 0 82 -23.5t51 -69.5q23 49 58.5 71t86.5 22q72 0 111 -46.5t39 -137.5v-351h-74v346q0 67 -22 96.5t-71 29.5q-27 0 -47.5 -12t-34.5 -33t-21.5 -48.5t-7.5 -58.5v-320h-74v346q0 66 -22 96t-72 30q-25 0 -45.5 -11.5
t-35 -32t-22.5 -48t-8 -59.5v-321h-74z" />
    <glyph glyph-name="n" unicode="n" horiz-adv-x="485" 
d="M60 0v520h61l8 -78q50 93 143 93q74 0 115.5 -47t41.5 -144v-344h-74v343q0 68 -25 98.5t-76 30.5t-85.5 -39.5t-34.5 -113.5v-319h-74z" />
    <glyph glyph-name="o" unicode="o" horiz-adv-x="504" 
d="M112 260q0 -106 37.5 -160t103.5 -54q67 0 103 54t36 160q0 109 -36.5 161.5t-103.5 52.5t-103.5 -53.5t-36.5 -160.5zM36 260q0 69 15.5 121t44 86t68 51t88.5 17q98 0 157 -68.5t59 -206.5q0 -136 -58.5 -205.5t-157.5 -69.5t-157.5 69.5t-58.5 205.5z" />
    <glyph glyph-name="p" unicode="p" horiz-adv-x="513" 
d="M119 520l13 -82q24 45 61.5 71t91.5 26q91 0 141.5 -68.5t50.5 -201.5q0 -68 -14.5 -120.5t-41 -88t-63 -53.5t-79.5 -18q-98 0 -145 95v-260h-74v700h59zM400 267q0 106 -35.5 155.5t-98.5 49.5q-60 0 -99 -50t-39 -159q0 -106 35 -160.5t101 -54.5q64 0 100 53t36 166z
" />
    <glyph glyph-name="q" unicode="q" horiz-adv-x="513" 
d="M453 520v-700h-74v264q-23 -48 -60 -73.5t-88 -25.5q-42 0 -78 17t-62 51t-40.5 85t-14.5 118q0 140 54.5 209.5t141.5 69.5q54 0 90.5 -24t60.5 -67l11 76h59zM113 255q0 -105 36.5 -156t99.5 -51q62 0 99 53t37 156q0 106 -36 160.5t-100 54.5q-65 0 -100.5 -52.5
t-35.5 -164.5z" />
    <glyph glyph-name="r" unicode="r" horiz-adv-x="305" 
d="M60 0v520h61l10 -89q18 53 48.5 78.5t71.5 25.5q14 0 26.5 -2.5t20.5 -4.5v-74q-12 4 -24.5 6.5t-26.5 2.5q-46 0 -79.5 -47t-33.5 -143v-273h-74z" />
    <glyph glyph-name="s" unicode="s" horiz-adv-x="438" 
d="M328 136q0 42 -27.5 67t-102.5 43q-78 19 -115.5 53.5t-37.5 93.5q0 63 42 102.5t130 39.5q77 0 124.5 -39.5t58.5 -108.5h-75q-7 40 -35 64.5t-76 24.5q-51 0 -72.5 -21.5t-21.5 -54.5q0 -18 5 -32t17.5 -25t34 -20t54.5 -18q49 -13 82 -29t52.5 -36t28 -45t8.5 -56
q0 -68 -46 -111t-139 -43q-87 0 -134.5 43t-54.5 115h75q5 -48 33.5 -73t82.5 -25t81.5 24.5t27.5 66.5z" />
    <glyph glyph-name="t" unicode="t" horiz-adv-x="275" 
d="M154 456v-341q0 -33 12 -49t40 -16q11 0 23 1.5t29 6.5v-63q-30 -10 -62 -10q-60 0 -87.5 35t-27.5 97v339h-66v64h66l6 125h67v-125h100v-64h-100z" />
    <glyph glyph-name="u" unicode="u" horiz-adv-x="481" 
d="M130 520v-346q0 -68 25.5 -97t75.5 -29q54 0 85.5 41t31.5 113v318h73v-520h-61l-8 71q-23 -44 -59 -65t-81 -21q-72 0 -114 45.5t-42 143.5v346h74z" />
    <glyph glyph-name="v" unicode="v" horiz-adv-x="441" 
d="M431 520l-162 -520h-97l-161 520h80l131 -452l133 452h76z" />
    <glyph glyph-name="w" unicode="w" horiz-adv-x="685" 
d="M670 520l-127 -520h-89l-110 435l-108 -435h-91l-130 520h76l102 -439l108 439h90l107 -437l99 437h73z" />
    <glyph glyph-name="x" unicode="x" horiz-adv-x="453" 
d="M267 275l175 -275h-87l-132 219l-128 -219h-84l169 272l-160 248h86l119 -192l110 192h82z" />
    <glyph glyph-name="y" unicode="y" horiz-adv-x="442" 
d="M274 -6q-15 -48 -28 -83.5t-29 -59t-35.5 -35t-46.5 -11.5q-25 0 -53 9v61q27 -8 45 -8q14 0 24 7t18.5 22.5t17 41t18.5 62.5h-24l-170 520h80l136 -456l129 456h76z" />
    <glyph glyph-name="z" unicode="z" horiz-adv-x="416" 
d="M105 64h283v-64h-361v71l286 386h-272v63h348v-72z" />
    <glyph glyph-name="braceleft" unicode="{" horiz-adv-x="292" 
d="M32 355q35 0 57 22.5t22 70.5v187q0 42 7.5 75t24.5 55t46 33.5t71 11.5v-60q-49 0 -64.5 -24t-15.5 -69v-181q0 -66 -18 -104t-58 -51q40 -14 58 -51t18 -104v-181q0 -45 15.5 -69t64.5 -24v-60q-42 0 -71 11.5t-46 33.5t-24.5 55t-7.5 75v187q0 48 -22 70.5t-57 22.5
v68z" />
    <glyph glyph-name="bar" unicode="|" horiz-adv-x="300" 
d="M183 785v-925h-66v925h66z" />
    <glyph glyph-name="braceright" unicode="}" horiz-adv-x="292" 
d="M259 287q-34 0 -56 -22.5t-22 -70.5v-204q0 -78 -35 -118t-114 -40v60q48 0 64 24t16 69v198q0 60 20.5 93.5t55.5 44.5q-35 11 -55.5 44.5t-20.5 93.5v198q0 45 -16 69t-64 24v60q79 0 114 -40t35 -118v-204q0 -48 22 -70.5t56 -22.5v-68z" />
    <glyph glyph-name="asciitilde" unicode="~" 
d="M363 329q30 0 53 13.5t43 33.5v-73q-16 -16 -41.5 -28t-57.5 -12q-27 0 -47.5 8.5t-39.5 19t-37 19.5t-39 9q-30 0 -53 -13t-43 -33v73q17 15 42.5 27.5t56.5 12.5q27 0 47.5 -9t39.5 -19.5t37 -19.5t39 -9z" />
    <glyph glyph-name="uni00A0" unicode="&#xa0;" horiz-adv-x="252" 
 />
    <glyph glyph-name="exclamdown" unicode="&#xa1;" horiz-adv-x="238" 
d="M152 307l10 -487h-88l10 487h68zM164 540v-97h-90v97h90z" />
    <glyph glyph-name="cent" unicode="&#xa2;" 
d="M251 -12q-80 11 -126 77.5t-46 190.5q0 122 47 192t125 83v129h66v-127q66 -8 108 -51t53 -111h-79q-9 51 -38 76t-73 25q-60 0 -96 -53t-36 -166q0 -105 37 -155t95 -50q48 0 77 30t37 82h79q-11 -68 -52.5 -115.5t-111.5 -56.5v-123h-66v123z" />
    <glyph glyph-name="sterling" unicode="&#xa3;" 
d="M385 319h-176v-140q0 -37 -12 -64.5t-38 -46.5h319v-68h-402v68q33 14 46 43t13 83v125h-41v61h41v143q0 97 47 144.5t125 47.5q69 0 115 -38.5t60 -115.5h-74q-9 43 -33.5 67t-66.5 24q-49 0 -74 -33.5t-25 -96.5v-142h176v-61z" />
    <glyph glyph-name="currency" unicode="&#xa4;" 
d="M78 340q0 74 30 130l-51 55l44 45l45 -47q25 25 58.5 39t75.5 14t75 -14.5t59 -38.5l45 47l44 -45l-52 -54q31 -59 31 -131q0 -76 -32 -132l53 -55l-44 -45l-47 48q-25 -24 -58 -37.5t-74 -13.5q-42 0 -75 13.5t-58 36.5l-46 -47l-44 45l52 55q-31 57 -31 132zM144 340
q0 -33 8.5 -64.5t26 -55.5t43 -38.5t58.5 -14.5t58.5 14.5t42.5 38.5t26 55.5t9 64.5t-9 64.5t-26 56t-42.5 39t-58.5 14.5t-58.5 -14.5t-43 -39t-26 -56t-8.5 -64.5z" />
    <glyph glyph-name="yen" unicode="&#xa5;" 
d="M440 137h-122v-137h-76v137h-121v58h121v86h-121v59h92l-187 360h85l169 -343l176 343h78l-187 -360h93v-59h-122v-86h122v-58z" />
    <glyph glyph-name="brokenbar" unicode="&#xa6;" horiz-adv-x="300" 
d="M183 245v-385h-66v385h66zM183 785v-385h-66v385h66z" />
    <glyph glyph-name="section" unicode="&#xa7;" 
d="M97 311q0 50 24.5 86.5t72.5 54.5q-71 45 -71 120q0 65 41 104t116 39q72 0 117 -37t57 -98h-76q-8 35 -32.5 55.5t-65.5 20.5q-40 0 -61.5 -22t-21.5 -54q0 -35 20.5 -57.5t75.5 -41.5q95 -33 132.5 -74.5t37.5 -93.5q0 -51 -25 -87t-73 -55q35 -22 53.5 -51t18.5 -68
q0 -66 -42 -104.5t-116 -38.5q-72 0 -117.5 37.5t-57.5 97.5h76q8 -33 33 -54t67 -21q38 0 60.5 21.5t22.5 54.5q0 35 -21 57t-76 42q-49 17 -81.5 35.5t-52 39t-27.5 43.5t-8 49zM294 203q7 1 12.5 2t10.5 3q32 14 52 39.5t20 60.5q0 25 -12.5 44t-32 32.5t-42.5 22.5
t-44 15q-42 -10 -64.5 -38.5t-22.5 -66.5q0 -20 6 -35t20 -28t37.5 -25.5t59.5 -25.5z" />
    <glyph glyph-name="dieresis" unicode="&#xa8;" horiz-adv-x="335" 
d="M35 635v85h79v-85h-79zM220 635v85h78v-85h-78z" />
    <glyph glyph-name="copyright" unicode="&#xa9;" horiz-adv-x="740" 
d="M106 360q0 -82 22 -142.5t58.5 -100t84 -58.5t99.5 -19q51 0 98.5 19t84 58.5t58 100t21.5 142.5t-21.5 142.5t-58 100t-84 58.5t-98.5 19q-52 0 -99.5 -19t-84 -58.5t-58.5 -100t-22 -142.5zM691 360q0 -99 -28 -169.5t-73.5 -116.5t-103 -67.5t-116.5 -21.5
q-60 0 -117.5 21.5t-103 67.5t-73.5 116.5t-28 169.5t28 169.5t73.5 116.5t103 67.5t117.5 21.5q59 0 116.5 -21.5t103 -67.5t73.5 -116.5t28 -169.5zM521 287q-5 -26 -16 -50.5t-29.5 -43t-44.5 -29.5t-60 -11q-30 0 -59 11t-51.5 35.5t-36.5 64t-14 96.5q0 56 13 96.5
t35 66t51 37.5t62 12q60 0 99 -33t49 -93h-64q-6 36 -27 56t-56 20q-44 0 -72.5 -38.5t-28.5 -122.5q0 -44 8.5 -74t22.5 -48.5t32.5 -26.5t38.5 -8q40 0 59.5 25t24.5 58h64z" />
    <glyph glyph-name="ordfeminine" unicode="&#xaa;" horiz-adv-x="415" 
d="M69 623q7 51 45 81.5t95 30.5q62 0 99 -35.5t37 -98.5v-295h-47l-11 54q-14 -27 -41.5 -45.5t-65.5 -18.5q-54 0 -87 31t-33 89q0 57 33.5 92t101.5 46l85 14v30q0 39 -17 61.5t-56 22.5q-64 0 -73 -59h-65zM280 514l-69 -11q-44 -8 -64 -28t-20 -55t18 -52t50 -17
q17 0 32.5 8t27 21.5t18.5 32t7 38.5v63zM362 0h-308v67h308v-67z" />
    <glyph glyph-name="guillemotleft" unicode="&#xab;" horiz-adv-x="428" 
d="M51 315l105 205h54l-77 -208l69 -222h-54zM217 315l106 205h54l-78 -208l69 -222h-54z" />
    <glyph glyph-name="logicalnot" unicode="&#xac;" 
d="M459 356v-240h-67v173h-291v67h358z" />
    <glyph glyph-name="uni00AD" unicode="&#xad;" horiz-adv-x="463" 
d="M384 289h-306v67h306v-67z" />
    <glyph glyph-name="registered" unicode="&#xae;" horiz-adv-x="540" 
d="M58 493q0 64 19 109.5t49.5 74.5t68.5 42.5t75 13.5t75 -13.5t68.5 -42.5t49.5 -74.5t19 -109.5t-19 -109.5t-49.5 -74.5t-68.5 -42.5t-75 -13.5t-75 13.5t-68.5 42.5t-49.5 74.5t-19 109.5zM104 493q0 -52 14 -89t37 -61t53 -35.5t62 -11.5t62 11.5t53 35.5t37 61t14 89
t-14 89t-37 61t-53 35.5t-62 11.5t-62 -11.5t-53 -35.5t-37 -61t-14 -89zM320 367l-48 97h-32v-97h-38v256h68q33 0 57 -19t24 -58q0 -25 -11 -44t-33 -30l55 -105h-42zM240 589v-91h30q19 0 30 14t11 34q0 19 -11.5 31t-32.5 12h-27z" />
    <glyph glyph-name="macron" unicode="&#xaf;" horiz-adv-x="271" 
d="M26 643v64h220v-64h-220z" />
    <glyph glyph-name="degree" unicode="&#xb0;" horiz-adv-x="559" 
d="M139 550q0 -50 21.5 -78.5t57.5 -28.5q35 0 56.5 28.5t21.5 78.5t-21.5 79t-56.5 29q-36 0 -57.5 -29t-21.5 -79zM359 550q0 -39 -11.5 -69.5t-31 -51t-45 -31.5t-53.5 -11q-29 0 -54.5 11t-45 31.5t-31 51t-11.5 69.5t11.5 69.5t31 51t45 31.5t54.5 11q28 0 53.5 -11
t45 -31.5t31 -51t11.5 -69.5z" />
    <glyph glyph-name="plusminus" unicode="&#xb1;" 
d="M314 514v-158h145v-67h-145v-139h-67v139h-146v67h146v158h67zM459 0h-358v67h358v-67z" />
    <glyph glyph-name="twosuperior" unicode="&#xb2;" horiz-adv-x="352" 
d="M39 620q7 57 45.5 90.5t97.5 33.5q57 0 94 -33.5t37 -92.5q0 -23 -6 -42.5t-19 -40t-33.5 -43.5t-48.5 -53l-76 -81h180v-64h-262v64l118 127q21 22 36 40t24 33t13 29.5t4 29.5q0 32 -15 50t-47 18q-30 0 -48 -16t-22 -49h-72z" />
    <glyph glyph-name="threesuperior" unicode="&#xb3;" horiz-adv-x="363" 
d="M184 744q25 0 48.5 -6.5t41 -20.5t28 -36t10.5 -53q0 -35 -20 -62t-58 -38q42 -8 66 -36t24 -77q0 -57 -37 -93t-104 -36q-64 0 -101 33.5t-43 85.5h69q7 -29 24.5 -45t50.5 -16q36 0 53.5 20.5t17.5 52.5q0 44 -21.5 62.5t-48.5 18.5h-30v53h31q20 0 38.5 16t18.5 56
q0 34 -18 49t-44 15q-29 0 -44.5 -16t-18.5 -42h-70q7 53 43 84t94 31z" />
    <glyph glyph-name="acute" unicode="&#xb4;" horiz-adv-x="231" 
d="M113 735h93l-117 -137h-63z" />
    <glyph glyph-name="mu" unicode="&#xb5;" horiz-adv-x="485" 
d="M134 520v-346q0 -68 26 -97t75 -29q54 0 85.5 41t31.5 113v318h73v-520h-61l-8 71q-23 -44 -59 -65t-81 -21q-50 0 -82 25v-190h-74v700h74z" />
    <glyph glyph-name="paragraph" unicode="&#xb6;" horiz-adv-x="511" 
d="M190 -180v562q-17 0 -40.5 8t-45 27.5t-37 52t-15.5 81.5q0 42 12.5 74t33 53t46 31.5t51.5 10.5h62v-900h-67zM440 720v-900h-68v900h68z" />
    <glyph glyph-name="periodcentered" unicode="&#xb7;" horiz-adv-x="292" 
d="M99 270v98h94v-98h-94z" />
    <glyph glyph-name="cedilla" unicode="&#xb8;" horiz-adv-x="263" 
d="M239 -141q0 -45 -29 -74.5t-80 -29.5q-46 0 -75 24.5t-34 69.5h56q2 -18 14.5 -31.5t40.5 -13.5q26 0 38.5 15t12.5 39q0 27 -19 41.5t-66 14.5l8 104h50v-64q40 -8 61.5 -32t21.5 -63z" />
    <glyph glyph-name="onesuperior" unicode="&#xb9;" horiz-adv-x="221" 
d="M181 294h-67v372l-94 -54v67l97 56h64v-441z" />
    <glyph glyph-name="ordmasculine" unicode="&#xba;" horiz-adv-x="399" 
d="M109 515q0 -89 24.5 -127t66.5 -38q41 0 65.5 37.5t24.5 127.5q0 91 -24 128.5t-66 37.5q-41 0 -66 -38.5t-25 -127.5zM41 515q0 63 12.5 105t34.5 67.5t51 36.5t61 11t60.5 -11t50 -36.5t34 -67.5t12.5 -105q0 -62 -12.5 -104t-34.5 -67.5t-50.5 -36.5t-59.5 -11
q-32 0 -61 10.5t-50.5 36t-34.5 67.5t-13 105zM347 0h-303v67h303v-67z" />
    <glyph glyph-name="guillemotright" unicode="&#xbb;" horiz-adv-x="428" 
d="M280 90h-54l69 222l-78 208h54l106 -205zM114 90h-54l68 222l-77 208h54l105 -205z" />
    <glyph glyph-name="onequarter" unicode="&#xbc;" horiz-adv-x="825" 
d="M148 -90l416 880h72l-417 -880h-71zM211 294h-67v372l-94 -54v67l97 56h64v-441zM719 143h56v-59h-56v-83h-62v83h-170v64l162 294h70v-299zM548 143h109v205z" />
    <glyph glyph-name="onehalf" unicode="&#xbd;" horiz-adv-x="851" 
d="M148 -90l416 880h72l-417 -880h-71zM211 294h-67v372l-94 -54v67l97 56h64v-441zM527 327q7 57 45.5 90.5t97.5 33.5q57 0 94 -33.5t37 -92.5q0 -23 -6 -42.5t-19 -40t-33.5 -43.5t-48.5 -53l-76 -81h180v-64h-262v64l118 127q21 22 36 40t24 33t13 29.5t4 29.5
q0 32 -15 50t-47 18q-30 0 -48 -16t-22 -49h-72z" />
    <glyph glyph-name="threequarters" unicode="&#xbe;" horiz-adv-x="900" 
d="M222 -90l416 880h72l-417 -880h-71zM793 143h56v-59h-56v-83h-62v83h-170v64l162 294h70v-299zM622 143h109v205zM195 744q25 0 48.5 -6.5t41 -20.5t28 -36t10.5 -53q0 -35 -20 -62t-58 -38q42 -8 66 -36t24 -77q0 -57 -37 -93t-104 -36q-64 0 -101 33.5t-43 85.5h69
q7 -29 24.5 -45t50.5 -16q36 0 53.5 20.5t17.5 52.5q0 44 -21.5 62.5t-48.5 18.5h-30v53h31q20 0 38.5 16t18.5 56q0 34 -18 49t-44 15q-29 0 -44.5 -16t-18.5 -42h-70q7 53 43 84t94 31z" />
    <glyph glyph-name="questiondown" unicode="&#xbf;" horiz-adv-x="468" 
d="M424 -9q-11 -87 -63.5 -136.5t-140.5 -49.5q-45 0 -80 13.5t-58.5 37t-36 55.5t-12.5 68q0 29 6 54.5t19.5 50t35 49.5t53.5 53q16 15 26 28.5t15 30.5t7 38t2 51h73q0 -42 -3 -72t-12 -53.5t-24.5 -42.5t-39.5 -39q-45 -37 -62.5 -71t-17.5 -77q0 -48 28 -78.5t83 -30.5
q56 0 85 32t37 89h80zM278 540v-97h-90v97h90z" />
    <glyph glyph-name="Agrave" unicode="&#xc0;" horiz-adv-x="586" 
d="M498 0l-62 193h-290l-63 -193h-80l245 720h91l244 -720h-85zM168 258h246l-122 384zM359 768h-64l-116 137h92z" />
    <glyph glyph-name="Aacute" unicode="&#xc1;" horiz-adv-x="586" 
d="M498 0l-62 193h-290l-63 -193h-80l245 720h91l244 -720h-85zM168 258h246l-122 384zM314 905h93l-117 -137h-63z" />
    <glyph glyph-name="Acircumflex" unicode="&#xc2;" horiz-adv-x="586" 
d="M498 0l-62 193h-290l-63 -193h-80l245 720h91l244 -720h-85zM168 258h246l-122 384zM425 768h-74l-59 92l-57 -92h-75l93 137h79z" />
    <glyph glyph-name="Atilde" unicode="&#xc3;" horiz-adv-x="586" 
d="M498 0l-62 193h-290l-63 -193h-80l245 720h91l244 -720h-85zM168 258h246l-122 384zM341 790q-19 0 -31.5 5.5t-23 12t-21 12t-25.5 5.5q-32 0 -69 -35v64q18 15 35 23t37 8q19 0 31 -5.5t22.5 -12.5t21 -12.5t25.5 -5.5q17 0 33 9.5t35 26.5v-64q-19 -15 -34.5 -23
t-35.5 -8z" />
    <glyph glyph-name="Adieresis" unicode="&#xc4;" horiz-adv-x="586" 
d="M498 0l-62 193h-290l-63 -193h-80l245 720h91l244 -720h-85zM168 258h246l-122 384zM161 805v85h79v-85h-79zM346 805v85h78v-85h-78z" />
    <glyph glyph-name="Aring" unicode="&#xc5;" horiz-adv-x="586" 
d="M401 806q0 -36 -14.5 -63.5t-40.5 -41.5l237 -701h-85l-62 193h-290l-63 -193h-80l237 700q-28 14 -42.5 42t-14.5 64q0 51 28 84.5t81 33.5t81 -33.5t28 -84.5zM168 258h246l-122 384zM235 806q0 -34 15 -53t42 -19t42 19t15 53t-14.5 53t-42.5 19t-42.5 -19t-14.5 -53z
" />
    <glyph glyph-name="AE" unicode="&#xc6;" horiz-adv-x="817" 
d="M750 333h-259v-266h283v-67h-362v193h-234l-96 -193h-82l365 720h409v-67h-283v-254h259v-66zM412 258v397l-199 -397h199z" />
    <glyph glyph-name="Ccedilla" unicode="&#xc7;" horiz-adv-x="623" 
d="M434 -141q0 -45 -29 -74.5t-80 -29.5q-47 0 -76 24.5t-34 69.5h57q2 -18 14.5 -31.5t39.5 -13.5q26 0 39 15t13 39q0 27 -19 41.5t-66 14.5l6 73q-123 9 -190.5 105t-67.5 265q0 94 21 165t58.5 118.5t89.5 71t114 23.5q51 0 96.5 -17t80 -48t57 -75t27.5 -99h-78
q-13 89 -61 131t-122 42q-92 0 -147.5 -76t-55.5 -236q0 -76 15 -133t42 -95.5t64 -57.5t81 -19q82 0 129.5 49.5t55.5 144.5h78q-4 -54 -22 -100t-48.5 -80t-72.5 -55t-93 -25v-32q41 -8 62.5 -32t21.5 -63z" />
    <glyph glyph-name="Egrave" unicode="&#xc8;" horiz-adv-x="489" 
d="M420 333h-277v-266h303v-67h-381v720h381v-67h-303v-254h277v-66zM324 768h-64l-116 137h92z" />
    <glyph glyph-name="Eacute" unicode="&#xc9;" horiz-adv-x="489" 
d="M420 333h-277v-266h303v-67h-381v720h381v-67h-303v-254h277v-66zM283 905h93l-117 -137h-63z" />
    <glyph glyph-name="Ecircumflex" unicode="&#xca;" horiz-adv-x="489" 
d="M420 333h-277v-266h303v-67h-381v720h381v-67h-303v-254h277v-66zM387 768h-74l-59 92l-57 -92h-75l93 137h79z" />
    <glyph glyph-name="Edieresis" unicode="&#xcb;" horiz-adv-x="489" 
d="M420 333h-277v-266h303v-67h-381v720h381v-67h-303v-254h277v-66zM122 805v85h79v-85h-79zM307 805v85h78v-85h-78z" />
    <glyph glyph-name="Igrave" unicode="&#xcc;" horiz-adv-x="207" 
d="M143 720v-720h-78v720h78zM170 768h-64l-116 137h92z" />
    <glyph glyph-name="Iacute" unicode="&#xcd;" horiz-adv-x="207" 
d="M143 720v-720h-78v720h78zM125 905h93l-117 -137h-63z" />
    <glyph glyph-name="Icircumflex" unicode="&#xce;" horiz-adv-x="207" 
d="M143 720v-720h-78v720h78zM237 768h-74l-59 92l-57 -92h-75l93 137h79z" />
    <glyph glyph-name="Idieresis" unicode="&#xcf;" horiz-adv-x="207" 
d="M143 720v-720h-78v720h78zM-27 805v85h79v-85h-79zM158 805v85h78v-85h-78z" />
    <glyph glyph-name="Eth" unicode="&#xd0;" horiz-adv-x="601" 
d="M250 720q71 0 128.5 -22t98 -66.5t62 -112t21.5 -158.5q0 -87 -22.5 -154t-63.5 -113t-98.5 -70t-128.5 -24h-182v345h-46v67h46v308h185zM143 656v-244h175v-67h-175v-279h109q51 0 93.5 18t72.5 55t46.5 92t16.5 130q0 76 -16.5 131.5t-47 92t-73 54t-93.5 17.5h-108z
" />
    <glyph glyph-name="Ntilde" unicode="&#xd1;" horiz-adv-x="613" 
d="M549 720v-720h-91l-323 614v-614h-70v720h97l318 -609v609h69zM364 790q-19 0 -31.5 5.5t-23 12t-21 12t-25.5 5.5q-32 0 -69 -35v64q18 15 35 23t37 8q19 0 31 -5.5t22.5 -12.5t21 -12.5t25.5 -5.5q17 0 33 9.5t35 26.5v-64q-19 -15 -34.5 -23t-35.5 -8z" />
    <glyph glyph-name="Ograve" unicode="&#xd2;" horiz-adv-x="657" 
d="M329 50q93 0 150 77.5t57 232.5q0 152 -56 231t-152 79q-97 0 -152 -79t-55 -231q0 -154 57.5 -232t150.5 -78zM329 -15q-64 0 -117 24.5t-91 72t-59 117.5t-21 161t21 161t59.5 117.5t91 72t115.5 24.5q61 0 113.5 -24t91.5 -71.5t61 -117.5t22 -162q0 -90 -21.5 -159.5
t-59.5 -117.5t-90.5 -73t-115.5 -25zM386 768h-64l-116 137h92z" />
    <glyph glyph-name="Oacute" unicode="&#xd3;" horiz-adv-x="657" 
d="M329 50q93 0 150 77.5t57 232.5q0 152 -56 231t-152 79q-97 0 -152 -79t-55 -231q0 -154 57.5 -232t150.5 -78zM329 -15q-64 0 -117 24.5t-91 72t-59 117.5t-21 161t21 161t59.5 117.5t91 72t115.5 24.5q61 0 113.5 -24t91.5 -71.5t61 -117.5t22 -162q0 -90 -21.5 -159.5
t-59.5 -117.5t-90.5 -73t-115.5 -25zM357 905h93l-117 -137h-63z" />
    <glyph glyph-name="Ocircumflex" unicode="&#xd4;" horiz-adv-x="657" 
d="M329 50q93 0 150 77.5t57 232.5q0 152 -56 231t-152 79q-97 0 -152 -79t-55 -231q0 -154 57.5 -232t150.5 -78zM329 -15q-64 0 -117 24.5t-91 72t-59 117.5t-21 161t21 161t59.5 117.5t91 72t115.5 24.5q61 0 113.5 -24t91.5 -71.5t61 -117.5t22 -162q0 -90 -21.5 -159.5
t-59.5 -117.5t-90.5 -73t-115.5 -25zM458 768h-74l-59 92l-57 -92h-75l93 137h79z" />
    <glyph glyph-name="Otilde" unicode="&#xd5;" horiz-adv-x="657" 
d="M329 50q93 0 150 77.5t57 232.5q0 152 -56 231t-152 79q-97 0 -152 -79t-55 -231q0 -154 57.5 -232t150.5 -78zM329 -15q-64 0 -117 24.5t-91 72t-59 117.5t-21 161t21 161t59.5 117.5t91 72t115.5 24.5q61 0 113.5 -24t91.5 -71.5t61 -117.5t22 -162q0 -90 -21.5 -159.5
t-59.5 -117.5t-90.5 -73t-115.5 -25zM377 790q-19 0 -31.5 5.5t-23 12t-21 12t-25.5 5.5q-32 0 -69 -35v64q18 15 35 23t37 8q19 0 31 -5.5t22.5 -12.5t21 -12.5t25.5 -5.5q17 0 33 9.5t35 26.5v-64q-19 -15 -34.5 -23t-35.5 -8z" />
    <glyph glyph-name="Odieresis" unicode="&#xd6;" horiz-adv-x="657" 
d="M329 50q93 0 150 77.5t57 232.5q0 152 -56 231t-152 79q-97 0 -152 -79t-55 -231q0 -154 57.5 -232t150.5 -78zM329 -15q-64 0 -117 24.5t-91 72t-59 117.5t-21 161t21 161t59.5 117.5t91 72t115.5 24.5q61 0 113.5 -24t91.5 -71.5t61 -117.5t22 -162q0 -90 -21.5 -159.5
t-59.5 -117.5t-90.5 -73t-115.5 -25zM192 805v85h79v-85h-79zM377 805v85h78v-85h-78z" />
    <glyph glyph-name="multiply" unicode="&#xd7;" 
d="M382 160l-103 115l-100 -115l-45 47l100 115l-101 114l46 48l101 -115l102 115l45 -47l-102 -115l102 -115z" />
    <glyph glyph-name="Oslash" unicode="&#xd8;" horiz-adv-x="657" 
d="M329 -15q-42 0 -81 12l-33 -107h-67l41 131q-69 41 -108.5 126t-39.5 213q0 91 21 161t59.5 117.5t91 72t115.5 24.5q45 0 83 -13l31 98h67l-40 -125q67 -42 107 -125.5t40 -209.5q0 -90 -21.5 -159.5t-59.5 -117.5t-90.5 -73t-115.5 -25zM121 360q0 -101 24.5 -168.5
t69.5 -103.5l181 569q-16 6 -32.5 9.5t-35.5 3.5q-97 0 -152 -79t-55 -231zM329 50q93 0 150 77.5t57 232.5q0 98 -24 166t-69 104l-180 -569q31 -11 66 -11z" />
    <glyph glyph-name="Ugrave" unicode="&#xd9;" horiz-adv-x="605" 
d="M303 -15q-60 0 -105 18.5t-76 52.5t-46.5 81t-15.5 103v480h78v-487q0 -85 43 -133t122 -48q80 0 123 48t43 133v487h76v-480q0 -57 -16 -103.5t-47 -80.5t-76 -52.5t-103 -18.5zM366 768h-64l-116 137h92z" />
    <glyph glyph-name="Uacute" unicode="&#xda;" horiz-adv-x="605" 
d="M303 -15q-60 0 -105 18.5t-76 52.5t-46.5 81t-15.5 103v480h78v-487q0 -85 43 -133t122 -48q80 0 123 48t43 133v487h76v-480q0 -57 -16 -103.5t-47 -80.5t-76 -52.5t-103 -18.5zM333 905h93l-117 -137h-63z" />
    <glyph glyph-name="Ucircumflex" unicode="&#xdb;" horiz-adv-x="605" 
d="M303 -15q-60 0 -105 18.5t-76 52.5t-46.5 81t-15.5 103v480h78v-487q0 -85 43 -133t122 -48q80 0 123 48t43 133v487h76v-480q0 -57 -16 -103.5t-47 -80.5t-76 -52.5t-103 -18.5zM436 768h-74l-59 92l-57 -92h-75l93 137h79z" />
    <glyph glyph-name="Udieresis" unicode="&#xdc;" horiz-adv-x="605" 
d="M303 -15q-60 0 -105 18.5t-76 52.5t-46.5 81t-15.5 103v480h78v-487q0 -85 43 -133t122 -48q80 0 123 48t43 133v487h76v-480q0 -57 -16 -103.5t-47 -80.5t-76 -52.5t-103 -18.5zM171 805v85h79v-85h-79zM356 805v85h78v-85h-78z" />
    <glyph glyph-name="Yacute" unicode="&#xdd;" horiz-adv-x="543" 
d="M88 720l184 -365l189 365h79l-231 -436v-284h-76v285l-230 435h85zM313 905h93l-117 -137h-63z" />
    <glyph glyph-name="Thorn" unicode="&#xde;" horiz-adv-x="543" 
d="M143 720v-122h128q53 0 96.5 -15t75 -44.5t48.5 -73t17 -100.5q0 -56 -18 -99.5t-49.5 -73t-75 -45t-93.5 -15.5h-129v-132h-78v720h78zM143 533v-336h129q72 0 113.5 44.5t41.5 123.5q0 80 -40 124t-114 44h-130z" />
    <glyph glyph-name="germandbls" unicode="&#xdf;" horiz-adv-x="507" 
d="M246 112q3 -23 21.5 -40.5t56.5 -17.5q44 0 65.5 27.5t21.5 68.5q0 40 -17 68.5t-59 54.5q-27 16 -45 31t-29.5 30.5t-16 33t-4.5 38.5q0 28 13.5 48.5t29 39t29 39.5t13.5 50q0 41 -24 65t-70 24q-48 0 -72.5 -33.5t-24.5 -105.5v-533h-74v531q0 46 10.5 83.5t32 64.5
t53.5 41.5t76 14.5q34 0 64.5 -9t53 -27t35.5 -46t13 -66q0 -39 -14 -64t-30.5 -44t-30 -35.5t-13.5 -38.5q0 -20 12.5 -38t50.5 -40q62 -36 88.5 -76.5t26.5 -96.5q0 -35 -11 -66t-32 -54t-51 -36t-68 -13q-69 0 -108 33.5t-48 93.5h76z" />
    <glyph glyph-name="agrave" unicode="&#xe0;" horiz-adv-x="467" 
d="M46 380q8 72 57.5 113.5t130.5 41.5q85 0 131 -46.5t46 -128.5v-360h-60l-10 79q-20 -38 -57.5 -66t-96.5 -28q-72 0 -111.5 39.5t-39.5 105.5q0 69 39.5 113.5t133.5 59.5l128 20v42q0 111 -105 111q-51 0 -77.5 -24.5t-31.5 -71.5h-77zM337 264l-108 -17
q-66 -11 -91.5 -38.5t-25.5 -72.5q0 -88 93 -88q26 0 50 10.5t42 29t29 44.5t11 56v76zM281 598h-64l-116 137h92z" />
    <glyph glyph-name="aacute" unicode="&#xe1;" horiz-adv-x="467" 
d="M46 380q8 72 57.5 113.5t130.5 41.5q85 0 131 -46.5t46 -128.5v-360h-60l-10 79q-20 -38 -57.5 -66t-96.5 -28q-72 0 -111.5 39.5t-39.5 105.5q0 69 39.5 113.5t133.5 59.5l128 20v42q0 111 -105 111q-51 0 -77.5 -24.5t-31.5 -71.5h-77zM337 264l-108 -17
q-66 -11 -91.5 -38.5t-25.5 -72.5q0 -88 93 -88q26 0 50 10.5t42 29t29 44.5t11 56v76zM281 735h93l-117 -137h-63z" />
    <glyph glyph-name="acircumflex" unicode="&#xe2;" horiz-adv-x="467" 
d="M46 380q8 72 57.5 113.5t130.5 41.5q85 0 131 -46.5t46 -128.5v-360h-60l-10 79q-20 -38 -57.5 -66t-96.5 -28q-72 0 -111.5 39.5t-39.5 105.5q0 69 39.5 113.5t133.5 59.5l128 20v42q0 111 -105 111q-51 0 -77.5 -24.5t-31.5 -71.5h-77zM337 264l-108 -17
q-66 -11 -91.5 -38.5t-25.5 -72.5q0 -88 93 -88q26 0 50 10.5t42 29t29 44.5t11 56v76zM366 598h-74l-59 92l-57 -92h-75l93 137h79z" />
    <glyph glyph-name="atilde" unicode="&#xe3;" horiz-adv-x="467" 
d="M46 380q8 72 57.5 113.5t130.5 41.5q85 0 131 -46.5t46 -128.5v-360h-60l-10 79q-20 -38 -57.5 -66t-96.5 -28q-72 0 -111.5 39.5t-39.5 105.5q0 69 39.5 113.5t133.5 59.5l128 20v42q0 111 -105 111q-51 0 -77.5 -24.5t-31.5 -71.5h-77zM337 264l-108 -17
q-66 -11 -91.5 -38.5t-25.5 -72.5q0 -88 93 -88q26 0 50 10.5t42 29t29 44.5t11 56v76zM283 620q-19 0 -31.5 5.5t-23 12t-21 12t-25.5 5.5q-32 0 -69 -35v64q18 15 35 23t37 8q19 0 31 -5.5t22.5 -12.5t21 -12.5t25.5 -5.5q17 0 33 9.5t35 26.5v-64q-19 -15 -34.5 -23
t-35.5 -8z" />
    <glyph glyph-name="adieresis" unicode="&#xe4;" horiz-adv-x="467" 
d="M46 380q8 72 57.5 113.5t130.5 41.5q85 0 131 -46.5t46 -128.5v-360h-60l-10 79q-20 -38 -57.5 -66t-96.5 -28q-72 0 -111.5 39.5t-39.5 105.5q0 69 39.5 113.5t133.5 59.5l128 20v42q0 111 -105 111q-51 0 -77.5 -24.5t-31.5 -71.5h-77zM337 264l-108 -17
q-66 -11 -91.5 -38.5t-25.5 -72.5q0 -88 93 -88q26 0 50 10.5t42 29t29 44.5t11 56v76zM100 635v85h79v-85h-79zM285 635v85h78v-85h-78z" />
    <glyph glyph-name="aring" unicode="&#xe5;" horiz-adv-x="467" 
d="M46 380q8 72 57.5 113.5t130.5 41.5q85 0 131 -46.5t46 -128.5v-360h-60l-10 79q-20 -38 -57.5 -66t-96.5 -28q-72 0 -111.5 39.5t-39.5 105.5q0 69 39.5 113.5t133.5 59.5l128 20v42q0 111 -105 111q-51 0 -77.5 -24.5t-31.5 -71.5h-77zM337 264l-108 -17
q-66 -11 -91.5 -38.5t-25.5 -72.5q0 -88 93 -88q26 0 50 10.5t42 29t29 44.5t11 56v76zM176 700q0 -33 15 -52.5t41 -19.5q27 0 42 19.5t15 52.5q0 34 -14.5 53t-42.5 19q-27 0 -41.5 -19t-14.5 -53zM341 700q0 -51 -27.5 -84.5t-81.5 -33.5q-53 0 -81 33.5t-28 84.5
t28 84.5t81 33.5t81 -33.5t28 -84.5z" />
    <glyph glyph-name="ae" unicode="&#xe6;" horiz-adv-x="796" 
d="M751 147q-16 -74 -66 -118t-130 -44q-58 0 -107 28t-79 96q-9 -25 -24 -47.5t-36 -39.5t-49 -27t-62 -10q-78 0 -120 36.5t-42 105.5q0 142 171 166l130 18v54q0 51 -24 81t-81 30q-98 0 -109 -96h-77q3 37 19 66t40.5 49t57 30t70.5 10q57 0 95 -25t58 -73q31 54 74 76
t88 22t83 -15.5t66 -49.5t44 -87t16 -128h-346q1 -60 13.5 -100t32 -63.5t45 -33.5t54.5 -10q46 0 76 26.5t41 72.5h78zM207 48q25 0 48.5 9.5t41.5 27t29 41.5t11 54v72l-110 -16q-67 -10 -91 -38t-24 -67q0 -83 95 -83zM549 475q-54 0 -89.5 -39t-45.5 -121h268
q-6 78 -38.5 119t-94.5 41z" />
    <glyph glyph-name="ccedilla" unicode="&#xe7;" horiz-adv-x="474" 
d="M351 -141q0 -45 -29 -74.5t-80 -29.5q-47 0 -75.5 24.5t-33.5 69.5h56q2 -18 14.5 -31.5t40.5 -13.5q26 0 38.5 15t12.5 39q0 27 -19 41.5t-66 14.5l6 73q-84 9 -132 75.5t-48 193.5q0 135 55.5 207t151.5 72q80 0 130.5 -44t61.5 -120h-79q-18 101 -111 101
q-63 0 -97.5 -53t-34.5 -166q0 -106 36.5 -155.5t96.5 -49.5q51 0 78.5 30t35.5 82h78q-10 -69 -53.5 -117.5t-117.5 -55.5v-33q41 -8 62.5 -32t21.5 -63z" />
    <glyph glyph-name="egrave" unicode="&#xe8;" horiz-adv-x="496" 
d="M451 146q-16 -71 -65 -116t-132 -45q-99 0 -158.5 69t-59.5 206q0 67 15 118.5t43 86.5t66.5 52.5t86.5 17.5t86.5 -17t66 -53t42.5 -91t15 -131h-346q5 -103 43 -149.5t103 -46.5q50 0 78.5 27t37.5 72h78zM248 475q-59 0 -93.5 -43t-41.5 -129h269q-5 87 -39 129.5
t-95 42.5zM293 598h-64l-116 137h92z" />
    <glyph glyph-name="eacute" unicode="&#xe9;" horiz-adv-x="496" 
d="M451 146q-16 -71 -65 -116t-132 -45q-99 0 -158.5 69t-59.5 206q0 67 15 118.5t43 86.5t66.5 52.5t86.5 17.5t86.5 -17t66 -53t42.5 -91t15 -131h-346q5 -103 43 -149.5t103 -46.5q50 0 78.5 27t37.5 72h78zM248 475q-59 0 -93.5 -43t-41.5 -129h269q-5 87 -39 129.5
t-95 42.5zM294 735h93l-117 -137h-63z" />
    <glyph glyph-name="ecircumflex" unicode="&#xea;" horiz-adv-x="496" 
d="M451 146q-16 -71 -65 -116t-132 -45q-99 0 -158.5 69t-59.5 206q0 67 15 118.5t43 86.5t66.5 52.5t86.5 17.5t86.5 -17t66 -53t42.5 -91t15 -131h-346q5 -103 43 -149.5t103 -46.5q50 0 78.5 27t37.5 72h78zM248 475q-59 0 -93.5 -43t-41.5 -129h269q-5 87 -39 129.5
t-95 42.5zM378 598h-74l-59 92l-57 -92h-75l93 137h79z" />
    <glyph glyph-name="edieresis" unicode="&#xeb;" horiz-adv-x="496" 
d="M451 146q-16 -71 -65 -116t-132 -45q-99 0 -158.5 69t-59.5 206q0 67 15 118.5t43 86.5t66.5 52.5t86.5 17.5t86.5 -17t66 -53t42.5 -91t15 -131h-346q5 -103 43 -149.5t103 -46.5q50 0 78.5 27t37.5 72h78zM248 475q-59 0 -93.5 -43t-41.5 -129h269q-5 87 -39 129.5
t-95 42.5zM114 635v85h79v-85h-79zM299 635v85h78v-85h-78z" />
    <glyph glyph-name="igrave" unicode="&#xec;" horiz-adv-x="195" 
d="M157 598h-64l-116 137h92zM60 0v520h74v-520h-74z" />
    <glyph glyph-name="iacute" unicode="&#xed;" horiz-adv-x="195" 
d="M129 735h93l-117 -137h-63zM60 0v520h74v-520h-74z" />
    <glyph glyph-name="icircumflex" unicode="&#xee;" horiz-adv-x="195" 
d="M60 0v520h74v-520h-74zM231 598h-74l-59 92l-57 -92h-75l93 137h79z" />
    <glyph glyph-name="idieresis" unicode="&#xef;" horiz-adv-x="195" 
d="M-21 635v85h79v-85h-79zM138 635v85h78v-85h-78zM60 0v520h74v-520h-74z" />
    <glyph glyph-name="eth" unicode="&#xf0;" horiz-adv-x="486" 
d="M120 742q45 -7 86 -20.5t77 -36.5l29 35h77l-59 -70q55 -51 86 -132t31 -201q0 -77 -12.5 -138.5t-38 -104.5t-64.5 -66t-93 -23q-94 0 -148.5 66t-54.5 187q0 53 13 97.5t37 77t58.5 50.5t78.5 18q57 0 95 -30.5t54 -75.5q-6 81 -28 135t-57 89l-37 -43h-76l67 79
q-28 17 -59 26t-65 14zM371 232q0 39 -7.5 72.5t-24 59t-42 40t-61.5 14.5q-60 0 -92.5 -45t-32.5 -140q0 -94 33.5 -139.5t93.5 -45.5q66 0 99.5 48t33.5 136z" />
    <glyph glyph-name="ntilde" unicode="&#xf1;" horiz-adv-x="485" 
d="M60 0v520h61l8 -78q50 93 143 93q74 0 115.5 -47t41.5 -144v-344h-74v343q0 68 -25 98.5t-76 30.5t-85.5 -39.5t-34.5 -113.5v-319h-74zM302 620q-19 0 -31.5 5.5t-23 12t-21 12t-25.5 5.5q-32 0 -69 -35v64q18 15 35 23t37 8q19 0 31 -5.5t22.5 -12.5t21 -12.5
t25.5 -5.5q17 0 33 9.5t35 26.5v-64q-19 -15 -34.5 -23t-35.5 -8z" />
    <glyph glyph-name="ograve" unicode="&#xf2;" horiz-adv-x="504" 
d="M112 260q0 -106 37.5 -160t103.5 -54q67 0 103 54t36 160q0 109 -36.5 161.5t-103.5 52.5t-103.5 -53.5t-36.5 -160.5zM36 260q0 69 15.5 121t44 86t68 51t88.5 17q98 0 157 -68.5t59 -206.5q0 -136 -58.5 -205.5t-157.5 -69.5t-157.5 69.5t-58.5 205.5zM302 598h-64
l-116 137h92z" />
    <glyph glyph-name="oacute" unicode="&#xf3;" horiz-adv-x="504" 
d="M112 260q0 -106 37.5 -160t103.5 -54q67 0 103 54t36 160q0 109 -36.5 161.5t-103.5 52.5t-103.5 -53.5t-36.5 -160.5zM36 260q0 69 15.5 121t44 86t68 51t88.5 17q98 0 157 -68.5t59 -206.5q0 -136 -58.5 -205.5t-157.5 -69.5t-157.5 69.5t-58.5 205.5zM291 735h93
l-117 -137h-63z" />
    <glyph glyph-name="ocircumflex" unicode="&#xf4;" horiz-adv-x="504" 
d="M112 260q0 -106 37.5 -160t103.5 -54q67 0 103 54t36 160q0 109 -36.5 161.5t-103.5 52.5t-103.5 -53.5t-36.5 -160.5zM36 260q0 69 15.5 121t44 86t68 51t88.5 17q98 0 157 -68.5t59 -206.5q0 -136 -58.5 -205.5t-157.5 -69.5t-157.5 69.5t-58.5 205.5zM383 598h-74
l-59 92l-57 -92h-75l93 137h79z" />
    <glyph glyph-name="otilde" unicode="&#xf5;" horiz-adv-x="504" 
d="M112 260q0 -106 37.5 -160t103.5 -54q67 0 103 54t36 160q0 109 -36.5 161.5t-103.5 52.5t-103.5 -53.5t-36.5 -160.5zM36 260q0 69 15.5 121t44 86t68 51t88.5 17q98 0 157 -68.5t59 -206.5q0 -136 -58.5 -205.5t-157.5 -69.5t-157.5 69.5t-58.5 205.5zM301 620
q-19 0 -31.5 5.5t-23 12t-21 12t-25.5 5.5q-32 0 -69 -35v64q18 15 35 23t37 8q19 0 31 -5.5t22.5 -12.5t21 -12.5t25.5 -5.5q17 0 33 9.5t35 26.5v-64q-19 -15 -34.5 -23t-35.5 -8z" />
    <glyph glyph-name="odieresis" unicode="&#xf6;" horiz-adv-x="504" 
d="M112 260q0 -106 37.5 -160t103.5 -54q67 0 103 54t36 160q0 109 -36.5 161.5t-103.5 52.5t-103.5 -53.5t-36.5 -160.5zM36 260q0 69 15.5 121t44 86t68 51t88.5 17q98 0 157 -68.5t59 -206.5q0 -136 -58.5 -205.5t-157.5 -69.5t-157.5 69.5t-58.5 205.5zM121 635v85h79
v-85h-79zM306 635v85h78v-85h-78z" />
    <glyph glyph-name="divide" unicode="&#xf7;" 
d="M237 64v97h86v-97h-86zM237 483v97h86v-97h-86zM459 289h-358v67h358v-67z" />
    <glyph glyph-name="oslash" unicode="&#xf8;" horiz-adv-x="504" 
d="M36 260q0 69 15.5 121t44 86t68 51t88.5 17q19 0 36.5 -2.5t34.5 -8.5l42 106h65l-52 -133q42 -32 66 -91t24 -146q0 -136 -58.5 -205.5t-157.5 -69.5q-38 0 -71 12l-41 -107h-67l53 133q-43 33 -66.5 92t-23.5 145zM392 260q0 60 -12 103t-35 69l-142 -377q22 -9 50 -9
q67 0 103 54t36 160zM112 260q0 -60 12 -102.5t35 -68.5l142 376q-23 9 -49 9q-67 0 -103.5 -53.5t-36.5 -160.5z" />
    <glyph glyph-name="ugrave" unicode="&#xf9;" horiz-adv-x="481" 
d="M130 520v-346q0 -68 25.5 -97t75.5 -29q54 0 85.5 41t31.5 113v318h73v-520h-61l-8 71q-23 -44 -59 -65t-81 -21q-72 0 -114 45.5t-42 143.5v346h74zM291 598h-64l-116 137h92z" />
    <glyph glyph-name="uacute" unicode="&#xfa;" horiz-adv-x="481" 
d="M130 520v-346q0 -68 25.5 -97t75.5 -29q54 0 85.5 41t31.5 113v318h73v-520h-61l-8 71q-23 -44 -59 -65t-81 -21q-72 0 -114 45.5t-42 143.5v346h74zM278 735h93l-117 -137h-63z" />
    <glyph glyph-name="ucircumflex" unicode="&#xfb;" horiz-adv-x="481" 
d="M130 520v-346q0 -68 25.5 -97t75.5 -29q54 0 85.5 41t31.5 113v318h73v-520h-61l-8 71q-23 -44 -59 -65t-81 -21q-72 0 -114 45.5t-42 143.5v346h74zM372 598h-74l-59 92l-57 -92h-75l93 137h79z" />
    <glyph glyph-name="udieresis" unicode="&#xfc;" horiz-adv-x="481" 
d="M130 520v-346q0 -68 25.5 -97t75.5 -29q54 0 85.5 41t31.5 113v318h73v-520h-61l-8 71q-23 -44 -59 -65t-81 -21q-72 0 -114 45.5t-42 143.5v346h74zM107 635v85h79v-85h-79zM292 635v85h78v-85h-78z" />
    <glyph glyph-name="yacute" unicode="&#xfd;" horiz-adv-x="442" 
d="M274 -6q-15 -48 -28 -83.5t-29 -59t-35.5 -35t-46.5 -11.5q-25 0 -53 9v61q27 -8 45 -8q14 0 24 7t18.5 22.5t17 41t18.5 62.5h-24l-170 520h80l136 -456l129 456h76zM262 735h93l-117 -137h-63z" />
    <glyph glyph-name="thorn" unicode="&#xfe;" horiz-adv-x="513" 
d="M60 -180v900h74v-283q24 45 61 71.5t91 26.5q89 0 140 -68.5t51 -201.5q0 -137 -53.5 -208.5t-144.5 -71.5q-55 0 -89.5 24.5t-55.5 66.5v-256h-74zM400 267q0 109 -35.5 157t-98.5 48q-61 0 -99.5 -50t-38.5 -159q0 -106 35 -160.5t102 -54.5q66 0 100.5 53t34.5 166z
" />
    <glyph glyph-name="ydieresis" unicode="&#xff;" horiz-adv-x="442" 
d="M274 -6q-15 -48 -28 -83.5t-29 -59t-35.5 -35t-46.5 -11.5q-25 0 -53 9v61q27 -8 45 -8q14 0 24 7t18.5 22.5t17 41t18.5 62.5h-24l-170 520h80l136 -456l129 456h76zM91 635v85h79v-85h-79zM276 635v85h78v-85h-78z" />
    <glyph glyph-name="Amacron" unicode="&#x100;" horiz-adv-x="586" 
d="M498 0l-62 193h-290l-63 -193h-80l245 720h91l244 -720h-85zM168 258h246l-122 384zM181 813v64h220v-64h-220z" />
    <glyph glyph-name="amacron" unicode="&#x101;" horiz-adv-x="467" 
d="M46 380q8 72 57.5 113.5t130.5 41.5q85 0 131 -46.5t46 -128.5v-360h-60l-10 79q-20 -38 -57.5 -66t-96.5 -28q-72 0 -111.5 39.5t-39.5 105.5q0 69 39.5 113.5t133.5 59.5l128 20v42q0 111 -105 111q-51 0 -77.5 -24.5t-31.5 -71.5h-77zM337 264l-108 -17
q-66 -11 -91.5 -38.5t-25.5 -72.5q0 -88 93 -88q26 0 50 10.5t42 29t29 44.5t11 56v76zM121 643v64h220v-64h-220z" />
    <glyph glyph-name="Abreve" unicode="&#x102;" horiz-adv-x="586" 
d="M498 0l-62 193h-290l-63 -193h-80l245 720h91l244 -720h-85zM168 258h246l-122 384zM290 767q-53 0 -84 35t-36 98h62q2 -35 15 -59t43 -24t43.5 24t15.5 59h62q-5 -63 -37 -98t-84 -35z" />
    <glyph glyph-name="abreve" unicode="&#x103;" horiz-adv-x="467" 
d="M46 380q8 72 57.5 113.5t130.5 41.5q85 0 131 -46.5t46 -128.5v-360h-60l-10 79q-20 -38 -57.5 -66t-96.5 -28q-72 0 -111.5 39.5t-39.5 105.5q0 69 39.5 113.5t133.5 59.5l128 20v42q0 111 -105 111q-51 0 -77.5 -24.5t-31.5 -71.5h-77zM337 264l-108 -17
q-66 -11 -91.5 -38.5t-25.5 -72.5q0 -88 93 -88q26 0 50 10.5t42 29t29 44.5t11 56v76zM231 597q-53 0 -84 35t-36 98h62q2 -35 15 -59t43 -24t43.5 24t15.5 59h62q-5 -63 -37 -98t-84 -35z" />
    <glyph glyph-name="Aogonek" unicode="&#x104;" horiz-adv-x="586" 
d="M583 0q-26 -5 -48 -18.5t-38 -31.5t-25 -39.5t-9 -40.5q0 -30 14 -45.5t39 -15.5q20 0 31.5 9.5t18.5 32.5h59q-11 -45 -40 -69.5t-73 -24.5q-48 0 -77 27.5t-29 76.5q0 40 25 78t66 61l-61 193h-290l-63 -193h-80l245 720h91zM168 258h246l-122 384z" />
    <glyph glyph-name="aogonek" unicode="&#x105;" horiz-adv-x="464" 
d="M46 380q8 72 57.5 113.5t130.5 41.5q85 0 131 -46.5t46 -128.5v-360q-42 -26 -70 -58.5t-28 -71.5q0 -61 53 -61q20 0 31.5 9.5t18.5 32.5h59q-12 -45 -40.5 -69.5t-72.5 -24.5q-48 0 -77.5 27.5t-29.5 76.5q0 41 26 79t69 62l-9 77q-20 -38 -57.5 -66t-96.5 -28
q-72 0 -111.5 39.5t-39.5 105.5q0 69 39.5 113.5t133.5 59.5l128 20v42q0 111 -105 111q-51 0 -77.5 -24.5t-31.5 -71.5h-77zM337 264l-108 -17q-66 -11 -91.5 -38.5t-25.5 -72.5q0 -88 93 -88q26 0 50 10.5t42 29t29 44.5t11 56v76z" />
    <glyph glyph-name="Cacute" unicode="&#x106;" horiz-adv-x="623" 
d="M325 -15q-67 0 -119.5 25t-89 72.5t-56 116.5t-19.5 158q0 94 21 165t58.5 118.5t89.5 71t114 23.5q51 0 96.5 -17t80 -48t57 -75t27.5 -99h-78q-13 89 -61 131t-122 42q-92 0 -147.5 -76t-55.5 -236q0 -76 15 -133t42 -95.5t64 -57.5t81 -19q82 0 129.5 49.5t55.5 144.5
h78q-4 -57 -24 -105t-54 -82.5t-80 -54t-103 -19.5zM361 905h93l-117 -137h-63z" />
    <glyph glyph-name="cacute" unicode="&#x107;" horiz-adv-x="474" 
d="M438 160q-5 -37 -20 -69t-39.5 -55.5t-58.5 -37t-76 -13.5q-96 0 -152 67.5t-56 203.5q0 135 55.5 207t151.5 72q80 0 130.5 -44t61.5 -120h-79q-18 101 -111 101q-63 0 -97.5 -53t-34.5 -166q0 -106 36.5 -155.5t96.5 -49.5q51 0 78.5 30t35.5 82h78zM295 735h93
l-117 -137h-63z" />
    <glyph glyph-name="Ccircumflex" unicode="&#x108;" horiz-adv-x="623" 
d="M325 -15q-67 0 -119.5 25t-89 72.5t-56 116.5t-19.5 158q0 94 21 165t58.5 118.5t89.5 71t114 23.5q51 0 96.5 -17t80 -48t57 -75t27.5 -99h-78q-13 89 -61 131t-122 42q-92 0 -147.5 -76t-55.5 -236q0 -76 15 -133t42 -95.5t64 -57.5t81 -19q82 0 129.5 49.5t55.5 144.5
h78q-4 -57 -24 -105t-54 -82.5t-80 -54t-103 -19.5zM445 768h-74l-59 92l-57 -92h-75l93 137h79z" />
    <glyph glyph-name="ccircumflex" unicode="&#x109;" horiz-adv-x="474" 
d="M438 160q-5 -37 -20 -69t-39.5 -55.5t-58.5 -37t-76 -13.5q-96 0 -152 67.5t-56 203.5q0 135 55.5 207t151.5 72q80 0 130.5 -44t61.5 -120h-79q-18 101 -111 101q-63 0 -97.5 -53t-34.5 -166q0 -106 36.5 -155.5t96.5 -49.5q51 0 78.5 30t35.5 82h78zM370 598h-74
l-59 92l-57 -92h-75l93 137h79z" />
    <glyph glyph-name="Cdotaccent" unicode="&#x10a;" horiz-adv-x="623" 
d="M325 -15q-67 0 -119.5 25t-89 72.5t-56 116.5t-19.5 158q0 94 21 165t58.5 118.5t89.5 71t114 23.5q51 0 96.5 -17t80 -48t57 -75t27.5 -99h-78q-13 89 -61 131t-122 42q-92 0 -147.5 -76t-55.5 -236q0 -76 15 -133t42 -95.5t64 -57.5t81 -19q82 0 129.5 49.5t55.5 144.5
h78q-4 -57 -24 -105t-54 -82.5t-80 -54t-103 -19.5zM275 797v93h82v-93h-82z" />
    <glyph glyph-name="cdotaccent" unicode="&#x10b;" horiz-adv-x="474" 
d="M438 160q-5 -37 -20 -69t-39.5 -55.5t-58.5 -37t-76 -13.5q-96 0 -152 67.5t-56 203.5q0 135 55.5 207t151.5 72q80 0 130.5 -44t61.5 -120h-79q-18 101 -111 101q-63 0 -97.5 -53t-34.5 -166q0 -106 36.5 -155.5t96.5 -49.5q51 0 78.5 30t35.5 82h78zM198 627v93h82v-93
h-82z" />
    <glyph glyph-name="Ccaron" unicode="&#x10c;" horiz-adv-x="623" 
d="M325 -15q-67 0 -119.5 25t-89 72.5t-56 116.5t-19.5 158q0 94 21 165t58.5 118.5t89.5 71t114 23.5q51 0 96.5 -17t80 -48t57 -75t27.5 -99h-78q-13 89 -61 131t-122 42q-92 0 -147.5 -76t-55.5 -236q0 -76 15 -133t42 -95.5t64 -57.5t81 -19q82 0 129.5 49.5t55.5 144.5
h78q-4 -57 -24 -105t-54 -82.5t-80 -54t-103 -19.5zM180 905h75l57 -93l58 93h75l-93 -137h-79z" />
    <glyph glyph-name="ccaron" unicode="&#x10d;" horiz-adv-x="474" 
d="M438 160q-5 -37 -20 -69t-39.5 -55.5t-58.5 -37t-76 -13.5q-96 0 -152 67.5t-56 203.5q0 135 55.5 207t151.5 72q80 0 130.5 -44t61.5 -120h-79q-18 101 -111 101q-63 0 -97.5 -53t-34.5 -166q0 -106 36.5 -155.5t96.5 -49.5q51 0 78.5 30t35.5 82h78zM104 735h75l57 -93
l58 93h75l-93 -137h-79z" />
    <glyph glyph-name="Dcaron" unicode="&#x10e;" horiz-adv-x="601" 
d="M250 720q71 0 128.5 -22t98 -66.5t62 -112t21.5 -158.5q0 -87 -22.5 -154t-63.5 -113t-98.5 -70t-128.5 -24h-182v720h185zM143 656v-590h108q52 0 94.5 18t72.5 55t46.5 92t16.5 130q0 76 -16.5 131.5t-47 92t-73 54t-93.5 17.5h-108zM132 905h75l57 -93l58 93h75
l-93 -137h-79z" />
    <glyph glyph-name="dcaron" unicode="&#x10f;" horiz-adv-x="594" 
d="M394 0l-13 86q-23 -45 -58.5 -73t-92.5 -28q-43 0 -78.5 17.5t-61 51.5t-40 84.5t-14.5 117.5q0 140 54.5 209.5t142.5 69.5q49 0 85.5 -23.5t60.5 -68.5v277h74v-720h-59zM113 255q0 -105 36 -156t99 -51t100 53t37 156q0 106 -36 160.5t-101 54.5q-64 0 -99.5 -52
t-35.5 -165zM601 647q0 -29 -9 -51t-24.5 -38t-36 -26t-42.5 -14v40q26 8 40 25.5t14 52.5h-24v84h82v-73z" />
    <glyph glyph-name="Dcroat" unicode="&#x110;" horiz-adv-x="601" 
d="M250 720q71 0 128.5 -22t98 -66.5t62 -112t21.5 -158.5q0 -87 -22.5 -154t-63.5 -113t-98.5 -70t-128.5 -24h-182v345h-46v67h46v308h185zM143 656v-244h175v-67h-175v-279h109q51 0 93.5 18t72.5 55t46.5 92t16.5 130q0 76 -16.5 131.5t-47 92t-73 54t-93.5 17.5h-108z
" />
    <glyph glyph-name="dcroat" unicode="&#x111;" horiz-adv-x="514" 
d="M394 0l-13 86q-23 -45 -58.5 -73t-92.5 -28q-43 0 -78.5 17.5t-61 51.5t-40 84.5t-14.5 117.5q0 140 54.5 209.5t142.5 69.5q49 0 85.5 -23.5t60.5 -68.5v163h-133v57h133v57h74v-57h44v-57h-44v-606h-59zM113 255q0 -105 36 -156t99 -51t100 53t37 156q0 106 -36 160.5
t-101 54.5q-64 0 -99.5 -52t-35.5 -165z" />
    <glyph glyph-name="Emacron" unicode="&#x112;" horiz-adv-x="489" 
d="M420 333h-277v-266h303v-67h-381v720h381v-67h-303v-254h277v-66zM147 813v64h220v-64h-220z" />
    <glyph glyph-name="emacron" unicode="&#x113;" horiz-adv-x="496" 
d="M451 146q-16 -71 -65 -116t-132 -45q-99 0 -158.5 69t-59.5 206q0 67 15 118.5t43 86.5t66.5 52.5t86.5 17.5t86.5 -17t66 -53t42.5 -91t15 -131h-346q5 -103 43 -149.5t103 -46.5q50 0 78.5 27t37.5 72h78zM248 475q-59 0 -93.5 -43t-41.5 -129h269q-5 87 -39 129.5
t-95 42.5zM134 643v64h220v-64h-220z" />
    <glyph glyph-name="Ebreve" unicode="&#x114;" horiz-adv-x="489" 
d="M420 333h-277v-266h303v-67h-381v720h381v-67h-303v-254h277v-66zM267 767q-53 0 -84 35t-36 98h62q2 -35 15 -59t43 -24t43.5 24t15.5 59h62q-5 -63 -37 -98t-84 -35z" />
    <glyph glyph-name="ebreve" unicode="&#x115;" horiz-adv-x="496" 
d="M451 146q-16 -71 -65 -116t-132 -45q-99 0 -158.5 69t-59.5 206q0 67 15 118.5t43 86.5t66.5 52.5t86.5 17.5t86.5 -17t66 -53t42.5 -91t15 -131h-346q5 -103 43 -149.5t103 -46.5q50 0 78.5 27t37.5 72h78zM248 475q-59 0 -93.5 -43t-41.5 -129h269q-5 87 -39 129.5
t-95 42.5zM247 597q-53 0 -84 35t-36 98h62q2 -35 15 -59t43 -24t43.5 24t15.5 59h62q-5 -63 -37 -98t-84 -35z" />
    <glyph glyph-name="Edotaccent" unicode="&#x116;" horiz-adv-x="489" 
d="M420 333h-277v-266h303v-67h-381v720h381v-67h-303v-254h277v-66zM214 797v93h82v-93h-82z" />
    <glyph glyph-name="edotaccent" unicode="&#x117;" horiz-adv-x="496" 
d="M451 146q-16 -71 -65 -116t-132 -45q-99 0 -158.5 69t-59.5 206q0 67 15 118.5t43 86.5t66.5 52.5t86.5 17.5t86.5 -17t66 -53t42.5 -91t15 -131h-346q5 -103 43 -149.5t103 -46.5q50 0 78.5 27t37.5 72h78zM248 475q-59 0 -93.5 -43t-41.5 -129h269q-5 87 -39 129.5
t-95 42.5zM205 627v93h82v-93h-82z" />
    <glyph glyph-name="Eogonek" unicode="&#x118;" horiz-adv-x="489" 
d="M420 333h-277v-266h303v-67h-89q-42 -26 -69.5 -58t-27.5 -72q0 -61 53 -61q20 0 31.5 9.5t18.5 32.5h59q-11 -45 -40 -69.5t-73 -24.5q-48 0 -77 27.5t-29 76.5q0 40 24.5 77t66.5 62h-229v720h381v-67h-303v-254h277v-66z" />
    <glyph glyph-name="eogonek" unicode="&#x119;" horiz-adv-x="496" 
d="M451 146q-11 -50 -38 -85.5t-69 -57.5q-45 -23 -73.5 -57.5t-28.5 -75.5q0 -61 53 -61q20 0 31.5 9.5t18.5 32.5h59q-12 -45 -40.5 -69.5t-72.5 -24.5q-48 0 -77.5 27.5t-29.5 76.5q0 34 18.5 66.5t50.5 57.5q-10 1 -19.5 1.5t-18.5 2.5q-82 12 -130.5 80t-48.5 191
q0 67 15 118.5t43 86.5t66.5 52.5t86.5 17.5t86.5 -17t66 -53t42.5 -91t15 -131h-346q5 -103 43 -149.5t103 -46.5q50 0 78.5 27t37.5 72h78zM248 475q-59 0 -93.5 -43t-41.5 -129h269q-5 87 -39 129.5t-95 42.5z" />
    <glyph glyph-name="Ecaron" unicode="&#x11a;" horiz-adv-x="489" 
d="M420 333h-277v-266h303v-67h-381v720h381v-67h-303v-254h277v-66zM127 905h75l57 -93l58 93h75l-93 -137h-79z" />
    <glyph glyph-name="ecaron" unicode="&#x11b;" horiz-adv-x="496" 
d="M451 146q-16 -71 -65 -116t-132 -45q-99 0 -158.5 69t-59.5 206q0 67 15 118.5t43 86.5t66.5 52.5t86.5 17.5t86.5 -17t66 -53t42.5 -91t15 -131h-346q5 -103 43 -149.5t103 -46.5q50 0 78.5 27t37.5 72h78zM248 475q-59 0 -93.5 -43t-41.5 -129h269q-5 87 -39 129.5
t-95 42.5zM114 735h75l57 -93l58 93h75l-93 -137h-79z" />
    <glyph glyph-name="Gcircumflex" unicode="&#x11c;" horiz-adv-x="631" 
d="M575 0h-55l-10 103q-29 -56 -77.5 -87t-116.5 -31q-60 0 -110.5 24t-87 71t-57 117.5t-20.5 162.5q0 93 21 163t58.5 117t89 71t113.5 24q53 0 96.5 -16t75.5 -45t52.5 -69t28.5 -88h-78q-30 152 -174 152q-45 0 -82.5 -19t-64 -57t-41.5 -96.5t-15 -136.5
q0 -77 15.5 -135t43 -96.5t65 -58t81.5 -19.5q40 0 73.5 14.5t57 40t36.5 61t13 77.5v74h-184v64h253v-382zM447 768h-74l-59 92l-57 -92h-75l93 137h79z" />
    <glyph glyph-name="gcircumflex" unicode="&#x11d;" horiz-adv-x="512" 
d="M132 -42q8 -46 36.5 -70t82.5 -24q67 0 97 38.5t30 107.5v90q-25 -41 -60 -62t-85 -21q-42 0 -78.5 16.5t-62.5 49t-41 80t-15 109.5t14 111t40 82.5t62.5 51.5t81.5 18q51 0 88 -24.5t60 -68.5l11 78h59v-507q0 -94 -50 -151t-150 -57q-91 0 -138.5 40.5t-58.5 112.5h77
zM113 271q0 -92 37 -141.5t98 -49.5q65 0 101 46.5t36 144.5q0 101 -35.5 151t-101.5 50q-63 0 -99 -49t-36 -152zM385 598h-74l-59 92l-57 -92h-75l93 137h79z" />
    <glyph glyph-name="Gbreve" unicode="&#x11e;" horiz-adv-x="631" 
d="M575 0h-55l-10 103q-29 -56 -77.5 -87t-116.5 -31q-60 0 -110.5 24t-87 71t-57 117.5t-20.5 162.5q0 93 21 163t58.5 117t89 71t113.5 24q53 0 96.5 -16t75.5 -45t52.5 -69t28.5 -88h-78q-30 152 -174 152q-45 0 -82.5 -19t-64 -57t-41.5 -96.5t-15 -136.5
q0 -77 15.5 -135t43 -96.5t65 -58t81.5 -19.5q40 0 73.5 14.5t57 40t36.5 61t13 77.5v74h-184v64h253v-382zM315 767q-53 0 -84 35t-36 98h62q2 -35 15 -59t43 -24t43.5 24t15.5 59h62q-5 -63 -37 -98t-84 -35z" />
    <glyph glyph-name="gbreve" unicode="&#x11f;" horiz-adv-x="512" 
d="M132 -42q8 -46 36.5 -70t82.5 -24q67 0 97 38.5t30 107.5v90q-25 -41 -60 -62t-85 -21q-42 0 -78.5 16.5t-62.5 49t-41 80t-15 109.5t14 111t40 82.5t62.5 51.5t81.5 18q51 0 88 -24.5t60 -68.5l11 78h59v-507q0 -94 -50 -151t-150 -57q-91 0 -138.5 40.5t-58.5 112.5h77
zM113 271q0 -92 37 -141.5t98 -49.5q65 0 101 46.5t36 144.5q0 101 -35.5 151t-101.5 50q-63 0 -99 -49t-36 -152zM250 597q-53 0 -84 35t-36 98h62q2 -35 15 -59t43 -24t43.5 24t15.5 59h62q-5 -63 -37 -98t-84 -35z" />
    <glyph glyph-name="Gdotaccent" unicode="&#x120;" horiz-adv-x="631" 
d="M575 0h-55l-10 103q-29 -56 -77.5 -87t-116.5 -31q-60 0 -110.5 24t-87 71t-57 117.5t-20.5 162.5q0 93 21 163t58.5 117t89 71t113.5 24q53 0 96.5 -16t75.5 -45t52.5 -69t28.5 -88h-78q-30 152 -174 152q-45 0 -82.5 -19t-64 -57t-41.5 -96.5t-15 -136.5
q0 -77 15.5 -135t43 -96.5t65 -58t81.5 -19.5q40 0 73.5 14.5t57 40t36.5 61t13 77.5v74h-184v64h253v-382zM278 797v93h82v-93h-82z" />
    <glyph glyph-name="gdotaccent" unicode="&#x121;" horiz-adv-x="512" 
d="M132 -42q8 -46 36.5 -70t82.5 -24q67 0 97 38.5t30 107.5v90q-25 -41 -60 -62t-85 -21q-42 0 -78.5 16.5t-62.5 49t-41 80t-15 109.5t14 111t40 82.5t62.5 51.5t81.5 18q51 0 88 -24.5t60 -68.5l11 78h59v-507q0 -94 -50 -151t-150 -57q-91 0 -138.5 40.5t-58.5 112.5h77
zM113 271q0 -92 37 -141.5t98 -49.5q65 0 101 46.5t36 144.5q0 101 -35.5 151t-101.5 50q-63 0 -99 -49t-36 -152zM208 627v93h82v-93h-82z" />
    <glyph glyph-name="Gcommaaccent" unicode="&#x122;" horiz-adv-x="631" 
d="M575 0h-55l-10 103q-29 -56 -77.5 -87t-116.5 -31q-60 0 -110.5 24t-87 71t-57 117.5t-20.5 162.5q0 93 21 163t58.5 117t89 71t113.5 24q53 0 96.5 -16t75.5 -45t52.5 -69t28.5 -88h-78q-30 152 -174 152q-45 0 -82.5 -19t-64 -57t-41.5 -96.5t-15 -136.5
q0 -77 15.5 -135t43 -96.5t65 -58t81.5 -19.5q40 0 73.5 14.5t57 40t36.5 61t13 77.5v74h-184v64h253v-382zM354 -143q0 -30 -8.5 -52.5t-23 -39t-33 -27t-38.5 -14.5v41q24 8 36.5 26.5t12.5 53.5h-23v84h77v-72z" />
    <glyph glyph-name="gcommaaccent" unicode="&#x123;" horiz-adv-x="512" 
d="M132 -42q8 -46 36.5 -70t82.5 -24q67 0 97 38.5t30 107.5v90q-25 -41 -60 -62t-85 -21q-42 0 -78.5 16.5t-62.5 49t-41 80t-15 109.5t14 111t40 82.5t62.5 51.5t81.5 18q51 0 88 -24.5t60 -68.5l11 78h59v-507q0 -94 -50 -151t-150 -57q-91 0 -138.5 40.5t-58.5 112.5h77
zM113 271q0 -92 37 -141.5t98 -49.5q65 0 101 46.5t36 144.5q0 101 -35.5 151t-101.5 50q-63 0 -99 -49t-36 -152zM210 663q0 30 9 53t24.5 39.5t36 26.5t42.5 15v-41q-26 -8 -40.5 -27t-14.5 -54h25v-84h-82v72z" />
    <glyph glyph-name="Hcircumflex" unicode="&#x124;" horiz-adv-x="600" 
d="M535 720v-720h-79v332h-313v-332h-78v720h78v-321h313v321h79zM433 768h-74l-59 92l-57 -92h-75l93 137h79z" />
    <glyph glyph-name="hcircumflex" unicode="&#x125;" horiz-adv-x="485" 
d="M60 0v720h74v-272q46 87 138 87q74 0 115.5 -47.5t41.5 -143.5v-344h-74v343q0 68 -25 98.5t-76 30.5t-85.5 -39.5t-34.5 -113.5v-319h-74zM339 768h-74l-59 92l-57 -92h-75l93 137h79z" />
    <glyph glyph-name="Hbar" unicode="&#x126;" horiz-adv-x="600" 
d="M143 720v-102h313v102h79v-102h55v-60h-55v-558h-79v332h-313v-332h-78v558h-56v60h56v102h78zM456 399v159h-313v-159h313z" />
    <glyph glyph-name="hbar" unicode="&#x127;" horiz-adv-x="485" 
d="M60 0v596h-52v64h52v60h75v-60h120v-64h-120v-148q45 87 137 87q45 0 75.5 -15t48.5 -42t25.5 -63.5t7.5 -78.5v-336h-74v343q0 68 -24.5 98.5t-75.5 30.5t-85.5 -39.5t-34.5 -113.5v-319h-75z" />
    <glyph glyph-name="Itilde" unicode="&#x128;" horiz-adv-x="207" 
d="M143 720v-720h-78v720h78zM155 790q-19 0 -31.5 5.5t-23 12t-21 12t-25.5 5.5q-32 0 -69 -35v64q18 15 35 23t37 8q19 0 31 -5.5t22.5 -12.5t21 -12.5t25.5 -5.5q17 0 33 9.5t35 26.5v-64q-19 -15 -34.5 -23t-35.5 -8z" />
    <glyph glyph-name="itilde" unicode="&#x129;" horiz-adv-x="195" 
d="M149 620q-19 0 -31.5 5.5t-23 12t-21 12t-25.5 5.5q-32 0 -69 -35v64q18 15 35 23t37 8q19 0 31 -5.5t22.5 -12.5t21 -12.5t25.5 -5.5q17 0 33 9.5t35 26.5v-64q-19 -15 -34.5 -23t-35.5 -8zM60 0v520h74v-520h-74z" />
    <glyph glyph-name="Imacron" unicode="&#x12a;" horiz-adv-x="207" 
d="M143 720v-720h-78v720h78zM-5 813v64h220v-64h-220z" />
    <glyph glyph-name="imacron" unicode="&#x12b;" horiz-adv-x="195" 
d="M-11 643v64h220v-64h-220zM60 0v520h74v-520h-74z" />
    <glyph glyph-name="Ibreve" unicode="&#x12c;" horiz-adv-x="207" 
d="M143 720v-720h-78v720h78zM105 767q-53 0 -84 35t-36 98h62q2 -35 15 -59t43 -24t43.5 24t15.5 59h62q-5 -63 -37 -98t-84 -35z" />
    <glyph glyph-name="ibreve" unicode="&#x12d;" horiz-adv-x="195" 
d="M98 597q-53 0 -84 35t-36 98h62q2 -35 15 -59t43 -24t43.5 24t15.5 59h62q-5 -63 -37 -98t-84 -35zM60 0v520h74v-520h-74z" />
    <glyph glyph-name="Iogonek" unicode="&#x12e;" horiz-adv-x="207" 
d="M143 720v-720h-18q-42 -26 -69.5 -58.5t-27.5 -71.5q0 -30 14 -45.5t39 -15.5q20 0 31.5 9.5t18.5 32.5h59q-12 -45 -40.5 -69.5t-72.5 -24.5q-48 0 -77.5 27.5t-29.5 76.5q0 41 26 78.5t69 62.5v718h78z" />
    <glyph glyph-name="iogonek" unicode="&#x12f;" horiz-adv-x="196" 
d="M186 -149q-11 -45 -39.5 -69.5t-73.5 -24.5q-48 0 -77 27.5t-29 76.5q0 41 25.5 78.5t67.5 61.5v519h76v-520h-15q-42 -26 -69.5 -58.5t-27.5 -71.5q0 -30 14 -45.5t39 -15.5q20 0 31.5 9.5t18.5 32.5h59zM57 627v93h82v-93h-82z" />
    <glyph glyph-name="Idotaccent" unicode="&#x130;" horiz-adv-x="207" 
d="M143 720v-720h-78v720h78zM63 797v93h82v-93h-82z" />
    <glyph glyph-name="dotlessi" unicode="&#x131;" horiz-adv-x="195" 
d="M60 0v520h74v-520h-74z" />
    <glyph glyph-name="IJ" unicode="&#x132;" horiz-adv-x="667" 
d="M143 720v-720h-78v720h78zM309 184q1 -65 30 -98.5t82 -33.5q51 0 80 37t29 117v514h76v-514q0 -107 -48 -164t-138 -57q-89 0 -138 54t-51 145h78z" />
    <glyph glyph-name="ij" unicode="&#x133;" horiz-adv-x="388" 
d="M60 0v520h74v-520h-74zM57 627v93h82v-93h-82zM149 -121q14 -5 29 -7.5t25 -2.5q30 0 41 16t11 58v577h73v-581q0 -62 -27.5 -98t-85.5 -36q-14 0 -31.5 3t-34.5 9v62zM252 627v93h81v-93h-81z" />
    <glyph glyph-name="Jcircumflex" unicode="&#x134;" horiz-adv-x="460" 
d="M102 184q1 -65 30 -98.5t82 -33.5q51 0 80 37t29 117v514h76v-514q0 -107 -48 -164t-138 -57q-89 0 -138 54t-51 145h78zM489 768h-74l-59 92l-57 -92h-75l93 137h79z" />
    <glyph glyph-name="jcircumflex" unicode="&#x135;" horiz-adv-x="194" 
d="M-46 -121q14 -5 29 -7.5t25 -2.5q28 0 40 15t12 59v577h73v-581q0 -62 -28 -98t-85 -36q-14 0 -31.5 3t-34.5 9v62zM227 598h-74l-59 92l-57 -92h-75l93 137h79z" />
    <glyph glyph-name="Kcommaaccent" unicode="&#x136;" horiz-adv-x="540" 
d="M431 0l-288 349v-349h-78v720h78v-330l275 330h88l-291 -345l318 -375h-102zM300 -143q0 -30 -8.5 -52.5t-23 -39t-33 -27t-38.5 -14.5v41q24 8 36.5 26.5t12.5 53.5h-23v84h77v-72z" />
    <glyph glyph-name="kcommaaccent" unicode="&#x137;" horiz-adv-x="442" 
d="M60 0v720h74v-411l194 211h90l-209 -224l234 -296h-93l-216 274v-274h-74zM261 -143q0 -30 -8.5 -52.5t-23 -39t-33 -27t-38.5 -14.5v41q24 8 36.5 26.5t12.5 53.5h-23v84h77v-72z" />
    <glyph glyph-name="kgreenlandic" unicode="&#x138;" horiz-adv-x="442" 
d="M60 0v520h74v-235l199 235h85l-210 -243l235 -277h-91l-218 258v-258h-74z" />
    <glyph glyph-name="Lacute" unicode="&#x139;" horiz-adv-x="479" 
d="M143 720v-650h305v-70h-383v720h78zM134 905h93l-117 -137h-63z" />
    <glyph glyph-name="lacute" unicode="&#x13a;" horiz-adv-x="195" 
d="M134 0h-74v720h74v-720zM119 905h93l-117 -137h-63z" />
    <glyph glyph-name="Lcommaaccent" unicode="&#x13b;" horiz-adv-x="479" 
d="M143 720v-650h305v-70h-383v720h78zM289 -143q0 -30 -8.5 -52.5t-23 -39t-33 -27t-38.5 -14.5v41q24 8 36.5 26.5t12.5 53.5h-23v84h77v-72z" />
    <glyph glyph-name="lcommaaccent" unicode="&#x13c;" horiz-adv-x="195" 
d="M134 0h-74v720h74v-720zM137 -143q0 -30 -8.5 -52.5t-23 -39t-33 -27t-38.5 -14.5v41q24 8 36.5 26.5t12.5 53.5h-23v84h77v-72z" />
    <glyph glyph-name="Lcaron" unicode="&#x13d;" horiz-adv-x="479" 
d="M143 720v-650h305v-70h-383v720h78zM313 647q0 -29 -9 -51t-24.5 -38t-36 -26t-42.5 -14v40q26 8 40 25.5t14 52.5h-24v84h82v-73z" />
    <glyph glyph-name="lcaron" unicode="&#x13e;" horiz-adv-x="258" 
d="M134 0h-74v720h74v-720zM279 647q0 -29 -9 -51t-24.5 -38t-36 -26t-42.5 -14v40q26 8 40 25.5t14 52.5h-24v84h82v-73z" />
    <glyph glyph-name="Ldot" unicode="&#x13f;" horiz-adv-x="479" 
d="M143 720v-650h305v-70h-383v720h78zM286 329v93h82v-93h-82z" />
    <glyph glyph-name="ldot" unicode="&#x140;" horiz-adv-x="302" 
d="M134 0h-74v720h74v-720zM205 329v93h82v-93h-82z" />
    <glyph glyph-name="Lslash" unicode="&#x141;" horiz-adv-x="479" 
d="M143 720v-290l128 84v-80l-128 -84v-280h305v-70h-383v299l-48 -32v80l48 32v341h78z" />
    <glyph glyph-name="lslash" unicode="&#x142;" horiz-adv-x="195" 
d="M134 442l59 42v-75l-59 -42v-367h-74v315l-58 -41v75l58 40v331h74v-278z" />
    <glyph glyph-name="Nacute" unicode="&#x143;" horiz-adv-x="613" 
d="M549 720v-720h-91l-323 614v-614h-70v720h97l318 -609v609h69zM347 905h93l-117 -137h-63z" />
    <glyph glyph-name="nacute" unicode="&#x144;" horiz-adv-x="485" 
d="M60 0v520h61l8 -78q50 93 143 93q74 0 115.5 -47t41.5 -144v-344h-74v343q0 68 -25 98.5t-76 30.5t-85.5 -39.5t-34.5 -113.5v-319h-74zM294 735h93l-117 -137h-63z" />
    <glyph glyph-name="Ncommaaccent" unicode="&#x145;" horiz-adv-x="613" 
d="M549 720v-720h-91l-323 614v-614h-70v720h97l318 -609v609h69zM347 -143q0 -30 -8.5 -52.5t-23 -39t-33 -27t-38.5 -14.5v41q24 8 36.5 26.5t12.5 53.5h-23v84h77v-72z" />
    <glyph glyph-name="ncommaaccent" unicode="&#x146;" horiz-adv-x="485" 
d="M60 0v520h61l8 -78q50 93 143 93q74 0 115.5 -47t41.5 -144v-344h-74v343q0 68 -25 98.5t-76 30.5t-85.5 -39.5t-34.5 -113.5v-319h-74zM290 -143q0 -30 -8.5 -52.5t-23 -39t-33 -27t-38.5 -14.5v41q24 8 36.5 26.5t12.5 53.5h-23v84h77v-72z" />
    <glyph glyph-name="Ncaron" unicode="&#x147;" horiz-adv-x="613" 
d="M549 720v-720h-91l-323 614v-614h-70v720h97l318 -609v609h69zM186 905h75l57 -93l58 93h75l-93 -137h-79z" />
    <glyph glyph-name="ncaron" unicode="&#x148;" horiz-adv-x="485" 
d="M60 0v520h61l8 -78q50 93 143 93q74 0 115.5 -47t41.5 -144v-344h-74v343q0 68 -25 98.5t-76 30.5t-85.5 -39.5t-34.5 -113.5v-319h-74zM120 735h75l57 -93l58 93h75l-93 -137h-79z" />
    <glyph glyph-name="napostrophe" unicode="&#x149;" horiz-adv-x="516" 
d="M91 0v520h61l8 -78q50 93 143 93q74 0 115.5 -47t41.5 -144v-344h-74v343q0 68 -25 98.5t-76 30.5t-85.5 -39.5t-34.5 -113.5v-319h-74zM113 647q0 -29 -9 -51t-24.5 -38t-36 -26t-42.5 -14v40q26 8 40 25.5t14 52.5h-24v84h82v-73z" />
    <glyph glyph-name="Eng" unicode="&#x14a;" horiz-adv-x="613" 
d="M549 720v-781q0 -49 -16.5 -80t-50.5 -42q-20 -11 -47 -11h-6q-28 0 -55 11v62q14 -5 28.5 -7.5t24.5 -2.5q30 0 41 16t11 58v57h-21l-323 614v-614h-70v720h97l318 -609v609h69z" />
    <glyph glyph-name="eng" unicode="&#x14b;" horiz-adv-x="485" 
d="M60 0v520h61l8 -78q50 93 143 93q74 0 115.5 -47t41.5 -144v-405q0 -27 -6.5 -51.5t-20 -42.5t-36 -28.5t-53.5 -10.5q-14 0 -30.5 2t-33.5 9v62q14 -5 29 -7.5t25 -2.5q30 0 41 16t11 58v400q0 68 -25 98.5t-76 30.5t-85.5 -39.5t-34.5 -113.5v-319h-74z" />
    <glyph glyph-name="Omacron" unicode="&#x14c;" horiz-adv-x="657" 
d="M329 50q93 0 150 77.5t57 232.5q0 152 -56 231t-152 79q-97 0 -152 -79t-55 -231q0 -154 57.5 -232t150.5 -78zM329 -15q-64 0 -117 24.5t-91 72t-59 117.5t-21 161t21 161t59.5 117.5t91 72t115.5 24.5q61 0 113.5 -24t91.5 -71.5t61 -117.5t22 -162q0 -90 -21.5 -159.5
t-59.5 -117.5t-90.5 -73t-115.5 -25zM214 813v64h220v-64h-220z" />
    <glyph glyph-name="omacron" unicode="&#x14d;" horiz-adv-x="504" 
d="M112 260q0 -106 37.5 -160t103.5 -54q67 0 103 54t36 160q0 109 -36.5 161.5t-103.5 52.5t-103.5 -53.5t-36.5 -160.5zM36 260q0 69 15.5 121t44 86t68 51t88.5 17q98 0 157 -68.5t59 -206.5q0 -136 -58.5 -205.5t-157.5 -69.5t-157.5 69.5t-58.5 205.5zM143 643v64h220
v-64h-220z" />
    <glyph glyph-name="Obreve" unicode="&#x14e;" horiz-adv-x="657" 
d="M329 50q93 0 150 77.5t57 232.5q0 152 -56 231t-152 79q-97 0 -152 -79t-55 -231q0 -154 57.5 -232t150.5 -78zM329 -15q-64 0 -117 24.5t-91 72t-59 117.5t-21 161t21 161t59.5 117.5t91 72t115.5 24.5q61 0 113.5 -24t91.5 -71.5t61 -117.5t22 -162q0 -90 -21.5 -159.5
t-59.5 -117.5t-90.5 -73t-115.5 -25zM328 767q-53 0 -84 35t-36 98h62q2 -35 15 -59t43 -24t43.5 24t15.5 59h62q-5 -63 -37 -98t-84 -35z" />
    <glyph glyph-name="obreve" unicode="&#x14f;" horiz-adv-x="504" 
d="M112 260q0 -106 37.5 -160t103.5 -54q67 0 103 54t36 160q0 109 -36.5 161.5t-103.5 52.5t-103.5 -53.5t-36.5 -160.5zM36 260q0 69 15.5 121t44 86t68 51t88.5 17q98 0 157 -68.5t59 -206.5q0 -136 -58.5 -205.5t-157.5 -69.5t-157.5 69.5t-58.5 205.5zM251 597
q-53 0 -84 35t-36 98h62q2 -35 15 -59t43 -24t43.5 24t15.5 59h62q-5 -63 -37 -98t-84 -35z" />
    <glyph glyph-name="Ohungarumlaut" unicode="&#x150;" horiz-adv-x="657" 
d="M329 50q93 0 150 77.5t57 232.5q0 152 -56 231t-152 79q-97 0 -152 -79t-55 -231q0 -154 57.5 -232t150.5 -78zM329 -15q-64 0 -117 24.5t-91 72t-59 117.5t-21 161t21 161t59.5 117.5t91 72t115.5 24.5q61 0 113.5 -24t91.5 -71.5t61 -117.5t22 -162q0 -90 -21.5 -159.5
t-59.5 -117.5t-90.5 -73t-115.5 -25zM295 905h85l-103 -137h-59zM445 905h85l-103 -137h-59z" />
    <glyph glyph-name="ohungarumlaut" unicode="&#x151;" horiz-adv-x="504" 
d="M112 260q0 -106 37.5 -160t103.5 -54q67 0 103 54t36 160q0 109 -36.5 161.5t-103.5 52.5t-103.5 -53.5t-36.5 -160.5zM36 260q0 69 15.5 121t44 86t68 51t88.5 17q98 0 157 -68.5t59 -206.5q0 -136 -58.5 -205.5t-157.5 -69.5t-157.5 69.5t-58.5 205.5zM223 735h85
l-103 -137h-59zM373 735h85l-103 -137h-59z" />
    <glyph glyph-name="OE" unicode="&#x152;" horiz-adv-x="825" 
d="M781 0h-358q-19 -5 -43.5 -10t-51.5 -5q-65 0 -117.5 22.5t-90.5 68.5t-58.5 117t-20.5 168q0 98 24 169t64 116.5t92 67t108 21.5q30 0 53 -4.5t43 -10.5h356v-67h-286v-254h261v-66h-261v-266h286v-67zM328 50q22 0 45.5 5t44.5 16v578q-21 11 -43 16t-45 5
q-97 0 -153 -78.5t-56 -230.5q0 -155 56.5 -233t150.5 -78z" />
    <glyph glyph-name="oe" unicode="&#x153;" horiz-adv-x="849" 
d="M463 243q3 -56 16 -93t33 -60t45 -32.5t52 -9.5q46 0 76 27t41 72h77q-16 -73 -66.5 -117.5t-129.5 -44.5q-54 0 -101.5 30.5t-75.5 94.5q-27 -63 -74 -94t-103 -31q-44 0 -83.5 14.5t-69 47t-47 85t-17.5 128.5t18 129t48 85t69 46.5t81 14.5q57 0 103.5 -29.5
t74.5 -95.5q28 64 73 94.5t97 30.5q46 0 84.5 -16t66 -51t43.5 -90.5t16 -134.5h-347zM112 260q0 -110 39 -162t102 -52t101 51.5t38 162.5t-39 162.5t-101 51.5q-64 0 -102 -52t-38 -162zM601 475q-54 0 -91 -42t-45 -130h269q-4 86 -38.5 129t-94.5 43z" />
    <glyph glyph-name="Racute" unicode="&#x154;" horiz-adv-x="551" 
d="M451 0l-169 285h-142v-285h-78v720h173q45 0 84 -6q91 -14 138.5 -68.5t47.5 -141.5q0 -70 -37.5 -124.5t-109.5 -78.5l182 -301h-89zM140 655v-305h124q80 0 120 41t40 113q0 73 -41.5 112t-116.5 39h-126zM288 905h93l-117 -137h-63z" />
    <glyph glyph-name="racute" unicode="&#x155;" horiz-adv-x="305" 
d="M60 0v520h61l10 -89q18 53 48.5 78.5t71.5 25.5q14 0 26.5 -2.5t20.5 -4.5v-74q-12 4 -24.5 6.5t-26.5 2.5q-46 0 -79.5 -47t-33.5 -143v-273h-74zM221 735h93l-117 -137h-63z" />
    <glyph glyph-name="Rcommaaccent" unicode="&#x156;" horiz-adv-x="551" 
d="M451 0l-169 285h-142v-285h-78v720h173q45 0 84 -6q91 -14 138.5 -68.5t47.5 -141.5q0 -70 -37.5 -124.5t-109.5 -78.5l182 -301h-89zM140 655v-305h124q80 0 120 41t40 113q0 73 -41.5 112t-116.5 39h-126zM307 -143q0 -30 -8.5 -52.5t-23 -39t-33 -27t-38.5 -14.5v41
q24 8 36.5 26.5t12.5 53.5h-23v84h77v-72z" />
    <glyph glyph-name="rcommaaccent" unicode="&#x157;" horiz-adv-x="305" 
d="M60 0v520h61l10 -89q18 53 48.5 78.5t71.5 25.5q14 0 26.5 -2.5t20.5 -4.5v-74q-12 4 -24.5 6.5t-26.5 2.5q-46 0 -79.5 -47t-33.5 -143v-273h-74zM137 -143q0 -30 -8.5 -52.5t-23 -39t-33 -27t-38.5 -14.5v41q24 8 36.5 26.5t12.5 53.5h-23v84h77v-72z" />
    <glyph glyph-name="Rcaron" unicode="&#x158;" horiz-adv-x="551" 
d="M451 0l-169 285h-142v-285h-78v720h173q45 0 84 -6q91 -14 138.5 -68.5t47.5 -141.5q0 -70 -37.5 -124.5t-109.5 -78.5l182 -301h-89zM140 655v-305h124q80 0 120 41t40 113q0 73 -41.5 112t-116.5 39h-126zM117 905h75l57 -93l58 93h75l-93 -137h-79z" />
    <glyph glyph-name="rcaron" unicode="&#x159;" horiz-adv-x="305" 
d="M60 0v520h61l10 -89q18 53 48.5 78.5t71.5 25.5q14 0 26.5 -2.5t20.5 -4.5v-74q-12 4 -24.5 6.5t-26.5 2.5q-46 0 -79.5 -47t-33.5 -143v-273h-74zM41 735h75l57 -93l58 93h75l-93 -137h-79z" />
    <glyph glyph-name="Sacute" unicode="&#x15a;" 
d="M284 51q81 0 120 35.5t39 100.5q0 28 -8 50.5t-29.5 42.5t-59.5 38t-97 36q-102 32 -147.5 79.5t-45.5 121.5q0 39 14 72t42 57t69.5 37.5t97.5 13.5q100 0 162.5 -49.5t75.5 -137.5h-78q-10 57 -49 89t-111 32q-75 0 -109.5 -29.5t-34.5 -81.5q0 -26 6.5 -46t24.5 -37
t49.5 -32t81.5 -30q62 -20 105 -42.5t69.5 -49.5t38 -59.5t11.5 -71.5q0 -46 -15.5 -84t-45.5 -65t-74.5 -41.5t-102.5 -14.5q-112 0 -174.5 55.5t-76.5 152.5h79q11 -72 54.5 -107t118.5 -35zM314 905h93l-117 -137h-63z" />
    <glyph glyph-name="sacute" unicode="&#x15b;" horiz-adv-x="438" 
d="M328 136q0 42 -27.5 67t-102.5 43q-78 19 -115.5 53.5t-37.5 93.5q0 63 42 102.5t130 39.5q77 0 124.5 -39.5t58.5 -108.5h-75q-7 40 -35 64.5t-76 24.5q-51 0 -72.5 -21.5t-21.5 -54.5q0 -18 5 -32t17.5 -25t34 -20t54.5 -18q49 -13 82 -29t52.5 -36t28 -45t8.5 -56
q0 -68 -46 -111t-139 -43q-87 0 -134.5 43t-54.5 115h75q5 -48 33.5 -73t82.5 -25t81.5 24.5t27.5 66.5zM258 735h93l-117 -137h-63z" />
    <glyph glyph-name="Scircumflex" unicode="&#x15c;" 
d="M284 51q81 0 120 35.5t39 100.5q0 28 -8 50.5t-29.5 42.5t-59.5 38t-97 36q-102 32 -147.5 79.5t-45.5 121.5q0 39 14 72t42 57t69.5 37.5t97.5 13.5q100 0 162.5 -49.5t75.5 -137.5h-78q-10 57 -49 89t-111 32q-75 0 -109.5 -29.5t-34.5 -81.5q0 -26 6.5 -46t24.5 -37
t49.5 -32t81.5 -30q62 -20 105 -42.5t69.5 -49.5t38 -59.5t11.5 -71.5q0 -46 -15.5 -84t-45.5 -65t-74.5 -41.5t-102.5 -14.5q-112 0 -174.5 55.5t-76.5 152.5h79q11 -72 54.5 -107t118.5 -35zM408 768h-74l-59 92l-57 -92h-75l93 137h79z" />
    <glyph glyph-name="scircumflex" unicode="&#x15d;" horiz-adv-x="438" 
d="M328 136q0 42 -27.5 67t-102.5 43q-78 19 -115.5 53.5t-37.5 93.5q0 63 42 102.5t130 39.5q77 0 124.5 -39.5t58.5 -108.5h-75q-7 40 -35 64.5t-76 24.5q-51 0 -72.5 -21.5t-21.5 -54.5q0 -18 5 -32t17.5 -25t34 -20t54.5 -18q49 -13 82 -29t52.5 -36t28 -45t8.5 -56
q0 -68 -46 -111t-139 -43q-87 0 -134.5 43t-54.5 115h75q5 -48 33.5 -73t82.5 -25t81.5 24.5t27.5 66.5zM348 598h-74l-59 92l-57 -92h-75l93 137h79z" />
    <glyph glyph-name="Scedilla" unicode="&#x15e;" 
d="M394 -141q0 -45 -29 -74.5t-80 -29.5q-47 0 -76 24.5t-34 69.5h57q2 -18 14.5 -31.5t39.5 -13.5q26 0 39 15t13 39q0 27 -19.5 41.5t-65.5 14.5l5 72q-100 7 -156 61t-70 146h79q11 -72 54.5 -107t118.5 -35q81 0 120 35.5t39 100.5q0 28 -8 50.5t-29.5 42.5t-59.5 38
t-97 36q-102 32 -147.5 79.5t-45.5 121.5q0 39 14 72t42 57t69.5 37.5t97.5 13.5q100 0 162.5 -49.5t75.5 -137.5h-78q-10 57 -49 89t-111 32q-75 0 -109.5 -29.5t-34.5 -81.5q0 -26 6.5 -46t24.5 -37t49.5 -32t81.5 -30q62 -20 105 -42.5t69.5 -49.5t38 -59.5t11.5 -71.5
q0 -88 -53.5 -142.5t-157.5 -61.5v-32q41 -8 62.5 -32t21.5 -63z" />
    <glyph glyph-name="scedilla" unicode="&#x15f;" horiz-adv-x="438" 
d="M331 -141q0 -45 -29 -74.5t-80 -29.5q-47 0 -76 24.5t-34 69.5h57q2 -18 14 -31.5t40 -13.5q26 0 39 15t13 39q0 27 -19 41.5t-66 14.5l5 72q-77 6 -119 48t-48 109h75q5 -48 33.5 -73t82.5 -25t81.5 24.5t27.5 66.5t-27.5 67t-102.5 43q-78 19 -115.5 53.5t-37.5 93.5
q0 63 42 102.5t130 39.5q77 0 124.5 -39.5t58.5 -108.5h-75q-7 40 -35 64.5t-76 24.5q-51 0 -72.5 -21.5t-21.5 -54.5q0 -18 5 -32t17.5 -25t34 -20t54.5 -18q49 -13 82 -29t52.5 -36t28 -45t8.5 -56q0 -63 -38.5 -104t-116.5 -48v-33q41 -8 62.5 -32t21.5 -63z" />
    <glyph glyph-name="Scaron" unicode="&#x160;" 
d="M284 51q81 0 120 35.5t39 100.5q0 28 -8 50.5t-29.5 42.5t-59.5 38t-97 36q-102 32 -147.5 79.5t-45.5 121.5q0 39 14 72t42 57t69.5 37.5t97.5 13.5q100 0 162.5 -49.5t75.5 -137.5h-78q-10 57 -49 89t-111 32q-75 0 -109.5 -29.5t-34.5 -81.5q0 -26 6.5 -46t24.5 -37
t49.5 -32t81.5 -30q62 -20 105 -42.5t69.5 -49.5t38 -59.5t11.5 -71.5q0 -46 -15.5 -84t-45.5 -65t-74.5 -41.5t-102.5 -14.5q-112 0 -174.5 55.5t-76.5 152.5h79q11 -72 54.5 -107t118.5 -35zM143 905h75l57 -93l58 93h75l-93 -137h-79z" />
    <glyph glyph-name="scaron" unicode="&#x161;" horiz-adv-x="438" 
d="M328 136q0 42 -27.5 67t-102.5 43q-78 19 -115.5 53.5t-37.5 93.5q0 63 42 102.5t130 39.5q77 0 124.5 -39.5t58.5 -108.5h-75q-7 40 -35 64.5t-76 24.5q-51 0 -72.5 -21.5t-21.5 -54.5q0 -18 5 -32t17.5 -25t34 -20t54.5 -18q49 -13 82 -29t52.5 -36t28 -45t8.5 -56
q0 -68 -46 -111t-139 -43q-87 0 -134.5 43t-54.5 115h75q5 -48 33.5 -73t82.5 -25t81.5 24.5t27.5 66.5zM85 735h75l57 -93l58 93h75l-93 -137h-79z" />
    <glyph glyph-name="Tcommaaccent" unicode="&#x162;" horiz-adv-x="505" 
d="M494 650h-203v-650h-78v650h-202v70h483v-70zM290 -143q0 -30 -8.5 -52.5t-23 -39t-33 -27t-38.5 -14.5v41q24 8 36.5 26.5t12.5 53.5h-23v84h77v-72z" />
    <glyph glyph-name="tcommaaccent" unicode="&#x163;" horiz-adv-x="274" 
d="M154 456v-341q0 -33 12 -49t40 -16q11 0 23 1.5t29 6.5v-63q-30 -10 -62 -10q-60 0 -87.5 35t-27.5 97v339h-66v64h66l6 125h67v-125h100v-64h-100zM185 -143q0 -30 -8.5 -52.5t-23 -39t-33 -27t-38.5 -14.5v41q24 8 36.5 26.5t12.5 53.5h-23v84h77v-72z" />
    <glyph glyph-name="Tcaron" unicode="&#x164;" horiz-adv-x="505" 
d="M494 650h-203v-650h-78v650h-202v70h483v-70zM119 905h75l57 -93l58 93h75l-93 -137h-79z" />
    <glyph glyph-name="tcaron" unicode="&#x165;" horiz-adv-x="315" 
d="M316 660q0 -52 -25 -79.5t-66 -34.5v39q21 7 29.5 21t8.5 36h-21v78h74v-60zM154 456v-341q0 -33 12 -49t40 -16q11 0 23 1.5t29 6.5v-63q-30 -10 -62 -10q-60 0 -87.5 35t-27.5 97v339h-66v64h66l6 125h67v-125h100v-64h-100z" />
    <glyph glyph-name="Tbar" unicode="&#x166;" horiz-adv-x="505" 
d="M494 650h-203v-212h112v-59h-112v-379h-78v379h-111v59h111v212h-202v70h483v-70z" />
    <glyph glyph-name="tbar" unicode="&#x167;" horiz-adv-x="275" 
d="M154 115q0 -65 52 -65q11 0 23 1.5t29 6.5v-63q-30 -10 -62 -10q-61 0 -88 38t-27 106v195h-59v57h59v75h-66v64h66l6 125h67v-125h100v-64h-100v-75h89v-57h-89v-209z" />
    <glyph glyph-name="Utilde" unicode="&#x168;" horiz-adv-x="605" 
d="M303 -15q-60 0 -105 18.5t-76 52.5t-46.5 81t-15.5 103v480h78v-487q0 -85 43 -133t122 -48q80 0 123 48t43 133v487h76v-480q0 -57 -16 -103.5t-47 -80.5t-76 -52.5t-103 -18.5zM357 790q-19 0 -31.5 5.5t-23 12t-21 12t-25.5 5.5q-32 0 -69 -35v64q18 15 35 23t37 8
q19 0 31 -5.5t22.5 -12.5t21 -12.5t25.5 -5.5q17 0 33 9.5t35 26.5v-64q-19 -15 -34.5 -23t-35.5 -8z" />
    <glyph glyph-name="utilde" unicode="&#x169;" horiz-adv-x="481" 
d="M130 520v-346q0 -68 25.5 -97t75.5 -29q54 0 85.5 41t31.5 113v318h73v-520h-61l-8 71q-23 -44 -59 -65t-81 -21q-72 0 -114 45.5t-42 143.5v346h74zM287 620q-19 0 -31.5 5.5t-23 12t-21 12t-25.5 5.5q-32 0 -69 -35v64q18 15 35 23t37 8q19 0 31 -5.5t22.5 -12.5
t21 -12.5t25.5 -5.5q17 0 33 9.5t35 26.5v-64q-19 -15 -34.5 -23t-35.5 -8z" />
    <glyph glyph-name="Umacron" unicode="&#x16a;" horiz-adv-x="605" 
d="M303 -15q-60 0 -105 18.5t-76 52.5t-46.5 81t-15.5 103v480h78v-487q0 -85 43 -133t122 -48q80 0 123 48t43 133v487h76v-480q0 -57 -16 -103.5t-47 -80.5t-76 -52.5t-103 -18.5zM195 813v64h220v-64h-220z" />
    <glyph glyph-name="umacron" unicode="&#x16b;" horiz-adv-x="481" 
d="M130 520v-346q0 -68 25.5 -97t75.5 -29q54 0 85.5 41t31.5 113v318h73v-520h-61l-8 71q-23 -44 -59 -65t-81 -21q-72 0 -114 45.5t-42 143.5v346h74zM128 643v64h220v-64h-220z" />
    <glyph glyph-name="Ubreve" unicode="&#x16c;" horiz-adv-x="605" 
d="M303 -15q-60 0 -105 18.5t-76 52.5t-46.5 81t-15.5 103v480h78v-487q0 -85 43 -133t122 -48q80 0 123 48t43 133v487h76v-480q0 -57 -16 -103.5t-47 -80.5t-76 -52.5t-103 -18.5zM303 767q-53 0 -84 35t-36 98h62q2 -35 15 -59t43 -24t43.5 24t15.5 59h62q-5 -63 -37 -98
t-84 -35z" />
    <glyph glyph-name="ubreve" unicode="&#x16d;" horiz-adv-x="481" 
d="M130 520v-346q0 -68 25.5 -97t75.5 -29q54 0 85.5 41t31.5 113v318h73v-520h-61l-8 71q-23 -44 -59 -65t-81 -21q-72 0 -114 45.5t-42 143.5v346h74zM236 597q-53 0 -84 35t-36 98h62q2 -35 15 -59t43 -24t43.5 24t15.5 59h62q-5 -63 -37 -98t-84 -35z" />
    <glyph glyph-name="Uring" unicode="&#x16e;" horiz-adv-x="605" 
d="M303 -15q-60 0 -105 18.5t-76 52.5t-46.5 81t-15.5 103v480h78v-487q0 -85 43 -133t122 -48q80 0 123 48t43 133v487h76v-480q0 -57 -16 -103.5t-47 -80.5t-76 -52.5t-103 -18.5zM247 870q0 -33 15 -52.5t41 -19.5q27 0 42 19.5t15 52.5q0 34 -14.5 53t-42.5 19
q-27 0 -41.5 -19t-14.5 -53zM412 870q0 -51 -27.5 -84.5t-81.5 -33.5q-53 0 -81 33.5t-28 84.5t28 84.5t81 33.5t81 -33.5t28 -84.5z" />
    <glyph glyph-name="uring" unicode="&#x16f;" horiz-adv-x="481" 
d="M130 520v-346q0 -68 25.5 -97t75.5 -29q54 0 85.5 41t31.5 113v318h73v-520h-61l-8 71q-23 -44 -59 -65t-81 -21q-72 0 -114 45.5t-42 143.5v346h74zM182 700q0 -33 15 -52.5t41 -19.5q27 0 42 19.5t15 52.5q0 34 -14.5 53t-42.5 19q-27 0 -41.5 -19t-14.5 -53zM347 700
q0 -51 -27.5 -84.5t-81.5 -33.5q-53 0 -81 33.5t-28 84.5t28 84.5t81 33.5t81 -33.5t28 -84.5z" />
    <glyph glyph-name="Uhungarumlaut" unicode="&#x170;" horiz-adv-x="605" 
d="M303 -15q-60 0 -105 18.5t-76 52.5t-46.5 81t-15.5 103v480h78v-487q0 -85 43 -133t122 -48q80 0 123 48t43 133v487h76v-480q0 -57 -16 -103.5t-47 -80.5t-76 -52.5t-103 -18.5zM265 905h85l-103 -137h-59zM415 905h85l-103 -137h-59z" />
    <glyph glyph-name="uhungarumlaut" unicode="&#x171;" horiz-adv-x="481" 
d="M130 520v-346q0 -68 25.5 -97t75.5 -29q54 0 85.5 41t31.5 113v318h73v-520h-61l-8 71q-23 -44 -59 -65t-81 -21q-72 0 -114 45.5t-42 143.5v346h74zM210 735h85l-103 -137h-59zM360 735h85l-103 -137h-59z" />
    <glyph glyph-name="Uogonek" unicode="&#x172;" horiz-adv-x="605" 
d="M469 -149q-12 -45 -40.5 -69.5t-72.5 -24.5q-49 0 -78 27.5t-29 76.5q0 35 19 67.5t51 57.5q-5 -1 -16 -1q-60 0 -105 18.5t-76 52.5t-46.5 81t-15.5 103v480h78v-487q0 -85 43 -133t122 -48q80 0 123 48t43 133v487h76v-480q0 -75 -29.5 -135t-84.5 -89
q-59 -31 -91.5 -69t-32.5 -77q0 -61 53 -61q20 0 31.5 9.5t18.5 32.5h59z" />
    <glyph glyph-name="uogonek" unicode="&#x173;" horiz-adv-x="481" 
d="M130 520v-346q0 -68 25.5 -97t75.5 -29q54 0 85.5 41t31.5 113v318h73v-520q-42 -26 -70.5 -58.5t-28.5 -71.5q0 -30 14 -45.5t39 -15.5q20 0 31.5 9.5t18.5 32.5h59q-11 -45 -40 -69.5t-73 -24.5q-48 0 -77 27.5t-29 76.5q0 41 26 79t69 62l-8 69q-23 -44 -59 -65
t-81 -21q-72 0 -114 45.5t-42 143.5v346h74z" />
    <glyph glyph-name="Wcircumflex" unicode="&#x174;" horiz-adv-x="826" 
d="M819 720l-162 -720h-95l-147 626l-148 -626h-96l-164 720h80l137 -619l146 619h96l143 -617l137 617h73zM545 768h-74l-59 92l-57 -92h-75l93 137h79z" />
    <glyph glyph-name="wcircumflex" unicode="&#x175;" horiz-adv-x="685" 
d="M670 520l-127 -520h-89l-110 435l-108 -435h-91l-130 520h76l102 -439l108 439h90l107 -437l99 437h73zM475 598h-74l-59 92l-57 -92h-75l93 137h79z" />
    <glyph glyph-name="Ycircumflex" unicode="&#x176;" horiz-adv-x="543" 
d="M88 720l184 -365l189 365h79l-231 -436v-284h-76v285l-230 435h85zM404 768h-74l-59 92l-57 -92h-75l93 137h79z" />
    <glyph glyph-name="ycircumflex" unicode="&#x177;" horiz-adv-x="442" 
d="M274 -6q-15 -48 -28 -83.5t-29 -59t-35.5 -35t-46.5 -11.5q-25 0 -53 9v61q27 -8 45 -8q14 0 24 7t18.5 22.5t17 41t18.5 62.5h-24l-170 520h80l136 -456l129 456h76zM353 598h-74l-59 92l-57 -92h-75l93 137h79z" />
    <glyph glyph-name="Ydieresis" unicode="&#x178;" horiz-adv-x="543" 
d="M88 720l184 -365l189 365h79l-231 -436v-284h-76v285l-230 435h85zM141 805v85h79v-85h-79zM326 805v85h78v-85h-78z" />
    <glyph glyph-name="Zacute" unicode="&#x179;" horiz-adv-x="545" 
d="M118 68h384v-68h-467v69l390 583h-371v68h456v-66zM312 905h93l-117 -137h-63z" />
    <glyph glyph-name="zacute" unicode="&#x17a;" horiz-adv-x="416" 
d="M105 64h283v-64h-361v71l286 386h-272v63h348v-72zM259 735h93l-117 -137h-63z" />
    <glyph glyph-name="Zdotaccent" unicode="&#x17b;" horiz-adv-x="545" 
d="M118 68h384v-68h-467v69l390 583h-371v68h456v-66zM234 797v93h82v-93h-82z" />
    <glyph glyph-name="zdotaccent" unicode="&#x17c;" horiz-adv-x="416" 
d="M105 64h283v-64h-361v71l286 386h-272v63h348v-72zM174 627v93h82v-93h-82z" />
    <glyph glyph-name="Zcaron" unicode="&#x17d;" horiz-adv-x="545" 
d="M118 68h384v-68h-467v69l390 583h-371v68h456v-66zM145 905h75l57 -93l58 93h75l-93 -137h-79z" />
    <glyph glyph-name="zcaron" unicode="&#x17e;" horiz-adv-x="416" 
d="M105 64h283v-64h-361v71l286 386h-272v63h348v-72zM85 735h75l57 -93l58 93h75l-93 -137h-79z" />
    <glyph glyph-name="longs" unicode="&#x17f;" horiz-adv-x="276" 
d="M86 0v456h-66v64h66v81q0 63 30.5 98.5t88.5 35.5q22 0 40.5 -3.5t35.5 -8.5v-64q-38 12 -67 12q-55 0 -55 -66v-605h-73z" />
    <glyph glyph-name="florin" unicode="&#x192;" 
d="M411 639q-38 12 -67 12q-26 0 -40.5 -15.5t-14.5 -50.5v-82h101v-63h-101v-620h-74v620h-66v63h66v78q0 60 31.5 97t88.5 37q22 0 40 -3.5t36 -8.5v-64z" />
    <glyph glyph-name="Aringacute" unicode="&#x1fa;" horiz-adv-x="586" 
d="M255 842l87 119h92l-116 -119h-63zM294 821q53 0 81 -31t28 -76q0 -32 -14.5 -57t-42.5 -38l237 -619h-85l-70 193h-276l-69 -193h-80l237 620q-26 13 -40.5 37.5t-14.5 56.5q0 45 28 76t81 31zM294 779q-27 0 -41.5 -17.5t-14.5 -47.5q0 -29 15 -47t41 -18q27 0 42 18
t15 47q0 30 -14.5 47.5t-42.5 17.5zM406 257l-115 322l-116 -322h231z" />
    <glyph glyph-name="aringacute" unicode="&#x1fb;" horiz-adv-x="467" 
d="M46 380q8 72 57.5 113.5t130.5 41.5q85 0 131 -46.5t46 -128.5v-360h-60l-10 79q-20 -38 -57.5 -66t-96.5 -28q-72 0 -111.5 39.5t-39.5 105.5q0 69 39.5 113.5t133.5 59.5l128 20v42q0 111 -105 111q-51 0 -77.5 -24.5t-31.5 -71.5h-77zM337 264l-108 -17
q-66 -11 -91.5 -38.5t-25.5 -72.5q0 -88 93 -88q26 0 50 10.5t42 29t29 44.5t11 56v76zM178 666.018q0 -29.7012 15 -47.252t41 -17.5508q27 0 42 17.5508t15 47.252q0 30.6006 -14.5 47.7012q-14.5 17.0996 -42.5 17.0996q-27 0 -41.5 -17.0996
q-14.5 -17.1006 -14.5 -47.7012zM343 666.018q0 -45.9014 -27.5 -76.0527q-27.5 -30.1504 -81.5 -30.1504q-53 0 -81 30.1504q-28 30.1514 -28 76.0527q0 45.9004 28 76.0518q28 30.1504 81 30.1504t81 -30.1504q28 -30.1514 28 -76.0518zM282 917.518h93l-117 -123.303h-63
z" />
    <glyph glyph-name="AEacute" unicode="&#x1fc;" horiz-adv-x="817" 
d="M750 333h-259v-266h283v-67h-362v193h-234l-96 -193h-82l365 720h409v-67h-283v-254h259v-66zM412 258v397l-199 -397h199zM596 905h93l-117 -137h-63z" />
    <glyph glyph-name="aeacute" unicode="&#x1fd;" horiz-adv-x="796" 
d="M751 147q-16 -74 -66 -118t-130 -44q-58 0 -107 28t-79 96q-9 -25 -24 -47.5t-36 -39.5t-49 -27t-62 -10q-78 0 -120 36.5t-42 105.5q0 142 171 166l130 18v54q0 51 -24 81t-81 30q-98 0 -109 -96h-77q3 37 19 66t40.5 49t57 30t70.5 10q57 0 95 -25t58 -73q31 54 74 76
t88 22t83 -15.5t66 -49.5t44 -87t16 -128h-346q1 -60 13.5 -100t32 -63.5t45 -33.5t54.5 -10q46 0 76 26.5t41 72.5h78zM207 48q25 0 48.5 9.5t41.5 27t29 41.5t11 54v72l-110 -16q-67 -10 -91 -38t-24 -67q0 -83 95 -83zM549 475q-54 0 -89.5 -39t-45.5 -121h268
q-6 78 -38.5 119t-94.5 41zM448 735h93l-117 -137h-63z" />
    <glyph glyph-name="Oslashacute" unicode="&#x1fe;" horiz-adv-x="657" 
d="M356 905h93l-117 -137h-63zM329 -15q-42 0 -81 12l-33 -107h-67l41 131q-69 41 -108.5 126t-39.5 213q0 91 21 161t59.5 117.5t91 72t115.5 24.5q45 0 83 -13l31 98h67l-40 -125q67 -42 107 -125.5t40 -209.5q0 -90 -21.5 -159.5t-59.5 -117.5t-90.5 -73t-115.5 -25z
M121 360q0 -101 24.5 -168.5t69.5 -103.5l181 569q-16 6 -32.5 9.5t-35.5 3.5q-97 0 -152 -79t-55 -231zM329 50q93 0 150 77.5t57 232.5q0 98 -24 166t-69 104l-180 -569q31 -11 66 -11z" />
    <glyph glyph-name="oslashacute" unicode="&#x1ff;" horiz-adv-x="504" 
d="M290 735h93l-117 -137h-63zM36 260q0 69 15.5 121t44 86t68 51t88.5 17q19 0 36.5 -2.5t34.5 -8.5l42 106h65l-52 -133q42 -32 66 -91t24 -146q0 -136 -58.5 -205.5t-157.5 -69.5q-38 0 -71 12l-41 -107h-67l53 133q-43 33 -66.5 92t-23.5 145zM392 260q0 60 -12 103
t-35 69l-142 -377q22 -9 50 -9q67 0 103 54t36 160zM112 260q0 -60 12 -102.5t35 -68.5l142 376q-23 9 -49 9q-67 0 -103.5 -53.5t-36.5 -160.5z" />
    <glyph glyph-name="Scommaaccent" unicode="&#x218;" 
d="M284 51q81 0 120 35.5t39 100.5q0 28 -8 50.5t-29.5 42.5t-59.5 38t-97 36q-102 32 -147.5 79.5t-45.5 121.5q0 39 14 72t42 57t69.5 37.5t97.5 13.5q100 0 162.5 -49.5t75.5 -137.5h-78q-10 57 -49 89t-111 32q-75 0 -109.5 -29.5t-34.5 -81.5q0 -26 6.5 -46t24.5 -37
t49.5 -32t81.5 -30q62 -20 105 -42.5t69.5 -49.5t38 -59.5t11.5 -71.5q0 -46 -15.5 -84t-45.5 -65t-74.5 -41.5t-102.5 -14.5q-112 0 -174.5 55.5t-76.5 152.5h79q11 -72 54.5 -107t118.5 -35zM328 -143q0 -30 -8.5 -52.5t-23 -39t-33 -27t-38.5 -14.5v41q24 8 36.5 26.5
t12.5 53.5h-23v84h77v-72z" />
    <glyph glyph-name="scommaaccent" unicode="&#x219;" horiz-adv-x="438" 
d="M328 136q0 42 -27.5 67t-102.5 43q-78 19 -115.5 53.5t-37.5 93.5q0 63 42 102.5t130 39.5q77 0 124.5 -39.5t58.5 -108.5h-75q-7 40 -35 64.5t-76 24.5q-51 0 -72.5 -21.5t-21.5 -54.5q0 -18 5 -32t17.5 -25t34 -20t54.5 -18q49 -13 82 -29t52.5 -36t28 -45t8.5 -56
q0 -68 -46 -111t-139 -43q-87 0 -134.5 43t-54.5 115h75q5 -48 33.5 -73t82.5 -25t81.5 24.5t27.5 66.5zM257 -143q0 -30 -8.5 -52.5t-23 -39t-33 -27t-38.5 -14.5v41q24 8 36.5 26.5t12.5 53.5h-23v84h77v-72z" />
    <glyph glyph-name="uni021A" unicode="&#x21a;" horiz-adv-x="505" 
d="M494 650h-203v-650h-78v650h-202v70h483v-70zM290 -143q0 -30 -8.5 -52.5t-23 -39t-33 -27t-38.5 -14.5v41q24 8 36.5 26.5t12.5 53.5h-23v84h77v-72z" />
    <glyph glyph-name="uni021B" unicode="&#x21b;" horiz-adv-x="274" 
d="M154 456v-341q0 -33 12 -49t40 -16q11 0 23 1.5t29 6.5v-63q-30 -10 -62 -10q-60 0 -87.5 35t-27.5 97v339h-66v64h66l6 125h67v-125h100v-64h-100zM185 -143q0 -30 -8.5 -52.5t-23 -39t-33 -27t-38.5 -14.5v41q24 8 36.5 26.5t12.5 53.5h-23v84h77v-72z" />
    <glyph glyph-name="dotlessj" unicode="&#x237;" horiz-adv-x="194" 
d="M-46 -121q14 -5 29 -7.5t25 -2.5q28 0 40 15t12 59v577h73v-581q0 -62 -28 -98t-85 -36q-14 0 -31.5 3t-34.5 9v62z" />
    <glyph glyph-name="circumflex" unicode="&#x2c6;" horiz-adv-x="327" 
d="M296 598h-74l-59 92l-57 -92h-75l93 137h79z" />
    <glyph glyph-name="caron" unicode="&#x2c7;" horiz-adv-x="327" 
d="M31 735h75l57 -93l58 93h75l-93 -137h-79z" />
    <glyph glyph-name="uni02C9" unicode="&#x2c9;" horiz-adv-x="271" 
d="M26 644v62h220v-62h-220z" />
    <glyph glyph-name="breve" unicode="&#x2d8;" horiz-adv-x="285" 
d="M142 597q-53 0 -84 35t-36 98h62q2 -35 15 -59t43 -24t43.5 24t15.5 59h62q-5 -63 -37 -98t-84 -35z" />
    <glyph glyph-name="dotaccent" unicode="&#x2d9;" horiz-adv-x="135" 
d="M26 627v93h82v-93h-82z" />
    <glyph glyph-name="ring" unicode="&#x2da;" horiz-adv-x="267" 
d="M77 700q0 -33 15 -52.5t41 -19.5q27 0 42 19.5t15 52.5q0 34 -14.5 53t-42.5 19q-27 0 -41.5 -19t-14.5 -53zM242 700q0 -51 -27.5 -84.5t-81.5 -33.5q-53 0 -81 33.5t-28 84.5t28 84.5t81 33.5t81 -33.5t28 -84.5z" />
    <glyph glyph-name="ogonek" unicode="&#x2db;" horiz-adv-x="270" 
d="M244 -149q-12 -45 -40.5 -69.5t-72.5 -24.5q-48 0 -77.5 27.5t-29.5 76.5q0 24 10 48t27.5 45t41.5 38t53 27h56q-26 -14 -49.5 -30.5t-41.5 -35t-28.5 -39.5t-10.5 -44q0 -61 53 -61q20 0 31.5 9.5t18.5 32.5h59z" />
    <glyph glyph-name="tilde" unicode="&#x2dc;" horiz-adv-x="291" 
d="M196 620q-19 0 -31.5 5.5t-23 12t-21 12t-25.5 5.5q-32 0 -69 -35v64q18 15 35 23t37 8q19 0 31 -5.5t22.5 -12.5t21 -12.5t25.5 -5.5q17 0 33 9.5t35 26.5v-64q-19 -15 -34.5 -23t-35.5 -8z" />
    <glyph glyph-name="hungarumlaut" unicode="&#x2dd;" horiz-adv-x="363" 
d="M103 735h85l-103 -137h-59zM253 735h85l-103 -137h-59z" />
    <glyph glyph-name="uni0312" unicode="&#x312;" horiz-adv-x="150" 
d="M31 663q0 30 9 53t24.5 39.5t36 26.5t42.5 15v-41q-26 -8 -40.5 -27t-14.5 -54h25v-84h-82v72z" />
    <glyph glyph-name="dotbelowcomb" unicode="&#x323;" horiz-adv-x="146" 
d="M33 -180v93h85v-93h-85z" />
    <glyph glyph-name="uni037E" unicode="&#x37e;" horiz-adv-x="289" 
d="M99 423v97h94v-97h-94zM193 11q0 -38 -9.5 -65.5t-26 -46t-37.5 -29.5t-44 -15v43q28 8 43.5 31t15.5 71h-37v97h95v-86z" />
    <glyph glyph-name="tonos" unicode="&#x384;" horiz-adv-x="163" 
d="M49 720h88l-55 -147h-56z" />
    <glyph glyph-name="dieresistonos" unicode="&#x385;" horiz-adv-x="327" 
d="M115 706l38 145h102l-78 -145h-62zM221 600v85h78v-85h-78zM16 600v85h78v-85h-78z" />
    <glyph glyph-name="Alphatonos" unicode="&#x386;" horiz-adv-x="586" 
d="M498 0l-62 193h-290l-63 -193h-80l245 720h91l244 -720h-85zM168 258h246l-122 384zM111 720h88l-55 -147h-56z" />
    <glyph glyph-name="anoteleia" unicode="&#x387;" horiz-adv-x="292" 
d="M99 270v98h94v-98h-94z" />
    <glyph glyph-name="Epsilontonos" unicode="&#x388;" horiz-adv-x="558" 
d="M489 333h-277v-266h303v-67h-381v720h381v-67h-303v-254h277v-66zM11 720h88l-55 -147h-56z" />
    <glyph glyph-name="Etatonos" unicode="&#x389;" horiz-adv-x="665" 
d="M600 720v-720h-79v332h-313v-332h-78v720h78v-321h313v321h79zM11 720h88l-55 -147h-56z" />
    <glyph glyph-name="Iotatonos" unicode="&#x38a;" horiz-adv-x="265" 
d="M200 720v-720h-78v720h78zM3 720h88l-55 -147h-56z" />
    <glyph glyph-name="Omicrontonos" unicode="&#x38c;" horiz-adv-x="682" 
d="M353 50q93 0 150 77.5t57 232.5q0 152 -56 231t-152 79q-97 0 -152 -79t-55 -231q0 -154 57.5 -232t150.5 -78zM353 -15q-64 0 -117 24.5t-91 72t-59 117.5t-21 161t21 161t59.5 117.5t91 72t115.5 24.5q61 0 113.5 -24t91.5 -71.5t61 -117.5t22 -162q0 -90 -21.5 -159.5
t-59.5 -117.5t-90.5 -73t-115.5 -25zM29 720h88l-55 -147h-56z" />
    <glyph glyph-name="Upsilontonos" unicode="&#x38e;" horiz-adv-x="644" 
d="M189 720l184 -365l189 365h79l-231 -436v-284h-76v285l-230 435h85zM-6 720h88l-55 -147h-56z" />
    <glyph glyph-name="Omegatonos" unicode="&#x38f;" horiz-adv-x="682" 
d="M418 70q29 10 55 32t45.5 57.5t31 85.5t11.5 116q0 152 -56.5 230.5t-150.5 78.5q-99 0 -153.5 -78.5t-54.5 -230.5q0 -64 11.5 -114t31 -86t45.5 -59t55 -32v-70h-194v70h86q-25 16 -46 44t-36.5 65.5t-24 83.5t-8.5 98q0 100 23.5 171t63.5 116t92 66t109 21
q56 0 108 -21.5t91.5 -66.5t63.5 -116t24 -170q0 -53 -8.5 -99t-24 -83.5t-37 -65t-46.5 -43.5h87v-70h-194v70zM29 720h88l-55 -147h-56z" />
    <glyph glyph-name="iotadieresistonos" unicode="&#x390;" horiz-adv-x="195" 
d="M60 0v520h74v-520h-74zM138 616v85h78v-85h-78zM90 862h88l-53 -140h-58zM-18 616v85h79v-85h-79z" />
    <glyph glyph-name="Alpha" unicode="&#x391;" horiz-adv-x="586" 
d="M498 0l-62 193h-290l-63 -193h-80l245 720h91l244 -720h-85zM168 258h246l-122 384z" />
    <glyph glyph-name="Beta" unicode="&#x392;" horiz-adv-x="552" 
d="M272 720q112 0 165.5 -48t53.5 -133q0 -26 -8 -51t-22.5 -46.5t-35.5 -37.5t-48 -23q61 -11 98.5 -58t37.5 -116q0 -47 -14 -85t-43.5 -65t-74.5 -42t-107 -15h-209v720h207zM143 347v-282h140q75 0 112 36.5t37 105.5q0 66 -37 103t-107 37h-145zM143 659v-250h141
q63 0 95.5 35.5t32.5 92.5q0 58 -33.5 90t-99.5 32h-136z" />
    <glyph glyph-name="Gamma" unicode="&#x393;" horiz-adv-x="424" 
d="M413 720v-67h-270v-653h-78v720h348z" />
    <glyph glyph-name="uni0394" unicode="&#x394;" horiz-adv-x="586" 
d="M3 0l245 720h91l244 -720h-580zM106 67h369l-183 575z" />
    <glyph glyph-name="Epsilon" unicode="&#x395;" horiz-adv-x="489" 
d="M420 333h-277v-266h303v-67h-381v720h381v-67h-303v-254h277v-66z" />
    <glyph glyph-name="Zeta" unicode="&#x396;" horiz-adv-x="545" 
d="M118 68h384v-68h-467v69l390 583h-371v68h456v-66z" />
    <glyph glyph-name="Eta" unicode="&#x397;" horiz-adv-x="600" 
d="M535 720v-720h-79v332h-313v-332h-78v720h78v-321h313v321h79z" />
    <glyph glyph-name="Theta" unicode="&#x398;" horiz-adv-x="657" 
d="M473 333h-289v66h289v-66zM329 50q93 0 150 77.5t57 232.5q0 152 -56 231t-152 79q-97 0 -152 -79t-55 -231q0 -154 57.5 -232t150.5 -78zM329 -15q-64 0 -117 24.5t-91 72t-59 117.5t-21 161t21 161t59.5 117.5t91 72t115.5 24.5q61 0 113.5 -24t91.5 -71.5t61 -117.5
t22 -162q0 -90 -21.5 -159.5t-59.5 -117.5t-90.5 -73t-115.5 -25z" />
    <glyph glyph-name="Iota" unicode="&#x399;" horiz-adv-x="207" 
d="M143 720v-720h-78v720h78z" />
    <glyph glyph-name="Kappa" unicode="&#x39a;" horiz-adv-x="540" 
d="M431 0l-288 349v-349h-78v720h78v-330l275 330h88l-291 -345l318 -375h-102z" />
    <glyph glyph-name="Lambda" unicode="&#x39b;" horiz-adv-x="577" 
d="M490 0l-202 637l-205 -637h-80l241 720h90l240 -720h-84z" />
    <glyph glyph-name="Mu" unicode="&#x39c;" horiz-adv-x="738" 
d="M337 0l-200 595v-595h-72v720h104l206 -618l197 618h101v-720h-73v590l-189 -590h-74z" />
    <glyph glyph-name="Nu" unicode="&#x39d;" horiz-adv-x="613" 
d="M549 720v-720h-91l-323 614v-614h-70v720h97l318 -609v609h69z" />
    <glyph glyph-name="Xi" unicode="&#x39e;" horiz-adv-x="499" 
d="M43 71h413v-71h-413v71zM456 650h-413v70h413v-70zM105 328v70h288v-70h-288z" />
    <glyph glyph-name="Omicron" unicode="&#x39f;" horiz-adv-x="657" 
d="M329 50q93 0 150 77.5t57 232.5q0 152 -56 231t-152 79q-97 0 -152 -79t-55 -231q0 -154 57.5 -232t150.5 -78zM329 -15q-64 0 -117 24.5t-91 72t-59 117.5t-21 161t21 161t59.5 117.5t91 72t115.5 24.5q61 0 113.5 -24t91.5 -71.5t61 -117.5t22 -162q0 -90 -21.5 -159.5
t-59.5 -117.5t-90.5 -73t-115.5 -25z" />
    <glyph glyph-name="Pi" unicode="&#x3a0;" horiz-adv-x="600" 
d="M535 720v-720h-79v653h-313v-653h-78v720h470z" />
    <glyph glyph-name="Rho" unicode="&#x3a1;" horiz-adv-x="543" 
d="M264 720q118 0 181 -57.5t63 -165.5q0 -52 -16.5 -94.5t-48 -72.5t-78 -46.5t-105.5 -16.5h-117v-267h-78v720h199zM143 655v-323h121q81 0 122 44.5t41 120.5q0 79 -41 118.5t-117 39.5h-126z" />
    <glyph glyph-name="Sigma" unicode="&#x3a3;" horiz-adv-x="499" 
d="M322 389v-57l-203 -266h345v-66h-429v67l220 295l-220 291v67h427v-66h-339z" />
    <glyph glyph-name="Tau" unicode="&#x3a4;" horiz-adv-x="505" 
d="M494 650h-203v-650h-78v650h-202v70h483v-70z" />
    <glyph glyph-name="Upsilon" unicode="&#x3a5;" horiz-adv-x="543" 
d="M88 720l184 -365l189 365h79l-231 -436v-284h-76v285l-230 435h85z" />
    <glyph glyph-name="Phi" unicode="&#x3a6;" horiz-adv-x="722" 
d="M400 735v-38q59 -2 110.5 -23.5t89.5 -64t59.5 -105t21.5 -144.5q0 -80 -21.5 -142t-59 -105t-89 -66t-111.5 -24v-38h-78v38q-61 1 -112.5 24t-89 66t-58.5 105t-21 142q0 82 21.5 144.5t59.5 105t89.5 64t110.5 23.5v38h78zM601 360q0 136 -53 203t-148 69v-544
q45 1 82 18t63.5 50.5t41 84t14.5 119.5zM121 360q0 -69 14.5 -119.5t41 -84t63.5 -50.5t82 -18v544q-96 -2 -148.5 -69t-52.5 -203z" />
    <glyph glyph-name="Chi" unicode="&#x3a7;" horiz-adv-x="550" 
d="M319 375l220 -375h-93l-172 309l-176 -309h-87l222 371l-206 349h91l161 -285l166 285h85z" />
    <glyph glyph-name="Psi" unicode="&#x3a8;" horiz-adv-x="648" 
d="M129 720v-313q0 -73 41.5 -116t117.5 -49v478h76v-477q74 6 116 49t42 115v313h73v-306q0 -107 -60.5 -169t-170.5 -70v-175h-76v175q-112 8 -173.5 70.5t-61.5 168.5v306h76z" />
    <glyph glyph-name="uni03A9" unicode="&#x3a9;" horiz-adv-x="657" 
d="M393 70q29 10 55 32t45.5 57.5t31 85.5t11.5 116q0 152 -56.5 230.5t-150.5 78.5q-99 0 -153.5 -78.5t-54.5 -230.5q0 -64 11.5 -114t31 -86t45.5 -59t55 -32v-70h-194v70h86q-25 16 -46 44t-36.5 65.5t-24 83.5t-8.5 98q0 100 23.5 171t63.5 116t92 66t109 21
q56 0 108 -21.5t91.5 -66.5t63.5 -116t24 -170q0 -53 -8.5 -99t-24 -83.5t-37 -65t-46.5 -43.5h87v-70h-194v70z" />
    <glyph glyph-name="Iotadieresis" unicode="&#x3aa;" horiz-adv-x="207" 
d="M143 720v-720h-78v720h78zM-26 805v85h79v-85h-79zM159 805v85h78v-85h-78z" />
    <glyph glyph-name="Upsilondieresis" unicode="&#x3ab;" horiz-adv-x="543" 
d="M88 720l184 -365l189 365h79l-231 -436v-284h-76v285l-230 435h85zM140 805v85h79v-85h-79zM325 805v85h78v-85h-78z" />
    <glyph glyph-name="alphatonos" unicode="&#x3ac;" horiz-adv-x="509" 
d="M389 0l-12 85q-23 -44 -59 -72t-90 -28q-42 0 -77.5 17.5t-61 51.5t-39.5 84.5t-14 117.5q0 70 14 122.5t39.5 87t61 52t78.5 17.5q53 0 89.5 -26.5t58.5 -69.5l11 81h61v-520h-60zM111 255q0 -105 35 -156t97 -51t99 53t37 156q0 110 -38 162.5t-97 52.5
q-63 0 -98 -52.5t-35 -164.5zM238 720h88l-55 -147h-56z" />
    <glyph glyph-name="epsilontonos" unicode="&#x3ad;" horiz-adv-x="443" 
d="M211 720h88l-55 -147h-56zM214 475q-50 0 -70.5 -24t-20.5 -62q0 -39 24 -63t68 -24h41v-65h-41q-54 0 -80.5 -27t-26.5 -69q0 -45 26.5 -69.5t83.5 -24.5q51 0 78 27t36 81h78q-6 -37 -20.5 -68t-38 -53.5t-57 -35.5t-76.5 -13q-94 0 -139.5 42t-45.5 113
q0 47 27.5 83.5t78.5 49.5q-45 14 -67.5 46.5t-22.5 74.5q0 61 39.5 101t122.5 40q85 0 136 -44.5t61 -114.5h-78q-9 46 -37 72.5t-79 26.5z" />
    <glyph glyph-name="etatonos" unicode="&#x3ae;" horiz-adv-x="485" 
d="M60 0v520h61l8 -78q50 93 143 93q74 0 115.5 -47t41.5 -144v-524h-74v523q0 68 -25 98.5t-76 30.5t-85.5 -39.5t-34.5 -113.5v-319h-74zM231 720h88l-55 -147h-56z" />
    <glyph glyph-name="iotatonos" unicode="&#x3af;" horiz-adv-x="195" 
d="M92 720h88l-55 -147h-56zM60 0v520h74v-520h-74z" />
    <glyph glyph-name="upsilondieresistonos" unicode="&#x3b0;" horiz-adv-x="478" 
d="M239 -15q-88 0 -135.5 48t-47.5 142v345h74v-345q0 -62 26 -94.5t83 -32.5q58 0 83.5 32.5t25.5 94.5v345h74v-345q0 -94 -47 -142t-136 -48zM195 706l38 145h102l-78 -145h-62zM301 600v85h78v-85h-78zM96 600v85h78v-85h-78z" />
    <glyph glyph-name="alpha" unicode="&#x3b1;" horiz-adv-x="509" 
d="M389 0l-12 85q-23 -44 -59 -72t-90 -28q-42 0 -77.5 17.5t-61 51.5t-39.5 84.5t-14 117.5q0 70 14 122.5t39.5 87t61 52t78.5 17.5q53 0 89.5 -26.5t58.5 -69.5l11 81h61v-520h-60zM111 255q0 -105 35 -156t97 -51t99 53t37 156q0 110 -38 162.5t-97 52.5
q-63 0 -98 -52.5t-35 -164.5z" />
    <glyph glyph-name="beta" unicode="&#x3b2;" horiz-adv-x="475" 
d="M412 557q0 -57 -27 -101.5t-77 -61.5q25 -5 48 -20t41 -39t28.5 -57t10.5 -75q0 -103 -45.5 -160.5t-122.5 -57.5q-49 0 -81 21t-53 60v-246h-74v694q0 106 42.5 163.5t133.5 57.5q87 0 131.5 -48.5t44.5 -129.5zM134 218q0 -81 31.5 -125.5t87.5 -44.5q53 0 80.5 37
t27.5 115q0 79 -32 117.5t-81 38.5h-31v65h29q38 0 64.5 35t26.5 94q0 60 -25.5 91.5t-76.5 31.5q-54 0 -77.5 -37.5t-23.5 -119.5v-298z" />
    <glyph glyph-name="gamma" unicode="&#x3b3;" horiz-adv-x="441" 
d="M183 -180v180l-172 520h80l131 -444l132 444h77l-174 -520v-180h-74z" />
    <glyph glyph-name="delta" unicode="&#x3b4;" horiz-adv-x="481" 
d="M121 720h292v-62h-152q39 -13 72.5 -42t58 -72.5t39 -102t14.5 -130.5q0 -75 -12 -135.5t-37.5 -102.5t-65 -65t-93.5 -23q-97 0 -149 67.5t-52 185.5q0 53 13 97.5t37 77t59 50.5t79 18q55 0 94 -30.5t53 -75.5q-5 68 -28.5 119t-58.5 87t-77.5 57t-85.5 28v54zM372 232
q0 37 -8 70.5t-24.5 59t-42 41t-60.5 15.5q-60 0 -93 -45.5t-33 -139.5q0 -85 31 -135t94 -50t99.5 48t36.5 136z" />
    <glyph glyph-name="epsilon" unicode="&#x3b5;" horiz-adv-x="443" 
d="M214 475q-50 0 -70.5 -24t-20.5 -62q0 -39 24 -63t68 -24h41v-65h-41q-54 0 -80.5 -27t-26.5 -69q0 -45 26.5 -69.5t83.5 -24.5q51 0 78 27t36 81h78q-6 -37 -20.5 -68t-38 -53.5t-57 -35.5t-76.5 -13q-94 0 -139.5 42t-45.5 113q0 47 27.5 83.5t78.5 49.5
q-45 14 -67.5 46.5t-22.5 74.5q0 61 39.5 101t122.5 40q85 0 136 -44.5t61 -114.5h-78q-9 46 -37 72.5t-79 26.5z" />
    <glyph glyph-name="zeta" unicode="&#x3b6;" horiz-adv-x="393" 
d="M107 266q0 -94 34.5 -145t107.5 -69q37 -9 61 -20.5t38.5 -26t20.5 -32.5t6 -42q0 -19 -6 -37t-15.5 -34.5t-21.5 -30.5t-23 -24l-44 34q14 17 27 38.5t13 42.5q0 29 -17 44t-66 26q-97 23 -143.5 91t-46.5 172q0 72 14.5 135.5t43 116t71 92.5t97.5 64h-221v59h333v-50
q-128 -48 -195.5 -154t-67.5 -250z" />
    <glyph glyph-name="eta" unicode="&#x3b7;" horiz-adv-x="485" 
d="M60 0v520h61l8 -78q50 93 143 93q74 0 115.5 -47t41.5 -144v-524h-74v523q0 68 -25 98.5t-76 30.5t-85.5 -39.5t-34.5 -113.5v-319h-74z" />
    <glyph glyph-name="theta" unicode="&#x3b8;" horiz-adv-x="501" 
d="M251 -15q-49 0 -88.5 22.5t-67.5 68.5t-43.5 117t-15.5 168q0 99 15 170t43 116t68 66.5t89 21.5t88.5 -21.5t67.5 -66.5t43 -116t15 -170q0 -97 -15 -168t-43 -117t-67.5 -68.5t-88.5 -22.5zM251 48q67 0 100.5 69.5t36.5 215.5h-275q3 -146 36 -215.5t102 -69.5z
M251 672q-68 0 -100.5 -67t-37.5 -208h275q-5 141 -37.5 208t-99.5 67z" />
    <glyph glyph-name="iota" unicode="&#x3b9;" horiz-adv-x="191" 
d="M59 0v520h74v-520h-74z" />
    <glyph glyph-name="kappa" unicode="&#x3ba;" horiz-adv-x="442" 
d="M60 0v520h74v-235l199 235h85l-210 -243l235 -277h-91l-218 258v-258h-74z" />
    <glyph glyph-name="lambda" unicode="&#x3bb;" horiz-adv-x="443" 
d="M433 0h-78l-129 454l-140 -454h-75l168 520h24q-14 52 -24 82t-19 46t-18.5 20.5t-22.5 4.5q-21 0 -48 -9v61q29 10 56 10q24 0 42.5 -7.5t35 -30t33 -63.5t36.5 -108z" />
    <glyph glyph-name="uni03BC" unicode="&#x3bc;" horiz-adv-x="485" 
d="M134 520v-346q0 -68 26 -97t75 -29q54 0 85.5 41t31.5 113v318h73v-520h-61l-8 71q-23 -44 -59 -65t-81 -21q-50 0 -82 25v-190h-74v700h74z" />
    <glyph glyph-name="nu" unicode="&#x3bd;" horiz-adv-x="441" 
d="M431 520l-162 -520h-97l-161 520h80l131 -452l133 452h76z" />
    <glyph glyph-name="xi" unicode="&#x3be;" horiz-adv-x="414" 
d="M217 -13q-97 22 -142 72.5t-45 127.5q0 68 31 112t85 61q-46 14 -71 52.5t-25 88.5q0 57 28.5 98.5t90.5 61.5h-132v59h328v-52h-17q-59 0 -102 -13t-71 -35.5t-41 -52.5t-13 -64q0 -53 30 -83.5t82 -30.5h63v-65h-63q-33 0 -57 -10t-39.5 -28t-23.5 -42t-8 -52
q0 -55 33 -89.5t109 -54.5q41 -10 67.5 -21.5t42.5 -25.5t22 -32t6 -40q0 -31 -19.5 -61.5t-51.5 -62.5l-44 34q14 17 27.5 38.5t13.5 41.5q0 13 -4 22.5t-14.5 17.5t-28.5 15t-47 13z" />
    <glyph glyph-name="omicron" unicode="&#x3bf;" horiz-adv-x="504" 
d="M112 260q0 -106 37.5 -160t103.5 -54q67 0 103 54t36 160q0 109 -36.5 161.5t-103.5 52.5t-103.5 -53.5t-36.5 -160.5zM36 260q0 69 15.5 121t44 86t68 51t88.5 17q98 0 157 -68.5t59 -206.5q0 -136 -58.5 -205.5t-157.5 -69.5t-157.5 69.5t-58.5 205.5z" />
    <glyph glyph-name="pi" unicode="&#x3c0;" horiz-adv-x="483" 
d="M64 0v456h-58v64h471v-64h-59v-456h-73v456h-207v-456h-74z" />
    <glyph glyph-name="rho" unicode="&#x3c1;" horiz-adv-x="509" 
d="M56 276q1 122 50.5 190.5t156.5 68.5q98 0 154 -68t56 -202q0 -68 -14.5 -120.5t-40 -88t-61 -53.5t-77.5 -18q-54 0 -90.5 23.5t-59.5 69.5v-258h-74v456zM398 267q0 106 -37 155.5t-100 49.5q-66 0 -100.5 -51.5t-34.5 -157.5t36 -160.5t101 -54.5q64 0 99.5 53
t35.5 166z" />
    <glyph glyph-name="sigma1" unicode="&#x3c2;" horiz-adv-x="468" 
d="M36 270q0 130 56.5 197.5t150.5 67.5q80 0 130.5 -43.5t61.5 -120.5h-79q-8 48 -35.5 74.5t-75.5 26.5q-59 0 -95.5 -48t-36.5 -154q0 -47 8 -82.5t27 -62t51 -44t79 -27.5q41 -8 68.5 -19t44 -25.5t23.5 -33.5t7 -44q0 -38 -22 -71t-47 -56l-44 34q14 17 26.5 38.5
t12.5 42.5q0 30 -20 46t-77 25q-108 17 -161 84.5t-53 194.5z" />
    <glyph glyph-name="sigma" unicode="&#x3c3;" horiz-adv-x="504" 
d="M36 260q0 137 58.5 206t154.5 69q45 0 86 -15h157v-63l-81 3q26 -32 41.5 -84t15.5 -116q0 -68 -15.5 -119t-43.5 -86t-68 -52.5t-89 -17.5q-100 0 -158 68t-58 207zM112 260q0 -106 37.5 -160t103.5 -54q67 0 103 54t36 160q0 70 -19.5 123.5t-53.5 81.5
q-14 4 -32.5 6.5t-35.5 2.5q-65 0 -102 -53.5t-37 -160.5z" />
    <glyph glyph-name="tau" unicode="&#x3c4;" horiz-adv-x="410" 
d="M169 0v456h-157v64h386v-64h-156v-456h-73z" />
    <glyph glyph-name="upsilon" unicode="&#x3c5;" horiz-adv-x="478" 
d="M239 -15q-88 0 -135.5 48t-47.5 142v345h74v-345q0 -62 26 -94.5t83 -32.5q58 0 83.5 32.5t25.5 94.5v345h74v-345q0 -94 -47 -142t-136 -48z" />
    <glyph glyph-name="phi" unicode="&#x3c6;" horiz-adv-x="643" 
d="M603 275q0 -133 -60.5 -207.5t-193.5 -81.5v-166h-73v166q-62 3 -106.5 19t-73 45.5t-42 73t-13.5 102.5q0 76 16 149t40 145h73q-12 -40 -22.5 -76t-18 -71t-11.5 -70t-4 -73q0 -89 35.5 -133t126.5 -49v228q0 70 8.5 119.5t27 80.5t48 45t72.5 14q83 0 127 -61.5
t44 -198.5zM349 48q50 2 84.5 16t55.5 41.5t30 70t9 100.5q0 56 -6.5 93.5t-18.5 60.5t-30 32.5t-42 9.5q-21 0 -36.5 -8.5t-25.5 -28.5t-15 -54.5t-5 -86.5v-246z" />
    <glyph glyph-name="chi" unicode="&#x3c7;" horiz-adv-x="453" 
d="M265 187l177 -367h-86l-134 306l-130 -306h-81l169 363l-160 337h85l119 -277l113 277h80z" />
    <glyph glyph-name="psi" unicode="&#x3c8;" horiz-adv-x="630" 
d="M130 520v-300q0 -73 38.5 -116.5t112.5 -50.5v467h73v-467q73 8 111 51.5t38 115.5v300h71v-293q0 -108 -57.5 -170t-162.5 -70v-167h-73v166q-108 8 -166.5 71.5t-58.5 169.5v293h74z" />
    <glyph glyph-name="omega" unicode="&#x3c9;" horiz-adv-x="655" 
d="M557 520q25 -72 41.5 -145t16.5 -156q0 -123 -42 -178.5t-115 -55.5q-55 0 -86.5 28t-43.5 81q-14 -53 -45 -81t-86 -28q-75 0 -115.5 57t-40.5 177q0 83 16.5 156t41.5 145h73q-12 -40 -23 -76t-18.5 -71.5t-12 -72.5t-4.5 -77q0 -95 23 -135t71 -40q85 0 85 135v197h70
v-197q0 -135 84 -135q47 0 70.5 40t23.5 135q0 40 -4.5 77t-12 72.5t-18 71.5t-22.5 76h73z" />
    <glyph glyph-name="iotadieresis" unicode="&#x3ca;" horiz-adv-x="195" 
d="M-21 635v85h79v-85h-79zM138 635v85h78v-85h-78zM60 0v520h74v-520h-74z" />
    <glyph glyph-name="upsilondieresis" unicode="&#x3cb;" horiz-adv-x="478" 
d="M239 -15q-88 0 -135.5 48t-47.5 142v345h74v-345q0 -62 26 -94.5t83 -32.5q58 0 83.5 32.5t25.5 94.5v345h74v-345q0 -94 -47 -142t-136 -48zM109 635v85h79v-85h-79zM294 635v85h78v-85h-78z" />
    <glyph glyph-name="omicrontonos" unicode="&#x3cc;" horiz-adv-x="504" 
d="M112 260q0 -106 37.5 -160t103.5 -54q67 0 103 54t36 160q0 109 -36.5 161.5t-103.5 52.5t-103.5 -53.5t-36.5 -160.5zM36 260q0 69 15.5 121t44 86t68 51t88.5 17q98 0 157 -68.5t59 -206.5q0 -136 -58.5 -205.5t-157.5 -69.5t-157.5 69.5t-58.5 205.5zM249 720h88
l-55 -147h-56z" />
    <glyph glyph-name="upsilontonos" unicode="&#x3cd;" horiz-adv-x="478" 
d="M229 720h88l-55 -147h-56zM239 -15q-88 0 -135.5 48t-47.5 142v345h74v-345q0 -62 26 -94.5t83 -32.5q58 0 83.5 32.5t25.5 94.5v345h74v-345q0 -94 -47 -142t-136 -48z" />
    <glyph glyph-name="omegatonos" unicode="&#x3ce;" horiz-adv-x="655" 
d="M557 520q25 -72 41.5 -145t16.5 -156q0 -123 -42 -178.5t-115 -55.5q-55 0 -86.5 28t-43.5 81q-14 -53 -45 -81t-86 -28q-75 0 -115.5 57t-40.5 177q0 83 16.5 156t41.5 145h73q-12 -40 -23 -76t-18.5 -71.5t-12 -72.5t-4.5 -77q0 -95 23 -135t71 -40q85 0 85 135v197h70
v-197q0 -135 84 -135q47 0 70.5 40t23.5 135q0 40 -4.5 77t-12 72.5t-18 71.5t-22.5 76h73zM322 720h88l-55 -147h-56z" />
    <glyph glyph-name="uni0400" unicode="&#x400;" horiz-adv-x="489" 
d="M420 333h-277v-266h303v-67h-381v720h381v-67h-303v-254h277v-66zM308 768h-64l-116 137h92z" />
    <glyph glyph-name="afii10023" unicode="&#x401;" horiz-adv-x="489" 
d="M420 333h-277v-266h303v-67h-381v720h381v-67h-303v-254h277v-66zM123 805v85h79v-85h-79zM308 805v85h78v-85h-78z" />
    <glyph glyph-name="afii10051" unicode="&#x402;" horiz-adv-x="679" 
d="M191 0v650h-180v70h441v-70h-183v-249q26 38 65.5 59.5t93.5 21.5q92 0 147.5 -59.5t55.5 -180.5v-124q0 -62 -29.5 -97.5t-84.5 -35.5q-15 0 -32 3t-34 9v62q14 -5 28.5 -7.5t24.5 -2.5q25 0 37 15t12 59v122q0 93 -36.5 132t-104.5 39q-66 0 -104.5 -41t-38.5 -116
v-259h-78z" />
    <glyph glyph-name="afii10052" unicode="&#x403;" horiz-adv-x="424" 
d="M413 720v-67h-270v-653h-78v720h348zM253 905h93l-117 -137h-63z" />
    <glyph glyph-name="afii10053" unicode="&#x404;" horiz-adv-x="623" 
d="M322 -15q-65 0 -117 25.5t-88.5 73.5t-56 117t-19.5 156q0 92 19.5 162.5t56.5 118.5t89 72.5t117 24.5q54 0 99.5 -18t79.5 -50t55.5 -75.5t27.5 -95.5h-78q-12 81 -59.5 127t-124.5 46q-89 0 -140.5 -68t-59.5 -202h270v-66h-271q5 -134 58 -207.5t143 -73.5
q41 0 73.5 14t56 39.5t37.5 61.5t18 79h78q-4 -53 -23.5 -100t-53 -83t-80.5 -57t-107 -21z" />
    <glyph glyph-name="afii10054" unicode="&#x405;" 
d="M284 51q81 0 120 35.5t39 100.5q0 28 -8 50.5t-29.5 42.5t-59.5 38t-97 36q-102 32 -147.5 79.5t-45.5 121.5q0 39 14 72t42 57t69.5 37.5t97.5 13.5q100 0 162.5 -49.5t75.5 -137.5h-78q-10 57 -49 89t-111 32q-75 0 -109.5 -29.5t-34.5 -81.5q0 -26 6.5 -46t24.5 -37
t49.5 -32t81.5 -30q62 -20 105 -42.5t69.5 -49.5t38 -59.5t11.5 -71.5q0 -46 -15.5 -84t-45.5 -65t-74.5 -41.5t-102.5 -14.5q-112 0 -174.5 55.5t-76.5 152.5h79q11 -72 54.5 -107t118.5 -35z" />
    <glyph glyph-name="afii10055" unicode="&#x406;" horiz-adv-x="207" 
d="M143 720v-720h-78v720h78z" />
    <glyph glyph-name="afii10056" unicode="&#x407;" horiz-adv-x="207" 
d="M143 720v-720h-78v720h78zM-26 805v85h79v-85h-79zM159 805v85h78v-85h-78z" />
    <glyph glyph-name="afii10057" unicode="&#x408;" horiz-adv-x="460" 
d="M102 184q1 -65 30 -98.5t82 -33.5q51 0 80 37t29 117v514h76v-514q0 -107 -48 -164t-138 -57q-89 0 -138 54t-51 145h78z" />
    <glyph glyph-name="afii10058" unicode="&#x409;" horiz-adv-x="900" 
d="M499 720v-267h119q118 0 182 -59.5t64 -166.5q0 -52 -17 -94t-48.5 -71.5t-77 -45.5t-103.5 -16h-197v653h-235l-38 -497q-3 -39 -11 -68t-24 -48.5t-40.5 -29.5t-61.5 -10v72q14 0 25 2.5t19 11t13 23.5t7 40l43 571h381zM500 388v-323h121q81 0 121.5 43t40.5 119
q0 78 -41 119.5t-118 41.5h-124z" />
    <glyph glyph-name="afii10059" unicode="&#x40a;" horiz-adv-x="910" 
d="M430 0v361h-287v-361h-78v720h78v-293h287v293h79v-293h123q118 0 180 -55t62 -159q0 -99 -63.5 -156t-179.5 -57h-201zM509 362v-297h123q80 0 120.5 40t40.5 108q0 70 -41 109.5t-118 39.5h-125z" />
    <glyph glyph-name="afii10060" unicode="&#x40b;" horiz-adv-x="679" 
d="M191 0v650h-180v70h441v-70h-183v-249q26 39 65.5 60t93.5 21q97 0 150 -60.5t53 -179.5v-242h-78v245q0 92 -36.5 131.5t-104.5 39.5q-66 0 -104.5 -41.5t-38.5 -115.5v-259h-78z" />
    <glyph glyph-name="afii10061" unicode="&#x40c;" horiz-adv-x="540" 
d="M285 905h93l-117 -137h-63zM440 0l-228 337h-69v-337h-78v720h78v-317h73l205 317h82l-229 -348l257 -372h-91z" />
    <glyph glyph-name="uni040D" unicode="&#x40d;" horiz-adv-x="599" 
d="M347 768h-64l-116 137h92zM456 720h78v-720h-78v561l-315 -522v-39h-76v720h76v-561l315 523v38z" />
    <glyph glyph-name="afii10062" unicode="&#x40e;" horiz-adv-x="495" 
d="M246 761q-24 0 -45.5 6t-38 19.5t-26.5 35t-13 51.5h63q2 -30 17.5 -45t42.5 -15q58 0 61 60h64q-7 -61 -41.5 -86.5t-83.5 -25.5zM286 121q-23 -68 -50.5 -102t-78.5 -34q-12 0 -24 1.5t-26 6.5v64q16 -5 25 -6t17 -1q13 0 23 5t19 18t17.5 36.5t19.5 59.5h-26l-199 551
h79l169 -490l165 490h76z" />
    <glyph glyph-name="afii10145" unicode="&#x40f;" horiz-adv-x="599" 
d="M335 0v-140h-73v140h-197v720h78v-653h313v653h78v-720h-199z" />
    <glyph glyph-name="afii10017" unicode="&#x410;" horiz-adv-x="586" 
d="M498 0l-62 193h-290l-63 -193h-80l245 720h91l244 -720h-85zM168 258h246l-122 384z" />
    <glyph glyph-name="afii10018" unicode="&#x411;" horiz-adv-x="543" 
d="M421 720v-67h-278v-200h119q118 0 182 -60t64 -167q0 -105 -65 -165.5t-182 -60.5h-196v720h356zM143 388v-323h121q81 0 122 42.5t41 118.5q0 78 -41.5 120t-118.5 42h-124z" />
    <glyph glyph-name="afii10019" unicode="&#x412;" horiz-adv-x="552" 
d="M272 720q112 0 165.5 -48t53.5 -133q0 -26 -8 -51t-22.5 -46.5t-35.5 -37.5t-48 -23q61 -11 98.5 -58t37.5 -116q0 -47 -14 -85t-43.5 -65t-74.5 -42t-107 -15h-209v720h207zM143 347v-282h140q75 0 112 36.5t37 105.5q0 66 -37 103t-107 37h-145zM143 659v-250h141
q63 0 95.5 35.5t32.5 92.5q0 58 -33.5 90t-99.5 32h-136z" />
    <glyph glyph-name="afii10020" unicode="&#x413;" horiz-adv-x="424" 
d="M413 720v-67h-270v-653h-78v720h348z" />
    <glyph glyph-name="afii10021" unicode="&#x414;" horiz-adv-x="576" 
d="M510 720v-651h53v-209h-72v140h-413v-140h-71v209h37q23 16 35.5 56t14.5 90l18 505h398zM167 221q-2 -57 -15.5 -94t-37.5 -58h320v584h-251z" />
    <glyph glyph-name="afii10022" unicode="&#x415;" horiz-adv-x="489" 
d="M420 333h-277v-266h303v-67h-381v720h381v-67h-303v-254h277v-66z" />
    <glyph glyph-name="afii10024" unicode="&#x416;" horiz-adv-x="765" 
d="M115 720l137 -317h92v317h76v-317h92l137 317h79l-157 -346l184 -374h-87l-157 336h-91v-336h-76v336h-92l-157 -336h-86l185 374l-158 346h79z" />
    <glyph glyph-name="afii10025" unicode="&#x417;" horiz-adv-x="521" 
d="M258 -15q-103 0 -158.5 48t-66.5 133h79q11 -58 44 -88t102 -30q73 0 108.5 40.5t35.5 109.5q0 67 -35.5 107.5t-96.5 40.5h-62v65h61q52 0 84 38t32 97q0 58 -33 92t-97 34q-65 0 -97.5 -30t-40.5 -83h-79q6 39 22.5 71t44 55.5t66 36.5t88.5 13q95 0 149.5 -50
t54.5 -133q0 -29 -7.5 -56t-22 -49.5t-35.5 -39t-48 -25.5q29 -6 53 -21.5t41.5 -39.5t27 -55.5t9.5 -68.5q0 -47 -15 -86t-43.5 -67t-70 -43.5t-94.5 -15.5z" />
    <glyph glyph-name="afii10026" unicode="&#x418;" horiz-adv-x="599" 
d="M456 720h78v-720h-78v561l-315 -522v-39h-76v720h76v-561l315 523v38z" />
    <glyph glyph-name="afii10027" unicode="&#x419;" horiz-adv-x="599" 
d="M302 761q-24 0 -45.5 6t-38 19.5t-26.5 35t-13 51.5h63q2 -30 17.5 -45t42.5 -15q58 0 61 60h64q-7 -61 -41.5 -86.5t-83.5 -25.5zM456 720h78v-720h-78v561l-315 -522v-39h-76v720h76v-561l315 523v38z" />
    <glyph glyph-name="afii10028" unicode="&#x41a;" horiz-adv-x="540" 
d="M440 0l-228 337h-69v-337h-78v720h78v-317h73l205 317h82l-229 -348l257 -372h-91z" />
    <glyph glyph-name="afii10029" unicode="&#x41b;" horiz-adv-x="565" 
d="M500 0h-76v653h-236l-38 -497q-7 -84 -39.5 -120t-99.5 -36v72q16 0 27 3.5t18.5 12t11.5 23.5t6 38l44 571h382v-720z" />
    <glyph glyph-name="afii10030" unicode="&#x41c;" horiz-adv-x="738" 
d="M337 0l-200 595v-595h-72v720h104l206 -618l197 618h101v-720h-73v590l-189 -590h-74z" />
    <glyph glyph-name="afii10031" unicode="&#x41d;" horiz-adv-x="600" 
d="M535 720v-720h-79v332h-313v-332h-78v720h78v-321h313v321h79z" />
    <glyph glyph-name="afii10032" unicode="&#x41e;" horiz-adv-x="657" 
d="M329 50q93 0 150 77.5t57 232.5q0 152 -56 231t-152 79q-97 0 -152 -79t-55 -231q0 -154 57.5 -232t150.5 -78zM329 -15q-64 0 -117 24.5t-91 72t-59 117.5t-21 161t21 161t59.5 117.5t91 72t115.5 24.5q61 0 113.5 -24t91.5 -71.5t61 -117.5t22 -162q0 -90 -21.5 -159.5
t-59.5 -117.5t-90.5 -73t-115.5 -25z" />
    <glyph glyph-name="afii10033" unicode="&#x41f;" horiz-adv-x="600" 
d="M535 720v-720h-79v653h-313v-653h-78v720h470z" />
    <glyph glyph-name="afii10034" unicode="&#x420;" horiz-adv-x="543" 
d="M264 720q118 0 181 -57.5t63 -165.5q0 -52 -16.5 -94.5t-48 -72.5t-78 -46.5t-105.5 -16.5h-117v-267h-78v720h199zM143 655v-323h121q81 0 122 44.5t41 120.5q0 79 -41 118.5t-117 39.5h-126z" />
    <glyph glyph-name="afii10035" unicode="&#x421;" horiz-adv-x="623" 
d="M325 -15q-67 0 -119.5 25t-89 72.5t-56 116.5t-19.5 158q0 94 21 165t58.5 118.5t89.5 71t114 23.5q51 0 96.5 -17t80 -48t57 -75t27.5 -99h-78q-13 89 -61 131t-122 42q-92 0 -147.5 -76t-55.5 -236q0 -76 15 -133t42 -95.5t64 -57.5t81 -19q82 0 129.5 49.5t55.5 144.5
h78q-4 -57 -24 -105t-54 -82.5t-80 -54t-103 -19.5z" />
    <glyph glyph-name="afii10036" unicode="&#x422;" horiz-adv-x="505" 
d="M494 650h-203v-650h-78v650h-202v70h483v-70z" />
    <glyph glyph-name="afii10037" unicode="&#x423;" horiz-adv-x="495" 
d="M286 121q-23 -68 -50.5 -102t-78.5 -34q-12 0 -24 1.5t-26 6.5v64q16 -5 25 -6t17 -1q13 0 23 5t19 18t17.5 36.5t19.5 59.5h-26l-199 551h79l169 -490l165 490h76z" />
    <glyph glyph-name="afii10038" unicode="&#x424;" horiz-adv-x="722" 
d="M400 735v-38q59 -2 110.5 -23.5t89.5 -64t59.5 -105t21.5 -144.5q0 -80 -21.5 -142t-59 -105t-89 -66t-111.5 -24v-38h-78v38q-61 1 -112.5 24t-89 66t-58.5 105t-21 142q0 82 21.5 144.5t59.5 105t89.5 64t110.5 23.5v38h78zM601 360q0 136 -53 203t-148 69v-544
q45 1 82 18t63.5 50.5t41 84t14.5 119.5zM121 360q0 -69 14.5 -119.5t41 -84t63.5 -50.5t82 -18v544q-96 -2 -148.5 -69t-52.5 -203z" />
    <glyph glyph-name="afii10039" unicode="&#x425;" horiz-adv-x="550" 
d="M319 375l220 -375h-93l-172 309l-176 -309h-87l222 371l-206 349h91l161 -285l166 285h85z" />
    <glyph glyph-name="afii10040" unicode="&#x426;" horiz-adv-x="602" 
d="M65 720h78v-653h313v653h79v-653h53v-207h-73v140h-450v720z" />
    <glyph glyph-name="afii10041" unicode="&#x427;" horiz-adv-x="555" 
d="M490 720v-720h-78v330q-26 -47 -67 -69.5t-95 -22.5q-96 0 -147.5 58t-51.5 181v243h78v-245q0 -92 35.5 -131.5t105.5 -39.5q68 0 105 46.5t37 122.5v247h78z" />
    <glyph glyph-name="afii10042" unicode="&#x428;" horiz-adv-x="835" 
d="M771 720v-720h-706v720h78v-651h237v651h76v-651h237v651h78z" />
    <glyph glyph-name="afii10043" unicode="&#x429;" horiz-adv-x="838" 
d="M771 720v-653h53v-207h-73v140h-686v720h78v-651h237v651h76v-651h237v651h78z" />
    <glyph glyph-name="afii10044" unicode="&#x42a;" horiz-adv-x="691" 
d="M8 720h282v-267h119q118 0 182 -59.5t64 -166.5q0 -52 -17 -94t-48.5 -71.5t-77 -45.5t-103.5 -16h-197v653h-204v67zM290 388v-323h122q81 0 121.5 43t40.5 119q0 78 -41.5 119.5t-118.5 41.5h-124z" />
    <glyph glyph-name="afii10045" unicode="&#x42b;" horiz-adv-x="707" 
d="M642 720v-720h-78v720h78zM143 720v-267h119q118 0 182 -59.5t64 -166.5q0 -52 -17 -94t-48.5 -71.5t-77 -45.5t-103.5 -16h-197v720h78zM143 388v-323h122q81 0 121.5 43t40.5 119q0 78 -41.5 119.5t-118.5 41.5h-124z" />
    <glyph glyph-name="afii10046" unicode="&#x42c;" horiz-adv-x="543" 
d="M143 720v-267h119q118 0 182 -59.5t64 -166.5q0 -52 -17 -94t-48.5 -71.5t-77 -45.5t-103.5 -16h-197v720h78zM143 388v-323h122q81 0 121.5 43t40.5 119q0 78 -41.5 119.5t-118.5 41.5h-124z" />
    <glyph glyph-name="afii10047" unicode="&#x42d;" horiz-adv-x="623" 
d="M308 -15q-62 0 -110.5 21t-83 56.5t-54.5 83t-24 100.5h79q4 -43 18 -79t38.5 -61.5t58.5 -39.5t77 -14q90 0 139 73.5t55 207.5h-270v66h269q-15 270 -195 270q-79 0 -128 -45.5t-61 -127.5h-79q6 52 28 96t56.5 76t81 49.5t102.5 17.5q64 0 115.5 -24t87.5 -71
t55 -116.5t19 -160.5q0 -86 -18.5 -156t-53.5 -119.5t-86 -76t-116 -26.5z" />
    <glyph glyph-name="afii10048" unicode="&#x42e;" horiz-adv-x="878" 
d="M558 -15q-57 0 -106 23t-86 67t-59.5 108.5t-26.5 148.5h-137v-332h-78v720h78v-321h137q6 83 29.5 146t61 105t85.5 63.5t102 21.5q58 0 108.5 -24t88.5 -71.5t60 -117.5t22 -162t-22 -162t-59.5 -117.5t-88.5 -71.5t-109 -24zM558 50q42 0 78.5 19t63.5 57t42 96.5
t15 137.5q0 76 -15 134t-41 97t-63 59t-80 20q-91 0 -145.5 -79t-54.5 -231q0 -77 15.5 -135t42.5 -97t63.5 -58.5t78.5 -19.5z" />
    <glyph glyph-name="afii10049" unicode="&#x42f;" horiz-adv-x="561" 
d="M186 300q-59 21 -96 68t-37 130q0 105 63 163.5t182 58.5h198v-720h-78v285h-156l-163 -285h-88zM134 499q0 -46 13 -75t36.5 -45.5t56.5 -22.5t74 -6h104v305h-128q-82 0 -119 -43.5t-37 -112.5z" />
    <glyph glyph-name="afii10065" unicode="&#x430;" horiz-adv-x="467" 
d="M46 380q8 72 57.5 113.5t130.5 41.5q85 0 131 -46.5t46 -128.5v-360h-60l-10 79q-20 -38 -57.5 -66t-96.5 -28q-72 0 -111.5 39.5t-39.5 105.5q0 69 39.5 113.5t133.5 59.5l128 20v42q0 111 -105 111q-51 0 -77.5 -24.5t-31.5 -71.5h-77zM337 264l-108 -17
q-66 -11 -91.5 -38.5t-25.5 -72.5q0 -88 93 -88q26 0 50 10.5t42 29t29 44.5t11 56v76z" />
    <glyph glyph-name="afii10066" unicode="&#x431;" horiz-adv-x="499" 
d="M113 238q0 -88 37 -140t101 -52q66 0 101 53.5t35 141.5q0 87 -34.5 138t-99.5 51q-64 0 -102 -50.5t-38 -141.5zM108 384q23 51 63.5 79t93.5 28q43 0 79 -17.5t62.5 -49.5t41.5 -78.5t15 -104.5t-15.5 -105.5t-43 -81t-67 -51.5t-87.5 -18q-104 0 -159 75t-55 233
q0 161 43.5 249t134.5 113q51 14 81 27t30 38h82q0 -23 -10.5 -39.5t-31 -29.5t-52 -24.5t-73.5 -25.5q-33 -11 -55.5 -27.5t-37.5 -42t-24 -62t-15 -85.5z" />
    <glyph glyph-name="afii10067" unicode="&#x432;" horiz-adv-x="446" 
d="M60 0v520h170q32 0 62 -5.5t53.5 -20.5t37.5 -41.5t14 -68.5q0 -15 -4.5 -31t-15 -31.5t-26.5 -28.5t-39 -20q45 -11 74 -43t29 -82q0 -73 -47 -110.5t-136 -37.5h-172zM230 62q54 0 82 20t28 69q0 42 -27 65t-68 23h-111v-177h96zM326 384q0 42 -26 58t-83 16h-83v-157
h102q41 0 65.5 21.5t24.5 61.5z" />
    <glyph glyph-name="afii10068" unicode="&#x433;" horiz-adv-x="336" 
d="M60 0v520h264v-64h-190v-456h-74z" />
    <glyph glyph-name="afii10069" unicode="&#x434;" horiz-adv-x="495" 
d="M55 64q6 6 11 13t9 17.5t6.5 25.5t3.5 37l16 363h332v-456h43v-204h-70v140h-326v-140h-70v204h45zM157 164q-2 -38 -12 -61t-26 -39h240v392h-189z" />
    <glyph glyph-name="afii10070" unicode="&#x435;" horiz-adv-x="496" 
d="M451 146q-16 -71 -65 -116t-132 -45q-99 0 -158.5 69t-59.5 206q0 67 15 118.5t43 86.5t66.5 52.5t86.5 17.5t86.5 -17t66 -53t42.5 -91t15 -131h-346q5 -103 43 -149.5t103 -46.5q50 0 78.5 27t37.5 72h78zM248 475q-59 0 -93.5 -43t-41.5 -129h269q-5 87 -39 129.5
t-95 42.5z" />
    <glyph glyph-name="afii10072" unicode="&#x436;" horiz-adv-x="633" 
d="M106 520l112 -213h63v213h71v-213h62l114 213h80l-132 -241l158 -279h-87l-132 243h-63v-243h-71v243h-63l-133 -243h-85l157 279l-131 241h80z" />
    <glyph glyph-name="afii10073" unicode="&#x437;" horiz-adv-x="441" 
d="M226 475q-49 0 -77 -28t-36 -76h-79q11 75 61 119.5t131 44.5q85 0 127 -39t42 -102q0 -42 -23.5 -74.5t-66.5 -46.5q45 -11 75 -44.5t30 -84.5q0 -34 -11.5 -63t-34.5 -50.5t-57 -33.5t-80 -12q-45 0 -79 13.5t-58 37t-38.5 55.5t-19.5 69h78q8 -52 35.5 -82.5
t81.5 -30.5q53 0 80.5 24.5t27.5 72.5q0 42 -29.5 67.5t-80.5 25.5h-41v65h41q45 0 70.5 22.5t25.5 63.5t-23.5 64t-71.5 23z" />
    <glyph glyph-name="afii10074" unicode="&#x438;" horiz-adv-x="485" 
d="M60 0v520h73v-381l219 354v27h72v-520h-72v381l-219 -354v-27h-73z" />
    <glyph glyph-name="afii10075" unicode="&#x439;" horiz-adv-x="485" 
d="M245 598q-24 0 -45.5 6t-38 19.5t-26.5 35t-13 51.5h63q2 -30 17.5 -45t42.5 -15q58 0 61 60h64q-7 -61 -41.5 -86.5t-83.5 -25.5zM60 0v520h73v-381l219 354v27h72v-520h-72v381l-219 -354v-27h-73z" />
    <glyph glyph-name="afii10076" unicode="&#x43a;" horiz-adv-x="442" 
d="M60 0v520h74v-213h41l159 213h84l-186 -242l212 -278h-89l-183 243h-38v-243h-74z" />
    <glyph glyph-name="afii10077" unicode="&#x43b;" horiz-adv-x="472" 
d="M338 0v456h-178l-19 -281q-3 -45 -11 -78t-23 -54.5t-39 -32t-59 -10.5v67q29 0 42.5 15.5t16.5 60.5l26 377h317v-520h-73z" />
    <glyph glyph-name="afii10078" unicode="&#x43c;" horiz-adv-x="582" 
d="M260 0l-131 411v-411h-69v520h104l130 -418l123 418h105v-520h-71v410l-125 -410h-66z" />
    <glyph glyph-name="afii10079" unicode="&#x43d;" horiz-adv-x="488" 
d="M60 0v520h74v-213h220v213h74v-520h-74v243h-220v-243h-74z" />
    <glyph glyph-name="afii10080" unicode="&#x43e;" horiz-adv-x="504" 
d="M112 260q0 -106 37.5 -160t103.5 -54q67 0 103 54t36 160q0 109 -36.5 161.5t-103.5 52.5t-103.5 -53.5t-36.5 -160.5zM36 260q0 69 15.5 121t44 86t68 51t88.5 17q98 0 157 -68.5t59 -206.5q0 -136 -58.5 -205.5t-157.5 -69.5t-157.5 69.5t-58.5 205.5z" />
    <glyph glyph-name="afii10081" unicode="&#x43f;" horiz-adv-x="488" 
d="M60 0v520h368v-520h-74v456h-220v-456h-74z" />
    <glyph glyph-name="afii10082" unicode="&#x440;" horiz-adv-x="513" 
d="M119 520l13 -82q24 45 61.5 71t91.5 26q91 0 141.5 -68.5t50.5 -201.5q0 -68 -14.5 -120.5t-41 -88t-63 -53.5t-79.5 -18q-98 0 -145 95v-260h-74v700h59zM400 267q0 106 -35.5 155.5t-98.5 49.5q-60 0 -99 -50t-39 -159q0 -106 35 -160.5t101 -54.5q64 0 100 53t36 166z
" />
    <glyph glyph-name="afii10083" unicode="&#x441;" horiz-adv-x="474" 
d="M438 160q-5 -37 -20 -69t-39.5 -55.5t-58.5 -37t-76 -13.5q-96 0 -152 67.5t-56 203.5q0 135 55.5 207t151.5 72q80 0 130.5 -44t61.5 -120h-79q-18 101 -111 101q-63 0 -97.5 -53t-34.5 -166q0 -106 36.5 -155.5t96.5 -49.5q51 0 78.5 30t35.5 82h78z" />
    <glyph glyph-name="afii10084" unicode="&#x442;" horiz-adv-x="410" 
d="M169 0v456h-157v64h386v-64h-156v-456h-73z" />
    <glyph glyph-name="afii10085" unicode="&#x443;" horiz-adv-x="442" 
d="M274 -6q-15 -48 -28 -83.5t-29 -59t-35.5 -35t-46.5 -11.5q-25 0 -53 9v61q27 -8 45 -8q14 0 24 7t18.5 22.5t17 41t18.5 62.5h-24l-170 520h80l136 -456l129 456h76z" />
    <glyph glyph-name="afii10086" unicode="&#x444;" horiz-adv-x="739" 
d="M406 720v-272q20 38 50.5 62.5t76.5 24.5q78 0 124 -68.5t46 -201.5q0 -68 -13 -120.5t-36.5 -88t-55.5 -53.5t-71 -18q-44 0 -73.5 23.5t-47.5 61.5v-250h-73v250q-19 -38 -48.5 -61.5t-73.5 -23.5q-39 0 -71 18t-55 53.5t-36 88t-13 120.5q0 133 46 201.5t124 68.5
q46 0 76.5 -24.5t50.5 -62.5v272h73zM627 267q0 106 -30 155.5t-81 49.5q-50 0 -82 -50t-32 -159q0 -106 28 -160.5t84 -54.5q53 0 83 53t30 166zM111 267q0 -113 30 -166t83 -53q57 0 85 54.5t28 160.5q0 109 -32 159t-82 50q-52 0 -82 -49.5t-30 -155.5z" />
    <glyph glyph-name="afii10087" unicode="&#x445;" horiz-adv-x="453" 
d="M267 275l175 -275h-87l-132 219l-128 -219h-84l169 272l-160 248h86l119 -192l110 192h82z" />
    <glyph glyph-name="afii10088" unicode="&#x446;" horiz-adv-x="490" 
d="M428 520v-456h43v-204h-71v140h-340v520h74v-456h220v456h74z" />
    <glyph glyph-name="afii10089" unicode="&#x447;" horiz-adv-x="479" 
d="M128 520v-198q0 -65 25 -95t76 -30q27 0 49 12t37 32t23 47.5t8 57.5v174h73v-520h-73v214q-24 -42 -59.5 -61.5t-77.5 -19.5q-72 0 -113.5 46t-41.5 143v198h74z" />
    <glyph glyph-name="afii10090" unicode="&#x448;" horiz-adv-x="692" 
d="M632 520v-520h-572v520h74v-456h176v456h73v-456h176v456h73z" />
    <glyph glyph-name="afii10091" unicode="&#x449;" horiz-adv-x="694" 
d="M632 520v-456h43v-204h-71v140h-544v520h74v-456h176v456h73v-456h176v456h73z" />
    <glyph glyph-name="afii10092" unicode="&#x44a;" horiz-adv-x="541" 
d="M230 520v-168h88q47 0 82.5 -13t59.5 -36t36 -54.5t12 -68.5q0 -86 -52 -133t-156 -47h-144v456h-148v64h222zM230 293v-234h71q69 0 100 31.5t31 88.5q0 52 -29 83t-97 31h-76z" />
    <glyph glyph-name="afii10093" unicode="&#x44b;" horiz-adv-x="590" 
d="M455 0v520h74v-520h-74zM134 520v-168h88q47 0 82.5 -13t59.5 -36t36 -54.5t12 -68.5q0 -86 -52 -133t-156 -47h-144v520h74zM134 293v-234h72q68 0 99 31.5t31 88.5q0 52 -29 83t-97 31h-76z" />
    <glyph glyph-name="afii10094" unicode="&#x44c;" horiz-adv-x="445" 
d="M134 520v-168h88q47 0 82.5 -13t59.5 -36t36 -54.5t12 -68.5q0 -86 -52 -133t-156 -47h-144v520h74zM134 293v-234h72q68 0 99 31.5t31 88.5q0 52 -29 83t-97 31h-76z" />
    <glyph glyph-name="afii10095" unicode="&#x44d;" horiz-adv-x="474" 
d="M114 160q8 -52 41.5 -82t80.5 -30q57 0 90 46t35 144h-167v60h165q-6 90 -35.5 132t-87.5 42q-50 0 -80 -26.5t-39 -74.5h-79q11 76 63.5 120t136.5 44q98 0 149 -71t51 -208q0 -133 -52.5 -202t-148.5 -69q-43 0 -77.5 13.5t-60.5 37t-42 55.5t-22 69h79z" />
    <glyph glyph-name="afii10096" unicode="&#x44e;" horiz-adv-x="683" 
d="M60 0v520h74v-213h101q11 115 65 171.5t140 56.5q47 0 85.5 -17t65.5 -51.5t41.5 -86t14.5 -120.5q0 -137 -56 -206t-151 -69q-92 0 -147 65t-60 193h-99v-243h-74zM309 260q0 -106 34.5 -160t96.5 -54q131 0 131 214q0 109 -34 161.5t-97 52.5t-97 -53.5t-34 -160.5z
" />
    <glyph glyph-name="afii10097" unicode="&#x44f;" horiz-adv-x="464" 
d="M226 197l-131 -197h-84l138 207q-45 15 -73 53.5t-28 92.5q0 78 49.5 122.5t144.5 44.5h162v-520h-74v197h-104zM330 261v201h-83q-63 0 -92.5 -28t-29.5 -78q0 -45 25 -70t67 -25h113z" />
    <glyph glyph-name="uni0450" unicode="&#x450;" horiz-adv-x="496" 
d="M451 146q-16 -71 -65 -116t-132 -45q-99 0 -158.5 69t-59.5 206q0 67 15 118.5t43 86.5t66.5 52.5t86.5 17.5t86.5 -17t66 -53t42.5 -91t15 -131h-346q5 -103 43 -149.5t103 -46.5q50 0 78.5 27t37.5 72h78zM248 475q-59 0 -93.5 -43t-41.5 -129h269q-5 87 -39 129.5
t-95 42.5zM298 598h-64l-116 137h92z" />
    <glyph glyph-name="afii10071" unicode="&#x451;" horiz-adv-x="496" 
d="M451 146q-16 -71 -65 -116t-132 -45q-99 0 -158.5 69t-59.5 206q0 67 15 118.5t43 86.5t66.5 52.5t86.5 17.5t86.5 -17t66 -53t42.5 -91t15 -131h-346q5 -103 43 -149.5t103 -46.5q50 0 78.5 27t37.5 72h78zM248 475q-59 0 -93.5 -43t-41.5 -129h269q-5 87 -39 129.5
t-95 42.5zM116 635v85h79v-85h-79zM301 635v85h78v-85h-78z" />
    <glyph glyph-name="afii10099" unicode="&#x452;" horiz-adv-x="485" 
d="M61 0v596h-53v64h53v60h74v-60h120v-64h-120v-148q45 87 137 87q75 0 116 -47.5t41 -143.5v-405q0 -27 -6.5 -51.5t-20.5 -42.5t-35.5 -29t-51.5 -11q-14 0 -31.5 2.5t-34.5 9.5v62q14 -5 29 -7.5t25 -2.5q30 0 41 16t11 58v400q0 68 -24.5 98.5t-75.5 30.5t-85.5 -39.5
t-34.5 -113.5v-319h-74z" />
    <glyph glyph-name="afii10100" unicode="&#x453;" horiz-adv-x="336" 
d="M213 735h93l-117 -137h-63zM60 0v520h264v-64h-190v-456h-74z" />
    <glyph glyph-name="afii10101" unicode="&#x454;" horiz-adv-x="474" 
d="M438 160q-6 -37 -21 -69t-39.5 -55.5t-57.5 -37t-74 -13.5q-100 0 -155 68t-55 203q0 137 53.5 208t151.5 71q80 0 131.5 -44t62.5 -120h-79q-8 48 -37 74.5t-76 26.5q-58 0 -89.5 -42t-38.5 -132h164v-60h-165q2 -98 37 -144t95 -46q51 0 79.5 30t34.5 82h78z" />
    <glyph glyph-name="afii10102" unicode="&#x455;" horiz-adv-x="438" 
d="M328 136q0 42 -27.5 67t-102.5 43q-78 19 -115.5 53.5t-37.5 93.5q0 63 42 102.5t130 39.5q77 0 124.5 -39.5t58.5 -108.5h-75q-7 40 -35 64.5t-76 24.5q-51 0 -72.5 -21.5t-21.5 -54.5q0 -18 5 -32t17.5 -25t34 -20t54.5 -18q49 -13 82 -29t52.5 -36t28 -45t8.5 -56
q0 -68 -46 -111t-139 -43q-87 0 -134.5 43t-54.5 115h75q5 -48 33.5 -73t82.5 -25t81.5 24.5t27.5 66.5z" />
    <glyph glyph-name="afii10103" unicode="&#x456;" horiz-adv-x="196" 
 />
    <glyph glyph-name="afii10104" unicode="&#x457;" horiz-adv-x="195" 
d="M-21 635v85h79v-85h-79zM138 635v85h78v-85h-78zM60 0v520h74v-520h-74z" />
    <glyph glyph-name="afii10105" unicode="&#x458;" horiz-adv-x="194" 
d="M-46 -121q14 -5 29 -7.5t25 -2.5q30 0 41 16t11 58v577h73v-581q0 -62 -27.5 -98t-85.5 -36q-14 0 -31.5 3t-34.5 9v62zM57 627v93h81v-93h-81z" />
    <glyph glyph-name="afii10106" unicode="&#x459;" horiz-adv-x="708" 
d="M396 520v-168h88q47 0 82.5 -13t59.5 -36t36 -54.5t12 -68.5q0 -86 -52 -133t-156 -47h-144v456h-165l-21 -307q-5 -70 -33 -109.5t-94 -39.5v67q11 0 20.5 2t16.5 9.5t11.5 22.5t6.5 42l27 377h305zM396 293v-234h71q69 0 100 31.5t31 88.5q0 52 -29 83t-97 31h-76z" />
    <glyph glyph-name="afii10107" unicode="&#x45a;" horiz-adv-x="721" 
d="M60 0v520h74v-213h202v213h74v-168h87q48 0 83.5 -13t59.5 -36t36 -54.5t12 -68.5q0 -86 -52 -133t-157 -47h-143v243h-202v-243h-74zM410 293v-234h71q69 0 100 31.5t31 88.5q0 52 -29 83t-97 31h-76z" />
    <glyph glyph-name="afii10108" unicode="&#x45b;" horiz-adv-x="485" 
d="M61 0v596h-53v64h53v60h74v-60h120v-64h-120v-148q45 87 137 87q67 0 106.5 -38t47.5 -113q3 -29 3 -58v-326h-74v343q0 68 -24.5 98.5t-75.5 30.5t-85.5 -39.5t-34.5 -113.5v-319h-74z" />
    <glyph glyph-name="afii10109" unicode="&#x45c;" horiz-adv-x="442" 
d="M251 735h93l-117 -137h-63zM60 0v520h74v-213h41l159 213h84l-186 -242l212 -278h-89l-183 243h-38v-243h-74z" />
    <glyph glyph-name="uni045D" unicode="&#x45d;" horiz-adv-x="485" 
d="M302 598h-64l-116 137h92zM60 0v520h73v-381l219 354v27h72v-520h-72v381l-219 -354v-27h-73z" />
    <glyph glyph-name="afii10110" unicode="&#x45e;" horiz-adv-x="442" 
d="M274 -6q-15 -48 -28 -83.5t-29 -59t-35.5 -35t-46.5 -11.5q-25 0 -53 9v61q27 -8 45 -8q14 0 24 7t18.5 22.5t17 41t18.5 62.5h-24l-170 520h80l136 -456l129 456h76zM223 598q-24 0 -45.5 6t-38 19.5t-26.5 35t-13 51.5h63q2 -30 17.5 -45t42.5 -15q58 0 61 60h64
q-7 -61 -41.5 -86.5t-83.5 -25.5z" />
    <glyph glyph-name="afii10193" unicode="&#x45f;" horiz-adv-x="488" 
d="M428 520v-520h-149v-140h-69v140h-150v520h74v-455h220v455h74z" />
    <glyph glyph-name="afii10146" unicode="&#x462;" horiz-adv-x="670" 
d="M269 650v-197h119q118 0 182 -59.5t64 -166.5q0 -52 -17 -94t-48.5 -71.5t-77 -45.5t-103.5 -16h-197v650h-180v70h441v-70h-183zM270 388v-323h121q81 0 121.5 43t40.5 119q0 78 -41 119.5t-118 41.5h-124z" />
    <glyph glyph-name="afii10194" unicode="&#x463;" horiz-adv-x="445" 
d="M134 496v-144h88q47 0 82.5 -13t59.5 -36t36 -54.5t12 -68.5q0 -86 -52 -133t-156 -47h-144v496h-64v64h65v98h74v-98h98v-64h-99zM134 293v-234h72q68 0 99 31.5t31 88.5q0 52 -29 83t-97 31h-76z" />
    <glyph glyph-name="afii10147" unicode="&#x472;" horiz-adv-x="657" 
d="M329 -15q-64 0 -117 24.5t-91 72t-59 117.5t-21 161t21 161t59.5 117.5t91 72t115.5 24.5q61 0 113.5 -24t91.5 -71.5t61 -117.5t22 -162q0 -90 -21.5 -159.5t-59.5 -117.5t-90.5 -73t-115.5 -25zM329 50q90 0 145.5 70.5t60.5 213.5h-414q5 -142 61 -213t147 -71z
M328 670q-90 0 -144.5 -68.5t-62.5 -201.5h413q-7 133 -62 201.5t-144 68.5z" />
    <glyph glyph-name="afii10195" unicode="&#x473;" horiz-adv-x="504" 
d="M36 260q0 69 15.5 121t44 86t68 51t88.5 17q98 0 157 -68.5t59 -206.5q0 -136 -58.5 -205.5t-157.5 -69.5t-157.5 69.5t-58.5 205.5zM253 46q63 0 98 47t40 141h-278q4 -94 40.5 -141t99.5 -47zM252 474q-62 0 -98 -45t-41 -135h277q-5 91 -41 135.5t-97 44.5z" />
    <glyph glyph-name="afii10148" unicode="&#x474;" horiz-adv-x="549" 
d="M85 720l191 -640l194 640h76l-222 -720h-98l-223 720h82z" />
    <glyph glyph-name="afii10196" unicode="&#x475;" horiz-adv-x="441" 
d="M431 520l-162 -520h-97l-161 520h80l131 -452l133 452h76z" />
    <glyph glyph-name="afii10050" unicode="&#x490;" horiz-adv-x="424" 
d="M339 720v140h74v-207h-270v-653h-78v720h274z" />
    <glyph glyph-name="afii10098" unicode="&#x491;" horiz-adv-x="336" 
d="M60 0v520h196v130h68v-194h-190v-456h-74z" />
    <glyph glyph-name="uni0492" unicode="&#x492;" horiz-adv-x="424" 
d="M413 653h-270v-254h166v-66h-166v-333h-78v333h-78v66h78v321h348v-67z" />
    <glyph glyph-name="uni0493" unicode="&#x493;" horiz-adv-x="336" 
d="M134 456v-149h121v-64h-121v-243h-73v243h-43v64h43v213h263v-64h-190z" />
    <glyph glyph-name="uni0496" unicode="&#x496;" horiz-adv-x="772" 
d="M115 720l137 -317h92v317h76v-317h92l137 317h79l-157 -346l151 -307h51v-207h-73v140h-32l-157 336h-91v-336h-76v336h-92l-157 -336h-86l185 374l-158 346h79z" />
    <glyph glyph-name="uni0497" unicode="&#x497;" horiz-adv-x="639" 
d="M106 520l112 -213h63v213h71v-213h62l114 213h80l-132 -241l122 -215h53v-204h-71v140h-33l-132 243h-63v-243h-71v243h-63l-133 -243h-85l157 279l-131 241h80z" />
    <glyph glyph-name="uni0498" unicode="&#x498;" horiz-adv-x="521" 
d="M371 -141q0 -45 -28.5 -74.5t-80.5 -29.5q-46 0 -75 24.5t-34 69.5h56q2 -18 14.5 -31.5t40.5 -13.5q26 0 39 15t13 39q0 27 -19.5 41.5t-65.5 14.5l5 72q-92 5 -142.5 52t-60.5 128h79q11 -58 44 -88t102 -30q73 0 108.5 40.5t35.5 109.5q0 67 -35.5 107.5t-96.5 40.5
h-62v65h61q52 0 84 38t32 97q0 58 -33 92t-97 34q-65 0 -97.5 -30t-40.5 -83h-79q6 39 22.5 71t44 55.5t66 36.5t88.5 13q95 0 149.5 -50t54.5 -133q0 -29 -7.5 -56t-22 -49.5t-35.5 -39t-48 -25.5q29 -6 53 -21.5t41.5 -39.5t27 -55.5t9.5 -68.5q0 -88 -50.5 -145
t-142.5 -65v-33q83 -15 83 -95z" />
    <glyph glyph-name="uni0499" unicode="&#x499;" horiz-adv-x="441" 
d="M340 -141q0 -45 -28.5 -74.5t-79.5 -29.5q-47 0 -76 24.5t-34 69.5h56q2 -18 15 -31.5t40 -13.5q26 0 39 15t13 39q0 27 -19 41.5t-66 14.5l5 72q-79 7 -121 55t-52 119h78q8 -52 35.5 -82.5t81.5 -30.5q53 0 80.5 24.5t27.5 72.5q0 42 -29.5 67.5t-80.5 25.5h-41v65h41
q45 0 70.5 22.5t25.5 63.5t-23.5 64t-71.5 23q-49 0 -77 -28t-36 -76h-79q11 75 61 119.5t131 44.5q85 0 127 -39t42 -102q0 -42 -23.5 -74.5t-66.5 -46.5q45 -11 75 -44.5t30 -84.5q0 -63 -38.5 -106t-114.5 -51v-33q83 -15 83 -95z" />
    <glyph glyph-name="uni049A" unicode="&#x49a;" horiz-adv-x="540" 
d="M503 720l-229 -348l213 -305h51v-207h-73v140h-25l-228 337h-69v-337h-78v720h78v-317h73l205 317h82z" />
    <glyph glyph-name="uni049B" unicode="&#x49b;" horiz-adv-x="444" 
d="M60 0v520h74v-213h41l159 213h84l-186 -242l165 -214h59v-204h-71v140h-30l-183 243h-38v-243h-74z" />
    <glyph glyph-name="uni049C" unicode="&#x49c;" horiz-adv-x="559" 
d="M143 720v-317h32v188h52v-188h9l205 317h83l-230 -348l257 -372h-91l-228 337h-5v-255h-52v255h-32v-337h-78v720h78z" />
    <glyph glyph-name="uni049D" unicode="&#x49d;" horiz-adv-x="478" 
d="M60 0v520h74v-213h21v94h49v-94h7l160 213h83l-185 -242l211 -278h-89l-183 243h-4v-190h-49v190h-21v-243h-74z" />
    <glyph glyph-name="uni04A0" unicode="&#x4a0;" horiz-adv-x="683" 
d="M584 0l-229 337h-69v-337h-78v653h-203v67h281v-317h73l206 317h82l-229 -348l256 -372h-90z" />
    <glyph glyph-name="uni04A1" unicode="&#x4a1;" horiz-adv-x="538" 
d="M156 0v456h-148v64h222v-213h41l160 213h83l-186 -242l212 -278h-89l-183 243h-38v-243h-74z" />
    <glyph glyph-name="uni04A2" unicode="&#x4a2;" horiz-adv-x="602" 
d="M535 720v-653h53v-207h-73v140h-59v332h-313v-332h-78v720h78v-321h313v321h79z" />
    <glyph glyph-name="uni04A3" unicode="&#x4a3;" horiz-adv-x="490" 
d="M60 0v520h74v-213h220v213h74v-456h43v-204h-71v140h-46v243h-220v-243h-74z" />
    <glyph glyph-name="uni04AA" unicode="&#x4aa;" horiz-adv-x="623" 
d="M486 -149q-11 -45 -39.5 -69.5t-73.5 -24.5q-48 0 -77 27.5t-29 76.5q0 35 19 67t51 58q-81 0 -137.5 30t-92 81t-51 118t-15.5 142q0 94 21 165t58.5 118.5t89.5 71t114 23.5q51 0 96.5 -17t80 -48t57 -75t27.5 -99h-78q-13 89 -61 131t-122 42q-92 0 -147.5 -76
t-55.5 -236q0 -76 15 -133t42 -95.5t64 -57.5t81 -19q82 0 129.5 49.5t55.5 144.5h78q-6 -86 -46.5 -148.5t-108.5 -92.5q-45 -26 -76 -59.5t-31 -75.5q0 -30 14 -45.5t39 -15.5q20 0 32 9.5t18 32.5h59z" />
    <glyph glyph-name="uni04AB" unicode="&#x4ab;" horiz-adv-x="474" 
d="M390 -149q-11 -45 -40 -69.5t-73 -24.5q-48 0 -77.5 27.5t-29.5 76.5q0 34 19 66.5t51 57.5q-94 2 -149 68t-55 203q0 135 55.5 207t151.5 72q80 0 130.5 -44t61.5 -120h-79q-18 101 -111 101q-63 0 -97.5 -53t-34.5 -166q0 -106 36.5 -155.5t96.5 -49.5q51 0 78.5 30
t35.5 82h78q-8 -53 -34.5 -93t-71.5 -63q-46 -24 -75 -58t-29 -76q0 -61 53 -61q20 0 31.5 9.5t18.5 32.5h59z" />
    <glyph glyph-name="uni04AE" unicode="&#x4ae;" horiz-adv-x="543" 
d="M88 720l184 -365l189 365h79l-231 -436v-284h-76v285l-230 435h85z" />
    <glyph glyph-name="uni04AF" unicode="&#x4af;" horiz-adv-x="441" 
d="M183 -180v180l-172 520h80l131 -444l132 444h77l-174 -520v-180h-74z" />
    <glyph glyph-name="uni04B0" unicode="&#x4b0;" horiz-adv-x="543" 
d="M88 720l184 -365l189 365h79l-202 -381h91v-65h-120v-274h-76v274h-119v65h90l-201 381h85z" />
    <glyph glyph-name="uni04B1" unicode="&#x4b1;" horiz-adv-x="441" 
d="M431 520l-152 -456h70v-64h-92v-180h-74v180h-90v64h67l-149 456h80l131 -447l132 447h77z" />
    <glyph glyph-name="uni04B2" unicode="&#x4b2;" horiz-adv-x="551" 
d="M274 309l-176 -309h-87l222 371l-206 349h91l161 -285l166 285h85l-211 -345l181 -308h52v-207h-74v140h-32z" />
    <glyph glyph-name="uni04B3" unicode="&#x4b3;" horiz-adv-x="450" 
d="M267 275l135 -211h59v-204h-71v140h-35l-132 219l-128 -219h-84l169 272l-160 248h86l119 -192l110 192h82z" />
    <glyph glyph-name="uni04B8" unicode="&#x4b8;" horiz-adv-x="555" 
d="M246 82v156q-94 1 -144.5 59.5t-50.5 179.5v243h78v-245q0 -85 29.5 -124.5t87.5 -45.5v286h52v-285q54 10 84 54.5t30 112.5v247h78v-720h-78v330q-40 -72 -114 -87v-161h-52z" />
    <glyph glyph-name="uni04B9" unicode="&#x4b9;" horiz-adv-x="479" 
d="M128 520v-198q0 -115 83 -125v204h49v-199q24 7 40.5 24t26.5 40t14.5 51t4.5 58v145h73v-520h-73v214q-17 -29 -38.5 -46.5t-47.5 -25.5v-89h-49v80q-72 0 -114.5 45t-42.5 144v198h74z" />
    <glyph glyph-name="uni04BA" unicode="&#x4ba;" horiz-adv-x="552" 
d="M65 0v720h78v-325q26 41 66.5 64t96.5 23q45 0 81.5 -14.5t62.5 -44t40 -74.5t14 -107v-242h-78v245q0 91 -32.5 131t-103.5 40q-69 0 -108 -43.5t-39 -121.5v-251h-78z" />
    <glyph glyph-name="uni04BB" unicode="&#x4bb;" horiz-adv-x="485" 
d="M60 0v720h74v-350q46 87 137 87q78 0 118 -49t40 -140v-268h-74v265q0 64 -24 96.5t-78 32.5q-64 0 -91.5 -51.5t-27.5 -140.5v-202h-74z" />
    <glyph glyph-name="uni04C0" unicode="&#x4c0;" horiz-adv-x="207" 
d="M143 720v-720h-78v720h78z" />
    <glyph glyph-name="uni04CB" unicode="&#x4cb;" horiz-adv-x="557" 
d="M412 330q-26 -47 -67 -69.5t-95 -22.5q-96 0 -147.5 58t-51.5 181v243h78v-245q0 -92 35.5 -131.5t105.5 -39.5q68 0 105 46.5t37 122.5v247h78v-653h53v-207h-73v140h-58v330z" />
    <glyph glyph-name="uni04CC" unicode="&#x4cc;" horiz-adv-x="481" 
d="M346 214q-24 -42 -59.5 -61.5t-77.5 -19.5q-72 0 -113.5 46t-41.5 143v198h74v-198q0 -65 25 -95t76 -30q33 0 55.5 15t36 40t19.5 57t6 66v145h73v-456h43v-204h-71v140h-45v214z" />
    <glyph glyph-name="uni04CF" unicode="&#x4cf;" horiz-adv-x="195" 
d="M134 0h-74v720h74v-720z" />
    <glyph glyph-name="uni04D8" unicode="&#x4d8;" horiz-adv-x="624" 
d="M307 -15q-132 0 -201.5 92t-74.5 286h472q-2 154 -53.5 230t-145.5 76q-79 0 -122 -39t-61 -111h-78q10 48 31.5 87.5t54.5 68t77 44.5t99 16q64 0 115.5 -24t87.5 -71.5t55.5 -117t19.5 -160.5q0 -85 -19.5 -154.5t-55.5 -119t-87 -76.5t-114 -27zM305 52q84 0 133.5 64
t60.5 182h-382q5 -121 53 -183.5t135 -62.5z" />
    <glyph glyph-name="afii10846" unicode="&#x4d9;" horiz-adv-x="497" 
d="M44 374q17 72 68 116.5t136 44.5q100 0 155.5 -69.5t55.5 -205.5q0 -134 -55.5 -204.5t-152.5 -70.5q-49 0 -88.5 17t-67 52.5t-42.5 90.5t-15 132h346q-4 101 -38 148t-100 47q-51 0 -82 -26.5t-42 -71.5h-78zM249 45q122 0 133 172h-269q9 -172 136 -172z" />
    <glyph glyph-name="uni04E2" unicode="&#x4e2;" horiz-adv-x="599" 
d="M194 813v64h220v-64h-220zM456 720h78v-720h-78v561l-315 -522v-39h-76v720h76v-561l315 523v38z" />
    <glyph glyph-name="uni04E3" unicode="&#x4e3;" horiz-adv-x="485" 
d="M134 643v64h220v-64h-220zM60 0v520h73v-381l219 354v27h72v-520h-72v381l-219 -354v-27h-73z" />
    <glyph glyph-name="uni04E8" unicode="&#x4e8;" horiz-adv-x="657" 
d="M329 -15q-64 0 -117 24.5t-91 72t-59 117.5t-21 161t21 161t59.5 117.5t91 72t115.5 24.5q61 0 113.5 -24t91.5 -71.5t61 -117.5t22 -162q0 -90 -21.5 -159.5t-59.5 -117.5t-90.5 -73t-115.5 -25zM329 50q90 0 145.5 70.5t60.5 213.5h-414q5 -142 61 -213t147 -71z
M328 670q-90 0 -144.5 -68.5t-62.5 -201.5h413q-7 133 -62 201.5t-144 68.5z" />
    <glyph glyph-name="uni04E9" unicode="&#x4e9;" horiz-adv-x="504" 
d="M36 260q0 69 15.5 121t44 86t68 51t88.5 17q98 0 157 -68.5t59 -206.5q0 -136 -58.5 -205.5t-157.5 -69.5t-157.5 69.5t-58.5 205.5zM253 46q63 0 98 47t40 141h-278q4 -94 40.5 -141t99.5 -47zM252 474q-62 0 -98 -45t-41 -135h277q-5 91 -41 135.5t-97 44.5z" />
    <glyph glyph-name="uni04EE" unicode="&#x4ee;" horiz-adv-x="495" 
d="M142 813v64h220v-64h-220zM286 121q-23 -68 -50.5 -102t-78.5 -34q-12 0 -24 1.5t-26 6.5v64q16 -5 25 -6t17 -1q13 0 23 5t19 18t17.5 36.5t19.5 59.5h-26l-199 551h79l169 -490l165 490h76z" />
    <glyph glyph-name="uni04EF" unicode="&#x4ef;" horiz-adv-x="442" 
d="M274 -6q-15 -48 -28 -83.5t-29 -59t-35.5 -35t-46.5 -11.5q-25 0 -53 9v61q27 -8 45 -8q14 0 24 7t18.5 22.5t17 41t18.5 62.5h-24l-170 520h80l136 -456l129 456h76zM112 643v64h220v-64h-220z" />
    <glyph glyph-name="Wgrave" unicode="&#x1e80;" horiz-adv-x="826" 
d="M819 720l-162 -720h-95l-147 626l-148 -626h-96l-164 720h80l137 -619l146 619h96l143 -617l137 617h73zM453 768h-64l-116 137h92z" />
    <glyph glyph-name="wgrave" unicode="&#x1e81;" horiz-adv-x="685" 
d="M670 520l-127 -520h-89l-110 435l-108 -435h-91l-130 520h76l102 -439l108 439h90l107 -437l99 437h73zM374 598h-64l-116 137h92z" />
    <glyph glyph-name="Wacute" unicode="&#x1e82;" horiz-adv-x="826" 
d="M819 720l-162 -720h-95l-147 626l-148 -626h-96l-164 720h80l137 -619l146 619h96l143 -617l137 617h73zM467 905h93l-117 -137h-63z" />
    <glyph glyph-name="wacute" unicode="&#x1e83;" horiz-adv-x="685" 
d="M670 520l-127 -520h-89l-110 435l-108 -435h-91l-130 520h76l102 -439l108 439h90l107 -437l99 437h73zM398 735h93l-117 -137h-63z" />
    <glyph glyph-name="Wdieresis" unicode="&#x1e84;" horiz-adv-x="826" 
d="M819 720l-162 -720h-95l-147 626l-148 -626h-96l-164 720h80l137 -619l146 619h96l143 -617l137 617h73zM281 824v85h79v-85h-79zM466 824v85h78v-85h-78z" />
    <glyph glyph-name="wdieresis" unicode="&#x1e85;" horiz-adv-x="685" 
d="M670 520l-127 -520h-89l-110 435l-108 -435h-91l-130 520h76l102 -439l108 439h90l107 -437l99 437h73zM211 635v85h79v-85h-79zM396 635v85h78v-85h-78z" />
    <glyph glyph-name="Ygrave" unicode="&#x1ef2;" horiz-adv-x="543" 
d="M88 720l184 -365l189 365h79l-231 -436v-284h-76v285l-230 435h85zM315 787h-64l-116 137h92z" />
    <glyph glyph-name="ygrave" unicode="&#x1ef3;" horiz-adv-x="442" 
d="M274 -6q-15 -48 -28 -83.5t-29 -59t-35.5 -35t-46.5 -11.5q-25 0 -53 9v61q27 -8 45 -8q14 0 24 7t18.5 22.5t17 41t18.5 62.5h-24l-170 520h80l136 -456l129 456h76zM265 598h-64l-116 137h92z" />
    <glyph glyph-name="uni2007" unicode="&#x2007;" 
 />
    <glyph glyph-name="uni2008" unicode="&#x2008;" horiz-adv-x="292" 
 />
    <glyph glyph-name="uni200B" unicode="&#x200b;" horiz-adv-x="0" 
 />
    <glyph glyph-name="figuredash" unicode="&#x2012;" horiz-adv-x="488" 
d="M423 289h-358v67h358v-67z" />
    <glyph glyph-name="endash" unicode="&#x2013;" horiz-adv-x="368" 
d="M355 289h-343v67h343v-67z" />
    <glyph glyph-name="emdash" unicode="&#x2014;" horiz-adv-x="539" 
d="M527 289h-515v67h515v-67z" />
    <glyph glyph-name="afii00208" unicode="&#x2015;" horiz-adv-x="368" 
d="M355 326h-343v67h343v-67z" />
    <glyph glyph-name="underscoredbl" unicode="&#x2017;" horiz-adv-x="508" 
d="M487 -252h-466v67h466v-67zM487 -121h-466v67h466v-67z" />
    <glyph glyph-name="quoteleft" unicode="&#x2018;" horiz-adv-x="283" 
d="M93 565q0 37 9.5 64.5t26 46t37.5 29t44 15.5v-42q-28 -8 -43.5 -31.5t-15.5 -71.5h37v-97h-95v87z" />
    <glyph glyph-name="quoteright" unicode="&#x2019;" horiz-adv-x="283" 
d="M190 633q0 -38 -9.5 -65t-26 -45.5t-38 -29.5t-44.5 -15v43q29 8 44.5 31t15.5 71h-37v97h95v-87z" />
    <glyph glyph-name="quotesinglbase" unicode="&#x201a;" horiz-adv-x="283" 
d="M190 11q0 -38 -9.5 -65.5t-26 -46t-38 -29.5t-44.5 -15v43q29 8 44.5 31t15.5 71h-37v97h95v-86z" />
    <glyph glyph-name="quotereversed" unicode="&#x201b;" horiz-adv-x="283" 
d="M72 720h95v-97h-37q0 -48 15.5 -71t44.5 -31v-43q-23 4 -44.5 15t-38 29.5t-26 45.5t-9.5 65v87z" />
    <glyph glyph-name="quotedblleft" unicode="&#x201c;" horiz-adv-x="438" 
d="M94 565q0 37 9.5 64.5t26 46t38 29t44.5 15.5v-42q-29 -8 -44.5 -31.5t-15.5 -71.5h37v-97h-95v87zM249 565q0 37 9.5 64.5t25.5 46t37.5 29t44.5 15.5v-42q-29 -8 -44.5 -31.5t-15.5 -71.5h37v-97h-94v87z" />
    <glyph glyph-name="quotedblright" unicode="&#x201d;" horiz-adv-x="437" 
d="M190 633q0 -38 -9.5 -65t-26 -45.5t-38 -29.5t-44.5 -15v43q29 8 44.5 31t15.5 71h-37v97h95v-87zM344 633q0 -38 -9.5 -65t-26 -45.5t-37.5 -29.5t-44 -15v43q29 8 44 31t15 71h-36v97h94v-87z" />
    <glyph glyph-name="quotedblbase" unicode="&#x201e;" horiz-adv-x="437" 
d="M190 11q0 -38 -9.5 -65.5t-26 -46t-38 -29.5t-44.5 -15v43q29 8 44.5 31t15.5 71h-37v97h95v-86zM344 11q0 -38 -9.5 -65.5t-26 -46t-37.5 -29.5t-44 -15v43q29 8 44 31t15 71h-36v97h94v-86z" />
    <glyph glyph-name="dagger" unicode="&#x2020;" 
d="M315 720v-196h164v-70h-164v-454h-70v454h-164v70h164v196h70z" />
    <glyph glyph-name="daggerdbl" unicode="&#x2021;" 
d="M315 720v-189h164v-70h-164v-211h164v-70h-164v-180h-70v180h-164v70h164v211h-164v70h164v189h70z" />
    <glyph glyph-name="bullet" unicode="&#x2022;" horiz-adv-x="273" 
d="M64 245v147h144v-147h-144z" />
    <glyph glyph-name="ellipsis" unicode="&#x2026;" horiz-adv-x="860" 
d="M99 0v97h88v-97h-88zM386 0v97h88v-97h-88zM672 0v97h89v-97h-89z" />
    <glyph glyph-name="perthousand" unicode="&#x2030;" horiz-adv-x="1033" 
d="M778 154q0 -61 23 -87.5t61 -26.5t61.5 26.5t23.5 87.5t-23.5 87.5t-61.5 26.5t-61 -26.5t-23 -87.5zM1007 154q0 -42 -11 -74t-30.5 -53t-46 -31.5t-57.5 -10.5q-62 0 -103 42t-41 127q0 42 11 74t30.5 53t45.5 31.5t57 10.5t57.5 -10.5t46 -31.5t30.5 -53t11 -74z
M237 0h-68l301 700h69zM95 546q0 -61 23 -87.5t61 -26.5t61.5 26.5t23.5 87.5t-23.5 87.5t-61.5 26.5t-61 -26.5t-23 -87.5zM323 546q0 -42 -11 -74t-30.5 -53t-45.5 -31.5t-57 -10.5q-62 0 -103 42t-41 127q0 42 11 74t30.5 53t45.5 31.5t57 10.5t57 -10.5t45.5 -31.5
t30.5 -53t11 -74zM447 154q0 -61 23 -87.5t61 -26.5t61.5 26.5t23.5 87.5t-23.5 87.5t-61.5 26.5t-61 -26.5t-23 -87.5zM676 154q0 -42 -11 -74t-30.5 -53t-46 -31.5t-57.5 -10.5q-62 0 -103 42t-41 127q0 42 11 74t30.5 53t45.5 31.5t57 10.5t57.5 -10.5t46 -31.5t30.5 -53
t11 -74z" />
    <glyph glyph-name="minute" unicode="&#x2032;" horiz-adv-x="232" 
d="M132 490h-51l9 153v92h73v-92z" />
    <glyph glyph-name="second" unicode="&#x2033;" horiz-adv-x="453" 
d="M130 490h-51l9 153v92h73v-92zM262 490h-51l9 153v92h72v-92z" />
    <glyph glyph-name="guilsinglleft" unicode="&#x2039;" horiz-adv-x="261" 
d="M51 315l105 205h54l-77 -208l69 -222h-54z" />
    <glyph glyph-name="guilsinglright" unicode="&#x203a;" horiz-adv-x="261" 
d="M113 90h-54l69 222l-77 208h54l105 -205z" />
    <glyph glyph-name="exclamdbl" unicode="&#x203c;" horiz-adv-x="476" 
d="M84 233l-10 487h88l-10 -487h-68zM74 0v97h90v-97h-90zM322 233l-10 487h88l-10 -487h-68zM312 0v97h90v-97h-90z" />
    <glyph glyph-name="uni203E" unicode="&#x203e;" horiz-adv-x="508" 
d="M487 592h-466v67h466v-67z" />
    <glyph glyph-name="fraction" unicode="&#x2044;" horiz-adv-x="233" 
d="M-130 -90l416 880h72l-417 -880h-71z" />
    <glyph glyph-name="uni2070" unicode="&#x2070;" horiz-adv-x="359" 
d="M180 284q-67 0 -104 56t-37 176q0 61 10 104t29 70.5t44.5 40.5t57.5 13q31 0 57 -12.5t44.5 -40t28.5 -71t10 -104.5q0 -118 -37 -175t-103 -57zM180 342q41 0 57.5 42t16.5 132q0 89 -16.5 130t-57.5 41t-57.5 -41t-16.5 -130q0 -90 16.5 -132t57.5 -42z" />
    <glyph glyph-name="uni2074" unicode="&#x2074;" horiz-adv-x="367" 
d="M271 436h56v-59h-56v-83h-62v83h-170v64l162 294h70v-299zM100 436h109v205z" />
    <glyph glyph-name="uni2075" unicode="&#x2075;" horiz-adv-x="358" 
d="M301 676h-175l-5 -116q16 15 34 22.5t42 7.5q55 0 88.5 -36.5t33.5 -114.5q0 -31 -9 -59t-26.5 -49.5t-44 -34t-61.5 -12.5q-32 0 -56.5 10.5t-42 27.5t-27.5 38t-13 43h69q4 -23 20.5 -41t48.5 -18q33 0 52.5 25t19.5 71q0 96 -71 96q-16 0 -33 -7t-33 -30h-57l8 236
h238v-59z" />
    <glyph glyph-name="uni2076" unicode="&#x2076;" horiz-adv-x="352" 
d="M185 744q50 0 81 -25.5t40 -69.5h-71q-5 17 -16.5 28t-34.5 11q-31 0 -51 -34.5t-25 -122.5q17 29 39.5 41t47.5 12q28 0 50 -11.5t37 -31.5t23 -47.5t8 -58.5q0 -39 -11 -67.5t-29 -47t-42 -27.5t-50 -9q-69 0 -105.5 51.5t-36.5 161.5q0 74 12 122t32.5 75.5t46.5 38.5
t55 11zM179 526q-19 0 -31.5 -8t-20 -20.5t-11 -29t-3.5 -32.5q0 -48 17 -72t48 -24q32 0 48.5 24t16.5 68q0 43 -15.5 68.5t-48.5 25.5z" />
    <glyph glyph-name="uni2077" unicode="&#x2077;" horiz-adv-x="323" 
d="M73 294l144 380h-178v61h245v-62l-139 -379h-72z" />
    <glyph glyph-name="uni2078" unicode="&#x2078;" horiz-adv-x="363" 
d="M181 744q25 0 48.5 -6.5t41.5 -20.5t28.5 -35.5t10.5 -52.5q0 -35 -20 -60.5t-46 -41.5q15 -7 29 -17t25 -24t18 -32t7 -40q0 -57 -37 -93.5t-105 -36.5t-105 35t-37 91q0 49 22 76.5t54 38.5q-27 13 -45 35.5t-18 64.5q0 31 10 53.5t27.5 37t41 21.5t50.5 7zM181 691
q-27 0 -44.5 -16t-17.5 -47q0 -40 19 -57t52 -27q10 5 19.5 11t17 16t12 23.5t4.5 33.5q0 30 -18 46.5t-44 16.5zM168 508q-23 -14 -40 -34.5t-17 -58.5q0 -29 16.5 -51t53.5 -22q36 0 53.5 20.5t17.5 52.5q0 22 -6.5 37t-18 25.5t-27 17.5t-32.5 13z" />
    <glyph glyph-name="uni2079" unicode="&#x2079;" horiz-adv-x="352" 
d="M174 744q70 0 104.5 -49.5t34.5 -162.5q0 -72 -11 -120t-30.5 -76.5t-46.5 -40t-58 -11.5q-51 0 -82 26.5t-42 71.5h73q9 -41 53 -41q17 0 30.5 8t23 26t15 48t8.5 75q-17 -29 -40 -41t-46 -12q-59 0 -90 40t-31 110q0 69 38 109t97 40zM174 687q-32 0 -48.5 -23.5
t-16.5 -66.5q0 -94 64 -94q19 0 32 8t21 20.5t11 28.5t3 33q0 94 -66 94z" />
    <glyph glyph-name="uni207F" unicode="&#x207f;" horiz-adv-x="352" 
d="M200 726q54 0 84 -33.5t30 -104.5v-237h-62v235q0 48 -16.5 67t-49.5 19q-35 0 -57.5 -25t-22.5 -74v-222h-62v364h51l6 -48q37 59 99 59z" />
    <glyph glyph-name="franc" unicode="&#x20a3;" horiz-adv-x="508" 
d="M50 205h60v495h348v-67h-270v-253h241v-67h-241v-108h136v-62h-136v-143h-78v143h-60v62z" />
    <glyph glyph-name="lira" unicode="&#x20a4;" horiz-adv-x="508" 
d="M341 240h-158v-47q0 -41 -10 -71.5t-40 -53.5h319v-68h-402v68q32 14 45.5 42t13.5 81v49h-41v61h41v98h-40v61h40v63q0 97 47 144.5t125 47.5q69 0 115 -38.5t60 -115.5h-74q-9 43 -33.5 67t-66.5 24q-49 0 -74 -33.5t-25 -96.5v-62h176v-61h-176v-98h158v-61z" />
    <glyph glyph-name="peseta" unicode="&#x20a7;" horiz-adv-x="918" 
d="M182 700q118 0 181 -50t63 -156q0 -26 -4 -43.5t-12 -37.5h43l7 100h54v-100h134q30 12 72 12q61 0 99.5 -32t47.5 -86h-61q-5 32 -27.5 50.5t-61.5 18.5q-38 0 -54 -15.5t-16 -40.5q0 -35 20.5 -50t65.5 -26q39 -9 65 -22t41.5 -30t22 -37.5t6.5 -45.5
q0 -55 -36.5 -89.5t-111.5 -34.5q-50 0 -85 19q-23 -12 -44.5 -15.5t-40.5 -3.5q-53 0 -75 32t-22 90v255h-74q-31 -39 -81.5 -60.5t-119.5 -21.5h-50v-280h-78v700h132zM128 635v-290h36q88 0 134.5 36t46.5 113t-41 109t-117 32h-59zM808 106q0 33 -22 53.5t-82 34.5
q-62 15 -92.5 42.5t-30.5 75.5q0 29 12 50h-79v-272q0 -28 8.5 -40t31.5 -12q8 0 19 1t21 4q-21 27 -26 68h61q9 -77 92 -77q44 0 65.5 19t21.5 53z" />
    <glyph glyph-name="Euro" unicode="&#x20ac;" 
d="M322 -15q-43 0 -80.5 15.5t-66.5 47.5t-49 81t-28 116h-63l14 62h42q-1 10 -1 21v43q0 10 1 20h-56l14 62h48q16 137 73.5 199.5t143.5 62.5q45 0 81 -14t62.5 -38.5t43 -59t22.5 -74.5h-77q-9 57 -42 88.5t-90 31.5q-56 0 -91.5 -45t-46.5 -151h219l-13 -62h-213
q0 -14 -0.5 -22t-0.5 -19q0 -12 0.5 -22.5t1.5 -20.5h192l-13 -62h-173q11 -102 49 -147.5t97 -45.5q105 0 126 121h77q-7 -41 -23 -75.5t-41.5 -59.5t-60.5 -39t-78 -14z" />
    <glyph glyph-name="afii61248" unicode="&#x2105;" horiz-adv-x="880" 
d="M190 -90l416 880h72l-417 -880h-71zM343 467q-4 -27 -15 -50t-29 -40t-43 -27t-56 -10q-71 0 -110.5 47t-39.5 143q0 93 40 144.5t111 51.5q58 0 95 -31.5t45 -86.5h-67q-7 35 -25 49.5t-47 14.5q-42 0 -64.5 -34.5t-22.5 -109.5q0 -69 23.5 -102t63.5 -33
q34 0 51.5 19.5t22.5 54.5h67zM672 376q72 0 115 -48t43 -145q0 -96 -43 -144.5t-116 -48.5t-114.5 48.5t-41.5 144.5q0 99 42.5 146t114.5 47zM672 325q-45 0 -69 -36t-24 -106t24.5 -106t69.5 -36q93 0 93 142t-94 142z" />
    <glyph glyph-name="afii61289" unicode="&#x2113;" horiz-adv-x="477" 
d="M309 49q41 0 73 20l24 -57q-21 -13 -44 -20t-56 -7q-72 0 -121 49t-66 140q-17 -10 -33.5 -20t-35.5 -21v67q17 9 32 18.5t29 19.5q-1 6 -1 12v14q0 239 43 355t147 116q33 0 56.5 -10.5t39.5 -29.5t23.5 -44.5t7.5 -56.5q0 -89 -57 -186.5t-186 -191.5
q9 -90 41.5 -128.5t83.5 -38.5zM179 289q90 75 133.5 153.5t43.5 150.5q0 85 -62 85q-30 0 -52 -27t-36 -76.5t-20.5 -118.5t-6.5 -152v-15z" />
    <glyph glyph-name="afii61352" unicode="&#x2116;" horiz-adv-x="1013" 
d="M549 720v-720h-91l-323 614v-614h-70v720h97l318 -609v609h69zM723 515q0 -89 24.5 -127t66.5 -38q41 0 65.5 37.5t24.5 127.5q0 91 -24 128.5t-66 37.5q-41 0 -66 -38.5t-25 -127.5zM655 515q0 63 12.5 105t34.5 67.5t51 36.5t61 11t60.5 -11t50 -36.5t34 -67.5
t12.5 -105q0 -62 -12.5 -104t-34 -67.5t-50 -36.5t-60.5 -11t-61 10.5t-50.5 36t-34.5 67.5t-13 105zM961 0h-303v67h303v-67z" />
    <glyph glyph-name="trademark" unicode="&#x2122;" horiz-adv-x="715" 
d="M454 324l-92 332v-332h-54v343h-115v-343h-59v343h-113v53h375l87 -319l83 319h88v-396h-56v332l-88 -332h-56z" />
    <glyph glyph-name="Omega" unicode="&#x2126;" horiz-adv-x="657" 
d="M393 70q29 10 55 32t45.5 57.5t31 85.5t11.5 116q0 152 -56.5 230.5t-150.5 78.5q-99 0 -153.5 -78.5t-54.5 -230.5q0 -64 11.5 -114t31 -86t45.5 -59t55 -32v-70h-194v70h86q-25 16 -46 44t-36.5 65.5t-24 83.5t-8.5 98q0 100 23.5 171t63.5 116t92 66t109 21
q56 0 108 -21.5t91.5 -66.5t63.5 -116t24 -170q0 -53 -8.5 -99t-24 -83.5t-37 -65t-46.5 -43.5h87v-70h-194v70z" />
    <glyph glyph-name="estimated" unicode="&#x212e;" horiz-adv-x="945" 
d="M218 339v-218q16 -24 44.5 -42t63.5 -30t73.5 -18.5t73.5 -6.5t72.5 6t72 18.5t64.5 31t51 42.5h58q-55 -64 -134.5 -100.5t-184.5 -36.5q-86 0 -159.5 27t-127.5 75t-84.5 114.5t-30.5 145.5t31.5 146t86.5 116.5t128 77.5t156 28q80 0 153 -27.5t128.5 -77t88.5 -118.5
t33 -153h-657zM727 574q-42 46 -104 74t-150 28t-152.5 -27t-102.5 -74v-196h509v195z" />
    <glyph glyph-name="onethird" unicode="&#x2153;" horiz-adv-x="853" 
d="M148 -90l416 880h72l-417 -880h-71zM211 294h-67v372l-94 -54v67l97 56h64v-441zM663 444q25 0 48.5 -6.5t41 -20.5t28 -36t10.5 -53q0 -35 -20 -62t-58 -38q42 -8 66 -36t24 -77q0 -57 -37 -93t-104 -36q-64 0 -101 33.5t-43 85.5h69q7 -29 24.5 -45t50.5 -16
q36 0 53.5 20.5t17.5 52.5q0 44 -21.5 62.5t-48.5 18.5h-30v53h31q20 0 38.5 16t18.5 56q0 34 -18 49t-44 15q-29 0 -44.5 -16t-18.5 -42h-70q7 53 43 84t94 31z" />
    <glyph glyph-name="twothirds" unicode="&#x2154;" horiz-adv-x="904" 
d="M199 -90l416 880h72l-417 -880h-71zM50 620q7 57 45.5 90.5t97.5 33.5q57 0 94 -33.5t37 -92.5q0 -23 -6 -42.5t-19 -40t-33.5 -43.5t-48.5 -53l-76 -81h180v-64h-262v64l118 127q21 22 36 40t24 33t13 29.5t4 29.5q0 32 -15 50t-47 18q-30 0 -48 -16t-22 -49h-72z
M714 444q25 0 48.5 -6.5t41 -20.5t28 -36t10.5 -53q0 -35 -20 -62t-58 -38q42 -8 66 -36t24 -77q0 -57 -37 -93t-104 -36q-64 0 -101 33.5t-43 85.5h69q7 -29 24.5 -45t50.5 -16q36 0 53.5 20.5t17.5 52.5q0 44 -21.5 62.5t-48.5 18.5h-30v53h31q20 0 38.5 16t18.5 56
q0 34 -18 49t-44 15q-29 0 -44.5 -16t-18.5 -42h-70q7 53 43 84t94 31z" />
    <glyph glyph-name="oneeighth" unicode="&#x215b;" horiz-adv-x="845" 
d="M148 -90l416 880h72l-417 -880h-71zM211 294h-67v372l-94 -54v67l97 56h64v-441zM653 446q25 0 48.5 -6.5t41.5 -20.5t28.5 -35.5t10.5 -52.5q0 -35 -20 -60.5t-46 -41.5q15 -7 29 -17t25 -24t18 -32t7 -40q0 -57 -37 -93.5t-105 -36.5t-105 35t-37 91q0 49 22 76.5
t54 38.5q-27 13 -45 35.5t-18 64.5q0 31 10 53.5t27.5 37t41 21.5t50.5 7zM653 393q-27 0 -44.5 -16t-17.5 -47q0 -40 19 -57t52 -27q10 5 19.5 11t17 16t12 23.5t4.5 33.5q0 30 -18 46.5t-44 16.5zM640 210q-23 -14 -40 -34.5t-17 -58.5q0 -29 16.5 -51t53.5 -22
q36 0 53.5 20.5t17.5 52.5q0 22 -6.5 37t-18 25.5t-27 17.5t-32.5 13z" />
    <glyph glyph-name="threeeighths" unicode="&#x215c;" horiz-adv-x="919" 
d="M222 -90l416 880h72l-417 -880h-71zM727 446q25 0 48.5 -6.5t41.5 -20.5t28.5 -35.5t10.5 -52.5q0 -35 -20 -60.5t-46 -41.5q15 -7 29 -17t25 -24t18 -32t7 -40q0 -57 -37 -93.5t-105 -36.5t-105 35t-37 91q0 49 22 76.5t54 38.5q-27 13 -45 35.5t-18 64.5q0 31 10 53.5
t27.5 37t41 21.5t50.5 7zM727 393q-27 0 -44.5 -16t-17.5 -47q0 -40 19 -57t52 -27q10 5 19.5 11t17 16t12 23.5t4.5 33.5q0 30 -18 46.5t-44 16.5zM714 210q-23 -14 -40 -34.5t-17 -58.5q0 -29 16.5 -51t53.5 -22q36 0 53.5 20.5t17.5 52.5q0 22 -6.5 37t-18 25.5t-27 17.5
t-32.5 13zM195 744q25 0 48.5 -6.5t41 -20.5t28 -36t10.5 -53q0 -35 -20 -62t-58 -38q42 -8 66 -36t24 -77q0 -57 -37 -93t-104 -36q-64 0 -101 33.5t-43 85.5h69q7 -29 24.5 -45t50.5 -16q36 0 53.5 20.5t17.5 52.5q0 44 -21.5 62.5t-48.5 18.5h-30v53h31q20 0 38.5 16
t18.5 56q0 34 -18 49t-44 15q-29 0 -44.5 -16t-18.5 -42h-70q7 53 43 84t94 31z" />
    <glyph glyph-name="fiveeighths" unicode="&#x215d;" horiz-adv-x="916" 
d="M219 -90l416 880h72l-417 -880h-71zM312 676h-175l-5 -116q16 15 34 22.5t42 7.5q55 0 88.5 -36.5t33.5 -114.5q0 -31 -9 -59t-26.5 -49.5t-44 -34t-61.5 -12.5q-32 0 -56.5 10.5t-42 27.5t-27.5 38t-13 43h69q4 -23 20.5 -41t48.5 -18q33 0 52.5 25t19.5 71q0 96 -71 96
q-16 0 -33 -7t-33 -30h-57l8 236h238v-59zM723 446q25 0 48.5 -6.5t41.5 -20.5t28.5 -35.5t10.5 -52.5q0 -35 -20 -60.5t-46 -41.5q15 -7 29 -17t25 -24t18 -32t7 -40q0 -57 -37 -93.5t-105 -36.5t-105 35t-37 91q0 49 22 76.5t54 38.5q-27 13 -45 35.5t-18 64.5
q0 31 10 53.5t27.5 37t41 21.5t50.5 7zM723 393q-27 0 -44.5 -16t-17.5 -47q0 -40 19 -57t52 -27q10 5 19.5 11t17 16t12 23.5t4.5 33.5q0 30 -18 46.5t-44 16.5zM710 210q-23 -14 -40 -34.5t-17 -58.5q0 -29 16.5 -51t53.5 -22q36 0 53.5 20.5t17.5 52.5q0 22 -6.5 37
t-18 25.5t-27 17.5t-32.5 13z" />
    <glyph glyph-name="seveneighths" unicode="&#x215e;" horiz-adv-x="843" 
d="M146 -90l416 880h72l-417 -880h-71zM650 446q25 0 48.5 -6.5t41.5 -20.5t28.5 -35.5t10.5 -52.5q0 -35 -20 -60.5t-46 -41.5q15 -7 29 -17t25 -24t18 -32t7 -40q0 -57 -37 -93.5t-105 -36.5t-105 35t-37 91q0 49 22 76.5t54 38.5q-27 13 -45 35.5t-18 64.5q0 31 10 53.5
t27.5 37t41 21.5t50.5 7zM650 393q-27 0 -44.5 -16t-17.5 -47q0 -40 19 -57t52 -27q10 5 19.5 11t17 16t12 23.5t4.5 33.5q0 30 -18 46.5t-44 16.5zM637 210q-23 -14 -40 -34.5t-17 -58.5q0 -29 16.5 -51t53.5 -22q36 0 53.5 20.5t17.5 52.5q0 22 -6.5 37t-18 25.5t-27 17.5
t-32.5 13zM84 294l144 380h-178v61h245v-62l-139 -379h-72z" />
    <glyph glyph-name="arrowleft" unicode="&#x2190;" horiz-adv-x="600" 
d="M132 400h448v-66h-448l171 -220h-87l-196 253l196 253h87z" />
    <glyph glyph-name="arrowup" unicode="&#x2191;" horiz-adv-x="600" 
d="M335 537v-450h-70v450l-218 -169v83l253 196l253 -196v-83z" />
    <glyph glyph-name="arrowright" unicode="&#x2192;" horiz-adv-x="600" 
d="M468 334h-448v66h448l-171 220h87l196 -253l-196 -253h-87z" />
    <glyph glyph-name="arrowdown" unicode="&#x2193;" horiz-adv-x="600" 
d="M265 196v451h70v-451l218 170v-83l-253 -196l-253 196v83z" />
    <glyph glyph-name="arrowboth" unicode="&#x2194;" horiz-adv-x="900" 
d="M768 334h-636l171 -220h-87l-196 253l196 253h87l-171 -220h636l-171 220h87l196 -253l-196 -253h-87z" />
    <glyph glyph-name="arrowupdn" unicode="&#x2195;" horiz-adv-x="600" 
d="M265 46v641l-218 -169v83l253 196l253 -196v-83l-218 169v-641l218 170v-83l-253 -196l-253 196v83z" />
    <glyph glyph-name="uni2196" unicode="&#x2196;" horiz-adv-x="600" 
d="M202 514l321 -320l-50 -50l-316 317l-34 -272l-61 58l40 318l318 40l58 -56z" />
    <glyph glyph-name="uni2197" unicode="&#x2197;" horiz-adv-x="600" 
d="M428 461l-316 -317l-50 50l321 320l-276 35l58 56l318 -40l40 -318l-61 -58z" />
    <glyph glyph-name="uni2198" unicode="&#x2198;" horiz-adv-x="600" 
d="M383 235l-321 320l50 50l316 -317l34 272l61 -58l-40 -318l-318 -40l-58 56z" />
    <glyph glyph-name="uni2199" unicode="&#x2199;" horiz-adv-x="600" 
d="M157 288l316 317l50 -50l-321 -321l276 -34l-58 -56l-318 40l-40 318l61 58z" />
    <glyph glyph-name="arrowupdnbse" unicode="&#x21a8;" horiz-adv-x="600" 
d="M265 46v641l-218 -169v83l253 196l253 -196v-83l-218 169v-641l218 170v-83l-253 -196l-253 196v83zM533 -194h-466v67h466v-67z" />
    <glyph glyph-name="partialdiff" unicode="&#x2202;" horiz-adv-x="486" 
d="M120 742q72 -10 132 -38.5t103.5 -79.5t67.5 -126.5t24 -180.5q0 -77 -12.5 -138.5t-38 -104.5t-64.5 -66t-93 -23q-94 0 -148.5 66t-54.5 187q0 53 13 97.5t37 77t58.5 50.5t78.5 18q57 0 95 -30.5t54 -75.5q-6 78 -27 132t-54.5 89t-77.5 53.5t-96 25.5zM372 232
q0 39 -8 72.5t-24.5 59t-42 40t-61.5 14.5q-60 0 -92.5 -45t-32.5 -140q0 -94 33.5 -139.5t93.5 -45.5q66 0 100 48t34 136z" />
    <glyph glyph-name="Delta" unicode="&#x2206;" horiz-adv-x="586" 
d="M3 0l245 720h91l244 -720h-580zM106 67h369l-183 575z" />
    <glyph glyph-name="product" unicode="&#x220f;" horiz-adv-x="515" 
d="M71 0v633h-51v67h475v-67h-52v-633h-76v633h-219v-633h-77z" />
    <glyph glyph-name="summation" unicode="&#x2211;" horiz-adv-x="527" 
d="M246 276l-200 379v65h444v-66h-359l197 -378l-197 -380h359v-66h-444v65z" />
    <glyph glyph-name="minus" unicode="&#x2212;" 
d="M459 289h-358v67h358v-67z" />
    <glyph glyph-name="uni2215" unicode="&#x2215;" horiz-adv-x="233" 
d="M-59 -90h-71l416 880h72z" />
    <glyph glyph-name="uni2219" unicode="&#x2219;" horiz-adv-x="212" 
d="M59 270v98h93v-98h-93z" />
    <glyph glyph-name="radical" unicode="&#x221a;" horiz-adv-x="517" 
d="M169 0l-155 460h76l121 -374l191 716h166v-64h-109l-206 -738h-84z" />
    <glyph glyph-name="infinity" unicode="&#x221e;" horiz-adv-x="648" 
d="M190 526q38 0 74 -25t60 -73q23 51 58 74.5t78 23.5q41 0 70 -15.5t48 -40.5t27.5 -56.5t8.5 -63.5q0 -30 -9 -61.5t-27.5 -57t-48.5 -41.5t-72 -16q-38 0 -74 24.5t-60 72.5q-22 -50 -57.5 -73.5t-78.5 -23.5q-41 0 -70 15.5t-47.5 40.5t-27.5 56.5t-9 63.5q0 30 9 61
t28 56.5t48.5 42t71.5 16.5zM453 232q45 0 68.5 34t23.5 84q0 51 -23.5 84.5t-65.5 33.5q-22 0 -40.5 -11.5t-32 -29.5t-22 -40.5t-11.5 -44.5q1 -9 8 -27t20 -36.5t32 -32.5t43 -14zM194 468q-45 0 -68.5 -34t-23.5 -84q0 -51 24 -84.5t66 -33.5q22 0 40 11.5t31.5 29.5
t22 40.5t11.5 44.5q-1 9 -8 27t-20 36.5t-31.5 32.5t-43.5 14z" />
    <glyph glyph-name="orthogonal" unicode="&#x221f;" horiz-adv-x="735" 
d="M130 80h555v-80h-635v770h80v-690z" />
    <glyph glyph-name="intersection" unicode="&#x2229;" horiz-adv-x="600" 
d="M147 38h-78v310q0 48 18 90t49.5 73.5t73.5 49.5t90 18t90 -18t73.5 -49.5t49.5 -73.5t18 -90v-310h-78v310q0 31 -12 59t-33 49t-49 33t-59 12q-32 0 -59.5 -12t-48.5 -33t-33 -49t-12 -59v-310z" />
    <glyph glyph-name="integral" unicode="&#x222b;" horiz-adv-x="497" 
d="M114 -109q21 -3 37 -4t30 -1q27 0 42 15t15 52v841q0 59 30.5 96.5t87.5 37.5q24 0 42 -1.5t37 -3.5v-63q-21 2 -36.5 3t-29.5 1q-27 0 -42.5 -15t-15.5 -51v-841q0 -60 -30 -97.5t-88 -37.5q-23 0 -41.5 1.5t-37.5 4.5v63z" />
    <glyph glyph-name="approxequal" unicode="&#x2248;" 
d="M363 433q30 0 53 13.5t43 33.5v-73q-16 -16 -41.5 -28t-57.5 -12q-27 0 -47.5 8.5t-39.5 19t-37 19.5t-39 9q-30 0 -53 -13t-43 -33v73q17 15 42.5 27.5t56.5 12.5q27 0 47.5 -9t39.5 -19.5t37 -19.5t39 -9zM363 229q30 0 53 13.5t43 33.5v-73q-16 -16 -41.5 -28
t-57.5 -12q-27 0 -47.5 8.5t-39.5 19t-37 19.5t-39 9q-30 0 -53 -13t-43 -33v73q17 15 42.5 27.5t56.5 12.5q27 0 47.5 -9t39.5 -19.5t37 -19.5t39 -9z" />
    <glyph glyph-name="notequal" unicode="&#x2260;" 
d="M459 185h-218l-76 -145h-68l76 145h-71v67h110l71 140h-181v67h219l74 141h68l-74 -141h70v-67h-108l-71 -140h179v-67z" />
    <glyph glyph-name="equivalence" unicode="&#x2261;" horiz-adv-x="586" 
d="M484 247h-382v62h382v-62zM484 48h-382v62h382v-62zM484 445h-382v62h382v-62z" />
    <glyph glyph-name="lessequal" unicode="&#x2264;" 
d="M178 334v-3l281 -127v-75l-358 168v71l358 185v-76zM459 0h-358v67h358v-67z" />
    <glyph glyph-name="greaterequal" unicode="&#x2265;" 
d="M383 331v3l-282 143v76l358 -185v-71l-358 -168v75zM101 67h358v-67h-358v67z" />
    <glyph glyph-name="dotmath" unicode="&#x22c5;" horiz-adv-x="292" 
d="M99 270v98h94v-98h-94z" />
    <glyph glyph-name="star" unicode="&#x22c6;" horiz-adv-x="597" 
d="M301 746l46 -279l216 184l-145 -244l284 3l-268 -93l220 -182l-266 102l52 -281l-139 249l-140 -249l53 281l-266 -102l219 182l-268 93l285 -3l-145 244l215 -184z" />
    <glyph glyph-name="house" unicode="&#x2302;" horiz-adv-x="724" 
d="M674 0h-624v370l311 277l313 -277v-370zM134 78h456v254l-229 206l-227 -206v-254z" />
    <glyph glyph-name="revlogicalnot" unicode="&#x2310;" horiz-adv-x="600" 
d="M112 351h376v-77h-293v-143h-83v220z" />
    <glyph glyph-name="integraltp" unicode="&#x2320;" horiz-adv-x="600" 
d="M483 765q-21 7 -40.5 9.5t-37.5 2.5q-35 0 -51 -18t-16 -51v-1070h-89v1070q0 73 40.5 108.5t108.5 35.5q50 0 85 -12v-75z" />
    <glyph glyph-name="integralbt" unicode="&#x2321;" horiz-adv-x="600" 
d="M104 -126q21 -7 40.5 -9.5t37.5 -2.5q35 0 51 18t16 51v1069h89v-1069q0 -73 -40.5 -108.5t-108.5 -35.5q-51 0 -85 12v75z" />
    <glyph glyph-name="SF100000" unicode="&#x2500;" 
d="M-5 387h570v-70h-570v70z" />
    <glyph glyph-name="SF110000" unicode="&#x2502;" 
d="M245 1000h70v-1362h-70v1362z" />
    <glyph glyph-name="SF010000" unicode="&#x250c;" 
d="M245 387h320v-70h-250v-679h-70v749z" />
    <glyph glyph-name="SF030000" unicode="&#x2510;" 
d="M-5 387h320v-749h-70v679h-250v70z" />
    <glyph glyph-name="SF020000" unicode="&#x2514;" 
d="M245 1000h70v-613h250v-70h-320v683z" />
    <glyph glyph-name="SF040000" unicode="&#x2518;" 
d="M-5 387h250v613h70v-683h-320v70z" />
    <glyph glyph-name="SF080000" unicode="&#x251c;" 
d="M245 1000h70v-613h250v-70h-250v-679h-70v1362z" />
    <glyph glyph-name="SF090000" unicode="&#x2524;" 
d="M-5 387h250v613h70v-1362h-70v679h-250v70z" />
    <glyph glyph-name="SF060000" unicode="&#x252c;" 
d="M-5 387h570v-70h-250v-679h-70v679h-250v70z" />
    <glyph glyph-name="SF070000" unicode="&#x2534;" 
d="M-5 387h250v613h70v-613h250v-70h-570v70z" />
    <glyph glyph-name="SF050000" unicode="&#x253c;" 
d="M-5 387h250v613h70v-613h250v-70h-250v-679h-70v679h-250v70z" />
    <glyph glyph-name="SF430000" unicode="&#x2550;" 
d="M-5 317h570v-70h-570v70zM565 387h-570v70h570v-70z" />
    <glyph glyph-name="SF240000" unicode="&#x2551;" 
d="M315 -362v1362h70v-1362h-70zM175 1000h70v-1362h-70v1362z" />
    <glyph glyph-name="SF510000" unicode="&#x2552;" 
d="M565 387h-250v-70h250v-70h-250v-609h-70v819h320v-70z" />
    <glyph glyph-name="SF520000" unicode="&#x2553;" 
d="M315 -362v679h-70v-679h-70v749h390v-70h-180v-679h-70z" />
    <glyph glyph-name="SF390000" unicode="&#x2554;" 
d="M175 457h390v-70h-320v-749h-70v819zM315 -362v679h250v-70h-180v-609h-70z" />
    <glyph glyph-name="SF220000" unicode="&#x2555;" 
d="M-5 317h250v70h-250v70h320v-819h-70v609h-250v70z" />
    <glyph glyph-name="SF210000" unicode="&#x2556;" 
d="M-5 387h390v-749h-70v679h-70v-679h-70v679h-180v70z" />
    <glyph glyph-name="SF250000" unicode="&#x2557;" 
d="M315 -362v749h-320v70h390v-819h-70zM-5 317h250v-679h-70v609h-180v70z" />
    <glyph glyph-name="SF500000" unicode="&#x2558;" 
d="M565 387h-250v-70h250v-70h-320v753h70v-543h250v-70z" />
    <glyph glyph-name="SF490000" unicode="&#x2559;" 
d="M175 1000h70v-613h70v613h70v-613h180v-70h-390v683z" />
    <glyph glyph-name="SF380000" unicode="&#x255a;" 
d="M565 317v-70h-390v753h70v-683h320zM565 387h-250v613h70v-543h180v-70z" />
    <glyph glyph-name="SF280000" unicode="&#x255b;" 
d="M-5 317h250v70h-250v70h250v543h70v-753h-320v70z" />
    <glyph glyph-name="SF270000" unicode="&#x255c;" 
d="M-5 387h180v613h70v-613h70v613h70v-683h-390v70z" />
    <glyph glyph-name="SF260000" unicode="&#x255d;" 
d="M-5 317h320v683h70v-753h-390v70zM175 1000h70v-613h-250v70h180v543z" />
    <glyph glyph-name="SF360000" unicode="&#x255e;" 
d="M565 387h-250v-70h250v-70h-250v-609h-70v1362h70v-543h250v-70z" />
    <glyph glyph-name="SF370000" unicode="&#x255f;" 
d="M315 -362v1362h70v-613h180v-70h-180v-679h-70zM175 1000h70v-1362h-70v1362z" />
    <glyph glyph-name="SF420000" unicode="&#x2560;" 
d="M175 1000h70v-1362h-70v1362zM315 -362v679h250v-70h-180v-609h-70zM565 387h-250v613h70v-543h180v-70z" />
    <glyph glyph-name="SF190000" unicode="&#x2561;" 
d="M-5 317h250v70h-250v70h250v543h70v-1362h-70v609h-250v70z" />
    <glyph glyph-name="SF200000" unicode="&#x2562;" 
d="M175 -362v679h-180v70h180v613h70v-1362h-70zM315 -362v1362h70v-1362h-70z" />
    <glyph glyph-name="SF230000" unicode="&#x2563;" 
d="M315 -362v1362h70v-1362h-70zM-5 317h250v-679h-70v609h-180v70zM175 1000h70v-613h-250v70h180v543z" />
    <glyph glyph-name="SF470000" unicode="&#x2564;" 
d="M-5 317h570v-70h-250v-609h-70v609h-250v70zM565 387h-570v70h570v-70z" />
    <glyph glyph-name="SF480000" unicode="&#x2565;" 
d="M-5 387h570v-70h-180v-679h-70v679h-70v-679h-70v679h-180v70z" />
    <glyph glyph-name="SF410000" unicode="&#x2566;" 
d="M-5 317h250v-679h-70v609h-180v70zM315 -362v679h250v-70h-180v-609h-70zM565 387h-570v70h570v-70z" />
    <glyph glyph-name="SF450000" unicode="&#x2567;" 
d="M565 387h-570v70h250v543h70v-543h250v-70zM-5 317h570v-70h-570v70z" />
    <glyph glyph-name="SF460000" unicode="&#x2568;" 
d="M-5 387h180v613h70v-613h70v613h70v-613h180v-70h-570v70z" />
    <glyph glyph-name="SF400000" unicode="&#x2569;" 
d="M565 387h-250v613h70v-543h180v-70zM175 1000h70v-613h-250v70h180v543zM-5 317h570v-70h-570v70z" />
    <glyph glyph-name="SF540000" unicode="&#x256a;" 
d="M565 387h-250v-70h250v-70h-250v-609h-70v609h-250v70h250v70h-250v70h250v543h70v-543h250v-70z" />
    <glyph glyph-name="SF530000" unicode="&#x256b;" 
d="M-5 387h180v613h70v-613h70v613h70v-613h180v-70h-180v-679h-70v679h-70v-679h-70v679h-180v70z" />
    <glyph glyph-name="SF440000" unicode="&#x256c;" 
d="M-5 317h250v-679h-70v609h-180v70zM315 -362v679h250v-70h-180v-609h-70zM565 387h-250v613h70v-543h180v-70zM175 1000h70v-613h-250v70h180v543z" />
    <glyph glyph-name="upblock" unicode="&#x2580;" 
d="M560 319h-560v681h560v-681z" />
    <glyph glyph-name="dnblock" unicode="&#x2584;" 
d="M0 319h560v-681h-560v681z" />
    <glyph glyph-name="block" unicode="&#x2588;" 
d="M0 1000h560v-1362h-560v1362z" />
    <glyph glyph-name="lfblock" unicode="&#x258c;" 
d="M0 1000h280v-1362h-280v1362z" />
    <glyph glyph-name="rtblock" unicode="&#x2590;" 
d="M280 -362v1362h280v-1362h-280z" />
    <glyph glyph-name="ltshade" unicode="&#x2591;" 
d="M448 -292v-68h-56v68h56zM336 -156v-68h-56v68h56zM112 252v-68h-56v68h56zM336 116v-68h-56v68h56zM336 252v-68h-56v68h56zM336 388v-68h-56v68h56zM336 524v-68h-56v68h56zM336 660v-68h-56v68h56zM336 796v-68h-56v68h56zM336 932v-68h-56v68h56zM448 -20v-68h-56v68
h56zM112 -156v-68h-56v68h56zM112 524v-68h-56v68h56zM112 116v-68h-56v68h56zM336 -20v-68h-56v68h56zM112 388v-68h-56v68h56zM224 -20v-68h-56v68h56zM112 660v-68h-56v68h56zM112 796v-68h-56v68h56zM112 932v-68h-56v68h56zM112 -292v-68h-56v68h56zM224 932v-68h-56
v68h56zM224 796v-68h-56v68h56zM224 660v-68h-56v68h56zM224 524v-68h-56v68h56zM224 388v-68h-56v68h56zM448 524v-68h-56v68h56zM224 116v-68h-56v68h56zM112 -20v-68h-56v68h56zM224 -156v-68h-56v68h56zM336 -292v-68h-56v68h56zM448 932v-68h-56v68h56zM448 796v-68
h-56v68h56zM448 660v-68h-56v68h56zM224 252v-68h-56v68h56zM448 388v-68h-56v68h56zM448 252v-68h-56v68h56zM448 116v-68h-56v68h56zM224 -292v-68h-56v68h56zM448 -156v-68h-56v68h56zM560 -292v-68h-56v68h56zM560 -156v-68h-56v68h56zM560 -20v-68h-56v68h56zM560 116
v-68h-56v68h56zM560 252v-68h-56v68h56zM560 388v-68h-56v68h56zM560 524v-68h-56v68h56zM560 660v-68h-56v68h56zM560 796v-68h-56v68h56zM560 932v-68h-56v68h56z" />
    <glyph glyph-name="shade" unicode="&#x2592;" 
d="M503 -292h-55v-68h-57v68h-55v-68h-57v68h-55v-68h-57v68h-55v-68h-57v68h-55v69h55v67h-55v69h55v67h-55v69h55v67h-55v69h55v67h-55v69h55v67h-55v69h55v67h-55v69h55v67h-55v69h55v67h-55v69h55v67h-55v68h56v-67h55v67h57v-67h55v67h57v-67h55v67h57v-67h55v67h57
v-67h56v-69h-56v-67h56v-69h-56v-67h56v-69h-56v-67h56v-69h-56v-67h56v-69h-56v-67h56v-69h-56v-67h56v-69h-56v-67h56v-69h-56v-67h56v-69h-56v-67h56v-69h-57v68zM392 -291h55v67h-55v-67zM168 -291h55v67h-55v-67zM448 -223h55v67h-55v-67zM224 -223h55v67h-55v-67z
M280 797h55v67h-55v-67zM112 729h55v67h-55v-67zM112 -87h55v67h-55v-67zM392 253h55v67h-55v-67zM280 -155h55v67h-55v-67zM392 -19h55v67h-55v-67zM280 -291h55v67h-55v-67zM336 865h55v67h-55v-67zM448 -87h55v67h-55v-67zM168 253h55v67h-55v-67zM56 525h55v67h-55v-67z
M280 661h55v67h-55v-67zM168 -19h55v67h-55v-67zM56 -155h55v67h-55v-67zM336 49h55v67h-55v-67zM56 661h55v67h-55v-67zM280 253h55v67h-55v-67zM280 525h55v67h-55v-67zM392 525h55v67h-55v-67zM112 865h55v67h-55v-67zM168 797h55v67h-55v-67zM168 661h55v67h-55v-67z
M392 389h55v67h-55v-67zM280 117h55v67h-55v-67zM448 321h55v67h-55v-67zM336 185h55v67h-55v-67zM56 117h55v67h-55v-67zM392 797h55v67h-55v-67zM336 -87h55v67h-55v-67zM56 -19h55v67h-55v-67zM224 49h55v67h-55v-67zM224 729h55v67h-55v-67zM224 185h55v67h-55v-67z
M112 49h55v67h-55v-67zM448 185h55v67h-55v-67zM224 321h55v67h-55v-67zM224 457h55v67h-55v-67zM448 865h55v67h-55v-67zM280 -19h55v67h-55v-67zM112 321h55v67h-55v-67zM336 593h55v67h-55v-67zM224 593h55v67h-55v-67zM56 797h55v67h-55v-67zM448 457h55v67h-55v-67z
M112 185h55v67h-55v-67zM168 389h55v67h-55v-67zM336 321h55v67h-55v-67zM448 49h55v67h-55v-67zM168 -155h55v67h-55v-67zM56 389h55v67h-55v-67zM224 -87h55v67h-55v-67zM448 593h55v67h-55v-67zM224 865h55v67h-55v-67zM392 661h55v67h-55v-67zM56 253h55v67h-55v-67z
M168 525h55v67h-55v-67zM336 457h55v67h-55v-67zM392 117h55v67h-55v-67zM112 457h55v67h-55v-67zM448 729h55v67h-55v-67zM280 389h55v67h-55v-67zM336 729h55v67h-55v-67zM168 117h55v67h-55v-67zM112 -223h55v67h-55v-67zM336 -223h55v67h-55v-67zM56 -291h55v67h-55v-67
zM112 593h55v67h-55v-67zM392 -155h55v67h-55v-67z" />
    <glyph glyph-name="dkshade" unicode="&#x2593;" 
d="M56 -360h-56v1360h560v-68h-56v-68h56v-68h-56v-68h56v-68h-56v-68h56v-68h-56v-68h56v-68h-56v-68h56v-68h-56v-68h56v-68h-56v-68h56v-68h-56v-68h56v-68h-56v-68h56v-68h-56v-68h-56v68h-56v-68h-56v68h-56v-68h-56v68h-56v-68h-56v68h-56v-68zM392 48h56v68h-56v-68z
M392 184h56v68h-56v-68zM392 320h56v68h-56v-68zM168 184h56v68h-56v-68zM392 592h56v68h-56v-68zM392 728h56v68h-56v-68zM392 864h56v68h-56v-68zM168 -224h56v68h-56v-68zM56 -88h56v68h-56v-68zM168 48h56v68h-56v-68zM392 456h56v68h-56v-68zM168 320h56v68h-56v-68z
M168 456h56v68h-56v-68zM168 592h56v68h-56v-68zM168 728h56v68h-56v-68zM168 864h56v68h-56v-68zM56 864h56v68h-56v-68zM56 728h56v68h-56v-68zM56 592h56v68h-56v-68zM168 -88h56v68h-56v-68zM56 320h56v68h-56v-68zM280 -88h56v68h-56v-68zM56 48h56v68h-56v-68zM56 456
h56v68h-56v-68zM56 -224h56v68h-56v-68zM392 -88h56v68h-56v-68zM280 864h56v68h-56v-68zM280 728h56v68h-56v-68zM280 592h56v68h-56v-68zM280 456h56v68h-56v-68zM280 320h56v68h-56v-68zM280 184h56v68h-56v-68zM280 48h56v68h-56v-68zM56 184h56v68h-56v-68zM280 -224
h56v68h-56v-68zM392 -224h56v68h-56v-68z" />
    <glyph glyph-name="filledbox" unicode="&#x25a0;" 
d="M26 508h508v-508h-508v508z" />
    <glyph glyph-name="H22073" unicode="&#x25a1;" 
d="M26 508h508v-508h-508v508zM464 70v368h-368v-368h368z" />
    <glyph glyph-name="H18543" unicode="&#x25aa;" 
d="M133 254h267v-254h-267v254z" />
    <glyph glyph-name="H18551" unicode="&#x25ab;" 
d="M133 254h267v-254h-267v254zM330 70v114h-127v-114h127z" />
    <glyph glyph-name="filledrect" unicode="&#x25ac;" 
d="M26 254h508v-254h-508v254z" />
    <glyph glyph-name="uni25AF" unicode="&#x25af;" horiz-adv-x="485" 
d="M60 720h365v-720h-365v720zM358 67v586h-231v-586h231z" />
    <glyph glyph-name="triagup" unicode="&#x25b2;" horiz-adv-x="600" 
d="M300 540l270 -540h-540z" />
    <glyph glyph-name="triagrt" unicode="&#x25ba;" horiz-adv-x="600" 
d="M30 0v540l540 -270z" />
    <glyph glyph-name="triagdn" unicode="&#x25bc;" horiz-adv-x="600" 
d="M30 540h540l-270 -540z" />
    <glyph glyph-name="triaglf" unicode="&#x25c4;" horiz-adv-x="600" 
d="M30 270l540 270v-540z" />
    <glyph glyph-name="lozenge" unicode="&#x25ca;" 
d="M276 642l-132 -292l133 -293l139 293zM315 0h-79l-167 350l168 350h78l176 -350z" />
    <glyph glyph-name="circle" unicode="&#x25cb;" 
d="M26 254q0 52 20 98.5t54.5 81t80.5 54.5t99 20q52 0 98.5 -20t81 -54.5t54.5 -81t20 -98.5q0 -53 -20 -99t-54.5 -80.5t-81 -54.5t-98.5 -20q-53 0 -99 20t-80.5 54.5t-54.5 80.5t-20 99zM96 254q0 -38 14.5 -71.5t39.5 -58.5t58.5 -39.5t71.5 -14.5t71.5 14.5t58.5 39.5
t39.5 58.5t14.5 71.5t-14.5 71.5t-39.5 58.5t-58.5 39.5t-71.5 14.5t-71.5 -14.5t-58.5 -39.5t-39.5 -58.5t-14.5 -71.5z" />
    <glyph glyph-name="H18533" unicode="&#x25cf;" 
d="M26 254q0 52 20 98.5t54.5 81t80.5 54.5t99 20q52 0 98.5 -20t81 -54.5t54.5 -81t20 -98.5q0 -53 -20 -99t-54.5 -80.5t-81 -54.5t-98.5 -20q-53 0 -99 20t-80.5 54.5t-54.5 80.5t-20 99z" />
    <glyph glyph-name="invbullet" unicode="&#x25d8;" horiz-adv-x="600" 
d="M30 540h540v-540h-540v540zM93 270q0 -43 16.5 -80.5t44.5 -65.5t65.5 -44.5t80.5 -16.5q42 0 80 16.5t66 44.5t44.5 65.5t16.5 80.5q0 42 -16.5 80t-44.5 66t-66 44.5t-80 16.5q-43 0 -80.5 -16.5t-65.5 -44.5t-44.5 -66t-16.5 -80z" />
    <glyph glyph-name="invcircle" unicode="&#x25d9;" 
d="M26 508h508v-508h-508v508zM61 254q0 -45 17 -85t47 -70t70 -47t85 -17t85 17t69.5 47t47 70t17.5 85t-17.5 85t-47 69.5t-69.5 47t-85 17.5t-85 -17.5t-70 -47t-47 -69.5t-17 -85zM131 254q0 31 11.5 58t32 47t47.5 32t58 12t58 -12t47 -32t32 -47t12 -58t-12 -58
t-32 -47.5t-47 -32t-58 -11.5t-58 11.5t-47.5 32t-32 47.5t-11.5 58z" />
    <glyph glyph-name="openbullet" unicode="&#x25e6;" horiz-adv-x="600" 
d="M93 270q0 42 16.5 80t44.5 66t65.5 44.5t80.5 16.5q42 0 80 -16.5t66 -44.5t44.5 -66t16.5 -80q0 -43 -16.5 -80.5t-44.5 -65.5t-66 -44.5t-80 -16.5q-43 0 -80.5 16.5t-65.5 44.5t-44.5 65.5t-16.5 80.5zM168 270q0 -28 10 -52t28 -42t42 -28t52 -10q27 0 51 10t42 28
t28.5 42t10.5 52q0 27 -10.5 51t-28.5 42t-42 28.5t-51 10.5q-28 0 -52 -10.5t-42 -28.5t-28 -42t-10 -51z" />
    <glyph glyph-name="smileface" unicode="&#x263a;" horiz-adv-x="748" 
d="M50 324q0 67 25.5 126t69 102.5t102.5 69t127 25.5q67 0 126 -25.5t103 -69t69.5 -102.5t25.5 -126q0 -68 -25.5 -127t-69.5 -102.5t-103 -69t-126 -25.5q-68 0 -127 25.5t-102.5 69t-69 102.5t-25.5 127zM121 324q0 -54 19.5 -101.5t53 -83.5t80 -56.5t100.5 -20.5
q53 0 99.5 20.5t80.5 56.5t53.5 83.5t19.5 101.5q0 53 -19.5 100.5t-53.5 83t-80.5 56t-99.5 20.5q-54 0 -100.5 -20.5t-80 -56t-53 -83t-19.5 -100.5zM333 415q0 -24 -16 -40t-41 -16q-26 0 -42 16t-16 40q0 23 16 38.5t42 15.5q25 0 41 -15.5t16 -38.5zM525 415
q0 -24 -16 -40t-41 -16q-26 0 -42 16t-16 40q0 23 16 38.5t42 15.5q25 0 41 -15.5t16 -38.5zM374 127q-36 0 -65.5 13t-52 34.5t-36.5 51t-18 62.5h53q12 -47 40 -77t79 -30t79 30t40 77h53q-4 -33 -18 -62.5t-36.5 -51t-52 -34.5t-65.5 -13z" />
    <glyph glyph-name="invsmileface" unicode="&#x263b;" horiz-adv-x="748" 
d="M50 324q0 67 25.5 126t69 102.5t102.5 69t127 25.5q67 0 126 -25.5t103 -69t69.5 -102.5t25.5 -126q0 -68 -25.5 -127t-69.5 -102.5t-103 -69t-126 -25.5q-68 0 -127 25.5t-102.5 69t-69 102.5t-25.5 127zM327 421q0 23 -16 38.5t-41 15.5q-26 0 -42 -15.5t-16 -38.5
q0 -24 16 -40t42 -16q25 0 41 16t16 40zM531 421q0 23 -16 38.5t-41 15.5q-26 0 -42 -15.5t-16 -38.5q0 -24 16 -40t42 -16q25 0 41 16t16 40zM374 122q36 0 66.5 12.5t53.5 34.5t37.5 51t18.5 62h-51q-12 -47 -43 -77t-82 -30t-82 30t-43 77h-51q4 -33 18.5 -62t37.5 -51
t53.5 -34.5t66.5 -12.5z" />
    <glyph glyph-name="sun" unicode="&#x263c;" horiz-adv-x="748" 
d="M262 473q18 13 39 21.5t44 10.5v129h58v-129q23 -2 43 -10.5t38 -21.5l98 98l43 -43l-97 -96q29 -37 37 -86h133v-57h-133q-8 -48 -35 -83l95 -93l-43 -43l-95 96q-38 -26 -84 -33v-132h-58v132q-48 8 -84 33l-95 -96l-43 43l95 93q-13 18 -22 39t-13 44h-133v57h133
q4 24 13 46t23 40l-96 96l43 43zM243 318q0 -58 36.5 -95.5t94.5 -37.5q29 0 53 10t41.5 27.5t27.5 42t10 53.5t-10 53.5t-27.5 42.5t-41.5 28t-53 10t-53 -10t-41.5 -28t-27 -42.5t-9.5 -53.5z" />
    <glyph glyph-name="female" unicode="&#x2640;" horiz-adv-x="485" 
d="M50 457q0 40 15 75t41 60.5t61 40t75 14.5t75 -14.5t61.5 -40t41.5 -60.5t15 -75q0 -36 -12.5 -67.5t-34.5 -55.5t-52 -39.5t-64 -20.5v-100h115v-48h-115v-126h-58v126h-115v48h115v98q-35 5 -65 21t-52 40.5t-34.5 56t-12.5 67.5zM111 457q0 -58 36.5 -95.5t94.5 -37.5
q29 0 53 10t41.5 27.5t27.5 42t10 53.5t-10 53.5t-27.5 42.5t-41.5 28.5t-53 10.5t-53 -10.5t-41.5 -28.5t-27 -42.5t-9.5 -53.5z" />
    <glyph glyph-name="male" unicode="&#x2642;" horiz-adv-x="676" 
d="M50 191q0 40 15 75t41 60.5t61 40t75 14.5q29 0 55 -8t49 -22l183 181l-1 2q-8 -1 -15 -1h-27q-7 0 -15 1l-120 5l23 48l239 -11l14 -237l-54 -22l-6 119v14q0 24 4 44l-3 1l-177 -181q20 -26 32 -57t12 -66q0 -40 -15 -74t-41.5 -59t-61.5 -39t-75 -14t-75 14t-61 39
t-41 59t-15 74zM111 191q0 -58 36.5 -95.5t94.5 -37.5q29 0 53 10t41.5 27.5t27.5 42t10 53.5t-10 53.5t-27.5 42.5t-41.5 28.5t-53 10.5t-53 -10.5t-41.5 -28.5t-27 -42.5t-9.5 -53.5z" />
    <glyph glyph-name="spade" unicode="&#x2660;" horiz-adv-x="652" 
d="M50 0l48 78h187l19 162q-25 -42 -58 -60.5t-78 -18.5q-54 0 -86 34t-32 92q0 40 19 79.5t55 82t87 91t115 107.5q64 -59 115 -107.5t87 -91t55 -82t19 -79.5q0 -58 -32 -92t-86 -34q-45 0 -78 18.5t-58 60.5l19 -162h187l48 -78h-552z" />
    <glyph glyph-name="club" unicode="&#x2663;" horiz-adv-x="652" 
d="M326 657q65 0 104.5 -33t39.5 -91q0 -24 -5.5 -42.5t-14.5 -33t-21 -26t-23 -21.5q22 11 37.5 14t42.5 3q57 0 91.5 -34.5t34.5 -100.5q0 -32 -11 -56.5t-29.5 -41t-43 -25t-51.5 -8.5q-43 0 -74 18.5t-55 60.5l19 -162h187l48 -78h-552l48 78h187l19 162
q-25 -42 -56 -60.5t-73 -18.5q-27 0 -51.5 8.5t-43 25t-29.5 41t-11 56.5q0 66 34.5 100.5t91.5 34.5q27 0 42 -3t38 -14q-12 10 -23 21q-12 12 -21 26.5t-14.5 33t-5.5 42.5q0 58 39.5 91t104.5 33z" />
    <glyph glyph-name="heart" unicode="&#x2665;" horiz-adv-x="700" 
d="M350 0q-63 75 -118 142t-95.5 128.5t-63.5 118t-23 109.5q0 30 9.5 57t27.5 47.5t43.5 32.5t58.5 12q62 0 98 -32.5t63 -90.5q27 58 63 90.5t98 32.5q33 0 58.5 -12t43.5 -32.5t27.5 -47.5t9.5 -57q0 -53 -23.5 -109t-64 -117.5t-95 -129t-117.5 -142.5z" />
    <glyph glyph-name="diamond" unicode="&#x2666;" horiz-adv-x="570" 
d="M285 -13l-235 333l235 328l235 -328z" />
    <glyph glyph-name="musicalnote" unicode="&#x266a;" horiz-adv-x="529" 
d="M190 180q21 0 42 -4t35 -12v471h58l56 -37q54 -36 76 -68t22 -80q0 -27 -6.5 -50.5t-15.5 -43.5l-35 15q0 36 -3 61.5t-11 44t-21.5 32.5t-33.5 27l-28 18v-458q0 -18 -11 -37t-30.5 -35t-47 -26t-60.5 -10q-59 0 -92.5 24t-33.5 66q0 45 38.5 73.5t101.5 28.5z" />
    <glyph glyph-name="musicalnotedbl" unicode="&#x266b;" horiz-adv-x="714" 
d="M325 91q0 -18 -11 -37t-31 -35t-47 -26t-60 -10q-59 0 -92.5 24t-33.5 66q0 45 38.5 73.5t101.5 28.5q20 0 41.5 -4t35.5 -12v428l397 103v-539q0 -18 -11 -37t-30.5 -35t-47 -26t-60.5 -10q-59 0 -92.5 24t-33.5 66q0 45 38.5 73.5t101.5 28.5q21 0 42.5 -4t35.5 -12
v374l-282 -71v-431z" />
    <glyph glyph-name="uniFB00" unicode="&#xfb00;" horiz-adv-x="537" 
d="M542 659q-19 6 -37 9t-30 3q-26 0 -40 -15.5t-14 -50.5v-85h99v-64h-99v-456h-73v456h-189v-456h-73v456h-66v64h66v45q0 33 8 62.5t26 51.5t46 34.5t67 12.5q37 0 72.5 -9t69.5 -23q32 41 87 41q22 0 42.5 -3.5t37.5 -8.5v-64zM159 520h189v81q0 11 1 21.5t3 20.5
q-22 9 -50 16t-58 7q-48 0 -66.5 -25t-18.5 -72v-49z" />
    <glyph glyph-name="fi" unicode="&#xfb01;" horiz-adv-x="475" 
d="M341 0v456h-182v-456h-73v456h-66v64h66v71q0 64 36 104t108 40q33 0 63.5 -6t48.5 -12v-64q-20 6 -47.5 12t-52.5 6q-43 0 -63 -17.5t-20 -58.5v-75h256v-520h-74z" />
    <glyph glyph-name="fl" unicode="&#xfb02;" horiz-adv-x="482" 
d="M348 0v654q-22 7 -50.5 12.5t-50.5 5.5q-49 0 -68.5 -21t-19.5 -66v-65h94v-64h-94v-456h-73v456h-66v64h66v60q0 34 8.5 62.5t26.5 49.5t46 32.5t67 11.5q31 0 62.5 -6t53.5 -12l72 6v-724h-74z" />
    <glyph glyph-name="uniFB03" unicode="&#xfb03;" horiz-adv-x="737" 
d="M602 0v456h-181v-456h-74v456h-188v-456h-73v456h-66v64h66v45q0 33 8 62.5t25.5 51.5t45 34.5t67.5 12.5q38 0 76 -10t74 -24q17 20 44 31.5t65 11.5q34 0 64.5 -6t47.5 -12v-64q-19 6 -47 12t-52 6q-44 0 -63.5 -17.5t-19.5 -58.5v-75h255v-520h-74zM347 591q0 27 6 50
q-22 10 -50 17.5t-59 7.5q-48 0 -66.5 -25t-18.5 -72v-49h188v71z" />
    <glyph glyph-name="uniFB04" unicode="&#xfb04;" horiz-adv-x="744" 
d="M611 0v653q-23 8 -51.5 13t-50.5 5q-47 0 -67.5 -21t-20.5 -66v-64h95v-64h-95v-456h-73v456h-189v-456h-73v456h-66v64h66v45q0 33 8 62.5t26 51.5t46 34.5t67 12.5q38 0 75.5 -10t72.5 -25q17 21 45.5 32.5t70.5 11.5q30 0 61.5 -5.5t53.5 -12.5l72 6v-723h-73z
M348 580q0 17 1.5 32t5.5 29q-23 11 -51.5 18t-59.5 7q-48 0 -66.5 -25t-18.5 -72v-49h189v60z" />
    <glyph glyph-name="uniFEFF" unicode="&#xfeff;" horiz-adv-x="0" 
 />
    <glyph glyph-name="i.latn_TRK" horiz-adv-x="196" 
d="M60 0v520h76v-520h-76zM57 627v93h82v-93h-82z" />
    <glyph glyph-name="Ldot.latn_CAT" horiz-adv-x="479" 
d="M143 720v-650h305v-70h-383v720h78zM286 329v93h82v-93h-82z" />
    <glyph glyph-name="ldot.latn_CAT" horiz-adv-x="302" 
d="M134 0h-74v720h74v-720zM205 329v93h82v-93h-82z" />
    <glyph glyph-name="zero.lf" horiz-adv-x="514" 
d="M259 48q70 0 103.5 73.5t33.5 229.5q0 155 -33.5 228t-103.5 73q-71 0 -104 -73t-33 -228q0 -156 33.5 -229.5t103.5 -73.5zM259 -15q-49 0 -88.5 21.5t-67 66t-42 113.5t-14.5 165q0 97 15.5 166t43 113t66.5 64.5t87 20.5q47 0 86 -20.5t67 -65t43.5 -113.5t15.5 -165
q0 -95 -15 -164t-42.5 -114t-67 -66.5t-87.5 -21.5z" />
    <glyph glyph-name="one.lf" horiz-adv-x="427" 
d="M79 0v67h129v557l-137 -87v75l137 88h73v-633h108v-67h-310z" />
    <glyph glyph-name="two.lf" horiz-adv-x="506" 
d="M46 524q6 42 23 77.5t44 60.5t63 39t78 14q43 0 78 -13.5t60.5 -38t39.5 -60.5t14 -81q0 -35 -8 -65.5t-24.5 -62t-42.5 -65.5t-63 -77l-158 -183h293v-69h-386v69l204 240q28 33 49 60t34.5 52t20 49t6.5 51q0 60 -29 95.5t-89 35.5q-57 0 -90.5 -34.5t-39.5 -93.5h-77z
" />
    <glyph glyph-name="three.lf" horiz-adv-x="504" 
d="M244 -14q-93 0 -146.5 48.5t-64.5 131.5h76q10 -57 42.5 -87.5t92.5 -30.5q66 0 100.5 38.5t34.5 104.5q0 37 -10 64.5t-27 45.5t-40 26.5t-50 8.5h-56v65h55q46 0 78.5 33t32.5 95q0 61 -33 92t-86 31q-57 0 -88.5 -30t-39.5 -83h-75q11 81 64.5 128.5t141.5 47.5
q40 0 75 -11.5t61 -34t40.5 -56t14.5 -78.5q0 -60 -31.5 -103t-82.5 -60q27 -5 51 -19.5t42 -37.5t28.5 -54t10.5 -70q0 -46 -14.5 -83.5t-41.5 -64.5t-66 -42t-89 -15z" />
    <glyph glyph-name="four.lf" horiz-adv-x="520" 
d="M378 419v-223h98v-64h-98v-132h-71v132h-257v71l193 497h68l-190 -504h186v111l11 112h60z" />
    <glyph glyph-name="five.lf" horiz-adv-x="521" 
d="M257 -15q-45 0 -81 14t-62 38.5t-42.5 57.5t-22.5 71h76q10 -54 42.5 -86t89.5 -32q63 0 100.5 47.5t37.5 132.5q0 83 -35 127t-101 44q-45 0 -75.5 -21t-50.5 -52h-61l13 374h354v-63h-286l-9 -237q23 25 54.5 42t78.5 17q88 0 141 -58.5t53 -174.5q0 -51 -14.5 -95.5
t-42.5 -76.5t-67.5 -50.5t-89.5 -18.5z" />
    <glyph glyph-name="six.lf" horiz-adv-x="509" 
d="M374 572q-10 38 -33.5 60t-68.5 22q-30 0 -55 -14t-44 -48.5t-30.5 -92.5t-14.5 -145q23 51 62 77t90 26q44 0 79 -17t59 -47.5t37 -74t13 -95.5q0 -59 -16 -103.5t-43 -74.5t-63.5 -45t-77.5 -15q-57 0 -97 23.5t-66 67t-38 105.5t-12 140q0 118 18 194t48 120.5
t69.5 62t82.5 17.5q71 0 118.5 -38.5t62.5 -104.5h-80zM266 394q-63 0 -96.5 -46.5t-33.5 -118.5q0 -35 7 -68t22 -58t40 -40t61 -15q57 0 92.5 44.5t35.5 125.5q0 84 -32.5 130t-95.5 46z" />
    <glyph glyph-name="seven.lf" horiz-adv-x="469" 
d="M175 0h-77l245 633h-304v67h382v-67z" />
    <glyph glyph-name="eight.lf" horiz-adv-x="518" 
d="M456 539q0 -34 -10 -60.5t-26 -46.5t-36 -34.5t-40 -24.5q24 -11 47.5 -26.5t42.5 -38.5t31 -53.5t12 -69.5q0 -44 -14.5 -80.5t-42.5 -63t-68.5 -41.5t-91.5 -15q-52 0 -92.5 15t-68 41t-42 61.5t-14.5 76.5q0 42 11 73.5t28.5 54t40.5 37.5t47 24q-20 9 -39 23
t-34 33.5t-24 46t-9 61.5q0 47 15.5 81.5t42.5 57t62.5 33.5t75.5 11q39 0 74.5 -10t62.5 -31.5t43 -55t16 -79.5zM399 185q0 42 -14 70t-36.5 45.5t-49.5 27.5t-53 16q-23 -7 -45.5 -19t-40 -31t-28.5 -46t-11 -64q0 -60 35.5 -98.5t102.5 -38.5q66 0 103 37.5t37 100.5z
M136 537q0 -40 13 -66t32.5 -42t42.5 -24t44 -12q21 8 42 19.5t37 29t26 40.5t10 55q0 59 -35.5 89t-87.5 30q-25 0 -47.5 -7t-39.5 -21.5t-27 -37t-10 -53.5z" />
    <glyph glyph-name="nine.lf" horiz-adv-x="509" 
d="M141 129q10 -39 35 -61t70 -22q30 0 55 14t43.5 48t30 92t14.5 145q-23 -51 -62 -76.5t-88 -25.5q-89 0 -139.5 61.5t-50.5 173.5q0 54 15.5 98t42.5 75t64 47.5t80 16.5q57 0 97.5 -23t65.5 -66.5t36.5 -105.5t11.5 -141q0 -116 -17 -192t-46.5 -121t-69.5 -63t-85 -18
q-72 0 -119.5 39t-63.5 105h80zM252 306q63 0 96 46.5t33 118.5q0 36 -6.5 68.5t-22 57.5t-40.5 40t-61 15q-58 0 -92.5 -44.5t-34.5 -125.5q0 -86 33.5 -131t94.5 -45z" />
    <glyph glyph-name="parenleft.case" horiz-adv-x="292" 
d="M131 360q0 -78 10 -146t27.5 -129t41 -114t51.5 -101h-62q-25 38 -50 89t-45 113t-32.5 134.5t-12.5 153.5t12.5 153.5t32.5 134.5t45 113t50 89h62q-28 -48 -51.5 -101t-41 -114t-27.5 -129t-10 -146z" />
    <glyph glyph-name="parenright.case" horiz-adv-x="292" 
d="M160 360q0 78 -10 146t-27 129t-40.5 114t-51.5 101h62q25 -38 50 -89t45 -113t32.5 -134.5t12.5 -153.5t-12.5 -153.5t-32.5 -134.5t-45 -113t-50 -89h-62q28 48 51.5 101t40.5 114t27 129t10 146z" />
    <glyph glyph-name="hyphen.case" horiz-adv-x="463" 
d="M384 326h-306v67h306v-67z" />
    <glyph glyph-name="bracketleft.case" horiz-adv-x="259" 
d="M223 -130h-174v980h174v-63h-105v-854h105v-63z" />
    <glyph glyph-name="bracketright.case" horiz-adv-x="259" 
d="M36 -67h106v854h-106v63h175v-980h-175v63z" />
    <glyph glyph-name="braceleft.case" horiz-adv-x="292" 
d="M32 394q35 0 57 22.5t22 70.5v187q0 42 7.5 75t24.5 55t46 33.5t71 11.5v-60q-49 0 -64.5 -24t-15.5 -69v-181q0 -66 -18 -104t-58 -51q40 -14 58 -51t18 -104v-181q0 -45 15.5 -69t64.5 -24v-60q-42 0 -71 11.5t-46 33.5t-24.5 55t-7.5 75v187q0 48 -22 70.5t-57 22.5
v68z" />
    <glyph glyph-name="braceright.case" horiz-adv-x="292" 
d="M259 326q-34 0 -56 -22.5t-22 -70.5v-204q0 -78 -35 -118t-114 -40v60q48 0 64 24t16 69v198q0 60 20.5 93.5t55.5 44.5q-35 11 -55.5 44.5t-20.5 93.5v198q0 45 -16 69t-64 24v60q79 0 114 -40t35 -118v-204q0 -48 22 -70.5t56 -22.5v-68z" />
    <glyph glyph-name="guillemotleft.case" horiz-adv-x="428" 
d="M51 370l105 205h54l-77 -208l69 -222h-54zM217 370l106 205h54l-78 -208l69 -222h-54z" />
    <glyph glyph-name="uni00AD.case" horiz-adv-x="446" 
d="M379 326h-312v67h312v-67z" />
    <glyph glyph-name="guillemotright.case" horiz-adv-x="428" 
d="M280 145h-54l69 222l-78 208h54l106 -205zM114 145h-54l68 222l-77 208h54l105 -205z" />
    <glyph glyph-name="endash.case" horiz-adv-x="368" 
d="M355 326h-343v67h343v-67z" />
    </font>
</defs>
</svg>
