<?xml version="1.0" encoding="UTF-8" standalone="no"?>
<!-- Created with Inkscape (http://www.inkscape.org/) -->

<svg
   xmlns:dc="http://purl.org/dc/elements/1.1/"
   xmlns:cc="http://creativecommons.org/ns#"
   xmlns:rdf="http://www.w3.org/1999/02/22-rdf-syntax-ns#"
   xmlns:svg="http://www.w3.org/2000/svg"
   xmlns="http://www.w3.org/2000/svg"
   xmlns:sodipodi="http://sodipodi.sourceforge.net/DTD/sodipodi-0.dtd"
   xmlns:inkscape="http://www.inkscape.org/namespaces/inkscape"
   width="634"
   height="154"
   id="svg2"
   version="1.1"
   inkscape:version="0.48.4 r9939"
   sodipodi:docname="cisco_white.svg">
  <defs
     id="defs4" />
  <sodipodi:namedview
     id="base"
     pagecolor="#ffffff"
     bordercolor="#666666"
     borderopacity="1.0"
     inkscape:pageopacity="0.0"
     inkscape:pageshadow="2"
     inkscape:zoom="1.4142136"
     inkscape:cx="230.08894"
     inkscape:cy="-51.897113"
     inkscape:document-units="px"
     inkscape:current-layer="layer1"
     showgrid="false"
     inkscape:window-width="1141"
     inkscape:window-height="833"
     inkscape:window-x="341"
     inkscape:window-y="139"
     inkscape:window-maximized="0"
     width="989px" />
  <metadata
     id="metadata7">
    <rdf:RDF>
      <cc:Work
         rdf:about="">
        <dc:format>image/svg+xml</dc:format>
        <dc:type
           rdf:resource="http://purl.org/dc/dcmitype/StillImage" />
        <dc:title></dc:title>
      </cc:Work>
    </rdf:RDF>
  </metadata>
  <g
     inkscape:label="Layer 1"
     inkscape:groupmode="layer"
     id="layer1"
     transform="translate(0,-898.36218)">
    <path
       style="fill:#c22d21;fill-opacity:1"
       d="m 64.26364,1045.8749 c -14.81695,-2.65 -27.0509,-8.9788 -37.69365,-19.4994 -12.42281,-12.2802 -18.68656,-28.17713 -18.69316,-47.44189 -0.007,-19.21839 6.25901,-35.0625 18.78396,-47.5 11.12958,-11.05186 23.18934,-17.02922 39.50553,-19.58074 12.5904,-1.96888 37.73809,0.84051 40.52644,4.52744 0.98556,1.30316 0.91022,32.42652 -0.0809,33.41762 -0.22448,0.22448 -2.57154,-0.52252 -5.21569,-1.66 -2.64415,-1.13748 -7.90677,-2.60786 -11.69472,-3.2675 -26.12457,-4.5494 -45.80066,10.10207 -45.74493,34.06318 0.0335,14.39883 6.53232,25.09209 18.96992,31.21329 6.35827,3.1292 7.20635,3.284 17.69736,3.2302 9.3094,-0.048 12.17464,-0.4696 18.46706,-2.7187 4.09641,-1.4641 7.59898,-2.5111 7.7835,-2.3266 0.59634,0.5963 0.43528,32.5229 -0.16899,33.5006 -1.98838,3.2173 -31.39517,6.0183 -42.44175,4.0425 z m 184.18258,0.028 c -3.95816,-0.4978 -9.35816,-1.2669 -12,-1.7092 l -4.80335,-0.8042 -0.27751,-14.8632 -0.27751,-14.8633 3.77751,0.6823 c 22.86493,4.13 31.62455,4.5653 40.26053,2.0007 13.07288,-3.8822 14.79412,-14.4739 3.34562,-20.58739 -2.65575,-1.41817 -9.19065,-4.01256 -14.52199,-5.76532 -20.01407,-6.57994 -30.52635,-16.95478 -32.69297,-32.26555 -1.76309,-12.45917 2.8299,-26.89666 10.86642,-34.15717 10.00157,-9.03581 25.3342,-13.3507 43.50796,-12.24394 13.38871,0.81535 24.41787,2.84873 25.60311,4.72028 1.26962,2.00478 1.1354,24.26015 -0.15408,25.54963 -0.75055,0.75055 -2.88114,0.6756 -7.25,-0.25503 -3.4029,-0.72488 -9.34844,-1.61609 -13.21231,-1.98048 -16.88743,-1.5926 -28.64214,5.54692 -23.97907,14.5643 1.90129,3.6767 4.56643,5.07588 19.3277,10.14693 6.42212,2.20624 13.70159,5.30483 16.17659,6.88575 14.31214,9.14193 21.12321,24.23955 18.14257,40.21539 -3.06391,16.4221 -14.85701,28.066 -33.64257,33.217 -7.19333,1.9724 -27.9916,2.796 -38.19665,1.5125 z m 160.18284,-0.4244 c -14.6416,-2.6608 -27.26311,-9.4609 -37.48268,-20.1946 -19.15079,-20.1142 -23.45394,-50.93783 -10.79856,-77.35029 7.77412,-16.225 24.6076,-29.65866 43.29505,-34.55087 12.55875,-3.28776 36.28404,-2.52333 46.89503,1.51096 l 2.60497,0.99041 0,17.02475 c 0,9.36361 -0.21553,17.02475 -0.47895,17.02475 -0.26342,0 -3.97592,-1.21924 -8.25,-2.70943 -6.50277,-2.26724 -9.48471,-2.71445 -18.27105,-2.74016 -9.48159,-0.0278 -11.10467,0.2476 -16.73431,2.83895 -7.23735,3.33139 -14.33229,10.34876 -17.58567,17.39341 -3.12295,6.76223 -3.12295,21.67223 0,28.43446 3.25338,7.04466 10.34832,14.06206 17.58567,17.39336 5.6299,2.5915 7.25227,2.8667 16.73431,2.8386 8.69316,-0.026 11.79005,-0.4812 17.99681,-2.6466 4.12324,-1.4386 7.83574,-2.4061 8.25,-2.1501 0.41425,0.2561 0.75319,7.8751 0.75319,16.9313 0,19.167 1.41026,17.1626 -13.9291,19.7975 -11.01213,1.8916 -20.7881,1.9439 -30.58471,0.1636 z m 134.51381,0.025 c -25.08857,-5.3272 -44.00226,-21.7726 -51.68459,-44.9398 -2.3935,-7.21795 -2.69612,-9.64574 -2.69612,-21.63051 0,-11.98477 0.30262,-14.41256 2.69612,-21.63052 6.95297,-20.96767 23.34408,-36.57981 45.68459,-43.51348 9.70036,-3.01063 28.86321,-3.24199 39,-0.47086 17.51458,4.78802 33.13366,16.68533 41.75962,31.80898 9.15618,16.05326 11.0799,39.04264 4.73818,56.62339 -4.0008,11.0911 -7.27947,16.1249 -16.41918,25.2083 -9.27116,9.2141 -17.97658,14.345 -29.57862,17.4336 -8.45683,2.2512 -25.47229,2.8155 -33.5,1.1109 z m 28,-35.1374 c 6.7766,-3.1389 13.30951,-9.322 16.83419,-15.93291 2.40103,-4.50338 2.66581,-6.04291 2.66581,-15.5 0,-9.43454 -0.26894,-11.00736 -2.65039,-15.5 -3.70673,-6.99281 -9.28225,-12.26877 -16.64851,-15.75403 -5.88421,-2.78404 -6.90467,-2.95181 -15.5,-2.54822 -6.99221,0.32832 -10.24526,0.97366 -13.55051,2.68818 -6.87768,3.56762 -12.5978,9.50772 -15.76052,16.36659 -2.45644,5.32721 -2.88147,7.49956 -2.88543,14.74748 -0.004,7.22529 0.41589,9.3998 2.7995,14.5 6.14679,13.15221 16.14078,19.38211 31.19586,19.44631 6.51438,0.028 9.02136,-0.4389 13.5,-2.5134 z m -416.75,33.9048 c -0.98195,-0.3962 -1.25,-14.402 -1.25,-65.31405 0,-58.17546 0.16192,-64.87182 1.58179,-65.41667 2.06007,-0.79053 27.77635,-0.79053 29.83642,0 1.41986,0.54485 1.58179,7.23912 1.58179,65.39301 0,58.15391 -0.16193,64.84811 -1.58179,65.39301 -1.87962,0.7213 -28.36396,0.6727 -30.16821,-0.055 z"
       id="path3050"
       inkscape:connector-curvature="0"
       sodipodi:nodetypes="cscssssssssssssccsscccssssssssssssssssscsssscsssssssssssssccssssssssssssssssssssssssssssss" />
  </g>
</svg>
